<svg width="377" height="353" viewBox="0 0 377 353" fill="none" xmlns="http://www.w3.org/2000/svg">
<g opacity="0.2">
<path d="M70.9121 311.277L97.3221 336.118" stroke="white" stroke-width="1.56891"/>
<path d="M125.824 257.934L152.234 282.775" stroke="white" stroke-width="1.56891"/>
<path d="M125.034 252.604C127.072 250.624 130.318 250.635 132.344 252.627L156.374 276.256C158.423 278.271 158.462 281.564 156.46 283.627L152.779 287.419C152.009 288.212 150.781 288.344 149.861 287.73C148.958 287.128 147.756 287.242 146.982 288.002L93.8434 340.156C92.7457 341.233 92.7664 343.008 93.8883 344.06C95.0361 345.136 95.0263 346.961 93.8678 348.026L89.9567 351.621C87.9235 353.489 84.7874 353.455 82.7955 351.543L57.2906 327.057C55.2612 325.109 55.1367 321.903 57.0094 319.803L60.6315 315.743C61.5276 314.738 63.0846 314.693 64.0367 315.645C64.9472 316.556 66.4217 316.561 67.3385 315.657L121.368 262.367C122.163 261.583 122.167 260.317 121.416 259.528L121.093 259.225C120.338 258.432 120.346 257.158 121.151 256.376L125.034 252.604ZM205.522 71.0475C251.56 26.3818 318.148 20.3377 354.249 57.5475C390.349 94.7577 382.294 161.132 336.255 205.798C313.941 227.446 286.8 240.021 260.642 242.997C232.959 247.96 192.078 252.465 162.32 266.75C160.331 267.704 157.951 267.394 156.331 265.897L141.693 252.372C139.787 250.61 139.452 247.716 140.662 245.421C146.756 233.858 157.366 205.244 165.051 156.099C166.334 126.83 180.167 95.6465 205.522 71.0475ZM341.344 70.0681C310.832 38.6182 254.553 43.7259 215.641 81.4772C176.73 119.229 169.921 175.328 200.433 206.778C230.946 238.228 287.225 233.119 326.136 195.368C365.048 157.617 371.856 101.518 341.344 70.0681Z" fill="white"/>
<path d="M314.878 47.1766L171.061 189.948" stroke="white" stroke-width="7.84455"/>
<path d="M340.242 66.5266L196.425 209.298" stroke="white" stroke-width="7.84455"/>
<path d="M369.528 87.9684L225.711 230.739" stroke="white" stroke-width="7.84455"/>
<path d="M369.528 131.898L265.457 236.492" stroke="white" stroke-width="7.84455"/>
<path d="M275.394 42.9929L171.323 147.587" stroke="white" stroke-width="7.84455"/>
<path d="M369.528 128.237L282.192 42.9929" stroke="white" stroke-width="7.84455"/>
<path d="M258.658 236.492L171.322 151.248" stroke="white" stroke-width="7.84455"/>
<path d="M302.588 226.555L188.058 113.071" stroke="white" stroke-width="7.84455"/>
<path d="M335.012 203.022L211.591 80.1238" stroke="white" stroke-width="7.84455"/>
<path d="M354.885 170.075L236.171 51.3604" stroke="white" stroke-width="7.84455"/>
<path d="M130.234 174.977C122.228 186.699 106.235 189.712 94.5126 181.706C84.7927 175.067 81.0618 162.937 84.6353 152.303L32.6335 69.3741C35.4946 65.3564 42.2281 57.9148 49.2625 55.4346L78.124 119.455L83.3786 117.086L54.6749 53.418C60.3453 48.6291 71.6005 41.7603 82.7285 42.6775L96.5454 113.464L102.202 112.36L88.5532 42.4362C95.668 37.8956 109.297 32.5505 120.354 38.6174L116.14 108.255L121.893 108.604L125.971 41.1971C132.804 40.4926 144.819 41.1199 148.948 48.4605L130.065 145.728C136.025 154.238 136.44 165.891 130.234 174.977Z" fill="white"/>
<path d="M136.667 110.993C121.915 107.524 89.2181 108.735 67.5879 124.669" stroke="white" stroke-width="5.76299"/>
</g>
<g filter="url(#filter0_f_3_1150)">
<path d="M306.439 72.0117L319.76 87.1176L338.243 79.1172L327.992 96.4536L341.313 111.56L321.657 107.168L311.407 124.504L309.509 104.454L289.854 100.063L308.337 92.0621L306.439 72.0117Z" fill="white"/>
<path d="M93.5383 302.399L96.629 310.973L105.739 310.683L98.5391 316.272L101.63 324.846L94.0895 319.726L86.89 325.315L89.4295 316.562L81.8893 311.442L90.9989 311.152L93.5383 302.399Z" fill="white"/>
<path d="M127.227 69.4013L117.267 86.7129L130.653 101.535L111.111 97.412L101.151 114.724L99.0335 94.8638L79.4913 90.7405L97.7248 82.5897L95.6073 62.7298L108.994 77.5521L127.227 69.4013Z" fill="white"/>
<path d="M125.581 282.039C126.25 282.792 127.027 283.447 127.89 283.977L97.3184 313.945C96.6999 313.154 95.969 312.455 95.1475 311.874L125.581 282.039ZM318.05 97.5713L142.081 270.066C141.568 269.192 140.93 268.401 140.19 267.718L315.95 95.4287L318.05 97.5713ZM133.905 265.023C133.686 265.009 133.466 265 133.243 265C132.441 265 131.661 265.094 130.912 265.269L106.014 82.2021L108.986 81.7979L133.905 265.023Z" fill="white"/>
<circle cx="133.217" cy="275.217" r="5.21686" fill="white"/>
</g>
<path d="M306.439 72.0117L319.76 87.1176L338.243 79.1172L327.992 96.4536L341.313 111.56L321.657 107.168L311.407 124.504L309.509 104.454L289.854 100.063L308.337 92.0621L306.439 72.0117Z" fill="white"/>
<path d="M127.227 69.4013L117.267 86.7129L130.653 101.535L111.111 97.412L101.151 114.724L99.0335 94.8638L79.4913 90.7405L97.7248 82.5897L95.6073 62.7298L108.994 77.5521L127.227 69.4013Z" fill="white"/>
<path d="M93.5383 302.399L96.629 310.973L105.739 310.683L98.5391 316.272L101.63 324.846L94.0895 319.726L86.89 325.315L89.4295 316.562L81.8893 311.442L90.9989 311.152L93.5383 302.399Z" fill="white"/>
<path d="M125.581 282.039C126.25 282.792 127.027 283.447 127.89 283.977L97.3184 313.945C96.6999 313.154 95.969 312.455 95.1475 311.874L125.581 282.039ZM318.05 97.5713L142.081 270.066C141.568 269.192 140.93 268.401 140.19 267.718L315.95 95.4287L318.05 97.5713ZM133.905 265.023C133.686 265.009 133.466 265 133.243 265C132.441 265 131.661 265.094 130.912 265.269L106.014 82.2021L108.986 81.7979L133.905 265.023Z" fill="white"/>
<circle cx="133.217" cy="275.217" r="5.21686" fill="white"/>
<defs>
<filter id="filter0_f_3_1150" x="69.4912" y="52.7297" width="281.821" height="282.586" filterUnits="userSpaceOnUse" color-interpolation-filters="sRGB">
<feFlood flood-opacity="0" result="BackgroundImageFix"/>
<feBlend mode="normal" in="SourceGraphic" in2="BackgroundImageFix" result="shape"/>
<feGaussianBlur stdDeviation="5" result="effect1_foregroundBlur_3_1150"/>
</filter>
</defs>
</svg>
