<svg width="285" height="267" viewBox="0 0 285 267" fill="none" xmlns="http://www.w3.org/2000/svg">
<g opacity="0.2">
<path d="M53.4857 234.78L73.4054 253.516" stroke="white" stroke-width="1.18335"/>
<path d="M94.903 194.546L114.823 213.283" stroke="white" stroke-width="1.18335"/>
<path d="M94.3062 190.527C95.8435 189.034 98.2926 189.041 99.8208 190.544L117.945 208.366C119.491 209.887 119.519 212.37 118.009 213.926L115.233 216.786C114.652 217.384 113.727 217.483 113.033 217.021C112.352 216.567 111.445 216.652 110.861 217.226L70.7817 256.562C69.9541 257.375 69.9687 258.714 70.8149 259.508C71.6807 260.319 71.6741 261.696 70.8003 262.499L67.8491 265.21C66.3156 266.619 63.951 266.593 62.4487 265.151L43.2114 246.684C41.6807 245.214 41.5873 242.796 42.9995 241.212L45.731 238.149C46.4068 237.392 47.5812 237.358 48.2993 238.075C48.9859 238.762 50.099 238.766 50.7905 238.084L91.5415 197.891C92.1812 197.26 92.1415 196.216 91.4556 195.636C90.7663 195.052 90.731 194.001 91.3784 193.372L94.3062 190.527ZM155.015 53.5879C189.74 19.8989 239.963 15.3406 267.192 43.4062C294.421 71.4721 288.344 121.535 253.62 155.224C236.789 171.552 216.318 181.037 196.588 183.281C175.709 187.025 144.874 190.422 122.43 201.196C120.93 201.916 119.135 201.682 117.913 200.553L106.873 190.352C105.435 189.023 105.182 186.84 106.094 185.108C110.691 176.387 118.693 154.803 124.49 117.734C125.458 95.6591 135.893 72.1405 155.015 53.5879ZM257.458 52.8486C234.445 29.1279 191.997 32.9806 162.648 61.4541C133.299 89.928 128.163 132.241 151.177 155.962C174.191 179.683 216.639 175.83 245.988 147.356C275.337 118.883 280.472 76.5697 257.458 52.8486Z" fill="white"/>
<path d="M237.496 35.5831L129.023 143.268" stroke="white" stroke-width="5.91674"/>
<path d="M256.627 50.1778L148.154 157.863" stroke="white" stroke-width="5.91674"/>
<path d="M278.717 66.3502L170.243 174.035" stroke="white" stroke-width="5.91674"/>
<path d="M278.717 99.4839L200.221 178.374" stroke="white" stroke-width="5.91674"/>
<path d="M207.716 32.4276L129.22 111.317" stroke="white" stroke-width="5.91674"/>
<path d="M278.716 96.7228L212.843 32.4275" stroke="white" stroke-width="5.91674"/>
<path d="M195.093 178.374L129.22 114.078" stroke="white" stroke-width="5.91674"/>
<path d="M228.227 170.879L141.842 85.2837" stroke="white" stroke-width="5.91674"/>
<path d="M252.683 153.129L159.593 60.4335" stroke="white" stroke-width="5.91674"/>
<path d="M267.672 128.279L178.132 38.7387" stroke="white" stroke-width="5.91674"/>
<path d="M98.2294 131.976C92.1908 140.818 80.1277 143.09 71.2863 137.051C63.9551 132.044 61.1414 122.895 63.8367 114.875L24.6138 52.3256C26.7716 49.2954 31.851 43.6843 37.1566 41.8133L58.9258 90.0981L62.8883 88.3118L41.2383 40.2905C45.5151 36.6785 54.0048 31.4974 62.3983 32.1892L72.8197 85.5796L77.0854 84.7466L66.7916 32.0074C72.158 28.5827 82.4378 24.5512 90.7775 29.1273L87.5992 81.6518L91.9377 81.9139L95.0137 31.0733C100.168 30.5419 109.23 31.0146 112.345 36.5515L98.1017 109.915C102.597 116.334 102.91 125.123 98.2294 131.976Z" fill="white"/>
<path d="M103.081 83.7167C91.9546 81.1002 67.293 82.0132 50.9785 94.0313" stroke="white" stroke-width="4.34673"/>
</g>
<g filter="url(#filter0_f_3_1150)">
<path d="M231.132 54.3149L241.179 65.7085L255.119 59.6742L247.388 72.7502L257.435 84.1438L242.61 80.8316L234.878 93.9075L233.447 78.7845L218.622 75.4723L232.563 69.4379L231.132 54.3149Z" fill="white"/>
<path d="M70.5515 228.084L72.8826 234.551L79.7535 234.333L74.3233 238.548L76.6544 245.015L70.9672 241.153L65.537 245.369L67.4524 238.767L61.7652 234.905L68.6361 234.686L70.5515 228.084Z" fill="white"/>
<path d="M95.9614 52.346L88.4488 65.4033L98.5455 76.583L83.8058 73.4731L76.2933 86.5304L74.6962 71.551L59.9565 68.4411L73.7091 62.2933L72.112 47.314L82.2087 58.4938L95.9614 52.346Z" fill="white"/>
<path d="M94.7194 212.727C95.2239 213.296 95.8106 213.789 96.4615 214.189L73.403 236.793C72.9363 236.195 72.3843 235.668 71.7643 235.23L94.7194 212.727ZM239.889 73.5926L107.165 203.697C106.778 203.038 106.297 202.442 105.739 201.927L238.305 71.9774L239.889 73.5926ZM101 199.893C100.834 199.883 100.667 199.876 100.499 199.876C99.8935 199.876 99.305 199.947 98.7399 200.079L79.9615 62.0008L81.0817 61.8484L82.2028 61.6961L101 199.893Z" fill="white"/>
<circle cx="100.479" cy="207.582" r="3.93481" fill="white"/>
</g>
<path d="M231.132 54.3149L241.179 65.7085L255.119 59.6742L247.388 72.7502L257.435 84.1438L242.61 80.8316L234.878 93.9075L233.447 78.7845L218.622 75.4723L232.563 69.4379L231.132 54.3149Z" fill="white"/>
<path d="M95.9614 52.346L88.4488 65.4033L98.5455 76.583L83.8058 73.4731L76.2933 86.5304L74.6962 71.551L59.9565 68.4411L73.7091 62.2933L72.112 47.314L82.2087 58.4938L95.9614 52.346Z" fill="white"/>
<path d="M70.5515 228.084L72.8826 234.551L79.7535 234.333L74.3233 238.548L76.6544 245.015L70.9672 241.153L65.537 245.369L67.4524 238.767L61.7652 234.905L68.6361 234.686L70.5515 228.084Z" fill="white"/>
<path d="M94.7194 212.727C95.2239 213.296 95.8106 213.789 96.4615 214.189L73.403 236.793C72.9363 236.195 72.3843 235.668 71.7643 235.23L94.7194 212.727ZM239.889 73.5926L107.165 203.697C106.778 203.038 106.297 202.442 105.739 201.927L238.305 71.9774L239.889 73.5926ZM101 199.893C100.834 199.883 100.667 199.876 100.499 199.876C99.8935 199.876 99.305 199.947 98.7399 200.079L79.9615 62.0008L81.0817 61.8484L82.2028 61.6961L101 199.893Z" fill="white"/>
<circle cx="100.479" cy="207.582" r="3.93481" fill="white"/>
<defs>
<filter id="filter0_f_3_1150" x="52.4141" y="39.7715" width="212.563" height="213.14" filterUnits="userSpaceOnUse" color-interpolation-filters="sRGB">
<feFlood flood-opacity="0" result="BackgroundImageFix"/>
<feBlend mode="normal" in="SourceGraphic" in2="BackgroundImageFix" result="shape"/>
<feGaussianBlur stdDeviation="3.77124" result="effect1_foregroundBlur_3_1150"/>
</filter>
</defs>
</svg>
