<svg width="349" height="453" viewBox="0 0 349 453" fill="none" xmlns="http://www.w3.org/2000/svg">
<g opacity="0.2">
<path d="M202.529 404.1C229.998 357.598 233.409 328.769 231.682 320.167C232.454 316.572 233.769 308.544 232.845 305.2C231.69 301.019 210.061 299.063 202.046 266.144C194.032 233.225 164.214 219.637 146.102 221.407C131.612 222.822 129.496 234.629 130.249 240.356C158.806 253.842 164.394 277.171 163.618 287.149C147.351 248.316 108.702 230.087 91.4107 225.827C17.7974 247.873 30.0535 354.072 34.862 373.823C39.6706 393.575 168.193 462.226 202.529 404.1Z" fill="white"/>
<path d="M120.946 122.783C123.193 110.543 185.675 -3.42372 254.632 38.5103C267.831 52.4074 291.165 90.6853 278.916 132.62C284.681 124.557 292.715 99.7901 278.727 65.228C299.827 57.5484 332.493 68.5679 322.304 120.042C312.116 171.516 320.235 166.933 321.138 182.741C320.877 185.172 318.798 190.656 312.579 193.142C304.804 196.251 285.355 228.338 244.261 245.523C203.166 262.708 118.699 135.022 120.946 122.783ZM266.407 140.206C260.227 139.158 250.27 138.569 240.319 140.187C230.41 141.798 220.144 145.66 213.825 153.842C213.15 154.716 213.311 155.973 214.185 156.648C215.059 157.323 216.316 157.162 216.991 156.288C222.404 149.277 231.471 145.678 240.961 144.135C250.409 142.599 259.918 143.163 265.738 144.15C266.827 144.335 267.86 143.601 268.044 142.512C268.229 141.423 267.496 140.39 266.407 140.206ZM245.519 58.9771C244.895 57.4425 243.144 56.7037 241.61 57.3276C240.075 57.9518 239.338 59.7022 239.961 61.2368C243.633 70.2649 244.595 84.9423 235.106 99.2651C225.61 113.599 205.315 128.062 165.501 135.842C163.876 136.16 162.815 137.736 163.132 139.362C163.45 140.988 165.026 142.049 166.652 141.731C207.367 133.775 229.405 118.733 240.108 102.579C250.817 86.4134 249.847 69.6187 245.519 58.9771Z" fill="white"/>
<path d="M270.854 318.224C280.232 321.969 287.727 327.955 288.3 337.203C289.8 361.421 265.358 420.129 256.432 420.702C249.291 421.16 221.031 411.828 207.794 407.105C212.182 400.199 218.641 388.267 224.632 373.733C227.337 376.707 230.177 379.437 233.043 381.641C237.376 384.974 241.998 387.287 246.435 387.155C251.046 387.017 255.018 384.269 257.989 378.511C263.695 367.454 267.005 354.047 268.839 341.843C270.178 332.935 270.736 324.612 270.854 318.224ZM239.879 312.651C247.277 312.704 258.241 313.866 267.87 317.125C267.799 323.499 267.266 332.121 265.872 341.398C264.062 353.443 260.817 366.488 255.323 377.135C252.694 382.23 249.561 384.06 246.345 384.156C242.955 384.256 239.026 382.458 234.871 379.262C231.82 376.916 228.773 373.913 225.886 370.636C232.76 353.326 238.759 332.728 239.879 312.651Z" fill="white"/>
<path d="M321.887 191.34C335.688 203.097 359.42 231.099 343.948 249.057C324.606 271.504 282.3 296.503 270.46 285.532C267.007 282.333 263.225 277.903 259.58 273.183C264.81 271.708 270.873 269.726 277.161 267.219C288.463 262.714 300.596 256.477 309.949 248.378C314.831 244.151 316.574 239.611 315.698 235.039C314.854 230.631 311.634 226.563 307.484 222.992C304.863 220.738 301.787 218.611 298.512 216.654C307.759 208.886 316.098 200.313 321.887 191.34ZM296.04 218.693C299.532 220.721 302.802 222.936 305.526 225.28C309.501 228.699 312.104 232.212 312.757 235.624C313.379 238.873 312.293 242.392 308.001 246.109C299.007 253.897 287.219 259.984 276.073 264.427C269.408 267.084 263.008 269.137 257.628 270.612C252.033 263.119 246.979 255.33 244.249 250.821C256.164 245.408 277.577 233.673 296.04 218.693Z" fill="white"/>
</g>
<g filter="url(#filter0_f_8_324)">
<path d="M121.61 14.8502L117.841 37.9613L138.279 48.7506L115.511 52.2447L111.741 75.3557L101.44 54.4041L78.6719 57.8982L95.0729 41.4553L84.7712 20.5038L105.209 31.2931L121.61 14.8502Z" fill="white"/>
<path d="M122.352 115.209L127.491 125.188L138.406 123.299L130.667 131.355L135.805 141.333L125.883 136.334L118.144 144.39L119.751 133.244L109.829 128.244L120.745 126.355L122.352 115.209Z" fill="white"/>
<path d="M214.571 361.253L215.014 372.509L225.672 375.559L215.288 379.466L215.731 390.723L208.869 381.881L198.485 385.788L204.629 376.417L197.768 367.575L208.426 370.625L214.571 361.253Z" fill="white"/>
<path d="M300.226 224.836L300.669 236.092L311.328 239.142L300.943 243.049L301.386 254.306L294.525 245.464L284.14 249.371L290.284 240L283.423 231.158L294.082 234.208L300.226 224.836Z" fill="white"/>
<path d="M53.2485 232.635L53.9997 251.717L72.068 256.886L54.4639 263.51L55.2151 282.591L43.584 267.603L25.9799 274.226L36.3956 258.34L24.7645 243.352L42.8329 248.522L53.2485 232.635Z" fill="white"/>
<ellipse cx="136.465" cy="229.277" rx="4.77087" ry="4.85413" fill="white"/>
<ellipse cx="194.996" cy="220.491" rx="4.77087" ry="4.85413" fill="white"/>
<ellipse cx="210.349" cy="273.21" rx="4.77087" ry="4.85413" fill="white"/>
<path d="M207.198 282.966C208.142 283.289 209.15 283.469 210.198 283.482V375.867C210.198 376.553 209.733 377.151 209.068 377.32C208.404 377.489 207.709 377.186 207.381 376.584L159.92 289.309C160.829 288.856 161.657 288.261 162.381 287.556L207.198 369.968V282.966ZM126.913 231.863C127.141 232.863 127.517 233.805 128.017 234.665L50.4561 257.445L146.716 276.279C146.314 277.182 146.041 278.157 145.921 279.18L43.8506 259.21C43.1721 259.077 42.6726 258.497 42.6406 257.806C42.6088 257.116 43.0525 256.492 43.7158 256.298L126.913 231.863ZM296.721 236.241C297.387 236.342 297.905 236.875 297.985 237.544C298.066 238.213 297.69 238.855 297.066 239.111L219.747 270.922C219.483 269.936 219.074 269.011 218.544 268.173L290.92 238.395L203.754 225.177C204.185 224.277 204.486 223.302 204.634 222.276L296.721 236.241ZM137.393 219.71C137.077 219.678 136.757 219.662 136.434 219.662C135.733 219.662 135.049 219.738 134.39 219.881L122.771 126.613L124.26 126.428L125.748 126.243L137.393 219.71ZM192.797 211.124C191.801 211.353 190.863 211.737 190.008 212.25L105.639 38.7312L106.988 38.075L108.337 37.4187L192.797 211.124Z" fill="white"/>
<ellipse cx="155.655" cy="280.043" rx="4.77087" ry="4.85413" fill="white"/>
</g>
<path d="M121.61 14.8502L117.841 37.9613L138.279 48.7506L115.511 52.2447L111.742 75.3557L101.44 54.4041L78.6721 57.8982L95.0731 41.4553L84.7714 20.5038L105.209 31.2931L121.61 14.8502Z" fill="white"/>
<path d="M122.352 115.209L127.491 125.188L138.406 123.299L130.667 131.355L135.806 141.333L125.884 136.334L118.144 144.39L119.751 133.244L109.829 128.244L120.745 126.355L122.352 115.209Z" fill="white"/>
<path d="M214.571 361.253L215.014 372.509L225.673 375.559L215.288 379.466L215.731 390.723L208.87 381.881L198.485 385.788L204.629 376.417L197.768 367.575L208.427 370.625L214.571 361.253Z" fill="white"/>
<path d="M300.226 224.836L300.669 236.092L311.328 239.142L300.943 243.049L301.386 254.306L294.525 245.464L284.14 249.371L290.285 240L283.423 231.158L294.082 234.208L300.226 224.836Z" fill="white"/>
<path d="M53.2485 232.635L53.9997 251.717L72.068 256.886L54.4639 263.51L55.2151 282.591L43.584 267.603L25.9799 274.226L36.3956 258.34L24.7645 243.352L42.8329 248.522L53.2485 232.635Z" fill="white"/>
<ellipse cx="136.465" cy="229.277" rx="4.77087" ry="4.85413" fill="white"/>
<ellipse cx="194.996" cy="220.491" rx="4.77087" ry="4.85413" fill="white"/>
<ellipse cx="210.349" cy="273.21" rx="4.77087" ry="4.85413" fill="white"/>
<path d="M207.198 282.965C208.142 283.288 209.149 283.469 210.198 283.482V375.867C210.198 376.553 209.732 377.151 209.068 377.32C208.403 377.489 207.708 377.186 207.38 376.584L159.919 289.309C160.829 288.856 161.658 288.262 162.381 287.556L207.198 369.968V282.965ZM126.914 231.862C127.142 232.863 127.517 233.805 128.017 234.665L50.4556 257.445L146.715 276.279C146.314 277.182 146.041 278.157 145.92 279.18L43.8501 259.21C43.1718 259.077 42.6721 258.497 42.6401 257.806C42.6083 257.116 43.0522 256.493 43.7153 256.298L126.914 231.862ZM296.72 236.241C297.386 236.342 297.904 236.875 297.985 237.544C298.065 238.213 297.689 238.855 297.066 239.111L219.747 270.921C219.483 269.935 219.074 269.011 218.544 268.173L290.919 238.395L203.753 225.177C204.185 224.277 204.486 223.302 204.634 222.276L296.72 236.241ZM137.392 219.71C137.077 219.678 136.757 219.662 136.433 219.662C135.732 219.662 135.048 219.738 134.389 219.881L122.771 126.613L124.259 126.428L125.748 126.243L137.392 219.71ZM192.796 211.124C191.8 211.353 190.862 211.737 190.007 212.25L105.638 38.7312L106.988 38.075L108.336 37.4187L192.796 211.124Z" fill="white"/>
<ellipse cx="155.655" cy="280.043" rx="4.77087" ry="4.85413" fill="white"/>
<defs>
<filter id="filter0_f_8_324" x="14.7645" y="4.85034" width="306.563" height="395.872" filterUnits="userSpaceOnUse" color-interpolation-filters="sRGB">
<feFlood flood-opacity="0" result="BackgroundImageFix"/>
<feBlend mode="normal" in="SourceGraphic" in2="BackgroundImageFix" result="shape"/>
<feGaussianBlur stdDeviation="5" result="effect1_foregroundBlur_8_324"/>
</filter>
</defs>
</svg>
