<svg width="264" height="342" viewBox="0 0 264 342" fill="none" xmlns="http://www.w3.org/2000/svg">
<g opacity="0.2">
<path d="M152.757 304.792C173.476 269.718 176.049 247.974 174.745 241.486C175.328 238.774 176.32 232.719 175.623 230.196C174.752 227.043 158.438 225.568 152.393 200.739C146.349 175.91 123.858 165.661 110.197 166.996C99.2681 168.063 97.6719 176.969 98.24 181.288C119.779 191.46 123.994 209.056 123.409 216.582C111.139 187.292 81.9883 173.543 68.9464 170.329C13.4237 186.958 22.6678 267.058 26.2947 281.956C29.9215 296.853 126.859 348.634 152.757 304.792Z" fill="white"/>
<path d="M91.2233 92.6086C92.9182 83.3766 140.046 -2.58244 192.056 29.0461C202.011 39.5281 219.611 68.3996 210.372 100.029C214.72 93.9471 220.78 75.2668 210.229 49.1985C226.144 43.4061 250.782 51.7168 243.097 90.5413C235.413 129.366 241.536 125.909 242.217 137.832C242.02 139.666 240.453 143.802 235.762 145.677C229.899 148.021 215.229 172.223 184.234 185.185C153.238 198.147 89.5285 101.84 91.2233 92.6086ZM200.937 105.751C196.277 104.961 188.766 104.516 181.26 105.737C173.787 106.952 166.043 109.864 161.277 116.036C160.768 116.696 160.89 117.643 161.549 118.153C162.209 118.661 163.157 118.539 163.666 117.88C167.749 112.593 174.587 109.878 181.745 108.714C188.871 107.556 196.043 107.981 200.433 108.726C201.254 108.865 202.033 108.311 202.172 107.49C202.312 106.669 201.758 105.891 200.937 105.751ZM185.183 44.4836C184.712 43.3261 183.392 42.7698 182.234 43.2405C181.077 43.7114 180.52 45.0312 180.991 46.1887C183.76 52.9982 184.486 64.0686 177.329 74.8713C170.166 85.6824 154.859 96.5912 124.83 102.459C123.603 102.699 122.803 103.888 123.043 105.115C123.283 106.34 124.471 107.14 125.697 106.901C156.406 100.9 173.029 89.5549 181.101 77.3704C189.179 65.1779 188.447 52.5102 185.183 44.4836Z" fill="white"/>
<path d="M204.292 240.021C211.365 242.845 217.018 247.36 217.45 254.335C218.582 272.602 200.145 316.882 193.413 317.313C188.026 317.659 166.712 310.621 156.728 307.059C160.038 301.85 164.91 292.849 169.428 281.887C171.469 284.13 173.611 286.189 175.772 287.852C179.041 290.365 182.526 292.11 185.873 292.011C189.351 291.907 192.348 289.834 194.589 285.491C198.892 277.151 201.388 267.039 202.771 257.835C203.781 251.116 204.203 244.839 204.292 240.021ZM180.928 235.816C186.509 235.856 194.778 236.734 202.041 239.192C201.987 243.999 201.585 250.501 200.534 257.498C199.169 266.583 196.721 276.423 192.577 284.454C190.594 288.296 188.231 289.677 185.805 289.749C183.249 289.825 180.286 288.469 177.152 286.059C174.851 284.289 172.552 282.024 170.374 279.552C175.559 266.496 180.083 250.959 180.928 235.816Z" fill="white"/>
<path d="M242.782 144.318C253.192 153.185 271.092 174.306 259.422 187.85C244.834 204.781 212.924 223.636 203.994 215.362C201.389 212.949 198.536 209.608 195.787 206.048C199.732 204.935 204.305 203.441 209.049 201.55C217.573 198.152 226.725 193.447 233.779 187.339C237.461 184.151 238.775 180.726 238.115 177.278C237.479 173.953 235.049 170.885 231.919 168.192C229.942 166.492 227.622 164.887 225.151 163.411C232.126 157.552 238.416 151.086 242.782 144.318ZM223.288 164.949C225.921 166.479 228.387 168.15 230.442 169.917C233.44 172.496 235.404 175.146 235.897 177.719C236.366 180.17 235.547 182.824 232.31 185.628C225.525 191.502 216.634 196.093 208.227 199.444C203.2 201.448 198.373 202.996 194.316 204.109C190.095 198.458 186.283 192.582 184.225 189.18C193.211 185.098 209.362 176.248 223.288 164.949Z" fill="white"/>
</g>
<g filter="url(#filter0_f_8_324)">
<path d="M91.7244 11.2008L88.8812 28.6322L104.297 36.7701L87.124 39.4055L84.2808 56.8369L76.5108 41.0342L59.3383 43.6696L71.7087 31.2676L63.9386 15.4649L79.354 23.6028L91.7244 11.2008Z" fill="white"/>
<path d="M92.2837 86.8963L96.1597 94.4226L104.393 92.9978L98.5551 99.0741L102.431 106.6L94.9474 102.83L89.11 108.906L90.3223 100.499L82.8386 96.728L91.0715 95.3032L92.2837 86.8963Z" fill="white"/>
<path d="M161.84 272.475L162.174 280.965L170.213 283.265L162.38 286.212L162.715 294.702L157.539 288.033L149.707 290.98L154.341 283.912L149.166 277.243L157.205 279.543L161.84 272.475Z" fill="white"/>
<path d="M226.445 169.582L226.779 178.072L234.819 180.373L226.986 183.32L227.32 191.81L222.145 185.141L214.312 188.088L218.947 181.019L213.772 174.351L221.811 176.651L226.445 169.582Z" fill="white"/>
<path d="M40.1627 175.465L40.7293 189.857L54.3573 193.756L41.0794 198.752L41.646 213.144L32.8733 201.839L19.5954 206.835L27.4514 194.853L18.6787 183.548L32.3067 187.447L40.1627 175.465Z" fill="white"/>
<ellipse cx="102.928" cy="172.932" rx="3.59842" ry="3.66122" fill="white"/>
<ellipse cx="147.076" cy="166.305" rx="3.59842" ry="3.66122" fill="white"/>
<ellipse cx="158.655" cy="206.068" rx="3.59842" ry="3.66122" fill="white"/>
<path d="M156.278 213.426C156.99 213.67 157.75 213.806 158.541 213.816V283.498C158.541 284.015 158.19 284.466 157.688 284.593C157.187 284.72 156.663 284.492 156.416 284.038L120.618 218.211C121.304 217.869 121.929 217.421 122.476 216.889L156.278 279.046V213.426ZM95.7236 174.881C95.8956 175.636 96.1794 176.347 96.5566 176.996L38.0566 194.177L110.66 208.383C110.357 209.065 110.151 209.8 110.061 210.572L33.0742 195.508C32.5628 195.408 32.1855 194.971 32.1611 194.451C32.137 193.93 32.4726 193.46 32.9727 193.313L95.7236 174.881ZM223.801 178.184C224.303 178.26 224.693 178.663 224.754 179.167C224.815 179.672 224.531 180.156 224.062 180.349L165.744 204.342C165.545 203.598 165.237 202.901 164.837 202.268L219.425 179.809L153.681 169.84C154.006 169.162 154.233 168.426 154.345 167.652L223.801 178.184ZM103.628 165.716C103.39 165.693 103.148 165.68 102.904 165.68C102.376 165.68 101.86 165.738 101.363 165.845L92.5996 95.4985L93.7217 95.3589L94.8447 95.2183L103.628 165.716ZM145.415 159.24C144.664 159.413 143.957 159.703 143.312 160.089L79.6777 29.2134L81.7129 28.2231L145.415 159.24Z" fill="white"/>
<ellipse cx="117.403" cy="211.222" rx="3.59842" ry="3.66122" fill="white"/>
</g>
<path d="M91.7245 11.2008L88.8813 28.6322L104.297 36.7701L87.1241 39.4055L84.281 56.8369L76.5109 41.0342L59.3384 43.6696L71.7088 31.2676L63.9387 15.4649L79.3541 23.6028L91.7245 11.2008Z" fill="white"/>
<path d="M92.2839 86.8963L96.1598 94.4226L104.393 92.9978L98.5553 99.0741L102.431 106.6L94.9475 102.83L89.1101 108.906L90.3224 100.499L82.8387 96.728L91.0716 95.3032L92.2839 86.8963Z" fill="white"/>
<path d="M161.84 272.475L162.174 280.965L170.213 283.265L162.381 286.212L162.715 294.702L157.54 288.033L149.707 290.98L154.341 283.912L149.166 277.243L157.205 279.543L161.84 272.475Z" fill="white"/>
<path d="M226.445 169.582L226.78 178.072L234.819 180.373L226.986 183.32L227.32 191.81L222.145 185.141L214.312 188.088L218.947 181.019L213.772 174.351L221.811 176.651L226.445 169.582Z" fill="white"/>
<path d="M40.1627 175.465L40.7293 189.857L54.3573 193.756L41.0794 198.752L41.646 213.144L32.8733 201.839L19.5954 206.835L27.4514 194.853L18.6787 183.548L32.3067 187.447L40.1627 175.465Z" fill="white"/>
<ellipse cx="102.928" cy="172.932" rx="3.59842" ry="3.66122" fill="white"/>
<ellipse cx="147.076" cy="166.305" rx="3.59842" ry="3.66122" fill="white"/>
<ellipse cx="158.655" cy="206.068" rx="3.59842" ry="3.66122" fill="white"/>
<path d="M156.279 213.426C156.991 213.67 157.751 213.806 158.541 213.816V283.498C158.541 284.015 158.19 284.466 157.689 284.593C157.188 284.721 156.664 284.492 156.416 284.038L120.619 218.21C121.305 217.868 121.93 217.421 122.476 216.889L156.279 279.046V213.426ZM95.724 174.881C95.8959 175.636 96.1789 176.347 96.556 176.996L38.057 194.177L110.661 208.383C110.357 209.065 110.151 209.8 110.06 210.572L33.0746 195.508C32.563 195.408 32.1859 194.971 32.1615 194.451C32.1374 193.93 32.4728 193.46 32.973 193.313L95.724 174.881ZM223.801 178.184C224.304 178.26 224.693 178.663 224.754 179.167C224.815 179.672 224.532 180.156 224.062 180.349L165.745 204.342C165.545 203.598 165.236 202.901 164.836 202.268L219.425 179.809L153.68 169.839C154.005 169.161 154.234 168.426 154.345 167.652L223.801 178.184ZM103.628 165.716C103.39 165.693 103.149 165.68 102.905 165.68C102.376 165.68 101.861 165.738 101.364 165.845L92.6 95.4985L93.722 95.3589L94.8451 95.2183L103.628 165.716ZM145.415 159.24C144.664 159.413 143.957 159.703 143.313 160.089L79.6781 29.2134L81.7133 28.2231L145.415 159.24Z" fill="white"/>
<ellipse cx="117.403" cy="211.222" rx="3.59842" ry="3.66122" fill="white"/>
<defs>
<filter id="filter0_f_8_324" x="11.1362" y="3.6582" width="231.225" height="298.586" filterUnits="userSpaceOnUse" color-interpolation-filters="sRGB">
<feFlood flood-opacity="0" result="BackgroundImageFix"/>
<feBlend mode="normal" in="SourceGraphic" in2="BackgroundImageFix" result="shape"/>
<feGaussianBlur stdDeviation="3.77124" result="effect1_foregroundBlur_8_324"/>
</filter>
</defs>
</svg>
