<svg width="141" height="95" viewBox="0 0 141 95" fill="none" xmlns="http://www.w3.org/2000/svg">
<circle cx="75.7739" cy="8.81464" r="1.67427" transform="rotate(165.342 75.7739 8.81464)" fill="white"/>
<path fill-rule="evenodd" clip-rule="evenodd" d="M88.6541 56.2794C88.8617 56.0122 89.1297 55.7896 89.4445 55.6348L74.0381 41.853L73.7845 41.6262L73.4793 41.7768L31.3604 62.5668L31.8063 63.4701L73.6201 42.8307L88.6541 56.2794ZM89.5964 55.5669C89.6864 55.5305 89.7798 55.4995 89.8762 55.4743C90.1188 55.4108 90.3626 55.3889 90.5999 55.4042L77.2101 11.4183C77.1623 11.4343 77.1136 11.4487 77.0641 11.4617C76.7688 11.5389 76.4719 11.5546 76.187 11.5166L89.5964 55.5669ZM78.6746 9.89913C78.769 9.57906 78.794 9.23486 78.737 8.88849L102.151 12.7315L101.988 13.7256L78.6746 9.89913Z" fill="white"/>
<circle cx="90.4185" cy="58.1799" r="1.67427" transform="rotate(165.342 90.4185 58.1799)" fill="white"/>
<path d="M75.3346 48.7873L72.6683 44.6274L67.8881 45.8778L71.0204 42.0565L68.3541 37.8966L72.9564 39.6948L76.0887 35.8735L75.8007 40.8061L80.4029 42.6044L75.6227 43.8547L75.3346 48.7873Z" fill="white"/>
<path d="M102.517 17.7543L100.626 14.8049L97.2372 15.6914L99.458 12.9821L97.5676 10.0327L100.831 11.3077L103.051 8.59835L102.847 12.0956L106.11 13.3706L102.721 14.2571L102.517 17.7543Z" fill="white"/>
<path d="M32.3185 68.5991L30.4281 65.6497L27.0389 66.5361L29.2598 63.8268L27.3694 60.8774L30.6323 62.1524L32.8532 59.4431L32.649 62.9403L35.912 64.2153L32.5228 65.1018L32.3185 68.5991Z" fill="white"/>
<path opacity="0.2" d="M140.195 68.8771C139.648 71.1199 139.293 73.4174 138.527 75.6054C134.233 87.8039 122.855 95.3801 109.945 94.7784C93.8082 94.04 81.2268 79.2978 83.0866 63.2155C84.1533 53.9709 88.7209 46.8596 96.5433 41.8544C97.0356 41.5262 97.5279 41.2254 98.1023 40.8424C96.4886 36.521 94.8749 32.2269 93.2065 27.714C90.909 31.6252 88.7209 35.2902 86.5602 38.9826C82.4576 45.9571 78.3549 52.9315 74.2249 59.8787C73.7873 60.6171 73.7873 61.2189 74.0608 62.012C74.9908 64.6924 74.4985 67.154 72.4745 69.178C70.3958 71.2293 67.7428 71.9951 65.2265 70.6276C62.7102 69.2327 60.2486 69.6429 57.5956 69.5062C56.0366 79.3252 51.0861 86.792 42.3064 91.469C35.6875 94.9972 28.631 95.6537 21.4103 93.657C7.37933 89.7732 -1.56442 75.6328 0.787762 61.4377C3.08524 47.5708 16.5419 34.7705 34.7849 37.9432C36.0704 34.0868 37.2465 30.1756 38.6961 26.3738C39.3799 24.5687 39.2158 23.2011 38.1491 21.6148C36.4533 19.0985 35.0037 16.4181 33.3627 13.7104C32.5695 13.9565 31.831 14.23 31.0379 14.4488C26.2515 15.789 21.5197 12.2881 21.465 7.39229C21.4377 4.79396 23.3796 2.57853 26.0053 2.55118C32.5148 2.46913 39.0243 2.49648 45.5338 2.55118C47.339 2.55118 48.5971 3.67257 48.9254 5.34097C49.2262 6.84527 48.4057 8.40428 46.792 9.03335C44.6586 9.88122 42.4432 10.5923 40.1184 11.4402C41.4586 13.7104 42.9902 15.789 44.0022 18.0865C45.2877 20.9857 47.1749 21.7515 50.2929 21.6968C63.2025 21.5054 76.1395 21.6148 89.0491 21.6148C89.5962 21.6148 90.1432 21.6148 90.8816 21.6148C90.5261 20.6028 90.2526 19.7275 89.9244 18.8523C89.2132 16.8831 88.4474 14.9411 87.7363 12.9719C86.6149 9.85387 88.1739 7.6658 91.5107 7.63845C94.1364 7.6111 96.7894 7.58375 99.4151 7.52905C102.096 7.47434 104.284 6.2709 106.198 4.46575C107.183 3.53581 108.14 2.55118 109.207 1.67595C110.602 0.554566 112.598 0.691321 113.802 1.92211C114.978 3.12555 115.251 5.14952 114.103 6.40766C110.875 9.96328 107.402 13.3001 102.396 14.1753C100.318 14.5309 98.157 14.5582 95.8595 14.7497C98.7587 22.5447 101.658 30.367 104.584 38.2168C106.198 38.0253 107.757 37.7791 109.343 37.6697C124.66 36.6031 137.706 47.1605 139.922 62.3676C139.977 62.7232 140.113 63.0514 140.195 63.4069C140.195 65.2394 140.195 67.072 140.195 68.8771ZM101.439 49.7862C92.7141 55.1196 89.7329 66.3608 94.5193 75.3319C99.2784 84.1936 110.328 87.9954 119.381 83.8654C128.899 79.5166 133.303 68.9045 129.556 59.2223C125.699 49.2392 115.197 45.4921 108.031 47.352C108.167 47.7622 108.304 48.1998 108.468 48.6101C110.438 53.8888 112.407 59.1675 114.349 64.4463C115.142 66.607 114.376 68.6857 112.571 69.3694C110.574 70.1079 108.742 69.1506 107.839 66.9079C107.511 66.06 107.21 65.2121 106.882 64.3642C105.077 59.4958 103.272 54.7094 101.439 49.7862ZM47.9407 69.5062C43.8107 69.5062 39.7628 69.4788 35.7422 69.5335C35.414 69.5335 35.0037 69.9712 34.7576 70.2994C33.1165 72.4601 30.2447 73.5268 27.619 72.8977C24.8566 72.2413 22.7505 69.9438 22.3676 67.0993C21.9847 64.4189 23.1882 61.4377 25.7318 60.3436C27.5643 59.5505 28.1387 58.265 28.6036 56.6239C28.7404 56.1316 28.9318 55.6666 29.0959 55.2017C29.9985 52.4939 30.8738 49.8135 31.7763 47.1058C24.7745 45.4921 13.4239 49.7041 10.4426 61.2736C7.57079 72.4054 14.8461 83.4278 26.2515 85.1509C38.3679 87.0108 46.8193 77.7935 47.9407 69.5062ZM67.606 57.5265C73.3497 47.7622 78.9566 38.2715 84.6456 28.6166C73.1036 28.6166 61.835 28.6166 50.3203 28.6166C56.0913 38.2715 61.7529 47.7896 67.606 57.5265ZM38.4226 49.2118C38.2859 49.54 38.1491 49.8682 38.0397 50.2238C36.891 53.6153 35.7696 57.0068 34.6208 60.3983C34.1012 61.93 34.5935 62.5591 36.2619 62.5591C39.7628 62.5591 43.2637 62.5591 46.7373 62.5591C47.1202 62.5591 47.5031 62.5044 47.886 62.477C47.6125 57.7727 43.2637 51.7281 38.4226 49.2118ZM41.4039 40.186C50.5391 44.9451 55.8998 52.3845 57.5682 62.5591C58.2247 62.5591 58.8264 62.6411 59.4007 62.5317C60.0025 62.4223 60.7409 62.3403 61.1239 61.9573C61.8076 61.2736 61.37 60.5077 60.9324 59.7693C55.599 50.9076 50.2929 42.0185 44.9595 33.1295C44.7407 32.7739 44.5219 32.4184 44.1663 31.8713C43.1817 34.7979 42.3064 37.4509 41.4039 40.186Z" fill="white"/>
</svg>
