<svg width="333" height="240" viewBox="0 0 333 240" fill="none" xmlns="http://www.w3.org/2000/svg">
<g opacity="0.2">
<path d="M92.1537 221.191C90.8187 221.544 89.5229 222.212 88.1878 222.251C74.0126 222.605 59.8374 222.605 45.78 220.131C37.7696 218.717 30.0734 216.322 23.0839 211.963C13.1888 205.799 7.6522 196.846 6.23861 185.459C5.17841 177.095 4.62868 168.692 4.31455 160.249C3.80409 146.742 3.88262 133.195 3.37215 119.648C2.86169 105.512 1.95856 91.3367 1.2125 77.2008C0.898364 71.3501 0.662765 65.4601 0.348633 59.2952C1.48736 59.6486 2.31196 59.9628 3.13655 60.1984C9.10506 61.9654 15.1521 61.5334 21.2384 61.2193C38.2801 60.3162 54.7327 55.9576 71.2639 52.188C85.2035 49.0074 99.261 47.0441 113.515 46.4944C126.787 46.0232 140.02 45.7483 153.292 45.709C166.132 45.709 178.815 47.5153 191.459 49.7535C208.383 52.7377 225.306 55.6827 242.466 56.9393C255.502 57.8817 268.578 58.5885 281.615 57.0571C295.711 55.4079 308.355 50.5388 318.015 39.5835C319.585 37.7772 320.999 35.7746 322.727 33.5757C322.844 34.5966 322.962 35.3819 322.962 36.1673C323.08 42.4892 323.316 48.8504 323.316 55.1723C323.316 66.0884 323.119 77.0044 323.198 87.8813C323.276 101.467 322.962 115.093 323.944 128.64C324.533 136.964 327.282 145.093 329.009 153.339C330.069 158.443 331.483 163.509 331.954 168.692C333.486 184.438 327.085 194.451 312.282 200.223C304.114 203.403 295.554 204.738 286.876 205.602C269.756 207.291 252.675 206.191 235.555 205.21C235.437 205.21 235.319 205.131 235.162 205.053C235.869 201.636 236.733 198.22 237.243 194.765C237.558 192.723 238.264 191.27 239.796 189.856C244.508 185.459 245.725 179.569 246.157 173.482C246.667 165.865 245.607 158.365 244.586 150.825C243.251 141.244 241.798 131.703 238.814 122.475C234.22 108.3 225.346 97.7372 212.349 90.5907C210.699 89.6875 209.953 88.5881 209.561 86.7818C206.537 71.5071 196.878 62.6722 182.074 59.0596C171.394 56.4288 160.595 56.2717 149.797 58.1958C145.87 58.9026 142.219 60.3554 139.077 62.79C134.483 66.3632 129.967 70.015 125.609 73.8631C122.978 76.1406 120.74 78.8107 120.465 82.5803C120.426 82.8944 119.994 83.3264 119.64 83.4442C104.483 88.8629 95.9626 100.682 89.9155 114.7C87.6773 119.923 85.6355 125.224 83.7114 130.564C83.3188 131.663 83.7507 133.077 83.6722 134.294C83.5936 135.551 83.6722 137.082 83.0439 138.025C81.2376 140.695 81.2769 143.718 80.7664 146.624C78.8031 158.09 77.2717 169.634 77.7429 181.296C78.3319 195.393 82.612 208.194 91.1328 219.503C91.3684 219.817 91.604 220.131 91.8396 220.445C91.9181 220.484 91.9574 220.641 92.1537 221.191ZM18.2149 96.088C18.3327 98.7581 18.4505 101.428 18.5683 104.098C18.6861 106.965 20.3746 108.535 23.2017 108.496C24.0656 108.496 24.8902 108.378 25.7541 108.339C34.0786 107.711 42.4031 107.043 50.7276 106.454C53.3977 106.258 55.1647 104.962 55.2039 102.292C55.2432 97.423 55.1647 92.5147 54.8505 87.6457C54.6542 84.5436 53.1228 83.3656 49.9815 83.2871C47.115 83.2086 44.2486 83.1693 41.3429 83.2478C32.9398 83.4834 24.6939 84.5043 16.8013 87.5671C14.2097 88.5881 13.071 90.4336 13.5029 92.8681C13.8956 95.067 15.2306 96.0094 18.2149 96.088ZM311.536 148.862C311.339 144.307 308.551 140.263 304.743 139.085C302.583 138.417 300.463 139.281 299.638 141.166C298.813 143.011 299.324 145.446 301.091 146.31C303.054 147.292 303.25 148.548 302.661 150.433C301.955 152.75 303.093 154.791 305.292 155.577C307.256 156.284 309.337 155.459 310.279 153.299C310.868 151.925 311.143 150.354 311.536 148.862ZM29.6807 144.347C29.7592 141.755 28.1101 139.831 25.7148 139.713C23.2017 139.595 21.3955 141.559 21.3169 144.582C21.2384 147.174 22.9269 149.098 25.2829 149.216C27.8352 149.333 29.6022 147.409 29.6807 144.347ZM26.9713 167.71C29.2095 167.828 30.7409 166.493 30.898 164.294C31.0943 161.663 29.4058 159.621 26.8928 159.425C24.7331 159.268 23.0447 160.799 22.9269 163.077C22.8091 165.55 24.6153 167.592 26.9713 167.71ZM28.1886 123.3C28.2278 120.708 26.5394 118.902 24.0656 118.823C21.8274 118.745 20.2568 120.237 20.2175 122.514C20.1782 124.949 22.0237 126.951 24.3797 127.03C26.6965 127.069 28.1493 125.656 28.1886 123.3Z" fill="white"/>
<path d="M228.801 10.0946C229.194 13.1967 229.273 15.7098 229.901 18.0657C231.55 24.2306 235.948 28.0394 241.602 30.3954C251.929 34.6362 262.492 34.4006 273.094 31.3378C275.45 30.6703 277.806 29.7672 280.005 28.6284C286.562 25.3301 291.51 20.8144 291.196 12.4899C298.107 12.9218 305.096 12.3721 311.104 16.4951C312.478 17.4375 313.774 18.6155 314.834 19.9113C317.112 22.6992 317.426 25.8798 315.737 29.0604C314.756 30.8666 313.538 32.6729 312.125 34.165C303.8 42.8822 293.63 47.7512 281.654 49.0863C269.992 50.3821 258.408 49.3611 246.825 48.4973C237.008 47.7512 227.152 46.8481 217.375 45.5523C207.205 44.2172 197.113 42.3324 187.022 40.644C168.566 37.5812 150.033 36.3247 131.381 37.1885C119.248 37.7383 107.075 38.3273 95.0203 39.7409C84.6147 40.9581 74.3269 43.3534 63.9998 45.3167C52.6517 47.4764 41.3823 49.9894 29.995 51.8742C22.6521 53.0915 15.1915 53.4841 7.73087 52.581C7.53454 52.5417 7.33821 52.5417 7.14188 52.5025C0.623635 51.2852 -1.57529 47.3978 1.2519 41.4293C5.17855 33.2226 11.1863 26.7436 18.9218 21.9924C21.2386 20.5395 23.8301 20.1076 26.5788 20.0683C29.6023 20.0291 32.5866 19.0867 35.6101 18.9296C45.3482 18.5369 55.0863 17.9872 64.7851 18.105C79.7456 18.2621 94.7062 18.8903 109.667 19.4008C125.373 19.9113 140.844 18.0265 156.158 14.8459C166.996 12.6077 177.951 11.3904 189.024 11.0763C199.783 10.7622 210.582 10.3695 221.341 10.0161C223.932 10.0161 226.445 10.0946 228.801 10.0946ZM207.323 13.6679C207.283 13.4716 207.244 13.3145 207.165 13.1182C202.885 14.2176 198.566 15.0815 194.404 16.5736C192.833 17.1234 191.223 18.8118 190.516 20.3825C188.435 25.0552 190.163 30.3954 194.247 33.4582C200.019 37.8168 209.404 37.7775 215.176 33.4189C217.296 31.809 218.671 29.7279 219.142 27.1363C220.634 19.3615 215.568 13.6286 207.323 13.6679Z" fill="white"/>
<path d="M156.04 240C143.632 239.607 130.085 238.312 117.991 231.479C99.0641 220.877 87.9124 204.896 86.0668 182.907C85.1244 171.519 87.0092 160.368 88.6192 149.177C89.2082 145.054 90.7003 141.284 91.9568 137.436C93.2919 133.274 96.4332 130.446 99.8887 127.973C109.391 121.219 120.189 117.41 131.537 115.604C151.642 112.423 171.432 114.622 190.123 122.632C210.502 131.389 222.596 147.684 228.055 168.967C230.882 180.001 230.921 191.074 227.308 202.029C223.225 214.398 214.547 222.605 203.356 228.534C189.416 235.956 174.063 239.725 156.04 240ZM95.0981 170.97C94.195 180.629 96.7081 190.053 100.556 199.045C106.093 212.042 116.263 220.17 129.574 224.019C152.035 230.458 173.317 226.885 193.107 214.673C201.393 209.569 208.225 202.815 211.602 193.469C218.552 174.189 215.018 156.362 200.843 141.991C180.895 121.769 156.158 116.193 128.828 123.104C115.635 126.441 105.582 134.491 99.6531 147.056C96.1191 154.517 94.6269 162.449 95.0981 170.97Z" fill="white"/>
<path d="M96.9849 119.884C101.383 109.203 106.919 99.426 117.286 93.4967C123.568 89.8842 130.558 88.4706 137.665 87.646C149.445 86.311 161.146 87.4104 172.848 88.5884C181.565 89.4523 190.243 90.6696 198.567 93.536C210.74 97.7375 220.871 104.609 227.271 116.154C230.53 122.043 231.983 128.562 233.397 135.08C235.753 145.996 237.677 156.991 237.873 168.221C237.912 170.224 237.873 172.265 237.598 174.268C236.342 167.632 234.771 161.153 232.14 154.988C221.813 130.839 203.986 115.604 178.227 109.91C165.152 107.004 151.84 105.866 138.49 106.494C124.079 107.161 110.767 111.795 98.3199 119.099C97.8487 119.373 97.4168 119.609 96.9849 119.884Z" fill="white"/>
<path d="M200.609 84.8186C177.795 79.9103 154.942 77.5543 131.578 80.1459C131.932 79.7139 132.167 79.3213 132.521 79.0071C136.094 75.9444 139.588 72.803 143.28 69.8973C146.617 67.2665 150.465 65.7351 154.785 65.4602C164.483 64.8319 174.104 64.7927 183.449 68.0125C191.577 70.8004 197.978 75.3946 200.452 84.1511C200.491 84.4259 200.569 84.6615 200.609 84.8186Z" fill="white"/>
<path d="M241.249 5.06827C242.584 3.14421 244.508 2.04475 246.668 1.53428C255.581 -0.46831 264.534 -0.782442 273.291 2.24108C275.646 3.06568 277.885 4.40074 279.848 5.93213C282.125 7.73839 281.929 9.23052 279.22 10.1729C276.393 11.1938 273.369 11.9006 270.346 12.254C264.102 13.0001 257.82 12.8823 251.694 11.2724C247.728 10.2514 244.155 8.40592 241.249 5.06827Z" fill="white"/>
<path d="M238.736 16.4949C242.741 17.4765 246.707 18.6153 250.752 19.4006C260.097 21.2069 269.482 21.6781 278.906 19.5577C276.354 21.6388 273.369 22.856 270.228 23.6021C263.042 25.3691 255.778 25.8403 248.592 23.8377C246.236 23.2094 243.959 22.11 241.838 20.8535C240.425 20.0289 239.404 18.4975 238.187 17.3195C238.344 17.0839 238.54 16.809 238.736 16.4949Z" fill="white"/>
<path d="M42.2076 91.6511C42.2861 91.6511 42.3254 91.6511 42.4039 91.6511C47.5871 91.5726 47.5871 91.6119 47.0767 96.7558C47.0374 97.227 46.3306 97.9338 45.8594 98.0123C40.1658 98.6013 34.4328 99.0725 28.6999 99.6615C27.4041 99.7793 26.8151 99.3866 26.6188 98.0516C26.0298 93.693 26.1083 93.3789 30.3099 92.7506C34.2365 92.1616 38.2024 91.8475 42.1683 91.4155C42.2076 91.4548 42.2076 91.5726 42.2076 91.6511Z" fill="white"/>
<path d="M204.928 29.0207C202.415 28.6673 200.255 28.1176 198.842 25.9579C198.096 24.8192 198.096 23.8376 199.745 23.5627C202.415 23.0915 205.124 22.4632 207.834 22.3454C208.855 22.3062 210.582 23.2486 210.857 24.1124C211.132 24.9763 210.229 26.6647 209.365 27.293C208.148 28.1961 206.459 28.471 204.928 29.0207Z" fill="white"/>
<path d="M151.604 218.718C138.057 218.561 127.18 215.969 117.874 208.548C114.105 205.524 110.806 202.029 109.079 197.474C107.626 193.626 106.134 189.7 106.487 185.38C106.566 184.556 106.448 183.653 106.212 182.867C104.72 177.841 104.484 172.737 105.152 167.553C105.27 166.65 104.877 165.708 104.72 164.765C104.524 163.391 103.974 161.978 104.21 160.682C107.312 144.425 117.482 134.53 133.11 130.643C153.45 125.617 172.494 129.072 189.104 142.226C201.355 151.925 207.52 164.805 206.381 180.629C205.713 190.053 200.962 197.553 193.855 203.561C184.549 211.493 173.515 215.655 161.578 217.618C157.651 218.325 153.685 218.521 151.604 218.718Z" fill="white"/>
</g>
<g filter="url(#filter0_f_92_9198)">
<path fill-rule="evenodd" clip-rule="evenodd" d="M189.97 69.5766L189.702 73.7293L186.247 127.264C185.705 127.041 185.117 126.901 184.499 126.861C184.077 126.834 183.664 126.854 183.263 126.919L186.44 77.6888L140.589 126.283C140.117 125.382 139.403 124.622 138.526 124.097L187.114 72.6033L189.97 69.5766ZM186.895 137.182C187.778 136.675 188.511 135.93 189.002 135.029L238.506 193.038L236.773 195.389L138.771 153.237C139.36 152.443 139.744 151.483 139.836 150.43L232.048 190.092L186.895 137.182ZM129.242 152.13L92.0626 180.214L108.887 133.064C108.811 133.063 108.734 133.059 108.657 133.054C107.682 132.991 106.782 132.679 106.016 132.184L87.5513 183.93L85.8654 188.655L89.8681 185.631L131.133 154.462C130.303 153.875 129.646 153.067 129.242 152.13ZM78.4746 67.297L105.741 123.072C106.549 122.479 107.52 122.102 108.565 122.018L85.839 75.5305L131.16 125.663C131.746 124.832 132.553 124.173 133.49 123.767L80.9349 65.6323L78.4746 67.297Z" fill="white"/>
<path d="M171.028 69.3795L183.7 68.662L186.933 56.3889L191.532 68.2186L204.203 67.5011L194.373 75.5297L198.971 87.3594L188.298 80.4917L178.468 88.5203L181.702 76.2472L171.028 69.3795Z" fill="white"/>
<path d="M72.2482 179.995L84.9198 179.278L88.1532 167.005L92.7513 178.835L105.423 178.117L95.593 186.146L100.191 197.975L89.5179 191.108L79.6881 199.136L82.9215 186.863L72.2482 179.995Z" fill="white"/>
<path d="M226.404 194.362L234.787 191.152L234.324 182.188L239.967 189.168L248.35 185.958L243.455 193.482L249.098 200.463L240.43 198.132L235.535 205.656L235.072 196.692L226.404 194.362Z" fill="white"/>
<circle cx="135.097" cy="127.106" r="2.10633" transform="rotate(3.69244 135.097 127.106)" fill="white"/>
<circle cx="75.6033" cy="62.7682" r="3.80546" transform="rotate(3.69244 75.6033 62.7682)" fill="white"/>
<circle cx="185.19" cy="132.449" r="2.75572" transform="rotate(3.69244 185.19 132.449)" fill="white"/>
<circle cx="134.717" cy="150.334" r="2.45428" transform="rotate(3.69244 134.717 150.334)" fill="white"/>
<circle cx="108.525" cy="127.502" r="2.89683" transform="rotate(3.69244 108.525 127.502)" fill="white"/>
</g>
<path fill-rule="evenodd" clip-rule="evenodd" d="M189.97 69.5766L189.702 73.7293L186.247 127.264C185.705 127.041 185.117 126.901 184.499 126.861C184.077 126.834 183.664 126.854 183.263 126.919L186.44 77.6888L140.589 126.283C140.117 125.382 139.403 124.622 138.526 124.097L187.114 72.6033L189.97 69.5766ZM186.895 137.182C187.778 136.675 188.511 135.93 189.002 135.029L238.506 193.038L236.773 195.389L138.771 153.237C139.36 152.443 139.744 151.483 139.836 150.43L232.048 190.092L186.895 137.182ZM129.242 152.13L92.0626 180.214L108.887 133.064C108.811 133.063 108.734 133.059 108.657 133.054C107.682 132.991 106.782 132.679 106.016 132.184L87.5513 183.93L85.8654 188.655L89.8681 185.631L131.133 154.462C130.303 153.875 129.646 153.067 129.242 152.13ZM78.4746 67.297L105.741 123.072C106.549 122.479 107.52 122.102 108.565 122.018L85.839 75.5305L131.16 125.663C131.746 124.832 132.553 124.173 133.49 123.767L80.9349 65.6323L78.4746 67.297Z" fill="white"/>
<path d="M171.028 69.3795L183.7 68.662L186.933 56.3889L191.532 68.2186L204.203 67.5011L194.373 75.5297L198.971 87.3594L188.298 80.4917L178.468 88.5203L181.702 76.2472L171.028 69.3795Z" fill="white"/>
<path d="M72.2482 179.995L84.9198 179.278L88.1532 167.005L92.7513 178.835L105.423 178.117L95.593 186.146L100.191 197.975L89.5179 191.108L79.6881 199.136L82.9215 186.863L72.2482 179.995Z" fill="white"/>
<path d="M226.404 194.362L234.787 191.152L234.324 182.188L239.967 189.168L248.35 185.958L243.455 193.482L249.098 200.463L240.43 198.132L235.535 205.656L235.072 196.692L226.404 194.362Z" fill="white"/>
<circle cx="135.097" cy="127.106" r="2.10633" transform="rotate(3.69244 135.097 127.106)" fill="white"/>
<circle cx="75.6033" cy="62.7682" r="3.80546" transform="rotate(3.69244 75.6033 62.7682)" fill="white"/>
<circle cx="185.19" cy="132.449" r="2.75572" transform="rotate(3.69244 185.19 132.449)" fill="white"/>
<circle cx="134.717" cy="150.334" r="2.45428" transform="rotate(3.69244 134.717 150.334)" fill="white"/>
<circle cx="108.525" cy="127.502" r="2.89683" transform="rotate(3.69244 108.525 127.502)" fill="white"/>
<defs>
<filter id="filter0_f_92_9198" x="61.7979" y="46.3889" width="197.3" height="169.267" filterUnits="userSpaceOnUse" color-interpolation-filters="sRGB">
<feFlood flood-opacity="0" result="BackgroundImageFix"/>
<feBlend mode="normal" in="SourceGraphic" in2="BackgroundImageFix" result="shape"/>
<feGaussianBlur stdDeviation="5" result="effect1_foregroundBlur_92_9198"/>
</filter>
</defs>
</svg>
