<svg width="282" height="255" viewBox="0 0 282 255" fill="none" xmlns="http://www.w3.org/2000/svg">
<path opacity="0.2" d="M275.301 93.5937C271.361 90.5573 265.378 93.0968 260.714 91.2093C259.546 90.7603 259.28 89.2669 260.162 88.4978C264.202 84.7186 271.419 85.6751 273.81 80.3998C274.24 79.5074 273.667 78.454 272.762 78.2074C268.591 77.1836 264.89 80.064 260.856 81.0778C260.666 81.1569 260.575 81.1506 260.391 81.138C250.554 80.7392 250.216 50.7531 249.314 42.3939C249.321 42.3021 249.241 42.1123 249.248 42.0205C243.291 25.3855 233.106 55.571 223.135 54.4255C223.043 54.4192 222.952 54.4129 222.86 54.4066C201.895 56.2862 197.501 59.8566 180.847 44.6076C180.762 44.5096 180.67 44.5033 180.584 44.4052C175.733 41.2141 172.944 46.923 173.553 51.4823C174.841 62.2652 173.094 72.9319 170.993 83.3899C169.703 95.4708 158.534 84.9315 152.511 89.4042C151.83 89.9106 151.669 90.9137 152.17 91.6856C155.208 95.7664 162.438 93.8657 166.355 95.8863C167.517 96.427 167.489 98.1768 166.344 98.7435C162.038 101.029 156.412 99.7211 152.442 102.491C151.572 103.077 151.569 104.459 152.449 105.073C156.914 108.514 165.054 104.094 169.529 106.061C170.513 106.497 170.694 107.893 170.001 108.583C160.094 118.597 144.745 105.835 132.939 104.563C132.847 104.557 132.847 104.557 132.755 104.55C112.282 99.2727 91.652 98.9626 71.2296 105.028C66.9015 106.298 64.487 105.211 62.328 101.743C49.3328 80.1999 40.5254 54.0576 48.1432 29.0431C51.4972 19.1321 54.5114 4.77249 41.082 1.63783C40.8984 1.62523 40.8067 1.61893 40.6232 1.60633C15.3169 2.26592 9.207 53.6591 17.0538 73.6506C17.0475 73.7424 17.1329 73.8404 17.1266 73.9322C21.9029 99.7055 53.631 115.621 46.1636 135.759C46.1573 135.851 46.1573 135.851 46.0592 135.937C36.9905 155.228 49.3903 174.702 45.2704 194.425C45.2641 194.517 45.2641 194.517 45.2578 194.609C44.6924 208.214 32.8123 232.199 50.4383 238.664C50.53 238.67 50.53 238.67 50.6218 238.677C56.4126 240.273 62.5228 241.245 68.4207 241.281C77.9386 242.304 87.6189 226.189 76.5115 221.462C76.4197 221.456 76.2425 221.352 76.1508 221.345C63.1172 219.16 69.0405 209.425 72.7778 200.647C73.3248 199.394 75.0809 199.33 75.733 200.573C80.1463 208.805 83.1895 216.85 87.5965 225.173C93.3697 241.796 135.243 241.536 125.925 220.153C125.767 219.773 125.504 219.571 125.149 219.362C113.323 213.019 108.732 214.086 104.428 200.238C104.13 199.204 104.848 198.147 105.956 198.131C119.802 197.883 132.983 196.575 146.788 195.587C152.907 195.085 153.024 194.724 155.49 200.425C155.484 200.517 155.57 200.615 155.563 200.707C170.393 259.991 221.873 231.258 198.666 216.112C198.581 216.014 198.397 216.001 198.312 215.903C194.35 214.525 189.268 213.346 187.141 209.42C187.055 209.322 187.061 209.231 186.976 209.133C184.1 199.992 174.936 187.102 185.742 180.099C198.041 167.483 230.823 206.98 254.149 174.747C254.247 174.661 254.253 174.569 254.259 174.478C260.634 162.193 243.944 152.842 234.815 162.264C234.619 162.435 234.423 162.606 234.141 162.679C225.362 165.671 218.832 157.387 211.626 153.573C211.534 153.567 211.449 153.469 211.363 153.37C206.306 149.151 211.939 140.964 217.124 139.292C232.731 133.541 246.66 125.37 255.597 110.68C256.217 109.708 258.47 109.125 259.938 109.226C260.03 109.232 260.121 109.238 260.213 109.245C263.944 109.962 267.428 111.584 271.234 111.2C272.44 111.098 272.993 109.753 272.42 108.7C269.194 103.316 259.781 104.79 258.682 100.658C258.53 100.186 258.653 99.734 258.96 99.2941C262.132 94.7178 270.402 99.1577 275.118 96.2547C275.995 95.5773 276.175 94.299 275.301 93.5937ZM26.2017 23.6645C32.8487 0.703791 49.3791 4.32793 42.0582 27.7034C41.9286 28.2476 41.4383 28.675 40.9669 28.827C36.7369 30.0116 32.148 27.023 27.4395 25.7778C26.449 25.4332 25.9551 24.5695 26.2017 23.6645ZM24.0802 59.9353C17.6254 59.9531 21.3619 48.501 20.9554 43.6791C20.8825 43.3975 20.9014 43.1222 21.0121 42.8532C22.9662 38.5621 29.608 39.8479 33.623 39.1094C43.4154 37.4769 40.3043 45.1919 39.8633 51.6152C39.857 51.7069 39.8507 51.7987 39.8507 51.7987C40.4451 60.5979 30.4046 57.7881 24.5516 59.7832C24.3618 59.8624 24.2637 59.9479 24.0802 59.9353ZM45.5399 83.0741C42.2913 86.0778 34.3377 89.1273 30.4928 87.3882C30.1383 87.1795 29.7902 86.879 29.6319 86.4993C27.9029 82.1397 20.6073 74.2634 27.4093 71.8724C40.9154 67.1759 42.6148 67.9379 46.0203 81.4476C46.0743 82.0044 45.9384 82.6404 45.5399 83.0741ZM65.0302 235.609C64.8466 235.597 64.7549 235.59 64.5714 235.578C56.9139 234.315 47.9087 233.881 47.0516 224.879C47.004 224.23 47.3296 223.515 47.9909 223.284C59.1112 218.424 91.2406 232.523 65.0302 235.609ZM115.664 220.555C129.698 224.284 117.727 232.128 109.121 231.261C109.029 231.255 108.937 231.248 108.754 231.236C100.277 232.498 88.0832 223.455 93.9381 217.404C94.0362 217.318 94.1342 217.233 94.2323 217.147C102.337 211.896 107.187 219.143 115.664 220.555ZM221.029 172.381C224.511 165.982 234.962 174.904 240.638 166.075C240.841 165.812 241.043 165.549 241.325 165.477C256.843 158.337 250.762 182.443 228.414 181.646C221.446 181.075 217.387 179.783 221.029 172.381ZM201.313 78.1883C201.733 85.5004 191.07 85.0449 191.188 77.9541C190.841 70.9235 201.773 71.4897 201.313 78.1883ZM179.625 53.0055C179.872 52.1005 180.925 51.5275 181.824 51.8658C184.868 53.1811 186.566 57.9995 187.955 60.5842C188.278 61.2517 185.858 62.9294 183.805 64.6323C183.217 65.1451 182.385 65.1801 181.774 64.6772C177.761 61.3593 178.484 57.5369 179.625 53.0055ZM196.563 227.953C196.366 228.124 196.268 228.209 195.987 228.282C188.97 231.119 175.788 229.753 171.574 222.642C171.159 221.968 171.308 221.148 171.804 220.629C179.263 214.042 205.353 219.429 196.563 227.953ZM198.886 148.457C198.506 148.616 198.047 148.584 197.595 148.461C187.222 143.784 158.915 130.409 168.84 117.446C169.146 117.006 169.716 116.768 170.266 116.806C177.686 117.5 185.675 134.09 197.886 137.51C198.069 137.522 198.155 137.621 198.332 137.725C204.332 141.64 205.438 145.68 198.886 148.457ZM207.447 113.735C199.044 108.548 211.91 109.155 212.339 105.589C201.356 93.6797 197.652 88.5392 218.561 87.4854C234.41 88.9424 210.102 104.606 222.635 106.019C232.901 112.256 211.614 113.468 207.447 113.735ZM229.75 81.6157C223.087 81.988 222.295 70.6861 229.563 70.9085C236.619 70.1944 236.461 81.8921 229.75 81.6157ZM238.754 57.8949C233.337 56.2322 238.909 47.5799 242.902 45.8257C243.943 45.4362 245 46.1542 245.108 47.2679C245.476 52.6404 246.279 61.0851 238.754 57.8949Z" fill="white"/>
<g filter="url(#filter0_f_92_9404)">
<path d="M34.3438 84.531L81.4682 153.254H188.48L210.079 94.8395" stroke="white" stroke-width="3"/>
<circle cx="212.168" cy="89.5071" r="3.42165" fill="white"/>
<path d="M187.284 139.291L190.082 147.901H199.135L191.811 153.222L194.608 161.832L187.284 156.511L179.961 161.832L182.758 153.222L175.434 147.901H184.487L187.284 139.291Z" fill="white"/>
<path d="M81.7197 135.82L85.6339 147.867H98.3009L88.0531 155.312L91.9674 167.359L81.7197 159.913L71.4719 167.359L75.3862 155.312L65.1385 147.867H77.8054L81.7197 135.82Z" fill="white"/>
<path d="M28.3024 70.1546L35.2495 77.3343L44.2246 72.9458L39.5431 81.7716L46.4903 88.9513L36.6498 87.2262L31.9683 96.052L30.568 86.1601L20.7275 84.435L29.7026 80.0465L28.3024 70.1546Z" fill="white"/>
</g>
<path d="M34.3438 84.531L81.4682 153.254H188.48L210.079 94.8395" stroke="white" stroke-width="3"/>
<circle cx="212.168" cy="89.5071" r="3.42165" fill="white"/>
<path d="M187.284 139.291L190.082 147.901H199.135L191.811 153.222L194.608 161.832L187.284 156.511L179.961 161.832L182.758 153.222L175.434 147.901H184.487L187.284 139.291Z" fill="white"/>
<path d="M81.7197 135.82L85.6339 147.867H98.3009L88.0531 155.312L91.9674 167.359L81.7197 159.913L71.4719 167.359L75.3862 155.312L65.1385 147.867H77.8054L81.7197 135.82Z" fill="white"/>
<path d="M28.3024 70.1546L35.2495 77.3343L44.2246 72.9458L39.5431 81.7716L46.4903 88.9513L36.6498 87.2262L31.9683 96.052L30.568 86.1601L20.7275 84.435L29.7026 80.0465L28.3024 70.1546Z" fill="white"/>
<defs>
<filter id="filter0_f_92_9404" x="10.7266" y="60.1545" width="214.863" height="117.204" filterUnits="userSpaceOnUse" color-interpolation-filters="sRGB">
<feFlood flood-opacity="0" result="BackgroundImageFix"/>
<feBlend mode="normal" in="SourceGraphic" in2="BackgroundImageFix" result="shape"/>
<feGaussianBlur stdDeviation="5" result="effect1_foregroundBlur_92_9404"/>
</filter>
</defs>
</svg>
