<svg width="354" height="535" viewBox="0 0 354 535" fill="none" xmlns="http://www.w3.org/2000/svg">
<path opacity="0.2" d="M72.8601 496.338C72.9368 498.93 73.1785 501.54 73.6541 503.964C74.2938 507.225 75.3869 510.307 77.2078 512.549C79.0884 514.864 81.7165 516.232 85.1423 515.996C88.5857 515.758 91.3928 513.831 93.6267 511.135C95.8529 508.448 97.6096 504.888 98.9871 501.086C99.0172 501.003 99.0451 500.918 99.075 500.835C98.8435 514.775 97.911 528.127 94.5388 531.5C88.9389 537.1 78.8723 533.833 74.5388 531.5C74.5388 526 74.0388 513.2 72.0388 506C71.4913 504.029 71.8783 500.594 72.8601 496.338ZM168.039 300C168.372 304.667 169.439 315.2 171.039 320C173.039 326 192.039 367 197.539 384C203.039 401 193.039 431 201.039 449C205.039 448.833 213.239 450.9 214.039 460.5C215.039 472.5 204.539 474.5 206.039 482.5C207.539 490.5 222.538 511 210.039 513.5C204.986 514.511 199.444 509.148 194.599 501.574C197.328 497.843 199.09 491.345 197.009 481.198C196.842 480.387 196.048 479.864 195.237 480.03C194.426 480.197 193.903 480.99 194.069 481.802C195.82 490.336 194.654 495.612 192.864 498.722C186.567 487.836 181.812 473.833 181.539 467C181.039 454.5 175.539 389 163.539 369C153.939 353 149.872 344.667 149.039 342.5L168.039 300ZM164.039 288C174.038 285.001 145.039 320 140.539 360.5C136.039 401 101.039 456.5 99.5388 465.5C98.9694 468.917 99.1196 478.243 99.1433 488.882C98.433 492.605 97.4567 496.501 96.1658 500.064C94.8477 503.703 93.2353 506.906 91.3171 509.221C89.4065 511.526 87.2913 512.841 84.9353 513.004C82.5616 513.167 80.852 512.277 79.5359 510.657C78.16 508.963 77.1961 506.433 76.5984 503.387C75.4062 497.309 75.7858 489.796 76.5232 484.716L76.2507 484.676C80.9907 470.444 88.1269 453.927 90.5388 448.5C94.5389 439.5 114.039 371 116.039 356.5C118.039 342 114.539 318 122.539 305C133.039 300.333 156.039 290.4 164.039 288ZM51.5388 0C57.5395 1.33386 72.2394 8.0009 83.0388 24C96.5384 43.9996 94.0389 49.5001 101.539 61C109.038 72.4997 109.539 80.0001 110.539 83.5C111.539 87.0001 117.539 94.5002 119.039 102C120.239 108 133.206 121.833 139.539 128C141.539 128.333 145.839 128.6 147.039 127C148.539 125 152.039 120 153.539 118C154.738 116.4 153.372 112.333 152.539 110.5C148.372 109.333 140.239 105.7 141.039 100.5C142.039 94.0003 145.539 93.4997 144.539 88.5C143.8 84.8055 143.003 83.9546 142.623 83.9775C142.595 83.985 142.566 83.9928 142.539 84C142.564 83.9877 142.592 83.9795 142.623 83.9775C145.822 83.1246 152.35 80.7751 153.539 78C154.452 75.8711 160.912 70.7832 168.646 69.4854C166.708 74.6087 165.657 83.8918 172.754 91.9922C177.061 96.9091 177.036 102.277 176.358 107.954C176.027 110.725 175.517 113.716 175.407 116.503C175.332 118.416 175.436 120.341 175.927 122.215C175.14 122.227 174.343 122.161 173.539 122C172.372 126 171.939 135.3 179.539 140.5C189.038 146.999 189.039 141 205.539 152C222.039 163 251.539 173.5 259.539 173.5C267.542 173.502 308.039 191 317.039 197C326.039 203 344.539 219 352.039 224C356.689 227.1 353.537 226.999 337.039 220C340.039 223 344.939 229.9 344.539 233.5C344.193 236.612 333.805 223.468 324.619 213.903C324.258 216.845 323.811 220.538 323.538 223C323.038 227.5 318.038 230 320.538 224C322.335 219.686 318.61 211.011 315.902 206.031C315.23 205.584 314.606 205.234 314.039 205C305.539 201.5 216.661 179.809 209.039 176C199.04 171 188.039 166.001 182.539 169C177.039 172 156.539 191 153.039 204C153.205 208.667 154.939 218.4 160.539 220C167.548 222.001 263.537 235.002 244.039 268C224.539 301 204.538 249.001 96.0388 313.5C-12.4612 378 29.5388 254 110.539 229.5C111.872 226.832 114.139 215.198 112.539 190L112.445 188.527C110.525 158.311 110.149 152.405 117.039 146.5C124.037 140.498 94.039 91.9993 88.5388 64.5C83.0388 37.0011 80.5385 29.5002 76.5388 26C72.539 22.5001 57.5397 19.9998 54.5388 16C52.1386 12.8 57.8721 12.6667 61.0388 13C53.5387 8.66667 41.1386 0 51.5388 0ZM172.048 69.1826C176.058 69.1482 180.234 70.3041 184.039 73.5C196.538 83.9996 197.039 88.0001 197.039 92C201.705 96.1669 207.137 106 191.539 112C189.488 115.076 184.675 120.281 178.923 121.793C178.455 120.21 178.33 118.491 178.404 116.621C178.508 113.99 178.98 111.302 179.338 108.309C180.036 102.456 180.206 95.9454 175.01 90.0146C168.126 82.1559 170.108 73.0021 172.048 69.1826Z" fill="white"/>
<path d="M164.245 218.294L170.031 226.005L179.153 222.886L173.607 230.771L179.393 238.482L170.179 235.645L164.633 243.53L164.485 233.891L155.272 231.053L164.393 227.933L164.245 218.294Z" fill="white"/>
<path d="M124.651 307.38L127.859 311.656L132.916 309.926L129.841 314.298L133.049 318.573L127.941 317L124.866 321.372L124.784 316.028L119.676 314.454L124.733 312.725L124.651 307.38Z" fill="white"/>
<path d="M89.6509 305.38L92.8586 309.656L97.9158 307.926L94.841 312.298L98.0487 316.573L92.9407 315L89.8659 319.372L89.7838 314.028L84.6758 312.454L89.733 310.725L89.6509 305.38Z" fill="white"/>
<path d="M14.5369 308.265L22.4427 313.782L30.1328 307.968L27.3288 317.191L35.2346 322.708L25.5958 322.892L22.7918 332.116L19.6387 323.005L9.99989 323.189L17.69 317.375L14.5369 308.265Z" fill="white"/>
<path d="M128.275 117.002L136.181 122.519L143.871 116.705L141.067 125.929L148.972 131.446L139.334 131.63L136.53 140.854L133.377 131.743L123.738 131.927L131.428 126.113L128.275 117.002Z" fill="white"/>
<path d="M168.275 160.002L176.181 165.519L183.871 159.705L181.067 168.929L188.972 174.446L179.334 174.63L176.53 183.854L173.377 174.743L163.738 174.927L171.428 169.113L168.275 160.002Z" fill="white"/>
<circle cx="138.91" cy="173.848" r="4.97208" fill="white"/>
<circle cx="111.91" cy="234.848" r="4" fill="white"/>
<circle cx="127.69" cy="261" r="4" fill="white"/>
<path d="M103.421 239.868C103.983 240.704 104.666 241.451 105.445 242.086L27.7771 317.136L91.3396 311.568L121.464 266.17C122.153 266.902 122.949 267.531 123.827 268.033L93.4402 313.829L93.0408 314.432L92.321 314.494L23.821 320.494L19.6023 320.863L22.6482 317.921L103.421 239.868ZM126.19 269.013C127.047 269.246 127.947 269.375 128.878 269.375C128.982 269.375 129.086 269.369 129.19 269.366V310.857L235.081 272.309C235.426 273.296 235.985 274.182 236.703 274.911L128.203 314.409L126.19 315.143V269.013ZM235.656 266.451C235.145 267.319 234.815 268.306 234.719 269.36L164.965 230.812L166.416 228.188L235.656 266.451ZM132.685 181.275C133.481 181.886 134.369 182.381 135.326 182.737L117.397 225.627C116.562 225.087 115.643 224.666 114.663 224.388L132.685 181.275ZM178.19 173.5H149.057C149.061 173.396 149.065 173.292 149.065 173.188C149.065 172.257 148.938 171.356 148.704 170.5H178.19V173.5ZM139.065 129.219C135.851 131.526 130.952 135.337 126.721 139.251C124.605 141.209 122.682 143.169 121.227 144.959C119.733 146.797 118.878 148.284 118.657 149.314C118.584 149.657 118.609 150.166 118.858 150.889C119.105 151.605 119.54 152.44 120.161 153.378C121.404 155.254 123.279 157.37 125.478 159.53C127.57 161.585 129.91 163.636 132.188 165.506C131.432 166.165 130.775 166.933 130.24 167.786C127.916 165.876 125.525 163.78 123.377 161.67C121.113 159.447 119.07 157.163 117.66 155.035C116.955 153.971 116.379 152.902 116.022 151.866C115.668 150.836 115.497 149.743 115.723 148.686C116.103 146.916 117.359 144.961 118.899 143.066C120.478 141.123 122.514 139.057 124.684 137.049C129.028 133.03 134.029 129.141 137.315 126.781L139.065 129.219Z" fill="white"/>
<circle cx="242.19" cy="270.5" r="3.5" fill="white"/>
<g filter="url(#filter0_f_9_482)">
<path d="M164.245 218.294L170.031 226.005L179.153 222.886L173.607 230.771L179.393 238.482L170.179 235.645L164.633 243.53L164.485 233.891L155.272 231.053L164.393 227.933L164.245 218.294Z" fill="white"/>
<path d="M124.651 307.38L127.859 311.656L132.916 309.926L129.841 314.298L133.049 318.573L127.941 317L124.866 321.372L124.784 316.028L119.676 314.454L124.733 312.725L124.651 307.38Z" fill="white"/>
<path d="M89.6509 305.38L92.8586 309.656L97.9158 307.926L94.841 312.298L98.0487 316.573L92.9407 315L89.8659 319.372L89.7838 314.028L84.6758 312.454L89.733 310.725L89.6509 305.38Z" fill="white"/>
<path d="M14.5369 308.265L22.4427 313.782L30.1328 307.968L27.3288 317.191L35.2346 322.708L25.5958 322.892L22.7918 332.116L19.6387 323.005L9.99989 323.189L17.69 317.375L14.5369 308.265Z" fill="white"/>
<path d="M128.275 117.002L136.181 122.519L143.871 116.705L141.067 125.929L148.972 131.446L139.334 131.63L136.53 140.854L133.377 131.743L123.738 131.927L131.428 126.113L128.275 117.002Z" fill="white"/>
<path d="M168.275 160.002L176.181 165.519L183.871 159.705L181.067 168.929L188.972 174.446L179.334 174.63L176.53 183.854L173.377 174.743L163.738 174.927L171.428 169.113L168.275 160.002Z" fill="white"/>
<circle cx="138.91" cy="173.848" r="4.97208" fill="white"/>
<circle cx="111.91" cy="234.848" r="4" fill="white"/>
<circle cx="127.69" cy="261" r="4" fill="white"/>
<path d="M103.421 239.868C103.983 240.704 104.666 241.451 105.445 242.086L27.7771 317.136L91.3396 311.568L121.464 266.17C122.153 266.902 122.949 267.531 123.827 268.033L93.4402 313.829L93.0408 314.432L92.321 314.494L23.821 320.494L19.6023 320.863L22.6482 317.921L103.421 239.868ZM126.19 269.013C127.047 269.246 127.947 269.375 128.878 269.375C128.982 269.375 129.086 269.369 129.19 269.366V310.857L235.081 272.309C235.426 273.296 235.985 274.182 236.703 274.911L128.203 314.409L126.19 315.143V269.013ZM235.656 266.451C235.145 267.319 234.815 268.306 234.719 269.36L164.965 230.812L166.416 228.188L235.656 266.451ZM132.685 181.275C133.481 181.886 134.369 182.381 135.326 182.737L117.397 225.627C116.562 225.087 115.643 224.666 114.663 224.388L132.685 181.275ZM178.19 173.5H149.057C149.061 173.396 149.065 173.292 149.065 173.188C149.065 172.257 148.938 171.356 148.704 170.5H178.19V173.5ZM139.065 129.219C135.851 131.526 130.952 135.337 126.721 139.251C124.605 141.209 122.682 143.169 121.227 144.959C119.733 146.797 118.878 148.284 118.657 149.314C118.584 149.657 118.609 150.166 118.858 150.889C119.105 151.605 119.54 152.44 120.161 153.378C121.404 155.254 123.279 157.37 125.478 159.53C127.57 161.585 129.91 163.636 132.188 165.506C131.432 166.165 130.775 166.933 130.24 167.786C127.916 165.876 125.525 163.78 123.377 161.67C121.113 159.447 119.07 157.163 117.66 155.035C116.955 153.971 116.379 152.902 116.022 151.866C115.668 150.836 115.497 149.743 115.723 148.686C116.103 146.916 117.359 144.961 118.899 143.066C120.478 141.123 122.514 139.057 124.684 137.049C129.028 133.03 134.029 129.141 137.315 126.781L139.065 129.219Z" fill="white"/>
<circle cx="242.19" cy="270.5" r="3.5" fill="white"/>
</g>
<defs>
<filter id="filter0_f_9_482" x="0" y="106.705" width="255.69" height="235.41" filterUnits="userSpaceOnUse" color-interpolation-filters="sRGB">
<feFlood flood-opacity="0" result="BackgroundImageFix"/>
<feBlend mode="normal" in="SourceGraphic" in2="BackgroundImageFix" result="shape"/>
<feGaussianBlur stdDeviation="5" result="effect1_foregroundBlur_9_482"/>
</filter>
</defs>
</svg>
