<svg width="267" height="404" viewBox="0 0 267 404" fill="none" xmlns="http://www.w3.org/2000/svg">
<path opacity="0.2" d="M54.9548 374.359C55.0126 376.315 55.1946 378.285 55.5535 380.114C56.036 382.574 56.8599 384.899 58.2332 386.59C59.6515 388.336 61.6348 389.368 64.2185 389.189C66.8155 389.01 68.9331 387.557 70.6179 385.523C72.2971 383.497 73.6209 380.811 74.6599 377.943C74.6833 377.879 74.7042 377.813 74.7273 377.748C74.5529 388.264 73.8495 398.339 71.3054 400.883C67.0816 405.106 59.4888 402.643 56.2205 400.883C56.2204 396.734 55.8432 387.08 54.3347 381.649C53.9218 380.162 54.2139 377.571 54.9548 374.359ZM126.743 226.274C126.994 229.794 127.799 237.739 129.006 241.359C130.514 245.885 144.844 276.808 148.993 289.631C153.141 302.453 145.599 325.081 151.633 338.657C154.65 338.532 160.835 340.091 161.438 347.331C162.192 356.382 154.273 357.891 155.404 363.925C156.535 369.959 167.849 385.421 158.421 387.307C154.609 388.068 150.428 384.023 146.774 378.31C148.832 375.495 150.162 370.596 148.593 362.943C148.467 362.331 147.869 361.937 147.257 362.062C146.645 362.188 146.25 362.787 146.376 363.398C147.696 369.835 146.817 373.815 145.468 376.16C140.718 367.95 137.131 357.388 136.925 352.234C136.547 342.806 132.399 293.402 123.348 278.317C116.108 266.25 113.04 259.964 112.412 258.33L126.743 226.274ZM123.725 217.224C131.268 214.961 109.395 241.359 106.001 271.906C102.607 302.453 76.2083 344.314 75.0769 351.103C74.6473 353.68 74.7602 360.716 74.7781 368.742C74.2425 371.549 73.5062 374.486 72.533 377.173C71.5388 379.917 70.3225 382.333 68.8757 384.079C67.4347 385.818 65.8393 386.81 64.0623 386.933C62.2722 387.056 60.9826 386.385 59.99 385.163C58.9523 383.886 58.225 381.976 57.7742 379.679C56.875 375.095 57.1614 369.428 57.7175 365.597L57.5115 365.566C61.0866 354.832 66.4696 342.374 68.2888 338.28C71.3059 331.492 86.0126 279.827 87.5212 268.89C89.0297 257.953 86.3909 239.851 92.4246 230.046C100.344 226.526 117.691 219.034 123.725 217.224ZM38.8728 0C43.3985 1.00589 54.486 6.03423 62.6316 18.1016C72.8138 33.1863 70.9289 37.335 76.5857 46.0088C82.2423 54.6824 82.6196 60.3396 83.3738 62.9795C84.1281 65.6194 88.6535 71.2768 89.7849 76.9336C90.6905 81.4593 100.47 91.8929 105.247 96.5439C106.755 96.7953 109.998 96.9961 110.903 95.79C112.035 94.2814 114.675 90.5094 115.806 89.001C116.711 87.7939 115.68 84.7274 115.052 83.3447C111.909 82.4647 105.774 79.7237 106.378 75.8018C107.132 70.8994 109.772 70.522 109.018 66.751C108.461 63.9642 107.859 63.3225 107.573 63.3398C109.986 62.6966 114.909 60.9242 115.806 58.8311C116.495 57.2252 121.368 53.3881 127.201 52.4092C125.739 56.2736 124.947 63.2752 130.3 69.3848C133.548 73.0933 133.529 77.1421 133.018 81.4238C132.769 83.5138 132.383 85.7701 132.301 87.8721C132.244 89.3144 132.322 90.7668 132.692 92.1797C132.099 92.1888 131.498 92.1397 130.891 92.0186C130.011 95.0356 129.685 102.05 135.417 105.972C142.582 110.874 142.582 106.349 155.027 114.646C167.472 122.942 189.723 130.862 195.757 130.862C201.792 130.863 232.338 144.062 239.126 148.587C245.914 153.112 259.867 165.18 265.524 168.951C269.032 171.29 266.655 171.214 254.211 165.935C256.473 168.197 260.17 173.402 259.868 176.117C259.607 178.464 251.772 168.55 244.844 161.336C244.571 163.555 244.234 166.34 244.028 168.197C243.651 171.591 239.88 173.477 241.765 168.951C243.121 165.697 240.311 159.154 238.268 155.398C237.761 155.061 237.291 154.797 236.863 154.621C230.452 151.981 163.413 135.621 157.667 132.748C150.125 128.977 141.828 125.206 137.679 127.468C133.531 129.73 118.07 144.061 115.429 153.866C115.555 157.386 116.862 164.728 121.086 165.935C126.369 167.443 198.772 177.249 184.065 202.139C169.357 227.028 154.272 187.809 72.4373 236.457C-9.3987 285.106 22.2797 191.579 83.3738 173.1C84.3796 171.087 86.0893 162.312 84.8826 143.308L84.8113 142.196C83.3627 119.406 83.0797 114.951 88.2761 110.497C93.5545 105.97 70.9287 69.3909 66.78 48.6494C62.6316 27.9082 60.7461 22.2503 57.7292 19.6104C54.7122 16.9706 43.3989 15.0851 41.1355 12.0684C39.3252 9.65476 43.6503 9.55425 46.0388 9.80566C40.3819 6.53727 31.0287 6.0084e-05 38.8728 0ZM129.766 52.1807C132.791 52.1546 135.941 53.0269 138.81 55.4375C148.238 63.3567 148.616 66.3737 148.616 69.3906C152.136 72.5334 156.233 79.9502 144.468 84.4756C142.921 86.796 139.29 90.7188 134.952 91.8594C134.6 90.666 134.506 89.3706 134.561 87.9609C134.64 85.9763 134.996 83.9493 135.265 81.6914C135.792 77.2773 135.919 72.3668 132.001 67.8936C126.808 61.9662 128.303 55.0615 129.766 52.1807Z" fill="white"/>
<path d="M123.882 164.648L128.246 170.464L135.126 168.111L130.943 174.059L135.307 179.875L128.357 177.734L124.174 183.682L124.063 176.412L117.113 174.271L123.994 171.918L123.882 164.648Z" fill="white"/>
<path d="M94.0179 231.841L96.4373 235.066L100.252 233.761L97.9326 237.059L100.352 240.283L96.4993 239.097L94.1801 242.394L94.1182 238.363L90.2654 237.177L94.0799 235.872L94.0179 231.841Z" fill="white"/>
<path d="M67.6192 230.333L70.0386 233.557L73.853 232.253L71.5339 235.55L73.9533 238.775L70.1006 237.588L67.7814 240.886L67.7195 236.855L63.8668 235.668L67.6812 234.364L67.6192 230.333Z" fill="white"/>
<path d="M10.9646 232.508L16.9275 236.669L22.7278 232.284L20.6128 239.241L26.5758 243.402L19.3057 243.541L17.1908 250.498L14.8126 243.626L7.54252 243.765L13.3428 239.379L10.9646 232.508Z" fill="white"/>
<path d="M96.7512 88.2487L102.714 92.41L108.514 88.0248L106.399 94.9818L112.362 99.143L105.092 99.2814L102.977 106.238L100.599 99.367L93.3291 99.5054L99.1294 95.1202L96.7512 88.2487Z" fill="white"/>
<path d="M126.921 120.681L132.884 124.843L138.684 120.457L136.569 127.414L142.532 131.576L135.262 131.714L133.147 138.671L130.769 131.8L123.499 131.938L129.299 127.553L126.921 120.681Z" fill="white"/>
<circle cx="104.773" cy="131.125" r="3.75018" fill="white"/>
<circle cx="84.4083" cy="177.134" r="3.01699" fill="white"/>
<circle cx="96.3102" cy="196.859" r="3.01699" fill="white"/>
<path d="M78.0049 180.92C78.4289 181.55 78.9443 182.114 79.5312 182.592L20.9502 239.199L68.8926 235L91.6133 200.757C92.1333 201.309 92.7338 201.783 93.3965 202.163L70.4766 236.705L70.1758 237.159L69.6328 237.207L17.9668 241.732L14.7852 242.01L17.082 239.792L78.0049 180.92ZM95.1787 202.903C95.8247 203.079 96.5042 203.175 97.2061 203.175C97.2848 203.175 97.3632 203.172 97.4414 203.169V234.462L177.31 205.387C177.57 206.132 177.991 206.801 178.533 207.351L96.6973 237.142L95.1787 237.695V202.903ZM177.744 200.97C177.358 201.625 177.109 202.369 177.037 203.165L124.424 174.09L124.972 173.1L125.519 172.11L177.744 200.97ZM100.078 136.726C100.678 137.186 101.348 137.561 102.069 137.83L88.5469 170.178C87.9164 169.771 87.2227 169.454 86.4834 169.245L100.078 136.726ZM134.399 130.862H112.426C112.428 130.784 112.432 130.705 112.432 130.626C112.432 129.925 112.336 129.245 112.16 128.599H134.399V130.862ZM104.89 97.4624C102.466 99.2027 98.7702 102.077 95.5791 105.03C93.9826 106.507 92.533 107.984 91.4355 109.334C90.3087 110.721 89.6627 111.842 89.4961 112.62C89.4408 112.878 89.4609 113.262 89.6484 113.807C89.8345 114.347 90.1624 114.978 90.6309 115.685C91.5685 117.1 92.9834 118.696 94.6416 120.325C96.2193 121.874 97.9853 123.422 99.7041 124.833C99.1341 125.329 98.6378 125.908 98.2344 126.551C96.4811 125.111 94.6768 123.53 93.0566 121.939C91.3494 120.262 89.8085 118.539 88.7451 116.934C88.2133 116.131 87.7789 115.326 87.5098 114.544C87.2424 113.768 87.1134 112.943 87.2842 112.146C87.5702 110.811 88.5182 109.337 89.6797 107.908C90.8708 106.442 92.4057 104.883 94.043 103.369C97.3193 100.337 101.091 97.404 103.569 95.6245L104.89 97.4624Z" fill="white"/>
<circle cx="182.672" cy="204.024" r="2.63987" fill="white"/>
<g filter="url(#filter0_f_9_482)">
<path d="M123.882 164.648L128.246 170.464L135.126 168.111L130.943 174.059L135.307 179.875L128.357 177.734L124.174 183.682L124.063 176.412L117.113 174.271L123.994 171.918L123.882 164.648Z" fill="white"/>
<path d="M94.0179 231.841L96.4373 235.066L100.252 233.761L97.9326 237.059L100.352 240.283L96.4993 239.097L94.1801 242.394L94.1182 238.363L90.2654 237.177L94.0799 235.872L94.0179 231.841Z" fill="white"/>
<path d="M67.6192 230.333L70.0386 233.557L73.853 232.253L71.5339 235.55L73.9533 238.775L70.1006 237.588L67.7814 240.886L67.7195 236.855L63.8668 235.668L67.6812 234.364L67.6192 230.333Z" fill="white"/>
<path d="M10.9646 232.508L16.9275 236.669L22.7278 232.284L20.6128 239.241L26.5758 243.402L19.3057 243.541L17.1908 250.498L14.8126 243.626L7.54252 243.765L13.3428 239.379L10.9646 232.508Z" fill="white"/>
<path d="M96.7512 88.2487L102.714 92.41L108.514 88.0248L106.399 94.9818L112.362 99.143L105.092 99.2814L102.977 106.238L100.599 99.367L93.3291 99.5054L99.1294 95.1202L96.7512 88.2487Z" fill="white"/>
<path d="M126.921 120.681L132.884 124.843L138.684 120.457L136.569 127.414L142.532 131.576L135.262 131.714L133.147 138.671L130.769 131.8L123.499 131.938L129.299 127.553L126.921 120.681Z" fill="white"/>
<circle cx="104.773" cy="131.125" r="3.75018" fill="white"/>
<circle cx="84.4083" cy="177.134" r="3.01699" fill="white"/>
<circle cx="96.3102" cy="196.859" r="3.01699" fill="white"/>
<path d="M78.0049 180.92C78.4289 181.55 78.9443 182.114 79.5312 182.592L20.9502 239.199L68.8926 235L91.6133 200.757C92.1333 201.309 92.7338 201.783 93.3965 202.163L70.4766 236.705L70.1758 237.159L69.6328 237.207L17.9668 241.732L14.7852 242.01L17.082 239.792L78.0049 180.92ZM95.1787 202.903C95.8247 203.079 96.5042 203.175 97.2061 203.175C97.2848 203.175 97.3632 203.172 97.4414 203.169V234.462L177.31 205.387C177.57 206.132 177.991 206.801 178.533 207.351L96.6973 237.142L95.1787 237.695V202.903ZM177.744 200.97C177.358 201.625 177.109 202.369 177.037 203.165L124.424 174.09L124.972 173.1L125.519 172.11L177.744 200.97ZM100.078 136.726C100.678 137.186 101.348 137.561 102.069 137.83L88.5469 170.178C87.9164 169.771 87.2227 169.454 86.4834 169.245L100.078 136.726ZM134.399 130.862H112.426C112.428 130.784 112.432 130.705 112.432 130.626C112.432 129.925 112.336 129.245 112.16 128.599H134.399V130.862ZM104.89 97.4624C102.466 99.2027 98.7702 102.077 95.5791 105.03C93.9826 106.507 92.533 107.984 91.4355 109.334C90.3087 110.721 89.6627 111.842 89.4961 112.62C89.4408 112.878 89.4609 113.262 89.6484 113.807C89.8345 114.347 90.1624 114.978 90.6309 115.685C91.5685 117.1 92.9834 118.696 94.6416 120.325C96.2193 121.874 97.9853 123.422 99.7041 124.833C99.1341 125.329 98.6378 125.908 98.2344 126.551C96.4811 125.111 94.6768 123.53 93.0566 121.939C91.3494 120.262 89.8085 118.539 88.7451 116.934C88.2133 116.131 87.7789 115.326 87.5098 114.544C87.2424 113.768 87.1134 112.943 87.2842 112.146C87.5702 110.811 88.5182 109.337 89.6797 107.908C90.8708 106.442 92.4057 104.883 94.043 103.369C97.3193 100.337 101.091 97.404 103.569 95.6245L104.89 97.4624Z" fill="white"/>
<circle cx="182.672" cy="204.024" r="2.63987" fill="white"/>
</g>
<defs>
<filter id="filter0_f_9_482" x="-3.8147e-06" y="80.4822" width="192.854" height="177.558" filterUnits="userSpaceOnUse" color-interpolation-filters="sRGB">
<feFlood flood-opacity="0" result="BackgroundImageFix"/>
<feBlend mode="normal" in="SourceGraphic" in2="BackgroundImageFix" result="shape"/>
<feGaussianBlur stdDeviation="3.77124" result="effect1_foregroundBlur_9_482"/>
</filter>
</defs>
</svg>
