<svg width="211" height="416" viewBox="0 0 211 416" fill="none" xmlns="http://www.w3.org/2000/svg">
<g opacity="0.2">
<path d="M198.5 255.5L167 262C170.5 268.333 176.7 282.6 173.5 289C169.5 297 173.5 319.5 173.5 328V362.5L177.5 415.5H181.5C182.667 415.167 185.9 412.4 189.5 404C193.1 395.6 194 380.833 194 374.5C193.667 369.333 194.1 355.7 198.5 342.5C202.9 329.3 200.333 279 198.5 255.5Z" fill="white"/>
<path d="M0.472331 297.5C-1.52767 287.5 3.30566 248.333 5.97233 230L18.4724 238.5L14.4724 411.5C9.80572 408.667 0.972347 399.1 2.97241 383.5C5.47249 364 2.97233 310 0.472331 297.5Z" fill="white"/>
<path d="M19 150.5C14.7838 157.016 5.64005 196.801 1.07079 218.297C0.723699 219.93 1.43523 221.592 2.84599 222.484L23.0641 235.275C24.2633 236.034 24.9708 237.371 24.9233 238.79L19.1386 411.366C19.0628 413.626 20.8747 415.5 23.1363 415.5H171.026C173.412 415.5 175.267 413.425 175.001 411.054L159.055 268.988C159.018 268.664 159.022 268.337 159.065 268.013L164 231V256.111C164 258.638 166.315 260.532 168.792 260.031L207.378 252.232C209.423 251.819 210.807 249.903 210.557 247.831L200.13 161.572C200.045 160.87 199.775 160.203 199.348 159.639L186.528 142.698C186.18 142.238 185.737 141.859 185.229 141.586L139.988 117.334C138.497 116.534 136.663 116.76 135.41 117.898L102.345 147.917C100.755 149.36 98.3106 149.291 96.805 147.762L70.5782 121.112C69.3436 119.857 67.4401 119.552 65.8855 120.378C50.4952 128.549 23.1527 144.082 19 150.5Z" fill="white"/>
<path d="M98.4162 140.992C96.6864 140.558 81.8391 126.335 74.6317 119.279L78.9562 110.05V93.2226C74.1993 89.7485 72.2893 80.1944 71.929 75.8516C65.9829 75.8516 62.1989 58.4811 61.1178 54.1384C60.2529 50.6642 64.3611 50.1576 66.5233 50.3385V30.7964C63.4962 27.7565 63.4602 22.6537 63.8206 20.4823C88.1456 -15.8878 120.579 5.82569 130.85 12.8826C141.12 19.9394 136.255 48.1669 139.498 47.6241C142.742 47.0813 140.039 63.3664 137.877 68.7947C136.147 73.1374 132.471 75.3088 130.85 75.8516V83.4513C128.147 109.507 138.417 105.708 135.174 110.05C131.931 114.393 100.578 141.535 98.4162 140.992Z" fill="white"/>
</g>
<g filter="url(#filter0_f_9_533)">
<path d="M70.3842 210.431L57.9336 194.98L39.5651 201.774L50.2386 185.431L37.788 169.98L56.8352 175.331L67.5088 158.988L68.6071 178.638L87.6544 183.988L69.2859 190.782L70.3842 210.431Z" fill="white"/>
<path d="M147.637 226.604L135.758 227.812L133.155 239.305L128.417 228.558L116.538 229.765L125.488 221.916L120.75 211.169L131.02 217.065L139.971 209.215L137.367 220.708L147.637 226.604Z" fill="white"/>
<path d="M111.637 350.604L99.7582 351.812L97.1548 363.305L92.4168 352.558L80.5381 353.765L89.4885 345.916L84.7505 335.169L95.0202 341.065L103.971 333.215L101.367 344.708L111.637 350.604Z" fill="white"/>
<path d="M165.998 328.832L154.067 328.351L149.868 339.361L146.694 328.053L134.764 327.572L144.733 321.065L141.559 309.757L150.893 317.043L160.862 310.535L156.663 321.546L165.998 328.832Z" fill="white"/>
<circle cx="156" cy="99" r="4" fill="white"/>
<circle cx="47" cy="109" r="4" fill="white"/>
<circle cx="74" cy="292" r="4" fill="white"/>
<path d="M98.1465 346.431L95.3711 347.569L76.5859 301.792C77.5477 301.452 78.4426 300.971 79.2471 300.375L98.1465 346.431ZM154.308 279.959C155.221 280.228 156.187 280.375 157.188 280.375C157.218 280.375 157.249 280.372 157.28 280.372L152.354 321.542L150.864 321.364L149.375 321.186L154.308 279.959ZM153.219 109.183C153.856 109.307 154.514 109.375 155.188 109.375C155.55 109.375 155.909 109.354 156.262 109.317L131.811 220.271L153.606 260.648C152.657 261.005 151.775 261.5 150.984 262.107L129.984 223.203L80.6182 285.223C79.9329 284.492 79.1421 283.862 78.2686 283.358L128.836 219.829L153.219 109.183ZM60.8672 189.04L59.3867 189.283L57.9072 189.526L46.3643 119.37C47.3958 119.353 48.3892 119.182 49.3242 118.88L60.8672 189.04ZM145.028 98.4561C145.011 98.6977 145 98.9415 145 99.1875C145 99.9643 145.089 100.72 145.254 101.447L56.3555 108.589C56.2955 107.553 56.081 106.56 55.7344 105.63L145.028 98.4561Z" fill="white"/>
<circle cx="158" cy="270" r="4" fill="white"/>
</g>
<path d="M70.3842 210.431L57.9336 194.98L39.5651 201.774L50.2386 185.431L37.788 169.98L56.8352 175.331L67.5088 158.988L68.6071 178.638L87.6544 183.988L69.2859 190.782L70.3842 210.431Z" fill="white"/>
<path d="M147.637 226.604L135.758 227.812L133.155 239.305L128.417 228.558L116.538 229.765L125.488 221.916L120.75 211.169L131.02 217.065L139.971 209.215L137.367 220.708L147.637 226.604Z" fill="white"/>
<path d="M111.637 350.604L99.7582 351.812L97.1548 363.305L92.4168 352.558L80.5381 353.765L89.4885 345.916L84.7505 335.169L95.0202 341.065L103.971 333.215L101.367 344.708L111.637 350.604Z" fill="white"/>
<path d="M165.998 328.832L154.067 328.351L149.868 339.361L146.694 328.053L134.764 327.572L144.733 321.065L141.559 309.757L150.893 317.043L160.862 310.535L156.663 321.546L165.998 328.832Z" fill="white"/>
<circle cx="156" cy="99" r="4" fill="white"/>
<circle cx="47" cy="109" r="4" fill="white"/>
<circle cx="74" cy="292" r="4" fill="white"/>
<path d="M98.1465 346.431L95.3711 347.569L76.5859 301.792C77.5477 301.452 78.4426 300.971 79.2471 300.375L98.1465 346.431ZM154.308 279.959C155.221 280.228 156.187 280.375 157.188 280.375C157.218 280.375 157.249 280.372 157.28 280.372L152.354 321.542L150.864 321.364L149.375 321.186L154.308 279.959ZM153.219 109.183C153.856 109.307 154.514 109.375 155.188 109.375C155.55 109.375 155.909 109.354 156.262 109.317L131.811 220.271L153.606 260.648C152.657 261.005 151.775 261.5 150.984 262.107L129.984 223.203L80.6182 285.223C79.9329 284.492 79.1421 283.862 78.2686 283.358L128.836 219.829L153.219 109.183ZM60.8672 189.04L59.3867 189.283L57.9072 189.526L46.3643 119.37C47.3958 119.353 48.3892 119.182 49.3242 118.88L60.8672 189.04ZM145.028 98.4561C145.011 98.6977 145 98.9415 145 99.1875C145 99.9643 145.089 100.72 145.254 101.447L56.3555 108.589C56.2955 107.553 56.081 106.56 55.7344 105.63L145.028 98.4561Z" fill="white"/>
<circle cx="158" cy="270" r="4" fill="white"/>
<defs>
<filter id="filter0_f_9_533" x="27.788" y="85" width="148.21" height="288.304" filterUnits="userSpaceOnUse" color-interpolation-filters="sRGB">
<feFlood flood-opacity="0" result="BackgroundImageFix"/>
<feBlend mode="normal" in="SourceGraphic" in2="BackgroundImageFix" result="shape"/>
<feGaussianBlur stdDeviation="5" result="effect1_foregroundBlur_9_533"/>
</filter>
</defs>
</svg>
