<svg width="160" height="314" viewBox="0 0 160 314" fill="none" xmlns="http://www.w3.org/2000/svg">
<g opacity="0.2">
<path d="M149.718 192.71L125.959 197.613C128.599 202.39 133.276 213.151 130.862 217.978C127.845 224.012 130.862 240.982 130.862 247.393V273.415L133.879 313.39H136.896C137.776 313.139 140.215 311.052 142.93 304.716C145.645 298.381 146.324 287.243 146.324 282.466C146.073 278.569 146.4 268.286 149.718 258.33C153.037 248.374 151.101 210.435 149.718 192.71Z" fill="white"/>
<path d="M0.356255 224.389C-1.15224 216.846 2.49329 187.305 4.50462 173.477L13.9328 179.888L10.9158 310.373C7.39595 308.236 0.733391 301.02 2.24194 289.254C4.12762 274.546 2.24188 233.817 0.356255 224.389Z" fill="white"/>
<path d="M14.3307 113.514C11.1506 118.429 4.25395 148.437 0.807595 164.65C0.5458 165.882 1.08247 167.135 2.14654 167.808L17.396 177.456C18.3005 178.028 18.8341 179.037 18.7983 180.107L14.4352 310.272C14.378 311.977 15.7446 313.39 17.4505 313.39H128.996C130.795 313.39 132.195 311.825 131.994 310.037L119.967 202.884C119.939 202.639 119.942 202.392 119.974 202.148L123.697 174.231V193.171C123.697 195.077 125.443 196.506 127.311 196.128L156.414 190.246C157.957 189.934 159.001 188.489 158.812 186.926L150.947 121.866C150.883 121.336 150.68 120.833 150.358 120.407L140.689 107.63C140.426 107.283 140.092 106.997 139.708 106.791L105.586 88.4988C104.461 87.8956 103.078 88.0659 102.132 88.9241L77.1933 111.566C75.9946 112.655 74.1506 112.603 73.015 111.449L53.2335 91.3482C52.3023 90.402 50.8665 90.172 49.694 90.7946C38.0859 96.9575 17.4629 108.674 14.3307 113.514Z" fill="white"/>
<path d="M74.2302 106.343C72.9256 106.015 61.727 95.2883 56.2908 89.9656L59.5526 83.0053V70.313C55.9647 67.6926 54.5241 60.4865 54.2523 57.2109C49.7675 57.2109 46.9135 44.1093 46.098 40.8338C45.4457 38.2134 48.5443 37.8313 50.1751 37.9678V23.2282C47.8919 20.9353 47.8648 17.0865 48.1366 15.4487C66.4837 -11.9833 90.9465 4.39401 98.6931 9.71665C106.44 15.0393 102.77 36.3298 105.216 35.9204C107.663 35.511 105.624 47.794 103.993 51.8883C102.689 55.1638 99.9162 56.8015 98.6931 57.2109V62.943C96.6545 82.5958 104.401 79.7298 101.955 83.0053C99.5085 86.2807 75.8611 106.752 74.2302 106.343Z" fill="white"/>
</g>
<g filter="url(#filter0_f_9_533)">
<path d="M53.0872 158.717L43.6963 147.064L29.8419 152.188L37.8924 139.861L28.5015 128.207L42.8679 132.243L50.9184 119.917L51.7468 134.737L66.1132 138.773L52.2588 143.897L53.0872 158.717Z" fill="white"/>
<path d="M111.355 170.916L102.395 171.826L100.432 180.495L96.858 172.389L87.8986 173.3L94.6494 167.379L91.0758 159.274L98.8217 163.721L105.573 157.8L103.609 166.469L111.355 170.916Z" fill="white"/>
<path d="M84.202 264.443L75.2425 265.353L73.2788 274.022L69.7052 265.916L60.7457 266.826L67.4966 260.906L63.923 252.8L71.6688 257.247L78.4197 251.327L76.4561 259.996L84.202 264.443Z" fill="white"/>
<path d="M125.203 248.021L116.205 247.658L113.038 255.963L110.644 247.434L101.646 247.071L109.164 242.163L106.77 233.634L113.811 239.129L121.33 234.221L118.163 242.526L125.203 248.021Z" fill="white"/>
<circle cx="117.663" cy="74.6706" r="3.01699" fill="white"/>
<circle cx="35.4496" cy="82.213" r="3.01699" fill="white"/>
<circle cx="55.8144" cy="220.24" r="3.01699" fill="white"/>
<path d="M74.0269 261.294L72.981 261.724L71.9341 262.154L57.7651 227.625C58.4904 227.369 59.1653 227.007 59.772 226.557L74.0269 261.294ZM116.387 211.159C117.076 211.361 117.804 211.472 118.558 211.472C118.582 211.472 118.605 211.47 118.628 211.47L114.913 242.523L112.667 242.253L116.387 211.159ZM115.565 82.3501C116.046 82.4442 116.542 82.4956 117.05 82.4956C117.324 82.4956 117.594 82.4795 117.86 82.4517L99.4185 166.136L115.858 196.593C115.142 196.862 114.477 197.235 113.88 197.694L98.0415 168.35L60.8062 215.128C60.2894 214.577 59.6925 214.103 59.0337 213.723L97.1743 165.806L115.565 82.3501ZM45.9097 142.583L44.7925 142.766L43.6763 142.95L34.9702 90.0347C35.7479 90.0214 36.4967 89.8925 37.2017 89.6646L45.9097 142.583ZM109.387 74.2603C109.374 74.4425 109.366 74.6265 109.366 74.812C109.366 75.3978 109.434 75.9678 109.558 76.5161L42.5054 81.9028C42.4601 81.1216 42.2992 80.3719 42.0376 79.6704L109.387 74.2603Z" fill="white"/>
<circle cx="119.171" cy="203.647" r="3.01699" fill="white"/>
</g>
<path d="M53.0872 158.717L43.6963 147.064L29.8419 152.188L37.8924 139.861L28.5015 128.207L42.8679 132.243L50.9184 119.917L51.7468 134.737L66.1132 138.773L52.2588 143.897L53.0872 158.717Z" fill="white"/>
<path d="M111.355 170.916L102.395 171.826L100.432 180.495L96.858 172.389L87.8986 173.3L94.6494 167.379L91.0758 159.274L98.8217 163.721L105.573 157.8L103.609 166.469L111.355 170.916Z" fill="white"/>
<path d="M84.202 264.443L75.2425 265.353L73.2788 274.022L69.7052 265.916L60.7457 266.826L67.4966 260.906L63.923 252.8L71.6688 257.247L78.4197 251.327L76.4561 259.996L84.202 264.443Z" fill="white"/>
<path d="M125.203 248.021L116.205 247.658L113.038 255.963L110.644 247.434L101.646 247.071L109.164 242.163L106.77 233.634L113.811 239.129L121.33 234.221L118.163 242.526L125.203 248.021Z" fill="white"/>
<circle cx="117.663" cy="74.6706" r="3.01699" fill="white"/>
<circle cx="35.4496" cy="82.213" r="3.01699" fill="white"/>
<circle cx="55.8144" cy="220.24" r="3.01699" fill="white"/>
<path d="M74.0269 261.294L72.981 261.724L71.9341 262.154L57.7651 227.625C58.4904 227.369 59.1653 227.007 59.772 226.557L74.0269 261.294ZM116.387 211.159C117.076 211.361 117.804 211.472 118.558 211.472C118.582 211.472 118.605 211.47 118.628 211.47L114.913 242.523L112.667 242.253L116.387 211.159ZM115.565 82.3501C116.046 82.4442 116.542 82.4956 117.05 82.4956C117.324 82.4956 117.594 82.4795 117.86 82.4517L99.4185 166.136L115.858 196.593C115.142 196.862 114.477 197.235 113.88 197.694L98.0415 168.35L60.8062 215.128C60.2894 214.577 59.6925 214.103 59.0337 213.723L97.1743 165.806L115.565 82.3501ZM45.9097 142.583L44.7925 142.766L43.6763 142.95L34.9702 90.0347C35.7479 90.0214 36.4967 89.8925 37.2017 89.6646L45.9097 142.583ZM109.387 74.2603C109.374 74.4425 109.366 74.6265 109.366 74.812C109.366 75.3978 109.434 75.9678 109.558 76.5161L42.5054 81.9028C42.4601 81.1216 42.2992 80.3719 42.0376 79.6704L109.387 74.2603Z" fill="white"/>
<circle cx="119.171" cy="203.647" r="3.01699" fill="white"/>
<defs>
<filter id="filter0_f_9_533" x="20.959" y="64.1111" width="111.787" height="217.453" filterUnits="userSpaceOnUse" color-interpolation-filters="sRGB">
<feFlood flood-opacity="0" result="BackgroundImageFix"/>
<feBlend mode="normal" in="SourceGraphic" in2="BackgroundImageFix" result="shape"/>
<feGaussianBlur stdDeviation="3.77124" result="effect1_foregroundBlur_9_533"/>
</filter>
</defs>
</svg>
