<svg width="327" height="240" viewBox="0 0 327 240" fill="none" xmlns="http://www.w3.org/2000/svg">
<path opacity="0.2" d="M236.046 175.276C219.061 174.035 204.247 187.53 202.929 205.369C201.649 223.207 214.368 238.68 231.354 239.921C248.339 241.162 263.152 227.667 264.471 209.828C265.751 191.99 253.031 176.517 236.046 175.276ZM232.711 221.19C225.227 220.647 219.565 214.133 220.108 206.609C220.651 199.125 227.165 193.463 234.689 194.006C242.173 194.549 247.835 201.064 247.292 208.587C246.749 216.072 240.234 221.733 232.711 221.19Z" fill="white"/>
<g opacity="0.2">
<path d="M132.803 28.4746C131.136 30.0258 129.352 31.4218 127.49 32.7015" stroke="white" stroke-width="15" stroke-miterlimit="10"/>
<path d="M120.432 13.7417C118.532 15.7582 116.438 17.6196 114.188 19.2483" stroke="white" stroke-width="15" stroke-miterlimit="10"/>
<path d="M64.6558 16.8391C67.2152 18.8556 69.7358 20.9497 72.1789 23.1601" stroke="white" stroke-width="15" stroke-miterlimit="10"/>
<path d="M79.6194 5.55933C81.9074 8.00241 83.8463 10.7557 85.3975 13.7417" stroke="white" stroke-width="15" stroke-miterlimit="10"/>
<path d="M94.0749 175.276C77.0897 174.035 62.2761 187.53 60.9576 205.369C59.6779 223.207 72.3974 238.68 89.3827 239.921C106.368 241.162 121.182 227.667 122.5 209.828C123.78 191.99 111.06 176.517 94.0749 175.276ZM90.7399 221.19C83.2556 220.647 77.5938 214.133 78.1367 206.609C78.6796 199.125 85.1945 193.463 92.7177 194.006C100.202 194.549 105.864 201.064 105.321 208.587C104.778 216.11 98.2631 221.733 90.7399 221.19Z" fill="white"/>
<path d="M116.102 43.6987C114.047 45.9479 111.138 47.344 108.113 47.7705C106.136 48.042 104.158 47.9644 102.18 48.1195C101.909 48.1583 101.637 48.1583 101.366 48.1971L102.762 55.3712L81.4721 55.6815L81.7824 51.4158C81.666 51.377 81.5497 51.2994 81.4333 51.2606C80.3475 50.7565 79.4556 49.9809 78.5637 49.2054C75.6165 46.6459 72.5529 43.6599 72.2039 39.782C72.0488 37.8431 72.6305 35.9041 73.3673 34.0815C75.2287 29.5444 78.2535 25.4725 82.0538 22.3314C82.8682 21.6722 83.7213 21.0517 84.652 20.6639C85.8929 20.1598 87.2502 20.121 88.6075 20.0823C91.2832 20.0047 93.959 19.8884 96.596 20.2374C101.056 20.8191 105.244 22.6805 109.199 24.8133C111.332 25.9767 113.465 27.2564 115.21 28.9627C116.955 30.6689 118.351 32.8406 118.739 35.2449C119.243 38.2696 118.157 41.4495 116.102 43.6987Z" fill="white"/>
<path d="M318.684 203.973C318.063 202.189 317.055 200.56 315.698 199.164C315 198.427 314.185 197.729 313.332 197.186L308.524 194.006L308.834 115.75L170.974 121.916C172.332 155.964 173.65 184.738 174.154 186.949C174.115 186.871 174.115 186.793 174.077 186.755L172.487 187.453L170.897 188.151C170.586 187.453 170.005 186.173 167.329 118.155C166.282 91.1643 165.274 64.0965 164.925 54.4792C147.668 54.7119 75.7328 55.759 55.1023 55.9916C61.5397 112.842 41.0255 133.976 40.1724 134.674L39.5519 135.179L12.5229 137.738C12.4066 150.923 12.2127 195.015 13.027 199.048L4.9222 202.072C4.1854 202.344 3.48737 202.732 2.86691 203.236C0.617722 205.058 -0.312976 208.083 0.501385 210.875L0.617722 211.224C1.35452 213.823 3.52615 215.761 6.16313 216.304C11.631 217.39 17.2152 217.739 22.7606 217.429C31.2144 216.925 42.2665 216.149 53.5512 215.374C52.6593 211.457 52.3103 207.385 52.6205 203.197C54.2492 180.589 73.9102 163.604 96.4796 165.232C119.088 166.861 136.073 186.522 134.444 209.091C134.406 209.751 134.328 210.41 134.25 211.069L165.584 210.1L193.427 210.294C193.195 207.928 193.156 205.563 193.311 203.119C194.94 180.511 214.601 163.526 237.17 165.155C259.778 166.783 276.764 186.444 275.135 209.014C275.096 209.634 275.019 210.255 274.941 210.875L317.714 211.186C318.645 211.186 319.382 210.488 319.459 209.557C319.576 207.657 319.343 205.756 318.684 203.973ZM117.924 128.819C117.924 128.819 116.955 121.179 116.761 120.016L136.616 117.224L137.896 125.91L117.924 128.819Z" fill="white"/>
<path d="M258.693 111.446H258.965H259.003L282.387 110.244C282.232 110.244 279.207 91.7072 279.13 91.3582L256.483 91.9398L258.693 111.446Z" fill="white"/>
<path d="M169.656 87.4801C181.6 87.4413 286.885 87.0923 308.95 87.0923L308.989 73.5972L169.113 73.3645C169.307 77.9792 169.501 82.7103 169.656 87.4801Z" fill="white"/>
<path d="M195.405 114.664L217.238 113.578L216.307 92.948L193.854 93.5297L195.405 114.664Z" fill="white"/>
<path d="M290.646 109.856L302.978 109.235L299.721 90.854L286.807 91.1642L290.646 109.856Z" fill="white"/>
<path d="M222.009 92.8314L223.831 113.229L247.564 112.027L246.168 92.2109H246.013L222.009 92.8314Z" fill="white"/>
<path d="M186.836 93.7229H186.719L169.889 94.1495C170.161 101.44 170.432 108.769 170.742 115.905L187.844 115.051L186.836 93.7229Z" fill="white"/>
<path d="M37.5749 130.292C38.9322 128.935 42.7326 124.553 45.9124 115.789C49.3638 106.249 53.0478 85.7349 50.4108 59.0549C43.5081 71.852 18.4181 121.644 13.4543 132.154L37.5749 130.292Z" fill="white"/>
</g>
<g filter="url(#filter0_f_92_9242)">
<path fill-rule="evenodd" clip-rule="evenodd" d="M38.4994 92.8463L96.5575 87.7979C96.7963 88.8738 97.2797 89.8578 97.9462 90.6884L40.4459 95.6883L47.8639 130.924C46.8256 131.035 45.8544 131.37 44.9995 131.881L37.1615 94.6496L36.8127 92.9929L38.4994 92.8463ZM105.302 99.6179L104.014 93.3239C105.055 93.2461 106.033 92.9435 106.901 92.4645L108.308 99.343C107.973 99.2776 107.627 99.2432 107.273 99.2432C106.577 99.2432 105.912 99.3761 105.302 99.6179ZM107.415 109.951L109.271 119.022L52.9079 132.321C53.8017 132.999 54.5296 133.884 55.0203 134.905L111.376 121.607L112.793 121.273L112.501 119.847L110.288 109.025C109.466 109.586 108.479 109.924 107.415 109.951ZM111.327 108.098C118.787 112.155 131.186 118.303 142.539 123.826C149.543 127.233 156.176 130.416 161.058 132.747C163.499 133.912 165.502 134.865 166.896 135.526C167.592 135.857 168.136 136.115 168.507 136.29L168.928 136.49L169.036 136.541L169.064 136.554L169.071 136.557L169.072 136.558C169.073 136.558 169.073 136.558 169.714 135.202L169.073 136.558L169.394 136.71L169.75 136.701L308.415 133.347L308.342 130.348L170.033 133.693L169.79 133.578C169.421 133.404 168.878 133.146 168.182 132.816C166.79 132.156 164.789 131.204 162.35 130.04C157.473 127.711 150.847 124.531 143.852 121.129C132.335 115.526 119.891 109.352 112.574 105.362C112.426 106.4 111.98 107.342 111.327 108.098Z" fill="white"/>
<circle cx="48.8251" cy="135.591" r="3.19253" fill="white"/>
<circle cx="107.63" cy="104.899" r="3.19253" fill="white"/>
<circle cx="102.597" cy="88.4484" r="3.19253" fill="white"/>
<path d="M290.597 127.775L300.507 126.57L302.423 116.773L306.632 125.825L316.541 124.62L309.232 131.42L313.441 140.473L304.715 135.623L297.406 142.422L299.323 132.625L290.597 127.775Z" fill="white"/>
<path d="M152.952 137.533L164.76 130.856L162.058 117.563L172.057 126.73L183.865 120.053L178.237 132.395L188.236 141.561L174.759 140.023L169.131 152.365L166.429 139.072L152.952 137.533Z" fill="white"/>
<path d="M22.4644 92.1913L35.5179 90.604L38.042 77.6989L43.5853 89.623L56.6388 88.0357L47.0113 96.9925L52.5547 108.917L41.0612 102.528L31.4337 111.485L33.9579 98.5798L22.4644 92.1913Z" fill="white"/>
</g>
<path fill-rule="evenodd" clip-rule="evenodd" d="M38.4994 92.8463L96.5575 87.7979C96.7963 88.8738 97.2797 89.8578 97.9462 90.6884L40.4459 95.6883L47.8639 130.924C46.8256 131.035 45.8544 131.37 44.9995 131.881L37.1615 94.6496L36.8127 92.9929L38.4994 92.8463ZM105.302 99.6179L104.014 93.3239C105.055 93.2461 106.033 92.9435 106.901 92.4645L108.308 99.343C107.973 99.2776 107.627 99.2432 107.273 99.2432C106.577 99.2432 105.912 99.3761 105.302 99.6179ZM107.415 109.951L109.271 119.022L52.9079 132.321C53.8017 132.999 54.5296 133.884 55.0203 134.905L111.376 121.607L112.793 121.273L112.501 119.847L110.288 109.025C109.466 109.586 108.479 109.924 107.415 109.951ZM111.327 108.098C118.787 112.155 131.186 118.303 142.539 123.826C149.543 127.233 156.176 130.416 161.058 132.747C163.499 133.912 165.502 134.865 166.896 135.526C167.592 135.857 168.136 136.115 168.507 136.29L168.928 136.49L169.036 136.541L169.064 136.554L169.071 136.557L169.072 136.558C169.073 136.558 169.073 136.558 169.714 135.202L169.073 136.558L169.394 136.71L169.75 136.701L308.415 133.347L308.342 130.348L170.033 133.693L169.79 133.578C169.421 133.404 168.878 133.146 168.182 132.816C166.79 132.156 164.789 131.204 162.35 130.04C157.473 127.711 150.847 124.531 143.852 121.129C132.335 115.526 119.891 109.352 112.574 105.362C112.426 106.4 111.98 107.342 111.327 108.098Z" fill="white"/>
<circle cx="48.8251" cy="135.591" r="3.19253" fill="white"/>
<circle cx="107.63" cy="104.899" r="3.19253" fill="white"/>
<circle cx="102.597" cy="88.4484" r="3.19253" fill="white"/>
<path d="M290.597 127.775L300.507 126.57L302.423 116.773L306.632 125.825L316.541 124.62L309.232 131.42L313.441 140.473L304.715 135.623L297.406 142.422L299.323 132.625L290.597 127.775Z" fill="white"/>
<path d="M152.952 137.533L164.76 130.856L162.058 117.563L172.057 126.73L183.865 120.053L178.237 132.395L188.236 141.561L174.759 140.023L169.131 152.365L166.429 139.072L152.952 137.533Z" fill="white"/>
<path d="M22.4644 92.1913L35.5179 90.604L38.042 77.6989L43.5853 89.623L56.6388 88.0357L47.0113 96.9925L52.5547 108.917L41.0612 102.528L31.4337 111.485L33.9579 98.5798L22.4644 92.1913Z" fill="white"/>
<defs>
<filter id="filter0_f_92_9242" x="12.4644" y="67.699" width="314.077" height="94.6658" filterUnits="userSpaceOnUse" color-interpolation-filters="sRGB">
<feFlood flood-opacity="0" result="BackgroundImageFix"/>
<feBlend mode="normal" in="SourceGraphic" in2="BackgroundImageFix" result="shape"/>
<feGaussianBlur stdDeviation="5" result="effect1_foregroundBlur_92_9242"/>
</filter>
</defs>
</svg>
