<svg width="291" height="270" viewBox="0 0 291 270" fill="none" xmlns="http://www.w3.org/2000/svg">
<g opacity="0.2">
<path d="M196.145 46.3636C180.06 77.6275 154.351 109.726 129.473 136.526L144.478 185.928C146.97 183.632 149.866 181.749 153.125 180.4C169.768 173.507 189.561 183.132 197.332 201.897C205.103 220.661 197.91 241.461 181.266 248.354C164.623 255.246 144.831 245.622 137.06 226.858C134.719 221.206 133.737 215.369 133.96 209.783C128.638 196.154 121.568 175.566 114.952 151.695C99.101 167.762 84.4949 181.027 74.089 189.752C70.4376 194.871 65.3718 199.285 59.1442 202.365C40.9392 211.37 19.7062 205.58 11.7192 189.433C3.73223 173.286 12.016 152.896 30.2211 143.891C48.4261 134.886 69.6586 140.676 77.6455 156.823C78.2996 158.145 78.844 159.496 79.2833 160.867L109.601 131.161C101.277 97.0249 94.8722 58.8035 95.7254 25.4122L123.66 117.385L196.145 46.3636ZM65.3879 162.886C60.371 152.743 47.034 149.106 35.5986 154.763C24.1633 160.419 18.9599 173.227 23.9768 183.37C28.9938 193.512 42.3315 197.149 53.7669 191.493C65.202 185.836 70.4047 173.029 65.3879 162.886ZM187.148 206.114C182.002 193.69 168.899 187.318 157.879 191.882C146.86 196.445 142.098 210.216 147.243 222.64C152.388 235.063 165.492 241.435 176.512 236.872C187.531 232.309 192.293 218.538 187.148 206.114ZM122.06 127.161C119.25 126.105 116.115 127.527 115.059 130.338C114.003 133.148 115.426 136.283 118.236 137.339C121.047 138.395 124.181 136.972 125.237 134.162C126.293 131.351 124.871 128.217 122.06 127.161Z" fill="white"/>
<path d="M107.007 212.364C108.37 210.719 110.81 210.489 112.455 211.853L130.077 226.462C130.403 227.414 130.762 228.362 131.152 229.305C134.705 237.884 140.575 244.971 147.659 249.83L136.144 263.894C130.669 270.58 120.777 271.481 114.184 265.894L79.8894 236.828L79.6462 236.621L79.8103 236.347C80.8256 234.655 82.9866 232.769 86.1726 232.589C89.3597 232.409 93.481 233.942 98.4158 238.879C101.48 241.946 104.158 244.712 106.572 247.016C108.987 249.32 111.113 251.136 113.064 252.303C115.014 253.469 116.75 253.963 118.4 253.689C119.646 253.482 120.888 252.828 122.169 251.614L96.9109 230.674C95.2658 229.31 95.0383 226.87 96.4021 225.225C97.7659 223.58 100.204 223.353 101.849 224.716L127.167 245.705C128.677 243.869 130.584 241.548 132.839 238.806L107.515 217.811C105.871 216.447 105.643 214.008 107.007 212.364ZM145.744 217.798C146.086 219.419 146.583 221.041 147.245 222.64L147.492 223.218C150.007 228.925 154.221 233.298 159.113 235.842L151.719 244.872C146.699 241.553 142.318 236.889 139.133 231.15C140.494 229.494 141.927 227.751 143.427 225.927L134.611 218.619C134.057 215.647 133.846 212.682 133.962 209.783C133.636 208.95 133.304 208.09 132.966 207.204L145.744 217.798ZM160.685 197.649C167.76 194.977 177.23 198.879 181.24 208.561C181.264 208.618 181.286 208.677 181.309 208.735L163.292 230.739C159.139 229.022 155.336 225.464 153.153 220.193C152.527 218.681 152.095 217.174 151.838 215.697C152.439 214.965 153.047 214.226 153.662 213.479L151.554 211.732C151.654 208.707 152.484 205.914 153.852 203.586L158.576 207.502C160.42 205.259 162.313 202.956 164.248 200.602L160.685 197.649ZM117.607 199.497C118.971 197.852 121.41 197.625 123.055 198.989L123.156 199.073C124.697 203.404 126.168 207.368 127.537 210.908C127.531 211.529 127.541 212.151 127.56 212.775L118.117 204.947C116.472 203.583 116.243 201.142 117.607 199.497ZM128.284 187.414C129.648 185.769 132.087 185.542 133.732 186.906L148.866 199.451C147.413 201.689 146.363 204.226 145.762 206.93L128.794 192.864C127.149 191.5 126.92 189.059 128.284 187.414ZM162.51 178.23C168.03 177.885 173.586 179.085 178.687 181.592L179.394 182.178C179.438 182.125 179.481 182.071 179.525 182.018C184.787 184.779 189.523 188.945 193.176 194.242L185.779 203.277C182.536 197.432 177.422 193.27 171.777 191.443C172.672 190.355 173.574 189.259 174.481 188.155L162.51 178.23ZM164.119 190.443C162.011 190.572 159.91 191.042 157.881 191.882L157.369 192.103C156.651 192.424 155.962 192.786 155.301 193.184L145.482 185.045C147.541 183.313 149.85 181.851 152.388 180.718L164.119 190.443ZM249.883 29.2356L284.726 58.218C291.256 63.649 292.183 73.3305 286.802 79.9016L197.359 189.134C193.576 184.099 188.879 179.967 183.655 176.995L186.13 173.987L162.163 154.116C160.518 152.753 160.289 150.314 161.652 148.669C163.016 147.024 165.455 146.796 167.1 148.159L191.043 168.008L198.834 158.53L175.741 139.385C174.096 138.021 173.869 135.583 175.232 133.938C176.596 132.293 179.035 132.063 180.68 133.427L203.747 152.552L212.241 142.22L188.312 122.383C186.667 121.019 186.439 118.579 187.802 116.934C189.166 115.289 191.605 115.062 193.25 116.425L217.153 136.241L224.94 126.768L200.176 106.238C198.53 104.874 198.302 102.434 199.666 100.789C201.03 99.1442 203.469 98.9167 205.114 100.281L229.853 120.79L235.525 113.89L210.776 93.3723C209.132 92.0086 208.904 89.57 210.267 87.925C211.631 86.28 214.07 86.0516 215.716 87.4153L240.438 107.912L245.052 102.3C245.019 102.275 244.985 102.25 244.953 102.223L219.032 80.7336C217.387 79.3699 217.159 76.9305 218.522 75.2854C219.886 73.6407 222.325 73.412 223.97 74.7756L249.892 96.2649C249.916 96.2847 249.938 96.3062 249.962 96.3264L255.636 89.4231C255.609 89.4015 255.581 89.3791 255.553 89.3567L229.633 67.8684C227.988 66.5045 227.76 64.0651 229.124 62.4202C230.488 60.7753 232.926 60.5477 234.571 61.9114L260.493 83.4006C260.511 83.416 260.529 83.4319 260.548 83.4475L265.869 76.9749L240.309 55.7864C238.664 54.4226 238.436 51.9823 239.8 50.3372C241.163 48.692 243.604 48.4646 245.249 49.8284L270.782 70.9963L271.453 70.1799L271.474 70.1536L271.501 70.1311C272.922 68.9297 273.977 66.2831 272.037 62.2112C270.087 58.12 265.123 52.638 254.564 45.9436C252.786 45.1535 250.414 43.3919 249.009 40.6389C247.586 37.8519 247.173 34.0874 249.297 29.3704L249.501 28.9182L249.883 29.2356ZM143.783 183.635L139.395 179.998C137.75 178.634 137.523 176.195 138.886 174.55C139.37 173.967 139.987 173.562 140.657 173.343L143.783 183.635ZM148.704 161.76C150.068 160.115 152.507 159.887 154.152 161.251L166.923 171.838C163.282 171.586 159.587 171.878 155.927 172.774L149.215 167.208C147.57 165.845 147.34 163.405 148.704 161.76Z" fill="white"/>
</g>
<g filter="url(#filter0_f_8_244)">
<path d="M108.819 24.7791L111.105 42.7895L128.94 46.1809L112.518 53.9206L114.804 71.931L102.368 58.704L85.9454 66.4437L94.6821 50.5293L82.2464 37.3022L100.082 40.6936L108.819 24.7791Z" fill="white"/>
<path d="M205.61 60.9019L193.979 58.9636L188.541 69.4264L186.79 57.7656L175.159 55.8273L185.708 50.5589L183.957 38.8981L192.228 47.3028L202.777 42.0343L197.339 52.4972L205.61 60.9019Z" fill="white"/>
<path d="M55.3898 214.236L44.9346 208.783L36.5183 217.042L38.4729 205.414L28.0177 199.961L39.681 198.227L41.6356 186.598L46.8893 197.155L58.5525 195.421L50.1362 203.679L55.3898 214.236Z" fill="white"/>
<path d="M254.31 67.3704L249.583 85.9075L265.752 96.1314L246.662 97.3641L241.935 115.901L234.863 98.1259L215.772 99.3586L230.493 87.1402L223.421 69.3649L239.59 79.5888L254.31 67.3704Z" fill="white"/>
<circle cx="120.356" cy="126.346" r="3.75018" fill="white"/>
<path d="M242.574 88.6077L149.867 232.012C149.329 231.48 148.713 231.027 148.038 230.672L240.673 87.3792L242.574 88.6077ZM144.5 229.792C144.489 229.792 144.478 229.792 144.467 229.792C143.698 229.792 142.954 229.907 142.253 230.117L120.152 134.281C120.211 134.282 120.271 134.285 120.331 134.285C121.051 134.285 121.748 134.184 122.409 133.998L144.5 229.792ZM113.412 129.948C113.75 130.646 114.193 131.283 114.716 131.844L41.7944 204.947L40.1929 203.349L113.412 129.948ZM194.483 50.2815L195.285 51.0803L125.56 120.974C124.998 120.451 124.359 120.011 123.66 119.674L193.682 49.4817L194.483 50.2815ZM118.958 119.042C118.196 119.18 117.473 119.429 116.806 119.774L99.1001 42.9924L100.203 42.7385L101.304 42.4846L118.958 119.042Z" fill="white"/>
<circle cx="144.492" cy="237.22" r="3.75018" fill="white"/>
</g>
<path d="M108.819 24.7791L111.105 42.7895L128.94 46.1809L112.518 53.9206L114.804 71.931L102.368 58.704L85.9454 66.4437L94.6821 50.5293L82.2464 37.3022L100.082 40.6936L108.819 24.7791Z" fill="white"/>
<path d="M205.61 60.9019L193.979 58.9636L188.541 69.4264L186.79 57.7656L175.159 55.8273L185.708 50.5589L183.957 38.8981L192.228 47.3028L202.777 42.0343L197.339 52.4972L205.61 60.9019Z" fill="white"/>
<path d="M55.3898 214.236L44.9346 208.783L36.5183 217.042L38.4729 205.414L28.0177 199.961L39.681 198.227L41.6356 186.598L46.8893 197.155L58.5525 195.421L50.1362 203.679L55.3898 214.236Z" fill="white"/>
<path d="M254.31 67.3704L249.583 85.9075L265.752 96.1314L246.662 97.3641L241.935 115.901L234.863 98.1259L215.772 99.3586L230.493 87.1402L223.421 69.3649L239.59 79.5888L254.31 67.3704Z" fill="white"/>
<circle cx="120.356" cy="126.346" r="3.75018" fill="white"/>
<path d="M239.361 91.01L240.312 91.6233L149.859 232.004C149.32 231.473 148.704 231.022 148.028 230.668L238.41 90.3977L239.361 91.01ZM144.5 229.792C144.489 229.792 144.478 229.792 144.467 229.792C143.698 229.792 142.954 229.907 142.253 230.117L120.152 134.281C120.211 134.282 120.271 134.285 120.331 134.285C121.051 134.285 121.748 134.184 122.409 133.998L144.5 229.792ZM113.412 129.948C113.75 130.646 114.193 131.283 114.716 131.844L41.7944 204.947L40.1929 203.349L113.412 129.948ZM194.483 50.2815L195.285 51.0803L125.56 120.974C124.998 120.451 124.359 120.011 123.66 119.674L193.682 49.4817L194.483 50.2815ZM118.958 119.042C118.196 119.18 117.473 119.429 116.806 119.774L99.1001 42.9924L100.203 42.7385L101.304 42.4846L118.958 119.042Z" fill="white"/>
<circle cx="144.492" cy="237.22" r="3.75018" fill="white"/>
<defs>
<filter id="filter0_f_8_244" x="20.4753" y="17.2366" width="252.819" height="231.277" filterUnits="userSpaceOnUse" color-interpolation-filters="sRGB">
<feFlood flood-opacity="0" result="BackgroundImageFix"/>
<feBlend mode="normal" in="SourceGraphic" in2="BackgroundImageFix" result="shape"/>
<feGaussianBlur stdDeviation="3.77124" result="effect1_foregroundBlur_8_244"/>
</filter>
</defs>
</svg>
