<svg width="385" height="358" viewBox="0 0 385 358" fill="none" xmlns="http://www.w3.org/2000/svg">
<g opacity="0.2">
<path d="M260.053 61.4699C238.728 102.92 204.643 145.477 171.659 181.009L191.552 246.507C194.857 243.463 198.696 240.968 203.016 239.178C225.083 230.04 251.324 242.8 261.627 267.679C271.93 292.558 262.394 320.135 240.327 329.273C218.261 338.411 192.02 325.651 181.717 300.773C178.614 293.279 177.311 285.541 177.608 278.136C170.552 260.066 161.178 232.77 152.406 201.121C131.39 222.423 112.025 240.009 98.229 251.578C93.3879 258.365 86.6715 264.216 78.4148 268.3C54.2782 280.239 26.1269 272.562 15.5376 251.154C4.94833 229.746 15.9311 202.713 40.0678 190.774C64.2045 178.835 92.355 186.511 102.944 207.919C103.812 209.673 104.533 211.464 105.116 213.281L145.312 173.897C134.276 128.638 125.784 77.963 126.915 33.6921L163.952 155.632L260.053 61.4699ZM86.6929 215.958C80.0413 202.511 62.3588 197.689 47.1975 205.188C32.0363 212.687 25.1375 229.668 31.789 243.116C38.4407 256.563 56.1241 261.385 71.2854 253.885C86.4464 246.386 93.3443 229.405 86.6929 215.958ZM248.125 273.271C241.303 256.799 223.93 248.351 209.32 254.401C194.711 260.452 188.397 278.71 195.219 295.181C202.04 311.653 219.414 320.101 234.023 314.051C248.633 308 254.946 289.742 248.125 273.271ZM161.83 168.593C158.104 167.193 153.948 169.079 152.548 172.805C151.148 176.531 153.034 180.687 156.76 182.087C160.487 183.487 164.642 181.601 166.042 177.875C167.443 174.149 165.557 169.993 161.83 168.593Z" fill="white"/>
<path d="M141.871 281.556C143.68 279.375 146.914 279.073 149.095 280.881L172.461 300.251C172.893 301.512 173.367 302.768 173.884 304.017C178.595 315.391 186.377 324.791 195.769 331.233L180.504 349.876C173.245 358.741 160.13 359.936 151.389 352.528L105.92 313.994L105.597 313.719L105.815 313.354C107.161 311.11 110.026 308.611 114.25 308.373C118.476 308.134 123.939 310.165 130.482 316.711C134.545 320.777 138.094 324.445 141.295 327.5C144.497 330.555 147.316 332.962 149.904 334.509C152.489 336.055 154.79 336.71 156.978 336.347C158.63 336.073 160.277 335.207 161.976 333.596L128.487 305.833C126.306 304.025 126.003 300.791 127.811 298.61C129.619 296.429 132.853 296.126 135.034 297.934L168.602 325.762C170.605 323.327 173.135 320.25 176.124 316.615L142.546 288.779C140.366 286.971 140.064 283.737 141.871 281.556ZM193.231 288.76C193.684 290.91 194.342 293.061 195.22 295.181L195.548 295.948C198.883 303.515 204.47 309.313 210.956 312.685L201.153 324.658C194.499 320.258 188.692 314.076 184.468 306.468C186.273 304.273 188.173 301.963 190.161 299.544L178.468 289.85C177.733 285.91 177.456 281.978 177.61 278.136C177.178 277.03 176.737 275.889 176.288 274.715L193.231 288.76ZM213.041 262.047C222.421 258.505 234.976 263.678 240.292 276.515C240.324 276.592 240.353 276.669 240.384 276.746L216.497 305.918C210.991 303.643 205.949 298.927 203.054 291.937C202.224 289.934 201.653 287.938 201.312 285.98C202.109 285.01 202.916 284.029 203.731 283.038L200.936 280.72C201.068 276.709 202.166 273.005 203.982 269.917L210.246 275.112C212.691 272.138 215.2 269.085 217.766 265.964L213.041 262.047ZM155.927 264.499C157.735 262.318 160.969 262.016 163.15 263.824L163.283 263.935C165.327 269.678 167.278 274.933 169.092 279.627C169.084 280.449 169.094 281.274 169.12 282.1L156.603 271.722C154.422 269.914 154.119 266.68 155.927 264.499ZM170.082 248.479C171.89 246.298 175.125 245.995 177.306 247.803L197.37 264.437C195.443 267.404 194.053 270.768 193.256 274.354L170.757 255.703C168.576 253.894 168.274 250.66 170.082 248.479ZM215.459 236.302C222.781 235.844 230.151 237.437 236.916 240.763L237.847 241.535C237.904 241.465 237.961 241.395 238.019 241.325C244.996 244.986 251.275 250.508 256.117 257.532L246.311 269.507C242.011 261.759 235.231 256.242 227.747 253.82C228.933 252.377 230.128 250.925 231.331 249.461L215.459 236.302ZM217.595 252.495C214.799 252.666 212.013 253.286 209.322 254.401L208.643 254.694C207.691 255.12 206.778 255.601 205.902 256.128L192.884 245.336C195.614 243.041 198.675 241.102 202.04 239.6L217.595 252.495ZM331.3 38.7603L377.497 77.187C386.154 84.3876 387.382 97.223 380.249 105.935L261.664 250.757C256.648 244.082 250.422 238.601 243.496 234.662L246.775 230.675L214.997 204.332C212.817 202.523 212.515 199.289 214.323 197.108C216.131 194.927 219.365 194.625 221.546 196.433L253.289 222.75L263.618 210.183L233.002 184.8C230.821 182.992 230.519 179.759 232.326 177.578C234.135 175.397 237.369 175.094 239.55 176.902L270.133 202.256L281.393 188.558L249.668 162.258C247.487 160.45 247.185 157.216 248.993 155.035C250.802 152.854 254.034 152.552 256.215 154.36L287.907 180.632L298.231 168.073L265.398 140.853C263.217 139.045 262.914 135.811 264.722 133.629C266.53 131.448 269.764 131.146 271.946 132.955L304.745 160.147L312.266 150.998L279.453 123.795C277.272 121.987 276.97 118.753 278.778 116.572C280.586 114.391 283.819 114.089 286 115.897L318.781 143.072L324.896 135.632C324.852 135.598 324.807 135.564 324.764 135.529L290.397 107.04C288.216 105.232 287.913 101.997 289.721 99.8159C291.529 97.6349 294.763 97.3322 296.945 99.1401L331.312 127.631C331.344 127.658 331.374 127.686 331.406 127.713L338.93 118.56C338.893 118.531 338.856 118.502 338.82 118.472L304.452 89.9819C302.271 88.1738 301.969 84.9394 303.778 82.7583C305.586 80.5776 308.819 80.2749 311 82.0825L345.368 110.574C345.393 110.594 345.416 110.617 345.441 110.638L352.495 102.056L318.608 73.9624C316.427 72.1543 316.124 68.9199 317.932 66.7388C319.74 64.5576 322.974 64.2558 325.156 66.064L359.01 94.1294L359.9 93.0474L359.929 93.0122L359.963 92.9829C361.847 91.3901 363.247 87.8804 360.674 82.4819C358.089 77.0568 351.504 69.7877 337.5 60.9097C335.143 59.8606 332.003 57.5276 330.142 53.8813C328.255 50.1861 327.709 45.1945 330.525 38.9399L330.794 38.3403L331.3 38.7603ZM190.63 243.468L184.814 238.646C182.633 236.838 182.33 233.604 184.138 231.422C184.778 230.65 185.598 230.114 186.486 229.823L190.63 243.468ZM197.156 214.466C198.964 212.285 202.198 211.982 204.379 213.791L221.307 227.824C216.48 227.49 211.58 227.876 206.729 229.064L197.831 221.688C195.651 219.88 195.348 216.647 197.156 214.466Z" fill="white"/>
</g>
<g filter="url(#filter0_f_8_244)">
<path d="M144.274 32.8527L147.305 56.7314L170.952 61.2277L149.178 71.4892L152.209 95.3678L135.722 77.8311L113.948 88.0927L125.532 66.9929L109.044 49.4562L132.691 53.9525L144.274 32.8527Z" fill="white"/>
<path d="M272.602 80.7451L257.181 78.1753L249.972 92.0472L247.651 76.587L232.23 74.0172L246.216 67.0321L243.895 51.572L254.86 62.7151L268.846 55.7301L261.637 69.602L272.602 80.7451Z" fill="white"/>
<path d="M73.437 284.038L59.5752 276.81L48.4167 287.759L51.0082 272.342L37.1465 265.113L52.6099 262.814L55.2014 247.396L62.1668 261.392L77.6302 259.093L66.4716 270.042L73.437 284.038Z" fill="white"/>
<path d="M337.17 89.3211L330.903 113.898L352.341 127.453L327.03 129.087L320.763 153.664L311.387 130.098L286.076 131.732L305.593 115.532L296.217 91.9654L317.654 105.521L337.17 89.3211Z" fill="white"/>
<circle cx="159.57" cy="167.512" r="4.97208" fill="white"/>
<path d="M321.61 117.479L198.698 307.606C197.985 306.902 197.168 306.303 196.273 305.832L319.091 115.85L321.61 117.479ZM191.584 304.665C191.568 304.665 191.553 304.664 191.538 304.664C190.518 304.664 189.533 304.816 188.603 305.095L159.301 178.032C159.379 178.034 159.459 178.039 159.538 178.039C160.493 178.039 161.416 177.904 162.293 177.658L191.584 304.665ZM150.365 172.288C150.813 173.214 151.399 174.059 152.094 174.803L55.4119 271.724L53.2888 269.604L150.365 172.288ZM258.912 67.7236L166.47 160.39C165.726 159.697 164.878 159.113 163.952 158.667L256.789 65.6045L258.912 67.7236ZM157.719 157.828C156.708 158.01 155.748 158.341 154.864 158.799L131.388 57.001L134.312 56.3271L157.719 157.828Z" fill="white"/>
<circle cx="191.57" cy="314.512" r="4.97208" fill="white"/>
</g>
<path d="M144.274 32.8527L147.305 56.7314L170.952 61.2277L149.178 71.4892L152.209 95.3678L135.722 77.8311L113.948 88.0927L125.532 66.9929L109.044 49.4562L132.691 53.9525L144.274 32.8527Z" fill="white"/>
<path d="M272.602 80.7451L257.181 78.1753L249.972 92.0472L247.651 76.587L232.23 74.0172L246.216 67.0321L243.895 51.572L254.86 62.7151L268.846 55.7301L261.637 69.602L272.602 80.7451Z" fill="white"/>
<path d="M73.437 284.038L59.5752 276.81L48.4167 287.759L51.0082 272.342L37.1465 265.113L52.6099 262.814L55.2014 247.396L62.1668 261.392L77.6302 259.093L66.4716 270.042L73.437 284.038Z" fill="white"/>
<path d="M337.17 89.3211L330.903 113.898L352.341 127.453L327.03 129.087L320.763 153.664L311.387 130.098L286.076 131.732L305.593 115.532L296.217 91.9654L317.654 105.521L337.17 89.3211Z" fill="white"/>
<circle cx="159.57" cy="167.512" r="4.97208" fill="white"/>
<path d="M318.611 121.477L198.687 307.597C197.973 306.893 197.156 306.295 196.26 305.825L316.09 119.852L318.611 121.477ZM191.584 304.665C191.568 304.665 191.553 304.664 191.538 304.664C190.518 304.664 189.533 304.816 188.603 305.095L159.301 178.032C159.379 178.034 159.459 178.039 159.538 178.039C160.493 178.039 161.416 177.904 162.293 177.658L191.584 304.665ZM150.365 172.288C150.813 173.214 151.399 174.059 152.094 174.803L55.4119 271.724L53.2888 269.604L150.365 172.288ZM258.912 67.7236L166.47 160.39C165.726 159.697 164.878 159.113 163.952 158.667L256.789 65.6045L258.912 67.7236ZM157.719 157.828C156.708 158.01 155.748 158.341 154.864 158.799L131.388 57.001L134.312 56.3271L157.719 157.828Z" fill="white"/>
<circle cx="191.57" cy="314.512" r="4.97208" fill="white"/>
<defs>
<filter id="filter0_f_8_244" x="27.1465" y="22.8528" width="335.194" height="306.632" filterUnits="userSpaceOnUse" color-interpolation-filters="sRGB">
<feFlood flood-opacity="0" result="BackgroundImageFix"/>
<feBlend mode="normal" in="SourceGraphic" in2="BackgroundImageFix" result="shape"/>
<feGaussianBlur stdDeviation="5" result="effect1_foregroundBlur_8_244"/>
</filter>
</defs>
</svg>
