<svg width="364" height="224" viewBox="0 0 364 224" fill="none" xmlns="http://www.w3.org/2000/svg">
<g opacity="0.2">
<path d="M31.8281 119.351C33.129 119.943 34.5482 120.416 35.9674 120.534C41.5259 121.362 47.794 119.469 53.9438 117.695C58.4378 116.395 62.8137 115.094 66.3616 112.965C68.7269 111.546 70.974 109.653 73.5758 106.933C77.4786 102.794 79.8439 99.1278 80.9083 95.6981C82.6822 89.6666 80.4352 82.3342 75.4681 78.4314C74.5219 77.6035 74.0489 77.4853 73.8123 77.367C73.3393 77.2487 72.3932 77.1305 71.8018 77.1305C70.5009 77.0122 69.2 77.0122 67.8991 77.0122C50.6323 85.7638 36.9135 99.9557 31.8281 119.351Z" fill="white"/>
<path d="M362.145 114.029C357.297 109.417 353.039 104.213 347.244 100.783C347.599 97.5901 347.007 94.6334 345.588 91.6768C348.427 85.527 351.265 79.2589 354.34 73.1091C355.641 70.389 354.813 68.7333 352.211 68.615C349.373 68.4968 346.298 62.7018 343.578 68.4968C340.858 74.41 338.374 80.3233 335.891 86.3549C335.299 86.2366 334.826 86.1183 334.353 86.0001C329.977 79.3772 323.946 74.2918 318.269 69.0881C314.603 65.7767 313.184 71.4534 310.582 72.8726C308.571 73.937 308.098 75.4744 310.109 77.485C314.366 81.7425 318.387 86.3549 322.527 90.7307C323.591 90.6124 324.537 90.8489 325.247 91.5585C325.365 91.6768 325.483 91.7951 325.483 91.9133C325.365 92.0316 325.128 92.2681 325.01 92.3864C324.182 91.7951 323.354 91.322 322.527 90.7307C287.165 89.1932 251.804 87.5375 216.561 86.0001C211.83 85.7635 205.917 87.0644 202.842 84.6991C199.531 82.0973 201.896 75.8292 202.014 71.2169C202.014 67.4324 200.713 66.2497 197.165 65.4219C184.393 62.347 171.738 58.799 158.965 55.4876C156.955 55.0145 154.471 55.1328 154.353 52.0579C155.654 46.736 156.955 41.2957 158.138 35.9738C158.492 34.4363 158.611 32.7806 160.858 33.0172C167.599 33.7268 174.34 32.4258 181.318 34.5546C212.776 43.8976 245.181 48.5099 277.94 49.9291C281.962 50.1656 288.939 50.9935 289.176 47.8003C289.53 43.188 282.789 43.188 278.887 42.3601C245.181 34.6729 211.712 29.1144 177.415 28.7596C175.523 28.7596 173.867 29.1144 172.684 26.6308C167.008 15.5139 150.332 11.9659 141.462 20.481C137.796 24.029 134.958 24.029 130.818 23.2011C97.8223 16.3417 64.4714 14.9226 30.8841 17.2879C27.5726 17.4061 22.0142 16.9331 21.8959 20.481C21.7776 23.5559 27.3361 24.029 30.7658 24.6203C61.9879 29.7057 93.4464 31.1249 125.023 29.7057C132.356 29.3509 139.333 29.1144 146.429 31.598C149.031 32.5441 149.268 33.372 148.795 35.619C147.73 40.2314 146.784 44.8437 145.838 49.4561C143.709 53.3588 140.871 50.5204 138.86 49.8108C127.625 45.6716 117.927 47.9186 111.186 57.7346C106.574 64.594 100.424 66.9593 93.2099 68.2603C92.0273 68.4968 90.9629 68.7333 89.7802 68.9698C97.1127 77.2484 100.069 89.4297 96.8761 100.192C95.1022 106.342 91.3177 112.255 85.6409 118.286C81.9747 122.189 78.545 124.909 74.8788 127.156C69.5568 130.35 63.7618 132.005 58.6764 133.543C52.9997 135.198 46.1403 137.209 38.9261 137.209C37.1521 137.209 35.3781 137.091 33.4859 136.854C32.0667 136.618 30.6475 136.381 29.3466 135.908C28.8735 161.335 50.5161 172.807 74.2875 180.139C68.8473 189.482 63.407 198.825 58.0851 208.286C56.7842 210.534 55.365 211.243 52.9997 211.243C39.2809 211.243 28.164 205.921 20.2402 194.686C16.2191 189.009 13.9721 182.505 12.7894 175.645C12.0799 171.742 9.35975 169.85 5.57526 170.442C2.0273 171.033 0.371581 173.28 0.608112 177.183C2.0273 201.309 24.4977 223.188 48.6239 223.188C100.779 223.306 152.934 223.188 205.089 223.188C209.465 223.188 212.658 221.769 212.54 217.038C212.421 212.662 209.347 211.125 205.326 211.243C198.584 211.361 191.962 211.007 185.22 211.361C180.963 211.598 179.425 209.942 178.243 206.276C175.286 197.524 171.856 189.009 168.545 180.376C170.082 178.838 172.211 178.957 173.985 178.484C200.122 172.689 219.99 159.679 227.796 132.478C229.925 125.146 235.365 121.48 242.934 120.179C271.081 115.566 299.11 110.836 327.139 106.223C327.494 106.105 327.849 106.105 328.203 105.987C328.203 105.987 328.322 105.987 328.322 106.105C327.967 106.342 327.612 106.342 327.139 106.223C325.838 112.018 322.763 117.104 320.28 122.308C318.269 126.565 320.279 127.511 323.709 128.694C326.902 129.758 329.977 132.36 331.751 126.802C333.762 120.652 336.364 114.857 338.729 108.825C339.084 108.707 339.557 108.589 339.912 108.589C344.051 113.083 348.19 117.459 352.329 122.071C354.458 124.436 356.114 124.318 358.124 121.953C359.307 120.652 360.608 119.469 362.027 118.286C363.446 116.986 363.919 115.685 362.145 114.029ZM156.6 209.587C131.646 209.587 106.574 209.587 81.6199 209.587C78.7815 209.587 73.3413 210.06 75.9432 205.685C78.1902 201.782 80.5555 197.879 82.566 193.858C84.2217 190.547 86.8236 187.472 87.0601 183.687C87.0601 183.096 87.0601 182.623 87.0601 182.032C109.885 185.106 132.711 185.106 155.536 182.032C154.235 183.806 155.299 185.816 155.891 187.59C157.546 192.675 159.439 197.643 161.331 202.61C163.814 209.351 163.578 209.587 156.6 209.587Z" fill="white"/>
</g>
<g filter="url(#filter0_f_92_9713)">
<path fill-rule="evenodd" clip-rule="evenodd" d="M68.9406 21.886L154.154 25.4155L155.788 25.4832L155.579 27.1055L151.948 55.3481C151.129 54.9997 150.227 54.8069 149.281 54.8069C149.184 54.8069 149.088 54.8089 148.992 54.8129L152.395 28.3452L68.8164 24.8834L68.9406 21.886ZM149.281 68.4499C150.021 68.4499 150.734 68.3319 151.401 68.1138L155.31 134.993C154.914 134.921 154.507 134.884 154.09 134.884C153.475 134.884 152.879 134.966 152.312 135.118L148.414 68.4214L117.078 138.359H148.145C147.64 139.254 147.332 140.273 147.277 141.359H114.762H112.447L113.394 139.246L145.597 67.3709C146.66 68.0538 147.924 68.4499 149.281 68.4499Z" fill="white"/>
<circle cx="150.368" cy="61.5114" r="3.52017" fill="white"/>
<circle cx="153.883" cy="141.148" r="3.52017" fill="white"/>
<path d="M114.621 129.479L116.87 136.402H124.149L118.26 140.68L120.51 147.603L114.621 143.325L108.732 147.603L110.981 140.68L105.092 136.402H112.371L114.621 129.479Z" fill="white"/>
<path d="M70.2111 10.0625L73.2509 19.4179H83.0877L75.1295 25.1998L78.1693 34.5552L70.2111 28.7733L62.2529 34.5552L65.2927 25.1998L57.3345 19.4179H67.1714L70.2111 10.0625Z" fill="white"/>
<path d="M153.886 15.4783L156.318 22.9626H164.187L157.821 27.5882L160.253 35.0725L153.886 30.4469L147.52 35.0725L149.951 27.5882L143.585 22.9626H151.454L153.886 15.4783Z" fill="white"/>
</g>
<path fill-rule="evenodd" clip-rule="evenodd" d="M68.9406 21.886L154.154 25.4155L155.788 25.4832L155.579 27.1055L151.948 55.3481C151.129 54.9997 150.227 54.8069 149.281 54.8069C149.184 54.8069 149.088 54.8089 148.992 54.8129L152.395 28.3452L68.8164 24.8834L68.9406 21.886ZM149.281 68.4499C150.021 68.4499 150.734 68.3319 151.401 68.1138L155.31 134.993C154.914 134.921 154.507 134.884 154.09 134.884C153.475 134.884 152.879 134.966 152.312 135.118L148.414 68.4214L117.078 138.359H148.145C147.64 139.254 147.332 140.273 147.277 141.359H114.762H112.447L113.394 139.246L145.597 67.3709C146.66 68.0538 147.924 68.4499 149.281 68.4499Z" fill="white"/>
<circle cx="150.368" cy="61.5114" r="3.52017" fill="white"/>
<circle cx="153.883" cy="141.148" r="3.52017" fill="white"/>
<path d="M114.621 129.479L116.87 136.402H124.149L118.26 140.68L120.51 147.603L114.621 143.325L108.732 147.603L110.981 140.68L105.092 136.402H112.371L114.621 129.479Z" fill="white"/>
<path d="M70.2111 10.0625L73.2509 19.4179H83.0877L75.1295 25.1998L78.1693 34.5552L70.2111 28.7733L62.2529 34.5552L65.2927 25.1998L57.3345 19.4179H67.1714L70.2111 10.0625Z" fill="white"/>
<path d="M153.886 15.4783L156.318 22.9626H164.187L157.821 27.5882L160.253 35.0725L153.886 30.4469L147.52 35.0725L149.951 27.5882L143.585 22.9626H151.454L153.886 15.4783Z" fill="white"/>
<defs>
<filter id="filter0_f_92_9713" x="47.3359" y="0.0625" width="126.852" height="157.541" filterUnits="userSpaceOnUse" color-interpolation-filters="sRGB">
<feFlood flood-opacity="0" result="BackgroundImageFix"/>
<feBlend mode="normal" in="SourceGraphic" in2="BackgroundImageFix" result="shape"/>
<feGaussianBlur stdDeviation="5" result="effect1_foregroundBlur_92_9713"/>
</filter>
</defs>
</svg>
