<svg width="197" height="252" viewBox="0 0 197 252" fill="none" xmlns="http://www.w3.org/2000/svg">
<g filter="url(#filter0_f_92_9332)">
<path fill-rule="evenodd" clip-rule="evenodd" d="M126.679 178.313L129.406 179.244L128.605 176.477L114.787 128.723C113.931 129.279 112.942 129.595 111.93 129.643L124.923 174.543L82.2785 159.981L81.3091 162.82L126.679 178.313ZM106.169 122.322C106.307 121.848 106.51 121.384 106.779 120.943C107.051 120.498 107.373 120.104 107.734 119.763L70.002 96.5609C69.9156 96.7432 69.8187 96.9228 69.7113 97.0988C69.2672 97.8263 68.6868 98.4195 68.0229 98.8658L106.169 122.322ZM114.322 118.856C114.432 118.913 114.54 118.974 114.647 119.04C115.436 119.521 116.067 120.164 116.524 120.899L135.588 98.3163C135.491 98.2645 135.395 98.2095 135.3 98.1514C134.498 97.6619 133.859 97.0068 133.401 96.2569L114.322 118.856ZM91.0329 47.4867L137.059 87.6752C136.013 87.9042 135.032 88.4244 134.248 89.204L90.3886 50.9068L66.8493 88.7617C65.7375 88.3402 64.5476 88.2872 63.4396 88.5638L88.7725 47.8245L89.7041 46.3264L91.0329 47.4867Z" fill="white"/>
<circle cx="111.765" cy="123.986" r="3.67167" transform="rotate(31.4028 111.765 123.986)" fill="white"/>
<circle cx="137.087" cy="93.6961" r="2.60415" transform="rotate(31.4028 137.087 93.6961)" fill="white"/>
<circle cx="64.899" cy="94.3906" r="2.60415" transform="rotate(31.4028 64.899 94.3906)" fill="white"/>
<path d="M87.3726 178.067L79.6629 166.696L66.4663 170.515L74.8981 159.669L67.1885 148.298L80.1093 152.966L88.5411 142.12L88.0947 155.85L101.015 160.518L87.8189 164.336L87.3726 178.067Z" fill="white"/>
<path d="M135.884 178.312L128.541 178.402L126.357 185.412L124.003 178.457L116.661 178.546L122.549 174.158L120.195 167.203L126.187 171.446L132.075 167.058L129.891 174.069L135.884 178.312Z" fill="white"/>
<path d="M94.4701 69.8815L86.2896 57.8162L72.2869 61.868L81.2337 50.3595L73.0532 38.2942L86.7632 43.2468L95.71 31.7383L95.2364 46.3077L108.946 51.2603L94.9437 55.3121L94.4701 69.8815Z" fill="white"/>
</g>
<g opacity="0.2">
<path d="M137.498 81.2298C131.865 87.6364 128.22 88.2992 120.819 84.5436C119.825 83.9913 118.057 83.8808 117.063 84.3226C103.477 91.613 90.5529 91.5025 77.9605 81.8925C76.9664 81.1193 73.8735 82.003 72.4375 82.9971C65.2577 87.7469 57.636 89.2933 49.462 86.4214C43.1658 84.2122 39.1893 80.2356 37.8637 73.1662C31.2362 39.1447 53.4385 7.33242 88.3437 1.69898C103.145 -0.731123 117.947 -0.952041 132.417 3.68725C155.061 11.088 167.101 27.2151 170.415 50.3011C171.188 56.045 171.52 62.0098 171.188 67.8642C170.084 83.7703 159.921 90.0665 144.788 84.654C142.248 83.6599 139.928 82.3344 137.498 81.2298Z" fill="white"/>
<path d="M114.192 154.464C112.314 152.808 110.547 151.04 108.669 149.383C106.901 147.726 105.134 146.18 103.035 144.192C107.785 140.547 112.424 137.012 117.174 133.367C120.598 135.686 123.912 138.006 127.336 140.326C127.557 140.105 127.778 139.884 127.999 139.552C125.348 137.012 122.697 134.471 119.715 131.599C120.488 130.384 121.151 129.059 122.587 126.85C120.267 128.065 119.052 128.727 117.616 129.501C113.418 125.193 109.221 120.885 104.803 116.356C109.111 113.042 113.529 109.839 118.168 106.304C126.453 114.589 132.197 125.524 144.126 130.053C140.591 142.424 137.167 154.685 133.522 167.72C130.761 165.842 128.662 164.406 126.563 162.859C126.453 162.97 126.232 163.08 126.121 163.191C127.336 164.516 128.551 165.842 130.65 168.272C126.453 172.248 122.145 176.225 117.726 180.312C112.314 176.998 107.564 174.016 102.152 170.812C117.174 161.534 129.435 149.936 139.818 136.349C126.894 147.395 114.081 158.441 100.495 169.929C94.9717 164.848 89.4488 159.877 83.9258 154.796C84.8095 154.023 85.0304 153.691 85.3618 153.47C95.1926 145.407 104.692 144.081 113.418 156.563C113.639 156.011 113.86 155.238 114.192 154.464Z" fill="white"/>
<path d="M89.5589 180.643C91.2158 179.097 92.8727 177.55 94.5296 176.114C94.3087 175.783 94.0878 175.341 93.7564 175.01C91.8786 176.225 89.8903 177.44 88.0125 178.655C80.8327 173.132 77.7398 165.842 76.1934 156.121C78.7339 156.452 81.6059 155.9 82.7105 157.005C91.6577 167.057 101.378 176.004 113.86 182.41C112.535 183.515 111.872 184.067 111.099 184.62C99.7212 192.462 98.3957 192.131 89.5589 180.643Z" fill="white"/>
<path d="M130.428 90.508C133.852 96.2519 137.276 102.106 141.143 108.402C138.381 111.053 135.067 114.146 131.312 117.681C127.335 113.484 123.469 109.397 119.713 105.53C122.806 101.554 125.457 98.1297 128.219 94.595C127.887 94.2636 127.556 94.0427 127.225 93.7113C124.132 96.5832 121.039 99.4552 117.615 102.769C114.964 99.1238 112.534 95.9205 110.214 92.7172C113.417 90.6184 116.289 88.8511 119.161 87.0837C123.027 88.2988 126.893 89.5138 130.87 90.7289L130.428 90.508Z" fill="white"/>
<path d="M132.749 169.708C129.546 181.085 126.453 192.352 123.028 204.613C116.401 200.747 110.326 197.212 102.925 192.904C110.878 190.474 114.413 180.975 124.023 185.062C122.807 183.957 121.592 182.852 120.267 181.527C124.133 177.44 128.11 173.243 132.086 169.156C132.197 169.376 132.528 169.597 132.749 169.708Z" fill="white"/>
<path d="M87.5703 129.942C92.4305 126.187 96.8489 122.652 101.488 119.007C105.907 123.094 110.214 127.181 115.185 131.82C110.325 135.355 105.686 138.669 100.715 142.314C96.1861 138.006 91.9887 134.14 87.5703 129.942Z" fill="white"/>
<path d="M73.1 141.982C72.3268 140.767 71.5536 139.552 70.6699 138.006C75.0883 136.017 79.0648 133.919 83.2623 132.262C84.3669 131.82 86.4656 132.262 87.3493 133.145C90.884 136.349 94.0873 139.773 98.0639 143.749C93.2036 146.29 88.6748 148.941 83.9251 151.15C83.0414 151.592 80.9426 150.598 79.9485 149.604C77.4079 147.284 75.3092 144.523 73.1 141.982Z" fill="white"/>
<path d="M88.1218 91.8336C87.68 92.7173 86.5754 93.8219 86.6859 94.4846C87.5695 97.467 88.895 100.339 90.331 103.984C85.2499 107.077 80.0583 110.391 74.5353 113.815C71.4425 109.728 68.681 106.083 66.3613 102.99C71.8843 98.7926 76.9654 94.5951 82.3779 90.9499C83.4825 90.1767 86.0231 91.5022 88.0114 91.8336H88.1218Z" fill="white"/>
<path d="M100.383 117.681C95.523 121.105 90.8837 124.309 85.6921 127.954C82.1574 123.756 78.7332 119.78 74.9775 115.251C80.611 112.048 85.8026 109.065 91.436 105.862C94.3079 109.728 97.0694 113.373 100.383 117.681Z" fill="white"/>
<path d="M130.65 90.6187C133.08 88.7409 135.51 86.9735 137.609 85.3167C142.911 86.9735 147.881 88.6304 153.515 90.3978C152.189 96.4731 150.753 102.769 149.317 109.286C146.445 108.071 146.445 108.071 148.434 101.665C146.445 102.99 144.899 104.095 142.911 105.531C138.713 100.56 134.626 95.5894 130.429 90.5082L130.65 90.6187Z" fill="white"/>
<path d="M91.3262 198.979C97.9537 194.451 103.698 195.334 109.662 200.636C112.424 203.066 116.4 204.282 120.598 206.38C117.063 209.031 113.749 211.461 110.436 213.781C109.773 214.223 108.337 214.444 107.895 214.112C102.372 209.142 96.9596 203.95 91.5471 198.869L91.3262 198.979Z" fill="white"/>
<path d="M116.069 104.205C111.761 107.961 107.784 111.496 103.255 115.472C100.273 111.827 97.5115 108.513 94.75 105.199C98.0638 101.333 101.046 97.4672 104.47 94.043C105.133 93.3802 108.005 93.7116 108.778 94.5953C111.429 97.3568 113.528 100.671 116.069 104.205Z" fill="white"/>
<path d="M118.499 222.286C118.057 224.385 117.504 226.815 116.842 229.245C115.627 233.995 112.644 235.541 108.668 233C105.023 230.791 101.709 228.03 97.9531 225.268C104.581 219.083 110.766 215.99 118.499 222.286Z" fill="white"/>
<path d="M65.2578 118.786C77.1874 113.153 76.856 126.408 83.5941 128.175C83.4836 128.617 83.4836 129.059 83.3732 129.501C79.1757 131.71 75.0887 133.919 70.3389 136.459C68.5716 130.384 67.0252 124.751 65.2578 118.786Z" fill="white"/>
<path d="M64.926 100.67C63.3795 98.3507 62.4958 96.9148 61.6122 95.4788C61.3913 95.5893 61.0599 95.6997 60.839 95.8102C61.2808 97.5775 61.6122 99.2344 62.054 101.002C61.6122 101.112 61.0599 101.333 60.618 101.444C59.5134 98.2403 58.5193 95.1474 57.7461 92.7173C64.4841 90.2872 70.6698 87.9676 77.6288 85.427C77.9602 85.7584 79.5066 87.0839 81.6053 88.9617C75.9719 92.9382 70.5594 96.6939 64.926 100.67Z" fill="white"/>
<path d="M132.638 119.117C136.393 115.803 139.707 112.821 143.463 109.618C145.009 110.501 146.445 111.275 148.544 112.379C147.218 117.681 145.782 122.983 144.236 129.059C140.038 125.413 136.504 122.431 132.638 119.117Z" fill="white"/>
<path d="M91.4362 198.758C90.442 197.433 89.006 196.218 88.4537 194.782C86.4655 189.48 84.8086 184.178 83.8145 178.544C88.3433 183.294 92.8721 188.044 97.401 192.793C95.5232 194.782 93.4244 196.88 91.4362 198.979C91.3257 198.979 91.4362 198.758 91.4362 198.758Z" fill="white"/>
<path d="M105.686 216.211C103.145 218.089 100.715 219.967 97.7327 222.176C95.7444 216.321 93.8666 210.688 91.4365 203.619C96.9595 208.479 101.157 212.234 105.686 216.211Z" fill="white"/>
<path d="M114.634 238.082C112.866 242.721 111.209 247.36 109.442 252C108.89 252 108.227 252 107.675 252C106.349 249.017 105.134 246.035 103.698 242.832C107.343 240.622 110.326 238.855 113.308 236.977C113.861 237.309 114.302 237.64 114.634 238.082Z" fill="white"/>
<path d="M87.9023 91.9442C92.3207 92.4965 96.7391 93.0488 102.262 93.822C98.7274 96.8044 95.9659 99.2345 92.3207 102.327C90.7743 98.4613 89.4488 95.1475 88.0128 91.8337C88.1233 91.8337 87.9023 91.9442 87.9023 91.9442Z" fill="white"/>
<path d="M62.9385 102.99C65.5895 106.746 68.1301 110.612 71.1125 114.809C69.1242 115.582 67.3568 116.245 64.9267 117.129C63.6012 112.489 62.2757 108.182 60.9502 103.874C61.613 103.542 62.2757 103.211 62.9385 102.99Z" fill="white"/>
<path d="M121.592 208.811C120.598 213.118 120.046 215.99 119.162 219.525C116.511 218.421 114.412 217.537 111.099 216.211C114.744 213.671 117.505 211.682 121.592 208.811Z" fill="white"/>
<path d="M99.8311 229.135C103.918 232.007 106.68 233.995 109.883 236.204C107.674 237.53 105.906 238.745 103.476 240.181C102.372 236.757 101.377 233.774 99.8311 229.135Z" fill="white"/>
<path d="M73.0996 141.982C75.0879 145.628 77.0761 149.273 79.1749 153.139C77.2971 154.796 75.4193 156.121 74.646 152.034C73.9833 148.72 73.5414 145.296 73.0996 141.982Z" fill="white"/>
</g>
<path fill-rule="evenodd" clip-rule="evenodd" d="M126.679 178.313L129.406 179.244L128.605 176.477L114.787 128.723C113.931 129.279 112.942 129.595 111.93 129.643L124.923 174.543L82.2785 159.981L81.3091 162.82L126.679 178.313ZM106.169 122.322C106.307 121.848 106.51 121.384 106.779 120.943C107.051 120.498 107.373 120.104 107.734 119.763L70.002 96.5609C69.9156 96.7432 69.8187 96.9228 69.7113 97.0988C69.2672 97.8263 68.6868 98.4195 68.0229 98.8658L106.169 122.322ZM114.322 118.856C114.432 118.913 114.54 118.974 114.647 119.04C115.436 119.521 116.067 120.164 116.524 120.899L135.588 98.3163C135.491 98.2645 135.395 98.2095 135.3 98.1514C134.498 97.6619 133.859 97.0068 133.401 96.2569L114.322 118.856ZM91.0329 47.4867L137.059 87.6752C136.013 87.9042 135.032 88.4244 134.248 89.204L90.3886 50.9068L66.8493 88.7617C65.7375 88.3402 64.5476 88.2872 63.4396 88.5638L88.7725 47.8245L89.7041 46.3264L91.0329 47.4867Z" fill="white"/>
<circle cx="111.765" cy="123.986" r="3.67167" transform="rotate(31.4028 111.765 123.986)" fill="white"/>
<circle cx="137.087" cy="93.6961" r="2.60415" transform="rotate(31.4028 137.087 93.6961)" fill="white"/>
<circle cx="64.899" cy="94.3906" r="2.60415" transform="rotate(31.4028 64.899 94.3906)" fill="white"/>
<path d="M87.3726 178.067L79.6629 166.696L66.4663 170.515L74.8981 159.669L67.1885 148.298L80.1093 152.966L88.5411 142.12L88.0947 155.85L101.015 160.518L87.8189 164.336L87.3726 178.067Z" fill="white"/>
<path d="M135.884 178.312L128.541 178.402L126.357 185.412L124.003 178.457L116.661 178.546L122.549 174.158L120.195 167.203L126.187 171.446L132.075 167.058L129.891 174.069L135.884 178.312Z" fill="white"/>
<path d="M94.4701 69.8815L86.2896 57.8162L72.2869 61.868L81.2337 50.3595L73.0532 38.2942L86.7632 43.2468L95.71 31.7383L95.2364 46.3077L108.946 51.2603L94.9437 55.3121L94.4701 69.8815Z" fill="white"/>
<defs>
<filter id="filter0_f_92_9332" x="52.2949" y="21.7383" width="97.3965" height="173.674" filterUnits="userSpaceOnUse" color-interpolation-filters="sRGB">
<feFlood flood-opacity="0" result="BackgroundImageFix"/>
<feBlend mode="normal" in="SourceGraphic" in2="BackgroundImageFix" result="shape"/>
<feGaussianBlur stdDeviation="5" result="effect1_foregroundBlur_92_9332"/>
</filter>
</defs>
</svg>
