<svg width="267" height="280" viewBox="0 0 267 280" fill="none" xmlns="http://www.w3.org/2000/svg">
<path opacity="0.2" d="M108.842 130.699C142.048 123.292 152.015 97.9033 152.848 86.1347L265.083 207.197C266.081 227.704 246.37 238.779 236.39 241.753L108.842 130.699ZM160.973 139.257C158.525 141.833 158.628 145.906 161.203 148.355L171.387 158.036C173.963 160.485 178.036 160.382 180.485 157.806C182.934 155.23 182.831 151.157 180.255 148.708L170.071 139.027C167.495 136.578 163.422 136.681 160.973 139.257ZM51.0824 115.382C64.7072 114.227 80.9443 109.595 95.5123 98.9306C112.594 86.4261 127.064 65.8571 132.478 33.6756C137.671 42.1918 140.787 52.1343 141.097 62.8185C142.049 95.5925 116.253 122.933 83.4787 123.885C71.6424 124.229 60.5143 121.084 51.0824 115.382ZM22.4121 66.2655C21.4606 33.4917 47.2578 6.15169 80.0317 5.19984C98.2702 4.67027 114.825 12.4254 126.087 25.0558C122.033 59.8876 107.578 80.7504 91.0573 92.8444C74.302 105.11 55.0486 108.628 41.3968 108.084C30.1253 97.6349 22.8935 82.8422 22.4121 66.2655Z" fill="white"/>
<g filter="url(#filter0_f_3_1352)">
<path d="M32.3523 263.028L22.8758 262.655L19.5925 271.552L17.019 262.424L7.54249 262.051L15.4285 256.783L12.8551 247.655L20.3023 253.527L28.1884 248.258L24.905 257.156L32.3523 263.028Z" fill="white"/>
<path d="M52.872 176.051L46.4116 178.17L46.4303 184.969L42.4189 179.48L35.9586 181.598L39.9397 176.087L35.9283 170.598L42.4002 172.681L46.3813 167.169L46.4001 173.968L52.872 176.051Z" fill="white"/>
<path d="M191.251 164.723L190.168 155.301L180.873 153.419L189.499 149.478L188.417 140.056L194.831 147.043L203.457 143.101L198.795 151.36L205.208 158.346L195.913 156.464L191.251 164.723Z" fill="white"/>
<path d="M105.402 64.2793L94.3716 53.396L80.6125 60.5231L87.5546 46.6697L76.5245 35.7863L91.8451 38.1078L98.7873 24.2544L101.314 39.5425L116.634 41.864L102.875 48.9911L105.402 64.2793Z" fill="white"/>
<circle cx="102.907" cy="235.952" r="3.18935" fill="white"/>
<circle cx="141.394" cy="223.123" r="3.18935" fill="white"/>
<path d="M43.4951 174.232L99.667 230.403C99.0008 230.781 98.408 231.273 97.9141 231.851L43.2803 177.217L21.9385 256.867L96.4043 236.914C96.5013 237.685 96.7327 238.414 97.0742 239.077L20.6318 259.56L18.7393 260.067L19.2461 258.175L41.6025 174.739L42.1094 172.847L43.4951 174.232ZM135.1 225.092C135.318 225.84 135.665 226.533 136.117 227.144L109.396 235.553C109.333 234.775 109.134 234.036 108.822 233.359L135.1 225.092ZM91.5371 44.3729L195.514 74.788C195.109 75.4228 194.811 76.1318 194.646 76.8905L92.874 47.1219L141.646 216.733C141.556 216.73 141.465 216.726 141.373 216.726C140.678 216.726 140.008 216.836 139.379 217.037L90.1318 45.7714L89.5635 43.7958L91.5371 44.3729ZM199.192 84.5643C199.775 84.7346 200.391 84.828 201.028 84.828C201.167 84.828 201.305 84.8219 201.442 84.8134L195.997 150.835L194.87 150.741L193.742 150.648L199.192 84.5643Z" fill="white"/>
<circle cx="201.049" cy="78.1553" r="3.18935" fill="white"/>
</g>
<path d="M32.3523 263.028L22.8758 262.655L19.5925 271.552L17.019 262.424L7.54249 262.051L15.4285 256.783L12.8551 247.655L20.3023 253.527L28.1884 248.258L24.905 257.156L32.3523 263.028Z" fill="white"/>
<path d="M52.872 176.051L46.4116 178.17L46.4303 184.969L42.4189 179.48L35.9586 181.598L39.9397 176.087L35.9283 170.598L42.4002 172.681L46.3813 167.169L46.4001 173.968L52.872 176.051Z" fill="white"/>
<path d="M191.251 164.723L190.168 155.301L180.873 153.419L189.499 149.478L188.417 140.056L194.831 147.043L203.457 143.101L198.795 151.36L205.208 158.346L195.913 156.464L191.251 164.723Z" fill="white"/>
<path d="M105.402 64.2793L94.3716 53.396L80.6125 60.5231L87.5546 46.6697L76.5245 35.7863L91.8451 38.1078L98.7873 24.2544L101.314 39.5425L116.634 41.864L102.875 48.9911L105.402 64.2793Z" fill="white"/>
<circle cx="102.907" cy="235.952" r="3.18935" fill="white"/>
<circle cx="141.394" cy="223.123" r="3.18935" fill="white"/>
<path d="M43.4951 174.232L99.667 230.403C99.0008 230.781 98.408 231.273 97.9141 231.851L43.2803 177.217L21.9385 256.867L96.4043 236.914C96.5013 237.685 96.7327 238.414 97.0742 239.077L20.6318 259.56L18.7393 260.067L19.2461 258.175L41.6025 174.739L42.1094 172.847L43.4951 174.232ZM135.1 225.092C135.318 225.84 135.665 226.533 136.117 227.144L109.396 235.553C109.333 234.775 109.134 234.036 108.822 233.359L135.1 225.092ZM91.5371 44.3729L195.514 74.788C195.109 75.4228 194.811 76.1318 194.646 76.8905L92.874 47.1219L141.646 216.733C141.556 216.73 141.465 216.726 141.373 216.726C140.678 216.726 140.008 216.836 139.379 217.037L90.1318 45.7714L89.5635 43.7958L91.5371 44.3729ZM199.192 84.5643C199.775 84.7346 200.391 84.828 201.028 84.828C201.167 84.828 201.305 84.8219 201.442 84.8134L195.997 150.835L194.87 150.741L193.742 150.648L199.192 84.5643Z" fill="white"/>
<circle cx="201.049" cy="78.1553" r="3.18935" fill="white"/>
<defs>
<filter id="filter0_f_3_1352" x="-3.8147e-06" y="16.7119" width="212.751" height="262.383" filterUnits="userSpaceOnUse" color-interpolation-filters="sRGB">
<feFlood flood-opacity="0" result="BackgroundImageFix"/>
<feBlend mode="normal" in="SourceGraphic" in2="BackgroundImageFix" result="shape"/>
<feGaussianBlur stdDeviation="3.77124" result="effect1_foregroundBlur_3_1352"/>
</filter>
</defs>
</svg>
