<svg width="353" height="371" viewBox="0 0 353 371" fill="none" xmlns="http://www.w3.org/2000/svg">
<path opacity="0.2" d="M144.306 173.283C188.331 163.463 201.546 129.801 202.65 114.198L351.453 274.706C352.777 301.894 326.644 316.578 313.412 320.522L144.306 173.283ZM213.422 184.629C210.176 188.044 210.313 193.445 213.728 196.692L227.229 209.527C230.644 212.773 236.045 212.637 239.292 209.222C242.538 205.807 242.401 200.406 238.986 197.16L225.485 184.325C222.07 181.078 216.669 181.214 213.422 184.629ZM67.7253 152.974C85.7897 151.444 107.318 145.304 126.633 131.165C149.28 114.586 168.464 87.3151 175.643 44.6482C182.528 55.9394 186.658 69.1213 187.07 83.2869C188.332 126.739 154.13 162.988 110.677 164.25C94.9839 164.705 80.2304 160.535 67.7253 152.974ZM29.7144 87.857C28.4524 44.4044 62.6546 8.15629 106.107 6.89417C130.288 6.19187 152.237 16.4736 167.169 33.2195C161.794 79.4005 142.63 107.061 120.726 123.096C98.5136 139.356 72.9899 144.023 54.8903 143.303C39.9437 129.45 30.3528 109.837 29.7144 87.857Z" fill="white"/>
<g filter="url(#filter0_f_3_1352)">
<path d="M42.8934 348.728L30.3293 348.233L25.9761 360.029L22.5642 347.927L9.99998 347.433L20.4555 340.448L17.0435 328.346L26.9173 336.131L37.3728 329.146L33.0196 340.943L42.8934 348.728Z" fill="white"/>
<path d="M70.0988 233.412L61.5335 236.222L61.5584 245.236L56.2399 237.958L47.6747 240.767L52.953 233.46L47.6345 226.182L56.2151 228.944L61.4934 221.636L61.5182 230.651L70.0988 233.412Z" fill="white"/>
<path d="M253.565 218.393L252.13 205.902L239.806 203.406L251.243 198.181L249.807 185.69L258.311 194.952L269.748 189.727L263.566 200.676L272.07 209.939L259.746 207.444L253.565 218.393Z" fill="white"/>
<path d="M139.744 85.2225L125.12 70.7931L106.878 80.2424L116.082 61.8752L101.458 47.4459L121.77 50.5237L130.974 32.1565L134.324 52.4259L154.637 55.5037L136.394 64.9531L139.744 85.2225Z" fill="white"/>
<circle cx="136.436" cy="312.831" r="4.22852" fill="white"/>
<circle cx="187.463" cy="295.822" r="4.22852" fill="white"/>
<path d="M132.141 305.474C131.258 305.975 130.472 306.626 129.818 307.393L57.3831 234.958L29.0872 340.56L127.816 314.105C127.944 315.128 128.25 316.094 128.703 316.974L27.3547 344.131L24.845 344.803L25.5168 342.293L55.1575 231.673L55.8303 229.164L132.141 305.474ZM179.118 298.431C179.407 299.424 179.868 300.342 180.468 301.153L145.04 312.3C144.956 311.27 144.693 310.291 144.28 309.394L179.118 298.431ZM121.363 58.8306L259.217 99.1548C258.68 99.9972 258.286 100.938 258.066 101.945L123.135 62.4741L187.798 287.349C187.678 287.344 187.557 287.341 187.436 287.341C186.514 287.341 185.626 287.486 184.792 287.752L119.499 60.6841L118.746 58.0649L121.363 58.8306ZM264.094 112.117C264.866 112.342 265.682 112.466 266.528 112.466C266.713 112.466 266.896 112.458 267.078 112.447L259.858 199.979L258.363 199.856L256.868 199.733L264.094 112.117Z" fill="white"/>
<circle cx="266.555" cy="103.62" r="4.22852" fill="white"/>
</g>
<path d="M42.8934 348.728L30.3293 348.233L25.9761 360.029L22.5642 347.927L9.99998 347.433L20.4555 340.448L17.0435 328.346L26.9173 336.131L37.3728 329.146L33.0196 340.943L42.8934 348.728Z" fill="white"/>
<path d="M70.0988 233.412L61.5335 236.222L61.5584 245.236L56.2399 237.958L47.6747 240.767L52.953 233.46L47.6345 226.182L56.2151 228.944L61.4934 221.636L61.5182 230.651L70.0988 233.412Z" fill="white"/>
<path d="M253.565 218.393L252.13 205.902L239.806 203.406L251.243 198.181L249.807 185.69L258.311 194.952L269.748 189.727L263.566 200.676L272.07 209.939L259.746 207.444L253.565 218.393Z" fill="white"/>
<path d="M139.744 85.2225L125.12 70.7931L106.878 80.2424L116.082 61.8752L101.458 47.4459L121.77 50.5237L130.974 32.1565L134.324 52.4259L154.637 55.5037L136.394 64.9531L139.744 85.2225Z" fill="white"/>
<circle cx="136.436" cy="312.831" r="4.22852" fill="white"/>
<circle cx="187.463" cy="295.822" r="4.22852" fill="white"/>
<path d="M132.141 305.474C131.258 305.975 130.472 306.626 129.818 307.393L57.3831 234.958L29.0872 340.56L127.816 314.105C127.944 315.128 128.25 316.094 128.703 316.974L27.3547 344.131L24.845 344.803L25.5168 342.293L55.1575 231.673L55.8303 229.164L132.141 305.474ZM179.118 298.431C179.407 299.424 179.868 300.342 180.468 301.153L145.04 312.3C144.956 311.27 144.693 310.291 144.28 309.394L179.118 298.431ZM121.363 58.8306L259.217 99.1548C258.68 99.9972 258.286 100.938 258.066 101.945L123.135 62.4741L187.798 287.349C187.678 287.344 187.557 287.341 187.436 287.341C186.514 287.341 185.626 287.486 184.792 287.752L119.499 60.6841L118.746 58.0649L121.363 58.8306ZM264.094 112.117C264.866 112.342 265.682 112.466 266.528 112.466C266.713 112.466 266.896 112.458 267.078 112.447L259.858 199.979L258.363 199.856L256.868 199.733L264.094 112.117Z" fill="white"/>
<circle cx="266.555" cy="103.62" r="4.22852" fill="white"/>
<defs>
<filter id="filter0_f_3_1352" x="0" y="22.1565" width="282.07" height="347.873" filterUnits="userSpaceOnUse" color-interpolation-filters="sRGB">
<feFlood flood-opacity="0" result="BackgroundImageFix"/>
<feBlend mode="normal" in="SourceGraphic" in2="BackgroundImageFix" result="shape"/>
<feGaussianBlur stdDeviation="5" result="effect1_foregroundBlur_3_1352"/>
</filter>
</defs>
</svg>
