<svg width="266" height="249" viewBox="0 0 266 249" fill="none" xmlns="http://www.w3.org/2000/svg">
<g opacity="0.2">
<path d="M186.705 96.4882C175.445 51.2098 231.324 39.6905 260.671 39.5907C280.436 48.874 230.426 53.3659 245.698 80.6168C260.971 107.868 200.779 153.086 186.705 96.4882Z" fill="white"/>
<path d="M114.056 242.406C105.564 214.229 156.704 144.944 183.336 113.823C198.142 137.862 213.506 128.358 213.506 133.949C213.506 139.539 124.671 277.626 114.056 242.406Z" fill="white"/>
<path d="M201.906 177.154C209.471 188.742 214.111 200.435 210.177 212.771C204.161 231.632 180.753 247.489 146.282 246.734C163.971 228.258 184.048 202.259 201.906 177.154ZM61.0457 10.0366C75.3201 1.55196 111.415 -9.4276 141.6 14.5288C179.332 44.4747 166.754 75.3191 165.556 111.853C165.488 113.928 165.61 115.98 165.893 118.012C152.243 136.671 138.472 157.054 126.967 176.917C124.863 176.297 122.638 175.962 120.337 175.962C107.271 175.963 96.6797 186.689 96.6794 199.919C96.6794 207.769 100.408 214.737 106.17 219.107C103.739 225.433 101.814 231.487 100.497 237.169C81.6721 230.015 61.1476 218.491 39.4841 201.392C-50.0541 130.719 37.3882 18.6332 61.0457 10.0366ZM49.6628 132.251C37.5898 132.252 27.8027 142.173 27.8025 154.412C27.8025 166.65 37.5897 176.572 49.6628 176.572C61.7361 176.572 71.5232 166.65 71.5232 154.412C71.523 142.173 61.736 132.251 49.6628 132.251ZM48.4656 64.5718C37.054 64.5719 27.8026 73.9577 27.8025 85.5347C27.8026 97.1116 37.054 106.496 48.4656 106.497C59.8772 106.496 69.1285 97.1116 69.1287 85.5347C69.1285 73.9577 59.8772 64.5719 48.4656 64.5718ZM109.555 19.0542C97.1516 19.0543 87.0958 29.1094 87.0955 41.5132C87.0955 53.9172 97.1514 63.9731 109.555 63.9731C121.959 63.973 132.014 53.9172 132.014 41.5132C132.014 29.1095 121.959 19.0543 109.555 19.0542Z" fill="white"/>
</g>
<g filter="url(#filter0_f_3_1257)">
<path d="M103.988 31.2975L109.536 37.719L117.357 34.4274L112.964 41.6878L118.512 48.1093L110.249 46.1749L105.856 53.4353L105.143 44.9794L96.8801 43.045L104.702 39.7534L103.988 31.2975Z" fill="white"/>
<path d="M49.0783 73.0666L50.3032 81.4637L58.6678 82.8936L51.0602 86.6534L52.2851 95.0504L46.3585 88.977L38.7509 92.7368L42.6956 85.2235L36.769 79.15L45.1336 80.5799L49.0783 73.0666Z" fill="white"/>
<path d="M120.918 188.745L125.405 195.947L133.642 193.905L128.178 200.399L132.666 207.601L124.802 204.412L119.339 210.905L119.942 202.44L112.078 199.251L120.315 197.209L120.918 188.745Z" fill="white"/>
<path d="M227.56 70.159L224.052 82.492L234.697 89.6395L221.884 90.1142L218.376 102.447L213.965 90.4076L201.151 90.8823L211.238 82.9667L206.827 70.9271L217.473 78.0746L227.56 70.159Z" fill="white"/>
<path d="M218.102 83.7762L218.975 84.496L123.533 200.439L122.925 201.179L122.096 200.701L53.5657 161.265C53.9982 160.649 54.3424 159.967 54.5803 159.236L122.395 198.262L217.228 83.0575L218.102 83.7762ZM109.866 42.6454L48.8528 84.3729V149.334C48.3434 149.228 47.8156 149.172 47.2747 149.172C47.0436 149.172 46.815 149.183 46.5891 149.203V83.1796L47.0823 82.8427L108.589 40.7782L109.866 42.6454Z" fill="white"/>
<circle cx="47.2993" cy="156.6" r="3.75018" fill="white"/>
</g>
<path d="M103.988 31.2975L109.536 37.719L117.357 34.4274L112.964 41.6878L118.512 48.1093L110.249 46.1749L105.856 53.4353L105.143 44.9794L96.8801 43.045L104.702 39.7534L103.988 31.2975Z" fill="white"/>
<path d="M49.0783 73.0666L50.3032 81.4637L58.6678 82.8936L51.0602 86.6534L52.2851 95.0504L46.3585 88.977L38.7509 92.7368L42.6956 85.2235L36.769 79.15L45.1336 80.5799L49.0783 73.0666Z" fill="white"/>
<path d="M120.918 188.745L125.405 195.947L133.642 193.905L128.178 200.399L132.666 207.601L124.802 204.412L119.339 210.905L119.942 202.44L112.078 199.251L120.315 197.209L120.918 188.745Z" fill="white"/>
<path d="M227.56 70.159L224.052 82.492L234.697 89.6395L221.884 90.1142L218.376 102.447L213.965 90.4076L201.151 90.8823L211.238 82.9667L206.827 70.9271L217.473 78.0746L227.56 70.159Z" fill="white"/>
<path d="M218.102 83.7762L218.975 84.496L123.533 200.439L122.925 201.179L122.096 200.701L53.5657 161.265C53.9982 160.649 54.3424 159.967 54.5803 159.236L122.395 198.262L217.228 83.0575L218.102 83.7762ZM109.866 42.6454L48.8528 84.3729V149.334C48.3434 149.228 47.8156 149.172 47.2747 149.172C47.0436 149.172 46.815 149.183 46.5891 149.203V83.1796L47.0823 82.8427L108.589 40.7782L109.866 42.6454Z" fill="white"/>
<circle cx="47.2993" cy="156.6" r="3.75018" fill="white"/>
<defs>
<filter id="filter0_f_3_1257" x="29.2266" y="23.755" width="213.013" height="194.692" filterUnits="userSpaceOnUse" color-interpolation-filters="sRGB">
<feFlood flood-opacity="0" result="BackgroundImageFix"/>
<feBlend mode="normal" in="SourceGraphic" in2="BackgroundImageFix" result="shape"/>
<feGaussianBlur stdDeviation="3.77124" result="effect1_foregroundBlur_3_1257"/>
</filter>
</defs>
</svg>
