<svg width="352" height="329" viewBox="0 0 352 329" fill="none" xmlns="http://www.w3.org/2000/svg">
<g opacity="0.2">
<path d="M247.536 127.926C232.608 67.8949 306.694 52.6225 345.603 52.4901C371.807 64.7981 305.503 70.7536 325.752 106.883C346 143.013 266.197 202.965 247.536 127.926Z" fill="white"/>
<path d="M151.217 321.387C139.958 284.03 207.761 192.17 243.07 150.909C262.7 182.781 283.071 170.18 283.071 177.592C283.071 185.005 165.292 368.083 151.217 321.387Z" fill="white"/>
<path d="M267.692 234.873C277.722 250.238 283.874 265.742 278.657 282.098C270.681 307.104 239.646 328.128 193.942 327.126C217.396 302.629 244.016 268.159 267.692 234.873ZM80.9355 13.3076C99.8609 2.05842 147.717 -12.4996 187.737 19.2627C237.763 58.9657 221.087 99.8602 219.499 148.298C219.409 151.048 219.568 153.769 219.944 156.464C201.846 181.202 183.588 208.226 168.334 234.562C165.545 233.739 162.597 233.296 159.546 233.296C142.223 233.296 128.181 247.517 128.181 265.059C128.181 275.465 133.123 284.703 140.761 290.496C137.538 298.884 134.986 306.911 133.24 314.445C108.282 304.96 81.0712 289.681 52.3496 267.011C-66.3628 173.311 49.57 24.7051 80.9355 13.3076ZM65.8438 175.343C49.837 175.343 36.8614 188.497 36.8613 204.723C36.8613 220.949 49.8369 234.103 65.8438 234.104C81.8506 234.103 94.8271 220.949 94.8271 204.723C94.8271 188.497 81.8505 175.343 65.8438 175.343ZM64.2568 85.6113C49.1271 85.6113 36.8616 98.0543 36.8613 113.403C36.8613 128.753 49.1269 141.196 64.2568 141.196C79.3864 141.196 91.6514 128.752 91.6514 113.403C91.6511 98.0546 79.3863 85.6118 64.2568 85.6113ZM145.251 25.2627C128.805 25.2627 115.474 38.5945 115.474 55.04C115.474 71.4855 128.805 84.8174 145.251 84.8174C161.696 84.8171 175.028 71.4853 175.028 55.04C175.028 38.5947 161.696 25.263 145.251 25.2627Z" fill="white"/>
</g>
<g filter="url(#filter0_f_3_1257)">
<path d="M137.869 41.4948L145.224 50.0086L155.594 45.6445L149.77 55.2705L157.125 63.7843L146.17 61.2196L140.346 70.8456L139.4 59.6346L128.445 57.0699L138.815 52.7058L137.869 41.4948Z" fill="white"/>
<path d="M65.0685 96.8734L66.6925 108.006L77.7825 109.902L67.6961 114.887L69.3201 126.02L61.4625 117.968L51.3762 122.953L56.6062 112.991L48.7485 104.939L59.8385 106.835L65.0685 96.8734Z" fill="white"/>
<path d="M160.315 250.242L166.264 259.791L177.185 257.084L169.941 265.693L175.89 275.242L165.465 271.014L158.221 279.623L159.021 268.4L148.595 264.171L159.515 261.464L160.315 250.242Z" fill="white"/>
<path d="M301.703 93.0182L297.052 109.37L311.166 118.846L294.178 119.475L289.527 135.827L283.678 119.864L266.69 120.494L280.064 109.999L274.216 94.0366L288.329 103.513L301.703 93.0182Z" fill="white"/>
<path d="M290.322 112.025L163.784 265.746L162.977 266.726L161.878 266.094L71.0183 213.807C71.5913 212.99 72.0478 212.087 72.363 211.119L162.273 262.859L288.006 110.119L290.322 112.025ZM145.663 56.5399L64.7693 111.863V197.991C64.0941 197.85 63.3945 197.775 62.6775 197.775C62.3715 197.775 62.0685 197.791 61.7693 197.817V110.281L62.4226 109.834L143.969 54.0634L145.663 56.5399Z" fill="white"/>
<circle cx="62.7096" cy="207.623" r="4.97208" fill="white"/>
</g>
<path d="M137.869 41.4948L145.224 50.0086L155.594 45.6445L149.77 55.2705L157.125 63.7843L146.17 61.2196L140.346 70.8456L139.4 59.6346L128.445 57.0699L138.815 52.7058L137.869 41.4948Z" fill="white"/>
<path d="M65.0685 96.8734L66.6925 108.006L77.7825 109.902L67.6961 114.887L69.3201 126.02L61.4625 117.968L51.3762 122.953L56.6062 112.991L48.7485 104.939L59.8385 106.835L65.0685 96.8734Z" fill="white"/>
<path d="M160.315 250.242L166.264 259.791L177.185 257.084L169.941 265.693L175.89 275.242L165.465 271.014L158.221 279.623L159.021 268.4L148.595 264.171L159.515 261.464L160.315 250.242Z" fill="white"/>
<path d="M301.703 93.0182L297.052 109.37L311.166 118.846L294.178 119.475L289.527 135.827L283.678 119.864L266.69 120.494L280.064 109.999L274.216 94.0366L288.329 103.513L301.703 93.0182Z" fill="white"/>
<path d="M290.322 112.025L163.784 265.746L162.977 266.726L161.878 266.094L71.0183 213.807C71.5913 212.99 72.0478 212.087 72.363 211.119L162.273 262.859L288.006 110.119L290.322 112.025ZM145.663 56.5399L64.7693 111.863V197.991C64.0941 197.85 63.3945 197.775 62.6775 197.775C62.3715 197.775 62.0685 197.791 61.7693 197.817V110.281L62.4226 109.834L143.969 54.0634L145.663 56.5399Z" fill="white"/>
<circle cx="62.7096" cy="207.623" r="4.97208" fill="white"/>
<defs>
<filter id="filter0_f_3_1257" x="38.7485" y="31.4948" width="282.417" height="258.128" filterUnits="userSpaceOnUse" color-interpolation-filters="sRGB">
<feFlood flood-opacity="0" result="BackgroundImageFix"/>
<feBlend mode="normal" in="SourceGraphic" in2="BackgroundImageFix" result="shape"/>
<feGaussianBlur stdDeviation="5" result="effect1_foregroundBlur_3_1257"/>
</filter>
</defs>
</svg>
