<svg width="245" height="259" viewBox="0 0 245 259" fill="none" xmlns="http://www.w3.org/2000/svg">
<g filter="url(#filter0_f_92_9516)">
<path fill-rule="evenodd" clip-rule="evenodd" d="M73.3145 41.9521L75.4556 42.9646L156.158 81.1229C155.682 82.0037 155.402 83.0061 155.376 84.0715L76.3145 46.6891V123.519C76.1661 123.51 76.0165 123.505 75.8658 123.505C74.9638 123.505 74.1027 123.679 73.3145 123.997V44.3206V41.9521ZM156.881 88.4096L135.039 112.678L134.173 113.64L134.998 114.638L164.446 150.22C165.009 149.378 165.754 148.669 166.625 148.148L138.135 113.723L159.283 90.2247C158.347 89.8122 157.526 89.1867 156.881 88.4096ZM163.573 155.952L134.013 168.838L111.992 126.066C111.28 126.771 110.361 127.268 109.334 127.458L131.989 171.461L132.633 172.712L133.922 172.15L165.046 158.583C164.374 157.837 163.865 156.941 163.573 155.952ZM82.3509 128.181L103.326 122.938C103.428 123.999 103.855 124.965 104.506 125.735L82.6438 131.2C82.6795 130.918 82.6979 130.629 82.6979 130.337C82.6979 129.584 82.576 128.859 82.3509 128.181Z" fill="white"/>
<circle cx="160.719" cy="84.3554" r="3.57876" fill="white"/>
<circle cx="108.231" cy="123.505" r="2.47107" fill="white"/>
<circle cx="167.209" cy="154.009" r="2.47107" fill="white"/>
<circle cx="76.9478" cy="128.447" r="3.3345" fill="white"/>
<path d="M73.3581 28.6287L76.8812 39.4716H88.2821L79.0586 46.1729L82.5816 57.0159L73.3581 50.3146L64.1345 57.0159L67.6576 46.1729L58.434 39.4716H69.835L73.3581 28.6287Z" fill="white"/>
<path d="M134.798 106.907L138.331 110.997L143.312 108.901L140.514 113.525L144.047 117.614L138.785 116.382L135.987 121.006L135.533 115.621L130.271 114.389L135.252 112.293L134.798 106.907Z" fill="white"/>
<path d="M134.083 158.302L136.69 166.325H145.126L138.301 171.284L140.908 179.306L134.083 174.348L127.259 179.306L129.865 171.284L123.041 166.325H131.477L134.083 158.302Z" fill="white"/>
</g>
<g opacity="0.2">
<path d="M89.7747 0.817462C126.846 6.01679 246.093 4.91774 244.909 54.3747C239.329 90.5586 225.845 231.532 183.954 231.955C142.064 234.491 6.2473 225.995 0.160283 174.593C0.118012 135.239 10.6435 96.6457 17.0687 57.9678C21.4648 14.2173 48.5182 -4.25505 89.7747 0.817462ZM153.392 214.708C168.356 213.398 185.983 214.074 195.198 199.829C212.614 157.009 221.406 109.116 227.113 63.2516C227.451 28.1668 185.73 25.7573 159.691 21.0652C129.425 17.0072 98.6516 10.9202 68.1319 14.5978C21.4648 18.4444 21.4226 122.727 15.716 160.01C21.3803 209.171 115.01 207.818 153.392 214.708ZM42.8962 201.393C42.8117 193.953 31.9058 193.742 31.7789 201.266C31.483 207.734 43.1075 207.86 42.8962 201.393ZM57.2683 206.55C57.2683 199.153 46.3201 198.73 46.1511 206.254C45.8552 212.848 57.3529 212.975 57.2683 206.55ZM72.9086 211.115C72.8663 203.802 62.1295 203.38 61.7913 210.735C61.3263 217.456 72.9931 217.752 72.9086 211.115ZM174.782 225.149C174.824 217.752 163.918 217.287 163.664 224.811C163.284 231.405 174.866 231.617 174.782 225.149Z" fill="white"/>
<path d="M166.116 255.542C162.481 256.134 158.845 256.81 155.21 257.233C138.428 259.135 121.605 259.431 104.781 258.459C82.039 257.148 59.5086 254.358 37.4854 248.356C34.8646 247.637 32.3284 246.538 29.7499 245.566C29.3694 245.439 29.1158 245.101 28.4395 244.636C44.5447 237.746 61.1572 237.788 78.1078 238.38C77.3892 241.381 79.5027 242.269 81.6163 243.072C89.521 246.031 97.4679 246.834 105.457 243.326C105.88 243.157 106.429 243.072 106.852 243.157C124.902 246.454 142.994 249.751 161.043 253.132C162.777 253.471 164.467 254.232 166.158 254.781C166.116 255.035 166.116 255.288 166.116 255.542Z" fill="white"/>
<path d="M82.9688 227.897C88.6753 228.954 94.1705 230.01 99.7926 231.025C99.7926 234.533 99.7926 237.915 99.7926 241.593C94.0437 242.649 88.464 242.142 82.9688 240.198C82.9688 236.14 82.9688 232.166 82.9688 227.897Z" fill="white"/>
<path d="M96.5794 17.1764C105.752 16.5423 116.785 18.8672 127.944 20.5581C144.092 23.0098 160.282 25.1656 176.387 27.7441C185.686 29.2236 194.944 31.2104 203.567 35.2261C209.781 38.1005 215.361 41.8204 219.038 47.8651C221.786 52.3881 222.758 57.3761 222.885 62.6176C223.096 72.34 221.236 81.8086 219.376 91.2773C213.628 120.74 206.737 149.907 199.171 178.905C197.691 184.569 195.62 190.234 192.915 195.433C188.561 203.887 180.699 207.522 171.695 209.044C161.719 210.735 151.743 210.397 141.767 209.467C115.221 207.015 89.0551 202.239 63.2276 195.56C53.5476 193.066 44.2057 189.473 35.4133 184.569C23.4929 177.975 18.8431 167.745 19.6886 154.515C20.9144 136.085 23.9579 117.866 27.3396 99.7315C30.0872 84.9367 32.8348 70.0996 35.9629 55.3893C37.1464 49.8096 39.1754 44.2721 41.4158 38.9882C46.1924 27.8287 54.7311 21.1499 66.6938 18.825C75.9512 17.0073 85.1662 17.0919 96.5794 17.1764Z" fill="white"/>
<path d="M37.3157 204.478C35.0331 204.478 33.4691 203.083 33.4268 200.97C33.3845 198.73 34.6527 197.504 36.9776 197.504C39.0911 197.504 40.9933 199.321 41.0356 201.308C41.1201 203.083 39.5138 204.478 37.3157 204.478Z" fill="white"/>
<path d="M51.7311 209.551C49.4485 209.593 47.8844 208.156 47.7999 206.043C47.7576 203.802 48.9835 202.576 51.3084 202.576C53.3796 202.576 55.3241 204.352 55.4087 206.339C55.4932 208.156 53.9292 209.509 51.7311 209.551Z" fill="white"/>
<path d="M67.3284 214.201C65.0457 214.201 63.4817 212.764 63.4395 210.65C63.4395 208.41 64.7499 207.184 67.0325 207.226C69.1038 207.269 71.0482 209.086 71.0482 211.073C71.1328 212.848 69.5265 214.201 67.3284 214.201Z" fill="white"/>
<path d="M169.244 228.15C166.961 228.15 165.355 226.756 165.355 224.642C165.312 222.402 166.538 221.176 168.905 221.176C171.019 221.176 172.921 222.951 173.006 224.98C173.048 226.756 171.442 228.15 169.244 228.15Z" fill="white"/>
</g>
<path fill-rule="evenodd" clip-rule="evenodd" d="M73.3145 41.9521L75.4556 42.9646L156.158 81.1229C155.682 82.0037 155.402 83.0061 155.376 84.0715L76.3145 46.6891V123.519C76.1661 123.51 76.0165 123.505 75.8658 123.505C74.9638 123.505 74.1027 123.679 73.3145 123.997V44.3206V41.9521ZM156.881 88.4096L135.039 112.678L134.173 113.64L134.998 114.638L164.446 150.22C165.009 149.378 165.754 148.669 166.625 148.148L138.135 113.723L159.283 90.2247C158.347 89.8122 157.526 89.1867 156.881 88.4096ZM163.573 155.952L134.013 168.838L111.992 126.066C111.28 126.771 110.361 127.268 109.334 127.458L131.989 171.461L132.633 172.712L133.922 172.15L165.046 158.583C164.374 157.837 163.865 156.941 163.573 155.952ZM82.3509 128.181L103.326 122.938C103.428 123.999 103.855 124.965 104.506 125.735L82.6438 131.2C82.6795 130.918 82.6979 130.629 82.6979 130.337C82.6979 129.584 82.576 128.859 82.3509 128.181Z" fill="white"/>
<circle cx="160.719" cy="84.3554" r="3.57876" fill="white"/>
<circle cx="108.231" cy="123.505" r="2.47107" fill="white"/>
<circle cx="167.209" cy="154.009" r="2.47107" fill="white"/>
<circle cx="76.9478" cy="128.447" r="3.3345" fill="white"/>
<path d="M73.3581 28.6287L76.8812 39.4716H88.2821L79.0586 46.1729L82.5816 57.0159L73.3581 50.3146L64.1345 57.0159L67.6576 46.1729L58.434 39.4716H69.835L73.3581 28.6287Z" fill="white"/>
<path d="M134.798 106.907L138.331 110.997L143.312 108.901L140.514 113.525L144.047 117.614L138.785 116.382L135.987 121.006L135.533 115.621L130.271 114.389L135.252 112.293L134.798 106.907Z" fill="white"/>
<path d="M134.083 158.302L136.69 166.325H145.126L138.301 171.284L140.908 179.306L134.083 174.348L127.259 179.306L129.865 171.284L123.041 166.325H131.477L134.083 158.302Z" fill="white"/>
<defs>
<filter id="filter0_f_92_9516" x="48.4336" y="18.6287" width="131.246" height="170.678" filterUnits="userSpaceOnUse" color-interpolation-filters="sRGB">
<feFlood flood-opacity="0" result="BackgroundImageFix"/>
<feBlend mode="normal" in="SourceGraphic" in2="BackgroundImageFix" result="shape"/>
<feGaussianBlur stdDeviation="5" result="effect1_foregroundBlur_92_9516"/>
</filter>
</defs>
</svg>
