<svg width="313" height="234" viewBox="0 0 313 234" fill="none" xmlns="http://www.w3.org/2000/svg">
<g opacity="0.2">
<rect x="98.1865" y="40.7724" width="213.847" height="138.959" rx="15.085" fill="white"/>
<path d="M108.064 0C116.396 0.000131157 123.149 6.75385 123.149 15.085V26.627H26.2109C22.3049 26.627 19.1379 29.7932 19.1377 33.6992C19.1377 37.6054 22.3048 40.7725 26.2109 40.7725H84.0938C83.5216 42.3654 83.209 44.0822 83.209 45.8721V52.4219H26.2109C22.3049 52.4219 19.1378 55.5881 19.1377 59.4941C19.1377 63.4003 22.3048 66.5674 26.2109 66.5674H83.209V78.2168H26.2109C22.3048 78.2168 19.1378 81.3829 19.1377 85.2891C19.1377 89.1952 22.3048 92.3623 26.2109 92.3623H83.209V174.632C83.2092 182.963 89.9629 189.717 98.2939 189.717H123.149V218.732C123.149 227.063 116.395 233.817 108.064 233.817H15.085C6.75389 233.817 0.000201937 227.063 0 218.732V15.085C4.01355e-06 6.75377 6.75377 4.33017e-06 15.085 0H108.064ZM61.5742 183.06C53.7621 183.06 47.4287 189.393 47.4287 197.205C47.4287 205.017 53.762 211.35 61.5742 211.351C69.3866 211.351 75.7197 205.017 75.7197 197.205C75.7197 189.393 69.3866 183.06 61.5742 183.06ZM61.5742 161.426C57.6682 161.426 54.502 164.592 54.502 168.498C54.502 172.404 57.6682 175.571 61.5742 175.571C65.4804 175.571 68.6475 172.404 68.6475 168.498C68.6474 164.592 65.4804 161.426 61.5742 161.426Z" fill="white"/>
<rect x="178.899" y="194.709" width="48.2612" height="39.1082" fill="white"/>
<rect x="151.44" y="218.839" width="102.347" height="14.9776" rx="7.4888" fill="white"/>
</g>
<g filter="url(#filter0_f_3_1204)">
<path d="M220.276 213.596L256.27 197.905C256.547 198.622 256.921 199.289 257.377 199.892L220.208 216.095L219.236 216.519L218.75 215.575L191.64 162.919C192.377 162.694 193.054 162.334 193.644 161.867L220.276 213.596ZM248.473 116.728C249.004 117.268 249.613 117.731 250.282 118.1L224.646 146.584L259.152 188.278C258.534 188.721 257.98 189.246 257.507 189.839L222.281 147.275L221.659 146.523L222.312 145.796L248.473 116.728ZM183.863 158.322C184.023 159.089 184.328 159.802 184.745 160.434L159.004 166.869C159.008 166.759 159.013 166.648 159.013 166.537C159.013 165.867 158.93 165.217 158.778 164.594L183.863 158.322ZM150.037 62.3068L246.864 108.089C246.562 108.783 246.358 109.529 246.268 110.31L150.686 65.1154V158.343C149.899 158.355 149.14 158.477 148.422 158.695V61.5431L150.037 62.3068Z" fill="white"/>
<circle cx="252.627" cy="111.366" r="4.29404" fill="white"/>
<circle cx="189.648" cy="158.34" r="2.96496" fill="white"/>
<circle cx="260.414" cy="194.941" r="2.96496" fill="white"/>
<circle cx="152.113" cy="164.27" r="4.00096" fill="white"/>
<path d="M147.805 44.5007L152.032 57.5108H165.712L154.645 65.5515L158.872 78.5616L147.805 70.521L136.738 78.5616L140.965 65.5515L129.898 57.5108H143.578L147.805 44.5007Z" fill="white"/>
<path d="M221.524 138.425L225.763 143.332L231.74 140.816L228.383 146.365L232.622 151.272L226.308 149.793L222.951 155.341L222.406 148.88L216.092 147.402L222.069 144.886L221.524 138.425Z" fill="white"/>
<path d="M220.666 200.092L223.794 209.718H233.915L225.727 215.668L228.854 225.294L220.666 219.345L212.477 225.294L215.605 215.668L207.416 209.718H217.538L220.666 200.092Z" fill="white"/>
</g>
<path d="M220.276 213.596L253.427 199.145C253.779 199.837 254.227 200.473 254.753 201.035L220.208 216.095L219.236 216.519L218.75 215.575L192.485 164.562C193.165 164.167 193.761 163.646 194.242 163.03L220.276 213.596ZM247.105 118.247C247.719 118.716 248.403 119.096 249.14 119.369L224.646 146.584L258.537 187.535C257.769 187.749 257.046 188.071 256.386 188.484L222.281 147.275L221.659 146.523L222.312 145.796L247.105 118.247ZM183.356 158.449C183.321 158.717 183.301 158.991 183.301 159.269C183.301 159.779 183.364 160.275 183.481 160.749L160.019 166.615C160.191 165.953 160.284 165.259 160.284 164.543C160.284 164.435 160.28 164.326 160.275 164.219L183.356 158.449ZM150.037 62.3068L245.483 107.436C245.045 108.047 244.694 108.723 244.444 109.447L150.686 65.1154V156.466C149.885 156.604 149.125 156.858 148.422 157.21V61.5431L150.037 62.3068Z" fill="white"/>
<circle cx="252.627" cy="111.366" r="4.29404" fill="white"/>
<circle cx="189.648" cy="158.34" r="2.96496" fill="white"/>
<circle cx="260.414" cy="194.941" r="2.96496" fill="white"/>
<circle cx="152.113" cy="164.27" r="4.00096" fill="white"/>
<path d="M147.805 44.5007L152.032 57.5108H165.712L154.645 65.5515L158.872 78.5616L147.805 70.521L136.738 78.5616L140.965 65.5515L129.898 57.5108H143.578L147.805 44.5007Z" fill="white"/>
<path d="M221.524 138.425L225.763 143.332L231.74 140.816L228.383 146.365L232.622 151.272L226.308 149.793L222.951 155.341L222.406 148.88L216.092 147.402L222.069 144.886L221.524 138.425Z" fill="white"/>
<path d="M220.666 200.092L223.794 209.718H233.915L225.727 215.668L228.854 225.294L220.666 219.345L212.477 225.294L215.605 215.668L207.416 209.718H217.538L220.666 200.092Z" fill="white"/>
<defs>
<filter id="filter0_f_3_1204" x="122.356" y="36.9582" width="148.566" height="195.878" filterUnits="userSpaceOnUse" color-interpolation-filters="sRGB">
<feFlood flood-opacity="0" result="BackgroundImageFix"/>
<feBlend mode="normal" in="SourceGraphic" in2="BackgroundImageFix" result="shape"/>
<feGaussianBlur stdDeviation="3.77124" result="effect1_foregroundBlur_3_1204"/>
</filter>
</defs>
</svg>
