<svg width="414" height="310" viewBox="0 0 414 310" fill="none" xmlns="http://www.w3.org/2000/svg">
<g opacity="0.2">
<rect x="130.178" y="54.0569" width="283.523" height="184.235" rx="20" fill="white"/>
<path d="M143.274 0C154.32 0.000218046 163.274 8.95444 163.274 20V35.3027H34.751C29.5721 35.3027 25.374 39.5008 25.374 44.6797C25.374 49.8586 29.5721 54.0566 34.751 54.0566H111.493C110.734 56.1687 110.32 58.4451 110.32 60.8184V69.502H34.751C29.5721 69.502 25.3741 73.7001 25.374 78.8789C25.374 84.0578 29.5721 88.2559 34.751 88.2559H110.32V103.701H34.751C29.5721 103.701 25.3741 107.899 25.374 113.078C25.374 118.257 29.5721 122.455 34.751 122.455H110.32V231.53C110.32 242.576 119.275 251.53 130.32 251.53H163.274V290C163.274 301.046 154.32 310 143.274 310H20C8.95431 310 0 301.046 0 290V20C0 8.95431 8.95431 0 20 0H143.274ZM81.6367 242.705C71.2791 242.705 62.8829 251.101 62.8828 261.459C62.8828 271.817 71.2791 280.214 81.6367 280.214C91.9945 280.214 100.392 271.817 100.392 261.459C100.392 251.101 91.9945 242.705 81.6367 242.705ZM81.6367 214.021C76.458 214.022 72.2598 218.22 72.2598 223.398C72.2598 228.577 76.458 232.775 81.6367 232.775C86.8156 232.775 91.0146 228.577 91.0146 223.398C91.0146 218.22 86.8156 214.021 81.6367 214.021Z" fill="white"/>
<rect x="237.189" y="258.149" width="63.9858" height="51.8505" fill="white"/>
<rect x="200.783" y="290.142" width="135.694" height="19.8577" rx="9.92883" fill="white"/>
</g>
</svg>
