<svg width="160" height="158" viewBox="0 0 160 158" fill="none" xmlns="http://www.w3.org/2000/svg">
<path opacity="0.1" d="M75.6238 73.7302C65.5571 58.8191 54.2883 45.4147 41.7155 33.6514C49.1956 32.9128 56.0061 31.1833 61.9796 28.2454C73.8926 40.9593 84.9212 53.2448 90.7357 62.9997L94.5941 67.9179L134.053 55.087C138.39 54.7471 141.969 55.7668 144.343 58.8953C144.659 62.3075 142.491 65.1679 136.855 67.1826L104.598 82.872C108.626 98.3747 107.876 119.384 104.244 143.679C98.2297 146.193 92.9473 149.654 88.5741 154.349C91.0577 128.459 92.5595 105.3 91.6176 89.2341L70.3992 96.6972C70.3992 96.6972 68.6474 128.521 65.2871 132.956C65.2871 132.956 53.6973 123.086 50.2554 123.56C52.0157 114.377 52.6212 105.921 50.5298 99.2293C37.7663 86.0825 28.5079 80.1548 19.9073 75.6322C24.6173 72.0088 31.8608 69.4288 40.8303 67.5222C46.5382 72.5122 52.4388 76.53 58.6601 79.008L75.6238 73.7302Z" fill="white"/>
<path fill-rule="evenodd" clip-rule="evenodd" d="M95.032 76.6849C95.2783 77.0772 95.4321 77.5333 95.463 78.0229L133.161 63.412L132.654 62.1035L95.032 76.6849ZM94.2911 80.5218C93.9025 80.8054 93.4398 80.9936 92.9374 81.0519L97.2451 120.399L98.6401 120.246L94.2911 80.5218ZM90.3785 80.0109C90.0842 79.6485 89.8767 79.2127 89.7875 78.7353L53.624 92.9481L54.1373 94.2542L90.3785 80.0109ZM90.4008 76.3743C90.7084 76.0047 91.1073 75.7137 91.5629 75.536L67.0051 53.002L66.0563 54.0359L90.4008 76.3743Z" fill="white"/>
<path d="M131.47 53.0548L134.671 58.9295L141.248 57.7001L136.65 62.5603L139.851 68.435L133.808 65.5641L129.211 70.4243L130.073 63.7898L124.03 60.9189L130.607 59.6894L131.47 53.0548Z" fill="white"/>
<path d="M49.9561 88.3057L53.7853 90.8629L57.4006 88.0114L56.1518 92.4434L59.981 95.0007L55.38 95.1825L54.1312 99.6145L52.5365 95.2949L47.9355 95.4768L51.5509 92.6253L49.9561 88.3057Z" fill="white"/>
<circle cx="92.6042" cy="78.1809" r="1.35713" fill="white"/>
<circle cx="64.789" cy="52.0424" r="0.959393" fill="white"/>
<circle cx="98.0375" cy="122.351" r="0.959393" fill="white"/>
</svg>
