<svg width="450" height="323" viewBox="0 0 450 323" fill="none" xmlns="http://www.w3.org/2000/svg">
<g opacity="0.2">
<path d="M306.335 85.2529C306.335 80.207 305.341 75.2105 303.41 70.5487C301.479 65.887 298.649 61.6511 295.081 58.0832C291.513 54.5152 287.277 51.6849 282.615 49.7539C277.953 47.823 272.957 46.8291 267.911 46.8291C262.865 46.8291 257.868 47.823 253.207 49.7539C248.545 51.6849 244.309 54.5152 240.741 58.0832C237.173 61.6512 234.343 65.887 232.412 70.5487C230.481 75.2105 229.487 80.207 229.487 85.2529L267.911 85.2529H306.335Z" fill="white"/>
<rect x="261.907" width="13.2082" height="30.0186" rx="6.60409" fill="white"/>
<rect x="317.401" y="15.75" width="13.2082" height="30.0186" rx="6.60409" transform="rotate(56.4447 317.401 15.75)" fill="white"/>
<rect x="209.074" y="27.7317" width="13.2082" height="30.0186" rx="6.60409" transform="rotate(-55.7784 209.074 27.7317)" fill="white"/>
<circle cx="135.829" cy="274.97" r="48.0297" fill="white"/>
<circle cx="356.766" cy="274.97" r="48.0297" fill="white"/>
<path d="M377.247 81.6506C385.76 81.6506 393.636 86.1572 397.95 93.4954L445.91 175.077C448.079 178.767 449.223 182.969 449.223 187.248V264.163C449.223 277.426 438.471 288.179 425.208 288.179H414.114C415.087 283.933 415.602 279.511 415.602 274.97C415.602 242.476 389.26 216.134 356.766 216.134C324.271 216.134 297.929 242.476 297.929 274.97C297.929 279.511 298.444 283.933 299.418 288.179H193.176C194.15 283.933 194.665 279.512 194.665 274.97C194.665 242.476 168.324 216.134 135.829 216.134C103.335 216.134 76.9925 242.476 76.9924 274.97C76.9924 279.512 77.5077 283.933 78.4817 288.179H55.3792C42.1162 288.179 31.3645 277.426 31.3645 264.163V207.059C31.3645 196.136 38.7356 186.589 49.303 183.825L101.189 170.255C106.51 168.863 111.192 165.687 114.452 161.258L165.854 91.429C170.38 85.2806 177.56 81.6506 185.195 81.6506H377.247ZM199.793 105.065C195.833 105.065 192.127 107.018 189.888 110.285L161.915 151.111C156.455 159.079 162.161 169.906 171.821 169.906H245.097C251.728 169.905 257.104 164.529 257.104 157.898V117.073C257.104 110.441 251.728 105.065 245.097 105.065H199.793ZM278.117 105.065C271.486 105.065 266.11 110.441 266.11 117.073V157.898C266.11 164.529 271.486 169.906 278.117 169.906H394.02C403.679 169.906 409.385 159.079 403.925 151.111L375.952 110.285C373.714 107.018 370.008 105.065 366.047 105.065H278.117Z" fill="white"/>
</g>
<g filter="url(#filter0_f_7_123)">
<path d="M277.656 67.7734L35.7805 218.208L264.418 227.979L370.282 153.413C370.703 154.334 371.256 155.181 371.918 155.931L265.728 230.727L265.311 231.021L264.8 230.999L30.8 220.999L25.9485 220.791L30.0725 218.227L276.073 65.2266L277.656 67.7734Z" fill="white"/>
<path d="M281.603 204.003L275.267 226.28L294.495 239.191L271.35 240.048L265.014 262.325L257.046 240.578L233.902 241.435L252.122 227.138L244.155 205.391L263.383 218.301L281.603 204.003Z" fill="white"/>
<path d="M26.4123 198.218L34.7432 211.59L50.0353 207.799L39.892 219.854L48.2229 233.227L33.6231 227.305L23.4798 239.361L24.5999 223.645L10.0001 217.724L25.2922 213.933L26.4123 198.218Z" fill="white"/>
<path d="M290.877 46.043L286.226 62.3944L300.339 71.8707L283.351 72.5001L278.7 88.8515L272.852 72.8891L255.863 73.5185L269.237 63.0238L263.389 47.0614L277.503 56.5377L290.877 46.043Z" fill="white"/>
<circle cx="379.584" cy="148.848" r="4.97208" fill="white"/>
</g>
<path d="M277.656 67.7734L35.7805 218.208L264.418 227.979L370.282 153.413C370.703 154.334 371.256 155.181 371.918 155.931L265.728 230.727L265.311 231.021L264.8 230.999L30.8 220.999L25.9485 220.791L30.0725 218.227L276.073 65.2266L277.656 67.7734Z" fill="white"/>
<path d="M281.603 204.003L275.267 226.28L294.495 239.191L271.35 240.048L265.014 262.325L257.046 240.578L233.902 241.435L252.122 227.138L244.155 205.391L263.383 218.301L281.603 204.003Z" fill="white"/>
<path d="M26.4123 198.218L34.7432 211.59L50.0353 207.799L39.892 219.854L48.2229 233.227L33.6231 227.305L23.4798 239.361L24.5999 223.645L10.0001 217.724L25.2922 213.933L26.4123 198.218Z" fill="white"/>
<path d="M290.877 46.043L286.226 62.3944L300.339 71.8707L283.351 72.5001L278.7 88.8515L272.852 72.8891L255.863 73.5185L269.237 63.0238L263.389 47.0614L277.503 56.5377L290.877 46.043Z" fill="white"/>
<circle cx="379.584" cy="148.848" r="4.97208" fill="white"/>
<defs>
<filter id="filter0_f_7_123" x="0" y="36.043" width="394.556" height="236.282" filterUnits="userSpaceOnUse" color-interpolation-filters="sRGB">
<feFlood flood-opacity="0" result="BackgroundImageFix"/>
<feBlend mode="normal" in="SourceGraphic" in2="BackgroundImageFix" result="shape"/>
<feGaussianBlur stdDeviation="5" result="effect1_foregroundBlur_7_123"/>
</filter>
</defs>
</svg>
