<svg width="339" height="244" viewBox="0 0 339 244" fill="none" xmlns="http://www.w3.org/2000/svg">
<g opacity="0.2">
<path d="M231.053 64.3019C231.053 60.496 230.303 56.7275 228.846 53.2113C227.39 49.6952 225.255 46.5003 222.564 43.8092C219.873 41.118 216.678 38.9833 213.162 37.5269C209.646 36.0704 205.877 35.3208 202.071 35.3208C198.266 35.3208 194.497 36.0704 190.981 37.5269C187.465 38.9833 184.27 41.118 181.579 43.8092C178.888 46.5003 176.753 49.6952 175.296 53.2113C173.84 56.7275 173.09 60.496 173.09 64.3019L202.071 64.3019H231.053Z" fill="white"/>
<rect x="197.543" width="9.96225" height="22.6415" rx="4.98112" fill="white"/>
<rect x="239.399" y="11.8794" width="9.96225" height="22.6415" rx="4.98112" transform="rotate(56.4447 239.399 11.8794)" fill="white"/>
<rect x="157.694" y="20.9166" width="9.96225" height="22.6415" rx="4.98112" transform="rotate(-55.7784 157.694 20.9166)" fill="white"/>
<circle cx="102.449" cy="207.396" r="36.2264" fill="white"/>
<circle cx="269.09" cy="207.396" r="36.2264" fill="white"/>
<path d="M284.538 61.5848C290.959 61.5848 296.9 64.9836 300.154 70.5184L336.327 132.052C337.963 134.834 338.825 138.004 338.825 141.231V199.245C338.825 209.249 330.716 217.358 320.712 217.358H312.344C313.079 214.156 313.467 210.821 313.467 207.395C313.467 182.887 293.599 163.018 269.09 163.018C244.581 163.018 224.713 182.887 224.713 207.395C224.713 210.821 225.102 214.156 225.836 217.358H145.702C146.437 214.156 146.826 210.821 146.826 207.395C146.826 182.887 126.957 163.018 102.448 163.018C77.9398 163.019 58.0717 182.887 58.0715 207.395C58.0715 210.821 58.46 214.156 59.1946 217.358H41.7698C31.7662 217.358 23.6565 209.249 23.6565 199.245V156.174C23.6565 147.935 29.2164 140.735 37.1868 138.65L76.3215 128.415C80.3348 127.365 83.8663 124.97 86.3254 121.629L125.095 68.9598C128.509 64.3227 133.924 61.585 139.682 61.5848H284.538ZM150.694 79.245C147.706 79.245 144.911 80.7182 143.223 83.1825L122.124 113.974C118.006 119.985 122.309 128.15 129.595 128.15H184.864C189.865 128.15 193.92 124.095 193.92 119.094V88.3016C193.92 83.2998 189.865 79.245 184.864 79.245H150.694ZM209.77 79.245C204.768 79.245 200.713 83.2998 200.713 88.3016V119.094C200.713 124.095 204.768 128.15 209.77 128.15H297.189C304.474 128.15 308.779 119.985 304.66 113.974L283.562 83.1825C281.873 80.7181 279.077 79.245 276.09 79.245H209.77Z" fill="white"/>
</g>
<g filter="url(#filter0_f_7_123)">
<path d="M209.422 51.119L26.9866 164.584L199.437 171.954L279.285 115.713C279.603 116.407 280.02 117.045 280.519 117.61L200.425 174.025L200.111 174.247L199.726 174.231L23.2317 166.688L19.5715 166.532L22.6819 164.598L208.227 49.1971L209.422 51.119Z" fill="white"/>
<path d="M212.399 153.869L207.62 170.672L222.123 180.409L204.666 181.056L199.886 197.858L193.877 181.456L176.42 182.103L190.163 171.318L184.153 154.916L198.656 164.654L212.399 153.869Z" fill="white"/>
<path d="M19.9214 149.506L26.205 159.591L37.739 156.732L30.0885 165.825L36.372 175.911L25.3601 171.445L17.7095 180.537L18.5544 168.684L7.5425 164.218L19.0765 161.359L19.9214 149.506Z" fill="white"/>
<path d="M219.393 34.7281L215.885 47.0611L226.53 54.2086L213.717 54.6833L210.209 67.0163L205.798 54.9767L192.984 55.4514L203.072 47.5358L198.661 35.4962L209.306 42.6437L219.393 34.7281Z" fill="white"/>
<circle cx="286.301" cy="112.269" r="3.75018" fill="white"/>
</g>
<path d="M209.422 51.119L26.9866 164.584L199.437 171.954L279.285 115.713C279.603 116.407 280.02 117.045 280.519 117.61L200.425 174.025L200.111 174.247L199.726 174.231L23.2317 166.688L19.5715 166.532L22.6819 164.598L208.227 49.1971L209.422 51.119Z" fill="white"/>
<path d="M212.399 153.869L207.62 170.672L222.123 180.409L204.666 181.056L199.886 197.858L193.877 181.456L176.42 182.103L190.163 171.318L184.153 154.916L198.656 164.654L212.399 153.869Z" fill="white"/>
<path d="M19.9214 149.506L26.205 159.591L37.739 156.732L30.0885 165.825L36.372 175.911L25.3601 171.445L17.7095 180.537L18.5544 168.684L7.5425 164.218L19.0765 161.359L19.9214 149.506Z" fill="white"/>
<path d="M219.393 34.7281L215.885 47.0611L226.53 54.2086L213.717 54.6833L210.209 67.0163L205.798 54.9767L192.984 55.4514L203.072 47.5358L198.661 35.4962L209.306 42.6437L219.393 34.7281Z" fill="white"/>
<circle cx="286.301" cy="112.269" r="3.75018" fill="white"/>
<defs>
<filter id="filter0_f_7_123" x="-3.8147e-06" y="27.1855" width="297.594" height="178.215" filterUnits="userSpaceOnUse" color-interpolation-filters="sRGB">
<feFlood flood-opacity="0" result="BackgroundImageFix"/>
<feBlend mode="normal" in="SourceGraphic" in2="BackgroundImageFix" result="shape"/>
<feGaussianBlur stdDeviation="3.77124" result="effect1_foregroundBlur_7_123"/>
</filter>
</defs>
</svg>
