<svg width="481" height="364" viewBox="0 0 481 364" fill="none" xmlns="http://www.w3.org/2000/svg">
<g opacity="0.2">
<path d="M342.174 21.0682C351.559 38.378 372.098 64.337 402.411 81.7671C380.284 123.395 337.353 171.259 260.478 210.138C268.687 214.712 279.183 223.239 273.08 230.925C267.011 238.568 234.769 255.453 213.434 265.878C209.803 267.651 205.728 264.564 206.402 260.58L209.487 242.352C209.716 240.999 210.491 239.8 211.63 239.036L240.364 219.744C233.479 222.847 226.351 225.88 218.973 228.832C211.634 231.767 203.222 229.908 197.685 224.267L184.339 210.67C178.991 205.221 177.145 197.211 180.047 190.149C184.043 180.426 189.095 169.73 195.204 158.541L169.197 194.791C168.397 195.905 167.175 196.642 165.816 196.829L147.501 199.346C143.498 199.896 140.539 195.727 142.424 192.154C153.507 171.153 171.387 139.452 179.215 133.623C187.335 127.578 195.799 139.211 199.996 147.645C200.254 148.164 200.401 148.715 200.448 149.271C228.712 100.992 275.886 46.2234 342.174 21.0682ZM313.821 68.0691C297.871 71.5249 287.743 87.2557 291.198 103.206C294.654 119.156 310.385 129.285 326.335 125.83C342.285 122.374 352.414 106.642 348.959 90.6918C345.503 74.7417 329.771 64.6134 313.821 68.0691ZM351.734 17.692C373.457 10.5901 397.125 6.67439 422.747 7.11925C423.435 23.1521 419.349 46.4359 406.904 72.812C379.504 56.9073 360.653 33.5195 351.734 17.692Z" fill="white"/>
<path d="M78.3305 248.162C144.089 201.249 179.852 210.354 190.612 233.474C207.405 287.563 148.879 344.118 144.242 335.124C140.533 327.928 153.279 291.585 160.115 274.313C141.491 297.947 104.059 342.324 103.323 330.759C102.588 319.194 127.281 281.433 139.719 263.999C112.155 287.04 57.1305 329.284 57.5475 313.93C57.9645 298.576 95.7229 266.022 114.55 251.665C75.0773 270.045 12.5717 295.076 78.3305 248.162Z" fill="white"/>
</g>
<g filter="url(#filter0_f_3_1299)">
<path d="M80.3725 321.999L87.7275 330.513L98.0975 326.148L92.2732 335.774L99.6282 344.288L88.6736 341.724L82.8492 351.349L81.9032 340.138L70.9486 337.574L81.3185 333.21L80.3725 321.999Z" fill="white"/>
<path d="M185.927 243.562L172.026 253.349L177.039 269.593L163.436 259.397L149.535 269.184L155.028 253.096L141.425 242.9L158.423 243.153L163.917 227.065L168.929 243.309L185.927 243.562Z" fill="white"/>
<path d="M414.722 42.0363L400.816 37.014L391.743 48.6873L392.222 33.9101L378.316 28.8878L392.518 24.7773L392.997 10.0001L401.296 22.2368L415.498 18.1262L406.424 29.7995L414.722 42.0363Z" fill="white"/>
<circle cx="323.319" cy="99.8401" r="4.97208" fill="white"/>
<path d="M325.253 268.934C325.428 269.943 325.751 270.9 326.2 271.784L81.4989 339.437L80.7001 336.547L325.253 268.934ZM336.771 257.1C336.287 257.03 335.791 256.992 335.287 256.992C334.769 256.992 334.259 257.031 333.762 257.105L322.001 110.283C322.422 110.336 322.851 110.367 323.287 110.367C323.873 110.367 324.446 110.314 325.005 110.219L336.771 257.1ZM314.825 105.852C315.386 106.688 316.068 107.435 316.845 108.07L164.627 251.085L162.572 248.899L314.825 105.852ZM396.127 33.5847L331.562 94.2419C330.976 93.4257 330.273 92.6994 329.475 92.0886L394.072 31.3992L396.127 33.5847Z" fill="white"/>
<circle cx="335.319" cy="266.84" r="4.97208" fill="white"/>
</g>
<path d="M80.3725 321.999L87.7275 330.513L98.0975 326.148L92.2732 335.774L99.6282 344.288L88.6736 341.724L82.8492 351.349L81.9032 340.138L70.9486 337.574L81.3185 333.21L80.3725 321.999Z" fill="white"/>
<path d="M185.927 243.562L172.026 253.349L177.039 269.593L163.436 259.397L149.535 269.184L155.028 253.096L141.425 242.9L158.423 243.153L163.917 227.065L168.929 243.309L185.927 243.562Z" fill="white"/>
<path d="M414.722 42.0363L400.816 37.014L391.743 48.6873L392.222 33.9101L378.316 28.8878L392.518 24.7773L392.997 10.0001L401.296 22.2368L415.498 18.1262L406.424 29.7995L414.722 42.0363Z" fill="white"/>
<circle cx="323.319" cy="99.8401" r="4.97208" fill="white"/>
<path d="M325.253 268.934C325.428 269.943 325.751 270.9 326.2 271.784L81.4989 339.437L80.7001 336.547L325.253 268.934ZM336.771 257.1C336.287 257.03 335.791 256.992 335.287 256.992C334.769 256.992 334.259 257.031 333.762 257.105L322.001 110.283C322.422 110.336 322.851 110.367 323.287 110.367C323.873 110.367 324.446 110.314 325.005 110.219L336.771 257.1ZM314.825 105.852C315.386 106.688 316.068 107.435 316.845 108.07L164.627 251.085L162.572 248.899L314.825 105.852ZM396.127 33.5847L331.562 94.2419C330.976 93.4257 330.273 92.6994 329.475 92.0886L394.072 31.3992L396.127 33.5847Z" fill="white"/>
<circle cx="335.319" cy="266.84" r="4.97208" fill="white"/>
<defs>
<filter id="filter0_f_3_1299" x="60.9486" y="0" width="364.549" height="361.349" filterUnits="userSpaceOnUse" color-interpolation-filters="sRGB">
<feFlood flood-opacity="0" result="BackgroundImageFix"/>
<feBlend mode="normal" in="SourceGraphic" in2="BackgroundImageFix" result="shape"/>
<feGaussianBlur stdDeviation="5" result="effect1_foregroundBlur_3_1299"/>
</filter>
</defs>
</svg>
