<svg width="363" height="274" viewBox="0 0 363 274" fill="none" xmlns="http://www.w3.org/2000/svg">
<g opacity="0.2">
<path d="M258.083 15.8902C265.162 28.946 280.654 48.5254 303.517 61.6723C286.828 93.0696 254.446 129.171 196.463 158.495C202.655 161.945 210.573 168.377 205.97 174.175C201.392 179.939 177.074 192.675 160.982 200.538C158.244 201.875 155.171 199.547 155.679 196.543L158.006 182.794C158.179 181.774 158.763 180.869 159.622 180.292L181.306 165.734C176.109 168.076 170.73 170.367 165.16 172.595C159.625 174.81 153.281 173.408 149.104 169.153L139.037 158.897C135.004 154.787 133.611 148.747 135.8 143.42C138.814 136.088 142.624 128.021 147.231 119.582L127.618 146.921C127.014 147.761 126.092 148.317 125.067 148.458L111.253 150.357C108.233 150.772 106.002 147.627 107.424 144.932C115.784 129.092 129.269 105.18 135.172 100.785C141.297 96.2251 147.681 105 150.846 111.361C151.041 111.752 151.152 112.168 151.187 112.588C172.505 76.1735 208.086 34.8637 258.083 15.8902ZM236.7 51.341C224.669 53.9474 217.03 65.8125 219.636 77.843C222.243 89.8734 234.108 97.5128 246.138 94.9064C258.168 92.2999 265.808 80.4348 263.202 68.4044C260.595 56.374 248.73 48.7347 236.7 51.341ZM265.297 13.3421C281.681 7.98589 299.533 5.03392 318.857 5.36944C319.376 17.4622 316.294 35.0238 306.906 54.9178C286.24 42.9214 272.024 25.2799 265.297 13.3421Z" fill="white"/>
<path d="M59.0807 187.176C108.679 151.792 135.653 158.659 143.769 176.098C156.435 216.894 112.291 259.551 108.795 252.767C105.997 247.339 115.611 219.928 120.767 206.9C106.72 224.726 78.4863 258.197 77.9315 249.474C77.3768 240.751 96.0014 212.271 105.383 199.121C84.5927 216.499 43.0906 248.362 43.4051 236.781C43.7197 225.2 72.1989 200.647 86.3992 189.818C56.627 203.681 9.48228 222.561 59.0807 187.176Z" fill="white"/>
</g>
<g filter="url(#filter0_f_3_1299)">
<path d="M60.6209 242.867L66.1684 249.288L73.9899 245.997L69.5969 253.257L75.1445 259.679L66.8819 257.744L62.489 265.005L61.7754 256.549L53.5129 254.614L61.3344 251.323L60.6209 242.867Z" fill="white"/>
<path d="M140.235 183.706L129.751 191.088L133.531 203.34L123.271 195.65L112.787 203.032L116.93 190.897L106.67 183.207L119.491 183.398L123.634 171.263L127.414 183.516L140.235 183.706Z" fill="white"/>
<path d="M312.804 31.7057L302.315 27.9177L295.471 36.7223L295.833 25.5766L285.344 21.7885L296.056 18.6882L296.418 7.54246L302.677 16.772L313.388 13.6716L306.545 22.4762L312.804 31.7057Z" fill="white"/>
<circle cx="243.863" cy="75.3043" r="3.75018" fill="white"/>
<path d="M245.322 202.843C245.454 203.604 245.697 204.327 246.036 204.993L61.4714 256.021L60.8679 253.839L245.322 202.843ZM254.01 193.917C253.644 193.864 253.27 193.836 252.889 193.836C252.499 193.836 252.115 193.865 251.74 193.921L242.87 83.1808C243.187 83.2207 243.51 83.2443 243.839 83.2443C244.28 83.2443 244.713 83.2036 245.135 83.132L254.01 193.917ZM237.456 79.839C237.879 80.4692 238.394 81.0326 238.98 81.5118L124.17 189.381L123.395 188.556L122.621 187.732L237.456 79.839ZM298.778 25.3312L250.081 71.0822C249.638 70.4661 249.107 69.918 248.506 69.4572L297.229 23.6827L298.778 25.3312Z" fill="white"/>
<circle cx="252.914" cy="201.264" r="3.75018" fill="white"/>
</g>
<path d="M60.6209 242.867L66.1684 249.288L73.9899 245.997L69.5969 253.257L75.1445 259.679L66.8819 257.744L62.489 265.005L61.7754 256.549L53.5129 254.614L61.3344 251.323L60.6209 242.867Z" fill="white"/>
<path d="M140.235 183.706L129.751 191.088L133.531 203.34L123.271 195.65L112.787 203.032L116.93 190.897L106.67 183.207L119.491 183.398L123.634 171.263L127.414 183.516L140.235 183.706Z" fill="white"/>
<path d="M312.804 31.7057L302.315 27.9177L295.471 36.7223L295.833 25.5766L285.344 21.7885L296.056 18.6882L296.418 7.54246L302.677 16.772L313.388 13.6716L306.545 22.4762L312.804 31.7057Z" fill="white"/>
<circle cx="243.863" cy="75.3043" r="3.75018" fill="white"/>
<path d="M245.322 202.843C245.454 203.604 245.697 204.327 246.036 204.993L61.4714 256.021L60.8679 253.839L245.322 202.843ZM254.01 193.917C253.644 193.864 253.27 193.836 252.889 193.836C252.499 193.836 252.115 193.865 251.74 193.921L242.87 83.1808C243.187 83.2207 243.51 83.2443 243.839 83.2443C244.28 83.2443 244.713 83.2036 245.135 83.132L254.01 193.917ZM237.456 79.839C237.879 80.4692 238.394 81.0326 238.98 81.5118L124.17 189.381L123.395 188.556L122.621 187.732L237.456 79.839ZM298.778 25.3312L250.081 71.0822C249.638 70.4661 249.107 69.918 248.506 69.4572L297.229 23.6827L298.778 25.3312Z" fill="white"/>
<circle cx="252.914" cy="201.264" r="3.75018" fill="white"/>
<defs>
<filter id="filter0_f_3_1299" x="45.9705" y="-3.8147e-06" width="274.96" height="272.547" filterUnits="userSpaceOnUse" color-interpolation-filters="sRGB">
<feFlood flood-opacity="0" result="BackgroundImageFix"/>
<feBlend mode="normal" in="SourceGraphic" in2="BackgroundImageFix" result="shape"/>
<feGaussianBlur stdDeviation="3.77124" result="effect1_foregroundBlur_3_1299"/>
</filter>
</defs>
</svg>
