<svg width="282" height="247" viewBox="0 0 282 247" fill="none" xmlns="http://www.w3.org/2000/svg">
<g opacity="0.2">
<path d="M229.812 114.293C233.888 113.431 237.892 116.038 238.752 120.115L251.382 179.985C268.365 181.442 281.695 195.686 281.695 213.046C281.695 231.375 266.836 246.233 248.508 246.234C230.179 246.234 215.321 231.375 215.321 213.046C215.322 200.748 222.011 190.012 231.95 184.279L230.457 178.015C229.102 172.333 222.081 170.282 217.88 174.341L198.686 192.888C195.92 195.561 195.608 199.887 197.963 202.929L199.381 204.761C201.448 207.431 201.488 211.15 199.48 213.865L191.184 225.075C189.762 226.997 187.512 228.131 185.121 228.131H113.483C112.743 228.131 112.006 228.022 111.298 227.808L91.672 221.868C87.4047 220.577 85.1831 215.886 86.8878 211.766L87.4474 210.411C86.6864 209.472 86.1689 208.307 85.9894 207.053C84.9325 199.669 81.8061 192.691 76.9181 186.955C70.8047 179.782 62.3349 175.021 53.0294 173.528C43.724 172.034 34.1899 173.905 26.1388 178.804C19.7014 182.721 14.5484 188.371 11.2335 195.053C9.85074 197.841 6.69974 199.472 3.74426 198.498C0.788707 197.524 -0.846045 194.321 0.448364 191.491C4.66284 182.278 11.5532 174.488 20.2814 169.177C30.6212 162.885 42.8649 160.482 54.8156 162.401C66.7662 164.319 77.6431 170.433 85.4943 179.645C90.0857 185.032 93.4654 191.274 95.4816 197.948C96.2171 197.711 96.997 197.584 97.797 197.584H160.574C162.549 197.584 164.445 196.809 165.855 195.427L219.215 143.1C221.022 141.328 221.82 138.767 221.339 136.281L218.992 124.158C218.21 120.119 220.811 116.198 224.837 115.346L229.812 114.293ZM248.885 200.602C242.012 200.602 236.44 206.174 236.44 213.047C236.44 219.92 242.012 225.491 248.885 225.491C255.758 225.491 261.33 219.92 261.33 213.047C261.33 206.174 255.758 200.602 248.885 200.602Z" fill="white"/>
<path d="M46.7467 179.105C65.2834 179.106 80.3102 194.133 80.3102 212.67C80.31 231.207 65.2833 246.233 46.7467 246.233C28.2099 246.233 13.1825 231.207 13.1823 212.67C13.1823 194.133 28.2098 179.105 46.7467 179.105ZM46.7467 197.207C38.2072 197.207 31.2838 204.299 31.2838 213.047C31.2839 221.795 38.2073 228.886 46.7467 228.886C55.2859 228.886 62.2085 221.794 62.2086 213.047C62.2086 204.299 55.286 197.207 46.7467 197.207Z" fill="white"/>
<path d="M202.281 34.196L222.155 125.614C222.976 129.391 226.601 131.871 230.418 131.268C234.522 130.62 237.256 126.68 236.427 122.609L219.05 37.3038C218.097 32.6292 221.67 28.2558 226.44 28.2558H226.635C230.8 28.2558 234.177 24.8789 234.177 20.7133V13.1555C234.177 8.85129 230.581 5.41979 226.281 5.62133L193.094 7.17697C189.071 7.36559 185.905 10.6829 185.905 14.7112V20.7133C185.905 24.8789 189.282 28.2558 193.448 28.2558H194.911C198.459 28.2558 201.528 30.7288 202.281 34.196Z" fill="white"/>
</g>
<g filter="url(#filter0_f_9_412)">
<path d="M223.619 19.6171L214.656 22.657L214.683 31.9984L209.116 24.5358L200.153 27.5758L205.676 19.9237L200.108 12.4612L209.089 15.1945L214.611 7.54238L214.639 16.8837L223.619 19.6171Z" fill="white"/>
<path d="M64.5783 211.646L55.1769 210.553L51.1996 219.005L49.3665 209.877L39.965 208.784L48.2335 204.236L46.4004 195.107L53.3438 201.425L61.6123 196.877L57.635 205.329L64.5783 211.646Z" fill="white"/>
<path d="M267.203 229.897L253.745 223.35L243.39 233.885L245.427 219.304L231.968 212.757L246.685 210.292L248.722 195.711L255.781 208.769L270.499 206.305L260.144 216.839L267.203 229.897Z" fill="white"/>
<path d="M107.582 73.0701L99.9089 73.6571L98.0469 81.0202L95.1668 74.0198L87.4939 74.6067L93.3868 69.6933L90.5068 62.6929L97.0289 66.6566L102.922 61.7432L101.06 69.1063L107.582 73.0701Z" fill="white"/>
<path d="M251.943 214.865L251.165 215.686L250.386 216.507L178.912 148.721C179.539 148.294 180.098 147.77 180.569 147.172L251.943 214.865ZM98.4539 69.2952L169.814 136.973C169.262 137.492 168.79 138.096 168.414 138.764L98.1775 72.1506L51.6062 208.886L49.4636 208.156L96.6042 69.7512L97.1736 68.0813L98.4539 69.2952ZM212.276 17.259L177.732 135.592C177.049 135.292 176.313 135.094 175.542 135.018L210.104 16.6243L212.276 17.259Z" fill="white"/>
<ellipse cx="174.84" cy="142.988" rx="3.59842" ry="3.66122" fill="white"/>
</g>
<path d="M223.619 19.6171L214.656 22.657L214.683 31.9984L209.116 24.5358L200.153 27.5758L205.676 19.9237L200.108 12.4612L209.089 15.1945L214.611 7.54238L214.639 16.8837L223.619 19.6171Z" fill="white"/>
<path d="M64.5783 211.646L55.1769 210.553L51.1996 219.005L49.3665 209.877L39.965 208.784L48.2335 204.236L46.4004 195.107L53.3438 201.425L61.6123 196.877L57.635 205.329L64.5783 211.646Z" fill="white"/>
<path d="M267.203 229.897L253.745 223.35L243.39 233.885L245.427 219.304L231.968 212.757L246.685 210.292L248.722 195.711L255.781 208.769L270.499 206.305L260.144 216.839L267.203 229.897Z" fill="white"/>
<path d="M107.582 73.0701L99.9089 73.6571L98.0469 81.0202L95.1668 74.0198L87.4939 74.6067L93.3868 69.6933L90.5068 62.6929L97.0289 66.6566L102.922 61.7432L101.06 69.1063L107.582 73.0701Z" fill="white"/>
<path d="M251.943 214.865L251.165 215.686L250.386 216.507L178.912 148.721C179.539 148.294 180.098 147.77 180.569 147.172L251.943 214.865ZM98.4539 69.2952L169.814 136.973C169.262 137.492 168.79 138.096 168.414 138.764L98.1775 72.1506L51.6062 208.886L49.4636 208.156L96.6042 69.7512L97.1736 68.0813L98.4539 69.2952ZM212.276 17.259L177.732 135.592C177.049 135.292 176.313 135.094 175.542 135.018L210.104 16.6243L212.276 17.259Z" fill="white"/>
<ellipse cx="174.84" cy="142.988" rx="3.59842" ry="3.66122" fill="white"/>
<defs>
<filter id="filter0_f_9_412" x="32.4225" y="-3.8147e-06" width="245.619" height="241.427" filterUnits="userSpaceOnUse" color-interpolation-filters="sRGB">
<feFlood flood-opacity="0" result="BackgroundImageFix"/>
<feBlend mode="normal" in="SourceGraphic" in2="BackgroundImageFix" result="shape"/>
<feGaussianBlur stdDeviation="3.77124" result="effect1_foregroundBlur_9_412"/>
</filter>
</defs>
</svg>
