<svg width="374" height="327" viewBox="0 0 374 327" fill="none" xmlns="http://www.w3.org/2000/svg">
<g opacity="0.2">
<path fill-rule="evenodd" clip-rule="evenodd" d="M304.689 151.533C310.094 150.39 315.402 153.847 316.542 159.253L333.288 238.628C355.804 240.56 373.477 259.446 373.477 282.463C373.477 306.763 353.777 326.463 329.477 326.463C305.177 326.463 285.477 306.763 285.477 282.463C285.477 266.157 294.347 251.921 307.526 244.32L305.545 236.017C303.748 228.483 294.439 225.764 288.869 231.145L263.421 255.735C259.754 259.279 259.341 265.016 262.463 269.049L264.343 271.477C267.084 275.018 267.138 279.949 264.475 283.548L253.475 298.411C251.589 300.959 248.607 302.463 245.437 302.463H150.457C149.476 302.463 148.5 302.318 147.561 302.034L121.54 294.159C115.883 292.447 112.938 286.227 115.198 280.765L115.94 278.969C114.931 277.724 114.244 276.18 114.006 274.517C112.605 264.726 108.46 255.474 101.979 247.87C93.8736 238.36 82.6454 232.049 70.308 230.068C57.9703 228.088 45.3302 230.568 34.6556 237.063C26.1203 242.257 19.2879 249.747 14.8929 258.607C13.0594 262.303 8.88163 264.466 4.96322 263.175C1.045 261.883 -1.12174 257.637 0.594083 253.885C6.18167 241.669 15.317 231.342 26.889 224.3C40.598 215.958 56.8304 212.772 72.6751 215.315C88.5201 217.859 102.94 225.965 113.35 238.179C119.438 245.322 123.919 253.597 126.592 262.446C127.567 262.131 128.601 261.963 129.661 261.963H212.892C215.51 261.963 218.024 260.936 219.894 259.102L290.64 189.726C293.036 187.376 294.094 183.98 293.456 180.685L290.345 164.612C289.308 159.256 292.756 154.058 298.093 152.929L304.689 151.533ZM329.977 265.963C320.864 265.963 313.477 273.35 313.477 282.463C313.477 291.575 320.865 298.963 329.977 298.963C339.089 298.963 346.477 291.575 346.477 282.463C346.477 273.35 339.09 265.963 329.977 265.963Z" fill="white"/>
<path d="M61.9774 237.462C86.554 237.462 106.477 257.386 106.477 281.962C106.477 306.539 86.554 326.462 61.9774 326.462C37.4007 326.462 17.4774 306.539 17.4774 281.962C17.4774 257.386 37.4007 237.462 61.9774 237.462ZM61.9774 261.462C50.6555 261.462 41.4774 270.864 41.4774 282.462C41.4774 294.06 50.6555 303.462 61.9774 303.462C73.2992 303.462 82.4774 294.06 82.4774 282.462C82.4774 270.864 73.2992 261.462 61.9774 261.462Z" fill="white"/>
<path d="M268.19 45.3381L294.538 166.542C295.627 171.55 300.433 174.838 305.494 174.039C310.935 173.18 314.559 167.956 313.46 162.559L290.421 49.4584C289.159 43.2607 293.895 37.4624 300.22 37.4624H300.477C306 37.4624 310.477 32.9852 310.477 27.4624V17.4421C310.477 11.7355 305.71 7.18589 300.009 7.4531L256.009 9.5156C250.674 9.76568 246.477 14.1638 246.477 19.5046V27.4624C246.477 32.9852 250.955 37.4624 256.477 37.4624H258.418C263.122 37.4624 267.19 40.7412 268.19 45.3381Z" fill="white"/>
</g>
<g filter="url(#filter0_f_9_412)">
<path d="M296.48 26.0089L284.596 30.0394L284.632 42.4244L277.251 32.5303L265.367 36.5608L272.689 26.4155L265.308 16.5214L277.215 20.1453L284.537 10L284.573 22.385L296.48 26.0089Z" fill="white"/>
<path d="M85.6195 280.606L73.1548 279.156L67.8816 290.362L65.4513 278.26L52.9866 276.811L63.9492 270.781L61.5188 258.678L70.7245 267.054L81.6871 261.024L76.4139 272.23L85.6195 280.606Z" fill="white"/>
<path d="M354.265 304.803L336.421 296.123L322.692 310.09L325.392 290.758L307.548 282.078L327.061 278.811L329.762 259.479L339.121 276.791L358.634 273.524L344.905 287.491L354.265 304.803Z" fill="white"/>
<path d="M142.635 96.8783L132.462 97.6565L129.993 107.419L126.174 98.1374L116.002 98.9156L123.815 92.4012L119.996 83.1199L128.643 88.3751L136.456 81.8608L133.987 91.623L142.635 96.8783Z" fill="white"/>
<path d="M334.032 284.875L331.968 287.05L237.205 197.177C238.036 196.611 238.777 195.918 239.401 195.126L334.032 284.875ZM130.532 91.8745L225.143 181.603C224.411 182.291 223.784 183.091 223.286 183.977L130.165 95.6597L68.4199 276.946L65.5801 275.979L128.08 92.479L128.835 90.2642L130.532 91.8745ZM281.439 22.8823L235.64 179.771C234.735 179.374 233.76 179.113 232.738 179.011L278.561 22.0425L281.439 22.8823Z" fill="white"/>
<ellipse cx="231.807" cy="189.577" rx="4.77087" ry="4.85413" fill="white"/>
</g>
<path d="M296.48 26.0089L284.596 30.0394L284.632 42.4244L277.251 32.5303L265.367 36.5608L272.689 26.4155L265.308 16.5214L277.215 20.1453L284.537 10L284.573 22.385L296.48 26.0089Z" fill="white"/>
<path d="M85.6195 280.606L73.1548 279.156L67.8816 290.362L65.4513 278.26L52.9866 276.811L63.9492 270.781L61.5188 258.678L70.7245 267.054L81.6871 261.024L76.4139 272.23L85.6195 280.606Z" fill="white"/>
<path d="M354.265 304.803L336.421 296.123L322.692 310.09L325.392 290.758L307.548 282.078L327.061 278.811L329.762 259.479L339.121 276.791L358.634 273.524L344.905 287.491L354.265 304.803Z" fill="white"/>
<path d="M142.635 96.8783L132.462 97.6565L129.993 107.419L126.174 98.1374L116.002 98.9156L123.815 92.4012L119.996 83.1199L128.643 88.3751L136.456 81.8608L133.987 91.623L142.635 96.8783Z" fill="white"/>
<path d="M334.032 284.875L331.968 287.05L237.205 197.177C238.036 196.611 238.777 195.918 239.401 195.126L334.032 284.875ZM130.532 91.8745L225.143 181.603C224.411 182.291 223.784 183.091 223.286 183.977L130.165 95.6597L68.4199 276.946L65.5801 275.979L128.08 92.479L128.835 90.2642L130.532 91.8745ZM281.439 22.8823L235.64 179.771C234.735 179.374 233.76 179.113 232.738 179.011L278.561 22.0425L281.439 22.8823Z" fill="white"/>
<ellipse cx="231.807" cy="189.577" rx="4.77087" ry="4.85413" fill="white"/>
<defs>
<filter id="filter0_f_9_412" x="42.9866" y="0" width="325.647" height="320.09" filterUnits="userSpaceOnUse" color-interpolation-filters="sRGB">
<feFlood flood-opacity="0" result="BackgroundImageFix"/>
<feBlend mode="normal" in="SourceGraphic" in2="BackgroundImageFix" result="shape"/>
<feGaussianBlur stdDeviation="5" result="effect1_foregroundBlur_9_412"/>
</filter>
</defs>
</svg>
