<svg width="327" height="245" viewBox="0 0 327 245" fill="none" xmlns="http://www.w3.org/2000/svg">
<g opacity="0.2">
<path d="M27.143 193.473C26.9627 196.943 26.8275 200.367 26.6473 203.882C35.9299 205.64 44.807 205.414 53.6841 203.837C65.2197 201.764 76.0795 197.709 85.6775 190.995C89.688 188.201 92.9775 184.416 96.8527 181.352C98.7904 179.774 101.134 178.648 103.387 177.612C113.841 172.79 123.619 166.887 132.992 160.308C141.553 154.27 149.529 147.511 157.055 140.211C165.661 131.874 173.772 123.132 181.298 113.85C189.949 103.17 198.511 92.4007 207.208 81.7662C218.924 67.3917 231.631 54.0536 247.177 43.6895C253.035 39.7241 259.073 36.1192 264.841 32.0637C267.319 30.3063 269.437 27.9631 271.465 25.71C274.304 22.6008 276.151 18.9959 275.34 13.7688C277.819 15.391 279.846 16.5626 281.649 17.9595C289.85 24.2681 297.015 31.4779 301.972 40.6704C307.109 50.2234 308.1 60.0016 304.044 70.2305C299.854 80.8199 293.004 89.4717 284.443 96.8617C273.403 106.37 261.011 113.67 247.943 119.888C240.418 123.493 232.757 126.918 225.097 130.252C218.608 133.091 213.156 137.327 208.064 142.058C197.249 152.062 189.048 164.093 181.117 176.395C173.637 188.021 166.157 199.692 158.271 211.047C153.585 217.851 147.592 223.574 140.292 227.63C131.82 232.316 122.853 235.786 113.525 238.219C100.863 241.508 87.9757 243.806 74.9079 244.347C64.4086 244.798 53.8192 245.203 43.32 244.888C32.9108 244.573 22.4566 243.581 12.453 240.157C10.6055 239.526 8.80305 238.76 7.09072 237.858C2.8099 235.56 0.511778 230.333 1.00745 225.557C2.08892 214.967 8.66786 207.757 15.9227 201.088C19.1671 198.069 22.9973 195.681 26.5572 193.022C26.7374 193.203 26.9177 193.338 27.143 193.473Z" fill="white"/>
<path d="M100.999 172.159C104.649 165.265 105.865 158.821 102.756 152.333C99.3765 145.258 92.9327 144.086 85.768 145.078C85.7229 144.897 85.6779 144.717 85.6328 144.537C87.1649 143.365 88.7871 142.284 90.2741 141.022C99.9172 133.001 109.966 125.386 119.113 116.869C128.666 107.947 137.679 98.3942 146.375 88.6159C159.308 74.016 171.61 58.9205 184.407 44.1855C191.121 36.435 197.88 28.6844 205.225 21.6098C215.544 11.6963 227.756 5.16244 242.266 3.5853C250.151 2.72913 257.767 3.40505 265.202 6.28897C269.302 7.86611 271.961 10.9753 271.646 14.3099C271.375 17.5092 269.798 20.0777 267.59 22.3758C262.588 27.5579 256.55 31.298 250.332 34.7677C240.328 40.3102 231.406 47.2947 223.205 55.2255C209.822 68.1581 198.917 83.2085 187.291 97.6281C179.946 106.776 172.421 115.788 164.67 124.62C152.143 138.904 137.588 150.845 121.592 160.984C115.779 164.679 109.696 167.924 103.747 171.303C103.117 171.619 102.305 171.754 100.999 172.159Z" fill="white"/>
<path d="M300.349 87.9401C299.313 91.3197 298.547 94.8796 297.15 98.0789C292.238 109.299 287.417 120.564 282.009 131.559C274.484 146.97 266.869 162.291 260.921 178.378C257 188.967 254.071 199.872 253.35 211.228C253.305 211.768 253.035 212.309 253.125 212.76C254.026 216.725 251.458 217.897 248.394 218.888C238.886 222.042 229.288 222.899 219.464 220.691C217.977 220.375 217.437 219.834 217.617 218.122C218.473 210.867 219.239 203.612 219.87 196.358C220.861 185.182 219.825 174.097 217.932 163.147C216.986 157.605 215.229 152.152 213.651 146.745C212.75 143.636 212.525 142.96 215.274 141.293C220.591 138.093 225.953 134.984 231.541 132.28C248.979 123.854 266.779 116.058 282.235 104.117C288.138 99.5209 293.23 93.8432 298.682 88.6611C298.997 88.3457 299.268 88.0303 299.538 87.7148C299.809 87.7599 300.079 87.85 300.349 87.9401Z" fill="white"/>
<path d="M71.6634 155.802C75.4936 154.856 79.3689 153.639 83.3343 152.963C86.1281 152.468 89.012 152.513 91.6706 153.91C94.9601 155.622 96.4471 158.416 96.7625 162.066C97.3483 168.96 94.3292 174.367 89.8231 179.144C80.7658 188.742 69.3202 193.969 56.6129 196.492C51.0704 197.574 45.4378 198.07 39.8051 198.746C37.8675 198.971 35.9298 198.881 33.9922 198.746C33.5866 198.7 32.9107 197.619 33.0009 197.123C34.0373 191.265 34.9385 185.407 36.3804 179.64C38.6335 170.447 42.1483 161.75 47.9161 154.135C50.6198 150.53 53.5488 147.195 57.6494 145.168C63.6876 142.149 69.0949 144.627 70.8072 151.161C71.2128 152.738 71.393 154.405 71.6634 155.802Z" fill="white"/>
</g>
<g filter="url(#filter0_f_92_13089)">
<path fill-rule="evenodd" clip-rule="evenodd" d="M191.75 41.1777L189.475 38.0835L189.051 41.9007C187.177 58.7693 183.382 95.1756 182.194 114.615C183.056 113.889 184.119 113.393 185.288 113.222C186.477 94.967 189.694 63.618 191.612 46.0537L210.722 72.0434C211.211 71.1291 211.922 70.3514 212.783 69.7825L191.75 41.1777ZM192.342 120.251C192.195 121.283 191.794 122.233 191.205 123.036L239.148 138.755C239.361 137.733 239.826 136.803 240.474 136.033L192.342 120.251ZM285.975 42.6309L248.541 134.776C247.703 134.246 246.73 133.912 245.685 133.836L281.699 45.1867L222.412 74.8301C222.389 73.7595 222.094 72.7557 221.595 71.8845L283.914 40.7247L287.472 38.9459L285.975 42.6309Z" fill="white"/>
<circle cx="216.281" cy="75.1201" r="4.14862" fill="white"/>
<circle cx="185.289" cy="119.534" r="4.14862" fill="white"/>
<circle cx="245.2" cy="139.744" r="4.14862" fill="white"/>
<path d="M261.158 41.4075L280.813 32.3898L278.31 10.9102L292.96 26.8166L312.615 17.7989L302.014 36.6473L316.664 52.5537L295.463 48.2962L284.862 67.1446L282.359 45.665L261.158 41.4075Z" fill="white"/>
<path d="M167.68 37.4087L181.451 31.0905L179.698 16.0408L189.962 27.1856L203.733 20.8674L196.306 34.0735L206.571 45.2183L191.716 42.2353L184.288 55.4414L182.535 40.3917L167.68 37.4087Z" fill="white"/>
</g>
<path fill-rule="evenodd" clip-rule="evenodd" d="M191.75 41.1777L189.475 38.0835L189.051 41.9007C187.177 58.7693 183.382 95.1756 182.194 114.615C183.056 113.889 184.119 113.393 185.288 113.222C186.477 94.967 189.694 63.618 191.612 46.0537L210.722 72.0434C211.211 71.1291 211.922 70.3514 212.783 69.7825L191.75 41.1777ZM192.342 120.251C192.195 121.283 191.794 122.233 191.205 123.036L239.148 138.755C239.361 137.733 239.826 136.803 240.474 136.033L192.342 120.251ZM285.975 42.6309L248.541 134.776C247.703 134.246 246.73 133.912 245.685 133.836L281.699 45.1867L222.412 74.8301C222.389 73.7595 222.094 72.7557 221.595 71.8845L283.914 40.7247L287.472 38.9459L285.975 42.6309Z" fill="white"/>
<circle cx="216.281" cy="75.1201" r="4.14862" fill="white"/>
<circle cx="185.289" cy="119.534" r="4.14862" fill="white"/>
<circle cx="245.2" cy="139.744" r="4.14862" fill="white"/>
<path d="M261.158 41.4075L280.813 32.3898L278.31 10.9102L292.96 26.8166L312.615 17.7989L302.014 36.6473L316.664 52.5537L295.463 48.2962L284.862 67.1446L282.359 45.665L261.158 41.4075Z" fill="white"/>
<path d="M167.68 37.4087L181.451 31.0905L179.698 16.0408L189.962 27.1856L203.733 20.8674L196.306 34.0735L206.571 45.2183L191.716 42.2353L184.288 55.4414L182.535 40.3917L167.68 37.4087Z" fill="white"/>
<defs>
<filter id="filter0_f_92_13089" x="157.68" y="0.910156" width="168.984" height="152.982" filterUnits="userSpaceOnUse" color-interpolation-filters="sRGB">
<feFlood flood-opacity="0" result="BackgroundImageFix"/>
<feBlend mode="normal" in="SourceGraphic" in2="BackgroundImageFix" result="shape"/>
<feGaussianBlur stdDeviation="5" result="effect1_foregroundBlur_92_13089"/>
</filter>
</defs>
</svg>
