<svg width="401" height="376" viewBox="0 0 401 376" fill="none" xmlns="http://www.w3.org/2000/svg">
<path opacity="0.2" d="M283.693 27.6352C286.669 26.641 294.406 24.7519 301.548 25.1496C308.69 25.5473 310.144 22.3325 309.979 20.6753C311.467 22.9953 312.856 29.0271 306.507 34.595C307.003 37.4121 309.185 44.1399 313.947 48.5147C314.443 48.8461 314.641 50.0061 311.467 51.9946C311.302 54.4803 311.368 59.9487 312.955 61.9372C314.939 64.4229 303.531 64.4229 304.027 69.3942C304.424 73.3713 308.16 78.3426 309.979 80.3311C316.923 75.3598 333.091 66.2126 342.217 69.3942C343.043 70.3885 344.201 73.073 342.217 75.8569C347.011 70.057 359.774 58.5567 372.471 58.9544C373.297 54.3146 376.934 43.5434 384.87 37.5778C392.805 31.6122 391.152 26.4752 389.334 24.6524C384.209 22.9953 375.05 17.1954 379.414 7.25279C384.87 -5.17549 400.741 0.790082 399.749 7.25279C398.757 13.7155 403.717 18.6868 398.757 46.5262C393.797 74.3656 393.301 71.8799 391.317 73.3713C389.334 74.8627 372.967 83.8111 368.503 90.7709C364.039 97.7307 346.185 104.193 344.697 106.679C343.209 109.165 334.777 130.044 326.346 139.987C317.914 149.93 319.402 184.232 322.874 185.226C326.346 186.22 387.846 225.493 390.326 245.379C392.805 265.264 368.503 260.79 354.12 271.23C339.737 281.669 319.898 282.664 315.931 287.635C311.963 292.606 302.044 313.983 301.052 322.931C300.06 331.88 282.701 316.469 291.132 293.103C289.479 289.789 286.569 281.57 288.156 275.207C290.14 267.253 301.052 275.704 309.483 271.23C316.228 267.65 334.116 249.853 342.217 241.402C329.983 236.762 304.623 227.184 301.052 225.991C296.588 224.499 287.165 226.488 281.213 235.436C275.261 244.384 254.431 268.744 247.983 275.207C241.536 281.669 245.007 285.149 242.032 290.618C239.056 296.086 224.177 320.943 219.713 325.417C215.249 329.891 208.802 342.816 207.81 348.285C206.818 353.753 205.826 368.17 197.395 372.644C188.963 377.119 176.564 377.119 177.06 372.644C177.556 368.17 192.435 346.296 194.915 338.342C197.395 330.388 207.81 286.144 218.721 273.715C229.632 261.287 231.616 248.859 235.088 240.905C238.56 232.95 248.479 206.105 256.415 195.666C264.35 185.226 269.806 151.918 257.903 138.495C248.743 128.166 247.109 123.449 247.439 122.22C246.03 125.938 240.301 134.484 228.145 139.987C228.475 145.29 230.327 156.79 235.088 160.369C235.915 157.718 239.75 153.012 248.479 155.398C259.39 158.381 256.415 175.283 244.511 176.277C232.608 177.272 200.37 152.912 205.33 138.495C210.29 124.079 210.786 130.541 216.737 120.102C222.689 109.662 228.145 110.159 228.145 109.165C228.145 108.17 232.608 80.3311 262.862 81.3254C255.423 78.3426 237.667 76.3541 226.161 92.2623C211.778 112.148 214.753 107.673 206.818 115.627C198.883 123.582 186.483 142.473 206.818 162.855C227.153 183.237 238.853 187.712 250.959 183.237C246.33 195.666 235.088 222.212 227.153 228.973C217.233 237.425 175.076 265.264 169.125 279.184C163.173 293.103 149.782 315.971 150.278 323.428C144.657 315.309 135.796 292.706 145.318 267.253C154.841 241.799 129.778 218.202 116.056 209.585C129.117 206.768 155.634 200.239 157.221 196.66C159.205 192.186 129.943 194.174 107.129 205.111C84.3143 216.048 52.5725 173.792 63.4837 159.872C72.2127 148.736 96.2175 144.627 107.129 143.964C93.903 142.638 67.0546 139.39 65.4676 137.004C63.4837 134.021 47.6128 87.291 0 93.7537C6.11692 85.4682 30.1987 63.1485 67.4514 77.3483C102.665 90.7709 120.024 99.2221 151.766 103.199C183.508 107.176 225.665 72.8742 241.04 71.8799C256.415 70.8856 267.326 74.3656 273.277 77.8455C275.923 75.8569 280.32 69.8913 276.749 61.9372C272.286 51.9946 263.358 34.5951 283.693 27.6352Z" fill="white"/>
<g filter="url(#filter0_f_9_534)">
<path d="M247.909 229.99L251.269 256.457L277.479 261.441L253.345 272.815L256.705 299.283L238.429 279.845L214.296 291.219L227.135 267.831L208.86 248.393L235.07 253.377L247.909 229.99Z" fill="white"/>
<path d="M288.813 97.4291L300.742 106.035L312.613 97.349L308.115 111.354L320.044 119.96L305.335 120.009L300.836 134.014L296.244 120.04L281.534 120.089L293.405 111.403L288.813 97.4291Z" fill="white"/>
<path d="M142.898 147.706L151.586 153.973L160.23 147.648L156.955 157.846L165.642 164.113L154.93 164.149L151.654 174.348L148.31 164.172L137.598 164.208L146.243 157.882L142.898 147.706Z" fill="white"/>
<circle cx="320.167" cy="147.342" r="5.16739" fill="white"/>
<path d="M159.432 130.198C160.244 130.78 161.141 131.249 162.102 131.584L150.748 158.707L243.297 262.565L314.982 157.123C315.913 157.573 316.92 157.891 317.979 158.053L244.697 265.844L243.616 267.434L242.337 265.998L147.88 159.998L147.251 159.292L147.616 158.421L159.432 130.198ZM302.417 110.236L318.287 137.082C317.233 137.211 316.227 137.495 315.292 137.91L300.308 112.563L176.172 121.677C176.172 121.647 176.175 121.618 176.175 121.588C176.175 120.586 176.033 119.617 175.772 118.698L301.016 109.504L301.943 109.436L302.417 110.236Z" fill="white"/>
<circle cx="166.167" cy="121.342" r="5.16739" fill="white"/>
</g>
<path d="M247.909 229.99L251.269 256.457L277.479 261.441L253.345 272.815L256.705 299.283L238.429 279.845L214.296 291.219L227.135 267.831L208.86 248.393L235.07 253.377L247.909 229.99Z" fill="white"/>
<path d="M288.813 97.4291L300.742 106.035L312.613 97.349L308.115 111.354L320.044 119.96L305.335 120.009L300.836 134.014L296.244 120.04L281.534 120.089L293.405 111.403L288.813 97.4291Z" fill="white"/>
<path d="M142.898 147.706L151.586 153.973L160.23 147.648L156.955 157.846L165.642 164.113L154.93 164.149L151.654 174.348L148.31 164.172L137.598 164.208L146.243 157.882L142.898 147.706Z" fill="white"/>
<circle cx="320.167" cy="147.342" r="5.16739" fill="white"/>
<path d="M159.432 130.198C160.244 130.78 161.141 131.249 162.102 131.584L150.748 158.707L243.297 262.565L314.982 157.123C315.913 157.573 316.92 157.891 317.979 158.053L244.697 265.844L243.616 267.434L242.337 265.998L147.88 159.998L147.251 159.292L147.616 158.421L159.432 130.198ZM302.417 110.236L318.287 137.082C317.233 137.211 316.227 137.495 315.292 137.91L300.308 112.563L176.172 121.677C176.172 121.647 176.175 121.618 176.175 121.588C176.175 120.586 176.033 119.617 175.772 118.698L301.016 109.504L301.943 109.436L302.417 110.236Z" fill="white"/>
<circle cx="166.167" cy="121.342" r="5.16739" fill="white"/>
<defs>
<filter id="filter0_f_9_534" x="127.598" y="87.3489" width="207.737" height="221.934" filterUnits="userSpaceOnUse" color-interpolation-filters="sRGB">
<feFlood flood-opacity="0" result="BackgroundImageFix"/>
<feBlend mode="normal" in="SourceGraphic" in2="BackgroundImageFix" result="shape"/>
<feGaussianBlur stdDeviation="5" result="effect1_foregroundBlur_9_534"/>
</filter>
</defs>
</svg>
