<svg width="303" height="284" viewBox="0 0 303 284" fill="none" xmlns="http://www.w3.org/2000/svg">
<path opacity="0.2" d="M213.975 20.8438C216.219 20.0939 222.055 18.6691 227.442 18.969C232.829 19.269 233.926 16.8442 233.801 15.5943C234.923 17.3442 235.971 21.8937 231.183 26.0932C231.557 28.218 233.203 33.2925 236.794 36.5921C237.168 36.8421 237.318 37.717 234.923 39.2169C234.799 41.0917 234.849 45.2162 236.046 46.7161C237.542 48.5909 228.938 48.5909 229.312 52.3405C229.611 55.3402 232.43 59.0898 233.801 60.5896C239.038 56.84 251.233 49.9407 258.117 52.3405C258.74 53.0904 259.613 55.1152 258.117 57.215C261.733 52.8404 271.359 44.1663 280.936 44.4663C281.559 40.9667 284.302 32.8425 290.288 28.343C296.273 23.8435 295.026 19.9689 293.654 18.594C289.789 17.3442 282.881 12.9696 286.173 5.47041C290.288 -3.90361 302.258 0.595918 301.51 5.47041C300.762 10.3449 304.503 14.0945 300.762 35.0923C297.021 56.0901 296.647 54.2153 295.151 55.3402C293.654 56.4651 281.31 63.2144 277.943 68.4638C274.576 73.7132 261.109 78.5877 259.987 80.4625C258.865 82.3373 252.505 98.0857 246.146 105.585C239.787 113.084 240.909 138.956 243.527 139.706C246.146 140.456 292.532 170.078 294.402 185.077C296.273 200.075 277.943 196.7 267.095 204.574C256.246 212.449 241.283 213.199 238.29 216.948C235.298 220.698 227.816 236.821 227.068 243.57C226.32 250.32 213.227 238.696 219.586 221.073C218.339 218.573 216.145 212.374 217.342 207.574C218.838 201.575 227.068 207.949 233.427 204.574C238.515 201.875 252.007 188.451 258.117 182.077C248.889 178.577 229.761 171.353 227.068 170.453C223.701 169.328 216.593 170.828 212.104 177.577C207.615 184.327 191.904 202.7 187.041 207.574C182.178 212.449 184.796 215.073 182.552 219.198C180.308 223.323 169.085 242.071 165.718 245.445C162.352 248.82 157.489 258.569 156.74 262.693C155.992 266.818 155.244 277.692 148.885 281.066C142.525 284.441 133.173 284.441 133.547 281.066C133.921 277.692 145.144 261.194 147.014 255.194C148.885 249.195 156.74 215.823 164.97 206.449C173.2 197.075 174.696 187.701 177.315 181.702C179.933 175.703 187.415 155.455 193.4 147.58C199.386 139.706 203.501 114.584 194.523 104.46C187.614 96.6692 186.381 93.1112 186.631 92.1841C185.568 94.9885 181.247 101.434 172.078 105.585C172.327 109.584 173.724 118.259 177.315 120.958C177.938 118.958 180.831 115.409 187.415 117.209C195.645 119.458 193.4 132.207 184.422 132.957C175.444 133.707 151.129 115.334 154.87 104.46C158.611 93.5862 158.985 98.4606 163.474 90.5865C167.963 82.7123 172.078 83.0873 172.078 82.3373C172.078 81.5874 175.444 60.5896 198.263 61.3396C192.652 59.0898 179.26 57.5899 170.581 69.5887C159.733 84.5871 161.977 81.2125 155.992 87.2118C150.007 93.2112 140.655 107.46 155.992 122.833C171.33 138.206 180.155 141.581 189.285 138.206C185.794 147.58 177.315 167.603 171.33 172.703C163.848 179.077 132.051 200.075 127.562 210.574C123.073 221.073 112.973 238.321 113.347 243.945C109.107 237.821 102.424 220.773 109.606 201.575C116.788 182.377 97.8848 164.579 87.5352 158.079C97.386 155.955 117.387 151.03 118.584 148.33C120.08 144.956 98.0095 146.456 80.8017 154.705C63.594 162.954 39.6527 131.082 47.8825 120.583C54.4664 112.184 72.5719 109.085 80.8017 108.585C70.8262 107.585 50.5758 105.135 49.3788 103.335C47.8825 101.085 35.9119 65.8391 0 70.7136C4.61368 64.4642 22.7773 47.6297 50.8751 58.3399C77.435 68.4638 90.5278 74.8381 114.469 77.8378C138.41 80.8375 170.207 54.9652 181.804 54.2153C193.4 53.4654 201.63 56.0901 206.119 58.7148C208.114 57.215 211.431 52.7154 208.738 46.7161C205.371 39.2169 198.638 26.0933 213.975 20.8438Z" fill="white"/>
<g filter="url(#filter0_f_9_534)">
<path d="M186.985 173.469L189.519 193.432L209.288 197.191L191.085 205.77L193.619 225.733L179.835 211.072L161.632 219.651L171.316 202.011L157.532 187.35L177.301 191.109L186.985 173.469Z" fill="white"/>
<path d="M217.837 73.4857L226.834 79.9767L235.788 73.4253L232.395 83.9884L241.393 90.4794L230.298 90.5168L226.905 101.08L223.441 90.5399L212.347 90.5772L221.301 84.0258L217.837 73.4857Z" fill="white"/>
<path d="M107.781 111.407L114.333 116.134L120.853 111.363L118.383 119.055L124.935 123.782L116.856 123.809L114.385 131.501L111.862 123.826L103.783 123.853L110.303 119.082L107.781 111.407Z" fill="white"/>
<circle cx="241.486" cy="111.132" r="3.8975" fill="white"/>
<path d="M120.25 98.2007C120.863 98.6398 121.54 98.9947 122.265 99.2476L113.702 119.705L183.507 198.04L237.575 118.509C238.277 118.849 239.036 119.09 239.834 119.211L184.563 200.511L183.747 201.71L182.783 200.628L111.539 120.678L111.064 120.146L111.339 119.488L120.25 98.2007ZM228.098 83.145L240.069 103.394C239.273 103.491 238.514 103.705 237.809 104.018L226.506 84.8999L132.878 91.7729C132.879 91.7512 132.88 91.7294 132.88 91.7075C132.88 90.9514 132.772 90.2201 132.576 89.5269L227.041 82.5933L227.741 82.5415L228.098 83.145Z" fill="white"/>
<circle cx="125.332" cy="91.5216" r="3.8975" fill="white"/>
</g>
<path d="M186.985 173.469L189.519 193.432L209.288 197.191L191.085 205.77L193.619 225.733L179.835 211.072L161.632 219.651L171.316 202.011L157.532 187.35L177.301 191.109L186.985 173.469Z" fill="white"/>
<path d="M217.837 73.4857L226.834 79.9767L235.788 73.4253L232.395 83.9884L241.393 90.4794L230.298 90.5168L226.905 101.08L223.441 90.5399L212.347 90.5772L221.301 84.0258L217.837 73.4857Z" fill="white"/>
<path d="M107.781 111.407L114.333 116.134L120.853 111.363L118.383 119.055L124.935 123.782L116.856 123.809L114.385 131.501L111.862 123.826L103.783 123.853L110.303 119.082L107.781 111.407Z" fill="white"/>
<circle cx="241.486" cy="111.132" r="3.8975" fill="white"/>
<path d="M120.25 98.2007C120.863 98.6398 121.54 98.9947 122.265 99.2476L113.702 119.705L183.507 198.04L237.575 118.509C238.277 118.849 239.036 119.09 239.834 119.211L184.563 200.511L183.747 201.71L182.783 200.628L111.539 120.678L111.064 120.146L111.339 119.488L120.25 98.2007ZM228.098 83.145L240.069 103.394C239.273 103.491 238.514 103.705 237.809 104.018L226.506 84.8999L132.878 91.7729C132.879 91.7512 132.88 91.7294 132.88 91.7075C132.88 90.9514 132.772 90.2201 132.576 89.5269L227.041 82.5933L227.741 82.5415L228.098 83.145Z" fill="white"/>
<circle cx="125.332" cy="91.5216" r="3.8975" fill="white"/>
<defs>
<filter id="filter0_f_9_534" x="96.2407" y="65.8828" width="156.685" height="167.393" filterUnits="userSpaceOnUse" color-interpolation-filters="sRGB">
<feFlood flood-opacity="0" result="BackgroundImageFix"/>
<feBlend mode="normal" in="SourceGraphic" in2="BackgroundImageFix" result="shape"/>
<feGaussianBlur stdDeviation="3.77124" result="effect1_foregroundBlur_9_534"/>
</filter>
</defs>
</svg>
