<svg width="313" height="225" viewBox="0 0 313 225" fill="none" xmlns="http://www.w3.org/2000/svg">
<g opacity="0.2">
<path d="M215.469 0C222.676 0 228.751 5.37552 229.627 12.5283L239.992 97.1884C240.4 100.518 236.25 102.675 233.545 100.692C221.108 91.5752 205.763 86.1915 189.161 86.1914C147.653 86.1914 114.004 119.84 114.004 161.348C114.004 162.812 114.046 164.266 114.128 165.71C114.25 167.83 112.604 169.676 110.48 169.676H104.324C104.254 169.676 104.184 169.667 104.117 169.649C103.793 169.564 103.553 169.289 103.509 168.956C99.7978 141.04 75.8978 119.502 46.9664 119.502C32.6291 119.502 19.5266 124.791 9.50483 133.524C7.47113 135.297 4.1837 134.571 3.46475 131.971C-2.0837 111.905 -3.49935 83.6478 18.9518 72.1934C19.4297 71.9495 19.9719 71.8262 20.5084 71.8262H98.4549C100.121 71.8262 101.565 70.6721 101.933 69.0469L115.03 11.1172C116.5 4.6164 122.275 0.000189413 128.94 0H215.469ZM139.866 15.1982C136.361 15.1982 133.376 17.745 132.824 21.2061L127.395 55.2441C126.704 59.5758 130.051 63.498 134.437 63.498H171.828C175.766 63.498 178.959 60.3055 178.959 56.3672V22.3291C178.959 18.3907 175.766 15.1982 171.828 15.1982H139.866ZM190.26 15.1982C187.345 15.1982 184.98 17.5617 184.98 20.4775V58.2188C184.98 61.1345 187.345 63.498 190.26 63.498H210.229C213.477 63.4979 215.954 60.5937 215.443 57.3867L209.423 19.6465C209.015 17.0839 206.805 15.1982 204.21 15.1982H190.26Z" fill="white"/>
<path d="M46.9664 132.065C71.5323 132.065 91.4469 151.98 91.4469 176.546C91.4467 201.112 71.5322 221.026 46.9664 221.027C22.4005 221.027 2.48517 201.112 2.48499 176.546C2.48499 151.98 22.4004 132.065 46.9664 132.065ZM46.9664 161.556C38.6878 161.556 31.9762 168.268 31.9762 176.546C31.9764 184.825 38.688 191.535 46.9664 191.535C55.2447 191.535 61.9555 184.824 61.9557 176.546C61.9557 168.268 55.2449 161.556 46.9664 161.556Z" fill="white"/>
<path d="M189.16 97.9299C224.185 97.93 252.578 126.323 252.578 161.348C252.578 196.373 224.185 224.766 189.16 224.766C154.136 224.766 125.742 196.373 125.742 161.348C125.742 126.323 154.135 97.9299 189.16 97.9299ZM189.368 139.488C177.181 139.488 167.3 149.368 167.3 161.556C167.3 173.744 177.18 183.624 189.368 183.624C201.556 183.624 211.437 173.744 211.437 161.556C211.437 149.368 201.556 139.488 189.368 139.488Z" fill="white"/>
</g>
<g filter="url(#filter0_f_3_1076)">
<path d="M55.6541 17.9696L46.8811 33.2178L58.6719 46.2734L41.459 42.6417L32.6859 57.8899L30.8208 40.3971L13.6079 36.7654L29.6681 29.586L27.803 12.0933L39.5939 25.1489L55.6541 17.9696Z" fill="white"/>
<path d="M288.973 109.856L292.802 110.211L289.39 111.985L190.299 163.513L189.771 163.788L189.244 163.507L59.084 94.0606C59.5671 93.4798 59.9772 92.837 60.3037 92.1465L189.783 161.23L284.934 111.752L60.7773 90.919C60.9937 90.2064 61.1236 89.457 61.1562 88.6817L288.973 109.856ZM50.8359 79.3682C50.0734 79.4791 49.3415 79.6836 48.6533 79.9727L38.498 36.8126L40.7012 36.295L50.8359 79.3682Z" fill="white"/>
<path d="M304.807 108.157L292.651 114.306L294.742 127.767L285.138 118.106L272.982 124.254L279.202 112.135L269.598 102.474L283.047 104.645L289.267 92.5254L291.358 105.986L304.807 108.157Z" fill="white"/>
<path d="M185.384 151.484L190.693 157.505L198.061 154.316L193.975 161.227L199.284 167.248L191.45 165.498L187.364 172.408L186.608 164.416L178.773 162.665L186.14 159.476L185.384 151.484Z" fill="white"/>
<circle cx="52.1217" cy="88.2717" r="4.59504" fill="white"/>
</g>
<g filter="url(#filter1_d_3_1076)">
<path d="M55.6541 17.9696L46.8811 33.2178L58.6719 46.2734L41.459 42.6417L32.6859 57.8899L30.8208 40.3971L13.6079 36.7654L29.6681 29.586L27.803 12.0933L39.5939 25.1489L55.6541 17.9696Z" fill="white"/>
<path d="M288.973 109.856L292.802 110.211L289.39 111.985L190.299 163.513L189.771 163.788L189.244 163.507L59.084 94.0606C59.5671 93.4798 59.9772 92.837 60.3037 92.1465L189.783 161.23L284.934 111.752L60.7773 90.919C60.9937 90.2064 61.1236 89.457 61.1562 88.6817L288.973 109.856ZM50.8359 79.3682C50.0734 79.4791 49.3415 79.6836 48.6533 79.9727L38.498 36.8126L40.7012 36.295L50.8359 79.3682Z" fill="white"/>
<path d="M304.807 108.157L292.651 114.306L294.742 127.767L285.138 118.106L272.982 124.254L279.202 112.135L269.598 102.474L283.047 104.645L289.267 92.5254L291.358 105.986L304.807 108.157Z" fill="white"/>
<path d="M185.384 151.484L190.693 157.505L198.061 154.316L193.975 161.227L199.284 167.248L191.45 165.498L187.364 172.408L186.608 164.416L178.773 162.665L186.14 159.476L185.384 151.484Z" fill="white"/>
<circle cx="52.1217" cy="88.2717" r="4.59504" fill="white"/>
</g>
<defs>
<filter id="filter0_f_3_1076" x="6.06543" y="4.55078" width="306.284" height="175.4" filterUnits="userSpaceOnUse" color-interpolation-filters="sRGB">
<feFlood flood-opacity="0" result="BackgroundImageFix"/>
<feBlend mode="normal" in="SourceGraphic" in2="BackgroundImageFix" result="shape"/>
<feGaussianBlur stdDeviation="3.77124" result="effect1_foregroundBlur_3_1076"/>
</filter>
<filter id="filter1_d_3_1076" x="10.5909" y="12.0933" width="297.233" height="166.349" filterUnits="userSpaceOnUse" color-interpolation-filters="sRGB">
<feFlood flood-opacity="0" result="BackgroundImageFix"/>
<feColorMatrix in="SourceAlpha" type="matrix" values="0 0 0 0 0 0 0 0 0 0 0 0 0 0 0 0 0 0 127 0" result="hardAlpha"/>
<feOffset dy="3.01699"/>
<feGaussianBlur stdDeviation="1.5085"/>
<feComposite in2="hardAlpha" operator="out"/>
<feColorMatrix type="matrix" values="0 0 0 0 0 0 0 0 0 0 0 0 0 0 0 0 0 0 0.25 0"/>
<feBlend mode="normal" in2="BackgroundImageFix" result="effect1_dropShadow_3_1076"/>
<feBlend mode="normal" in="SourceGraphic" in2="effect1_dropShadow_3_1076" result="shape"/>
</filter>
</defs>
</svg>
