<svg width="415" height="298" viewBox="0 0 415 298" fill="none" xmlns="http://www.w3.org/2000/svg">
<g opacity="0.2">
<path d="M285.675 0C295.229 6.21991e-05 303.282 7.1278 304.444 16.6113L318.187 128.855C318.728 133.269 313.227 136.129 309.64 133.5C293.15 121.413 272.806 114.274 250.793 114.274C195.761 114.274 151.149 158.887 151.149 213.919C151.149 215.86 151.205 217.788 151.315 219.702C151.476 222.513 149.294 224.96 146.478 224.96H138.316C138.223 224.96 138.131 224.948 138.041 224.925C137.611 224.812 137.293 224.446 137.234 224.005C132.314 186.993 100.626 158.438 62.2687 158.438C43.2602 158.438 25.8887 165.449 12.6016 177.028C9.90524 179.378 5.54671 178.416 4.59353 174.968C-2.76243 148.366 -4.63866 110.902 25.1271 95.7158C25.7607 95.3926 26.4793 95.2285 27.1906 95.2285H130.533C132.742 95.2285 134.657 93.6985 135.144 91.5437L152.509 14.7393C154.458 6.1202 162.116 0 170.952 0H285.675ZM185.437 20.1494C180.79 20.1495 176.833 23.5266 176.101 28.1152L168.904 73.2441C167.988 78.987 172.424 84.1874 178.239 84.1875H227.814C233.035 84.1873 237.268 79.9539 237.268 74.7324V29.6045C237.268 24.383 233.035 20.1496 227.814 20.1494H185.437ZM252.251 20.1494C248.385 20.1495 245.251 23.2836 245.251 27.1494V77.1875C245.251 81.0534 248.385 84.1874 252.251 84.1875H278.726C283.031 84.1875 286.317 80.337 285.639 76.085L277.658 26.0469C277.116 22.6497 274.186 20.1495 270.746 20.1494H252.251Z" fill="white"/>
<path d="M62.2682 175.094C94.8384 175.094 121.242 201.498 121.242 234.068C121.242 266.638 94.8385 293.042 62.2682 293.042C29.6982 293.041 3.29462 266.638 3.29462 234.068C3.29479 201.498 29.6983 175.095 62.2682 175.094ZM62.2682 214.195C51.2926 214.195 42.3954 223.092 42.3952 234.068C42.3952 245.044 51.2925 253.942 62.2682 253.942C73.2442 253.942 82.1423 245.044 82.1423 234.068C82.1421 223.092 73.2441 214.195 62.2682 214.195Z" fill="white"/>
<path d="M250.793 129.838C297.23 129.838 334.874 167.482 334.874 213.919C334.874 260.356 297.23 298 250.793 298C204.356 298 166.712 260.356 166.712 213.919C166.712 167.482 204.356 129.838 250.793 129.838ZM251.07 184.936C234.911 184.936 221.811 198.035 221.811 214.194C221.811 230.353 234.911 243.453 251.07 243.453C267.228 243.453 280.327 230.353 280.327 214.194C280.327 198.036 267.228 184.937 251.07 184.936Z" fill="white"/>
</g>
<g filter="url(#filter0_f_3_1076)">
<path d="M73.7875 23.8245L62.156 44.0409L77.7886 61.3504L54.9673 56.5353L43.3357 76.7517L40.8629 53.5594L18.0416 48.7444L39.3347 39.2258L36.8619 16.0335L52.4945 33.343L73.7875 23.8245Z" fill="white"/>
<path d="M383.126 145.648L388.204 146.12L383.679 148.473L252.302 216.788L251.601 217.153L250.904 216.781L78.3345 124.707C78.9752 123.937 79.5197 123.085 79.9527 122.169L251.62 213.762L377.771 148.162L80.5806 120.542C80.8674 119.598 81.0412 118.604 81.0845 117.576L383.126 145.648ZM67.398 105.227C66.3873 105.374 65.4176 105.647 64.5054 106.031L51.0416 48.8069L53.9615 48.1194L67.398 105.227Z" fill="white"/>
<path d="M404.12 143.397L388.003 151.549L390.776 169.396L378.042 156.587L361.926 164.739L370.173 148.671L357.44 135.862L375.27 138.74L383.517 122.672L386.289 140.519L404.12 143.397Z" fill="white"/>
<path d="M245.786 200.841L252.826 208.824L262.593 204.596L257.176 213.758L264.216 221.741L253.828 219.42L248.411 228.582L247.409 217.986L237.021 215.665L246.789 211.437L245.786 200.841Z" fill="white"/>
<circle cx="69.1041" cy="117.033" r="6.09222" fill="white"/>
</g>
<g filter="url(#filter1_d_3_1076)">
<path d="M73.7875 23.8245L62.156 44.0409L77.7886 61.3504L54.9673 56.5353L43.3357 76.7517L40.8629 53.5594L18.0416 48.7444L39.3347 39.2258L36.8619 16.0335L52.4945 33.343L73.7875 23.8245Z" fill="white"/>
<path d="M383.126 145.648L388.204 146.12L383.679 148.473L252.302 216.788L251.601 217.153L250.904 216.781L78.3345 124.707C78.9752 123.937 79.5197 123.085 79.9527 122.169L251.62 213.762L377.771 148.162L80.5806 120.542C80.8674 119.598 81.0412 118.604 81.0845 117.576L383.126 145.648ZM67.398 105.227C66.3873 105.374 65.4176 105.647 64.5054 106.031L51.0416 48.8069L53.9615 48.1194L67.398 105.227Z" fill="white"/>
<path d="M404.12 143.397L388.003 151.549L390.776 169.396L378.042 156.587L361.926 164.739L370.173 148.671L357.44 135.862L375.27 138.74L383.517 122.672L386.289 140.519L404.12 143.397Z" fill="white"/>
<path d="M245.786 200.841L252.826 208.824L262.593 204.596L257.176 213.758L264.216 221.741L253.828 219.42L248.411 228.582L247.409 217.986L237.021 215.665L246.789 211.437L245.786 200.841Z" fill="white"/>
<circle cx="69.1041" cy="117.033" r="6.09222" fill="white"/>
</g>
<defs>
<filter id="filter0_f_3_1076" x="8.04163" y="6.03351" width="406.078" height="232.549" filterUnits="userSpaceOnUse" color-interpolation-filters="sRGB">
<feFlood flood-opacity="0" result="BackgroundImageFix"/>
<feBlend mode="normal" in="SourceGraphic" in2="BackgroundImageFix" result="shape"/>
<feGaussianBlur stdDeviation="5" result="effect1_foregroundBlur_3_1076"/>
</filter>
<filter id="filter1_d_3_1076" x="14.0416" y="16.0335" width="394.078" height="220.549" filterUnits="userSpaceOnUse" color-interpolation-filters="sRGB">
<feFlood flood-opacity="0" result="BackgroundImageFix"/>
<feColorMatrix in="SourceAlpha" type="matrix" values="0 0 0 0 0 0 0 0 0 0 0 0 0 0 0 0 0 0 127 0" result="hardAlpha"/>
<feOffset dy="4"/>
<feGaussianBlur stdDeviation="2"/>
<feComposite in2="hardAlpha" operator="out"/>
<feColorMatrix type="matrix" values="0 0 0 0 0 0 0 0 0 0 0 0 0 0 0 0 0 0 0.25 0"/>
<feBlend mode="normal" in2="BackgroundImageFix" result="effect1_dropShadow_3_1076"/>
<feBlend mode="normal" in="SourceGraphic" in2="effect1_dropShadow_3_1076" result="shape"/>
</filter>
</defs>
</svg>
