<svg width="161" height="271" viewBox="0 0 161 271" fill="none" xmlns="http://www.w3.org/2000/svg">
<g opacity="0.2">
<path d="M54.6755 118.252C50.5294 83.8029 45.5874 49.465 40.2494 15.2019C6.29088 32.41 -4.56438 18.4972 5.96327 53.684C14.3401 93.6551 19.7728 134.166 22.8078 174.896C25.6587 184.613 22.0479 235.09 30.4872 233.163C47.1478 237.791 59.7573 258.259 68.6849 266.861C65.0041 217.227 60.5603 167.645 54.6755 118.252Z" fill="white"/>
<path d="M117.966 100.093C104.121 110.021 85.3622 100.942 74.6246 90.3956C68.682 82.3255 71.9402 81.028 62.0586 75.2007C58.9725 60.42 62.5412 41.4196 73.6631 30.2644C81.677 23.5018 91.7722 14.955 102.551 19.8938C122.407 23.1727 134.408 33.8906 134.606 5.98867C105.001 10.2268 68.281 8.67108 42.1859 15.8104C43.5932 24.8541 45.0177 33.8769 46.3678 42.9258C53.1378 88.3796 58.8872 134.004 63.1333 179.767C79.3818 291.784 44.0549 270.315 127.275 247.464C123.576 224.565 129.028 225.004 117.679 243.492C109.303 249.654 96.3147 256.586 86.812 249.035C82.2872 245.114 78.1023 240.299 75.6261 234.865C73.5707 233.173 69.9662 232.584 69.7331 229.631C67.6664 211.954 80.4847 189.82 99.4374 189.113C106.356 190.684 116.683 190.502 121.663 194.784C112.197 195.559 100.402 187.086 90.8201 192.861C83.3631 197.749 76.3092 204.309 73.3613 212.947C69.1583 224.214 71.1064 239.349 86.4141 232.184C98.9815 223.602 107.319 210.554 117.069 199.294C119.563 197.818 122.102 196.222 124.691 194.947C123.639 189.345 125.718 176.891 123.065 174.544C108.854 188.42 79.8552 188.4 77.149 164.603C60.4299 162.053 67.9896 142.628 71.8698 132.023C76.3077 122.059 85.2053 114.888 94.8078 110.167C103.439 111.37 112.103 117.309 121.652 116.181C128.956 117.774 124.83 101.074 126.669 96.0308C128.382 86.278 122.102 97.9092 117.966 100.093Z" fill="white"/>
<path d="M95.9032 20.0249C81.3606 22.5711 68.1934 35.0657 64.9558 49.737C64.2659 58.5129 57.8902 73.492 68.6887 77.6037C94.4906 74.79 105.124 40.9967 125.92 27.5703C126.9 26.7509 127.931 26.2724 125.96 26.3384C115.775 25.1447 105.792 22.8003 95.9032 20.0249Z" fill="white"/>
<path d="M124.082 135.302C113.767 124.967 107.329 145.536 99.9027 151.381C95.5571 156.923 89.6485 161.746 83.1728 163.531C92.1986 198.664 143.841 165.073 124.082 135.302Z" fill="white"/>
<path d="M114.811 208.963C104.159 214.164 98.4444 232.997 84.8763 235.914C87.1067 253.077 109.36 250.493 117.863 239.656C124.609 231.628 126.99 212.852 114.811 208.963Z" fill="white"/>
<path d="M139.526 45.5098C123.6 6.50153 104.7 73.9474 76.7147 78.2668C86.3067 122.271 153.728 91.6428 139.526 45.5098Z" fill="white"/>
<path d="M107.956 116.251C84.71 102.825 67.5039 136.513 68.5749 156.718C87.0316 178.375 107.365 132.157 120.794 122.305C130.899 114.698 113.895 119.696 107.956 116.251Z" fill="white"/>
</g>
<g filter="url(#filter0_f_105_952)">
<path fill-rule="evenodd" clip-rule="evenodd" d="M83.6921 173.591C83.2586 175.315 82.178 176.804 80.7013 177.755L108.209 189.389C95.8075 203.034 74.7315 226.19 73.4328 227.492L76.9719 231.024C78.4679 229.525 102.518 203.089 114.282 190.142L116.653 187.532L113.405 186.158L83.6921 173.591ZM79.3291 29.4976L76.8625 164.918C76.6731 164.92 76.4823 164.93 76.2904 164.947C74.5105 165.111 72.9486 165.93 71.8211 167.144L74.3299 29.4066L79.3291 29.4976Z" fill="white"/>
<circle cx="78.2828" cy="171.005" r="4.36711" transform="rotate(-5.25333 78.2828 171.005)" fill="white"/>
<circle cx="71.0049" cy="234.538" r="3.61126" transform="rotate(-5.25333 71.0049 234.538)" fill="white"/>
<path d="M75.183 10.6623L80.1553 22.2338L92.697 21.0807L83.2284 29.3854L88.2007 40.9569L77.3765 34.518L67.9078 42.8227L70.6867 30.5386L59.8625 24.0997L72.4042 22.9465L75.183 10.6623Z" fill="white"/>
<path d="M106.785 180.131L112.276 186.016L119.569 182.612L115.669 189.653L121.16 195.538L113.259 194.004L109.359 201.045L108.376 193.056L100.474 191.523L107.768 188.119L106.785 180.131Z" fill="white"/>
</g>
<path fill-rule="evenodd" clip-rule="evenodd" d="M83.6921 173.591C83.2586 175.315 82.178 176.804 80.7013 177.755L108.209 189.389C95.8075 203.034 74.7315 226.19 73.4328 227.492L76.9719 231.024C78.4679 229.525 102.518 203.089 114.282 190.142L116.653 187.532L113.405 186.158L83.6921 173.591ZM79.3291 29.4976L76.8625 164.918C76.6731 164.92 76.4823 164.93 76.2904 164.947C74.5105 165.111 72.9486 165.93 71.8211 167.144L74.3299 29.4066L79.3291 29.4976Z" fill="white"/>
<circle cx="78.2828" cy="171.005" r="4.36711" transform="rotate(-5.25333 78.2828 171.005)" fill="white"/>
<circle cx="71.0049" cy="234.538" r="3.61126" transform="rotate(-5.25333 71.0049 234.538)" fill="white"/>
<path d="M75.183 10.6623L80.1553 22.2338L92.697 21.0807L83.2284 29.3854L88.2007 40.9569L77.3765 34.518L67.9078 42.8227L70.6867 30.5386L59.8625 24.0997L72.4042 22.9465L75.183 10.6623Z" fill="white"/>
<path d="M106.785 180.131L112.276 186.016L119.569 182.612L115.669 189.653L121.16 195.538L113.259 194.004L109.359 201.045L108.376 193.056L100.474 191.523L107.768 188.119L106.785 180.131Z" fill="white"/>
<defs>
<filter id="filter0_f_105_952" x="49.8623" y="0.662354" width="81.2979" height="247.488" filterUnits="userSpaceOnUse" color-interpolation-filters="sRGB">
<feFlood flood-opacity="0" result="BackgroundImageFix"/>
<feBlend mode="normal" in="SourceGraphic" in2="BackgroundImageFix" result="shape"/>
<feGaussianBlur stdDeviation="5" result="effect1_foregroundBlur_105_952"/>
</filter>
</defs>
</svg>
