<svg width="161" height="78" viewBox="0 0 161 78" fill="none" xmlns="http://www.w3.org/2000/svg">
<path opacity="0.2" d="M158.365 36.8298C158.365 36.1742 158.365 35.5186 158.365 34.863C158.365 34.1762 158.334 33.4581 158.334 32.7089C158.427 32.6464 158.552 32.5528 158.677 32.4279C158.927 32.1781 159.239 31.9596 159.458 31.6786C160.176 30.7733 160.238 29.587 159.645 28.5879C159.239 27.9011 158.615 27.4328 157.928 27.1206C157.21 26.8085 156.46 26.6524 155.68 26.6211C155.555 26.6211 155.399 26.6211 155.274 26.6211C137.511 26.6211 119.747 26.6211 101.983 26.6211C101.203 26.6211 100.422 26.7148 99.673 26.9958C99.0487 27.2143 98.4867 27.5577 98.0497 28.0572C96.957 29.2123 96.957 30.8045 98.0184 31.9596C98.3306 32.2718 98.6428 32.5528 99.0174 32.7401C99.2048 32.8337 99.3609 32.9274 99.5482 33.021C99.6106 33.4893 99.5794 36.7673 99.517 37.2044C99.4857 37.2356 99.4857 37.2356 99.4545 37.2668C99.4233 37.2668 99.4233 37.2668 99.3921 37.2981C99.236 37.2981 99.0799 37.2981 98.9238 37.2981C95.2712 37.2981 91.5873 37.2981 87.9347 37.2981C87.9035 37.2981 87.841 37.2668 87.7474 37.2356C87.7474 37.142 87.7161 37.0171 87.7161 36.8922C87.7161 36.6737 87.7161 36.4239 87.7161 36.2054C87.7161 27.5265 87.7161 18.8788 87.7161 10.1999C87.7161 9.01361 87.8098 7.8585 87.4976 6.7034C87.7162 6.5473 87.9659 6.60974 88.1844 6.60974C88.8088 6.60974 89.402 6.45364 89.9327 6.14145C90.9317 5.57951 91.5561 4.70538 91.6497 3.55027C91.7122 2.89467 91.5249 2.30151 91.1815 1.73957C90.6507 0.927875 89.9015 0.42837 88.9649 0.209837C88.84 0.178618 88.7152 0.11618 88.5903 0.0849609H44.4153C44.2905 0.11618 44.1656 0.178618 44.0407 0.209837C43.229 0.397151 42.5734 0.77178 42.0427 1.42738C40.9188 2.7698 41.1686 4.5805 42.3861 5.67317C43.0417 6.26633 43.8222 6.57852 44.7275 6.60974C45.0085 6.60974 45.3207 6.57852 45.6329 6.67218C45.6329 6.82827 45.6329 6.95315 45.6017 7.07803C45.5704 7.51509 45.4768 7.98338 45.4768 8.42044C45.4456 11.1677 45.4768 13.915 45.4768 16.6935C45.4768 20.3773 45.508 24.0924 45.508 27.7762C45.508 27.9948 45.4768 28.2133 45.4768 28.4631C45.1958 28.5567 44.9773 28.5255 44.7275 28.5255C42.4798 28.5255 40.2008 28.4943 37.953 28.4943C36.4545 28.4943 34.9872 28.5255 33.4887 28.5567C33.2702 28.5567 33.0516 28.5255 32.8019 28.5255C32.8019 28.3382 32.7706 28.1821 32.8019 28.026C33.2389 25.4036 33.676 22.7812 34.0818 20.1588C34.2379 19.2847 34.3628 18.4105 34.4877 17.5676C34.5814 16.9745 34.4565 16.6935 33.8945 16.4437C33.5823 16.2876 33.2389 16.1628 32.8643 16.1003C31.8653 15.8506 30.8663 15.7569 29.8361 15.7257C28.2751 15.632 26.7142 15.6945 25.1844 15.9755C24.6849 16.0691 24.1854 16.194 23.6859 16.3501C23.4674 16.4125 23.2801 16.5062 23.0615 16.6311C22.7493 16.8184 22.6245 17.0681 22.6869 17.4115C22.7806 17.9735 22.8742 18.5354 22.9991 19.0661C23.561 22.0632 24.123 25.0602 24.7161 28.026C24.7786 28.307 24.8098 28.5879 24.8722 28.9001C24.4039 28.9626 23.9981 29.025 23.561 29.0562C22.3747 29.1499 21.1884 29.2748 20.0021 29.4933C18.5035 29.8055 16.9738 30.0865 15.5377 30.6172C11.7915 31.9908 8.95052 34.3947 7.01494 37.86C6.453 38.8902 6.01593 39.9829 5.67252 41.1068C5.61009 41.2629 5.54765 41.4502 5.51643 41.6375C5.36033 41.6375 5.20424 41.6687 5.04814 41.6687C4.14279 41.6687 3.36231 42.0121 2.70671 42.6053C1.95746 43.2921 1.45795 44.135 1.17698 45.1028C0.646258 46.976 0.771135 48.7867 1.73892 50.5349C1.98868 51.0032 2.33209 51.3778 2.70671 51.7525C3.23744 52.252 3.86182 52.5642 4.57986 52.6578C4.86083 52.689 5.11058 52.7203 5.42277 52.7515C6.04715 55.0617 7.04616 57.1846 8.54468 59.0889C10.0432 60.9933 11.8539 62.4606 13.9768 63.6469C13.8831 63.8655 13.8207 64.0215 13.7583 64.2089C13.2275 65.4576 12.9466 66.8 13.009 68.1737C13.1339 71.077 14.3202 73.4185 16.5992 75.2292C17.7855 76.1658 19.1591 76.7589 20.6577 77.0087C20.9074 77.0711 21.1884 77.0399 21.4069 77.2584H23.1552C23.3425 77.0399 23.6547 77.0711 23.9044 77.0087C24.6537 76.8838 25.3405 76.6653 26.0273 76.3531C29.118 74.8858 30.9599 72.4819 31.4594 69.079C31.7092 67.3932 31.4594 65.801 30.8039 64.2401C30.7414 64.084 30.6478 63.9591 30.7102 63.7718C30.7726 63.7718 30.8663 63.7406 30.9599 63.7406C32.7082 63.7718 34.4877 63.7718 36.2984 63.803C36.2672 63.9591 36.236 64.084 36.2047 64.2089C35.7365 65.3015 35.4867 66.4566 35.4555 67.643C35.4243 68.9542 35.6116 70.2029 36.1423 71.4205C37.4847 74.5111 39.7949 76.3843 43.1041 77.0399C43.3851 77.1023 43.6973 77.0711 43.9471 77.2896H45.5705C45.789 77.0711 46.07 77.1023 46.3197 77.0399C49.7538 76.3531 52.1577 74.3863 53.4376 71.1395C54.2806 68.9542 54.2181 66.7376 53.3752 64.5211C53.3128 64.3337 53.2191 64.1464 53.1879 63.9903C53.2503 63.803 53.3752 63.8342 53.5001 63.8342C54.9362 63.8342 56.341 63.8342 57.7771 63.8342C57.8708 63.8342 57.9332 63.8655 58.0893 63.8655C58.1205 64.3025 58.1517 64.7084 58.1829 65.1454C58.5576 70.4215 62.3039 75.3228 67.9857 76.6653C75.572 78.476 82.4401 73.4809 83.7513 66.5815C83.9074 65.7698 84.0011 64.9269 84.0011 64.084C84.0011 63.8967 84.0011 63.7094 84.0011 63.522C84.0947 63.4596 84.1572 63.3972 84.2196 63.366C86.0928 62.5855 87.0606 61.087 87.5288 59.1826C87.7162 58.4646 87.7786 57.7153 87.7786 56.966V48.6306C87.7786 48.3808 87.8098 48.1311 87.8098 47.8813C88.0908 47.7564 88.3405 47.8189 88.5591 47.8189C90.7756 47.8189 92.9922 47.8189 95.2087 47.8189C96.4263 47.8189 97.6438 47.8189 98.8614 47.8189C99.0799 47.8189 99.2984 47.8501 99.517 47.8501C99.673 48.0998 99.6106 48.3808 99.6106 48.5993C99.6106 51.0969 99.6106 53.6256 99.6106 56.1231C99.6106 57.2158 99.7355 58.2772 100.141 59.3075C100.859 61.1494 102.077 62.4918 103.919 63.2411C104.325 63.3972 104.793 63.522 105.23 63.6469C105.261 63.803 105.136 63.9591 105.074 64.1152C104.543 65.3015 104.262 66.5503 104.262 67.8615C104.293 70.3278 105.105 72.5131 106.822 74.2926C108.227 75.7599 109.913 76.6653 111.942 77.0399C112.192 77.0711 112.442 77.0711 112.629 77.2584H114.533C114.721 77.0399 115.033 77.0399 115.283 77.0087C118.311 76.4779 121.433 74.199 122.494 70.4214C123.056 68.3922 122.962 66.363 122.151 64.3962C122.057 64.1777 121.995 63.9903 121.901 63.7406C122.026 63.7094 122.088 63.6781 122.182 63.6781C123.212 63.6157 135.856 63.6781 136.355 63.7406C136.449 63.9279 136.324 64.084 136.262 64.2401C135.669 65.6449 135.419 67.081 135.544 68.6107C135.7 70.9522 136.636 72.919 138.291 74.5424C139.633 75.8848 141.257 76.7277 143.161 77.0399C143.38 77.0711 143.661 77.0711 143.848 77.2896H145.752C145.94 77.0711 146.189 77.1023 146.439 77.0399C148.281 76.7277 149.873 75.916 151.216 74.636C153.026 72.8878 153.994 70.7336 154.088 68.2049C154.119 66.7064 153.838 65.3015 153.214 63.9279C153.182 63.8655 153.151 63.7718 153.089 63.6469C153.214 63.5845 153.339 63.522 153.463 63.4908C155.711 62.8977 157.147 61.3992 157.99 59.2763C158.365 58.3709 158.49 57.4031 158.49 56.4353C158.49 53.8754 158.49 51.2842 158.49 48.7242V48.0374M22.1874 72.0761C19.5962 72.0136 18.0665 69.922 18.1289 67.8303C18.1914 65.5513 20.0957 63.7406 22.3747 63.803C24.6849 63.8655 26.4644 65.7386 26.402 68.0488C26.3395 70.1405 24.6849 72.1073 22.1874 72.0761ZM48.8172 67.9551C48.9109 69.7659 47.4436 72.0761 44.6651 72.0448C42.1676 72.0448 40.5442 70.0468 40.5442 67.8927C40.5442 65.6137 42.3861 63.7718 44.6651 63.7406C47.1626 63.7718 48.9421 65.8947 48.8172 67.9551ZM70.9827 69.922C67.8296 69.922 65.2072 67.4244 65.176 64.1776C65.176 60.7123 67.9857 58.3709 70.9203 58.4021C74.1359 58.4021 76.6958 60.9621 76.7271 64.1464C76.7583 67.3308 74.2295 69.922 70.9827 69.922ZM76.1027 33.3645C75.8529 33.3957 75.6032 33.3957 75.3534 33.3957H57.3713C57.1215 33.3957 56.8717 33.3957 56.622 33.3645C55.4044 33.2084 54.8113 32.2718 54.8113 31.4289C54.8113 31.2728 54.8113 31.1167 54.8113 30.9606V15.9755C54.8113 15.8194 54.8113 15.6633 54.8113 15.5072C54.8113 14.3833 55.6854 13.5716 56.7781 13.5091C56.903 13.5091 56.9966 13.5091 57.1215 13.5091C63.2716 13.5091 69.4218 13.5091 75.5719 13.5091C75.8529 13.5091 76.1651 13.5404 76.4461 13.6028C77.289 13.8213 77.8822 14.5394 77.9134 15.4135C77.9134 15.5696 77.9134 15.7257 77.9134 15.8818V30.9606C77.9134 31.0855 77.9134 31.2416 77.9134 31.3664C77.9758 32.303 77.2266 33.2396 76.1027 33.3645ZM113.472 72.0761C111.193 72.0761 109.289 70.2966 109.32 67.8927C109.351 65.1767 111.661 63.6781 113.472 63.803C115.564 63.6781 117.686 65.6137 117.562 67.9239C117.686 69.9219 116.032 72.0448 113.472 72.0761ZM144.66 72.0761C142.1 72.0448 140.445 69.8907 140.57 67.9239C140.476 65.9259 142.162 63.803 144.691 63.803C146.907 63.803 148.812 65.5513 148.843 67.9239C148.843 70.2341 147.001 72.1073 144.66 72.0761Z" fill="white"/>
<path fill-rule="evenodd" clip-rule="evenodd" d="M62.8604 21.6149L62.5754 21.418L62.3037 21.6329L25.9795 50.367L26.5605 51.1015L62.613 22.5824L91.45 42.509C91.6406 42.2531 91.8687 42.0267 92.1261 41.8378L62.8604 21.6149ZM97.1461 43.7601C97.1905 43.9724 97.2138 44.1924 97.2138 44.4178C97.2138 44.5118 97.2097 44.6048 97.2018 44.6967H121.41C121.402 44.6048 121.398 44.5118 121.398 44.4178C121.398 44.1924 121.422 43.9724 121.466 43.7601H97.1461ZM127.726 43.7601C127.771 43.9724 127.794 44.1924 127.794 44.4178C127.794 44.5118 127.79 44.6048 127.782 44.6967H137.308L141.855 53.3887C142.106 53.2056 142.385 53.0582 142.685 52.9541L138.007 44.0114L137.875 43.7601H137.592H127.726ZM124.02 47.5639C123.696 47.505 123.39 47.3975 123.108 47.2491L122.307 55.932L122.26 56.4433H122.773H140.572C140.55 56.2905 140.538 56.1341 140.538 55.975C140.538 55.816 140.55 55.6596 140.572 55.5067H123.287L124.02 47.5639Z" fill="white"/>
<circle cx="94.1746" cy="44.0398" r="1.62865" fill="white"/>
<circle cx="124.273" cy="44.4177" r="1.62865" fill="white"/>
<circle cx="143.728" cy="55.9753" r="1.62865" fill="white"/>
<path d="M140.547 40.5801L139.517 43.8465L142.305 45.8353L138.88 45.8652L137.851 49.1316L136.764 45.8838L133.339 45.9137L136.092 43.8764L135.005 40.6286L137.794 42.6174L140.547 40.5801Z" fill="white"/>
<path d="M62.7464 15.7949L64.1396 20.0827H68.6481L65.0007 22.7328L66.3938 27.0206L62.7464 24.3706L59.099 27.0206L60.4922 22.7328L56.8447 20.0827H61.3532L62.7464 15.7949Z" fill="white"/>
<path d="M26.2705 42.4111L28.1973 48.3412H34.4325L29.3881 52.0061L31.3149 57.9362L26.2705 54.2712L21.2261 57.9362L23.1529 52.0061L18.1085 48.3412H24.3437L26.2705 42.4111Z" fill="white"/>
<path d="M121.089 52.3808L122.971 54.515L125.582 53.3847L124.134 55.8339L126.016 57.9681L123.239 57.3477L121.791 59.797L121.523 56.9642L118.746 56.3438L121.357 55.2135L121.089 52.3808Z" fill="white"/>
</svg>
