<svg width="235" height="323" viewBox="0 0 235 323" fill="none" xmlns="http://www.w3.org/2000/svg">
<path opacity="0.2" d="M182.175 56.9458C185.946 56.9464 193.489 84.8525 202.162 85.23C209.101 85.5317 211.591 82.59 211.968 81.0815C213.602 83.8471 215.136 90.5102 208.197 95.0356C199.523 100.692 225.167 102.955 225.544 119.171C225.921 135.388 208.951 139.536 205.557 137.65C202.842 136.141 187.329 130.988 179.912 128.599C182.301 135.764 186.852 152.434 185.947 161.787C184.815 173.477 185.534 151.091 222.528 167.066C239.12 174.232 210.837 246.638 208.197 246.639C205.557 246.639 185.947 231.177 185.947 216.469C185.947 204.703 189.215 199.499 190.849 198.368C186.072 199.625 176.368 201.384 175.764 198.368C175.01 194.596 170.861 222.881 144.84 230.423C146.851 241.36 145.443 265.42 123.721 274.169C130.258 283.849 142.351 305.546 138.429 314.899C133.526 326.59 107.504 323.95 105.995 314.899C104.487 305.848 80.3511 275.3 88.2708 264.364C94.6064 255.615 95.436 253.176 95.0588 253.05C85.0021 247.268 65.9454 230.498 70.1692 209.681C63.6324 205.407 49.5024 199.876 45.2786 211.944C39.9989 227.029 61.495 227.406 68.6604 245.885C75.8256 264.364 50.1818 306.979 20.012 266.25C19.5092 264.867 19.7102 262.328 24.5374 263.233C30.5716 264.364 46.4094 256.822 18.1262 243.623C-10.1581 230.423 3.79525 179.134 29.4397 177.249C55.084 175.363 62.6265 178.757 77.3342 190.825C83.5928 185.704 97.3707 175.639 106.64 172.658C104.953 154.451 112.473 138.814 107.52 148.766C102.486 158.881 88.3623 163.938 81.9299 165.203C91.9982 140.336 127.236 115.049 107.52 128.536C87.8031 142.022 70.6039 136.123 78.5745 136.123C86.5455 136.122 139.402 90.1829 113.813 107.462C88.2232 124.742 68.0872 119.264 81.9299 115.049C95.7736 110.835 158.7 69.9532 123.042 92.2905C87.3847 114.628 69.7651 91.8696 81.9299 92.2905C94.0956 92.712 94.5159 88.4975 123.042 72.4819C133.453 66.6373 142.454 65.5992 149.657 66.8384C138.289 78.6553 122.295 113.696 114.292 133.502C111.15 143.182 107.807 165.03 119.573 174.986C118.315 166.186 117.309 144.966 123.343 130.485C123.092 134.256 123.268 143.76 125.984 151.604C129.881 129.354 140.314 83.0438 150.873 75.8022C161.433 68.5615 166.084 74.5449 167.09 78.4419C167.7 76.1558 167.735 72.1795 165.385 68.6626C166.069 68.514 166.763 68.3792 167.467 68.2593C171.113 64.488 179.158 56.9458 182.175 56.9458Z" fill="white"/>
<g filter="url(#filter0_f_8_374)">
<ellipse cx="189.572" cy="111.338" rx="3.59842" ry="3.66122" fill="white"/>
<path d="M32.3589 188.975L77.687 200.554C77.4632 201.263 77.3406 202.017 77.3354 202.8L32.8618 191.438L21.0981 232.245L20.0112 231.931L18.9243 231.619L30.9917 189.757L31.2964 188.703L32.3589 188.975ZM211.181 22.5161L191.42 104.331C190.822 104.171 190.194 104.086 189.547 104.086C189.414 104.086 189.281 104.09 189.149 104.097L206.35 32.8794L180.182 88.7271L180.121 88.8579L180.029 88.9692L89.9419 197.571C89.4127 197.028 88.8026 196.567 88.1313 196.208L178.195 87.6353L209.057 21.77L211.181 22.5161Z" fill="white"/>
<ellipse cx="84.7311" cy="202.602" rx="3.59842" ry="3.66122" fill="white"/>
<path d="M176.78 82.0603L180.343 86.046L185.192 83.9651L182.545 88.5092L186.108 92.4949L180.909 91.3177L178.263 95.8618L177.697 90.5901L172.498 89.4128L177.347 87.332L176.78 82.0603Z" fill="white"/>
<path d="M30.4562 183.129L34.019 187.115L38.8675 185.034L36.2209 189.578L39.7836 193.564L34.5851 192.387L31.9385 196.931L31.3723 191.659L26.1738 190.482L31.0224 188.401L30.4562 183.129Z" fill="white"/>
<path d="M31.3198 225.141L25.275 232.424L30.1895 240.368L21.5391 236.925L15.4943 244.208L16.1929 234.797L7.54254 231.354L16.6247 228.981L17.3233 219.57L22.2377 227.514L31.3198 225.141Z" fill="white"/>
<path d="M218.054 7.73187L216.091 19.7648L226.732 25.3823L214.878 27.2015L212.916 39.2344L207.552 28.3258L195.698 30.1451L204.237 21.584L198.873 10.6754L209.515 16.2929L218.054 7.73187Z" fill="white"/>
</g>
<ellipse cx="189.572" cy="111.338" rx="3.59842" ry="3.66122" fill="white"/>
<path d="M32.3589 188.975L77.687 200.554C77.4632 201.263 77.3406 202.017 77.3354 202.8L32.8618 191.438L21.0981 232.245L20.0112 231.931L18.9243 231.619L30.9917 189.757L31.2964 188.703L32.3589 188.975ZM211.181 22.5161L191.42 104.331C190.822 104.171 190.194 104.086 189.547 104.086C189.414 104.086 189.281 104.09 189.149 104.097L206.35 32.8794L180.182 88.7271L180.121 88.8579L180.029 88.9692L89.9419 197.571C89.4127 197.028 88.8026 196.567 88.1313 196.208L178.195 87.6353L209.057 21.77L211.181 22.5161Z" fill="white"/>
<ellipse cx="84.7311" cy="202.602" rx="3.59842" ry="3.66122" fill="white"/>
<path d="M176.78 82.0603L180.343 86.046L185.192 83.9651L182.545 88.5092L186.108 92.4949L180.909 91.3177L178.263 95.8618L177.697 90.5901L172.498 89.4128L177.347 87.332L176.78 82.0603Z" fill="white"/>
<path d="M30.4562 183.129L34.019 187.115L38.8675 185.034L36.2209 189.578L39.7836 193.564L34.5851 192.387L31.9385 196.931L31.3723 191.659L26.1738 190.482L31.0224 188.401L30.4562 183.129Z" fill="white"/>
<path d="M31.3198 225.141L25.275 232.424L30.1895 240.368L21.5391 236.925L15.4943 244.208L16.1929 234.797L7.54254 231.354L16.6247 228.981L17.3233 219.57L22.2377 227.514L31.3198 225.141Z" fill="white"/>
<path d="M218.054 7.73187L216.091 19.7648L226.732 25.3823L214.878 27.2015L212.916 39.2344L207.552 28.3258L195.698 30.1451L204.237 21.584L198.873 10.6754L209.515 16.2929L218.054 7.73187Z" fill="white"/>
<defs>
<filter id="filter0_f_8_374" x="-3.8147e-06" y="0.189449" width="234.275" height="251.561" filterUnits="userSpaceOnUse" color-interpolation-filters="sRGB">
<feFlood flood-opacity="0" result="BackgroundImageFix"/>
<feBlend mode="normal" in="SourceGraphic" in2="BackgroundImageFix" result="shape"/>
<feGaussianBlur stdDeviation="3.77124" result="effect1_foregroundBlur_8_374"/>
</filter>
</defs>
</svg>
