<svg width="311" height="428" viewBox="0 0 311 428" fill="none" xmlns="http://www.w3.org/2000/svg">
<path opacity="0.2" d="M241.532 75.5C246.532 75.5 256.532 112.5 268.032 113C277.232 113.4 280.532 109.5 281.032 107.5C283.198 111.167 285.232 120 276.032 126C264.532 133.5 298.532 136.5 299.032 158C299.532 179.5 277.032 185 272.532 182.5C268.932 180.5 248.365 173.667 238.532 170.5C241.698 180 247.732 202.1 246.532 214.5C245.032 230 245.984 200.32 295.032 221.5C317.032 231 279.532 326.999 276.032 327C272.532 327 246.532 306.5 246.532 287C246.532 271.4 250.865 264.5 253.032 263C246.698 264.667 233.832 267 233.032 263C232.032 258 226.532 295.5 192.032 305.5C194.698 320 192.832 351.9 164.032 363.5C172.698 376.333 188.732 405.1 183.532 417.5C177.032 433 142.532 429.5 140.532 417.5C138.532 405.5 106.532 365 117.032 350.5C125.431 338.9 126.531 335.667 126.032 335.5C112.698 327.833 87.4316 305.6 93.0316 278C84.365 272.333 65.6316 265 60.0316 281C53.0316 301 81.5316 301.5 91.0316 326C100.532 350.5 66.5316 407 26.5316 353C25.865 351.167 26.1316 347.8 32.5316 349C40.5316 350.5 61.5316 340.5 24.0316 323C-13.4684 305.5 5.03163 237.5 39.0316 235C73.0316 232.5 83.0316 237 102.532 253C110.829 246.211 129.096 232.867 141.385 228.914C139.149 204.775 149.12 184.043 142.553 197.237C135.879 210.648 117.154 217.354 108.625 219.03C121.974 186.062 168.694 152.535 142.553 170.416C116.413 188.297 93.6085 180.474 104.175 180.474C114.743 180.474 184.823 119.567 150.896 142.477C116.968 165.387 90.2711 158.123 108.625 152.535C126.98 146.947 210.407 92.7449 163.131 122.36C115.855 151.976 92.4959 121.802 108.625 122.36C124.755 122.919 125.311 117.331 163.131 96.0977C176.933 88.3487 188.868 86.9729 198.418 88.6162C183.346 104.284 162.141 150.741 151.532 177C147.365 189.833 142.932 218.8 158.532 232C156.865 220.333 155.532 192.2 163.532 173C163.198 178 163.432 190.6 167.032 201C172.198 171.5 186.032 110.1 200.032 100.5C214.031 90.9001 220.198 98.8333 221.532 104C222.34 100.969 222.387 95.697 219.271 91.0342C220.178 90.8371 221.098 90.659 222.032 90.5C226.865 85.5 237.532 75.5 241.532 75.5Z" fill="white"/>
<g filter="url(#filter0_f_8_374)">
<ellipse cx="251.338" cy="147.615" rx="4.77087" ry="4.85413" fill="white"/>
<path d="M42.9027 250.547L103 265.899C102.704 266.839 102.54 267.838 102.533 268.876L43.5697 253.812L27.973 307.915L25.0902 307.085L41.0902 251.585L41.4935 250.187L42.9027 250.547ZM279.99 29.8525L253.79 138.325C252.997 138.114 252.165 138 251.307 138C251.13 138 250.954 138.004 250.779 138.014L273.584 43.5928L238.89 117.637L238.809 117.811L238.686 117.958L119.247 261.943C118.546 261.224 117.737 260.613 116.847 260.138L236.253 116.189L277.173 28.8633L279.99 29.8525Z" fill="white"/>
<ellipse cx="112.338" cy="268.615" rx="4.77087" ry="4.85413" fill="white"/>
<path d="M234.379 108.797L239.103 114.082L245.531 111.323L242.022 117.347L246.746 122.632L239.854 121.071L236.345 127.096L235.594 120.106L228.702 118.545L235.13 115.787L234.379 108.797Z" fill="white"/>
<path d="M40.3795 242.797L45.1031 248.082L51.5314 245.323L48.0224 251.347L52.746 256.632L45.8537 255.071L42.3447 261.096L41.5941 254.106L34.7018 252.545L41.1301 249.787L40.3795 242.797Z" fill="white"/>
<path d="M41.5245 298.497L33.5101 308.153L40.0258 318.685L28.557 314.121L20.5426 323.777L21.4688 311.299L10 306.735L22.0413 303.588L22.9675 291.111L29.4832 301.643L41.5245 298.497Z" fill="white"/>
<path d="M289.101 10.2511L286.499 26.2046L300.607 33.6524L284.89 36.0644L282.288 52.0179L275.177 37.5551L259.461 39.967L270.782 28.6165L263.671 14.1537L277.779 21.6016L289.101 10.2511Z" fill="white"/>
</g>
<ellipse cx="251.338" cy="147.615" rx="4.77087" ry="4.85413" fill="white"/>
<path d="M42.9027 250.547L103 265.899C102.704 266.839 102.54 267.838 102.533 268.876L43.5697 253.812L27.973 307.915L25.0902 307.085L41.0902 251.585L41.4935 250.187L42.9027 250.547ZM279.99 29.8525L253.79 138.325C252.997 138.114 252.165 138 251.307 138C251.13 138 250.954 138.004 250.779 138.014L273.584 43.5928L238.89 117.637L238.809 117.811L238.686 117.958L119.247 261.943C118.546 261.224 117.737 260.613 116.847 260.138L236.253 116.189L277.173 28.8633L279.99 29.8525Z" fill="white"/>
<ellipse cx="112.338" cy="268.615" rx="4.77087" ry="4.85413" fill="white"/>
<path d="M234.379 108.797L239.103 114.082L245.531 111.323L242.022 117.347L246.746 122.632L239.854 121.071L236.345 127.096L235.594 120.106L228.702 118.545L235.13 115.787L234.379 108.797Z" fill="white"/>
<path d="M40.3795 242.797L45.1031 248.082L51.5314 245.323L48.0224 251.347L52.746 256.632L45.8537 255.071L42.3447 261.096L41.5941 254.106L34.7018 252.545L41.1301 249.787L40.3795 242.797Z" fill="white"/>
<path d="M41.5245 298.497L33.5101 308.153L40.0258 318.685L28.557 314.121L20.5426 323.777L21.4688 311.299L10 306.735L22.0413 303.588L22.9675 291.111L29.4832 301.643L41.5245 298.497Z" fill="white"/>
<path d="M289.101 10.2511L286.499 26.2046L300.607 33.6524L284.89 36.0644L282.288 52.0179L275.177 37.5551L259.461 39.967L270.782 28.6165L263.671 14.1537L277.779 21.6016L289.101 10.2511Z" fill="white"/>
<defs>
<filter id="filter0_f_8_374" x="0" y="0.250977" width="310.607" height="333.526" filterUnits="userSpaceOnUse" color-interpolation-filters="sRGB">
<feFlood flood-opacity="0" result="BackgroundImageFix"/>
<feBlend mode="normal" in="SourceGraphic" in2="BackgroundImageFix" result="shape"/>
<feGaussianBlur stdDeviation="5" result="effect1_foregroundBlur_8_374"/>
</filter>
</defs>
</svg>
