<svg width="312" height="280" viewBox="0 0 312 280" fill="none" xmlns="http://www.w3.org/2000/svg">
<path opacity="0.2" d="M10.5456 107.028C15.0719 104.736 19.3019 103.343 22.8454 102.531L56.1908 233.036C57.7951 239.314 64.3561 242.749 70.3563 240.831C117.314 225.82 151.653 231.09 166.039 236.474C171.077 238.359 176.701 236.609 179.897 232.515C187.446 222.844 202.803 214.127 220.716 207.021C238.351 200.025 257.387 194.998 271.139 192.186C277.283 190.929 281.288 184.788 279.701 178.575L248.294 55.657C249.097 54.0647 249.873 52.4177 250.623 50.7328L256.027 49.4781L293.619 196.605L221.269 215.091C203.304 219.682 189.793 239.686 181.075 246.052C172.356 252.418 155.555 247.399 141.544 241.151C130.334 236.154 75.4301 250.975 49.3787 259.011L10.5456 107.028ZM182.587 47.6676C171.038 63.0303 165.326 77.8806 163.378 90.4409C160.592 90.4952 158.017 91.9962 156.603 94.4267C146.578 111.667 148.971 129.527 155.206 143.953C160.739 156.755 169.55 167.573 176.84 174.477L178.787 198.18C178.981 200.533 180.202 202.683 182.124 204.053C184.047 205.424 186.477 205.877 188.765 205.293L193.134 204.176C196.627 203.284 199.095 200.169 199.166 196.565L199.561 176.508C214.76 166.506 224.557 152.054 230.574 139.863C233.861 133.202 236.106 127.045 237.53 122.339C238.242 119.986 238.763 117.952 239.108 116.358C239.28 115.567 239.419 114.833 239.517 114.192C239.579 113.785 239.74 112.737 239.683 111.661C239.581 109.726 238.878 108.091 237.893 106.809C241.375 101.001 243.477 94.5354 244.765 89.0203C245.985 83.7927 246.632 78.7446 246.927 74.5987L273.874 180.064C273.987 180.504 274.038 180.945 274.033 181.377C274.03 181.55 274.018 181.722 273.998 181.891C273.979 182.06 273.951 182.229 273.914 182.394C273.896 182.476 273.875 182.559 273.853 182.64C273.808 182.802 273.755 182.963 273.695 183.12C273.513 183.59 273.262 184.031 272.951 184.428C272.693 184.759 272.393 185.059 272.058 185.32C272.039 185.335 272.018 185.349 271.998 185.363C271.814 185.502 271.621 185.632 271.417 185.746C271.041 185.956 270.632 186.122 270.198 186.235C270.111 186.257 270.022 186.277 269.934 186.295C265.121 187.279 259.67 188.529 253.858 190.037C251.215 190.722 248.497 191.462 245.73 192.254C244.07 192.728 242.392 193.222 240.702 193.734C240.139 193.904 239.574 194.077 239.009 194.252C237.312 194.777 235.603 195.32 233.891 195.881C233.28 196.082 232.667 196.284 232.055 196.489C230.952 196.859 229.848 197.237 228.745 197.621C226.654 198.351 224.563 199.108 222.484 199.891C217.29 201.848 212.166 203.972 207.268 206.258C193.742 212.571 181.939 220.125 175.155 228.815C174.286 229.929 173.065 230.694 171.739 231.027L171.738 231.028C171.505 231.086 171.267 231.131 171.028 231.163C170.869 231.184 170.707 231.199 170.546 231.207C169.823 231.245 169.089 231.154 168.382 230.924C168.303 230.898 168.225 230.871 168.147 230.841C167.901 230.749 167.649 230.657 167.393 230.565C166.88 230.382 166.348 230.199 165.797 230.018C164.694 229.655 163.515 229.299 162.261 228.955C161.948 228.868 161.629 228.783 161.307 228.699C159.048 228.106 156.561 227.55 153.858 227.059C153.472 226.989 153.081 226.92 152.686 226.852C149.92 226.38 146.938 225.976 143.751 225.666C140.108 225.312 136.195 225.08 132.029 225.009C128.383 224.948 124.542 225.009 120.517 225.22C115.342 225.492 109.861 226.012 104.096 226.834C101.534 227.199 98.9147 227.624 96.2423 228.114C94.238 228.481 92.2024 228.885 90.1377 229.327C88.7613 229.621 87.3707 229.933 85.968 230.262C80.3569 231.58 74.5369 233.18 68.5246 235.102C68.3119 235.17 68.097 235.223 67.8831 235.262C67.8351 235.271 67.7865 235.28 67.7385 235.288C67.7284 235.289 67.7174 235.29 67.7072 235.292C67.6313 235.303 67.5547 235.313 67.4788 235.321C67.4623 235.323 67.4449 235.323 67.4284 235.325C67.3584 235.331 67.2878 235.338 67.2179 235.341C67.1945 235.342 67.1703 235.342 67.1469 235.343C67.0899 235.345 67.0324 235.347 66.9757 235.348C66.9337 235.348 66.8911 235.347 66.8492 235.346C66.8022 235.345 66.7547 235.344 66.708 235.342C66.6788 235.34 66.649 235.338 66.6198 235.336C66.5651 235.332 66.5098 235.329 66.4554 235.323C66.4262 235.321 66.3964 235.317 66.3672 235.314C66.3096 235.307 66.2514 235.3 66.1942 235.291C66.1712 235.288 66.1477 235.284 66.1248 235.28C66.0685 235.271 66.0117 235.261 65.956 235.25C65.9209 235.243 65.8853 235.236 65.8505 235.228C65.8037 235.218 65.7564 235.207 65.7101 235.195C65.6769 235.187 65.6434 235.177 65.6104 235.168C65.5608 235.155 65.5107 235.141 65.4615 235.126C65.426 235.115 65.3902 235.103 65.355 235.092C65.3206 235.08 65.2856 235.069 65.2515 235.057C65.2042 235.041 65.1568 235.023 65.1101 235.005C65.0685 234.989 65.0266 234.972 64.9855 234.955C64.9631 234.946 64.94 234.937 64.9178 234.927C64.8612 234.903 64.8047 234.877 64.749 234.85C64.7256 234.839 64.7019 234.827 64.6787 234.816C64.6383 234.796 64.5972 234.776 64.5574 234.755C64.5086 234.729 64.4599 234.703 64.412 234.675C64.3934 234.665 64.3747 234.653 64.3562 234.642C64.3128 234.617 64.269 234.591 64.2265 234.564C64.1864 234.539 64.1463 234.513 64.1069 234.487C64.081 234.47 64.0546 234.452 64.029 234.435C63.9816 234.402 63.9344 234.368 63.8882 234.333C63.8653 234.316 63.8421 234.299 63.8195 234.281C63.7856 234.255 63.7517 234.228 63.7184 234.201C63.6842 234.174 63.6497 234.145 63.6161 234.117C63.5912 234.095 63.5665 234.073 63.5419 234.051C63.5057 234.019 63.4694 233.986 63.4341 233.953C63.4015 233.922 63.3692 233.89 63.3374 233.858C63.3099 233.831 63.2817 233.804 63.2548 233.776C63.2303 233.75 63.2064 233.723 63.1824 233.697C63.1499 233.662 63.117 233.626 63.0855 233.59C63.0624 233.563 63.0398 233.536 63.0173 233.509C62.9858 233.471 62.9538 233.433 62.9234 233.394C62.9031 233.368 62.8836 233.34 62.8638 233.314C62.48 232.802 62.1862 232.209 62.0173 231.548L26.9713 94.3869C26.3541 91.9706 27.5878 89.4689 29.914 88.5701C55.0397 78.8645 102.913 66.1108 129.188 78.9577L129.19 78.9581C129.239 78.9822 129.289 79.0058 129.338 79.0301C129.477 79.0985 129.618 79.1612 129.761 79.2185C129.781 79.2268 129.802 79.236 129.822 79.244C130.213 79.3968 130.616 79.5074 131.024 79.5782C132.653 79.8615 134.36 79.4968 135.709 78.5553C136.102 78.2809 136.467 77.9578 136.788 77.5872C136.847 77.5199 136.905 77.4504 136.96 77.38C137.033 77.2871 137.109 77.1935 137.184 77.1L137.185 77.0998C144.766 67.6264 159.741 55.2646 182.587 47.6676ZM134.343 87.4537C133.085 87.7752 132.325 89.0559 132.647 90.3142L166.765 223.845C167.087 225.103 168.368 225.862 169.626 225.541C170.884 225.219 171.644 223.939 171.322 222.68L137.204 89.1499C136.882 87.8916 135.602 87.1322 134.343 87.4537ZM257.35 -8.5533e-06C254.928 13.1001 249.165 36.1061 241.154 52.0052L241.154 52.0061C241.152 52.01 241.15 52.014 241.148 52.0178C240.956 52.3996 240.761 52.777 240.566 53.1504C240.548 53.1844 240.53 53.2187 240.512 53.2527C239.498 55.1876 238.45 57.0055 237.369 58.6721C237.327 58.7375 237.283 58.8023 237.241 58.8672C237.072 59.1247 236.903 59.379 236.733 59.629C236.684 59.7008 236.635 59.7727 236.586 59.8439C236.4 60.1138 236.213 60.3795 236.026 60.6402C235.994 60.6843 235.962 60.7286 235.93 60.7724C235.86 60.87 235.789 60.9674 235.718 61.0637C235.564 61.2718 235.41 61.4772 235.255 61.6788C235.22 61.7248 235.183 61.7704 235.148 61.816C234.785 62.2843 234.419 62.735 234.049 63.1661C234.029 63.1896 234.009 63.2136 233.989 63.237C233.819 63.4338 233.648 63.6266 233.477 63.8152C233.426 63.8717 233.374 63.9279 233.323 63.9837C232.971 64.3661 232.617 64.7319 232.259 65.078C232.241 65.0952 232.223 65.1129 232.206 65.1299C232.128 65.2048 232.049 65.2781 231.971 65.3512C231.922 65.3973 231.872 65.4434 231.823 65.4889C231.758 65.5482 231.694 65.6073 231.629 65.6654C231.577 65.7121 231.524 65.7583 231.472 65.8043C231.418 65.8519 231.364 65.8998 231.31 65.9465C231.255 65.9935 231.2 66.0401 231.146 66.0862C231.083 66.1389 231.021 66.1914 230.958 66.243C230.893 66.2967 230.827 66.3496 230.762 66.402C230.717 66.4376 230.673 66.4735 230.629 66.5085C230.596 66.534 230.564 66.5597 230.531 66.5848C230.451 66.6472 230.371 66.709 230.29 66.7694C230.492 66.6441 230.701 66.5197 230.912 66.3948C233.048 65.132 235.584 63.9489 237.223 64.0303C237.305 64.0343 237.385 64.0416 237.462 64.052C237.616 64.0731 237.762 64.1073 237.896 64.1559C238.365 64.3262 238.701 64.6738 238.848 65.2481C238.879 65.3695 238.909 65.5211 238.936 65.7014C238.962 65.8816 238.987 66.0904 239.008 66.3259C239.214 68.5636 239.166 73.2197 238.456 78.8012C238.343 79.6823 238.214 80.5866 238.068 81.5079C237.431 85.5015 236.455 89.8183 235.007 93.9799C234.781 94.6308 234.542 95.278 234.292 95.9194C233.928 96.8554 233.538 97.7799 233.12 98.6863C232.839 99.2973 232.545 99.9008 232.239 100.494C231.242 102.422 230.11 104.247 228.826 105.909C228.629 106.164 228.428 106.416 228.223 106.664C226.074 109.265 223.521 111.417 220.497 112.869C221.187 112.66 222.009 112.431 222.887 112.209C223.188 112.133 223.496 112.057 223.807 111.984C224.39 111.847 224.988 111.717 225.579 111.602C225.901 111.539 226.223 111.481 226.539 111.428C226.971 111.356 227.395 111.294 227.802 111.246C227.982 111.225 228.159 111.206 228.332 111.191C228.552 111.171 228.766 111.156 228.971 111.146C229.03 111.143 229.089 111.141 229.147 111.139C229.492 111.127 229.812 111.131 230.101 111.155C230.252 111.167 230.393 111.187 230.526 111.21C230.668 111.234 230.8 111.264 230.919 111.302C231.072 111.351 231.206 111.411 231.316 111.485C231.354 111.51 231.389 111.538 231.421 111.566C231.575 111.702 231.665 111.872 231.676 112.083C231.781 114.078 226.29 138.654 209.032 157.791C208.859 157.982 208.686 158.174 208.511 158.364C203.787 163.501 198.2 168.221 191.631 171.973L191.149 196.407L186.78 197.524L186.705 196.608L184.573 170.672C170.722 158.643 147.232 127.622 163.152 99.1297C163.277 98.9054 163.405 98.6811 163.535 98.4571L163.923 99.2803C164.475 100.432 165.156 101.779 165.892 103.12C166.444 104.126 167.027 105.128 167.608 106.041C167.705 106.194 167.802 106.344 167.898 106.49C169.299 108.62 170.659 110.149 171.529 109.875C171.558 109.865 171.588 109.855 171.617 109.841C170.498 105.152 170.191 98.8581 171.366 91.4701C171.375 91.415 171.383 91.3595 171.392 91.3042C175.371 66.6896 195.79 30.0198 257.35 -8.5533e-06ZM227.632 37.4182C226.725 36.4885 225.237 36.4694 224.307 37.3757C211.072 50.2818 185.728 92.8213 186.673 161.808C186.691 163.106 187.758 164.145 189.057 164.128C190.355 164.11 191.393 163.042 191.376 161.744C190.445 93.8253 215.427 52.6049 227.591 40.7439C228.52 39.8371 228.538 38.3481 227.632 37.4182Z" fill="white"/>
<g filter="url(#filter0_f_7_122)">
<path d="M134.123 139.142L133.8 144.219L138.53 146.095L133.601 147.357L133.279 152.434L130.555 148.137L125.627 149.4L128.872 145.482L126.148 141.184L130.878 143.06L134.123 139.142Z" fill="white"/>
<path d="M49.2982 102.134L48.9759 107.211L53.7051 109.087L48.7766 110.349L48.4543 115.426L45.7307 111.129L40.8023 112.392L44.0474 108.473L41.3238 104.176L46.053 106.052L49.2982 102.134Z" fill="white"/>
<path d="M66.7813 211.95L74.0935 215.136L79.3837 209.167L78.6126 217.106L85.9248 220.292L78.1361 222.012L77.365 229.951L73.3224 223.075L65.5336 224.795L70.8239 218.826L66.7813 211.95Z" fill="white"/>
<path d="M228.285 55.6197L230.571 73.6301L248.406 77.0215L231.984 84.7612L234.27 102.772L221.834 89.5446L205.412 97.2843L214.149 81.3698L201.713 68.1428L219.548 71.5342L228.285 55.6197Z" fill="white"/>
<circle cx="120.889" cy="97.0816" r="3.8975" fill="white"/>
<circle cx="61.3146" cy="157.44" r="3.8975" fill="white"/>
<path d="M132.27 144.643C132.75 144.558 133.233 144.778 133.484 145.195C133.735 145.613 133.701 146.143 133.4 146.526L76.5679 218.893L180.327 198.423C180.4 199.226 180.593 199.994 180.886 200.71L73.9126 221.814C73.4302 221.91 72.9391 221.695 72.6821 221.275C72.4252 220.856 72.4566 220.321 72.7603 219.935L129.649 147.495L69.1665 158.227C69.2363 157.802 69.2749 157.366 69.2749 156.922C69.2749 156.552 69.2474 156.188 69.1987 155.832L132.27 144.643ZM222.672 83.1396C222.862 82.5187 223.519 82.1681 224.14 82.3574C224.761 82.5469 225.11 83.2043 224.921 83.8252L192.318 190.796C191.644 190.4 190.908 190.1 190.126 189.915L222.672 83.1396ZM114.525 101.418C115.005 102.043 115.574 102.595 116.215 103.055L67.7075 152.171C67.2385 151.538 66.6785 150.977 66.0464 150.508L114.525 101.418ZM112.906 95.916C112.889 96.1296 112.878 96.3455 112.878 96.5635C112.878 97.1502 112.943 97.7218 113.063 98.2725L45.6558 109.335C45.0151 109.44 44.4105 109.006 44.3052 108.365C44.2001 107.725 44.6342 107.12 45.2749 107.015L112.906 95.916Z" fill="white"/>
<circle cx="188.303" cy="198.202" r="3.8975" fill="white"/>
</g>
<path d="M134.123 139.142L133.8 144.219L138.53 146.095L133.601 147.357L133.279 152.434L130.555 148.137L125.627 149.4L128.872 145.482L126.148 141.184L130.878 143.06L134.123 139.142Z" fill="white"/>
<path d="M49.2982 102.134L48.9759 107.211L53.7051 109.087L48.7766 110.349L48.4543 115.426L45.7307 111.129L40.8023 112.392L44.0474 108.473L41.3238 104.176L46.053 106.052L49.2982 102.134Z" fill="white"/>
<path d="M66.7813 211.95L74.0935 215.136L79.3837 209.167L78.6126 217.106L85.9248 220.292L78.1361 222.012L77.365 229.951L73.3224 223.075L65.5336 224.795L70.8239 218.826L66.7813 211.95Z" fill="white"/>
<path d="M228.285 55.6197L230.571 73.6301L248.406 77.0215L231.984 84.7612L234.27 102.772L221.834 89.5446L205.412 97.2843L214.149 81.3698L201.713 68.1428L219.548 71.5342L228.285 55.6197Z" fill="white"/>
<circle cx="120.889" cy="97.0816" r="3.8975" fill="white"/>
<circle cx="61.3146" cy="157.44" r="3.8975" fill="white"/>
<path d="M132.269 144.643C132.749 144.558 133.232 144.778 133.483 145.196C133.734 145.614 133.7 146.144 133.399 146.527L76.5673 218.893L180.326 198.423C180.4 199.226 180.593 199.994 180.887 200.711L73.912 221.815C73.4297 221.91 72.9385 221.695 72.6815 221.276C72.4246 220.857 72.4561 220.322 72.7596 219.935L129.648 147.496L69.1659 158.227C69.2357 157.803 69.2743 157.367 69.2743 156.923C69.2743 156.553 69.2467 156.189 69.1981 155.833L132.269 144.643ZM222.672 83.1404C222.861 82.5192 223.518 82.1688 224.14 82.3582C224.76 82.5476 225.11 83.2049 224.921 83.8259L192.317 190.796C191.644 190.4 190.907 190.1 190.126 189.915L222.672 83.1404ZM114.525 101.419C115.005 102.044 115.574 102.595 116.215 103.054L67.7069 152.171C67.2378 151.538 66.6779 150.977 66.0458 150.508L114.525 101.419ZM112.906 95.9167C112.889 96.1301 112.878 96.3455 112.878 96.5632C112.878 97.1501 112.942 97.7224 113.062 98.2732L45.6552 109.336C45.0146 109.441 44.4101 109.006 44.3046 108.366C44.1994 107.725 44.6335 107.121 45.2743 107.015L112.906 95.9167Z" fill="white"/>
<circle cx="188.302" cy="198.202" r="3.8975" fill="white"/>
<defs>
<filter id="filter0_f_7_122" x="32.9635" y="47.7809" width="223.282" height="190.009" filterUnits="userSpaceOnUse" color-interpolation-filters="sRGB">
<feFlood flood-opacity="0" result="BackgroundImageFix"/>
<feBlend mode="normal" in="SourceGraphic" in2="BackgroundImageFix" result="shape"/>
<feGaussianBlur stdDeviation="3.91938" result="effect1_foregroundBlur_7_122"/>
</filter>
</defs>
</svg>
