<svg width="414" height="371" viewBox="0 0 414 371" fill="none" xmlns="http://www.w3.org/2000/svg">
<path opacity="0.2" d="M13.9819 141.902C19.9833 138.862 25.5915 137.015 30.2897 135.939L74.4996 308.965C76.6267 317.289 85.325 321.843 93.2803 319.3C155.538 299.398 201.064 306.385 220.138 313.523C226.818 316.023 234.274 313.702 238.511 308.274C248.52 295.452 268.881 283.895 292.632 274.473C316.012 265.199 341.25 258.533 359.483 254.805C367.629 253.138 372.938 244.997 370.834 236.759L329.194 73.7909C330.258 71.6804 331.288 69.4981 332.282 67.2648L339.445 65.6007L389.286 260.664L293.364 285.173C269.545 291.259 251.632 317.781 240.073 326.222C228.513 334.661 206.239 328.009 187.663 319.725C172.802 313.099 100.007 332.749 65.4675 343.403L13.9819 141.902ZM242.083 63.1919C226.767 83.5624 219.193 103.253 216.61 119.908C212.917 119.98 209.502 121.97 207.628 125.192C194.336 148.05 197.509 171.73 205.775 190.856C213.111 207.83 224.792 222.171 234.457 231.325L237.04 262.751C237.297 265.871 238.916 268.721 241.465 270.538C244.014 272.355 247.235 272.956 250.268 272.182L256.061 270.701C260.692 269.518 263.965 265.389 264.059 260.61L264.582 234.017C284.733 220.756 297.723 201.596 305.7 185.434C310.059 176.602 313.034 168.439 314.923 162.199C315.867 159.079 316.557 156.384 317.015 154.271C317.243 153.221 317.427 152.248 317.557 151.398C317.64 150.859 317.852 149.469 317.776 148.042C317.641 145.477 316.71 143.31 315.404 141.611C320.02 133.91 322.807 125.338 324.514 118.025C326.132 111.094 326.99 104.401 327.381 98.9043L363.108 238.733C363.745 241.224 362.886 243.723 361.125 245.34C361.014 245.442 360.9 245.539 360.782 245.633C360.474 245.88 360.144 246.103 359.791 246.296C359.61 246.395 359.424 246.488 359.233 246.571C358.808 246.754 358.356 246.898 357.885 246.995C356.724 247.232 355.536 247.481 354.322 247.742C353.715 247.872 353.101 248.004 352.481 248.14C346.286 249.501 339.474 251.151 332.319 253.081C329.536 253.832 326.7 254.626 323.829 255.461C321.534 256.129 319.216 256.823 316.884 257.543C314.633 258.239 312.369 258.96 310.098 259.704C305.557 261.194 300.99 262.781 296.458 264.465C291.925 266.148 287.425 267.928 283.018 269.802C281.549 270.426 280.09 271.061 278.644 271.707C277.198 272.352 275.763 273.008 274.344 273.674C272.925 274.34 271.52 275.017 270.132 275.704C269.438 276.047 268.748 276.393 268.063 276.741C263.951 278.832 260 281.015 256.269 283.289C255.336 283.857 254.417 284.431 253.513 285.011C252.91 285.397 252.313 285.786 251.723 286.178C250.839 286.765 249.971 287.358 249.118 287.956C248.265 288.554 247.428 289.158 246.608 289.768C244.969 290.986 243.398 292.227 241.903 293.49C241.405 293.911 240.914 294.334 240.433 294.759C240.193 294.972 239.954 295.186 239.718 295.4C239.245 295.828 238.782 296.259 238.327 296.692C238.1 296.909 237.875 297.126 237.652 297.344C235.648 299.303 233.831 301.312 232.226 303.368C232.158 303.454 232.089 303.54 232.018 303.623C231.45 304.293 230.783 304.859 230.052 305.309C229.594 305.591 229.111 305.826 228.611 306.015C228.312 306.128 228.006 306.224 227.696 306.302L227.384 306.374C227.071 306.44 226.753 306.488 226.434 306.518C226.222 306.537 226.008 306.547 225.795 306.55C225.367 306.555 224.937 306.528 224.511 306.464C223.978 306.384 223.449 306.249 222.933 306.056C221.952 305.689 220.912 305.323 219.816 304.963C217.99 304.363 216.004 303.775 213.865 303.213C213.009 302.988 212.128 302.768 211.224 302.552C208.51 301.906 205.577 301.304 202.435 300.767C200.863 300.499 199.238 300.247 197.563 300.014C195.887 299.782 194.16 299.569 192.382 299.378C190.605 299.186 188.776 299.017 186.899 298.873C183.77 298.632 180.502 298.46 177.102 298.368C176.423 298.35 175.737 298.335 175.047 298.323C172.975 298.288 170.856 298.282 168.691 298.31C167.248 298.328 165.783 298.362 164.299 298.41C162.815 298.459 161.309 298.523 159.784 298.603C141.106 299.584 119.426 302.996 95.3088 310.316C93.8325 310.764 92.3462 311.227 90.8518 311.704L90.5049 311.806C90.4115 311.831 90.3169 311.852 90.2234 311.872C90.1244 311.894 90.0244 311.912 89.9255 311.929C89.891 311.935 89.856 311.943 89.8216 311.949C89.7673 311.957 89.712 311.963 89.6578 311.97C89.5968 311.978 89.5352 311.988 89.4743 311.994C89.4306 311.999 89.3857 312.001 89.342 312.005C89.27 312.011 89.1972 312.017 89.1254 312.021C89.092 312.022 89.0578 312.023 89.0245 312.024C88.9442 312.027 88.8632 312.03 88.7832 312.03C88.7257 312.031 88.6673 312.029 88.61 312.027C88.5612 312.026 88.5115 312.026 88.4629 312.024C88.4122 312.021 88.3606 312.017 88.3101 312.013C88.2376 312.008 88.1642 312.004 88.0921 311.996C88.0695 311.994 88.0461 311.991 88.0236 311.989C87.9414 311.98 87.8584 311.97 87.7769 311.958C87.719 311.949 87.6606 311.939 87.6031 311.929C87.5562 311.921 87.5082 311.913 87.4616 311.903C87.403 311.892 87.3438 311.879 87.2856 311.866C87.2311 311.854 87.1757 311.841 87.1215 311.827C87.0689 311.814 87.0157 311.799 86.9636 311.785C86.9172 311.772 86.8696 311.76 86.8236 311.746C86.7555 311.726 86.6869 311.704 86.6196 311.681C86.5819 311.669 86.5433 311.656 86.5059 311.643C86.4389 311.619 86.3716 311.594 86.3054 311.568C86.2725 311.555 86.2384 311.542 86.2057 311.529C86.135 311.5 86.0639 311.47 85.9942 311.439C85.9647 311.426 85.9345 311.412 85.9052 311.398C85.8386 311.367 85.7717 311.335 85.7062 311.302C85.6717 311.284 85.6361 311.267 85.6019 311.249C85.5396 311.216 85.477 311.182 85.4157 311.147C85.3816 311.128 85.3467 311.108 85.3129 311.088C85.253 311.053 85.1927 311.016 85.1339 310.979C85.0953 310.955 85.0561 310.929 85.018 310.904C84.9721 310.874 84.9255 310.843 84.8803 310.811C84.8327 310.778 84.7843 310.744 84.7375 310.71C84.6913 310.676 84.6444 310.641 84.5991 310.606C84.5608 310.576 84.5226 310.545 84.4849 310.514C84.4416 310.479 84.3973 310.443 84.3548 310.407C84.3125 310.371 84.2702 310.333 84.2287 310.296C84.1861 310.258 84.1428 310.219 84.1011 310.18C84.0642 310.145 84.0273 310.108 83.9912 310.073C83.9488 310.031 83.906 309.988 83.8647 309.945C83.8255 309.904 83.7863 309.861 83.748 309.819C83.7127 309.781 83.6767 309.741 83.6422 309.701C83.6057 309.659 83.5693 309.616 83.5338 309.573C83.4987 309.53 83.4632 309.487 83.4292 309.443C83.4002 309.406 83.372 309.368 83.3438 309.33C83.3043 309.277 83.2642 309.224 83.2262 309.17C83.1906 309.119 83.1554 309.067 83.1212 309.015C83.0976 308.979 83.0732 308.943 83.0503 308.907C83.0148 308.851 82.98 308.793 82.9461 308.736C82.9192 308.691 82.8914 308.645 82.8656 308.599C82.7234 308.345 82.5979 308.077 82.4884 307.801C82.4289 307.65 82.3724 307.497 82.3233 307.34C82.2875 307.226 82.2542 307.109 82.2241 306.991L35.7593 125.14C34.941 121.937 36.5761 118.62 39.6602 117.429C73.0359 104.536 136.687 87.586 171.48 104.781C171.775 104.927 172.078 105.053 172.384 105.161C172.587 105.232 172.793 105.295 172.999 105.35C175.471 106.008 178.166 105.497 180.186 103.962C180.336 103.848 180.484 103.729 180.626 103.603C180.654 103.579 180.68 103.553 180.707 103.528C180.801 103.443 180.893 103.355 180.983 103.265C181.195 103.054 181.397 102.83 181.585 102.592C191.54 89.9846 211.487 73.3634 242.083 63.1919ZM178.115 115.948C176.447 116.374 175.44 118.073 175.866 119.741L221.101 296.779C221.527 298.447 223.226 299.454 224.894 299.028C226.562 298.602 227.569 296.903 227.143 295.235L181.908 118.197C181.482 116.529 179.783 115.522 178.115 115.948ZM341.201 -1.16319e-06C337.91 17.7972 329.968 49.3845 318.935 70.4935C318.919 70.5243 318.903 70.5556 318.887 70.5864C318.498 71.329 318.105 72.0589 317.709 72.7744C317.65 72.8796 317.592 72.9847 317.533 73.0894C317.316 73.4783 317.097 73.8634 316.878 74.2436C316.829 74.3276 316.78 74.4112 316.731 74.4947C316.545 74.8148 316.358 75.132 316.17 75.4455C316.069 75.6143 315.968 75.7827 315.866 75.9495C315.765 76.1157 315.663 76.2813 315.561 76.4456C315.393 76.7172 315.224 76.9862 315.055 77.2524C314.96 77.4007 314.866 77.5483 314.771 77.6949C314.618 77.9307 314.465 78.1645 314.312 78.3957C314.226 78.5246 314.14 78.6526 314.054 78.78C313.892 79.0218 313.728 79.2614 313.564 79.4979C313.489 79.6068 313.414 79.716 313.338 79.8238C313.147 80.0954 312.956 80.3636 312.764 80.6278C312.656 80.7759 312.548 80.9235 312.44 81.0693C312.42 81.0966 312.399 81.1242 312.379 81.1513C311.647 82.1342 310.904 83.0621 310.151 83.93C310.108 83.9794 310.065 84.0288 310.023 84.0778C309.926 84.1886 309.828 84.2986 309.731 84.4074C309.677 84.4678 309.622 84.5282 309.568 84.588C309.474 84.6924 309.379 84.796 309.284 84.8985C309.224 84.9635 309.164 85.0286 309.104 85.0927C308.862 85.35 308.619 85.6007 308.376 85.8452C308.229 85.9929 308.081 86.1387 307.934 86.2817C307.91 86.3046 307.887 86.3283 307.863 86.3512C307.79 86.4216 307.716 86.4915 307.642 86.5608C307.532 86.6651 307.421 86.7688 307.31 86.8704C307.264 86.9128 307.216 86.954 307.17 86.9959C307.076 87.0806 306.982 87.1646 306.888 87.2473C306.811 87.3152 306.734 87.383 306.657 87.4496C306.596 87.5017 306.535 87.5536 306.475 87.6049C306.385 87.6807 306.295 87.756 306.206 87.8299C306.131 87.8916 306.055 87.9522 305.98 88.0125C305.908 88.0703 305.837 88.1288 305.765 88.1854C305.666 88.2634 305.566 88.3392 305.466 88.415C305.417 88.4526 305.368 88.4912 305.319 88.5283C308.241 86.7167 311.979 84.8512 314.376 84.8916C314.556 84.8946 314.729 84.9064 314.893 84.9318C314.971 84.9438 315.047 84.958 315.121 84.9754C315.188 84.991 315.252 85.0095 315.315 85.0295C315.39 85.0532 315.463 85.0791 315.532 85.1092C316.09 85.3496 316.489 85.7973 316.671 86.5067C317.986 91.6568 316.774 137.914 292.34 149.644C293.557 149.277 295.08 148.859 296.682 148.482C296.697 148.478 296.713 148.474 296.728 148.471C297.502 148.289 298.294 148.118 299.078 147.965C299.301 147.922 299.524 147.879 299.746 147.839C300.929 147.625 302.079 147.463 303.106 147.388C303.166 147.383 303.226 147.38 303.285 147.376C303.943 147.334 304.548 147.329 305.073 147.372C305.246 147.386 305.409 147.407 305.564 147.432C305.818 147.472 306.047 147.526 306.247 147.597C306.803 147.796 307.136 148.119 307.162 148.601C307.273 150.716 302.637 171.993 289.062 193.41C288.723 193.945 288.378 194.481 288.027 195.016C285.047 199.566 281.658 204.102 277.821 208.439C277.37 208.949 276.912 209.457 276.448 209.961C274.825 211.727 273.124 213.456 271.344 215.135C271.09 215.374 270.834 215.613 270.576 215.851C270.061 216.326 269.538 216.797 269.01 217.264C268.746 217.497 268.481 217.73 268.214 217.961C263.935 221.659 259.23 225.057 254.068 228.004L253.429 260.4L247.636 261.881L244.711 226.281C244.133 225.779 243.542 225.251 242.941 224.7C242.339 224.149 241.727 223.573 241.106 222.975C238.001 219.981 234.68 216.409 231.399 212.367C231.07 211.963 230.743 211.554 230.416 211.14C228.177 208.311 225.969 205.265 223.871 202.043C223.211 201.028 222.56 199.997 221.924 198.948C219.859 195.541 217.937 191.959 216.245 188.24C208.271 170.71 205.42 150.14 216.819 130.537C217.909 132.893 219.576 136.201 221.318 139.128C222.304 140.784 223.316 142.318 224.26 143.489C224.762 144.112 225.244 144.633 225.695 145.014C225.822 145.121 225.947 145.216 226.068 145.3C226.628 145.688 227.127 145.826 227.534 145.63C227.474 145.377 227.416 145.12 227.359 144.86C227.348 144.809 227.336 144.757 227.325 144.705C227.277 144.478 227.229 144.248 227.183 144.015C227.171 143.954 227.16 143.892 227.148 143.831C226.994 143.029 226.855 142.197 226.736 141.336C226.728 141.277 226.72 141.218 226.713 141.159C226.678 140.904 226.646 140.647 226.615 140.387C226.61 140.341 226.603 140.294 226.598 140.248C226.38 138.382 226.249 136.388 226.217 134.279C226.217 134.219 226.216 134.16 226.215 134.101C226.203 133.055 226.215 131.981 226.253 130.88C226.254 130.861 226.254 130.842 226.255 130.824C227.402 98.7801 250.969 44.0021 341.201 -1.16319e-06ZM301.8 49.6088C300.598 48.3763 298.624 48.3519 297.391 49.554C279.844 66.6647 246.242 123.064 247.495 214.528C247.519 216.25 248.934 217.626 250.655 217.603C252.377 217.579 253.754 216.164 253.73 214.442C252.497 124.394 285.618 69.7428 301.744 54.0177C302.977 52.8155 303.002 50.8416 301.8 49.6088Z" fill="white"/>
<g filter="url(#filter0_f_7_122)">
<path d="M177.823 184.477L177.396 191.209L183.666 193.696L177.132 195.37L176.704 202.101L173.093 196.404L166.559 198.078L170.862 192.883L167.25 187.186L173.521 189.672L177.823 184.477Z" fill="white"/>
<path d="M65.3607 135.411L64.9333 142.143L71.2035 144.63L64.6692 146.303L64.2419 153.035L60.6309 147.338L54.0966 149.012L58.3991 143.817L54.7881 138.12L61.0582 140.606L65.3607 135.411Z" fill="white"/>
<path d="M88.5402 281.008L98.2349 285.233L105.249 277.318L104.226 287.844L113.921 292.069L103.595 294.349L102.572 304.875L97.2125 295.758L86.8861 298.039L93.9 290.124L88.5402 281.008Z" fill="white"/>
<path d="M302.666 73.7419L305.697 97.6205L329.343 102.117L307.57 112.378L310.601 136.257L294.113 118.72L272.34 128.982L283.923 107.882L267.436 90.3453L291.082 94.8416L302.666 73.7419Z" fill="white"/>
<circle cx="160.278" cy="128.713" r="5.16739" fill="white"/>
<circle cx="81.2924" cy="208.738" r="5.16739" fill="white"/>
<path d="M175.367 191.771C176.003 191.658 176.643 191.95 176.976 192.504C177.308 193.059 177.264 193.761 176.865 194.269L101.515 290.213L239.081 263.074C239.179 264.138 239.434 265.156 239.824 266.106L97.9945 294.086C97.3549 294.213 96.7043 293.927 96.3636 293.372C96.0232 292.816 96.0646 292.107 96.4672 291.594L171.89 195.554L91.7025 209.781C91.7951 209.218 91.8461 208.64 91.8461 208.05C91.8461 207.56 91.809 207.078 91.7445 206.606L175.367 191.771ZM295.224 110.229C295.475 109.406 296.346 108.941 297.169 109.192C297.993 109.443 298.457 110.314 298.206 111.137L254.979 252.961C254.086 252.437 253.11 252.04 252.075 251.794L295.224 110.229ZM151.84 134.462C152.476 135.291 153.232 136.023 154.081 136.632L89.7679 201.752C89.1458 200.913 88.4034 200.169 87.5648 199.546L151.84 134.462ZM149.694 127.167C149.671 127.45 149.657 127.736 149.657 128.026C149.657 128.804 149.743 129.562 149.902 130.292L60.5316 144.958C59.6822 145.098 58.8802 144.523 58.7406 143.673C58.6013 142.824 59.1765 142.022 60.0258 141.882L149.694 127.167Z" fill="white"/>
<circle cx="249.656" cy="262.78" r="5.16739" fill="white"/>
</g>
<path d="M177.823 184.477L177.396 191.209L183.666 193.696L177.132 195.37L176.704 202.101L173.093 196.404L166.559 198.078L170.862 192.883L167.25 187.186L173.521 189.672L177.823 184.477Z" fill="white"/>
<path d="M65.3607 135.411L64.9333 142.143L71.2035 144.63L64.6692 146.303L64.2419 153.035L60.6309 147.338L54.0966 149.012L58.3991 143.817L54.7881 138.12L61.0582 140.606L65.3607 135.411Z" fill="white"/>
<path d="M88.5402 281.008L98.2349 285.233L105.249 277.318L104.226 287.844L113.921 292.069L103.595 294.349L102.572 304.875L97.2125 295.758L86.8861 298.039L93.9 290.124L88.5402 281.008Z" fill="white"/>
<path d="M302.666 73.7419L305.697 97.6205L329.343 102.117L307.57 112.378L310.601 136.257L294.113 118.72L272.34 128.982L283.923 107.882L267.436 90.3453L291.082 94.8416L302.666 73.7419Z" fill="white"/>
<circle cx="160.278" cy="128.713" r="5.16739" fill="white"/>
<circle cx="81.2924" cy="208.738" r="5.16739" fill="white"/>
<path d="M175.366 191.771C176.002 191.658 176.643 191.95 176.975 192.504C177.307 193.058 177.263 193.761 176.864 194.269L101.514 290.213L239.081 263.073C239.178 264.138 239.434 265.156 239.823 266.106L97.9938 294.086C97.3542 294.212 96.7036 293.927 96.3629 293.371C96.0227 292.816 96.064 292.106 96.4664 291.594L171.889 195.554L91.7028 209.78C91.7952 209.217 91.8463 208.64 91.8463 208.051C91.8463 207.561 91.8093 207.078 91.7448 206.606L175.366 191.771ZM295.223 110.229C295.474 109.406 296.345 108.941 297.169 109.192C297.992 109.443 298.456 110.314 298.206 111.137L254.978 252.961C254.085 252.436 253.109 252.04 252.074 251.794L295.223 110.229ZM151.839 134.462C152.475 135.291 153.23 136.023 154.08 136.632L89.7682 201.752C89.1461 200.913 88.4035 200.169 87.5651 199.546L151.839 134.462ZM149.693 127.166C149.67 127.45 149.656 127.737 149.656 128.027C149.656 128.804 149.743 129.561 149.902 130.291L60.5309 144.958C59.6815 145.098 58.8795 144.522 58.7399 143.673C58.6008 142.824 59.1759 142.022 60.025 141.882L149.693 127.166Z" fill="white"/>
<circle cx="249.656" cy="262.78" r="5.16739" fill="white"/>
<defs>
<filter id="filter0_f_7_122" x="43.7037" y="63.3491" width="296.032" height="251.918" filterUnits="userSpaceOnUse" color-interpolation-filters="sRGB">
<feFlood flood-opacity="0" result="BackgroundImageFix"/>
<feBlend mode="normal" in="SourceGraphic" in2="BackgroundImageFix" result="shape"/>
<feGaussianBlur stdDeviation="5.1964" result="effect1_foregroundBlur_7_122"/>
</filter>
</defs>
</svg>
