<svg width="34" height="33" viewBox="0 0 34 33" fill="none" xmlns="http://www.w3.org/2000/svg">
<path d="M33.1902 15.7703C33.1931 15.7703 33.1952 15.7703 33.1981 15.7703C33.3991 15.7703 33.5907 15.686 33.7269 15.5383C33.8652 15.3885 33.9336 15.1875 33.9156 14.9843C33.1924 7.02931 26.8942 0.728965 18.9384 0.00427459C18.7367 -0.0115735 18.5336 0.0539801 18.3837 0.193011C18.2339 0.331322 18.1503 0.526542 18.1525 0.730406C18.2778 11.3025 19.6725 15.6226 33.1902 15.7703ZM33.1902 17.2312C19.6725 17.3788 18.2786 21.6989 18.1532 32.271C18.1511 32.4749 18.2346 32.6701 18.3845 32.8084C18.5184 32.9316 18.6935 33 18.8736 33C18.8952 33 18.9175 32.9993 18.9391 32.9971C26.8949 32.2725 33.1931 25.9728 33.9156 18.0171C33.9336 17.8139 33.8659 17.613 33.7269 17.4631C33.5878 17.3133 33.3941 17.2391 33.1902 17.2312ZM15.8502 0.00787651C7.91967 0.753458 1.64166 7.05236 0.92201 14.9858C0.904001 15.1889 0.971716 15.3899 1.11075 15.5397C1.2469 15.6874 1.43923 15.771 1.6395 15.771C1.64238 15.771 1.64526 15.771 1.64814 15.771C15.1212 15.6161 16.5122 11.2982 16.639 0.733287C16.6412 0.529423 16.5569 0.333483 16.407 0.195172C16.2558 0.0568616 16.0533 -0.0108531 15.8502 0.00787651ZM1.64742 17.2304C1.42339 17.2052 1.24762 17.3118 1.11003 17.4617C0.971716 17.6115 0.903281 17.8125 0.92129 18.0156C1.64094 25.9491 7.91967 32.248 15.8502 32.9935C15.8725 32.9957 15.8956 32.9964 15.9179 32.9964C16.098 32.9964 16.2723 32.9287 16.4063 32.8055C16.5562 32.6672 16.6404 32.4713 16.6383 32.2674C16.5115 21.7032 15.1212 17.3853 1.64742 17.2304Z" fill="white"/>
</svg>
