<svg width="258" height="62" viewBox="0 0 258 62" fill="none" xmlns="http://www.w3.org/2000/svg">
<path fill-rule="evenodd" clip-rule="evenodd" d="M229.191 6.39471C230.213 6.31444 231.154 5.78972 231.806 4.97714L251.107 17.8203C250.976 18.1198 250.877 18.441 250.817 18.7795C250.686 19.5236 250.76 20.2537 250.998 20.9048L229.191 6.39471ZM228.304 6.3516C228.328 6.35581 228.352 6.35984 228.377 6.36352L136.729 42.5597C136.904 42.2097 137.033 41.8269 137.105 41.4189C137.215 40.7952 137.18 40.1814 137.027 39.6158L225.797 4.55591C226.324 5.47881 227.214 6.15908 228.304 6.3516ZM129.912 42.0652C129.726 41.4632 129.676 40.8016 129.795 40.1284C129.846 39.839 129.926 39.5623 130.03 39.301L48.9917 8.81599C48.6495 9.75063 47.9935 10.4998 47.1831 10.9443L129.912 42.0652ZM6.09961 56.4549L42.4325 9.7034C42.9153 10.4609 43.6513 11.0336 44.5426 11.2723L6.15385 60.669C6.38616 60.265 6.5545 59.8111 6.64106 59.3204C6.82506 58.2785 6.60559 57.2638 6.09961 56.4549Z" fill="white"/>
<path d="M132.743 38.7341C133.855 38.2673 135.095 38.8352 135.513 40.0026C135.93 41.1699 135.368 42.4945 134.256 42.9613C133.145 43.428 131.905 42.8601 131.487 41.6928C131.069 40.5255 131.631 39.2008 132.743 38.7341Z" fill="white"/>
<path d="M228.183 0.845148C229.295 0.378404 230.535 0.946328 230.953 2.11364C231.371 3.28096 230.809 4.60562 229.697 5.07237C228.585 5.53911 227.345 4.97119 226.927 3.80387C226.509 2.63656 227.072 1.31189 228.183 0.845148Z" fill="white"/>
<path d="M254.128 17.7961C255.24 17.3293 256.48 17.8973 256.898 19.0646C257.316 20.2319 256.753 21.5565 255.642 22.0233C254.53 22.49 253.29 21.9221 252.872 20.7548C252.454 19.5875 253.017 18.2628 254.128 17.7961Z" fill="white"/>
<path d="M44.804 6.01556C45.9156 5.54881 47.1556 6.11674 47.5735 7.28405C47.9915 8.45137 47.4291 9.77603 46.3175 10.2428C45.2059 10.7095 43.9659 10.1416 43.5479 8.97428C43.13 7.80697 43.6923 6.4823 44.804 6.01556Z" fill="white"/>
<path d="M2.92508 56.6928C4.03672 56.2261 5.2767 56.794 5.69464 57.9613C6.11258 59.1286 5.55023 60.4533 4.43859 60.92C3.32694 61.3868 2.08697 60.8188 1.66903 59.6515C1.25109 58.4842 1.81344 57.1595 2.92508 56.6928Z" fill="white"/>
</svg>
