<svg width="152" height="80" viewBox="0 0 152 80" fill="none" xmlns="http://www.w3.org/2000/svg">
<path d="M100.177 7.30994L105.338 23.3281L95.8081 17.9264" stroke="#ECA100" stroke-width="0.63661"/>
<path d="M117.588 36.0006C122.862 44.9139 127.119 50.3708 127.919 49.8775C129.606 48.8357 127.091 39.9828 120.677 32.4645C114.264 24.9462 106.188 21.3761 104.693 22.6513C103.199 23.9264 111.918 27.9908 117.588 36.0006Z" fill="#ECA100"/>
<path d="M96.3024 13.5184L94.5916 16.1613L91.5493 15.3509L93.5342 17.7948L91.8234 20.4377L94.761 19.3051L96.7459 21.7489L96.5765 18.6051L99.5141 17.4726L96.4718 16.6622L96.3024 13.5184Z" fill="#ECA100"/>
<path d="M103.354 3.96355L100.328 4.83153L98.5674 2.22153L98.4578 5.36796L95.4314 6.23594L98.39 7.31257L98.2803 10.459L100.218 7.97796L103.177 9.05459L101.416 6.44459L103.354 3.96355Z" fill="#ECA100"/>
<path d="M108.472 24.2209L111.745 8.03125H123.546M129.858 12.5777L132.339 19.7185L128.774 25.8786L140.492 19.7185L145.325 23.2527M148.169 28.7103L144.818 37.6861L124.447 39.8337" stroke="#ECA100" stroke-width="1.48542"/>
<path d="M131.257 9.06922L128.711 8.0819L128.863 5.35551L127.138 7.4717L124.592 6.48438L126.071 8.77958L124.345 10.8958L126.985 10.1981L128.465 12.4933L128.617 9.7669L131.257 9.06922Z" fill="#ECA100"/>
<path d="M149.91 24.2856L147.974 24.5312L147.142 22.7657L146.778 24.6829L144.842 24.9285L146.552 25.8678L146.187 27.785L147.609 26.4484L149.32 27.3877L148.488 25.6223L149.91 24.2856Z" fill="#ECA100"/>
<path d="M124.048 40.0688L120.979 55.248H109.915M103.997 50.9853L101.671 44.2903L105.013 38.5146L94.0267 44.2903L89.4952 40.9766M86.8285 35.8596L89.9703 27.444L109.07 25.4305" stroke="#ECA100" stroke-width="1.48542"/>
<path d="M102.685 54.2747L105.072 55.2004L104.929 57.7566L106.547 55.7725L108.934 56.6982L107.547 54.5463L109.165 52.5621L106.69 53.2163L105.303 51.0643L105.16 53.6206L102.685 54.2747Z" fill="#ECA100"/>
<path d="M85.196 40.0083L87.0112 39.7781L87.7911 41.4333L88.1331 39.6358L89.9484 39.4056L88.3445 38.5248L88.6865 36.7273L87.3532 37.9805L85.7494 37.0998L86.5292 38.755L85.196 40.0083Z" fill="#ECA100"/>
<mask id="path-11-outside-1_311_2433" maskUnits="userSpaceOnUse" x="0.162109" y="40.1624" width="118" height="17" fill="black">
<rect fill="white" x="0.162109" y="40.1624" width="118" height="17"/>
<path d="M12.4463 43.2363V45.7121H12.0337C11.7287 43.326 9.93456 41.9266 8.10457 41.9266C5.93371 41.9266 3.70903 43.7925 3.70903 48.0804C3.70903 51.9736 5.71842 53.6959 7.79958 53.6959C9.59368 53.6959 11.4416 52.3503 12.0337 50.0359H12.4463V52.3862C11.2263 53.5882 9.45015 54.4494 7.44076 54.4494C3.74491 54.4494 0.838473 51.5071 0.838473 47.8112C0.838473 44.1154 3.74491 41.1731 7.44076 41.1731C9.46809 41.1731 11.2442 42.0342 12.4463 43.2363ZM22.306 54.4494C18.6101 54.4494 15.6678 51.5071 15.6678 47.8112C15.6678 44.1154 18.6101 41.1731 22.306 41.1731C26.0018 41.1731 28.9442 44.1154 28.9442 47.8112C28.9442 51.5071 26.0018 54.4494 22.306 54.4494ZM18.646 48.0804C18.646 51.3994 20.1172 53.6959 22.2342 53.6959C24.8357 53.6959 26.1812 50.5383 26.1812 47.5062C26.1812 44.241 24.6921 41.9266 22.5572 41.9266C19.9916 41.9266 18.646 45.0663 18.646 48.0804ZM32.5647 42.7878C33.2644 41.9804 34.7356 41.3166 36.0991 41.3166C38.3417 41.3166 39.5797 42.4469 39.5797 43.7745C39.5797 44.7972 38.9158 45.6404 37.7676 46.1786C39.9385 46.6092 41.0149 48.2418 41.0149 49.9103C41.0149 52.0094 39.3105 54.3238 35.9018 54.3238C33.8385 54.3238 32.3494 53.2294 31.6677 51.9736V49.713H32.1341C32.6903 52.5297 34.018 53.5703 35.3815 53.5703C37.1217 53.5703 38.1444 52.2785 38.1444 50.1077C38.1444 48.4751 37.337 46.8783 35.2559 46.8783C35.1124 46.8783 34.9688 46.8783 34.8253 46.8963V46.358C36.3862 46.0171 37.2114 44.8689 37.2114 43.8642C37.2114 42.7339 36.6553 42.0701 35.7223 42.0701C34.5921 42.0701 33.2465 43.2004 33.0312 45.2457H32.5647V42.7878ZM48.6731 41.6037C50.9875 41.6037 52.4407 42.6084 52.4407 44.3307C52.4407 45.4071 51.7051 46.3042 50.5031 46.6451C52.5483 46.8424 54.1092 48.1342 54.1092 50.1436C54.1092 52.6194 52.1536 54.1624 49.0498 54.1624H43.8828V54.0906C43.9546 53.6241 43.9725 53.4088 43.9725 52.2785V43.4875C43.9725 42.3572 43.9546 42.1419 43.8828 41.6754V41.6037H48.6731ZM46.6637 53.4088H48.5475C50.2878 53.4088 51.4181 52.1709 51.4181 50.323C51.4181 48.3315 50.0187 47.291 47.794 47.0936L47.3813 47.0577V46.5913L47.5966 46.5554C48.996 46.3221 49.9289 45.6763 49.9289 44.2769C49.9289 43.0928 49.0857 42.3572 47.7222 42.3572H46.6637V53.4088ZM57.2405 41.6037H65.0986V42.5366H65.0269C64.5604 42.3572 64.2913 42.3572 63.3942 42.3572H60.0213V45.4251H63.6992V46.1786H60.0213V53.4088H64.058C65.0089 53.4088 65.2242 53.3909 65.6907 53.2832H65.7624V54.1624H57.2405V54.0906C57.3122 53.6241 57.3302 53.4088 57.3302 52.2785V43.4875C57.3302 42.3572 57.3122 42.1419 57.2405 41.6754V41.6037ZM69.116 42.7878C69.8157 41.9804 71.2869 41.3166 72.6504 41.3166C74.893 41.3166 76.1309 42.4469 76.1309 43.7745C76.1309 44.7972 75.4671 45.6404 74.3189 46.1786C76.4897 46.6092 77.5662 48.2418 77.5662 49.9103C77.5662 52.0094 75.8618 54.3238 72.453 54.3238C70.3898 54.3238 68.9007 53.2294 68.219 51.9736V49.713H68.6854C69.2416 52.5297 70.5692 53.5703 71.9327 53.5703C73.673 53.5703 74.6956 52.2785 74.6956 50.1077C74.6956 48.4751 73.8883 46.8783 71.8071 46.8783C71.6636 46.8783 71.5201 46.8783 71.3766 46.8963V46.358C72.9374 46.0171 73.7627 44.8689 73.7627 43.8642C73.7627 42.7339 73.2065 42.0701 72.2736 42.0701C71.1433 42.0701 69.7978 43.2004 69.5825 45.2457H69.116V42.7878ZM84.5964 41.6037C85.2423 41.6037 86.1214 41.4781 86.5879 41.1013L90.9296 53.4088H92.1854V56.4588H91.719C91.5575 54.4494 91.2705 54.1624 89.6378 54.1624H81.367C79.7344 54.1624 79.4473 54.4494 79.2859 56.4588H78.8194V53.4088H80.0215L84.5964 41.6037ZM80.8467 53.4088H88.077L84.6323 43.5054L80.8467 53.4088ZM94.3887 41.6037H97.2951V41.6754C97.1875 42.1419 97.1695 42.3572 97.1695 43.4875V50.4306L104.884 41.6037H105.458C105.315 42.1419 105.315 42.411 105.315 45.1919V52.2785C105.315 53.4088 105.333 53.6241 105.404 54.0906V54.1624H102.498V54.0906C102.606 53.6241 102.624 53.4088 102.624 52.2785V45.3354L94.909 54.1624H94.3349C94.4784 53.6241 94.4784 53.355 94.4784 52.458V43.4875C94.4784 42.3572 94.4604 42.1419 94.3887 41.6754V41.6037ZM109.234 41.6037H117.092V42.5366H117.021C116.554 42.3572 116.285 42.3572 115.388 42.3572H112.015V45.4251H115.693V46.1786H112.015V53.4088H116.052C117.003 53.4088 117.218 53.3909 117.685 53.2832H117.756V54.1624H109.234V54.0906C109.306 53.6241 109.324 53.4088 109.324 52.2785V43.4875C109.324 42.3572 109.306 42.1419 109.234 41.6754V41.6037Z"/>
</mask>
<path d="M12.4463 43.2363V45.7121H12.0337C11.7287 43.326 9.93456 41.9266 8.10457 41.9266C5.93371 41.9266 3.70903 43.7925 3.70903 48.0804C3.70903 51.9736 5.71842 53.6959 7.79958 53.6959C9.59368 53.6959 11.4416 52.3503 12.0337 50.0359H12.4463V52.3862C11.2263 53.5882 9.45015 54.4494 7.44076 54.4494C3.74491 54.4494 0.838473 51.5071 0.838473 47.8112C0.838473 44.1154 3.74491 41.1731 7.44076 41.1731C9.46809 41.1731 11.2442 42.0342 12.4463 43.2363ZM22.306 54.4494C18.6101 54.4494 15.6678 51.5071 15.6678 47.8112C15.6678 44.1154 18.6101 41.1731 22.306 41.1731C26.0018 41.1731 28.9442 44.1154 28.9442 47.8112C28.9442 51.5071 26.0018 54.4494 22.306 54.4494ZM18.646 48.0804C18.646 51.3994 20.1172 53.6959 22.2342 53.6959C24.8357 53.6959 26.1812 50.5383 26.1812 47.5062C26.1812 44.241 24.6921 41.9266 22.5572 41.9266C19.9916 41.9266 18.646 45.0663 18.646 48.0804ZM32.5647 42.7878C33.2644 41.9804 34.7356 41.3166 36.0991 41.3166C38.3417 41.3166 39.5797 42.4469 39.5797 43.7745C39.5797 44.7972 38.9158 45.6404 37.7676 46.1786C39.9385 46.6092 41.0149 48.2418 41.0149 49.9103C41.0149 52.0094 39.3105 54.3238 35.9018 54.3238C33.8385 54.3238 32.3494 53.2294 31.6677 51.9736V49.713H32.1341C32.6903 52.5297 34.018 53.5703 35.3815 53.5703C37.1217 53.5703 38.1444 52.2785 38.1444 50.1077C38.1444 48.4751 37.337 46.8783 35.2559 46.8783C35.1124 46.8783 34.9688 46.8783 34.8253 46.8963V46.358C36.3862 46.0171 37.2114 44.8689 37.2114 43.8642C37.2114 42.7339 36.6553 42.0701 35.7223 42.0701C34.5921 42.0701 33.2465 43.2004 33.0312 45.2457H32.5647V42.7878ZM48.6731 41.6037C50.9875 41.6037 52.4407 42.6084 52.4407 44.3307C52.4407 45.4071 51.7051 46.3042 50.5031 46.6451C52.5483 46.8424 54.1092 48.1342 54.1092 50.1436C54.1092 52.6194 52.1536 54.1624 49.0498 54.1624H43.8828V54.0906C43.9546 53.6241 43.9725 53.4088 43.9725 52.2785V43.4875C43.9725 42.3572 43.9546 42.1419 43.8828 41.6754V41.6037H48.6731ZM46.6637 53.4088H48.5475C50.2878 53.4088 51.4181 52.1709 51.4181 50.323C51.4181 48.3315 50.0187 47.291 47.794 47.0936L47.3813 47.0577V46.5913L47.5966 46.5554C48.996 46.3221 49.9289 45.6763 49.9289 44.2769C49.9289 43.0928 49.0857 42.3572 47.7222 42.3572H46.6637V53.4088ZM57.2405 41.6037H65.0986V42.5366H65.0269C64.5604 42.3572 64.2913 42.3572 63.3942 42.3572H60.0213V45.4251H63.6992V46.1786H60.0213V53.4088H64.058C65.0089 53.4088 65.2242 53.3909 65.6907 53.2832H65.7624V54.1624H57.2405V54.0906C57.3122 53.6241 57.3302 53.4088 57.3302 52.2785V43.4875C57.3302 42.3572 57.3122 42.1419 57.2405 41.6754V41.6037ZM69.116 42.7878C69.8157 41.9804 71.2869 41.3166 72.6504 41.3166C74.893 41.3166 76.1309 42.4469 76.1309 43.7745C76.1309 44.7972 75.4671 45.6404 74.3189 46.1786C76.4897 46.6092 77.5662 48.2418 77.5662 49.9103C77.5662 52.0094 75.8618 54.3238 72.453 54.3238C70.3898 54.3238 68.9007 53.2294 68.219 51.9736V49.713H68.6854C69.2416 52.5297 70.5692 53.5703 71.9327 53.5703C73.673 53.5703 74.6956 52.2785 74.6956 50.1077C74.6956 48.4751 73.8883 46.8783 71.8071 46.8783C71.6636 46.8783 71.5201 46.8783 71.3766 46.8963V46.358C72.9374 46.0171 73.7627 44.8689 73.7627 43.8642C73.7627 42.7339 73.2065 42.0701 72.2736 42.0701C71.1433 42.0701 69.7978 43.2004 69.5825 45.2457H69.116V42.7878ZM84.5964 41.6037C85.2423 41.6037 86.1214 41.4781 86.5879 41.1013L90.9296 53.4088H92.1854V56.4588H91.719C91.5575 54.4494 91.2705 54.1624 89.6378 54.1624H81.367C79.7344 54.1624 79.4473 54.4494 79.2859 56.4588H78.8194V53.4088H80.0215L84.5964 41.6037ZM80.8467 53.4088H88.077L84.6323 43.5054L80.8467 53.4088ZM94.3887 41.6037H97.2951V41.6754C97.1875 42.1419 97.1695 42.3572 97.1695 43.4875V50.4306L104.884 41.6037H105.458C105.315 42.1419 105.315 42.411 105.315 45.1919V52.2785C105.315 53.4088 105.333 53.6241 105.404 54.0906V54.1624H102.498V54.0906C102.606 53.6241 102.624 53.4088 102.624 52.2785V45.3354L94.909 54.1624H94.3349C94.4784 53.6241 94.4784 53.355 94.4784 52.458V43.4875C94.4784 42.3572 94.4604 42.1419 94.3887 41.6754V41.6037ZM109.234 41.6037H117.092V42.5366H117.021C116.554 42.3572 116.285 42.3572 115.388 42.3572H112.015V45.4251H115.693V46.1786H112.015V53.4088H116.052C117.003 53.4088 117.218 53.3909 117.685 53.2832H117.756V54.1624H109.234V54.0906C109.306 53.6241 109.324 53.4088 109.324 52.2785V43.4875C109.324 42.3572 109.306 42.1419 109.234 41.6754V41.6037Z" fill="white"/>
<path d="M12.4463 43.2363H12.7646V43.1044L12.6714 43.0112L12.4463 43.2363ZM12.4463 45.7121V46.0305H12.7646V45.7121H12.4463ZM12.0337 45.7121L11.7179 45.7525L11.7534 46.0305H12.0337V45.7121ZM12.0337 50.0359V49.7176H11.7865L11.7253 49.957L12.0337 50.0359ZM12.4463 50.0359H12.7646V49.7176H12.4463V50.0359ZM12.4463 52.3862L12.6697 52.6129L12.7646 52.5194V52.3862H12.4463ZM12.128 43.2363V45.7121H12.7646V43.2363H12.128ZM12.4463 45.3938H12.0337V46.0305H12.4463V45.3938ZM12.3494 45.6718C12.0251 43.1348 10.1027 41.6083 8.10457 41.6083V42.2449C9.76636 42.2449 11.4322 43.5172 11.7179 45.7525L12.3494 45.6718ZM8.10457 41.6083C6.92431 41.6083 5.73535 42.1171 4.84726 43.1929C3.96108 44.2664 3.39073 45.8829 3.39073 48.0804H4.02734C4.02734 45.9899 4.56933 44.5296 5.3382 43.5982C6.10517 42.6691 7.11398 42.2449 8.10457 42.2449V41.6083ZM3.39073 48.0804C3.39073 50.0799 3.90699 51.5626 4.7291 52.5515C5.55377 53.5436 6.66711 54.0142 7.79958 54.0142V53.3776C6.85089 53.3776 5.91895 52.987 5.21865 52.1446C4.51577 51.2991 4.02734 49.974 4.02734 48.0804H3.39073ZM7.79958 54.0142C9.75409 54.0142 11.7178 52.555 12.342 50.1148L11.7253 49.957C11.1654 52.1456 9.43327 53.3776 7.79958 53.3776V54.0142ZM12.0337 50.3542H12.4463V49.7176H12.0337V50.3542ZM12.128 50.0359V52.3862H12.7646V50.0359H12.128ZM12.2229 52.1595C11.0564 53.3088 9.35842 54.1311 7.44076 54.1311V54.7677C9.54188 54.7677 11.3962 53.8677 12.6697 52.6129L12.2229 52.1595ZM7.44076 54.1311C3.92296 54.1311 1.15678 51.3336 1.15678 47.8112H0.520168C0.520168 51.6806 3.56687 54.7677 7.44076 54.7677V54.1311ZM1.15678 47.8112C1.15678 44.2889 3.92296 41.4914 7.44076 41.4914V40.8548C3.56687 40.8548 0.520168 43.9419 0.520168 47.8112H1.15678ZM7.44076 41.4914C9.37716 41.4914 11.0741 42.3142 12.2212 43.4614L12.6714 43.0112C11.4144 41.7542 9.55902 40.8548 7.44076 40.8548V41.4914ZM22.306 54.1311C18.7859 54.1311 15.9861 51.3313 15.9861 47.8112H15.3495C15.3495 51.6829 18.4344 54.7677 22.306 54.7677V54.1311ZM15.9861 47.8112C15.9861 44.2912 18.7859 41.4914 22.306 41.4914V40.8548C18.4344 40.8548 15.3495 43.9396 15.3495 47.8112H15.9861ZM22.306 41.4914C25.826 41.4914 28.6259 44.2912 28.6259 47.8112H29.2625C29.2625 43.9396 26.1776 40.8548 22.306 40.8548V41.4914ZM28.6259 47.8112C28.6259 51.3313 25.826 54.1311 22.306 54.1311V54.7677C26.1776 54.7677 29.2625 51.6829 29.2625 47.8112H28.6259ZM18.3277 48.0804C18.3277 49.7824 18.7043 51.2506 19.3781 52.3043C20.0556 53.3638 21.0444 54.0142 22.2342 54.0142V53.3776C21.307 53.3776 20.5017 52.8798 19.9144 51.9613C19.3234 51.037 18.9643 49.6974 18.9643 48.0804H18.3277ZM22.2342 54.0142C23.6869 54.0142 24.7633 53.1258 25.4603 51.8949C26.1552 50.6676 26.4995 49.063 26.4995 47.5062H25.8629C25.8629 48.9815 25.5345 50.4717 24.9063 51.5812C24.2801 52.6871 23.383 53.3776 22.2342 53.3776V54.0142ZM26.4995 47.5062C26.4995 45.8296 26.1178 44.3701 25.437 43.3189C24.7527 42.2624 23.7553 41.6083 22.5572 41.6083V42.2449C23.494 42.2449 24.3087 42.748 24.9027 43.665C25.5001 44.5873 25.8629 45.9177 25.8629 47.5062H26.4995ZM22.5572 41.6083C21.1216 41.6083 20.0544 42.4932 19.3625 43.7165C18.6722 44.9367 18.3277 46.5323 18.3277 48.0804H18.9643C18.9643 46.6144 19.2926 45.133 19.9166 44.0299C20.5388 42.9299 21.4272 42.2449 22.5572 42.2449V41.6083ZM32.5647 42.7878L32.3242 42.5793L32.2464 42.669V42.7878H32.5647ZM37.7676 46.1786L37.6325 45.8904L36.7542 46.3021L37.7057 46.4908L37.7676 46.1786ZM31.6677 51.9736H31.3494V52.0544L31.3879 52.1254L31.6677 51.9736ZM31.6677 49.713V49.3947H31.3494V49.713H31.6677ZM32.1341 49.713L32.4464 49.6513L32.3957 49.3947H32.1341V49.713ZM34.8253 46.8963H34.507V47.2568L34.8648 47.2121L34.8253 46.8963ZM34.8253 46.358L34.7574 46.047L34.507 46.1017V46.358H34.8253ZM33.0312 45.2457V45.564H33.3178L33.3478 45.279L33.0312 45.2457ZM32.5647 45.2457H32.2464V45.564H32.5647V45.2457ZM32.8053 42.9962C33.1152 42.6387 33.6133 42.2958 34.2079 42.0422C34.8002 41.7896 35.4664 41.6349 36.0991 41.6349V40.9983C35.3683 40.9983 34.6172 41.1755 33.9581 41.4566C33.3013 41.7368 32.714 42.1295 32.3242 42.5793L32.8053 42.9962ZM36.0991 41.6349C37.1695 41.6349 37.9665 41.9047 38.4877 42.3011C39.0046 42.6941 39.2614 43.2177 39.2614 43.7745H39.898C39.898 43.0037 39.5358 42.2983 38.873 41.7943C38.2146 41.2936 37.2713 40.9983 36.0991 40.9983V41.6349ZM39.2614 43.7745C39.2614 44.6338 38.7103 45.3852 37.6325 45.8904L37.9027 46.4668C39.1214 45.8956 39.898 44.9605 39.898 43.7745H39.2614ZM37.7057 46.4908C39.7227 46.8909 40.6966 48.3887 40.6966 49.9103H41.3332C41.3332 48.0949 40.1543 46.3275 37.8295 45.8664L37.7057 46.4908ZM40.6966 49.9103C40.6966 51.8297 39.1387 54.0055 35.9018 54.0055V54.6421C39.4823 54.6421 41.3332 52.1892 41.3332 49.9103H40.6966ZM35.9018 54.0055C33.9577 54.0055 32.5747 52.9772 31.9474 51.8217L31.3879 52.1254C32.1242 53.4816 33.7193 54.6421 35.9018 54.6421V54.0055ZM31.986 51.9736V49.713H31.3494V51.9736H31.986ZM31.6677 50.0313H32.1341V49.3947H31.6677V50.0313ZM31.8219 49.7746C32.1071 51.2192 32.597 52.2456 33.2224 52.9152C33.8541 53.5915 34.611 53.8886 35.3815 53.8886V53.252C34.7884 53.252 34.1997 53.0288 33.6877 52.4806C33.1694 51.9258 32.7174 51.0235 32.4464 49.6513L31.8219 49.7746ZM35.3815 53.8886C36.3379 53.8886 37.1246 53.5294 37.6645 52.8513C38.1968 52.1828 38.4627 51.2384 38.4627 50.1077H37.8261C37.8261 51.1479 37.5806 51.9347 37.1665 52.4548C36.76 52.9653 36.1653 53.252 35.3815 53.252V53.8886ZM38.4627 50.1077C38.4627 49.2449 38.2501 48.3622 37.7333 47.6872C37.2069 46.9999 36.3885 46.56 35.2559 46.56V47.1966C36.2044 47.1966 36.8303 47.5551 37.2278 48.0743C37.6349 48.6059 37.8261 49.3379 37.8261 50.1077H38.4627ZM35.2559 46.56C35.1156 46.56 34.9522 46.5596 34.7858 46.5804L34.8648 47.2121C34.9854 47.197 35.1091 47.1966 35.2559 47.1966V46.56ZM35.1436 46.8963V46.358H34.507V46.8963H35.1436ZM34.8932 46.669C36.5758 46.3015 37.5298 45.0422 37.5298 43.8642H36.8931C36.8931 44.6956 36.1966 45.7327 34.7574 46.047L34.8932 46.669ZM37.5298 43.8642C37.5298 43.2509 37.3791 42.7215 37.0614 42.3397C36.7373 41.9502 36.2701 41.7518 35.7223 41.7518V42.3884C36.1075 42.3884 36.3849 42.5219 36.5721 42.7469C36.7657 42.9796 36.8931 43.3473 36.8931 43.8642H37.5298ZM35.7223 41.7518C34.3831 41.7518 32.9417 43.0554 32.7146 45.2124L33.3478 45.279C33.5513 43.3454 34.801 42.3884 35.7223 42.3884V41.7518ZM33.0312 44.9274H32.5647V45.564H33.0312V44.9274ZM32.883 45.2457V42.7878H32.2464V45.2457H32.883ZM50.5031 46.6451L50.4162 46.3388L50.4725 46.9619L50.5031 46.6451ZM43.8828 54.1624H43.5645V54.4807H43.8828V54.1624ZM43.8828 54.0906L43.5682 54.0422L43.5645 54.0662V54.0906H43.8828ZM43.8828 41.6754H43.5645V41.6998L43.5682 41.7238L43.8828 41.6754ZM43.8828 41.6037V41.2854H43.5645V41.6037H43.8828ZM46.6637 53.4088H46.3454V53.7271H46.6637V53.4088ZM47.794 47.0936L47.8221 46.7765L47.8215 46.7765L47.794 47.0936ZM47.3813 47.0577H47.063V47.3495L47.3538 47.3748L47.3813 47.0577ZM47.3813 46.5913L47.329 46.2773L47.063 46.3216V46.5913H47.3813ZM47.5966 46.5554L47.5443 46.2414L47.5966 46.5554ZM46.6637 42.3572V42.0389H46.3454V42.3572H46.6637ZM48.6731 41.922C49.7899 41.922 50.6589 42.1651 51.2397 42.5803C51.8081 42.9865 52.1224 43.5716 52.1224 44.3307H52.759C52.759 43.3675 52.3467 42.589 51.6099 42.0623C50.8854 41.5445 49.8707 41.2854 48.6731 41.2854V41.922ZM52.1224 44.3307C52.1224 45.2406 51.5061 46.0298 50.4162 46.3388L50.5899 46.9513C51.9041 46.5786 52.759 45.5737 52.759 44.3307H52.1224ZM50.4725 46.9619C52.4059 47.1485 53.7909 48.345 53.7909 50.1436H54.4275C54.4275 47.9234 52.6908 46.5364 50.5336 46.3282L50.4725 46.9619ZM53.7909 50.1436C53.7909 51.2893 53.3426 52.2002 52.5457 52.832C51.7407 53.4702 50.5528 53.844 49.0498 53.844V54.4807C50.6507 54.4807 51.9925 54.083 52.9412 53.3308C53.8981 52.5722 54.4275 51.4737 54.4275 50.1436H53.7909ZM49.0498 53.844H43.8828V54.4807H49.0498V53.844ZM44.2011 54.1624V54.0906H43.5645V54.1624H44.2011ZM44.1974 54.139C44.2729 53.6482 44.2908 53.4136 44.2908 52.2785H43.6542C43.6542 53.404 43.6363 53.6 43.5682 54.0422L44.1974 54.139ZM44.2908 52.2785V43.4875H43.6542V52.2785H44.2908ZM44.2908 43.4875C44.2908 42.3524 44.2729 42.1178 44.1974 41.627L43.5682 41.7238C43.6363 42.166 43.6542 42.362 43.6542 43.4875H44.2908ZM44.2011 41.6754V41.6037H43.5645V41.6754H44.2011ZM43.8828 41.922H48.6731V41.2854H43.8828V41.922ZM46.6637 53.7271H48.5475V53.0905H46.6637V53.7271ZM48.5475 53.7271C49.4968 53.7271 50.3025 53.3873 50.869 52.7751C51.4333 52.1652 51.7364 51.3115 51.7364 50.323H51.0997C51.0997 51.1824 50.8377 51.8716 50.4017 52.3427C49.9681 52.8114 49.3385 53.0905 48.5475 53.0905V53.7271ZM51.7364 50.323C51.7364 49.2444 51.3532 48.3937 50.6464 47.793C49.9505 47.2014 48.9721 46.8786 47.8221 46.7765L47.7658 47.4107C48.8405 47.506 49.6742 47.8021 50.2341 48.278C50.7832 48.7448 51.0997 49.4101 51.0997 50.323H51.7364ZM47.8215 46.7765L47.4089 46.7406L47.3538 47.3748L47.7664 47.4107L47.8215 46.7765ZM47.6996 47.0577V46.5913H47.063V47.0577H47.6996ZM47.4337 46.9052L47.6489 46.8693L47.5443 46.2414L47.329 46.2773L47.4337 46.9052ZM47.6489 46.8693C48.3779 46.7478 49.0284 46.5128 49.4999 46.0905C49.9834 45.6575 50.2473 45.0559 50.2473 44.2769H49.6106C49.6106 44.8973 49.408 45.3183 49.0752 45.6163C48.7304 45.9251 48.2147 46.1297 47.5443 46.2414L47.6489 46.8693ZM50.2473 44.2769C50.2473 43.6044 50.0049 43.0325 49.5459 42.6329C49.092 42.2378 48.4588 42.0389 47.7222 42.0389V42.6755C48.3491 42.6755 48.8193 42.8444 49.1279 43.1131C49.4314 43.3773 49.6106 43.7652 49.6106 44.2769H50.2473ZM47.7222 42.0389H46.6637V42.6755H47.7222V42.0389ZM46.3454 42.3572V53.4088H46.982V42.3572H46.3454ZM57.2405 41.6037V41.2854H56.9222V41.6037H57.2405ZM65.0986 41.6037H65.4169V41.2854H65.0986V41.6037ZM65.0986 42.5366V42.8549H65.4169V42.5366H65.0986ZM65.0269 42.5366L64.9126 42.8337L64.9678 42.8549H65.0269V42.5366ZM60.0213 42.3572V42.0389H59.703V42.3572H60.0213ZM60.0213 45.4251H59.703V45.7434H60.0213V45.4251ZM63.6992 45.4251H64.0175V45.1068H63.6992V45.4251ZM63.6992 46.1786V46.4969H64.0175V46.1786H63.6992ZM60.0213 46.1786V45.8603H59.703V46.1786H60.0213ZM60.0213 53.4088H59.703V53.7271H60.0213V53.4088ZM65.6907 53.2832V52.9649H65.6544L65.6191 52.9731L65.6907 53.2832ZM65.7624 53.2832H66.0807V52.9649H65.7624V53.2832ZM65.7624 54.1624V54.4807H66.0807V54.1624H65.7624ZM57.2405 54.1624H56.9222V54.4807H57.2405V54.1624ZM57.2405 54.0906L56.9259 54.0422L56.9222 54.0662V54.0906H57.2405ZM57.2405 41.6754H56.9222V41.6998L56.9259 41.7238L57.2405 41.6754ZM57.2405 41.922H65.0986V41.2854H57.2405V41.922ZM64.7803 41.6037V42.5366H65.4169V41.6037H64.7803ZM65.0986 42.2183H65.0269V42.8549H65.0986V42.2183ZM65.1411 42.2395C64.6109 42.0356 64.2824 42.0389 63.3942 42.0389V42.6755C64.3001 42.6755 64.5099 42.6788 64.9126 42.8337L65.1411 42.2395ZM63.3942 42.0389H60.0213V42.6755H63.3942V42.0389ZM59.703 42.3572V45.4251H60.3396V42.3572H59.703ZM60.0213 45.7434H63.6992V45.1068H60.0213V45.7434ZM63.3809 45.4251V46.1786H64.0175V45.4251H63.3809ZM63.6992 45.8603H60.0213V46.4969H63.6992V45.8603ZM59.703 46.1786V53.4088H60.3396V46.1786H59.703ZM60.0213 53.7271H64.058V53.0905H60.0213V53.7271ZM64.058 53.7271C65.0153 53.7271 65.2597 53.7094 65.7622 53.5934L65.6191 52.9731C65.1887 53.0724 65.0026 53.0905 64.058 53.0905V53.7271ZM65.6907 53.6016H65.7624V52.9649H65.6907V53.6016ZM65.4441 53.2832V54.1624H66.0807V53.2832H65.4441ZM65.7624 53.844H57.2405V54.4807H65.7624V53.844ZM57.5588 54.1624V54.0906H56.9222V54.1624H57.5588ZM57.5551 54.139C57.6306 53.6482 57.6485 53.4136 57.6485 52.2785H57.0119C57.0119 53.404 56.9939 53.6 56.9259 54.0422L57.5551 54.139ZM57.6485 52.2785V43.4875H57.0119V52.2785H57.6485ZM57.6485 43.4875C57.6485 42.3524 57.6306 42.1178 57.5551 41.627L56.9259 41.7238C56.9939 42.166 57.0119 42.362 57.0119 43.4875H57.6485ZM57.5588 41.6754V41.6037H56.9222V41.6754H57.5588ZM69.116 42.7878L68.8755 42.5793L68.7977 42.669V42.7878H69.116ZM74.3189 46.1786L74.1838 45.8904L73.3055 46.3021L74.257 46.4908L74.3189 46.1786ZM68.2189 51.9736H67.9006V52.0544L67.9392 52.1254L68.2189 51.9736ZM68.2189 49.713V49.3947H67.9006V49.713H68.2189ZM68.6854 49.713L68.9977 49.6513L68.947 49.3947H68.6854V49.713ZM71.3766 46.8963H71.0583V47.2568L71.416 47.2121L71.3766 46.8963ZM71.3766 46.358L71.3087 46.047L71.0583 46.1017V46.358H71.3766ZM69.5825 45.2457V45.564H69.869L69.899 45.279L69.5825 45.2457ZM69.116 45.2457H68.7977V45.564H69.116V45.2457ZM69.3565 42.9962C69.6664 42.6387 70.1646 42.2958 70.7591 42.0422C71.3514 41.7896 72.0177 41.6349 72.6504 41.6349V40.9983C71.9195 40.9983 71.1685 41.1755 70.5094 41.4566C69.8526 41.7368 69.2653 42.1295 68.8755 42.5793L69.3565 42.9962ZM72.6504 41.6349C73.7208 41.6349 74.5178 41.9047 75.039 42.3011C75.5559 42.6941 75.8126 43.2177 75.8126 43.7745H76.4492C76.4492 43.0037 76.087 42.2983 75.4243 41.7943C74.7659 41.2936 73.8226 40.9983 72.6504 40.9983V41.6349ZM75.8126 43.7745C75.8126 44.6338 75.2616 45.3852 74.1838 45.8904L74.454 46.4668C75.6727 45.8956 76.4492 44.9605 76.4492 43.7745H75.8126ZM74.257 46.4908C76.2739 46.8909 77.2479 48.3887 77.2479 49.9103H77.8845C77.8845 48.0949 76.7056 46.3275 74.3808 45.8664L74.257 46.4908ZM77.2479 49.9103C77.2479 51.8297 75.69 54.0055 72.453 54.0055V54.6421C76.0336 54.6421 77.8845 52.1892 77.8845 49.9103H77.2479ZM72.453 54.0055C70.509 54.0055 69.126 52.9772 68.4987 51.8217L67.9392 52.1254C68.6754 53.4816 70.2706 54.6421 72.453 54.6421V54.0055ZM68.5373 51.9736V49.713H67.9006V51.9736H68.5373ZM68.2189 50.0313H68.6854V49.3947H68.2189V50.0313ZM68.3731 49.7746C68.6584 51.2192 69.1482 52.2456 69.7737 52.9152C70.4054 53.5915 71.1622 53.8886 71.9327 53.8886V53.252C71.3397 53.252 70.751 53.0288 70.2389 52.4806C69.7207 51.9258 69.2686 51.0235 68.9977 49.6513L68.3731 49.7746ZM71.9327 53.8886C72.8892 53.8886 73.6759 53.5294 74.2158 52.8513C74.7481 52.1828 75.014 51.2384 75.014 50.1077H74.3773C74.3773 51.1479 74.1319 51.9347 73.7178 52.4548C73.3113 52.9653 72.7166 53.252 71.9327 53.252V53.8886ZM75.014 50.1077C75.014 49.2449 74.8014 48.3622 74.2845 47.6872C73.7582 46.9999 72.9398 46.56 71.8072 46.56V47.1966C72.7557 47.1966 73.3815 47.5551 73.7791 48.0743C74.1862 48.6059 74.3773 49.3379 74.3773 50.1077H75.014ZM71.8072 46.56C71.6668 46.56 71.5035 46.5596 71.3371 46.5804L71.416 47.2121C71.5367 47.197 71.6604 47.1966 71.8072 47.1966V46.56ZM71.6949 46.8963V46.358H71.0583V46.8963H71.6949ZM71.4445 46.669C73.127 46.3015 74.081 45.0422 74.081 43.8642H73.4444C73.4444 44.6956 72.7478 45.7327 71.3087 46.047L71.4445 46.669ZM74.081 43.8642C74.081 43.2509 73.9304 42.7215 73.6127 42.3397C73.2886 41.9502 72.8214 41.7518 72.2736 41.7518V42.3884C72.6588 42.3884 72.9361 42.5219 73.1233 42.7469C73.317 42.9796 73.4444 43.3473 73.4444 43.8642H74.081ZM72.2736 41.7518C70.9344 41.7518 69.493 43.0554 69.2659 45.2124L69.899 45.279C70.1026 43.3454 71.3523 42.3884 72.2736 42.3884V41.7518ZM69.5825 44.9274H69.116V45.564H69.5825V44.9274ZM69.4343 45.2457V42.7878H68.7977V45.2457H69.4343ZM84.5964 41.6037V41.2854H84.3784L84.2996 41.4886L84.5964 41.6037ZM86.5879 41.1013L86.888 40.9954L86.7382 40.5707L86.3879 40.8537L86.5879 41.1013ZM90.9296 53.4088L90.6294 53.5147L90.7043 53.7271H90.9296V53.4088ZM92.1854 53.4088H92.5038V53.0905H92.1854V53.4088ZM92.1854 56.4588V56.7771H92.5038V56.4588H92.1854ZM91.719 56.4588L91.4017 56.4843L91.4252 56.7771H91.719V56.4588ZM79.2859 56.4588V56.7771H79.5796L79.6032 56.4843L79.2859 56.4588ZM78.8194 56.4588H78.5011V56.7771H78.8194V56.4588ZM78.8194 53.4088V53.0905H78.5011V53.4088H78.8194ZM80.0215 53.4088V53.7271H80.2395L80.3183 53.5239L80.0215 53.4088ZM80.8467 53.4088L80.5494 53.2952L80.3843 53.7271H80.8467V53.4088ZM88.077 53.4088V53.7271H88.5247L88.3776 53.3043L88.077 53.4088ZM84.6323 43.5054L84.9329 43.4008L84.6464 42.577L84.335 43.3918L84.6323 43.5054ZM84.5964 41.922C84.9377 41.922 85.3422 41.889 85.7274 41.8047C86.1065 41.7218 86.4987 41.5825 86.7879 41.3489L86.3879 40.8537C86.2105 40.9969 85.93 41.1088 85.5914 41.1828C85.2589 41.2555 84.901 41.2854 84.5964 41.2854V41.922ZM86.2877 41.2072L90.6294 53.5147L91.2298 53.3029L86.888 40.9954L86.2877 41.2072ZM90.9296 53.7271H92.1854V53.0905H90.9296V53.7271ZM91.8671 53.4088V56.4588H92.5038V53.4088H91.8671ZM92.1854 56.1405H91.719V56.7771H92.1854V56.1405ZM92.0363 56.4333C91.9957 55.928 91.946 55.5124 91.8646 55.1772C91.7831 54.8414 91.6636 54.5589 91.4647 54.342C91.0615 53.9021 90.4349 53.844 89.6378 53.844V54.4807C90.4734 54.4807 90.8066 54.5661 90.9954 54.7721C91.0926 54.8781 91.1772 55.0441 91.2459 55.3274C91.3148 55.6111 91.3616 55.9849 91.4017 56.4843L92.0363 56.4333ZM89.6378 53.844H81.367V54.4807H89.6378V53.844ZM81.367 53.844C80.57 53.844 79.9433 53.9021 79.5401 54.342C79.3412 54.5589 79.2218 54.8414 79.1403 55.1772C79.0589 55.5124 79.0092 55.928 78.9686 56.4333L79.6032 56.4843C79.6433 55.9849 79.69 55.6111 79.7589 55.3274C79.8277 55.0441 79.9123 54.8781 80.0094 54.7721C80.1983 54.5661 80.5314 54.4807 81.367 54.4807V53.844ZM79.2859 56.1405H78.8194V56.7771H79.2859V56.1405ZM79.1377 56.4588V53.4088H78.5011V56.4588H79.1377ZM78.8194 53.7271H80.0215V53.0905H78.8194V53.7271ZM80.3183 53.5239L84.8932 41.7187L84.2996 41.4886L79.7247 53.2938L80.3183 53.5239ZM80.8467 53.7271H88.077V53.0905H80.8467V53.7271ZM88.3776 53.3043L84.9329 43.4008L84.3316 43.61L87.7763 53.5134L88.3776 53.3043ZM84.335 43.3918L80.5494 53.2952L81.1441 53.5225L84.9296 43.6191L84.335 43.3918ZM94.3887 41.6037V41.2854H94.0704V41.6037H94.3887ZM97.2951 41.6037H97.6134V41.2854H97.2951V41.6037ZM97.2951 41.6754L97.6053 41.747L97.6134 41.7117V41.6754H97.2951ZM97.1695 50.4306H96.8512V51.2785L97.4092 50.6401L97.1695 50.4306ZM104.884 41.6037V41.2854H104.74L104.644 41.3942L104.884 41.6037ZM105.458 41.6037L105.766 41.6857L105.873 41.2854H105.458V41.6037ZM105.404 54.0906H105.723V54.0662L105.719 54.0422L105.404 54.0906ZM105.404 54.1624V54.4807H105.723V54.1624H105.404ZM102.498 54.1624H102.18V54.4807H102.498V54.1624ZM102.498 54.0906L102.188 54.019L102.18 54.0543V54.0906H102.498ZM102.624 45.3354H102.942V44.4875L102.384 45.1259L102.624 45.3354ZM94.909 54.1624V54.4807H95.0535L95.1486 54.3718L94.909 54.1624ZM94.3349 54.1624L94.0273 54.0803L93.9205 54.4807H94.3349V54.1624ZM94.3887 41.6754H94.0704V41.6998L94.0741 41.7238L94.3887 41.6754ZM94.3887 41.922H97.2951V41.2854H94.3887V41.922ZM96.9768 41.6037V41.6754H97.6134V41.6037H96.9768ZM96.985 41.6038C96.8686 42.1082 96.8512 42.3548 96.8512 43.4875H97.4878C97.4878 42.3596 97.5064 42.1755 97.6053 41.747L96.985 41.6038ZM96.8512 43.4875V50.4306H97.4878V43.4875H96.8512ZM97.4092 50.6401L105.124 41.8131L104.644 41.3942L96.9299 50.2212L97.4092 50.6401ZM104.884 41.922H105.458V41.2854H104.884V41.922ZM105.151 41.5216C104.993 42.1114 104.996 42.4373 104.996 45.1919H105.633C105.633 42.3847 105.636 42.1724 105.766 41.6857L105.151 41.5216ZM104.996 45.1919V52.2785H105.633V45.1919H104.996ZM104.996 52.2785C104.996 53.4136 105.014 53.6482 105.09 54.139L105.719 54.0422C105.651 53.6 105.633 53.404 105.633 52.2785H104.996ZM105.086 54.0906V54.1624H105.723V54.0906H105.086ZM105.404 53.844H102.498V54.4807H105.404V53.844ZM102.816 54.1624V54.0906H102.18V54.1624H102.816ZM102.808 54.1622C102.925 53.6578 102.942 53.4113 102.942 52.2785H102.305C102.305 53.4064 102.287 53.5905 102.188 54.019L102.808 54.1622ZM102.942 52.2785V45.3354H102.305V52.2785H102.942ZM102.384 45.1259L94.6693 53.9529L95.1486 54.3718L102.863 45.5449L102.384 45.1259ZM94.909 53.844H94.3349V54.4807H94.909V53.844ZM94.6424 54.2444C94.798 53.6608 94.7967 53.3526 94.7967 52.458H94.1601C94.1601 53.3574 94.1587 53.5875 94.0273 54.0803L94.6424 54.2444ZM94.7967 52.458V43.4875H94.1601V52.458H94.7967ZM94.7967 43.4875C94.7967 42.3524 94.7788 42.1178 94.7033 41.627L94.0741 41.7238C94.1421 42.166 94.1601 42.362 94.1601 43.4875H94.7967ZM94.707 41.6754V41.6037H94.0704V41.6754H94.707ZM109.234 41.6037V41.2854H108.916V41.6037H109.234ZM117.092 41.6037H117.411V41.2854H117.092V41.6037ZM117.092 42.5366V42.8549H117.411V42.5366H117.092ZM117.021 42.5366L116.906 42.8337L116.962 42.8549H117.021V42.5366ZM112.015 42.3572V42.0389H111.697V42.3572H112.015ZM112.015 45.4251H111.697V45.7434H112.015V45.4251ZM115.693 45.4251H116.011V45.1068H115.693V45.4251ZM115.693 46.1786V46.4969H116.011V46.1786H115.693ZM112.015 46.1786V45.8603H111.697V46.1786H112.015ZM112.015 53.4088H111.697V53.7271H112.015V53.4088ZM117.685 53.2832V52.9649H117.648L117.613 52.9731L117.685 53.2832ZM117.756 53.2832H118.075V52.9649H117.756V53.2832ZM117.756 54.1624V54.4807H118.075V54.1624H117.756ZM109.234 54.1624H108.916V54.4807H109.234V54.1624ZM109.234 54.0906L108.92 54.0422L108.916 54.0662V54.0906H109.234ZM109.234 41.6754H108.916V41.6998L108.92 41.7238L109.234 41.6754ZM109.234 41.922H117.092V41.2854H109.234V41.922ZM116.774 41.6037V42.5366H117.411V41.6037H116.774ZM117.092 42.2183H117.021V42.8549H117.092V42.2183ZM117.135 42.2395C116.605 42.0356 116.276 42.0389 115.388 42.0389V42.6755C116.294 42.6755 116.504 42.6788 116.906 42.8337L117.135 42.2395ZM115.388 42.0389H112.015V42.6755H115.388V42.0389ZM111.697 42.3572V45.4251H112.333V42.3572H111.697ZM112.015 45.7434H115.693V45.1068H112.015V45.7434ZM115.375 45.4251V46.1786H116.011V45.4251H115.375ZM115.693 45.8603H112.015V46.4969H115.693V45.8603ZM111.697 46.1786V53.4088H112.333V46.1786H111.697ZM112.015 53.7271H116.052V53.0905H112.015V53.7271ZM116.052 53.7271C117.009 53.7271 117.254 53.7094 117.756 53.5934L117.613 52.9731C117.183 53.0724 116.996 53.0905 116.052 53.0905V53.7271ZM117.685 53.6016H117.756V52.9649H117.685V53.6016ZM117.438 53.2832V54.1624H118.075V53.2832H117.438ZM117.756 53.844H109.234V54.4807H117.756V53.844ZM109.553 54.1624V54.0906H108.916V54.1624H109.553ZM109.549 54.139C109.624 53.6482 109.642 53.4136 109.642 52.2785H109.006C109.006 53.404 108.988 53.6 108.92 54.0422L109.549 54.139ZM109.642 52.2785V43.4875H109.006V52.2785H109.642ZM109.642 43.4875C109.642 42.3524 109.624 42.1178 109.549 41.627L108.92 41.7238C108.988 42.166 109.006 42.362 109.006 43.4875H109.642ZM109.553 41.6754V41.6037H108.916V41.6754H109.553Z" fill="white" mask="url(#path-11-outside-1_311_2433)"/>
<mask id="path-13-outside-2_311_2433" maskUnits="userSpaceOnUse" x="24.6221" y="66.6274" width="69" height="14" fill="black">
<rect fill="white" x="24.6221" y="66.6274" width="69" height="14"/>
<path d="M25.7371 67.0687H26.8136L32.1959 75.6984L37.7576 67.0687H38.834C38.7623 67.5352 38.7443 67.7505 38.7443 68.7014V77.7436C38.7443 78.8739 38.7623 79.0892 38.834 79.5557V79.6274H35.9276V79.5557C36.0352 79.0892 36.0532 78.8739 36.0532 77.7436V71.1055L31.0297 78.8739H31.0118L26.5803 71.8052V77.7436C26.5803 78.8739 26.5983 79.0892 26.7059 79.5557V79.6274H25.7371V79.5557C25.8089 79.0892 25.8268 78.8739 25.8268 77.7436V68.7014C25.8268 67.7505 25.8089 67.5352 25.7371 67.0687ZM42.5988 67.0687H50.457V68.0017H50.3852C49.9188 67.8223 49.6496 67.8223 48.7526 67.8223H45.3797V70.8902H49.0576V71.6437H45.3797V78.8739H49.4164C50.3673 78.8739 50.5826 78.856 51.049 78.7483H51.1208V79.6274H42.5988V79.5557C42.6706 79.0892 42.6885 78.8739 42.6885 77.7436V68.9526C42.6885 67.8223 42.6706 67.607 42.5988 67.1405V67.0687ZM53.8106 67.0687H56.717V67.1405C56.6093 67.607 56.5914 67.8223 56.5914 68.9526V71.4284C56.5914 72.8996 57.3808 73.9401 58.7981 73.9401C59.6055 73.9401 60.3949 73.7069 61.0767 73.1507V68.9526C61.0767 67.8223 61.0587 67.607 60.9511 67.1405V67.0687H63.8575V67.1405C63.7857 67.607 63.7678 67.8223 63.7678 68.9526V77.7436C63.7678 78.8739 63.7857 79.0892 63.8575 79.5557V79.6274H60.9511V79.5557C61.0587 79.0892 61.0767 78.8739 61.0767 77.7436V73.994C60.1437 74.7654 59.1031 75.0525 58.0267 75.0525C55.2458 75.0525 53.9003 73.4916 53.9003 71.5719V68.9526C53.9003 67.8223 53.8823 67.607 53.8106 67.1405V67.0687ZM67.363 67.0687H75.6159V67.9479H75.5441C75.0776 67.8402 74.8623 67.8223 73.9115 67.8223H72.835V77.7436C72.835 78.838 72.853 79.0354 72.9427 79.466L72.9606 79.5557V79.6274H70.0183V79.5557L70.0362 79.466C70.1259 79.0354 70.1439 78.838 70.1439 77.7436V67.8223H69.0674C68.1165 67.8223 67.9012 67.8402 67.4348 67.9479H67.363V67.0687ZM89.4843 67.0687H92.3548V67.1405C92.283 67.607 92.2651 67.8223 92.2651 68.7731V77.923C92.2651 78.8739 92.283 79.0892 92.3548 79.5557V79.6274H89.4843V79.5557C89.556 79.0892 89.574 78.8739 89.574 77.923V68.7731C89.574 67.8223 89.556 67.607 89.4843 67.1405V67.0687ZM78.3967 79.6274V79.5557C78.4685 79.0892 78.4864 78.8739 78.4864 77.923V68.7731C78.4864 67.8223 78.4685 67.607 78.3967 67.1405V67.0687H81.3032V67.1405C81.1955 67.607 81.1776 67.8223 81.1776 68.7731V78.8739H82.3617C84.4249 78.8739 85.4475 77.1875 85.4475 75.501C85.4475 73.7607 84.3531 72.0025 82.1464 72.0025H81.8952V71.4643C82.3258 71.4105 82.7384 71.3746 83.169 71.3746C85.7346 71.3746 88.1028 72.469 88.1028 75.196C88.1028 77.9769 86.1472 79.6274 82.8281 79.6274H78.3967Z"/>
</mask>
<path d="M25.7371 67.0687H26.8136L32.1959 75.6984L37.7576 67.0687H38.834C38.7623 67.5352 38.7443 67.7505 38.7443 68.7014V77.7436C38.7443 78.8739 38.7623 79.0892 38.834 79.5557V79.6274H35.9276V79.5557C36.0352 79.0892 36.0532 78.8739 36.0532 77.7436V71.1055L31.0297 78.8739H31.0118L26.5803 71.8052V77.7436C26.5803 78.8739 26.5983 79.0892 26.7059 79.5557V79.6274H25.7371V79.5557C25.8089 79.0892 25.8268 78.8739 25.8268 77.7436V68.7014C25.8268 67.7505 25.8089 67.5352 25.7371 67.0687ZM42.5988 67.0687H50.457V68.0017H50.3852C49.9188 67.8223 49.6496 67.8223 48.7526 67.8223H45.3797V70.8902H49.0576V71.6437H45.3797V78.8739H49.4164C50.3673 78.8739 50.5826 78.856 51.049 78.7483H51.1208V79.6274H42.5988V79.5557C42.6706 79.0892 42.6885 78.8739 42.6885 77.7436V68.9526C42.6885 67.8223 42.6706 67.607 42.5988 67.1405V67.0687ZM53.8106 67.0687H56.717V67.1405C56.6093 67.607 56.5914 67.8223 56.5914 68.9526V71.4284C56.5914 72.8996 57.3808 73.9401 58.7981 73.9401C59.6055 73.9401 60.3949 73.7069 61.0767 73.1507V68.9526C61.0767 67.8223 61.0587 67.607 60.9511 67.1405V67.0687H63.8575V67.1405C63.7857 67.607 63.7678 67.8223 63.7678 68.9526V77.7436C63.7678 78.8739 63.7857 79.0892 63.8575 79.5557V79.6274H60.9511V79.5557C61.0587 79.0892 61.0767 78.8739 61.0767 77.7436V73.994C60.1437 74.7654 59.1031 75.0525 58.0267 75.0525C55.2458 75.0525 53.9003 73.4916 53.9003 71.5719V68.9526C53.9003 67.8223 53.8823 67.607 53.8106 67.1405V67.0687ZM67.363 67.0687H75.6159V67.9479H75.5441C75.0776 67.8402 74.8623 67.8223 73.9115 67.8223H72.835V77.7436C72.835 78.838 72.853 79.0354 72.9427 79.466L72.9606 79.5557V79.6274H70.0183V79.5557L70.0362 79.466C70.1259 79.0354 70.1439 78.838 70.1439 77.7436V67.8223H69.0674C68.1165 67.8223 67.9012 67.8402 67.4348 67.9479H67.363V67.0687ZM89.4843 67.0687H92.3548V67.1405C92.283 67.607 92.2651 67.8223 92.2651 68.7731V77.923C92.2651 78.8739 92.283 79.0892 92.3548 79.5557V79.6274H89.4843V79.5557C89.556 79.0892 89.574 78.8739 89.574 77.923V68.7731C89.574 67.8223 89.556 67.607 89.4843 67.1405V67.0687ZM78.3967 79.6274V79.5557C78.4685 79.0892 78.4864 78.8739 78.4864 77.923V68.7731C78.4864 67.8223 78.4685 67.607 78.3967 67.1405V67.0687H81.3032V67.1405C81.1955 67.607 81.1776 67.8223 81.1776 68.7731V78.8739H82.3617C84.4249 78.8739 85.4475 77.1875 85.4475 75.501C85.4475 73.7607 84.3531 72.0025 82.1464 72.0025H81.8952V71.4643C82.3258 71.4105 82.7384 71.3746 83.169 71.3746C85.7346 71.3746 88.1028 72.469 88.1028 75.196C88.1028 77.9769 86.1472 79.6274 82.8281 79.6274H78.3967Z" fill="white"/>
<path d="M25.7371 67.0687V66.7504H25.3661L25.4225 67.1171L25.7371 67.0687ZM26.8136 67.0687L27.0836 66.9003L26.9902 66.7504H26.8136V67.0687ZM32.1959 75.6984L31.9258 75.8668L32.1915 76.2928L32.4634 75.8708L32.1959 75.6984ZM37.7576 67.0687V66.7504H37.584L37.49 66.8963L37.7576 67.0687ZM38.834 67.0687L39.1486 67.1171L39.2051 66.7504H38.834V67.0687ZM38.834 79.5557H39.1523V79.5313L39.1486 79.5073L38.834 79.5557ZM38.834 79.6274V79.9457H39.1523V79.6274H38.834ZM35.9276 79.6274H35.6093V79.9457H35.9276V79.6274ZM35.9276 79.5557L35.6174 79.4841L35.6093 79.5194V79.5557H35.9276ZM36.0532 71.1055H36.3715V70.027L35.7859 70.9326L36.0532 71.1055ZM31.0297 78.8739V79.1922H31.2029L31.297 79.0468L31.0297 78.8739ZM31.0118 78.8739L30.7421 79.043L30.8356 79.1922H31.0118V78.8739ZM26.5803 71.8052L26.85 71.6361L26.262 70.6982V71.8052H26.5803ZM26.7059 79.5557H27.0242V79.5194L27.0161 79.4841L26.7059 79.5557ZM26.7059 79.6274V79.9457H27.0242V79.6274H26.7059ZM25.7371 79.6274H25.4188V79.9457H25.7371V79.6274ZM25.7371 79.5557L25.4225 79.5073L25.4188 79.5313V79.5557H25.7371ZM25.7371 67.3871H26.8136V66.7504H25.7371V67.3871ZM26.5435 67.2372L31.9258 75.8668L32.4659 75.5299L27.0836 66.9003L26.5435 67.2372ZM32.4634 75.8708L38.0251 67.2412L37.49 66.8963L31.9283 75.5259L32.4634 75.8708ZM37.7576 67.3871H38.834V66.7504H37.7576V67.3871ZM38.5194 67.0203C38.4442 67.5096 38.426 67.7429 38.426 68.7014H39.0626C39.0626 67.7581 39.0804 67.5609 39.1486 67.1171L38.5194 67.0203ZM38.426 68.7014V77.7436H39.0626V68.7014H38.426ZM38.426 77.7436C38.426 78.8787 38.4439 79.1133 38.5194 79.6041L39.1486 79.5073C39.0806 79.0651 39.0626 78.8691 39.0626 77.7436H38.426ZM38.5157 79.5557V79.6274H39.1523V79.5557H38.5157ZM38.834 79.3091H35.9276V79.9457H38.834V79.3091ZM36.2459 79.6274V79.5557H35.6093V79.6274H36.2459ZM36.2377 79.6273C36.3541 79.1229 36.3715 78.8763 36.3715 77.7436H35.7349C35.7349 78.8715 35.7163 79.0556 35.6174 79.4841L36.2377 79.6273ZM36.3715 77.7436V71.1055H35.7349V77.7436H36.3715ZM35.7859 70.9326L30.7624 78.7011L31.297 79.0468L36.3205 71.2783L35.7859 70.9326ZM31.0297 78.5556H31.0118V79.1922H31.0297V78.5556ZM31.2815 78.7048L26.85 71.6361L26.3106 71.9742L30.7421 79.043L31.2815 78.7048ZM26.262 71.8052V77.7436H26.8986V71.8052H26.262ZM26.262 77.7436C26.262 78.8763 26.2794 79.1229 26.3958 79.6273L27.0161 79.4841C26.9172 79.0556 26.8986 78.8715 26.8986 77.7436H26.262ZM26.3876 79.5557V79.6274H27.0242V79.5557H26.3876ZM26.7059 79.3091H25.7371V79.9457H26.7059V79.3091ZM26.0554 79.6274V79.5557H25.4188V79.6274H26.0554ZM26.0517 79.6041C26.1272 79.1133 26.1451 78.8787 26.1451 77.7436H25.5085C25.5085 78.8691 25.4905 79.0651 25.4225 79.5073L26.0517 79.6041ZM26.1451 77.7436V68.7014H25.5085V77.7436H26.1451ZM26.1451 68.7014C26.1451 67.7429 26.127 67.5096 26.0517 67.0203L25.4225 67.1171C25.4908 67.5609 25.5085 67.7581 25.5085 68.7014H26.1451ZM42.5988 67.0687V66.7504H42.2805V67.0687H42.5988ZM50.457 67.0687H50.7753V66.7504H50.457V67.0687ZM50.457 68.0017V68.32H50.7753V68.0017H50.457ZM50.3852 68.0017L50.271 68.2988L50.3261 68.32H50.3852V68.0017ZM45.3797 67.8223V67.504H45.0614V67.8223H45.3797ZM45.3797 70.8902H45.0614V71.2085H45.3797V70.8902ZM49.0576 70.8902H49.3759V70.5719H49.0576V70.8902ZM49.0576 71.6437V71.962H49.3759V71.6437H49.0576ZM45.3797 71.6437V71.3254H45.0614V71.6437H45.3797ZM45.3797 78.8739H45.0614V79.1922H45.3797V78.8739ZM51.049 78.7483V78.43H51.0128L50.9775 78.4382L51.049 78.7483ZM51.1208 78.7483H51.4391V78.43H51.1208V78.7483ZM51.1208 79.6274V79.9457H51.4391V79.6274H51.1208ZM42.5988 79.6274H42.2805V79.9457H42.5988V79.6274ZM42.5988 79.5557L42.2842 79.5073L42.2805 79.5313V79.5557H42.5988ZM42.5988 67.1405H42.2805V67.1649L42.2842 67.1889L42.5988 67.1405ZM42.5988 67.3871H50.457V66.7504H42.5988V67.3871ZM50.1387 67.0687V68.0017H50.7753V67.0687H50.1387ZM50.457 67.6834H50.3852V68.32H50.457V67.6834ZM50.4995 67.7046C49.9692 67.5006 49.6408 67.504 48.7526 67.504V68.1406C49.6585 68.1406 49.8683 68.1439 50.271 68.2988L50.4995 67.7046ZM48.7526 67.504H45.3797V68.1406H48.7526V67.504ZM45.0614 67.8223V70.8902H45.698V67.8223H45.0614ZM45.3797 71.2085H49.0576V70.5719H45.3797V71.2085ZM48.7393 70.8902V71.6437H49.3759V70.8902H48.7393ZM49.0576 71.3254H45.3797V71.962H49.0576V71.3254ZM45.0614 71.6437V78.8739H45.698V71.6437H45.0614ZM45.3797 79.1922H49.4164V78.5556H45.3797V79.1922ZM49.4164 79.1922C50.3736 79.1922 50.6181 79.1745 51.1206 79.0585L50.9775 78.4382C50.5471 78.5375 50.3609 78.5556 49.4164 78.5556V79.1922ZM51.049 79.0666H51.1208V78.43H51.049V79.0666ZM50.8025 78.7483V79.6274H51.4391V78.7483H50.8025ZM51.1208 79.3091H42.5988V79.9457H51.1208V79.3091ZM42.9171 79.6274V79.5557H42.2805V79.6274H42.9171ZM42.9134 79.6041C42.9889 79.1133 43.0068 78.8787 43.0068 77.7436H42.3702C42.3702 78.8691 42.3523 79.0651 42.2842 79.5073L42.9134 79.6041ZM43.0068 77.7436V68.9526H42.3702V77.7436H43.0068ZM43.0068 68.9526C43.0068 67.8175 42.9889 67.5829 42.9134 67.0921L42.2842 67.1889C42.3523 67.6311 42.3702 67.8271 42.3702 68.9526H43.0068ZM42.9171 67.1405V67.0687H42.2805V67.1405H42.9171ZM53.8106 67.0687V66.7504H53.4922V67.0687H53.8106ZM56.717 67.0687H57.0353V66.7504H56.717V67.0687ZM56.717 67.1405L57.0271 67.2121L57.0353 67.1768V67.1405H56.717ZM61.0767 73.1507L61.2779 73.3974L61.395 73.3019V73.1507H61.0767ZM60.9511 67.1405H60.6328V67.1768L60.6409 67.2121L60.9511 67.1405ZM60.9511 67.0687V66.7504H60.6328V67.0687H60.9511ZM63.8575 67.0687H64.1758V66.7504H63.8575V67.0687ZM63.8575 67.1405L64.1721 67.1889L64.1758 67.1649V67.1405H63.8575ZM63.8575 79.5557H64.1758V79.5313L64.1721 79.5073L63.8575 79.5557ZM63.8575 79.6274V79.9457H64.1758V79.6274H63.8575ZM60.9511 79.6274H60.6328V79.9457H60.9511V79.6274ZM60.9511 79.5557L60.6409 79.4841L60.6328 79.5194V79.5557H60.9511ZM61.0767 73.994H61.395V73.3177L60.8738 73.7487L61.0767 73.994ZM53.8106 67.1405H53.4922V67.1649L53.496 67.1889L53.8106 67.1405ZM53.8106 67.3871H56.717V66.7504H53.8106V67.3871ZM56.3987 67.0687V67.1405H57.0353V67.0687H56.3987ZM56.4068 67.0689C56.2904 67.5733 56.2731 67.8198 56.2731 68.9526H56.9097C56.9097 67.8247 56.9283 67.6406 57.0271 67.2121L56.4068 67.0689ZM56.2731 68.9526V71.4284H56.9097V68.9526H56.2731ZM56.2731 71.4284C56.2731 72.2178 56.4849 72.9253 56.92 73.4412C57.3608 73.9638 58.0051 74.2585 58.7981 74.2585V73.6218C58.1739 73.6218 57.7148 73.3962 57.4066 73.0307C57.0926 72.6585 56.9097 72.1102 56.9097 71.4284H56.2731ZM58.7981 74.2585C59.6694 74.2585 60.5324 74.0055 61.2779 73.3974L60.8754 72.9041C60.2574 73.4083 59.5416 73.6218 58.7981 73.6218V74.2585ZM61.395 73.1507V68.9526H60.7584V73.1507H61.395ZM61.395 68.9526C61.395 67.8198 61.3776 67.5733 61.2612 67.0689L60.6409 67.2121C60.7398 67.6406 60.7584 67.8247 60.7584 68.9526H61.395ZM61.2694 67.1405V67.0687H60.6328V67.1405H61.2694ZM60.9511 67.3871H63.8575V66.7504H60.9511V67.3871ZM63.5392 67.0687V67.1405H64.1758V67.0687H63.5392ZM63.5429 67.0921C63.4674 67.5829 63.4495 67.8175 63.4495 68.9526H64.0861C64.0861 67.8271 64.1041 67.6311 64.1721 67.1889L63.5429 67.0921ZM63.4495 68.9526V77.7436H64.0861V68.9526H63.4495ZM63.4495 77.7436C63.4495 78.8787 63.4674 79.1133 63.5429 79.6041L64.1721 79.5073C64.1041 79.0651 64.0861 78.8691 64.0861 77.7436H63.4495ZM63.5392 79.5557V79.6274H64.1758V79.5557H63.5392ZM63.8575 79.3091H60.9511V79.9457H63.8575V79.3091ZM61.2694 79.6274V79.5557H60.6328V79.6274H61.2694ZM61.2612 79.6273C61.3776 79.1229 61.395 78.8763 61.395 77.7436H60.7584C60.7584 78.8715 60.7398 79.0556 60.6409 79.4841L61.2612 79.6273ZM61.395 77.7436V73.994H60.7584V77.7436H61.395ZM60.8738 73.7487C60.0072 74.4653 59.0421 74.7342 58.0267 74.7342V75.3708C59.1642 75.3708 60.2803 75.0656 61.2795 74.2393L60.8738 73.7487ZM58.0267 74.7342C56.6952 74.7342 55.7477 74.3613 55.1363 73.798C54.5264 73.2361 54.2186 72.4554 54.2186 71.5719H53.582C53.582 72.6082 53.9469 73.5677 54.705 74.2662C55.4616 74.9632 56.5773 75.3708 58.0267 75.3708V74.7342ZM54.2186 71.5719V68.9526H53.582V71.5719H54.2186ZM54.2186 68.9526C54.2186 67.8175 54.2007 67.5829 54.1252 67.0921L53.496 67.1889C53.564 67.6311 53.582 67.8271 53.582 68.9526H54.2186ZM54.1289 67.1405V67.0687H53.4922V67.1405H54.1289ZM67.363 67.0687V66.7504H67.0447V67.0687H67.363ZM75.6159 67.0687H75.9342V66.7504H75.6159V67.0687ZM75.6159 67.9479V68.2662H75.9342V67.9479H75.6159ZM75.5441 67.9479L75.4725 68.258L75.5079 68.2662H75.5441V67.9479ZM72.835 67.8223V67.504H72.5167V67.8223H72.835ZM72.9427 79.466L73.2548 79.4035L73.2543 79.4011L72.9427 79.466ZM72.9606 79.5557H73.2789V79.5242L73.2727 79.4933L72.9606 79.5557ZM72.9606 79.6274V79.9457H73.2789V79.6274H72.9606ZM70.0183 79.6274H69.7V79.9457H70.0183V79.6274ZM70.0183 79.5557L69.7062 79.4933L69.7 79.5242V79.5557H70.0183ZM70.0362 79.466L69.7246 79.4011L69.7241 79.4035L70.0362 79.466ZM70.1439 67.8223H70.4622V67.504H70.1439V67.8223ZM67.4348 67.9479V68.2662H67.471L67.5063 68.258L67.4348 67.9479ZM67.363 67.9479H67.0447V68.2662H67.363V67.9479ZM67.363 67.3871H75.6159V66.7504H67.363V67.3871ZM75.2976 67.0687V67.9479H75.9342V67.0687H75.2976ZM75.6159 67.6296H75.5441V68.2662H75.6159V67.6296ZM75.6157 67.6377C75.1132 67.5217 74.8687 67.504 73.9115 67.504V68.1406C74.856 68.1406 75.0421 68.1587 75.4725 68.258L75.6157 67.6377ZM73.9115 67.504H72.835V68.1406H73.9115V67.504ZM72.5167 67.8223V77.7436H73.1533V67.8223H72.5167ZM72.5167 77.7436C72.5167 78.841 72.5342 79.0662 72.631 79.5309L73.2543 79.4011C73.1717 79.0046 73.1533 78.8351 73.1533 77.7436H72.5167ZM72.6305 79.5284L72.6485 79.6181L73.2727 79.4933L73.2548 79.4035L72.6305 79.5284ZM72.6423 79.5557V79.6274H73.2789V79.5557H72.6423ZM72.9606 79.3091H70.0183V79.9457H72.9606V79.3091ZM70.3366 79.6274V79.5557H69.7V79.6274H70.3366ZM70.3304 79.6181L70.3483 79.5284L69.7241 79.4035L69.7062 79.4933L70.3304 79.6181ZM70.3478 79.5309C70.4446 79.0662 70.4622 78.841 70.4622 77.7436H69.8256C69.8256 78.8351 69.8072 79.0046 69.7246 79.4011L70.3478 79.5309ZM70.4622 77.7436V67.8223H69.8256V77.7436H70.4622ZM70.1439 67.504H69.0674V68.1406H70.1439V67.504ZM69.0674 67.504C68.1102 67.504 67.8657 67.5217 67.3632 67.6377L67.5063 68.258C67.9368 68.1587 68.1229 68.1406 69.0674 68.1406V67.504ZM67.4348 67.6296H67.363V68.2662H67.4348V67.6296ZM67.6813 67.9479V67.0687H67.0447V67.9479H67.6813ZM89.4843 67.0687V66.7504H89.1659V67.0687H89.4843ZM92.3548 67.0687H92.6731V66.7504H92.3548V67.0687ZM92.3548 67.1405L92.6694 67.1889L92.6731 67.1649V67.1405H92.3548ZM92.3548 79.5557H92.6731V79.5313L92.6694 79.5073L92.3548 79.5557ZM92.3548 79.6274V79.9457H92.6731V79.6274H92.3548ZM89.4843 79.6274H89.1659V79.9457H89.4843V79.6274ZM89.4843 79.5557L89.1696 79.5073L89.1659 79.5313V79.5557H89.4843ZM89.4843 67.1405H89.1659V67.1649L89.1696 67.1889L89.4843 67.1405ZM78.3967 79.6274H78.0784V79.9457H78.3967V79.6274ZM78.3967 79.5557L78.0821 79.5073L78.0784 79.5313V79.5557H78.3967ZM78.3967 67.1405H78.0784V67.1649L78.0821 67.1889L78.3967 67.1405ZM78.3967 67.0687V66.7504H78.0784V67.0687H78.3967ZM81.3032 67.0687H81.6215V66.7504H81.3032V67.0687ZM81.3032 67.1405L81.6133 67.2121L81.6215 67.1768V67.1405H81.3032ZM81.1776 78.8739H80.8593V79.1922H81.1776V78.8739ZM81.8952 72.0025H81.5769V72.3208H81.8952V72.0025ZM81.8952 71.4643L81.8557 71.1484L81.5769 71.1833V71.4643H81.8952ZM89.4843 67.3871H92.3548V66.7504H89.4843V67.3871ZM92.0365 67.0687V67.1405H92.6731V67.0687H92.0365ZM92.0402 67.0921C91.9649 67.5813 91.9468 67.8147 91.9468 68.7731H92.5834C92.5834 67.8298 92.6012 67.6326 92.6694 67.1889L92.0402 67.0921ZM91.9468 68.7731V77.923H92.5834V68.7731H91.9468ZM91.9468 77.923C91.9468 78.8815 91.9649 79.1149 92.0402 79.6041L92.6694 79.5073C92.6012 79.0636 92.5834 78.8664 92.5834 77.923H91.9468ZM92.0365 79.5557V79.6274H92.6731V79.5557H92.0365ZM92.3548 79.3091H89.4843V79.9457H92.3548V79.3091ZM89.8026 79.6274V79.5557H89.1659V79.6274H89.8026ZM89.7989 79.6041C89.8741 79.1149 89.8923 78.8815 89.8923 77.923H89.2557C89.2557 78.8664 89.2379 79.0636 89.1696 79.5073L89.7989 79.6041ZM89.8923 77.923V68.7731H89.2557V77.923H89.8923ZM89.8923 68.7731C89.8923 67.8147 89.8741 67.5813 89.7989 67.0921L89.1696 67.1889C89.2379 67.6326 89.2557 67.8298 89.2557 68.7731H89.8923ZM89.8026 67.1405V67.0687H89.1659V67.1405H89.8026ZM78.715 79.6274V79.5557H78.0784V79.6274H78.715ZM78.7113 79.6041C78.7866 79.1149 78.8047 78.8815 78.8047 77.923H78.1681C78.1681 78.8664 78.1504 79.0636 78.0821 79.5073L78.7113 79.6041ZM78.8047 77.923V68.7731H78.1681V77.923H78.8047ZM78.8047 68.7731C78.8047 67.8147 78.7866 67.5813 78.7113 67.0921L78.0821 67.1889C78.1504 67.6326 78.1681 67.8298 78.1681 68.7731H78.8047ZM78.715 67.1405V67.0687H78.0784V67.1405H78.715ZM78.3967 67.3871H81.3032V66.7504H78.3967V67.3871ZM80.9849 67.0687V67.1405H81.6215V67.0687H80.9849ZM80.993 67.0689C80.877 67.5715 80.8593 67.8159 80.8593 68.7731H81.4959C81.4959 67.8286 81.514 67.6425 81.6133 67.2121L80.993 67.0689ZM80.8593 68.7731V78.8739H81.4959V68.7731H80.8593ZM81.1776 79.1922H82.3617V78.5556H81.1776V79.1922ZM82.3617 79.1922C83.4898 79.1922 84.3518 78.7269 84.9254 78.0205C85.4926 77.3221 85.7658 76.4044 85.7658 75.501H85.1292C85.1292 76.2841 84.8912 77.0528 84.4312 77.6192C83.9777 78.1777 83.2967 78.5556 82.3617 78.5556V79.1922ZM85.7658 75.501C85.7658 74.568 85.4731 73.6178 84.8687 72.895C84.2582 72.1649 83.3431 71.6842 82.1464 71.6842V72.3208C83.1564 72.3208 83.8919 72.7193 84.3803 73.3033C84.8748 73.8947 85.1292 74.6937 85.1292 75.501H85.7658ZM82.1464 71.6842H81.8952V72.3208H82.1464V71.6842ZM82.2135 72.0025V71.4643H81.5769V72.0025H82.2135ZM81.9347 71.7801C82.3578 71.7272 82.7563 71.6929 83.169 71.6929V71.0563C82.7206 71.0563 82.2938 71.0937 81.8557 71.1484L81.9347 71.7801ZM83.169 71.6929C84.4135 71.6929 85.5775 71.9594 86.4202 72.5267C87.2473 73.0835 87.7845 73.941 87.7845 75.196H88.4211C88.4211 73.724 87.7742 72.6708 86.7758 71.9986C85.7929 71.337 84.4901 71.0563 83.169 71.0563V71.6929ZM87.7845 75.196C87.7845 76.5064 87.3271 77.5196 86.5052 78.211C85.676 78.9085 84.4388 79.3091 82.8281 79.3091V79.9457C84.5366 79.9457 85.9367 79.5211 86.915 78.6981C87.9007 77.869 88.4211 76.6665 88.4211 75.196H87.7845ZM82.8281 79.3091H78.3967V79.9457H82.8281V79.3091Z" fill="white" mask="url(#path-13-outside-2_311_2433)"/>
</svg>
