<svg width="144" height="76" viewBox="0 0 144 76" fill="none" xmlns="http://www.w3.org/2000/svg">
<path d="M95.5009 7.45593L100.421 22.7251L91.336 17.576" stroke="#ECA100" stroke-width="0.606844"/>
<path d="M112.097 34.805C117.125 43.3016 121.183 48.5034 121.945 48.033C123.554 47.04 121.156 38.601 115.042 31.4343C108.928 24.2675 101.231 20.8644 99.8057 22.0799C98.3807 23.2954 106.692 27.1697 112.097 34.805Z" fill="#ECA100"/>
<path d="M91.8073 13.374L90.1765 15.8934L87.2765 15.1209L89.1686 17.4504L87.5377 19.9698L90.3379 18.8902L92.23 21.2197L92.0686 18.2229L94.8688 17.1433L91.9688 16.3708L91.8073 13.374Z" fill="#ECA100"/>
<path d="M98.5293 4.26593L95.6445 5.09331L93.9661 2.60536L93.8615 5.60467L90.9767 6.43206L93.7969 7.45835L93.6924 10.4577L95.5399 8.09263L98.3601 9.11892L96.6818 6.63096L98.5293 4.26593Z" fill="#ECA100"/>
<path d="M103.407 23.5762L106.528 8.14355H117.776M123.793 12.4774L126.158 19.2843L122.761 25.1564L133.93 19.2843L138.537 22.6533M141.249 27.8557L138.054 36.4118L118.636 38.459" stroke="#ECA100" stroke-width="1.41597"/>
<path d="M125.127 9.13287L122.7 8.19171L122.845 5.5928L121.2 7.61004L118.773 6.66888L120.184 8.85677L118.539 10.874L121.055 10.209L122.465 12.3968L122.61 9.79792L125.127 9.13287Z" fill="#ECA100"/>
<path d="M142.908 23.6377L141.063 23.8717L140.27 22.1888L139.922 24.0164L138.076 24.2504L139.707 25.1459L139.359 26.9734L140.715 25.6993L142.346 26.5947L141.553 24.9118L142.908 23.6377Z" fill="#ECA100"/>
<path d="M118.256 38.6829L115.33 53.1523H104.784M99.1423 49.089L96.9248 42.7069L100.11 37.2013L89.638 42.7069L85.3184 39.5482M82.7764 34.6705L85.7713 26.6484L103.978 24.729" stroke="#ECA100" stroke-width="1.41597"/>
<path d="M97.8913 52.2247L100.167 53.1071L100.031 55.5438L101.573 53.6525L103.848 54.5349L102.526 52.4836L104.069 50.5922L101.709 51.2158L100.387 49.1644L100.251 51.6011L97.8913 52.2247Z" fill="#ECA100"/>
<path d="M81.22 38.6252L82.9504 38.4058L83.6938 39.9837L84.0198 38.2702L85.7502 38.0507L84.2213 37.2112L84.5473 35.4977L83.2764 36.6923L81.7475 35.8527L82.4909 37.4306L81.22 38.6252Z" fill="#ECA100"/>
<mask id="path-11-outside-1_222_2973" maskUnits="userSpaceOnUse" x="0.162109" y="38.7256" width="113" height="16" fill="black">
<rect fill="white" x="0.162109" y="38.7256" width="113" height="16"/>
<path d="M12.1306 41.3104V43.6705H11.7373C11.4466 41.3959 9.73634 40.062 7.99193 40.062C5.92257 40.062 3.80191 41.8406 3.80191 45.928C3.80191 49.6391 5.71735 51.2809 7.70119 51.2809C9.4114 51.2809 11.1729 49.9983 11.7373 47.7921H12.1306V50.0325C10.9677 51.1783 9.27458 51.9992 7.35915 51.9992C3.83611 51.9992 1.06557 49.1945 1.06557 45.6714C1.06557 42.1484 3.83611 39.3437 7.35915 39.3437C9.29169 39.3437 10.9848 40.1646 12.1306 41.3104ZM21.5293 51.9992C18.0063 51.9992 15.2015 49.1945 15.2015 45.6714C15.2015 42.1484 18.0063 39.3437 21.5293 39.3437C25.0523 39.3437 27.8571 42.1484 27.8571 45.6714C27.8571 49.1945 25.0523 51.9992 21.5293 51.9992ZM18.0405 45.928C18.0405 49.0919 19.4429 51.2809 21.4609 51.2809C23.9407 51.2809 25.2234 48.271 25.2234 45.3807C25.2234 42.2681 23.8039 40.062 21.7687 40.062C19.3231 40.062 18.0405 43.0548 18.0405 45.928ZM31.3084 40.8829C31.9754 40.1133 33.3777 39.4805 34.6775 39.4805C36.8153 39.4805 37.9953 40.5579 37.9953 41.8235C37.9953 42.7983 37.3625 43.6021 36.268 44.1151C38.3373 44.5256 39.3635 46.0819 39.3635 47.6724C39.3635 49.6733 37.7388 51.8795 34.4894 51.8795C32.5226 51.8795 31.1031 50.8363 30.4533 49.6391V47.4843H30.8979C31.4281 50.1693 32.6936 51.1612 33.9934 51.1612C35.6523 51.1612 36.6271 49.9299 36.6271 47.8605C36.6271 46.3042 35.8575 44.7821 33.8737 44.7821C33.7369 44.7821 33.6001 44.7821 33.4632 44.7992V44.2862C34.9511 43.9612 35.7378 42.8667 35.7378 41.909C35.7378 40.8315 35.2077 40.1988 34.3183 40.1988C33.2409 40.1988 31.9583 41.2762 31.753 43.2258H31.3084V40.8829ZM46.6635 39.7541C48.8697 39.7541 50.255 40.7118 50.255 42.3536C50.255 43.3798 49.5538 44.2349 48.4079 44.5598C50.3576 44.7479 51.8455 45.9793 51.8455 47.8947C51.8455 50.2548 49.9813 51.7256 47.0227 51.7256H42.0973V51.6572C42.1657 51.2125 42.1828 51.0073 42.1828 49.9299V41.5498C42.1828 40.4724 42.1657 40.2672 42.0973 39.8225V39.7541H46.6635ZM44.7481 51.0073H46.5438C48.2027 51.0073 49.2801 49.8273 49.2801 48.0657C49.2801 46.1674 47.9462 45.1755 45.8255 44.9874L45.4322 44.9532V44.5085L45.6374 44.4743C46.9714 44.252 47.8607 43.6363 47.8607 42.3023C47.8607 41.1736 47.0569 40.4724 45.7571 40.4724H44.7481V51.0073ZM54.8303 39.7541H62.321V40.6434H62.2526C61.808 40.4724 61.5514 40.4724 60.6963 40.4724H57.4811V43.3969H60.9871V44.1151H57.4811V51.0073H61.3291C62.2355 51.0073 62.4408 50.9902 62.8854 50.8876H62.9538V51.7256H54.8303V51.6572C54.8987 51.2125 54.9158 51.0073 54.9158 49.9299V41.5498C54.9158 40.4724 54.8987 40.2672 54.8303 39.8225V39.7541ZM66.1506 40.8829C66.8176 40.1133 68.2199 39.4805 69.5197 39.4805C71.6574 39.4805 72.8375 40.5579 72.8375 41.8235C72.8375 42.7983 72.2047 43.6021 71.1102 44.1151C73.1795 44.5256 74.2057 46.0819 74.2057 47.6724C74.2057 49.6733 72.581 51.8795 69.3316 51.8795C67.3648 51.8795 65.9453 50.8363 65.2955 49.6391V47.4843H65.7401C66.2703 50.1693 67.5358 51.1612 68.8356 51.1612C70.4945 51.1612 71.4693 49.9299 71.4693 47.8605C71.4693 46.3042 70.6997 44.7821 68.7159 44.7821C68.5791 44.7821 68.4423 44.7821 68.3054 44.7992V44.2862C69.7933 43.9612 70.58 42.8667 70.58 41.909C70.58 40.8315 70.0499 40.1988 69.1605 40.1988C68.0831 40.1988 66.8005 41.2762 66.5952 43.2258H66.1506V40.8829ZM80.9071 39.7541C81.5228 39.7541 82.3608 39.6344 82.8055 39.2753L86.9442 51.0073H88.1413V53.9147H87.6967C87.5428 51.9992 87.2691 51.7256 85.7128 51.7256H77.8288C76.2725 51.7256 75.9988 51.9992 75.8449 53.9147H75.4003V51.0073H76.5461L80.9071 39.7541ZM77.3328 51.0073H84.225L80.9413 41.5669L77.3328 51.0073ZM90.2416 39.7541H93.0121V39.8225C92.9095 40.2672 92.8924 40.4724 92.8924 41.5498V48.1683L100.246 39.7541H100.794C100.657 40.2672 100.657 40.5237 100.657 43.1745V49.9299C100.657 51.0073 100.674 51.2125 100.742 51.6572V51.7256H97.9717V51.6572C98.0743 51.2125 98.0914 51.0073 98.0914 49.9299V43.3114L90.7375 51.7256H90.1902C90.3271 51.2125 90.3271 50.956 90.3271 50.1009V41.5498C90.3271 40.4724 90.31 40.2672 90.2416 39.8225V39.7541ZM104.393 39.7541H111.884V40.6434H111.815C111.371 40.4724 111.114 40.4724 110.259 40.4724H107.044V43.3969H110.55V44.1151H107.044V51.0073H110.892C111.798 51.0073 112.003 50.9902 112.448 50.8876H112.517V51.7256H104.393V51.6572C104.461 51.2125 104.479 51.0073 104.479 49.9299V41.5498C104.479 40.4724 104.461 40.2672 104.393 39.8225V39.7541Z"/>
</mask>
<path d="M12.1306 41.3104V43.6705H11.7373C11.4466 41.3959 9.73634 40.062 7.99193 40.062C5.92257 40.062 3.80191 41.8406 3.80191 45.928C3.80191 49.6391 5.71735 51.2809 7.70119 51.2809C9.4114 51.2809 11.1729 49.9983 11.7373 47.7921H12.1306V50.0325C10.9677 51.1783 9.27458 51.9992 7.35915 51.9992C3.83611 51.9992 1.06557 49.1945 1.06557 45.6714C1.06557 42.1484 3.83611 39.3437 7.35915 39.3437C9.29169 39.3437 10.9848 40.1646 12.1306 41.3104ZM21.5293 51.9992C18.0063 51.9992 15.2015 49.1945 15.2015 45.6714C15.2015 42.1484 18.0063 39.3437 21.5293 39.3437C25.0523 39.3437 27.8571 42.1484 27.8571 45.6714C27.8571 49.1945 25.0523 51.9992 21.5293 51.9992ZM18.0405 45.928C18.0405 49.0919 19.4429 51.2809 21.4609 51.2809C23.9407 51.2809 25.2234 48.271 25.2234 45.3807C25.2234 42.2681 23.8039 40.062 21.7687 40.062C19.3231 40.062 18.0405 43.0548 18.0405 45.928ZM31.3084 40.8829C31.9754 40.1133 33.3777 39.4805 34.6775 39.4805C36.8153 39.4805 37.9953 40.5579 37.9953 41.8235C37.9953 42.7983 37.3625 43.6021 36.268 44.1151C38.3373 44.5256 39.3635 46.0819 39.3635 47.6724C39.3635 49.6733 37.7388 51.8795 34.4894 51.8795C32.5226 51.8795 31.1031 50.8363 30.4533 49.6391V47.4843H30.8979C31.4281 50.1693 32.6936 51.1612 33.9934 51.1612C35.6523 51.1612 36.6271 49.9299 36.6271 47.8605C36.6271 46.3042 35.8575 44.7821 33.8737 44.7821C33.7369 44.7821 33.6001 44.7821 33.4632 44.7992V44.2862C34.9511 43.9612 35.7378 42.8667 35.7378 41.909C35.7378 40.8315 35.2077 40.1988 34.3183 40.1988C33.2409 40.1988 31.9583 41.2762 31.753 43.2258H31.3084V40.8829ZM46.6635 39.7541C48.8697 39.7541 50.255 40.7118 50.255 42.3536C50.255 43.3798 49.5538 44.2349 48.4079 44.5598C50.3576 44.7479 51.8455 45.9793 51.8455 47.8947C51.8455 50.2548 49.9813 51.7256 47.0227 51.7256H42.0973V51.6572C42.1657 51.2125 42.1828 51.0073 42.1828 49.9299V41.5498C42.1828 40.4724 42.1657 40.2672 42.0973 39.8225V39.7541H46.6635ZM44.7481 51.0073H46.5438C48.2027 51.0073 49.2801 49.8273 49.2801 48.0657C49.2801 46.1674 47.9462 45.1755 45.8255 44.9874L45.4322 44.9532V44.5085L45.6374 44.4743C46.9714 44.252 47.8607 43.6363 47.8607 42.3023C47.8607 41.1736 47.0569 40.4724 45.7571 40.4724H44.7481V51.0073ZM54.8303 39.7541H62.321V40.6434H62.2526C61.808 40.4724 61.5514 40.4724 60.6963 40.4724H57.4811V43.3969H60.9871V44.1151H57.4811V51.0073H61.3291C62.2355 51.0073 62.4408 50.9902 62.8854 50.8876H62.9538V51.7256H54.8303V51.6572C54.8987 51.2125 54.9158 51.0073 54.9158 49.9299V41.5498C54.9158 40.4724 54.8987 40.2672 54.8303 39.8225V39.7541ZM66.1506 40.8829C66.8176 40.1133 68.2199 39.4805 69.5197 39.4805C71.6574 39.4805 72.8375 40.5579 72.8375 41.8235C72.8375 42.7983 72.2047 43.6021 71.1102 44.1151C73.1795 44.5256 74.2057 46.0819 74.2057 47.6724C74.2057 49.6733 72.581 51.8795 69.3316 51.8795C67.3648 51.8795 65.9453 50.8363 65.2955 49.6391V47.4843H65.7401C66.2703 50.1693 67.5358 51.1612 68.8356 51.1612C70.4945 51.1612 71.4693 49.9299 71.4693 47.8605C71.4693 46.3042 70.6997 44.7821 68.7159 44.7821C68.5791 44.7821 68.4423 44.7821 68.3054 44.7992V44.2862C69.7933 43.9612 70.58 42.8667 70.58 41.909C70.58 40.8315 70.0499 40.1988 69.1605 40.1988C68.0831 40.1988 66.8005 41.2762 66.5952 43.2258H66.1506V40.8829ZM80.9071 39.7541C81.5228 39.7541 82.3608 39.6344 82.8055 39.2753L86.9442 51.0073H88.1413V53.9147H87.6967C87.5428 51.9992 87.2691 51.7256 85.7128 51.7256H77.8288C76.2725 51.7256 75.9988 51.9992 75.8449 53.9147H75.4003V51.0073H76.5461L80.9071 39.7541ZM77.3328 51.0073H84.225L80.9413 41.5669L77.3328 51.0073ZM90.2416 39.7541H93.0121V39.8225C92.9095 40.2672 92.8924 40.4724 92.8924 41.5498V48.1683L100.246 39.7541H100.794C100.657 40.2672 100.657 40.5237 100.657 43.1745V49.9299C100.657 51.0073 100.674 51.2125 100.742 51.6572V51.7256H97.9717V51.6572C98.0743 51.2125 98.0914 51.0073 98.0914 49.9299V43.3114L90.7375 51.7256H90.1902C90.3271 51.2125 90.3271 50.956 90.3271 50.1009V41.5498C90.3271 40.4724 90.31 40.2672 90.2416 39.8225V39.7541ZM104.393 39.7541H111.884V40.6434H111.815C111.371 40.4724 111.114 40.4724 110.259 40.4724H107.044V43.3969H110.55V44.1151H107.044V51.0073H110.892C111.798 51.0073 112.003 50.9902 112.448 50.8876H112.517V51.7256H104.393V51.6572C104.461 51.2125 104.479 51.0073 104.479 49.9299V41.5498C104.479 40.4724 104.461 40.2672 104.393 39.8225V39.7541Z" fill="white"/>
<path d="M12.1306 41.3104H12.4341V41.1847L12.3452 41.0959L12.1306 41.3104ZM12.1306 43.6705V43.9739H12.4341V43.6705H12.1306ZM11.7373 43.6705L11.4363 43.709L11.4702 43.9739H11.7373V43.6705ZM11.7373 47.7921V47.4887H11.5017L11.4433 47.7169L11.7373 47.7921ZM12.1306 47.7921H12.4341V47.4887H12.1306V47.7921ZM12.1306 50.0325L12.3436 50.2486L12.4341 50.1595V50.0325H12.1306ZM11.8272 41.3104V43.6705H12.4341V41.3104H11.8272ZM12.1306 43.3671H11.7373V43.9739H12.1306V43.3671ZM12.0383 43.632C11.7291 41.2137 9.89667 39.7585 7.99193 39.7585V40.3654C9.57601 40.3654 11.164 41.5782 11.4363 43.709L12.0383 43.632ZM7.99193 39.7585C6.86685 39.7585 5.73348 40.2435 4.88692 41.269C4.04217 42.2923 3.49849 43.8333 3.49849 45.928H4.10533C4.10533 43.9352 4.62198 42.5432 5.3549 41.6553C6.08601 40.7697 7.04765 40.3654 7.99193 40.3654V39.7585ZM3.49849 45.928C3.49849 47.834 3.99061 49.2474 4.77428 50.1901C5.5604 51.1358 6.62167 51.5844 7.70119 51.5844V50.9775C6.79686 50.9775 5.9085 50.6052 5.24094 49.8022C4.57092 48.9962 4.10533 47.7331 4.10533 45.928H3.49849ZM7.70119 51.5844C9.56431 51.5844 11.4362 50.1934 12.0312 47.8673L11.4433 47.7169C10.9096 49.8032 9.25849 50.9775 7.70119 50.9775V51.5844ZM11.7373 48.0955H12.1306V47.4887H11.7373V48.0955ZM11.8272 47.7921V50.0325H12.4341V47.7921H11.8272ZM11.9177 49.8163C10.8057 50.9119 9.18714 51.6958 7.35915 51.6958V52.3026C9.36203 52.3026 11.1297 51.4447 12.3436 50.2486L11.9177 49.8163ZM7.35915 51.6958C4.00584 51.6958 1.36899 49.0291 1.36899 45.6714H0.762151C0.762151 49.3599 3.66639 52.3026 7.35915 52.3026V51.6958ZM1.36899 45.6714C1.36899 42.3138 4.00584 39.6471 7.35915 39.6471V39.0402C3.66639 39.0402 0.762151 41.983 0.762151 45.6714H1.36899ZM7.35915 39.6471C9.20501 39.6471 10.8226 40.4315 11.9161 41.525L12.3452 41.0959C11.147 39.8977 9.37836 39.0402 7.35915 39.0402V39.6471ZM21.5293 51.6958C18.1739 51.6958 15.505 49.0269 15.505 45.6714H14.8981C14.8981 49.3621 17.8387 52.3026 21.5293 52.3026V51.6958ZM15.505 45.6714C15.505 42.316 18.1739 39.6471 21.5293 39.6471V39.0402C17.8387 39.0402 14.8981 41.9808 14.8981 45.6714H15.505ZM21.5293 39.6471C24.8848 39.6471 27.5537 42.316 27.5537 45.6714H28.1605C28.1605 41.9808 25.2199 39.0402 21.5293 39.0402V39.6471ZM27.5537 45.6714C27.5537 49.0269 24.8848 51.6958 21.5293 51.6958V52.3026C25.2199 52.3026 28.1605 49.3621 28.1605 45.6714H27.5537ZM17.7371 45.928C17.7371 47.5504 18.096 48.9499 18.7383 49.9544C19.3841 50.9644 20.3267 51.5844 21.4609 51.5844V50.9775C20.577 50.9775 19.8094 50.503 19.2495 49.6274C18.6861 48.7464 18.3439 47.4694 18.3439 45.928H17.7371ZM21.4609 51.5844C22.8456 51.5844 23.8717 50.7375 24.5361 49.5642C25.1985 48.3943 25.5268 46.8646 25.5268 45.3807H24.9199C24.9199 46.787 24.6069 48.2075 24.008 49.2652C23.4111 50.3194 22.556 50.9775 21.4609 50.9775V51.5844ZM25.5268 45.3807C25.5268 43.7824 25.1629 42.3912 24.5139 41.3892C23.8616 40.3821 22.9108 39.7585 21.7687 39.7585V40.3654C22.6618 40.3654 23.4384 40.8449 24.0046 41.7191C24.5741 42.5983 24.9199 43.8664 24.9199 45.3807H25.5268ZM21.7687 39.7585C20.4003 39.7585 19.383 40.602 18.7234 41.7681C18.0655 42.9314 17.7371 44.4523 17.7371 45.928H18.3439C18.3439 44.5305 18.6568 43.1184 19.2516 42.0669C19.8447 41.0183 20.6916 40.3654 21.7687 40.3654V39.7585ZM31.3084 40.8829L31.0791 40.6841L31.0049 40.7697V40.8829H31.3084ZM36.268 44.1151L36.1392 43.8404L35.302 44.2329L36.209 44.4128L36.268 44.1151ZM30.4533 49.6391H30.1498V49.7162L30.1866 49.7839L30.4533 49.6391ZM30.4533 47.4843V47.1808H30.1498V47.4843H30.4533ZM30.8979 47.4843L31.1956 47.4255L31.1473 47.1808H30.8979V47.4843ZM33.4632 44.7992H33.1598V45.1429L33.5009 45.1003L33.4632 44.7992ZM33.4632 44.2862L33.3985 43.9897L33.1598 44.0419V44.2862H33.4632ZM31.753 43.2258V43.5293H32.0262L32.0548 43.2576L31.753 43.2258ZM31.3084 43.2258H31.0049V43.5293H31.3084V43.2258ZM31.5377 41.0816C31.8331 40.7407 32.3079 40.4139 32.8747 40.1722C33.4393 39.9313 34.0744 39.7839 34.6775 39.7839V39.1771C33.9808 39.1771 33.2649 39.346 32.6366 39.614C32.0105 39.881 31.4507 40.2554 31.0791 40.6841L31.5377 41.0816ZM34.6775 39.7839C35.6978 39.7839 36.4576 40.0411 36.9544 40.4189C37.4471 40.7936 37.6919 41.2927 37.6919 41.8235H38.2987C38.2987 41.0887 37.9535 40.4163 37.3217 39.9359C36.6941 39.4586 35.7949 39.1771 34.6775 39.1771V39.7839ZM37.6919 41.8235C37.6919 42.6425 37.1666 43.3588 36.1392 43.8404L36.3968 44.3899C37.5585 43.8453 38.2987 42.954 38.2987 41.8235H37.6919ZM36.209 44.4128C38.1316 44.7941 39.06 46.2219 39.06 47.6724H39.6669C39.6669 45.9419 38.5431 44.2571 36.327 43.8175L36.209 44.4128ZM39.06 47.6724C39.06 49.502 37.575 51.5761 34.4894 51.5761V52.1829C37.9025 52.1829 39.6669 49.8447 39.6669 47.6724H39.06ZM34.4894 51.5761C32.6363 51.5761 31.3179 50.5958 30.7199 49.4944L30.1866 49.7839C30.8884 51.0767 32.409 52.1829 34.4894 52.1829V51.5761ZM30.7567 49.6391V47.4843H30.1498V49.6391H30.7567ZM30.4533 47.7877H30.8979V47.1808H30.4533V47.7877ZM30.6002 47.543C30.8721 48.92 31.3391 49.8984 31.9353 50.5367C32.5375 51.1814 33.2589 51.4646 33.9934 51.4646V50.8578C33.4281 50.8578 32.8669 50.6451 32.3788 50.1225C31.8848 49.5936 31.4539 48.7335 31.1956 47.4255L30.6002 47.543ZM33.9934 51.4646C34.9051 51.4646 35.6551 51.1223 36.1697 50.4759C36.6771 49.8386 36.9305 48.9383 36.9305 47.8605H36.3237C36.3237 48.8521 36.0897 49.6021 35.695 50.0979C35.3075 50.5845 34.7406 50.8578 33.9934 50.8578V51.4646ZM36.9305 47.8605C36.9305 47.038 36.7279 46.1966 36.2352 45.5532C35.7335 44.898 34.9533 44.4787 33.8737 44.4787V45.0856C34.7779 45.0856 35.3744 45.4273 35.7535 45.9222C36.1415 46.4289 36.3237 47.1267 36.3237 47.8605H36.9305ZM33.8737 44.4787C33.7399 44.4787 33.5843 44.4783 33.4256 44.4982L33.5009 45.1003C33.6159 45.0859 33.7338 45.0856 33.8737 45.0856V44.4787ZM33.7667 44.7992V44.2862H33.1598V44.7992H33.7667ZM33.528 44.5826C35.1319 44.2323 36.0412 43.0319 36.0412 41.909H35.4344C35.4344 42.7015 34.7704 43.6901 33.3985 43.9897L33.528 44.5826ZM36.0412 41.909C36.0412 41.3243 35.8976 40.8197 35.5948 40.4558C35.2858 40.0845 34.8405 39.8953 34.3183 39.8953V40.5022C34.6855 40.5022 34.9499 40.6295 35.1283 40.8439C35.3129 41.0658 35.4344 41.4162 35.4344 41.909H36.0412ZM34.3183 39.8953C33.0418 39.8953 31.6677 41.138 31.4513 43.1941L32.0548 43.2576C32.2488 41.4144 33.4401 40.5022 34.3183 40.5022V39.8953ZM31.753 42.9224H31.3084V43.5293H31.753V42.9224ZM31.6118 43.2258V40.8829H31.0049V43.2258H31.6118ZM48.4079 44.5598L48.3252 44.2679L48.3788 44.8618L48.4079 44.5598ZM42.0973 51.7256H41.7938V52.029H42.0973V51.7256ZM42.0973 51.6572L41.7974 51.611L41.7938 51.634V51.6572H42.0973ZM42.0973 39.8225H41.7938V39.8457L41.7974 39.8687L42.0973 39.8225ZM42.0973 39.7541V39.4507H41.7938V39.7541H42.0973ZM44.7481 51.0073H44.4447V51.3107H44.7481V51.0073ZM45.8255 44.9874L45.8523 44.6851L45.8518 44.6851L45.8255 44.9874ZM45.4322 44.9532H45.1287V45.2313L45.4059 45.2554L45.4322 44.9532ZM45.4322 44.5085L45.3823 44.2092L45.1287 44.2515V44.5085H45.4322ZM45.6374 44.4743L45.5875 44.175L45.6374 44.4743ZM44.7481 40.4724V40.169H44.4447V40.4724H44.7481ZM46.6635 40.0575C47.7281 40.0575 48.5565 40.2893 49.1101 40.685C49.652 41.0723 49.9515 41.63 49.9515 42.3536H50.5584C50.5584 41.4355 50.1653 40.6934 49.463 40.1913C48.7724 39.6977 47.8051 39.4507 46.6635 39.4507V40.0575ZM49.9515 42.3536C49.9515 43.221 49.3641 43.9733 48.3252 44.2679L48.4907 44.8517C49.7435 44.4965 50.5584 43.5385 50.5584 42.3536H49.9515ZM48.3788 44.8618C50.2218 45.0397 51.542 46.1802 51.542 47.8947H52.1489C52.1489 45.7783 50.4934 44.4562 48.4371 44.2578L48.3788 44.8618ZM51.542 47.8947C51.542 48.9869 51.1147 49.8552 50.3551 50.4574C49.5877 51.0658 48.4553 51.4222 47.0227 51.4222V52.029C48.5487 52.029 49.8277 51.65 50.7321 50.9329C51.6442 50.2098 52.1489 49.1626 52.1489 47.8947H51.542ZM47.0227 51.4222H42.0973V52.029H47.0227V51.4222ZM42.4007 51.7256V51.6572H41.7938V51.7256H42.4007ZM42.3972 51.7033C42.4691 51.2355 42.4862 51.0119 42.4862 49.9299H41.8794C41.8794 51.0027 41.8622 51.1896 41.7974 51.611L42.3972 51.7033ZM42.4862 49.9299V41.5498H41.8794V49.9299H42.4862ZM42.4862 41.5498C42.4862 40.4678 42.4691 40.2442 42.3972 39.7764L41.7974 39.8687C41.8622 40.2901 41.8794 40.477 41.8794 41.5498H42.4862ZM42.4007 39.8225V39.7541H41.7938V39.8225H42.4007ZM42.0973 40.0575H46.6635V39.4507H42.0973V40.0575ZM44.7481 51.3107H46.5438V50.7039H44.7481V51.3107ZM46.5438 51.3107C47.4487 51.3107 48.2167 50.9868 48.7568 50.4032C49.2947 49.8218 49.5836 49.008 49.5836 48.0657H48.9767C48.9767 48.885 48.7269 49.5419 48.3114 49.991C47.898 50.4378 47.2978 50.7039 46.5438 50.7039V51.3107ZM49.5836 48.0657C49.5836 47.0376 49.2183 46.2267 48.5446 45.654C47.8812 45.0901 46.9486 44.7824 45.8523 44.6851L45.7987 45.2896C46.8231 45.3805 47.6178 45.6627 48.1516 46.1164C48.675 46.5613 48.9767 47.1955 48.9767 48.0657H49.5836ZM45.8518 44.6851L45.4585 44.6509L45.4059 45.2554L45.7992 45.2896L45.8518 44.6851ZM45.7356 44.9532V44.5085H45.1287V44.9532H45.7356ZM45.4821 44.8078L45.6873 44.7736L45.5875 44.175L45.3823 44.2092L45.4821 44.8078ZM45.6873 44.7736C46.3822 44.6578 47.0022 44.4338 47.4517 44.0312C47.9126 43.6184 48.1641 43.0449 48.1641 42.3023H47.5573C47.5573 42.8937 47.3641 43.295 47.0468 43.5791C46.7182 43.8735 46.2266 44.0685 45.5875 44.175L45.6873 44.7736ZM48.1641 42.3023C48.1641 41.6613 47.9331 41.1162 47.4955 40.7352C47.0629 40.3586 46.4593 40.169 45.7571 40.169V40.7758C46.3547 40.7758 46.8029 40.9368 47.0971 41.1929C47.3864 41.4448 47.5573 41.8146 47.5573 42.3023H48.1641ZM45.7571 40.169H44.7481V40.7758H45.7571V40.169ZM44.4447 40.4724V51.0073H45.0515V40.4724H44.4447ZM54.8303 39.7541V39.4507H54.5269V39.7541H54.8303ZM62.321 39.7541H62.6245V39.4507H62.321V39.7541ZM62.321 40.6434V40.9468H62.6245V40.6434H62.321ZM62.2526 40.6434L62.1437 40.9266L62.1963 40.9468H62.2526V40.6434ZM57.4811 40.4724V40.169H57.1777V40.4724H57.4811ZM57.4811 43.3969H57.1777V43.7003H57.4811V43.3969ZM60.9871 43.3969H61.2905V43.0934H60.9871V43.3969ZM60.9871 44.1151V44.4186H61.2905V44.1151H60.9871ZM57.4811 44.1151V43.8117H57.1777V44.1151H57.4811ZM57.4811 51.0073H57.1777V51.3107H57.4811V51.0073ZM62.8854 50.8876V50.5842H62.8508L62.8172 50.5919L62.8854 50.8876ZM62.9538 50.8876H63.2572V50.5842H62.9538V50.8876ZM62.9538 51.7256V52.029H63.2572V51.7256H62.9538ZM54.8303 51.7256H54.5269V52.029H54.8303V51.7256ZM54.8303 51.6572L54.5304 51.611L54.5269 51.634V51.6572H54.8303ZM54.8303 39.8225H54.5269V39.8457L54.5304 39.8687L54.8303 39.8225ZM54.8303 40.0575H62.321V39.4507H54.8303V40.0575ZM62.0176 39.7541V40.6434H62.6245V39.7541H62.0176ZM62.321 40.34H62.2526V40.9468H62.321V40.34ZM62.3615 40.3602C61.8561 40.1658 61.543 40.169 60.6963 40.169V40.7758C61.5599 40.7758 61.7599 40.779 62.1437 40.9266L62.3615 40.3602ZM60.6963 40.169H57.4811V40.7758H60.6963V40.169ZM57.1777 40.4724V43.3969H57.7846V40.4724H57.1777ZM57.4811 43.7003H60.9871V43.0934H57.4811V43.7003ZM60.6837 43.3969V44.1151H61.2905V43.3969H60.6837ZM60.9871 43.8117H57.4811V44.4186H60.9871V43.8117ZM57.1777 44.1151V51.0073H57.7846V44.1151H57.1777ZM57.4811 51.3107H61.3291V50.7039H57.4811V51.3107ZM61.3291 51.3107C62.2416 51.3107 62.4746 51.2938 62.9536 51.1832L62.8172 50.5919C62.4069 50.6866 62.2295 50.7039 61.3291 50.7039V51.3107ZM62.8854 51.191H62.9538V50.5842H62.8854V51.191ZM62.6504 50.8876V51.7256H63.2572V50.8876H62.6504ZM62.9538 51.4222H54.8303V52.029H62.9538V51.4222ZM55.1337 51.7256V51.6572H54.5269V51.7256H55.1337ZM55.1302 51.7033C55.2022 51.2355 55.2192 51.0119 55.2192 49.9299H54.6124C54.6124 51.0027 54.5953 51.1896 54.5304 51.611L55.1302 51.7033ZM55.2192 49.9299V41.5498H54.6124V49.9299H55.2192ZM55.2192 41.5498C55.2192 40.4678 55.2022 40.2442 55.1302 39.7764L54.5304 39.8687C54.5953 40.2901 54.6124 40.477 54.6124 41.5498H55.2192ZM55.1337 39.8225V39.7541H54.5269V39.8225H55.1337ZM66.1506 40.8829L65.9213 40.6841L65.8472 40.7697V40.8829H66.1506ZM71.1102 44.1151L70.9814 43.8404L70.1441 44.2329L71.0511 44.4128L71.1102 44.1151ZM65.2955 49.6391H64.992V49.7162L65.0288 49.7839L65.2955 49.6391ZM65.2955 47.4843V47.1808H64.992V47.4843H65.2955ZM65.7401 47.4843L66.0378 47.4255L65.9895 47.1808H65.7401V47.4843ZM68.3054 44.7992H68.002V45.1429L68.3431 45.1003L68.3054 44.7992ZM68.3054 44.2862L68.2407 43.9897L68.002 44.0419V44.2862H68.3054ZM66.5952 43.2258V43.5293H66.8684L66.897 43.2576L66.5952 43.2258ZM66.1506 43.2258H65.8472V43.5293H66.1506V43.2258ZM66.3799 41.0816C66.6753 40.7407 67.1501 40.4139 67.7169 40.1722C68.2815 39.9313 68.9166 39.7839 69.5197 39.7839V39.1771C68.823 39.1771 68.1071 39.346 67.4788 39.614C66.8527 39.881 66.2929 40.2554 65.9213 40.6841L66.3799 41.0816ZM69.5197 39.7839C70.54 39.7839 71.2998 40.0411 71.7966 40.4189C72.2893 40.7936 72.5341 41.2927 72.5341 41.8235H73.1409C73.1409 41.0887 72.7957 40.4163 72.1639 39.9359C71.5363 39.4586 70.6371 39.1771 69.5197 39.1771V39.7839ZM72.5341 41.8235C72.5341 42.6425 72.0088 43.3588 70.9814 43.8404L71.239 44.3899C72.4007 43.8453 73.1409 42.954 73.1409 41.8235H72.5341ZM71.0511 44.4128C72.9738 44.7941 73.9022 46.2219 73.9022 47.6724H74.5091C74.5091 45.9419 73.3853 44.2571 71.1692 43.8175L71.0511 44.4128ZM73.9022 47.6724C73.9022 49.502 72.4172 51.5761 69.3316 51.5761V52.1829C72.7447 52.1829 74.5091 49.8447 74.5091 47.6724H73.9022ZM69.3316 51.5761C67.4785 51.5761 66.1601 50.5958 65.5621 49.4944L65.0288 49.7839C65.7306 51.0767 67.2512 52.1829 69.3316 52.1829V51.5761ZM65.5989 49.6391V47.4843H64.992V49.6391H65.5989ZM65.2955 47.7877H65.7401V47.1808H65.2955V47.7877ZM65.4424 47.543C65.7143 48.92 66.1813 49.8984 66.7775 50.5367C67.3797 51.1814 68.1011 51.4646 68.8356 51.4646V50.8578C68.2703 50.8578 67.7091 50.6451 67.221 50.1225C66.727 49.5936 66.2961 48.7335 66.0378 47.4255L65.4424 47.543ZM68.8356 51.4646C69.7473 51.4646 70.4973 51.1223 71.0119 50.4759C71.5193 49.8386 71.7728 48.9383 71.7728 47.8605H71.1659C71.1659 48.8521 70.9319 49.6021 70.5372 50.0979C70.1497 50.5845 69.5828 50.8578 68.8356 50.8578V51.4646ZM71.7728 47.8605C71.7728 47.038 71.5701 46.1966 71.0774 45.5532C70.5757 44.898 69.7955 44.4787 68.7159 44.4787V45.0856C69.6201 45.0856 70.2166 45.4273 70.5956 45.9222C70.9837 46.4289 71.1659 47.1267 71.1659 47.8605H71.7728ZM68.7159 44.4787C68.5821 44.4787 68.4265 44.4783 68.2678 44.4982L68.3431 45.1003C68.4581 45.0859 68.576 45.0856 68.7159 45.0856V44.4787ZM68.6089 44.7992V44.2862H68.002V44.7992H68.6089ZM68.3702 44.5826C69.9741 44.2323 70.8834 43.0319 70.8834 41.909H70.2766C70.2766 42.7015 69.6126 43.6901 68.2407 43.9897L68.3702 44.5826ZM70.8834 41.909C70.8834 41.3243 70.7398 40.8197 70.437 40.4558C70.128 40.0845 69.6827 39.8953 69.1605 39.8953V40.5022C69.5277 40.5022 69.7921 40.6295 69.9705 40.8439C70.1551 41.0658 70.2766 41.4162 70.2766 41.909H70.8834ZM69.1605 39.8953C67.884 39.8953 66.5099 41.138 66.2935 43.1941L66.897 43.2576C67.091 41.4144 68.2823 40.5022 69.1605 40.5022V39.8953ZM66.5952 42.9224H66.1506V43.5293H66.5952V42.9224ZM66.454 43.2258V40.8829H65.8472V43.2258H66.454ZM80.9071 39.7541V39.4507H80.6993L80.6242 39.6445L80.9071 39.7541ZM82.8055 39.2753L83.0916 39.1743L82.9488 38.7695L82.6148 39.0392L82.8055 39.2753ZM86.9442 51.0073L86.6581 51.1082L86.7295 51.3107H86.9442V51.0073ZM88.1413 51.0073H88.4448V50.7039H88.1413V51.0073ZM88.1413 53.9147V54.2181H88.4448V53.9147H88.1413ZM87.6967 53.9147L87.3942 53.939L87.4167 54.2181H87.6967V53.9147ZM75.8449 53.9147V54.2181H76.1249L76.1474 53.939L75.8449 53.9147ZM75.4003 53.9147H75.0968V54.2181H75.4003V53.9147ZM75.4003 51.0073V50.7039H75.0968V51.0073H75.4003ZM76.5461 51.0073V51.3107H76.7539L76.829 51.1169L76.5461 51.0073ZM77.3328 51.0073L77.0494 50.899L76.892 51.3107H77.3328V51.0073ZM84.225 51.0073V51.3107H84.6517L84.5115 50.9076L84.225 51.0073ZM80.9413 41.5669L81.2279 41.4673L80.9548 40.682L80.6579 41.4586L80.9413 41.5669ZM80.9071 40.0575C81.2325 40.0575 81.6181 40.0261 81.9853 39.9458C82.3466 39.8667 82.7205 39.7339 82.9961 39.5113L82.6148 39.0392C82.4458 39.1757 82.1784 39.2823 81.8556 39.3529C81.5387 39.4223 81.1975 39.4507 80.9071 39.4507V40.0575ZM82.5193 39.3762L86.6581 51.1082L87.2303 50.9064L83.0916 39.1743L82.5193 39.3762ZM86.9442 51.3107H88.1413V50.7039H86.9442V51.3107ZM87.8379 51.0073V53.9147H88.4448V51.0073H87.8379ZM88.1413 53.6112H87.6967V54.2181H88.1413V53.6112ZM87.9991 53.8904C87.9604 53.4087 87.913 53.0125 87.8355 52.693C87.7578 52.3729 87.6439 52.1036 87.4543 51.8968C87.07 51.4775 86.4726 51.4222 85.7128 51.4222V52.029C86.5094 52.029 86.8269 52.1105 87.007 52.3069C87.0996 52.4079 87.1802 52.5661 87.2458 52.8361C87.3114 53.1066 87.356 53.4629 87.3942 53.939L87.9991 53.8904ZM85.7128 51.4222H77.8288V52.029H85.7128V51.4222ZM77.8288 51.4222C77.069 51.4222 76.4716 51.4775 76.0873 51.8968C75.8977 52.1036 75.7838 52.3729 75.7061 52.693C75.6286 53.0125 75.5812 53.4087 75.5425 53.8904L76.1474 53.939C76.1856 53.4629 76.2302 53.1066 76.2958 52.8361C76.3614 52.5661 76.442 52.4079 76.5346 52.3069C76.7147 52.1105 77.0322 52.029 77.8288 52.029V51.4222ZM75.8449 53.6112H75.4003V54.2181H75.8449V53.6112ZM75.7037 53.9147V51.0073H75.0968V53.9147H75.7037ZM75.4003 51.3107H76.5461V50.7039H75.4003V51.3107ZM76.829 51.1169L81.1901 39.8638L80.6242 39.6445L76.2632 50.8977L76.829 51.1169ZM77.3328 51.3107H84.225V50.7039H77.3328V51.3107ZM84.5115 50.9076L81.2279 41.4673L80.6548 41.6666L83.9384 51.107L84.5115 50.9076ZM80.6579 41.4586L77.0494 50.899L77.6162 51.1156L81.2248 41.6753L80.6579 41.4586ZM90.2416 39.7541V39.4507H89.9381V39.7541H90.2416ZM93.0121 39.7541H93.3155V39.4507H93.0121V39.7541ZM93.0121 39.8225L93.3077 39.8907L93.3155 39.8571V39.8225H93.0121ZM92.8924 48.1683H92.589V48.9766L93.1208 48.368L92.8924 48.1683ZM100.246 39.7541V39.4507H100.108L100.018 39.5544L100.246 39.7541ZM100.794 39.7541L101.087 39.8323L101.188 39.4507H100.794V39.7541ZM100.742 51.6572H101.046V51.634L101.042 51.611L100.742 51.6572ZM100.742 51.7256V52.029H101.046V51.7256H100.742ZM97.9717 51.7256H97.6683V52.029H97.9717V51.7256ZM97.9717 51.6572L97.6761 51.589L97.6683 51.6226V51.6572H97.9717ZM98.0914 43.3114H98.3948V42.5031L97.863 43.1117L98.0914 43.3114ZM90.7375 51.7256V52.029H90.8753L90.966 51.9253L90.7375 51.7256ZM90.1902 51.7256L89.8971 51.6474L89.7953 52.029H90.1902V51.7256ZM90.2416 39.8225H89.9381V39.8457L89.9417 39.8687L90.2416 39.8225ZM90.2416 40.0575H93.0121V39.4507H90.2416V40.0575ZM92.7087 39.7541V39.8225H93.3155V39.7541H92.7087ZM92.7164 39.7543C92.6055 40.2351 92.589 40.4701 92.589 41.5498H93.1958C93.1958 40.4747 93.2135 40.2993 93.3077 39.8907L92.7164 39.7543ZM92.589 41.5498V48.1683H93.1958V41.5498H92.589ZM93.1208 48.368L100.475 39.9538L100.018 39.5544L92.6639 47.9687L93.1208 48.368ZM100.246 40.0575H100.794V39.4507H100.246V40.0575ZM100.5 39.6759C100.35 40.2381 100.353 40.5487 100.353 43.1745H100.96C100.96 40.4987 100.963 40.2962 101.087 39.8323L100.5 39.6759ZM100.353 43.1745V49.9299H100.96V43.1745H100.353ZM100.353 49.9299C100.353 51.0119 100.37 51.2355 100.442 51.7033L101.042 51.611C100.977 51.1896 100.96 51.0027 100.96 49.9299H100.353ZM100.439 51.6572V51.7256H101.046V51.6572H100.439ZM100.742 51.4222H97.9717V52.029H100.742V51.4222ZM98.2751 51.7256V51.6572H97.6683V51.7256H98.2751ZM98.2674 51.7254C98.3783 51.2446 98.3948 51.0096 98.3948 49.9299H97.788C97.788 51.005 97.7703 51.1804 97.6761 51.589L98.2674 51.7254ZM98.3948 49.9299V43.3114H97.788V49.9299H98.3948ZM97.863 43.1117L90.5091 51.5259L90.966 51.9253L98.3199 43.511L97.863 43.1117ZM90.7375 51.4222H90.1902V52.029H90.7375V51.4222ZM90.4834 51.8038C90.6318 51.2475 90.6305 50.9537 90.6305 50.1009H90.0236C90.0236 50.9583 90.0224 51.1776 89.8971 51.6474L90.4834 51.8038ZM90.6305 50.1009V41.5498H90.0236V50.1009H90.6305ZM90.6305 41.5498C90.6305 40.4678 90.6134 40.2442 90.5415 39.7764L89.9417 39.8687C90.0065 40.2901 90.0236 40.477 90.0236 41.5498H90.6305ZM90.545 39.8225V39.7541H89.9381V39.8225H90.545ZM104.393 39.7541V39.4507H104.09V39.7541H104.393ZM111.884 39.7541H112.187V39.4507H111.884V39.7541ZM111.884 40.6434V40.9468H112.187V40.6434H111.884ZM111.815 40.6434L111.706 40.9266L111.759 40.9468H111.815V40.6434ZM107.044 40.4724V40.169H106.74V40.4724H107.044ZM107.044 43.3969H106.74V43.7003H107.044V43.3969ZM110.55 43.3969H110.853V43.0934H110.55V43.3969ZM110.55 44.1151V44.4186H110.853V44.1151H110.55ZM107.044 44.1151V43.8117H106.74V44.1151H107.044ZM107.044 51.0073H106.74V51.3107H107.044V51.0073ZM112.448 50.8876V50.5842H112.414L112.38 50.5919L112.448 50.8876ZM112.517 50.8876H112.82V50.5842H112.517V50.8876ZM112.517 51.7256V52.029H112.82V51.7256H112.517ZM104.393 51.7256H104.09V52.029H104.393V51.7256ZM104.393 51.6572L104.093 51.611L104.09 51.634V51.6572H104.393ZM104.393 39.8225H104.09V39.8457L104.093 39.8687L104.393 39.8225ZM104.393 40.0575H111.884V39.4507H104.393V40.0575ZM111.58 39.7541V40.6434H112.187V39.7541H111.58ZM111.884 40.34H111.815V40.9468H111.884V40.34ZM111.924 40.3602C111.419 40.1658 111.106 40.169 110.259 40.169V40.7758C111.123 40.7758 111.323 40.779 111.706 40.9266L111.924 40.3602ZM110.259 40.169H107.044V40.7758H110.259V40.169ZM106.74 40.4724V43.3969H107.347V40.4724H106.74ZM107.044 43.7003H110.55V43.0934H107.044V43.7003ZM110.246 43.3969V44.1151H110.853V43.3969H110.246ZM110.55 43.8117H107.044V44.4186H110.55V43.8117ZM106.74 44.1151V51.0073H107.347V44.1151H106.74ZM107.044 51.3107H110.892V50.7039H107.044V51.3107ZM110.892 51.3107C111.804 51.3107 112.037 51.2938 112.516 51.1832L112.38 50.5919C111.97 50.6866 111.792 50.7039 110.892 50.7039V51.3107ZM112.448 51.191H112.517V50.5842H112.448V51.191ZM112.213 50.8876V51.7256H112.82V50.8876H112.213ZM112.517 51.4222H104.393V52.029H112.517V51.4222ZM104.696 51.7256V51.6572H104.09V51.7256H104.696ZM104.693 51.7033C104.765 51.2355 104.782 51.0119 104.782 49.9299H104.175C104.175 51.0027 104.158 51.1896 104.093 51.611L104.693 51.7033ZM104.782 49.9299V41.5498H104.175V49.9299H104.782ZM104.782 41.5498C104.782 40.4678 104.765 40.2442 104.693 39.7764L104.093 39.8687C104.158 40.2901 104.175 40.477 104.175 41.5498H104.782ZM104.696 39.8225V39.7541H104.09V39.8225H104.696Z" fill="white" mask="url(#path-11-outside-1_222_2973)"/>
<mask id="path-13-outside-2_222_2973" maskUnits="userSpaceOnUse" x="23.4785" y="63" width="65" height="14" fill="black">
<rect fill="white" x="23.4785" y="63" width="65" height="14"/>
<path d="M24.6546 64.0285H25.6807L30.8113 72.2546L36.113 64.0285H37.1391C37.0707 64.4732 37.0536 64.6784 37.0536 65.5848V74.2043C37.0536 75.2817 37.0707 75.4869 37.1391 75.9316V76H34.3686V75.9316C34.4712 75.4869 34.4883 75.2817 34.4883 74.2043V67.8765L29.6997 75.2817H29.6826L25.4584 68.5435V74.2043C25.4584 75.2817 25.4755 75.4869 25.5781 75.9316V76H24.6546V75.9316C24.723 75.4869 24.7401 75.2817 24.7401 74.2043V65.5848C24.7401 64.6784 24.723 64.4732 24.6546 64.0285ZM40.7279 64.0285H48.2186V64.9178H48.1502C47.7055 64.7468 47.449 64.7468 46.5939 64.7468H43.3787V67.6713H46.8846V68.3896H43.3787V75.2817H47.2267C48.1331 75.2817 48.3383 75.2646 48.783 75.162H48.8514V76H40.7279V75.9316C40.7963 75.4869 40.8134 75.2817 40.8134 74.2043V65.8242C40.8134 64.7468 40.7963 64.5416 40.7279 64.0969V64.0285ZM51.4154 64.0285H54.1859V64.0969C54.0833 64.5416 54.0662 64.7468 54.0662 65.8242V68.1843C54.0662 69.5867 54.8187 70.5786 56.1697 70.5786C56.9393 70.5786 57.6918 70.3563 58.3417 69.8261V65.8242C58.3417 64.7468 58.3246 64.5416 58.222 64.0969V64.0285H60.9925V64.0969C60.9241 64.5416 60.907 64.7468 60.907 65.8242V74.2043C60.907 75.2817 60.9241 75.4869 60.9925 75.9316V76H58.222V75.9316C58.3246 75.4869 58.3417 75.2817 58.3417 74.2043V70.6299C57.4524 71.3653 56.4605 71.639 55.4344 71.639C52.7835 71.639 51.5009 70.1511 51.5009 68.3212V65.8242C51.5009 64.7468 51.4838 64.5416 51.4154 64.0969V64.0285ZM64.3341 64.0285H72.2011V64.8665H72.1327C71.688 64.7639 71.4828 64.7468 70.5764 64.7468H69.5503V74.2043C69.5503 75.2475 69.5674 75.4356 69.6529 75.8461L69.67 75.9316V76H66.8652V75.9316L66.8823 75.8461C66.9679 75.4356 66.985 75.2475 66.985 74.2043V64.7468H65.9588C65.0524 64.7468 64.8472 64.7639 64.4025 64.8665H64.3341V64.0285ZM85.421 64.0285H88.1574V64.0969C88.089 64.5416 88.0719 64.7468 88.0719 65.6532V74.3753C88.0719 75.2817 88.089 75.4869 88.1574 75.9316V76H85.421V75.9316C85.4894 75.4869 85.5065 75.2817 85.5065 74.3753V65.6532C85.5065 64.7468 85.4894 64.5416 85.421 64.0969V64.0285ZM74.8519 76V75.9316C74.9203 75.4869 74.9374 75.2817 74.9374 74.3753V65.6532C74.9374 64.7468 74.9203 64.5416 74.8519 64.0969V64.0285H77.6225V64.0969C77.5199 64.5416 77.5028 64.7468 77.5028 65.6532V75.2817H78.6315C80.5982 75.2817 81.5731 73.6741 81.5731 72.0665C81.5731 70.4076 80.5298 68.7316 78.4263 68.7316H78.1868V68.2185C78.5973 68.1672 78.9906 68.133 79.4011 68.133C81.8467 68.133 84.1042 69.1763 84.1042 71.7758C84.1042 74.4266 82.24 76 79.0761 76H74.8519Z"/>
</mask>
<path d="M24.6546 64.0285H25.6807L30.8113 72.2546L36.113 64.0285H37.1391C37.0707 64.4732 37.0536 64.6784 37.0536 65.5848V74.2043C37.0536 75.2817 37.0707 75.4869 37.1391 75.9316V76H34.3686V75.9316C34.4712 75.4869 34.4883 75.2817 34.4883 74.2043V67.8765L29.6997 75.2817H29.6826L25.4584 68.5435V74.2043C25.4584 75.2817 25.4755 75.4869 25.5781 75.9316V76H24.6546V75.9316C24.723 75.4869 24.7401 75.2817 24.7401 74.2043V65.5848C24.7401 64.6784 24.723 64.4732 24.6546 64.0285ZM40.7279 64.0285H48.2186V64.9178H48.1502C47.7055 64.7468 47.449 64.7468 46.5939 64.7468H43.3787V67.6713H46.8846V68.3896H43.3787V75.2817H47.2267C48.1331 75.2817 48.3383 75.2646 48.783 75.162H48.8514V76H40.7279V75.9316C40.7963 75.4869 40.8134 75.2817 40.8134 74.2043V65.8242C40.8134 64.7468 40.7963 64.5416 40.7279 64.0969V64.0285ZM51.4154 64.0285H54.1859V64.0969C54.0833 64.5416 54.0662 64.7468 54.0662 65.8242V68.1843C54.0662 69.5867 54.8187 70.5786 56.1697 70.5786C56.9393 70.5786 57.6918 70.3563 58.3417 69.8261V65.8242C58.3417 64.7468 58.3246 64.5416 58.222 64.0969V64.0285H60.9925V64.0969C60.9241 64.5416 60.907 64.7468 60.907 65.8242V74.2043C60.907 75.2817 60.9241 75.4869 60.9925 75.9316V76H58.222V75.9316C58.3246 75.4869 58.3417 75.2817 58.3417 74.2043V70.6299C57.4524 71.3653 56.4605 71.639 55.4344 71.639C52.7835 71.639 51.5009 70.1511 51.5009 68.3212V65.8242C51.5009 64.7468 51.4838 64.5416 51.4154 64.0969V64.0285ZM64.3341 64.0285H72.2011V64.8665H72.1327C71.688 64.7639 71.4828 64.7468 70.5764 64.7468H69.5503V74.2043C69.5503 75.2475 69.5674 75.4356 69.6529 75.8461L69.67 75.9316V76H66.8652V75.9316L66.8823 75.8461C66.9679 75.4356 66.985 75.2475 66.985 74.2043V64.7468H65.9588C65.0524 64.7468 64.8472 64.7639 64.4025 64.8665H64.3341V64.0285ZM85.421 64.0285H88.1574V64.0969C88.089 64.5416 88.0719 64.7468 88.0719 65.6532V74.3753C88.0719 75.2817 88.089 75.4869 88.1574 75.9316V76H85.421V75.9316C85.4894 75.4869 85.5065 75.2817 85.5065 74.3753V65.6532C85.5065 64.7468 85.4894 64.5416 85.421 64.0969V64.0285ZM74.8519 76V75.9316C74.9203 75.4869 74.9374 75.2817 74.9374 74.3753V65.6532C74.9374 64.7468 74.9203 64.5416 74.8519 64.0969V64.0285H77.6225V64.0969C77.5199 64.5416 77.5028 64.7468 77.5028 65.6532V75.2817H78.6315C80.5982 75.2817 81.5731 73.6741 81.5731 72.0665C81.5731 70.4076 80.5298 68.7316 78.4263 68.7316H78.1868V68.2185C78.5973 68.1672 78.9906 68.133 79.4011 68.133C81.8467 68.133 84.1042 69.1763 84.1042 71.7758C84.1042 74.4266 82.24 76 79.0761 76H74.8519Z" fill="white"/>
<path d="M24.6546 64.0285V63.7251H24.3009L24.3547 64.0747L24.6546 64.0285ZM25.6807 64.0285L25.9382 63.868L25.8491 63.7251H25.6807V64.0285ZM30.8113 72.2546L30.5539 72.4152L30.8071 72.8213L31.0664 72.419L30.8113 72.2546ZM36.113 64.0285V63.7251H35.9476L35.8579 63.8642L36.113 64.0285ZM37.1391 64.0285L37.439 64.0747L37.4928 63.7251H37.1391V64.0285ZM37.1391 75.9316H37.4425V75.9084L37.439 75.8855L37.1391 75.9316ZM37.1391 76V76.3034H37.4425V76H37.1391ZM34.3686 76H34.0651V76.3034H34.3686V76ZM34.3686 75.9316L34.0729 75.8634L34.0651 75.897V75.9316H34.3686ZM34.4883 67.8765H34.7917V66.8485L34.2335 67.7117L34.4883 67.8765ZM29.6997 75.2817V75.5851H29.8648L29.9545 75.4465L29.6997 75.2817ZM29.6826 75.2817L29.4255 75.4429L29.5147 75.5851H29.6826V75.2817ZM25.4584 68.5435L25.7155 68.3823L25.155 67.4882V68.5435H25.4584ZM25.5781 75.9316H25.8815V75.897L25.8737 75.8634L25.5781 75.9316ZM25.5781 76V76.3034H25.8815V76H25.5781ZM24.6546 76H24.3512V76.3034H24.6546V76ZM24.6546 75.9316L24.3547 75.8855L24.3512 75.9084V75.9316H24.6546ZM24.6546 64.3319H25.6807V63.7251H24.6546V64.3319ZM25.4232 64.1891L30.5539 72.4152L31.0688 72.0941L25.9382 63.868L25.4232 64.1891ZM31.0664 72.419L36.368 64.1929L35.8579 63.8642L30.5563 72.0903L31.0664 72.419ZM36.113 64.3319H37.1391V63.7251H36.113V64.3319ZM36.8392 63.9824C36.7675 64.4487 36.7502 64.6712 36.7502 65.5848H37.357C37.357 64.6856 37.3739 64.4976 37.439 64.0747L36.8392 63.9824ZM36.7502 65.5848V74.2043H37.357V65.5848H36.7502ZM36.7502 74.2043C36.7502 75.2863 36.7672 75.5099 36.8392 75.9777L37.439 75.8855C37.3742 75.464 37.357 75.2771 37.357 74.2043H36.7502ZM36.8357 75.9316V76H37.4425V75.9316H36.8357ZM37.1391 75.6966H34.3686V76.3034H37.1391V75.6966ZM34.672 76V75.9316H34.0651V76H34.672ZM34.6642 75.9998C34.7752 75.519 34.7917 75.284 34.7917 74.2043H34.1849C34.1849 75.2794 34.1672 75.4549 34.0729 75.8634L34.6642 75.9998ZM34.7917 74.2043V67.8765H34.1849V74.2043H34.7917ZM34.2335 67.7117L29.4449 75.117L29.9545 75.4465L34.7431 68.0413L34.2335 67.7117ZM29.6997 74.9783H29.6826V75.5851H29.6997V74.9783ZM29.9397 75.1205L25.7155 68.3823L25.2013 68.7046L29.4255 75.4429L29.9397 75.1205ZM25.155 68.5435V74.2043H25.7618V68.5435H25.155ZM25.155 74.2043C25.155 75.284 25.1715 75.519 25.2824 75.9998L25.8737 75.8634C25.7795 75.4549 25.7618 75.2794 25.7618 74.2043H25.155ZM25.2747 75.9316V76H25.8815V75.9316H25.2747ZM25.5781 75.6966H24.6546V76.3034H25.5781V75.6966ZM24.958 76V75.9316H24.3512V76H24.958ZM24.9545 75.9777C25.0264 75.5099 25.0435 75.2863 25.0435 74.2043H24.4367C24.4367 75.2771 24.4195 75.464 24.3547 75.8855L24.9545 75.9777ZM25.0435 74.2043V65.5848H24.4367V74.2043H25.0435ZM25.0435 65.5848C25.0435 64.6712 25.0262 64.4487 24.9545 63.9824L24.3547 64.0747C24.4198 64.4976 24.4367 64.6856 24.4367 65.5848H25.0435ZM40.7279 64.0285V63.7251H40.4245V64.0285H40.7279ZM48.2186 64.0285H48.522V63.7251H48.2186V64.0285ZM48.2186 64.9178V65.2213H48.522V64.9178H48.2186ZM48.1502 64.9178L48.0413 65.201L48.0939 65.2213H48.1502V64.9178ZM43.3787 64.7468V64.4434H43.0753V64.7468H43.3787ZM43.3787 67.6713H43.0753V67.9747H43.3787V67.6713ZM46.8846 67.6713H47.1881V67.3679H46.8846V67.6713ZM46.8846 68.3896V68.693H47.1881V68.3896H46.8846ZM43.3787 68.3896V68.0861H43.0753V68.3896H43.3787ZM43.3787 75.2817H43.0753V75.5851H43.3787V75.2817ZM48.783 75.162V74.8586H48.7484L48.7147 74.8663L48.783 75.162ZM48.8514 75.162H49.1548V74.8586H48.8514V75.162ZM48.8514 76V76.3034H49.1548V76H48.8514ZM40.7279 76H40.4245V76.3034H40.7279V76ZM40.7279 75.9316L40.428 75.8855L40.4245 75.9084V75.9316H40.7279ZM40.7279 64.0969H40.4245V64.1201L40.428 64.1431L40.7279 64.0969ZM40.7279 64.3319H48.2186V63.7251H40.7279V64.3319ZM47.9152 64.0285V64.9178H48.522V64.0285H47.9152ZM48.2186 64.6144H48.1502V65.2213H48.2186V64.6144ZM48.2591 64.6346C47.7536 64.4402 47.4406 64.4434 46.5939 64.4434V65.0502C47.4574 65.0502 47.6574 65.0534 48.0413 65.201L48.2591 64.6346ZM46.5939 64.4434H43.3787V65.0502H46.5939V64.4434ZM43.0753 64.7468V67.6713H43.6821V64.7468H43.0753ZM43.3787 67.9747H46.8846V67.3679H43.3787V67.9747ZM46.5812 67.6713V68.3896H47.1881V67.6713H46.5812ZM46.8846 68.0861H43.3787V68.693H46.8846V68.0861ZM43.0753 68.3896V75.2817H43.6821V68.3896H43.0753ZM43.3787 75.5851H47.2267V74.9783H43.3787V75.5851ZM47.2267 75.5851C48.1391 75.5851 48.3722 75.5682 48.8512 75.4576L48.7147 74.8663C48.3045 74.961 48.127 74.9783 47.2267 74.9783V75.5851ZM48.783 75.4654H48.8514V74.8586H48.783V75.4654ZM48.548 75.162V76H49.1548V75.162H48.548ZM48.8514 75.6966H40.7279V76.3034H48.8514V75.6966ZM41.0313 76V75.9316H40.4245V76H41.0313ZM41.0278 75.9777C41.0997 75.5099 41.1168 75.2863 41.1168 74.2043H40.51C40.51 75.2771 40.4928 75.464 40.428 75.8855L41.0278 75.9777ZM41.1168 74.2043V65.8242H40.51V74.2043H41.1168ZM41.1168 65.8242C41.1168 64.7422 41.0997 64.5186 41.0278 64.0508L40.428 64.1431C40.4928 64.5645 40.51 64.7514 40.51 65.8242H41.1168ZM41.0313 64.0969V64.0285H40.4245V64.0969H41.0313ZM51.4154 64.0285V63.7251H51.1119V64.0285H51.4154ZM54.1859 64.0285H54.4893V63.7251H54.1859V64.0285ZM54.1859 64.0969L54.4816 64.1652L54.4893 64.1315V64.0969H54.1859ZM58.3417 69.8261L58.5335 70.0613L58.6451 69.9702V69.8261H58.3417ZM58.222 64.0969H57.9186V64.1315L57.9263 64.1652L58.222 64.0969ZM58.222 64.0285V63.7251H57.9186V64.0285H58.222ZM60.9925 64.0285H61.296V63.7251H60.9925V64.0285ZM60.9925 64.0969L61.2924 64.1431L61.296 64.1201V64.0969H60.9925ZM60.9925 75.9316H61.296V75.9084L61.2924 75.8855L60.9925 75.9316ZM60.9925 76V76.3034H61.296V76H60.9925ZM58.222 76H57.9186V76.3034H58.222V76ZM58.222 75.9316L57.9263 75.8634L57.9186 75.897V75.9316H58.222ZM58.3417 70.6299H58.6451V69.9853L58.1484 70.3961L58.3417 70.6299ZM51.4154 64.0969H51.1119V64.1201L51.1155 64.1431L51.4154 64.0969ZM51.4154 64.3319H54.1859V63.7251H51.4154V64.3319ZM53.8825 64.0285V64.0969H54.4893V64.0285H53.8825ZM53.8902 64.0287C53.7793 64.5095 53.7628 64.7445 53.7628 65.8242H54.3696C54.3696 64.7491 54.3873 64.5737 54.4816 64.1652L53.8902 64.0287ZM53.7628 65.8242V68.1843H54.3696V65.8242H53.7628ZM53.7628 68.1843C53.7628 68.9368 53.9646 69.6113 54.3794 70.103C54.7996 70.6012 55.4138 70.8821 56.1697 70.8821V70.2752C55.5747 70.2752 55.1371 70.0601 54.8433 69.7118C54.544 69.3569 54.3696 68.8342 54.3696 68.1843H53.7628ZM56.1697 70.8821C57.0002 70.8821 57.8229 70.641 58.5335 70.0613L58.1499 69.591C57.5608 70.0716 56.8785 70.2752 56.1697 70.2752V70.8821ZM58.6451 69.8261V65.8242H58.0383V69.8261H58.6451ZM58.6451 65.8242C58.6451 64.7445 58.6286 64.5095 58.5177 64.0287L57.9263 64.1652C58.0206 64.5737 58.0383 64.7491 58.0383 65.8242H58.6451ZM58.5254 64.0969V64.0285H57.9186V64.0969H58.5254ZM58.222 64.3319H60.9925V63.7251H58.222V64.3319ZM60.6891 64.0285V64.0969H61.296V64.0285H60.6891ZM60.6926 64.0508C60.6207 64.5186 60.6036 64.7422 60.6036 65.8242H61.2104C61.2104 64.7514 61.2276 64.5645 61.2924 64.1431L60.6926 64.0508ZM60.6036 65.8242V74.2043H61.2104V65.8242H60.6036ZM60.6036 74.2043C60.6036 75.2863 60.6207 75.5099 60.6926 75.9777L61.2924 75.8855C61.2276 75.464 61.2104 75.2771 61.2104 74.2043H60.6036ZM60.6891 75.9316V76H61.296V75.9316H60.6891ZM60.9925 75.6966H58.222V76.3034H60.9925V75.6966ZM58.5254 76V75.9316H57.9186V76H58.5254ZM58.5177 75.9998C58.6286 75.519 58.6451 75.284 58.6451 74.2043H58.0383C58.0383 75.2794 58.0206 75.4549 57.9263 75.8634L58.5177 75.9998ZM58.6451 74.2043V70.6299H58.0383V74.2043H58.6451ZM58.1484 70.3961C57.3223 71.0792 56.4022 71.3355 55.4344 71.3355V71.9424C56.5187 71.9424 57.5826 71.6514 58.5351 70.8638L58.1484 70.3961ZM55.4344 71.3355C54.1651 71.3355 53.262 70.9801 52.6791 70.4431C52.0978 69.9075 51.8043 69.1633 51.8043 68.3212H51.1974C51.1974 69.3089 51.5453 70.2236 52.268 70.8894C52.9892 71.5539 54.0528 71.9424 55.4344 71.9424V71.3355ZM51.8043 68.3212V65.8242H51.1974V68.3212H51.8043ZM51.8043 65.8242C51.8043 64.7422 51.7872 64.5186 51.7153 64.0508L51.1155 64.1431C51.1803 64.5645 51.1974 64.7514 51.1974 65.8242H51.8043ZM51.7188 64.0969V64.0285H51.1119V64.0969H51.7188ZM64.3341 64.0285V63.7251H64.0307V64.0285H64.3341ZM72.2011 64.0285H72.5045V63.7251H72.2011V64.0285ZM72.2011 64.8665V65.17H72.5045V64.8665H72.2011ZM72.1327 64.8665L72.0645 65.1622L72.0981 65.17H72.1327V64.8665ZM69.5503 64.7468V64.4434H69.2468V64.7468H69.5503ZM69.6529 75.8461L69.9504 75.7866L69.9499 75.7842L69.6529 75.8461ZM69.67 75.9316H69.9734V75.9015L69.9675 75.8721L69.67 75.9316ZM69.67 76V76.3034H69.9734V76H69.67ZM66.8652 76H66.5618V76.3034H66.8652V76ZM66.8652 75.9316L66.5677 75.8721L66.5618 75.9015V75.9316H66.8652ZM66.8823 75.8461L66.5853 75.7842L66.5848 75.7866L66.8823 75.8461ZM66.985 64.7468H67.2884V64.4434H66.985V64.7468ZM64.4025 64.8665V65.17H64.4371L64.4708 65.1622L64.4025 64.8665ZM64.3341 64.8665H64.0307V65.17H64.3341V64.8665ZM64.3341 64.3319H72.2011V63.7251H64.3341V64.3319ZM71.8977 64.0285V64.8665H72.5045V64.0285H71.8977ZM72.2011 64.5631H72.1327V65.17H72.2011V64.5631ZM72.2009 64.5709C71.7219 64.4603 71.4889 64.4434 70.5764 64.4434V65.0502C71.4768 65.0502 71.6542 65.0675 72.0645 65.1622L72.2009 64.5709ZM70.5764 64.4434H69.5503V65.0502H70.5764V64.4434ZM69.2468 64.7468V74.2043H69.8537V64.7468H69.2468ZM69.2468 74.2043C69.2468 75.2503 69.2635 75.465 69.3558 75.908L69.9499 75.7842C69.8712 75.4063 69.8537 75.2447 69.8537 74.2043H69.2468ZM69.3554 75.9056L69.3725 75.9911L69.9675 75.8721L69.9504 75.7866L69.3554 75.9056ZM69.3666 75.9316V76H69.9734V75.9316H69.3666ZM69.67 75.6966H66.8652V76.3034H69.67V75.6966ZM67.1687 76V75.9316H66.5618V76H67.1687ZM67.1628 75.9911L67.1799 75.9056L66.5848 75.7866L66.5677 75.8721L67.1628 75.9911ZM67.1794 75.908C67.2717 75.465 67.2884 75.2503 67.2884 74.2043H66.6815C66.6815 75.2447 66.664 75.4063 66.5853 75.7842L67.1794 75.908ZM67.2884 74.2043V64.7468H66.6815V74.2043H67.2884ZM66.985 64.4434H65.9588V65.0502H66.985V64.4434ZM65.9588 64.4434C65.0464 64.4434 64.8133 64.4603 64.3343 64.5709L64.4708 65.1622C64.8811 65.0675 65.0585 65.0502 65.9588 65.0502V64.4434ZM64.4025 64.5631H64.3341V65.17H64.4025V64.5631ZM64.6376 64.8665V64.0285H64.0307V64.8665H64.6376ZM85.421 64.0285V63.7251H85.1176V64.0285H85.421ZM88.1574 64.0285H88.4608V63.7251H88.1574V64.0285ZM88.1574 64.0969L88.4573 64.1431L88.4608 64.1201V64.0969H88.1574ZM88.1574 75.9316H88.4608V75.9084L88.4573 75.8855L88.1574 75.9316ZM88.1574 76V76.3034H88.4608V76H88.1574ZM85.421 76H85.1176V76.3034H85.421V76ZM85.421 75.9316L85.1211 75.8855L85.1176 75.9084V75.9316H85.421ZM85.421 64.0969H85.1176V64.1201L85.1211 64.1431L85.421 64.0969ZM74.8519 76H74.5485V76.3034H74.8519V76ZM74.8519 75.9316L74.552 75.8855L74.5485 75.9084V75.9316H74.8519ZM74.8519 64.0969H74.5485V64.1201L74.552 64.1431L74.8519 64.0969ZM74.8519 64.0285V63.7251H74.5485V64.0285H74.8519ZM77.6225 64.0285H77.9259V63.7251H77.6225V64.0285ZM77.6225 64.0969L77.9181 64.1652L77.9259 64.1315V64.0969H77.6225ZM77.5028 75.2817H77.1993V75.5851H77.5028V75.2817ZM78.1868 68.7316H77.8834V69.035H78.1868V68.7316ZM78.1868 68.2185L78.1492 67.9175L77.8834 67.9507V68.2185H78.1868ZM85.421 64.3319H88.1574V63.7251H85.421V64.3319ZM87.8539 64.0285V64.0969H88.4608V64.0285H87.8539ZM87.8575 64.0508C87.7857 64.5171 87.7684 64.7396 87.7684 65.6532H88.3753C88.3753 64.754 88.3922 64.566 88.4573 64.1431L87.8575 64.0508ZM87.7684 65.6532V74.3753H88.3753V65.6532H87.7684ZM87.7684 74.3753C87.7684 75.2889 87.7857 75.5114 87.8575 75.9777L88.4573 75.8855C88.3922 75.4625 88.3753 75.2745 88.3753 74.3753H87.7684ZM87.8539 75.9316V76H88.4608V75.9316H87.8539ZM88.1574 75.6966H85.421V76.3034H88.1574V75.6966ZM85.7244 76V75.9316H85.1176V76H85.7244ZM85.7209 75.9777C85.7927 75.5114 85.81 75.2889 85.81 74.3753H85.2031C85.2031 75.2745 85.1862 75.4625 85.1211 75.8855L85.7209 75.9777ZM85.81 74.3753V65.6532H85.2031V74.3753H85.81ZM85.81 65.6532C85.81 64.7396 85.7927 64.5171 85.7209 64.0508L85.1211 64.1431C85.1862 64.566 85.2031 64.754 85.2031 65.6532H85.81ZM85.7244 64.0969V64.0285H85.1176V64.0969H85.7244ZM75.1553 76V75.9316H74.5485V76H75.1553ZM75.1518 75.9777C75.2236 75.5114 75.2409 75.2889 75.2409 74.3753H74.634C74.634 75.2745 74.6171 75.4625 74.552 75.8855L75.1518 75.9777ZM75.2409 74.3753V65.6532H74.634V74.3753H75.2409ZM75.2409 65.6532C75.2409 64.7396 75.2236 64.5171 75.1518 64.0508L74.552 64.1431C74.6171 64.566 74.634 64.754 74.634 65.6532H75.2409ZM75.1553 64.0969V64.0285H74.5485V64.0969H75.1553ZM74.8519 64.3319H77.6225V63.7251H74.8519V64.3319ZM77.319 64.0285V64.0969H77.9259V64.0285H77.319ZM77.3268 64.0287C77.2163 64.5077 77.1993 64.7408 77.1993 65.6532H77.8062C77.8062 64.7529 77.8234 64.5755 77.9181 64.1652L77.3268 64.0287ZM77.1993 65.6532V75.2817H77.8062V65.6532H77.1993ZM77.5028 75.5851H78.6315V74.9783H77.5028V75.5851ZM78.6315 75.5851C79.7069 75.5851 80.5286 75.1415 81.0753 74.4682C81.616 73.8025 81.8765 72.9277 81.8765 72.0665H81.2696C81.2696 72.813 81.0427 73.5458 80.6043 74.0857C80.1719 74.6181 79.5228 74.9783 78.6315 74.9783V75.5851ZM81.8765 72.0665C81.8765 71.1771 81.5974 70.2713 81.0213 69.5823C80.4393 68.8864 79.5671 68.4282 78.4263 68.4282V69.035C79.389 69.035 80.0902 69.4148 80.5557 69.9716C81.0271 70.5353 81.2696 71.297 81.2696 72.0665H81.8765ZM78.4263 68.4282H78.1868V69.035H78.4263V68.4282ZM78.4903 68.7316V68.2185H77.8834V68.7316H78.4903ZM78.2245 68.5196C78.6278 68.4692 79.0077 68.4365 79.4011 68.4365V67.8296C78.9736 67.8296 78.5668 67.8653 78.1492 67.9175L78.2245 68.5196ZM79.4011 68.4365C80.5874 68.4365 81.697 68.6905 82.5003 69.2313C83.2887 69.762 83.8007 70.5794 83.8007 71.7758H84.4076C84.4076 70.3726 83.7909 69.3686 82.8392 68.7279C81.9023 68.0972 80.6604 67.8296 79.4011 67.8296V68.4365ZM83.8007 71.7758C83.8007 73.0249 83.3647 73.9907 82.5813 74.6498C81.7909 75.3147 80.6115 75.6966 79.0761 75.6966V76.3034C80.7047 76.3034 82.0393 75.8986 82.9719 75.1141C83.9115 74.3238 84.4076 73.1775 84.4076 71.7758H83.8007ZM79.0761 75.6966H74.8519V76.3034H79.0761V75.6966Z" fill="white" mask="url(#path-13-outside-2_222_2973)"/>
</svg>
