<svg width="33" height="33" viewBox="0 0 33 33" fill="none" xmlns="http://www.w3.org/2000/svg">
<path fill-rule="evenodd" clip-rule="evenodd" d="M16.5 33C25.6128 33 33 25.6127 33 16.5C33 7.38721 25.6128 0 16.5 0C7.38721 0 0 7.38721 0 16.5C0 25.6127 7.38721 33 16.5 33ZM18.7163 11.5662C18.7163 10.345 17.7231 9.35181 16.502 9.35181C15.281 9.35181 14.2876 10.345 14.2876 11.5662C14.2876 12.783 15.281 13.7761 16.502 13.7761C17.7231 13.7761 18.7163 12.783 18.7163 11.5662ZM22.0015 11.5662C22.0015 14.6017 19.5376 17.0654 16.502 17.0654C13.4666 17.0654 10.9985 14.5974 10.9985 11.5662C10.9985 8.53052 13.4666 6.0625 16.502 6.0625C19.5376 6.0625 22.0015 8.53052 22.0015 11.5662ZM21.7693 19.985C20.8018 20.5956 19.7527 21.0255 18.6648 21.2706L21.6575 24.2632C22.2681 24.8738 22.2681 25.8669 21.6575 26.4775C21.0425 27.0881 20.0537 27.0881 19.4431 26.4775L16.502 23.5408L13.5654 26.4775C13.26 26.7828 12.856 26.9376 12.4561 26.9376C12.0562 26.9376 11.6562 26.7828 11.3511 26.4775C10.7361 25.8669 10.7361 24.8738 11.3467 24.2632L14.3394 21.2706C13.2515 21.0255 12.198 20.5956 11.2349 19.985C10.4998 19.5249 10.2803 18.5575 10.7405 17.8265C11.2004 17.0956 12.168 16.8719 12.9031 17.3363C15.0918 18.7123 17.908 18.7123 20.1008 17.3363C20.8318 16.8719 21.7993 17.0956 22.2593 17.8265C22.7195 18.5575 22.5002 19.5249 21.7693 19.985Z" fill="white"/>
</svg>
