<svg width="1812" height="30" viewBox="0 0 1812 30" fill="none" xmlns="http://www.w3.org/2000/svg">
<line x1="1.23535" y1="28.5525" x2="1791.73" y2="28.5525" stroke="#F6F1FF" stroke-width="0.960505"/>
<path opacity="0.65" d="M342.209 12.0078H340.945L345.185 1.63181H339.849V0.487812H346.441V1.63181L342.209 12.0078ZM354.568 7.17581L350.472 10.8718H356.2V11.9998H348.68L348.688 10.9278L353.896 6.22381C354.784 5.42381 355.008 4.71981 355.008 3.91981C355.008 2.49581 353.912 1.37581 352.496 1.37581C351.024 1.37581 349.936 2.55981 349.952 3.91181H348.752C348.752 1.80781 350.376 0.247812 352.512 0.247812C354.608 0.247812 356.2 1.87181 356.2 3.92781C356.2 5.37581 355.688 6.17581 354.568 7.17581ZM361.005 6.00781C359.421 6.00781 358.125 4.72781 358.125 3.12781C358.125 1.55981 359.469 0.247812 361.005 0.247812C362.589 0.247812 363.885 1.52781 363.885 3.12781C363.885 4.72781 362.589 6.00781 361.005 6.00781ZM361.005 4.94381C361.989 4.94381 362.821 4.11181 362.821 3.12781C362.821 2.14381 361.989 1.31181 361.005 1.31181C360.021 1.31181 359.189 2.14381 359.189 3.12781C359.189 4.11181 360.021 4.94381 361.005 4.94381Z" fill="#F6F1FF"/>
<line x1="351.78" y1="29.0327" x2="351.78" y2="18.8331" stroke="#F6F1FF" stroke-width="0.960505"/>
<path opacity="0.65" d="M1057.11 7.17581L1053.01 10.8718H1058.74V11.9998H1051.22L1051.23 10.9278L1056.43 6.22381C1057.32 5.42381 1057.55 4.71981 1057.55 3.91981C1057.55 2.49581 1056.45 1.37581 1055.03 1.37581C1053.56 1.37581 1052.47 2.55981 1052.49 3.91181H1051.29C1051.29 1.80781 1052.91 0.247812 1055.05 0.247812C1057.15 0.247812 1058.74 1.87181 1058.74 3.92781C1058.74 5.37581 1058.23 6.17581 1057.11 7.17581ZM1064.5 12.0078H1063.31V1.79981L1061.14 3.10381V1.78381L1063.31 0.487812H1064.5V12.0078ZM1072.19 4.58381C1074.32 4.58381 1075.98 6.26381 1075.98 8.39981C1075.98 10.5278 1074.21 12.2478 1072.07 12.2478C1069.91 12.2478 1068.18 10.5198 1068.18 8.27181V4.27981C1068.18 1.96781 1069.88 0.255812 1072.16 0.255812C1073.47 0.255812 1074.65 0.863812 1075.37 1.89581L1074.47 2.63981C1073.98 1.87981 1073.11 1.37581 1072.16 1.37581C1070.54 1.37581 1069.37 2.68781 1069.37 4.17581V5.94381C1070.05 5.11981 1071.07 4.58381 1072.19 4.58381ZM1072.07 11.1038C1073.58 11.1038 1074.79 9.90381 1074.79 8.39981C1074.79 6.89581 1073.59 5.67981 1072.08 5.67981C1070.58 5.67981 1069.37 6.89581 1069.37 8.39981C1069.37 9.88781 1070.57 11.1038 1072.07 11.1038ZM1080.98 6.00781C1079.4 6.00781 1078.1 4.72781 1078.1 3.12781C1078.1 1.55981 1079.44 0.247812 1080.98 0.247812C1082.56 0.247812 1083.86 1.52781 1083.86 3.12781C1083.86 4.72781 1082.56 6.00781 1080.98 6.00781ZM1080.98 4.94381C1081.96 4.94381 1082.8 4.11181 1082.8 3.12781C1082.8 2.14381 1081.96 1.31181 1080.98 1.31181C1080 1.31181 1079.16 2.14381 1079.16 3.12781C1079.16 4.11181 1080 4.94381 1080.98 4.94381Z" fill="#F6F1FF"/>
<line x1="1067.49" y1="29.0327" x2="1067.49" y2="18.8331" stroke="#F6F1FF" stroke-width="0.960505"/>
<path opacity="0.65" d="M1417.21 7.17581L1413.12 10.8718H1418.85V11.9998H1411.33L1411.33 10.9278L1416.54 6.22381C1417.43 5.42381 1417.65 4.71981 1417.65 3.91981C1417.65 2.49581 1416.56 1.37581 1415.14 1.37581C1413.67 1.37581 1412.58 2.55981 1412.6 3.91181H1411.4C1411.4 1.80781 1413.02 0.247812 1415.16 0.247812C1417.25 0.247812 1418.85 1.87181 1418.85 3.92781C1418.85 5.37581 1418.33 6.17581 1417.21 7.17581ZM1426.99 5.84781C1428.07 6.47181 1428.62 7.52781 1428.62 8.77581C1428.62 10.8798 1427.09 12.2478 1424.92 12.2478C1422.76 12.2478 1421.25 10.8798 1421.25 8.77581C1421.25 7.51981 1421.77 6.46381 1422.87 5.83981C1421.98 5.31181 1421.52 4.37581 1421.52 3.34381C1421.52 1.42381 1422.94 0.247812 1424.92 0.247812C1426.91 0.247812 1428.33 1.42381 1428.33 3.34381C1428.33 4.38381 1427.89 5.31981 1426.99 5.84781ZM1424.92 1.40781C1423.64 1.40781 1422.77 2.05581 1422.77 3.34381C1422.77 4.63981 1423.64 5.29581 1424.92 5.29581C1426.2 5.29581 1427.08 4.63981 1427.08 3.34381C1427.08 2.05581 1426.2 1.40781 1424.92 1.40781ZM1424.92 11.1198C1426.38 11.1198 1427.37 10.2878 1427.37 8.77581C1427.37 7.24781 1426.39 6.43181 1424.92 6.43181C1423.45 6.43181 1422.49 7.24781 1422.49 8.77581C1422.49 10.2878 1423.47 11.1198 1424.92 11.1198ZM1436.92 5.84781C1437.99 6.47181 1438.54 7.52781 1438.54 8.77581C1438.54 10.8798 1437.01 12.2478 1434.84 12.2478C1432.68 12.2478 1431.17 10.8798 1431.17 8.77581C1431.17 7.51981 1431.69 6.46381 1432.79 5.83981C1431.9 5.31181 1431.44 4.37581 1431.44 3.34381C1431.44 1.42381 1432.86 0.247812 1434.84 0.247812C1436.83 0.247812 1438.25 1.42381 1438.25 3.34381C1438.25 4.38381 1437.81 5.31981 1436.92 5.84781ZM1434.84 1.40781C1433.56 1.40781 1432.69 2.05581 1432.69 3.34381C1432.69 4.63981 1433.56 5.29581 1434.84 5.29581C1436.12 5.29581 1437 4.63981 1437 3.34381C1437 2.05581 1436.12 1.40781 1434.84 1.40781ZM1434.84 11.1198C1436.3 11.1198 1437.29 10.2878 1437.29 8.77581C1437.29 7.24781 1436.32 6.43181 1434.84 6.43181C1433.37 6.43181 1432.41 7.24781 1432.41 8.77581C1432.41 10.2878 1433.4 11.1198 1434.84 11.1198ZM1443.49 6.00781C1441.91 6.00781 1440.61 4.72781 1440.61 3.12781C1440.61 1.55981 1441.96 0.247812 1443.49 0.247812C1445.08 0.247812 1446.37 1.52781 1446.37 3.12781C1446.37 4.72781 1445.08 6.00781 1443.49 6.00781ZM1443.49 4.94381C1444.48 4.94381 1445.31 4.11181 1445.31 3.12781C1445.31 2.14381 1444.48 1.31181 1443.49 1.31181C1442.51 1.31181 1441.68 2.14381 1441.68 3.12781C1441.68 4.11181 1442.51 4.94381 1443.49 4.94381Z" fill="#F6F1FF"/>
<line x1="1428.88" y1="29.0327" x2="1428.88" y2="18.8331" stroke="#F6F1FF" stroke-width="0.960505"/>
<path opacity="0.65" d="M694.631 12.0078H693.439V1.79981L691.271 3.10381V1.78381L693.439 0.487812H694.631V12.0078ZM704.561 12.0078H703.377V9.77581H697.985V8.65581L701.841 0.487812H703.161L699.305 8.65581H703.377V5.29581H704.561V8.65581H705.817V9.77581H704.561V12.0078ZM714.795 12.0078H713.611V9.77581H708.219V8.65581L712.075 0.487812H713.395L709.539 8.65581H713.611V5.29581H714.795V8.65581H716.051V9.77581H714.795V12.0078ZM720.857 6.00781C719.273 6.00781 717.977 4.72781 717.977 3.12781C717.977 1.55981 719.321 0.247812 720.857 0.247812C722.441 0.247812 723.737 1.52781 723.737 3.12781C723.737 4.72781 722.441 6.00781 720.857 6.00781ZM720.857 4.94381C721.841 4.94381 722.673 4.11181 722.673 3.12781C722.673 2.14381 721.841 1.31181 720.857 1.31181C719.873 1.31181 719.041 2.14381 719.041 3.12781C719.041 4.11181 719.873 4.94381 720.857 4.94381Z" fill="#F6F1FF"/>
<line x1="707.384" y1="29.0327" x2="707.385" y2="18.8331" stroke="#F6F1FF" stroke-width="0.960505"/>
<line x1="1.3469" y1="29.0327" x2="1.3469" y2="18.8331" stroke="#F6F1FF" stroke-width="0.960505"/>
<path opacity="0.65" d="M1780.95 1.63181L1777.57 4.85581C1779.67 4.83981 1781.08 6.34381 1781.08 8.49581C1781.08 10.7118 1779.53 12.2398 1777.41 12.2398C1775.7 12.2398 1774.32 11.2798 1773.84 9.71981L1774.96 9.38381C1775.34 10.5278 1776.29 11.1278 1777.4 11.1038C1778.93 11.0718 1779.87 10.0398 1779.87 8.49581C1779.87 6.92781 1778.87 5.88781 1777.38 5.88781C1776.96 5.88781 1776.48 6.01581 1776.08 6.20781L1775.49 5.27181L1779.45 1.61581H1774.29V0.487812H1780.95V1.63181ZM1787.81 4.58381C1789.94 4.58381 1791.6 6.26381 1791.6 8.39981C1791.6 10.5278 1789.83 12.2478 1787.7 12.2478C1785.53 12.2478 1783.8 10.5198 1783.8 8.27181V4.27981C1783.8 1.96781 1785.5 0.255812 1787.78 0.255812C1789.1 0.255812 1790.27 0.863812 1790.99 1.89581L1790.09 2.63981C1789.6 1.87981 1788.74 1.37581 1787.78 1.37581C1786.16 1.37581 1784.99 2.68781 1784.99 4.17581V5.94381C1785.67 5.11981 1786.69 4.58381 1787.81 4.58381ZM1787.7 11.1038C1789.2 11.1038 1790.42 9.90381 1790.42 8.39981C1790.42 6.89581 1789.21 5.67981 1787.7 5.67981C1786.2 5.67981 1784.99 6.89581 1784.99 8.39981C1784.99 9.88781 1786.19 11.1038 1787.7 11.1038ZM1798.12 12.2478C1795.99 12.2478 1794.36 10.6238 1794.36 8.48781V4.00781C1794.36 1.87181 1795.99 0.247812 1798.12 0.247812C1800.26 0.247812 1801.88 1.87181 1801.88 4.00781V8.48781C1801.88 10.6238 1800.26 12.2478 1798.12 12.2478ZM1798.12 11.1118C1799.54 11.1118 1800.69 9.95981 1800.69 8.54381V3.95181C1800.69 2.52781 1799.54 1.37581 1798.12 1.37581C1796.71 1.37581 1795.55 2.52781 1795.55 3.95181V8.54381C1795.55 9.95981 1796.71 11.1118 1798.12 11.1118ZM1807.01 6.00781C1805.42 6.00781 1804.13 4.72781 1804.13 3.12781C1804.13 1.55981 1805.47 0.247812 1807.01 0.247812C1808.59 0.247812 1809.89 1.52781 1809.89 3.12781C1809.89 4.72781 1808.59 6.00781 1807.01 6.00781ZM1807.01 4.94381C1807.99 4.94381 1808.82 4.11181 1808.82 3.12781C1808.82 2.14381 1807.99 1.31181 1807.01 1.31181C1806.02 1.31181 1805.19 2.14381 1805.19 3.12781C1805.19 4.11181 1806.02 4.94381 1807.01 4.94381Z" fill="#F6F1FF"/>
<line x1="1791.87" y1="29.0327" x2="1791.87" y2="18.8331" stroke="#F6F1FF" stroke-width="0.960505"/>
</svg>
