<svg width="34" height="33" viewBox="0 0 34 33" fill="none" xmlns="http://www.w3.org/2000/svg">
<path d="M17.1123 0.00195312C26.2253 0.00195312 33.6123 7.38893 33.6123 16.502C33.6123 25.615 26.2253 33.002 17.1123 33.002C7.99928 33.002 0.612305 25.615 0.612305 16.502C0.612305 7.38893 7.99928 0.00195312 17.1123 0.00195312ZM22.8041 23.2275C23.1075 22.2963 24.5294 13.0161 24.7052 11.1875C24.7583 10.6337 24.5832 10.2657 24.2403 10.1014C23.8257 9.90195 23.2116 10.0017 22.4992 10.2585C21.5221 10.6107 9.03089 15.9144 8.3092 16.2215C7.6248 16.512 6.97772 16.8291 6.97772 17.2882C6.97772 17.611 7.16926 17.7925 7.69726 17.9812C8.24678 18.1771 9.63063 18.5967 10.4477 18.822C11.2347 19.0394 12.1307 18.8507 12.6329 18.5386C13.1652 18.2079 19.3082 14.0973 19.7494 13.7371C20.1899 13.377 20.5414 13.8383 20.1813 14.1991C19.8212 14.5593 15.6043 18.652 15.0484 19.2187C14.3733 19.9067 14.8525 20.6198 15.3052 20.9053C15.8224 21.231 19.5421 23.7261 20.1024 24.1264C20.6627 24.5267 21.2308 24.7082 21.751 24.7082C22.2711 24.7082 22.5451 24.0231 22.8041 23.2275Z" fill="white"/>
</svg>
