<svg width="34" height="34" viewBox="0 0 34 34" fill="none" xmlns="http://www.w3.org/2000/svg">
<path d="M16.8062 0.424927C7.6932 0.424927 0.306152 7.81198 0.306152 16.9249C0.306152 26.0379 7.6932 33.4249 16.8062 33.4249C25.9191 33.4249 33.3062 26.0379 33.3062 16.9249C33.3062 7.81198 25.9191 0.424927 16.8062 0.424927ZM25.9059 23.5249H23.7461C22.9277 23.5249 22.6686 22.7148 21.2414 21.0499C20.0039 19.6062 19.3637 19.3999 19.0485 19.3999C18.6063 19.3999 18.4562 19.5088 18.4562 20.1705V22.6224C18.4562 23.1718 18.3143 23.5249 16.9299 23.5249C14.6447 23.5249 12.0624 21.9772 10.1039 19.296C7.40115 15.5983 6.90615 12.3825 6.90615 11.7885C6.90615 11.4585 7.0101 11.1499 7.6404 11.1499H9.82005C10.3662 11.1499 10.5758 11.3925 10.7853 12.031C11.7539 15.2749 13.1976 17.7499 13.9319 17.7499C14.2041 17.7499 14.3312 17.6179 14.3312 16.8919V13.9021C14.247 12.361 13.5062 12.229 13.5062 11.6779C13.5062 11.4123 13.6811 11.1499 14.0177 11.1499H17.8523C18.3143 11.1499 18.4562 11.4139 18.4562 11.9865V16.2649C18.4562 16.7484 18.8258 16.9249 18.971 16.9249C19.2432 16.9249 19.499 16.9381 20.0022 16.4085C21.5532 14.5803 22.8996 11.8099 22.8996 11.8099C23.0481 11.4799 23.2989 11.1499 23.8451 11.1499H26.0049C26.4884 11.1499 26.693 11.3661 26.7062 11.6664C26.7111 11.7703 26.693 11.8858 26.655 12.0096C26.3828 13.3296 23.591 17.25 23.6124 17.25C23.4936 17.4529 23.4144 17.5981 23.4062 17.7516C23.3979 17.8968 23.4573 18.0486 23.6124 18.2631C23.8418 18.5931 24.3434 19.2003 24.8499 19.8141C25.7657 20.9212 26.4999 22.0828 26.66 22.558C26.6946 22.6867 26.7095 22.8039 26.7062 22.9078C26.6946 23.3137 26.4059 23.5249 25.9059 23.5249Z" fill="white"/>
</svg>
