<svg width="386" height="317" viewBox="0 0 386 317" fill="none" xmlns="http://www.w3.org/2000/svg">
<path opacity="0.8" d="M29.3722 192.041C27.7445 189.282 27.9201 186.843 29.9732 185.632C31.2563 184.875 32.843 185.121 34.0947 186.314C32.8915 183.737 33.3336 180.968 35.7289 179.555C38.6802 177.814 41.8948 179.06 44.0777 182.759L47.7116 188.919L47.6261 188.969C47.0196 189.212 46.7503 189.342 45.403 190.137L34.9237 196.319C33.5763 197.114 33.3323 197.287 32.8267 197.701L32.7412 197.751L29.3722 192.041ZM44.8576 186.134L43.5327 183.888C42.3088 181.814 40.0382 181.337 37.8354 182.637C35.4615 184.037 35.2053 186.437 36.5347 189.228L36.7821 189.745L36.2261 190.073L36.0319 189.842C34.7697 188.338 33.3437 187.68 31.6755 188.664C30.264 189.497 29.9802 191.019 30.9392 192.645L31.6836 193.906L44.8576 186.134ZM20.8358 177.573C18.6529 173.873 19.0526 170.494 22.0039 168.753C25.3402 166.785 28.8428 168.812 30.7229 171.999C30.95 172.384 31.147 172.815 31.3313 173.225L30.6898 173.604L30.5257 173.326C29.1756 171.038 26.6982 170.308 24.0677 171.86C21.5013 173.374 20.8003 175.46 22.1504 177.748L23.0463 179.267L34.8729 172.289C36.2203 171.494 36.4643 171.321 36.9699 170.908L37.0554 170.857L39.0743 174.279L38.9887 174.33C38.3822 174.572 38.113 174.702 36.7656 175.497L26.2863 181.68C24.939 182.475 24.6949 182.648 24.1894 183.061L24.1038 183.112L20.8358 177.573ZM13.5827 165.279C13.1285 164.509 12.3605 163.55 11.5833 163.259L22.1185 150.671C23.5276 149.004 23.6959 148.703 23.7864 148.563L23.8719 148.512L26.1179 152.319L26.0324 152.37C25.9041 152.445 25.5465 152.426 24.1373 154.093L22.9947 155.43L26.881 162.017L28.6293 161.707C30.8082 161.344 31.0017 161.085 31.13 161.01L31.2156 160.959L32.0105 162.307L31.925 162.357C31.7588 162.369 31.4012 162.349 29.2224 162.712L13.5827 165.279ZM25.7809 162.205L22.2857 156.281L15.8245 163.899L25.7809 162.205ZM8.32599 156.369L6.28189 152.905L6.36743 152.854C6.99919 152.655 7.26844 152.525 8.61578 151.73L11.5671 149.988C13.3208 148.954 14.006 147.281 13.0092 145.591C12.4414 144.629 11.6082 143.852 10.4657 143.431L5.4613 146.383C4.11396 147.178 3.86994 147.351 3.3896 147.807L3.30406 147.858L1.25995 144.393L1.3455 144.343C1.95202 144.1 2.22127 143.97 3.56861 143.175L14.0479 136.992C15.3953 136.197 15.6393 136.025 16.1448 135.611L16.2304 135.561L18.2745 139.025L18.189 139.076C17.5572 139.275 17.2879 139.405 15.9406 140.2L11.4709 142.838C13.0466 143.407 14.1206 144.446 14.8777 145.729C16.8335 149.044 15.9192 151.745 13.6309 153.095L10.5085 154.938C9.16113 155.733 8.91711 155.905 8.41154 156.319L8.32599 156.369Z" fill="#F6F1FF"/>
<path opacity="0.5" d="M70.8218 193.892L74.7702 195.13L72.5872 191.43L73.3159 191L76.1818 195.857L75.4863 196.261L70.4629 194.689C69.6077 194.421 69.0676 194.544 68.5509 194.849C67.631 195.392 67.3253 196.527 67.8649 197.441C68.4259 198.392 69.6054 198.644 70.4726 198.118L70.9299 198.893C69.5708 199.695 67.9442 199.241 67.1302 197.861C66.3314 196.507 66.7737 194.86 68.1017 194.076C69.0371 193.524 69.749 193.55 70.8218 193.892ZM66.2363 188.081C66.2308 187.15 66.7026 186.391 67.5087 185.916C68.8678 185.114 70.3338 185.579 71.16 186.98C71.9832 188.375 71.6758 189.873 70.3167 190.675C69.5054 191.154 68.6251 191.22 67.8044 190.75C67.8017 191.525 67.3709 192.176 66.7043 192.569C65.464 193.301 64.1647 192.835 63.4086 191.553C62.6525 190.272 62.8694 188.904 64.1097 188.172C64.7815 187.775 65.5538 187.703 66.2363 188.081ZM64.1579 191.111C64.6457 191.938 65.3967 192.254 66.2286 191.763C67.0658 191.269 67.1572 190.456 66.6694 189.629C66.1816 188.802 65.4224 188.484 64.5853 188.978C63.7533 189.469 63.6701 190.284 64.1579 191.111ZM70.4314 187.41C69.8765 186.469 68.961 186.145 67.9843 186.722C66.9973 187.304 66.8422 188.246 67.4032 189.196C67.9642 190.147 68.8572 190.456 69.8442 189.874C70.8208 189.298 70.9833 188.345 70.4314 187.41ZM62.4552 181.672C62.4497 180.742 62.9215 179.983 63.7276 179.507C65.0867 178.705 66.5527 179.171 67.3789 180.571C68.2021 181.966 67.8947 183.464 66.5356 184.266C65.7243 184.745 64.844 184.812 64.0233 184.341C64.0206 185.116 63.5898 185.767 62.9232 186.161C61.6829 186.893 60.3836 186.426 59.6275 185.144C58.8714 183.863 59.0883 182.495 60.3286 181.763C61.0004 181.367 61.7727 181.294 62.4552 181.672ZM60.3768 184.702C60.8646 185.529 61.6156 185.846 62.4475 185.355C63.2847 184.861 63.3761 184.047 62.8883 183.221C62.4005 182.394 61.6413 182.075 60.8042 182.569C59.9722 183.06 59.889 183.876 60.3768 184.702ZM66.6503 181.001C66.0954 180.061 65.1799 179.737 64.2032 180.313C63.2162 180.895 63.0611 181.837 63.6221 182.788C64.1831 183.739 65.076 184.048 66.0631 183.465C67.0397 182.889 67.2022 181.936 66.6503 181.001ZM60.0519 177.362C60.6556 178.385 60.3227 179.71 59.2891 180.32C58.2763 180.918 56.9166 180.55 56.3312 179.557C55.7275 178.534 56.0604 177.209 57.0939 176.6C58.1275 175.99 59.4482 176.339 60.0519 177.362ZM59.3646 177.768C58.9896 177.132 58.1351 176.912 57.4994 177.287C56.8638 177.662 56.6435 178.516 57.0185 179.152C57.3935 179.788 58.248 180.008 58.8836 179.633C59.5193 179.258 59.7396 178.403 59.3646 177.768ZM60.5142 168.936C61.3283 170.316 60.8982 171.984 59.5184 172.798L56.6246 174.505C55.2448 175.319 53.5769 174.889 52.7628 173.509C51.9487 172.13 52.3788 170.462 53.7586 169.648L56.6525 167.94C58.0322 167.126 59.7002 167.556 60.5142 168.936ZM59.7804 169.369C59.2408 168.454 58.0576 168.149 57.1429 168.689L54.1767 170.439C53.2569 170.982 52.9518 172.165 53.4914 173.079C54.0311 173.994 55.2143 174.299 56.1341 173.757L59.1003 172.006C60.015 171.467 60.3201 170.284 59.7804 169.369ZM56.5485 162.214C57.3626 163.594 56.9325 165.262 55.5527 166.076L52.6589 167.784C51.2791 168.598 49.6112 168.168 48.7971 166.788C47.983 165.408 48.4131 163.74 49.7929 162.926L52.6868 161.219C54.0665 160.405 55.7345 160.835 56.5485 162.214ZM55.8147 162.647C55.2751 161.733 54.0919 161.428 53.1772 161.967L50.211 163.717C49.2912 164.26 48.9861 165.443 49.5257 166.358C50.0654 167.273 51.2486 167.578 52.1684 167.035L55.1346 165.285C56.0493 164.745 56.3544 163.562 55.8147 162.647ZM48.854 161.016L46.09 161.999L45.6388 161.234L48.5461 160.494L48.854 161.016ZM48.0796 159.703L45.3156 160.686L44.8644 159.921L47.7717 159.181L48.0796 159.703ZM44.4533 148.763L47.0143 153.104L46.3632 153.488L43.8021 149.147L44.4533 148.763ZM35.8454 144.824C35.0191 143.424 35.4768 141.649 36.9289 140.792L39.5075 139.271C41.001 138.389 42.7562 138.838 43.6252 140.31C44.1252 141.158 44.1806 142.149 43.7884 143.008L42.9633 142.707C43.2683 142.102 43.2645 141.352 42.9017 140.737C42.2828 139.688 40.9902 139.434 40.029 140.001L38.8869 140.675C39.6784 140.8 40.4118 141.252 40.8386 141.975C41.6527 143.355 41.1986 145.065 39.8189 145.879C38.4443 146.69 36.6594 146.204 35.8454 144.824ZM40.091 142.326C39.5179 141.354 38.272 141.038 37.3005 141.611C36.3393 142.178 36.0112 143.416 36.5844 144.388C37.1575 145.359 38.3961 145.688 39.3676 145.114C40.3391 144.541 40.6642 143.297 40.091 142.326ZM39.5786 133.452C40.3926 134.832 39.9625 136.5 38.5828 137.314L35.6889 139.021C34.3092 139.835 32.6412 139.405 31.8272 138.025C31.0131 136.645 31.4432 134.977 32.823 134.163L35.7168 132.456C37.0966 131.642 38.7645 132.072 39.5786 133.452ZM38.8448 133.885C38.3051 132.97 37.122 132.665 36.2073 133.205L33.2411 134.955C32.3212 135.497 32.0161 136.681 32.5558 137.595C33.0955 138.51 34.2786 138.815 35.1985 138.272L38.1647 136.522C39.0793 135.983 39.3844 134.799 38.8448 133.885ZM32.1614 130.09C32.7651 131.113 32.4322 132.438 31.3987 133.048C30.3858 133.646 29.0261 133.278 28.4407 132.286C27.8371 131.262 28.17 129.937 29.2035 129.328C30.237 128.718 31.5578 129.067 32.1614 130.09ZM31.4741 130.496C31.0991 129.86 30.2446 129.64 29.609 130.015C28.9734 130.39 28.753 131.244 29.128 131.88C29.5031 132.516 30.3576 132.736 30.9932 132.361C31.6288 131.986 31.8492 131.131 31.4741 130.496ZM32.6238 121.664C33.4378 123.044 33.0077 124.712 31.628 125.526L28.7341 127.233C27.3544 128.047 25.6864 127.617 24.8724 126.237C24.0583 124.858 24.4884 123.19 25.8682 122.376L28.762 120.668C30.1418 119.854 31.8097 120.284 32.6238 121.664ZM31.89 122.097C31.3503 121.182 30.1671 120.877 29.2525 121.417L26.2863 123.167C25.3664 123.71 25.0613 124.893 25.601 125.807C26.1406 126.722 27.3238 127.027 28.2437 126.485L31.2099 124.734C32.1245 124.195 32.4296 123.012 31.89 122.097ZM28.6581 114.943C29.4721 116.322 29.042 117.99 27.6623 118.804L24.7684 120.512C23.3887 121.326 21.7207 120.896 20.9067 119.516C20.0926 118.136 20.5227 116.468 21.9025 115.654L24.7963 113.947C26.1761 113.133 27.844 113.563 28.6581 114.943ZM27.9243 115.375C27.3846 114.461 26.2014 114.156 25.2868 114.695L22.3206 116.445C21.4007 116.988 21.0956 118.171 21.6353 119.086C22.1749 120.001 23.3581 120.306 24.278 119.763L27.2442 118.013C28.1588 117.473 28.4639 116.29 27.9243 115.375ZM20.9636 113.744L18.1996 114.727L17.7483 113.962L20.6556 113.222L20.9636 113.744ZM20.1892 112.431L17.4252 113.414L16.9739 112.649L19.8812 111.909L20.1892 112.431Z" fill="#BBBBBB"/>
<g opacity="0.2">
<path d="M221.972 148.988C223.452 151.497 224.976 153.541 225.935 155.84C228.528 161.988 228.093 168.331 226.753 174.69C224.568 185.01 220.472 194.587 215.316 203.716C213.25 207.361 211.154 211.024 208.886 215.068C211.939 214.579 214.633 214.223 217.269 213.702C241.922 208.625 265.761 200.686 289.439 192.206C303.915 187.007 318.322 181.689 332.928 176.374C332.849 175.903 332.77 175.432 332.674 174.932C332.417 173.89 332.219 172.813 331.857 171.794C328.185 160.514 324.26 149.344 318.797 138.803C314.151 129.849 309.31 120.97 304.634 112.033C304.083 110.965 303.451 110.702 302.35 110.994C300.207 111.542 298.001 111.849 295.881 112.503C277.87 118.117 260.558 125.387 244.282 134.951C236.786 139.373 229.535 144.208 221.972 148.988Z" fill="white"/>
<path d="M251.747 98.7212C251.993 101.162 251.417 103.49 250.15 105.59C248.122 108.895 245.458 111.661 242.287 113.771C238.383 116.392 234.142 118.576 230.122 121.067C228.812 121.88 228.078 121.716 227.165 120.504C224.074 116.48 220.883 112.555 217.734 108.565C216.924 107.531 216.258 107.009 214.999 108.11C210.161 112.317 205.16 116.381 200.392 120.706C196.849 123.871 193.585 127.308 189.992 130.86C190.919 131.149 191.499 131.323 192.08 131.498C200.171 133.885 207.916 137.033 214.748 142.072C215.508 142.618 215.949 142.557 216.704 142.151C217.105 141.954 217.85 142.071 218.207 142.338C218.499 142.564 218.576 143.234 218.561 143.681C218.541 144.051 218.256 144.378 218.071 144.805C218.777 145.463 219.466 146.091 220.207 146.807C245.085 128.628 272.288 115.602 302.422 107.41C298.846 102.36 295.558 97.2585 291.85 92.5243C286.744 86.0288 280.858 80.2327 273.959 75.5514C273.169 75.0226 272.606 74.8774 271.669 75.3112C266.249 77.9918 260.737 80.4484 255.334 83.1585C250.645 85.5272 246.049 88.1198 240.969 90.8382C242.307 91.0831 243.129 91.195 243.909 91.3711C248.373 92.3972 251.391 95.1518 251.747 98.7212Z" fill="white"/>
<path d="M154.424 135.773C165.288 139.825 176.135 143.848 186.999 147.901C192.408 149.921 197.758 151.976 203.22 153.885C205.945 154.863 206.3 155.33 205.539 158.086C202.772 168.431 199.975 178.793 197.318 189.192C195.714 195.508 194.422 201.88 194.649 208.469C194.803 213.112 196.996 215.279 201.518 214.919C204.128 214.691 206.502 213.927 207.839 211.07C209.535 207.404 211.723 203.965 213.641 200.406C218.617 191.106 222.631 181.458 224.313 170.958C225.532 163.316 224.174 156.361 219.024 150.329C214.608 145.137 209.046 141.576 202.938 138.775C194.405 134.899 185.372 132.67 176.212 131.033C170.162 129.948 164.05 129.298 158.356 128.48C156.879 131.102 155.576 133.343 154.278 135.66C154.166 135.606 154.283 135.736 154.424 135.773Z" fill="white"/>
<path d="M161.95 186.152C161.998 186.164 162.028 186.146 161.95 186.152V186.152Z" fill="white"/>
<path d="M161.948 186.151C161.902 186.139 161.902 186.139 161.884 186.11L161.855 186.128C161.919 186.169 161.948 186.151 161.948 186.151Z" fill="white"/>
<path d="M199.594 156.978C199.523 155.508 198.506 155.471 197.592 155.135C195.717 154.452 193.842 153.768 191.966 153.084C186.657 151.165 181.377 149.228 176.038 147.326C168.149 158.902 163.336 171.647 159.712 184.924C160.543 185.388 161.199 185.757 161.872 186.156C163.998 184.703 165.86 183.206 167.896 182.005C172.812 179.144 176.586 179.742 180.409 183.931C185.249 176.222 191.963 170.272 198.478 164.121C201.158 161.584 202.207 159.653 202.243 157.085C200.95 157.928 199.658 157.895 199.594 156.978Z" fill="white"/>
<path d="M173.015 146.247C164.366 142.916 155.829 139.638 147.796 136.541C145.216 138.978 142.908 141.135 140.748 143.205C147.888 154.229 153.411 166.286 158.241 178.991C161.759 167.288 166.265 156.315 173.015 146.247Z" fill="white"/>
<path d="M92.7326 137.879C102.351 136.382 111.908 134.443 121.752 135.079C122.096 135.393 123.552 135.569 123.898 135.683C124.666 135.906 125.422 136.176 126.195 136.475C127.725 137.045 129.23 137.708 130.682 138.483C132.309 139.353 133.912 140.317 135.402 141.426C137.365 139.831 136.959 136.649 138.414 134.597C136.387 133.724 134.331 132.869 132.304 131.996C130.389 131.177 128.474 130.358 126.612 129.427C126.624 129.38 126.683 129.345 126.695 129.299C125.3 128.013 123.575 126.843 124.396 124.728C125.175 122.677 127.199 123.074 128.874 123.08C128.393 122.131 127.947 121.24 127.414 120.202C114.482 122.421 101.332 123.934 89.1895 129.11C90.3016 132.074 91.3737 134.902 92.4806 137.789C92.5275 137.802 92.6562 137.885 92.7326 137.879Z" fill="white"/>
<path d="M240.355 111.372C243.227 109.16 245.959 106.712 247.746 103.47C249.242 100.678 249.128 97.7219 247.065 96.314C243.464 93.7842 239.146 92.8709 235.248 94.6931C230.548 96.9089 226.352 100.18 222.202 102.788C226.101 107.171 229.848 111.365 233.829 115.819C235.778 114.47 238.168 113.06 240.355 111.372Z" fill="white"/>
<path d="M180.981 214.027C181.016 214.086 181.033 214.115 181.132 214.216C185.074 214.356 189.016 214.497 192.634 214.63C192.235 212.2 191.477 209.903 191.611 207.635C191.857 202.995 192.267 198.297 193.194 193.733C194.944 185.102 197.129 176.533 199.204 167.711C192.404 174.189 185.7 180.491 180.944 188.747C181.855 188.807 182.577 188.818 183.288 188.876C185.866 189.066 187.907 190.368 188.553 192.811C189.073 194.772 189.198 197.005 188.907 199.007C188.289 203.151 185.744 206.323 182.588 208.862C180.726 210.358 180.186 211.87 180.981 214.027Z" fill="white"/>
<path d="M141.336 121.816C140.369 121.391 139.576 120.586 138.688 119.957C137.817 119.357 136.928 118.727 136.057 118.128C135.974 118.256 135.891 118.385 135.778 118.531C136.105 118.815 136.432 119.1 136.771 119.337C138.689 120.633 140.624 121.957 142.571 123.235C143.472 123.817 143.7 124.677 143.09 125.395C142.675 125.839 141.763 125.979 141.088 125.98C140.565 125.97 140.086 125.497 139.577 125.24C137.364 124.119 135.169 123.028 132.956 121.906C132.861 122.082 132.765 122.258 132.67 122.433C135.027 123.867 137.385 125.3 139.754 126.687C140.86 127.347 142.514 127.724 141.714 129.469C140.902 131.261 139.505 130.176 138.339 129.75C135.07 128.456 131.801 127.163 128.531 125.87C128.436 126.045 128.329 126.268 128.233 126.443C128.414 126.615 128.612 126.816 128.823 126.971C132.295 129.417 136.119 131.179 140.194 132.355C143.032 133.187 143.446 134.494 141.637 136.755C140.931 137.649 140.243 138.572 139.537 139.466C141.834 138.707 143.338 137.143 144.545 135.278C144.782 134.939 144.745 134.404 144.824 133.999C144.929 133.301 144.923 132.548 145.186 131.916C145.851 130.211 146.692 128.601 147.357 126.896C147.566 126.374 147.636 125.617 147.422 125.186C146.217 122.874 144.906 120.585 143.612 118.324C143.316 117.823 142.814 117.443 142.4 117.011C142.651 117.976 143.357 118.634 143.645 119.459C143.898 120.224 143.697 121.099 143.679 121.945C142.863 121.909 142.015 122.091 141.336 121.816Z" fill="white"/>
<path d="M176.374 200.555C177.526 202.978 178.625 205.313 179.747 207.754C180.635 206.833 181.423 206.01 182.193 205.158C184.231 202.881 185.79 200.331 186.077 197.177C186.43 193.19 185.171 191.864 181.168 191.958C180.663 191.978 180.157 191.998 179.422 192.033C179.914 195.563 178.63 198.309 176.374 200.555Z" fill="white"/>
<path d="M177.524 189.018C178.631 185.501 176.488 182.946 172.858 183.537C169.639 184.083 167.222 185.986 164.803 188.09C166.123 189.181 167.344 190.171 168.518 191.149C171.363 189.431 174.084 187.706 177.524 189.018Z" fill="white"/>
<path d="M229.191 118.274C230.283 117.63 231.286 117.038 232.26 116.463C229.596 111.949 226.133 108.303 222.32 104.943C221.03 103.835 220.107 103.822 219.091 105.337C222.485 109.739 225.838 114.007 229.191 118.274Z" fill="white"/>
<path d="M75.6507 134.751C75.1089 134.911 74.5323 135.013 74.0254 135.232C72.4871 135.861 70.9367 136.537 69.3688 137.184C69.4438 137.378 69.5309 137.526 69.6058 137.72C71.2621 137.022 72.9185 136.323 74.5627 135.671C75.5646 135.279 76.7487 134.859 77.3498 136.214C77.9509 137.57 76.8432 137.985 75.8762 138.436C74.1071 139.281 72.338 140.126 70.569 140.971C70.6439 141.165 70.731 141.313 70.8059 141.507C72.74 140.605 74.6566 139.673 76.6254 138.83C77.2383 138.588 78.1327 138.418 78.642 138.674C79.7545 139.211 79.5323 140.655 78.246 141.374C76.4581 142.39 74.6179 143.316 72.8246 144.255C73.1811 144.522 73.4747 144.548 73.6813 144.426C75.2559 143.656 76.7904 142.75 78.4225 142.145C79.2299 141.828 80.2999 141.754 81.0733 142.053C81.5304 142.221 81.716 143.345 81.8107 144.045C81.9093 145.021 81.7786 146.013 81.7243 147C81.924 147.001 82.1117 147.05 82.3115 147.051C82.4655 145.29 83.0902 143.449 82.7146 141.801C82.1291 139.123 80.8021 136.604 79.9283 133.977C79.2098 131.815 79.1697 131.68 76.8057 131.921C77.6747 133.596 77.4115 134.229 75.6507 134.751Z" fill="white"/>
<path d="M89.7567 138.364C88.5023 135.563 87.3576 133.016 86.1554 130.304C84.7284 130.987 83.7197 131.503 82.6052 132.041C83.3329 134.556 83.9856 136.876 84.6437 139.272C86.297 138.973 87.815 138.714 89.7567 138.364Z" fill="white"/>
<path d="M174.642 191.752C173.317 192.136 172.084 192.744 170.681 193.333C172.155 195.089 173.408 196.538 174.666 198.063C176.045 196.692 176.52 195.139 176.445 193.393C176.43 192.288 175.937 191.386 174.642 191.752Z" fill="white"/>
<path d="M159.874 273.86C168.114 265.577 176.075 257.022 183.773 248.223C186.635 244.983 189.486 241.59 190.798 237.475C191.05 236.689 191.239 235.862 191.092 235.074C190.945 234.285 190.485 233.641 190.055 232.98C186.632 227.919 183.179 222.875 179.755 217.814C180.141 221.167 180.098 224.733 179.623 228.514C178.937 233.891 176.833 238.753 173.423 242.952C170.82 246.159 167.924 249.14 165.093 252.163C163.275 254.071 163.23 254.535 164.153 256.975C164.51 257.918 164.548 259.128 164.323 260.096C163.912 261.692 162.853 261.919 161.455 261.033C161.069 260.783 160.712 260.516 160.297 260.284C158.209 258.97 156.974 259.102 155.058 260.709C151.865 263.389 148.702 266.051 145.422 268.583C144.855 269.037 143.708 269.117 142.97 268.876C132.586 265.773 122.171 262.887 111.556 260.876C111.238 260.268 110.919 259.661 110.6 259.053C120.986 261.081 131.195 263.888 141.345 266.931C142.066 267.142 143.212 267.062 143.797 266.638C147.077 264.106 150.27 261.426 153.433 258.764C155.349 257.157 156.566 256.995 158.672 258.339C159.058 258.588 159.444 258.838 159.83 259.088C161.228 259.973 162.287 259.746 162.698 258.151C162.952 257.166 162.885 255.972 162.528 255.03C161.605 252.59 161.679 252.109 163.468 250.218C166.299 247.195 169.195 244.214 171.798 241.007C175.208 236.807 177.312 231.946 177.998 226.568C180.129 210.155 173.793 197.662 160.09 188.8C152.95 184.181 145.232 182.967 137.045 185.609C131.891 187.258 127.27 189.944 122.707 192.796C119.247 194.956 119.247 194.956 115.933 192.575C115.74 192.45 115.547 192.326 115.354 192.201C113.124 191.05 111.183 192.076 110.895 194.554C110.85 195.017 110.805 195.481 110.867 195.922C111.282 198.582 109.877 200.246 107.817 201.541C106.949 202.093 106.046 202.586 105.161 203.108C105.178 203.137 105.178 203.137 105.196 203.167C104.251 203.724 103.255 204.193 102.41 204.85C101.931 205.252 101.456 205.93 101.422 206.547C100.537 216.577 98.8247 226.419 95.7868 235.968C95.1813 235.212 94.5932 234.484 93.9581 233.745C97.0672 224.114 98.8035 214.178 99.6832 204.072C99.7345 203.485 100.192 202.777 100.671 202.375C101.516 201.718 102.513 201.249 103.457 200.692C103.44 200.662 103.44 200.662 103.422 200.633C104.308 200.111 105.21 199.618 106.078 199.066C108.138 197.771 109.543 196.107 109.128 193.448C109.067 193.006 109.111 192.542 109.156 192.079C109.444 189.601 111.385 188.575 113.616 189.726C113.838 189.833 114.002 189.976 114.195 190.1C117.509 192.481 117.509 192.481 120.968 190.321C125.514 187.44 130.152 184.783 135.306 183.134C143.269 180.584 150.824 181.657 157.773 185.951C154.506 181.155 151.239 176.359 148.001 171.547C147.368 170.608 146.653 169.598 145.551 169.213C144.607 168.895 143.548 169.122 142.582 169.374C138.385 170.418 134.158 171.48 129.961 172.524C125.598 173.626 121.189 174.716 117.039 176.448C111.876 178.619 107.193 181.74 102.169 184.147C101.455 184.489 100.695 184.818 99.9322 184.671C98.6117 184.456 97.8297 182.928 96.4918 182.683C95.371 182.469 94.2777 183.313 93.7649 184.332C93.252 185.351 93.1493 186.525 92.9649 187.628C92.4803 190.381 91.351 192.917 90.2217 195.453C87.4071 201.807 84.5631 208.18 81.7485 214.534C81.4316 215.278 81.0851 216.04 81.0497 216.856C81.0332 217.502 81.2164 218.15 81.3823 218.768C81.6806 219.746 82.0085 220.706 82.3537 221.696C80.538 220.102 78.6512 218.589 76.688 217.082C74.1396 230.361 67.3425 241.293 57.7884 250.789C63.3632 254.979 68.3963 259.329 72.333 264.923C76.2872 270.546 79.1284 276.508 79.185 283.953C93.1026 283.539 106.926 283.1 120.78 282.644C120.852 282.363 120.942 282.111 121.015 281.829C120.755 281.187 120.496 280.544 120.206 279.919C121.487 279.999 122.958 279.728 124.834 279.536C129.468 279.03 134.169 279.041 138.813 279.563C144.696 280.23 150.637 281.737 156.45 280.734C158.227 280.441 160.1 279.773 161.087 278.276C162.137 276.821 161.639 274.291 159.874 273.86ZM129.194 246.81C129.075 247.079 128.057 247.242 127.765 247.016C126.421 246.019 125.143 244.864 123.642 243.601C123.816 243.021 123.81 242.269 124.176 242.013C124.543 241.757 125.448 241.74 125.822 242.037C127.008 242.968 128.157 244.04 129.171 245.152C129.457 245.501 129.409 246.365 129.194 246.81ZM137.281 236.31C138.042 237.532 137.695 239.169 136.502 239.912C135.339 240.638 133.638 240.249 132.895 239.057C132.152 237.864 132.546 236.24 133.768 235.479C135.019 234.701 136.503 235.058 137.281 236.31ZM149.973 212.512C151.764 212.648 153.507 212.972 154.421 214.86C155.446 217 155.007 219.089 154.04 221.091C153.879 221.425 153.025 221.73 152.632 221.604C152.269 221.46 151.898 220.764 151.896 220.288C151.914 219.442 152.272 218.634 152.367 217.782C152.584 216.262 151.908 215.387 150.334 215.282C150.117 215.251 149.871 215.237 149.653 215.206C148.667 215.152 147.348 215.413 147.366 213.891C147.419 212.228 148.863 212.45 149.973 212.512ZM142.436 220.976C142.713 220.097 143.054 219.259 144.173 219.673C145.339 220.099 145.238 221.073 144.809 221.963C144.379 222.853 143.791 223.677 143.256 224.59C142.055 224.781 140.989 225.132 139.985 225.048C138.858 224.957 138.318 224.042 138.579 222.934C138.81 221.843 139.505 221.671 140.523 222.184C141.747 222.775 142.159 221.856 142.436 220.976ZM124.805 222.985C125.39 224.112 125.003 225.613 123.911 226.257C122.718 227 120.918 226.511 120.216 225.254C119.485 224.015 119.883 222.666 121.152 221.918C122.391 221.187 124.133 221.711 124.805 222.985ZM111.413 225.436C111.988 225.534 112.705 225.469 113.096 225.795C113.797 226.376 114.267 227.173 114.838 227.871C114.809 227.888 114.779 227.905 114.75 227.923C114.976 228.307 115.402 228.692 115.399 229.091C115.407 229.644 115.208 230.318 114.817 230.668C114.616 230.866 113.69 230.577 113.375 230.246C112.542 229.305 111.75 228.3 111.153 227.221C110.956 226.82 111.302 226.058 111.413 225.436ZM90.4285 264.51C89.2591 262.932 88.1313 261.29 87.0262 259.755C84.9325 260.791 82.969 261.711 81.0872 262.702C80.155 263.212 79.545 263.054 78.8873 262.209C76.5136 258.995 77.1265 258.753 79.5409 257.249C80.8219 256.453 82.0855 255.628 83.4966 254.716C82.5777 253.428 81.711 252.229 80.8564 250.983C80.3621 250.28 79.8679 249.577 79.4326 248.839C78.771 247.718 78.9767 246.92 80.1101 246.212C80.7003 245.864 81.3079 245.545 81.9155 245.226C83.4553 244.397 83.7663 244.453 84.7549 245.858C85.9818 247.601 87.2852 249.338 88.4895 250.975C90.2117 250.118 91.9444 249.414 93.5205 248.444C96.3655 246.726 97.4682 247.786 98.1513 250.764C98.3679 251.671 98.1623 252.468 97.2944 253.02C95.6177 254.089 94.0053 255.199 92.2575 256.35C93.4497 258.033 94.5654 259.722 95.7523 261.329C97.1601 263.243 97.0914 263.801 95.1771 265.209C92.6606 267.012 92.2436 266.979 90.4285 264.51Z" fill="white"/>
<path d="M149.243 130.835C148.986 132.22 148.525 133.327 148.093 134.617C149.247 135.089 150.876 134.884 152.16 135.24C152.811 133.106 153.93 131.093 155.446 129.482C155.932 128.957 156.465 128.444 156.693 127.752C154.709 127.491 152.72 127.153 150.784 126.704C150.028 127.985 149.512 129.403 149.243 130.835Z" fill="white"/>
<path d="M352.478 108.708C352.529 109.672 352.958 110.533 353.416 111.377C353.983 112.474 354.569 113.601 355.195 114.663C342.345 118.505 330.02 123.709 318.04 129.902C320.564 135.056 322.989 140.11 325.6 145.412C337.666 137.815 349.68 130.329 360.18 120.752C362.102 120.773 364.061 116.474 364.335 115.119C364.634 113.669 364.651 112.148 364.215 110.734C363.876 109.621 363.284 108.618 362.71 107.644C362.031 106.493 361.322 105.36 360.295 104.494C359.267 103.629 357.878 103.095 356.612 103.445C355.858 103.651 355.185 104.127 354.576 104.646C353.393 105.742 352.401 107.162 352.478 108.708Z" fill="white"/>
<path d="M321.788 63.8394C321.84 64.8035 322.268 65.6646 322.726 66.5082C323.08 67.1749 323.434 67.8415 323.804 68.5376C312.376 74.0472 301.112 79.4993 289.819 84.9688C293.249 89.2307 296.492 93.2446 299.788 97.3469C310.667 91.4454 320.388 83.9194 329.661 75.9024C331.502 75.6516 333.354 71.5755 333.634 70.2966C333.933 68.8474 333.95 67.3257 333.513 65.9122C333.175 64.7991 332.583 63.7958 332.009 62.822C331.33 61.6711 330.621 60.5377 329.593 59.6722C328.565 58.8067 327.177 58.2735 325.911 58.6226C325.157 58.8285 324.484 59.3054 323.875 59.8239C322.703 60.8729 321.712 62.2935 321.788 63.8394Z" fill="white"/>
</g>
<path fill-rule="evenodd" clip-rule="evenodd" d="M166.418 171.773C166.277 171.591 166.123 171.426 165.958 171.277L196.565 166.488C196.231 167.345 196.214 168.307 196.538 169.185L167.201 173.776C167.141 173.07 166.884 172.374 166.418 171.773ZM198.283 171.205L191.435 206.372C192.318 206.066 193.28 206.1 194.13 206.451L200.921 171.579C200.028 171.776 199.088 171.644 198.283 171.205ZM203.581 166.353L248.131 129.795L246.443 127.738L201.721 164.438C202.245 164.685 202.721 165.056 203.101 165.545C203.298 165.8 203.458 166.071 203.581 166.353ZM160.676 176.725L157.789 188.028L160.367 188.687L163.126 177.884C162.219 177.814 161.34 177.42 160.676 176.725ZM189.618 212.206L178.125 213.973L177.721 211.343L188.897 209.625C188.818 210.514 189.051 211.434 189.618 212.206Z" fill="#BBBBBB"/>
<circle cx="192.864" cy="209.87" r="2.27921" transform="rotate(-127.795 192.864 209.87)" fill="#BBBBBB"/>
<circle cx="162.712" cy="173.794" r="2.27921" transform="rotate(-127.795 162.712 173.794)" fill="#BBBBBB"/>
<circle cx="199.835" cy="168.16" r="2.27921" transform="rotate(-127.795 199.835 168.16)" fill="#BBBBBB"/>
<path d="M233.793 129.17L243.3 125.162L242.425 114.882L249.175 122.684L258.682 118.676L253.347 127.507L260.097 135.309L250.05 132.964L244.715 141.795L243.84 131.515L233.793 129.17Z" fill="white"/>
<path d="M152.125 188.817L156.732 186.874L156.308 181.892L159.579 185.674L164.186 183.731L161.601 188.011L164.872 191.792L160.003 190.655L157.418 194.935L156.994 189.953L152.125 188.817Z" fill="white"/>
<path d="M190.357 163.03L198.058 164.447L201.785 157.56L202.817 165.322L210.518 166.739L203.455 170.119L204.487 177.881L199.09 172.208L192.027 175.589L195.754 168.702L190.357 163.03Z" fill="white"/>
<path d="M170.891 213.016L175.498 211.073L175.074 206.091L178.346 209.873L182.953 207.93L180.367 212.21L183.639 215.991L178.77 214.855L176.184 219.134L175.76 214.152L170.891 213.016Z" fill="white"/>
</svg>
