<svg width="278" height="283" viewBox="0 0 278 283" fill="none" xmlns="http://www.w3.org/2000/svg">
<path opacity="0.8" d="M245.543 168.129L239.739 158.291L240.787 157.673L240.837 157.759C241.037 158.39 241.167 158.66 241.836 159.793L242.593 161.076L254.419 154.099C255.724 153.329 255.947 153.169 256.397 152.759L256.491 152.675L256.577 152.624L258.646 156.131L258.56 156.182L258.441 156.224C257.865 156.419 257.617 156.537 256.312 157.307L244.485 164.284L245.243 165.567C245.911 166.701 246.084 166.945 246.541 167.425L246.591 167.511L245.543 168.129ZM239.423 157.757L236.963 153.586L237.006 153.561C237.327 153.227 237.645 152.348 238.221 151.028L241.716 143.171L233.515 143.051C232.143 143.023 231.271 142.962 230.848 143.125L230.805 143.15L230.061 141.888L230.146 141.838C230.78 141.983 231.47 141.979 232.862 141.994L245.62 142.165C249.52 142.228 251.295 142.939 252.229 144.522C253.289 146.318 252.836 148.287 251.146 149.283C249.457 150.28 247.58 149.542 246.722 148.088C246.293 147.361 246.116 146.427 246.251 145.483L246.707 145.473C246.677 146.01 246.832 146.466 247.046 146.83C247.664 147.878 248.737 147.937 249.528 147.47C250.362 146.978 250.899 145.883 250.217 144.728C249.776 143.98 248.691 143.265 246.685 143.237L245.527 143.229L240.559 155.04C239.996 156.381 239.663 157.039 239.509 157.706L239.423 157.757ZM224.367 135.365L222.348 131.943L222.434 131.893C222.921 131.692 223.19 131.562 223.866 131.192C221.814 126.493 222.703 121.989 226.274 119.882C229.825 117.788 234.196 119.187 237.296 123.268C237.947 122.856 238.191 122.683 238.602 122.354L238.688 122.303L240.706 125.725L240.621 125.776C240.134 125.976 239.865 126.107 239.189 126.476C241.241 131.176 240.352 135.679 236.78 137.786C233.23 139.881 228.858 138.482 225.758 134.4C225.108 134.813 224.864 134.986 224.453 135.315L224.367 135.365ZM235.06 134.333C238.054 132.566 239.258 129.867 238.334 126.981L226.635 133.883C228.778 136.049 231.852 136.225 235.06 134.333ZM236.42 123.786C234.276 121.619 231.203 121.443 227.995 123.336C225.001 125.102 223.797 127.802 224.721 130.688L236.42 123.786ZM218.062 121.55L212.535 112.183L213.647 111.527L213.698 111.613C213.812 112.295 214.001 112.616 214.632 113.685L217.004 117.706L220.661 115.548L218.074 111.164L218.973 110.634L221.559 115.018L230.178 109.933L227.339 105.121C226.67 103.987 226.497 103.743 226.041 103.263L225.991 103.178L227.039 102.559L233.032 112.718L232.946 112.768C232.34 113.011 232.071 113.141 230.723 113.936L220.244 120.119C218.897 120.913 218.653 121.086 218.147 121.5L218.062 121.55ZM219.529 89.8319L221.788 93.66L221.702 93.7105C221.574 93.7862 221.213 93.7112 219.77 95.3699L211.488 104.984L224.06 102.641C226.213 102.236 226.407 101.977 226.535 101.901L226.621 101.851L227.416 103.198L227.33 103.249C227.164 103.26 226.806 103.241 224.64 103.625L209.114 106.385C208.66 105.615 207.892 104.655 207.115 104.364L217.763 91.9695C219.206 90.3107 219.353 90.0222 219.444 89.8824L219.529 89.8319ZM203.485 96.8449L201.441 93.3803L201.527 93.3299C202.159 93.1301 202.428 93.0001 203.775 92.2052L215.602 85.2275L214.769 83.816C213.318 81.3565 210.588 81.3236 208.578 82.5097C206.504 83.7336 205.178 86.2747 206.73 88.9053L206.906 89.2047L206.265 89.5832C205.898 89.1078 205.565 88.6411 205.262 88.1279C203.457 85.0696 203.096 81.4769 206.347 79.559C209.662 77.6032 213.005 78.7735 215.339 82.73L218.456 88.0124L218.37 88.0629C217.764 88.3054 217.495 88.4354 216.147 89.2303L205.668 95.4131C204.321 96.208 204.077 96.3809 203.571 96.7945L203.485 96.8449ZM195.526 83.354L193.482 79.8894L193.567 79.8389C194.199 79.6392 194.468 79.5092 195.816 78.7142L199.879 76.3168L193.254 74.3728C191.265 73.7875 190.088 73.5019 189.895 73.6155L189.81 73.666L188.813 71.9765L188.899 71.926C189.646 72.2637 190.496 72.4829 192.484 73.0682L194.699 73.6936L201.064 64.691C202.23 63.0515 202.435 62.3248 202.555 61.6486L202.812 61.4972C204.423 63.0549 204.939 65.8354 203.167 68.2071L198.238 74.8057L201.034 75.6355L206.295 72.5314C207.642 71.7365 207.886 71.5637 208.367 71.1073L208.452 71.0569L210.496 74.5214L210.411 74.5719C209.804 74.8144 209.535 74.9445 208.188 75.7394L197.708 81.9222C196.361 82.7171 196.117 82.8899 195.611 83.3035L195.526 83.354ZM184.524 64.7071C184.07 63.9372 183.302 62.9776 182.525 62.6865L193.06 50.0992C194.469 48.4317 194.637 48.1306 194.728 47.9907L194.813 47.9402L197.059 51.747L196.974 51.7975C196.845 51.8732 196.488 51.8535 195.079 53.521L193.936 54.8583L197.822 61.4453L199.571 61.1345C201.75 60.7716 201.943 60.5133 202.071 60.4376L202.157 60.3871L202.952 61.7344L202.866 61.7849C202.7 61.7964 202.343 61.7768 200.164 62.1397L184.524 64.7071ZM196.722 61.633L193.227 55.709L186.766 63.3268L196.722 61.633Z" fill="#F6F1FF"/>
<path opacity="0.5" d="M273.424 126.501L273.962 126.184L276.768 130.941L276.283 131.227L271.988 130.403C271.454 130.301 271 130.235 270.627 130.207C270.25 130.181 269.928 130.192 269.662 130.241C269.39 130.289 269.149 130.375 268.94 130.498C268.634 130.679 268.4 130.899 268.239 131.158C268.075 131.414 267.997 131.7 268.005 132.014C268.012 132.329 268.119 132.66 268.324 133.009C268.529 133.357 268.783 133.615 269.084 133.785C269.386 133.954 269.712 134.029 270.062 134.01C270.407 133.99 270.748 133.88 271.086 133.681L271.452 134.302C271.035 134.549 270.597 134.682 270.14 134.703C269.681 134.721 269.246 134.616 268.836 134.389C268.421 134.164 268.072 133.81 267.786 133.326C267.515 132.866 267.364 132.423 267.332 131.996C267.297 131.571 267.379 131.18 267.577 130.824C267.773 130.464 268.085 130.158 268.513 129.905C268.743 129.77 268.999 129.675 269.282 129.621C269.562 129.563 269.861 129.537 270.178 129.542C270.49 129.546 270.813 129.572 271.146 129.619C271.477 129.663 271.809 129.718 272.144 129.784L275.781 130.496L273.424 126.501ZM268.37 121.311C268.829 121.04 269.281 120.919 269.725 120.948C270.167 120.974 270.576 121.122 270.952 121.393C271.328 121.664 271.649 122.026 271.916 122.478C272.185 122.934 272.347 123.392 272.403 123.852C272.458 124.312 272.391 124.743 272.202 125.146C272.011 125.545 271.685 125.88 271.226 126.151C270.923 126.33 270.613 126.433 270.296 126.461C269.973 126.487 269.658 126.445 269.35 126.336C269.036 126.226 268.742 126.054 268.469 125.821C268.195 125.588 267.956 125.298 267.75 124.95C267.479 124.49 267.325 124.026 267.287 123.555C267.245 123.087 267.315 122.657 267.496 122.264C267.675 121.867 267.966 121.55 268.37 121.311ZM268.74 121.938C268.416 122.129 268.178 122.375 268.027 122.675C267.876 122.975 267.814 123.3 267.842 123.65C267.867 124.002 267.98 124.35 268.184 124.694C268.389 125.042 268.639 125.31 268.933 125.498C269.223 125.688 269.535 125.788 269.869 125.797C270.203 125.807 270.532 125.716 270.856 125.525C271.194 125.326 271.437 125.081 271.585 124.792C271.731 124.499 271.785 124.181 271.747 123.838C271.709 123.494 271.586 123.147 271.378 122.795C271.171 122.444 270.927 122.17 270.647 121.974C270.367 121.778 270.064 121.673 269.737 121.659C269.41 121.646 269.077 121.739 268.74 121.938ZM264.853 123.654C265.225 123.434 265.616 123.337 266.026 123.363C266.43 123.388 266.814 123.518 267.178 123.753C267.539 123.991 267.843 124.32 268.092 124.741C268.342 125.166 268.486 125.595 268.521 126.03C268.551 126.462 268.479 126.861 268.305 127.227C268.126 127.591 267.85 127.883 267.478 128.102C267.036 128.363 266.607 128.487 266.191 128.474C265.77 128.46 265.38 128.333 265.023 128.094C264.666 127.854 264.362 127.522 264.111 127.097C263.863 126.676 263.72 126.251 263.683 125.822C263.644 125.39 263.72 124.986 263.911 124.611C264.097 124.234 264.411 123.915 264.853 123.654ZM265.214 124.278C264.918 124.453 264.7 124.678 264.557 124.954C264.413 125.227 264.349 125.523 264.364 125.843C264.373 126.161 264.468 126.473 264.649 126.78C264.832 127.09 265.055 127.329 265.318 127.497C265.58 127.662 265.865 127.747 266.173 127.753C266.48 127.755 266.789 127.664 267.103 127.479C267.409 127.298 267.634 127.074 267.776 126.807C267.913 126.538 267.972 126.248 267.952 125.936C267.932 125.624 267.831 125.313 267.648 125.003C267.465 124.693 267.242 124.454 266.979 124.286C266.715 124.118 266.433 124.029 266.131 124.019C265.826 124.011 265.521 124.098 265.214 124.278ZM264.744 115.166C265.204 114.895 265.655 114.774 266.1 114.803C266.542 114.828 266.951 114.977 267.326 115.248C267.702 115.519 268.023 115.88 268.29 116.333C268.559 116.789 268.722 117.247 268.777 117.707C268.833 118.167 268.766 118.598 268.576 119.001C268.385 119.4 268.059 119.735 267.6 120.006C267.297 120.185 266.987 120.288 266.67 120.315C266.348 120.341 266.032 120.3 265.724 120.191C265.41 120.081 265.116 119.909 264.843 119.676C264.57 119.443 264.33 119.153 264.125 118.805C263.854 118.345 263.699 117.88 263.661 117.41C263.619 116.942 263.689 116.511 263.87 116.118C264.049 115.722 264.34 115.404 264.744 115.166ZM265.114 115.793C264.79 115.984 264.553 116.229 264.401 116.53C264.25 116.83 264.189 117.155 264.216 117.505C264.241 117.856 264.355 118.204 264.558 118.549C264.763 118.897 265.013 119.165 265.307 119.353C265.597 119.543 265.91 119.643 266.244 119.652C266.578 119.661 266.907 119.571 267.23 119.38C267.568 119.18 267.811 118.936 267.959 118.647C268.106 118.354 268.16 118.036 268.121 117.693C268.083 117.349 267.96 117.002 267.753 116.65C267.545 116.299 267.301 116.025 267.021 115.829C266.742 115.632 266.438 115.528 266.111 115.514C265.784 115.501 265.452 115.593 265.114 115.793ZM261.227 117.509C261.6 117.289 261.991 117.192 262.4 117.218C262.804 117.242 263.188 117.372 263.552 117.608C263.913 117.846 264.218 118.175 264.466 118.596C264.717 119.021 264.86 119.45 264.896 119.884C264.926 120.317 264.854 120.716 264.68 121.082C264.5 121.446 264.224 121.737 263.852 121.957C263.41 122.218 262.981 122.342 262.565 122.329C262.144 122.315 261.755 122.188 261.397 121.948C261.04 121.709 260.736 121.376 260.486 120.952C260.237 120.531 260.094 120.106 260.057 119.677C260.018 119.245 260.094 118.841 260.286 118.465C260.471 118.088 260.785 117.769 261.227 117.509ZM261.589 118.133C261.293 118.308 261.074 118.533 260.932 118.809C260.788 119.082 260.723 119.378 260.738 119.698C260.747 120.016 260.843 120.328 261.023 120.635C261.206 120.944 261.429 121.183 261.693 121.352C261.954 121.516 262.239 121.602 262.548 121.608C262.854 121.61 263.164 121.518 263.477 121.334C263.783 121.153 264.008 120.929 264.151 120.662C264.288 120.393 264.346 120.103 264.326 119.791C264.307 119.479 264.205 119.168 264.022 118.858C263.84 118.548 263.617 118.309 263.353 118.141C263.089 117.973 262.807 117.883 262.506 117.874C262.201 117.866 261.895 117.952 261.589 118.133ZM259.466 116.253C259.229 116.393 258.978 116.464 258.712 116.466C258.444 116.465 258.195 116.402 257.968 116.279C257.734 116.154 257.549 115.974 257.411 115.741C257.274 115.508 257.209 115.262 257.216 115.005C257.218 114.745 257.285 114.502 257.418 114.273C257.549 114.041 257.732 113.855 257.969 113.716C258.209 113.574 258.461 113.503 258.723 113.503C258.984 113.499 259.228 113.559 259.456 113.683C259.682 113.803 259.863 113.98 260.001 114.213C260.139 114.446 260.207 114.694 260.208 114.957C260.206 115.216 260.142 115.463 260.017 115.696C259.89 115.926 259.706 116.112 259.466 116.253ZM259.192 115.789C259.429 115.649 259.577 115.456 259.638 115.209C259.699 114.962 259.661 114.723 259.526 114.494C259.39 114.264 259.202 114.119 258.96 114.06C258.719 114.001 258.48 114.041 258.243 114.181C258.006 114.32 257.854 114.511 257.786 114.753C257.717 114.995 257.751 115.231 257.886 115.461C258.022 115.691 258.214 115.838 258.463 115.902C258.712 115.966 258.955 115.928 259.192 115.789ZM256.225 106.298L257.504 105.544C258.061 105.215 258.578 104.981 259.054 104.841C259.526 104.703 259.957 104.655 260.348 104.696C260.733 104.737 261.077 104.862 261.38 105.073C261.68 105.281 261.94 105.569 262.157 105.938C262.33 106.23 262.446 106.523 262.506 106.816C262.567 107.109 262.568 107.401 262.51 107.693C262.447 107.984 262.324 108.272 262.141 108.559C261.958 108.845 261.711 109.127 261.401 109.404C261.087 109.683 260.707 109.954 260.261 110.217L258.982 110.971C258.422 111.302 257.907 111.535 257.438 111.671C256.967 111.804 256.539 111.85 256.154 111.809C255.767 111.766 255.424 111.637 255.125 111.424C254.822 111.213 254.563 110.925 254.347 110.56C254.175 110.267 254.06 109.974 254.003 109.679C253.941 109.382 253.938 109.091 253.994 108.804C254.048 108.514 254.168 108.228 254.353 107.945C254.532 107.661 254.779 107.382 255.091 107.108C255.402 106.831 255.78 106.561 256.225 106.298ZM257.944 106.122L256.513 106.966C256.169 107.169 255.87 107.378 255.617 107.594C255.361 107.805 255.154 108.019 254.995 108.235C254.836 108.45 254.727 108.67 254.666 108.893C254.604 109.113 254.592 109.336 254.631 109.562C254.665 109.786 254.749 110.013 254.885 110.242C255.051 110.524 255.256 110.739 255.498 110.887C255.734 111.034 256.006 111.113 256.313 111.124C256.617 111.138 256.955 111.083 257.329 110.961C257.701 110.836 258.103 110.646 258.534 110.391L259.965 109.547C260.306 109.346 260.604 109.139 260.859 108.928C261.111 108.718 261.317 108.503 261.478 108.281C261.638 108.06 261.753 107.837 261.823 107.613C261.887 107.388 261.904 107.162 261.873 106.936C261.838 106.708 261.753 106.481 261.619 106.255C261.449 105.966 261.244 105.749 261.004 105.605C260.76 105.462 260.483 105.386 260.172 105.377C259.858 105.37 259.516 105.429 259.144 105.555C258.769 105.682 258.369 105.871 257.944 106.122ZM252.599 100.153L253.879 99.3984C254.436 99.0698 254.952 98.8355 255.428 98.6956C255.9 98.5577 256.332 98.5096 256.722 98.5513C257.107 98.5915 257.451 98.7171 257.754 98.928C258.055 99.1354 258.314 99.4235 258.532 99.7925C258.704 100.085 258.82 100.378 258.881 100.671C258.941 100.963 258.942 101.256 258.885 101.548C258.821 101.839 258.698 102.127 258.515 102.413C258.332 102.7 258.086 102.981 257.775 103.258C257.461 103.538 257.081 103.809 256.636 104.071L255.357 104.826C254.796 105.157 254.281 105.39 253.813 105.526C253.342 105.658 252.914 105.704 252.529 105.664C252.141 105.62 251.798 105.492 251.499 105.279C251.196 105.068 250.937 104.78 250.721 104.415C250.549 104.122 250.434 103.828 250.378 103.533C250.315 103.237 250.312 102.946 250.368 102.659C250.423 102.369 250.542 102.083 250.727 101.8C250.907 101.515 251.153 101.237 251.465 100.963C251.776 100.686 252.154 100.416 252.599 100.153ZM254.318 99.9766L252.888 100.821C252.543 101.024 252.244 101.233 251.991 101.448C251.736 101.66 251.529 101.874 251.37 102.089C251.211 102.305 251.101 102.525 251.04 102.748C250.978 102.968 250.966 103.191 251.005 103.416C251.039 103.641 251.124 103.868 251.259 104.097C251.426 104.379 251.63 104.594 251.872 104.742C252.109 104.889 252.381 104.968 252.688 104.979C252.991 104.992 253.33 104.938 253.704 104.816C254.075 104.691 254.477 104.5 254.909 104.246L256.339 103.402C256.68 103.201 256.979 102.994 257.234 102.782C257.486 102.573 257.692 102.357 257.852 102.136C258.012 101.915 258.127 101.692 258.197 101.468C258.261 101.243 258.278 101.017 258.248 100.791C258.212 100.563 258.127 100.336 257.994 100.11C257.823 99.8209 257.618 99.6042 257.378 99.4596C257.134 99.3171 256.857 99.2412 256.547 99.232C256.233 99.2248 255.89 99.284 255.518 99.4095C255.143 99.537 254.743 99.7261 254.318 99.9766ZM247.672 99.9496L248.272 99.5953C248.485 99.47 248.711 99.3764 248.951 99.3144C249.192 99.2524 249.435 99.2237 249.682 99.2283C249.923 99.2315 250.157 99.2668 250.385 99.3343L250.332 99.8652C250.018 99.8345 249.73 99.8428 249.467 99.89C249.2 99.9394 248.93 100.045 248.655 100.207L248.038 100.571L247.672 99.9496ZM246.92 98.6756L247.521 98.3213C247.733 98.196 247.959 98.1024 248.2 98.0404C248.44 97.9784 248.683 97.9497 248.93 97.9543C249.171 97.9575 249.406 97.9928 249.633 98.0603L249.58 98.5912C249.267 98.5605 248.978 98.5688 248.715 98.616C248.449 98.6654 248.178 98.7712 247.903 98.9334L247.287 99.2969L246.92 98.6756ZM245.162 86.7833L245.7 86.466L248.786 91.6978L248.248 92.0151L245.162 86.7833ZM241.566 80.7477L241.19 80.1107C240.96 79.7208 240.702 79.4344 240.415 79.2514C240.123 79.0669 239.827 78.9743 239.526 78.9735C239.223 78.9691 238.936 79.0471 238.665 79.2073C238.358 79.388 238.124 79.6036 237.962 79.854C237.797 80.1064 237.72 80.389 237.73 80.7017C237.736 81.013 237.846 81.3513 238.062 81.7168C238.251 82.0371 238.482 82.2855 238.755 82.4622C239.028 82.6389 239.325 82.7315 239.644 82.7401C239.963 82.7487 240.285 82.6575 240.609 82.4665L240.975 83.0879C240.561 83.3323 240.139 83.4477 239.709 83.4341C239.275 83.4226 238.866 83.2951 238.483 83.0518C238.101 82.8084 237.781 82.4692 237.524 82.0341C237.259 81.5851 237.111 81.147 237.079 80.7198C237.046 80.2891 237.132 79.8908 237.339 79.525C237.543 79.1557 237.87 78.8385 238.319 78.5736C238.549 78.4381 238.805 78.355 239.087 78.3246C239.367 78.2906 239.656 78.3177 239.952 78.4058C240.244 78.496 240.53 78.6537 240.808 78.8789C241.086 79.1042 241.338 79.4083 241.564 79.7912L241.983 80.5013L241.566 80.7477ZM242.103 80.4304L241.691 80.6738L241.272 79.9637C241.015 79.5286 240.846 79.1263 240.764 78.757C240.679 78.3897 240.668 78.0534 240.732 77.7482C240.79 77.4416 240.91 77.1715 241.092 76.9378C241.273 76.7042 241.499 76.5073 241.771 76.3471C242.119 76.1417 242.461 76.0174 242.796 75.9741C243.132 75.9309 243.457 75.96 243.77 76.0614C244.078 76.1614 244.365 76.3254 244.63 76.5533C244.891 76.7798 245.12 77.0619 245.32 77.3995C245.5 77.7058 245.632 78.0319 245.714 78.3777C245.794 78.72 245.814 79.0601 245.774 79.3981C245.728 79.7346 245.61 80.0508 245.419 80.3468C245.224 80.6448 244.947 80.8995 244.588 81.111L244.222 80.4897C244.542 80.3008 244.781 80.0568 244.937 79.7578C245.091 79.4609 245.157 79.1356 245.136 78.782C245.109 78.4269 244.991 78.0718 244.782 77.7168C244.57 77.3583 244.329 77.0879 244.057 76.9057C243.78 76.722 243.481 76.6332 243.161 76.6391C242.84 76.6451 242.506 76.7507 242.158 76.9561C241.793 77.1718 241.543 77.4291 241.41 77.7283C241.275 78.0239 241.238 78.3481 241.301 78.7006C241.361 79.0497 241.504 79.414 241.728 79.7934L242.103 80.4304ZM235.75 71.594L237.029 70.8393C237.586 70.5107 238.102 70.2764 238.578 70.1364C239.05 69.9985 239.482 69.9504 239.872 69.9921C240.258 70.0324 240.601 70.158 240.904 70.3688C241.205 70.5762 241.464 70.8644 241.682 71.2334C241.854 71.5258 241.971 71.8184 242.031 72.1114C242.091 72.4043 242.092 72.6969 242.035 72.9889C241.972 73.2796 241.848 73.5681 241.665 73.8544C241.482 74.1407 241.236 74.4223 240.925 74.6994C240.611 74.9785 240.231 75.2494 239.786 75.5123L238.507 76.2671C237.946 76.5977 237.432 76.831 236.963 76.9668C236.492 77.0992 236.064 77.1452 235.679 77.105C235.292 77.0612 234.948 76.9329 234.649 76.7199C234.346 76.5091 234.087 76.2209 233.872 75.8554C233.699 75.563 233.584 75.2693 233.528 74.9743C233.465 74.6779 233.462 74.3864 233.519 74.0999C233.573 73.8098 233.692 73.5234 233.877 73.2406C234.057 72.9563 234.303 72.6774 234.616 72.4039C234.926 72.1268 235.304 71.8569 235.75 71.594ZM237.468 71.4175L236.038 72.2616C235.693 72.4649 235.394 72.6741 235.141 72.8892C234.886 73.1008 234.679 73.3144 234.52 73.5302C234.361 73.746 234.251 73.9656 234.191 74.189C234.128 74.409 234.116 74.6318 234.156 74.8573C234.189 75.0814 234.274 75.3084 234.409 75.5381C234.576 75.8201 234.78 76.0351 235.022 76.1831C235.259 76.3297 235.531 76.4087 235.838 76.4199C236.141 76.4333 236.48 76.3789 236.854 76.2569C237.225 76.1314 237.627 75.9414 238.059 75.6867L239.489 74.8426C239.83 74.6414 240.129 74.4349 240.384 74.2233C240.636 74.0138 240.842 73.7984 241.002 73.5771C241.162 73.3557 241.277 73.1331 241.347 72.909C241.411 72.6835 241.428 72.4577 241.398 72.2315C241.362 72.0039 241.277 71.7769 241.144 71.5507C240.973 71.2618 240.768 71.045 240.528 70.9005C240.284 70.758 240.007 70.6821 239.697 70.6729C239.383 70.6657 239.04 70.7249 238.668 70.8503C238.293 70.9779 237.893 71.1669 237.468 71.4175ZM232.854 71.1486C232.618 71.2883 232.366 71.3592 232.1 71.3614C231.832 71.3601 231.584 71.2976 231.356 71.174C231.123 71.0489 230.937 70.8697 230.799 70.6365C230.662 70.4033 230.597 70.1578 230.604 69.9C230.606 69.6408 230.673 69.3969 230.806 69.1685C230.937 68.9365 231.12 68.7508 231.357 68.6111C231.597 68.4694 231.849 68.3985 232.111 68.3983C232.372 68.3947 232.616 68.4547 232.844 68.5784C233.07 68.6986 233.252 68.8753 233.389 69.1085C233.527 69.3417 233.596 69.5897 233.596 69.8524C233.594 70.1116 233.53 70.3579 233.405 70.5913C233.278 70.8211 233.094 71.0069 232.854 71.1486ZM232.58 70.6839C232.817 70.5443 232.966 70.351 233.026 70.104C233.087 69.857 233.05 69.6186 232.914 69.3889C232.779 69.1591 232.59 69.0146 232.349 68.9553C232.107 68.896 231.868 68.9361 231.631 69.0758C231.395 69.2154 231.242 69.4063 231.174 69.6484C231.105 69.8905 231.139 70.1264 231.275 70.3562C231.41 70.5859 231.602 70.7329 231.852 70.7971C232.101 70.8613 232.343 70.8236 232.58 70.6839ZM229.613 61.1937L230.893 60.4389C231.45 60.1103 231.966 59.8761 232.442 59.7361C232.914 59.5982 233.346 59.5501 233.736 59.5918C234.121 59.632 234.465 59.7576 234.768 59.9685C235.069 60.1759 235.328 60.4641 235.545 60.833C235.718 61.1254 235.834 61.4181 235.895 61.711C235.955 62.004 235.956 62.2965 235.898 62.5886C235.835 62.8792 235.712 63.1677 235.529 63.454C235.346 63.7403 235.099 64.022 234.789 64.299C234.475 64.5781 234.095 64.8491 233.65 65.112L232.37 65.8667C231.81 66.1973 231.295 66.4306 230.827 66.5665C230.356 66.6988 229.928 66.7449 229.543 66.7046C229.155 66.6609 228.812 66.5325 228.513 66.3196C228.21 66.1087 227.951 65.8205 227.735 65.4551C227.563 65.1627 227.448 64.869 227.392 64.574C227.329 64.2775 227.326 63.986 227.382 63.6995C227.437 63.4095 227.556 63.1231 227.741 62.8402C227.921 62.556 228.167 62.2771 228.479 62.0035C228.79 61.7265 229.168 61.4565 229.613 61.1937ZM231.332 61.0171L229.902 61.8612C229.557 62.0645 229.258 62.2737 229.005 62.4888C228.75 62.7004 228.543 62.9141 228.384 63.1299C228.225 63.3456 228.115 63.5652 228.054 63.7887C227.992 64.0086 227.98 64.2314 228.019 64.457C228.053 64.6811 228.138 64.908 228.273 65.1378C228.44 65.4197 228.644 65.6347 228.886 65.7827C229.123 65.9294 229.394 66.0083 229.701 66.0196C230.005 66.0329 230.344 65.9786 230.717 65.8566C231.089 65.7311 231.491 65.541 231.922 65.2864L233.353 64.4423C233.694 64.241 233.992 64.0346 234.248 63.823C234.499 63.6134 234.706 63.398 234.866 63.1767C235.026 62.9554 235.141 62.7327 235.211 62.5086C235.275 62.2831 235.292 62.0573 235.262 61.8311C235.226 61.6035 235.141 61.3766 235.008 61.1503C234.837 60.8614 234.632 60.6447 234.392 60.5001C234.148 60.3576 233.871 60.2817 233.561 60.2725C233.247 60.2654 232.904 60.3245 232.532 60.45C232.157 60.5775 231.757 60.7666 231.332 61.0171ZM225.988 55.0484L227.267 54.2937C227.824 53.9651 228.34 53.7308 228.816 53.5909C229.288 53.4529 229.72 53.4048 230.111 53.4465C230.496 53.4868 230.84 53.6124 231.142 53.8233C231.443 54.0306 231.702 54.3188 231.92 54.6878C232.092 54.9802 232.209 55.2729 232.269 55.5658C232.329 55.8588 232.33 56.1513 232.273 56.4433C232.21 56.734 232.087 57.0225 231.904 57.3088C231.721 57.5951 231.474 57.8767 231.163 58.1538C230.849 58.4329 230.47 58.7039 230.024 58.9667L228.745 59.7215C228.184 60.0521 227.67 60.2854 227.201 60.4212C226.73 60.5536 226.302 60.5996 225.917 60.5594C225.53 60.5156 225.187 60.3873 224.887 60.1744C224.585 59.9635 224.325 59.6753 224.11 59.3098C223.937 59.0174 223.823 58.7237 223.766 58.4287C223.704 58.1323 223.701 57.8408 223.757 57.5543C223.811 57.2642 223.93 56.9778 224.116 56.695C224.295 56.4108 224.541 56.1319 224.854 55.8583C225.164 55.5813 225.542 55.3113 225.988 55.0484ZM227.707 54.8719L226.276 55.716C225.931 55.9193 225.632 56.1285 225.379 56.3436C225.124 56.5552 224.917 56.7689 224.758 56.9846C224.599 57.2004 224.489 57.42 224.429 57.6435C224.366 57.8634 224.354 58.0862 224.394 58.3117C224.427 58.5359 224.512 58.7628 224.648 58.9925C224.814 59.2745 225.018 59.4895 225.26 59.6375C225.497 59.7841 225.769 59.8631 226.076 59.8743C226.379 59.8877 226.718 59.8333 227.092 59.7113C227.463 59.5859 227.865 59.3958 228.297 59.1411L229.727 58.2971C230.069 58.0958 230.367 57.8894 230.622 57.6778C230.874 57.4682 231.08 57.2528 231.24 57.0315C231.401 56.8102 231.516 56.5875 231.585 56.3634C231.649 56.1379 231.666 55.9121 231.636 55.6859C231.6 55.4583 231.516 55.2313 231.382 55.0051C231.212 54.7162 231.006 54.4994 230.766 54.3549C230.522 54.2124 230.245 54.1365 229.935 54.1273C229.621 54.1201 229.278 54.1793 228.906 54.3048C228.531 54.4323 228.131 54.6213 227.707 54.8719ZM221.06 54.8448L221.661 54.4906C221.873 54.3653 222.099 54.2717 222.339 54.2097C222.58 54.1477 222.823 54.119 223.07 54.1236C223.311 54.1267 223.546 54.1621 223.773 54.2296L223.72 54.7605C223.407 54.7298 223.118 54.7381 222.855 54.7853C222.589 54.8346 222.318 54.9404 222.043 55.1027L221.427 55.4662L221.06 54.8448ZM220.308 53.5709L220.909 53.2166C221.121 53.0913 221.348 52.9977 221.588 52.9357C221.828 52.8737 222.072 52.845 222.318 52.8496C222.56 52.8528 222.794 52.8881 223.021 52.9556L222.969 53.4865C222.655 53.4558 222.366 53.4641 222.103 53.5113C221.837 53.5607 221.566 53.6664 221.291 53.8287L220.675 54.1922L220.308 53.5709Z" fill="#BBBBBB"/>
<g opacity="0.2">
<path d="M228.704 195.382C230.951 194.208 233.154 193.023 235.43 191.833C233.092 185.347 229.659 179.852 225.376 174.857C219.795 168.376 213.219 163.054 205.44 159.511C202.197 158.027 198.598 157.363 195.235 156.063C193.525 155.43 191.948 154.375 190.462 153.344C183.555 148.561 176.218 144.604 168.608 141.153C161.638 138.011 154.432 135.504 147.054 133.482C138.622 131.164 130.12 129.307 121.496 128.02C111.575 126.542 101.631 125.155 91.7226 123.632C78.3436 121.599 65.2483 118.558 52.9695 112.631C48.3049 110.419 43.8001 107.961 39.1123 105.84C37.0887 104.934 34.8307 104.472 32.6627 104.033C29.6558 103.401 26.705 103.577 23.7204 106.025C23.821 103.866 23.8054 102.157 24.015 100.506C24.9388 93.0122 26.8134 85.8355 30.7529 79.3114C34.8522 72.5403 40.6304 68.2912 48.5632 67.047C56.7728 65.7542 64.7504 66.8508 72.57 69.4915C82.6397 72.9045 91.8229 77.9859 100.577 83.8932C105.633 87.2862 110.626 90.8309 115.563 94.409C119.753 97.4346 124.437 99.2908 129.299 100.737C139.597 103.824 150.2 104.517 160.873 104.94C170.953 105.33 181.063 105.704 191.124 106.449C197.138 106.872 202.957 108.516 208.213 111.601C214.3 115.187 219.806 119.536 224.794 124.497C231.557 131.235 237.781 138.483 242.966 146.496C247.143 152.928 251.325 159.433 255.02 166.149C258.681 172.808 261.935 179.746 263.492 187.303C263.781 188.698 263.968 190.115 264.036 191.526C264.179 195.069 261.746 198.451 258.56 199.911C251.504 203.158 244.532 201.697 237.651 199.61C234.55 198.69 231.629 197.169 228.638 195.917C228.684 195.737 228.702 195.574 228.704 195.382Z" fill="white"/>
<path d="M187.92 156.866C182.233 157.129 177.732 158.754 174.807 163.114C171.614 167.862 173.267 172.346 176.547 176.482C176.45 176.577 176.354 176.672 176.257 176.767C174.952 176.239 173.671 175.62 172.327 175.153C163.71 172.067 155.197 168.575 146.452 165.984C137.302 163.288 127.956 161.167 118.585 159.326C104.613 156.612 90.564 154.478 76.5573 151.899C69.1963 150.553 61.8185 149.179 54.6483 147.186C44.5911 144.376 35.9561 139.124 29.5844 130.589C26.1221 125.951 23.723 120.914 22.7784 115.171C22.2491 112.009 23.2174 109.185 25.4302 108.147C27.5413 107.13 29.7404 107.169 32.0036 107.705C37.1154 108.927 41.7051 111.335 46.1918 113.957C53.3849 118.189 61.0833 121.207 69.109 123.42C82.2001 127.036 95.7032 128.309 109.077 130.269C117.55 131.493 126.005 132.881 134.43 134.477C148.053 137.053 160.956 141.773 173.26 148.068C177.738 150.351 182.033 152.971 186.363 155.456C186.795 155.736 187.181 156.196 187.92 156.866Z" fill="white"/>
<path d="M61.0629 62.8022C63.5713 62.2004 66.0928 61.3618 68.6216 61.0534C77.495 59.9797 86.3633 58.8327 95.2789 58.1541C107.755 57.1691 120.209 56.2742 132.525 54.0472C140.634 52.5844 148.574 50.3816 155.979 46.6239C156.335 46.4517 156.775 46.4211 157.025 46.1974C159.183 44.1605 160.872 45.3404 162.631 46.8986C168.14 51.7048 172.237 57.4198 174.492 64.4126C174.845 65.4642 174.706 66.0046 173.563 66.5263C168.685 68.6784 163.842 70.8872 159.048 73.181C151.657 76.7019 145.074 81.4639 138.893 86.7138C135.761 89.3639 132.986 92.4903 130.172 95.4867C128.552 97.2061 128.211 97.5984 126.143 96.489C122.161 94.3335 118.218 92.1162 114.447 89.6069C102.684 81.7712 91.1842 73.4749 77.9476 68.1887C72.8698 66.183 67.4131 65.0881 62.1343 63.5828C61.819 63.5015 61.5205 63.4485 61.222 63.3956C61.1501 63.2089 61.1065 63.0056 61.0629 62.8022Z" fill="white"/>
<path d="M188.517 181.369C186.502 179.313 184.301 177.329 182.405 175.087C181.058 173.515 180.017 171.686 179.909 169.497C179.765 166.794 180.97 164.823 183.147 163.272C187.263 160.347 191.781 160.239 196.454 161.3C205.845 163.434 213.375 168.689 219.673 175.74C222.408 178.823 224.808 182.179 227.322 185.468C228.182 186.603 228.844 187.854 229.477 189.122C229.599 189.394 229.17 190.219 228.825 190.347C224.759 191.867 220.743 193.473 216.583 194.706C209.97 196.699 203.201 197.714 196.276 196.913C193.007 196.551 189.825 195.946 187.03 194.121C182.894 191.445 182.446 187.128 185.918 183.629C186.759 182.789 187.74 182.057 188.517 181.369Z" fill="white"/>
</g>
<path fill-rule="evenodd" clip-rule="evenodd" d="M71.727 148.305L70.3889 151.437L73.4956 150.04C84.855 144.935 109.362 133.72 121.967 127.271C120.991 127.008 120.102 126.42 119.476 125.553C107.746 131.479 87.3448 140.863 75.5141 146.212L84.5725 125.008C83.6496 125.102 82.7195 124.908 81.9132 124.461L71.727 148.305ZM121.203 118.801C122.049 118.398 122.968 118.28 123.843 118.416L115.919 82.3406C115.048 82.6885 114.115 82.7475 113.241 82.5493L121.203 118.801ZM37.882 88.4039L109.725 77.7551C109.652 78.6322 109.833 79.539 110.297 80.3599L41.7613 90.5185L81.9529 116.514C81.9053 116.54 81.858 116.567 81.811 116.594C81.0326 117.054 80.4418 117.709 80.0645 118.461L37.3546 90.8367L34.3928 88.9211L37.882 88.4039Z" fill="#BBBBBB"/>
<circle cx="84.1804" cy="120.393" r="3.02746" transform="rotate(-120.541 84.1804 120.393)" fill="#BBBBBB"/>
<circle cx="123.588" cy="123.402" r="3.02746" transform="rotate(-120.541 123.588 123.402)" fill="#BBBBBB"/>
<circle cx="114.074" cy="78.2531" r="3.02746" transform="rotate(-120.541 114.074 78.2531)" fill="#BBBBBB"/>
<path d="M46.3502 104.69L33.394 95.6805L20.8218 105.219L25.3866 90.1124L12.4304 81.103L28.2078 80.7763L32.7726 65.6701L37.9588 80.5744L53.7362 80.2477L41.164 89.7857L46.3502 104.69Z" fill="white"/>
<path d="M78.4999 164.924L69.4222 158.611L60.6135 165.294L63.8118 154.71L54.7341 148.397L65.7885 148.169L68.9868 137.584L72.6205 148.027L83.6749 147.798L74.8662 154.481L78.4999 164.924Z" fill="white"/>
</svg>
