<svg width="99" height="117" viewBox="0 0 99 117" fill="none" xmlns="http://www.w3.org/2000/svg">
<g opacity="0.1">
<path d="M1.44406 113.26C3.49512 114.225 5.54617 114.18 7.65756 113.757C7.67264 113.124 7.28052 113.018 6.82809 113.124C5.48585 113.471 4.14361 113.305 2.7863 113.184C1.83617 113.109 1.57979 112.611 2.04731 111.767C2.39418 111.133 2.57516 110.198 3.08792 109.927C3.61577 109.655 4.4754 110.123 5.18422 110.123C10.342 110.078 15.4998 110.047 20.6576 110.047C20.9593 110.047 21.5022 110.213 21.4117 109.64C21.3815 109.474 20.8235 109.263 20.5068 109.263C16.2237 109.263 11.9256 109.399 7.64248 109.459C6.39073 109.444 5.13898 109.354 3.88723 109.278C3.70626 109.263 3.5102 109.173 3.23873 109.097C3.5856 108.358 3.90231 107.68 4.18886 107.091C5.59142 107.272 6.93365 107.438 8.3513 107.619C8.30605 106.82 7.83853 106.79 7.35593 106.76C6.43597 106.714 5.53109 106.654 4.43016 106.579C4.86752 105.674 5.21439 104.965 5.6065 104.136C6.48122 105.267 7.65756 105.448 8.78866 105.523C10.9905 105.659 13.1924 105.674 15.3943 105.719C15.5149 105.719 15.6205 105.659 15.7713 105.629C15.7713 105.131 15.5602 104.92 15.0926 104.935C14.2179 104.965 13.3432 104.995 12.4534 104.965C11.0207 104.92 9.60305 104.875 8.17032 104.754C7.65756 104.709 7.14479 104.528 6.64711 104.347C6.10418 104.151 5.99861 103.743 6.255 103.261C8.72833 98.6309 12.0161 98.5404 16.7667 98.5856C23.0254 98.6309 29.3143 99.0833 35.5429 98.4499C37.4281 98.2539 39.4037 97.9221 40.8515 96.5798C44.3655 93.5334 46.3864 89.3559 48.543 85.3443C48.8295 84.8164 49.0859 84.6807 49.659 84.922C50.8806 85.4197 52.1474 85.8269 53.4293 86.2944C52.9618 87.9081 52.4943 89.5369 51.8458 91.0902C48.362 98.8119 45.1346 106.639 42.1334 114.557C41.7564 115.477 40.942 115.718 40.0824 115.235C39.8562 115.1 39.5696 115.039 39.3132 115.039C37.2622 115.07 35.196 115.085 33.145 115.205C31.4408 115.296 29.7517 115.582 28.0626 115.688C21.3514 116.05 14.6251 115.944 7.91394 116.095C5.87796 116.095 3.79674 116.578 1.79093 116.005C0.343124 115.567 1.03686 114.255 1.44406 113.26Z" fill="white"/>
<path d="M60.0797 69.9918C59.1296 69.5243 58.2097 69.0718 57.1992 68.5742C59.1749 63.5973 61.4672 58.7713 63.4881 53.8095C64.8756 50.371 66.1575 46.8721 68.0125 43.6598C68.284 43.1772 68.9476 42.9359 69.4151 42.5589C69.6865 42.3327 70.1993 42.1366 69.8524 41.6993C69.7167 41.5334 69.219 41.6691 68.842 41.6691C69.9128 39.1958 70.893 36.5867 71.9638 34.0983C72.4766 32.8918 73.11 31.7305 73.6378 30.524C73.8188 30.1017 73.7585 29.589 73.9395 29.1667C74.8745 26.9045 75.885 24.6725 76.82 22.3952C77.3026 21.2188 77.6193 19.9671 78.0717 18.7757C78.2829 18.2327 78.675 17.7501 78.9163 17.2072C80.2736 13.7536 81.7516 10.3603 83.1994 6.95192C83.8479 5.20249 84.5416 3.46814 85.2354 1.74887C85.7783 0.617776 85.7481 0.150256 87.0904 0.828915C87.769 1.14562 88.4175 1.53774 89.0811 1.88461C89.5637 2.14099 89.4581 2.54818 89.3073 2.92522C87.95 6.01688 86.7586 9.18396 85.4465 12.2907C84.1495 15.3221 82.8073 18.3534 81.465 21.3697C80.9372 22.5611 80.4395 23.7827 79.7156 24.8534C79.0369 25.8488 78.9314 27.0251 78.3734 28.0658C77.3328 29.9962 76.4279 32.0171 75.5833 34.038C73.5926 39.0751 71.632 44.1123 69.3547 49.0288C69.2793 49.1947 69.0833 49.2852 68.9777 49.451C68.8571 49.6471 68.7364 49.8582 68.661 50.0694C68.5856 50.2956 68.6308 50.5671 68.5404 50.7782C65.7503 57.2179 63.2921 63.7481 60.0797 69.9918Z" fill="white"/>
<path d="M52.7212 77.6079C53.9428 78.1358 55.0739 78.6334 56.2954 79.1613C55.6922 80.6242 55.1493 81.9362 54.5762 83.2332C54.5158 83.369 54.1991 83.5499 54.0785 83.5047C52.8418 83.0523 51.6202 82.5697 50.3232 82.0569C51.1527 80.5186 51.9219 79.101 52.7212 77.6079Z" fill="white"/>
<path d="M58.9787 72.1338C58.4207 73.4911 57.9381 74.7429 57.3951 75.9795C57.3047 76.1756 56.9125 76.4018 56.7467 76.3566C55.8719 76.07 55.0274 75.7081 54.1074 75.3612C54.7258 73.9737 55.329 72.6164 55.9624 71.2742C56.0227 71.1384 56.2942 70.9574 56.3998 71.0027C57.2594 71.3345 58.119 71.7417 58.9787 72.1338Z" fill="white"/>
<path d="M49.3574 84.1232C49.9456 82.6905 49.9456 82.6905 51.1672 83.158C52.0117 83.4898 52.8563 83.8065 53.6556 84.1986C54.0628 84.455 54.108 85.6464 53.3238 85.3901C52.0117 84.9829 50.7147 84.5606 49.3574 84.1232Z" fill="white"/>
<path d="M53.0527 77.0651C53.3242 76.6277 53.5353 76.2808 53.7616 75.9038C54.6966 76.2959 55.6316 76.6126 56.5214 77.0651C57.2604 77.4421 56.4762 77.9096 56.5365 78.3771C55.3602 77.9247 54.2442 77.5175 53.0527 77.0651Z" fill="white"/>
<path d="M59.7176 70.6255C59.416 71.4851 59.235 71.5605 58.5262 71.2136C57.8476 70.8969 57.1689 70.5953 56.4902 70.2786C56.7315 69.1475 56.8522 69.0872 57.923 69.615C58.5262 69.9619 59.0691 70.2786 59.7176 70.6255Z" fill="white"/>
<path d="M84.3768 95.7205C85.7341 96.8063 86.7445 99.0534 85.0554 100.275C81.632 102.462 74.6644 101.934 70.7282 101.346C69.6273 101.18 68.8883 100.396 68.3755 99.4154C67.8929 98.4954 68.1342 97.6207 68.6319 96.8516C70.879 93.3075 75.2073 92.3423 78.661 93.0209C79.6563 93.217 80.6819 93.3527 81.6471 93.6543C82.3408 93.8806 83.2004 94.2123 83.5322 94.7704C84.0601 95.6752 84.3315 96.7912 84.4522 97.8319C84.5427 98.5407 83.8188 98.963 83.2004 99.2947C82.9139 99.4456 82.4916 99.5813 82.8083 99.9734C82.929 100.124 83.3965 100.139 83.6227 100.034C84.98 99.4154 85.3721 98.2843 84.8141 96.8817C84.6633 96.4896 84.5276 96.0975 84.3768 95.7205Z" fill="white"/>
<path d="M85.9299 100.969C85.7338 102.523 85.5529 103.985 85.3568 105.433C85.3417 105.569 85.1758 105.75 85.0401 105.825C80.6665 107.786 75.3881 108.857 70.8787 106.7C70.6978 106.625 70.5922 106.338 70.5017 106.127C70.3811 105.856 70.3057 105.569 70.2001 105.282C70.1398 105.298 70.0794 105.313 70.0191 105.328C69.9739 105.554 69.9286 105.78 69.8683 106.021C69.808 106.037 69.7627 106.052 69.7024 106.052C69.6119 105.418 69.5063 104.77 69.4159 104.136C69.3254 104.136 69.25 104.136 69.1595 104.151C69.0991 104.619 69.0237 105.086 68.9634 105.554C68.888 105.554 68.7975 105.554 68.7221 105.554C68.7221 104.996 68.7674 104.438 68.707 103.88C68.6467 103.352 68.9785 102.704 68.2546 102.176C68.1943 103.126 68.1339 103.925 68.0887 104.724C67.9831 104.724 67.8625 104.709 67.7569 104.709C67.6664 103.186 67.8323 101.648 67.8926 99.8984C68.2094 100.245 68.3752 100.411 68.5261 100.592C69.4762 101.738 70.7128 102.266 72.1757 102.447C74.1212 102.704 76.0667 102.628 78.0273 102.658C80.0633 102.688 82.0088 102.402 83.9392 101.859C84.5575 101.678 85.1155 101.331 85.9299 100.969Z" fill="white"/>
</g>
<path fill-rule="evenodd" clip-rule="evenodd" d="M28.221 102.621C27.9397 102.397 27.6232 102.216 27.2812 102.087L41.4896 69.0673C41.8259 69.1947 42.187 69.2719 42.5635 69.2897L28.221 102.621ZM45.1609 63.2535L60.6021 27.369L59.6153 26.9443L44.2611 62.6266C44.5937 62.788 44.8971 63.0003 45.1609 63.2535ZM28.7427 107.607C29.0239 107.268 29.2425 106.875 29.3807 106.445L53.4553 103.463C53.438 103.604 53.4291 103.748 53.4291 103.893C53.4291 104.115 53.4496 104.331 53.4888 104.541L28.7427 107.607ZM60.4396 103.68C60.4174 103.31 60.338 102.956 60.21 102.626L76.8922 100.559C76.9626 100.928 77.0909 101.277 77.2672 101.595L60.4396 103.68ZM82.6516 97.2597L91.2607 77.9918L90.2799 77.5535L81.7349 96.678C82.0711 96.8241 82.3799 97.0212 82.6516 97.2597Z" fill="white"/>
<circle cx="43.1609" cy="65.471" r="1.79473" fill="white"/>
<circle cx="26.3846" cy="105.688" r="1.79473" fill="white"/>
<circle cx="57.2" cy="103.656" r="1.79473" fill="white"/>
<circle cx="80.6863" cy="99.8973" r="1.79473" fill="white"/>
<path d="M61.6896 21.7014L61.5545 27.1742L66.7177 28.9939L61.471 30.5566L61.3359 36.0295L58.2284 31.5224L52.9816 33.0852L56.3078 28.7369L53.2002 24.2299L58.3634 26.0496L61.6896 21.7014Z" fill="white"/>
<path d="M93.2744 71.1711L93.1724 75.3029L97.0704 76.6767L93.1093 77.8565L93.0073 81.9882L90.6613 78.5856L86.7002 79.7654L89.2113 76.4827L86.8652 73.0801L90.7633 74.4538L93.2744 71.1711Z" fill="white"/>
</svg>
