<svg width="89" height="86" viewBox="0 0 89 86" fill="none" xmlns="http://www.w3.org/2000/svg">
<path opacity="0.1" d="M88.3354 43.1583C89.1281 100.036 0.513758 100.036 0.989327 43.6339C-0.342265 -13.5612 89.1281 -13.7514 88.3354 43.1583ZM51.5898 69.9487C70.8979 68.2683 63.4791 68.0147 73.7196 51.8137C74.861 47.9457 68.8054 42.5242 67.3787 38.6563C65.2862 36.0882 52.2556 39.6708 48.2291 39.4489C44.171 42.0487 42.9662 48.5164 40.2396 52.5429C40.6835 57.679 45.6294 62.0543 47.4682 66.9368C48.7047 69.3146 50.068 70.5194 51.5898 69.9487ZM47.6268 36.8174C53.8092 36.1833 59.7062 35.6126 65.5716 34.9785C66.0154 34.9151 66.5544 34.3761 66.7446 33.964C67.4104 30.5399 71.6588 25.372 69.8517 22.2967C65.7618 18.9043 60.4671 9.20271 55.7431 8.4101C37.5764 9.26612 43.5686 8.66373 37.4179 24.6428C37.2911 25.0867 37.3862 25.8159 37.6715 26.133C41.0005 29.6205 44.0124 33.7104 47.6268 36.8174ZM46.9293 71.1535C43.2832 65.9856 41.3493 59.0106 36.6887 55.0792C33.3914 55.0158 22.6436 50.7991 21.0583 53.1453C19.2512 57.0766 14.8442 60.691 14.5589 64.9394C17.1587 68.3 18.839 72.9923 22.2314 75.5287C28.2236 76.6384 34.2474 77.7163 40.2713 78.6992C43.4418 77.8431 44.6148 73.5313 46.9293 71.1535ZM31.2989 4.32021C21.8192 7.93453 13.1956 13.5779 10.4056 24.0722C10.0885 25.2769 10.1837 25.8159 11.2616 26.4183C14.3687 27.4646 17.6342 31.7447 20.8364 30.8886C25.4019 28.0035 31.3623 26.5451 35.1669 22.804C39.0665 8.18817 44.2344 10.1221 31.2989 4.32021ZM8.50331 27.845C1.36978 35.7077 0.989326 57.5522 12.4664 61.8006C21.5022 48.6115 20.234 50.387 18.4268 34.7883C16.7465 31.2691 11.6104 30.318 8.50331 27.845ZM85.4503 46.6775C82.5335 48.5798 78.9826 49.6261 76.573 52.0039C73.5611 57.5522 70.5809 63.1005 67.6324 68.6805C66.7763 71.0583 68.425 73.6581 68.742 76.0994C76.3828 72.7387 85.6723 56.3791 85.4503 46.6775ZM81.836 25.9744C78.6338 17.5727 66.4593 6.06396 59.7062 5.42987C62.2743 11.6757 68.2981 15.7973 72.3563 21.1553C75.2097 23.1844 78.6973 24.2624 81.836 25.9744ZM24.8946 78.7943C29.5552 82.2501 40.2396 84.8181 45.9781 83.9621C39.3836 80.1893 31.9013 80.4112 24.8946 78.7943Z" fill="white"/>
<path fill-rule="evenodd" clip-rule="evenodd" d="M41.7995 10.408L51.177 48.6784L76.5785 43.6484L78.8548 43.1976L77.1075 44.7246C69.8919 51.03 57.138 62.1906 51.0077 67.599C50.9013 67.1684 50.7213 66.7669 50.4818 66.4084C56.2676 61.3054 67.318 51.6333 74.5437 45.3167L50.836 50.0113L50.2539 50.1266L50.1126 49.5502L40.5939 10.7034L41.7995 10.408ZM44.4792 66.0112C44.3402 65.8107 44.1972 65.6033 44.0505 65.3893C42.0226 62.4324 39.2952 58.2492 36.2979 53.5576C30.3044 44.1763 23.2448 32.7832 18.5723 25.1529L17.5137 25.8011C22.1884 33.4351 29.2525 44.8355 35.2518 54.2259C38.2509 58.9201 40.9871 63.1172 43.0267 66.0914C43.2889 66.4736 43.5399 66.8362 43.7789 67.1777C43.9413 66.7459 44.1802 66.3515 44.4792 66.0112Z" fill="white"/>
<circle cx="47.1234" cy="68.5653" r="1.87046" fill="white"/>
<circle cx="40.39" cy="7.4022" r="1.87046" fill="white"/>
<path d="M78.7451 35.6902L80.505 41.1067H86.2002L81.5927 44.4542L83.3526 49.8707L78.7451 46.5232L74.1375 49.8707L75.8974 44.4542L71.2899 41.1067H76.9851L78.7451 35.6902Z" fill="white"/>
<path d="M15.1568 19.6671L17.9117 22.8062L21.7485 21.1561L19.6144 24.7462L22.3693 27.8853L18.2954 26.965L16.1613 30.5552L15.7776 26.3963L11.7037 25.476L15.5405 23.826L15.1568 19.6671Z" fill="white"/>
<path d="M47.7716 45.7858L50.6889 47.2723L53.0041 44.9571L52.4919 48.1909L55.4092 49.6774L52.1754 50.1896L51.6632 53.4235L50.1767 50.5061L46.9428 51.0183L49.258 48.7031L47.7716 45.7858Z" fill="white"/>
</svg>
