<svg width="107" height="78" viewBox="0 0 107 78" fill="none" xmlns="http://www.w3.org/2000/svg">
<g opacity="0.1">
<path d="M29.455 71.1281C29.0289 71.2409 28.6153 71.454 28.1892 71.4665C23.6647 71.5793 19.1402 71.5793 14.6533 70.7897C12.0965 70.3385 9.63999 69.574 7.40908 68.1828C4.25071 66.2151 2.48352 63.3575 2.03233 59.7229C1.69393 57.0533 1.51846 54.3712 1.4182 51.6766C1.25527 47.3651 1.28033 43.0412 1.1174 38.7172C0.95447 34.2052 0.666206 29.6808 0.428075 25.1688C0.327809 23.3013 0.25261 21.4214 0.152344 19.4536C0.515807 19.5664 0.779005 19.6667 1.0422 19.7419C2.94725 20.3059 4.87737 20.168 6.82002 20.0678C12.2594 19.7795 17.5109 18.3883 22.7873 17.1851C27.2366 16.1699 31.7235 15.5433 36.2731 15.3678C40.5093 15.2174 44.733 15.1297 48.9692 15.1172C53.0676 15.1172 57.1158 15.6937 61.1515 16.4081C66.5533 17.3606 71.9552 18.3006 77.4322 18.7017C81.5932 19.0024 85.7668 19.228 89.9278 18.7393C94.4272 18.2129 98.4629 16.6587 101.546 13.162C102.047 12.5854 102.499 11.9462 103.05 11.2444C103.088 11.5702 103.125 11.8209 103.125 12.0716C103.163 14.0894 103.238 16.1198 103.238 18.1377C103.238 21.6219 103.175 25.1061 103.2 28.5778C103.226 32.9143 103.125 37.2634 103.439 41.5873C103.627 44.2444 104.504 46.8387 105.055 49.4707C105.394 51.1 105.845 52.7168 105.995 54.3712C106.484 59.397 104.441 62.593 99.7163 64.4354C97.1093 65.4506 94.3771 65.8767 91.6073 66.1524C86.1428 66.6914 80.6908 66.3404 75.2263 66.0271C75.1887 66.0271 75.1511 66.002 75.101 65.977C75.3266 64.8866 75.6023 63.7962 75.7653 62.6933C75.8655 62.0415 76.0911 61.5778 76.5799 61.1266C78.0839 59.7229 78.4724 57.8429 78.6103 55.9003C78.7732 53.4688 78.4348 51.075 78.109 48.6686C77.6828 45.6105 77.2191 42.5649 76.2666 39.6196C74.8002 35.0951 71.9677 31.7237 67.8192 29.4426C67.2928 29.1544 67.0547 28.8034 66.9293 28.2269C65.9643 23.3515 62.8811 20.5315 58.1561 19.3784C54.7471 18.5387 51.3004 18.4886 47.8538 19.1027C46.6005 19.3283 45.4349 19.792 44.4322 20.5691C42.9658 21.7096 41.5245 22.8752 40.1333 24.1035C39.2936 24.8304 38.5792 25.6827 38.4915 26.8858C38.4789 26.9861 38.3411 27.124 38.2283 27.1616C33.3904 28.8912 30.6707 32.6637 28.7406 37.138C28.0262 38.8049 27.3745 40.4969 26.7604 42.2014C26.635 42.5524 26.7729 43.0036 26.7478 43.3921C26.7228 43.7932 26.7478 44.282 26.5473 44.5828C25.9708 45.435 25.9833 46.4001 25.8204 47.3275C25.1937 50.9872 24.7049 54.672 24.8553 58.3944C25.0433 62.8938 26.4094 66.9796 29.1292 70.5892C29.2043 70.6895 29.2795 70.7897 29.3547 70.89C29.3798 70.9025 29.3923 70.9527 29.455 71.1281ZM5.85496 31.1973C5.89256 32.0495 5.93016 32.9018 5.96776 33.7541C6.00536 34.669 6.54429 35.1703 7.44668 35.1578C7.72241 35.1578 7.98561 35.1202 8.26134 35.1076C10.9184 34.9071 13.5754 34.694 16.2325 34.506C17.0847 34.4434 17.6487 34.0298 17.6613 33.1775C17.6738 31.6234 17.6487 30.0568 17.5485 28.5026C17.4858 27.5125 16.997 27.1365 15.9943 27.1114C15.0794 27.0864 14.1645 27.0738 13.237 27.0989C10.5549 27.1741 7.92294 27.5 5.40376 28.4776C4.57657 28.8034 4.21311 29.3925 4.35097 30.1695C4.47631 30.8714 4.90243 31.1722 5.85496 31.1973ZM99.4781 48.0419C99.4155 46.5881 98.5256 45.2971 97.3099 44.9212C96.6205 44.7081 95.9437 44.9838 95.6805 45.5854C95.4174 46.1745 95.5803 46.9515 96.1443 47.2273C96.7709 47.5406 96.8336 47.9417 96.6456 48.5433C96.42 49.2827 96.7835 49.9344 97.4853 50.1851C98.112 50.4107 98.7763 50.1475 99.077 49.4582C99.2651 49.0195 99.3528 48.5182 99.4781 48.0419ZM9.51466 46.6006C9.53973 45.7734 9.01333 45.1593 8.2488 45.1217C7.44668 45.0841 6.87015 45.7107 6.84508 46.6758C6.82002 47.503 7.35895 48.1171 8.11094 48.1547C8.9256 48.1923 9.48959 47.5782 9.51466 46.6006ZM8.64987 54.0579C9.36426 54.0955 9.85306 53.6693 9.90319 52.9675C9.96585 52.1278 9.42693 51.476 8.6248 51.4134C7.93547 51.3632 7.39655 51.852 7.35895 52.5789C7.32135 53.3685 7.89787 54.0203 8.64987 54.0579ZM9.0384 39.8828C9.05093 39.0556 8.512 38.4791 7.72241 38.454C7.00802 38.4289 6.50669 38.9052 6.49415 39.6321C6.48162 40.4092 7.07068 41.0484 7.82267 41.0735C8.56213 41.086 9.02586 40.6348 9.0384 39.8828Z" fill="white"/>
<path d="M73.0706 3.74919C73.1959 4.73931 73.221 5.54144 73.4215 6.29343C73.9479 8.26115 75.3516 9.47687 77.1564 10.2289C80.4526 11.5824 83.8241 11.5073 87.208 10.5297C87.96 10.3166 88.712 10.0283 89.4139 9.66487C91.5069 8.61208 93.0861 7.17076 92.9859 4.51371C95.1917 4.65158 97.4226 4.47611 99.3402 5.7921C99.7789 6.0929 100.192 6.4689 100.531 6.88249C101.258 7.77235 101.358 8.78754 100.819 9.80273C100.506 10.3793 100.117 10.9558 99.6661 11.4321C97.009 14.2144 93.7629 15.7685 89.9403 16.1947C86.2179 16.6083 82.5206 16.2824 78.8233 16.0067C75.69 15.7685 72.5442 15.4803 69.4234 15.0667C66.1773 14.6406 62.9563 14.039 59.7352 13.5C53.8446 12.5224 47.9289 12.1214 41.9757 12.3971C38.1029 12.5726 34.2176 12.7606 30.3699 13.2118C27.0486 13.6003 23.7649 14.3648 20.4686 14.9915C16.8465 15.6808 13.2495 16.4829 9.61488 17.0845C7.27116 17.4731 4.88985 17.5984 2.50854 17.3101C2.44587 17.2976 2.38321 17.2976 2.32054 17.2851C0.240027 16.8965 -0.461834 15.6557 0.440558 13.7507C1.69388 11.1313 3.61146 9.06327 6.08051 7.54675C6.81997 7.08302 7.64716 6.94516 8.52449 6.93263C9.48954 6.92009 10.4421 6.61929 11.4071 6.56916C14.5154 6.44383 17.6236 6.26836 20.7193 6.30596C25.4945 6.3561 30.2696 6.55663 35.0448 6.71956C40.0581 6.88249 44.9962 6.2809 49.8841 5.26571C53.3433 4.55131 56.84 4.16278 60.3744 4.06252C63.8085 3.96225 67.2551 3.83692 70.6893 3.72412C71.5164 3.72412 72.3186 3.74919 73.0706 3.74919ZM66.2149 4.88971C66.2024 4.82704 66.1898 4.77691 66.1648 4.71425C64.7986 5.06518 63.42 5.34091 62.0915 5.81717C61.5901 5.99263 61.0763 6.53156 60.8507 7.03289C60.1864 8.52434 60.7379 10.2289 62.0413 11.2065C63.8837 12.5976 66.8792 12.5851 68.7215 11.1939C69.3983 10.6801 69.837 10.0158 69.9874 9.1886C70.4637 6.70703 68.8469 4.87718 66.2149 4.88971Z" fill="white"/>
<path d="M49.8464 77.1314C45.8859 77.0061 41.5619 76.5925 37.7017 74.4117C31.6607 71.0277 28.1013 65.9267 27.5122 58.9081C27.2114 55.2735 27.813 51.714 28.3269 48.1421C28.5149 46.8261 28.9911 45.6229 29.3922 44.3946C29.8183 43.0661 30.821 42.1637 31.9239 41.3741C34.9569 39.2184 38.4036 38.0027 42.0257 37.4262C48.4427 36.411 54.7594 37.1128 60.7252 39.6696C67.23 42.4645 71.0902 47.6658 72.8323 54.4588C73.7347 57.9806 73.7472 61.515 72.5942 65.0118C71.2907 68.9597 68.5209 71.5792 64.9489 73.4717C60.4996 75.8405 55.5991 77.0437 49.8464 77.1314ZM30.3948 55.098C30.1066 58.1812 30.9087 61.1891 32.137 64.0593C33.9041 68.2077 37.1502 70.8021 41.399 72.0304C48.568 74.0858 55.361 72.9453 61.6778 69.0475C64.3223 67.4182 66.503 65.2624 67.5809 62.2795C69.7993 56.1257 68.6713 50.4356 64.1468 45.8485C57.7799 39.3939 49.884 37.6142 41.1609 39.82C36.9497 40.8853 33.7412 43.4546 31.8487 47.4653C30.7207 49.8466 30.2444 52.3783 30.3948 55.098Z" fill="white"/>
<path d="M30.9971 38.7922C32.4008 35.3832 34.168 32.2624 37.4767 30.3699C39.4821 29.2168 41.713 28.7656 43.9815 28.5024C47.7415 28.0763 51.4764 28.4272 55.2113 28.8032C57.9936 29.079 60.7635 29.4675 63.4205 30.3824C67.3058 31.7235 70.5394 33.9168 72.5823 37.6016C73.6226 39.4815 74.0863 41.562 74.5375 43.6426C75.2895 47.1268 75.9036 50.6361 75.9663 54.2206C75.9788 54.8598 75.9663 55.5115 75.8785 56.1507C75.4775 54.0326 74.9761 51.9646 74.1364 49.9969C70.8402 42.289 65.1501 37.4261 56.9283 35.6088C52.7547 34.6813 48.506 34.3178 44.2447 34.5184C39.645 34.7314 35.3962 36.2104 31.4232 38.5415C31.2728 38.6293 31.1349 38.7045 30.9971 38.7922Z" fill="white"/>
<path d="M64.0715 27.6C56.7897 26.0333 49.4954 25.2814 42.0381 26.1085C42.1509 25.9707 42.2261 25.8453 42.3389 25.7451C43.4794 24.7675 44.5949 23.7648 45.773 22.8374C46.8383 21.9976 48.0666 21.5089 49.4452 21.4211C52.5409 21.2206 55.6116 21.2081 58.5945 22.2358C61.1888 23.1256 63.2318 24.592 64.0214 27.3869C64.0339 27.4747 64.059 27.5499 64.0715 27.6Z" fill="white"/>
<path d="M77.0439 2.14505C77.4701 1.53092 78.0842 1.17999 78.7735 1.01706C81.6186 0.377867 84.4762 0.277601 87.2711 1.24266C88.0231 1.50586 88.7374 1.93199 89.3641 2.42078C90.091 2.99731 90.0284 3.47357 89.1636 3.77437C88.2612 4.10023 87.2961 4.32583 86.3311 4.43863C84.3383 4.67676 82.333 4.63916 80.3778 4.1253C79.1119 3.79944 77.9714 3.21037 77.0439 2.14505Z" fill="white"/>
<path d="M76.2419 5.79224C77.5203 6.10557 78.7861 6.46903 80.077 6.71969C83.0599 7.29622 86.0554 7.44662 89.0634 6.76983C88.2487 7.43409 87.2962 7.82262 86.2935 8.06075C83.9999 8.62474 81.6813 8.77514 79.3877 8.13595C78.6357 7.93542 77.9088 7.58449 77.232 7.18342C76.7808 6.92023 76.4549 6.43143 76.0664 6.05543C76.1165 5.98023 76.1792 5.8925 76.2419 5.79224Z" fill="white"/>
<path d="M13.5129 29.7808C13.5379 29.7808 13.5505 29.7808 13.5755 29.7808C15.2299 29.7557 15.2299 29.7682 15.067 31.4101C15.0545 31.5605 14.8289 31.7861 14.6785 31.8111C12.8611 31.9991 11.0313 32.1495 9.20144 32.3375C8.78784 32.3751 8.59985 32.2498 8.53718 31.8237C8.34918 30.4325 8.37425 30.3322 9.7153 30.1317C10.9686 29.9437 12.2345 29.8434 13.5003 29.7056C13.5129 29.7181 13.5129 29.7557 13.5129 29.7808Z" fill="white"/>
<path d="M65.4502 9.79045C64.648 9.67765 63.9587 9.50219 63.5075 8.81286C63.2694 8.4494 63.2694 8.13606 63.7958 8.04833C64.648 7.89793 65.5128 7.6974 66.3776 7.6598C66.7035 7.64727 67.2549 7.94807 67.3427 8.2238C67.4304 8.49953 67.1421 9.03846 66.8664 9.23899C66.4779 9.52725 65.9389 9.61498 65.4502 9.79045Z" fill="white"/>
<path d="M48.4302 70.3386C44.1062 70.2885 40.6345 69.4613 37.6641 67.0925C36.461 66.1275 35.4082 65.012 34.8567 63.5582C34.393 62.3299 33.9167 61.0766 34.0295 59.6979C34.0546 59.4347 34.017 59.1465 33.9418 58.8958C33.4655 57.2916 33.3903 55.6623 33.6034 54.0079C33.641 53.7196 33.5157 53.4188 33.4655 53.118C33.4029 52.6793 33.2274 52.2282 33.3026 51.8146C34.2927 46.6258 37.5388 43.4674 42.527 42.2266C49.0192 40.6224 55.0979 41.7253 60.3994 45.9239C64.3098 49.0196 66.2775 53.1305 65.914 58.1814C65.701 61.1894 64.1844 63.5832 61.9159 65.5008C58.9456 68.0325 55.4237 69.3611 51.6136 69.9877C50.3603 70.2133 49.0944 70.276 48.4302 70.3386Z" fill="white"/>
</g>
<path fill-rule="evenodd" clip-rule="evenodd" d="M60.9089 22.202L60.7881 24.0733L59.6803 41.2405C59.4571 41.1153 59.2031 41.0368 58.9307 41.0193C58.7244 41.0059 58.5241 41.0286 58.3359 41.0819L59.3184 25.8575L45.0028 41.0294C44.8377 40.5927 44.5036 40.2352 44.0755 40.0424L59.622 23.5659L60.9089 22.202ZM59.5139 44.4044C59.9422 44.2201 60.2862 43.8702 60.4598 43.4304L76.3189 62.0139L75.5377 63.0736L44.2026 49.5959C44.4739 49.3074 44.6503 48.9264 44.6778 48.5004C44.6815 48.4431 44.6824 48.3862 44.6807 48.3299L73.4088 60.6864L59.5139 44.4044ZM41.2228 48.8913L29.8337 57.4941L35.0087 42.9915C34.9152 43.0005 34.8198 43.0022 34.723 42.996C34.3383 42.9711 33.9904 42.8249 33.7141 42.597L27.8009 59.1687L27.0412 61.2976L28.8449 59.9352L42.0762 49.9408C41.6663 49.7191 41.3569 49.3409 41.2228 48.8913ZM24.9123 22.0941L33.636 39.9389C33.9701 39.6292 34.4227 39.4486 34.9113 39.4694L28.2308 25.8042L41.7975 40.8111C42.02 40.4012 42.3991 40.0922 42.8495 39.959L26.021 21.344L24.9123 22.0941Z" fill="#BBBBBB"/>
<path d="M54.6314 22.6727L58.676 22.4436L59.708 18.5263L61.1757 22.3021L65.2202 22.0731L62.0827 24.6357L63.5503 28.4115L60.1436 26.2195L57.0061 28.7821L58.0381 24.8647L54.6314 22.6727Z" fill="white"/>
<path d="M23.1021 57.9793L27.1467 57.7503L28.1787 53.8329L29.6464 57.6088L33.6909 57.3797L30.5534 59.9423L32.021 63.7182L28.6143 61.5261L25.4768 64.0887L26.5088 60.1714L23.1021 57.9793Z" fill="white"/>
<path d="M72.3066 62.5643L74.9822 61.5397L74.8346 58.6785L76.6358 60.9065L79.3114 59.882L77.749 62.2835L79.5502 64.5116L76.7834 63.7678L75.221 66.1693L75.0734 63.3081L72.3066 62.5643Z" fill="white"/>
<circle cx="43.1628" cy="41.0975" r="0.672307" transform="rotate(3.69244 43.1628 41.0975)" fill="#BBBBBB"/>
<circle cx="24.1739" cy="20.5621" r="1.21464" transform="rotate(3.69244 24.1739 20.5621)" fill="#BBBBBB"/>
<circle cx="59.1512" cy="42.8035" r="0.879581" transform="rotate(3.69244 59.1512 42.8035)" fill="#BBBBBB"/>
<circle cx="43.0418" cy="48.5121" r="0.783366" transform="rotate(3.69244 43.0418 48.5121)" fill="#BBBBBB"/>
<circle cx="34.6815" cy="41.2239" r="0.92462" transform="rotate(3.69244 34.6815 41.2239)" fill="#BBBBBB"/>
</svg>
