<svg width="90" height="95" viewBox="0 0 90 95" fill="none" xmlns="http://www.w3.org/2000/svg">
<g opacity="0.2">
<path d="M32.8945 1.18122C46.3608 3.06989 89.6773 2.67066 89.2473 20.636C87.2205 33.7799 82.3222 84.9888 67.1054 85.1424C51.8886 86.0637 2.55296 82.9773 0.341843 64.3056C0.326488 50.0101 4.14988 35.991 6.48384 21.9412C8.08076 6.04876 17.908 -0.661378 32.8945 1.18122ZM56.0037 78.8775C61.4394 78.4015 67.8424 78.6472 71.1898 73.4726C77.5161 57.9179 80.7099 40.5207 82.7829 23.8606C82.9057 11.1159 67.7503 10.2407 58.2916 8.53627C47.2974 7.06219 36.119 4.85107 25.0327 6.18695C8.08077 7.58426 8.06541 45.465 5.99248 59.0082C8.05005 76.866 42.0614 76.3747 56.0037 78.8775ZM15.8658 74.0407C15.835 71.3382 11.8735 71.2614 11.8274 73.9946C11.7199 76.3439 15.9425 76.39 15.8658 74.0407ZM21.0865 75.914C21.0865 73.2269 17.1095 73.0733 17.0481 75.8065C16.9406 78.2019 21.1172 78.248 21.0865 75.914ZM26.7678 77.5723C26.7524 74.9159 22.8523 74.7624 22.7294 77.4342C22.5605 79.8756 26.7985 79.9831 26.7678 77.5723ZM63.7734 82.6702C63.7887 79.9831 59.8271 79.8142 59.735 82.5474C59.5968 84.9427 63.8041 85.0195 63.7734 82.6702Z" fill="white"/>
<path d="M60.6255 93.7103C59.305 93.9252 57.9844 94.1709 56.6639 94.3245C50.568 95.0154 44.4567 95.1229 38.3454 94.7698C30.0844 94.2938 21.9002 93.2803 13.9002 91.0999C12.9482 90.8389 12.0269 90.4397 11.0903 90.0865C10.9521 90.0404 10.8599 89.9176 10.6143 89.7487C16.4645 87.2458 22.499 87.2612 28.6564 87.4761C28.3953 88.5663 29.1631 88.8888 29.9309 89.1805C32.8022 90.2554 35.689 90.5471 38.5911 89.2727C38.7446 89.2112 38.9442 89.1805 39.0978 89.2112C45.6544 90.4089 52.2263 91.6066 58.7829 92.835C59.4125 92.9579 60.0267 93.2343 60.6409 93.4339C60.6255 93.526 60.6255 93.6181 60.6255 93.7103Z" fill="white"/>
<path d="M30.4229 83.6685C32.4958 84.0523 34.4919 84.4362 36.5341 84.8047C36.5341 86.0792 36.5341 87.3076 36.5341 88.6435C34.4459 89.0274 32.419 88.8431 30.4229 88.1368C30.4229 86.6627 30.4229 85.2193 30.4229 83.6685Z" fill="white"/>
<path d="M35.3663 7.12376C38.6983 6.89344 42.706 7.73796 46.7597 8.35216C52.6253 9.24275 58.5063 10.0259 64.3565 10.9625C67.7346 11.4999 71.0974 12.2216 74.2298 13.6804C76.487 14.7245 78.5138 16.0757 79.8497 18.2715C80.8478 19.9145 81.201 21.7264 81.247 23.6304C81.3238 27.162 80.6482 30.6016 79.9726 34.0411C77.8843 44.7435 75.3814 55.3385 72.6329 65.872C72.0955 67.9296 71.3431 69.9871 70.3603 71.8758C68.7788 74.9468 65.9227 76.2673 62.6521 76.8201C59.0283 77.4343 55.4046 77.3115 51.7808 76.9737C42.1378 76.0831 32.6331 74.348 23.2512 71.9219C19.7349 71.0159 16.3414 69.7108 13.1476 67.9296C8.81749 65.5342 7.12844 61.8183 7.43554 57.0122C7.88083 50.3174 8.98639 43.6994 10.2148 37.1121C11.2129 31.7378 12.2109 26.3482 13.3472 21.0047C13.7772 18.9778 14.5142 16.9663 15.328 15.0469C17.0631 10.9932 20.1648 8.56713 24.5103 7.72261C27.873 7.06234 31.2204 7.09305 35.3663 7.12376Z" fill="white"/>
<path d="M13.8388 75.1615C13.0096 75.1615 12.4415 74.6548 12.4262 73.887C12.4108 73.0732 12.8714 72.6279 13.716 72.6279C14.4837 72.6279 15.1747 73.2882 15.1901 74.0099C15.2208 74.6548 14.6373 75.1615 13.8388 75.1615Z" fill="white"/>
<path d="M19.0749 77.0048C18.2457 77.0201 17.6776 76.498 17.6469 75.7303C17.6315 74.9165 18.0768 74.4712 18.9213 74.4712C19.6737 74.4712 20.3801 75.1161 20.4108 75.8378C20.4415 76.4981 19.8733 76.9894 19.0749 77.0048Z" fill="white"/>
<path d="M24.7408 78.6931C23.9116 78.6931 23.3435 78.1711 23.3281 77.4033C23.3281 76.5895 23.8041 76.1442 24.6333 76.1596C25.3857 76.1749 26.092 76.8352 26.092 77.5569C26.1227 78.2018 25.5392 78.6931 24.7408 78.6931Z" fill="white"/>
<path d="M61.7617 83.7606C60.9325 83.7606 60.349 83.2539 60.349 82.4862C60.3337 81.6723 60.779 81.2271 61.6388 81.2271C62.4066 81.2271 63.0976 81.872 63.1283 82.609C63.1436 83.2539 62.5601 83.7606 61.7617 83.7606Z" fill="white"/>
</g>
<path fill-rule="evenodd" clip-rule="evenodd" d="M26.8711 16.0522L27.7132 16.4504L57.0318 30.313C56.8379 30.6558 56.7266 31.0516 56.7251 31.4732L28.051 17.9153V45.7558C27.9825 45.7501 27.9133 45.7473 27.8433 45.7473C27.4983 45.7473 27.1697 45.8177 26.8711 45.9449V16.9838V16.0522ZM57.2431 32.9637L49.3043 41.7846L48.9636 42.1631L49.2883 42.5554L59.9939 55.4913C60.2095 55.1555 60.5038 54.8751 60.8508 54.6761L50.522 42.1955L58.1883 33.6774C57.8158 33.522 57.4913 33.2747 57.2431 32.9637ZM59.6906 57.4904L48.9857 62.1566L40.9989 46.6436C40.7255 46.9288 40.3617 47.1267 39.9537 47.1913L48.1899 63.1885L48.4431 63.6803L48.9502 63.4593L60.2703 58.5249C60.0003 58.236 59.7985 57.8827 59.6906 57.4904ZM30.1845 47.4035L37.814 45.4961C37.8441 45.9172 38.0151 46.2994 38.28 46.5958L30.2989 48.5911C30.3161 48.4729 30.3251 48.352 30.3251 48.229C30.3251 47.9396 30.2755 47.6617 30.1845 47.4035Z" fill="white"/>
<circle cx="58.6662" cy="31.5261" r="1.29999" fill="white"/>
<circle cx="39.5998" cy="45.7472" r="0.897623" fill="white"/>
<circle cx="61.0236" cy="56.8278" r="0.897623" fill="white"/>
<circle cx="28.2367" cy="47.5428" r="1.21126" fill="white"/>
<path d="M26.9316 11.2832L28.2114 15.2219H32.3528L29.0023 17.6562L30.2821 21.5949L26.9316 19.1607L23.5811 21.5949L24.8609 17.6562L21.5104 15.2219H25.6519L26.9316 11.2832Z" fill="white"/>
<path d="M49.2493 39.718L50.5327 41.2036L52.3421 40.4421L51.3258 42.1217L52.6092 43.6073L50.6977 43.1598L49.6814 44.8394L49.5164 42.8832L47.6049 42.4357L49.4144 41.6742L49.2493 39.718Z" fill="white"/>
<path d="M48.9901 58.3877L49.937 61.302H53.0012L50.5222 63.1031L51.4691 66.0174L48.9901 64.2163L46.511 66.0174L47.4579 63.1031L44.9789 61.302H48.0431L48.9901 58.3877Z" fill="white"/>
</svg>
