<svg width="119" height="82" viewBox="0 0 119 82" fill="none" xmlns="http://www.w3.org/2000/svg">
<circle cx="64.2098" cy="8.44078" r="1.42115" transform="rotate(165.342 64.2098 8.44078)" fill="white"/>
<path fill-rule="evenodd" clip-rule="evenodd" d="M75.099 48.7913C75.3528 48.437 75.7271 48.1659 76.1817 48.047C76.4158 47.9858 76.651 47.9702 76.878 47.9946L65.5025 10.6257C65.439 10.6497 65.3736 10.6705 65.3065 10.6881C65.0269 10.7612 64.7457 10.7693 64.4787 10.7218L75.8645 48.1245L62.7889 36.4278L62.5353 36.2009L62.2302 36.3515L26.4789 53.9984L26.9248 54.9018L62.3709 37.4055L75.099 48.7913ZM66.6503 9.43487C66.7574 9.11861 66.7838 8.77143 66.7115 8.42404L86.6136 11.6906L86.4504 12.6847L66.6503 9.43487Z" fill="white"/>
<circle cx="76.6405" cy="50.3426" r="1.42115" transform="rotate(165.342 76.6405 50.3426)" fill="white"/>
<path d="M63.8362 42.3709L61.573 38.8399L57.5154 39.9012L60.1742 36.6576L57.911 33.1266L61.8175 34.653L64.4763 31.4094L64.2318 35.5963L68.1382 37.1227L64.0807 38.184L63.8362 42.3709Z" fill="white"/>
<path d="M86.9086 16.0293L85.3039 13.5258L82.4271 14.2783L84.3122 11.9786L82.7076 9.4751L85.4773 10.5573L87.3624 8.25759L87.189 11.2261L89.9587 12.3083L87.0819 13.0608L86.9086 16.0293Z" fill="white"/>
<path d="M27.3236 59.188L25.719 56.6845L22.8422 57.437L24.7273 55.1373L23.1226 52.6338L25.8923 53.716L27.7774 51.4163L27.6041 54.3848L30.3738 55.467L27.497 56.2195L27.3236 59.188Z" fill="white"/>
<path opacity="0.2" d="M118.892 59.4235C118.427 61.3272 118.125 63.2774 117.475 65.1346C113.831 75.4889 104.173 81.9197 93.2148 81.409C79.5174 80.7822 68.8381 68.2688 70.4168 54.6178C71.3222 46.7709 75.1993 40.7347 81.839 36.4862C82.2569 36.2076 82.6748 35.9523 83.1623 35.6272C81.7926 31.9591 80.4229 28.3142 79.0067 24.4836C77.0566 27.8035 75.1993 30.9144 73.3652 34.0486C69.8829 39.9686 66.4005 45.8887 62.8949 51.7855C62.5234 52.4123 62.5234 52.9231 62.7556 53.5963C63.5449 55.8715 63.127 57.9609 61.4091 59.6789C59.6446 61.4201 57.3927 62.0701 55.2568 60.9093C53.121 59.7253 51.0316 60.0736 48.7796 59.9575C47.4563 68.292 43.2542 74.6299 35.8019 78.5999C30.1837 81.5947 24.194 82.1519 18.065 80.4571C6.15525 77.1605 -1.43635 65.1579 0.560219 53.1088C2.51035 41.3384 13.9326 30.4733 29.4176 33.1664C30.5087 29.8929 31.507 26.5731 32.7374 23.346C33.3178 21.8138 33.1785 20.653 32.2731 19.3065C30.8337 17.1706 29.6033 14.8955 28.2103 12.5971C27.5371 12.806 26.9102 13.0382 26.237 13.2239C22.1742 14.3615 18.1579 11.3899 18.1114 7.23422C18.0882 5.02871 19.7365 3.14823 21.9653 3.12501C27.4906 3.05536 33.016 3.07858 38.5414 3.12501C40.0737 3.12501 41.1416 4.07686 41.4202 5.49303C41.6755 6.7699 40.9791 8.09321 39.6093 8.62717C37.7985 9.34687 35.918 9.95048 33.9447 10.6702C35.0822 12.5971 36.3823 14.3615 37.2413 16.3116C38.3325 18.7725 39.9344 19.4226 42.581 19.3761C53.5389 19.2136 64.52 19.3065 75.4779 19.3065C75.9422 19.3065 76.4065 19.3065 77.0333 19.3065C76.7315 18.4475 76.4994 17.7046 76.2208 16.9617C75.6172 15.2901 74.9671 13.6418 74.3635 11.9703C73.4117 9.32365 74.735 7.46638 77.5673 7.44316C79.796 7.41995 82.048 7.39673 84.2767 7.3503C86.5519 7.30387 88.4091 6.28237 90.0342 4.75012C90.87 3.96078 91.6826 3.12501 92.588 2.3821C93.772 1.43025 95.4668 1.54633 96.4883 2.59104C97.4865 3.61254 97.7187 5.33052 96.7436 6.39845C94.0042 9.41651 91.0557 12.2489 86.8072 12.9918C85.0428 13.2936 83.2088 13.3168 81.2586 13.4793C83.7195 20.0958 86.1804 26.7356 88.6645 33.3985C90.0342 33.236 91.3575 33.0271 92.7041 32.9342C105.705 32.0288 116.779 40.9901 118.659 53.8981C118.706 54.2 118.822 54.4785 118.892 54.7803C118.892 56.3358 118.892 57.8913 118.892 59.4235ZM85.9947 43.2188C78.5888 47.7459 76.0583 57.2877 80.1211 64.9025C84.1606 72.4244 93.5398 75.6514 101.224 72.1458C109.303 68.4545 113.041 59.4467 109.861 51.2283C106.587 42.7545 97.6723 39.5739 91.5897 41.1526C91.7058 41.5009 91.8219 41.8723 91.9612 42.2206C93.6327 46.7012 95.3042 51.1819 96.9526 55.6626C97.6258 57.4966 96.9758 59.261 95.4435 59.8414C93.7488 60.4682 92.1933 59.6557 91.4272 57.752C91.1486 57.0323 90.8932 56.3126 90.6146 55.5929C89.0824 51.4605 87.5501 47.3977 85.9947 43.2188ZM40.5844 59.9575C37.0788 59.9575 33.6429 59.9343 30.2301 59.9807C29.9515 59.9807 29.6033 60.3522 29.3944 60.6308C28.0014 62.4648 25.5637 63.3702 23.335 62.8363C20.9902 62.2791 19.2026 60.3289 18.8776 57.9145C18.5525 55.6393 19.574 53.1088 21.7331 52.1802C23.2886 51.5069 23.7761 50.4158 24.1708 49.0228C24.2869 48.6049 24.4494 48.2103 24.5887 47.8156C25.3548 45.5172 26.0977 43.2421 26.8638 40.9437C20.9205 39.5739 11.286 43.1492 8.75543 52.9695C6.31776 62.4184 12.4932 71.7744 22.1742 73.237C32.4588 74.8157 39.6326 66.9919 40.5844 59.9575ZM57.2766 49.7889C62.152 41.5009 66.9112 33.445 71.7401 25.2497C61.943 25.2497 52.3781 25.2497 42.6042 25.2497C47.5027 33.445 52.3084 41.5241 57.2766 49.7889ZM32.5053 42.7313C32.3892 43.0099 32.2731 43.2885 32.1803 43.5903C31.2052 46.4691 30.2533 49.3478 29.2783 52.2266C28.8372 53.5267 29.2551 54.0607 30.6712 54.0607C33.6429 54.0607 36.6145 54.0607 39.5629 54.0607C39.8879 54.0607 40.213 54.0142 40.538 53.991C40.3058 49.9979 36.6145 44.8672 32.5053 42.7313ZM35.0358 35.0701C42.7899 39.1096 47.3402 45.4243 48.7564 54.0607C49.3136 54.0607 49.8243 54.1303 50.3119 54.0374C50.8226 53.9446 51.4494 53.8749 51.7745 53.5499C52.3549 52.9695 51.9834 52.3195 51.6119 51.6926C47.0849 44.1707 42.581 36.6255 38.0539 29.0804C37.8681 28.7786 37.6824 28.4768 37.3806 28.0124C36.5448 30.4965 35.8019 32.7485 35.0358 35.0701Z" fill="white"/>
</svg>
