<svg width="141" height="58" viewBox="0 0 141 58" fill="none" xmlns="http://www.w3.org/2000/svg">
<g opacity="0.1">
<path d="M10.7655 35.3619C10.8434 35.6152 11.1552 35.7906 11.6715 35.8978C14.4774 36.3265 16.5429 36.4823 18.2089 35.927C20.0405 35.3132 21.2097 33.8226 21.9111 31.2408L22.7588 31.4454C22.5152 32.5755 22.7782 33.5011 23.5284 34.1344C24.5124 34.9722 26.2077 35.1768 27.6788 34.6312C28.2537 34.1051 28.7213 33.4621 29.2182 32.7704C30.095 31.5623 31.0011 30.3152 32.5404 29.6917C33.7291 28.961 35.2002 29.0487 36.3791 29.9352L36.3986 29.9547C43.3646 35.7516 52.6105 38.4212 62.4798 37.4761C63.0839 35.4204 62.7039 33.7252 61.3205 32.1468C47.7196 23.846 36.3499 17.4938 32.5404 17.7861C31.5759 17.8543 21.8722 25.2295 11.4767 33.5498C10.9506 34.2805 10.6388 34.943 10.7655 35.3619Z" fill="white"/>
<path d="M63.1035 34.0827C63.727 35.4077 63.8536 36.9568 63.2301 38.8566L63.1424 39.1294L62.8599 39.1586C61.4277 39.3048 60.015 39.373 58.6121 39.373C50.0092 39.373 42.0494 36.6353 35.8433 31.4716C34.9373 30.7994 33.8656 30.7409 32.9692 31.2963L32.94 31.3158L32.901 31.3352C31.576 31.8613 30.7771 32.9623 29.9295 34.1314C29.4131 34.8426 28.8773 35.5831 28.205 36.1774L28.1466 36.2261L28.0686 36.2553C26.276 36.9568 24.2203 36.7132 22.9635 35.6415C22.5348 35.281 22.223 34.8329 22.0282 34.336C21.2195 36.0117 20.0699 37.0737 18.4915 37.5998C16.6502 38.2136 14.4678 38.0577 11.5255 37.6096H11.506C10.6389 37.4439 10.1128 37.064 9.91794 36.4794C9.84 36.2261 9.83026 35.9533 9.88871 35.661C3.80036 48.8881 -0.46183 56.3935 0.453986 57.056H100.058C88.5709 50.129 75.0773 41.4482 63.1035 34.0827Z" fill="white"/>
</g>
<g opacity="0.1">
<path d="M125.849 24.9172C125.966 24.81 125.664 24.5177 125.011 24.0988C124.368 24.8587 123.472 25.5894 122.332 26.2714L122.225 26.3396H122.098C119.643 26.2519 117.909 26.3006 117.451 26.817C117.159 27.1482 117.266 27.8595 117.422 28.9312C117.617 30.2075 117.88 31.9611 117.646 34.3286L117.636 34.3871L117.617 34.4455C117.373 35.0788 116.954 35.4783 116.399 35.6342C116.214 35.6829 116.019 35.7121 115.824 35.7121C114.236 35.7121 112.122 34.1727 110.534 33.0134C110.085 32.6821 109.696 32.3996 109.394 32.2047L109.364 32.1852C106.461 29.9347 103.226 27.9959 100.099 26.1253C96.7573 24.1183 93.2987 22.0431 90.2395 19.5879C85.8455 22.0041 80.7598 24.2157 76.5801 25.5212C71.2314 27.197 67.9189 27.2652 66.7497 25.7355C66.0385 24.81 66.1652 23.407 67.1395 21.5072C61.9661 25.5894 58.1079 29.087 58.9653 29.467L104.045 57.6527H140.124C134.175 43.6838 131.945 38.6026 125.849 24.9172Z" fill="white"/>
<path d="M121.319 23.6436C122.245 23.0786 122.985 22.4843 123.521 21.8705C116.886 17.9539 91.5551 6.58413 88.1062 6.37953C86.4207 6.28211 77.1846 12.5856 69.7119 18.3436C67.5783 21.4808 67.7049 22.8253 68.1433 23.4001C69.0104 24.5302 72.1671 24.3451 76.7949 22.8934C80.8966 21.6074 85.9043 19.425 90.2009 17.0381L90.4542 16.9017L90.6783 17.0868C93.6693 19.5225 97.0987 21.5782 100.411 23.5657C103.47 25.4071 106.647 27.3069 109.511 29.5185C109.823 29.7134 110.203 29.9959 110.651 30.3271C112.073 31.3599 114.441 33.0941 115.629 32.7531C115.805 32.7044 116.048 32.5875 116.243 32.149C116.448 29.9764 116.204 28.3494 116.019 27.1608C115.834 25.9137 115.698 25.0174 116.253 24.4036C116.847 23.7216 118.085 23.5365 121.319 23.6436Z" fill="white"/>
</g>
<path fill-rule="evenodd" clip-rule="evenodd" d="M86.4026 9.69244L86.2027 9.64062L86.0436 9.77228L59.8559 31.4403C60.0224 31.6594 60.1504 31.9093 60.2298 32.1801L86.3998 10.5267L102.182 14.6169L102.385 13.8344L86.4026 9.69244ZM55.7502 32.5573C55.784 32.269 55.8712 31.997 56.0018 31.7515L34.5545 17.2354L34.3454 17.0939L34.1265 17.2198C30.6175 19.2387 25.286 22.4809 20.8352 25.2161C18.609 26.5842 16.6019 27.8263 15.1514 28.7263C14.4261 29.1763 13.8399 29.5409 13.4351 29.7929L12.969 30.0832L12.8478 30.1588L12.8169 30.1781L12.8091 30.1829L12.8071 30.1842L12.8066 30.1845C12.8065 30.1845 12.8065 30.1846 13.0205 30.5274C13.2345 30.8703 13.2345 30.8703 13.2346 30.8702L13.2351 30.8699L13.2371 30.8687L13.2448 30.8638L13.2756 30.8446L13.3966 30.7692L13.8622 30.4791C14.2668 30.2273 14.8527 29.863 15.5776 29.4132C17.0274 28.5136 19.0335 27.2722 21.2584 25.9048C25.6179 23.2256 30.8128 20.0661 34.3108 18.0465L55.7502 32.5573Z" fill="white"/>
<circle cx="57.9531" cy="32.9677" r="1.62298" fill="white"/>
<circle cx="104.029" cy="14.7854" r="1.02372" fill="white"/>
<circle cx="11.761" cy="31.9441" r="1.02372" fill="white"/>
<path d="M34.1822 12.5283L35.3122 16.0059L38.9687 16.0059L36.0105 18.1552L37.1404 21.6328L34.1822 19.4835L31.224 21.6328L32.354 18.1552L29.3957 16.0059L33.0523 16.0059L34.1822 12.5283Z" fill="white"/>
<path d="M83.0253 3.59204L86.3941 7.77852L91.4167 5.86833L88.4761 10.3659L91.8448 14.5524L86.6587 13.1456L83.7181 17.6432L83.4535 12.2761L78.2674 10.8693L83.2899 8.95909L83.0253 3.59204Z" fill="white"/>
</svg>
