<svg width="115" height="73" viewBox="0 0 115 73" fill="none" xmlns="http://www.w3.org/2000/svg">
<g opacity="0.1">
<path d="M25.1568 69.5229C25.1276 69.5667 25.0985 69.625 25.0548 69.6687C24.7924 69.6395 24.5446 69.6104 24.2969 69.5813C24.5884 69.5667 24.8653 69.5375 25.1568 69.5229Z" fill="white"/>
<path d="M22.0822 59.1308C21.645 57.411 13.556 39.2217 13.556 39.2217L23.6708 45.4305L6.47266 23.7725L20.0417 34.7472L11.2386 16.9806L22.6506 31.2785L21.4992 16.9806L26.4109 24.3409L24.0935 9.18315L34.3396 29.3983L33.3339 11.486L37.9541 26.4979L39.5427 9.16858L46.1888 31.8469L47.0487 6.00586L48.9289 31.9926L56.7264 10.0431L54.5547 36.9043L68.7068 10.4803L64.3635 29.6898L83.2961 6.00586L71.4614 39.0759L90.6709 17.5636L91.3997 38.9302L112.183 17.8405L105.683 34.8784L114.923 36.0298L93.9794 49.1762L80.2646 55.9243C78.2678 56.9008 76.0816 57.4255 73.8517 57.4547L22.0822 59.1308Z" fill="white"/>
<path d="M25.1568 69.5229C25.1276 69.5667 25.0985 69.625 25.0548 69.6687C24.7924 69.6395 24.5446 69.6104 24.2969 69.5813C24.5884 69.5667 24.8653 69.5375 25.1568 69.5229Z" fill="white"/>
<path d="M72.4084 59.0731C55.9098 59.4375 19.6479 60.414 19.6479 60.414C19.7062 59.7727 20.158 53.7971 17.8552 53.6805C15.5378 53.5493 13.3661 57.7905 13.3661 57.7905L4.95652 61.9006C4.95652 61.9006 0.788147 62.0901 0.904745 63.7662C0.963044 64.5241 1.86668 65.0196 2.85776 65.3548C3.96544 65.7192 5.16057 65.7629 6.31197 65.5152C6.92411 65.384 7.87147 65.3111 9.25607 65.5006C11.1216 65.7484 14.4155 66.9872 16.5726 67.8763C17.7823 68.3718 19.0357 68.7507 20.3183 69.0131C19.7499 69.086 19.1669 69.2463 18.7588 69.6398C18.8025 69.771 18.9774 69.7856 19.1232 69.7856C20.4932 69.7564 21.8632 69.7127 23.2332 69.6398C22.9563 69.7273 22.694 69.8439 22.4899 70.0333C22.111 70.3831 21.9507 71.0098 22.2713 71.4179C22.796 71.2139 23.3207 71.0098 23.8017 70.7183C24.2243 70.456 24.7636 70.0916 25.0842 69.6835C24.8219 69.6544 24.5741 69.6252 24.3263 69.5961C24.6178 69.5815 24.8948 69.5669 25.1717 69.5524C25.1425 69.5961 25.1134 69.6544 25.0697 69.6981C25.5215 69.7564 26.0024 69.8147 26.498 69.8584C26.4397 69.9022 26.396 69.9605 26.3522 70.0042C25.8567 70.5434 25.6818 71.3742 26.017 72.0301C26.5709 71.5491 27.1684 71.1119 27.7951 70.7475C28.0721 70.5872 28.6405 70.3977 29.0048 70.1208C33.7562 70.5872 39.761 70.9661 46.1739 70.9224C53.5487 70.8641 60.8069 70.3394 66.2287 69.8293C66.2141 69.8293 66.1996 69.8439 66.185 69.8439C65.6311 70.0771 65.0773 70.3977 64.7712 70.9078C64.8587 71.0244 65.0336 70.9953 65.1647 70.9515C66.4765 70.558 67.7882 70.1353 69.0999 69.6981C68.8522 69.8439 68.6335 70.0333 68.4878 70.2811C68.2109 70.7183 68.2254 71.3596 68.6335 71.6657C69.0854 71.3305 69.5226 70.9807 69.9161 70.5726C70.2222 70.2374 70.6157 69.7856 70.8197 69.3483C71.3007 69.29 71.7671 69.2463 72.1752 69.188C71.8546 69.8439 71.8983 70.6892 72.3938 71.2285C72.7873 70.6163 73.2537 70.0333 73.7638 69.5086C73.9096 69.3483 74.1865 69.1443 74.4489 68.9256C75.0173 68.8528 75.3233 68.809 75.3233 68.809C75.3233 68.809 101.441 64.0577 104.91 44.3526C104.881 44.3089 88.9216 58.7088 72.4084 59.0731ZM15.5524 59.8019C15.2171 60.3848 14.6779 60.6909 14.3281 60.4869C13.9783 60.2828 13.9783 59.6561 14.2989 59.0731C14.6341 58.4901 15.1734 58.1841 15.5232 58.3881C15.873 58.5922 15.873 59.2189 15.5524 59.8019Z" fill="white"/>
</g>
<path fill-rule="evenodd" clip-rule="evenodd" d="M46.9386 24.1282C47.2795 24.3404 47.561 24.639 47.7526 24.9934L53.2946 17.2708L80.2749 21.5309C80.2743 21.5106 80.2741 21.4903 80.2741 21.4699C80.2741 21.0808 80.3702 20.7142 80.5401 20.3925L53.1215 16.0632L52.7665 16.0072L52.557 16.2992L46.9386 24.1282ZM70.2957 41.6397L81.152 23.2827C81.4575 23.5246 81.8257 23.6908 82.2282 23.7531L71.0868 42.5923L70.8744 42.9514L70.466 42.8662L41.5778 36.8391C41.8462 36.5426 42.0315 36.1696 42.0971 35.7566L70.2957 41.6397ZM41.4063 33.8366L45.3302 28.3689C44.9243 28.3002 44.5545 28.1256 44.25 27.8746L40.3316 33.3346C40.74 33.3967 41.11 33.5758 41.4063 33.8366ZM35.7356 9.56323L45.2748 23.823C44.8754 23.9007 44.5127 24.0814 44.2156 24.3362L34.7666 10.2114L35.7356 9.56323Z" fill="white"/>
<circle cx="40.1691" cy="35.2726" r="1.15251" fill="white"/>
<circle cx="82.4865" cy="21.7382" r="1.15251" fill="white"/>
<circle cx="45.7571" cy="26.22" r="1.47879" fill="white"/>
<path d="M31.6585 3.69769L35.5302 7.16751L40.0267 4.55752L37.9231 9.31198L41.7948 12.7818L36.623 12.2504L34.5195 17.0049L33.4267 11.922L28.2549 11.3906L32.7513 8.78058L31.6585 3.69769Z" fill="white"/>
<path d="M67.3323 37.8662L70.1904 40.4276L73.5097 38.5009L71.9569 42.0107L74.815 44.5721L70.9971 44.1798L69.4443 47.6896L68.6376 43.9374L64.8197 43.5451L68.139 41.6184L67.3323 37.8662Z" fill="white"/>
<path d="M51.3608 12.7269L53.6417 14.7711L56.2906 13.2335L55.0514 16.0344L57.3323 18.0786L54.2855 17.7655L53.0462 20.5664L52.4024 17.572L49.3556 17.259L52.0046 15.7214L51.3608 12.7269Z" fill="white"/>
</svg>
