<svg width="92" height="90" viewBox="0 0 92 90" fill="none" xmlns="http://www.w3.org/2000/svg">
<path opacity="0.1" d="M30.4316 17.2786C30.4316 16.5428 30.9549 15.8887 31.5763 15.8887C32.1323 15.8887 32.6883 16.5755 32.6883 17.2459C32.6883 17.9818 32.1977 18.5378 31.5763 18.5541C30.9222 18.5705 30.4316 18.0145 30.4316 17.2786Z" fill="white"/>
<path opacity="0.1" d="M35.0264 17.2624C35.0427 16.5428 35.5497 15.9051 36.122 15.9051C36.727 15.8887 37.283 16.5428 37.283 17.2787C37.2667 18.0146 36.7925 18.5706 36.1383 18.5706C35.4842 18.5706 35.0264 18.0146 35.0264 17.2624Z" fill="white"/>
<path opacity="0.1" d="M64.8048 48.627C63.3984 48.627 61.8613 47.3188 61.7305 45.9288C61.7305 45.8961 61.7305 45.8471 61.7305 45.8144C61.8122 45.3892 62.3682 45.242 62.6789 45.5364C62.7116 45.5527 62.728 45.5854 62.7443 45.6181C62.9242 45.8471 62.9733 46.1905 63.1204 46.4521C63.4966 47.1553 64.0525 47.6459 64.9029 47.5968C65.7205 47.5641 66.1457 47.0081 66.4237 46.3213C66.5381 46.0106 66.5872 45.6672 66.7507 45.3892C66.7834 45.3238 66.8325 45.2747 66.8979 45.2257C67.1595 44.9804 67.6011 45.0622 67.7646 45.3728C67.8136 45.471 67.8463 45.5527 67.8463 45.6508C67.8627 47.2043 66.3583 48.627 64.8048 48.627Z" fill="white"/>
<path opacity="0.1" d="M33.9793 26.0924C31.739 26.0924 29.2861 23.9992 29.0898 21.7753C29.0898 21.7099 29.0898 21.6444 29.1062 21.579C29.237 20.9086 30.1201 20.6633 30.6106 21.1375C30.6433 21.1702 30.6924 21.2193 30.7251 21.2683C31.0195 21.6281 31.0849 22.1841 31.3138 22.6092C31.9025 23.7376 32.7855 25.0294 34.1428 24.9804C35.451 24.915 36.1542 23.525 36.5957 22.4294C36.7919 21.9388 36.8573 21.3664 37.119 20.9413C37.1844 20.8432 37.2662 20.7614 37.3479 20.6796C37.7731 20.3035 38.4599 20.4016 38.7379 20.9086C38.8197 21.0557 38.8687 21.2029 38.8687 21.3501C38.8524 23.8193 36.4485 26.0924 33.9793 26.0924Z" fill="white"/>
<path opacity="0.1" d="M63.5785 41.693C63.5785 42.2654 63.137 42.7723 62.6464 42.7887C62.1232 42.805 61.7307 42.3308 61.7143 41.7094C61.698 41.1043 62.1068 40.6301 62.6301 40.6138C63.1534 40.6138 63.5785 41.1043 63.5785 41.693Z" fill="white"/>
<path opacity="0.1" d="M66.3093 40.6626C66.8489 40.6626 67.3232 41.1859 67.3068 41.7746C67.2905 42.3142 66.8489 42.7884 66.3584 42.7884C65.8187 42.7884 65.4099 42.3142 65.4263 41.7092C65.4263 41.1041 65.8187 40.6626 66.3093 40.6626Z" fill="white"/>
<path opacity="0.1" d="M63.5779 28.938C64.0031 28.2512 65.4912 27.3682 66.4887 30.2299C66.5868 30.5243 66.9793 30.5733 67.1591 30.3117C68.1239 28.938 69.6774 28.9871 70.1844 30.7859C70.2334 30.9821 70.446 31.0966 70.6422 31.0475C72.8008 30.5733 75.4499 30.7041 74.1744 33.2224C74.0436 33.4677 74.2235 33.7621 74.5015 33.7784C75.8914 33.8602 77.216 34.7759 76.0223 36.1659C75.5644 36.9181 73.9455 37.0653 74.2235 38.1282C74.992 41.7421 74.6159 40.7446 76.9216 40.5975C77.3141 40.5648 77.494 41.1044 77.1506 41.3006C76.5946 41.6277 75.8587 41.7094 75.3027 42.0528C75.0411 42.2164 75.0902 42.6252 75.3845 42.7233C76.0386 42.9686 77.0688 42.6579 77.8047 42.8868C78.1481 42.9849 78.1645 43.4755 77.8374 43.6063C77.0688 43.917 76.0877 43.6227 75.27 43.9007C74.9757 43.9988 74.9266 44.424 75.2046 44.5875C75.826 44.9636 76.6437 44.9309 77.1996 45.3888C77.4449 45.6014 77.3468 46.0102 77.0198 46.0592C76.3002 46.1901 75.5971 45.7322 74.8449 45.6177C74.8285 45.6177 74.7958 45.6177 74.7795 45.6177C74.4361 45.6341 73.9945 45.9121 73.9291 46.3045C73.1115 48.3813 71.607 49.8367 69.6447 50.8669C69.6284 50.8833 69.612 50.8833 69.5957 50.8996C65.9163 53.5978 75.5644 58.0784 77.4449 59.9426C77.4776 59.9753 77.5267 60.008 77.5758 60.0244C78.3934 60.3187 79.162 59.5338 79.9796 59.452C80.323 59.4193 80.5356 59.8445 80.2903 60.1061C80.1922 60.2043 80.0941 60.286 79.9632 60.3514C79.6689 60.515 79.7343 60.9401 80.045 61.0382C80.4211 61.1527 80.7645 61.2672 81.0098 61.5452C81.2387 61.8068 81.0262 62.2156 80.6828 62.1829C80.5846 62.1666 80.4865 62.1502 80.3884 62.1175C80.0941 62.0358 79.8161 62.3301 79.9305 62.6081C79.9632 62.6899 79.9796 62.7716 80.0123 62.8697C80.0777 63.1968 79.7343 63.4584 79.4399 63.2786C79.2601 63.1641 79.1293 63.0169 78.9984 62.8534C78.7695 62.5427 78.2789 62.7553 78.3116 63.1314C78.328 63.3113 78.3116 63.4911 78.2299 63.6547C78.1154 63.8999 77.772 63.9327 77.6085 63.7201C76.9053 62.837 77.7393 61.1527 76.382 60.4986C74.387 59.1904 72.6046 57.6696 70.5768 56.4268C70.2988 56.2469 69.9391 56.5086 70.0045 56.8356C70.4787 59.125 71.1165 61.3816 71.5907 63.6547C72.1303 66.222 72.163 68.8548 71.836 71.4549C71.5907 73.4172 72.2612 75.5267 72.3102 77.5053C72.3102 77.5217 72.3102 77.5544 72.3266 77.5707C72.9153 80.2199 68.9743 77.7016 68.6799 79.6475C68.6309 81.1356 68.5328 82.6073 68.4837 84.0791C68.2221 85.5672 70.119 84.6678 70.8548 85.3709C72.7681 87.2515 69.3013 88.2981 67.8132 87.4314C67.7805 87.415 67.7478 87.3823 67.7315 87.366C66.4396 86.0087 67.6661 82.035 67.3554 80.0563C67.3554 80.04 67.3554 80.0236 67.3554 79.9909C67.3717 79.0261 67.339 79.0098 66.4069 79.0425C66.3742 79.0425 66.3579 79.0425 66.3252 79.0588C64.9842 79.4186 61.8772 78.2576 61.959 80.2853C61.959 80.3016 61.959 80.3343 61.959 80.3507C61.5665 82.6891 63.5452 87.2515 60.5527 88.1018C60.5363 88.1018 60.52 88.1018 60.5036 88.1182C56.7425 88.8867 55.6142 85.7634 59.6369 85.698C59.6696 85.698 59.7187 85.698 59.7514 85.7143C61.8772 86.2703 60.5036 81.5117 60.7816 80.1054C60.7816 80.0727 60.798 80.0236 60.7816 79.9909C60.569 77.8651 56.023 80.6614 56.0721 78.2739C56.1048 76.4097 56.4482 74.4964 56.3991 72.6322C56.301 68.5277 56.857 64.4232 57.9199 60.4659C58.2306 59.2885 58.5577 58.1275 58.852 56.9501C58.9338 56.6557 58.6394 56.3941 58.3614 56.4922C55.9903 57.2935 53.7009 58.0784 51.3625 58.8797C51.1009 58.9778 51.0191 59.3049 51.2153 59.5174C51.4443 59.7464 51.6568 59.9917 51.7713 60.286C51.9021 60.5967 51.5751 60.9074 51.2644 60.7766C51.1663 60.7439 51.0845 60.6948 51.0027 60.6458C50.692 60.4659 50.3323 60.7602 50.4468 61.1036C50.5449 61.3489 50.5939 61.5942 50.5776 61.8559C50.5449 62.1829 50.1524 62.3301 49.9235 62.0848C49.7763 61.9376 49.6782 61.7741 49.5964 61.5942C49.4656 61.2999 49.0404 61.2999 48.8933 61.5942C48.7788 61.8559 48.648 62.0848 48.4517 62.2647C48.2064 62.51 47.7649 62.3137 47.7976 61.954C47.8303 61.676 47.9121 61.398 48.0102 61.12C48.1247 60.793 47.7813 60.4986 47.4706 60.6458C47.4706 60.6458 47.4542 60.6458 47.4542 60.6621C47.1272 60.8257 46.7838 60.4823 46.9309 60.1552C47.3071 59.3703 48.2882 58.7489 47.9939 57.7841C45.5083 50.9487 43.3661 43.7699 39.605 37.5395C39.376 37.1634 38.8037 37.3924 38.9018 37.8175C41.6654 49.9348 44.9686 61.9213 47.3398 74.1367C48.2392 77.3909 41.6 75.494 39.654 75.9845C39.6213 75.9845 39.5886 76.0009 39.5723 76.0009C38.5748 76.0172 38.4276 76.1481 38.4439 77.1456C38.4766 80.2362 38.3949 83.3105 38.5257 86.4012C38.542 86.6301 38.7383 86.7936 38.9509 86.7609C40.3081 86.581 42.3849 86.1559 42.6629 87.7584C42.761 88.4779 42.5157 89.0339 41.7308 89.2138C39.8666 89.5736 36.5634 90.0968 36.9558 87.2188C36.9558 87.2024 36.9558 87.1861 36.9558 87.1697C36.9886 83.8338 37.054 80.4652 37.103 77.1292C37.1194 76.0663 37.0703 76.0499 36.0728 76.1154C36.0401 76.1154 36.0074 76.1154 35.9747 76.1317C34.7155 76.4915 31.0035 75.543 30.9381 77.0638C31.0362 80.7759 31.4123 84.5206 31.1997 88.2327C31.3142 90.5384 24.119 90.4893 26.1141 87.7748C26.1304 87.7584 26.1304 87.7421 26.1468 87.7257C26.948 86.0741 29.5808 87.6603 29.7934 86.4339C29.728 83.3432 29.6789 80.2526 29.5972 77.1619C29.8261 75.4449 23.8901 76.7531 22.5328 76.3933C19.7202 76.655 22.1894 69.9341 22.1404 68.1516C22.1404 68.1189 22.1404 68.1026 22.1404 68.0699C23.9228 58.291 26.2285 48.5285 28.1581 38.7987C28.2399 38.3735 27.6676 38.1609 27.455 38.537C23.7429 44.8491 20.9303 51.5864 19.3931 58.7979C18.9516 60.1716 20.3906 60.6294 20.9957 61.5615C21.1919 61.8722 20.8976 62.2647 20.5378 62.1339C20.4724 62.1012 20.3906 62.0685 20.3252 62.0358C19.9818 61.8722 19.6384 62.232 19.8183 62.559C20.0636 63.0169 20.2435 63.4748 19.9001 63.8018C19.8346 63.8672 19.7365 63.8999 19.6548 63.8999C19.2787 63.9163 19.1151 63.622 18.9843 63.2786C18.8698 62.9515 18.412 62.9351 18.2811 63.2458C18.183 63.4748 18.0686 63.6547 17.905 63.8345C17.6597 64.0798 17.2509 63.9163 17.2509 63.5565C17.2509 63.4257 17.2673 63.2785 17.3163 63.1477C17.4145 62.8043 17.0384 62.5427 16.7277 62.7389C16.6295 62.8043 16.5314 62.8534 16.4333 62.9024C16.0899 63.066 15.7301 62.6899 15.9427 62.3628C16.1226 62.0685 16.417 61.8395 16.6786 61.6269C16.9729 61.3816 16.7767 60.9238 16.4006 60.9565C16.3025 60.9728 16.2044 60.9728 16.1226 60.9565C15.7956 60.9238 15.6484 60.4986 15.91 60.286C16.6949 59.6319 18.2321 60.1879 18.3793 58.6835C18.3793 58.6671 18.3793 58.6344 18.3956 58.6181C20.4233 51.0958 22.7781 43.6881 26.9644 37.0489C31.2815 29.6739 30.3821 32.6501 24.1844 28.8726C23.792 28.5783 23.514 28.611 23.3014 29.0689C21.7316 35.8389 5.16635 34.3017 12.0181 31.44C12.0344 31.4236 12.0672 31.4236 12.0835 31.4236C14.7653 30.8186 18.9189 30.9331 20.5378 28.5783C20.7831 28.2185 20.3252 27.7934 19.9818 28.0714C17.5126 30.05 14.0131 31.1293 10.9225 30.4425C10.6281 30.3771 10.5137 30.0173 10.7262 29.8047C12.7213 27.6952 16.1226 26.9921 18.6246 25.5203C19.3768 25.1442 19.4095 24.8826 19.017 24.1631C15.9754 18.6686 14.798 10.0671 20.5869 5.96261C28.0273 0.517192 42.4667 -2.78604 46.3095 8.3828C46.3095 8.3828 46.3095 8.39915 46.3259 8.39915C47.8794 11.915 46.146 14.0408 50.8556 12.0294C50.921 11.9967 50.9864 11.9967 51.0354 11.9967C51.0518 11.9967 51.0682 11.9967 51.1009 12.0131C51.3134 12.0621 51.4443 12.2747 51.3789 12.471C51.1009 13.3867 49.5147 13.3704 48.7134 13.7792C48.6807 13.7955 48.6316 13.8282 48.5989 13.8609C45.9661 16.6572 50.2505 15.1528 51.9021 15.5453C52.2619 15.627 52.311 16.1012 51.9839 16.2648C50.4958 16.9843 46.2114 16.5591 48.2555 18.407C48.2882 18.4397 48.3373 18.4724 48.37 18.4887C49.2694 18.8321 51.1826 18.7504 51.3298 19.7969C51.3461 19.8787 51.3298 19.9605 51.2971 20.0422C51.0682 20.5001 50.4795 20.1894 50.0379 20.0913C50.0216 20.0913 50.0052 20.0913 49.9725 20.0913C49.0731 20.0422 47.4379 18.9302 47.1599 20.3039C46.097 24.9153 42.712 28.5619 38.3458 30.2626C36.1709 31.2274 39.098 33.8765 39.605 35.3319C39.6213 35.3646 39.6213 35.381 39.6377 35.3973C42.6466 40.1396 44.7233 45.307 46.3913 50.638C46.3913 50.6543 46.4077 50.6707 46.424 50.7034C47.2253 52.2242 48.2064 58.013 49.7927 58.0784C49.8254 58.0784 49.8744 58.0784 49.9071 58.0621C52.8669 57.0809 60.4546 56.1815 60.2093 52.2569C60.2093 52.1424 60.1439 52.0443 60.0621 51.9789C57.7564 50.1801 54.4204 49.1008 53.8481 45.7322C53.8481 45.6995 53.8317 45.6668 53.8154 45.6341C53.2921 44.473 51.8367 45.8303 50.7575 45.7485C50.4468 45.7322 50.2996 45.3397 50.5122 45.1108C51.0845 44.5057 52.1474 44.6202 52.8506 44.0969C53.0959 43.917 53.0468 43.5409 52.7525 43.4265C51.9512 43.1158 51.0027 43.4265 50.2342 43.1648C49.8908 43.0504 49.9071 42.5434 50.2505 42.4453C50.8065 42.2654 51.4606 42.4453 52.0657 42.4126C52.082 42.4126 52.1147 42.4126 52.1311 42.3963C54.2079 41.9711 51.5914 41.6113 50.3159 40.9409C49.9725 40.761 50.087 40.2214 50.4958 40.2214C51.8694 40.205 53.521 41.4642 53.4556 39.1911C53.4556 39.1584 53.4556 39.1094 53.472 39.0767C53.7336 38.1773 53.5047 37.5559 52.6053 37.0489C51.0518 36.0514 52.6217 34.6778 53.9626 34.3181C54.1915 34.2526 54.3223 34.0074 54.2079 33.7948C53.1776 31.6853 54.8456 31.0148 56.9551 31.6853C56.9715 31.6853 56.9715 31.6853 56.9878 31.7016C57.8872 31.8979 57.9853 31.8652 58.1815 30.9821C58.1815 30.9658 58.1815 30.9658 58.1979 30.9494C58.9501 28.4311 61.0596 29.9192 62.3515 30.7205M41.6981 4.57264C41.6654 4.55629 41.6163 4.53994 41.6 4.52358C40.9132 5.17769 40.2918 5.88085 39.5232 6.45319C35.7294 9.3149 31.5431 11.3263 26.9153 12.4219C26.1958 12.6018 25.8688 12.8798 25.7706 13.6156C25.6562 14.5968 25.4599 15.578 25.1983 16.5264C24.4788 19.29 23.3178 21.8901 21.8624 24.3593C21.6171 24.7845 21.4536 25.1606 21.8951 25.5858C25.2637 28.6437 28.9758 30.6714 33.7507 30.1808C38.2477 29.723 41.9434 27.8751 44.3145 23.9669C47.6178 18.5705 47.1108 13.0433 44.6252 7.49976C44.5762 7.38529 44.4453 7.30353 44.2001 7.04189C44.2491 7.56517 44.2982 7.87587 44.3145 8.20292C44.3799 8.72621 44.4944 9.24949 44.4781 9.77277C44.4617 10.0508 44.2001 10.2961 44.0529 10.5741C43.8566 10.3451 43.5459 10.1489 43.4805 9.9036C43.317 9.24949 43.268 8.54633 43.1862 7.87587C43.0881 6.99283 43.0063 6.09344 42.9245 5.19404C42.7447 5.22675 42.6629 5.22675 42.6302 5.2758C42.3849 5.61921 42.156 5.96261 41.9107 6.30602C40.0301 9.05326 37.6917 11.2118 34.4866 12.3401C34.1432 12.4546 33.7507 12.52 33.391 12.5364C33.2765 12.5364 33.0803 12.3565 33.0149 12.2257C32.9822 12.1439 33.113 11.9477 33.2274 11.8496C33.3256 11.7514 33.5054 11.7024 33.6526 11.6697C36.8904 10.6068 39.2616 8.46457 41.1094 5.68462C41.3547 5.30851 41.5182 4.91605 41.6981 4.57264ZM57.7237 34.6288C57.691 34.5961 57.6583 34.5797 57.6256 34.547C57.135 35.0539 56.5953 35.5282 56.1538 36.0678C53.3248 39.5018 53.2758 45.7812 57.3803 48.9864C59.6369 50.7688 62.1879 51.4065 65.0169 51.2103C71.5089 50.7524 75.499 44.6693 73.2587 38.6352C72.5882 36.8037 71.4272 35.2992 69.9064 34.0564C69.9391 34.6124 70.0863 35.1357 70.1517 35.659C70.2334 36.2477 70.2661 36.8364 70.2661 37.4251C70.2661 37.4578 70.2498 37.4905 70.2498 37.5068C70.119 37.7521 69.7756 37.7848 69.5793 37.5722C69.5466 37.5395 69.5303 37.4905 69.5139 37.4578C69.3504 36.9999 69.285 36.5257 69.1705 36.0351C68.9579 35.2011 68.8107 34.3508 68.5 33.5658C68.3856 33.2715 67.8623 33.157 67.5189 32.9608C67.4044 33.2715 67.1918 33.5822 67.2082 33.8765C67.2409 34.9722 67.3881 36.0678 67.4535 37.1798C67.4862 37.5722 67.6661 38.21 67.0447 38.259C66.3906 38.2917 66.4723 37.6213 66.4396 37.2125C66.3088 35.9043 66.1943 34.5797 66.1289 33.2551C66.0962 32.7482 65.9163 32.5193 65.4094 32.5356C65.2295 32.5356 65.0496 32.5193 64.8861 32.5029C64.0031 32.4539 63.9377 32.5029 63.905 33.3696C63.8559 34.6615 63.8232 35.9206 63.7251 37.2125C63.7251 37.2288 63.7251 37.2615 63.7087 37.2779C63.627 37.6867 63.0219 37.7358 62.8584 37.3433C62.842 37.2942 62.8257 37.2452 62.8257 37.1961C62.793 36.1005 62.8584 34.9885 62.8257 33.8929C62.8093 33.5004 63.12 32.879 62.515 32.7482C61.8609 32.6174 61.8282 33.2878 61.681 33.7294C61.1741 35.2175 60.6998 36.7055 60.1602 38.1609C60.1439 38.1936 60.1275 38.2263 60.1112 38.259C59.8822 38.5534 59.3916 38.4062 59.3262 38.0301C59.3099 37.9647 59.3099 37.9156 59.3099 37.8502C59.2935 37.7358 59.3753 37.6049 59.408 37.4741C59.8005 36.2313 60.2093 35.0049 60.5854 33.7457C60.6344 33.5658 60.569 33.3696 60.5527 33.1897C60.3564 33.2224 60.0784 33.2061 59.9476 33.3369C59.5225 33.8111 59.0973 34.3017 58.7866 34.8413C58.2143 35.8552 57.7237 36.9181 57.184 37.9647C57.0205 38.2754 56.8079 38.5534 56.579 38.8314C56.4972 38.9295 56.2683 39.044 56.1865 38.9949C56.0721 38.9131 55.9412 38.7006 55.9739 38.5697C56.0557 38.1609 56.1538 37.7521 56.3173 37.376C56.7752 36.4439 57.2658 35.5445 57.7237 34.6288ZM64.0358 77.9959C66.1289 77.9305 68.2384 77.8324 70.3315 77.7833C70.9366 77.767 71.1492 77.5217 71.1165 77.0148C70.9856 75.4286 70.8712 73.8423 70.724 72.2561C70.6586 71.5366 70.5278 71.4385 69.7265 71.4549C65.9981 71.5366 62.2533 71.6347 58.5086 71.7165C57.969 71.7329 57.6746 71.88 57.6256 72.387C57.4457 74.0386 57.2494 75.7065 57.0532 77.3582C56.9878 77.9141 57.2658 78.094 57.8545 78.094M26.4902 72.158C26.392 72.4524 25.9996 72.5014 25.8197 72.2398C25.6235 71.9454 25.4272 71.6838 25.1983 71.4385C24.4134 70.6045 23.5303 70.7681 23.1706 71.8473C22.9253 72.5832 22.8108 73.4008 22.7781 74.1857C22.7781 74.3166 22.8435 74.4637 22.958 74.5946C23.1215 74.8235 23.4649 74.7908 23.6121 74.5455C23.6612 74.4474 23.7102 74.3656 23.7266 74.2675C23.841 73.8914 23.8083 73.4662 23.8901 73.0901C23.9392 72.8612 24.0046 72.6486 24.07 72.387C24.1517 72.0926 24.5442 72.0108 24.7241 72.2561C24.8058 72.3706 24.8876 72.4687 24.9367 72.5668C25.2637 73.1555 25.5254 73.7933 25.8688 74.3983C25.9505 74.5455 26.0977 74.66 26.2449 74.7744C26.4084 74.9053 26.6537 74.8726 26.7845 74.6927C26.8826 74.5619 26.9644 74.431 27.0134 74.2839C27.2097 73.6625 27.3078 72.992 27.5204 72.3706C27.6348 72.0763 27.9128 71.6674 28.1581 71.6347C28.4198 71.602 28.8286 71.88 28.9921 72.158C29.3519 72.7467 29.5808 73.4335 29.8752 74.0713C29.9733 74.2675 30.1532 74.5946 30.2513 74.5946C30.4802 74.5619 30.7091 74.382 30.8727 74.2021C30.9871 74.0713 31.0035 73.826 31.0689 73.6461C31.2651 73.1555 31.4123 72.6322 31.6739 72.1907C32.0991 71.4549 32.6224 71.4222 33.0966 72.1417C33.4891 72.714 33.7507 73.3518 34.1268 73.9078C34.3067 74.1858 34.6501 74.4964 34.9445 74.4964C35.1407 74.4964 35.435 74.0386 35.5495 73.7606C35.7457 73.1719 35.8275 72.5505 36.0074 71.9781C36.22 71.3077 36.5961 71.2423 37.0376 71.7983C37.2502 72.0763 37.3974 72.4033 37.5609 72.714C37.7244 73.0247 37.8389 73.3681 38.0351 73.6461C38.1332 73.8096 38.4112 73.9568 38.5584 73.9241C38.7056 73.8914 38.8364 73.6134 38.8855 73.4335C38.9836 73.1228 38.9182 72.7467 39.0653 72.4687C39.1962 72.2071 39.3924 71.9781 39.5886 71.7492C39.7194 71.602 39.9484 71.5693 40.1119 71.6838C40.3572 71.8637 40.6025 72.0436 40.766 72.2888C41.0604 72.714 41.1748 73.27 41.4692 73.7115C41.6327 73.9568 41.9434 74.2185 42.205 74.2348C42.3849 74.2512 42.6629 73.8914 42.7774 73.6461C43.039 73.0901 43.2189 72.5014 43.4642 71.9454C43.5132 71.8473 43.6114 71.7656 43.7095 71.6838C43.873 71.5693 44.1019 71.5857 44.2328 71.7329C44.2982 71.8146 44.3636 71.8964 44.4126 71.9945C44.6252 72.436 44.756 72.9102 45.0177 73.3191C45.0504 73.3845 45.1322 73.4172 45.2303 73.4499C45.4756 73.5153 45.7372 73.3354 45.7208 73.0738C45.7208 73.0574 45.7208 73.0411 45.7045 73.0247C45.541 72.4524 45.3774 71.88 45.1485 71.324C44.9196 70.8008 44.5435 70.3756 43.9057 70.3592C43.268 70.3429 42.9245 70.8171 42.6629 71.3077C42.5648 71.4876 42.483 71.6838 42.4013 71.88C42.2704 72.1744 41.8616 72.1907 41.7145 71.9127C41.3874 71.324 41.0113 70.8498 40.3408 70.6372C39.4741 70.3592 38.9345 70.7026 38.542 71.3077C38.3949 71.5203 38.0842 71.5366 37.9206 71.3404C37.4791 70.8008 37.0376 70.3102 36.269 70.4901C35.386 70.6699 35.1571 71.3404 34.9772 72.0436C34.8954 72.3706 34.4539 72.436 34.274 72.1417C33.8979 71.5039 33.4891 70.9316 32.7042 70.7517C31.6576 70.5228 31.1507 71.2096 30.6437 71.8964C30.4966 72.0926 30.1859 72.109 30.0387 71.8964C29.499 71.1932 28.9758 70.5228 27.9619 70.719C27.0625 70.8498 26.7355 71.4549 26.4902 72.158Z" fill="white"/>
<path fill-rule="evenodd" clip-rule="evenodd" d="M75.5247 62.0648C75.4861 61.9165 75.4656 61.761 75.4656 61.6007C75.4656 61.331 75.5236 61.0748 75.6279 60.844L47.9454 58.9168L47.9042 58.9139L47.8631 58.9166L18.1148 60.8529C18.2165 61.0813 18.2731 61.3344 18.2731 61.6007C18.2731 61.7644 18.2517 61.9231 18.2116 62.0741L47.9015 60.1417L75.5247 62.0648ZM78.5507 60.2461L86.194 54.8794L86.8979 55.8819L79.1269 61.3383C79.0655 60.9084 78.8555 60.5264 78.5507 60.2461ZM14.5933 61.6007C14.5933 61.6536 14.5955 61.7061 14.5999 61.7579L4.72754 58.4113L5.1208 57.2512L14.9093 60.5693C14.7098 60.8635 14.5933 61.2185 14.5933 61.6007Z" fill="white"/>
<path d="M43.9497 53.6297L48.7769 56.6788L53.1684 53.03L51.7603 58.5632L56.5876 61.6122L50.8901 61.9829L49.482 67.5161L47.3688 62.212L41.6713 62.5826L46.0628 58.9339L43.9497 53.6297Z" fill="white"/>
<path d="M84.5383 51.5707L86.6819 53.4966L89.176 52.053L88.0068 54.6869L90.1504 56.6128L87.2841 56.3147L86.1149 58.9486L85.5127 56.1305L82.6464 55.8324L85.1405 54.3888L84.5383 51.5707Z" fill="white"/>
<path d="M6.66689 53.0881L6.50646 55.9653L9.19332 57.007L6.4073 57.7436L6.24687 60.6208L4.68545 58.1988L1.89944 58.9353L3.72044 56.7019L2.15903 54.2798L4.84589 55.3215L6.66689 53.0881Z" fill="white"/>
<circle cx="16.4434" cy="61.5098" r="0.977557" fill="white"/>
<circle cx="77.3272" cy="61.2027" r="0.977557" fill="white"/>
</svg>
