<svg width="61" height="101" viewBox="0 0 61 101" fill="none" xmlns="http://www.w3.org/2000/svg">
<g opacity="0.1">
<path d="M20.5554 43.2743C18.9966 30.3234 17.1388 17.4144 15.132 4.53358C2.36564 11.0028 -1.71528 5.7724 2.24248 19.0005C5.39166 34.0272 7.43403 49.2567 8.575 64.5691C9.64675 68.2221 8.28932 87.1982 11.462 86.4736C17.7254 88.2136 22.4658 95.9084 25.822 99.1421C24.4383 80.4829 22.7677 61.8429 20.5554 43.2743Z" fill="white"/>
<path d="M44.3481 36.4476C39.1434 40.1799 32.0913 36.7666 28.0546 32.8018C25.8205 29.768 27.0454 29.2802 23.3305 27.0895C22.1703 21.5328 23.5119 14.3898 27.6931 10.1961C30.7058 7.65378 34.501 4.4407 38.5531 6.29739C46.018 7.53007 50.5295 11.5593 50.604 1.06991C39.4743 2.66318 25.6697 2.07834 15.8596 4.76231C16.3886 8.16217 16.9241 11.5542 17.4317 14.9561C19.9768 32.0439 22.1383 49.196 23.7345 66.3999C29.843 108.512 16.5622 100.441 47.8478 91.8502C46.4574 83.2414 48.5071 83.4064 44.2403 90.3567C41.0914 92.6734 36.2087 95.2795 32.6363 92.4408C30.9352 90.9668 29.362 89.1563 28.431 87.1136C27.6583 86.4777 26.3033 86.256 26.2156 85.1458C25.4387 78.5006 30.2576 70.1793 37.3827 69.9138C39.9837 70.5043 43.866 70.4359 45.7383 72.0457C42.1794 72.3369 37.7455 69.1518 34.1431 71.3227C31.3397 73.1604 28.6879 75.6263 27.5796 78.8737C25.9996 83.1095 26.7319 88.7993 32.4867 86.1059C37.2113 82.8795 40.3458 77.974 44.0112 73.7412C44.9485 73.1861 45.9034 72.5861 46.8766 72.107C46.4809 70.0007 47.2624 65.3188 46.2651 64.4366C40.9227 69.6532 30.0209 69.6456 29.0036 60.6994C22.7182 59.7406 25.5602 52.438 27.0189 48.4514C28.6873 44.7052 32.0322 42.0097 35.6422 40.2349C38.887 40.6868 42.144 42.9196 45.7339 42.4958C48.4799 43.0946 46.9287 36.8163 47.6201 34.9203C48.2642 31.2539 45.9031 35.6265 44.3481 36.4476Z" fill="white"/>
<path d="M36.0541 6.34668C30.587 7.30387 25.6369 12.0011 24.4198 17.5166C24.1604 20.8158 21.7636 26.4471 25.8231 27.9928C35.5231 26.935 39.5205 14.2308 47.3386 9.18328C47.7071 8.87525 48.0946 8.69534 47.3538 8.72016C43.5249 8.27141 39.7717 7.39004 36.0541 6.34668Z" fill="white"/>
<path d="M46.6471 49.6836C42.7692 45.7981 40.3491 53.5309 37.5572 55.7283C35.9235 57.8119 33.7022 59.625 31.2677 60.2961C34.6609 73.504 54.0754 60.8756 46.6471 49.6836Z" fill="white"/>
<path d="M43.1622 77.3758C39.1576 79.3312 37.0093 86.4113 31.9086 87.508C32.7471 93.9599 41.1131 92.9887 44.3097 88.9144C46.8458 85.8965 47.7407 78.8378 43.1622 77.3758Z" fill="white"/>
<path d="M52.4537 15.9277C46.4664 1.26289 39.3613 26.6185 28.8404 28.2423C32.4464 44.7854 57.7926 33.2709 52.4537 15.9277Z" fill="white"/>
<path d="M40.586 42.5219C31.8469 37.4745 25.3785 50.139 25.7811 57.7348C32.7197 65.8768 40.3638 48.5014 45.4125 44.7979C49.2113 41.938 42.8189 43.8171 40.586 42.5219Z" fill="white"/>
</g>
<path fill-rule="evenodd" clip-rule="evenodd" d="M31.4136 64.2487C31.2479 64.7579 30.9295 65.2031 30.5079 65.5247L40.9765 69.9522C36.3412 75.0525 28.2278 83.9672 27.73 84.466L28.8116 85.5453C29.3701 84.9857 38.4065 75.0531 42.8322 70.1822L43.5569 69.3846L42.5643 68.9648L31.4136 64.2487ZM29.6464 9.9047L28.7189 60.8255C28.7059 60.8265 28.693 60.8276 28.68 60.8288C28.1005 60.8821 27.5825 61.1202 27.1787 61.4796L28.1186 9.87687L29.6464 9.9047Z" fill="white"/>
<circle cx="29.4297" cy="63.1061" r="1.64177" transform="rotate(-5.25333 29.4297 63.1061)" fill="white"/>
<circle cx="26.693" cy="86.9906" r="1.35762" transform="rotate(-5.25333 26.693 86.9906)" fill="white"/>
<path d="M28.2639 2.8269L30.1332 7.17708L34.8481 6.74357L31.2885 9.86564L33.1578 14.2158L29.0885 11.7952L25.5289 14.9173L26.5736 10.2992L22.5043 7.87853L27.2192 7.44501L28.2639 2.8269Z" fill="white"/>
<path d="M40.1451 66.537L42.2093 68.7494L44.9513 67.4698L43.4851 70.1167L45.5493 72.3291L42.5789 71.7525L41.1127 74.3994L40.7431 71.3962L37.7727 70.8197L40.5147 69.5402L40.1451 66.537Z" fill="white"/>
</svg>
