<svg width="111" height="98" viewBox="0 0 111 98" fill="none" xmlns="http://www.w3.org/2000/svg">
<path d="M87.3961 54.0581L88.2575 56.7091H91.045L88.7899 58.3475L89.6512 60.9985L87.3961 59.3601L85.1411 60.9985L86.0024 58.3475L83.7473 56.7091H86.5348L87.3961 54.0581Z" fill="white"/>
<path opacity="0.1" d="M110.863 45.4369C110.808 45.6576 110.697 45.8232 110.642 46.0439C109.759 50.7617 106.973 53.9345 102.613 55.8657C101.289 56.4451 99.9097 56.9693 98.5854 57.5211C96.8749 58.2108 95.7989 59.4248 95.4678 61.2733C94.9712 63.7563 94.447 66.2118 93.9504 68.6948C93.4262 71.5089 92.0467 73.854 90.281 76.0888C89.5913 76.9441 89.0671 77.9373 88.6532 78.9581C87.3013 82.4343 86.0598 85.9382 84.7631 89.4145C84.1286 91.0974 83.5768 92.808 82.9974 94.4909C82.2801 96.6429 79.6591 98.2431 77.3967 97.8568C75.9897 97.6085 74.9965 96.367 74.8033 94.5737C74.6378 93.1942 75.4103 91.9527 76.8174 91.5113C77.7002 91.2354 78.6934 91.2906 79.6039 91.0147C80.1557 90.8491 80.9006 90.4629 81.0661 90.0214C82.0042 86.8211 82.8043 83.5931 83.6595 80.3651C83.6871 80.1996 83.632 80.0617 83.632 79.8409C81.6731 80.1168 79.7418 80.2548 77.8933 80.7238C77.1484 80.9169 76.3483 81.717 76.0449 82.4619C74.9137 85.1657 73.9481 87.9798 72.9548 90.7388C72.5134 91.9803 72.2375 93.3046 71.7133 94.5185C70.8029 96.5877 68.4302 97.8017 66.1954 97.443C65.1746 97.2499 64.5677 96.6153 64.2366 95.6221C63.7676 94.2702 63.74 92.8907 64.8436 91.9251C65.7264 91.125 66.8852 90.5456 68.0163 90.1042C69.0371 89.7455 69.6717 89.2213 70.0304 88.2005C70.7477 86.2693 71.5478 84.3932 72.3203 82.4895C73.0652 80.641 72.8997 80.172 70.858 79.9513C68.2371 79.6478 65.5609 79.5375 62.9123 79.4271C55.7115 79.1788 48.8693 77.6614 42.7444 73.7437C41.5305 72.9712 40.3441 72.7505 39.1302 73.4678C36.6472 74.93 34.2193 76.4199 31.8466 78.02C31.3224 78.3787 31.1569 79.2616 30.9362 79.9237C30.1361 82.324 27.8461 83.2896 25.6114 82.2136C24.0664 81.4411 23.5146 80.5583 23.7353 79.096C23.956 77.4683 25.3079 75.8129 26.9357 75.6749C29.805 75.4818 31.9294 73.7989 34.1641 72.3366C34.7711 71.9228 35.4608 71.371 35.7367 70.7088C36.0126 70.0191 36.2333 68.9155 35.8747 68.3637C33.833 65.0254 32.3156 61.5491 31.4604 57.7418C31.3224 57.1073 30.4947 56.3623 29.8326 56.1692C27.6254 55.4795 25.5286 55.9209 23.5422 57.1348C23.0732 57.4383 22.6317 57.797 22.1351 58.0729C20.1763 59.0937 18.245 58.3488 17.307 56.1968C16.5345 54.4587 17.3622 52.5826 19.2934 51.8928C20.6729 51.3962 22.08 51.2583 23.3767 52.086C24.9493 53.024 26.5494 52.6929 28.122 52.3343C29.2256 52.0584 29.667 51.1755 29.667 50.0719C29.667 47.5061 27.9289 46.0439 25.3631 46.237C19.7624 46.6784 14.3273 46.2094 9.66471 42.7332C8.28524 41.7124 7.29202 40.1949 6.0505 38.9534C5.47112 38.3464 4.86415 37.7119 4.14683 37.3808C1.58101 36.1117 0.173949 33.0769 1.0844 30.3179C1.63619 28.7177 2.82253 27.7521 4.42272 27.421C6.87818 26.9244 9.41641 26.6209 11.8995 26.2071C14.0238 25.876 16.1758 25.6553 18.1898 25.0207C19.321 24.6897 20.5349 23.7516 21.1419 22.7308C23.3767 19.1718 26.3839 16.937 30.5499 16.2197C31.1293 16.137 31.8466 15.9162 31.4328 15.1989C30.2464 13.1021 28.9221 11.0881 27.6254 9.04647C27.4599 9.07406 27.3219 9.15683 27.184 9.18442C27.0185 10.1776 26.8805 11.1709 26.715 12.1365C26.5494 13.1021 26.4115 14.0953 26.1632 15.0334C25.7493 16.468 24.5078 17.3233 22.9352 17.2957C21.7213 17.2681 20.8108 16.468 20.6177 14.8127C20.4522 13.1849 20.3142 11.4743 20.6177 9.84656C21.0867 7.33593 21.7489 4.85288 22.6593 2.4526C23.5974 0.0247291 25.1976 -0.306344 27.1564 1.34902C31.1845 4.74252 33.9986 8.85335 34.7159 14.2057C34.8263 15.0334 35.3505 15.9438 35.9298 16.4956C37.1438 17.6268 38.6612 17.2681 39.7372 16.0266C41.3098 14.2333 42.8824 12.4124 44.6481 10.7846C46.1103 9.43272 47.1587 9.65344 48.0692 11.364C50.3591 15.6955 52.0697 20.2478 52.7318 25.1311C53.0629 27.4762 52.4559 28.5246 50.8833 28.966C49.2004 29.4626 47.0484 28.6626 46.3586 26.8968C45.4758 24.5793 45.0344 22.1514 44.2894 19.7788C44.1515 19.3097 43.6549 18.8959 43.3238 18.4821C42.8272 18.8683 42.303 19.227 41.9167 19.696C41.7236 19.9443 41.834 20.4409 41.8892 20.7996C41.9443 21.0755 42.0271 21.3789 42.165 21.6548C44.5102 26.5106 46.0276 31.587 46.6069 36.967C46.8553 39.2845 48.1795 41.0226 49.9729 42.54C51.9041 44.1678 54.0285 45.2714 56.4288 46.1267C63.6848 48.8028 70.996 51.2583 78.6934 52.2515C84.7631 53.024 90.8052 52.4998 96.2403 49.2719C99.3579 47.4234 101.482 44.7196 102.062 41.0502C102.2 40.1398 102.089 39.2017 102.034 38.2361C102.007 37.1601 101.786 36.0841 101.896 35.0633C102.089 33.1045 102.972 32.1388 104.683 31.8905C106.614 31.587 107.8 32.1388 108.628 33.9597C109.263 35.3668 109.732 36.7738 110.283 38.2085C110.504 40.6364 110.67 43.0366 110.863 45.4369ZM10.6855 28.3039C12.5064 32.1664 11.927 34.346 8.50595 36.6083C7.78863 37.1049 7.70586 37.7119 8.20247 38.2085C9.33364 39.4224 10.4372 40.7191 11.7891 41.5744C15.8172 44.085 20.4246 44.4161 25.0596 44.3885C26.4391 44.3885 26.6046 43.9195 25.9976 42.678C25.0044 40.7467 23.956 38.8431 23.0456 36.8566C21.9144 34.3184 20.9212 31.6974 19.928 29.1316C19.5969 28.3039 19.2106 27.6693 18.1898 27.7521C15.7344 27.9176 13.2789 28.1108 10.6855 28.3039ZM34.7711 51.6445C34.7711 51.617 34.7711 51.5894 34.7711 51.5894C34.9642 51.5618 35.2125 51.5894 35.4056 51.5342C40.3166 50.4582 44.3722 47.8372 48.0416 44.5541C48.3175 44.3058 48.5106 43.5608 48.3451 43.3401C48.014 42.8711 47.3795 42.2917 46.938 42.3193C46.0827 42.3469 45.1999 42.7056 44.4274 43.1194C40.6752 45.161 36.9506 47.2302 33.2261 49.2994C33.0881 49.3546 32.9502 49.4098 32.895 49.4926C32.7571 49.8788 32.4812 50.3478 32.5363 50.7341C32.5915 51.0376 33.033 51.3962 33.364 51.5342C33.8055 51.6721 34.3021 51.617 34.7711 51.6445ZM32.1777 30.9525C33.1157 30.8973 33.7779 30.0696 33.6951 29.0764C33.5847 28.0004 32.9226 27.4762 31.9018 27.4486C30.9913 27.4486 30.3016 28.2763 30.3292 29.2695C30.3292 30.2903 31.1293 31.0077 32.1777 30.9525ZM32.2053 23.4757C32.1501 22.4273 31.4052 21.6824 30.5499 21.7652C29.5567 21.9031 28.8669 22.4273 28.8669 23.5033C28.8669 24.469 29.5567 24.9932 30.5775 24.938C31.5983 24.9104 32.1225 24.3586 32.2053 23.4757Z" fill="white"/>
<path fill-rule="evenodd" clip-rule="evenodd" d="M54.3156 58.4996C54.5729 58.2132 54.91 58.0001 55.2919 57.895L36.1398 37.5459L35.3203 38.3171L54.3156 58.4996ZM57.8164 59.3686C57.8559 59.5272 57.8769 59.6932 57.8769 59.864C57.8769 60.0856 57.8417 60.2989 57.7764 60.4986L87.4009 58.6276L87.33 57.5045L57.8164 59.3686ZM57.5589 60.9589C57.3455 61.2942 57.0371 61.563 56.6715 61.7274L62.1718 73.886L63.197 73.4222L57.5589 60.9589Z" fill="#FFF3F3"/>
<circle cx="55.8129" cy="59.7079" r="1.32168" fill="#FFF3F3"/>
<path d="M63.0309 69.6245L63.8923 72.2755H66.6797L64.4246 73.9139L65.286 76.5649L63.0309 74.9265L60.7758 76.5649L61.6372 73.9139L59.3821 72.2755H62.1695L63.0309 69.6245Z" fill="white"/>
<path d="M39.2399 34.249L38.3948 37.9447L41.6484 39.8905L37.8724 40.2287L37.0272 43.9244L35.5387 40.4377L31.7628 40.7759L34.6188 38.2829L33.1303 34.7962L36.3839 36.7421L39.2399 34.249Z" fill="white"/>
</svg>
