<svg width="380" height="184" viewBox="0 0 380 184" fill="none" xmlns="http://www.w3.org/2000/svg">
<g filter="url(#filter0_f_92_9739)">
<path fill-rule="evenodd" clip-rule="evenodd" d="M148.092 50.9695L147.179 50.3386L146.309 51.0271L59.8906 119.388L61.7518 121.741L147.3 54.0685L215.669 101.312C216.239 100.459 216.978 99.727 217.838 99.1648L148.092 50.9695ZM229.352 103.586C229.517 104.209 229.605 104.863 229.605 105.537C229.605 105.893 229.58 106.243 229.533 106.586H287.214C287.167 106.243 287.143 105.893 287.143 105.537C287.143 104.863 287.23 104.209 287.395 103.586H229.352ZM302.106 103.586C302.271 104.209 302.359 104.863 302.359 105.537C302.359 105.893 302.334 106.243 302.287 106.586H324.757L335.498 127.121C336.272 126.493 337.173 126.014 338.155 125.727L326.995 104.391L326.574 103.586H325.665H302.106ZM293.758 113.081C292.702 112.943 291.714 112.589 290.839 112.064L288.916 132.895L288.765 134.533H290.41H332.827C332.73 134.048 332.679 133.546 332.679 133.033C332.679 132.519 332.73 132.017 332.827 131.533H292.055L293.758 113.081Z" fill="white"/>
<circle cx="222.375" cy="104.637" r="3.8747" fill="white"/>
<circle cx="293.988" cy="105.537" r="3.8747" fill="white"/>
<circle cx="340.269" cy="133.032" r="3.8747" fill="white"/>
<path d="M332.697 96.4064L330.247 104.177L336.88 108.909L328.732 108.98L326.282 116.751L323.697 109.024L315.549 109.095L322.099 104.249L319.513 96.5217L326.147 101.253L332.697 96.4064Z" fill="white"/>
<path d="M147.607 37.4402L150.921 47.6413H161.647L152.97 53.9459L156.284 64.147L147.607 57.8424L138.929 64.147L142.244 53.9459L133.566 47.6413H144.292L147.607 37.4402Z" fill="white"/>
<path d="M60.8236 100.762L65.4076 114.87H80.2417L68.2407 123.589L72.8247 137.697L60.8236 128.978L48.8226 137.697L53.4066 123.589L41.4055 114.87H56.2396L60.8236 100.762Z" fill="white"/>
<path d="M286.406 124.482L290.883 129.559L297.096 126.87L293.65 132.697L298.128 137.774L291.521 136.298L288.076 142.125L287.438 135.386L280.831 133.91L287.044 131.221L286.406 124.482Z" fill="white"/>
</g>
<path opacity="0.2" d="M375.089 87.4842C375.089 85.9244 375.089 84.3647 375.089 82.805C375.089 81.171 375.015 79.4627 375.015 77.6802C375.238 77.5316 375.535 77.3088 375.832 77.0117C376.426 76.4175 377.169 75.8976 377.689 75.2292C379.397 73.0753 379.546 70.2529 378.134 67.8762C377.169 66.2422 375.683 65.1281 374.049 64.3853C372.341 63.6426 370.559 63.2713 368.702 63.197C368.405 63.197 368.033 63.197 367.736 63.197C325.475 63.197 283.214 63.197 240.953 63.197C239.096 63.197 237.239 63.4198 235.456 64.0883C233.971 64.6082 232.634 65.4252 231.594 66.6135C228.995 69.3616 228.995 73.1495 231.52 75.8976C232.263 76.6403 233.005 77.3088 233.897 77.7544C234.342 77.9772 234.714 78.2001 235.159 78.4229C235.308 79.537 235.234 87.3356 235.085 88.3754C235.011 88.4497 235.011 88.4497 234.937 88.524C234.862 88.524 234.862 88.524 234.788 88.5983C234.417 88.5983 234.045 88.5983 233.674 88.5983C224.984 88.5983 216.22 88.5983 207.53 88.5983C207.456 88.5983 207.307 88.524 207.084 88.4497C207.084 88.2269 207.01 87.9298 207.01 87.6327C207.01 87.1128 207.01 86.5186 207.01 85.9987C207.01 65.3509 207.01 44.7774 207.01 24.1295C207.01 21.3072 207.233 18.5591 206.49 15.811C207.01 15.4396 207.604 15.5882 208.124 15.5882C209.61 15.5882 211.021 15.2168 212.283 14.4741C214.66 13.1372 216.146 11.0575 216.368 8.30945C216.517 6.74973 216.071 5.33855 215.254 4.00164C213.992 2.07055 212.209 0.882185 209.981 0.362276C209.684 0.288004 209.387 0.139458 209.09 0.0651855H103.994C103.697 0.139458 103.4 0.288004 103.102 0.362276C101.171 0.807913 99.6117 1.69919 98.349 3.25891C95.6752 6.45264 96.2694 10.7605 99.166 13.36C100.726 14.7712 102.583 15.5139 104.736 15.5882C105.405 15.5882 106.148 15.5139 106.89 15.7367C106.89 16.1081 106.89 16.4052 106.816 16.7023C106.742 17.7421 106.519 18.8562 106.519 19.896C106.445 26.432 106.519 32.968 106.519 39.5783C106.519 48.3424 106.593 57.1809 106.593 65.9451C106.593 66.465 106.519 66.9849 106.519 67.5791C105.851 67.8019 105.331 67.7276 104.736 67.7276C99.3889 67.7276 93.9669 67.6533 88.6193 67.6533C85.0542 67.6533 81.5634 67.7276 77.9983 67.8019C77.4784 67.8019 76.9585 67.7276 76.3643 67.7276C76.3643 67.282 76.29 66.9106 76.3643 66.5393C77.4041 60.3004 78.444 54.0614 79.4095 47.8225C79.7809 45.7429 80.078 43.6633 80.375 41.6579C80.5979 40.2467 80.3008 39.5783 78.9639 38.9841C78.2211 38.6127 77.4041 38.3156 76.5129 38.1671C74.1361 37.5729 71.7594 37.3501 69.3084 37.2758C65.5948 37.053 61.8811 37.2015 58.2418 37.87C57.0534 38.0928 55.8651 38.3899 54.6767 38.7613C54.1568 38.9098 53.7111 39.1326 53.1912 39.4297C52.4485 39.8754 52.1514 40.4695 52.3 41.2865C52.5228 42.6234 52.7456 43.9604 53.0427 45.223C54.3796 52.3532 55.7165 59.4833 57.1277 66.5393C57.2762 67.2077 57.3505 67.8762 57.4991 68.6189C56.385 68.7674 55.4194 68.916 54.3796 68.9903C51.5572 69.2131 48.7349 69.5102 45.9125 70.0301C42.3474 70.7728 38.7081 71.4413 35.2915 72.7039C26.3788 75.9719 19.62 81.6909 15.0151 89.9352C13.6782 92.3862 12.6383 94.9857 11.8213 97.6595C11.6728 98.0309 11.5242 98.4765 11.45 98.9221C11.0786 98.9221 10.7072 98.9964 10.3359 98.9964C8.18198 98.9964 6.32516 99.8134 4.76543 101.225C2.98289 102.859 1.79452 104.864 1.12607 107.166C-0.136567 111.623 0.160524 115.931 2.46298 120.09C3.05716 121.204 3.87416 122.095 4.76543 122.987C6.02807 124.175 7.51352 124.918 9.22179 125.14C9.89025 125.215 10.4844 125.289 11.2272 125.363C12.7126 130.859 15.0893 135.91 18.6544 140.441C22.2195 144.971 26.5273 148.462 31.5779 151.284C31.3551 151.804 31.2065 152.176 31.058 152.621C29.7953 155.592 29.1269 158.786 29.2754 162.054C29.5725 168.961 32.3949 174.532 37.8168 178.84C40.6391 181.068 43.9071 182.479 47.4722 183.073C48.0664 183.222 48.7349 183.147 49.2548 183.667H53.4141C53.8597 183.147 54.6024 183.222 55.1966 183.073C56.9791 182.776 58.6131 182.256 60.2471 181.513C67.6001 178.023 71.9822 172.304 73.1706 164.208C73.7648 160.197 73.1706 156.409 71.6109 152.696C71.4623 152.324 71.2395 152.027 71.388 151.581C71.5366 151.581 71.7594 151.507 71.9822 151.507C76.1415 151.581 80.375 151.581 84.6829 151.656C84.6086 152.027 84.5343 152.324 84.46 152.621C83.346 155.221 82.7518 157.969 82.6775 160.791C82.6032 163.911 83.0489 166.882 84.3115 169.778C87.5052 177.131 93.0014 181.588 100.874 183.147C101.543 183.296 102.285 183.222 102.88 183.742H106.742C107.262 183.222 107.93 183.296 108.524 183.147C116.694 181.513 122.413 176.834 125.459 169.11C127.464 163.911 127.315 158.637 125.31 153.364C125.161 152.918 124.939 152.473 124.864 152.101C125.013 151.656 125.31 151.73 125.607 151.73C129.024 151.73 132.366 151.73 135.782 151.73C136.005 151.73 136.154 151.804 136.525 151.804C136.599 152.844 136.674 153.81 136.748 154.85C137.639 167.402 146.552 179.062 160.07 182.256C178.118 186.564 194.458 174.68 197.577 158.266C197.949 156.335 198.172 154.33 198.172 152.324C198.172 151.879 198.172 151.433 198.172 150.987C198.394 150.839 198.543 150.69 198.691 150.616C203.148 148.759 205.45 145.194 206.564 140.663C207.01 138.955 207.159 137.173 207.159 135.39V115.559C207.159 114.965 207.233 114.371 207.233 113.777C207.901 113.48 208.495 113.628 209.015 113.628C214.289 113.628 219.562 113.628 224.835 113.628C227.732 113.628 230.629 113.628 233.525 113.628C234.045 113.628 234.565 113.702 235.085 113.702C235.456 114.297 235.308 114.965 235.308 115.485C235.308 121.427 235.308 127.443 235.308 133.385C235.308 135.984 235.605 138.51 236.571 140.961C238.279 145.343 241.175 148.536 245.558 150.319C246.523 150.69 247.637 150.987 248.677 151.284C248.751 151.656 248.454 152.027 248.306 152.398C247.043 155.221 246.375 158.192 246.375 161.311C246.449 167.179 248.38 172.378 252.465 176.611C255.807 180.102 259.818 182.256 264.646 183.147C265.24 183.222 265.834 183.222 266.28 183.667H270.81C271.256 183.147 271.999 183.147 272.593 183.073C279.797 181.81 287.225 176.389 289.75 167.402C291.087 162.574 290.864 157.746 288.933 153.067C288.71 152.547 288.561 152.101 288.339 151.507C288.636 151.433 288.784 151.359 289.007 151.359C291.458 151.21 321.539 151.359 322.727 151.507C322.95 151.953 322.653 152.324 322.504 152.696C321.093 156.038 320.499 159.454 320.796 163.094C321.167 168.664 323.395 173.343 327.332 177.206C330.526 180.399 334.388 182.405 338.918 183.147C339.438 183.222 340.107 183.222 340.552 183.742H345.083C345.529 183.222 346.123 183.296 346.717 183.147C351.099 182.405 354.887 180.474 358.081 177.428C362.389 173.269 364.691 168.144 364.914 162.128C364.988 158.563 364.32 155.221 362.834 151.953C362.76 151.804 362.686 151.581 362.537 151.284C362.834 151.136 363.131 150.987 363.428 150.913C368.776 149.502 372.192 145.937 374.198 140.886C375.089 138.732 375.386 136.43 375.386 134.127C375.386 128.037 375.386 121.872 375.386 115.782V114.148M51.1116 171.338C44.947 171.189 41.3076 166.213 41.4562 161.237C41.6047 155.815 46.1353 151.507 51.5572 151.656C57.0534 151.804 61.287 156.261 61.1384 161.757C60.9899 166.733 57.0534 171.412 51.1116 171.338ZM114.466 161.534C114.689 165.842 111.198 171.338 104.588 171.264C98.6461 171.264 94.784 166.51 94.784 161.385C94.784 155.964 99.166 151.581 104.588 151.507C110.53 151.581 114.763 156.632 114.466 161.534ZM167.2 166.213C159.698 166.213 153.459 160.271 153.385 152.547C153.385 144.303 160.07 138.732 167.051 138.807C174.701 138.807 180.792 144.897 180.866 152.473C180.94 160.049 174.924 166.213 167.2 166.213ZM179.381 79.2399C178.786 79.3142 178.192 79.3142 177.598 79.3142H134.817C134.223 79.3142 133.629 79.3142 133.034 79.2399C130.138 78.8685 128.727 76.6403 128.727 74.635C128.727 74.2636 128.727 73.8923 128.727 73.5209V37.87C128.727 37.4986 128.727 37.1273 128.727 36.7559C128.727 34.0821 130.806 32.151 133.406 32.0024C133.703 32.0024 133.926 32.0024 134.223 32.0024C148.854 32.0024 163.486 32.0024 178.118 32.0024C178.786 32.0024 179.529 32.0767 180.198 32.2253C182.203 32.7452 183.614 34.4534 183.688 36.5331C183.688 36.9044 183.688 37.2758 183.688 37.6472V73.5209C183.688 73.818 183.688 74.1893 183.688 74.4864C183.837 76.7146 182.054 78.9428 179.381 79.2399ZM268.285 171.338C262.863 171.338 258.332 167.104 258.407 161.385C258.481 154.924 263.977 151.359 268.285 151.656C273.261 151.359 278.312 155.964 278.015 161.46C278.312 166.213 274.375 171.264 268.285 171.338ZM342.483 171.338C336.393 171.264 332.457 166.139 332.754 161.46C332.531 156.706 336.542 151.656 342.558 151.656C347.831 151.656 352.362 155.815 352.436 161.46C352.436 166.956 348.054 171.412 342.483 171.338Z" fill="white"/>
<path fill-rule="evenodd" clip-rule="evenodd" d="M148.092 50.9695L147.179 50.3386L146.309 51.0271L59.8906 119.388L61.7518 121.741L147.3 54.0685L215.669 101.312C216.239 100.459 216.978 99.727 217.838 99.1648L148.092 50.9695ZM229.352 103.586C229.517 104.209 229.605 104.863 229.605 105.537C229.605 105.893 229.58 106.243 229.533 106.586H287.214C287.167 106.243 287.143 105.893 287.143 105.537C287.143 104.863 287.23 104.209 287.395 103.586H229.352ZM302.106 103.586C302.271 104.209 302.359 104.863 302.359 105.537C302.359 105.893 302.334 106.243 302.287 106.586H324.757L335.498 127.121C336.272 126.493 337.173 126.014 338.155 125.727L326.995 104.391L326.574 103.586H325.665H302.106ZM293.758 113.081C292.702 112.943 291.714 112.589 290.839 112.064L288.916 132.895L288.765 134.533H290.41H332.827C332.73 134.048 332.679 133.546 332.679 133.033C332.679 132.519 332.73 132.017 332.827 131.533H292.055L293.758 113.081Z" fill="white"/>
<circle cx="222.375" cy="104.637" r="3.8747" fill="white"/>
<circle cx="293.988" cy="105.537" r="3.8747" fill="white"/>
<circle cx="340.269" cy="133.032" r="3.8747" fill="white"/>
<path d="M332.697 96.4064L330.247 104.177L336.88 108.909L328.732 108.98L326.282 116.751L323.697 109.024L315.549 109.095L322.099 104.249L319.513 96.5217L326.147 101.253L332.697 96.4064Z" fill="white"/>
<path d="M147.607 37.4402L150.921 47.6413H161.647L152.97 53.9459L156.284 64.147L147.607 57.8424L138.929 64.147L142.244 53.9459L133.566 47.6413H144.292L147.607 37.4402Z" fill="white"/>
<path d="M60.8236 100.762L65.4076 114.87H80.2417L68.2407 123.589L72.8247 137.697L60.8236 128.978L48.8226 137.697L53.4066 123.589L41.4055 114.87H56.2396L60.8236 100.762Z" fill="white"/>
<path d="M286.406 124.482L290.883 129.559L297.096 126.87L293.65 132.697L298.128 137.774L291.521 136.298L288.076 142.125L287.438 135.386L280.831 133.91L287.044 131.221L286.406 124.482Z" fill="white"/>
<defs>
<filter id="filter0_f_92_9739" x="31.4062" y="27.4402" width="322.738" height="124.685" filterUnits="userSpaceOnUse" color-interpolation-filters="sRGB">
<feFlood flood-opacity="0" result="BackgroundImageFix"/>
<feBlend mode="normal" in="SourceGraphic" in2="BackgroundImageFix" result="shape"/>
<feGaussianBlur stdDeviation="5" result="effect1_foregroundBlur_92_9739"/>
</filter>
</defs>
</svg>
