<svg width="255" height="294" viewBox="0 0 255 294" fill="none" xmlns="http://www.w3.org/2000/svg">
<g filter="url(#filter0_f_92_9420)">
<path fill-rule="evenodd" clip-rule="evenodd" d="M69.7587 259.389C68.9827 258.752 68.0972 258.244 67.1348 257.897L103.217 174.043C104.15 174.413 105.16 174.63 106.217 174.662L69.7587 259.389ZM112.771 159.431L152.005 68.2529L149.249 67.0671L110.259 157.678C111.197 158.115 112.045 158.711 112.771 159.431ZM70.8449 272.115C71.6535 271.183 72.2717 270.081 72.6389 268.87L133.749 261.299C133.693 261.702 133.664 262.113 133.664 262.531C133.664 263.14 133.725 263.735 133.842 264.31L70.8449 272.115ZM151.474 262.126C151.428 261.088 151.204 260.097 150.833 259.182L193.222 253.93C193.404 254.967 193.765 255.943 194.271 256.823L151.474 262.126ZM207.98 245.782L229.861 196.81L227.122 195.586L205.421 244.156C206.368 244.55 207.232 245.103 207.98 245.782Z" fill="white"/>
<circle cx="107.589" cy="164.959" r="4.55767" fill="white"/>
<circle cx="64.9854" cy="267.089" r="4.55767" fill="white"/>
<circle cx="143.239" cy="261.929" r="4.55767" fill="white"/>
<circle cx="202.886" cy="252.385" r="4.55767" fill="white"/>
<path d="M154.643 53.8054L154.3 67.7036L167.412 72.3247L154.088 76.2932L153.745 90.1914L145.853 78.7458L132.529 82.7143L140.976 71.6721L133.084 60.2266L146.196 64.8476L154.643 53.8054Z" fill="white"/>
<path d="M234.855 179.433L234.596 189.926L244.495 193.414L234.436 196.41L234.177 206.903L228.219 198.262L218.16 201.258L224.537 192.922L218.579 184.281L228.478 187.77L234.855 179.433Z" fill="white"/>
</g>
<g opacity="0.2">
<path d="M1.6515 286.317C6.86013 288.769 12.0687 288.654 17.4306 287.581C17.4689 285.973 16.4731 285.705 15.3241 285.973C11.9156 286.854 8.50697 286.432 5.06009 286.126C2.64727 285.934 1.99619 284.671 3.18345 282.526C4.06432 280.917 4.52391 278.543 5.82606 277.853C7.16652 277.164 9.34954 278.351 11.1496 278.351C24.2477 278.236 37.3459 278.16 50.444 278.16C51.21 278.16 52.5888 278.581 52.359 277.126C52.2824 276.704 50.8653 276.168 50.0611 276.168C39.1842 276.168 28.2691 276.513 17.3923 276.666C14.2135 276.628 11.0347 276.398 7.85589 276.207C7.39631 276.168 6.89842 275.938 6.20905 275.747C7.08992 273.87 7.89419 272.147 8.62187 270.653C12.1836 271.113 15.5922 271.534 19.1923 271.994C19.0774 269.964 17.8902 269.887 16.6646 269.811C14.3284 269.696 12.0305 269.543 9.23464 269.351C10.3453 267.053 11.2262 265.253 12.2219 263.147C14.4433 266.019 17.4306 266.479 20.303 266.67C25.8946 267.015 31.4862 267.053 37.0778 267.168C37.3842 267.168 37.6523 267.015 38.0353 266.938C38.0353 265.674 37.4991 265.138 36.3118 265.177C34.0905 265.253 31.8692 265.33 29.6096 265.253C25.9712 265.138 22.3711 265.023 18.7327 264.717C17.4306 264.602 16.1284 264.142 14.8646 263.683C13.4858 263.185 13.2177 262.151 13.8688 260.925C20.1498 249.168 28.4989 248.938 40.563 249.053C56.4569 249.168 72.4275 250.317 88.2449 248.708C93.0322 248.21 98.0493 247.368 101.726 243.959C110.65 236.223 115.782 225.614 121.258 215.427C121.986 214.086 122.637 213.741 124.092 214.354C127.195 215.618 130.412 216.652 133.667 217.839C132.48 221.937 131.293 226.074 129.646 230.018C120.799 249.627 112.603 269.504 104.981 289.611C104.024 291.947 101.956 292.56 99.7728 291.335C99.1983 290.99 98.4706 290.837 97.8195 290.837C92.6109 290.913 87.364 290.952 82.1554 291.258C77.8276 291.488 73.5382 292.215 69.2487 292.484C52.2058 293.403 35.1246 293.135 18.0816 293.518C12.9113 293.518 7.6261 294.743 2.53237 293.288C-1.1443 292.177 0.617438 288.845 1.6515 286.317Z" fill="white"/>
<path d="M150.557 176.438C148.144 175.251 145.808 174.102 143.242 172.838C148.259 160.2 154.081 147.944 159.213 135.344C162.736 126.612 165.992 117.726 170.702 109.569C171.392 108.343 173.077 107.731 174.264 106.773C174.954 106.199 176.256 105.701 175.375 104.59C175.03 104.169 173.766 104.513 172.809 104.513C175.528 98.2324 178.017 91.6068 180.737 85.2875C182.039 82.2236 183.647 79.2746 184.988 76.2107C185.447 75.1383 185.294 73.8362 185.754 72.7638C188.128 67.019 190.694 61.3508 193.069 55.5677C194.294 52.5804 195.099 49.4016 196.248 46.376C196.784 44.9972 197.78 43.7717 198.392 42.3929C201.839 33.6225 205.592 25.0053 209.269 16.3498C210.916 11.9072 212.678 7.50283 214.439 3.13677C215.818 0.264372 215.742 -0.922888 219.15 0.800553C220.874 1.60483 222.52 2.60059 224.206 3.48146C225.431 4.13254 225.163 5.1666 224.78 6.12407C221.333 13.9753 218.308 22.018 214.976 29.9076C211.682 37.6056 208.273 45.3036 204.865 52.9634C203.524 55.989 202.26 59.0912 200.422 61.8104C198.699 64.3381 198.431 67.3254 197.014 69.968C194.371 74.8702 192.073 80.0023 189.928 85.1343C184.873 97.9261 179.894 110.718 174.111 123.203C173.919 123.624 173.422 123.854 173.153 124.276C172.847 124.773 172.541 125.31 172.349 125.846C172.158 126.42 172.273 127.11 172.043 127.646C164.958 143.999 158.715 160.583 150.557 176.438Z" fill="white"/>
<path d="M131.867 195.779C134.969 197.12 137.841 198.384 140.944 199.724C139.412 203.439 138.033 206.771 136.578 210.065C136.424 210.409 135.62 210.869 135.314 210.754C132.173 209.605 129.071 208.38 125.777 207.077C127.884 203.171 129.837 199.571 131.867 195.779Z" fill="white"/>
<path d="M147.761 181.877C146.344 185.324 145.118 188.502 143.74 191.643C143.51 192.141 142.514 192.715 142.093 192.6C139.872 191.873 137.727 190.954 135.391 190.073C136.961 186.549 138.493 183.102 140.101 179.694C140.255 179.349 140.944 178.889 141.212 179.004C143.395 179.847 145.578 180.881 147.761 181.877Z" fill="white"/>
<path d="M123.326 212.324C124.82 208.686 124.82 208.686 127.922 209.873C130.067 210.716 132.211 211.52 134.241 212.516C135.275 213.167 135.39 216.193 133.399 215.542C130.067 214.507 126.773 213.435 123.326 212.324Z" fill="white"/>
<path d="M132.709 194.4C133.398 193.29 133.935 192.409 134.509 191.451C136.884 192.447 139.258 193.251 141.518 194.4C143.394 195.358 141.403 196.545 141.556 197.732C138.569 196.583 135.735 195.549 132.709 194.4Z" fill="white"/>
<path d="M149.637 178.047C148.871 180.23 148.412 180.422 146.612 179.541C144.888 178.737 143.165 177.971 141.441 177.166C142.054 174.294 142.361 174.141 145.08 175.481C146.612 176.362 147.99 177.166 149.637 178.047Z" fill="white"/>
<path d="M212.256 241.776C215.703 244.534 218.269 250.24 213.979 253.342C205.286 258.896 187.592 257.555 177.596 256.062C174.8 255.64 172.923 253.649 171.621 251.159C170.395 248.823 171.008 246.602 172.272 244.649C177.979 235.648 188.97 233.197 197.741 234.921C200.268 235.419 202.873 235.763 205.324 236.529C207.086 237.104 209.269 237.946 210.111 239.363C211.452 241.661 212.141 244.495 212.447 247.138C212.677 248.938 210.839 250.01 209.269 250.853C208.541 251.236 207.469 251.581 208.273 252.576C208.579 252.959 209.767 252.998 210.341 252.73C213.788 251.159 214.784 248.287 213.367 244.725C212.984 243.729 212.639 242.734 212.256 241.776Z" fill="white"/>
<path d="M216.201 255.104C215.704 259.049 215.244 262.764 214.746 266.44C214.708 266.785 214.287 267.245 213.942 267.436C202.835 272.415 189.431 275.134 177.979 269.657C177.52 269.466 177.252 268.738 177.022 268.202C176.716 267.513 176.524 266.785 176.256 266.057C176.103 266.096 175.95 266.134 175.796 266.172C175.681 266.747 175.567 267.321 175.413 267.934C175.26 267.972 175.145 268.011 174.992 268.011C174.762 266.402 174.494 264.755 174.264 263.147C174.035 263.147 173.843 263.147 173.613 263.185C173.46 264.372 173.269 265.56 173.115 266.747C172.924 266.747 172.694 266.747 172.503 266.747C172.503 265.33 172.618 263.913 172.464 262.496C172.311 261.155 173.154 259.508 171.315 258.168C171.162 260.581 171.009 262.611 170.894 264.64C170.626 264.64 170.32 264.602 170.052 264.602C169.822 260.734 170.243 256.827 170.396 252.385C171.2 253.266 171.622 253.687 172.005 254.146C174.418 257.057 177.558 258.398 181.273 258.857C186.214 259.508 191.154 259.317 196.133 259.393C201.303 259.47 206.244 258.742 211.146 257.364C212.716 256.904 214.133 256.023 216.201 255.104Z" fill="white"/>
</g>
<path fill-rule="evenodd" clip-rule="evenodd" d="M69.7587 259.389C68.9827 258.752 68.0972 258.244 67.1348 257.897L103.217 174.043C104.15 174.413 105.16 174.63 106.217 174.662L69.7587 259.389ZM112.771 159.431L152.005 68.2529L149.249 67.0671L110.259 157.678C111.197 158.115 112.045 158.711 112.771 159.431ZM70.8449 272.115C71.6535 271.183 72.2717 270.081 72.6389 268.87L133.749 261.299C133.693 261.702 133.664 262.113 133.664 262.531C133.664 263.14 133.725 263.735 133.842 264.31L70.8449 272.115ZM151.474 262.126C151.428 261.088 151.204 260.097 150.833 259.182L193.222 253.93C193.404 254.967 193.765 255.943 194.271 256.823L151.474 262.126ZM207.98 245.782L229.861 196.81L227.122 195.586L205.421 244.156C206.368 244.55 207.232 245.103 207.98 245.782Z" fill="white"/>
<circle cx="107.589" cy="164.959" r="4.55767" fill="white"/>
<circle cx="64.9854" cy="267.089" r="4.55767" fill="white"/>
<circle cx="143.239" cy="261.929" r="4.55767" fill="white"/>
<circle cx="202.886" cy="252.385" r="4.55767" fill="white"/>
<path d="M154.643 53.8054L154.3 67.7036L167.412 72.3247L154.088 76.2932L153.745 90.1914L145.853 78.7458L132.529 82.7143L140.976 71.6721L133.084 60.2266L146.196 64.8476L154.643 53.8054Z" fill="white"/>
<path d="M234.855 179.433L234.596 189.926L244.495 193.414L234.436 196.41L234.177 206.903L228.219 198.262L218.16 201.258L224.537 192.922L218.579 184.281L228.478 187.77L234.855 179.433Z" fill="white"/>
<defs>
<filter id="filter0_f_92_9420" x="50.4277" y="43.8054" width="204.068" height="238.31" filterUnits="userSpaceOnUse" color-interpolation-filters="sRGB">
<feFlood flood-opacity="0" result="BackgroundImageFix"/>
<feBlend mode="normal" in="SourceGraphic" in2="BackgroundImageFix" result="shape"/>
<feGaussianBlur stdDeviation="5" result="effect1_foregroundBlur_92_9420"/>
</filter>
</defs>
</svg>
