<svg width="299" height="265" viewBox="0 0 299 265" fill="none" xmlns="http://www.w3.org/2000/svg">
<path opacity="0.2" d="M298.012 122.552C297.863 123.148 297.565 123.595 297.416 124.191C295.032 136.93 287.508 145.497 275.737 150.712C272.162 152.277 268.437 153.692 264.861 155.182C260.242 157.044 257.337 160.322 256.443 165.314C255.102 172.018 253.686 178.649 252.345 185.353C250.93 192.952 247.205 199.284 242.437 205.319C240.575 207.628 239.159 210.31 238.042 213.066C234.391 222.453 231.039 231.914 227.538 241.301C225.824 245.845 224.334 250.464 222.77 255.008C220.833 260.819 213.756 265.14 207.647 264.097C203.848 263.426 201.166 260.074 200.644 255.232C200.197 251.507 202.283 248.155 206.083 246.963C208.466 246.218 211.148 246.367 213.607 245.622C215.097 245.175 217.108 244.132 217.555 242.94C220.088 234.298 222.248 225.582 224.558 216.866C224.632 216.419 224.483 216.046 224.483 215.45C219.194 216.195 213.979 216.568 208.988 217.834C206.977 218.356 204.816 220.516 203.997 222.527C200.942 229.828 198.335 237.427 195.653 244.877C194.461 248.229 193.716 251.805 192.301 255.083C189.842 260.67 183.435 263.948 177.401 262.979C174.645 262.458 173.006 260.745 172.112 258.063C170.845 254.412 170.771 250.687 173.751 248.08C176.135 245.92 179.264 244.355 182.318 243.163C185.074 242.195 186.788 240.779 187.756 238.023C189.693 232.808 191.854 227.742 193.94 222.602C195.951 217.611 195.504 216.344 189.991 215.748C182.914 214.929 175.688 214.631 168.536 214.333C149.092 213.662 130.617 209.565 114.079 198.986C110.801 196.9 107.597 196.305 104.319 198.241C97.6147 202.19 91.059 206.213 84.6522 210.533C83.2368 211.502 82.7898 213.886 82.1938 215.674C80.0334 222.155 73.8501 224.762 67.8159 221.857C63.644 219.771 62.1541 217.387 62.7501 213.439C63.346 209.044 66.9964 204.574 71.3917 204.201C79.1394 203.68 84.8757 199.135 90.91 195.187C92.5489 194.07 94.4113 192.58 95.1563 190.792C95.9013 188.929 96.4973 185.949 95.5288 184.459C90.016 175.445 85.9187 166.059 83.6093 155.778C83.2368 154.065 81.0019 152.053 79.2139 151.532C73.2542 149.669 67.5924 150.861 62.2286 154.139C60.9621 154.959 59.7702 155.927 58.4292 156.672C53.1399 159.428 47.9251 157.417 45.3922 151.606C43.3063 146.913 45.5412 141.847 50.756 139.985C54.4809 138.644 58.2802 138.271 61.7816 140.506C66.0279 143.039 70.3488 142.145 74.5951 141.177C77.575 140.432 78.7669 138.048 78.7669 135.068C78.7669 128.14 74.0736 124.191 67.1454 124.713C52.0225 125.905 37.3465 124.638 24.7565 115.252C21.0317 112.495 18.3498 108.398 14.9974 105.045C13.4329 103.407 11.794 101.693 9.85708 100.799C2.92885 97.3723 -0.870509 89.1776 1.5879 81.7279C3.07784 77.407 6.28122 74.7996 10.6021 73.9057C17.2323 72.5647 24.086 71.7452 30.7908 70.6278C36.5271 69.7338 42.3378 69.1378 47.7761 67.4244C50.8305 66.5304 54.1084 63.9975 55.7473 61.2411C61.7816 51.631 69.9018 45.5967 81.1509 43.6598C82.7153 43.4363 84.6522 42.8403 83.5348 40.9034C80.3314 35.2416 76.7555 29.8033 73.2542 24.2906C72.8072 24.3651 72.4347 24.5885 72.0622 24.663C71.6152 27.3449 71.2427 30.0268 70.7958 32.6342C70.3488 35.2416 69.9763 37.9235 69.3058 40.4564C68.1884 44.3303 64.836 46.6397 60.5896 46.5652C57.3118 46.4907 54.8534 44.3303 54.3319 39.8605C53.8849 35.4651 53.5124 30.8463 54.3319 26.451C55.5983 19.6717 57.3863 12.967 59.8447 6.48574C62.3776 -0.0700116 66.6984 -0.963978 71.9877 3.50585C82.8643 12.669 90.463 23.7691 92.3999 38.2215C92.6979 40.4564 94.1134 42.9148 95.6778 44.4048C98.9557 47.4592 103.053 46.4907 105.958 43.1383C110.205 38.296 114.451 33.3792 119.219 28.9839C123.167 25.3335 125.998 25.9295 128.457 30.5483C134.64 42.2444 139.259 54.5364 141.047 67.7224C141.941 74.0546 140.302 76.8855 136.055 78.0775C131.511 79.4184 125.7 77.258 123.838 72.4902C121.454 66.2325 120.262 59.6767 118.25 53.2699C117.878 52.0035 116.537 50.886 115.643 49.7686C114.302 50.8115 112.887 51.78 111.844 53.0465C111.322 53.7169 111.62 55.0579 111.769 56.0263C111.918 56.7713 112.142 57.5908 112.514 58.3358C118.846 71.4473 122.944 85.1547 124.508 99.6817C125.179 105.939 128.755 110.633 133.597 114.73C138.812 119.125 144.548 122.105 151.029 124.415C170.622 131.641 190.364 138.271 211.148 140.953C227.538 143.039 243.853 141.624 258.529 132.907C266.947 127.916 272.683 120.615 274.247 110.707C274.62 108.249 274.322 105.716 274.173 103.109C274.098 100.203 273.502 97.2978 273.8 94.5414C274.322 89.2521 276.706 86.6447 281.325 85.9742C286.539 85.1547 289.743 86.6447 291.978 91.5615C293.691 95.3608 294.958 99.1602 296.448 103.034C297.044 109.59 297.491 116.071 298.012 122.552ZM27.5129 76.2896C32.4297 86.7192 30.8653 92.6044 21.6276 98.7132C19.6907 100.054 19.4672 101.693 20.8082 103.034C23.8625 106.312 26.8424 109.813 30.4928 112.123C41.3694 118.902 53.8104 119.796 66.3259 119.721C70.0508 119.721 70.4978 118.455 68.8588 115.103C66.1769 109.888 63.346 104.747 60.8876 99.3837C57.8332 92.5299 55.1514 85.4527 52.4695 78.5245C51.5755 76.2896 50.5325 74.5761 47.7761 74.7996C41.1459 75.2466 34.5156 75.7681 27.5129 76.2896ZM92.5489 139.314C92.5489 139.24 92.5489 139.165 92.5489 139.165C93.0704 139.091 93.7409 139.165 94.2624 139.016C107.523 136.111 118.474 129.034 128.382 120.168C129.127 119.498 129.648 117.486 129.202 116.891C128.308 115.624 126.594 114.06 125.402 114.134C123.093 114.209 120.709 115.177 118.623 116.295C108.491 121.807 98.4342 127.395 88.3771 132.982C88.0046 133.131 87.6321 133.28 87.4831 133.503C87.1106 134.546 86.3657 135.813 86.5146 136.856C86.6636 137.675 87.8556 138.644 88.7496 139.016C89.9415 139.389 91.2825 139.24 92.5489 139.314ZM85.5462 83.4413C88.0791 83.2923 89.867 81.0574 89.6435 78.3755C89.3455 75.4701 87.5576 74.0547 84.8012 73.9802C82.3428 73.9802 80.4804 76.2151 80.5549 78.897C80.5549 81.6534 82.7153 83.5903 85.5462 83.4413ZM85.6207 63.2526C85.4717 60.4217 83.4603 58.4103 81.1509 58.6337C78.469 59.0062 76.6065 60.4217 76.6065 63.3271C76.6065 65.9345 78.469 67.3499 81.2254 67.2009C83.9818 67.1264 85.3972 65.6365 85.6207 63.2526Z" fill="white"/>
<g filter="url(#filter0_f_92_9287)">
<path fill-rule="evenodd" clip-rule="evenodd" d="M145.337 157.808C146.025 157.047 146.923 156.48 147.939 156.196L96.2315 101.257L94.0469 103.313L145.337 157.808ZM154.78 160.188C154.884 160.611 154.939 161.053 154.939 161.507C154.939 162.098 154.846 162.667 154.674 163.201L234.66 158.149L234.471 155.155L154.78 160.188ZM154.069 164.482C153.497 165.373 152.675 166.089 151.703 166.53L166.555 199.361L169.288 198.125L154.069 164.482Z" fill="white"/>
<circle cx="149.366" cy="161.086" r="3.56881" fill="white"/>
<path d="M168.855 187.862L171.181 195.02H178.707L172.618 199.444L174.944 206.602L168.855 202.178L162.765 206.602L165.091 199.444L159.002 195.02H166.529L168.855 187.862Z" fill="white"/>
<path d="M234.648 145.832L236.974 152.99H244.5L238.411 157.414L240.737 164.572L234.648 160.148L228.558 164.572L230.884 157.414L224.795 152.99H232.322L234.648 145.832Z" fill="white"/>
<path d="M104.616 92.3413L102.334 102.32L111.12 107.574L100.924 108.488L98.6418 118.467L94.6225 109.052L84.4267 109.965L92.1385 103.234L88.1193 93.819L96.9047 99.0731L104.616 92.3413Z" fill="white"/>
</g>
<path fill-rule="evenodd" clip-rule="evenodd" d="M145.337 157.808C146.025 157.047 146.923 156.48 147.939 156.196L96.2315 101.257L94.0469 103.313L145.337 157.808ZM154.78 160.188C154.884 160.611 154.939 161.053 154.939 161.507C154.939 162.098 154.846 162.667 154.674 163.201L234.66 158.149L234.471 155.155L154.78 160.188ZM154.069 164.482C153.497 165.373 152.675 166.089 151.703 166.53L166.555 199.361L169.288 198.125L154.069 164.482Z" fill="white"/>
<circle cx="149.366" cy="161.086" r="3.56881" fill="white"/>
<path d="M168.855 187.862L171.181 195.02H178.707L172.618 199.444L174.944 206.602L168.855 202.178L162.765 206.602L165.091 199.444L159.002 195.02H166.529L168.855 187.862Z" fill="white"/>
<path d="M234.648 145.832L236.974 152.99H244.5L238.411 157.414L240.737 164.572L234.648 160.148L228.558 164.572L230.884 157.414L224.795 152.99H232.322L234.648 145.832Z" fill="white"/>
<path d="M104.616 92.3413L102.334 102.32L111.12 107.574L100.924 108.488L98.6418 118.467L94.6225 109.052L84.4267 109.965L92.1385 103.234L88.1193 93.819L96.9047 99.0731L104.616 92.3413Z" fill="white"/>
<defs>
<filter id="filter0_f_92_9287" x="74.4268" y="82.3413" width="180.073" height="134.261" filterUnits="userSpaceOnUse" color-interpolation-filters="sRGB">
<feFlood flood-opacity="0" result="BackgroundImageFix"/>
<feBlend mode="normal" in="SourceGraphic" in2="BackgroundImageFix" result="shape"/>
<feGaussianBlur stdDeviation="5" result="effect1_foregroundBlur_92_9287"/>
</filter>
</defs>
</svg>
