<svg width="340" height="262" viewBox="0 0 340 262" fill="none" xmlns="http://www.w3.org/2000/svg">
<g filter="url(#filter0_f_92_9903)">
<path fill-rule="evenodd" clip-rule="evenodd" d="M278.462 37.5803L193.136 31.9178L189.328 31.665L191.945 34.443L260.002 106.685C260.606 105.881 261.32 105.166 262.123 104.561L196.746 35.1639L278.866 40.6137C278.602 39.6879 278.461 38.7106 278.461 37.7004C278.461 37.6603 278.462 37.6203 278.462 37.5803ZM285.651 47.7562C286.584 48.0743 287.574 48.2664 288.603 48.3123L275.198 104.805C274.387 104.146 273.477 103.605 272.494 103.206L285.651 47.7562ZM268.505 123.677C269.285 123.677 270.045 123.593 270.778 123.433L245.925 228.167L245.661 229.282L244.516 229.32L124.207 233.304L123.165 233.338L122.769 232.374L102.326 182.526L105.102 181.388L125.149 230.271L243.271 226.359L267.645 123.642C267.928 123.665 268.215 123.677 268.505 123.677Z" fill="white"/>
<circle cx="269.322" cy="111.485" r="5.47725" fill="white"/>
<circle cx="287.944" cy="38.3345" r="4.11652" fill="white"/>
<circle cx="99.3936" cy="175.017" r="4.11652" fill="white"/>
<path d="M197.063 9.99976L201.899 24.8853H217.551L204.889 34.0851L209.725 48.9706L197.063 39.7709L184.4 48.9706L189.237 34.0851L176.575 24.8853H192.226L197.063 9.99976Z" fill="white"/>
<path d="M127.659 213.018L130.842 222.815H141.143L132.809 228.87L135.992 238.667L127.659 232.612L119.325 238.667L122.508 228.87L114.175 222.815H124.476L127.659 213.018Z" fill="white"/>
<path d="M242.899 210.08L246.412 220.892H257.78L248.583 227.574L252.096 238.386L242.899 231.704L233.702 238.386L237.215 227.574L228.018 220.892H239.386L242.899 210.08Z" fill="white"/>
</g>
<g opacity="0.2">
<path d="M326.892 209.89C320.691 225.447 314.381 241.113 308.18 256.669C307.092 259.498 305.243 261.021 302.197 261.13C298.607 261.239 295.017 261.783 291.427 261.783C216.689 261.891 141.842 261.783 67.1046 262C60.6861 262 56.2257 259.933 52.6357 254.494C42.6271 239.481 32.0747 224.794 21.7397 209.89C24.677 207.279 28.2671 208.15 31.6395 208.15C96.4775 208.15 161.207 208.15 226.045 208.15C256.832 208.15 287.619 208.15 318.297 208.15C321.126 208.15 324.39 207.497 326.892 209.89Z" fill="white"/>
<path d="M337.444 184.433C336.465 186.609 331.787 197.488 329.176 200.317C226.045 200.208 122.804 200.099 19.6728 200.317C15.1037 197.597 4.00725 184.542 1.61391 181.061C0.199654 179.103 0.743597 178.124 3.13695 178.124C50.5688 177.906 98.1093 178.559 145.541 177.797C147.608 176.383 150.001 176.492 152.395 176.492C176.328 176.492 200.153 176.492 224.086 176.492C226.589 176.492 229.2 176.274 231.375 177.906C265.209 178.015 299.151 178.015 332.984 178.015C340.055 178.124 340.055 178.232 337.444 184.433Z" fill="white"/>
<path d="M231.484 142.767C202.872 142.332 174.152 142.115 145.541 142.658C143.256 141.897 139.775 143.964 139.666 138.851C139.557 133.629 140.428 130.365 146.302 130.474C149.892 129.06 153.591 128.625 157.399 128.625C178.286 128.625 199.282 128.625 220.17 128.625C223.433 128.625 226.697 128.734 229.634 130.474C230.396 130.583 231.049 130.583 231.701 130.801C233.66 131.453 236.706 129.93 237.467 132.432C238.229 135.043 238.229 138.307 237.576 140.918C236.814 144.073 233.442 141.788 231.484 142.767Z" fill="white"/>
<path d="M229.635 130.583C205.701 131.453 181.659 130.909 157.725 130.801C153.918 130.801 150.11 130.692 146.411 130.583C156.42 123.947 166.864 119.378 179.592 120.466C190.906 121.445 202.329 121.01 213.643 120.466C219.082 120.248 222.999 121.554 225.936 126.014C226.915 127.646 228.329 129.06 229.635 130.583Z" fill="white"/>
<path d="M224.522 140.7C200.48 140.592 176.547 140.592 152.504 140.7C150.002 140.7 147.391 140.374 145.433 142.659C144.671 154.408 146.63 166.157 145.542 177.906C174.153 178.668 202.765 178.233 231.376 178.124C231.376 166.375 231.376 154.625 231.376 142.876C229.635 140.374 227.024 140.7 224.522 140.7ZM170.781 169.421C165.559 169.529 161.099 164.96 161.207 159.738C161.316 154.734 165.45 150.491 170.563 150.383C175.676 150.274 180.354 154.734 180.354 159.847C180.354 165.178 176.22 169.421 170.781 169.421ZM207.007 169.312C201.677 169.312 197.434 165.178 197.325 159.738C197.216 154.734 201.459 150.383 206.463 150.274C211.468 150.165 216.363 154.734 216.472 159.63C216.581 165.069 212.447 169.312 207.007 169.312Z" fill="white"/>
</g>
<path fill-rule="evenodd" clip-rule="evenodd" d="M278.462 37.5803L193.136 31.9178L189.328 31.665L191.945 34.443L260.002 106.685C260.606 105.881 261.32 105.166 262.123 104.561L196.746 35.1639L278.866 40.6137C278.602 39.6879 278.461 38.7106 278.461 37.7004C278.461 37.6603 278.462 37.6203 278.462 37.5803ZM285.651 47.7562C286.584 48.0743 287.574 48.2664 288.603 48.3123L275.198 104.805C274.387 104.146 273.477 103.605 272.494 103.206L285.651 47.7562ZM268.505 123.677C269.285 123.677 270.045 123.593 270.778 123.433L245.925 228.167L245.661 229.282L244.516 229.32L124.207 233.304L123.165 233.338L122.769 232.374L102.326 182.526L105.102 181.388L125.149 230.271L243.271 226.359L267.645 123.642C267.928 123.665 268.215 123.677 268.505 123.677Z" fill="white"/>
<circle cx="269.322" cy="111.485" r="5.47725" fill="white"/>
<circle cx="287.944" cy="38.3345" r="4.11652" fill="white"/>
<circle cx="99.3936" cy="175.017" r="4.11652" fill="white"/>
<path d="M197.063 9.99976L201.899 24.8853H217.551L204.889 34.0851L209.725 48.9706L197.063 39.7709L184.4 48.9706L189.237 34.0851L176.575 24.8853H192.226L197.063 9.99976Z" fill="white"/>
<path d="M127.659 213.018L130.842 222.815H141.143L132.809 228.87L135.992 238.667L127.659 232.612L119.325 238.667L122.508 228.87L114.175 222.815H124.476L127.659 213.018Z" fill="white"/>
<path d="M242.899 210.08L246.412 220.892H257.78L248.583 227.574L252.096 238.386L242.899 231.704L233.702 238.386L237.215 227.574L228.018 220.892H239.386L242.899 210.08Z" fill="white"/>
<defs>
<filter id="filter0_f_92_9903" x="85.2771" y="-0.000244141" width="216.784" height="248.667" filterUnits="userSpaceOnUse" color-interpolation-filters="sRGB">
<feFlood flood-opacity="0" result="BackgroundImageFix"/>
<feBlend mode="normal" in="SourceGraphic" in2="BackgroundImageFix" result="shape"/>
<feGaussianBlur stdDeviation="5" result="effect1_foregroundBlur_92_9903"/>
</filter>
</defs>
</svg>
