<svg width="149" height="272" viewBox="0 0 149 272" fill="none" xmlns="http://www.w3.org/2000/svg">
<path opacity="0.2" d="M143.594 15.0446C107.005 -21.839 79.9863 16.9587 87.1275 57.6706C87.2747 62.6767 73.5814 64.37 70.1212 75.5602C54.1457 112.37 54.5138 154.186 47.4463 193.279C49.5076 207.046 63.9372 182.309 73.655 165.377C61.7286 195.414 72.9188 232.444 69.3114 264.764C69.3114 269.034 71.5936 271.684 75.1274 271.757C88.379 267.708 78.9556 244.371 81.6796 233.328C99.4956 270.138 92.6489 178.628 93.3115 159.929C93.9005 159.193 94.3422 158.383 94.5631 157.499C95.0048 158.751 95.4465 160.002 96.4036 160.886C97.3606 161.769 98.9067 162.211 99.9373 161.401C101.189 160.444 101.042 158.53 100.747 156.984C103.103 159.781 107.152 161.033 110.686 160.002C110.98 159.929 111.348 159.781 111.569 159.561C111.864 159.266 111.937 158.898 112.011 158.53C112.526 155.88 112.158 152.935 110.391 150.873C108.477 148.591 105.312 147.855 102.367 147.266C101.631 147.119 100.894 146.972 100.085 146.898C112.158 136.518 121.14 122.603 127.766 108.248C136.747 88.8855 140.944 69.4498 129.753 49.4251C129.312 48.3208 128.355 47.9527 127.25 47.9527C121.214 49.1307 115.25 49.8669 109.434 46.9221C108.919 46.6276 108.256 46.7748 107.741 47.2165C107.373 47.6583 107.078 48.1736 106.71 48.6153C107.152 40.8852 95.5201 35.9527 102.293 23.0692C109.876 5.25316 130.048 17.1796 143.594 15.0446ZM95.5201 150.8C95.5201 150.726 95.5201 150.726 95.5201 150.8C95.6674 150.653 95.741 150.653 95.5201 150.8Z" fill="white"/>
<path opacity="0.2" d="M132.845 45.597C124.599 41.6952 133.139 31.1675 134.244 25.057C145.876 10.333 155.078 45.9651 143.373 52.5173C144.55 41.6215 140.943 45.1553 132.845 45.597Z" fill="white"/>
<path opacity="0.2" d="M117.753 30.8625C115.471 30.3906 113.925 28.7389 113.851 25.4356C113.778 21.8963 115.177 19.4188 117.459 19.5368C119.52 19.6547 120.845 21.7783 120.919 25.1996C120.993 28.7389 119.447 30.1546 117.753 30.8625Z" fill="white"/>
<g filter="url(#filter0_f_92_9305)">
<path fill-rule="evenodd" clip-rule="evenodd" d="M93.2183 128.279L122.186 88.6905L119.764 86.9189L90.2939 127.195C91.3839 127.277 92.3878 127.667 93.2183 128.279ZM89.0596 127.237L86.7002 117.406C85.9139 117.821 85.018 118.055 84.0673 118.055C83.9672 118.055 83.8678 118.053 83.769 118.048L86.2706 128.471C87.0517 127.826 88.0091 127.387 89.0596 127.237ZM79.8402 116.156C80.5308 116.933 81.4323 117.519 82.455 117.822L25.034 171.142L22.626 169.472L46.6867 110.936L49.4615 112.077L27.997 164.296L79.8402 116.156Z" fill="white"/>
<circle cx="83.7156" cy="114.245" r="2.46854" fill="white"/>
<circle cx="89.8455" cy="131.085" r="2.46854" fill="white"/>
<path d="M52.8771 93.5323L53.7891 103.332L63.3911 105.493L54.3528 109.389L55.2648 119.188L48.7668 111.796L39.7285 115.692L44.7508 107.228L38.2528 99.8357L47.8548 101.997L52.8771 93.5323Z" fill="white"/>
<path d="M123.899 79.3449L122.68 86.4918L129.1 89.8593L121.927 90.9088L120.708 98.0556L117.493 91.5574L110.32 92.6069L115.506 87.5413L112.291 81.043L118.712 84.4106L123.899 79.3449Z" fill="white"/>
<path d="M27.3172 152.228L30.0696 163.898L42.019 164.887L31.7706 171.111L34.523 182.781L25.4367 174.957L15.1883 181.181L19.8211 170.122L10.7349 162.298L22.6844 163.287L27.3172 152.228Z" fill="white"/>
</g>
<path fill-rule="evenodd" clip-rule="evenodd" d="M93.2183 128.279L122.186 88.6905L119.764 86.9189L90.2939 127.195C91.3839 127.277 92.3878 127.667 93.2183 128.279ZM89.0596 127.237L86.7002 117.406C85.9139 117.821 85.018 118.055 84.0673 118.055C83.9672 118.055 83.8678 118.053 83.769 118.048L86.2706 128.471C87.0517 127.826 88.0091 127.387 89.0596 127.237ZM79.8402 116.156C80.5308 116.933 81.4323 117.519 82.455 117.822L25.034 171.142L22.626 169.472L46.6867 110.936L49.4615 112.077L27.997 164.296L79.8402 116.156Z" fill="white"/>
<circle cx="83.7156" cy="114.245" r="2.46854" fill="white"/>
<circle cx="89.8455" cy="131.085" r="2.46854" fill="white"/>
<path d="M52.8771 93.5323L53.7891 103.332L63.3911 105.493L54.3528 109.389L55.2648 119.188L48.7668 111.796L39.7285 115.692L44.7508 107.228L38.2528 99.8357L47.8548 101.997L52.8771 93.5323Z" fill="white"/>
<path d="M123.899 79.3449L122.68 86.4918L129.1 89.8593L121.927 90.9088L120.708 98.0556L117.493 91.5574L110.32 92.6069L115.506 87.5413L112.291 81.043L118.712 84.4106L123.899 79.3449Z" fill="white"/>
<path d="M27.3172 152.228L30.0696 163.898L42.019 164.887L31.7706 171.111L34.523 182.781L25.4367 174.957L15.1883 181.181L19.8211 170.122L10.7349 162.298L22.6844 163.287L27.3172 152.228Z" fill="white"/>
<defs>
<filter id="filter0_f_92_9305" x="0.735352" y="69.345" width="138.365" height="123.436" filterUnits="userSpaceOnUse" color-interpolation-filters="sRGB">
<feFlood flood-opacity="0" result="BackgroundImageFix"/>
<feBlend mode="normal" in="SourceGraphic" in2="BackgroundImageFix" result="shape"/>
<feGaussianBlur stdDeviation="5" result="effect1_foregroundBlur_92_9305"/>
</filter>
</defs>
</svg>
