<svg width="326" height="232" viewBox="0 0 326 232" fill="none" xmlns="http://www.w3.org/2000/svg">
<g filter="url(#filter0_f_92_9171)">
<path fill-rule="evenodd" clip-rule="evenodd" d="M206.454 59.8006C205.774 60.5733 204.992 61.2547 204.129 61.824L243.389 136.368L181.859 173.474C182.259 174.421 182.537 175.432 182.673 176.487L246.151 138.206L247.363 137.475L246.703 136.223L206.454 59.8006ZM186.24 50.635H115.935V53.635H186.24C186.177 53.1439 186.144 52.6432 186.144 52.1349C186.144 51.6266 186.177 51.126 186.24 50.635ZM160.036 174.706C159.747 175.688 159.585 176.723 159.567 177.794L74.0434 138.283L75.3016 135.56L160.036 174.706Z" fill="white"/>
<circle cx="170.806" cy="177.873" r="5.20279" fill="white"/>
<circle cx="198.183" cy="53.3611" r="5.75055" fill="white"/>
<path d="M117.402 30.2766L122.309 45.3802H138.19L125.342 54.7148L130.25 69.8184L117.402 60.4838L104.554 69.8184L109.461 54.7148L96.6136 45.3802H112.494L117.402 30.2766Z" fill="white"/>
<path d="M223.924 132.12L239.689 130.203L242.737 114.618L249.432 129.019L265.197 127.102L253.57 137.919L260.264 152.32L246.384 144.604L234.757 155.421L237.805 139.836L223.924 132.12Z" fill="white"/>
<path d="M61.8329 135.371L74.103 133.879L76.4756 121.749L81.6863 132.957L93.9564 131.465L84.9067 139.885L90.1174 151.093L79.3137 145.088L70.2639 153.507L72.6366 141.377L61.8329 135.371Z" fill="white"/>
</g>
<g opacity="0.2">
<path d="M279.58 150.962C279.58 151.08 279.58 151.08 279.58 151.197C279.698 151.08 279.58 151.08 279.58 150.962Z" fill="white"/>
<path d="M279.58 150.962C279.58 151.08 279.58 151.08 279.58 151.197C279.698 151.08 279.58 151.08 279.58 150.962Z" fill="white"/>
<path d="M322.129 163.186C315.9 152.02 305.909 145.673 294.273 141.794C263.125 132.391 271 142.852 270.765 110.059C270.765 99.7157 270.765 89.3723 270.412 79.029C270.295 73.7398 267.474 69.626 263.125 66.4525C255.485 61.0458 247.257 57.4021 238.09 55.7566C234.681 55.0513 232.8 53.6409 233.388 49.7621C236.914 21.9057 205.061 21.6706 197.069 44.3554C196.364 46.1185 193.778 48.1166 192.132 48.1166C190.017 48.1166 187.548 46.5886 185.785 44.9431C184.492 43.8853 184.022 41.7696 183.435 40.2416C180.731 32.6016 175.207 27.9001 167.802 25.1968C163.806 23.6688 162.983 20.2602 165.686 17.0867C166.862 15.5587 168.742 14.7359 170.035 13.3254C171.446 11.915 173.326 10.387 173.679 8.62394C174.502 2.62951 172.621 -0.073855 166.274 0.983984C157.459 2.86459 159.104 13.6781 158.752 20.6128C158.634 22.9635 158.399 24.4915 155.931 25.3143C148.408 27.7826 143.354 32.7192 140.298 40.0065C140.063 40.4767 139.946 41.1819 139.475 41.417C136.772 42.5923 134.069 44.2379 131.13 44.8256C130.425 44.9431 129.015 42.0047 127.957 40.4767C125.606 37.0681 123.725 33.0718 120.787 30.2509C108.916 19.6725 88.1114 27.0774 91.2849 46.7062C92.2252 51.4077 90.1096 52.7006 85.9957 54.2286C78.9435 57.0495 72.0088 60.3405 65.5442 64.3368C59.1971 68.098 56.0236 74.4451 55.7885 81.8499C55.0833 99.0104 54.6132 116.171 54.3781 133.331C54.2606 139.678 54.143 139.796 48.1486 141.442C33.3388 145.555 19.4694 151.315 8.65592 162.716C-2.04001 174.235 -2.74523 187.164 6.65778 199.858C14.2977 210.201 25.3463 215.02 36.9825 218.076C69.1878 226.539 102.451 228.302 135.479 231.24C148.056 231.24 160.632 231.24 173.561 231.123C214.582 227.127 256.66 227.127 295.565 211.494C305.204 207.85 313.666 202.326 319.778 193.863C326.831 184.108 328.123 174 322.129 163.186ZM279.698 151.08V150.962C279.58 151.08 279.698 151.08 279.698 151.08ZM65.7793 72.3294C68.0125 70.3312 70.4808 68.6857 72.8315 66.9227C76.2401 72.5645 78.4733 73.8574 81.7644 72.4469C84.9379 71.154 85.4081 69.0383 83.8801 62.8088C86.701 61.6335 89.5219 60.1055 92.4603 59.5178C93.9883 59.1652 96.104 60.4581 97.7495 61.3984C101.746 63.5141 105.507 66.8051 109.738 67.863C118.201 69.9786 125.488 64.807 128.427 56.2267C129.367 53.1707 134.891 50.4674 137.83 51.7603C138.653 52.1129 139.123 53.4058 139.593 54.3461C143.354 63.9842 151.229 67.9805 160.75 68.4506C169.8 68.9208 177.44 65.1596 181.907 56.9319C183.67 53.5233 185.903 52.8181 189.076 53.5233C192.367 54.2286 196.011 53.876 197.069 58.8125C199.185 68.3331 207.765 72.9171 216.815 69.7436C220.459 68.4506 223.985 66.2174 226.806 63.6316C229.274 61.2808 231.39 60.5756 234.328 61.8685C235.621 62.3387 236.914 62.8088 238.325 63.0439C241.733 63.7491 243.849 65.042 243.379 69.2734C243.261 70.9189 245.377 73.8574 247.022 74.21C248.903 74.6801 251.254 72.9171 253.252 71.8592C253.84 71.5066 253.957 70.4488 254.897 68.6857C256.543 70.5663 258.424 71.8592 258.541 73.2697C258.659 74.3275 256.66 76.0906 255.133 76.6783C249.021 78.794 242.791 80.557 236.562 82.5552C234.563 74.7977 232.33 72.9171 228.099 74.21C224.69 75.2678 223.632 78.6764 225.278 84.0832C219.636 84.7884 213.994 85.4936 208.94 86.0813C207.765 83.1428 206.824 80.557 205.532 78.4413C204.944 77.6186 203.063 77.3835 201.77 77.3835C197.892 77.501 196.481 79.9693 196.364 87.1391C190.839 87.4917 185.315 87.7268 179.908 87.9619C180.849 83.2604 179.086 78.794 175.089 78.6764C170.975 78.0887 169.565 84.3182 170.505 88.197C164.393 88.3145 158.281 88.3145 152.169 88.0794C152.522 82.7902 150.524 78.6764 147.35 78.5589C144.294 78.3238 142.179 82.3201 142.061 87.7268C136.89 87.4917 131.718 87.1391 126.546 86.7865C126.546 86.669 126.546 86.4339 126.546 86.3164C126.664 81.1447 124.195 77.1484 119.964 77.1484C117.848 77.266 116.438 81.0272 116.32 85.9638C111.266 85.4936 106.33 84.9059 101.393 84.2007C100.218 80.3219 99.8652 76.9134 98.2197 74.4451C97.5144 73.3872 93.4006 73.2697 91.9902 74.3275C90.2271 75.6204 89.5219 78.5589 87.8764 81.7324C81.2942 81.7324 73.7718 79.7343 66.4845 76.7958C64.0162 75.3854 64.3688 73.5048 65.7793 72.3294ZM60.8427 126.632C61.1953 119.462 64.9565 113.115 67.7774 106.768C68.6002 105.122 70.3632 103.947 71.6561 102.654C74.8297 107.121 74.7121 112.41 75.6524 117.581C76.5927 126.514 84.8204 132.744 92.6954 126.397C98.1021 121.813 102.333 115.936 107.505 111.117C108.798 109.941 111.031 109.001 112.559 109.471C113.617 109.824 114.557 112.057 114.91 113.703C115.615 116.759 115.85 119.932 116.673 122.988C119.259 133.214 128.309 135.917 135.832 128.747C138.535 126.162 140.533 122.871 142.884 119.815C144.294 117.816 145.352 115.583 146.998 113.703C148.291 112.292 150.289 111.587 151.934 110.647C152.757 112.057 153.815 113.468 154.403 115.113C157.106 123.341 158.869 132.156 169.212 132.861C178.968 133.449 181.907 120.05 186.49 113.585C187.313 112.292 189.194 110.764 190.487 110.764C191.662 110.882 192.955 112.88 193.543 114.408C195.071 117.934 196.011 121.695 197.774 125.104C202.241 133.919 211.173 134.742 216.933 126.514C219.166 123.341 220.576 119.58 222.222 115.936C223.985 112.762 224.22 108.061 227.981 106.65C228.451 106.533 229.744 108.178 230.332 109.119C231.978 112.175 233.153 115.348 234.798 118.287C241.028 129.218 251.489 129.805 259.246 119.815C260.422 118.404 261.362 116.759 263.008 114.525C263.008 120.402 263.36 125.221 263.125 129.923C262.655 133.919 259.246 134.977 255.838 135.212C216.345 138.738 176.617 138.621 136.89 138.151C113.264 137.445 89.7569 134.742 66.1319 133.096C62.018 132.744 60.4901 130.511 60.8427 126.632ZM261.597 146.966C261.362 150.257 261.244 153.548 260.892 156.839C260.774 158.014 260.187 159.072 259.364 161.305C257.366 157.897 255.955 155.664 254.31 153.313C249.843 145.32 240.558 145.32 236.091 153.195C233.623 158.132 232.8 162.128 230.45 167.652C227.159 163.539 226.688 160.483 224.69 156.134C221.282 149.082 213.524 148.141 208.94 154.488C206.825 157.427 205.649 161.07 204.004 164.361C203.533 165.419 202.946 166.36 201.888 168.358C200.125 164.244 198.949 161.07 197.539 157.897C196.011 154.371 193.308 152.373 189.194 152.373C184.845 152.49 182.612 155.193 180.966 158.602C179.203 162.128 177.558 165.654 175.912 169.18H174.619C174.031 167.535 173.326 165.889 172.856 164.244C171.328 159.307 170.505 153.665 163.806 152.96C157.106 152.373 154.873 157.544 152.287 162.363C151.229 164.361 150.054 166.477 148.878 168.475C148.526 168.358 148.173 168.358 147.703 168.24C146.763 165.067 145.822 161.776 144.647 158.602C141.591 150.022 134.186 148.729 128.427 155.781C125.959 158.72 124.313 162.246 122.08 165.419C121.492 166.36 120.317 166.712 119.259 167.417C116.908 164.244 116.908 160.13 115.498 156.486C112.912 149.199 105.742 147.083 99.8652 152.137C95.5163 155.781 92.9305 161.541 87.7588 164.361C86.936 163.069 85.6431 161.893 85.173 160.483C84.3502 157.779 83.9976 154.958 83.2924 152.137C80.9416 143.91 73.6543 141.794 67.1897 147.318C65.7793 148.611 64.4863 149.787 62.9583 151.08C62.4882 150.374 62.1356 150.022 62.018 149.669C59.6673 140.384 60.3725 139.443 70.0106 140.501C131.953 147.201 194.248 147.083 256.425 142.499C260.657 142.147 261.95 143.44 261.597 146.966ZM282.049 178.583C278.875 181.169 275.584 184.108 271.823 185.048C227.394 198.095 181.084 199.975 135.009 198.918C123.49 198.8 21.5851 195.156 43.9172 172.236C45.7978 170.473 48.1486 169.18 50.2643 167.888C53.4378 166.007 56.0236 165.302 58.1393 170.003C59.3147 172.589 62.9583 174.47 65.8968 175.292C114.44 189.515 165.569 191.513 215.757 186.576C227.041 185.401 238.207 182.11 249.373 179.876C257.601 176.82 267.121 173.882 267.356 162.716C273.703 163.539 278.875 165.772 282.754 170.121C285.34 172.942 284.752 176.35 282.049 178.583Z" fill="white"/>
</g>
<path fill-rule="evenodd" clip-rule="evenodd" d="M206.454 59.8006C205.774 60.5733 204.992 61.2547 204.129 61.824L243.389 136.368L181.859 173.474C182.259 174.421 182.537 175.432 182.673 176.487L246.151 138.206L247.363 137.475L246.703 136.223L206.454 59.8006ZM186.24 50.635H115.935V53.635H186.24C186.177 53.1439 186.144 52.6432 186.144 52.1349C186.144 51.6266 186.177 51.126 186.24 50.635ZM160.036 174.706C159.747 175.688 159.585 176.723 159.567 177.794L74.0434 138.283L75.3016 135.56L160.036 174.706Z" fill="white"/>
<circle cx="170.806" cy="177.873" r="5.20279" fill="white"/>
<circle cx="198.183" cy="53.3611" r="5.75055" fill="white"/>
<path d="M117.402 30.2766L122.309 45.3802H138.19L125.342 54.7148L130.25 69.8184L117.402 60.4838L104.554 69.8184L109.461 54.7148L96.6136 45.3802H112.494L117.402 30.2766Z" fill="white"/>
<path d="M223.924 132.12L239.689 130.203L242.737 114.618L249.432 129.019L265.197 127.102L253.57 137.919L260.264 152.32L246.384 144.604L234.757 155.421L237.805 139.836L223.924 132.12Z" fill="white"/>
<path d="M61.8329 135.371L74.103 133.879L76.4756 121.749L81.6863 132.957L93.9564 131.465L84.9067 139.885L90.1174 151.093L79.3137 145.088L70.2639 153.507L72.6366 141.377L61.8329 135.371Z" fill="white"/>
<defs>
<filter id="filter0_f_92_9171" x="51.8329" y="20.2766" width="223.364" height="172.8" filterUnits="userSpaceOnUse" color-interpolation-filters="sRGB">
<feFlood flood-opacity="0" result="BackgroundImageFix"/>
<feBlend mode="normal" in="SourceGraphic" in2="BackgroundImageFix" result="shape"/>
<feGaussianBlur stdDeviation="5" result="effect1_foregroundBlur_92_9171"/>
</filter>
</defs>
</svg>
