<svg width="339" height="230" viewBox="0 0 339 230" fill="none" xmlns="http://www.w3.org/2000/svg">
<g filter="url(#filter0_f_92_9769)">
<circle cx="182.372" cy="21.3119" r="4.04813" transform="rotate(165.342 182.372 21.3119)" fill="white"/>
<path fill-rule="evenodd" clip-rule="evenodd" d="M213.339 136.301C214.063 135.265 215.144 134.472 216.461 134.127C217.153 133.946 217.848 133.905 218.517 133.986L186.104 27.5092C185.904 27.5879 185.696 27.6557 185.482 27.7116C184.662 27.9262 183.836 27.9442 183.055 27.7948L215.43 134.146L178.358 100.983L177.603 100.307L176.694 100.756L74.8565 151.023L76.1843 153.713L177.113 103.895L213.339 136.301ZM189.288 24.2045C189.619 23.2663 189.699 22.2294 189.47 21.1941L246.189 30.5036L245.703 33.464L189.288 24.2045Z" fill="white"/>
<circle cx="217.776" cy="140.669" r="4.04813" transform="rotate(165.342 217.776 140.669)" fill="white"/>
<path d="M181.311 117.961L174.864 107.902L163.306 110.926L170.88 101.686L164.433 91.6282L175.56 95.9761L183.134 86.7367L182.438 98.6632L193.565 103.011L182.007 106.034L181.311 117.961Z" fill="white"/>
<path d="M247.03 42.9274L242.459 35.7962L234.264 37.9396L239.634 31.3889L235.063 24.2577L242.953 27.3404L248.322 20.7896L247.829 29.2455L255.718 32.3281L247.523 34.4715L247.03 42.9274Z" fill="white"/>
<path d="M77.3031 165.863L72.7324 158.732L64.5377 160.875L69.9075 154.325L65.3367 147.194L73.2261 150.276L78.5959 143.725L78.1021 152.181L85.9915 155.264L77.7969 157.407L77.3031 165.863Z" fill="white"/>
</g>
<circle cx="182.372" cy="21.3119" r="4.04813" transform="rotate(165.342 182.372 21.3119)" fill="white"/>
<path fill-rule="evenodd" clip-rule="evenodd" d="M213.339 136.301C214.063 135.265 215.144 134.472 216.461 134.127C217.153 133.946 217.848 133.905 218.517 133.986L186.104 27.5092C185.904 27.5879 185.696 27.6557 185.482 27.7116C184.662 27.9262 183.836 27.9442 183.055 27.7948L215.43 134.146L178.358 100.983L177.603 100.307L176.694 100.756L74.8565 151.023L76.1843 153.713L177.113 103.895L213.339 136.301ZM189.288 24.2045C189.619 23.2663 189.699 22.2294 189.47 21.1941L246.189 30.5036L245.703 33.464L189.288 24.2045Z" fill="white"/>
<circle cx="217.776" cy="140.669" r="4.04813" transform="rotate(165.342 217.776 140.669)" fill="white"/>
<path d="M181.311 117.961L174.864 107.902L163.306 110.926L170.88 101.686L164.433 91.6282L175.56 95.9761L183.134 86.7367L182.438 98.6632L193.565 103.011L182.007 106.034L181.311 117.961Z" fill="white"/>
<path d="M247.03 42.9274L242.459 35.7962L234.264 37.9396L239.634 31.3889L235.063 24.2577L242.953 27.3404L248.322 20.7896L247.829 29.2455L255.718 32.3281L247.523 34.4715L247.03 42.9274Z" fill="white"/>
<path d="M77.3031 165.863L72.7324 158.732L64.5377 160.875L69.9075 154.325L65.3367 147.194L73.2261 150.276L78.5959 143.725L78.1021 152.181L85.9915 155.264L77.7969 157.407L77.3031 165.863Z" fill="white"/>
<path opacity="0.2" d="M338.135 166.534C336.812 171.957 335.952 177.512 334.101 182.803C323.718 212.297 296.208 230.615 264.994 229.16C225.978 227.374 195.558 191.73 200.054 152.845C202.633 130.493 213.677 113.3 232.591 101.198C233.781 100.404 234.971 99.6767 236.36 98.7508C232.458 88.3022 228.557 77.9197 224.523 67.0082C218.968 76.4649 213.677 85.3264 208.453 94.254C198.533 111.117 188.614 127.98 178.628 144.778C177.57 146.563 177.57 148.018 178.231 149.936C180.48 156.417 179.289 162.368 174.396 167.262C169.37 172.222 162.955 174.073 156.871 170.767C150.787 167.394 144.836 168.386 138.421 168.055C134.651 191.796 122.682 209.85 101.454 221.158C85.4504 229.689 68.3888 231.276 50.9303 226.449C17.0054 217.058 -4.61919 182.869 1.06802 148.547C6.62297 115.019 39.1591 84.0699 83.2681 91.741C86.3762 82.4166 89.2198 72.96 92.7247 63.7678C94.378 59.4032 93.9812 56.0967 91.4021 52.2612C87.3021 46.1772 83.7971 39.6964 79.8293 33.1495C77.9115 33.7446 76.126 34.406 74.2082 34.935C62.6354 38.1754 51.1949 29.7107 51.0626 17.8734C50.9965 11.591 55.6917 6.23441 62.0402 6.16827C77.7793 5.96988 93.5183 6.03601 109.257 6.16827C113.622 6.16827 116.664 8.87962 117.458 12.9136C118.185 16.5507 116.201 20.3202 112.299 21.8412C107.141 23.8912 101.785 25.6106 96.1635 27.6607C99.4039 33.1495 103.107 38.1754 105.554 43.7303C108.662 50.7402 113.225 52.5918 120.764 52.4595C151.978 51.9966 183.257 52.2612 214.471 52.2612C215.793 52.2612 217.116 52.2612 218.902 52.2612C218.042 49.8143 217.381 47.6982 216.587 45.582C214.868 40.8206 213.016 36.1253 211.297 31.364C208.585 23.8251 212.355 18.5347 220.423 18.4685C226.771 18.4024 233.186 18.3363 239.534 18.204C246.015 18.0717 251.305 15.162 255.935 10.7974C258.315 8.54897 260.63 6.16827 263.209 4.0521C266.582 1.34076 271.409 1.67141 274.319 4.64728C277.162 7.55701 277.824 12.4507 275.046 15.4927C267.243 24.0896 258.844 32.1575 246.742 34.2737C241.717 35.1334 236.492 35.1995 230.937 35.6624C237.947 54.5096 244.957 73.4229 252.033 92.4023C255.935 91.9394 259.704 91.3442 263.54 91.0797C300.573 88.5006 332.117 114.027 337.473 150.795C337.606 151.655 337.936 152.449 338.135 153.308C338.135 157.739 338.135 162.17 338.135 166.534ZM244.428 120.375C223.332 133.271 216.124 160.451 227.697 182.141C239.204 203.568 265.92 212.76 287.809 202.774C310.823 192.259 321.47 166.601 312.41 143.19C303.086 119.053 277.691 109.993 260.365 114.49C260.696 115.482 261.027 116.54 261.423 117.532C266.185 130.295 270.946 143.058 275.641 155.821C277.559 161.046 275.708 166.072 271.343 167.725C266.515 169.51 262.085 167.196 259.902 161.773C259.109 159.723 258.381 157.673 257.588 155.623C253.223 143.852 248.859 132.279 244.428 120.375ZM115.077 168.055C105.091 168.055 95.3038 167.989 85.5827 168.122C84.7891 168.122 83.7972 169.18 83.202 169.973C79.2342 175.198 72.2905 177.777 65.9419 176.256C59.2628 174.669 54.1707 169.114 53.2449 162.236C52.3191 155.755 55.2288 148.547 61.3789 145.902C65.8097 143.984 67.1984 140.876 68.3226 136.908C68.6533 135.718 69.1162 134.593 69.513 133.469C71.6953 126.922 73.8115 120.442 75.9938 113.895C59.0644 109.993 31.6203 120.177 24.4121 148.15C17.4684 175.065 35.059 201.716 62.6354 205.882C91.9312 210.379 112.365 188.093 115.077 168.055ZM162.625 139.09C176.512 115.482 190.069 92.5346 203.824 69.1905C175.917 69.1905 148.671 69.1905 120.83 69.1905C134.784 92.5346 148.473 115.548 162.625 139.09ZM92.0634 118.987C91.7328 119.78 91.4021 120.574 91.1376 121.434C88.3601 129.634 85.6488 137.834 82.8713 146.034C81.6149 149.737 82.8052 151.258 86.8391 151.258C95.3038 151.258 103.769 151.258 112.167 151.258C113.093 151.258 114.019 151.126 114.945 151.06C114.283 139.686 103.769 125.071 92.0634 118.987ZM99.2717 97.1637C121.359 108.67 134.321 126.658 138.355 151.258C139.942 151.258 141.397 151.457 142.785 151.192C144.24 150.928 146.026 150.729 146.952 149.803C148.605 148.15 147.547 146.299 146.489 144.513C133.593 123.087 120.764 101.594 107.869 80.1021C107.34 79.2424 106.811 78.3827 105.951 77.0601C103.57 84.136 101.454 90.5507 99.2717 97.1637Z" fill="white"/>
<defs>
<filter id="filter0_f_92_9769" x="54.5371" y="7.2627" width="211.182" height="168.601" filterUnits="userSpaceOnUse" color-interpolation-filters="sRGB">
<feFlood flood-opacity="0" result="BackgroundImageFix"/>
<feBlend mode="normal" in="SourceGraphic" in2="BackgroundImageFix" result="shape"/>
<feGaussianBlur stdDeviation="5" result="effect1_foregroundBlur_92_9769"/>
</filter>
</defs>
</svg>
