<svg width="327" height="362" viewBox="0 0 327 362" fill="none" xmlns="http://www.w3.org/2000/svg">
<path opacity="0.8" d="M55.0133 174.86C56.6149 177.634 56.4163 180.071 54.3519 181.263C53.0616 182.008 51.4774 181.747 50.2369 180.542C51.4158 183.13 50.9476 185.895 48.5391 187.285C45.5715 188.999 42.3688 187.722 40.2209 184.002L36.6452 177.809L36.7312 177.759C37.34 177.522 37.6105 177.395 38.9653 176.613L49.5024 170.529C50.8572 169.747 51.1029 169.576 51.6123 169.168L51.6983 169.118L55.0133 174.86ZM39.4728 180.621L40.7765 182.879C41.9808 184.964 44.2468 185.463 46.4617 184.184C48.8487 182.806 49.1276 180.408 47.8246 177.605L47.582 177.086L48.1411 176.763L48.3331 176.996C49.5811 178.512 51.0009 179.183 52.6782 178.215C54.0975 177.395 54.3957 175.876 53.4521 174.241L52.7196 172.973L39.4728 180.621ZM60.1972 183.838L65.6352 193.257L64.517 193.903L64.4673 193.817C64.3596 193.134 64.1733 192.811 63.5526 191.736L61.2184 187.693L57.5412 189.816L60.0864 194.224L59.1832 194.746L56.638 190.338L47.9717 195.341L50.7652 200.18C51.4232 201.319 51.5937 201.565 52.0456 202.05L52.0952 202.136L51.0415 202.744L45.1441 192.529L45.2301 192.48C45.8389 192.243 46.1094 192.115 47.4641 191.333L58.0013 185.25C59.3561 184.467 59.6017 184.297 60.1112 183.888L60.1972 183.838ZM58.4302 215.542L56.2078 211.692L56.2939 211.643C56.4229 211.568 56.7836 211.647 58.2423 210.002L66.6143 200.466L54.021 202.69C51.8637 203.075 51.6677 203.332 51.5387 203.406L51.4527 203.456L50.6705 202.101L50.7565 202.052C50.9228 202.042 51.2802 202.065 53.4499 201.701L69.0013 199.088C69.4483 199.862 70.2072 200.828 70.9816 201.127L60.2164 213.421C58.7577 215.066 58.608 215.353 58.5163 215.492L58.4302 215.542ZM63.3046 224.779C60.747 220.349 62.2376 214.786 66.6675 212.228C71.0974 209.671 76.6603 211.161 79.2179 215.591C81.7755 220.021 80.2849 225.584 75.855 228.142C71.4251 230.699 65.8622 229.209 63.3046 224.779ZM68.4059 215.984C64.4276 218.281 62.6931 221.634 64.1581 224.171C65.9584 227.289 70.6743 226.717 74.3086 224.619C78.2224 222.359 79.966 218.973 78.4885 216.414C76.7131 213.339 72.0186 213.899 68.4059 215.984ZM90.6107 241.035L87.6431 242.749L87.3575 242.254C90.0065 240.237 90.4423 237.118 89.1759 234.925C87.6736 232.323 83.8976 230.948 78.7581 233.915C74.0916 236.609 73.4177 240.209 74.8579 242.704C76.0995 244.854 78.9911 246.138 82.1749 245.246L82.4605 245.741L79.6434 247.367C77.3583 246.737 75.097 245.204 73.7064 242.795C71.1488 238.365 72.6642 232.846 77.0941 230.288C81.5241 227.73 87.0621 229.178 89.6197 233.608C91.0227 236.038 91.2196 238.763 90.6107 241.035ZM94.3996 243.079L96.411 246.562L96.325 246.612C95.6913 246.806 95.4209 246.933 94.0661 247.716L85.7439 252.52L101.663 255.659L102.06 256.347C101.316 256.547 100.993 256.734 97.6599 258.658L89.1656 263.562C87.8108 264.344 87.5652 264.515 87.0557 264.924L86.9697 264.973L84.9584 261.49L85.0444 261.44C85.678 261.246 85.9485 261.119 87.3033 260.337L95.6255 255.532L79.7066 252.393L79.3093 251.705C80.0538 251.505 80.3763 251.318 81.4515 250.698L92.2038 244.49C93.5585 243.708 93.8042 243.537 94.3136 243.128L94.3996 243.079ZM103.928 259.583L111.253 272.27L111.167 272.32C110.559 272.557 110.288 272.684 108.933 273.466L98.3962 279.55C97.0414 280.332 96.7958 280.503 96.2863 280.912L96.2003 280.961L94.189 277.478L94.275 277.428C94.9086 277.234 95.1791 277.107 96.5339 276.324L108.426 269.459L104.949 263.437L93.0575 270.303C91.7027 271.085 91.4571 271.256 90.9725 271.708L90.8865 271.757L88.8751 268.274L88.9611 268.224C89.5699 267.987 89.8404 267.86 91.1952 267.077L101.732 260.994C103.087 260.212 103.333 260.041 103.842 259.632L103.928 259.583ZM113.118 275.5L118.556 284.919L117.438 285.565L117.388 285.479C117.281 284.795 117.094 284.473 116.474 283.398L114.139 279.355L110.462 281.478L113.007 285.886L112.104 286.408L109.559 281.999L100.893 287.003L103.686 291.841C104.344 292.981 104.515 293.227 104.967 293.711L105.016 293.797L103.963 294.406L98.0651 284.191L98.1511 284.141C98.7599 283.905 99.0304 283.777 100.385 282.995L110.922 276.911C112.277 276.129 112.523 275.959 113.032 275.55L113.118 275.5ZM123.261 293.068C123.708 293.842 124.467 294.809 125.241 295.107L113.494 308.828L114.363 310.333L110.707 312.444L110.384 311.885C112.681 310.301 112.826 309.758 111.696 307.801L105.973 297.888C104.843 295.931 104.3 295.785 101.78 296.982L101.457 296.423L105.113 294.313L105.945 295.753L123.261 293.068ZM106.516 296.743L111.519 305.409L121.006 294.427L106.516 296.743Z" fill="#F6F1FF"/>
<path opacity="0.5" d="M33.7631 214.817L33.2891 213.996L41.6185 212.859L39.6175 209.394L40.3605 208.965L42.8325 213.246L42.0895 213.675L33.7631 214.817ZM41.5363 221.033L37.5997 219.759L39.7477 223.479L39.015 223.902L36.195 219.018L36.8943 218.621L41.9026 220.239C42.7552 220.516 43.2965 220.398 43.8161 220.098C44.741 219.564 45.0575 218.432 44.5265 217.512C43.9745 216.556 42.7975 216.293 41.9253 216.811L41.4753 216.031C42.8419 215.242 44.4641 215.712 45.2651 217.1C46.0511 218.461 45.5933 220.104 44.2579 220.875C43.3174 221.418 42.6058 221.385 41.5363 221.033ZM44.7088 224.776C44.1148 223.747 44.4602 222.425 45.4994 221.825C46.5178 221.237 47.874 221.618 48.45 222.616C49.044 223.645 48.6986 224.967 47.6594 225.567C46.6202 226.167 45.3028 225.805 44.7088 224.776ZM45.3999 224.377C45.7689 225.016 46.6213 225.244 47.2604 224.875C47.8995 224.506 48.1279 223.654 47.7589 223.015C47.3899 222.376 46.5375 222.147 45.8984 222.516C45.2593 222.885 45.0309 223.738 45.3999 224.377ZM44.167 233.197C43.366 231.81 43.8118 230.146 45.1992 229.345L48.109 227.665C49.4964 226.864 51.1602 227.31 51.9612 228.697C52.7622 230.085 52.3164 231.749 50.929 232.55L48.0192 234.23C46.6318 235.031 44.968 234.585 44.167 233.197ZM44.9048 232.771C45.4358 233.691 46.6161 234.007 47.5358 233.476L50.5184 231.754C51.4433 231.22 51.7595 230.04 51.2285 229.12C50.6975 228.201 49.5173 227.884 48.5924 228.418L45.6098 230.14C44.6901 230.671 44.3738 231.852 44.9048 232.771ZM48.0691 239.956C47.2681 238.569 47.7139 236.905 49.1013 236.104L52.0111 234.424C53.3985 233.623 55.0623 234.069 55.8633 235.456C56.6643 236.843 56.2185 238.507 54.8311 239.308L51.9213 240.988C50.5339 241.789 48.8701 241.343 48.0691 239.956ZM48.8069 239.53C49.3379 240.45 50.5182 240.766 51.4379 240.235L54.4205 238.513C55.3454 237.979 55.6616 236.799 55.1306 235.879C54.5996 234.959 53.4194 234.643 52.4945 235.177L49.5119 236.899C48.5922 237.43 48.2759 238.61 48.8069 239.53ZM55.7519 241.227L58.5251 240.27L58.9691 241.039L56.0549 241.752L55.7519 241.227ZM56.5139 242.547L59.2871 241.59L59.7311 242.359L56.8169 243.072L56.5139 242.547ZM60.0369 253.521L57.5169 249.156L58.1716 248.778L60.6916 253.143L60.0369 253.521ZM68.6072 257.541C69.4202 258.949 68.9459 260.72 67.4857 261.563L64.8929 263.06C63.3912 263.927 61.6402 263.462 60.7852 261.981C60.2932 261.129 60.2471 260.137 60.6474 259.282L61.4696 259.591C61.159 260.192 61.1557 260.943 61.5127 261.561C62.1217 262.616 63.4118 262.882 64.3783 262.324L65.5267 261.661C64.7365 261.529 64.0073 261.07 63.5873 260.342C62.7863 258.955 63.2565 257.249 64.6439 256.448C66.026 255.65 67.8062 256.154 68.6072 257.541ZM64.3382 259.999C64.9022 260.976 66.145 261.304 67.1219 260.74C68.0884 260.182 68.4282 258.947 67.8642 257.97C67.3002 256.993 66.0647 256.653 65.0879 257.217C64.111 257.781 63.7742 259.022 64.3382 259.999ZM64.7669 268.878C63.9659 267.49 64.4117 265.826 65.7991 265.025L68.7089 263.345C70.0963 262.544 71.7601 262.99 72.5611 264.378C73.3621 265.765 72.9163 267.429 71.5289 268.23L68.6191 269.91C67.2317 270.711 65.5679 270.265 64.7669 268.878ZM65.5047 268.452C66.0357 269.371 67.216 269.687 68.1357 269.156L71.1183 267.434C72.0432 266.9 72.3595 265.72 71.8285 264.801C71.2975 263.881 70.1172 263.565 69.1923 264.099L66.2097 265.821C65.29 266.352 64.9737 267.532 65.5047 268.452ZM72.152 272.309C71.558 271.28 71.9034 269.958 72.9426 269.358C73.9611 268.77 75.3172 269.151 75.8932 270.149C76.4872 271.178 76.1418 272.5 75.1026 273.1C74.0634 273.7 72.746 273.338 72.152 272.309ZM72.8431 271.91C73.2121 272.549 74.0645 272.777 74.7036 272.408C75.3427 272.039 75.5711 271.187 75.2021 270.548C74.8331 269.909 73.9807 269.68 73.3416 270.049C72.7025 270.418 72.4741 271.271 72.8431 271.91ZM71.6102 280.73C70.8092 279.343 71.255 277.679 72.6424 276.878L75.5522 275.198C76.9396 274.397 78.6034 274.843 79.4044 276.23C80.2054 277.618 79.7596 279.282 78.3722 280.083L75.4624 281.763C74.075 282.564 72.4112 282.118 71.6102 280.73ZM72.348 280.304C72.879 281.224 74.0593 281.54 74.979 281.009L77.9616 279.287C78.8865 278.753 79.2028 277.573 78.6718 276.653C78.1408 275.734 76.9605 275.417 76.0356 275.951L73.053 277.673C72.1333 278.204 71.817 279.385 72.348 280.304ZM75.5123 287.489C74.7113 286.102 75.1571 284.438 76.5445 283.637L79.4543 281.957C80.8417 281.156 82.5055 281.602 83.3065 282.989C84.1075 284.376 83.6617 286.04 82.2743 286.841L79.3645 288.521C77.9771 289.322 76.3133 288.876 75.5123 287.489ZM76.2501 287.063C76.7811 287.983 77.9614 288.299 78.8811 287.768L81.8637 286.046C82.7886 285.512 83.1049 284.332 82.5739 283.412C82.0429 282.492 80.8626 282.176 79.9377 282.71L76.9551 284.432C76.0354 284.963 75.7191 286.143 76.2501 287.063ZM83.1951 288.76L85.9683 287.803L86.4123 288.572L83.4981 289.285L83.1951 288.76ZM83.9571 290.08L86.7303 289.123L87.1743 289.892L84.2601 290.605L83.9571 290.08Z" fill="#BBBBBB"/>
<circle cx="242.482" cy="149.103" r="3.605" transform="rotate(-134.658 242.482 149.103)" fill="#BBBBBB"/>
<path fill-rule="evenodd" clip-rule="evenodd" d="M167.838 224.216C168.56 224.316 169.263 224.576 169.891 224.996L179.003 181.431L179.153 180.714L178.544 180.307L94.4318 124.15L93.2274 125.954L176.73 181.704L167.838 224.216ZM170.181 225.207C170.346 225.335 170.504 225.476 170.654 225.628C171.034 226.012 171.338 226.444 171.565 226.903L239.17 154.58C239.089 154.508 239.009 154.433 238.932 154.354C238.47 153.887 238.121 153.35 237.885 152.779L170.181 225.207ZM243.579 155.675C244.278 155.506 244.947 155.183 245.531 154.703L263.573 202.503L261.544 203.269L243.579 155.675Z" fill="#BBBBBB"/>
<circle cx="166.194" cy="229.553" r="3.605" transform="rotate(-134.658 166.194 229.553)" fill="#BBBBBB"/>
<path d="M167.47 191.319L172.357 181.869L164.879 174.301L175.377 176.028L180.263 166.578L181.865 177.096L192.363 178.823L182.855 183.596L184.456 194.114L176.978 186.546L167.47 191.319Z" fill="white"/>
<path d="M254.601 208.595L258.066 201.895L252.764 196.53L260.207 197.754L263.671 191.054L264.807 198.511L272.25 199.735L265.509 203.12L266.644 210.577L261.342 205.211L254.601 208.595Z" fill="white"/>
<path d="M84.2163 132.436L87.6809 125.736L82.379 120.37L89.8221 121.595L93.2866 114.894L94.4221 122.352L101.865 123.576L95.1239 126.96L96.2594 134.417L90.9576 129.052L84.2163 132.436Z" fill="white"/>
<path opacity="0.2" d="M199.837 333.894C195.066 335.288 190.399 337.099 185.495 338.027C158.125 343.152 131.748 330.092 118.972 305.371C102.976 274.486 116.921 235.154 148.912 221.308C167.299 213.344 185.477 214.205 203.231 223.403C204.374 223.968 205.465 224.562 206.797 225.221C213.118 217.559 219.388 209.927 226.007 201.958C216.24 201.884 207.05 201.75 197.839 201.696C180.417 201.554 162.994 201.413 145.594 201.191C143.746 201.17 142.624 201.818 141.439 203.182C137.442 207.801 132.322 209.533 126.369 207.938C120.306 206.271 116.022 202.148 115.863 195.983C115.755 189.79 112.34 185.641 109.738 180.547C89.7504 188.211 70.4973 187.018 52.324 175.682C38.6189 167.138 29.7979 154.686 25.7473 139.072C17.8839 108.727 34.6229 76.8265 63.625 65.9303C91.9561 55.2854 130.312 66.5976 144.036 104.031C152.611 102.276 161.171 100.259 169.821 98.8689C173.923 98.2005 176.296 96.4222 178.106 92.7253C180.972 86.8542 184.41 81.2655 187.692 75.2902C186.379 74.0762 185.074 72.9936 183.812 71.7502C176.16 64.2677 177.594 51.6754 186.665 46.3027C191.48 43.4543 197.702 44.6903 200.58 49.557C207.741 61.607 214.698 73.7748 221.604 85.972C223.548 89.3381 222.811 92.8915 220.053 95.2997C217.572 97.4802 213.782 97.6286 210.871 95.2967C206.994 92.2314 203.283 88.8659 199.199 85.4436C196.408 90.3867 194.181 95.4806 190.987 99.8411C186.964 105.359 187.568 109.703 191.027 115.458C205.282 139.325 219.006 163.566 232.904 187.639C233.493 188.659 234.082 189.679 234.877 191.056C236.382 189.304 237.719 187.851 238.998 186.297C241.904 182.851 244.701 179.332 247.607 175.886C252.214 170.438 257.973 170.99 261.616 177.182C264.494 182.049 267.401 186.967 270.33 191.804C273.318 196.743 277.918 199.528 283.345 201.154C286.139 201.989 289.006 202.714 291.786 203.761C295.379 205.155 297.273 209.025 296.274 212.594C295.296 216.083 291.816 218.772 288.234 217.985C278.129 215.794 268.167 212.909 261.146 204.518C258.245 201.025 255.868 197.026 253.038 192.948C241.624 206.746 230.158 220.573 218.672 234.481C220.766 237.284 222.903 239.926 224.815 242.767C243.294 270.179 237.653 305.873 211.681 326.376C211.077 326.861 210.612 327.469 210.038 328.005C206.621 329.978 203.204 331.951 199.837 333.894ZM193.712 241.072C174.373 230.544 150.202 237.087 138.627 255.671C127.226 274.085 132.033 298.783 149.48 311.218C167.837 324.285 192.366 321.071 206.387 303.66C220.85 285.721 216.53 262.103 205.347 250.742C204.73 251.439 204.061 252.165 203.472 252.913C195.749 262.268 188.026 271.623 180.273 280.927C177.098 284.733 172.398 285.542 169.179 282.913C165.653 279.984 165.465 275.537 168.675 271.439C169.903 269.914 171.16 268.44 172.388 266.916C179.523 258.308 186.504 249.789 193.712 241.072ZM99.344 162.543C94.8977 154.842 90.5907 147.264 86.1602 139.826C85.8068 139.214 84.5491 138.92 83.6721 138.815C77.8762 138.081 72.7954 133.874 71.1416 128.301C69.3916 122.443 71.4084 116.042 76.3003 112.266C80.8862 108.666 87.741 107.7 92.5195 111.266C95.9714 113.829 98.9869 113.516 102.548 112.616C103.613 112.341 104.686 112.198 105.73 112.003C111.75 110.771 117.691 109.517 123.712 108.285C119.183 93.4917 99.1085 76.8608 74.3253 83.7571C50.4759 90.3864 37.7549 115.819 46.8207 138.942C56.397 163.538 82.6832 169.374 99.344 162.543ZM142.854 186.316C167.245 186.514 190.979 186.752 215.107 186.966C202.681 165.443 190.55 144.431 178.153 122.959C166.362 144.115 154.709 164.919 142.854 186.316ZM126.94 122.946C126.181 123.044 125.421 123.143 124.641 123.322C117.08 124.831 109.548 126.391 101.987 127.9C98.5718 128.58 97.9288 130.175 99.725 133.286C103.494 139.815 107.263 146.343 111.003 152.82C111.415 153.534 111.929 154.189 112.392 154.874C120.87 149.299 127.46 134.682 126.94 122.946ZM146.98 118.788C147.941 140.946 139.84 158.952 122.663 173.017C123.37 174.241 123.865 175.451 124.687 176.404C125.539 177.408 126.487 178.697 127.613 178.999C129.624 179.538 130.581 177.897 131.487 176.286C142.27 156.801 153.133 137.336 163.966 117.821C164.394 117.031 164.821 116.24 165.458 114.988C158.941 116.302 153.052 117.527 146.98 118.788Z" fill="white"/>
</svg>
