<svg width="426" height="361" viewBox="0 0 426 361" fill="none" xmlns="http://www.w3.org/2000/svg">
<path opacity="0.8" d="M31.6067 101.85L33.9657 105.936L33.8921 106.007C33.6837 106.242 33.5671 106.338 32.761 107.922L30.514 112.373L35.4552 112.588C37.3406 112.675 37.396 112.672 37.7037 112.609L37.8021 112.581L38.6961 114.129L38.61 114.179C38.1352 114.052 37.5676 113.863 35.4357 113.746L29.9676 113.463L25.9067 121.427C24.9907 123.218 24.7625 123.865 24.6105 124.297L24.5245 124.347L22.1655 120.261L22.2391 120.19C22.4475 119.955 22.5641 119.859 23.3702 118.275L26.3926 112.287L19.7075 111.932C17.8437 111.832 17.7668 111.848 17.4591 111.911L17.3607 111.939L16.4667 110.391L16.5527 110.341C17.0276 110.468 17.6291 110.666 19.7394 110.795L26.93 111.231L30.2212 104.715C31.1463 102.89 31.3686 102.332 31.5207 101.9L31.6067 101.85ZM29.4766 133.719C26.919 129.289 28.4096 123.726 32.8395 121.168C37.2694 118.611 42.8323 120.101 45.3899 124.531C47.9475 128.961 46.4569 134.524 42.027 137.082C37.5971 139.639 32.0342 138.149 29.4766 133.719ZM34.5779 124.924C30.5996 127.221 28.8651 130.574 30.3301 133.111C32.1304 136.23 36.8463 135.657 40.4806 133.559C44.3944 131.299 46.138 127.913 44.6605 125.354C42.8851 122.279 38.1906 122.839 34.5779 124.924ZM51.0171 135.47L53.0284 138.954L52.9424 139.003C52.3088 139.197 52.0383 139.324 50.6835 140.107L46.5977 142.466L53.2039 144.472C55.187 145.076 56.3618 145.373 56.5553 145.261L56.6413 145.211L57.6222 146.91L57.5362 146.96C56.7924 146.615 55.9444 146.388 53.9612 145.784L51.7531 145.138L45.3035 154.08C44.1218 155.708 43.9095 156.433 43.7831 157.108L43.5251 157.257C41.9288 155.684 41.439 152.899 43.2334 150.544L48.2245 143.992L45.4364 143.136L40.1464 146.19C38.7916 146.972 38.5459 147.143 38.0613 147.595L37.9753 147.644L35.964 144.161L36.05 144.111C36.6588 143.874 36.9292 143.747 38.284 142.965L48.8212 136.881C50.176 136.099 50.4216 135.928 50.9311 135.519L51.0171 135.47ZM59.322 149.854L61.3333 153.338L61.2473 153.388C60.6137 153.581 60.3432 153.709 58.9884 154.491L54.9026 156.85L61.5088 158.857C63.4919 159.461 64.6667 159.757 64.8602 159.645L64.9462 159.596L65.9271 161.295L65.841 161.344C65.0972 161 64.2492 160.772 62.2661 160.168L60.058 159.522L53.6083 168.464C52.4267 170.093 52.2144 170.817 52.088 171.492L51.8299 171.641C50.2337 170.068 49.7439 167.283 51.5383 164.928L56.5294 158.377L53.7413 157.521L48.4512 160.575C47.0964 161.357 46.8508 161.527 46.3662 161.979L46.2802 162.029L44.2688 158.545L44.3549 158.496C44.9636 158.259 45.2341 158.131 46.5889 157.349L57.1261 151.265C58.4808 150.483 58.7265 150.313 59.2359 149.904L59.322 149.854ZM67.6268 164.239L73.0649 173.658L71.9466 174.303L71.897 174.217C71.7892 173.534 71.603 173.211 70.9822 172.136L68.6481 168.093L64.9708 170.216L67.516 174.625L66.6128 175.146L64.0676 170.738L55.4013 175.741L58.1948 180.58C58.8529 181.72 59.0234 181.965 59.4752 182.45L59.5248 182.536L58.4711 183.144L52.5737 172.93L52.6597 172.88C53.2685 172.643 53.539 172.516 54.8938 171.734L65.4309 165.65C66.7857 164.868 67.0314 164.697 67.5408 164.288L67.6268 164.239ZM74.9262 176.882L76.9375 180.365L76.8515 180.415C76.2179 180.609 75.9475 180.736 74.5927 181.518L66.2705 186.323L82.1893 189.462L82.5866 190.15C81.8422 190.35 81.5196 190.537 78.1864 192.461L69.6922 197.365C68.3374 198.147 68.0918 198.318 67.5823 198.727L67.4963 198.776L65.485 195.293L65.571 195.243C66.2046 195.049 66.4751 194.922 67.8298 194.139L76.1521 189.335L60.2332 186.196L59.8359 185.508C60.5803 185.308 60.9029 185.121 61.9781 184.501L72.7303 178.293C74.0851 177.511 74.3308 177.34 74.8402 176.931L74.9262 176.882ZM81.6827 178.056L82.5766 179.604L82.5551 179.617C82.0605 179.902 81.7604 180.276 81.562 180.677C81.2966 181.261 81.3489 181.947 81.7338 182.614C82.367 183.711 83.4864 184.011 84.7618 183.389L85.6557 184.937C83.9626 185.829 81.9977 185.157 80.8306 183.135C79.6636 181.114 80.0641 179.076 81.6827 178.056Z" fill="#F6F1FF"/>
<path opacity="0.5" d="M1.77382 126.943L1.29982 126.122L9.62923 124.984L7.62823 121.519L8.37128 121.09L10.8433 125.371L10.1002 125.8L1.77382 126.943ZM9.54702 133.158L5.61039 131.884L7.7584 135.604L7.02574 136.027L4.20574 131.143L4.90502 130.746L9.91336 132.365C10.766 132.641 11.3072 132.523 11.8269 132.223C12.7518 131.689 13.0682 130.557 12.5372 129.637C11.9852 128.681 10.8082 128.418 9.93605 128.936L9.48605 128.156C10.8526 127.367 12.4749 127.837 13.2759 129.225C14.0619 130.586 13.6041 132.229 12.2687 133C11.3282 133.543 10.6165 133.511 9.54702 133.158ZM12.7195 136.901C12.1255 135.872 12.4709 134.55 13.5101 133.95C14.5286 133.362 15.8848 133.743 16.4608 134.741C17.0548 135.77 16.7094 137.092 15.6701 137.692C14.6309 138.292 13.3135 137.93 12.7195 136.901ZM13.4106 136.502C13.7796 137.141 14.632 137.37 15.2711 137.001C15.9103 136.632 16.1387 135.779 15.7697 135.14C15.4007 134.501 14.5483 134.272 13.9091 134.641C13.27 135.01 13.0416 135.863 13.4106 136.502ZM12.1777 145.323C11.3767 143.935 11.8225 142.271 13.2099 141.47L16.1197 139.79C17.5071 138.989 19.1709 139.435 19.9719 140.823C20.7729 142.21 20.3271 143.874 18.9397 144.675L16.0299 146.355C14.6425 147.156 12.9787 146.71 12.1777 145.323ZM12.9156 144.897C13.4466 145.816 14.6268 146.133 15.5465 145.602L18.5291 143.88C19.454 143.346 19.7703 142.165 19.2393 141.246C18.7083 140.326 17.528 140.01 16.6031 140.544L13.6205 142.266C12.7008 142.797 12.3846 143.977 12.9156 144.897ZM16.0798 152.081C15.2788 150.694 15.7246 149.03 17.112 148.229L20.0219 146.549C21.4092 145.748 23.073 146.194 23.874 147.581C24.675 148.969 24.2292 150.632 22.8419 151.433L19.932 153.113C18.5446 153.914 16.8808 153.469 16.0798 152.081ZM16.8177 151.655C17.3487 152.575 18.5289 152.891 19.4486 152.36L22.4312 150.638C23.3561 150.104 23.6724 148.924 23.1414 148.004C22.6104 147.084 21.4301 146.768 20.5052 147.302L17.5226 149.024C16.6029 149.555 16.2867 150.735 16.8177 151.655ZM23.7627 153.352L26.5358 152.396L26.9798 153.165L24.0657 153.877L23.7627 153.352ZM24.5247 154.672L27.2978 153.715L27.7418 154.484L24.8277 155.197L24.5247 154.672ZM28.0476 165.646L25.5276 161.281L26.1823 160.903L28.7023 165.268L28.0476 165.646ZM36.7892 172.027L33.4292 171.043C34.2256 172.399 33.7797 173.882 32.3819 174.689C30.9426 175.52 29.3681 175.085 28.5731 173.708C27.9311 172.596 28.0387 171.343 28.8689 170.441L29.5072 171.042C28.9081 171.72 28.8754 172.564 29.305 173.272C29.9018 174.258 30.9231 174.478 31.9259 173.899C32.9444 173.311 33.2449 172.272 32.6869 171.305C32.5309 171.035 32.2647 170.766 31.993 170.584L32.379 169.848L36.2386 171.049L34.3036 167.698L35.0363 167.275L37.5323 171.598L36.7892 172.027ZM32.3733 180.302C31.5723 178.915 32.0182 177.251 33.4055 176.45L36.3154 174.77C37.7027 173.969 39.3666 174.415 40.1676 175.802C40.9686 177.19 40.5228 178.854 39.1354 179.655L36.2255 181.335C34.8382 182.136 33.1743 181.69 32.3733 180.302ZM33.1112 179.876C33.6422 180.796 34.8224 181.112 35.7422 180.581L38.7248 178.859C39.6497 178.325 39.9659 177.145 39.4349 176.225C38.9039 175.306 37.7237 174.989 36.7987 175.523L33.8162 177.245C32.8964 177.776 32.5802 178.957 33.1112 179.876ZM39.7584 183.734C39.1644 182.705 39.5098 181.383 40.5491 180.783C41.5675 180.195 42.9237 180.576 43.4997 181.574C44.0937 182.603 43.7483 183.924 42.7091 184.524C41.6698 185.124 40.3525 184.763 39.7584 183.734ZM40.4495 183.335C40.8185 183.974 41.6709 184.202 42.3101 183.833C42.9492 183.464 43.1776 182.612 42.8086 181.973C42.4396 181.334 41.5872 181.105 40.9481 181.474C40.3089 181.843 40.0805 182.696 40.4495 183.335ZM39.2166 192.155C38.4156 190.768 38.8614 189.104 40.2488 188.303L43.1587 186.623C44.546 185.822 46.2099 186.268 47.0109 187.655C47.8119 189.043 47.366 190.706 45.9787 191.507L43.0688 193.187C41.6814 193.988 40.0176 193.543 39.2166 192.155ZM39.9545 191.729C40.4855 192.649 41.6657 192.965 42.5854 192.434L45.568 190.712C46.493 190.178 46.8092 188.998 46.2782 188.078C45.7472 187.159 44.567 186.842 43.642 187.376L40.6594 189.098C39.7397 189.629 39.4235 190.81 39.9545 191.729ZM43.1187 198.914C42.3177 197.527 42.7636 195.863 44.1509 195.062L47.0608 193.382C48.4481 192.581 50.112 193.027 50.913 194.414C51.714 195.801 51.2681 197.465 49.8808 198.266L46.9709 199.946C45.5836 200.747 43.9197 200.301 43.1187 198.914ZM43.8566 198.488C44.3876 199.408 45.5678 199.724 46.4876 199.193L49.4701 197.471C50.3951 196.937 50.7113 195.757 50.1803 194.837C49.6493 193.917 48.4691 193.601 47.5441 194.135L44.5616 195.857C43.6418 196.388 43.3256 197.568 43.8566 198.488ZM50.8016 200.185L53.5747 199.228L54.0187 199.997L51.1046 200.71L50.8016 200.185ZM51.5636 201.505L54.3367 200.548L54.7807 201.317L51.8666 202.03L51.5636 201.505Z" fill="#BBBBBB"/>
<g opacity="0.2">
<path d="M56.8426 148.189C57.3366 154.073 60.11 158.641 63.8125 162.854C65.261 162.063 64.9885 161.041 64.1611 160.158C61.6304 157.582 60.2565 154.338 58.7609 151.119C57.6935 148.878 58.4823 147.651 60.9964 147.606C62.8771 147.563 65.2221 146.754 66.5023 147.557C67.8022 148.394 67.8671 150.942 68.7903 152.541C75.61 164.117 82.3956 175.713 89.1132 187.349C89.5061 188.029 89.8389 189.47 91.0139 188.519C91.3488 188.235 91.0984 186.701 90.6859 185.987C85.1075 176.325 79.2033 166.806 73.4889 157.222C71.8926 154.379 70.4664 151.437 69.0063 148.515C68.8046 148.087 68.7533 147.527 68.5699 146.817C70.6887 146.637 72.6321 146.467 74.3322 146.348C75.7506 149.747 77.1245 152.991 78.5626 156.425C80.3068 155.282 79.766 154.188 79.2055 153.06C78.1094 150.926 77.0669 148.806 75.8031 146.224C78.414 146.032 80.4648 145.892 82.8467 145.696C81.4343 149.142 82.5581 152.031 83.8612 154.681C86.4228 159.825 89.2565 164.812 92.0222 169.838C92.1793 170.11 92.4529 170.27 92.7174 170.571C93.8401 169.922 94.0414 169.171 93.3984 168.136C92.1912 166.202 90.9839 164.268 89.893 162.222C88.1291 158.931 86.3848 155.674 84.791 152.285C84.2252 151.069 83.9656 149.677 83.7257 148.318C83.4608 146.838 84.2419 146.07 85.6645 146.019C99.3303 145.569 103.816 152.868 109.902 163.643C117.951 177.821 125.121 192.597 134.662 205.823C137.56 209.82 140.881 213.845 145.795 215.362C157.244 219.322 169.3 218.44 181.158 218.08C182.722 218.039 183.362 218.44 183.564 220.047C184.033 223.451 184.764 226.839 185.379 230.34C181.13 231.387 176.847 232.454 172.498 233.014C150.542 235.212 128.681 238.126 106.911 241.668C104.345 242.015 102.74 240.492 102.709 237.925C102.721 237.238 102.483 236.513 102.15 235.934C99.4102 231.347 96.6852 226.705 93.7417 222.236C91.318 218.509 88.4717 215.072 86.0336 211.399C76.4763 196.731 67.9541 181.42 58.8731 166.477C56.2215 161.884 52.4222 157.818 51.1026 152.547C50.2035 148.711 54.0669 148.567 56.8426 148.189Z" fill="white"/>
<path d="M230.818 224.11C230.636 221.358 230.458 218.694 230.265 215.766C244.065 213.741 257.937 212.627 271.762 210.723C281.326 209.375 290.889 207.71 300.551 207.71C301.993 207.694 303.402 208.877 304.861 209.441C305.725 209.758 306.835 210.66 307.37 209.308C307.568 208.785 306.613 207.839 306.122 206.989C313.096 206.183 320.259 204.996 327.267 204.171C330.656 203.756 334.101 203.673 337.51 203.292C338.698 203.15 339.776 202.346 340.965 202.205C347.286 201.368 353.637 200.74 359.992 199.883C363.274 199.44 366.51 198.524 369.787 197.993C371.287 197.762 372.886 198.018 374.425 197.855C383.984 196.419 393.564 195.334 403.138 194.161C407.929 193.345 412.745 192.651 417.527 191.977C420.786 191.729 421.801 191.052 422.018 194.964C422.188 196.907 422.148 198.881 422.23 200.829C422.28 202.252 421.224 202.544 420.177 202.695C411.435 203.66 402.739 205.097 394.021 206.183C385.494 207.205 376.907 208.126 368.355 209.026C364.98 209.387 361.576 209.856 358.218 209.617C355.088 209.383 352.297 210.676 349.223 210.773C343.513 210.94 337.776 211.531 332.117 212.257C318.161 214.327 304.245 216.465 290.188 217.731C289.715 217.777 289.256 217.452 288.744 217.43C288.145 217.414 287.511 217.416 286.937 217.521C286.328 217.646 285.775 218.101 285.181 218.172C267.02 220.266 249.087 223.225 230.818 224.11Z" fill="white"/>
<path d="M204.053 217.427C204.453 220.87 204.804 224.07 205.204 227.513C201.118 228.058 197.451 228.542 193.779 228.938C193.394 228.979 192.573 228.5 192.518 228.169C191.928 224.79 191.426 221.406 190.893 217.812C195.444 217.68 199.644 217.568 204.053 217.427Z" fill="white"/>
<path d="M224.553 224.416C220.765 224.925 217.312 225.466 213.815 225.852C213.255 225.903 212.234 225.313 212.12 224.88C211.627 222.534 211.344 220.157 210.928 217.63C214.864 217.218 218.711 216.811 222.564 216.492C222.949 216.451 223.711 216.828 223.746 217.125C224.117 219.496 224.318 221.966 224.553 224.416Z" fill="white"/>
<path d="M184.974 218.325C188.973 217.786 188.973 217.786 189.509 221.151C189.86 223.488 190.246 225.806 190.402 228.12C190.354 229.372 187.726 231.026 187.283 228.923C186.492 225.433 185.756 221.957 184.974 218.325Z" fill="white"/>
<path d="M205.709 217.469C207.05 217.511 208.107 217.536 209.252 217.555C209.586 220.175 210.089 222.697 210.227 225.293C210.339 227.451 208.263 226.291 207.287 227.036C206.776 223.793 206.241 220.745 205.709 217.469Z" fill="white"/>
<path d="M228.918 224.119C226.586 224.558 226.18 224.248 226.039 222.197C225.87 220.254 225.666 218.33 225.497 216.386C228.363 215.457 228.656 215.651 228.86 218.754C228.863 220.567 228.855 222.204 228.918 224.119Z" fill="white"/>
<path d="M204.421 312.428C203.739 316.904 199.986 322.11 195.031 319.891C185.639 315.016 177.755 298.611 173.955 288.965C172.896 286.265 173.702 283.577 175.246 281.144C176.692 278.857 178.98 278.262 181.363 278.383C192.285 278.836 200.1 287.343 203.067 296.018C203.921 298.518 204.95 301.009 205.527 303.579C205.92 305.439 206.291 307.81 205.465 309.285C204.111 311.654 201.947 313.72 199.756 315.348C198.275 316.475 196.38 315.392 194.826 314.429C194.113 313.979 193.257 313.203 192.784 314.429C192.601 314.897 193.176 315.971 193.709 316.344C196.872 318.601 199.934 318.012 202.371 314.927C203.059 314.076 203.767 313.259 204.421 312.428Z" fill="white"/>
<path d="M194.605 322.767C190.846 324.348 187.31 325.845 183.788 327.288C183.463 327.431 182.838 327.293 182.491 327.085C172.372 319.772 163.082 309.259 162.074 296.278C162.009 295.772 162.518 295.16 162.876 294.681C163.331 294.055 163.879 293.512 164.388 292.901C164.276 292.784 164.163 292.668 164.051 292.551C163.481 292.744 162.912 292.937 162.289 293.115C162.177 292.998 162.084 292.916 162.005 292.78C163.316 291.751 164.641 290.668 165.953 289.639C165.835 289.435 165.736 289.265 165.585 289.08C164.451 289.553 163.298 289.992 162.165 290.465C162.067 290.294 161.949 290.09 161.851 289.92C163.11 289.193 164.427 288.569 165.608 287.706C166.72 286.882 168.615 286.786 168.863 284.466C166.641 285.567 164.759 286.472 162.897 287.411C162.76 287.173 162.637 286.881 162.499 286.643C165.817 284.455 169.504 282.826 173.529 280.683C173.159 281.849 173 282.44 172.789 283.016C171.44 286.652 171.86 290.129 173.357 293.665C175.313 298.387 178.017 302.678 180.502 307.14C183.086 311.772 186.266 315.788 190.005 319.435C191.219 320.594 192.728 321.401 194.605 322.767Z" fill="white"/>
</g>
<path fill-rule="evenodd" clip-rule="evenodd" d="M115.729 194.667C115.853 193.786 115.849 192.884 115.71 191.99L208.701 181.037C208.852 181.916 209.133 182.785 209.554 183.616L115.729 194.667ZM226.604 181.608L327.641 169.707L327.33 167.065L226.833 178.902C226.892 179.815 226.813 180.727 226.604 181.608ZM105.249 202.426C106.326 202.597 107.436 202.577 108.527 202.351L146.619 252.787C146.301 252.925 145.987 253.083 145.679 253.26C145.201 253.537 144.756 253.85 144.348 254.194L105.249 202.426ZM155.349 268.759C156.109 268.249 156.77 267.641 157.325 266.962L183.707 301.892C183.008 302.504 182.419 303.21 181.949 303.978L155.349 268.759ZM198.716 310.472L253.375 304.8L253.1 302.154L198.828 307.786C198.924 308.687 198.884 309.593 198.716 310.472Z" fill="#BBBBBB"/>
<circle cx="218.98" cy="180.056" r="4.67495" transform="rotate(60 218.98 180.056)" fill="#BBBBBB"/>
<circle cx="106.407" cy="194.589" r="4.67495" transform="rotate(60 106.407 194.589)" fill="#BBBBBB"/>
<circle cx="151.126" cy="261.457" r="4.67495" transform="rotate(60 151.126 261.457)" fill="#BBBBBB"/>
<circle cx="190.194" cy="309.547" r="4.67495" transform="rotate(60 190.194 309.547)" fill="#BBBBBB"/>
<path d="M341.852 164.847L329.33 171.67L331.95 185.688L321.591 175.887L309.069 182.71L315.189 169.83L304.83 160.03L318.971 161.87L325.091 148.99L327.711 163.007L341.852 164.847Z" fill="white"/>
<path d="M271.392 300.529L261.939 305.68L263.916 316.263L256.096 308.864L246.643 314.015L251.263 304.291L243.442 296.892L254.118 298.281L258.739 288.557L260.716 299.14L271.392 300.529Z" fill="white"/>
</svg>
