<svg width="356" height="318" viewBox="0 0 356 318" fill="none" xmlns="http://www.w3.org/2000/svg">
<path opacity="0.5" d="M133.049 212.293L132.575 211.472L140.905 210.335L138.904 206.869L139.647 206.44L142.119 210.722L141.376 211.151L133.049 212.293ZM140.822 218.509L136.886 217.234L139.034 220.955L138.301 221.378L135.481 216.493L136.18 216.096L141.189 217.715C142.041 217.992 142.583 217.873 143.102 217.573C144.027 217.039 144.344 215.908 143.813 214.988C143.261 214.032 142.084 213.769 141.211 214.286L140.761 213.507C142.128 212.718 143.75 213.188 144.551 214.575C145.337 215.937 144.879 217.58 143.544 218.351C142.604 218.894 141.892 218.861 140.822 218.509ZM143.995 222.252C143.401 221.223 143.746 219.901 144.786 219.301C145.804 218.713 147.16 219.094 147.736 220.092C148.33 221.12 147.985 222.442 146.946 223.042C145.906 223.642 144.589 223.28 143.995 222.252ZM144.686 221.853C145.055 222.492 145.907 222.72 146.547 222.351C147.186 221.982 147.414 221.13 147.045 220.491C146.676 219.851 145.824 219.623 145.185 219.992C144.545 220.361 144.317 221.213 144.686 221.853ZM143.453 230.673C142.652 229.286 143.098 227.622 144.485 226.821L147.395 225.141C148.783 224.34 150.446 224.786 151.247 226.173C152.048 227.561 151.603 229.224 150.215 230.025L147.305 231.705C145.918 232.506 144.254 232.061 143.453 230.673ZM144.191 230.247C144.722 231.167 145.902 231.483 146.822 230.952L149.805 229.23C150.729 228.696 151.046 227.516 150.515 226.596C149.984 225.676 148.803 225.36 147.879 225.894L144.896 227.616C143.976 228.147 143.66 229.327 144.191 230.247ZM147.355 237.432C146.554 236.044 147 234.381 148.387 233.58L151.297 231.9C152.685 231.099 154.348 231.544 155.149 232.932C155.95 234.319 155.505 235.983 154.117 236.784L151.207 238.464C149.82 239.265 148.156 238.819 147.355 237.432ZM148.093 237.006C148.624 237.926 149.804 238.242 150.724 237.711L153.707 235.989C154.632 235.455 154.948 234.275 154.417 233.355C153.886 232.435 152.706 232.119 151.781 232.653L148.798 234.375C147.878 234.906 147.562 236.086 148.093 237.006ZM155.038 238.703L157.811 237.746L158.255 238.515L155.341 239.228L155.038 238.703ZM155.8 240.023L158.573 239.066L159.017 239.835L156.103 240.548L155.8 240.023ZM159.323 250.997L156.803 246.632L157.458 246.254L159.978 250.619L159.323 250.997ZM168.065 257.378L164.705 256.394C165.501 257.749 165.055 259.233 163.657 260.04C162.218 260.871 160.644 260.436 159.849 259.059C159.207 257.947 159.314 256.693 160.144 255.791L160.783 256.393C160.183 257.071 160.151 257.914 160.58 258.622C161.177 259.608 162.198 259.829 163.201 259.25C164.22 258.662 164.52 257.623 163.962 256.656C163.806 256.386 163.54 256.117 163.268 255.934L163.654 255.199L167.514 256.4L165.579 253.048L166.312 252.625L168.808 256.949L168.065 257.378ZM163.649 265.653C162.848 264.266 163.294 262.602 164.681 261.801L167.591 260.121C168.978 259.32 170.642 259.766 171.443 261.153C172.244 262.54 171.798 264.204 170.411 265.005L167.501 266.685C166.114 267.486 164.45 267.04 163.649 265.653ZM164.387 265.227C164.918 266.147 166.098 266.463 167.018 265.932L170 264.21C170.925 263.676 171.241 262.496 170.71 261.576C170.179 260.656 168.999 260.34 168.074 260.874L165.092 262.596C164.172 263.127 163.856 264.307 164.387 265.227ZM171.034 269.084C170.44 268.056 170.785 266.734 171.824 266.134C172.843 265.546 174.199 265.927 174.775 266.924C175.369 267.953 175.024 269.275 173.984 269.875C172.945 270.475 171.628 270.113 171.034 269.084ZM171.725 268.685C172.094 269.324 172.946 269.553 173.585 269.184C174.225 268.815 174.453 267.962 174.084 267.323C173.715 266.684 172.863 266.456 172.223 266.825C171.584 267.194 171.356 268.046 171.725 268.685ZM170.492 277.506C169.691 276.119 170.137 274.455 171.524 273.654L174.434 271.974C175.821 271.173 177.485 271.619 178.286 273.006C179.087 274.393 178.641 276.057 177.254 276.858L174.344 278.538C172.957 279.339 171.293 278.893 170.492 277.506ZM171.23 277.08C171.761 278 172.941 278.316 173.861 277.785L176.843 276.063C177.768 275.529 178.085 274.349 177.554 273.429C177.023 272.509 175.842 272.193 174.917 272.727L171.935 274.449C171.015 274.98 170.699 276.16 171.23 277.08ZM174.394 284.265C173.593 282.877 174.039 281.213 175.426 280.412L178.336 278.732C179.724 277.931 181.387 278.377 182.188 279.765C182.989 281.152 182.544 282.816 181.156 283.617L178.246 285.297C176.859 286.098 175.195 285.652 174.394 284.265ZM175.132 283.839C175.663 284.758 176.843 285.074 177.763 284.543L180.746 282.821C181.67 282.287 181.987 281.107 181.456 280.188C180.925 279.268 179.744 278.952 178.82 279.486L175.837 281.208C174.917 281.739 174.601 282.919 175.132 283.839ZM182.077 285.536L184.85 284.579L185.294 285.348L182.38 286.06L182.077 285.536ZM182.839 286.855L185.612 285.899L186.056 286.668L183.142 287.38L182.839 286.855Z" fill="#BBBBBB"/>
<path opacity="0.8" d="M146.121 158.171L153.446 170.859L153.36 170.909C152.752 171.146 152.481 171.273 151.126 172.055L140.589 178.139C139.234 178.921 138.989 179.092 138.479 179.5L138.393 179.55L136.382 176.066L136.468 176.017C137.102 175.823 137.372 175.695 138.727 174.913L150.619 168.047L147.142 162.026L135.25 168.892C133.896 169.674 133.65 169.845 133.165 170.296L133.079 170.346L131.068 166.862L131.154 166.813C131.763 166.576 132.033 166.448 133.388 165.666L143.925 159.583C145.28 158.8 145.526 158.63 146.035 158.221L146.121 158.171ZM144.197 190.398C141.64 185.968 143.13 180.405 147.56 177.847C151.99 175.29 157.553 176.78 160.111 181.21C162.668 185.64 161.178 191.203 156.748 193.76C152.318 196.318 146.755 194.827 144.197 190.398ZM149.299 181.603C145.32 183.9 143.586 187.253 145.051 189.79C146.851 192.908 151.567 192.336 155.201 190.238C159.115 187.978 160.859 184.592 159.381 182.033C157.606 178.957 152.911 179.517 149.299 181.603ZM165.738 192.148L173.063 204.836L172.977 204.886C172.368 205.123 172.098 205.25 170.743 206.032L160.206 212.116C158.851 212.898 158.605 213.069 158.096 213.477L158.01 213.527L155.999 210.043L156.085 209.994C156.718 209.8 156.989 209.672 158.343 208.89L170.235 202.024L166.759 196.003L154.867 202.869C153.512 203.651 153.267 203.822 152.782 204.273L152.696 204.323L150.685 200.839L150.771 200.79C151.379 200.553 151.65 200.425 153.005 199.643L163.542 193.56C164.897 192.777 165.142 192.607 165.652 192.198L165.738 192.148ZM174.059 206.561L176.48 210.754L176.437 210.779C176.112 211.11 175.786 211.986 175.197 213.301L171.629 221.124L179.828 221.322C181.199 221.362 182.071 221.432 182.495 221.273L182.538 221.248L183.271 222.517L183.185 222.567C182.553 222.415 181.863 222.412 180.471 222.385L167.715 222.093C163.816 221.994 162.048 221.265 161.129 219.674C160.086 217.868 160.558 215.904 162.257 214.923C163.955 213.942 165.825 214.698 166.669 216.16C167.092 216.891 167.259 217.827 167.115 218.77L166.66 218.775C166.694 218.239 166.544 217.781 166.333 217.415C165.725 216.361 164.653 216.292 163.857 216.751C163.018 217.236 162.472 218.325 163.142 219.487C163.577 220.239 164.655 220.964 166.66 221.011L167.818 221.03L172.897 209.267C173.473 207.931 173.812 207.276 173.973 206.61L174.059 206.561ZM183.827 223.479L188.731 231.974L187.677 232.582L187.627 232.496C187.434 231.862 187.306 231.592 186.648 230.452L184.848 227.334L172.956 234.2C171.601 234.982 171.356 235.153 170.871 235.604L170.785 235.654L168.774 232.17L168.86 232.121C169.468 231.884 169.739 231.756 171.094 230.974L181.631 224.891C182.986 224.108 183.231 223.938 183.741 223.529L183.827 223.479ZM192.069 237.756C192.516 238.53 193.275 239.497 194.05 239.796L183.396 252.283C181.971 253.937 181.8 254.237 181.709 254.376L181.622 254.425L179.413 250.597L179.499 250.548C179.628 250.473 179.985 250.496 181.41 248.842L182.565 247.516L178.741 240.892L176.99 241.187C174.808 241.529 174.612 241.786 174.483 241.86L174.397 241.91L173.614 240.555L173.7 240.505C173.867 240.495 174.224 240.518 176.406 240.176L192.069 237.756ZM179.843 240.715L183.282 246.672L189.815 239.115L179.843 240.715ZM197.527 247.21L199.539 250.693L199.453 250.743C198.819 250.937 198.549 251.064 197.194 251.847L188.872 256.651L204.791 259.79L205.188 260.478C204.443 260.678 204.121 260.865 200.788 262.789L192.293 267.693C190.939 268.475 190.693 268.646 190.184 269.055L190.097 269.104L188.086 265.621L188.172 265.571C188.806 265.377 189.076 265.25 190.431 264.468L198.753 259.663L182.834 256.524L182.437 255.836C183.182 255.636 183.504 255.449 184.579 254.829L195.332 248.621C196.686 247.839 196.932 247.668 197.441 247.259L197.527 247.21ZM204.284 248.384L205.178 249.932L205.156 249.945C204.662 250.23 204.362 250.604 204.163 251.005C203.898 251.589 203.95 252.275 204.335 252.942C204.968 254.039 206.088 254.339 207.363 253.717L208.257 255.265C206.564 256.157 204.599 255.485 203.432 253.463C202.265 251.442 202.665 249.404 204.284 248.384ZM206.808 263.284L208.819 266.767L208.733 266.817C208.099 267.011 207.829 267.138 206.474 267.92L203.507 269.634C201.743 270.652 201.042 272.318 202.023 274.017C202.582 274.985 203.408 275.77 204.546 276.202L209.578 273.297C210.933 272.514 211.178 272.344 211.663 271.892L211.749 271.842L213.76 275.326L213.674 275.376C213.066 275.613 212.795 275.74 211.44 276.522L200.903 282.606C199.548 283.388 199.303 283.559 198.793 283.967L198.707 284.017L196.696 280.533L196.782 280.484C197.416 280.29 197.686 280.162 199.041 279.38L203.535 276.785C201.965 276.201 200.901 275.152 200.156 273.862C198.231 270.529 199.171 267.836 201.472 266.507L204.612 264.695C205.967 263.913 206.212 263.742 206.722 263.333L206.808 263.284ZM215.665 278.625L217.676 282.108L217.59 282.158C216.957 282.352 216.686 282.479 215.331 283.261L207.009 288.066L222.928 291.205L223.325 291.893C222.581 292.093 222.258 292.28 218.925 294.204L210.431 299.108C209.076 299.89 208.83 300.061 208.321 300.47L208.235 300.519L206.224 297.036L206.31 296.986C206.943 296.792 207.214 296.665 208.568 295.882L216.891 291.078L200.972 287.939L200.575 287.251C201.319 287.051 201.642 286.864 202.717 286.244L213.469 280.036C214.824 279.254 215.069 279.083 215.579 278.674L215.665 278.625ZM225.193 295.129L227.205 298.612L227.119 298.662C226.485 298.856 226.215 298.983 224.86 299.765L220.774 302.124L227.38 304.131C229.363 304.735 230.538 305.032 230.732 304.92L230.818 304.87L231.799 306.569L231.713 306.619C230.969 306.274 230.121 306.047 228.138 305.443L225.929 304.796L219.48 313.739C218.298 315.367 218.086 316.092 217.96 316.767L217.701 316.916C216.105 315.343 215.615 312.558 217.41 310.203L222.401 303.651L219.613 302.795L214.323 305.849C212.968 306.631 212.722 306.802 212.238 307.254L212.152 307.303L210.14 303.82L210.226 303.77C210.835 303.533 211.106 303.406 212.46 302.623L222.998 296.54C224.352 295.758 224.598 295.587 225.107 295.178L225.193 295.129Z" fill="#F6F1FF"/>
<path opacity="0.2" d="M336.143 112.787C353.084 50.5609 294.607 45.5958 255.273 78.541C249.983 81.8064 239.663 68.1368 225.486 71.3625C175.999 77.035 131.274 103.385 84.8629 120.05C71.3425 130.811 106.89 130.97 131.125 130.907C91.4322 136.729 58.5687 171.742 21.586 187.923C16.9957 190.574 15.563 194.672 17.6772 198.517C30.2548 210.249 49.4944 185.634 63.0565 181.708C34.5428 223.708 128.668 159.551 149.182 148.657C150.338 148.833 151.483 148.805 152.57 148.494C151.499 149.746 150.427 150.998 150.072 152.575C149.716 154.152 150.201 156.088 151.711 156.694C153.517 157.445 155.483 156.099 156.962 154.823C155.417 159.092 156.585 164.221 159.886 167.38C160.148 167.651 160.535 167.956 160.909 168.056C161.408 168.19 161.85 168.04 162.291 167.891C165.46 166.8 168.398 164.577 169.517 161.398C170.782 157.924 169.609 154.064 168.414 150.532C168.116 149.649 167.817 148.767 167.394 147.85C186.046 154.387 206.579 155.406 226.124 153.619C252.513 151.257 276.012 143.705 290.593 119.247C291.506 118.087 291.308 116.83 290.623 115.642C285.609 109.884 281.117 103.93 280.673 95.8501C280.669 95.1133 280.1 94.4924 279.305 94.2126C278.602 94.091 277.865 94.0943 277.162 93.9728C285.746 89.6498 283.829 74.0838 301.883 73.3686C325.742 70.4626 325.441 99.5501 336.143 112.787ZM160.366 145.365C160.445 145.32 160.445 145.32 160.366 145.365C160.616 145.432 160.661 145.511 160.366 145.365Z" fill="white"/>
<path opacity="0.2" d="M296.628 120.195C295.705 108.909 312.323 111.555 319.577 108.95C342.625 112.316 310.032 144.324 295.723 135.807C308.167 130.311 302.129 128.626 296.628 120.195Z" fill="white"/>
<path opacity="0.2" d="M303.1 94.8262C302.191 92.0799 303.007 89.3927 306.512 87.2633C310.272 84.9875 313.803 84.9535 315.093 87.4802C316.245 89.7694 314.785 92.512 311.153 94.7146C307.394 96.9905 304.912 96.2071 303.1 94.8262Z" fill="white"/>
<path fill-rule="evenodd" clip-rule="evenodd" d="M183.187 128.384L243.744 134.955L244.031 132.31L182.74 125.659C183.076 126.546 183.22 127.472 183.187 128.384ZM181.345 123.39L190.345 114.851C189.646 114.33 189.033 113.671 188.552 112.885L179.168 121.788C179.978 122.17 180.72 122.708 181.345 123.39ZM187.728 107.519C187.506 108.407 187.457 109.34 187.595 110.261L94.9084 81.7101L95.1228 79.1204L172.984 68.6549L173.338 71.2917L101.479 80.9504L187.728 107.519Z" fill="#BBBBBB"/>
<circle cx="192.339" cy="109.989" r="3.06426" transform="rotate(60 192.339 109.989)" fill="#BBBBBB"/>
<circle cx="178.04" cy="127.029" r="3.06426" transform="rotate(60 178.04 127.029)" fill="#BBBBBB"/>
<path d="M195.465 63.9812L185.496 71.044L189.133 82.7074L179.335 75.409L169.366 82.4718L173.28 70.8983L163.482 63.5999L175.699 63.7455L179.612 52.172L183.249 63.8355L195.465 63.9812Z" fill="white"/>
<path d="M254.796 131.524L246.357 134.65L246.721 143.642L241.141 136.582L232.701 139.707L237.692 132.218L232.111 125.158L240.776 127.589L245.766 120.1L246.131 129.092L254.796 131.524Z" fill="white"/>
<path d="M116.501 72.9336L105.664 83.1357L112.018 96.5953L98.966 89.441L88.1287 99.6431L90.8996 85.0194L77.848 77.8651L92.6122 75.9814L95.3831 61.3578L101.737 74.8173L116.501 72.9336Z" fill="white"/>
</svg>
