<svg width="284" height="270" viewBox="0 0 284 270" fill="none" xmlns="http://www.w3.org/2000/svg">
<path opacity="0.8" d="M34.1664 40.9397L31.1987 42.6531L30.9132 42.1585C33.5622 40.1416 33.998 37.0228 32.7316 34.8293C31.2293 32.2273 27.4533 30.852 22.3138 33.8193C17.6473 36.5135 16.9734 40.1139 18.4136 42.6084C19.6552 44.7588 22.5468 46.0426 25.7306 45.1507L26.0162 45.6453L23.1991 47.2717C20.914 46.6412 18.6527 45.1082 17.2621 42.6998C14.7045 38.2698 16.2199 32.75 20.6498 30.1923C25.0797 27.6347 30.6178 29.0823 33.1754 33.5122C34.5784 35.9422 34.7753 38.6671 34.1664 40.9397ZM40.4385 47.2841C40.8854 48.0582 41.6443 49.025 42.4187 49.3234L31.7653 61.8108C30.3405 63.4649 30.1693 63.7645 30.0776 63.9035L29.9915 63.9531L27.7816 60.1253L27.8676 60.0757C27.9966 60.0012 28.354 60.0242 29.7788 58.3701L30.934 57.0437L27.11 50.4203L25.3588 50.7145C23.1767 51.0569 22.9807 51.3134 22.8517 51.3879L22.7657 51.4375L21.9835 50.0828L22.0695 50.0331C22.2358 50.0231 22.5931 50.0462 24.7753 49.7038L40.4385 47.2841ZM28.2119 50.2429L31.651 56.1996L38.1838 48.6431L28.2119 50.2429ZM45.8592 56.6731L46.6042 57.9634L39.9852 70.3866L54.1777 71.0811L54.9226 72.3713C54.3138 72.6081 54.0434 72.7356 52.9036 73.3936L42.0654 79.6511C40.7106 80.4333 40.465 80.6038 39.9555 81.0126L39.8695 81.0623L37.8582 77.5785L37.9442 77.5289C38.5778 77.3351 38.8483 77.2076 40.2031 76.4254L48.1597 71.8317L35.3719 71.1864L35.3595 71.1649L40.7656 60.9615L33.6476 65.0711C32.2928 65.8533 32.0472 66.0238 31.5626 66.4756L31.4766 66.5253L30.8061 65.364L30.8921 65.3144C31.5009 65.0776 31.7714 64.9501 33.1262 64.1679L43.9644 57.9104C45.1041 57.2524 45.3498 57.0819 45.8592 56.6731ZM45.6692 91.9022C43.1116 87.4723 44.6022 81.9094 49.0321 79.3518C53.462 76.7942 59.0249 78.2848 61.5825 82.7147C64.1401 87.1446 62.6495 92.7075 58.2196 95.2651C53.7897 97.8227 48.2268 96.3321 45.6692 91.9022ZM50.7705 83.1078C46.7922 85.4047 45.0577 88.7572 46.5227 91.2948C48.323 94.4129 53.039 93.8406 56.6732 91.7424C60.587 89.4827 62.3306 86.0962 60.8531 83.5372C59.0777 80.4621 54.3833 81.022 50.7705 83.1078ZM58.7989 113.849L56.5765 110L56.6626 109.95C56.7916 109.875 57.1523 109.954 58.611 108.309L66.983 98.7731L54.3897 100.997C52.2324 101.383 52.0364 101.639 51.9074 101.714L51.8214 101.763L51.0392 100.409L51.1252 100.359C51.2915 100.349 51.6488 100.372 53.8186 100.008L69.37 97.3949C69.817 98.1691 70.5759 99.1359 71.3503 99.4343L60.5851 111.728C59.1264 113.373 58.9767 113.66 58.8849 113.799L58.7989 113.849ZM74.9083 106.988L80.3464 116.407L79.2281 117.052L79.1785 116.966C79.0707 116.283 78.8845 115.96 78.2637 114.885L75.9296 110.842L72.2523 112.965L74.7975 117.374L73.8943 117.895L71.3491 113.487L62.6828 118.49L65.4763 123.329C66.1344 124.468 66.3049 124.714 66.7567 125.199L66.8064 125.285L65.7526 125.893L59.8552 115.679L59.9412 115.629C60.55 115.392 60.8205 115.265 62.1753 114.482L72.7124 108.399C74.0672 107.617 74.3129 107.446 74.8223 107.037L74.9083 106.988ZM79.4425 107.094C80.0016 106.771 80.7785 106.924 81.1385 107.548C81.4613 108.107 81.2432 108.921 80.6841 109.244C80.0604 109.604 79.2894 109.361 78.9666 108.802C78.6065 108.178 78.8189 107.454 79.4425 107.094ZM81.5532 110.749C82.0908 110.439 82.8676 110.593 83.2277 111.216C83.5505 111.775 83.3323 112.589 82.7947 112.9C82.1711 113.26 81.4 113.017 81.0772 112.458C80.7172 111.834 80.9295 111.109 81.5532 110.749ZM81.9843 119.243L87.6954 129.135L86.6417 129.744L86.5921 129.658C86.3983 129.024 86.2708 128.754 85.6128 127.614L84.8678 126.324L72.9759 133.19C71.6641 133.947 71.44 134.105 70.9859 134.51L70.8908 134.594L70.8048 134.644L68.7687 131.117L68.8547 131.067L68.9746 131.027C69.5528 130.836 69.8018 130.721 71.1135 129.964L83.0055 123.098L82.2606 121.808C81.6025 120.668 81.432 120.422 80.9802 119.938L80.9305 119.852L81.9843 119.243Z" fill="#F6F1FF"/>
<path opacity="0.5" d="M2.17421 57.7725L1.70021 56.9515L10.0296 55.8144L8.02862 52.3486L8.77167 51.9196L11.2437 56.2012L10.5006 56.6302L2.17421 57.7725ZM9.94741 63.988L6.01078 62.7136L8.15879 66.434L7.42613 66.857L4.60613 61.9727L5.30541 61.5759L10.3137 63.1945C11.1664 63.4713 11.7076 63.3528 12.2272 63.0528C13.1522 62.5188 13.4686 61.3869 12.9376 60.4672C12.3856 59.5111 11.2086 59.2484 10.3364 59.7658L9.88644 58.9864C11.253 58.1974 12.8753 58.6672 13.6763 60.0546C14.4623 61.416 14.0045 63.059 12.669 63.83C11.7285 64.373 11.0169 64.3405 9.94741 63.988ZM13.1199 67.731C12.5259 66.7021 12.8713 65.3804 13.9105 64.7804C14.929 64.1924 16.2852 64.5733 16.8612 65.571C17.4552 66.5998 17.1098 67.9216 16.0705 68.5216C15.0313 69.1216 13.7139 68.7598 13.1199 67.731ZM13.811 67.332C14.18 67.9711 15.0324 68.1995 15.6715 67.8305C16.3107 67.4615 16.5391 66.6091 16.1701 65.97C15.8011 65.3308 14.9487 65.1024 14.3095 65.4714C13.6704 65.8404 13.442 66.6928 13.811 67.332ZM12.5781 76.1525C11.7771 74.7651 12.2229 73.1013 13.6103 72.3003L16.5201 70.6203C17.9075 69.8193 19.5713 70.2651 20.3723 71.6525C21.1733 73.0399 20.7275 74.7037 19.3401 75.5047L16.4303 77.1847C15.0429 77.9857 13.3791 77.5399 12.5781 76.1525ZM13.316 75.7265C13.847 76.6462 15.0272 76.9625 15.9469 76.4315L18.9295 74.7095C19.8544 74.1755 20.1707 72.9952 19.6397 72.0755C19.1087 71.1558 17.9284 70.8395 17.0035 71.3735L14.0209 73.0955C13.1012 73.6265 12.785 74.8068 13.316 75.7265ZM16.4802 82.9112C15.6792 81.5238 16.125 79.86 17.5124 79.059L20.4222 77.379C21.8096 76.578 23.4734 77.0238 24.2744 78.4111C25.0754 79.7985 24.6296 81.4623 23.2422 82.2633L20.3324 83.9433C18.945 84.7443 17.2812 84.2985 16.4802 82.9112ZM17.2181 82.4852C17.7491 83.4049 18.9293 83.7211 19.849 83.1901L22.8316 81.4681C23.7565 80.9341 24.0728 79.7539 23.5418 78.8341C23.0108 77.9144 21.8305 77.5982 20.9056 78.1322L17.923 79.8542C17.0033 80.3852 16.6871 81.5654 17.2181 82.4852ZM24.1631 84.1822L26.9362 83.2255L27.3802 83.9945L24.4661 84.707L24.1631 84.1822ZM24.9251 85.5021L27.6982 84.5453L28.1422 85.3143L25.2281 86.0269L24.9251 85.5021ZM28.448 96.476L25.928 92.1112L26.5827 91.7332L29.1027 96.098L28.448 96.476ZM34.2882 102.26C35.0892 103.647 34.619 105.353 33.2317 106.154C31.8495 106.952 30.0693 106.448 29.2683 105.061C28.4553 103.653 28.9297 101.882 30.3898 101.039L32.9827 99.5423C34.4844 98.6753 36.2354 99.1401 37.0904 100.621C37.5824 101.473 37.6284 102.465 37.2281 103.32L36.4059 103.011C36.7165 102.409 36.7199 101.659 36.3629 101.041C35.7539 99.9861 34.4637 99.7195 33.4972 100.278L32.3489 100.941C33.1391 101.073 33.8682 101.532 34.2882 102.26ZM30.0114 104.632C30.5754 105.609 31.8108 105.948 32.7877 105.384C33.7645 104.82 34.1014 103.58 33.5374 102.603C32.9734 101.626 31.7305 101.298 30.7537 101.862C29.7872 102.42 29.4474 103.655 30.0114 104.632ZM33.178 111.833C32.377 110.445 32.8228 108.781 34.2102 107.98L37.1201 106.3C38.5074 105.499 40.1713 105.945 40.9723 107.333C41.7733 108.72 41.3274 110.384 39.9401 111.185L37.0302 112.865C35.6428 113.666 33.979 113.22 33.178 111.833ZM33.9159 111.407C34.4469 112.326 35.6271 112.643 36.5468 112.112L39.5294 110.39C40.4544 109.856 40.7706 108.675 40.2396 107.756C39.7086 106.836 38.5284 106.52 37.6034 107.054L34.6208 108.776C33.7011 109.307 33.3849 110.487 33.9159 111.407ZM40.5631 115.264C39.9691 114.235 40.3145 112.913 41.3538 112.313C42.3722 111.725 43.7284 112.106 44.3044 113.104C44.8984 114.133 44.553 115.455 43.5138 116.055C42.4745 116.655 41.1571 116.293 40.5631 115.264ZM41.2542 114.865C41.6232 115.504 42.4756 115.733 43.1148 115.364C43.7539 114.995 43.9823 114.142 43.6133 113.503C43.2443 112.864 42.3919 112.635 41.7528 113.004C41.1136 113.373 40.8852 114.226 41.2542 114.865ZM40.0213 123.686C39.2203 122.298 39.6661 120.634 41.0535 119.833L43.9633 118.153C45.3507 117.352 47.0145 117.798 47.8155 119.186C48.6165 120.573 48.1707 122.237 46.7834 123.038L43.8735 124.718C42.4861 125.519 40.8223 125.073 40.0213 123.686ZM40.7592 123.26C41.2902 124.179 42.4704 124.495 43.3901 123.964L46.3727 122.242C47.2976 121.708 47.6139 120.528 47.0829 119.609C46.5519 118.689 45.3716 118.373 44.4467 118.907L41.4641 120.629C40.5444 121.16 40.2282 122.34 40.7592 123.26ZM43.9234 130.444C43.1224 129.057 43.5682 127.393 44.9556 126.592L47.8655 124.912C49.2528 124.111 50.9167 124.557 51.7177 125.944C52.5187 127.332 52.0728 128.995 50.6855 129.796L47.7756 131.476C46.3882 132.277 44.7244 131.832 43.9234 130.444ZM44.6613 130.018C45.1923 130.938 46.3725 131.254 47.2922 130.723L50.2748 129.001C51.1997 128.467 51.516 127.287 50.985 126.367C50.454 125.447 49.2737 125.131 48.3488 125.665L45.3662 127.387C44.4465 127.918 44.1303 129.098 44.6613 130.018ZM51.6063 131.715L54.3794 130.758L54.8234 131.528L51.9093 132.24L51.6063 131.715ZM52.3683 133.035L55.1414 132.078L55.5854 132.847L52.6713 133.56L52.3683 133.035Z" fill="#BBBBBB"/>
<path opacity="0.2" d="M170.426 110.213C185.366 79.5506 196.692 48.3427 204.087 16.5495C212.39 28.1304 221.686 37.6729 232.172 44.6955C222.59 76.3064 212.873 106.059 202.369 124.853L197.952 135.85L256.422 188.473C261.091 195.272 262.81 202.114 259.924 208.978C254.62 212.73 247.869 211.883 239.219 204.538L182.882 166.45C161.247 187.758 126.043 206.443 82.7118 223.509C72.883 216.017 62.1923 210.625 50.3392 207.895C95.2012 187.431 134.648 167.944 160.132 151.169L127.766 123.406C127.766 123.406 73.8552 150.696 63.389 149.383C63.389 149.383 68.608 120.998 64.5665 115.797C81.3117 109.983 95.7693 102.961 104.774 93.1837C114.26 59.766 115.216 38.9462 114.489 20.5383C124.903 24.8366 136.005 34.2837 147.638 47.2029C144.855 61.3045 143.852 74.801 145.681 87.3643L170.426 110.213Z" fill="white"/>
<path fill-rule="evenodd" clip-rule="evenodd" d="M183.973 144.878C183.563 145.655 182.96 146.34 182.185 146.854L241.909 194.899L243.576 192.826L183.973 144.878ZM176.971 147.299C176.137 146.93 175.39 146.348 174.818 145.579L114.299 189.949L115.873 192.095L176.971 147.299ZM174.102 140.391C174.418 139.564 174.936 138.81 175.636 138.211L118.02 92.3091L116.362 94.3899L174.102 140.391ZM180.093 136.98C180.992 137.135 181.847 137.514 182.571 138.094L196.29 76.4129L193.693 75.8353L180.093 136.98Z" fill="#BBBBBB"/>
<path d="M257.309 182.302L250.698 193.128L258.951 202.76L246.613 199.818L240.002 210.643L238.988 198L226.649 195.058L238.36 190.186L237.345 177.542L245.598 187.175L257.309 182.302Z" fill="white"/>
<path d="M122.165 81.8852L121.596 90.5961L129.705 93.829L121.244 95.9798L120.675 104.691L116.015 97.3091L107.555 99.4599L113.135 92.747L108.476 85.3653L116.584 88.5981L122.165 81.8852Z" fill="white"/>
<circle cx="179.215" cy="142.31" r="2.57291" transform="rotate(60 179.215 142.31)" fill="#BBBBBB"/>
<circle cx="195.763" cy="71.8635" r="1.81885" transform="rotate(60 195.763 71.8635)" fill="#BBBBBB"/>
<circle cx="111.844" cy="193.1" r="1.81885" transform="rotate(60 111.844 193.1)" fill="#BBBBBB"/>
</svg>
