<svg width="357" height="347" viewBox="0 0 357 347" fill="none" xmlns="http://www.w3.org/2000/svg">
<path opacity="0.2" d="M83.78 247.11C69.5604 233.016 54.3551 220.827 38.0821 210.712C46.0868 208.285 53.1459 204.921 59.0295 200.419C74.7882 211.715 89.4889 222.735 97.9496 232.123L103.227 236.655L143.517 214.098C148.178 212.787 152.305 213.124 155.575 216.025C156.659 219.681 154.913 223.273 149.197 226.694L117.387 250.81C125.144 266.859 128.879 289.953 130.18 317.259C124.159 321.306 119.143 326.23 115.387 332.302C112.487 303.503 109.108 277.899 104.598 260.567L83.0546 273.312C83.0546 273.312 88.0393 308.429 85.3325 313.997C85.3325 313.997 70.5429 305.736 66.8888 306.999C66.8202 296.595 65.6484 287.233 61.9153 280.382C45.1344 268.798 33.7439 264.334 23.376 261.262C27.7317 256.286 35.0791 251.9 44.4565 247.875C51.7683 252.084 59.0797 255.191 66.4075 256.548L83.78 247.11Z" fill="white"></path>
<path fill-rule="evenodd" clip-rule="evenodd" d="M103.893 242.938L75.4696 225.65L74.3726 227.454L102.405 244.504C102.672 243.818 103.201 243.248 103.893 242.938ZM102.302 246.238L69.7867 267.101L70.9267 268.877L103.552 247.944C102.95 247.569 102.489 246.971 102.302 246.238ZM105.58 248.325L117.377 285.791L119.39 285.157L107.413 247.118C107.008 247.719 106.375 248.167 105.608 248.32C105.598 248.322 105.589 248.323 105.58 248.325ZM107.874 245.181L141.846 223.61L140.715 221.828L106.851 243.331C107.345 243.734 107.708 244.305 107.842 244.979C107.855 245.047 107.866 245.114 107.874 245.181Z" fill="white"></path>
<path d="M138.006 213.557L142.255 218.654L148.416 216.188L144.882 221.804L149.131 226.901L142.697 225.275L139.163 230.892L138.721 224.27L132.288 222.645L138.448 220.178L138.006 213.557Z" fill="white"></path>
<path d="M65.515 263.596L69.7342 265.344L72.7006 261.871L72.3417 266.424L76.5609 268.172L72.12 269.238L71.7611 273.791L69.3753 269.897L64.9344 270.962L67.9008 267.49L65.515 263.596Z" fill="white"></path>
<circle cx="105.049" cy="245.508" r="1.34605" transform="rotate(-11.2299 105.049 245.508)" fill="white"></circle>
<circle cx="72.9404" cy="225.452" r="0.95156" transform="rotate(-11.2299 72.9404 225.452)" fill="white"></circle>
<circle cx="118.867" cy="287.429" r="0.95156" transform="rotate(-11.2299 118.867 287.429)" fill="white"></circle>
<path fill-rule="evenodd" clip-rule="evenodd" d="M301.995 32.2646L328.305 11.9828L327.695 11.1908L301.27 31.5609C301.57 31.7257 301.821 31.9696 301.995 32.2646ZM302.208 33.6435C302.129 33.992 301.955 34.3041 301.713 34.5504L322.966 39.8638C323.023 39.5147 323.175 39.1977 323.395 38.9404L302.208 33.6435ZM298.542 33.7577C298.534 33.732 298.527 33.7061 298.521 33.68L298.45 33.7347L298.542 33.7577ZM295.028 50.9626L322.947 40.3267C322.976 40.6752 323.098 40.9969 323.289 41.2665L295.442 51.8753C295.388 51.5316 295.241 51.2186 295.028 50.9626ZM293.443 54.063L305.748 72.3012C305.921 72.0036 306.173 71.7575 306.476 71.5915L294.491 53.8286C294.219 53.9806 293.904 54.0672 293.57 54.0672C293.527 54.0672 293.485 54.0658 293.443 54.063ZM324.787 42.0656L308.798 71.9885C308.573 71.7382 308.283 71.5479 307.954 71.4449L323.813 41.7667C324.095 41.9481 324.429 42.0565 324.787 42.0656Z" fill="white"></path>
<circle cx="324.921" cy="40.0134" r="1.10557" transform="rotate(90 324.921 40.0134)" fill="white"></circle>
<circle cx="300.366" cy="33.3023" r="0.870454" transform="rotate(90 300.366 33.3023)" fill="white"></circle>
<circle cx="307.709" cy="73.8046" r="1.65916" transform="rotate(90 307.709 73.8046)" fill="white"></circle>
<circle cx="293.491" cy="52.054" r="1.18009" transform="rotate(90 293.491 52.054)" fill="white"></circle>
<circle cx="329.724" cy="9.89444" r="1.43191" transform="rotate(90 329.724 9.89444)" fill="white"></circle>
<path fill-rule="evenodd" clip-rule="evenodd" d="M31.726 88.4873L15.7191 87.6102L15.6644 88.6087L31.3983 89.4708C31.4064 89.2526 31.4536 89.0321 31.5438 88.819C31.5941 88.7002 31.6554 88.5894 31.726 88.4873ZM32.5244 91.2404C32.7884 91.3521 33.0637 91.3978 33.332 91.385L31.9094 96.8929C31.5638 96.7904 31.2068 96.7943 30.8777 96.8887L32.3574 91.1597C32.4111 91.189 32.4669 91.216 32.5244 91.2404ZM31.4082 100.512C31.7557 100.508 32.0939 100.405 32.3835 100.22L38.3354 111.638C37.9778 111.603 37.6217 111.674 37.3095 111.834L31.4082 100.512ZM39.854 114.198C39.9926 113.87 40.0297 113.525 39.9793 113.198C42.8925 114.224 50.727 116.913 59.9628 120.069C70.5305 123.68 82.8955 127.891 91.7092 130.889C91.3852 131.063 91.1108 131.334 90.9347 131.682C82.1534 128.695 70.0281 124.565 59.6394 121.015C50.6678 117.949 42.9644 115.307 39.8481 114.211L39.854 114.198ZM36.3769 113.985C36.4709 114.313 36.655 114.614 36.9133 114.847C35.9766 115.696 34.7992 116.922 33.5358 118.319C31.4936 120.577 29.2509 123.253 27.4828 125.432C27.3382 125.305 27.1712 125.199 26.9844 125.12C26.8418 125.059 26.6959 125.018 26.5495 124.995C28.3485 122.773 30.6759 119.99 32.7942 117.648C34.0792 116.228 35.2966 114.959 36.2769 114.075C36.3104 114.044 36.3437 114.014 36.3769 113.985ZM27.9253 127.629L82.1288 139.874C82.1413 139.67 82.188 139.465 82.2721 139.267C82.3242 139.143 82.3881 139.029 82.462 138.924L28.1032 126.644C28.132 126.94 28.0894 127.247 27.9651 127.541C27.9525 127.571 27.9392 127.6 27.9253 127.629ZM90.9442 133.37L84.9341 138.409C85.2319 138.59 85.464 138.846 85.616 139.142L91.6302 134.1C91.3312 133.921 91.0977 133.666 90.9442 133.37ZM94.3074 131.856L94.3779 131.797L94.2671 131.759C94.2814 131.791 94.2949 131.823 94.3074 131.856Z" fill="white"></path>
<circle cx="92.2897" cy="132.338" r="0.654196" transform="rotate(22.9525 92.2897 132.338)" fill="white"></circle>
<circle cx="14.0851" cy="88.2875" r="0.654196" transform="rotate(22.9525 14.0851 88.2875)" fill="white"></circle>
<circle cx="83.937" cy="139.647" r="1.09075" transform="rotate(22.9525 83.937 139.647)" fill="white"></circle>
<circle cx="37.9653" cy="113.637" r="1.09075" transform="rotate(22.9525 37.9653 113.637)" fill="white"></circle>
<circle cx="31.5728" cy="98.8276" r="0.817824" transform="rotate(22.9525 31.5728 98.8276)" fill="white"></circle>
<circle cx="26.4244" cy="126.413" r="0.817824" transform="rotate(22.9525 26.4244 126.413)" fill="white"></circle>
<circle cx="33.5107" cy="89.4567" r="1.09075" transform="rotate(22.9525 33.5107 89.4567)" fill="white"></circle>
<path fill-rule="evenodd" clip-rule="evenodd" d="M278.237 285.112C278.572 285.149 278.911 285.133 279.242 285.065L284.446 319.073L283.457 319.224L278.237 285.112ZM276.294 284.163C276.536 284.411 276.808 284.612 277.1 284.765L263.306 308.547C263.055 308.311 262.775 308.123 262.477 307.983L276.294 284.163ZM258.146 309.673L225.559 305.263L225.425 306.254L257.918 310.651C257.942 310.317 258.018 309.987 258.146 309.673Z" fill="white"></path>
<circle cx="278.202" cy="281.945" r="1.85669" transform="rotate(47.0675 278.202 281.945)" fill="white"></circle>
<circle cx="221.809" cy="305.028" r="1.85669" transform="rotate(47.0675 221.809 305.028)" fill="white"></circle>
<circle cx="260.886" cy="310.295" r="1.19413" transform="rotate(47.0675 260.886 310.295)" fill="white"></circle>
<circle cx="284.06" cy="321.019" r="1.19413" transform="rotate(47.0675 284.06 321.019)" fill="white"></circle>
<g opacity="0.2">
<path d="M222.871 88.3403C222.703 87.6339 222.382 86.9716 221.917 86.3847C221.679 86.0756 221.395 85.7768 221.09 85.5358L219.376 84.1316L222.56 54.221L169.605 51.1793C168.791 64.2513 168.168 75.3053 168.274 76.1702C168.262 76.139 168.265 76.1094 168.252 76.093L167.617 76.2977L166.981 76.5023C166.89 76.2232 166.718 75.7111 168.359 49.5982C169.015 39.2369 169.69 28.8476 169.933 25.1566C163.326 24.5697 135.779 22.1526 127.881 21.4336C128.116 43.4234 119.444 50.7012 119.091 50.9347L118.834 51.1032L108.399 51.0232C107.838 56.0601 106.037 72.9119 106.19 74.4859L102.973 75.325C102.68 75.3999 102.398 75.5209 102.141 75.6893C101.21 76.2982 100.735 77.4183 100.937 78.5178L100.968 78.6558C101.148 79.6781 101.903 80.5046 102.89 80.8154C104.938 81.4448 107.059 81.7969 109.192 81.8955C112.444 82.0339 116.701 82.1702 121.046 82.3156C120.858 80.783 120.884 79.2124 121.167 77.6232C122.675 69.0423 130.858 63.3177 139.424 64.8244C148.005 66.3326 153.73 74.5156 152.223 83.0817C152.182 83.3322 152.127 83.5813 152.071 83.8303L164.09 84.6868L174.729 85.8515C174.733 84.9378 174.811 84.0318 174.966 83.1037C176.474 74.5229 184.657 68.7983 193.223 70.305C201.804 71.8132 207.528 79.9962 206.022 88.5623C205.983 88.798 205.929 89.0322 205.875 89.2664L222.218 91.0603C222.574 91.0967 222.883 90.8587 222.949 90.5059C223.068 89.7839 223.053 89.0482 222.871 88.3403ZM149.05 51.7409C149.05 51.7409 148.979 48.7818 148.95 48.3294L156.651 48.0394L156.8 51.411L149.05 51.7409Z" fill="white"></path>
<path d="M203.556 50.6113L203.66 50.6219L203.675 50.6235L212.663 51.0796C212.604 51.0736 212.173 43.8673 212.157 43.7309L203.475 43.0663L203.556 50.6113Z" fill="white"></path>
<path d="M170.45 37.9604C175.018 38.4133 215.29 42.4035 223.727 43.2677L224.27 38.1091L170.795 32.5417C170.688 34.3139 170.577 36.1305 170.45 37.9604Z" fill="white"></path>
<path d="M179.23 49.3633L187.621 49.8032L188.073 41.8783L179.465 41.2213L179.23 49.3633Z" fill="white"></path>
<path d="M215.836 51.2548L220.576 51.5005L220.05 44.3445L215.1 43.9574L215.836 51.2548Z" fill="white"></path>
<path d="M190.258 42.0569L190.156 49.9278L199.278 50.3977L199.52 42.7659L199.461 42.7598L190.258 42.0569Z" fill="white"></path>
<path d="M176.774 41.0203L176.73 41.0157L170.278 40.5197C170.096 43.318 169.913 46.1311 169.752 48.8715L176.324 49.2151L176.774 41.0203Z" fill="white"></path>
<path d="M118.269 49.1572C118.841 48.6914 120.466 47.1647 122.025 43.9381C123.718 40.4256 125.93 32.7259 125.967 22.4211C122.826 27.0439 111.283 45.1003 108.973 48.9242L118.269 49.1572Z" fill="white"></path>
<path d="M151.687 19.1223C150.813 19.9018 149.647 20.3217 148.473 20.3664C147.707 20.3927 146.953 20.2856 146.191 20.2675C146.086 20.2717 145.982 20.261 145.877 20.2652L146.129 23.0631L137.977 22.3479L138.262 20.7289C138.22 20.7096 138.178 20.6753 138.135 20.656C137.74 20.4207 137.429 20.0892 137.118 19.7577C136.092 18.6636 135.037 17.4019 135.056 15.9054C135.072 15.1579 135.371 14.4393 135.724 13.7713C136.613 12.1093 137.929 10.6709 139.505 9.61863C139.843 9.39845 140.193 9.19462 140.564 9.08279C141.058 8.93863 141.579 8.97696 142.099 9.01529C143.126 9.09043 144.153 9.15075 145.148 9.38748C146.83 9.78456 148.359 10.6603 149.788 11.6308C150.558 12.1592 151.323 12.732 151.924 13.4528C152.524 14.1736 152.973 15.0586 153.027 15.9931C153.101 17.1694 152.561 18.3428 151.687 19.1223Z" fill="white"></path>
<path d="M138.112 68.5707C131.666 67.4309 125.473 72.0109 124.27 78.7801C123.082 85.5508 127.34 91.9653 133.786 93.105C140.232 94.2448 146.425 89.6648 147.627 82.8956C148.815 76.1249 144.558 69.7104 138.112 68.5707ZM135.038 85.9963C132.198 85.4956 130.288 82.7827 130.79 79.9274C131.291 77.0869 134.004 75.1772 136.859 75.6794C139.7 76.1801 141.609 78.893 141.107 81.7483C140.605 84.6037 137.894 86.4985 135.038 85.9963Z" fill="white"></path>
<path d="M192.366 74.4277C185.92 73.288 179.727 77.8679 178.525 84.6371C177.337 91.4078 181.594 97.8224 188.04 98.9621C194.486 100.102 200.679 95.5219 201.882 88.7527C203.07 81.982 198.812 75.5675 192.366 74.4277ZM189.293 91.8534C186.452 91.3526 184.542 88.6398 185.045 85.7845C185.545 82.9439 188.258 81.0342 191.114 81.5365C193.954 82.0372 195.864 84.75 195.362 87.6054C194.861 90.4459 192.148 92.3556 189.293 91.8534Z" fill="white"></path>
<path d="M139.231 3.11011C140.011 4.13388 140.644 5.2626 141.12 6.4651" stroke="white" stroke-width="7.69623" stroke-miterlimit="10"></path>
<path d="M133.068 6.83716C133.968 7.70845 134.849 8.60788 135.697 9.54876" stroke="white" stroke-width="7.69623" stroke-miterlimit="10"></path>
<path d="M154.517 7.83742C153.711 8.53405 152.838 9.16378 151.914 9.69846" stroke="white" stroke-width="7.69623" stroke-miterlimit="10"></path>
<path d="M158.67 13.9553C157.972 14.4831 157.235 14.947 156.473 15.3634" stroke="white" stroke-width="7.69623" stroke-miterlimit="10"></path>
</g>
<path fill-rule="evenodd" clip-rule="evenodd" d="M120.061 34.9793L142.44 35.3226C142.466 35.899 142.674 36.4362 143.012 36.8708L120.906 36.5317L122.342 50.105C121.798 50.0687 121.277 50.1964 120.831 50.447L119.284 35.8298L119.193 34.966L120.061 34.9793ZM145.148 40.4411L144.895 37.9087C145.439 37.9623 145.961 37.852 146.413 37.618L146.698 40.4637C146.513 40.3857 146.314 40.3336 146.105 40.3121C145.769 40.2777 145.443 40.3262 145.148 40.4411ZM145.543 44.3878L145.883 47.7857L123.822 50.6619C124.286 51.0182 124.628 51.5185 124.788 52.0883L146.823 49.2155L147.563 49.1189L147.489 48.3757L147.057 44.0587C146.67 44.3241 146.189 44.4589 145.685 44.4073C145.637 44.4024 145.59 44.3959 145.543 44.3878ZM147.156 43.9866C149.852 45.8342 154.382 48.6893 158.525 51.257C161.07 52.8344 163.482 54.3115 165.258 55.3941C166.145 55.9354 166.874 56.3782 167.381 56.6857C167.635 56.8394 167.833 56.9593 167.968 57.0409L168.121 57.1337L168.16 57.1575L168.17 57.1635L168.173 57.1651L168.174 57.1655C168.174 57.1655 168.174 57.1656 168.572 56.5068L168.174 57.1656L168.33 57.2599L168.512 57.2741L221.664 61.4225L221.784 59.8879L168.814 55.7537L168.764 55.724C168.63 55.6427 168.433 55.523 168.18 55.3696C167.673 55.0626 166.946 54.6204 166.059 54.0798C164.285 52.9985 161.877 51.5235 159.336 49.9487C155.111 47.33 150.556 44.4572 147.933 42.6529C147.854 43.2003 147.565 43.6697 147.156 43.9866Z" fill="white"></path>
<circle cx="122.333" cy="51.921" r="1.22711" transform="rotate(5.84836 122.333 51.921)" fill="white"></circle>
<circle cx="146.02" cy="42.4885" r="1.22711" transform="rotate(5.84836 146.02 42.4885)" fill="white"></circle>
<circle cx="144.739" cy="36.001" r="1.22711" transform="rotate(5.84836 144.739 36.001)" fill="white"></circle>
<path d="M215.085 58.4017L218.922 58.3291L220.038 54.658L221.293 58.2842L225.129 58.2115L222.068 60.5253L223.323 64.1515L220.177 61.9553L217.115 64.2691L218.232 60.598L215.085 58.4017Z" fill="white"></path>
<path d="M162.073 56.7419L166.849 54.6513L166.337 49.4627L169.801 53.3593L174.577 51.2687L171.942 55.7675L175.406 59.664L170.313 58.5479L167.678 63.0467L167.166 57.8581L162.073 56.7419Z" fill="white"></path>
<path d="M113.954 34.2939L119.007 34.1982L120.478 29.3626L122.13 34.1391L127.184 34.0434L123.152 37.0911L124.804 41.8676L120.66 38.9747L116.628 42.0224L118.098 37.1868L113.954 34.2939Z" fill="white"></path>
<g opacity="0.2">
<path d="M246.259 216.425C246.223 216.478 246.187 216.549 246.134 216.603C245.812 216.567 245.509 216.532 245.206 216.496C245.563 216.478 245.902 216.442 246.259 216.425Z" fill="white"></path>
<path d="M242.493 203.699C241.957 201.593 232.052 179.319 232.052 179.319L244.438 186.922L223.377 160.4L239.994 173.839L229.214 152.082L243.189 169.591L241.779 152.082L247.794 161.096L244.956 142.534L257.503 167.289L256.271 145.354L261.929 163.737L263.875 142.516L272.013 170.287L273.066 138.643L275.369 170.466L284.917 143.587L282.258 176.481L299.589 144.122L294.27 167.646L317.454 138.643L302.962 179.14L326.486 152.796L327.378 178.962L352.829 153.135L344.869 174L356.185 175.41L330.537 191.509L313.742 199.772C311.297 200.968 308.62 201.611 305.889 201.646L242.493 203.699Z" fill="white"></path>
<path d="M246.259 216.425C246.223 216.478 246.187 216.549 246.134 216.603C245.812 216.567 245.509 216.532 245.206 216.496C245.563 216.478 245.902 216.442 246.259 216.425Z" fill="white"></path>
<path d="M304.122 203.628C283.918 204.074 239.512 205.27 239.512 205.27C239.584 204.484 240.137 197.167 237.317 197.024C234.479 196.863 231.82 202.057 231.82 202.057L221.521 207.09C221.521 207.09 216.417 207.322 216.56 209.375C216.631 210.303 217.738 210.91 218.951 211.32C220.308 211.766 221.771 211.82 223.181 211.516C223.931 211.356 225.091 211.267 226.787 211.499C229.071 211.802 233.105 213.319 235.746 214.408C237.228 215.015 238.763 215.479 240.333 215.8C239.637 215.889 238.923 216.086 238.423 216.567C238.477 216.728 238.691 216.746 238.87 216.746C240.547 216.71 242.225 216.657 243.903 216.567C243.564 216.675 243.242 216.817 242.993 217.049C242.528 217.478 242.332 218.245 242.725 218.745C243.367 218.495 244.01 218.245 244.599 217.888C245.116 217.567 245.777 217.121 246.169 216.621C245.848 216.585 245.545 216.55 245.241 216.514C245.598 216.496 245.937 216.478 246.277 216.46C246.241 216.514 246.205 216.585 246.152 216.639C246.705 216.71 247.294 216.782 247.901 216.835C247.829 216.889 247.776 216.96 247.722 217.014C247.115 217.674 246.901 218.691 247.312 219.495C247.99 218.906 248.722 218.37 249.489 217.924C249.828 217.728 250.524 217.496 250.971 217.156C256.789 217.728 264.142 218.192 271.996 218.138C281.027 218.067 289.915 217.424 296.555 216.799C296.537 216.799 296.519 216.817 296.501 216.817C295.823 217.103 295.145 217.496 294.77 218.12C294.877 218.263 295.091 218.227 295.252 218.174C296.858 217.692 298.464 217.174 300.071 216.639C299.767 216.817 299.499 217.049 299.321 217.353C298.982 217.888 299 218.674 299.499 219.048C300.053 218.638 300.588 218.209 301.07 217.71C301.445 217.299 301.927 216.746 302.177 216.21C302.766 216.139 303.337 216.086 303.837 216.014C303.444 216.817 303.497 217.852 304.104 218.513C304.586 217.763 305.157 217.049 305.782 216.407C305.96 216.21 306.3 215.961 306.621 215.693C307.317 215.604 307.692 215.55 307.692 215.55C307.692 215.55 339.675 209.732 343.923 185.601C343.888 185.548 324.344 203.181 304.122 203.628ZM234.497 204.52C234.086 205.234 233.426 205.609 232.998 205.359C232.569 205.109 232.569 204.342 232.962 203.628C233.372 202.914 234.033 202.539 234.461 202.789C234.89 203.039 234.89 203.806 234.497 204.52Z" fill="white"></path>
</g>
<path fill-rule="evenodd" clip-rule="evenodd" d="M273.065 160.922C273.375 161.141 273.639 161.42 273.841 161.742L280.643 152.263L313.755 157.492C313.767 157.107 313.855 156.741 314.006 156.409L280.478 151.115L280.141 151.062L279.942 151.34L273.065 160.922ZM301.614 182.458L314.957 159.895C315.26 160.108 315.606 160.263 315.98 160.344L302.366 183.364L302.164 183.705L301.776 183.624L266.484 176.261C266.718 175.963 266.888 175.613 266.973 175.231L301.614 182.458ZM266.033 172.621L270.79 165.993C270.414 165.905 270.067 165.742 269.765 165.52L265.013 172.141C265.391 172.225 265.738 172.392 266.033 172.621ZM259.08 143.087L270.728 160.498C270.358 160.594 270.017 160.763 269.722 160.988L258.159 143.703L259.08 143.087Z" fill="white"></path>
<circle cx="264.641" cy="174.482" r="1.41135" fill="white"></circle>
<circle cx="316.463" cy="157.908" r="1.41135" fill="white"></circle>
<circle cx="271.485" cy="163.396" r="1.81091" fill="white"></circle>
<path d="M254.22 135.816L258.961 140.065L264.467 136.869L261.891 142.691L266.633 146.94L260.299 146.289L257.723 152.112L256.385 145.887L250.052 145.237L255.558 142.04L254.22 135.816Z" fill="white"></path>
<path d="M297.906 177.659L301.406 180.796L305.471 178.436L303.569 182.734L307.069 185.871L302.394 185.391L300.492 189.689L299.504 185.094L294.829 184.613L298.894 182.254L297.906 177.659Z" fill="white"></path>
<path d="M278.347 146.874L281.14 149.377L284.384 147.494L282.867 150.924L285.66 153.427L281.929 153.044L280.411 156.474L279.623 152.807L275.892 152.424L279.135 150.541L278.347 146.874Z" fill="white"></path>
</svg>