<svg width="329" height="326" viewBox="0 0 329 326" fill="none" xmlns="http://www.w3.org/2000/svg">
<g filter="url(#filter0_f_92_9796)">
<path fill-rule="evenodd" clip-rule="evenodd" d="M194.858 158.178C195.392 159.012 195.722 159.988 195.779 161.038L273.577 130.886L272.493 128.089L194.858 158.178ZM193.406 166.104C192.581 166.719 191.59 167.124 190.512 167.239L199.4 248.423L202.382 248.097L193.406 166.104ZM185.32 165.128C184.683 164.358 184.238 163.425 184.056 162.401L109.43 191.73L110.528 194.522L185.32 165.128ZM185.297 157.623C185.949 156.826 186.804 156.203 187.783 155.832L137.094 109.32L135.065 111.53L185.297 157.623Z" fill="white"/>
<path d="M270.067 109.468L276.672 121.589L290.242 119.052L280.755 129.08L287.361 141.201L274.892 135.278L265.405 145.306L267.186 131.617L254.717 125.693L268.286 123.157L270.067 109.468Z" fill="white"/>
<path d="M101.881 182.2L109.782 187.476L117.241 181.593L114.665 190.737L122.565 196.014L113.072 196.389L110.496 205.533L107.205 196.621L97.7121 196.996L105.172 191.112L101.881 182.2Z" fill="white"/>
<circle cx="189.876" cy="161.309" r="2.80016" fill="white"/>
<circle cx="132.485" cy="107.378" r="1.97951" fill="white"/>
<circle cx="201.086" cy="252.446" r="1.97951" fill="white"/>
</g>
<path opacity="0.2" d="M154.842 152.127C134.071 121.361 110.82 93.7038 84.8789 69.4326C100.312 67.9086 114.365 64.3402 126.69 58.2784C151.27 84.5109 174.025 109.86 186.022 129.987L193.983 140.134L275.398 113.66C284.347 112.959 291.732 115.063 296.63 121.518C297.281 128.559 292.809 134.46 281.179 138.617L214.624 170.989C222.934 202.976 221.388 246.324 213.894 296.451C201.484 301.638 190.585 308.78 181.562 318.466C186.686 265.047 189.785 217.264 187.842 184.116L144.062 199.515C144.062 199.515 140.447 265.177 133.514 274.326C133.514 274.326 109.601 253.962 102.499 254.94C106.131 235.994 107.38 218.546 103.065 204.739C76.7306 177.613 57.6278 165.383 39.8823 156.051C49.6002 148.575 64.5457 143.252 83.0525 139.318C94.8296 149.614 107.004 157.904 119.841 163.016L154.842 152.127Z" fill="white"/>
<path fill-rule="evenodd" clip-rule="evenodd" d="M194.858 158.178C195.392 159.012 195.722 159.988 195.779 161.038L273.577 130.886L272.493 128.089L194.858 158.178ZM193.406 166.104C192.581 166.719 191.59 167.124 190.512 167.239L199.4 248.423L202.382 248.097L193.406 166.104ZM185.32 165.128C184.683 164.358 184.238 163.425 184.056 162.401L109.43 191.73L110.528 194.522L185.32 165.128ZM185.297 157.623C185.949 156.826 186.804 156.203 187.783 155.832L137.094 109.32L135.065 111.53L185.297 157.623Z" fill="white"/>
<path d="M270.067 109.468L276.672 121.589L290.242 119.052L280.755 129.08L287.361 141.201L274.892 135.278L265.405 145.306L267.186 131.617L254.717 125.693L268.286 123.157L270.067 109.468Z" fill="white"/>
<path d="M101.881 182.2L109.782 187.476L117.241 181.593L114.665 190.737L122.565 196.014L113.072 196.389L110.496 205.533L107.205 196.621L97.7121 196.996L105.172 191.112L101.881 182.2Z" fill="white"/>
<circle cx="189.876" cy="161.309" r="2.80016" fill="white"/>
<circle cx="132.485" cy="107.378" r="1.97951" fill="white"/>
<circle cx="201.086" cy="252.446" r="1.97951" fill="white"/>
<defs>
<filter id="filter0_f_92_9796" x="87.7122" y="95.3989" width="212.529" height="169.027" filterUnits="userSpaceOnUse" color-interpolation-filters="sRGB">
<feFlood flood-opacity="0" result="BackgroundImageFix"/>
<feBlend mode="normal" in="SourceGraphic" in2="BackgroundImageFix" result="shape"/>
<feGaussianBlur stdDeviation="5" result="effect1_foregroundBlur_92_9796"/>
</filter>
</defs>
</svg>
