<svg width="279" height="274" viewBox="0 0 279 274" fill="none" xmlns="http://www.w3.org/2000/svg">
<g opacity="0.2">
<path d="M227.478 191.912C236.952 188.102 243.027 181.306 244.366 171.009C245.807 160.197 241.688 151.444 232.833 145.163C217.593 134.454 194.631 142.074 187.423 159.785C184.745 166.375 184.436 173.377 182.583 180.173C182.171 180.585 182.068 180.997 181.965 181.409C180.317 178.114 178.567 174.922 175.89 172.245C173.727 178.835 168.991 184.086 165.284 189.75C157.458 201.386 157.252 198.708 167.343 207.461C168.888 208.799 170.535 209.932 172.183 211.168C171.05 212.506 169.814 213.845 168.579 215.081C167.652 214.154 166.828 213.124 165.901 212.198C159.002 204.784 152.412 201.9 143.454 208.902C140.571 211.168 136.555 211.992 132.951 213.33C129.964 214.36 129.244 215.904 130.788 218.788C133.671 224.039 136.143 229.497 138.82 234.954C138.305 235.16 137.893 235.366 137.378 235.572C136.761 235.881 136.04 236.293 135.628 236.808C133.054 231.453 130.376 226.099 128.214 220.538C126.155 215.493 123.58 214.772 118.535 215.801C109.061 217.861 99.382 218.788 89.8057 218.067C86.2017 217.758 85.3779 219.2 84.7601 221.98C82.5977 231.865 80.3323 241.647 78.1699 251.533C78.3759 251.944 78.5818 252.253 78.8907 252.562C97.7345 253.386 116.372 251.636 134.495 246.281C133.774 252.871 132.848 259.358 132.951 265.949C132.951 268.42 132.848 271.2 135.731 272.024C138.202 272.745 139.232 270.376 140.365 268.729C140.571 268.523 140.879 268.42 141.6 268.008C142.733 270.891 143.866 274.289 147.573 273.98C151.28 273.671 151.691 269.861 153.236 267.39C155.81 268.111 157.664 272.951 160.959 269.038C163.018 266.566 160.959 263.168 162.297 260.285C170.329 267.596 173.418 266.978 176.508 257.299C178.464 258.638 180.626 260.491 182.789 258.638C184.951 256.784 183.921 254.107 183.51 251.841C182.171 244.222 180.935 236.602 179.082 229.188C178.155 225.584 179.288 223.936 181.965 222.083C189.173 216.831 196.175 211.271 201.941 204.475C207.193 198.296 212.856 193.972 221.3 193.972C223.154 193.766 225.419 192.736 227.478 191.912ZM233.039 186.661C226.346 186.97 223.359 183.983 224.08 178.114C227.89 183.88 227.89 183.88 233.039 186.661ZM217.593 155.872C217.49 152.062 219.653 149.797 223.462 149.591C226.964 149.488 228.92 151.341 229.023 154.842C229.126 158.755 226.758 160.609 223.565 161.227C219.653 161.124 217.696 159.27 217.593 155.872Z" fill="white"/>
<path d="M30.8032 190.574C36.3636 195.413 36.6725 195.413 40.8943 189.544C45.1162 183.675 49.0291 177.599 53.6628 172.039C56.649 168.435 56.649 165.14 54.4866 161.227C53.1479 158.653 51.0885 156.284 51.0885 153.195C38.526 161.021 29.3616 171.73 23.4922 185.322C26.6843 185.837 28.5378 188.617 30.8032 190.574Z" fill="white"/>
<path d="M57.7823 157.005C59.9447 163.08 64.0635 166.684 70.4477 167.817C71.5804 168.023 72.9191 168.332 73.8458 168.95C82.0835 174.407 88.4677 170.082 94.9549 165.243C96.9114 163.801 97.4262 162.051 97.1173 159.785C96.4995 154.946 95.7787 150.209 95.0579 145.369C94.749 142.898 94.0282 140.427 94.749 138.058C80.0241 138.882 66.6378 143.413 54.2812 151.342C56.2377 152.68 56.9585 154.946 57.7823 157.005Z" fill="white"/>
<path d="M101.645 157.005C102.057 161.021 103.91 163.801 108.029 164.728C109.573 165.037 111.015 165.552 112.457 166.169C117.193 168.332 121.106 167.611 124.401 163.595C126.049 161.639 128.314 160.197 130.271 158.55C133.566 155.769 135.934 152.577 136.14 148.047C136.243 146.296 136.346 144.443 138.097 143.722C125.328 138.676 112.148 136.514 98.3496 137.646C99.0704 138.367 99.1734 139.603 99.2763 140.633C100.203 146.09 101.027 151.548 101.645 157.005Z" fill="white"/>
<path d="M143.556 157.314C150.558 161.845 157.148 166.787 163.429 172.245C166.416 174.922 169.196 176.981 171.873 171.936C172.285 171.112 173.212 170.391 174.344 170.391C165.695 158.653 154.265 150.518 141.085 144.751C142.011 146.914 140.982 149.282 140.673 151.342C140.261 154.225 141.188 155.769 143.556 157.314Z" fill="white"/>
<path d="M82.5978 221.774C83.3186 218.891 83.4215 217.655 79.8176 217.14C70.3442 215.905 61.0768 213.639 52.3242 209.726C49.7499 208.594 48.3083 209.108 46.7637 211.477C42.336 218.067 37.8052 224.554 33.2745 231.144C32.7596 230.938 32.3478 230.732 31.8329 230.424C35.7458 223.627 40.5855 217.552 45.1162 211.168C47.1756 208.182 47.4845 206.74 43.9835 204.475C36.1577 199.326 28.8467 193.354 22.5655 186.352C19.8882 191.706 18.4466 197.576 16.9021 203.239C13.1951 203.445 9.48812 203.445 5.78116 203.96C2.89796 204.475 0.220703 206.019 0.220703 209.52C0.220703 213.33 3.1039 214.669 6.39898 214.875C9.90001 215.081 13.504 214.978 17.005 214.875C18.1377 218.582 19.4763 222.186 21.2269 225.481C21.0209 225.584 20.815 225.584 20.5061 225.79C17.3139 234.439 12.2683 242.265 8.25247 250.606C7.22275 252.768 5.67818 254.828 7.32573 257.299C9.17921 259.873 11.3416 257.505 13.401 257.608C14.2248 266.052 16.3872 267.081 24.316 262.757C25.4487 264.61 24.5219 268.008 27.92 268.111C30.9062 268.214 32.3478 265.743 33.8923 263.786C34.3042 263.271 34.7161 262.654 35.025 262.139C36.7755 259.358 38.1142 257.711 41.1003 261.624C45.2192 266.978 48.3083 266.258 50.9856 259.976C51.6034 260.594 52.2212 261.109 52.8391 261.727C58.2965 267.081 59.7381 266.978 63.1362 260.285C64.3718 257.917 65.2986 259.05 66.6372 259.667C68.5937 260.697 70.7561 261.933 72.8155 259.976C75.0809 257.917 73.9482 255.446 73.1244 253.283C72.9185 252.768 72.7125 252.15 72.5066 251.636C73.6393 251.739 74.7719 251.842 76.0076 251.842" fill="white"/>
<path d="M97.3228 215.699C105.663 215.287 115.858 214.36 125.846 211.786C128.626 211.065 129.45 210.138 128.626 207.152C125.537 196.443 122.86 185.734 119.874 175.025C118.844 171.421 102.78 164.728 99.6911 166.581C95.4693 169.155 91.3505 172.039 87.1286 174.613C85.3781 175.643 85.0692 177.084 84.9662 178.938C84.2454 186.249 83.6276 193.56 82.7009 200.871C80.8474 215.801 80.8474 215.801 97.3228 215.699Z" fill="white"/>
<path d="M78.7885 174.613C74.8756 173.48 71.2716 172.039 67.5647 170.494C64.5785 169.259 60.9745 168.332 58.8121 171.524C53.5606 179.35 48.2061 187.073 42.5426 194.589C39.9684 197.988 40.7921 199.841 43.8813 202.003C53.3546 208.799 64.2696 211.477 75.3905 213.948C77.9648 214.566 79.3034 213.433 79.5093 210.859C80.642 200.871 81.6717 190.78 82.7015 181.1C83.7312 177.29 82.1866 175.643 78.7885 174.613Z" fill="white"/>
<path d="M135.214 159.168C131.301 162.669 127.388 166.376 123.373 169.774C121.313 171.524 121.313 173.172 122.034 175.643C124.917 185.631 127.8 195.619 130.272 205.814C131.301 209.829 132.743 209.829 136.244 208.594C149.424 203.857 159.104 195.413 165.694 182.954C166.929 180.689 166.415 179.659 164.87 178.32C156.735 171.524 148.498 164.831 139.642 158.962C138.921 158.55 138.303 158.035 137.48 157.52C136.553 158.138 135.832 158.55 135.214 159.168Z" fill="white"/>
</g>
<g filter="url(#filter0_f_92_9481)">
<path fill-rule="evenodd" clip-rule="evenodd" d="M138.91 50.1468L190.111 144.034L167.668 148.733L168.283 151.67L192.701 146.556L225.021 139.789C224.583 138.907 224.327 137.919 224.3 136.874L193.177 143.392L141.78 49.1437C140.929 49.674 139.955 50.0258 138.91 50.1468ZM144.973 42.0397L214.037 34.0625L228.459 130.299C229.322 129.917 230.278 129.705 231.283 129.705C231.323 129.705 231.363 129.705 231.403 129.706L216.789 32.1837L216.574 30.7495L215.134 30.9159L143.768 39.1589C144.371 39.9989 144.792 40.9784 144.973 42.0397ZM238.269 136.69C238.269 135.759 238.086 134.87 237.755 134.057L260.735 129.245L261.35 132.181L238.261 137.016C238.266 136.908 238.269 136.799 238.269 136.69Z" fill="white"/>
<circle cx="230.2" cy="136.222" r="3.645" fill="white"/>
<circle cx="161.411" cy="151.192" r="3.645" fill="white"/>
<circle cx="138.1" cy="42.8445" r="3.645" fill="white"/>
<path d="M214.72 10L219.014 23.2148L232.909 23.2148L221.668 31.3819L225.961 44.5967L214.72 36.4295L203.479 44.5967L207.773 31.3819L196.532 23.2148L210.427 23.2148L214.72 10Z" fill="white"/>
<path d="M192.71 132.577L195.202 140.246H203.265L196.742 144.985L199.233 152.654L192.71 147.915L186.186 152.654L188.678 144.985L182.155 140.246H190.218L192.71 132.577Z" fill="white"/>
<path d="M258.795 120.998L262.376 126.248L268.475 124.465L264.588 129.492L268.169 134.742L262.187 132.599L258.3 137.627L258.489 131.275L252.507 129.133L258.606 127.35L258.795 120.998Z" fill="white"/>
</g>
<path fill-rule="evenodd" clip-rule="evenodd" d="M138.91 50.1468L190.111 144.034L167.668 148.733L168.283 151.67L192.701 146.556L225.021 139.789C224.583 138.907 224.327 137.919 224.3 136.874L193.177 143.392L141.78 49.1437C140.929 49.674 139.955 50.0258 138.91 50.1468ZM144.973 42.0397L214.037 34.0625L228.459 130.299C229.322 129.917 230.278 129.705 231.283 129.705C231.323 129.705 231.363 129.705 231.403 129.706L216.789 32.1837L216.574 30.7495L215.134 30.9159L143.768 39.1589C144.371 39.9989 144.792 40.9784 144.973 42.0397ZM238.269 136.69C238.269 135.759 238.086 134.87 237.755 134.057L260.735 129.245L261.35 132.181L238.261 137.016C238.266 136.908 238.269 136.799 238.269 136.69Z" fill="white"/>
<circle cx="230.2" cy="136.222" r="3.645" fill="white"/>
<circle cx="161.411" cy="151.192" r="3.645" fill="white"/>
<circle cx="138.1" cy="42.8445" r="3.645" fill="white"/>
<path d="M214.72 10L219.014 23.2148L232.909 23.2148L221.668 31.3819L225.961 44.5967L214.72 36.4295L203.479 44.5967L207.773 31.3819L196.532 23.2148L210.427 23.2148L214.72 10Z" fill="white"/>
<path d="M192.71 132.577L195.202 140.246H203.265L196.742 144.985L199.233 152.654L192.71 147.915L186.186 152.654L188.678 144.985L182.155 140.246H190.218L192.71 132.577Z" fill="white"/>
<path d="M258.795 120.998L262.376 126.248L268.475 124.465L264.588 129.492L268.169 134.742L262.187 132.599L258.3 137.627L258.489 131.275L252.507 129.133L258.606 127.35L258.795 120.998Z" fill="white"/>
<defs>
<filter id="filter0_f_92_9481" x="124.455" y="0" width="154.02" height="164.837" filterUnits="userSpaceOnUse" color-interpolation-filters="sRGB">
<feFlood flood-opacity="0" result="BackgroundImageFix"/>
<feBlend mode="normal" in="SourceGraphic" in2="BackgroundImageFix" result="shape"/>
<feGaussianBlur stdDeviation="5" result="effect1_foregroundBlur_92_9481"/>
</filter>
</defs>
</svg>
