<svg width="1816" height="30" viewBox="0 0 1816 30" fill="none" xmlns="http://www.w3.org/2000/svg">
<line x1="5.2356" y1="29.0832" x2="1795.73" y2="29.0832" stroke="#F6F1FF" stroke-width="0.960505"/>
<path opacity="0.65" d="M346.209 12.5386H344.945L349.185 2.16257H343.849V1.01857H350.441V2.16257L346.209 12.5386ZM358.568 7.70657L354.472 11.4026H360.2V12.5306H352.68L352.688 11.4586L357.896 6.75457C358.784 5.95457 359.008 5.25057 359.008 4.45057C359.008 3.02657 357.912 1.90657 356.496 1.90657C355.024 1.90657 353.936 3.09057 353.952 4.44257H352.752C352.752 2.33857 354.376 0.778574 356.512 0.778574C358.608 0.778574 360.2 2.40257 360.2 4.45857C360.2 5.90657 359.688 6.70657 358.568 7.70657ZM365.005 6.53857C363.421 6.53857 362.125 5.25857 362.125 3.65857C362.125 2.09057 363.469 0.778574 365.005 0.778574C366.589 0.778574 367.885 2.05857 367.885 3.65857C367.885 5.25857 366.589 6.53857 365.005 6.53857ZM365.005 5.47457C365.989 5.47457 366.821 4.64257 366.821 3.65857C366.821 2.67457 365.989 1.84257 365.005 1.84257C364.021 1.84257 363.189 2.67457 363.189 3.65857C363.189 4.64257 364.021 5.47457 365.005 5.47457Z" fill="#F6F1FF"/>
<line x1="355.78" y1="29.5635" x2="355.78" y2="19.3639" stroke="#F6F1FF" stroke-width="0.960505"/>
<line x1="1071.49" y1="29.5635" x2="1071.49" y2="19.3639" stroke="#F6F1FF" stroke-width="0.960505"/>
<path opacity="0.65" d="M1421.21 7.70657L1417.12 11.4026H1422.85V12.5306H1415.33L1415.33 11.4586L1420.54 6.75457C1421.43 5.95457 1421.65 5.25057 1421.65 4.45057C1421.65 3.02657 1420.56 1.90657 1419.14 1.90657C1417.67 1.90657 1416.58 3.09057 1416.6 4.44257H1415.4C1415.4 2.33857 1417.02 0.778574 1419.16 0.778574C1421.25 0.778574 1422.85 2.40257 1422.85 4.45857C1422.85 5.90657 1422.33 6.70657 1421.21 7.70657ZM1431 6.37857C1432.07 7.00257 1432.62 8.05857 1432.62 9.30657C1432.62 11.4106 1431.09 12.7786 1428.92 12.7786C1426.76 12.7786 1425.25 11.4106 1425.25 9.30657C1425.25 8.05057 1425.77 6.99457 1426.87 6.37057C1425.98 5.84257 1425.52 4.90657 1425.52 3.87457C1425.52 1.95457 1426.94 0.778574 1428.92 0.778574C1430.91 0.778574 1432.33 1.95457 1432.33 3.87457C1432.33 4.91457 1431.89 5.85057 1431 6.37857ZM1428.92 1.93857C1427.64 1.93857 1426.77 2.58657 1426.77 3.87457C1426.77 5.17057 1427.64 5.82657 1428.92 5.82657C1430.2 5.82657 1431.08 5.17057 1431.08 3.87457C1431.08 2.58657 1430.2 1.93857 1428.92 1.93857ZM1428.92 11.6506C1430.38 11.6506 1431.37 10.8186 1431.37 9.30657C1431.37 7.77857 1430.4 6.96257 1428.92 6.96257C1427.45 6.96257 1426.49 7.77857 1426.49 9.30657C1426.49 10.8186 1427.48 11.6506 1428.92 11.6506ZM1440.92 6.37857C1441.99 7.00257 1442.54 8.05857 1442.54 9.30657C1442.54 11.4106 1441.01 12.7786 1438.84 12.7786C1436.68 12.7786 1435.17 11.4106 1435.17 9.30657C1435.17 8.05057 1435.69 6.99457 1436.79 6.37057C1435.9 5.84257 1435.44 4.90657 1435.44 3.87457C1435.44 1.95457 1436.86 0.778574 1438.84 0.778574C1440.83 0.778574 1442.25 1.95457 1442.25 3.87457C1442.25 4.91457 1441.81 5.85057 1440.92 6.37857ZM1438.84 1.93857C1437.56 1.93857 1436.69 2.58657 1436.69 3.87457C1436.69 5.17057 1437.56 5.82657 1438.84 5.82657C1440.12 5.82657 1441 5.17057 1441 3.87457C1441 2.58657 1440.12 1.93857 1438.84 1.93857ZM1438.84 11.6506C1440.3 11.6506 1441.29 10.8186 1441.29 9.30657C1441.29 7.77857 1440.32 6.96257 1438.84 6.96257C1437.37 6.96257 1436.41 7.77857 1436.41 9.30657C1436.41 10.8186 1437.4 11.6506 1438.84 11.6506ZM1447.49 6.53857C1445.91 6.53857 1444.61 5.25857 1444.61 3.65857C1444.61 2.09057 1445.96 0.778574 1447.49 0.778574C1449.08 0.778574 1450.37 2.05857 1450.37 3.65857C1450.37 5.25857 1449.08 6.53857 1447.49 6.53857ZM1447.49 5.47457C1448.48 5.47457 1449.31 4.64257 1449.31 3.65857C1449.31 2.67457 1448.48 1.84257 1447.49 1.84257C1446.51 1.84257 1445.68 2.67457 1445.68 3.65857C1445.68 4.64257 1446.51 5.47457 1447.49 5.47457Z" fill="#F6F1FF"/>
<line x1="1432.88" y1="29.5635" x2="1432.88" y2="19.3639" stroke="#F6F1FF" stroke-width="0.960505"/>
<path opacity="0.65" d="M698.631 12.5386H697.439V2.33057L695.271 3.63457V2.31457L697.439 1.01857H698.631V12.5386ZM708.562 12.5386H707.378V10.3066H701.986V9.18657L705.842 1.01857H707.162L703.306 9.18657H707.378V5.82657H708.562V9.18657H709.818V10.3066H708.562V12.5386ZM718.795 12.5386H717.611V10.3066H712.219V9.18657L716.075 1.01857H717.395L713.539 9.18657H717.611V5.82657H718.795V9.18657H720.051V10.3066H718.795V12.5386ZM724.857 6.53857C723.273 6.53857 721.977 5.25857 721.977 3.65857C721.977 2.09057 723.321 0.778574 724.857 0.778574C726.441 0.778574 727.737 2.05857 727.737 3.65857C727.737 5.25857 726.441 6.53857 724.857 6.53857ZM724.857 5.47457C725.841 5.47457 726.673 4.64257 726.673 3.65857C726.673 2.67457 725.841 1.84257 724.857 1.84257C723.873 1.84257 723.041 2.67457 723.041 3.65857C723.041 4.64257 723.873 5.47457 724.857 5.47457Z" fill="#F6F1FF"/>
<line x1="711.385" y1="29.5635" x2="711.385" y2="19.3639" stroke="#F6F1FF" stroke-width="0.960505"/>
<path opacity="0.65" d="M5.37878 16.5086C3.24278 16.5086 1.61878 14.8846 1.61878 12.7486V8.26855C1.61878 6.13255 3.24278 4.50855 5.37878 4.50855C7.51478 4.50855 9.13878 6.13255 9.13878 8.26855V12.7486C9.13878 14.8846 7.51478 16.5086 5.37878 16.5086ZM5.37878 15.3726C6.79478 15.3726 7.94678 14.2206 7.94678 12.8046V8.21255C7.94678 6.78855 6.79478 5.63655 5.37878 5.63655C3.96278 5.63655 2.81078 6.78855 2.81078 8.21255V12.8046C2.81078 14.2206 3.96278 15.3726 5.37878 15.3726ZM14.2644 10.2686C12.6804 10.2686 11.3844 8.98855 11.3844 7.38855C11.3844 5.82055 12.7284 4.50855 14.2644 4.50855C15.8484 4.50855 17.1444 5.78855 17.1444 7.38855C17.1444 8.98855 15.8484 10.2686 14.2644 10.2686ZM14.2644 9.20455C15.2484 9.20455 16.0804 8.37255 16.0804 7.38855C16.0804 6.40455 15.2484 5.57255 14.2644 5.57255C13.2804 5.57255 12.4484 6.40455 12.4484 7.38855C12.4484 8.37255 13.2804 9.20455 14.2644 9.20455Z" fill="#F6F1FF"/>
<line x1="5.34714" y1="29.5635" x2="5.34714" y2="19.3639" stroke="#F6F1FF" stroke-width="0.960505"/>
<path opacity="0.65" d="M1784.95 2.16257L1781.57 5.38657C1783.67 5.37057 1785.08 6.87457 1785.08 9.02657C1785.08 11.2426 1783.53 12.7706 1781.41 12.7706C1779.7 12.7706 1778.32 11.8106 1777.84 10.2506L1778.96 9.91457C1779.34 11.0586 1780.29 11.6586 1781.4 11.6346C1782.93 11.6026 1783.87 10.5706 1783.87 9.02657C1783.87 7.45857 1782.87 6.41857 1781.38 6.41857C1780.96 6.41857 1780.48 6.54657 1780.08 6.73857L1779.49 5.80257L1783.45 2.14657H1778.29V1.01857H1784.95V2.16257ZM1791.81 5.11457C1793.94 5.11457 1795.6 6.79457 1795.6 8.93057C1795.6 11.0586 1793.83 12.7786 1791.7 12.7786C1789.53 12.7786 1787.8 11.0506 1787.8 8.80257V4.81057C1787.8 2.49857 1789.5 0.786573 1791.78 0.786573C1793.1 0.786573 1794.27 1.39457 1794.99 2.42657L1794.09 3.17057C1793.6 2.41057 1792.74 1.90657 1791.78 1.90657C1790.16 1.90657 1788.99 3.21857 1788.99 4.70657V6.47457C1789.67 5.65057 1790.69 5.11457 1791.81 5.11457ZM1791.7 11.6346C1793.2 11.6346 1794.42 10.4346 1794.42 8.93057C1794.42 7.42657 1793.21 6.21057 1791.7 6.21057C1790.2 6.21057 1788.99 7.42657 1788.99 8.93057C1788.99 10.4186 1790.19 11.6346 1791.7 11.6346ZM1802.12 12.7786C1799.99 12.7786 1798.36 11.1546 1798.36 9.01857V4.53857C1798.36 2.40257 1799.99 0.778574 1802.12 0.778574C1804.26 0.778574 1805.88 2.40257 1805.88 4.53857V9.01857C1805.88 11.1546 1804.26 12.7786 1802.12 12.7786ZM1802.12 11.6426C1803.54 11.6426 1804.69 10.4906 1804.69 9.07457V4.48257C1804.69 3.05857 1803.54 1.90657 1802.12 1.90657C1800.71 1.90657 1799.55 3.05857 1799.55 4.48257V9.07457C1799.55 10.4906 1800.71 11.6426 1802.12 11.6426ZM1811.01 6.53857C1809.42 6.53857 1808.13 5.25857 1808.13 3.65857C1808.13 2.09057 1809.47 0.778574 1811.01 0.778574C1812.59 0.778574 1813.89 2.05857 1813.89 3.65857C1813.89 5.25857 1812.59 6.53857 1811.01 6.53857ZM1811.01 5.47457C1811.99 5.47457 1812.82 4.64257 1812.82 3.65857C1812.82 2.67457 1811.99 1.84257 1811.01 1.84257C1810.02 1.84257 1809.19 2.67457 1809.19 3.65857C1809.19 4.64257 1810.02 5.47457 1811.01 5.47457Z" fill="#F6F1FF"/>
<line x1="1795.87" y1="29.5635" x2="1795.87" y2="19.3639" stroke="#F6F1FF" stroke-width="0.960505"/>
</svg>
