<svg width="1816" height="30" viewBox="0 0 1816 30" fill="none" xmlns="http://www.w3.org/2000/svg">
<line x1="5.2356" y1="29.0832" x2="1795.73" y2="29.0832" stroke="#F6F1FF" stroke-width="0.960505"/>
<path opacity="0.65" d="M346.209 12.5386H344.945L349.185 2.16257H343.849V1.01857H350.441V2.16257L346.209 12.5386ZM358.568 7.70657L354.472 11.4026H360.2V12.5306H352.68L352.688 11.4586L357.896 6.75457C358.784 5.95457 359.008 5.25057 359.008 4.45057C359.008 3.02657 357.912 1.90657 356.496 1.90657C355.024 1.90657 353.936 3.09057 353.952 4.44257H352.752C352.752 2.33857 354.376 0.778574 356.512 0.778574C358.608 0.778574 360.2 2.40257 360.2 4.45857C360.2 5.90657 359.688 6.70657 358.568 7.70657ZM365.005 6.53857C363.421 6.53857 362.125 5.25857 362.125 3.65857C362.125 2.09057 363.469 0.778574 365.005 0.778574C366.589 0.778574 367.885 2.05857 367.885 3.65857C367.885 5.25857 366.589 6.53857 365.005 6.53857ZM365.005 5.47457C365.989 5.47457 366.821 4.64257 366.821 3.65857C366.821 2.67457 365.989 1.84257 365.005 1.84257C364.021 1.84257 363.189 2.67457 363.189 3.65857C363.189 4.64257 364.021 5.47457 365.005 5.47457Z" fill="#F6F1FF"/>
<line x1="355.78" y1="29.5635" x2="355.78" y2="19.3639" stroke="#F6F1FF" stroke-width="0.960505"/>
<path opacity="0.65" d="M1061.11 7.70657L1057.01 11.4026H1062.74V12.5306H1055.22L1055.23 11.4586L1060.43 6.75457C1061.32 5.95457 1061.55 5.25057 1061.55 4.45057C1061.55 3.02657 1060.45 1.90657 1059.03 1.90657C1057.56 1.90657 1056.47 3.09057 1056.49 4.44257H1055.29C1055.29 2.33857 1056.91 0.778574 1059.05 0.778574C1061.15 0.778574 1062.74 2.40257 1062.74 4.45857C1062.74 5.90657 1062.23 6.70657 1061.11 7.70657ZM1068.5 12.5386H1067.31V2.33057L1065.14 3.63457V2.31457L1067.31 1.01857H1068.5V12.5386ZM1076.19 5.11457C1078.32 5.11457 1079.98 6.79457 1079.98 8.93057C1079.98 11.0586 1078.21 12.7786 1076.07 12.7786C1073.91 12.7786 1072.18 11.0506 1072.18 8.80257V4.81057C1072.18 2.49857 1073.88 0.786573 1076.16 0.786573C1077.47 0.786573 1078.65 1.39457 1079.37 2.42657L1078.47 3.17057C1077.98 2.41057 1077.11 1.90657 1076.16 1.90657C1074.54 1.90657 1073.37 3.21857 1073.37 4.70657V6.47457C1074.05 5.65057 1075.07 5.11457 1076.19 5.11457ZM1076.07 11.6346C1077.58 11.6346 1078.79 10.4346 1078.79 8.93057C1078.79 7.42657 1077.59 6.21057 1076.08 6.21057C1074.58 6.21057 1073.37 7.42657 1073.37 8.93057C1073.37 10.4186 1074.57 11.6346 1076.07 11.6346ZM1084.98 6.53857C1083.4 6.53857 1082.1 5.25857 1082.1 3.65857C1082.1 2.09057 1083.44 0.778574 1084.98 0.778574C1086.56 0.778574 1087.86 2.05857 1087.86 3.65857C1087.86 5.25857 1086.56 6.53857 1084.98 6.53857ZM1084.98 5.47457C1085.96 5.47457 1086.8 4.64257 1086.8 3.65857C1086.8 2.67457 1085.96 1.84257 1084.98 1.84257C1084 1.84257 1083.16 2.67457 1083.16 3.65857C1083.16 4.64257 1084 5.47457 1084.98 5.47457Z" fill="#F6F1FF"/>
<line x1="1071.49" y1="29.5635" x2="1071.49" y2="19.3639" stroke="#F6F1FF" stroke-width="0.960505"/>
<line x1="1432.88" y1="29.5635" x2="1432.88" y2="19.3639" stroke="#F6F1FF" stroke-width="0.960505"/>
<path opacity="0.65" d="M698.631 12.5386H697.439V2.33057L695.271 3.63457V2.31457L697.439 1.01857H698.631V12.5386ZM708.562 12.5386H707.378V10.3066H701.986V9.18657L705.842 1.01857H707.162L703.306 9.18657H707.378V5.82657H708.562V9.18657H709.818V10.3066H708.562V12.5386ZM718.795 12.5386H717.611V10.3066H712.219V9.18657L716.075 1.01857H717.395L713.539 9.18657H717.611V5.82657H718.795V9.18657H720.051V10.3066H718.795V12.5386ZM724.857 6.53857C723.273 6.53857 721.977 5.25857 721.977 3.65857C721.977 2.09057 723.321 0.778574 724.857 0.778574C726.441 0.778574 727.737 2.05857 727.737 3.65857C727.737 5.25857 726.441 6.53857 724.857 6.53857ZM724.857 5.47457C725.841 5.47457 726.673 4.64257 726.673 3.65857C726.673 2.67457 725.841 1.84257 724.857 1.84257C723.873 1.84257 723.041 2.67457 723.041 3.65857C723.041 4.64257 723.873 5.47457 724.857 5.47457Z" fill="#F6F1FF"/>
<line x1="711.385" y1="29.5635" x2="711.385" y2="19.3639" stroke="#F6F1FF" stroke-width="0.960505"/>
<path opacity="0.65" d="M5.37878 16.5086C3.24278 16.5086 1.61878 14.8846 1.61878 12.7486V8.26855C1.61878 6.13255 3.24278 4.50855 5.37878 4.50855C7.51478 4.50855 9.13878 6.13255 9.13878 8.26855V12.7486C9.13878 14.8846 7.51478 16.5086 5.37878 16.5086ZM5.37878 15.3726C6.79478 15.3726 7.94678 14.2206 7.94678 12.8046V8.21255C7.94678 6.78855 6.79478 5.63655 5.37878 5.63655C3.96278 5.63655 2.81078 6.78855 2.81078 8.21255V12.8046C2.81078 14.2206 3.96278 15.3726 5.37878 15.3726ZM14.2644 10.2686C12.6804 10.2686 11.3844 8.98855 11.3844 7.38855C11.3844 5.82055 12.7284 4.50855 14.2644 4.50855C15.8484 4.50855 17.1444 5.78855 17.1444 7.38855C17.1444 8.98855 15.8484 10.2686 14.2644 10.2686ZM14.2644 9.20455C15.2484 9.20455 16.0804 8.37255 16.0804 7.38855C16.0804 6.40455 15.2484 5.57255 14.2644 5.57255C13.2804 5.57255 12.4484 6.40455 12.4484 7.38855C12.4484 8.37255 13.2804 9.20455 14.2644 9.20455Z" fill="#F6F1FF"/>
<line x1="5.34714" y1="29.5635" x2="5.34714" y2="19.3639" stroke="#F6F1FF" stroke-width="0.960505"/>
<path opacity="0.65" d="M1784.95 2.16257L1781.57 5.38657C1783.67 5.37057 1785.08 6.87457 1785.08 9.02657C1785.08 11.2426 1783.53 12.7706 1781.41 12.7706C1779.7 12.7706 1778.32 11.8106 1777.84 10.2506L1778.96 9.91457C1779.34 11.0586 1780.29 11.6586 1781.4 11.6346C1782.93 11.6026 1783.87 10.5706 1783.87 9.02657C1783.87 7.45857 1782.87 6.41857 1781.38 6.41857C1780.96 6.41857 1780.48 6.54657 1780.08 6.73857L1779.49 5.80257L1783.45 2.14657H1778.29V1.01857H1784.95V2.16257ZM1791.81 5.11457C1793.94 5.11457 1795.6 6.79457 1795.6 8.93057C1795.6 11.0586 1793.83 12.7786 1791.7 12.7786C1789.53 12.7786 1787.8 11.0506 1787.8 8.80257V4.81057C1787.8 2.49857 1789.5 0.786573 1791.78 0.786573C1793.1 0.786573 1794.27 1.39457 1794.99 2.42657L1794.09 3.17057C1793.6 2.41057 1792.74 1.90657 1791.78 1.90657C1790.16 1.90657 1788.99 3.21857 1788.99 4.70657V6.47457C1789.67 5.65057 1790.69 5.11457 1791.81 5.11457ZM1791.7 11.6346C1793.2 11.6346 1794.42 10.4346 1794.42 8.93057C1794.42 7.42657 1793.21 6.21057 1791.7 6.21057C1790.2 6.21057 1788.99 7.42657 1788.99 8.93057C1788.99 10.4186 1790.19 11.6346 1791.7 11.6346ZM1802.12 12.7786C1799.99 12.7786 1798.36 11.1546 1798.36 9.01857V4.53857C1798.36 2.40257 1799.99 0.778574 1802.12 0.778574C1804.26 0.778574 1805.88 2.40257 1805.88 4.53857V9.01857C1805.88 11.1546 1804.26 12.7786 1802.12 12.7786ZM1802.12 11.6426C1803.54 11.6426 1804.69 10.4906 1804.69 9.07457V4.48257C1804.69 3.05857 1803.54 1.90657 1802.12 1.90657C1800.71 1.90657 1799.55 3.05857 1799.55 4.48257V9.07457C1799.55 10.4906 1800.71 11.6426 1802.12 11.6426ZM1811.01 6.53857C1809.42 6.53857 1808.13 5.25857 1808.13 3.65857C1808.13 2.09057 1809.47 0.778574 1811.01 0.778574C1812.59 0.778574 1813.89 2.05857 1813.89 3.65857C1813.89 5.25857 1812.59 6.53857 1811.01 6.53857ZM1811.01 5.47457C1811.99 5.47457 1812.82 4.64257 1812.82 3.65857C1812.82 2.67457 1811.99 1.84257 1811.01 1.84257C1810.02 1.84257 1809.19 2.67457 1809.19 3.65857C1809.19 4.64257 1810.02 5.47457 1811.01 5.47457Z" fill="#F6F1FF"/>
<line x1="1795.87" y1="29.5635" x2="1795.87" y2="19.3639" stroke="#F6F1FF" stroke-width="0.960505"/>
</svg>
