<svg width="1797" height="30" viewBox="0 0 1797 30" fill="none" xmlns="http://www.w3.org/2000/svg">
<line x1="5.23584" y1="29.0832" x2="1795.73" y2="29.0832" stroke="#F6F1FF" stroke-width="0.960505"/>
<path opacity="0.65" d="M346.209 12.5386H344.945L349.185 2.16257H343.849V1.01857H350.441V2.16257L346.209 12.5386ZM358.569 7.70657L354.473 11.4026H360.201V12.5306H352.681L352.689 11.4586L357.897 6.75457C358.785 5.95457 359.009 5.25057 359.009 4.45057C359.009 3.02657 357.913 1.90657 356.497 1.90657C355.025 1.90657 353.937 3.09057 353.953 4.44257H352.753C352.753 2.33857 354.377 0.778574 356.513 0.778574C358.609 0.778574 360.201 2.40257 360.201 4.45857C360.201 5.90657 359.689 6.70657 358.569 7.70657ZM365.006 6.53857C363.422 6.53857 362.126 5.25857 362.126 3.65857C362.126 2.09057 363.47 0.778574 365.006 0.778574C366.59 0.778574 367.886 2.05857 367.886 3.65857C367.886 5.25857 366.59 6.53857 365.006 6.53857ZM365.006 5.47457C365.99 5.47457 366.822 4.64257 366.822 3.65857C366.822 2.67457 365.99 1.84257 365.006 1.84257C364.022 1.84257 363.19 2.67457 363.19 3.65857C363.19 4.64257 364.022 5.47457 365.006 5.47457Z" fill="#F6F1FF"/>
<line x1="355.78" y1="29.5635" x2="355.78" y2="19.3639" stroke="#F6F1FF" stroke-width="0.960505"/>
<path opacity="0.65" d="M1061.11 7.70657L1057.01 11.4026H1062.74V12.5306H1055.22L1055.23 11.4586L1060.43 6.75457C1061.32 5.95457 1061.55 5.25057 1061.55 4.45057C1061.55 3.02657 1060.45 1.90657 1059.03 1.90657C1057.56 1.90657 1056.47 3.09057 1056.49 4.44257H1055.29C1055.29 2.33857 1056.91 0.778574 1059.05 0.778574C1061.15 0.778574 1062.74 2.40257 1062.74 4.45857C1062.74 5.90657 1062.23 6.70657 1061.11 7.70657ZM1068.5 12.5386H1067.31V2.33057L1065.14 3.63457V2.31457L1067.31 1.01857H1068.5V12.5386ZM1076.19 5.11457C1078.32 5.11457 1079.98 6.79457 1079.98 8.93057C1079.98 11.0586 1078.21 12.7786 1076.07 12.7786C1073.91 12.7786 1072.18 11.0506 1072.18 8.80257V4.81057C1072.18 2.49857 1073.88 0.786573 1076.16 0.786573C1077.47 0.786573 1078.65 1.39457 1079.37 2.42657L1078.47 3.17057C1077.98 2.41057 1077.11 1.90657 1076.16 1.90657C1074.54 1.90657 1073.37 3.21857 1073.37 4.70657V6.47457C1074.05 5.65057 1075.07 5.11457 1076.19 5.11457ZM1076.07 11.6346C1077.58 11.6346 1078.79 10.4346 1078.79 8.93057C1078.79 7.42657 1077.59 6.21057 1076.08 6.21057C1074.58 6.21057 1073.37 7.42657 1073.37 8.93057C1073.37 10.4186 1074.57 11.6346 1076.07 11.6346ZM1084.98 6.53857C1083.4 6.53857 1082.1 5.25857 1082.1 3.65857C1082.1 2.09057 1083.44 0.778574 1084.98 0.778574C1086.56 0.778574 1087.86 2.05857 1087.86 3.65857C1087.86 5.25857 1086.56 6.53857 1084.98 6.53857ZM1084.98 5.47457C1085.96 5.47457 1086.8 4.64257 1086.8 3.65857C1086.8 2.67457 1085.96 1.84257 1084.98 1.84257C1084 1.84257 1083.16 2.67457 1083.16 3.65857C1083.16 4.64257 1084 5.47457 1084.98 5.47457Z" fill="#F6F1FF"/>
<line x1="1071.49" y1="29.5635" x2="1071.49" y2="19.3639" stroke="#F6F1FF" stroke-width="0.960505"/>
<path opacity="0.65" d="M1421.21 7.70657L1417.12 11.4026H1422.85V12.5306H1415.33L1415.33 11.4586L1420.54 6.75457C1421.43 5.95457 1421.65 5.25057 1421.65 4.45057C1421.65 3.02657 1420.56 1.90657 1419.14 1.90657C1417.67 1.90657 1416.58 3.09057 1416.6 4.44257H1415.4C1415.4 2.33857 1417.02 0.778574 1419.16 0.778574C1421.25 0.778574 1422.85 2.40257 1422.85 4.45857C1422.85 5.90657 1422.33 6.70657 1421.21 7.70657ZM1431 6.37857C1432.07 7.00257 1432.62 8.05857 1432.62 9.30657C1432.62 11.4106 1431.09 12.7786 1428.92 12.7786C1426.76 12.7786 1425.25 11.4106 1425.25 9.30657C1425.25 8.05057 1425.77 6.99457 1426.87 6.37057C1425.98 5.84257 1425.52 4.90657 1425.52 3.87457C1425.52 1.95457 1426.94 0.778574 1428.92 0.778574C1430.91 0.778574 1432.33 1.95457 1432.33 3.87457C1432.33 4.91457 1431.89 5.85057 1431 6.37857ZM1428.92 1.93857C1427.64 1.93857 1426.77 2.58657 1426.77 3.87457C1426.77 5.17057 1427.64 5.82657 1428.92 5.82657C1430.2 5.82657 1431.08 5.17057 1431.08 3.87457C1431.08 2.58657 1430.2 1.93857 1428.92 1.93857ZM1428.92 11.6506C1430.38 11.6506 1431.37 10.8186 1431.37 9.30657C1431.37 7.77857 1430.4 6.96257 1428.92 6.96257C1427.45 6.96257 1426.49 7.77857 1426.49 9.30657C1426.49 10.8186 1427.48 11.6506 1428.92 11.6506ZM1440.92 6.37857C1441.99 7.00257 1442.54 8.05857 1442.54 9.30657C1442.54 11.4106 1441.01 12.7786 1438.84 12.7786C1436.68 12.7786 1435.17 11.4106 1435.17 9.30657C1435.17 8.05057 1435.69 6.99457 1436.79 6.37057C1435.9 5.84257 1435.44 4.90657 1435.44 3.87457C1435.44 1.95457 1436.86 0.778574 1438.84 0.778574C1440.83 0.778574 1442.25 1.95457 1442.25 3.87457C1442.25 4.91457 1441.81 5.85057 1440.92 6.37857ZM1438.84 1.93857C1437.56 1.93857 1436.69 2.58657 1436.69 3.87457C1436.69 5.17057 1437.56 5.82657 1438.84 5.82657C1440.12 5.82657 1441 5.17057 1441 3.87457C1441 2.58657 1440.12 1.93857 1438.84 1.93857ZM1438.84 11.6506C1440.3 11.6506 1441.29 10.8186 1441.29 9.30657C1441.29 7.77857 1440.32 6.96257 1438.84 6.96257C1437.37 6.96257 1436.41 7.77857 1436.41 9.30657C1436.41 10.8186 1437.4 11.6506 1438.84 11.6506ZM1447.49 6.53857C1445.91 6.53857 1444.61 5.25857 1444.61 3.65857C1444.61 2.09057 1445.96 0.778574 1447.49 0.778574C1449.08 0.778574 1450.37 2.05857 1450.37 3.65857C1450.37 5.25857 1449.08 6.53857 1447.49 6.53857ZM1447.49 5.47457C1448.48 5.47457 1449.31 4.64257 1449.31 3.65857C1449.31 2.67457 1448.48 1.84257 1447.49 1.84257C1446.51 1.84257 1445.68 2.67457 1445.68 3.65857C1445.68 4.64257 1446.51 5.47457 1447.49 5.47457Z" fill="#F6F1FF"/>
<line x1="1432.88" y1="29.5635" x2="1432.88" y2="19.3639" stroke="#F6F1FF" stroke-width="0.960505"/>
<path opacity="0.65" d="M698.632 12.5386H697.44V2.33057L695.272 3.63457V2.31457L697.44 1.01857H698.632V12.5386ZM708.562 12.5386H707.378V10.3066H701.986V9.18657L705.842 1.01857H707.162L703.306 9.18657H707.378V5.82657H708.562V9.18657H709.818V10.3066H708.562V12.5386ZM718.796 12.5386H717.612V10.3066H712.22V9.18657L716.076 1.01857H717.396L713.54 9.18657H717.612V5.82657H718.796V9.18657H720.052V10.3066H718.796V12.5386ZM724.857 6.53857C723.273 6.53857 721.977 5.25857 721.977 3.65857C721.977 2.09057 723.321 0.778574 724.857 0.778574C726.441 0.778574 727.737 2.05857 727.737 3.65857C727.737 5.25857 726.441 6.53857 724.857 6.53857ZM724.857 5.47457C725.841 5.47457 726.673 4.64257 726.673 3.65857C726.673 2.67457 725.841 1.84257 724.857 1.84257C723.873 1.84257 723.041 2.67457 723.041 3.65857C723.041 4.64257 723.873 5.47457 724.857 5.47457Z" fill="#F6F1FF"/>
<line x1="711.385" y1="29.5635" x2="711.385" y2="19.3639" stroke="#F6F1FF" stroke-width="0.960505"/>
<path opacity="0.65" d="M5.37902 16.5086C3.24302 16.5086 1.61902 14.8846 1.61902 12.7486V8.26855C1.61902 6.13255 3.24302 4.50855 5.37902 4.50855C7.51502 4.50855 9.13902 6.13255 9.13902 8.26855V12.7486C9.13902 14.8846 7.51502 16.5086 5.37902 16.5086ZM5.37902 15.3726C6.79502 15.3726 7.94702 14.2206 7.94702 12.8046V8.21255C7.94702 6.78855 6.79502 5.63655 5.37902 5.63655C3.96302 5.63655 2.81102 6.78855 2.81102 8.21255V12.8046C2.81102 14.2206 3.96302 15.3726 5.37902 15.3726ZM14.2646 10.2686C12.6806 10.2686 11.3846 8.98855 11.3846 7.38855C11.3846 5.82055 12.7286 4.50855 14.2646 4.50855C15.8486 4.50855 17.1446 5.78855 17.1446 7.38855C17.1446 8.98855 15.8486 10.2686 14.2646 10.2686ZM14.2646 9.20455C15.2486 9.20455 16.0806 8.37255 16.0806 7.38855C16.0806 6.40455 15.2486 5.57255 14.2646 5.57255C13.2806 5.57255 12.4486 6.40455 12.4486 7.38855C12.4486 8.37255 13.2806 9.20455 14.2646 9.20455Z" fill="#F6F1FF"/>
<line x1="5.34738" y1="29.5635" x2="5.34738" y2="19.3639" stroke="#F6F1FF" stroke-width="0.960505"/>
<line x1="1795.87" y1="29.5635" x2="1795.87" y2="19.3639" stroke="#F6F1FF" stroke-width="0.960505"/>
</svg>
