<svg width="337" height="389" viewBox="0 0 337 389" fill="none" xmlns="http://www.w3.org/2000/svg">
<path opacity="0.8" d="M80.9035 225.524L75.4654 234.943L74.3472 234.297L74.3969 234.211C74.9347 233.776 75.1209 233.454 75.7417 232.378L78.0759 228.336L74.3986 226.213L71.8534 230.621L70.9502 230.1L73.4954 225.691L64.8291 220.688L62.0356 225.526C61.3776 226.666 61.2501 226.936 61.0563 227.57L61.0067 227.656L59.9529 227.048L65.8504 216.833L65.9364 216.883C66.4458 217.291 66.6915 217.462 68.0462 218.244L78.5834 224.328C79.9382 225.11 80.2087 225.237 80.8174 225.474L80.9035 225.524ZM83.0787 229.504C83.6378 229.826 83.8932 230.576 83.5331 231.2C83.2103 231.759 82.3962 231.977 81.8371 231.654C81.2135 231.294 81.0384 230.505 81.3612 229.946C81.7212 229.322 82.455 229.144 83.0787 229.504ZM80.968 233.159C81.5056 233.47 81.761 234.219 81.401 234.843C81.0782 235.402 80.2641 235.62 79.7265 235.31C79.1028 234.95 78.9277 234.161 79.2505 233.601C79.6106 232.978 80.3444 232.799 80.968 233.159ZM73.8896 237.672L72.9088 239.371L72.8228 239.321C72.6292 239.21 71.4544 239.506 69.7766 240.029L62.8651 242.117L66.951 244.476C68.3058 245.258 68.5762 245.385 69.2098 245.579L69.2959 245.629L67.2845 249.113L67.1985 249.063C66.7139 248.611 66.4683 248.441 65.1135 247.658L61.0276 245.299L62.6749 252.329C63.0615 254.043 63.392 255.209 63.5856 255.321L63.6716 255.37L62.6908 257.069L62.6047 257.02C62.5314 256.203 62.3042 255.355 61.9142 253.696L61.2913 251.1L50.3224 249.986C48.3213 249.777 47.5875 249.955 46.9397 250.183L46.6817 250.034C47.2457 247.865 49.4128 246.049 52.3494 246.425L60.519 247.472L59.8664 244.629L54.5763 241.575C53.2215 240.793 52.951 240.665 52.3174 240.471L52.2314 240.422L54.2427 236.938L54.3288 236.988C54.8134 237.439 55.059 237.61 56.4138 238.392L61.7039 241.446L64.492 240.59L59.5008 234.039C57.7065 231.684 58.1963 228.898 59.7925 227.325L60.0506 227.474C60.1769 228.15 60.3893 228.874 61.5709 230.503L68.0206 239.445L70.5803 238.686C72.2118 238.195 73.0598 237.967 73.8036 237.623L73.8896 237.672ZM61.0435 259.922L59.0321 263.406L58.9461 263.357C58.4615 262.905 58.2159 262.734 56.8611 261.952L48.5389 257.147L53.7803 272.503L53.3831 273.191C52.8372 272.646 52.5147 272.46 49.1815 270.536L40.6872 265.631C39.3324 264.849 39.062 264.722 38.4532 264.485L38.3672 264.435L40.3785 260.952L40.4645 261.001C40.9492 261.453 41.1948 261.624 42.5496 262.406L50.8718 267.211L45.6303 251.855L46.0276 251.167C46.5734 251.712 46.896 251.898 47.9712 252.519L58.7234 258.726C60.0782 259.509 60.3487 259.636 60.9574 259.873L61.0435 259.922ZM51.5149 276.426L49.5036 279.91L49.4176 279.86C48.9329 279.409 48.6873 279.238 47.3325 278.456L43.2467 276.097L44.8121 282.821C45.2805 284.841 45.6111 286.007 45.8046 286.118L45.8906 286.168L44.9098 287.867L44.8238 287.817C44.7504 287.001 44.5232 286.153 44.0548 284.133L43.5104 281.898L32.5414 280.783C30.5404 280.574 29.8065 280.753 29.1587 280.981L28.9007 280.832C29.4647 278.663 31.6319 276.846 34.5685 277.223L42.738 278.269L42.0854 275.427L36.7953 272.372C35.4406 271.59 35.1701 271.463 34.5365 271.269L34.4505 271.219L36.4618 267.736L36.5478 267.785C37.0573 268.194 37.3029 268.365 38.6577 269.147L49.1948 275.23C50.5496 276.013 50.8201 276.14 51.4289 276.377L51.5149 276.426Z" fill="#F6F1FF"/>
<path opacity="0.5" d="M52.9844 197.118L53.4314 196.344L60.0617 200.172L60.0277 198.275L60.8851 198.77L60.9139 200.664L60.4669 201.438L52.9844 197.118ZM49.2605 203.568L49.7045 202.799L51.1542 203.636L53.1762 200.134L53.9037 200.554L57.763 206.122L57.268 206.979L53.4087 201.412L51.8817 204.056L54.0641 205.316L53.6201 206.085L51.4377 204.825L50.9667 205.641L50.2392 205.221L50.7102 204.405L49.2605 203.568ZM45.4229 210.215L45.8669 209.446L47.3166 210.283L49.3386 206.781L50.066 207.201L53.9253 212.769L53.4303 213.626L49.571 208.059L48.044 210.703L50.2264 211.963L49.7824 212.732L47.6 211.472L47.129 212.288L46.4016 211.868L46.8726 211.052L45.4229 210.215ZM47.0469 216.402C47.6409 215.374 48.9583 215.012 49.9975 215.612C51.016 216.2 51.3641 217.565 50.7881 218.562C50.1941 219.591 48.8768 219.953 47.8375 219.353C46.7983 218.753 46.4529 217.431 47.0469 216.402ZM47.738 216.801C47.369 217.441 47.5974 218.293 48.2365 218.662C48.8757 219.031 49.7281 218.803 50.0971 218.163C50.4661 217.524 50.2377 216.672 49.5985 216.303C48.9594 215.934 48.107 216.162 47.738 216.801ZM39.4827 220.144C40.2837 218.757 41.9476 218.311 43.3349 219.112L46.2448 220.792C47.6322 221.593 48.078 223.257 47.277 224.644C46.476 226.031 44.8122 226.477 43.4248 225.676L40.5149 223.996C39.1276 223.195 38.6817 221.531 39.4827 220.144ZM40.2206 220.57C39.6896 221.49 40.0058 222.67 40.9256 223.201L43.9082 224.923C44.8331 225.457 46.0133 225.141 46.5443 224.221C47.0753 223.301 46.7591 222.121 45.8342 221.587L42.8516 219.865C41.9318 219.334 40.7516 219.65 40.2206 220.57ZM35.5806 226.903C36.3816 225.515 38.0455 225.069 39.4328 225.87L42.3427 227.55C43.73 228.351 44.1759 230.015 43.3749 231.403C42.5739 232.79 40.91 233.236 39.5227 232.435L36.6128 230.755C35.2255 229.954 34.7796 228.29 35.5806 226.903ZM36.3185 227.329C35.7875 228.248 36.1037 229.429 37.0235 229.96L40.006 231.682C40.931 232.216 42.1112 231.899 42.6422 230.98C43.1732 230.06 42.857 228.88 41.932 228.346L38.9495 226.624C38.0297 226.093 36.8495 226.409 36.3185 227.329ZM38.3213 234.192L40.5364 236.115L40.0924 236.884L38.0183 234.717L38.3213 234.192ZM37.5593 235.512L39.7744 237.435L39.3304 238.204L37.2563 236.036L37.5593 235.512ZM29.817 244.05L32.337 239.685L32.9918 240.063L30.4718 244.428L29.817 244.05ZM28.6618 254.81L27.8338 251.409C27.0582 252.776 25.5503 253.132 24.1525 252.325C22.7132 251.494 22.3027 249.913 23.0977 248.536C23.7397 247.424 24.8793 246.89 26.0755 247.158L25.8738 248.011C24.9867 247.832 24.24 248.225 23.8416 248.951C23.2864 249.961 23.6057 250.956 24.6085 251.535C25.627 252.123 26.6775 251.863 27.2355 250.897C27.3915 250.627 27.4913 250.262 27.5136 249.935L28.3436 249.902L29.2332 253.845L31.1682 250.493L31.9009 250.916L29.4049 255.239L28.6618 254.81ZM19.2871 255.124C20.0881 253.736 21.7519 253.291 23.1393 254.092L26.0492 255.772C27.4365 256.573 27.8824 258.236 27.0814 259.624C26.2804 261.011 24.6165 261.457 23.2292 260.656L20.3193 258.976C18.932 258.175 18.4861 256.511 19.2871 255.124ZM20.025 255.55C19.494 256.47 19.8102 257.65 20.73 258.181L23.7125 259.903C24.6375 260.437 25.8177 260.121 26.3487 259.201C26.8797 258.281 26.5635 257.101 25.6385 256.567L22.6559 254.845C21.7362 254.314 20.556 254.63 20.025 255.55ZM20.008 263.235C20.602 262.206 21.9194 261.845 22.9586 262.445C23.9771 263.033 24.3253 264.398 23.7493 265.395C23.1553 266.424 21.8379 266.786 20.7986 266.186C19.7594 265.586 19.414 264.264 20.008 263.235ZM20.6991 263.634C20.3301 264.273 20.5585 265.126 21.1976 265.495C21.8368 265.864 22.6892 265.635 23.0582 264.996C23.4272 264.357 23.1988 263.505 22.5596 263.136C21.9205 262.767 21.0681 262.995 20.6991 263.634ZM12.4439 266.977C13.2449 265.589 14.9087 265.144 16.296 265.945L19.2059 267.625C20.5933 268.426 21.0391 270.089 20.2381 271.477C19.4371 272.864 17.7733 273.31 16.3859 272.509L13.476 270.829C12.0887 270.028 11.6429 268.364 12.4439 266.977ZM13.1817 267.403C12.6507 268.322 12.967 269.503 13.8867 270.034L16.8693 271.756C17.7942 272.29 18.9744 271.973 19.5054 271.054C20.0364 270.134 19.7202 268.954 18.7953 268.42L15.8127 266.698C14.893 266.167 13.7127 266.483 13.1817 267.403ZM8.54174 273.735C9.34274 272.348 11.0066 271.902 12.3939 272.703L15.3038 274.383C16.6912 275.184 17.137 276.848 16.336 278.235C15.535 279.623 13.8712 280.069 12.4838 279.268L9.57394 277.588C8.18656 276.787 7.74074 275.123 8.54174 273.735ZM9.2796 274.161C8.7486 275.081 9.06484 276.261 9.98456 276.792L12.9672 278.514C13.8921 279.048 15.0723 278.732 15.6033 277.812C16.1343 276.893 15.8181 275.712 14.8932 275.178L11.9106 273.456C10.9908 272.925 9.8106 273.242 9.2796 274.161ZM11.2824 281.025L13.4975 282.948L13.0535 283.717L10.9794 281.549L11.2824 281.025ZM10.5204 282.344L12.7355 284.268L12.2915 285.037L10.2174 282.869L10.5204 282.344Z" fill="#BBBBBB"/>
<g opacity="0.2">
<path d="M139.267 66.2099C139.198 66.0714 139.092 65.9116 139.045 65.736C139.505 65.111 139.944 64.5232 140.382 63.9353C139.991 64.6987 139.658 65.4465 139.267 66.2099Z" fill="white"/>
<path d="M170.239 73.6534C175.259 75.068 233.448 81.2092 233.448 81.2092L202.778 97.8319L283.184 85.8835L235.306 104.295L293.469 107.997L240.302 116.033L278.389 134.115L252.435 135.801L294.425 152.179L227.909 148.551L274.983 172.316L229.98 162.014L271.757 191.526L204.262 175.115L268.777 215.281L199.864 181.875L244.277 233.982L179.093 188.977L225.557 263.836L183.042 224.549L215.506 307.549L148.719 228.822L175.247 309.335L119.787 279.789L142.927 363.688L109.11 322.102L92.5988 343.931L89.9147 271.298L92.8933 226.469C93.3421 219.951 95.2195 213.615 98.4225 207.896L170.239 73.6534Z" fill="white"/>
<path d="M139.267 66.2099C139.198 66.0714 139.092 65.9116 139.045 65.736C139.505 65.111 139.944 64.5232 140.382 63.9353C139.991 64.6987 139.658 65.4465 139.267 66.2099Z" fill="white"/>
<path d="M96.4243 201.846C119.744 159.313 170.551 65.5731 170.551 65.5731C172.097 66.6639 186.644 76.5961 190.325 70.9057C194.065 65.1995 186.46 53.4385 186.46 53.4385L188.357 25.9914C188.357 25.9914 194.001 15.1023 189.563 12.9358C187.548 11.9704 184.959 13.5423 182.649 15.5725C180.094 17.8566 178.226 20.8345 177.165 24.1296C176.599 25.8806 175.392 28.3992 172.875 31.6452C169.502 36.0299 161.508 42.5938 156.075 46.778C153.036 49.1291 150.229 51.7628 147.676 54.642C148.326 53.088 148.775 51.3684 148.373 49.7513C147.975 49.6698 147.68 50.0936 147.466 50.4646C145.527 53.9948 143.625 57.5465 141.797 61.141C141.981 60.3076 142.07 59.4684 141.888 58.6706C141.554 57.1919 140.194 55.8627 138.684 56.0792C138.433 57.7147 138.181 59.3501 138.216 61.0028C138.263 62.4643 138.398 64.3725 138.965 65.7884C139.425 65.1635 139.863 64.5756 140.302 63.9878C139.91 64.7512 139.541 65.4775 139.171 66.2038C139.102 66.0654 138.997 65.9055 138.95 65.7299C138.137 66.7944 137.282 67.933 136.442 69.1301C136.417 68.9175 136.333 68.7205 136.286 68.5449C135.641 66.491 133.783 64.8249 131.621 64.7143C132.032 66.8309 132.266 68.9946 132.273 71.1254C132.274 72.0659 131.921 73.7913 132.09 75.1258C123.92 86.535 114.131 101.263 104.817 117.652C94.1275 136.51 84.7961 155.757 78.1264 170.308C78.1479 170.271 78.1322 170.212 78.1536 170.175C78.3739 168.423 78.3717 166.542 77.523 165.013C77.0977 165.064 76.9148 165.552 76.8334 165.95C75.9073 169.867 75.0554 173.828 74.2407 177.809C74.2338 176.964 74.0728 176.129 73.6563 175.394C72.9502 174.047 71.2964 173.141 69.9176 173.73C70.1069 175.373 70.3547 177 70.8151 178.602C71.2186 179.873 71.7904 181.539 72.6035 182.701C72.0451 184.011 71.4709 185.263 71.0196 186.387C69.8213 184.607 67.6053 183.476 65.5043 183.945C66.4842 185.846 67.2827 187.89 67.8686 189.96C68.0625 190.566 68.175 191.571 68.3459 192.56C67.696 194.114 67.3575 194.958 67.3575 194.958C67.3575 194.958 41.068 268.424 86.1294 306.213C86.2836 306.203 73.0833 244.416 96.4243 201.846ZM178.128 56.0476C177.136 54.3375 177.15 52.515 178.183 51.9244C179.217 51.3339 180.812 52.255 181.825 53.928C182.816 55.638 182.803 57.4606 181.769 58.0511C180.736 58.6416 179.14 57.7206 178.128 56.0476Z" fill="white"/>
</g>
<path fill-rule="evenodd" clip-rule="evenodd" d="M222.467 188.538C221.641 188.921 220.744 189.136 219.832 189.167L231.371 214.683L180.765 277.238C181.552 277.724 182.205 278.347 182.714 279.059L233.955 215.719L234.471 215.081L234.133 214.334L222.467 188.538ZM143.44 222.037L174.327 276.852C173.521 277.226 172.784 277.759 172.166 278.438L140.655 222.514L140.187 221.684L140.822 220.974L198.48 156.452C198.819 157.295 199.343 158.069 200.036 158.704L143.44 222.037ZM206.587 159.882L214.657 177.725C215.291 177.049 216.047 176.523 216.87 176.162L208.809 158.339C208.181 159.023 207.419 159.543 206.587 159.882ZM276.325 180.874L226.153 184.19C226.398 183.306 226.456 182.395 226.342 181.511L276.15 178.219L276.325 180.874Z" fill="#BBBBBB"/>
<circle cx="204.389" cy="154.756" r="3.38758" transform="rotate(120 204.389 154.756)" fill="#BBBBBB"/>
<circle cx="176.65" cy="282.367" r="3.38758" transform="rotate(120 176.65 282.367)" fill="#BBBBBB"/>
<circle cx="219.222" cy="182.286" r="4.34662" transform="rotate(120 219.222 182.286)" fill="#BBBBBB"/>
<path d="M297.271 179.497L282.748 184.254L282.784 199.535L273.773 187.193L259.25 191.949L268.204 179.565L259.193 167.223L273.737 171.912L282.691 159.528L282.726 174.809L297.271 179.497Z" fill="white"/>
<path d="M157.865 220.089L147.145 223.6L147.171 234.881L140.519 225.77L129.798 229.281L136.408 220.139L129.756 211.028L140.493 214.489L147.102 205.347L147.128 216.628L157.865 220.089Z" fill="white"/>
<path d="M245.331 216.379L236.775 219.181L236.796 228.183L231.488 220.912L222.932 223.714L228.207 216.419L222.898 209.148L231.467 211.91L236.741 204.614L236.762 213.617L245.331 216.379Z" fill="white"/>
</svg>
