<svg width="313" height="362" viewBox="0 0 313 362" fill="none" xmlns="http://www.w3.org/2000/svg">
<path opacity="0.8" d="M99.9726 184.335C98.371 187.109 96.161 188.156 94.0966 186.964C92.8064 186.219 92.2402 184.717 92.6634 183.04C91.0115 185.355 88.383 186.332 85.9745 184.941C83.0069 183.228 82.5108 179.816 84.6587 176.096L88.2344 169.903L88.3204 169.952C88.8299 170.361 89.0755 170.532 90.4303 171.314L100.967 177.397C102.322 178.18 102.593 178.307 103.202 178.544L103.288 178.594L99.9726 184.335ZM87.2132 173.757L85.9096 176.015C84.7052 178.101 85.4069 180.313 87.6218 181.591C90.0088 182.97 92.2245 182.012 94.0006 179.482L94.3291 179.013L94.8883 179.335L94.7823 179.618C94.0934 181.457 94.222 183.022 95.8993 183.991C97.3186 184.81 98.7838 184.308 99.7274 182.674L100.46 181.405L87.2132 173.757ZM94.7887 193.314L89.3506 202.733L88.2324 202.087L88.2821 202.001C88.8199 201.566 89.0062 201.244 89.6269 200.169L91.9611 196.126L88.2838 194.003L85.7386 198.411L84.8354 197.89L87.3806 193.481L78.7143 188.478L75.9208 193.316C75.2628 194.456 75.1353 194.726 74.9415 195.36L74.8919 195.446L73.8382 194.838L79.7356 184.623L79.8216 184.673C80.331 185.082 80.5767 185.252 81.9315 186.034L92.4686 192.118C93.8234 192.9 94.0939 193.028 94.7027 193.264L94.7887 193.314ZM84.3109 211.462C82.163 215.182 79.0248 216.496 76.0572 214.782C72.7025 212.846 72.7452 208.799 74.5951 205.595C74.8186 205.208 75.0975 204.824 75.364 204.462L76.0091 204.834L75.8477 205.114C74.5192 207.415 75.1025 209.93 77.7475 211.457C80.328 212.947 82.4889 212.532 83.8174 210.231L84.6989 208.704L72.807 201.838C71.4522 201.056 71.1817 200.929 70.5729 200.692L70.4869 200.642L72.4734 197.202L72.5594 197.251C73.0689 197.66 73.3145 197.83 74.6693 198.613L85.2065 204.696C86.5613 205.478 86.8317 205.606 87.4405 205.843L87.5265 205.892L84.3109 211.462ZM79.8808 219.135L74.1696 229.027L73.1159 228.419L73.1655 228.333C73.6174 227.848 73.7879 227.603 74.4459 226.463L75.1908 225.173L63.2989 218.307C61.9871 217.55 61.7381 217.434 61.1599 217.244L61.04 217.203L60.954 217.154L62.9901 213.627L63.0762 213.677L63.1713 213.76C63.6253 214.166 63.8494 214.324 65.1612 215.081L77.0532 221.947L77.7981 220.657C78.4561 219.517 78.5836 219.247 78.7774 218.613L78.827 218.527L79.8808 219.135ZM53.3095 229.6C55.8672 225.17 61.43 223.679 65.86 226.237C70.2899 228.794 71.7804 234.357 69.2228 238.787C66.6652 243.217 61.1023 244.708 56.6724 242.15C52.2425 239.593 50.7519 234.03 53.3095 229.6ZM63.4764 229.62C59.4981 227.323 55.7274 227.498 54.2624 230.035C52.4621 233.153 55.3157 236.951 58.95 239.05C62.8638 241.309 66.6684 241.126 68.1458 238.567C69.9213 235.492 67.0891 231.706 63.4764 229.62ZM40.868 251.944L43.0904 248.094L43.1764 248.144C43.3054 248.219 43.4178 248.57 45.5718 249.011L58.0161 251.493L49.7931 241.7C48.3807 240.024 48.0606 239.982 47.9316 239.908L47.8455 239.858L48.6277 238.503L48.7137 238.553C48.8055 238.692 48.9643 239.013 50.3642 240.71L60.4031 252.872C59.9562 253.646 59.4983 254.786 59.6271 255.606L43.5977 252.43C41.4437 251.989 41.1203 252.003 40.954 251.993L40.868 251.944ZM54.8648 262.464L49.4268 271.883L48.3085 271.238L48.3582 271.152C48.8961 270.717 49.0823 270.394 49.7031 269.319L52.0372 265.276L48.3599 263.153L45.8147 267.561L44.9116 267.04L47.4568 262.631L38.7905 257.628L35.997 262.466C35.3389 263.606 35.2114 263.877 35.0177 264.51L34.968 264.596L33.9143 263.988L39.8117 253.773L39.8977 253.823C40.4072 254.232 40.6528 254.402 42.0076 255.184L52.5448 261.268C53.8995 262.05 54.17 262.178 54.7788 262.415L54.8648 262.464ZM57.04 266.444C57.5991 266.767 57.8545 267.516 57.4945 268.14C57.1717 268.699 56.3576 268.917 55.7985 268.594C55.1748 268.234 54.9997 267.445 55.3225 266.886C55.6826 266.262 56.4164 266.084 57.04 266.444ZM54.9294 270.1C55.467 270.41 55.7224 271.16 55.3623 271.783C55.0395 272.342 54.2254 272.561 53.6878 272.25C53.0642 271.89 52.8891 271.101 53.2119 270.542C53.5719 269.918 54.3057 269.74 54.9294 270.1ZM47.7889 274.72L42.0777 284.612L41.024 284.004L41.0737 283.918C41.5255 283.433 41.696 283.187 42.354 282.048L43.0989 280.757L31.207 273.892C29.8952 273.134 29.6463 273.019 29.0681 272.829L28.9481 272.788L28.8621 272.739L30.8983 269.212L30.9843 269.261L31.0794 269.345C31.5334 269.751 31.7576 269.909 33.0693 270.666L44.9613 277.532L45.7062 276.242C46.3642 275.102 46.4917 274.831 46.6855 274.198L46.7352 274.112L47.7889 274.72Z" fill="#F6F1FF"/>
<path opacity="0.5" d="M69.3748 177.914L61.6991 173.483L62.0598 172.858L68.9427 176.832L69.3713 174.307L69.9646 174.65L69.4354 177.809L69.3748 177.914ZM59.3715 183.213L58.836 182.904L61.9611 177.491L62.3234 177.7L65.6333 184.322L65.3302 184.847L64.4638 183.353L62.0541 178.566L59.3715 183.213ZM65.2362 185.01L57.592 180.596L57.9527 179.972L65.5969 184.385L65.2362 185.01ZM55.804 189.392L55.2685 189.083L58.3936 183.67L58.7558 183.879L62.0657 190.501L61.7626 191.026L60.8963 189.532L58.4865 184.746L55.804 189.392ZM61.6687 191.189L54.0245 186.775L54.3852 186.151L62.0294 190.564L61.6687 191.189ZM59.1055 192.852C59.3435 192.989 59.5289 193.173 59.6618 193.404C59.7926 193.638 59.8601 193.885 59.8645 194.144C59.8703 194.409 59.8056 194.658 59.6702 194.893C59.5348 195.127 59.353 195.305 59.1249 195.425C58.8982 195.551 58.6528 195.612 58.3887 195.609C58.1225 195.609 57.8704 195.541 57.6324 195.403C57.3909 195.264 57.2055 195.08 57.0761 194.851C56.9448 194.626 56.877 194.384 56.8726 194.125C56.8662 193.869 56.9307 193.624 57.0661 193.389C57.2015 193.155 57.3835 192.973 57.6122 192.844C57.8388 192.718 58.0845 192.652 58.3492 192.646C58.6119 192.644 58.864 192.712 59.1055 192.852ZM58.8357 193.319C58.5977 193.182 58.3563 193.147 58.1113 193.216C57.8664 193.284 57.6772 193.434 57.5439 193.665C57.4105 193.896 57.3774 194.131 57.4445 194.371C57.5116 194.61 57.6641 194.799 57.9022 194.936C58.1402 195.073 58.3814 195.112 58.6258 195.053C58.8702 194.993 59.059 194.848 59.1924 194.617C59.3258 194.386 59.3592 194.146 59.2926 193.898C59.226 193.649 59.0738 193.456 58.8357 193.319ZM52.0316 200.57L50.7453 199.827C50.1853 199.504 49.7273 199.169 49.3715 198.824C49.0191 198.48 48.765 198.128 48.6092 197.768C48.4549 197.413 48.3951 197.051 48.4298 196.684C48.4625 196.32 48.5859 195.953 48.8001 195.582C48.9699 195.288 49.1675 195.043 49.3929 194.846C49.6184 194.65 49.8724 194.505 50.1551 194.411C50.4392 194.323 50.7509 194.288 51.0902 194.307C51.4295 194.326 51.7961 194.402 52.19 194.536C52.5875 194.672 53.0102 194.869 53.4582 195.128L54.7445 195.871C55.308 196.196 55.7642 196.529 56.1131 196.871C56.4599 197.216 56.7105 197.566 56.8648 197.921C57.0171 198.28 57.0742 198.641 57.036 199.007C57.0012 199.374 56.8778 199.741 56.6656 200.109C56.4959 200.403 56.2965 200.647 56.0676 200.842C55.8401 201.042 55.5878 201.188 55.3107 201.28C55.0315 201.375 54.7233 201.412 54.386 201.39C54.0502 201.373 53.6864 201.296 53.2945 201.159C52.9006 201.025 52.4796 200.828 52.0316 200.57ZM51.0325 199.16L52.471 199.99C52.8175 200.19 53.1467 200.348 53.4585 200.462C53.7683 200.581 54.0562 200.656 54.3222 200.688C54.5883 200.72 54.8335 200.708 55.0578 200.651C55.2801 200.597 55.4798 200.498 55.6569 200.353C55.8355 200.213 55.9915 200.028 56.1248 199.797C56.2885 199.513 56.3753 199.23 56.385 198.946C56.3963 198.668 56.3314 198.392 56.1902 198.119C56.0526 197.849 55.8387 197.581 55.5486 197.315C55.2565 197.053 54.8935 196.797 54.4595 196.546L53.0209 195.716C52.6779 195.518 52.3515 195.36 52.0418 195.241C51.7355 195.125 51.4466 195.052 51.175 195.021C50.9034 194.99 50.653 195 50.4237 195.049C50.1959 195.104 49.9909 195.201 49.8088 195.338C49.6282 195.481 49.4722 195.667 49.3409 195.894C49.1732 196.185 49.0854 196.47 49.0777 196.75C49.0734 197.032 49.1436 197.311 49.2882 197.586C49.4364 197.863 49.6565 198.132 49.9486 198.394C50.2442 198.658 50.6055 198.913 51.0325 199.16ZM48.464 206.749L47.1778 206.006C46.6178 205.683 46.1598 205.348 45.8039 205.003C45.4515 204.659 45.1974 204.307 45.0416 203.947C44.8873 203.592 44.8275 203.23 44.8622 202.863C44.8949 202.499 45.0184 202.132 45.2326 201.761C45.4023 201.467 45.5999 201.222 45.8254 201.025C46.0508 200.829 46.3049 200.684 46.5875 200.59C46.8717 200.502 47.1834 200.468 47.5227 200.486C47.862 200.505 48.2286 200.581 48.6225 200.715C49.0199 200.851 49.4426 201.049 49.8906 201.307L51.1769 202.05C51.7404 202.375 52.1966 202.709 52.5455 203.05C52.8924 203.395 53.143 203.745 53.2973 204.1C53.4496 204.459 53.5066 204.821 53.4684 205.186C53.4337 205.553 53.3102 205.921 53.0981 206.288C52.9283 206.582 52.729 206.826 52.5 207.021C52.2725 207.221 52.0202 207.367 51.7431 207.459C51.464 207.554 51.1558 207.591 50.8185 207.569C50.4827 207.553 50.1188 207.475 49.7269 207.338C49.333 207.204 48.912 207.007 48.464 206.749ZM47.465 205.339L48.9035 206.169C49.25 206.369 49.5792 206.527 49.891 206.642C50.2007 206.76 50.4886 206.835 50.7547 206.867C51.0207 206.899 51.2659 206.887 51.4903 206.83C51.7126 206.776 51.9123 206.677 52.0894 206.532C52.268 206.392 52.4239 206.207 52.5573 205.976C52.721 205.692 52.8077 205.409 52.8175 205.125C52.8288 204.847 52.7638 204.571 52.6227 204.299C52.485 204.028 52.2712 203.76 51.9811 203.494C51.689 203.232 51.3259 202.976 50.8919 202.725L49.4534 201.895C49.1104 201.697 48.784 201.539 48.4742 201.421C48.168 201.304 47.879 201.231 47.6075 201.2C47.3359 201.169 47.0855 201.179 46.8562 201.228C46.6283 201.283 46.4234 201.38 46.2413 201.517C46.0607 201.66 45.9047 201.846 45.7733 202.073C45.6056 202.364 45.5179 202.649 45.5101 202.929C45.5059 203.211 45.576 203.49 45.7207 203.765C45.8689 204.042 46.089 204.311 46.3811 204.573C46.6767 204.837 47.038 205.092 47.465 205.339ZM50.7102 211.139L50.1065 210.791C49.893 210.668 49.7001 210.517 49.528 210.338C49.3558 210.159 49.2111 209.961 49.0937 209.744C48.9779 209.533 48.8934 209.311 48.8403 209.08L49.3285 208.865C49.456 209.153 49.6051 209.4 49.7756 209.606C49.9496 209.814 50.1749 209.997 50.4514 210.157L51.0709 210.515L50.7102 211.139ZM49.9706 212.42L49.3669 212.072C49.1534 211.949 48.9605 211.798 48.7884 211.619C48.6162 211.44 48.4715 211.242 48.3541 211.025C48.2383 210.814 48.1538 210.592 48.1007 210.361L48.5889 210.146C48.7164 210.434 48.8655 210.681 49.036 210.887C49.21 211.095 49.4353 211.278 49.7118 211.438L50.3313 211.796L49.9706 212.42ZM40.4808 219.8L39.94 219.488L42.9773 214.227L43.518 214.54L40.4808 219.8ZM36.9942 225.9L36.6244 226.54C36.3981 226.932 36.2756 227.298 36.2571 227.637C36.24 227.982 36.3051 228.286 36.4523 228.548C36.5975 228.814 36.8066 229.025 37.0796 229.183C37.3876 229.361 37.6904 229.459 37.9881 229.477C38.2893 229.497 38.5734 229.425 38.8403 229.262C39.1087 229.104 39.349 228.841 39.5612 228.474C39.7471 228.152 39.8498 227.828 39.8693 227.504C39.8887 227.179 39.8237 226.875 39.674 226.593C39.5244 226.311 39.2868 226.075 38.9613 225.887L39.322 225.263C39.7386 225.503 40.0467 225.814 40.2465 226.195C40.4499 226.579 40.5397 226.997 40.5162 227.45C40.4926 227.903 40.3545 228.349 40.1019 228.786C39.8412 229.238 39.5327 229.582 39.1762 229.82C38.8177 230.061 38.4284 230.181 38.0083 230.181C37.5862 230.185 37.1494 230.056 36.6979 229.796C36.4669 229.662 36.2687 229.48 36.1033 229.249C35.9358 229.022 35.8177 228.758 35.7489 228.457C35.6835 228.158 35.6805 227.832 35.7397 227.479C35.7989 227.125 35.9397 226.756 36.162 226.371L36.5742 225.657L36.9942 225.9ZM36.4534 225.588L36.8682 225.827L36.456 226.541C36.2034 226.979 35.9364 227.324 35.655 227.577C35.3772 227.832 35.0897 228.006 34.7925 228.101C34.4968 228.201 34.2026 228.229 33.9101 228.186C33.6175 228.143 33.3347 228.043 33.0617 227.885C32.7117 227.683 32.4353 227.447 32.2325 227.176C32.0297 226.905 31.8954 226.608 31.8296 226.285C31.7654 225.968 31.7671 225.638 31.8348 225.294C31.904 224.956 32.0366 224.617 32.2326 224.278C32.4104 223.97 32.6297 223.695 32.8905 223.453C33.1492 223.215 33.4355 223.031 33.7494 222.899C34.0648 222.773 34.3984 222.721 34.7502 222.742C35.1055 222.765 35.4634 222.881 35.8239 223.089L35.4632 223.714C35.1412 223.528 34.8115 223.44 34.4741 223.451C34.1401 223.463 33.8244 223.566 33.5267 223.758C33.2306 223.956 32.9795 224.233 32.7734 224.59C32.5652 224.95 32.4486 225.294 32.4236 225.62C32.4001 225.952 32.4697 226.256 32.6324 226.532C32.7951 226.807 33.0514 227.046 33.4014 227.249C33.7689 227.461 34.1157 227.551 34.4417 227.52C34.7656 227.492 35.0657 227.365 35.3419 227.137C35.6161 226.912 35.8634 226.61 36.0836 226.228L36.4534 225.588ZM31.8844 235.466L30.5981 234.723C30.0381 234.4 29.5801 234.065 29.2243 233.72C28.8719 233.376 28.6178 233.024 28.462 232.664C28.3077 232.309 28.2479 231.947 28.2826 231.58C28.3153 231.216 28.4387 230.849 28.6529 230.478C28.8227 230.184 29.0203 229.939 29.2457 229.742C29.4712 229.546 29.7252 229.401 30.0079 229.307C30.292 229.219 30.6037 229.184 30.943 229.203C31.2823 229.222 31.6489 229.298 32.0428 229.432C32.4403 229.568 32.863 229.765 33.311 230.024L34.5973 230.767C35.1608 231.092 35.617 231.425 35.9659 231.767C36.3127 232.112 36.5633 232.462 36.7176 232.817C36.8699 233.176 36.927 233.537 36.8888 233.903C36.854 234.27 36.7306 234.637 36.5184 235.005C36.3487 235.299 36.1493 235.543 35.9204 235.738C35.6929 235.938 35.4406 236.084 35.1634 236.176C34.8843 236.271 34.5761 236.308 34.2388 236.286C33.903 236.269 33.5392 236.192 33.1473 236.055C32.7534 235.921 32.3324 235.724 31.8844 235.466ZM30.8853 234.056L32.3238 234.886C32.6703 235.086 32.9995 235.244 33.3113 235.358C33.6211 235.477 33.909 235.552 34.175 235.584C34.4411 235.616 34.6863 235.604 34.9106 235.547C35.1329 235.493 35.3326 235.394 35.5097 235.249C35.6883 235.109 35.8443 234.924 35.9776 234.693C36.1413 234.409 36.2281 234.126 36.2378 233.842C36.2491 233.564 36.1842 233.288 36.043 233.015C35.9054 232.745 35.6915 232.477 35.4014 232.211C35.1093 231.949 34.7463 231.693 34.3123 231.442L32.8737 230.612C32.5307 230.414 32.2043 230.256 31.8946 230.137C31.5883 230.021 31.2994 229.948 31.0278 229.917C30.7562 229.886 30.5058 229.896 30.2765 229.945C30.0487 230 29.8437 230.097 29.6616 230.234C29.481 230.377 29.325 230.563 29.1937 230.79C29.026 231.081 28.9382 231.366 28.9305 231.646C28.9262 231.928 28.9964 232.207 29.141 232.482C29.2892 232.759 29.5093 233.028 29.8014 233.29C30.097 233.554 30.4583 233.809 30.8853 234.056ZM32.9205 238.206C33.1585 238.343 33.3439 238.527 33.4767 238.758C33.6075 238.992 33.6751 239.239 33.6795 239.498C33.6853 239.762 33.6205 240.012 33.4852 240.247C33.3498 240.481 33.168 240.658 32.9399 240.779C32.7132 240.905 32.4678 240.966 32.2037 240.963C31.9375 240.963 31.6854 240.895 31.4474 240.757C31.2059 240.618 31.0205 240.434 30.8911 240.205C30.7598 239.98 30.6919 239.738 30.6876 239.478C30.6812 239.223 30.7457 238.978 30.8811 238.743C31.0165 238.509 31.1985 238.327 31.4272 238.197C31.6538 238.072 31.8995 238.006 32.1642 238C32.4269 237.998 32.679 238.066 32.9205 238.206ZM32.6507 238.673C32.4127 238.535 32.1713 238.501 31.9263 238.57C31.6814 238.638 31.4922 238.788 31.3589 239.019C31.2255 239.25 31.1924 239.485 31.2595 239.725C31.3266 239.964 31.4791 240.152 31.7171 240.29C31.9551 240.427 32.1963 240.466 32.4407 240.407C32.6851 240.347 32.874 240.202 33.0074 239.971C33.1408 239.74 33.1742 239.5 33.1076 239.252C33.041 239.003 32.8887 238.81 32.6507 238.673ZM25.8466 245.923L24.5603 245.181C24.0003 244.857 23.5423 244.523 23.1865 244.178C22.8341 243.834 22.58 243.482 22.4242 243.121C22.2699 242.766 22.2101 242.405 22.2448 242.038C22.2775 241.674 22.4009 241.307 22.6151 240.936C22.7849 240.642 22.9825 240.396 23.2079 240.2C23.4334 240.003 23.6874 239.858 23.9701 239.765C24.2542 239.677 24.5659 239.642 24.9052 239.661C25.2445 239.679 25.6111 239.756 26.005 239.89C26.4025 240.026 26.8252 240.223 27.2732 240.482L28.5595 241.225C29.123 241.55 29.5792 241.883 29.9281 242.225C30.2749 242.57 30.5255 242.92 30.6798 243.275C30.8321 243.633 30.8892 243.995 30.851 244.361C30.8162 244.728 30.6928 245.095 30.4806 245.463C30.3109 245.757 30.1115 246.001 29.8825 246.195C29.6551 246.395 29.4028 246.542 29.1256 246.634C28.8465 246.729 28.5383 246.766 28.201 246.744C27.8652 246.727 27.5014 246.65 27.1095 246.512C26.7156 246.378 26.2946 246.182 25.8466 245.923ZM24.8475 244.514L26.286 245.344C26.6325 245.544 26.9617 245.701 27.2735 245.816C27.5833 245.934 27.8712 246.01 28.1372 246.042C28.4033 246.074 28.6485 246.062 28.8728 246.005C29.0951 245.951 29.2948 245.851 29.4719 245.706C29.6505 245.567 29.8065 245.382 29.9398 245.151C30.1035 244.867 30.1903 244.583 30.2 244.3C30.2113 244.022 30.1464 243.746 30.0052 243.473C29.8676 243.202 29.6537 242.934 29.3636 242.669C29.0715 242.407 28.7085 242.151 28.2745 241.9L26.8359 241.069C26.4929 240.871 26.1665 240.713 25.8568 240.595C25.5505 240.479 25.2616 240.406 24.99 240.375C24.7184 240.344 24.468 240.353 24.2387 240.403C24.0109 240.458 23.8059 240.554 23.6238 240.692C23.4432 240.835 23.2872 241.02 23.1559 241.248C22.9882 241.538 22.9004 241.824 22.8927 242.104C22.8884 242.386 22.9586 242.665 23.1032 242.939C23.2514 243.216 23.4715 243.486 23.7636 243.748C24.0592 244.012 24.4205 244.267 24.8475 244.514ZM22.279 252.103L20.9928 251.36C20.4327 251.037 19.9748 250.702 19.6189 250.357C19.2665 250.013 19.0124 249.661 18.8566 249.301C18.7023 248.945 18.6425 248.584 18.6772 248.217C18.7099 247.853 18.8334 247.486 19.0476 247.115C19.2173 246.821 19.4149 246.576 19.6404 246.379C19.8658 246.183 20.1199 246.038 20.4025 245.944C20.6867 245.856 20.9984 245.821 21.3377 245.84C21.677 245.858 22.0436 245.935 22.4375 246.069C22.8349 246.205 23.2576 246.402 23.7056 246.661L24.9919 247.404C25.5554 247.729 26.0116 248.062 26.3605 248.404C26.7074 248.749 26.958 249.099 27.1123 249.454C27.2646 249.813 27.3216 250.174 27.2834 250.54C27.2487 250.907 27.1252 251.274 26.9131 251.642C26.7433 251.936 26.544 252.18 26.315 252.375C26.0875 252.575 25.8352 252.721 25.5581 252.813C25.279 252.908 24.9708 252.945 24.6335 252.923C24.2977 252.906 23.9338 252.829 23.5419 252.692C23.148 252.558 22.727 252.361 22.279 252.103ZM21.28 250.693L22.7185 251.523C23.065 251.723 23.3942 251.881 23.7059 251.995C24.0157 252.114 24.3036 252.189 24.5697 252.221C24.8357 252.253 25.0809 252.241 25.3052 252.184C25.5276 252.13 25.7273 252.031 25.9044 251.886C26.083 251.746 26.2389 251.561 26.3723 251.33C26.536 251.046 26.6227 250.763 26.6325 250.479C26.6438 250.201 26.5788 249.925 26.4377 249.652C26.3 249.382 26.0861 249.113 25.7961 248.848C25.504 248.586 25.1409 248.33 24.7069 248.079L23.2684 247.249C22.9254 247.051 22.599 246.892 22.2892 246.774C21.9829 246.658 21.694 246.585 21.4225 246.554C21.1509 246.523 20.9005 246.533 20.6711 246.582C20.4433 246.637 20.2384 246.734 20.0563 246.871C19.8757 247.014 19.7197 247.199 19.5883 247.427C19.4206 247.718 19.3329 248.003 19.3251 248.283C19.3208 248.565 19.391 248.844 19.5357 249.119C19.6838 249.396 19.904 249.665 20.1961 249.927C20.4917 250.191 20.853 250.446 21.28 250.693ZM24.5252 256.493L23.9215 256.145C23.7079 256.021 23.5151 255.87 23.343 255.692C23.1708 255.513 23.0261 255.315 22.9087 255.098C22.7929 254.886 22.7084 254.665 22.6553 254.434L23.1435 254.218C23.271 254.507 23.4201 254.754 23.5906 254.96C23.7646 255.167 23.9899 255.351 24.2664 255.511L24.8859 255.868L24.5252 256.493ZM23.7856 257.774L23.1819 257.426C22.9683 257.302 22.7755 257.151 22.6034 256.973C22.4312 256.794 22.2865 256.596 22.1691 256.379C22.0533 256.167 21.9688 255.946 21.9157 255.715L22.4039 255.499C22.5314 255.788 22.6805 256.035 22.851 256.241C23.025 256.448 23.2503 256.632 23.5268 256.792L24.1463 257.149L23.7856 257.774Z" fill="#BBBBBB"/>
<g opacity="0.2">
<path d="M221.215 68.6428C220.21 69.3611 219.243 70.2189 218.541 71.2301C215.519 75.0331 214.226 80.5428 212.897 85.9128C211.928 89.839 211.011 93.6767 211.071 97.2525C211.111 99.6363 211.556 102.136 212.468 105.259C213.88 109.969 215.602 113.324 217.709 115.603C221.457 119.538 227.917 121.025 232.985 118.993C234.014 118.643 234.307 118.34 234.497 118.214C234.79 117.911 235.288 117.254 235.543 116.811C236.194 115.889 236.756 114.915 237.318 113.941C238.23 97.2339 233.535 80.8316 221.215 68.6428Z" fill="white"/>
<path d="M82.4465 318.197C87.9945 316.561 93.7296 315.623 98.8013 312.767C101.038 314.413 103.507 315.248 106.333 315.463C109.71 320.245 113.175 325.079 116.45 330.038C117.924 332.188 119.521 332.284 120.734 330.387C122.049 328.314 127.716 328.516 124.553 323.976C121.303 319.384 117.95 314.97 114.508 310.504C114.852 310.112 115.145 309.809 115.438 309.506C122.287 309.093 128.7 306.776 135.048 304.776C139.112 303.462 135.476 299.947 135.538 297.386C135.61 295.421 134.664 294.402 132.29 295.039C127.263 296.385 122.073 297.402 117.008 298.609C116.637 299.457 116.051 300.063 115.213 300.288C115.073 300.325 114.934 300.363 114.845 300.311C114.808 300.172 114.733 299.893 114.695 299.753C115.496 299.389 116.208 298.973 117.008 298.609C133.441 272.804 149.963 247.051 166.344 221.334C168.566 217.895 170.148 212.907 173.247 211.627C176.626 210.273 180.295 214.753 183.697 216.834C186.53 218.47 187.977 218.007 190.13 215.709C197.952 207.477 206.076 199.538 214.075 191.409C215.298 190.108 216.283 188.198 218.636 189.438C222.057 192.712 225.567 196.037 229.04 199.222C230.037 200.152 231.225 200.956 230.077 202.536C226.633 207.275 224.693 212.884 220.084 217.187C199.495 236.697 182.038 258.96 166.818 282.868C164.904 285.776 161.268 290.641 163.556 292.198C166.856 294.457 169.769 289.411 172.075 286.847C192.396 264.94 211.021 242.289 226.109 216.77C226.926 215.353 227.376 213.961 229.747 214.149C240.521 214.704 250.384 203.755 247.843 193.435C246.772 189.158 247.998 187.033 250.407 184.292C269.801 162.558 285.277 138.207 298.022 112.043C299.364 109.513 302.121 105.557 299.516 103.935C297.265 102.518 294.509 106.474 292.584 108.786C275.284 129.959 260.627 152.894 248.042 177.144C245.139 182.786 242.301 188.111 237.375 192.349C235.542 193.888 234.82 193.707 233.343 192.382C230.35 189.592 227.307 186.89 224.263 184.189C222.262 180.909 225.613 180.011 227.013 178.812C234.967 172.191 237.476 163.961 233.042 154.673C229.9 148.256 230.788 142.63 232.932 136.668C233.266 135.68 233.549 134.782 233.883 133.794C224.517 135.705 214.121 132.654 207.445 125.612C203.608 121.627 200.818 116.238 198.756 109.383C197.419 104.952 196.865 101.209 196.768 97.4933C196.678 92.1297 197.943 87.0763 198.989 82.6052C200.203 77.6404 201.663 71.637 204.781 66.2369C205.547 64.909 206.402 63.6323 207.397 62.3181C208.188 61.358 208.978 60.3979 209.894 59.6285C191.066 48.2856 173.125 59.5282 157.364 74.1531C152.721 66.0432 148.079 57.9332 143.296 49.8607C142.177 47.9158 142.259 46.5468 143.281 44.7763C149.21 34.5073 157.998 28.4858 169.832 27.41C175.819 26.8534 181.659 27.9825 187.305 30.0617C190.533 31.2172 193.125 29.9988 194.318 26.9104C195.409 23.9991 194.442 21.7886 191.419 20.279C172.746 10.9148 146.658 18.2793 136.231 36.3387C113.603 75.3276 91.1514 114.419 68.6117 153.459C66.7206 156.734 66.4029 159.738 69.995 161.694C73.3216 163.496 75.8013 161.859 77.4506 158.798C80.2754 153.701 83.4031 148.897 86.0509 143.698C87.7138 140.408 89.6176 139.973 92.873 140.672C100.702 142.241 108.558 143.354 116.451 144.606C116.938 146.422 115.929 147.964 115.517 149.496C108.559 171.565 109.71 192.06 126.698 209.658C131.267 214.42 131.66 220.077 129.363 226.305C120.651 249.367 112.079 272.392 103.418 295.366C103.353 295.683 103.2 295.949 103.135 296.265C103.135 296.265 103.084 296.354 102.995 296.303C102.972 295.935 103.125 295.669 103.418 295.366C99.6424 291.888 97.1646 287.389 94.3428 283.281C92.0247 279.936 90.4476 281.032 88.0802 283.088C85.9034 285.018 82.627 286.196 86.021 289.926C89.7555 294.088 92.9689 298.54 96.4615 302.918C96.3967 303.234 96.2808 303.639 96.1275 303.905C90.9746 305.061 85.9103 306.269 80.6689 307.374C77.9783 307.945 77.3513 309.235 78.253 311.763C78.7157 313.21 79.0387 314.695 79.3106 316.268C79.6711 317.893 80.4404 318.809 82.4465 318.197ZM99.7475 123.041C110.532 104.362 121.367 85.5943 132.152 66.9152C133.378 64.7906 135.375 60.5139 137.526 64.3526C139.477 67.7213 141.376 71.1784 143.517 74.4211C145.28 77.0916 146.457 80.3681 149.188 82.1806C149.63 82.4362 149.985 82.6406 150.427 82.8962C138.261 98.6529 128.397 115.738 120.834 134.153C120.068 132.412 118.104 132.34 116.52 132.016C111.998 131.058 107.462 130.328 102.926 129.597C96.8068 128.543 96.732 128.264 99.7475 123.041Z" fill="white"/>
</g>
<path fill-rule="evenodd" clip-rule="evenodd" d="M278.164 138.556L238.695 200.816L237.919 202.041L236.765 201.162L217.187 186.233C217.813 185.767 218.356 185.169 218.771 184.451C218.819 184.368 218.864 184.284 218.908 184.2L237.225 198.167L275.917 137.132L278.164 138.556ZM208.558 178.555C208.233 179.119 208.011 179.714 207.887 180.319L156.122 154.334C156.355 154.062 156.566 153.765 156.752 153.443C157.024 152.972 157.224 152.478 157.354 151.976L208.848 177.824L170.15 124.297L156.74 147.524C156.282 146.737 155.635 146.046 154.821 145.527L168.873 121.188L169.9 119.41L171.103 121.074L210.99 176.247C210.006 176.747 209.151 177.528 208.558 178.555Z" fill="#BBBBBB"/>
<circle cx="213.283" cy="182.365" r="3.04262" transform="rotate(120 213.283 182.365)" fill="#BBBBBB"/>
<circle cx="152.151" cy="150.583" r="3.04262" transform="rotate(120 152.151 150.583)" fill="#BBBBBB"/>
<path d="M177.855 126.236L171.7 124.928L168.555 130.377L167.897 124.119L161.743 122.811L167.49 120.252L166.833 113.995L171.043 118.671L176.791 116.111L173.645 121.56L177.855 126.236Z" fill="white"/>
<path d="M286.434 144.602L278.117 142.835L273.866 150.198L272.977 141.742L264.661 139.974L272.428 136.516L271.539 128.06L277.229 134.379L284.996 130.921L280.745 138.284L286.434 144.602Z" fill="white"/>
<path d="M246.219 204.894L239.566 203.48L236.165 209.37L235.454 202.606L228.801 201.191L235.015 198.425L234.304 191.66L238.855 196.715L245.069 193.948L241.668 199.839L246.219 204.894Z" fill="white"/>
</svg>
