<svg width="311" height="329" viewBox="0 0 311 329" fill="none" xmlns="http://www.w3.org/2000/svg">
<path opacity="0.8" d="M173.019 310.934L175.005 307.494L175.091 307.543C175.506 307.869 175.751 308.039 176.406 308.446C179.488 304.347 183.847 302.907 187.438 304.98C191.008 307.041 191.939 311.536 189.91 316.243C190.589 316.606 190.86 316.733 191.349 316.93L191.435 316.979L189.448 320.42L189.362 320.37C188.948 320.045 188.702 319.875 188.048 319.468C184.965 323.566 180.607 325.007 177.016 322.933C173.446 320.872 172.514 316.378 174.543 311.671C173.864 311.308 173.594 311.18 173.105 310.984L173.019 310.934ZM179.177 319.737C182.187 321.475 185.13 321.195 187.188 318.972L175.425 312.18C174.593 315.112 175.951 317.874 179.177 319.737ZM189.029 315.733C189.861 312.802 188.503 310.039 185.277 308.177C182.266 306.439 179.324 306.718 177.266 308.942L189.029 315.733ZM181.077 300.155L183.498 295.962L183.541 295.987C183.991 296.103 184.912 295.946 186.345 295.799L194.905 294.978L190.976 287.778C190.325 286.571 189.95 285.78 189.6 285.492L189.557 285.468L190.29 284.199L190.376 284.248C190.561 284.871 190.903 285.47 191.575 286.69L197.701 297.882C199.564 301.309 199.818 303.205 198.899 304.796C197.856 306.602 195.919 307.176 194.22 306.195C192.522 305.214 192.241 303.217 193.085 301.755C193.507 301.024 194.234 300.411 195.122 300.064L195.355 300.456C194.873 300.694 194.551 301.053 194.34 301.418C193.732 302.472 194.208 303.435 195.004 303.895C195.842 304.379 197.059 304.307 197.73 303.146C198.164 302.393 198.253 301.097 197.291 299.337L196.729 298.324L184.002 299.808C182.557 299.977 181.82 300.011 181.163 300.205L181.077 300.155ZM190.659 283.559L196.37 273.667L197.424 274.275L197.374 274.361C196.923 274.846 196.752 275.091 196.094 276.231L195.349 277.521L207.241 284.387C208.553 285.145 208.802 285.26 209.38 285.45L209.5 285.491L209.586 285.54L207.55 289.067L207.464 289.017L207.369 288.934C206.915 288.528 206.691 288.37 205.379 287.613L193.487 280.747L192.742 282.037C192.084 283.177 191.956 283.448 191.763 284.081L191.713 284.167L190.659 283.559ZM197.55 271.624L203.199 261.839L204.253 262.448L204.203 262.534C203.751 263.018 203.581 263.264 202.923 264.404L200.377 268.812L213.624 276.46L214.444 275.041C215.871 272.568 214.558 270.175 212.536 269.008C210.45 267.804 207.586 267.899 206.058 270.544L205.885 270.845L205.239 270.472C205.473 269.919 205.715 269.4 206.013 268.883C207.789 265.808 210.74 263.727 214.008 265.614C217.341 267.539 217.966 271.025 215.67 275.003L212.603 280.315L212.517 280.265C212.007 279.856 211.762 279.686 210.407 278.904L199.87 272.82C198.515 272.038 198.245 271.91 197.636 271.674L197.55 271.624ZM225.547 258.689C222.99 263.119 217.427 264.609 212.997 262.052C208.567 259.494 207.077 253.931 209.634 249.501C212.192 245.072 217.755 243.581 222.185 246.139C226.614 248.696 228.105 254.259 225.547 258.689ZM215.381 258.668C219.359 260.965 223.13 260.791 224.595 258.254C226.395 255.135 223.541 251.337 219.907 249.239C215.993 246.98 212.189 247.163 210.711 249.722C208.936 252.797 211.768 256.583 215.381 258.668ZM237.989 236.345L235.767 240.194L235.681 240.145C235.552 240.07 235.439 239.718 233.285 239.278L220.841 236.795L229.064 246.589C230.476 248.265 230.796 248.306 230.925 248.381L231.011 248.43L230.229 249.785L230.143 249.736C230.051 249.597 229.893 249.276 228.493 247.578L218.454 235.417C218.901 234.643 219.359 233.502 219.23 232.683L235.259 235.858C237.413 236.299 237.737 236.285 237.903 236.295L237.989 236.345ZM223.992 225.824L226.003 222.341L226.089 222.39C226.574 222.842 226.82 223.013 228.175 223.795L240.066 230.661L240.886 229.241C242.314 226.768 241 224.376 238.979 223.209C236.893 222.004 234.028 222.099 232.501 224.744L232.327 225.045L231.682 224.673C231.915 224.12 232.158 223.6 232.456 223.084C234.231 220.009 237.182 217.928 240.45 219.815C243.784 221.739 244.409 225.225 242.112 229.204L239.045 234.515L238.959 234.466C238.45 234.057 238.204 233.886 236.849 233.104L226.312 227.021C224.957 226.238 224.687 226.111 224.078 225.874L223.992 225.824ZM237.138 203.055L239.149 199.571L239.235 199.621C239.745 200.03 239.99 200.2 241.345 200.983L251.882 207.066C253.237 207.848 253.508 207.976 254.116 208.213L254.202 208.262L252.191 211.746L252.105 211.696C251.62 211.245 251.375 211.074 250.02 210.292L242.709 206.071L239.232 212.092L246.544 216.313C247.898 217.095 248.169 217.223 248.803 217.417L248.889 217.466L246.877 220.95L246.791 220.9C246.282 220.491 246.036 220.321 244.681 219.539L234.144 213.455C232.789 212.673 232.519 212.546 231.91 212.309L231.824 212.259L233.835 208.775L233.921 208.825C234.406 209.277 234.652 209.447 236.007 210.23L238.329 211.57L241.805 205.549L239.483 204.208C238.128 203.426 237.858 203.299 237.224 203.105L237.138 203.055ZM248.687 183.052L250.673 179.611L250.759 179.661C251.269 180.07 251.515 180.24 252.654 180.898L263.622 187.23C264.761 187.888 265.032 188.016 265.641 188.252L265.727 188.302L263.74 191.743L263.654 191.693C263.145 191.284 262.899 191.114 261.759 190.456L250.792 184.124C249.652 183.466 249.382 183.338 248.773 183.101L248.687 183.052ZM256.067 205.032L255.981 204.983C255.472 204.574 255.226 204.403 254.086 203.745L243.119 197.414C241.979 196.755 241.709 196.628 241.1 196.391L241.014 196.342L243.025 192.858L243.111 192.908C243.596 193.359 243.842 193.53 244.981 194.188L257.088 201.178L257.908 199.759C259.336 197.286 258.022 194.893 256.001 193.726C253.915 192.521 251.05 192.616 249.523 195.261L249.349 195.562L248.704 195.19C248.937 194.637 249.18 194.117 249.478 193.601C251.253 190.526 254.204 188.445 257.472 190.332C260.806 192.256 261.431 195.743 259.134 199.721L256.067 205.032ZM252.678 176.138L254.69 172.655L254.776 172.704C255.26 173.156 255.506 173.327 256.861 174.109L265.183 178.914L259.941 163.558L260.339 162.87C260.885 163.415 261.207 163.601 264.54 165.525L273.035 170.43C274.389 171.212 274.66 171.339 275.269 171.576L275.355 171.626L273.343 175.109L273.257 175.06C272.773 174.608 272.527 174.437 271.172 173.655L262.85 168.85L268.092 184.206L267.694 184.894C267.148 184.349 266.826 184.163 265.751 183.542L254.998 177.335C253.644 176.552 253.373 176.425 252.764 176.188L252.678 176.138ZM250.317 169.7L251.211 168.152L251.232 168.164C251.727 168.45 252.201 168.523 252.648 168.494C253.286 168.432 253.854 168.043 254.239 167.377C254.872 166.28 254.572 165.161 253.396 164.367L254.29 162.819C255.909 163.839 256.309 165.877 255.142 167.898C253.975 169.92 252.01 170.592 250.317 169.7ZM267.044 151.256L267.789 149.966L281.857 149.486L275.363 136.848L276.108 135.558C276.617 135.967 276.863 136.137 278.002 136.795L288.841 143.053C290.195 143.835 290.466 143.962 291.075 144.199L291.161 144.249L289.149 147.733L289.063 147.683C288.579 147.231 288.333 147.061 286.978 146.278L279.022 141.685L284.857 153.082L284.844 153.103L273.305 153.523L280.423 157.633C281.778 158.415 282.048 158.542 282.682 158.736L282.768 158.786L282.097 159.947L282.011 159.897C281.502 159.489 281.256 159.318 279.901 158.536L269.063 152.278C267.923 151.62 267.653 151.493 267.044 151.256ZM292.552 141.243C292.392 140.577 292.117 139.96 290.905 138.285L286.549 132.272C284.954 134.19 283.171 134.795 281.688 133.938C279.365 132.597 279.383 129.884 281.755 125.777L284.908 120.315L284.994 120.364C285.504 120.773 285.749 120.944 287.104 121.726L297.641 127.809C298.996 128.592 299.267 128.719 299.875 128.956L299.961 129.006L297.95 132.489L297.864 132.44C297.379 131.988 297.134 131.817 295.779 131.035L283.887 124.169L282.894 125.89C281.652 128.04 282.438 129.956 283.944 130.825C285.212 131.558 286.558 131.016 287.563 129.274C287.762 128.93 287.836 128.801 287.927 128.595L288.259 128.615L292.868 134.687C294.662 137.042 294.354 139.76 292.81 141.392L292.552 141.243ZM286.522 117.52L288.533 114.036L288.619 114.086C289.104 114.538 289.349 114.708 290.704 115.491L293.672 117.204C295.435 118.222 297.228 117.996 298.209 116.297C298.768 115.329 299.035 114.222 298.84 113.02L293.808 110.115C292.453 109.332 292.183 109.205 291.549 109.011L291.463 108.961L293.474 105.478L293.56 105.527C294.07 105.936 294.315 106.107 295.67 106.889L306.207 112.973C307.562 113.755 307.833 113.882 308.441 114.119L308.527 114.169L306.516 117.652L306.43 117.603C305.945 117.151 305.7 116.98 304.345 116.198L299.851 113.603C300.13 115.255 299.754 116.701 299.009 117.992C297.084 121.325 294.282 121.857 291.981 120.529L288.842 118.716C287.487 117.934 287.216 117.807 286.608 117.57L286.522 117.52Z" fill="#F6F1FF"/>
<path opacity="0.5" d="M235.574 266.963L236.402 270.365C237.178 268.997 238.685 268.642 240.083 269.449C241.523 270.28 241.933 271.861 241.138 273.238C240.496 274.35 239.356 274.883 238.16 274.615L238.362 273.762C239.249 273.941 239.996 273.548 240.394 272.822C240.949 271.812 240.63 270.817 239.627 270.238C238.609 269.65 237.558 269.91 237 270.876C236.844 271.147 236.744 271.512 236.722 271.838L235.892 271.872L235.003 267.929L233.068 271.28L232.335 270.857L234.831 266.534L235.574 266.963ZM240.064 263.614C240.865 262.227 242.577 261.781 243.964 262.582C245.346 263.38 245.801 265.174 245 266.561C244.187 267.969 242.416 268.444 240.956 267.601L238.363 266.104C236.862 265.237 236.389 263.488 237.244 262.007C237.736 261.155 238.572 260.619 239.512 260.538L239.656 261.404C238.979 261.436 238.328 261.809 237.971 262.427C237.362 263.482 237.776 264.732 238.743 265.29L239.891 265.953C239.611 265.203 239.644 264.342 240.064 263.614ZM244.257 266.132C244.821 265.155 244.497 263.915 243.52 263.351C242.543 262.787 241.301 263.116 240.737 264.093C240.173 265.07 240.509 266.31 241.486 266.874C242.453 267.432 243.693 267.109 244.257 266.132ZM248.909 259.789C248.108 261.177 246.445 261.622 245.057 260.821L242.147 259.141C240.76 258.341 240.314 256.677 241.115 255.289C241.916 253.902 243.58 253.456 244.967 254.257L247.877 255.937C249.265 256.738 249.71 258.402 248.909 259.789ZM248.171 259.363C248.702 258.444 248.386 257.263 247.467 256.732L244.484 255.01C243.559 254.476 242.379 254.793 241.848 255.712C241.317 256.632 241.633 257.812 242.558 258.346L245.541 260.068C246.46 260.599 247.64 260.283 248.171 259.363ZM248.188 251.678C247.594 252.707 246.277 253.069 245.238 252.469C244.219 251.881 243.871 250.516 244.447 249.518C245.041 248.489 246.359 248.127 247.398 248.727C248.437 249.327 248.782 250.649 248.188 251.678ZM247.497 251.279C247.866 250.64 247.638 249.787 246.999 249.418C246.36 249.049 245.507 249.278 245.138 249.917C244.769 250.556 244.998 251.408 245.637 251.777C246.276 252.146 247.128 251.918 247.497 251.279ZM255.753 247.936C254.952 249.324 253.288 249.77 251.9 248.969L248.991 247.289C247.603 246.488 247.157 244.824 247.958 243.436C248.759 242.049 250.423 241.603 251.811 242.404L254.72 244.084C256.108 244.885 256.554 246.549 255.753 247.936ZM255.015 247.51C255.546 246.591 255.23 245.41 254.31 244.879L251.327 243.157C250.402 242.623 249.222 242.94 248.691 243.859C248.16 244.779 248.476 245.959 249.401 246.493L252.384 248.215C253.304 248.746 254.484 248.43 255.015 247.51ZM259.655 241.178C258.854 242.565 257.19 243.011 255.803 242.21L252.893 240.53C251.505 239.729 251.059 238.065 251.86 236.678C252.661 235.29 254.325 234.845 255.713 235.646L258.623 237.326C260.01 238.127 260.456 239.79 259.655 241.178ZM258.917 240.752C259.448 239.832 259.132 238.652 258.212 238.121L255.229 236.399C254.304 235.865 253.124 236.181 252.593 237.101C252.062 238.02 252.378 239.201 253.303 239.735L256.286 241.457C257.206 241.988 258.386 241.671 258.917 240.752ZM256.914 233.889L254.699 231.965L255.143 231.196L257.217 233.364L256.914 233.889ZM257.676 232.569L255.461 230.646L255.905 229.877L257.979 232.044L257.676 232.569ZM265.418 224.031L262.898 228.396L262.244 228.018L264.764 223.653L265.418 224.031ZM267.507 216.081C268.308 214.694 270.02 214.248 271.407 215.049C272.79 215.847 273.244 217.641 272.443 219.028C271.63 220.436 269.859 220.911 268.399 220.068L265.806 218.571C264.305 217.704 263.832 215.955 264.687 214.474C265.179 213.622 266.015 213.086 266.955 213.005L267.099 213.871C266.423 213.903 265.771 214.276 265.414 214.894C264.805 215.949 265.219 217.199 266.186 217.757L267.334 218.42C267.054 217.67 267.087 216.809 267.507 216.081ZM271.7 218.599C272.264 217.622 271.94 216.382 270.963 215.818C269.987 215.254 268.744 215.583 268.18 216.56C267.616 217.537 267.953 218.777 268.929 219.341C269.896 219.899 271.136 219.576 271.7 218.599ZM276.353 212.256C275.552 213.644 273.888 214.089 272.5 213.288L269.59 211.608C268.203 210.807 267.757 209.144 268.558 207.756C269.359 206.369 271.023 205.923 272.41 206.724L275.32 208.404C276.708 209.205 277.154 210.869 276.353 212.256ZM275.615 211.83C276.146 210.911 275.829 209.73 274.91 209.199L271.927 207.477C271.002 206.943 269.822 207.26 269.291 208.179C268.76 209.099 269.076 210.279 270.001 210.813L272.984 212.535C273.903 213.066 275.084 212.75 275.615 211.83ZM275.632 204.145C275.038 205.174 273.72 205.536 272.681 204.936C271.663 204.348 271.314 202.983 271.89 201.985C272.484 200.956 273.802 200.594 274.841 201.194C275.88 201.794 276.226 203.116 275.632 204.145ZM274.941 203.746C275.31 203.107 275.081 202.254 274.442 201.885C273.803 201.516 272.95 201.745 272.581 202.384C272.212 203.023 272.441 203.875 273.08 204.244C273.719 204.613 274.572 204.385 274.941 203.746ZM283.196 200.403C282.395 201.791 280.731 202.237 279.344 201.436L276.434 199.756C275.046 198.955 274.601 197.291 275.402 195.903C276.203 194.516 277.866 194.07 279.254 194.871L282.164 196.551C283.551 197.352 283.997 199.016 283.196 200.403ZM282.458 199.977C282.989 199.058 282.673 197.877 281.753 197.346L278.77 195.624C277.845 195.09 276.665 195.407 276.134 196.326C275.603 197.246 275.919 198.426 276.844 198.96L279.827 200.682C280.747 201.213 281.927 200.897 282.458 199.977ZM287.098 193.645C286.297 195.032 284.633 195.478 283.246 194.677L280.336 192.997C278.948 192.196 278.503 190.532 279.304 189.145C280.105 187.757 281.768 187.312 283.156 188.113L286.066 189.793C287.453 190.594 287.899 192.257 287.098 193.645ZM286.36 193.219C286.891 192.299 286.575 191.119 285.655 190.588L282.672 188.866C281.748 188.332 280.567 188.648 280.036 189.568C279.505 190.487 279.822 191.668 280.746 192.202L283.729 193.924C284.649 194.455 285.829 194.138 286.36 193.219ZM284.357 186.356L282.142 184.432L282.586 183.663L284.66 185.831L284.357 186.356ZM285.119 185.036L282.904 183.113L283.348 182.344L285.422 184.511L285.119 185.036Z" fill="#BBBBBB"/>
<path opacity="0.2" d="M213.353 56.7427C344.399 129.987 227.464 332.524 99.1784 257.009C-33.3038 184.578 84.3256 -20.1665 213.353 56.7427ZM226.096 176.081C247.734 129.733 237.364 146.355 213.848 101.57C206.514 93.8573 186.132 100.544 175.408 98.7006C166.778 100.094 157.771 134.605 151.95 143.515C152.537 156.221 165.73 167.509 171.335 179.054C183.66 184.818 200.187 179.287 213.773 181.527C220.839 181.838 225.392 180.312 226.096 176.081ZM145.141 141.419C151.85 126.452 158.327 112.22 164.618 97.9779C165.059 96.8797 164.538 94.9366 163.847 93.958C156.899 87.9178 150.694 71.3882 141.28 71.4604C128.13 76.3317 98.9689 75.6311 90.9235 85.3823C68.9074 128.034 75.4378 113.543 103.843 148.687C104.69 149.563 106.483 150.308 107.584 150.074C119.948 147.067 133.27 145.58 145.141 141.419ZM222.699 188.323C206.076 189.837 187.582 185.053 172.447 190.517C167.951 197.97 144.13 216.971 147.401 223.69C154.001 233.008 156.447 247.85 165.781 254.109C176.892 252.601 189.834 254.953 200.108 250.546C210.552 238.314 220.964 225.969 231.16 213.498C233.387 205.122 225.08 196.751 222.699 188.323ZM49.3193 135.855C45.0709 162.291 46.5898 189.448 66.8937 209.673C69.229 211.988 70.5864 212.482 73.3857 210.813C79.877 205.092 93.9689 203.276 96.2379 194.828C95.6682 180.586 100.2 165.038 96.6699 151.405C68.41 123.205 79.6497 113.946 49.3193 135.855ZM73.0067 219C81.5645 245.68 130.99 275.375 155.845 254.749C137.624 216.693 140.008 221.934 101.971 205.481C91.7105 204.678 82.759 215.162 73.0067 219ZM217.589 67.9809C218.088 77.1578 215.793 86.6544 218.049 95.2994C226.755 109.505 235.504 123.638 244.367 137.741C248.672 142.835 256.789 142.497 262.787 144.994C265.189 123.096 240.056 80.2758 217.589 67.9809ZM165.501 48.9221C142.072 45.1542 99.7021 57.7935 89.3415 72.3916C107.006 74.7639 124.375 66.4346 141.977 64.2296C150.38 60.3855 157.446 53.8369 165.501 48.9221ZM211.086 248.768C225.135 242.676 245.104 221.645 250.719 207.399C233.394 217.493 224.028 234.887 211.086 248.768Z" fill="white"/>
<path fill-rule="evenodd" clip-rule="evenodd" d="M77.0011 120.183L177.129 149.333L199.247 84.3591L200.85 79.6509L201.811 84.5305C206.687 109.272 215.336 153.001 219.622 174.22C218.706 173.989 217.773 173.894 216.85 173.925C212.765 153.687 205.063 114.767 200.163 89.9239L179.238 151.394L178.828 152.598L177.607 152.243L76.2574 122.737L77.0011 120.183ZM207.818 187.436C207.15 187.491 206.459 187.547 205.747 187.602C196.307 188.335 183.143 189.049 168.464 189.709C139.11 191.028 103.752 192.13 80.1455 192.74L80.2143 195.4C103.83 194.789 139.207 193.687 168.583 192.367C183.269 191.707 196.469 190.991 205.953 190.255C207.097 190.166 208.189 190.076 209.224 189.987C208.629 189.204 208.157 188.343 207.818 187.436Z" fill="#BBBBBB"/>
<circle cx="217.039" cy="184.464" r="4.93649" transform="rotate(-60 217.039 184.464)" fill="#BBBBBB"/>
<circle cx="68.3586" cy="119.143" r="4.93649" transform="rotate(-60 68.3586 119.143)" fill="#BBBBBB"/>
<path d="M183.626 68.8072L198.329 71.9323L205.844 58.9153L207.415 73.8637L222.117 76.9888L208.386 83.1023L209.957 98.0508L199.9 86.8807L186.168 92.9943L193.684 79.9773L183.626 68.8072Z" fill="white"/>
<path d="M63.0941 193.001L73.9041 190.846L75.1957 179.9L80.5851 189.515L91.3951 187.36L83.9159 195.457L89.3053 205.072L79.2935 200.461L71.8143 208.558L73.1059 197.612L63.0941 193.001Z" fill="white"/>
<path d="M165.83 152.923L173.077 148.216L170.841 139.87L177.556 145.308L184.803 140.601L181.706 148.669L188.422 154.107L179.793 153.655L176.696 161.722L174.459 153.375L165.83 152.923Z" fill="white"/>
</svg>
