<svg width="308" height="337" viewBox="0 0 308 337" fill="none" xmlns="http://www.w3.org/2000/svg">
<g opacity="0.2">
<path d="M228.963 98.0576C229.049 98.1074 229.049 98.1074 229.135 98.1571C229.099 98.0212 229.049 98.1074 228.963 98.0576Z" fill="white"/>
<path d="M228.963 98.0576C229.049 98.1074 229.049 98.1074 229.135 98.1571C229.099 98.0212 229.049 98.1074 228.963 98.0576Z" fill="white"/>
<path d="M255.918 72.0546C245.101 71.8954 236.225 76.5305 228.461 83.4153C208.396 102.259 219.391 100.914 195.265 87.2144C187.687 82.8391 180.109 78.4638 172.382 74.3468C168.457 72.1955 164.249 72.5222 160.085 74.3661C152.891 77.6766 146.741 82.1634 141.658 88.1844C139.699 90.3835 137.87 91.1647 135.277 89.0934C116.359 74.7264 102.713 97.9645 115.952 113.416C116.946 114.679 117.316 117.419 116.62 118.624C115.725 120.174 113.561 121.336 111.61 121.932C110.288 122.432 108.539 121.881 107.171 121.666C100.43 120.415 94.6483 122.473 89.5353 126.755C86.7253 129.037 83.8799 128.198 82.6983 124.875C82.076 123.367 82.2686 121.641 81.7822 120.097C81.3454 118.467 81.0214 116.443 79.8788 115.439C75.8349 112.3 73.0587 112.535 71.1489 117.632C68.7978 124.887 77.4166 128.255 82.3483 131.447C84.0209 132.527 85.041 133.346 84.5997 135.503C83.2261 142.058 84.7051 147.849 88.7516 153.171C88.9966 153.542 89.4636 153.926 89.437 154.37C89.1546 156.848 89.2167 159.525 88.4043 161.927C88.1921 162.493 85.4425 162.283 83.8756 162.412C80.3838 162.693 76.6603 162.38 73.3505 163.34C60.5784 167.563 57.2034 185.938 72.9273 191.916C76.7697 193.215 76.822 195.312 76.2014 198.973C75.285 205.333 74.7628 211.806 74.9562 218.233C75.0271 224.474 78.335 229.484 83.6609 232.789C95.9356 240.565 108.31 248.168 120.783 255.599C125.384 258.37 125.42 258.506 124.09 263.594C120.84 276.185 119.192 288.783 122.972 301.528C126.887 314.237 136.061 320.223 149.339 318.704C160.149 317.481 168.354 311.425 175.515 304.192C195.338 284.176 210.701 260.551 226.825 237.595C232.145 228.381 237.465 219.166 242.848 209.644C257.272 177.899 275.071 147.069 280.075 111.952C281.482 103.349 281.015 94.8115 277.4 86.7537C273.235 77.46 266.376 72.2368 255.918 72.0546ZM229.099 98.0216L229.013 97.9718C229.049 98.1077 229.099 98.0216 229.099 98.0216ZM80.9116 221.442C80.3923 218.96 80.2308 216.456 79.9334 213.988C85.5089 213.877 87.4008 212.787 87.7595 209.779C88.1547 206.907 86.8035 205.668 81.5929 204.152C81.925 201.588 81.9988 198.875 82.8112 196.474C83.1992 195.205 85.0414 194.202 86.4264 193.394C89.667 191.361 93.6693 189.997 96.2342 187.345C101.364 182.039 100.658 174.512 95.614 168.73C93.7728 166.748 94.1289 161.557 96.3192 159.951C96.9255 159.498 98.0717 159.7 98.9595 159.753C107.612 161.075 113.871 156.995 118.243 150.219C122.416 143.787 122.892 136.598 118.753 129.845C117.001 127.112 117.429 125.177 119.289 123.15C121.197 121.037 122.48 118.219 126.545 119.532C134.415 122.009 141.403 117.661 142.906 109.688C143.5 106.472 143.356 102.943 142.654 99.7828C141.976 96.98 142.354 95.1316 144.545 93.5256C145.436 92.7772 146.328 92.0287 147.096 91.0948C149.055 88.8957 150.897 87.8925 153.798 90.0269C154.954 90.8091 158.002 90.502 158.957 89.4455C160.097 88.2665 159.799 85.7984 159.869 83.8869C159.86 83.3072 159.134 82.7736 158.24 81.3389C160.314 80.9288 162.057 80.0978 163.14 80.6083C163.965 80.9697 164.412 83.1795 164.196 84.5476C163.16 89.9206 161.817 95.2305 160.646 100.64C154.117 98.8224 151.794 99.6631 150.952 103.31C150.285 106.255 152.335 108.472 156.992 109.553C155.123 113.985 153.253 118.417 151.545 122.369C148.895 121.987 146.603 121.582 144.506 121.635C143.655 121.717 142.687 122.995 142.14 123.943C140.585 126.834 141.797 128.912 147 132.031C144.922 136.227 142.757 140.374 140.643 144.435C137.596 141.757 133.577 141.16 131.801 144.038C129.63 146.804 133.598 150.472 136.837 151.424C134.338 155.952 131.753 160.43 128.995 164.808C125.269 162.313 121.41 162.036 119.981 164.312C118.516 166.451 120.549 169.692 124.461 172.065C122.101 175.755 119.655 179.395 117.209 183.035C117.123 182.985 116.95 182.886 116.864 182.836C113.125 180.562 109.153 180.68 107.363 183.78C106.554 185.38 108.713 188.005 112.28 190.179C109.798 193.683 107.279 197.051 104.674 200.37C101.335 199.59 98.6887 198.407 96.1842 198.568C95.1109 198.638 93.2846 201.602 93.463 203.083C93.6645 204.922 95.5191 206.681 97.1482 209.229C94.3639 214.052 89.7179 218.718 84.4823 222.814C82.4048 224.026 81.1761 222.972 80.9116 221.442ZM118.609 248.029C113.505 244.738 110.446 239.297 106.989 234.545C106.131 233.247 106.016 231.458 105.616 229.963C110.23 229.528 114.056 231.851 118.243 233.35C125.185 236.44 133.23 233.046 131.911 224.592C130.839 218.691 128.324 213.105 126.98 207.278C126.666 205.833 126.922 203.799 127.913 202.879C128.619 202.253 130.652 202.508 132.007 202.946C134.545 203.722 136.969 204.892 139.556 205.582C148.142 208.013 153.951 202.526 151.88 193.981C151.129 190.907 149.563 188.051 148.319 185.036C147.451 183.157 146.262 181.437 145.581 179.436C145.094 177.892 145.423 176.13 145.43 174.527C146.811 174.521 148.292 174.342 149.746 174.608C156.918 176.107 164.123 178.545 169.015 171.265C173.572 164.365 164.998 156.545 162.2 150.451C161.601 149.302 161.277 147.278 161.824 146.33C162.407 145.519 164.418 145.417 165.786 145.633C169.016 146.005 172.17 146.907 175.413 147.057C183.761 147.513 188.142 141.316 184.55 133.616C183.17 130.638 181.011 128.013 179.037 125.266C177.458 122.632 174.113 120.471 174.67 117.119C174.783 116.725 176.536 116.474 177.473 116.441C180.408 116.528 183.231 117.009 186.08 117.046C196.723 117.106 201.579 109.69 197.541 99.7805C197.004 98.3227 196.197 96.9377 195.256 94.7874C199.562 97.2734 203.242 99.0535 206.587 101.215C209.317 103.249 208.65 106.194 207.38 108.791C193.258 139.218 176.367 168.275 159.217 197.184C148.707 214.195 136.782 230.275 125.583 246.888C123.584 249.753 121.302 249.928 118.609 248.029ZM218.428 109.543C220.74 111.108 223.101 112.586 225.363 114.236C226.175 114.82 226.701 115.698 227.99 117.245C224.647 117.267 222.414 117.356 219.996 117.567C212.25 117.459 208.323 124.262 212.203 130.866C214.776 134.762 217.356 137.056 220.409 141.115C216.003 141.786 213.565 140.838 209.533 140.462C202.924 139.976 198.954 145.262 201.665 151.306C202.923 154.099 205.096 156.501 206.811 159.099C207.387 159.891 207.827 160.719 208.844 162.339C205.084 161.891 202.262 161.41 199.34 161.101C196.11 160.729 193.502 161.864 191.762 164.878C190.009 168.114 191.045 170.894 192.846 173.541C194.684 176.325 196.571 179.022 198.459 181.719L197.912 182.666C196.457 182.401 194.954 182.222 193.549 181.87C189.286 180.901 184.804 179.118 181.453 183.728C178.189 188.388 181.033 192.212 183.47 196.145C184.487 197.765 185.54 199.521 186.506 201.228C186.271 201.436 186.122 201.695 185.837 201.989C183.114 201.336 180.305 200.633 177.483 200.151C169.904 198.761 165.824 203.639 168.555 210.842C169.664 213.894 171.551 216.591 172.931 219.57C173.372 220.398 173.133 221.408 173.202 222.482C169.883 222.861 166.869 221.121 163.602 220.613C157.169 219.425 152.586 223.784 153.803 230.227C154.633 234.955 157.759 239.286 157.638 244.268C156.343 244.324 154.935 244.774 153.703 244.522C151.374 243.981 149.158 243.046 146.793 242.37C139.77 240.612 135.138 245.056 136.451 252.129C136.801 253.709 137.115 255.154 137.416 256.82C136.701 256.867 136.293 256.976 135.985 256.913C128.188 254.707 127.797 253.793 132.649 247.179C163.76 204.629 190.025 158.938 212.968 111.443C214.499 108.194 215.994 107.793 218.428 109.543ZM250.244 107.934C250.797 111.353 251.557 115.007 250.655 118.16C241.42 156.231 223.209 190.957 202.944 224.267C197.985 232.656 152.209 305.778 144.863 279.721C144.367 277.597 144.414 275.328 144.361 273.231C144.326 270.11 144.903 267.917 149.243 268.356C151.634 268.589 154.554 266.715 156.399 264.91C187.354 235.36 210.445 198.744 228.059 159.884C231.971 151.12 234.283 141.547 237.37 132.421C238.611 125.1 240.485 116.882 232.404 111.986C235.691 107.684 239.515 104.839 244.342 103.837C247.503 103.136 249.752 105.008 250.244 107.934Z" fill="white"/>
</g>
<path opacity="0.8" d="M222.342 199.318L228.053 189.426L229.107 190.035L229.057 190.121C228.606 190.605 228.435 190.851 227.777 191.991L227.032 193.281L238.924 200.147C240.236 200.904 240.485 201.019 241.063 201.209L241.183 201.25L241.269 201.3L239.233 204.826L239.147 204.777L239.052 204.693C238.598 204.288 238.374 204.13 237.062 203.372L225.17 196.506L224.425 197.797C223.767 198.936 223.639 199.207 223.446 199.841L223.396 199.927L222.342 199.318ZM248.913 188.854C246.356 193.284 240.793 194.774 236.363 192.217C231.933 189.659 230.443 184.096 233 179.666C235.558 175.236 241.121 173.746 245.551 176.303C249.98 178.861 251.471 184.424 248.913 188.854ZM238.747 188.833C242.725 191.13 246.496 190.956 247.961 188.418C249.761 185.3 246.907 181.502 243.273 179.404C239.359 177.144 235.555 177.328 234.077 179.887C232.302 182.962 235.134 186.747 238.747 188.833ZM242.875 163.754C245.023 160.034 248.161 158.72 251.129 160.434C254.484 162.37 254.441 166.417 252.591 169.622C252.367 170.009 252.089 170.392 251.822 170.755L251.177 170.382L251.338 170.103C252.667 167.802 252.084 165.286 249.439 163.759C246.858 162.269 244.697 162.684 243.369 164.985L242.487 166.512L254.379 173.378C255.734 174.16 256.004 174.287 256.613 174.524L256.699 174.574L254.713 178.015L254.627 177.965C254.117 177.556 253.872 177.386 252.517 176.603L241.98 170.52C240.625 169.738 240.354 169.61 239.746 169.373L239.66 169.324L242.875 163.754ZM247.305 156.081L253.016 146.189L254.07 146.797L254.021 146.883C253.569 147.368 253.398 147.613 252.74 148.753L251.995 150.043L263.887 156.909C265.199 157.667 265.448 157.782 266.026 157.972L266.146 158.013L266.232 158.062L264.196 161.589L264.11 161.539L264.015 161.456C263.561 161.05 263.337 160.892 262.025 160.135L250.133 153.269L249.388 154.559C248.73 155.699 248.602 155.97 248.409 156.603L248.359 156.689L247.305 156.081Z" fill="#F6F1FF"/>
<path opacity="0.5" d="M241.12 227.993L241.948 231.395C242.723 230.027 244.231 229.672 245.629 230.479C247.068 231.31 247.479 232.891 246.684 234.268C246.042 235.38 244.902 235.913 243.706 235.645L243.908 234.792C244.795 234.972 245.542 234.578 245.94 233.852C246.495 232.842 246.176 231.848 245.173 231.269C244.155 230.681 243.104 230.94 242.546 231.907C242.39 232.177 242.29 232.542 242.268 232.868L241.438 232.902L240.548 228.959L238.613 232.31L237.881 231.887L240.377 227.564L241.12 227.993ZM245.61 224.645C246.411 223.257 248.123 222.812 249.51 223.613C250.892 224.411 251.347 226.204 250.546 227.591C249.733 228.999 247.962 229.474 246.502 228.631L243.909 227.134C242.407 226.267 241.934 224.518 242.789 223.037C243.281 222.185 244.117 221.649 245.058 221.568L245.202 222.435C244.525 222.467 243.874 222.839 243.517 223.457C242.908 224.512 243.322 225.763 244.289 226.321L245.437 226.984C245.157 226.233 245.19 225.372 245.61 224.645ZM249.802 227.162C250.366 226.185 250.043 224.946 249.066 224.382C248.089 223.818 246.846 224.146 246.282 225.123C245.718 226.1 246.055 227.341 247.032 227.905C247.999 228.463 249.238 228.139 249.802 227.162ZM254.455 220.819C253.654 222.207 251.99 222.653 250.603 221.852L247.693 220.172C246.306 219.371 245.86 217.707 246.661 216.319C247.462 214.932 249.126 214.486 250.513 215.287L253.423 216.967C254.81 217.768 255.256 219.432 254.455 220.819ZM253.717 220.393C254.248 219.474 253.932 218.293 253.012 217.762L250.03 216.04C249.105 215.506 247.925 215.823 247.394 216.742C246.863 217.662 247.179 218.842 248.104 219.376L251.086 221.098C252.006 221.629 253.186 221.313 253.717 220.393ZM253.734 212.708C253.14 213.737 251.823 214.099 250.784 213.499C249.765 212.911 249.417 211.546 249.993 210.548C250.587 209.519 251.904 209.157 252.944 209.757C253.983 210.357 254.328 211.679 253.734 212.708ZM253.043 212.309C253.412 211.67 253.184 210.818 252.545 210.449C251.906 210.08 251.053 210.308 250.684 210.947C250.315 211.586 250.544 212.439 251.183 212.808C251.822 213.177 252.674 212.948 253.043 212.309ZM261.299 208.967C260.498 210.354 258.834 210.8 257.446 209.999L254.536 208.319C253.149 207.518 252.703 205.854 253.504 204.467C254.305 203.079 255.969 202.633 257.356 203.434L260.266 205.114C261.654 205.915 262.1 207.579 261.299 208.967ZM260.561 208.541C261.092 207.621 260.775 206.441 259.856 205.91L256.873 204.188C255.948 203.654 254.768 203.97 254.237 204.89C253.706 205.809 254.022 206.99 254.947 207.524L257.93 209.246C258.849 209.777 260.03 209.46 260.561 208.541ZM265.201 202.208C264.4 203.595 262.736 204.041 261.348 203.24L258.439 201.56C257.051 200.759 256.605 199.095 257.406 197.708C258.207 196.321 259.871 195.875 261.259 196.676L264.168 198.356C265.556 199.157 266.002 200.821 265.201 202.208ZM264.463 201.782C264.994 200.862 264.678 199.682 263.758 199.151L260.775 197.429C259.85 196.895 258.67 197.211 258.139 198.131C257.608 199.051 257.924 200.231 258.849 200.765L261.832 202.487C262.752 203.018 263.932 202.702 264.463 201.782ZM262.46 194.919L260.245 192.996L260.689 192.227L262.763 194.394L262.46 194.919ZM263.222 193.599L261.007 191.676L261.451 190.907L263.525 193.074L263.222 193.599ZM270.964 185.061L268.444 189.426L267.789 189.048L270.309 184.683L270.964 185.061ZM272.119 174.3L272.947 177.702C273.723 176.335 275.231 175.979 276.629 176.786C278.068 177.617 278.479 179.198 277.684 180.575C277.042 181.687 275.902 182.221 274.706 181.953L274.907 181.099C275.795 181.279 276.541 180.885 276.94 180.159C277.495 179.15 277.176 178.155 276.173 177.576C275.154 176.988 274.104 177.247 273.546 178.214C273.39 178.484 273.29 178.849 273.268 179.175L272.438 179.209L271.548 175.266L269.613 178.617L268.88 178.194L271.376 173.871L272.119 174.3ZM281.494 173.987C280.693 175.374 279.029 175.82 277.642 175.019L274.732 173.339C273.345 172.538 272.899 170.874 273.7 169.487C274.501 168.099 276.165 167.653 277.552 168.454L280.462 170.134C281.849 170.935 282.295 172.599 281.494 173.987ZM280.756 173.561C281.287 172.641 280.971 171.461 280.051 170.93L277.069 169.208C276.144 168.674 274.964 168.99 274.433 169.91C273.902 170.829 274.218 172.01 275.143 172.544L278.125 174.266C279.045 174.797 280.225 174.48 280.756 173.561ZM280.773 165.875C280.179 166.904 278.862 167.266 277.823 166.666C276.804 166.078 276.456 164.713 277.032 163.715C277.626 162.686 278.943 162.325 279.983 162.925C281.022 163.525 281.367 164.846 280.773 165.875ZM280.082 165.476C280.451 164.837 280.223 163.985 279.584 163.616C278.944 163.247 278.092 163.475 277.723 164.114C277.354 164.753 277.582 165.606 278.222 165.975C278.861 166.344 279.713 166.115 280.082 165.476ZM288.337 162.134C287.536 163.521 285.873 163.967 284.485 163.166L281.575 161.486C280.188 160.685 279.742 159.021 280.543 157.634C281.344 156.246 283.008 155.801 284.395 156.602L287.305 158.282C288.693 159.083 289.138 160.746 288.337 162.134ZM287.6 161.708C288.131 160.788 287.814 159.608 286.895 159.077L283.912 157.355C282.987 156.821 281.807 157.137 281.276 158.057C280.745 158.976 281.061 160.157 281.986 160.691L284.969 162.413C285.888 162.944 287.069 162.627 287.6 161.708ZM292.239 155.375C291.438 156.762 289.775 157.208 288.387 156.407L285.477 154.727C284.09 153.926 283.644 152.262 284.445 150.875C285.246 149.488 286.91 149.042 288.297 149.843L291.207 151.523C292.595 152.324 293.04 153.988 292.239 155.375ZM291.502 154.949C292.033 154.029 291.716 152.849 290.797 152.318L287.814 150.596C286.889 150.062 285.709 150.378 285.178 151.298C284.647 152.218 284.963 153.398 285.888 153.932L288.871 155.654C289.79 156.185 290.971 155.869 291.502 154.949ZM289.499 148.086L287.284 146.163L287.728 145.394L289.802 147.561L289.499 148.086ZM290.261 146.766L288.046 144.843L288.49 144.074L290.564 146.241L290.261 146.766Z" fill="#BBBBBB"/>
<path fill-rule="evenodd" clip-rule="evenodd" d="M131.217 113.012C131.515 113.876 131.692 114.779 131.741 115.695L202.901 118.46L204.058 179.172C204.963 179.278 205.863 179.513 206.733 179.883L205.537 117.154L205.513 115.899L204.259 115.851L131.217 113.012ZM115.923 123.969L86.1797 175.487L88.4838 176.817L118.227 125.3C117.821 125.133 117.421 124.938 117.031 124.712C116.64 124.486 116.271 124.238 115.923 123.969ZM195.749 195.644C196.37 196.305 197.094 196.89 197.913 197.373L132.765 243.336L131.231 241.163L195.749 195.644Z" fill="#BBBBBB"/>
<circle cx="202.667" cy="189.138" r="4.40164" transform="rotate(-60 202.667 189.138)" fill="#BBBBBB"/>
<circle cx="123.022" cy="116.41" r="4.86505" transform="rotate(-60 123.022 116.41)" fill="#BBBBBB"/>
<path d="M71.9376 165.831L85.0794 168.624L91.7972 156.989L93.2016 170.351L106.343 173.144L94.0695 178.609L95.4739 191.971L86.4838 181.986L74.2099 187.451L80.9277 175.815L71.9376 165.831Z" fill="white"/>
<path d="M191.614 130.865L196.879 118.504L186.749 109.678L200.132 110.864L205.396 98.5031L208.403 111.598L221.786 112.784L210.262 119.691L213.269 132.785L203.139 123.959L191.614 130.865Z" fill="white"/>
<path d="M125.432 251.001L129.529 241.38L121.645 234.51L132.061 235.433L136.158 225.812L138.499 236.004L148.915 236.928L139.945 242.303L142.286 252.495L134.401 245.625L125.432 251.001Z" fill="white"/>
</svg>
