<svg width="30" height="30" viewBox="0 0 30 30" fill="none" xmlns="http://www.w3.org/2000/svg">
<circle cx="15" cy="15" r="15" transform="rotate(180 15 15)" fill="#F6F1FF"/>
<path fill-rule="evenodd" clip-rule="evenodd" d="M7.92888 13.1569L14.2928 6.79289C14.6834 6.40237 15.3165 6.40237 15.7071 6.79289L22.071 13.1569C22.4615 13.5474 22.4615 14.1805 22.071 14.5711C21.6805 14.9616 21.0473 14.9616 20.6568 14.5711L15.9999 9.91421L15.9999 22.5C15.9999 23.0523 15.5522 23.5 14.9999 23.5C14.4477 23.5 13.9999 23.0523 13.9999 22.5L13.9999 9.91421L9.34309 14.5711C8.95257 14.9616 8.3194 14.9616 7.92888 14.5711C7.53835 14.1805 7.53835 13.5474 7.92888 13.1569Z" fill="#080839"/>
</svg>
