<svg width="31" height="30" viewBox="0 0 31 30" fill="none" xmlns="http://www.w3.org/2000/svg">
<circle cx="15.8479" cy="15" r="15" transform="rotate(180 15.8479 15)" fill="#ECA100"/>
<path fill-rule="evenodd" clip-rule="evenodd" d="M8.77684 13.1569L15.1408 6.79289C15.5313 6.40237 16.1645 6.40237 16.555 6.79289L22.919 13.1569C23.3095 13.5474 23.3095 14.1805 22.919 14.5711C22.5285 14.9616 21.8953 14.9616 21.5048 14.5711L16.8479 9.91421L16.8479 22.5C16.8479 23.0523 16.4002 23.5 15.8479 23.5C15.2956 23.5 14.8479 23.0523 14.8479 22.5L14.8479 9.91421L10.1911 14.5711C9.80053 14.9616 9.16736 14.9616 8.77684 14.5711C8.38632 14.1805 8.38632 13.5474 8.77684 13.1569Z" fill="#080839"/>
</svg>
