<svg width="246" height="57" viewBox="0 0 246 57" fill="none" xmlns="http://www.w3.org/2000/svg">
<path fill-rule="evenodd" clip-rule="evenodd" d="M223.191 1.86395C224.213 1.78368 225.154 1.25896 225.806 0.446379L245.107 13.2895C244.976 13.589 244.877 13.9102 244.817 14.2487C244.686 14.9929 244.76 15.723 244.998 16.3741L223.191 1.86395ZM222.304 1.82084C222.328 1.82504 222.352 1.82907 222.377 1.83275L130.729 38.029C130.904 37.679 131.033 37.2961 131.105 36.8881C131.215 36.2644 131.18 35.6506 131.027 35.085L219.797 0.0251465C220.324 0.948053 221.214 1.62832 222.304 1.82084ZM123.912 37.5345C123.726 36.9325 123.676 36.2709 123.795 35.5976C123.846 35.3083 123.926 35.0315 124.03 34.7702L42.9917 4.28522C42.6495 5.21987 41.9935 5.96901 41.1831 6.41355L123.912 37.5345ZM0.0996094 51.9242L36.4325 5.17264C36.9153 5.9301 37.6513 6.50284 38.5426 6.74154L0.153852 56.1383C0.386164 55.7343 0.5545 55.2804 0.641059 54.7896C0.825062 53.7477 0.605587 52.733 0.0996094 51.9242Z" fill="white"/>
</svg>
