<svg width="258" height="62" viewBox="0 0 258 62" fill="none" xmlns="http://www.w3.org/2000/svg">
<path fill-rule="evenodd" clip-rule="evenodd" d="M229.219 6.59053C230.241 6.51041 231.182 5.98666 231.834 5.17558L251.135 17.995C251.003 18.2939 250.904 18.6145 250.845 18.9524C250.713 19.6952 250.788 20.4239 251.025 21.0738L229.219 6.59053ZM228.331 6.5475C228.356 6.5517 228.379 6.55572 228.404 6.55939L136.756 42.6887C136.932 42.3394 137.061 41.9572 137.132 41.55C137.242 40.9274 137.208 40.3148 137.054 39.7502L225.824 4.75513C226.352 5.67633 227.241 6.35533 228.331 6.5475ZM129.939 42.1951C129.753 41.5942 129.703 40.9339 129.822 40.2619C129.873 39.973 129.953 39.6968 130.057 39.436L49.019 9.00733C48.6769 9.94025 48.0209 10.688 47.2105 11.1317L129.939 42.1951ZM6.12695 56.5582L42.4599 9.89311C42.9427 10.6492 43.6787 11.2209 44.57 11.4591L6.1812 60.7645C6.41351 60.3613 6.58184 59.9082 6.6684 59.4184C6.85241 58.3784 6.63293 57.3656 6.12695 56.5582Z" fill="white"/>
<path d="M132.77 38.8701C133.882 38.4043 135.122 38.9711 135.54 40.1363C135.958 41.3015 135.395 42.6237 134.284 43.0896C133.172 43.5554 131.932 42.9886 131.514 41.8234C131.096 40.6582 131.659 39.336 132.77 38.8701Z" fill="white"/>
<path d="M228.211 1.0513C229.323 0.58542 230.563 1.15229 230.981 2.31745C231.399 3.48261 230.836 4.80482 229.725 5.27071C228.613 5.73659 227.373 5.16971 226.955 4.00456C226.537 2.8394 227.1 1.51718 228.211 1.0513Z" fill="white"/>
<path d="M254.156 17.971C255.267 17.5051 256.507 18.072 256.925 19.2371C257.343 20.4023 256.781 21.7245 255.669 22.1904C254.557 22.6563 253.317 22.0894 252.899 20.9242C252.482 19.7591 253.044 18.4369 254.156 17.971Z" fill="white"/>
<path d="M44.8313 6.21219C45.943 5.74631 47.1829 6.31318 47.6009 7.47834C48.0188 8.6435 47.4565 9.96571 46.3448 10.4316C45.2332 10.8975 43.9932 10.3306 43.5753 9.16544C43.1573 8.00029 43.7197 6.67807 44.8313 6.21219Z" fill="white"/>
<path d="M2.95291 56.7957C4.06455 56.3298 5.30453 56.8967 5.72247 58.0618C6.14041 59.227 5.57806 60.5492 4.46642 61.0151C3.35478 61.481 2.1148 60.9141 1.69686 59.7489C1.27892 58.5838 1.84127 57.2616 2.95291 56.7957Z" fill="white"/>
</svg>
