<svg width="152" height="81" viewBox="0 0 152 81" fill="none" xmlns="http://www.w3.org/2000/svg">
<path d="M100.177 7.77918L105.338 23.7974L95.8081 18.3956" stroke="#ECA100" stroke-width="0.63661"/>
<path d="M117.588 36.4698C122.862 45.3831 127.119 50.8401 127.919 50.3467C129.606 49.305 127.091 40.4521 120.677 32.9338C114.264 25.4155 106.188 21.8454 104.693 23.1205C103.199 24.3957 111.918 28.46 117.588 36.4698Z" fill="#ECA100"/>
<path d="M96.3024 13.9876L94.5916 16.6306L91.5493 15.8202L93.5342 18.264L91.8234 20.9069L94.761 19.7744L96.7459 22.2182L96.5765 19.0744L99.5141 17.9418L96.4718 17.1314L96.3024 13.9876Z" fill="#ECA100"/>
<path d="M103.354 4.43279L100.328 5.30077L98.5674 2.69077L98.4578 5.8372L95.4314 6.70517L98.39 7.78181L98.2803 10.9282L100.218 8.4472L103.177 9.52383L101.416 6.91383L103.354 4.43279Z" fill="#ECA100"/>
<path d="M108.472 24.6902L111.745 8.50049H123.546M129.858 13.047L132.339 20.1877L128.774 26.3479L140.492 20.1877L145.325 23.7219M148.169 29.1796L144.818 38.1554L124.447 40.303" stroke="#ECA100" stroke-width="1.48542"/>
<path d="M131.257 9.53846L128.711 8.55114L128.863 5.82475L127.138 7.94094L124.592 6.95361L126.071 9.24882L124.345 11.365L126.985 10.6673L128.465 12.9625L128.617 10.2361L131.257 9.53846Z" fill="#ECA100"/>
<path d="M149.91 24.7549L147.974 25.0004L147.142 23.2349L146.778 25.1522L144.842 25.3977L146.552 26.3371L146.187 28.2543L147.609 26.9176L149.32 27.857L148.488 26.0915L149.91 24.7549Z" fill="#ECA100"/>
<path d="M124.048 40.5381L120.979 55.7173H109.915M103.997 51.4546L101.671 44.7595L105.013 38.9838L94.0267 44.7595L89.4952 41.4458M86.8285 36.3288L89.9703 27.9133L109.07 25.8997" stroke="#ECA100" stroke-width="1.48542"/>
<path d="M102.685 54.7439L105.072 55.6696L104.929 58.2259L106.547 56.2417L108.934 57.1674L107.547 55.0155L109.165 53.0314L106.69 53.6855L105.303 51.5336L105.16 54.0898L102.685 54.7439Z" fill="#ECA100"/>
<path d="M85.196 40.4775L87.0112 40.2473L87.7911 41.9026L88.1331 40.105L89.9484 39.8748L88.3445 38.9941L88.6865 37.1965L87.3532 38.4497L85.7494 37.569L86.5292 39.2243L85.196 40.4775Z" fill="#ECA100"/>
<mask id="path-11-outside-1_665_1872" maskUnits="userSpaceOnUse" x="0.162109" y="40.6316" width="118" height="17" fill="black">
<rect fill="white" x="0.162109" y="40.6316" width="118" height="17"/>
<path d="M12.4463 43.7055V46.1814H12.0337C11.7287 43.7952 9.93456 42.3958 8.10457 42.3958C5.93371 42.3958 3.70903 44.2617 3.70903 48.5496C3.70903 52.4428 5.71842 54.1651 7.79958 54.1651C9.59368 54.1651 11.4416 52.8196 12.0337 50.5052H12.4463V52.8554C11.2263 54.0575 9.45015 54.9186 7.44076 54.9186C3.74491 54.9186 0.838473 51.9763 0.838473 48.2805C0.838473 44.5846 3.74491 41.6423 7.44076 41.6423C9.46809 41.6423 11.2442 42.5035 12.4463 43.7055ZM22.306 54.9186C18.6101 54.9186 15.6678 51.9763 15.6678 48.2805C15.6678 44.5846 18.6101 41.6423 22.306 41.6423C26.0018 41.6423 28.9442 44.5846 28.9442 48.2805C28.9442 51.9763 26.0018 54.9186 22.306 54.9186ZM18.646 48.5496C18.646 51.8687 20.1172 54.1651 22.2342 54.1651C24.8357 54.1651 26.1812 51.0075 26.1812 47.9755C26.1812 44.7102 24.6921 42.3958 22.5572 42.3958C19.9916 42.3958 18.646 45.5355 18.646 48.5496ZM32.5647 43.257C33.2644 42.4497 34.7356 41.7858 36.0991 41.7858C38.3417 41.7858 39.5797 42.9161 39.5797 44.2438C39.5797 45.2664 38.9158 46.1096 37.7676 46.6479C39.9385 47.0784 41.0149 48.7111 41.0149 50.3796C41.0149 52.4787 39.3105 54.7931 35.9018 54.7931C33.8385 54.7931 32.3494 53.6987 31.6677 52.4428V50.1822H32.1341C32.6903 52.999 34.018 54.0395 35.3815 54.0395C37.1217 54.0395 38.1444 52.7478 38.1444 50.5769C38.1444 48.9443 37.337 47.3475 35.2559 47.3475C35.1124 47.3475 34.9688 47.3475 34.8253 47.3655V46.8273C36.3862 46.4864 37.2114 45.3382 37.2114 44.3335C37.2114 43.2032 36.6553 42.5394 35.7223 42.5394C34.5921 42.5394 33.2465 43.6696 33.0312 45.7149H32.5647V43.257ZM48.6731 42.0729C50.9875 42.0729 52.4407 43.0776 52.4407 44.7999C52.4407 45.8764 51.7051 46.7734 50.5031 47.1143C52.5483 47.3117 54.1092 48.6034 54.1092 50.6128C54.1092 53.0887 52.1536 54.6316 49.0498 54.6316H43.8828V54.5598C43.9546 54.0934 43.9725 53.8781 43.9725 52.7478V43.9567C43.9725 42.8264 43.9546 42.6111 43.8828 42.1447V42.0729H48.6731ZM46.6637 53.8781H48.5475C50.2878 53.8781 51.4181 52.6401 51.4181 50.7922C51.4181 48.8008 50.0187 47.7602 47.794 47.5628L47.3813 47.527V47.0605L47.5966 47.0246C48.996 46.7914 49.9289 46.1455 49.9289 44.7461C49.9289 43.562 49.0857 42.8264 47.7222 42.8264H46.6637V53.8781ZM57.2405 42.0729H65.0986V43.0058H65.0269C64.5604 42.8264 64.2913 42.8264 63.3942 42.8264H60.0213V45.8943H63.6992V46.6479H60.0213V53.8781H64.058C65.0089 53.8781 65.2242 53.8601 65.6907 53.7525H65.7624V54.6316H57.2405V54.5598C57.3122 54.0934 57.3302 53.8781 57.3302 52.7478V43.9567C57.3302 42.8264 57.3122 42.6111 57.2405 42.1447V42.0729ZM69.116 43.257C69.8157 42.4497 71.2869 41.7858 72.6504 41.7858C74.893 41.7858 76.1309 42.9161 76.1309 44.2438C76.1309 45.2664 75.4671 46.1096 74.3189 46.6479C76.4897 47.0784 77.5662 48.7111 77.5662 50.3796C77.5662 52.4787 75.8618 54.7931 72.453 54.7931C70.3898 54.7931 68.9007 53.6987 68.219 52.4428V50.1822H68.6854C69.2416 52.999 70.5692 54.0395 71.9327 54.0395C73.673 54.0395 74.6956 52.7478 74.6956 50.5769C74.6956 48.9443 73.8883 47.3475 71.8071 47.3475C71.6636 47.3475 71.5201 47.3475 71.3766 47.3655V46.8273C72.9374 46.4864 73.7627 45.3382 73.7627 44.3335C73.7627 43.2032 73.2065 42.5394 72.2736 42.5394C71.1433 42.5394 69.7978 43.6696 69.5825 45.7149H69.116V43.257ZM84.5964 42.0729C85.2423 42.0729 86.1214 41.9473 86.5879 41.5705L90.9296 53.8781H92.1854V56.928H91.719C91.5575 54.9186 91.2705 54.6316 89.6378 54.6316H81.367C79.7344 54.6316 79.4473 54.9186 79.2859 56.928H78.8194V53.8781H80.0215L84.5964 42.0729ZM80.8467 53.8781H88.077L84.6323 43.9746L80.8467 53.8781ZM94.3887 42.0729H97.2951V42.1447C97.1875 42.6111 97.1695 42.8264 97.1695 43.9567V50.8999L104.884 42.0729H105.458C105.315 42.6111 105.315 42.8802 105.315 45.6611V52.7478C105.315 53.8781 105.333 54.0934 105.404 54.5598V54.6316H102.498V54.5598C102.606 54.0934 102.624 53.8781 102.624 52.7478V45.8046L94.909 54.6316H94.3349C94.4784 54.0934 94.4784 53.8242 94.4784 52.9272V43.9567C94.4784 42.8264 94.4604 42.6111 94.3887 42.1447V42.0729ZM109.234 42.0729H117.092V43.0058H117.021C116.554 42.8264 116.285 42.8264 115.388 42.8264H112.015V45.8943H115.693V46.6479H112.015V53.8781H116.052C117.003 53.8781 117.218 53.8601 117.685 53.7525H117.756V54.6316H109.234V54.5598C109.306 54.0934 109.324 53.8781 109.324 52.7478V43.9567C109.324 42.8264 109.306 42.6111 109.234 42.1447V42.0729Z"/>
</mask>
<path d="M12.4463 43.7055V46.1814H12.0337C11.7287 43.7952 9.93456 42.3958 8.10457 42.3958C5.93371 42.3958 3.70903 44.2617 3.70903 48.5496C3.70903 52.4428 5.71842 54.1651 7.79958 54.1651C9.59368 54.1651 11.4416 52.8196 12.0337 50.5052H12.4463V52.8554C11.2263 54.0575 9.45015 54.9186 7.44076 54.9186C3.74491 54.9186 0.838473 51.9763 0.838473 48.2805C0.838473 44.5846 3.74491 41.6423 7.44076 41.6423C9.46809 41.6423 11.2442 42.5035 12.4463 43.7055ZM22.306 54.9186C18.6101 54.9186 15.6678 51.9763 15.6678 48.2805C15.6678 44.5846 18.6101 41.6423 22.306 41.6423C26.0018 41.6423 28.9442 44.5846 28.9442 48.2805C28.9442 51.9763 26.0018 54.9186 22.306 54.9186ZM18.646 48.5496C18.646 51.8687 20.1172 54.1651 22.2342 54.1651C24.8357 54.1651 26.1812 51.0075 26.1812 47.9755C26.1812 44.7102 24.6921 42.3958 22.5572 42.3958C19.9916 42.3958 18.646 45.5355 18.646 48.5496ZM32.5647 43.257C33.2644 42.4497 34.7356 41.7858 36.0991 41.7858C38.3417 41.7858 39.5797 42.9161 39.5797 44.2438C39.5797 45.2664 38.9158 46.1096 37.7676 46.6479C39.9385 47.0784 41.0149 48.7111 41.0149 50.3796C41.0149 52.4787 39.3105 54.7931 35.9018 54.7931C33.8385 54.7931 32.3494 53.6987 31.6677 52.4428V50.1822H32.1341C32.6903 52.999 34.018 54.0395 35.3815 54.0395C37.1217 54.0395 38.1444 52.7478 38.1444 50.5769C38.1444 48.9443 37.337 47.3475 35.2559 47.3475C35.1124 47.3475 34.9688 47.3475 34.8253 47.3655V46.8273C36.3862 46.4864 37.2114 45.3382 37.2114 44.3335C37.2114 43.2032 36.6553 42.5394 35.7223 42.5394C34.5921 42.5394 33.2465 43.6696 33.0312 45.7149H32.5647V43.257ZM48.6731 42.0729C50.9875 42.0729 52.4407 43.0776 52.4407 44.7999C52.4407 45.8764 51.7051 46.7734 50.5031 47.1143C52.5483 47.3117 54.1092 48.6034 54.1092 50.6128C54.1092 53.0887 52.1536 54.6316 49.0498 54.6316H43.8828V54.5598C43.9546 54.0934 43.9725 53.8781 43.9725 52.7478V43.9567C43.9725 42.8264 43.9546 42.6111 43.8828 42.1447V42.0729H48.6731ZM46.6637 53.8781H48.5475C50.2878 53.8781 51.4181 52.6401 51.4181 50.7922C51.4181 48.8008 50.0187 47.7602 47.794 47.5628L47.3813 47.527V47.0605L47.5966 47.0246C48.996 46.7914 49.9289 46.1455 49.9289 44.7461C49.9289 43.562 49.0857 42.8264 47.7222 42.8264H46.6637V53.8781ZM57.2405 42.0729H65.0986V43.0058H65.0269C64.5604 42.8264 64.2913 42.8264 63.3942 42.8264H60.0213V45.8943H63.6992V46.6479H60.0213V53.8781H64.058C65.0089 53.8781 65.2242 53.8601 65.6907 53.7525H65.7624V54.6316H57.2405V54.5598C57.3122 54.0934 57.3302 53.8781 57.3302 52.7478V43.9567C57.3302 42.8264 57.3122 42.6111 57.2405 42.1447V42.0729ZM69.116 43.257C69.8157 42.4497 71.2869 41.7858 72.6504 41.7858C74.893 41.7858 76.1309 42.9161 76.1309 44.2438C76.1309 45.2664 75.4671 46.1096 74.3189 46.6479C76.4897 47.0784 77.5662 48.7111 77.5662 50.3796C77.5662 52.4787 75.8618 54.7931 72.453 54.7931C70.3898 54.7931 68.9007 53.6987 68.219 52.4428V50.1822H68.6854C69.2416 52.999 70.5692 54.0395 71.9327 54.0395C73.673 54.0395 74.6956 52.7478 74.6956 50.5769C74.6956 48.9443 73.8883 47.3475 71.8071 47.3475C71.6636 47.3475 71.5201 47.3475 71.3766 47.3655V46.8273C72.9374 46.4864 73.7627 45.3382 73.7627 44.3335C73.7627 43.2032 73.2065 42.5394 72.2736 42.5394C71.1433 42.5394 69.7978 43.6696 69.5825 45.7149H69.116V43.257ZM84.5964 42.0729C85.2423 42.0729 86.1214 41.9473 86.5879 41.5705L90.9296 53.8781H92.1854V56.928H91.719C91.5575 54.9186 91.2705 54.6316 89.6378 54.6316H81.367C79.7344 54.6316 79.4473 54.9186 79.2859 56.928H78.8194V53.8781H80.0215L84.5964 42.0729ZM80.8467 53.8781H88.077L84.6323 43.9746L80.8467 53.8781ZM94.3887 42.0729H97.2951V42.1447C97.1875 42.6111 97.1695 42.8264 97.1695 43.9567V50.8999L104.884 42.0729H105.458C105.315 42.6111 105.315 42.8802 105.315 45.6611V52.7478C105.315 53.8781 105.333 54.0934 105.404 54.5598V54.6316H102.498V54.5598C102.606 54.0934 102.624 53.8781 102.624 52.7478V45.8046L94.909 54.6316H94.3349C94.4784 54.0934 94.4784 53.8242 94.4784 52.9272V43.9567C94.4784 42.8264 94.4604 42.6111 94.3887 42.1447V42.0729ZM109.234 42.0729H117.092V43.0058H117.021C116.554 42.8264 116.285 42.8264 115.388 42.8264H112.015V45.8943H115.693V46.6479H112.015V53.8781H116.052C117.003 53.8781 117.218 53.8601 117.685 53.7525H117.756V54.6316H109.234V54.5598C109.306 54.0934 109.324 53.8781 109.324 52.7478V43.9567C109.324 42.8264 109.306 42.6111 109.234 42.1447V42.0729Z" fill="white"/>
<path d="M12.4463 43.7055H12.7646V43.5737L12.6714 43.4805L12.4463 43.7055ZM12.4463 46.1814V46.4997H12.7646V46.1814H12.4463ZM12.0337 46.1814L11.7179 46.2217L11.7534 46.4997H12.0337V46.1814ZM12.0337 50.5052V50.1869H11.7865L11.7253 50.4263L12.0337 50.5052ZM12.4463 50.5052H12.7646V50.1869H12.4463V50.5052ZM12.4463 52.8554L12.6697 53.0822L12.7646 52.9887V52.8554H12.4463ZM12.128 43.7055V46.1814H12.7646V43.7055H12.128ZM12.4463 45.8631H12.0337V46.4997H12.4463V45.8631ZM12.3494 46.141C12.0251 43.604 10.1027 42.0775 8.10457 42.0775V42.7141C9.76636 42.7141 11.4322 43.9864 11.7179 46.2217L12.3494 46.141ZM8.10457 42.0775C6.92431 42.0775 5.73535 42.5863 4.84726 43.6621C3.96108 44.7356 3.39073 46.3522 3.39073 48.5496H4.02734C4.02734 46.4591 4.56933 44.9988 5.3382 44.0674C6.10517 43.1383 7.11398 42.7141 8.10457 42.7141V42.0775ZM3.39073 48.5496C3.39073 50.5491 3.90699 52.0318 4.7291 53.0208C5.55377 54.0128 6.66711 54.4834 7.79958 54.4834V53.8468C6.85089 53.8468 5.91895 53.4563 5.21865 52.6138C4.51577 51.7683 4.02734 50.4433 4.02734 48.5496H3.39073ZM7.79958 54.4834C9.75409 54.4834 11.7178 53.0242 12.342 50.5841L11.7253 50.4263C11.1654 52.6149 9.43327 53.8468 7.79958 53.8468V54.4834ZM12.0337 50.8235H12.4463V50.1869H12.0337V50.8235ZM12.128 50.5052V52.8554H12.7646V50.5052H12.128ZM12.2229 52.6287C11.0564 53.778 9.35842 54.6003 7.44076 54.6003V55.237C9.54188 55.237 11.3962 54.3369 12.6697 53.0822L12.2229 52.6287ZM7.44076 54.6003C3.92296 54.6003 1.15678 51.8028 1.15678 48.2805H0.520168C0.520168 52.1499 3.56687 55.237 7.44076 55.237V54.6003ZM1.15678 48.2805C1.15678 44.7582 3.92296 41.9606 7.44076 41.9606V41.324C3.56687 41.324 0.520168 44.4111 0.520168 48.2805H1.15678ZM7.44076 41.9606C9.37716 41.9606 11.0741 42.7835 12.2212 43.9306L12.6714 43.4805C11.4144 42.2235 9.55902 41.324 7.44076 41.324V41.9606ZM22.306 54.6003C18.7859 54.6003 15.9861 51.8005 15.9861 48.2805H15.3495C15.3495 52.1521 18.4344 55.237 22.306 55.237V54.6003ZM15.9861 48.2805C15.9861 44.7604 18.7859 41.9606 22.306 41.9606V41.324C18.4344 41.324 15.3495 44.4088 15.3495 48.2805H15.9861ZM22.306 41.9606C25.826 41.9606 28.6259 44.7604 28.6259 48.2805H29.2625C29.2625 44.4088 26.1776 41.324 22.306 41.324V41.9606ZM28.6259 48.2805C28.6259 51.8005 25.826 54.6003 22.306 54.6003V55.237C26.1776 55.237 29.2625 52.1521 29.2625 48.2805H28.6259ZM18.3277 48.5496C18.3277 50.2516 18.7043 51.7198 19.3781 52.7735C20.0556 53.833 21.0444 54.4834 22.2342 54.4834V53.8468C21.307 53.8468 20.5017 53.349 19.9144 52.4305C19.3234 51.5062 18.9643 50.1667 18.9643 48.5496H18.3277ZM22.2342 54.4834C23.6869 54.4834 24.7633 53.5951 25.4603 52.3642C26.1552 51.1369 26.4995 49.5322 26.4995 47.9755H25.8629C25.8629 49.4508 25.5345 50.9409 24.9063 52.0505C24.2801 53.1564 23.383 53.8468 22.2342 53.8468V54.4834ZM26.4995 47.9755C26.4995 46.2988 26.1178 44.8393 25.437 43.7881C24.7527 42.7317 23.7553 42.0775 22.5572 42.0775V42.7141C23.494 42.7141 24.3087 43.2172 24.9027 44.1342C25.5001 45.0566 25.8629 46.3869 25.8629 47.9755H26.4995ZM22.5572 42.0775C21.1216 42.0775 20.0544 42.9624 19.3625 44.1857C18.6722 45.406 18.3277 47.0015 18.3277 48.5496H18.9643C18.9643 47.0836 19.2926 45.6022 19.9166 44.4991C20.5388 43.3991 21.4272 42.7141 22.5572 42.7141V42.0775ZM32.5647 43.257L32.3242 43.0485L32.2464 43.1383V43.257H32.5647ZM37.7676 46.6479L37.6325 46.3596L36.7542 46.7713L37.7057 46.9601L37.7676 46.6479ZM31.6677 52.4428H31.3494V52.5236L31.3879 52.5947L31.6677 52.4428ZM31.6677 50.1822V49.8639H31.3494V50.1822H31.6677ZM32.1341 50.1822L32.4464 50.1206L32.3957 49.8639H32.1341V50.1822ZM34.8253 47.3655H34.507V47.7261L34.8648 47.6813L34.8253 47.3655ZM34.8253 46.8273L34.7574 46.5163L34.507 46.571V46.8273H34.8253ZM33.0312 45.7149V46.0332H33.3178L33.3478 45.7482L33.0312 45.7149ZM32.5647 45.7149H32.2464V46.0332H32.5647V45.7149ZM32.8053 43.4655C33.1152 43.1079 33.6133 42.7651 34.2079 42.5115C34.8002 42.2588 35.4664 42.1041 36.0991 42.1041V41.4675C35.3683 41.4675 34.6172 41.6448 33.9581 41.9259C33.3013 42.206 32.714 42.5988 32.3242 43.0485L32.8053 43.4655ZM36.0991 42.1041C37.1695 42.1041 37.9665 42.374 38.4877 42.7703C39.0046 43.1634 39.2614 43.687 39.2614 44.2438H39.898C39.898 43.4729 39.5358 42.7675 38.873 42.2636C38.2146 41.7629 37.2713 41.4675 36.0991 41.4675V42.1041ZM39.2614 44.2438C39.2614 45.103 38.7103 45.8544 37.6325 46.3596L37.9027 46.9361C39.1214 46.3648 39.898 45.4298 39.898 44.2438H39.2614ZM37.7057 46.9601C39.7227 47.3601 40.6966 48.858 40.6966 50.3796H41.3332C41.3332 48.5642 40.1543 46.7967 37.8295 46.3356L37.7057 46.9601ZM40.6966 50.3796C40.6966 52.2989 39.1387 54.4748 35.9018 54.4748V55.1114C39.4823 55.1114 41.3332 52.6584 41.3332 50.3796H40.6966ZM35.9018 54.4748C33.9577 54.4748 32.5747 53.4464 31.9474 52.2909L31.3879 52.5947C32.1242 53.9509 33.7193 55.1114 35.9018 55.1114V54.4748ZM31.986 52.4428V50.1822H31.3494V52.4428H31.986ZM31.6677 50.5005H32.1341V49.8639H31.6677V50.5005ZM31.8219 50.2439C32.1071 51.6884 32.597 52.7148 33.2224 53.3844C33.8541 54.0607 34.611 54.3578 35.3815 54.3578V53.7212C34.7884 53.7212 34.1997 53.4981 33.6877 52.9499C33.1694 52.395 32.7174 51.4928 32.4464 50.1206L31.8219 50.2439ZM35.3815 54.3578C36.3379 54.3578 37.1246 53.9987 37.6645 53.3206C38.1968 52.6521 38.4627 51.7076 38.4627 50.5769H37.8261C37.8261 51.6171 37.5806 52.404 37.1665 52.924C36.76 53.4345 36.1653 53.7212 35.3815 53.7212V54.3578ZM38.4627 50.5769C38.4627 49.7141 38.2501 48.8314 37.7333 48.1565C37.2069 47.4691 36.3885 47.0292 35.2559 47.0292V47.6659C36.2044 47.6659 36.8303 48.0243 37.2278 48.5435C37.6349 49.0751 37.8261 49.8071 37.8261 50.5769H38.4627ZM35.2559 47.0292C35.1156 47.0292 34.9522 47.0288 34.7858 47.0496L34.8648 47.6813C34.9854 47.6663 35.1091 47.6659 35.2559 47.6659V47.0292ZM35.1436 47.3655V46.8273H34.507V47.3655H35.1436ZM34.8932 47.1382C36.5758 46.7708 37.5298 45.5115 37.5298 44.3335H36.8931C36.8931 45.1648 36.1966 46.202 34.7574 46.5163L34.8932 47.1382ZM37.5298 44.3335C37.5298 43.7201 37.3791 43.1907 37.0614 42.809C36.7373 42.4195 36.2701 42.2211 35.7223 42.2211V42.8577C36.1075 42.8577 36.3849 42.9912 36.5721 43.2162C36.7657 43.4489 36.8931 43.8165 36.8931 44.3335H37.5298ZM35.7223 42.2211C34.3831 42.2211 32.9417 43.5246 32.7146 45.6816L33.3478 45.7482C33.5513 43.8147 34.801 42.8577 35.7223 42.8577V42.2211ZM33.0312 45.3966H32.5647V46.0332H33.0312V45.3966ZM32.883 45.7149V43.257H32.2464V45.7149H32.883ZM50.5031 47.1143L50.4162 46.8081L50.4725 47.4311L50.5031 47.1143ZM43.8828 54.6316H43.5645V54.9499H43.8828V54.6316ZM43.8828 54.5598L43.5682 54.5114L43.5645 54.5355V54.5598H43.8828ZM43.8828 42.1447H43.5645V42.169L43.5682 42.1931L43.8828 42.1447ZM43.8828 42.0729V41.7546H43.5645V42.0729H43.8828ZM46.6637 53.8781H46.3454V54.1964H46.6637V53.8781ZM47.794 47.5628L47.8221 47.2458L47.8215 47.2457L47.794 47.5628ZM47.3813 47.527H47.063V47.8188L47.3538 47.8441L47.3813 47.527ZM47.3813 47.0605L47.329 46.7465L47.063 46.7908V47.0605H47.3813ZM47.5966 47.0246L47.5443 46.7106L47.5966 47.0246ZM46.6637 42.8264V42.5081H46.3454V42.8264H46.6637ZM48.6731 42.3912C49.7899 42.3912 50.6589 42.6344 51.2397 43.0495C51.8081 43.4558 52.1224 44.0408 52.1224 44.7999H52.759C52.759 43.8367 52.3467 43.0582 51.6099 42.5316C50.8854 42.0138 49.8707 41.7546 48.6731 41.7546V42.3912ZM52.1224 44.7999C52.1224 45.7098 51.5061 46.499 50.4162 46.8081L50.5899 47.4205C51.9041 47.0479 52.759 46.0429 52.759 44.7999H52.1224ZM50.4725 47.4311C52.4059 47.6177 53.7909 48.8142 53.7909 50.6128H54.4275C54.4275 48.3926 52.6908 47.0056 50.5336 46.7975L50.4725 47.4311ZM53.7909 50.6128C53.7909 51.7586 53.3426 52.6694 52.5457 53.3012C51.7407 53.9395 50.5528 54.3133 49.0498 54.3133V54.9499C50.6507 54.9499 51.9925 54.5523 52.9412 53.8001C53.8981 53.0414 54.4275 51.9429 54.4275 50.6128H53.7909ZM49.0498 54.3133H43.8828V54.9499H49.0498V54.3133ZM44.2011 54.6316V54.5598H43.5645V54.6316H44.2011ZM44.1974 54.6082C44.2729 54.1174 44.2908 53.8829 44.2908 52.7478H43.6542C43.6542 53.8733 43.6363 54.0693 43.5682 54.5114L44.1974 54.6082ZM44.2908 52.7478V43.9567H43.6542V52.7478H44.2908ZM44.2908 43.9567C44.2908 42.8216 44.2729 42.587 44.1974 42.0963L43.5682 42.1931C43.6363 42.6352 43.6542 42.8312 43.6542 43.9567H44.2908ZM44.2011 42.1447V42.0729H43.5645V42.1447H44.2011ZM43.8828 42.3912H48.6731V41.7546H43.8828V42.3912ZM46.6637 54.1964H48.5475V53.5598H46.6637V54.1964ZM48.5475 54.1964C49.4968 54.1964 50.3025 53.8566 50.869 53.2443C51.4333 52.6345 51.7364 51.7807 51.7364 50.7922H51.0997C51.0997 51.6516 50.8377 52.3408 50.4017 52.8119C49.9681 53.2806 49.3385 53.5598 48.5475 53.5598V54.1964ZM51.7364 50.7922C51.7364 49.7137 51.3532 48.863 50.6464 48.2622C49.9505 47.6707 48.9721 47.3478 47.8221 47.2458L47.7658 47.8799C48.8405 47.9752 49.6742 48.2713 50.2341 48.7473C50.7832 49.214 51.0997 49.8793 51.0997 50.7922H51.7364ZM47.8215 47.2457L47.4089 47.2099L47.3538 47.8441L47.7664 47.8799L47.8215 47.2457ZM47.6996 47.527V47.0605H47.063V47.527H47.6996ZM47.4337 47.3745L47.6489 47.3386L47.5443 46.7106L47.329 46.7465L47.4337 47.3745ZM47.6489 47.3386C48.3779 47.2171 49.0284 46.9821 49.4999 46.5598C49.9834 46.1268 50.2473 45.5251 50.2473 44.7461H49.6106C49.6106 45.3665 49.408 45.7875 49.0752 46.0856C48.7304 46.3944 48.2147 46.5989 47.5443 46.7106L47.6489 47.3386ZM50.2473 44.7461C50.2473 44.0736 50.0049 43.5018 49.5459 43.1021C49.092 42.707 48.4588 42.5081 47.7222 42.5081V43.1447C48.3491 43.1447 48.8193 43.3136 49.1279 43.5823C49.4314 43.8465 49.6106 44.2345 49.6106 44.7461H50.2473ZM47.7222 42.5081H46.6637V43.1447H47.7222V42.5081ZM46.3454 42.8264V53.8781H46.982V42.8264H46.3454ZM57.2405 42.0729V41.7546H56.9222V42.0729H57.2405ZM65.0986 42.0729H65.4169V41.7546H65.0986V42.0729ZM65.0986 43.0058V43.3241H65.4169V43.0058H65.0986ZM65.0269 43.0058L64.9126 43.3029L64.9678 43.3241H65.0269V43.0058ZM60.0213 42.8264V42.5081H59.703V42.8264H60.0213ZM60.0213 45.8943H59.703V46.2126H60.0213V45.8943ZM63.6992 45.8943H64.0175V45.576H63.6992V45.8943ZM63.6992 46.6479V46.9662H64.0175V46.6479H63.6992ZM60.0213 46.6479V46.3295H59.703V46.6479H60.0213ZM60.0213 53.8781H59.703V54.1964H60.0213V53.8781ZM65.6907 53.7525V53.4342H65.6544L65.6191 53.4423L65.6907 53.7525ZM65.7624 53.7525H66.0807V53.4342H65.7624V53.7525ZM65.7624 54.6316V54.9499H66.0807V54.6316H65.7624ZM57.2405 54.6316H56.9222V54.9499H57.2405V54.6316ZM57.2405 54.5598L56.9259 54.5114L56.9222 54.5355V54.5598H57.2405ZM57.2405 42.1447H56.9222V42.169L56.9259 42.1931L57.2405 42.1447ZM57.2405 42.3912H65.0986V41.7546H57.2405V42.3912ZM64.7803 42.0729V43.0058H65.4169V42.0729H64.7803ZM65.0986 42.6875H65.0269V43.3241H65.0986V42.6875ZM65.1411 42.7087C64.6109 42.5048 64.2824 42.5081 63.3942 42.5081V43.1447C64.3001 43.1447 64.5099 43.148 64.9126 43.3029L65.1411 42.7087ZM63.3942 42.5081H60.0213V43.1447H63.3942V42.5081ZM59.703 42.8264V45.8943H60.3396V42.8264H59.703ZM60.0213 46.2126H63.6992V45.576H60.0213V46.2126ZM63.3809 45.8943V46.6479H64.0175V45.8943H63.3809ZM63.6992 46.3295H60.0213V46.9662H63.6992V46.3295ZM59.703 46.6479V53.8781H60.3396V46.6479H59.703ZM60.0213 54.1964H64.058V53.5598H60.0213V54.1964ZM64.058 54.1964C65.0153 54.1964 65.2597 54.1786 65.7622 54.0626L65.6191 53.4423C65.1887 53.5417 65.0026 53.5598 64.058 53.5598V54.1964ZM65.6907 54.0708H65.7624V53.4342H65.6907V54.0708ZM65.4441 53.7525V54.6316H66.0807V53.7525H65.4441ZM65.7624 54.3133H57.2405V54.9499H65.7624V54.3133ZM57.5588 54.6316V54.5598H56.9222V54.6316H57.5588ZM57.5551 54.6082C57.6306 54.1174 57.6485 53.8829 57.6485 52.7478H57.0119C57.0119 53.8733 56.9939 54.0693 56.9259 54.5114L57.5551 54.6082ZM57.6485 52.7478V43.9567H57.0119V52.7478H57.6485ZM57.6485 43.9567C57.6485 42.8216 57.6306 42.587 57.5551 42.0963L56.9259 42.1931C56.9939 42.6352 57.0119 42.8312 57.0119 43.9567H57.6485ZM57.5588 42.1447V42.0729H56.9222V42.1447H57.5588ZM69.116 43.257L68.8755 43.0485L68.7977 43.1383V43.257H69.116ZM74.3189 46.6479L74.1838 46.3596L73.3055 46.7713L74.257 46.9601L74.3189 46.6479ZM68.2189 52.4428H67.9006V52.5236L67.9392 52.5947L68.2189 52.4428ZM68.2189 50.1822V49.8639H67.9006V50.1822H68.2189ZM68.6854 50.1822L68.9977 50.1206L68.947 49.8639H68.6854V50.1822ZM71.3766 47.3655H71.0583V47.7261L71.416 47.6813L71.3766 47.3655ZM71.3766 46.8273L71.3087 46.5163L71.0583 46.571V46.8273H71.3766ZM69.5825 45.7149V46.0332H69.869L69.899 45.7482L69.5825 45.7149ZM69.116 45.7149H68.7977V46.0332H69.116V45.7149ZM69.3565 43.4655C69.6664 43.1079 70.1646 42.7651 70.7591 42.5115C71.3514 42.2588 72.0177 42.1041 72.6504 42.1041V41.4675C71.9195 41.4675 71.1685 41.6448 70.5094 41.9259C69.8526 42.206 69.2653 42.5988 68.8755 43.0485L69.3565 43.4655ZM72.6504 42.1041C73.7208 42.1041 74.5178 42.374 75.039 42.7703C75.5559 43.1634 75.8126 43.687 75.8126 44.2438H76.4492C76.4492 43.4729 76.087 42.7675 75.4243 42.2636C74.7659 41.7629 73.8226 41.4675 72.6504 41.4675V42.1041ZM75.8126 44.2438C75.8126 45.103 75.2616 45.8544 74.1838 46.3596L74.454 46.9361C75.6727 46.3648 76.4492 45.4298 76.4492 44.2438H75.8126ZM74.257 46.9601C76.2739 47.3601 77.2479 48.858 77.2479 50.3796H77.8845C77.8845 48.5642 76.7056 46.7967 74.3808 46.3356L74.257 46.9601ZM77.2479 50.3796C77.2479 52.2989 75.69 54.4748 72.453 54.4748V55.1114C76.0336 55.1114 77.8845 52.6584 77.8845 50.3796H77.2479ZM72.453 54.4748C70.509 54.4748 69.126 53.4464 68.4987 52.2909L67.9392 52.5947C68.6754 53.9509 70.2706 55.1114 72.453 55.1114V54.4748ZM68.5373 52.4428V50.1822H67.9006V52.4428H68.5373ZM68.2189 50.5005H68.6854V49.8639H68.2189V50.5005ZM68.3731 50.2439C68.6584 51.6884 69.1482 52.7148 69.7737 53.3844C70.4054 54.0607 71.1622 54.3578 71.9327 54.3578V53.7212C71.3397 53.7212 70.751 53.4981 70.2389 52.9499C69.7207 52.395 69.2686 51.4928 68.9977 50.1206L68.3731 50.2439ZM71.9327 54.3578C72.8892 54.3578 73.6759 53.9987 74.2158 53.3206C74.7481 52.6521 75.014 51.7076 75.014 50.5769H74.3773C74.3773 51.6171 74.1319 52.404 73.7178 52.924C73.3113 53.4345 72.7166 53.7212 71.9327 53.7212V54.3578ZM75.014 50.5769C75.014 49.7141 74.8014 48.8314 74.2845 48.1565C73.7582 47.4691 72.9398 47.0292 71.8072 47.0292V47.6659C72.7557 47.6659 73.3815 48.0243 73.7791 48.5435C74.1862 49.0751 74.3773 49.8071 74.3773 50.5769H75.014ZM71.8072 47.0292C71.6668 47.0292 71.5035 47.0288 71.3371 47.0496L71.416 47.6813C71.5367 47.6663 71.6604 47.6659 71.8072 47.6659V47.0292ZM71.6949 47.3655V46.8273H71.0583V47.3655H71.6949ZM71.4445 47.1382C73.127 46.7708 74.081 45.5115 74.081 44.3335H73.4444C73.4444 45.1648 72.7478 46.202 71.3087 46.5163L71.4445 47.1382ZM74.081 44.3335C74.081 43.7201 73.9304 43.1907 73.6127 42.809C73.2886 42.4195 72.8214 42.2211 72.2736 42.2211V42.8577C72.6588 42.8577 72.9361 42.9912 73.1233 43.2162C73.317 43.4489 73.4444 43.8165 73.4444 44.3335H74.081ZM72.2736 42.2211C70.9344 42.2211 69.493 43.5246 69.2659 45.6816L69.899 45.7482C70.1026 43.8147 71.3523 42.8577 72.2736 42.8577V42.2211ZM69.5825 45.3966H69.116V46.0332H69.5825V45.3966ZM69.4343 45.7149V43.257H68.7977V45.7149H69.4343ZM84.5964 42.0729V41.7546H84.3784L84.2996 41.9579L84.5964 42.0729ZM86.5879 41.5705L86.888 41.4647L86.7382 41.0399L86.3879 41.3229L86.5879 41.5705ZM90.9296 53.8781L90.6294 53.984L90.7043 54.1964H90.9296V53.8781ZM92.1854 53.8781H92.5038V53.5598H92.1854V53.8781ZM92.1854 56.928V57.2463H92.5038V56.928H92.1854ZM91.719 56.928L91.4017 56.9535L91.4252 57.2463H91.719V56.928ZM79.2859 56.928V57.2463H79.5796L79.6032 56.9535L79.2859 56.928ZM78.8194 56.928H78.5011V57.2463H78.8194V56.928ZM78.8194 53.8781V53.5598H78.5011V53.8781H78.8194ZM80.0215 53.8781V54.1964H80.2395L80.3183 53.9931L80.0215 53.8781ZM80.8467 53.8781L80.5494 53.7644L80.3843 54.1964H80.8467V53.8781ZM88.077 53.8781V54.1964H88.5247L88.3776 53.7735L88.077 53.8781ZM84.6323 43.9746L84.9329 43.8701L84.6464 43.0463L84.335 43.861L84.6323 43.9746ZM84.5964 42.3912C84.9377 42.3912 85.3422 42.3582 85.7274 42.274C86.1065 42.191 86.4987 42.0517 86.7879 41.8182L86.3879 41.3229C86.2105 41.4662 85.93 41.578 85.5914 41.6521C85.2589 41.7248 84.901 41.7546 84.5964 41.7546V42.3912ZM86.2877 41.6764L90.6294 53.984L91.2298 53.7722L86.888 41.4647L86.2877 41.6764ZM90.9296 54.1964H92.1854V53.5598H90.9296V54.1964ZM91.8671 53.8781V56.928H92.5038V53.8781H91.8671ZM92.1854 56.6097H91.719V57.2463H92.1854V56.6097ZM92.0363 56.9025C91.9957 56.3972 91.946 55.9816 91.8646 55.6464C91.7831 55.3107 91.6636 55.0282 91.4647 54.8112C91.0615 54.3714 90.4349 54.3133 89.6378 54.3133V54.9499C90.4734 54.9499 90.8066 55.0353 90.9954 55.2414C91.0926 55.3474 91.1772 55.5134 91.2459 55.7966C91.3148 56.0804 91.3616 56.4542 91.4017 56.9535L92.0363 56.9025ZM89.6378 54.3133H81.367V54.9499H89.6378V54.3133ZM81.367 54.3133C80.57 54.3133 79.9433 54.3714 79.5401 54.8112C79.3412 55.0282 79.2218 55.3107 79.1403 55.6464C79.0589 55.9816 79.0092 56.3972 78.9686 56.9025L79.6032 56.9535C79.6433 56.4542 79.69 56.0804 79.7589 55.7966C79.8277 55.5134 79.9123 55.3474 80.0094 55.2414C80.1983 55.0353 80.5314 54.9499 81.367 54.9499V54.3133ZM79.2859 56.6097H78.8194V57.2463H79.2859V56.6097ZM79.1377 56.928V53.8781H78.5011V56.928H79.1377ZM78.8194 54.1964H80.0215V53.5598H78.8194V54.1964ZM80.3183 53.9931L84.8932 42.1879L84.2996 41.9579L79.7247 53.7631L80.3183 53.9931ZM80.8467 54.1964H88.077V53.5598H80.8467V54.1964ZM88.3776 53.7735L84.9329 43.8701L84.3316 44.0792L87.7763 53.9826L88.3776 53.7735ZM84.335 43.861L80.5494 53.7644L81.1441 53.9917L84.9296 44.0883L84.335 43.861ZM94.3887 42.0729V41.7546H94.0704V42.0729H94.3887ZM97.2951 42.0729H97.6134V41.7546H97.2951V42.0729ZM97.2951 42.1447L97.6053 42.2162L97.6134 42.1809V42.1447H97.2951ZM97.1695 50.8999H96.8512V51.7478L97.4092 51.1093L97.1695 50.8999ZM104.884 42.0729V41.7546H104.74L104.644 41.8634L104.884 42.0729ZM105.458 42.0729L105.766 42.1549L105.873 41.7546H105.458V42.0729ZM105.404 54.5598H105.723V54.5355L105.719 54.5114L105.404 54.5598ZM105.404 54.6316V54.9499H105.723V54.6316H105.404ZM102.498 54.6316H102.18V54.9499H102.498V54.6316ZM102.498 54.5598L102.188 54.4883L102.18 54.5236V54.5598H102.498ZM102.624 45.8046H102.942V44.9567L102.384 45.5952L102.624 45.8046ZM94.909 54.6316V54.9499H95.0535L95.1486 54.8411L94.909 54.6316ZM94.3349 54.6316L94.0273 54.5496L93.9205 54.9499H94.3349V54.6316ZM94.3887 42.1447H94.0704V42.169L94.0741 42.1931L94.3887 42.1447ZM94.3887 42.3912H97.2951V41.7546H94.3887V42.3912ZM96.9768 42.0729V42.1447H97.6134V42.0729H96.9768ZM96.985 42.0731C96.8686 42.5775 96.8512 42.824 96.8512 43.9567H97.4878C97.4878 42.8288 97.5064 42.6448 97.6053 42.2162L96.985 42.0731ZM96.8512 43.9567V50.8999H97.4878V43.9567H96.8512ZM97.4092 51.1093L105.124 42.2824L104.644 41.8634L96.9299 50.6904L97.4092 51.1093ZM104.884 42.3912H105.458V41.7546H104.884V42.3912ZM105.151 41.9909C104.993 42.5806 104.996 42.9065 104.996 45.6611H105.633C105.633 42.854 105.636 42.6416 105.766 42.1549L105.151 41.9909ZM104.996 45.6611V52.7478H105.633V45.6611H104.996ZM104.996 52.7478C104.996 53.8829 105.014 54.1174 105.09 54.6082L105.719 54.5114C105.651 54.0693 105.633 53.8733 105.633 52.7478H104.996ZM105.086 54.5598V54.6316H105.723V54.5598H105.086ZM105.404 54.3133H102.498V54.9499H105.404V54.3133ZM102.816 54.6316V54.5598H102.18V54.6316H102.816ZM102.808 54.6314C102.925 54.127 102.942 53.8805 102.942 52.7478H102.305C102.305 53.8756 102.287 54.0597 102.188 54.4883L102.808 54.6314ZM102.942 52.7478V45.8046H102.305V52.7478H102.942ZM102.384 45.5952L94.6693 54.4221L95.1486 54.8411L102.863 46.0141L102.384 45.5952ZM94.909 54.3133H94.3349V54.9499H94.909V54.3133ZM94.6424 54.7136C94.798 54.13 94.7967 53.8218 94.7967 52.9272H94.1601C94.1601 53.8267 94.1587 54.0567 94.0273 54.5496L94.6424 54.7136ZM94.7967 52.9272V43.9567H94.1601V52.9272H94.7967ZM94.7967 43.9567C94.7967 42.8216 94.7788 42.587 94.7033 42.0963L94.0741 42.1931C94.1421 42.6352 94.1601 42.8312 94.1601 43.9567H94.7967ZM94.707 42.1447V42.0729H94.0704V42.1447H94.707ZM109.234 42.0729V41.7546H108.916V42.0729H109.234ZM117.092 42.0729H117.411V41.7546H117.092V42.0729ZM117.092 43.0058V43.3241H117.411V43.0058H117.092ZM117.021 43.0058L116.906 43.3029L116.962 43.3241H117.021V43.0058ZM112.015 42.8264V42.5081H111.697V42.8264H112.015ZM112.015 45.8943H111.697V46.2126H112.015V45.8943ZM115.693 45.8943H116.011V45.576H115.693V45.8943ZM115.693 46.6479V46.9662H116.011V46.6479H115.693ZM112.015 46.6479V46.3295H111.697V46.6479H112.015ZM112.015 53.8781H111.697V54.1964H112.015V53.8781ZM117.685 53.7525V53.4342H117.648L117.613 53.4423L117.685 53.7525ZM117.756 53.7525H118.075V53.4342H117.756V53.7525ZM117.756 54.6316V54.9499H118.075V54.6316H117.756ZM109.234 54.6316H108.916V54.9499H109.234V54.6316ZM109.234 54.5598L108.92 54.5114L108.916 54.5355V54.5598H109.234ZM109.234 42.1447H108.916V42.169L108.92 42.1931L109.234 42.1447ZM109.234 42.3912H117.092V41.7546H109.234V42.3912ZM116.774 42.0729V43.0058H117.411V42.0729H116.774ZM117.092 42.6875H117.021V43.3241H117.092V42.6875ZM117.135 42.7087C116.605 42.5048 116.276 42.5081 115.388 42.5081V43.1447C116.294 43.1447 116.504 43.148 116.906 43.3029L117.135 42.7087ZM115.388 42.5081H112.015V43.1447H115.388V42.5081ZM111.697 42.8264V45.8943H112.333V42.8264H111.697ZM112.015 46.2126H115.693V45.576H112.015V46.2126ZM115.375 45.8943V46.6479H116.011V45.8943H115.375ZM115.693 46.3295H112.015V46.9662H115.693V46.3295ZM111.697 46.6479V53.8781H112.333V46.6479H111.697ZM112.015 54.1964H116.052V53.5598H112.015V54.1964ZM116.052 54.1964C117.009 54.1964 117.254 54.1786 117.756 54.0626L117.613 53.4423C117.183 53.5417 116.996 53.5598 116.052 53.5598V54.1964ZM117.685 54.0708H117.756V53.4342H117.685V54.0708ZM117.438 53.7525V54.6316H118.075V53.7525H117.438ZM117.756 54.3133H109.234V54.9499H117.756V54.3133ZM109.553 54.6316V54.5598H108.916V54.6316H109.553ZM109.549 54.6082C109.624 54.1174 109.642 53.8829 109.642 52.7478H109.006C109.006 53.8733 108.988 54.0693 108.92 54.5114L109.549 54.6082ZM109.642 52.7478V43.9567H109.006V52.7478H109.642ZM109.642 43.9567C109.642 42.8216 109.624 42.587 109.549 42.0963L108.92 42.1931C108.988 42.6352 109.006 42.8312 109.006 43.9567H109.642ZM109.553 42.1447V42.0729H108.916V42.1447H109.553Z" fill="white" mask="url(#path-11-outside-1_665_1872)"/>
<mask id="path-13-outside-2_665_1872" maskUnits="userSpaceOnUse" x="24.6221" y="67.0967" width="69" height="14" fill="black">
<rect fill="white" x="24.6221" y="67.0967" width="69" height="14"/>
<path d="M25.7371 67.538H26.8136L32.1959 76.1676L37.7576 67.538H38.834C38.7623 68.0045 38.7443 68.2197 38.7443 69.1706V78.2129C38.7443 79.3432 38.7623 79.5584 38.834 80.0249V80.0967H35.9276V80.0249C36.0352 79.5584 36.0532 79.3432 36.0532 78.2129V71.5747L31.0297 79.3432H31.0118L26.5803 72.2744V78.2129C26.5803 79.3432 26.5983 79.5584 26.7059 80.0249V80.0967H25.7371V80.0249C25.8089 79.5584 25.8268 79.3432 25.8268 78.2129V69.1706C25.8268 68.2197 25.8089 68.0045 25.7371 67.538ZM42.5988 67.538H50.457V68.4709H50.3852C49.9188 68.2915 49.6496 68.2915 48.7526 68.2915H45.3797V71.3594H49.0576V72.1129H45.3797V79.3432H49.4164C50.3673 79.3432 50.5826 79.3252 51.049 79.2176H51.1208V80.0967H42.5988V80.0249C42.6706 79.5584 42.6885 79.3432 42.6885 78.2129V69.4218C42.6885 68.2915 42.6706 68.0762 42.5988 67.6097V67.538ZM53.8106 67.538H56.717V67.6097C56.6093 68.0762 56.5914 68.2915 56.5914 69.4218V71.8976C56.5914 73.3688 57.3808 74.4094 58.7981 74.4094C59.6055 74.4094 60.3949 74.1762 61.0767 73.62V69.4218C61.0767 68.2915 61.0587 68.0762 60.9511 67.6097V67.538H63.8575V67.6097C63.7857 68.0762 63.7678 68.2915 63.7678 69.4218V78.2129C63.7678 79.3432 63.7857 79.5584 63.8575 80.0249V80.0967H60.9511V80.0249C61.0587 79.5584 61.0767 79.3432 61.0767 78.2129V74.4632C60.1437 75.2347 59.1031 75.5217 58.0267 75.5217C55.2458 75.5217 53.9003 73.9609 53.9003 72.0412V69.4218C53.9003 68.2915 53.8823 68.0762 53.8106 67.6097V67.538ZM67.363 67.538H75.6159V68.4171H75.5441C75.0776 68.3094 74.8623 68.2915 73.9115 68.2915H72.835V78.2129C72.835 79.3073 72.853 79.5046 72.9427 79.9352L72.9606 80.0249V80.0967H70.0183V80.0249L70.0362 79.9352C70.1259 79.5046 70.1439 79.3073 70.1439 78.2129V68.2915H69.0674C68.1165 68.2915 67.9012 68.3094 67.4348 68.4171H67.363V67.538ZM89.4843 67.538H92.3548V67.6097C92.283 68.0762 92.2651 68.2915 92.2651 69.2424V78.3923C92.2651 79.3432 92.283 79.5584 92.3548 80.0249V80.0967H89.4843V80.0249C89.556 79.5584 89.574 79.3432 89.574 78.3923V69.2424C89.574 68.2915 89.556 68.0762 89.4843 67.6097V67.538ZM78.3967 80.0967V80.0249C78.4685 79.5584 78.4864 79.3432 78.4864 78.3923V69.2424C78.4864 68.2915 78.4685 68.0762 78.3967 67.6097V67.538H81.3032V67.6097C81.1955 68.0762 81.1776 68.2915 81.1776 69.2424V79.3432H82.3617C84.4249 79.3432 85.4475 77.6567 85.4475 75.9703C85.4475 74.23 84.3531 72.4718 82.1464 72.4718H81.8952V71.9335C82.3258 71.8797 82.7384 71.8438 83.169 71.8438C85.7346 71.8438 88.1028 72.9382 88.1028 75.6653C88.1028 78.4461 86.1472 80.0967 82.8281 80.0967H78.3967Z"/>
</mask>
<path d="M25.7371 67.538H26.8136L32.1959 76.1676L37.7576 67.538H38.834C38.7623 68.0045 38.7443 68.2197 38.7443 69.1706V78.2129C38.7443 79.3432 38.7623 79.5584 38.834 80.0249V80.0967H35.9276V80.0249C36.0352 79.5584 36.0532 79.3432 36.0532 78.2129V71.5747L31.0297 79.3432H31.0118L26.5803 72.2744V78.2129C26.5803 79.3432 26.5983 79.5584 26.7059 80.0249V80.0967H25.7371V80.0249C25.8089 79.5584 25.8268 79.3432 25.8268 78.2129V69.1706C25.8268 68.2197 25.8089 68.0045 25.7371 67.538ZM42.5988 67.538H50.457V68.4709H50.3852C49.9188 68.2915 49.6496 68.2915 48.7526 68.2915H45.3797V71.3594H49.0576V72.1129H45.3797V79.3432H49.4164C50.3673 79.3432 50.5826 79.3252 51.049 79.2176H51.1208V80.0967H42.5988V80.0249C42.6706 79.5584 42.6885 79.3432 42.6885 78.2129V69.4218C42.6885 68.2915 42.6706 68.0762 42.5988 67.6097V67.538ZM53.8106 67.538H56.717V67.6097C56.6093 68.0762 56.5914 68.2915 56.5914 69.4218V71.8976C56.5914 73.3688 57.3808 74.4094 58.7981 74.4094C59.6055 74.4094 60.3949 74.1762 61.0767 73.62V69.4218C61.0767 68.2915 61.0587 68.0762 60.9511 67.6097V67.538H63.8575V67.6097C63.7857 68.0762 63.7678 68.2915 63.7678 69.4218V78.2129C63.7678 79.3432 63.7857 79.5584 63.8575 80.0249V80.0967H60.9511V80.0249C61.0587 79.5584 61.0767 79.3432 61.0767 78.2129V74.4632C60.1437 75.2347 59.1031 75.5217 58.0267 75.5217C55.2458 75.5217 53.9003 73.9609 53.9003 72.0412V69.4218C53.9003 68.2915 53.8823 68.0762 53.8106 67.6097V67.538ZM67.363 67.538H75.6159V68.4171H75.5441C75.0776 68.3094 74.8623 68.2915 73.9115 68.2915H72.835V78.2129C72.835 79.3073 72.853 79.5046 72.9427 79.9352L72.9606 80.0249V80.0967H70.0183V80.0249L70.0362 79.9352C70.1259 79.5046 70.1439 79.3073 70.1439 78.2129V68.2915H69.0674C68.1165 68.2915 67.9012 68.3094 67.4348 68.4171H67.363V67.538ZM89.4843 67.538H92.3548V67.6097C92.283 68.0762 92.2651 68.2915 92.2651 69.2424V78.3923C92.2651 79.3432 92.283 79.5584 92.3548 80.0249V80.0967H89.4843V80.0249C89.556 79.5584 89.574 79.3432 89.574 78.3923V69.2424C89.574 68.2915 89.556 68.0762 89.4843 67.6097V67.538ZM78.3967 80.0967V80.0249C78.4685 79.5584 78.4864 79.3432 78.4864 78.3923V69.2424C78.4864 68.2915 78.4685 68.0762 78.3967 67.6097V67.538H81.3032V67.6097C81.1955 68.0762 81.1776 68.2915 81.1776 69.2424V79.3432H82.3617C84.4249 79.3432 85.4475 77.6567 85.4475 75.9703C85.4475 74.23 84.3531 72.4718 82.1464 72.4718H81.8952V71.9335C82.3258 71.8797 82.7384 71.8438 83.169 71.8438C85.7346 71.8438 88.1028 72.9382 88.1028 75.6653C88.1028 78.4461 86.1472 80.0967 82.8281 80.0967H78.3967Z" fill="white"/>
<path d="M25.7371 67.538V67.2197H25.3661L25.4225 67.5864L25.7371 67.538ZM26.8136 67.538L27.0836 67.3695L26.9902 67.2197H26.8136V67.538ZM32.1959 76.1676L31.9258 76.3361L32.1915 76.762L32.4634 76.34L32.1959 76.1676ZM37.7576 67.538V67.2197H37.584L37.49 67.3656L37.7576 67.538ZM38.834 67.538L39.1486 67.5864L39.2051 67.2197H38.834V67.538ZM38.834 80.0249H39.1523V80.0006L39.1486 79.9765L38.834 80.0249ZM38.834 80.0967V80.415H39.1523V80.0967H38.834ZM35.9276 80.0967H35.6093V80.415H35.9276V80.0967ZM35.9276 80.0249L35.6174 79.9533L35.6093 79.9887V80.0249H35.9276ZM36.0532 71.5747H36.3715V70.4963L35.7859 71.4019L36.0532 71.5747ZM31.0297 79.3432V79.6615H31.2029L31.297 79.516L31.0297 79.3432ZM31.0118 79.3432L30.7421 79.5122L30.8356 79.6615H31.0118V79.3432ZM26.5803 72.2744L26.85 72.1053L26.262 71.1674V72.2744H26.5803ZM26.7059 80.0249H27.0242V79.9887L27.0161 79.9533L26.7059 80.0249ZM26.7059 80.0967V80.415H27.0242V80.0967H26.7059ZM25.7371 80.0967H25.4188V80.415H25.7371V80.0967ZM25.7371 80.0249L25.4225 79.9765L25.4188 80.0006V80.0249H25.7371ZM25.7371 67.8563H26.8136V67.2197H25.7371V67.8563ZM26.5435 67.7064L31.9258 76.3361L32.4659 75.9992L27.0836 67.3695L26.5435 67.7064ZM32.4634 76.34L38.0251 67.7104L37.49 67.3656L31.9283 75.9952L32.4634 76.34ZM37.7576 67.8563H38.834V67.2197H37.7576V67.8563ZM38.5194 67.4896C38.4442 67.9788 38.426 68.2122 38.426 69.1706H39.0626C39.0626 68.2273 39.0804 68.0301 39.1486 67.5864L38.5194 67.4896ZM38.426 69.1706V78.2129H39.0626V69.1706H38.426ZM38.426 78.2129C38.426 79.3479 38.4439 79.5825 38.5194 80.0733L39.1486 79.9765C39.0806 79.5344 39.0626 79.3384 39.0626 78.2129H38.426ZM38.5157 80.0249V80.0967H39.1523V80.0249H38.5157ZM38.834 79.7784H35.9276V80.415H38.834V79.7784ZM36.2459 80.0967V80.0249H35.6093V80.0967H36.2459ZM36.2377 80.0965C36.3541 79.5921 36.3715 79.3456 36.3715 78.2129H35.7349C35.7349 79.3407 35.7163 79.5248 35.6174 79.9533L36.2377 80.0965ZM36.3715 78.2129V71.5747H35.7349V78.2129H36.3715ZM35.7859 71.4019L30.7624 79.1703L31.297 79.516L36.3205 71.7476L35.7859 71.4019ZM31.0297 79.0249H31.0118V79.6615H31.0297V79.0249ZM31.2815 79.1741L26.85 72.1053L26.3106 72.4435L30.7421 79.5122L31.2815 79.1741ZM26.262 72.2744V78.2129H26.8986V72.2744H26.262ZM26.262 78.2129C26.262 79.3456 26.2794 79.5921 26.3958 80.0965L27.0161 79.9533C26.9172 79.5248 26.8986 79.3407 26.8986 78.2129H26.262ZM26.3876 80.0249V80.0967H27.0242V80.0249H26.3876ZM26.7059 79.7784H25.7371V80.415H26.7059V79.7784ZM26.0554 80.0967V80.0249H25.4188V80.0967H26.0554ZM26.0517 80.0733C26.1272 79.5825 26.1451 79.3479 26.1451 78.2129H25.5085C25.5085 79.3384 25.4905 79.5344 25.4225 79.9765L26.0517 80.0733ZM26.1451 78.2129V69.1706H25.5085V78.2129H26.1451ZM26.1451 69.1706C26.1451 68.2122 26.127 67.9788 26.0517 67.4896L25.4225 67.5864C25.4908 68.0301 25.5085 68.2273 25.5085 69.1706H26.1451ZM42.5988 67.538V67.2197H42.2805V67.538H42.5988ZM50.457 67.538H50.7753V67.2197H50.457V67.538ZM50.457 68.4709V68.7892H50.7753V68.4709H50.457ZM50.3852 68.4709L50.271 68.768L50.3261 68.7892H50.3852V68.4709ZM45.3797 68.2915V67.9732H45.0614V68.2915H45.3797ZM45.3797 71.3594H45.0614V71.6777H45.3797V71.3594ZM49.0576 71.3594H49.3759V71.0411H49.0576V71.3594ZM49.0576 72.1129V72.4312H49.3759V72.1129H49.0576ZM45.3797 72.1129V71.7946H45.0614V72.1129H45.3797ZM45.3797 79.3432H45.0614V79.6615H45.3797V79.3432ZM51.049 79.2176V78.8993H51.0128L50.9775 78.9074L51.049 79.2176ZM51.1208 79.2176H51.4391V78.8993H51.1208V79.2176ZM51.1208 80.0967V80.415H51.4391V80.0967H51.1208ZM42.5988 80.0967H42.2805V80.415H42.5988V80.0967ZM42.5988 80.0249L42.2842 79.9765L42.2805 80.0006V80.0249H42.5988ZM42.5988 67.6097H42.2805V67.6341L42.2842 67.6582L42.5988 67.6097ZM42.5988 67.8563H50.457V67.2197H42.5988V67.8563ZM50.1387 67.538V68.4709H50.7753V67.538H50.1387ZM50.457 68.1526H50.3852V68.7892H50.457V68.1526ZM50.4995 68.1738C49.9692 67.9699 49.6408 67.9732 48.7526 67.9732V68.6098C49.6585 68.6098 49.8683 68.6131 50.271 68.768L50.4995 68.1738ZM48.7526 67.9732H45.3797V68.6098H48.7526V67.9732ZM45.0614 68.2915V71.3594H45.698V68.2915H45.0614ZM45.3797 71.6777H49.0576V71.0411H45.3797V71.6777ZM48.7393 71.3594V72.1129H49.3759V71.3594H48.7393ZM49.0576 71.7946H45.3797V72.4312H49.0576V71.7946ZM45.0614 72.1129V79.3432H45.698V72.1129H45.0614ZM45.3797 79.6615H49.4164V79.0249H45.3797V79.6615ZM49.4164 79.6615C50.3736 79.6615 50.6181 79.6437 51.1206 79.5277L50.9775 78.9074C50.5471 79.0067 50.3609 79.0249 49.4164 79.0249V79.6615ZM51.049 79.5359H51.1208V78.8993H51.049V79.5359ZM50.8025 79.2176V80.0967H51.4391V79.2176H50.8025ZM51.1208 79.7784H42.5988V80.415H51.1208V79.7784ZM42.9171 80.0967V80.0249H42.2805V80.0967H42.9171ZM42.9134 80.0733C42.9889 79.5825 43.0068 79.3479 43.0068 78.2129H42.3702C42.3702 79.3384 42.3523 79.5344 42.2842 79.9765L42.9134 80.0733ZM43.0068 78.2129V69.4218H42.3702V78.2129H43.0068ZM43.0068 69.4218C43.0068 68.2867 42.9889 68.0521 42.9134 67.5613L42.2842 67.6582C42.3523 68.1003 42.3702 68.2963 42.3702 69.4218H43.0068ZM42.9171 67.6097V67.538H42.2805V67.6097H42.9171ZM53.8106 67.538V67.2197H53.4922V67.538H53.8106ZM56.717 67.538H57.0353V67.2197H56.717V67.538ZM56.717 67.6097L57.0271 67.6813L57.0353 67.646V67.6097H56.717ZM61.0767 73.62L61.2779 73.8666L61.395 73.7711V73.62H61.0767ZM60.9511 67.6097H60.6328V67.646L60.6409 67.6813L60.9511 67.6097ZM60.9511 67.538V67.2197H60.6328V67.538H60.9511ZM63.8575 67.538H64.1758V67.2197H63.8575V67.538ZM63.8575 67.6097L64.1721 67.6582L64.1758 67.6341V67.6097H63.8575ZM63.8575 80.0249H64.1758V80.0006L64.1721 79.9765L63.8575 80.0249ZM63.8575 80.0967V80.415H64.1758V80.0967H63.8575ZM60.9511 80.0967H60.6328V80.415H60.9511V80.0967ZM60.9511 80.0249L60.6409 79.9533L60.6328 79.9887V80.0249H60.9511ZM61.0767 74.4632H61.395V73.787L60.8738 74.2179L61.0767 74.4632ZM53.8106 67.6097H53.4922V67.6341L53.496 67.6582L53.8106 67.6097ZM53.8106 67.8563H56.717V67.2197H53.8106V67.8563ZM56.3987 67.538V67.6097H57.0353V67.538H56.3987ZM56.4068 67.5382C56.2904 68.0426 56.2731 68.2891 56.2731 69.4218H56.9097C56.9097 68.2939 56.9283 68.1099 57.0271 67.6813L56.4068 67.5382ZM56.2731 69.4218V71.8976H56.9097V69.4218H56.2731ZM56.2731 71.8976C56.2731 72.6871 56.4849 73.3946 56.92 73.9104C57.3608 74.4331 58.0051 74.7277 58.7981 74.7277V74.0911C58.1739 74.0911 57.7148 73.8654 57.4066 73.5C57.0926 73.1278 56.9097 72.5794 56.9097 71.8976H56.2731ZM58.7981 74.7277C59.6694 74.7277 60.5324 74.4748 61.2779 73.8666L60.8754 73.3733C60.2574 73.8775 59.5416 74.0911 58.7981 74.0911V74.7277ZM61.395 73.62V69.4218H60.7584V73.62H61.395ZM61.395 69.4218C61.395 68.2891 61.3776 68.0426 61.2612 67.5382L60.6409 67.6813C60.7398 68.1099 60.7584 68.2939 60.7584 69.4218H61.395ZM61.2694 67.6097V67.538H60.6328V67.6097H61.2694ZM60.9511 67.8563H63.8575V67.2197H60.9511V67.8563ZM63.5392 67.538V67.6097H64.1758V67.538H63.5392ZM63.5429 67.5613C63.4674 68.0521 63.4495 68.2867 63.4495 69.4218H64.0861C64.0861 68.2963 64.1041 68.1003 64.1721 67.6582L63.5429 67.5613ZM63.4495 69.4218V78.2129H64.0861V69.4218H63.4495ZM63.4495 78.2129C63.4495 79.3479 63.4674 79.5825 63.5429 80.0733L64.1721 79.9765C64.1041 79.5344 64.0861 79.3384 64.0861 78.2129H63.4495ZM63.5392 80.0249V80.0967H64.1758V80.0249H63.5392ZM63.8575 79.7784H60.9511V80.415H63.8575V79.7784ZM61.2694 80.0967V80.0249H60.6328V80.0967H61.2694ZM61.2612 80.0965C61.3776 79.5921 61.395 79.3456 61.395 78.2129H60.7584C60.7584 79.3407 60.7398 79.5248 60.6409 79.9533L61.2612 80.0965ZM61.395 78.2129V74.4632H60.7584V78.2129H61.395ZM60.8738 74.2179C60.0072 74.9345 59.0421 75.2034 58.0267 75.2034V75.84C59.1642 75.84 60.2803 75.5348 61.2795 74.7085L60.8738 74.2179ZM58.0267 75.2034C56.6952 75.2034 55.7477 74.8305 55.1363 74.2672C54.5264 73.7053 54.2186 72.9246 54.2186 72.0412H53.582C53.582 73.0774 53.9469 74.037 54.705 74.7354C55.4616 75.4325 56.5773 75.84 58.0267 75.84V75.2034ZM54.2186 72.0412V69.4218H53.582V72.0412H54.2186ZM54.2186 69.4218C54.2186 68.2867 54.2007 68.0521 54.1252 67.5613L53.496 67.6582C53.564 68.1003 53.582 68.2963 53.582 69.4218H54.2186ZM54.1289 67.6097V67.538H53.4922V67.6097H54.1289ZM67.363 67.538V67.2197H67.0447V67.538H67.363ZM75.6159 67.538H75.9342V67.2197H75.6159V67.538ZM75.6159 68.4171V68.7354H75.9342V68.4171H75.6159ZM75.5441 68.4171L75.4725 68.7272L75.5079 68.7354H75.5441V68.4171ZM72.835 68.2915V67.9732H72.5167V68.2915H72.835ZM72.9427 79.9352L73.2548 79.8728L73.2543 79.8703L72.9427 79.9352ZM72.9606 80.0249H73.2789V79.9934L73.2727 79.9625L72.9606 80.0249ZM72.9606 80.0967V80.415H73.2789V80.0967H72.9606ZM70.0183 80.0967H69.7V80.415H70.0183V80.0967ZM70.0183 80.0249L69.7062 79.9625L69.7 79.9934V80.0249H70.0183ZM70.0362 79.9352L69.7246 79.8703L69.7241 79.8728L70.0362 79.9352ZM70.1439 68.2915H70.4622V67.9732H70.1439V68.2915ZM67.4348 68.4171V68.7354H67.471L67.5063 68.7272L67.4348 68.4171ZM67.363 68.4171H67.0447V68.7354H67.363V68.4171ZM67.363 67.8563H75.6159V67.2197H67.363V67.8563ZM75.2976 67.538V68.4171H75.9342V67.538H75.2976ZM75.6159 68.0988H75.5441V68.7354H75.6159V68.0988ZM75.6157 68.1069C75.1132 67.991 74.8687 67.9732 73.9115 67.9732V68.6098C74.856 68.6098 75.0421 68.6279 75.4725 68.7272L75.6157 68.1069ZM73.9115 67.9732H72.835V68.6098H73.9115V67.9732ZM72.5167 68.2915V78.2129H73.1533V68.2915H72.5167ZM72.5167 78.2129C72.5167 79.3103 72.5342 79.5354 72.631 80.0001L73.2543 79.8703C73.1717 79.4738 73.1533 79.3043 73.1533 78.2129H72.5167ZM72.6305 79.9976L72.6485 80.0873L73.2727 79.9625L73.2548 79.8728L72.6305 79.9976ZM72.6423 80.0249V80.0967H73.2789V80.0249H72.6423ZM72.9606 79.7784H70.0183V80.415H72.9606V79.7784ZM70.3366 80.0967V80.0249H69.7V80.0967H70.3366ZM70.3304 80.0873L70.3483 79.9976L69.7241 79.8728L69.7062 79.9625L70.3304 80.0873ZM70.3478 80.0001C70.4446 79.5354 70.4622 79.3103 70.4622 78.2129H69.8256C69.8256 79.3043 69.8072 79.4738 69.7246 79.8703L70.3478 80.0001ZM70.4622 78.2129V68.2915H69.8256V78.2129H70.4622ZM70.1439 67.9732H69.0674V68.6098H70.1439V67.9732ZM69.0674 67.9732C68.1102 67.9732 67.8657 67.991 67.3632 68.1069L67.5063 68.7272C67.9368 68.6279 68.1229 68.6098 69.0674 68.6098V67.9732ZM67.4348 68.0988H67.363V68.7354H67.4348V68.0988ZM67.6813 68.4171V67.538H67.0447V68.4171H67.6813ZM89.4843 67.538V67.2197H89.1659V67.538H89.4843ZM92.3548 67.538H92.6731V67.2197H92.3548V67.538ZM92.3548 67.6097L92.6694 67.6582L92.6731 67.6341V67.6097H92.3548ZM92.3548 80.0249H92.6731V80.0006L92.6694 79.9765L92.3548 80.0249ZM92.3548 80.0967V80.415H92.6731V80.0967H92.3548ZM89.4843 80.0967H89.1659V80.415H89.4843V80.0967ZM89.4843 80.0249L89.1696 79.9765L89.1659 80.0006V80.0249H89.4843ZM89.4843 67.6097H89.1659V67.6341L89.1696 67.6582L89.4843 67.6097ZM78.3967 80.0967H78.0784V80.415H78.3967V80.0967ZM78.3967 80.0249L78.0821 79.9765L78.0784 80.0006V80.0249H78.3967ZM78.3967 67.6097H78.0784V67.6341L78.0821 67.6582L78.3967 67.6097ZM78.3967 67.538V67.2197H78.0784V67.538H78.3967ZM81.3032 67.538H81.6215V67.2197H81.3032V67.538ZM81.3032 67.6097L81.6133 67.6813L81.6215 67.646V67.6097H81.3032ZM81.1776 79.3432H80.8593V79.6615H81.1776V79.3432ZM81.8952 72.4718H81.5769V72.7901H81.8952V72.4718ZM81.8952 71.9335L81.8557 71.6177L81.5769 71.6525V71.9335H81.8952ZM89.4843 67.8563H92.3548V67.2197H89.4843V67.8563ZM92.0365 67.538V67.6097H92.6731V67.538H92.0365ZM92.0402 67.5613C91.9649 68.0506 91.9468 68.2839 91.9468 69.2424H92.5834C92.5834 68.2991 92.6012 68.1019 92.6694 67.6582L92.0402 67.5613ZM91.9468 69.2424V78.3923H92.5834V69.2424H91.9468ZM91.9468 78.3923C91.9468 79.3507 91.9649 79.5841 92.0402 80.0733L92.6694 79.9765C92.6012 79.5328 92.5834 79.3356 92.5834 78.3923H91.9468ZM92.0365 80.0249V80.0967H92.6731V80.0249H92.0365ZM92.3548 79.7784H89.4843V80.415H92.3548V79.7784ZM89.8026 80.0967V80.0249H89.1659V80.0967H89.8026ZM89.7989 80.0733C89.8741 79.5841 89.8923 79.3507 89.8923 78.3923H89.2557C89.2557 79.3356 89.2379 79.5328 89.1696 79.9765L89.7989 80.0733ZM89.8923 78.3923V69.2424H89.2557V78.3923H89.8923ZM89.8923 69.2424C89.8923 68.2839 89.8741 68.0506 89.7989 67.5613L89.1696 67.6582C89.2379 68.1019 89.2557 68.2991 89.2557 69.2424H89.8923ZM89.8026 67.6097V67.538H89.1659V67.6097H89.8026ZM78.715 80.0967V80.0249H78.0784V80.0967H78.715ZM78.7113 80.0733C78.7866 79.5841 78.8047 79.3507 78.8047 78.3923H78.1681C78.1681 79.3356 78.1504 79.5328 78.0821 79.9765L78.7113 80.0733ZM78.8047 78.3923V69.2424H78.1681V78.3923H78.8047ZM78.8047 69.2424C78.8047 68.2839 78.7866 68.0506 78.7113 67.5613L78.0821 67.6582C78.1504 68.1019 78.1681 68.2991 78.1681 69.2424H78.8047ZM78.715 67.6097V67.538H78.0784V67.6097H78.715ZM78.3967 67.8563H81.3032V67.2197H78.3967V67.8563ZM80.9849 67.538V67.6097H81.6215V67.538H80.9849ZM80.993 67.5382C80.877 68.0407 80.8593 68.2852 80.8593 69.2424H81.4959C81.4959 68.2979 81.514 68.1117 81.6133 67.6813L80.993 67.5382ZM80.8593 69.2424V79.3432H81.4959V69.2424H80.8593ZM81.1776 79.6615H82.3617V79.0249H81.1776V79.6615ZM82.3617 79.6615C83.4898 79.6615 84.3518 79.1961 84.9254 78.4898C85.4926 77.7914 85.7658 76.8736 85.7658 75.9703H85.1292C85.1292 76.7533 84.8912 77.522 84.4312 78.0885C83.9777 78.647 83.2967 79.0249 82.3617 79.0249V79.6615ZM85.7658 75.9703C85.7658 75.0373 85.4731 74.087 84.8687 73.3642C84.2582 72.6341 83.3431 72.1535 82.1464 72.1535V72.7901C83.1564 72.7901 83.8919 73.1885 84.3803 73.7726C84.8748 74.364 85.1292 75.163 85.1292 75.9703H85.7658ZM82.1464 72.1535H81.8952V72.7901H82.1464V72.1535ZM82.2135 72.4718V71.9335H81.5769V72.4718H82.2135ZM81.9347 72.2494C82.3578 72.1965 82.7563 72.1621 83.169 72.1621V71.5255C82.7206 71.5255 82.2938 71.5629 81.8557 71.6177L81.9347 72.2494ZM83.169 72.1621C84.4135 72.1621 85.5775 72.4286 86.4202 72.9959C87.2473 73.5527 87.7845 74.4102 87.7845 75.6653H88.4211C88.4211 74.1932 87.7742 73.14 86.7758 72.4679C85.7929 71.8062 84.4901 71.5255 83.169 71.5255V72.1621ZM87.7845 75.6653C87.7845 76.9756 87.3271 77.9889 86.5052 78.6802C85.676 79.3777 84.4388 79.7784 82.8281 79.7784V80.415C84.5366 80.415 85.9367 79.9904 86.915 79.1674C87.9007 78.3382 88.4211 77.1357 88.4211 75.6653H87.7845ZM82.8281 79.7784H78.3967V80.415H82.8281V79.7784Z" fill="white" mask="url(#path-13-outside-2_665_1872)"/>
</svg>
