<svg width="571" height="451" viewBox="0 0 571 451" fill="none" xmlns="http://www.w3.org/2000/svg">
<path d="M323.66 0.999951C324.95 2.03995 326.34 2.96995 327.52 4.11995C331.85 8.38995 332.2 13.9799 327.9 18.25C325.18 20.95 324.79 23.66 325.21 27.2099C326.01 33.95 326.31 40.75 326.84 47.5299C326.9 48.3099 327.08 49.08 327.31 50.5C329.84 48.7099 332 47.27 334.07 45.72C339.13 41.95 344.14 38.0999 349.2 34.34C351.15 32.8899 352.43 31.25 352.77 28.66C353.02 26.76 353.9 24.7999 354.97 23.17C357.8 18.8699 362.17 17.92 366.68 20.35C371.04 22.71 372.82 27.68 370.93 32.27C368.98 37 364.17 39.72 359.75 38C356.79 36.8499 354.84 37.5299 352.55 39.3699C346.34 44.3599 339.93 49.11 333.62 53.99C332.45 54.9 331.06 55.7799 330.37 57.0099C327.04 62.8999 323.9 68.9 320.51 75.21C321.65 75.33 322.57 75.54 323.48 75.51C332.27 75.23 341.05 74.71 349.84 74.69C355.05 74.68 360.07 76.12 364.13 79.66C369.04 83.95 370.27 89.71 367.11 95.38C365.62 98.07 363.47 100.61 361.07 102.53C355.87 106.68 350.1 109.96 343.68 112C341.51 112.69 339.51 113.91 337.04 115.07C338.16 116.25 338.81 117.23 339.71 117.84C345.9 122.03 349.79 128.04 352.21 134.83C357.58 149.89 351.16 164.89 335.78 170.42C323.18 174.95 310.33 173.94 297.83 168.88C289.53 165.51 283.52 159.4 277.82 152.87C273.89 148.37 270.04 143.81 265.82 138.88C262.84 141.35 260 143.79 257.07 146.12C254.09 148.49 251.07 150.82 247.97 153.03C246.92 153.78 245.62 154.35 244.36 154.64C240.82 155.45 238.91 153.72 240.18 150.35C241.92 145.72 244.35 141.34 246.58 136.91C247.67 134.74 249 132.69 250.74 129.69C244.42 129.4 239.02 129 233.63 128.94C218.62 128.78 206.62 122.94 197.99 110.51C193.16 103.55 191.04 95.85 191.83 87.43C192.58 79.41 197.15 74.6 205.03 72.54C213.82 70.25 222.46 71.43 231.14 73.03C232.37 73.26 233.63 73.35 234.65 73.47C234.65 67.31 234.6 61.56 234.66 55.81C234.75 48.11 236.16 40.6499 239.04 33.4799C241.83 26.5499 246.84 22.82 254.32 21.62C262.89 20.25 270.81 21.9 278.58 25.2099C285.44 28.1299 289.16 33.63 290.69 40.6399C291.46 44.18 291.91 47.87 291.88 51.49C291.8 60.11 291.34 68.7299 291.06 77.35C291.05 77.7999 291.28 78.27 291.55 79.32C292.95 78.27 294.16 77.5 295.21 76.55C302.73 69.78 310.16 62.91 317.76 56.24C319.67 54.56 320.76 52.96 320.6 50.33C320.11 41.88 319.94 33.41 319.28 24.9699C319.15 23.2999 317.6 21.5199 316.27 20.2199C313.85 17.84 311.58 15.57 311.46 11.86C311.3 6.88995 312.91 4.12995 317.46 2.03995C318.21 1.69995 318.94 1.31995 319.68 0.949951C321.01 0.949951 322.34 0.949951 323.67 0.949951L323.66 0.999951ZM241.06 123.4C241.09 123.15 241.12 122.9 241.15 122.65C244.64 122.65 248.14 122.49 251.62 122.7C254.8 122.88 256.85 121.59 258.72 119.1C262.59 113.93 266.7 108.93 270.78 103.91C274.97 98.77 279.29 93.73 283.44 88.55C284.18 87.63 284.64 86.2599 284.72 85.06C285.14 78.45 284.87 71.74 285.87 65.23C286.91 58.5 286.22 51.9699 285.35 45.4199C284.64 40.09 282.85 34.81 277.8 31.9799C270.71 28.01 263.14 25.95 254.83 27.79C250.25 28.8 246.88 31.02 245.1 35.3899C244.23 37.5299 243.34 39.68 242.7 41.9C239.9 51.51 240.9 61.34 241.35 71.09C241.5 74.2899 242.19 77.4799 245.66 79.53C247.44 80.59 248.48 83.15 249.48 85.21C250.56 87.44 249.61 89.51 247.8 90.96C245.8 92.57 243.5 92.1899 241.95 90.45C240.33 88.64 239.38 86.25 237.94 84.25C236.94 82.85 235.82 80.95 234.39 80.54C224.93 77.81 215.35 75.99 205.53 78.87C200.79 80.26 198.59 83.2999 198.06 88.17C196.29 104.38 210.05 118.19 221.92 120.78C228.19 122.15 234.68 122.55 241.07 123.39L241.06 123.4ZM339.4 80.59C333.44 81.0499 327.64 81.97 321.86 81.81C316.67 81.67 313.68 84.07 310.77 87.84C304.48 95.9799 298 103.99 291.31 111.8C285.38 118.73 279.1 125.36 272.88 132.05C271.26 133.8 270.85 135.1 272.67 137.08C278.28 143.18 283.63 149.53 289.24 155.63C293.51 160.27 298.93 162.86 305 164.68C311.22 166.55 317.44 166.33 323.74 166.53C330.29 166.75 335.79 164.33 340.7 160.42C345.97 156.23 348.7 150.49 348.13 143.84C347.65 138.2 345.68 132.85 341.7 128.48C336.45 122.7 330.88 117.59 322.32 117.78C321.38 117.8 320.31 117.49 319.5 117.01C317.64 115.9 317.59 113.74 319.39 112.53C320.17 112 321.22 111.82 322.17 111.59C326.68 110.5 331.25 109.66 335.69 108.35C343.7 105.97 351.22 102.53 357.82 97.24C361.05 94.65 363.26 91.7 362.23 87.44C361.24 83.35 357.47 82.43 354.12 81.87C349.23 81.06 344.23 80.96 339.39 80.57L339.4 80.59Z" fill="white"/>
<path d="M570.28 412.09C569.74 412.47 569.23 412.92 568.65 413.23C563.97 415.71 560.53 414.5 558.93 409.53C555.62 399.26 552.46 388.95 549.25 378.65C549 377.86 548.87 377.03 548.59 376.25C546.95 371.78 546.48 371.41 541.75 371.38C535.6 371.34 529.44 371.49 523.29 371.31C520.26 371.22 518.77 372.43 517.96 375.27C515.31 384.52 512.52 393.73 509.75 402.95C509.08 405.17 508.4 407.4 507.53 409.54C506.03 413.23 503.02 414.95 500.23 413.9C497.5 412.87 495.84 409.4 496.78 406.01C498.68 399.13 500.68 392.28 502.74 385.45C508.54 366.22 514.39 347.01 520.22 327.79C522.29 320.97 524.35 314.15 526.42 307.33C526.61 306.69 526.89 306.08 527.04 305.43C527.75 302.38 529.88 301.01 532.78 300.78C535.19 300.58 537.39 302.45 538.45 305.52C539.75 309.29 540.95 313.09 542.15 316.89C550.91 344.76 559.66 372.64 568.44 400.5C568.93 402.07 569.68 403.56 570.31 405.08V412.06L570.28 412.09ZM533.47 328.89C532.61 329.2 532.35 329.22 532.32 329.31C529.46 338.29 526.57 347.27 523.8 356.29C523.22 358.18 524.45 359.07 526.25 359.1C530.07 359.16 533.9 359.25 537.72 359.18C542.19 359.11 542.83 358.35 541.58 354.16C539.64 347.64 537.49 341.19 535.42 334.71C534.79 332.76 534.12 330.82 533.48 328.89H533.47Z" fill="white"/>
<path d="M314.17 449.99C262.28 449.99 210.38 450.01 158.49 449.93C155.58 449.93 152.55 449.35 149.79 448.42C148.25 447.9 146.43 446.31 145.98 444.83C144.91 441.26 142.22 441.49 139.67 441.47C126.73 441.35 113.79 441.44 100.85 441.25C96.38 441.19 93.6 437.44 94.73 433.64C95.56 430.85 97.42 429.77 100.33 429.79C109.48 429.87 118.63 429.78 127.77 429.77C140.24 429.76 152.72 429.77 165.19 429.77C201.74 429.77 238.29 429.84 274.85 429.77C285.65 429.75 296.44 429.16 307.23 429.14C317.2 429.13 327.16 429.65 337.13 429.71C343.1 429.74 349.08 429.12 355.05 429.15C389.3 429.31 423.54 429.6 457.79 429.76C461.6 429.78 464.79 430.16 465.73 434.64C466.16 436.71 467.89 436.88 469.62 437C472.43 437.19 475.24 437.45 478.05 437.67C480.56 437.87 482.02 439.23 482.41 441.68C482.83 444.31 482.49 446.91 479.91 448.17C477.9 449.16 475.55 449.79 473.31 449.94C469.17 450.21 465 450.02 460.84 450.02C411.94 450.02 363.04 450.02 314.14 450.02L314.17 449.99Z" fill="white"/>
<path d="M103.59 282.89C103.76 279.45 103.96 277.18 103.96 274.91C103.96 252.3 103.91 229.7 103.96 207.09C103.96 204.98 104.29 202.77 104.97 200.78C105.72 198.61 107.5 197.34 109.99 197.41C112.61 197.48 114.5 198.7 115.28 201.17C115.77 202.72 115.99 204.42 116 206.05C116.06 235.47 116.07 264.89 116.09 294.31C116.09 294.81 116.08 295.31 116.06 295.81C115.93 299.29 115.21 302.49 111.47 303.87C107.75 305.24 105.67 302.52 103.36 300.44C99.79 297.21 96.21 294 92.69 290.73C87.28 285.69 81.93 280.58 76.53 275.53C66.84 266.47 57.13 257.44 47.43 248.4C37.6 239.25 27.76 230.12 17.93 220.98C17.69 220.75 17.5 220.42 17.21 220.29C15.65 219.58 14.07 218.92 12.49 218.24C12.11 219.78 11.42 221.33 11.41 222.87C11.33 246.47 11.34 270.08 11.32 293.68C11.32 295.51 11.41 297.35 11.18 299.16C10.86 301.72 8.47999 304.06 6.36999 304.2C4.41999 304.33 1.21999 302.28 0.599988 300.15C0.139988 298.59 0.0199875 296.89 0.00998752 295.25C-0.0100125 264.67 0.00998752 234.08 0.00998752 203.5C0.00998752 202.84 0.00998752 202.17 0.0499875 201.51C0.189988 199.24 0.809988 197.31 3.17999 196.32C5.78999 195.23 8.13999 195.73 10.1 197.54C19.71 206.38 29.25 215.31 38.85 224.16C47.76 232.38 56.76 240.49 65.63 248.74C72.89 255.49 79.99 262.42 87.23 269.2C91.32 273.03 95.54 276.74 99.75 280.44C100.56 281.16 101.59 281.63 103.58 282.9L103.59 282.89Z" fill="white"/>
<path d="M451.83 351.02C453.46 349.77 455.23 348.66 456.68 347.23C464.74 339.31 472.72 331.3 480.75 323.35C484.45 319.68 487.7 319.09 490.24 321.52C492.96 324.13 492.5 327.84 488.83 331.52C480.14 340.22 471.38 348.86 462.67 357.54C459.35 360.85 459.3 360.93 462.25 364.78C470.84 375.98 479.5 387.11 488.12 398.29C489.24 399.74 490.32 401.21 491.34 402.73C494.37 407.26 494.32 410.45 491.24 412.83C488.61 414.86 486.05 414.02 482.57 409.69C477.79 403.73 473.1 397.7 468.44 391.66C463.57 385.35 458.78 378.98 453.92 372.67C453.34 371.92 452.52 371.36 451.04 370C450.87 372.53 450.67 374.24 450.66 375.96C450.64 385.76 450.68 395.57 450.66 405.37C450.66 407.02 450.64 408.72 450.25 410.31C449.71 412.56 448.33 414.11 445.77 414.31C443.11 414.52 441.04 413.58 440.36 410.98C439.74 408.61 439.38 406.1 439.37 403.66C439.29 382.89 439.31 362.12 439.3 341.34C439.3 340.18 439.3 339.03 439.02 337.78C438.23 343.07 435.6 347.43 432.38 351.46C429.35 355.26 425.62 357.65 420.44 357.47C414.63 357.27 408.8 357.51 402.98 357.42C397.51 357.34 395.36 355.28 395.34 349.88C395.27 331.77 395.3 313.65 395.32 295.54C395.32 294.39 395.36 293.18 395.71 292.1C396.41 289.94 397.65 288.29 400.26 288.17C402.71 288.06 404.59 289.04 405.49 291.21C406.17 292.84 406.52 294.71 406.58 296.49C406.73 301.3 406.56 306.13 406.68 310.94C406.77 314.5 407.24 314.95 410.78 315.07C414.43 315.19 418.11 315.34 421.75 315.05C426.85 314.65 430.29 317.24 433.22 320.81C436.28 324.55 438.38 328.8 439.33 333.65C439.33 330.5 439.32 327.35 439.33 324.2C439.33 323.04 439.29 321.86 439.49 320.72C440.11 317.14 442.99 314.41 445.74 314.67C448.4 314.92 450.52 317.58 450.57 321.31C450.69 329.28 450.62 337.26 450.63 345.24C450.63 346.99 450.63 348.74 450.63 350.48C451.01 350.66 451.4 350.84 451.78 351.02H451.83ZM406.68 335.93C406.68 338.42 406.46 340.94 406.79 343.39C406.92 344.32 408.24 345.76 409.11 345.82C412.91 346.09 416.75 346.08 420.56 345.85C421.72 345.78 423.02 344.9 423.92 344.04C427.58 340.56 428.43 334.15 425.91 329.77C424.78 327.79 423.19 326.49 420.72 326.52C417.07 326.58 413.41 326.56 409.76 326.52C407.71 326.49 406.66 327.36 406.68 329.46C406.7 331.62 406.68 333.78 406.68 335.93Z" fill="white"/>
<path d="M339.73 341.95C351.25 341.95 361.88 341.95 372.5 341.95C373.83 341.95 375.17 342 376.49 341.9C380.66 341.59 381.34 340.94 381.35 336.74C381.39 324.27 381.37 311.8 381.38 299.32C381.38 297.82 381.32 296.31 381.5 294.84C381.86 292 383.74 289.99 386.21 289.8C388.82 289.6 390.88 290.8 391.75 293.19C392.41 295 392.62 297.06 392.62 299.01C392.67 334.27 392.67 369.52 392.62 404.78C392.62 406.9 392.25 409.07 391.67 411.11C391 413.47 389.16 414.46 386.68 414.33C383.75 414.18 381.99 412.83 381.51 409.94C381.27 408.48 381.36 406.96 381.36 405.46C381.36 389.99 381.38 374.53 381.36 359.06C381.36 353.66 381.09 353.41 375.74 353.39C365.26 353.36 354.77 353.35 344.29 353.4C339.96 353.42 339.78 353.6 339.76 357.94C339.71 372.91 339.76 387.87 339.68 402.84C339.67 404.96 339.42 407.2 338.69 409.15C337.82 411.46 335.8 412.81 333.18 412.64C330.8 412.49 328.91 410.35 328.55 407.51C328.38 406.2 328.44 404.85 328.44 403.52C328.44 367.93 328.44 332.34 328.44 296.76C328.44 295.27 328.38 293.74 328.64 292.28C329.1 289.71 330.8 288.11 333.37 287.83C335.72 287.57 337.76 288.6 338.55 290.89C339.24 292.88 339.68 295.07 339.7 297.17C339.8 309.97 339.74 322.78 339.74 335.58C339.74 337.37 339.74 339.17 339.74 341.93L339.73 341.95Z" fill="white"/>
<path d="M148.14 353.83C147.05 364.56 150.02 374.97 156.49 384.25C164.51 395.75 174.99 403.58 189.45 405.23C197.61 406.16 204.93 404.32 211.63 399.76C213.97 398.17 216.2 396.43 218.48 394.77C220.6 393.22 222.77 393.09 224.94 394.63C227.21 396.24 228.18 399.06 227.17 401.64C226.7 402.83 225.98 404.07 225.03 404.9C215.46 413.23 204.63 418.85 191.61 418.06C176.93 417.17 164.39 411.11 154.15 400.51C138.16 383.95 133.5 363.97 136.47 341.68C137.93 330.72 140.61 320.2 146.55 310.69C155.63 296.14 168.99 287.69 185.5 284.57C194.19 282.93 203.15 283.75 211.27 287.97C216.11 290.48 220.86 293.29 225.23 296.53C226.99 297.83 228.39 300.58 228.54 302.76C228.65 304.41 226.86 306.74 225.28 307.82C223.07 309.33 220.54 308.61 218.46 306.71C213.85 302.48 208.47 299.57 202.46 297.88C189.36 294.2 177.75 297.88 167.35 305.75C154.53 315.45 149.5 329.24 148.19 344.7C147.95 347.5 148.16 350.35 148.16 353.84L148.14 353.83Z" fill="white"/>
<path d="M462.97 275.33C462.83 277.24 462.57 279.14 462.56 281.05C462.53 290.53 462.56 300 462.56 309.48C462.56 311.14 462.53 312.81 462.39 314.46C462.13 317.45 460.22 318.75 457.43 319.09C454.84 319.4 452.7 318.63 451.8 316.08C451.1 314.08 450.51 311.92 450.51 309.83C450.43 275.08 450.44 240.34 450.49 205.59C450.49 203.63 450.86 201.63 451.35 199.73C452.02 197.16 454.05 196.02 456.55 195.78C459.1 195.54 460.7 197.23 461.54 199.22C462.28 200.98 462.53 203.06 462.54 205.01C462.62 219.64 462.54 234.27 462.63 248.9C462.64 250.7 461.57 253.3 464.2 254.05C466.56 254.72 467.4 252.3 468.74 250.88C475.25 244.02 481.88 237.28 488.46 230.49C491.69 227.16 494.85 223.77 498.11 220.48C500.39 218.18 503.15 217.77 505.25 219.26C507.84 221.1 508.96 224.35 507.08 227.08C504.46 230.87 501.34 234.35 498.18 237.73C490.82 245.6 483.26 253.3 475.87 261.14C472.67 264.54 473.03 266.18 476.93 269.8C489.92 281.9 502.88 294.03 515.83 306.18C517.03 307.31 518.24 308.52 519.13 309.89C520.68 312.25 520.08 316.06 518.14 317.63C516.51 318.95 512.37 318.99 510.65 317.43C503.78 311.18 496.98 304.86 490.17 298.54C483.99 292.8 477.83 287.03 471.66 281.28C469.28 279.07 466.88 276.9 464.48 274.7C463.97 274.91 463.47 275.11 462.96 275.32L462.97 275.33Z" fill="white"/>
<path d="M218.02 322.5C211.66 323.44 204.63 321.52 197.89 318.51C195.37 317.38 192.97 315.73 190.92 313.87C188.33 311.51 188.17 308.23 189.91 305.22C191.84 301.89 194.9 301.13 197.76 303.78C202.97 308.62 209.13 310.36 216.01 310.16C221.43 310 226.83 310.87 232.18 308.51C240.06 305.03 245.34 296.27 244.49 287.7C243.64 279.03 239.14 273.27 231.43 269.82C222.97 266.03 214.38 262.52 205.94 258.68C192.72 252.67 183.95 241.61 184.69 226.38C185.48 210.25 196.63 198.37 212.51 196.21C222.3 194.88 231.72 195.91 241.03 198.54C245.64 199.84 249.89 202.1 252.76 206.31C254.56 208.95 254.62 211.78 252.67 214.02C250.44 216.58 248.31 217.03 245.25 214.72C235.17 207.08 223.81 206.73 212.1 208.77C204.48 210.1 198.98 214.23 197.26 222.19C195.23 231.53 198.04 240.24 205.49 244.5C212.2 248.33 219.49 251.18 226.64 254.18C232.61 256.69 238.49 259.22 243.68 263.22C250.01 268.1 254.45 274.1 255.5 282.14C256.66 291.03 256.24 299.82 251.26 307.64C245 317.46 235.9 322.47 224.17 322.51C222.51 322.51 220.84 322.51 218.02 322.51V322.5Z" fill="white"/>
<path d="M343.72 284.77C330.35 284.39 321.17 278.11 314.33 267.49C308.52 258.47 306.21 248.55 306.64 238.14C307.3 222.19 313.63 208.85 327.2 199.73C331.52 196.83 336.79 195.72 341.91 195.78C347.32 195.84 352.71 196.61 357.79 199.19C364.77 202.73 369.6 208.28 373.23 214.85C376.79 221.3 378.59 228.41 378.71 235.84C378.8 241.51 377.15 243.41 371.57 243.81C366.94 244.14 362.29 244.41 357.65 244.39C346.35 244.34 335.06 244.12 323.76 243.92C319.68 243.85 318.26 245.32 319.01 249.36C320.52 257.57 325 264.17 331.23 269.36C333.45 271.2 337.01 271.88 340.05 272.21C349.3 273.22 357.74 270.78 365.26 265.25C367.38 263.69 369.81 262.51 372.11 264.27C373.52 265.36 374.81 267.32 375.05 269.05C375.41 271.65 373.61 273.59 371.48 275.17C363.08 281.4 353.54 284.13 343.71 284.77H343.72ZM342.71 232.24C348.85 232.24 354.99 232.31 361.12 232.22C365.58 232.16 366.48 231.11 365.36 226.75C364.67 224.06 363.62 221.34 362.12 219.02C356.07 209.64 344.18 203.24 331.61 211.02C326.07 214.45 322.88 219.94 320.59 225.94C318.88 230.42 319.94 232.14 324.78 232.23C330.75 232.34 336.72 232.26 342.7 232.25L342.71 232.24Z" fill="white"/>
<path d="M71.24 364.75C71.24 378.21 71.24 391.67 71.24 405.13C71.24 406.62 71.29 408.15 71.02 409.6C70.44 412.67 68.71 414.21 66.08 414.29C63.49 414.38 60.84 412.5 60.2 409.83C59.86 408.4 59.92 406.86 59.92 405.37C59.91 394.9 59.95 384.43 59.92 373.96C59.91 368.59 59.72 368.4 54.25 368.38C41.61 368.34 28.97 368.34 16.33 368.38C11.43 368.39 11.39 368.46 11.37 373.43C11.34 384.07 11.37 394.7 11.35 405.34C11.35 406.67 11.42 408.02 11.19 409.32C10.68 412.11 8.23 414.25 5.73 414.29C3.22 414.33 0.829999 412.29 0.229999 409.41C-0.0100012 408.29 0.0199988 407.1 0.0199988 405.94C0.0199988 378.85 0.00999883 351.76 0.0999988 324.67C0.0999988 322.59 0.509999 320.36 1.36 318.47C2.26 316.45 4.13 315.02 6.63 315.66C9.03 316.28 10.83 317.74 11.22 320.35C11.42 321.66 11.37 323 11.37 324.33C11.38 333.3 11.35 342.28 11.4 351.25C11.42 355.96 11.59 356.18 16.06 356.2C29.2 356.25 42.33 356.23 55.47 356.16C59.71 356.14 59.89 355.92 59.92 351.52C59.98 341.88 59.9 332.24 59.97 322.6C60 318.36 61.39 316.5 64.51 315.96C68.12 315.34 70.76 317.22 71.17 320.87C71.37 322.68 71.27 324.52 71.27 326.35C71.27 339.15 71.27 351.94 71.27 364.74L71.24 364.75Z" fill="white"/>
<path d="M181.87 246.01C181.87 255.31 181.99 264.62 181.78 273.92C181.73 276.08 181.12 278.67 179.8 280.27C176.91 283.76 172.56 282.76 170.7 278.58C168.67 274.03 167.83 273.66 163.31 275.55C156.24 278.5 148.78 279.48 141.33 278.38C133.83 277.28 127.74 273.25 125.84 265.47C123.94 257.69 123.42 249.75 127.42 242.21C130.8 235.85 136 232.11 142.89 230.07C149.94 227.98 156.89 227.87 164.04 229.14C168.32 229.9 169.72 228.53 169.82 224.1C169.87 221.61 169.64 219.1 169.87 216.63C170.21 213.01 168.37 211.13 165.32 209.8C156.27 205.84 148.18 207.95 140.62 213.58C139.96 214.07 139.42 214.74 138.76 215.24C135.98 217.33 132.65 217.25 130.68 215.09C128.48 212.68 128.16 209.39 130.59 206.99C133.52 204.11 136.6 200.97 140.24 199.3C151.94 193.91 163.71 193.89 174.83 201.11C178.55 203.52 181.14 206.87 181.2 211.71C181.29 218.84 181.59 225.96 181.72 233.09C181.8 237.4 181.73 241.71 181.73 246.02C181.77 246.02 181.81 246.02 181.85 246.02L181.87 246.01ZM169.87 251.67C169.87 250.51 169.87 249.35 169.87 248.19C169.84 242.91 169.76 242.26 164.65 241.56C159.29 240.83 153.73 240.6 148.36 241.15C145.3 241.46 141.86 243.17 139.62 245.32C135.22 249.54 135.03 258.64 138.32 263.91C139.31 265.5 140.52 266.1 142.35 266.21C149.21 266.61 155.85 265.94 162.25 263.18C169.82 259.92 169.87 260.02 169.87 251.67Z" fill="white"/>
<path d="M570.282 243.993C570.282 253.803 570.382 263.613 570.202 273.423C570.162 275.623 569.632 278.133 568.452 279.923C566.172 283.393 562.882 283.283 560.212 280.063C559.482 279.183 558.862 278.133 558.502 277.053C557.662 274.543 555.902 274.273 553.752 274.893C551.682 275.493 549.582 276.043 547.612 276.893C543.342 278.733 538.852 278.463 534.372 278.683C524.802 279.143 515.872 273.693 513.792 262.973C511.952 253.473 512.532 244.463 519.512 236.813C524.272 231.593 530.452 229.233 537.122 228.623C542.872 228.093 548.742 228.543 554.532 228.933C557.092 229.113 557.862 228.123 558.002 225.973C558.222 222.493 558.522 219.013 558.552 215.533C558.582 212.213 556.182 210.013 552.202 208.923C543.962 206.663 536.442 207.703 529.812 213.413C528.932 214.163 527.932 214.783 526.942 215.393C523.762 217.343 520.902 217.083 518.902 214.693C516.792 212.183 516.832 208.713 519.622 206.213C522.442 203.683 525.522 201.313 528.842 199.523C540.192 193.393 551.592 194.583 562.612 200.443C567.842 203.223 570.272 208.043 570.242 214.073C570.182 224.053 570.222 234.023 570.222 244.003C570.242 244.003 570.262 244.003 570.282 244.003V243.993ZM544.612 240.843C544.612 240.843 544.612 240.783 544.612 240.753C542.282 240.753 539.942 240.593 537.632 240.783C528.422 241.513 521.952 251.163 524.692 259.973C525.872 263.763 529.112 265.873 533.202 266.373C541.002 267.323 547.902 264.363 554.822 261.663C556.202 261.123 557.582 259.153 557.912 257.623C558.592 254.413 558.782 251.043 558.802 247.743C558.832 243.443 556.932 241.353 552.582 240.893C549.952 240.613 547.262 240.843 544.602 240.843H544.612Z" fill="white"/>
<path d="M270.67 360.72C270.67 345.76 270.65 330.8 270.67 315.84C270.68 308.7 272.33 307.11 279.53 307.09C290.84 307.06 302.15 307.06 313.46 307.06C314.79 307.06 316.13 307.01 317.45 307.17C320.54 307.55 322.56 309.61 322.63 312.28C322.7 315.03 320.47 317.95 317.75 318.41C316.45 318.63 315.1 318.53 313.77 318.54C304.62 318.55 295.47 318.51 286.33 318.57C282.19 318.59 282.08 318.71 282.05 322.74C281.98 331.88 281.96 341.02 282.01 350.17C282.03 354.6 282.45 354.99 286.88 355.02C295.03 355.08 303.18 355.03 311.33 355.04C312.66 355.04 314.01 354.98 315.32 355.16C318.51 355.62 320.8 358.08 320.65 360.74C320.49 363.75 318.03 366.35 314.8 366.41C306.82 366.54 298.83 366.44 290.85 366.48C281.25 366.52 281.98 365.44 281.97 375.29C281.96 382.77 281.93 390.25 281.99 397.73C282.03 402.54 282.37 402.88 287.07 402.91C295.55 402.97 304.04 402.91 312.52 402.94C314.18 402.94 315.88 402.9 317.49 403.23C320.56 403.87 322.16 406.35 321.86 409.53C321.58 412.51 319.88 414.27 316.57 414.29C303.26 414.38 289.96 414.32 276.65 414.33C273.68 414.33 271.97 412.63 271.3 410C270.81 408.1 270.7 406.07 270.69 404.09C270.64 389.63 270.66 375.17 270.66 360.71H270.68L270.67 360.72Z" fill="white"/>
<path d="M445.64 250.45C445.64 258.76 445.69 267.08 445.6 275.39C445.58 277.18 445.38 279.07 444.76 280.72C443.87 283.1 441.83 284.32 439.27 284.29C437.05 284.26 434.73 281.97 434.41 279.34C434.13 277.04 434.21 274.69 434.21 272.37C434.19 260.23 434.27 248.1 434.16 235.96C434.13 232.15 433.71 228.34 433.37 224.54C432.57 215.66 422.84 209.3 414.47 210.13C406.48 210.92 400.57 215.16 394.42 219.22C393.2 220.03 392.8 222.75 392.78 224.61C392.63 235.08 392.71 245.56 392.7 256.03C392.7 262.83 392.69 269.63 392.66 276.43C392.66 277.26 392.63 278.1 392.46 278.91C391.9 281.53 389.31 283.86 386.94 283.94C384.75 284.02 381.76 281.54 381.62 278.84C381.22 270.9 381.1 262.94 380.91 254.99C380.82 251.19 380.82 247.38 380.79 243.58C380.73 236.77 380.53 229.95 380.65 223.14C380.77 215.87 381.15 208.6 381.48 201.33C381.6 198.6 382.73 196.49 385.62 195.81C388.15 195.21 390.47 196.57 391.98 199.45C392.21 199.89 392.42 200.35 392.56 200.83C393.32 203.38 394.94 203.78 397.18 202.72C398.38 202.15 399.61 201.65 400.79 201.06C408.6 197.15 417.12 196.69 425.08 198.87C435.94 201.84 445.59 213.45 445.62 225.03C445.64 233.51 445.62 241.99 445.62 250.47H445.64V250.45Z" fill="white"/>
<path d="M147.7 408.38C147.4 411.42 146.13 413.25 143.69 414.08C141.12 414.96 138.84 414.13 137.51 411.36C135.01 406.13 132.81 400.75 130.5 395.43C129.18 392.39 127.74 389.39 126.59 386.28C125.68 383.82 124.04 383.17 121.61 383.21C115.13 383.31 108.65 383.36 102.18 383.17C99.02 383.08 97.34 384.34 96.27 387.25C93.75 394.09 91.02 400.85 88.34 407.63C87.79 409.01 87.39 410.72 86.34 411.56C84.91 412.7 82.86 413.86 81.2 413.71C78.81 413.5 76.99 411.52 76.96 408.9C76.94 406.97 77.33 404.93 78.03 403.13C86.29 381.96 94.63 360.83 102.98 339.7C103.89 337.39 105.04 335.17 106.02 332.88C107.01 330.55 108.46 329.01 111.24 329.1C113.95 329.19 115.48 330.72 116.49 333C118.31 337.09 120.19 341.16 121.92 345.29C129.99 364.57 138.02 383.86 146.02 403.16C146.77 404.98 147.24 406.92 147.71 408.38H147.7ZM120.02 370.59C117.14 363.63 114.52 357.31 111.9 350.99C111.51 351.02 111.12 351.05 110.74 351.08C108.22 357.45 105.71 363.82 103.05 370.57C108.88 372.45 113.98 372.48 120.03 370.59H120.02Z" fill="white"/>
<path d="M283.88 261.42C283.88 267.57 283.85 273.72 283.88 279.88C283.92 285.77 284.33 286.18 290.07 286.26C293.56 286.31 297.06 286.13 300.55 286.31C304.6 286.51 306.97 289.21 306.85 293.13C306.75 296.34 305.28 298.35 302.11 298.43C293.96 298.64 285.81 298.63 277.66 298.48C274.69 298.43 272.75 296.43 272.69 293.28C272.43 280.17 272.4 267.06 272.22 253.95C272.16 249.64 271.9 245.34 271.72 241.04C271.62 238.5 270.05 237.61 267.76 237.56C265.1 237.51 262.42 237.63 259.78 237.38C255.79 236.99 253.7 234.82 253.72 231.47C253.74 227.82 255.36 225.89 259.02 225.51C261.16 225.29 263.34 225.4 265.5 225.37C271.29 225.28 272.4 224.19 272.43 218.27C272.46 213.12 272.35 207.97 272.34 202.82C272.33 199.27 273.68 197.15 276.5 196.18C279.5 195.15 282.27 196.4 283.15 199.46C283.64 201.19 283.82 203.05 283.85 204.86C283.94 210.18 283.98 215.5 283.85 220.82C283.79 223.32 284.83 224.55 287.21 224.78C289.36 224.99 291.52 225.04 293.65 225.34C295.44 225.59 297.34 225.8 298.92 226.59C300.98 227.61 302.15 229.54 301.62 231.97C301.15 234.13 300.3 236.26 297.75 236.63C294.64 237.08 291.49 237.32 288.35 237.56C284.58 237.84 284 238.25 283.94 242C283.84 248.48 283.91 254.97 283.91 261.45H283.87L283.88 261.42Z" fill="white"/>
<path d="M232.63 381.31C232.63 373 232.67 364.69 232.61 356.37C232.58 351.98 232.11 351.52 227.75 351.45C223.09 351.38 218.43 351.53 213.78 351.38C210.09 351.26 208.28 349.89 207.74 347.29C207.03 343.87 208.86 340.98 212.36 340.26C213.64 339.99 215.01 340.06 216.34 340.06C231.14 340.06 245.95 340.06 260.75 340.08C262.08 340.08 263.44 340.01 264.73 340.26C267.37 340.78 269.28 343.41 269.19 346.1C269.09 349.06 267.36 351.16 264.24 351.3C259.26 351.53 254.26 351.37 249.27 351.43C244.27 351.49 243.92 351.78 243.91 356.88C243.87 372.67 243.93 388.46 243.87 404.26C243.87 406.39 243.51 408.54 243.13 410.65C242.73 412.84 241.37 414.09 239.04 414.32C236.6 414.55 234.62 413.74 233.73 411.52C233.02 409.73 232.67 407.69 232.64 405.75C232.53 397.61 232.59 389.46 232.59 381.31H232.62H232.63Z" fill="white"/>
</svg>
