<svg width="284" height="156" viewBox="0 0 284 156" fill="none" xmlns="http://www.w3.org/2000/svg">
<path opacity="0.2" d="M49.9205 99.6628C41.5071 91.3235 32.5104 84.1114 22.8821 78.1265C27.6183 76.6903 31.795 74.7 35.2762 72.0366C44.6003 78.7201 53.2984 85.2404 58.3044 90.7948L61.4269 93.4765L85.2658 80.13C88.0234 79.3543 90.4656 79.5539 92.3999 81.2701C93.0412 83.4333 92.0082 85.5586 88.6262 87.5825L69.8054 101.852C74.3945 111.347 76.6045 125.012 77.3742 141.168C73.812 143.563 70.8444 146.476 68.6219 150.069C66.9061 133.029 64.9064 117.88 62.238 107.625L49.4913 115.166C49.4913 115.166 52.4407 135.943 50.8391 139.238C50.8391 139.238 42.0884 134.35 39.9263 135.098C39.8857 128.941 39.1924 123.403 36.9836 119.349C27.0547 112.495 20.3152 109.854 14.1807 108.036C16.7579 105.092 21.1052 102.496 26.6536 100.115C30.9798 102.606 35.3059 104.444 39.6416 105.247L49.9205 99.6628Z" fill="white"/>
<path fill-rule="evenodd" clip-rule="evenodd" d="M61.8211 97.1942L45.0034 86.9651L44.3544 88.0322L60.9407 98.1206C61.0986 97.7148 61.4114 97.3772 61.8211 97.1942ZM60.8795 99.1467L41.641 111.491L42.3155 112.542L61.619 100.156C61.2629 99.9341 60.9902 99.5801 60.8795 99.1467ZM62.8191 100.382L69.7991 122.549L70.9904 122.174L63.9036 99.6671C63.6643 100.023 63.2896 100.288 62.8356 100.378C62.8301 100.379 62.8246 100.38 62.8191 100.382ZM64.1767 98.5213L84.2771 85.7579L83.6076 84.7035L63.571 97.4263C63.8636 97.6647 64.0781 98.0026 64.1573 98.4017C64.1653 98.4416 64.1717 98.4815 64.1767 98.5213Z" fill="white"/>
<path d="M82.0052 79.8101L84.5194 82.8258L88.1644 81.3665L86.0733 84.6896L88.5876 87.7052L84.781 86.7433L82.6898 90.0664L82.4283 86.1489L78.6217 85.187L82.2667 83.7277L82.0052 79.8101Z" fill="white"/>
<path d="M39.1138 109.417L41.6101 110.451L43.3653 108.396L43.153 111.09L45.6494 112.125L43.0218 112.755L42.8095 115.449L41.3978 113.145L38.7702 113.775L40.5254 111.721L39.1138 109.417Z" fill="white"/>
<circle cx="62.5051" cy="98.7144" r="0.796219" transform="rotate(-11.2299 62.5051 98.7144)" fill="white"/>
<circle cx="43.5069" cy="86.8477" r="0.562868" transform="rotate(-11.2299 43.5069 86.8477)" fill="white"/>
<circle cx="70.6807" cy="123.519" r="0.562868" transform="rotate(-11.2299 70.6807 123.519)" fill="white"/>
<path fill-rule="evenodd" clip-rule="evenodd" d="M251.644 24.4382L276.816 24.2477L276.811 23.49L251.528 23.6813C251.634 23.9185 251.674 24.1807 251.644 24.4382ZM251.141 25.3682C250.933 25.5424 250.685 25.6506 250.426 25.6885L260.822 38.6323C261.016 38.4476 261.253 38.326 261.504 38.2715L251.141 25.3682ZM248.876 23.7584C248.883 23.7392 248.891 23.7201 248.899 23.7012L248.83 23.7017L248.876 23.7584ZM238.873 32.5338L260.599 38.903C260.456 39.1263 260.383 39.3767 260.375 39.627L238.704 33.274C238.829 33.0418 238.884 32.7858 238.873 32.5338ZM236.496 33.6783L235.569 50.3257C235.81 50.2253 236.075 50.1921 236.333 50.2303L237.236 34.0172C237.002 33.984 236.773 33.8924 236.571 33.7394C236.545 33.7197 236.52 33.6993 236.496 33.6783ZM260.913 40.7949L237.553 51.5334C237.532 51.2795 237.444 51.0317 237.293 50.8189L260.462 40.1683C260.549 40.4071 260.701 40.6254 260.913 40.7949Z" fill="white"/>
<circle cx="261.933" cy="39.618" r="0.83755" transform="rotate(127.194 261.933 39.618)" fill="white"/>
<circle cx="250.185" cy="24.3185" r="0.659431" transform="rotate(127.194 250.185 24.3185)" fill="white"/>
<circle cx="236.065" cy="52.1309" r="1.25693" transform="rotate(127.194 236.065 52.1309)" fill="white"/>
<circle cx="237.445" cy="32.4883" r="0.894004" transform="rotate(127.194 237.445 32.4883)" fill="white"/>
<circle cx="278.63" cy="23.637" r="1.08478" transform="rotate(127.194 278.63 23.637)" fill="white"/>
<path fill-rule="evenodd" clip-rule="evenodd" d="M46.4069 11.8547L34.2774 11.1901L34.2359 11.9467L46.1588 12.6C46.1649 12.4345 46.2006 12.2673 46.2691 12.1057C46.3071 12.0158 46.3535 11.932 46.4069 11.8547ZM47.012 13.9401C47.2121 14.0248 47.4208 14.0594 47.6242 14.0496L46.546 18.2242C46.2841 18.1464 46.0136 18.1494 45.7642 18.2209L46.8856 13.879C46.9263 13.9012 46.9684 13.9216 47.012 13.9401ZM46.1657 20.966C46.429 20.9628 46.6854 20.8849 46.9048 20.7445L51.4154 29.3979C51.1444 29.3709 50.8745 29.4246 50.6379 29.5459L46.1657 20.966ZM52.5656 31.3366C52.6706 31.0887 52.6987 30.8276 52.6606 30.5797C54.8677 31.3571 60.8049 33.3945 67.8041 35.7864C75.8119 38.5229 85.1817 41.7141 91.8605 43.9857C91.615 44.1172 91.4072 44.3225 91.2738 44.5865C84.6196 42.3231 75.4313 39.1936 67.5591 36.5034C60.7599 34.1799 54.9219 32.1772 52.561 31.3475L52.5656 31.3366ZM49.9316 31.1759C50.0029 31.4246 50.1424 31.6522 50.3382 31.8292C49.6284 32.4723 48.736 33.4019 47.7784 34.4605C46.2309 36.1715 44.5314 38.1993 43.1915 39.8503C43.0819 39.7541 42.9553 39.6735 42.8136 39.6135C42.7057 39.5678 42.5952 39.5367 42.4844 39.5193C43.8477 37.8354 45.6113 35.7268 47.2164 33.9522C48.1902 32.8757 49.1127 31.9141 49.8555 31.2441C49.881 31.2211 49.9064 31.1983 49.9316 31.1759ZM43.5261 41.5148L84.6012 50.794C84.6106 50.6396 84.646 50.4841 84.7097 50.3335C84.7492 50.2404 84.7975 50.1537 84.8534 50.0741L43.6612 40.7684C43.6829 40.9928 43.6506 41.2257 43.5565 41.4479C43.5469 41.4706 43.5368 41.4929 43.5261 41.5148ZM91.2814 45.8657L86.7267 49.6841C86.9523 49.8212 87.1282 50.0156 87.2432 50.2399L91.8015 46.4184C91.5748 46.2826 91.3978 46.0893 91.2814 45.8657ZM93.8293 44.7184L93.883 44.6734L93.7986 44.6447C93.8095 44.669 93.8197 44.6936 93.8293 44.7184Z" fill="white"/>
<circle cx="92.3004" cy="45.0833" r="0.4956" transform="rotate(22.9525 92.3004 45.0833)" fill="white"/>
<circle cx="33.039" cy="11.7032" r="0.4956" transform="rotate(22.9525 33.039 11.7032)" fill="white"/>
<circle cx="85.9709" cy="50.6217" r="0.826321" transform="rotate(22.9525 85.9709 50.6217)" fill="white"/>
<circle cx="51.135" cy="30.9123" r="0.826321" transform="rotate(22.9525 51.135 30.9123)" fill="white"/>
<circle cx="46.2908" cy="19.6902" r="0.61956" transform="rotate(22.9525 46.2908 19.6902)" fill="white"/>
<circle cx="42.3894" cy="40.5939" r="0.61956" transform="rotate(22.9525 42.3894 40.5939)" fill="white"/>
<circle cx="47.7595" cy="12.5891" r="0.826321" transform="rotate(22.9525 47.7595 12.5891)" fill="white"/>
<path fill-rule="evenodd" clip-rule="evenodd" d="M165.249 91.1988C165.502 91.2267 165.759 91.2149 166.01 91.1631L169.953 116.934L169.204 117.048L165.249 91.1988ZM163.776 90.4793C163.96 90.6675 164.166 90.8199 164.388 90.936L153.935 108.957C153.745 108.778 153.532 108.636 153.306 108.53L163.776 90.4793ZM150.025 109.81L125.331 106.469L125.229 107.22L149.852 110.552C149.87 110.299 149.928 110.048 150.025 109.81Z" fill="white"/>
<circle cx="165.222" cy="88.7984" r="1.40658" transform="rotate(47.0675 165.222 88.7984)" fill="white"/>
<circle cx="122.489" cy="106.29" r="1.40658" transform="rotate(47.0675 122.489 106.29)" fill="white"/>
<circle cx="152.101" cy="110.282" r="0.904637" transform="rotate(47.0675 152.101 110.282)" fill="white"/>
<circle cx="169.661" cy="118.408" r="0.904637" transform="rotate(47.0675 169.661 118.408)" fill="white"/>
<g opacity="0.2">
<path d="M278.724 131.208C278.622 130.78 278.427 130.378 278.146 130.023C278.001 129.835 277.829 129.654 277.644 129.508L276.605 128.656L278.535 110.517L246.421 108.672C245.927 116.6 245.549 123.303 245.614 123.828C245.606 123.809 245.608 123.791 245.6 123.781L245.215 123.905L244.83 124.029C244.774 123.86 244.67 123.55 245.665 107.713C246.063 101.43 246.472 95.1292 246.62 92.8908C242.613 92.5349 225.907 91.0691 221.118 90.633C221.26 103.969 216.001 108.382 215.787 108.524L215.631 108.626L209.302 108.578C208.962 111.632 207.87 121.852 207.963 122.806L206.012 123.315C205.834 123.361 205.663 123.434 205.507 123.536C204.943 123.906 204.655 124.585 204.777 125.252L204.796 125.335C204.905 125.955 205.363 126.457 205.961 126.645C207.204 127.027 208.49 127.24 209.783 127.3C211.756 127.384 214.337 127.467 216.972 127.555C216.858 126.625 216.874 125.673 217.046 124.709C217.96 119.505 222.923 116.034 228.118 116.947C233.322 117.862 236.793 122.825 235.88 128.019C235.855 128.171 235.821 128.322 235.788 128.473L243.076 128.993L249.528 129.699C249.531 129.145 249.578 128.596 249.672 128.033C250.586 122.829 255.549 119.357 260.744 120.271C265.948 121.186 269.419 126.148 268.506 131.343C268.482 131.486 268.449 131.628 268.416 131.77L278.328 132.858C278.544 132.88 278.731 132.736 278.771 132.522C278.843 132.084 278.834 131.638 278.724 131.208ZM233.955 109.013C233.955 109.013 233.912 107.218 233.895 106.944L238.565 106.768L238.656 108.813L233.955 109.013Z" fill="white"/>
<path d="M267.01 108.328L267.073 108.334L267.082 108.335L272.533 108.612C272.497 108.608 272.236 104.238 272.226 104.155L266.961 103.752L267.01 108.328Z" fill="white"/>
<path d="M246.933 100.656C249.704 100.93 274.126 103.35 279.243 103.874L279.573 100.746L247.143 97.3696C247.078 98.4443 247.011 99.546 246.933 100.656Z" fill="white"/>
<path d="M252.258 107.571L257.347 107.838L257.621 103.032L252.4 102.633L252.258 107.571Z" fill="white"/>
<path d="M274.457 108.718L277.332 108.867L277.013 104.527L274.011 104.293L274.457 108.718Z" fill="white"/>
<path d="M258.946 103.14L258.884 107.913L264.416 108.198L264.563 103.57L264.527 103.566L258.946 103.14Z" fill="white"/>
<path d="M250.769 102.511L250.742 102.509L246.829 102.208C246.719 103.905 246.608 105.611 246.51 107.273L250.496 107.481L250.769 102.511Z" fill="white"/>
<path d="M215.288 107.446C215.635 107.163 216.62 106.238 217.566 104.281C218.593 102.151 219.934 97.4813 219.957 91.2319C218.052 94.0354 211.051 104.986 209.651 107.305L215.288 107.446Z" fill="white"/>
<path d="M235.555 89.2313C235.025 89.7041 234.317 89.9587 233.606 89.9858C233.14 90.0018 232.684 89.9368 232.221 89.9258C232.158 89.9283 232.095 89.9219 232.031 89.9244L232.184 91.6212L227.24 91.1875L227.413 90.2057C227.387 90.1939 227.362 90.1732 227.336 90.1614C227.096 90.0187 226.908 89.8177 226.719 89.6166C226.097 88.9531 225.457 88.188 225.468 87.2804C225.478 86.8271 225.659 86.3913 225.874 85.9862C226.413 84.9783 227.211 84.1059 228.167 83.4678C228.371 83.3343 228.584 83.2107 228.809 83.1429C229.109 83.0554 229.424 83.0787 229.74 83.1019C230.362 83.1475 230.986 83.1841 231.589 83.3276C232.609 83.5685 233.536 84.0996 234.403 84.6881C234.87 85.0085 235.334 85.3559 235.698 85.7931C236.062 86.2302 236.334 86.7669 236.367 87.3336C236.412 88.047 236.085 88.7586 235.555 89.2313Z" fill="white"/>
<path d="M227.322 119.219C223.413 118.528 219.657 121.306 218.928 125.411C218.207 129.517 220.789 133.407 224.698 134.098C228.608 134.789 232.363 132.012 233.093 127.907C233.813 123.801 231.231 119.91 227.322 119.219ZM225.458 129.787C223.735 129.483 222.577 127.838 222.882 126.107C223.186 124.384 224.831 123.226 226.562 123.53C228.285 123.834 229.443 125.479 229.139 127.211C228.834 128.942 227.19 130.092 225.458 129.787Z" fill="white"/>
<path d="M260.224 122.771C256.315 122.08 252.559 124.858 251.83 128.963C251.11 133.069 253.692 136.959 257.601 137.65C261.51 138.341 265.266 135.564 265.995 131.459C266.715 127.352 264.133 123.462 260.224 122.771ZM258.36 133.339C256.638 133.035 255.48 131.39 255.784 129.659C256.088 127.936 257.733 126.778 259.465 127.082C261.187 127.386 262.345 129.031 262.041 130.763C261.737 132.485 260.092 133.644 258.36 133.339Z" fill="white"/>
<path d="M228.001 79.5208C228.473 80.1415 228.857 80.8258 229.146 81.5549" stroke="white" stroke-width="4.66737" stroke-miterlimit="10"/>
<path d="M224.263 81.781C224.808 82.3093 225.343 82.8546 225.857 83.425" stroke="white" stroke-width="4.66737" stroke-miterlimit="10"/>
<path d="M237.27 82.3876C236.782 82.8099 236.252 83.1917 235.692 83.5159" stroke="white" stroke-width="4.66737" stroke-miterlimit="10"/>
<path d="M239.789 86.0977C239.366 86.4177 238.919 86.699 238.457 86.9515" stroke="white" stroke-width="4.66737" stroke-miterlimit="10"/>
</g>
<path fill-rule="evenodd" clip-rule="evenodd" d="M216.375 98.8476L229.947 99.0558C229.962 99.4054 230.088 99.7311 230.294 99.9947L216.888 99.7891L217.759 108.021C217.428 107.999 217.112 108.076 216.842 108.228L215.904 99.3634L215.848 98.8396L216.375 98.8476ZM231.589 102.16L231.436 100.624C231.765 100.657 232.082 100.59 232.356 100.448L232.529 102.174C232.417 102.126 232.296 102.095 232.169 102.082C231.965 102.061 231.768 102.09 231.589 102.16ZM231.829 104.553L232.035 106.614L218.656 108.358C218.937 108.574 219.145 108.878 219.242 109.223L232.605 107.481L233.054 107.423L233.009 106.972L232.747 104.353C232.512 104.514 232.22 104.596 231.915 104.565C231.886 104.562 231.857 104.558 231.829 104.553ZM232.806 104.31C234.441 105.43 237.189 107.162 239.701 108.719C241.245 109.676 242.708 110.572 243.784 111.228C244.323 111.556 244.765 111.825 245.072 112.011L245.428 112.227L245.521 112.283L245.545 112.298L245.551 112.301L245.552 112.302L245.553 112.302C245.553 112.302 245.553 112.302 245.794 111.903L245.553 112.302L245.648 112.36L245.758 112.368L277.992 114.884L278.065 113.953L245.941 111.446L245.911 111.428L245.556 111.213C245.249 111.027 244.808 110.759 244.27 110.431C243.195 109.775 241.734 108.881 240.193 107.926C237.631 106.338 234.868 104.595 233.277 103.501C233.23 103.833 233.054 104.118 232.806 104.31Z" fill="white"/>
<circle cx="217.752" cy="109.122" r="0.74398" transform="rotate(5.84836 217.752 109.122)" fill="white"/>
<circle cx="232.118" cy="103.401" r="0.74398" transform="rotate(5.84836 232.118 103.401)" fill="white"/>
<circle cx="231.341" cy="99.4672" r="0.74398" transform="rotate(5.84836 231.341 99.4672)" fill="white"/>
<path d="M274.002 113.052L276.329 113.008L277.006 110.782L277.767 112.981L280.094 112.937L278.237 114.34L278.998 116.539L277.09 115.207L275.234 116.611L275.911 114.384L274.002 113.052Z" fill="white"/>
<path d="M241.853 112.046L244.75 110.778L244.439 107.631L246.54 109.994L249.436 108.726L247.838 111.455L249.939 113.818L246.85 113.141L245.252 115.869L244.942 112.723L241.853 112.046Z" fill="white"/>
<path d="M212.671 98.4321L215.736 98.3741L216.628 95.4415L217.63 98.3382L220.695 98.2802L218.249 100.128L219.252 103.025L216.738 101.271L214.293 103.119L215.185 100.187L212.671 98.4321Z" fill="white"/>
<g opacity="0.2">
<path d="M144.065 51.2918C144.044 51.3237 144.023 51.3663 143.991 51.3983C143.799 51.377 143.618 51.3557 143.437 51.3344C143.65 51.3237 143.852 51.3025 144.065 51.2918Z" fill="white"/>
<path d="M141.819 43.6993C141.499 42.4428 135.589 29.1532 135.589 29.1532L142.979 33.6896L130.414 17.8656L140.328 25.8841L133.896 12.9034L142.234 23.3497L141.393 12.9034L144.981 18.2809L143.288 7.20633L150.774 21.976L150.04 8.88882L153.415 19.8569L154.576 7.19568L159.432 23.765L160.06 4.88492L161.434 23.8715L167.131 7.8346L165.544 27.4601L175.884 8.15406L172.711 22.189L186.543 4.88492L177.896 29.0467L191.931 13.3293L192.464 28.9403L207.649 13.5316L202.9 25.9799L209.651 26.8212L194.349 36.4263L184.328 41.3566C182.869 42.0701 181.272 42.4534 179.643 42.4747L141.819 43.6993Z" fill="white"/>
<path d="M144.065 51.2918C144.044 51.3237 144.023 51.3663 143.991 51.3983C143.799 51.377 143.618 51.3557 143.437 51.3344C143.65 51.3237 143.852 51.3025 144.065 51.2918Z" fill="white"/>
<path d="M178.589 43.6568C166.534 43.923 140.04 44.6365 140.04 44.6365C140.083 44.1679 140.413 39.802 138.731 39.7168C137.038 39.6209 135.451 42.7197 135.451 42.7197L129.307 45.7226C129.307 45.7226 126.261 45.8611 126.346 47.0856C126.389 47.6394 127.049 48.0014 127.773 48.2464C128.582 48.5126 129.456 48.5445 130.297 48.3635C130.744 48.2677 131.436 48.2144 132.448 48.3528C133.811 48.5339 136.218 49.439 137.794 50.0886C138.677 50.4506 139.593 50.7275 140.53 50.9192C140.115 50.9724 139.689 51.0896 139.391 51.3771C139.423 51.4729 139.551 51.4836 139.657 51.4836C140.658 51.4623 141.659 51.4303 142.66 51.3771C142.458 51.441 142.266 51.5261 142.117 51.6646C141.84 51.9201 141.723 52.378 141.957 52.6762C142.341 52.5271 142.724 52.378 143.075 52.1651C143.384 51.9734 143.778 51.7072 144.012 51.409C143.821 51.3877 143.64 51.3664 143.459 51.3451C143.672 51.3345 143.874 51.3238 144.076 51.3132C144.055 51.3451 144.034 51.3877 144.002 51.4197C144.332 51.4623 144.683 51.5049 145.045 51.5368C145.003 51.5687 144.971 51.6113 144.939 51.6433C144.577 52.0373 144.449 52.6443 144.694 53.1234C145.099 52.772 145.535 52.4526 145.993 52.1864C146.195 52.0692 146.611 51.9308 146.877 51.7285C150.348 52.0692 154.736 52.3461 159.421 52.3141C164.809 52.2716 170.112 51.8882 174.074 51.5155C174.063 51.5155 174.052 51.5261 174.042 51.5261C173.637 51.6965 173.232 51.9308 173.009 52.3035C173.073 52.3887 173.2 52.3674 173.296 52.3354C174.255 52.0479 175.213 51.7391 176.171 51.4197C175.99 51.5261 175.831 51.6646 175.724 51.8456C175.522 52.1651 175.532 52.6336 175.831 52.8572C176.161 52.6123 176.48 52.3567 176.768 52.0586C176.991 51.8137 177.279 51.4836 177.428 51.1641C177.779 51.1215 178.12 51.0896 178.418 51.047C178.184 51.5261 178.216 52.1438 178.578 52.5378C178.865 52.0905 179.206 51.6646 179.579 51.2812C179.685 51.1641 179.888 51.015 180.079 50.8553C180.495 50.802 180.718 50.7701 180.718 50.7701C180.718 50.7701 199.801 47.2986 202.335 32.9016C202.314 32.8697 190.654 43.3906 178.589 43.6568ZM137.048 44.1892C136.803 44.6152 136.409 44.8388 136.154 44.6897C135.898 44.5406 135.898 44.0827 136.132 43.6568C136.377 43.2308 136.771 43.0072 137.027 43.1563C137.282 43.3054 137.282 43.7633 137.048 44.1892Z" fill="white"/>
</g>
<path fill-rule="evenodd" clip-rule="evenodd" d="M160.059 18.1776C160.244 18.3078 160.402 18.4743 160.522 18.6667L164.58 13.0114L184.336 16.1308C184.343 15.901 184.396 15.6828 184.486 15.4849L164.482 12.3264L164.281 12.2946L164.162 12.4602L160.059 18.1776ZM177.092 31.0263L185.053 17.5645C185.234 17.6915 185.44 17.784 185.663 17.8325L177.541 31.5667L177.42 31.7704L177.189 31.722L156.133 27.3291C156.273 27.1515 156.374 26.9425 156.425 26.7144L177.092 31.0263ZM155.864 25.1575L158.702 21.2029C158.477 21.1503 158.27 21.0529 158.09 20.9207L155.255 24.871C155.481 24.9212 155.687 25.0207 155.864 25.1575ZM151.715 7.53622L158.665 17.9247C158.444 17.9818 158.241 18.0825 158.065 18.217L151.166 7.90393L151.715 7.53622Z" fill="white"/>
<circle cx="155.033" cy="26.2676" r="0.841831" fill="white"/>
<circle cx="185.952" cy="16.3789" r="0.841831" fill="white"/>
<circle cx="159.116" cy="19.653" r="1.08016" fill="white"/>
<path d="M148.816 3.19837L151.645 5.73351L154.93 3.82658L153.393 7.30031L156.222 9.83545L152.443 9.44719L150.906 12.9209L150.108 9.20724L146.329 8.81898L149.614 6.91205L148.816 3.19837Z" fill="white"/>
<path d="M174.88 28.1632L176.968 30.0347L179.394 28.6269L178.259 31.1913L180.347 33.0627L177.558 32.7761L176.423 35.3405L175.834 32.599L173.044 32.3124L175.47 30.9047L174.88 28.1632Z" fill="white"/>
<path d="M163.211 9.7958L164.877 11.2893L166.813 10.1659L165.907 12.2123L167.574 13.7058L165.348 13.4771L164.442 15.5235L163.972 13.3357L161.746 13.107L163.681 11.9836L163.211 9.7958Z" fill="white"/>
</svg>
