<svg width="321" height="313" viewBox="0 0 321 313" fill="none" xmlns="http://www.w3.org/2000/svg">
<path opacity="0.2" d="M75.6726 222.432C62.8779 209.75 49.1963 198.782 34.5541 189.681C41.7566 187.497 48.1083 184.47 53.4023 180.42C67.5818 190.583 80.8093 200.499 88.4222 208.946L93.1708 213.024L129.424 192.727C133.617 191.548 137.331 191.851 140.273 194.461C141.248 197.751 139.677 200.983 134.534 204.061L105.912 225.76C112.891 240.201 116.252 260.981 117.423 285.551C112.005 289.192 107.492 293.622 104.113 299.086C101.503 273.173 98.4621 250.135 94.4042 234.54L75.0198 246.008C75.0198 246.008 79.5051 277.605 77.0695 282.616C77.0695 282.616 63.7619 275.182 60.474 276.319C60.4122 266.957 59.3579 258.534 55.9989 252.369C40.8996 241.946 30.6506 237.929 21.3216 235.165C25.2409 230.688 31.852 226.741 40.2896 223.119C46.8687 226.907 53.4474 229.703 60.0409 230.923L75.6726 222.432Z" fill="white"/>
<g filter="url(#filter0_f_1741_1432)">
<path fill-rule="evenodd" clip-rule="evenodd" d="M93.7701 218.677L68.1952 203.122L67.2081 204.745L92.431 220.086C92.6712 219.469 93.147 218.956 93.7701 218.677ZM92.338 221.647L63.0818 240.419L64.1075 242.017L93.463 223.182C92.9214 222.845 92.5065 222.306 92.338 221.647ZM95.2881 223.524L105.903 257.236L107.715 256.666L96.9372 222.438C96.5733 222.979 96.0033 223.383 95.3127 223.52C95.3045 223.521 95.2963 223.523 95.2881 223.524ZM97.3522 220.696L127.92 201.286L126.902 199.683L96.4315 219.031C96.8762 219.393 97.2022 219.907 97.3227 220.514C97.3348 220.575 97.3446 220.635 97.3522 220.696Z" fill="white"/>
<path d="M124.465 192.241L128.289 196.827L133.832 194.608L130.652 199.661L134.475 204.247L128.687 202.785L125.507 207.838L125.109 201.88L119.32 200.418L124.863 198.198L124.465 192.241Z" fill="white"/>
<path d="M59.2382 237.265L63.0346 238.838L65.7037 235.713L65.3808 239.81L69.1772 241.383L65.1813 242.342L64.8584 246.438L62.7117 242.934L58.7158 243.893L61.3849 240.769L59.2382 237.265Z" fill="white"/>
<circle cx="94.8106" cy="220.99" r="1.21117" transform="rotate(-11.2299 94.8106 220.99)" fill="white"/>
<circle cx="65.9187" cy="202.943" r="0.856205" transform="rotate(-11.2299 65.9187 202.943)" fill="white"/>
<circle cx="107.243" cy="258.71" r="0.856205" transform="rotate(-11.2299 107.243 258.71)" fill="white"/>
</g>
<path fill-rule="evenodd" clip-rule="evenodd" d="M93.7701 218.677L68.1952 203.122L67.2081 204.745L92.431 220.086C92.6713 219.469 93.147 218.956 93.7701 218.677ZM92.338 221.647L63.0818 240.419L64.1075 242.017L93.463 223.182C92.9214 222.845 92.5065 222.306 92.338 221.647ZM95.2881 223.524L105.903 257.236L107.715 256.666L96.9372 222.438C96.5733 222.979 96.0033 223.383 95.3127 223.52C95.3045 223.521 95.2963 223.523 95.2881 223.524ZM97.3522 220.696L127.92 201.286L126.902 199.683L96.4315 219.031C96.8762 219.393 97.2022 219.907 97.3227 220.514C97.3348 220.575 97.3446 220.635 97.3522 220.696Z" fill="white"/>
<path d="M124.465 192.241L128.289 196.827L133.832 194.608L130.652 199.661L134.475 204.247L128.687 202.785L125.507 207.838L125.109 201.88L119.32 200.418L124.863 198.198L124.465 192.241Z" fill="white"/>
<path d="M59.2382 237.265L63.0346 238.838L65.7037 235.713L65.3808 239.81L69.1772 241.383L65.1813 242.342L64.8584 246.438L62.7117 242.934L58.7158 243.893L61.3849 240.769L59.2382 237.265Z" fill="white"/>
<circle cx="94.8106" cy="220.99" r="1.21117" transform="rotate(-11.2299 94.8106 220.99)" fill="white"/>
<circle cx="65.9187" cy="202.943" r="0.856205" transform="rotate(-11.2299 65.9187 202.943)" fill="white"/>
<circle cx="107.243" cy="258.71" r="0.856205" transform="rotate(-11.2299 107.243 258.71)" fill="white"/>
<g filter="url(#filter1_f_1741_1432)">
<path fill-rule="evenodd" clip-rule="evenodd" d="M272.02 29.1151L295.693 10.8661L295.144 10.1534L271.367 28.482C271.638 28.6302 271.864 28.8497 272.02 29.1151ZM272.212 30.3564C272.141 30.6699 271.984 30.9507 271.766 31.1724L290.89 35.9533C290.941 35.6392 291.078 35.3539 291.276 35.1224L272.212 30.3564ZM268.913 30.4591C268.906 30.4358 268.9 30.4123 268.894 30.3885L268.83 30.4382L268.913 30.4591ZM265.752 45.9395L290.873 36.3694C290.898 36.6829 291.009 36.9725 291.181 37.2151L266.124 46.7606C266.075 46.4514 265.943 46.1699 265.752 45.9395ZM264.325 48.7294L275.397 65.1404C275.553 64.8726 275.78 64.6511 276.052 64.5016L265.268 48.5188C265.023 48.6554 264.74 48.7332 264.44 48.7332C264.401 48.7332 264.363 48.732 264.325 48.7294ZM292.528 37.9342L278.141 64.8583C277.939 64.6331 277.678 64.462 277.382 64.3693L291.652 37.665C291.905 37.8282 292.206 37.9259 292.528 37.9342Z" fill="white"/>
<circle cx="292.648" cy="36.0878" r="0.994784" transform="rotate(90 292.648 36.0878)" fill="white"/>
<circle cx="270.554" cy="30.0492" r="0.783226" transform="rotate(90 270.554 30.0492)" fill="white"/>
<circle cx="277.16" cy="66.4928" r="1.4929" transform="rotate(90 277.16 66.4928)" fill="white"/>
<circle cx="264.368" cy="46.9218" r="1.06183" transform="rotate(90 264.368 46.9218)" fill="white"/>
<circle cx="296.969" cy="8.98703" r="1.28842" transform="rotate(90 296.969 8.98703)" fill="white"/>
</g>
<path fill-rule="evenodd" clip-rule="evenodd" d="M272.02 29.1151L295.693 10.8661L295.144 10.1534L271.367 28.482C271.638 28.6302 271.864 28.8497 272.02 29.1151ZM272.212 30.3564C272.141 30.6699 271.984 30.9507 271.766 31.1724L290.89 35.9533C290.941 35.6392 291.078 35.3539 291.276 35.1224L272.212 30.3564ZM268.913 30.4591C268.906 30.4358 268.9 30.4123 268.894 30.3885L268.83 30.4382L268.913 30.4591ZM265.752 45.9395L290.873 36.3694C290.898 36.6829 291.009 36.9725 291.181 37.2151L266.124 46.7606C266.075 46.4514 265.943 46.1699 265.752 45.9395ZM264.325 48.7294L275.397 65.1404C275.553 64.8726 275.78 64.6511 276.052 64.5016L265.268 48.5188C265.023 48.6554 264.74 48.7332 264.44 48.7332C264.401 48.7332 264.363 48.732 264.325 48.7294ZM292.528 37.9342L278.141 64.8583C277.939 64.6331 277.678 64.462 277.382 64.3693L291.652 37.665C291.905 37.8282 292.206 37.9259 292.528 37.9342Z" fill="white"/>
<circle cx="292.648" cy="36.0878" r="0.994784" transform="rotate(90 292.648 36.0878)" fill="white"/>
<circle cx="270.554" cy="30.0492" r="0.783226" transform="rotate(90 270.554 30.0492)" fill="white"/>
<circle cx="277.16" cy="66.4928" r="1.4929" transform="rotate(90 277.16 66.4928)" fill="white"/>
<circle cx="264.368" cy="46.9218" r="1.06183" transform="rotate(90 264.368 46.9218)" fill="white"/>
<circle cx="296.969" cy="8.98703" r="1.28842" transform="rotate(90 296.969 8.98703)" fill="white"/>
<g filter="url(#filter2_f_1741_1432)">
<path fill-rule="evenodd" clip-rule="evenodd" d="M28.8349 79.7041L14.4319 78.915L14.3827 79.8134L28.5401 80.5891C28.5473 80.3927 28.5898 80.1943 28.671 80.0026C28.7162 79.8957 28.7714 79.796 28.8349 79.7041ZM29.5533 82.1813C29.7908 82.2819 30.0385 82.323 30.2799 82.3114L28.9999 87.2673C28.6889 87.1751 28.3676 87.1786 28.0715 87.2637L29.4029 82.1086C29.4513 82.1351 29.5015 82.1594 29.5533 82.1813ZM28.5489 90.524C28.8615 90.5202 29.1659 90.4277 29.4265 90.261L34.7819 100.535C34.4601 100.503 34.1397 100.567 33.8588 100.711L28.5489 90.524ZM36.1484 102.838C36.2731 102.543 36.3064 102.233 36.2612 101.939C38.8825 102.862 45.9318 105.281 54.242 108.121C63.7507 111.37 74.8767 115.16 82.8072 117.857C82.5157 118.013 82.2688 118.257 82.1104 118.57C74.209 115.883 63.2987 112.167 53.951 108.972C45.8785 106.214 38.9471 103.836 36.1431 102.85L36.1484 102.838ZM33.0197 102.647C33.1043 102.942 33.2699 103.212 33.5023 103.422C32.6595 104.186 31.6001 105.29 30.4632 106.547C28.6258 108.578 26.6079 110.986 25.017 112.946C24.8869 112.832 24.7367 112.737 24.5687 112.665C24.4403 112.611 24.3089 112.574 24.1771 112.553C25.7958 110.554 27.89 108.05 29.7959 105.943C30.9522 104.665 32.0476 103.523 32.9296 102.727C32.9598 102.7 32.9898 102.673 33.0197 102.647ZM25.4152 114.923L74.187 125.941C74.1983 125.758 74.2403 125.573 74.316 125.395C74.3629 125.284 74.4204 125.181 74.4868 125.086L25.5754 114.037C25.6013 114.303 25.5629 114.58 25.4511 114.844C25.4398 114.871 25.4278 114.897 25.4152 114.923ZM82.1189 120.089L76.711 124.623C76.979 124.786 77.1879 125.016 77.3247 125.283L82.7362 120.746C82.4672 120.585 82.257 120.355 82.1189 120.089ZM85.1451 118.726L85.2083 118.673L85.109 118.64C85.1219 118.668 85.1339 118.697 85.1451 118.726Z" fill="white"/>
<circle cx="83.3291" cy="119.16" r="0.588639" transform="rotate(22.9525 83.3291 119.16)" fill="white"/>
<circle cx="12.9609" cy="79.5243" r="0.588639" transform="rotate(22.9525 12.9609 79.5243)" fill="white"/>
<circle cx="75.814" cy="125.737" r="0.981446" transform="rotate(22.9525 75.814 125.737)" fill="white"/>
<circle cx="34.4487" cy="102.334" r="0.981446" transform="rotate(22.9525 34.4487 102.334)" fill="white"/>
<circle cx="28.6963" cy="89.0082" r="0.73587" transform="rotate(22.9525 28.6963 89.0082)" fill="white"/>
<circle cx="24.0645" cy="113.83" r="0.73587" transform="rotate(22.9525 24.0645 113.83)" fill="white"/>
<circle cx="30.44" cy="80.5764" r="0.981446" transform="rotate(22.9525 30.44 80.5764)" fill="white"/>
</g>
<path fill-rule="evenodd" clip-rule="evenodd" d="M28.8349 79.7041L14.4319 78.915L14.3827 79.8134L28.5401 80.5891C28.5473 80.3927 28.5898 80.1943 28.671 80.0026C28.7162 79.8957 28.7714 79.796 28.8349 79.7041ZM29.5533 82.1813C29.7908 82.2819 30.0385 82.323 30.2799 82.3114L28.9999 87.2673C28.6889 87.1751 28.3676 87.1786 28.0715 87.2637L29.4029 82.1086C29.4513 82.1351 29.5015 82.1594 29.5533 82.1813ZM28.5489 90.524C28.8615 90.5202 29.1659 90.4277 29.4265 90.261L34.7819 100.535C34.4601 100.503 34.1397 100.567 33.8588 100.711L28.5489 90.524ZM36.1484 102.838C36.2731 102.543 36.3064 102.233 36.2612 101.939C38.8825 102.862 45.9318 105.281 54.242 108.121C63.7507 111.37 74.8767 115.16 82.8072 117.857C82.5157 118.013 82.2688 118.257 82.1104 118.57C74.209 115.883 63.2987 112.167 53.951 108.972C45.8785 106.214 38.9471 103.836 36.1431 102.85L36.1484 102.838ZM33.0197 102.647C33.1043 102.942 33.2699 103.212 33.5023 103.422C32.6595 104.186 31.6001 105.29 30.4632 106.547C28.6258 108.578 26.6079 110.986 25.017 112.946C24.8869 112.832 24.7367 112.737 24.5687 112.665C24.4403 112.611 24.3089 112.574 24.1771 112.553C25.7958 110.554 27.89 108.05 29.7959 105.943C30.9522 104.665 32.0476 103.523 32.9296 102.727L32.9789 102.683L33.0197 102.647ZM25.4152 114.923L74.187 125.941C74.1983 125.758 74.2403 125.573 74.316 125.395C74.3629 125.284 74.4204 125.181 74.4868 125.086L25.5754 114.037C25.6012 114.303 25.5629 114.58 25.4511 114.844C25.4398 114.871 25.4278 114.897 25.4152 114.923ZM82.1189 120.089L76.711 124.623C76.979 124.786 77.1879 125.016 77.3247 125.283L82.7362 120.746C82.4672 120.585 82.257 120.355 82.1189 120.089ZM85.1451 118.726L85.2083 118.673L85.109 118.64C85.1219 118.668 85.1339 118.697 85.1451 118.726Z" fill="white"/>
<circle cx="83.3291" cy="119.16" r="0.588639" transform="rotate(22.9525 83.3291 119.16)" fill="white"/>
<circle cx="12.9609" cy="79.5243" r="0.588639" transform="rotate(22.9525 12.9609 79.5243)" fill="white"/>
<circle cx="75.814" cy="125.737" r="0.981446" transform="rotate(22.9525 75.814 125.737)" fill="white"/>
<circle cx="34.4487" cy="102.334" r="0.981446" transform="rotate(22.9525 34.4487 102.334)" fill="white"/>
<circle cx="28.6963" cy="89.0082" r="0.73587" transform="rotate(22.9525 28.6963 89.0082)" fill="white"/>
<circle cx="24.0645" cy="113.83" r="0.73587" transform="rotate(22.9525 24.0645 113.83)" fill="white"/>
<circle cx="30.44" cy="80.5764" r="0.981446" transform="rotate(22.9525 30.44 80.5764)" fill="white"/>
<g filter="url(#filter3_f_1741_1432)">
<path fill-rule="evenodd" clip-rule="evenodd" d="M250.642 256.625C250.943 256.658 251.248 256.644 251.546 256.583L256.228 287.183L255.339 287.319L250.642 256.625ZM248.894 255.771C249.111 255.994 249.356 256.175 249.619 256.313L237.207 277.712C236.981 277.499 236.729 277.33 236.461 277.204L248.894 255.771ZM232.564 278.725L203.243 274.757L203.122 275.648L232.358 279.605C232.38 279.304 232.449 279.007 232.564 278.725Z" fill="white"/>
<circle cx="250.611" cy="253.775" r="1.67063" transform="rotate(47.0675 250.611 253.775)" fill="white"/>
<circle cx="199.869" cy="274.545" r="1.67063" transform="rotate(47.0675 199.869 274.545)" fill="white"/>
<circle cx="235.031" cy="279.285" r="1.07446" transform="rotate(47.0675 235.031 279.285)" fill="white"/>
<circle cx="255.882" cy="288.934" r="1.07446" transform="rotate(47.0675 255.882 288.934)" fill="white"/>
</g>
<path fill-rule="evenodd" clip-rule="evenodd" d="M250.642 256.625C250.943 256.658 251.248 256.644 251.546 256.583L256.228 287.183L255.339 287.319L250.642 256.625ZM248.894 255.771C249.111 255.994 249.356 256.175 249.619 256.313L237.207 277.712C236.981 277.499 236.729 277.33 236.461 277.204L248.894 255.771ZM232.564 278.725L203.243 274.757L203.122 275.648L232.358 279.605C232.38 279.304 232.449 279.007 232.564 278.725Z" fill="white"/>
<circle cx="250.611" cy="253.775" r="1.67063" transform="rotate(47.0675 250.611 253.775)" fill="white"/>
<circle cx="199.869" cy="274.545" r="1.67063" transform="rotate(47.0675 199.869 274.545)" fill="white"/>
<circle cx="235.031" cy="279.285" r="1.07446" transform="rotate(47.0675 235.031 279.285)" fill="white"/>
<circle cx="255.882" cy="288.934" r="1.07446" transform="rotate(47.0675 255.882 288.934)" fill="white"/>
<g opacity="0.2">
<path d="M200.825 79.5719C200.675 78.9363 200.385 78.3404 199.968 77.8122C199.753 77.5341 199.498 77.2653 199.223 77.0484L197.681 75.7849L200.546 48.8717L152.897 46.1348C152.164 57.8969 151.604 67.8431 151.7 68.6214C151.689 68.5933 151.692 68.5666 151.68 68.5519L151.108 68.7361L150.537 68.9202C150.454 68.6691 150.299 68.2083 151.776 44.7121C152.367 35.3892 152.974 26.041 153.193 22.7198C147.247 22.1917 122.461 20.0169 115.355 19.3699C115.566 39.1562 107.763 45.7046 107.445 45.9147L107.214 46.0663L97.8244 45.9943C97.3197 50.5265 95.6992 65.6896 95.8372 67.1058L92.9421 67.8609C92.6791 67.9283 92.4253 68.0371 92.194 68.1887C91.356 68.7365 90.9291 69.7444 91.1109 70.7337L91.1387 70.8579C91.3006 71.7778 91.9794 72.5214 92.8675 72.8011C94.7105 73.3674 96.6195 73.6843 98.5383 73.773C101.465 73.8974 105.294 74.0201 109.204 74.1509C109.035 72.7719 109.059 71.3587 109.313 69.9287C110.67 62.2077 118.033 57.0568 125.741 58.4125C133.462 59.7696 138.613 67.1326 137.257 74.8403C137.221 75.0657 137.171 75.2898 137.121 75.5139L147.935 76.2845L157.508 77.3325C157.511 76.5104 157.581 75.6952 157.721 74.8601C159.078 67.1391 166.441 61.9882 174.148 63.3439C181.869 64.701 187.02 72.064 185.665 79.7716C185.629 79.9837 185.581 80.1945 185.532 80.4052L200.238 82.0193C200.558 82.0521 200.836 81.8379 200.895 81.5205C201.002 80.8708 200.989 80.2088 200.825 79.5719ZM134.402 46.6401C134.402 46.6401 134.338 43.9776 134.312 43.5705L141.242 43.3096L141.376 46.3433L134.402 46.6401Z" fill="white"/>
<path d="M183.446 45.6237L183.54 45.6333L183.553 45.6346L191.64 46.0451C191.587 46.0396 191.2 39.5556 191.185 39.4327L183.373 38.8348L183.446 45.6237Z" fill="white"/>
<path d="M153.657 34.2406C157.768 34.6482 194.004 38.2385 201.595 39.0161L202.084 34.3744L153.968 29.365C153.872 30.9595 153.772 32.5941 153.657 34.2406Z" fill="white"/>
<path d="M161.558 44.5008L169.108 44.8966L169.515 37.7659L161.77 37.1747L161.558 44.5008Z" fill="white"/>
<path d="M194.495 46.2028L198.76 46.4239L198.287 39.985L193.833 39.6366L194.495 46.2028Z" fill="white"/>
<path d="M171.481 37.9266L171.389 45.0087L179.597 45.4315L179.815 38.5645L179.762 38.5591L171.481 37.9266Z" fill="white"/>
<path d="M159.348 36.9938L159.308 36.9897L153.503 36.5434C153.339 39.0612 153.174 41.5924 153.029 44.0583L158.943 44.3675L159.348 36.9938Z" fill="white"/>
<path d="M106.706 44.3154C107.221 43.8962 108.683 42.5225 110.086 39.6193C111.61 36.4588 113.6 29.5307 113.633 20.2584C110.807 24.418 100.42 40.665 98.3419 44.1057L106.706 44.3154Z" fill="white"/>
<path d="M136.775 17.2901C135.988 17.9915 134.938 18.3694 133.883 18.4095C133.193 18.4332 132.515 18.3368 131.829 18.3205C131.734 18.3243 131.641 18.3147 131.546 18.3185L131.774 20.836L124.438 20.1924L124.695 18.7358C124.656 18.7183 124.619 18.6875 124.58 18.6701C124.225 18.4584 123.945 18.1601 123.666 17.8618C122.742 16.8774 121.793 15.7421 121.81 14.3956C121.825 13.723 122.093 13.0764 122.411 12.4753C123.211 10.9799 124.395 9.68559 125.813 8.73881C126.117 8.5407 126.432 8.35729 126.766 8.25667C127.211 8.12695 127.679 8.16144 128.147 8.19593C129.071 8.26355 129.996 8.31782 130.89 8.53082C132.404 8.88811 133.78 9.67612 135.065 10.5493C135.758 11.0248 136.447 11.5402 136.987 12.1887C137.527 12.8373 137.931 13.6336 137.98 14.4745C138.047 15.533 137.561 16.5887 136.775 17.2901Z" fill="white"/>
<path d="M124.559 61.7833C118.759 60.7577 113.187 64.8787 112.105 70.9696C111.036 77.0618 114.867 82.8335 120.667 83.859C126.467 84.8845 132.039 80.7636 133.122 74.6727C134.19 68.5805 130.36 62.8088 124.559 61.7833ZM121.794 77.4627C119.238 77.0121 117.52 74.5711 117.972 72.0019C118.422 69.4461 120.863 67.7277 123.432 68.1796C125.988 68.6302 127.707 71.0712 127.255 73.6404C126.803 76.2096 124.363 77.9146 121.794 77.4627Z" fill="white"/>
<path d="M173.377 67.0534C167.577 66.0279 162.005 70.1489 160.922 76.2397C159.853 82.3319 163.684 88.1037 169.484 89.1292C175.284 90.1547 180.857 86.0337 181.939 79.9429C183.008 73.8506 179.177 68.0789 173.377 67.0534ZM170.611 82.7328C168.056 82.2823 166.337 79.8413 166.789 77.2721C167.24 74.7162 169.681 72.9979 172.25 73.4498C174.806 73.9003 176.524 76.3413 176.072 78.9105C175.622 81.4664 173.181 83.1847 170.611 82.7328Z" fill="white"/>
<path d="M125.567 2.88257C126.268 3.80374 126.839 4.81936 127.267 5.90136" stroke="white" stroke-width="6.92499" stroke-miterlimit="10"/>
<path d="M120.021 6.23608C120.83 7.02006 121.623 7.82936 122.386 8.67595" stroke="white" stroke-width="6.92499" stroke-miterlimit="10"/>
<path d="M139.32 7.13616C138.595 7.76298 137.809 8.3296 136.978 8.8107" stroke="white" stroke-width="6.92499" stroke-miterlimit="10"/>
<path d="M143.058 12.641C142.43 13.1159 141.767 13.5333 141.082 13.908" stroke="white" stroke-width="6.92499" stroke-miterlimit="10"/>
</g>
<g filter="url(#filter4_f_1741_1432)">
<path fill-rule="evenodd" clip-rule="evenodd" d="M108.318 31.5581L128.454 31.8669C128.477 32.3856 128.664 32.8689 128.968 33.26L109.078 32.9549L110.37 45.1681C109.88 45.1354 109.411 45.2502 109.01 45.4757L107.618 32.3234L107.536 31.5461L108.318 31.5581ZM130.891 36.4727L130.663 34.1939C131.152 34.2421 131.622 34.1429 132.029 33.9324L132.285 36.4929C132.119 36.4228 131.94 36.3759 131.751 36.3566C131.449 36.3256 131.156 36.3692 130.891 36.4727ZM131.246 40.0238L131.552 43.0812L111.701 45.6691C112.119 45.9898 112.426 46.4399 112.57 46.9526L132.397 44.3676L133.064 44.2808L132.997 43.612L132.608 39.7277C132.259 39.9665 131.827 40.0878 131.374 40.0414C131.331 40.037 131.288 40.0311 131.246 40.0238ZM132.697 39.6628C135.123 41.3252 139.199 43.8942 142.927 46.2046C145.217 47.6239 147.387 48.953 148.985 49.9271C149.784 50.4141 150.439 50.8126 150.896 51.0892C151.124 51.2276 151.302 51.3355 151.423 51.4088L151.561 51.4924L151.597 51.5138L151.606 51.5192L151.608 51.5206L151.608 51.521C151.609 51.521 151.609 51.5211 151.967 50.9283L151.609 51.5211L151.749 51.6059L151.913 51.6187L199.739 55.3514L199.847 53.9706L152.184 50.2507L152.14 50.2239C152.019 50.1508 151.842 50.0431 151.614 49.905C151.158 49.6288 150.504 49.231 149.706 48.7445C148.11 47.7716 145.943 46.4444 143.656 45.0274C139.855 42.6711 135.757 40.0862 133.396 38.4627C133.325 38.9553 133.065 39.3777 132.697 39.6628Z" fill="white"/>
<circle cx="110.361" cy="46.802" r="1.10414" transform="rotate(5.84836 110.361 46.802)" fill="white"/>
<circle cx="131.675" cy="38.3147" r="1.10414" transform="rotate(5.84836 131.675 38.3147)" fill="white"/>
<circle cx="130.523" cy="32.4774" r="1.10414" transform="rotate(5.84836 130.523 32.4774)" fill="white"/>
<path d="M193.819 52.6333L197.271 52.5679L198.276 49.2647L199.405 52.5275L202.857 52.4622L200.102 54.5441L201.231 57.8069L198.4 55.8308L195.646 57.9127L196.65 54.6094L193.819 52.6333Z" fill="white"/>
<path d="M146.119 51.1398L150.417 49.2587L149.956 44.59L153.073 48.0961L157.371 46.215L155 50.263L158.117 53.7691L153.534 52.7648L151.163 56.8128L150.702 52.1441L146.119 51.1398Z" fill="white"/>
<path d="M102.822 30.9413L107.369 30.8552L108.692 26.5042L110.179 30.802L114.726 30.7159L111.098 33.4582L112.585 37.7561L108.856 35.1531L105.228 37.8954L106.551 33.5443L102.822 30.9413Z" fill="white"/>
</g>
<path fill-rule="evenodd" clip-rule="evenodd" d="M108.318 31.558L128.454 31.8668C128.477 32.3855 128.664 32.8688 128.968 33.2599L109.078 32.9548L110.37 45.168C109.88 45.1353 109.411 45.2501 109.01 45.4756L107.618 32.3233L107.536 31.546L108.318 31.558ZM130.891 36.4726L130.663 34.1938C131.152 34.242 131.622 34.1428 132.029 33.9323L132.285 36.4929C132.119 36.4227 131.94 36.3758 131.751 36.3565C131.449 36.3255 131.156 36.3691 130.891 36.4726ZM131.246 40.0237L131.552 43.0811L111.701 45.669C112.119 45.9897 112.426 46.4398 112.57 46.9525L132.397 44.3676L133.064 44.2807L132.997 43.6119L132.608 39.7276C132.259 39.9664 131.827 40.0877 131.374 40.0413C131.331 40.0369 131.288 40.031 131.246 40.0237ZM132.697 39.6627C135.123 41.3251 139.199 43.8941 142.927 46.2045C145.217 47.6238 147.387 48.9529 148.985 49.927C149.784 50.414 150.439 50.8125 150.896 51.0891C151.124 51.2275 151.302 51.3354 151.423 51.4087L151.561 51.4923L151.597 51.5137L151.606 51.5191L151.608 51.5205L151.608 51.5209C151.609 51.5209 151.609 51.521 151.967 50.9282L151.609 51.521L151.749 51.6058L151.913 51.6186L199.739 55.3513L199.847 53.9705L152.184 50.2506L152.14 50.2238C152.019 50.1507 151.842 50.043 151.614 49.9049C151.158 49.6287 150.504 49.2309 149.706 48.7444C148.11 47.7715 145.943 46.4443 143.656 45.0273C139.855 42.671 135.757 40.0861 133.396 38.4626C133.325 38.9552 133.065 39.3776 132.697 39.6627Z" fill="white"/>
<circle cx="110.361" cy="46.802" r="1.10414" transform="rotate(5.84836 110.361 46.802)" fill="white"/>
<circle cx="131.675" cy="38.3147" r="1.10414" transform="rotate(5.84836 131.675 38.3147)" fill="white"/>
<circle cx="130.523" cy="32.4774" r="1.10414" transform="rotate(5.84836 130.523 32.4774)" fill="white"/>
<path d="M193.819 52.6333L197.271 52.5679L198.276 49.2647L199.405 52.5275L202.857 52.4622L200.102 54.5441L201.231 57.8069L198.4 55.8308L195.646 57.9127L196.65 54.6094L193.819 52.6333Z" fill="white"/>
<path d="M146.119 51.1398L150.417 49.2587L149.956 44.59L153.073 48.0961L157.371 46.215L155 50.263L158.117 53.7691L153.534 52.7648L151.163 56.8128L150.702 52.1441L146.119 51.1398Z" fill="white"/>
<path d="M102.822 30.9413L107.369 30.8552L108.692 26.5042L110.179 30.802L114.726 30.7159L111.098 33.4582L112.585 37.7561L108.856 35.1531L105.228 37.8954L106.551 33.5443L102.822 30.9413Z" fill="white"/>
<g opacity="0.2">
<path d="M221.869 194.821C221.837 194.869 221.805 194.933 221.757 194.982C221.468 194.949 221.195 194.917 220.922 194.885C221.243 194.869 221.548 194.837 221.869 194.821Z" fill="white"/>
<path d="M218.48 183.371C217.998 181.476 209.085 161.433 209.085 161.433L220.23 168.275L201.28 144.41L216.232 156.503L206.532 136.927L219.106 152.681L217.838 136.927L223.25 145.037L220.696 128.335L231.986 150.609L230.878 130.872L235.969 147.413L237.719 128.319L245.042 153.307L245.99 124.834L248.062 153.468L256.653 129.282L254.261 158.88L269.854 129.764L265.069 150.93L285.93 124.834L272.89 161.273L294.056 137.569L294.859 161.112L317.76 137.874L310.597 156.648L320.779 157.916L297.701 172.402L282.589 179.838C280.389 180.913 277.98 181.492 275.523 181.524L218.48 183.371Z" fill="white"/>
<path d="M221.869 194.821C221.837 194.869 221.805 194.933 221.757 194.982C221.468 194.949 221.195 194.917 220.922 194.885C221.243 194.869 221.548 194.837 221.869 194.821Z" fill="white"/>
<path d="M273.934 183.306C255.755 183.708 215.799 184.784 215.799 184.784C215.863 184.077 216.361 177.493 213.823 177.364C211.27 177.22 208.877 181.893 208.877 181.893L199.611 186.422C199.611 186.422 195.018 186.631 195.146 188.478C195.21 189.313 196.206 189.859 197.298 190.228C198.519 190.63 199.836 190.678 201.104 190.405C201.779 190.26 202.823 190.18 204.348 190.389C206.404 190.662 210.033 192.027 212.41 193.006C213.743 193.552 215.124 193.97 216.537 194.259C215.911 194.339 215.269 194.516 214.819 194.95C214.867 195.094 215.06 195.11 215.221 195.11C216.73 195.078 218.24 195.03 219.749 194.95C219.444 195.046 219.155 195.174 218.93 195.383C218.513 195.769 218.336 196.459 218.689 196.909C219.268 196.684 219.846 196.459 220.376 196.138C220.841 195.849 221.436 195.447 221.789 194.998C221.5 194.966 221.227 194.933 220.954 194.901C221.275 194.885 221.58 194.869 221.885 194.853C221.853 194.901 221.821 194.966 221.773 195.014C222.271 195.078 222.801 195.142 223.347 195.19C223.282 195.239 223.234 195.303 223.186 195.351C222.64 195.945 222.447 196.861 222.817 197.583C223.427 197.053 224.085 196.572 224.776 196.17C225.081 195.993 225.707 195.785 226.109 195.479C231.344 195.993 237.961 196.411 245.027 196.363C253.153 196.299 261.151 195.72 267.125 195.158C267.109 195.158 267.093 195.174 267.077 195.174C266.466 195.431 265.856 195.785 265.519 196.347C265.615 196.475 265.808 196.443 265.952 196.395C267.398 195.961 268.843 195.496 270.289 195.014C270.016 195.174 269.775 195.383 269.614 195.656C269.309 196.138 269.325 196.845 269.775 197.182C270.272 196.812 270.754 196.427 271.188 195.977C271.525 195.608 271.959 195.11 272.184 194.628C272.714 194.564 273.227 194.516 273.677 194.452C273.324 195.174 273.372 196.106 273.918 196.7C274.352 196.025 274.866 195.383 275.428 194.805C275.588 194.628 275.893 194.403 276.182 194.163C276.809 194.082 277.146 194.034 277.146 194.034C277.146 194.034 305.925 188.799 309.747 167.086C309.715 167.038 292.129 182.905 273.934 183.306ZM211.286 184.109C210.917 184.752 210.322 185.089 209.937 184.864C209.552 184.639 209.552 183.949 209.905 183.306C210.274 182.664 210.868 182.327 211.254 182.552C211.639 182.776 211.639 183.467 211.286 184.109Z" fill="white"/>
</g>
<g filter="url(#filter5_f_1741_1432)">
<path fill-rule="evenodd" clip-rule="evenodd" d="M245.99 144.881C246.269 145.077 246.507 145.328 246.688 145.619L252.809 137.09L282.603 141.794C282.613 141.447 282.693 141.118 282.829 140.82L252.661 136.056L252.357 136.009L252.178 136.258L245.99 144.881ZM271.679 164.258L283.685 143.957C283.957 144.148 284.268 144.287 284.605 144.36L272.355 165.073L272.174 165.38L271.824 165.307L240.07 158.682C240.28 158.414 240.433 158.099 240.509 157.755L271.679 164.258ZM239.664 155.407L243.944 149.443C243.605 149.364 243.293 149.217 243.021 149.018L238.746 154.975C239.086 155.051 239.398 155.201 239.664 155.407ZM233.407 128.832L243.888 144.499C243.555 144.585 243.248 144.737 242.983 144.94L232.578 129.387L233.407 128.832Z" fill="white"/>
<circle cx="238.411" cy="157.082" r="1.26992" fill="white"/>
<circle cx="285.039" cy="142.168" r="1.26992" fill="white"/>
<circle cx="244.568" cy="147.106" r="1.62944" fill="white"/>
<path d="M229.033 122.29L233.299 126.113L238.254 123.238L235.936 128.476L240.202 132.3L234.503 131.714L232.186 136.953L230.981 131.352L225.283 130.767L230.237 127.891L229.033 122.29Z" fill="white"/>
<path d="M268.342 159.94L271.491 162.763L275.148 160.64L273.437 164.507L276.587 167.329L272.38 166.897L270.669 170.764L269.78 166.63L265.573 166.198L269.231 164.075L268.342 159.94Z" fill="white"/>
<path d="M250.743 132.24L253.256 134.492L256.175 132.798L254.809 135.884L257.323 138.137L253.966 137.792L252.6 140.878L251.891 137.579L248.534 137.234L251.452 135.539L250.743 132.24Z" fill="white"/>
</g>
<path fill-rule="evenodd" clip-rule="evenodd" d="M245.99 144.881C246.269 145.077 246.507 145.328 246.688 145.619L252.809 137.09L282.603 141.794C282.613 141.447 282.693 141.118 282.829 140.82L252.661 136.056L252.357 136.009L252.178 136.258L245.99 144.881ZM271.679 164.258L283.685 143.957C283.957 144.148 284.268 144.287 284.605 144.36L272.355 165.073L272.174 165.38L271.824 165.307L240.07 158.682C240.28 158.414 240.433 158.099 240.509 157.755L271.679 164.258ZM239.664 155.407L243.944 149.443C243.605 149.364 243.293 149.217 243.021 149.018L238.746 154.975C239.086 155.051 239.398 155.201 239.664 155.407ZM233.407 128.832L243.888 144.499C243.555 144.585 243.248 144.737 242.983 144.94L232.578 129.387L233.407 128.832Z" fill="white"/>
<circle cx="238.411" cy="157.082" r="1.26992" fill="white"/>
<circle cx="285.039" cy="142.168" r="1.26992" fill="white"/>
<circle cx="244.568" cy="147.106" r="1.62944" fill="white"/>
<path d="M229.033 122.29L233.299 126.113L238.254 123.238L235.936 128.476L240.202 132.3L234.503 131.714L232.186 136.953L230.981 131.352L225.283 130.767L230.237 127.891L229.033 122.29Z" fill="white"/>
<path d="M268.342 159.94L271.491 162.763L275.148 160.64L273.437 164.507L276.587 167.329L272.38 166.897L270.669 170.764L269.78 166.63L265.573 166.198L269.231 164.075L268.342 159.94Z" fill="white"/>
<path d="M250.743 132.24L253.256 134.492L256.175 132.798L254.809 135.884L257.323 138.137L253.966 137.792L252.6 140.878L251.891 137.579L248.534 137.234L251.452 135.539L250.743 132.24Z" fill="white"/>
<defs>
<filter id="filter0_f_1741_1432" x="48.7158" y="182.241" width="95.7598" height="87.3257" filterUnits="userSpaceOnUse" color-interpolation-filters="sRGB">
<feFlood flood-opacity="0" result="BackgroundImageFix"/>
<feBlend mode="normal" in="SourceGraphic" in2="BackgroundImageFix" result="shape"/>
<feGaussianBlur stdDeviation="5" result="effect1_foregroundBlur_1741_1432"/>
</filter>
<filter id="filter1_f_1741_1432" x="258.306" y="2.69861" width="44.9521" height="70.2871" filterUnits="userSpaceOnUse" color-interpolation-filters="sRGB">
<feFlood flood-opacity="0" result="BackgroundImageFix"/>
<feBlend mode="normal" in="SourceGraphic" in2="BackgroundImageFix" result="shape"/>
<feGaussianBlur stdDeviation="2.5" result="effect1_foregroundBlur_1741_1432"/>
</filter>
<filter id="filter2_f_1741_1432" x="7.37207" y="73.9149" width="82.8359" height="57.8035" filterUnits="userSpaceOnUse" color-interpolation-filters="sRGB">
<feFlood flood-opacity="0" result="BackgroundImageFix"/>
<feBlend mode="normal" in="SourceGraphic" in2="BackgroundImageFix" result="shape"/>
<feGaussianBlur stdDeviation="2.5" result="effect1_foregroundBlur_1741_1432"/>
</filter>
<filter id="filter3_f_1741_1432" x="193.198" y="247.105" width="68.7578" height="47.9038" filterUnits="userSpaceOnUse" color-interpolation-filters="sRGB">
<feFlood flood-opacity="0" result="BackgroundImageFix"/>
<feBlend mode="normal" in="SourceGraphic" in2="BackgroundImageFix" result="shape"/>
<feGaussianBlur stdDeviation="2.5" result="effect1_foregroundBlur_1741_1432"/>
</filter>
<filter id="filter4_f_1741_1432" x="92.8223" y="16.5042" width="120.034" height="51.4086" filterUnits="userSpaceOnUse" color-interpolation-filters="sRGB">
<feFlood flood-opacity="0" result="BackgroundImageFix"/>
<feBlend mode="normal" in="SourceGraphic" in2="BackgroundImageFix" result="shape"/>
<feGaussianBlur stdDeviation="5" result="effect1_foregroundBlur_1741_1432"/>
</filter>
<filter id="filter5_f_1741_1432" x="215.283" y="112.29" width="81.0264" height="68.4741" filterUnits="userSpaceOnUse" color-interpolation-filters="sRGB">
<feFlood flood-opacity="0" result="BackgroundImageFix"/>
<feBlend mode="normal" in="SourceGraphic" in2="BackgroundImageFix" result="shape"/>
<feGaussianBlur stdDeviation="5" result="effect1_foregroundBlur_1741_1432"/>
</filter>
</defs>
</svg>
