<svg width="463" height="576" viewBox="0 0 463 576" fill="none" xmlns="http://www.w3.org/2000/svg">
<g opacity="0.2">
<path d="M351.751 468.664C352.363 467.993 352.338 466.767 351.755 465.057C348.134 456.029 344.998 449.662 340.458 445.712C335.457 441.375 329.022 440.521 320.181 442.946L319.309 440.088C323.069 438.839 325.342 436.451 325.905 433.134C326.664 428.771 324.316 423.412 320.144 420.02C317.591 419.24 314.879 418.979 311.972 418.717C306.88 418.233 301.622 417.731 297.101 414.273C292.875 412.038 290.572 407.543 291.136 402.52L291.159 402.429C296.138 371.776 287.917 339.841 267.943 312.359C260.824 314.156 256.483 318.229 254.233 325.06C253.418 379.654 254.468 424.27 261.964 435.004C263.845 437.732 302.508 453.528 345.165 469.72C348.237 470.001 350.736 469.767 351.751 468.664Z" fill="white"/>
<path d="M256.88 316.405C259.704 312.258 264.056 309.187 270.748 307.719L271.706 307.503L272.284 308.286C275.209 312.258 277.871 316.308 280.313 320.449C295.293 345.838 301.073 374.097 296.641 401.404C296.234 405.249 297.928 408.514 301.128 410.192L301.236 410.244L301.361 410.325C305.221 413.32 309.861 413.761 314.788 414.226C317.786 414.512 320.904 414.804 323.829 415.753L324.074 415.841L324.296 416.02C329.488 420.089 332.349 426.58 331.374 432.156C331.057 434.048 330.277 435.749 329.15 437.189C335.504 436.658 340.64 438.202 344.94 441.944C349.958 446.309 353.298 453.021 357.099 462.485L357.133 462.543C358.154 465.39 357.949 467.605 356.563 469.198C355.951 469.869 355.163 470.373 354.198 470.709C406.311 490.315 461.869 509.517 462.229 505.66L260.334 167.341C259.891 213.303 257.768 268.242 256.88 316.405Z" fill="white"/>
</g>
<g opacity="0.2">
<path d="M110.733 152.989C110.213 152.831 109.876 154.231 109.777 156.887C113.139 157.462 116.856 158.835 120.854 161.011L121.242 161.209L121.462 161.583C125.479 168.981 128.642 174.014 130.963 174.467C132.45 174.753 134.362 173.198 137.254 170.872C140.681 168.074 145.399 164.244 152.793 160.812L152.982 160.739L153.189 160.695C155.482 160.311 157.39 160.852 158.817 162.219C159.284 162.681 159.709 163.205 160.048 163.78C162.814 168.467 161.952 177.387 161.295 184.092C161.098 185.992 160.943 187.634 160.894 188.865L160.887 188.985C159.3 201.472 159.211 214.394 159.136 226.881C159.031 240.239 158.929 254.06 157.01 267.363C171.792 276.124 187.175 287.282 198.305 297.344C212.565 310.212 218.534 319.87 216.055 325.983C214.562 329.694 210.201 331.763 202.898 332.196C223.954 340.356 240.994 345.652 240.623 342.46L245.312 160.339L149.309 1.49861C137.695 50.6019 113.567 114.299 110.733 152.989Z" fill="white"/>
<path d="M115.287 168.328C112.007 166.58 108.964 165.43 106.22 164.917C106.213 191.318 116.766 285.875 122.168 296.41C124.815 301.554 159.501 317.836 189.506 329.864C202.48 330.699 206.227 327.984 207.161 325.689C208.986 321.162 202.943 312.168 190.601 301.038C179.663 291.172 164.503 280.193 149.977 271.669L149.133 271.159L149.289 270.175C151.269 257.106 151.365 243.406 151.463 230.169C151.57 217.934 151.647 205.252 153.186 192.947C153.218 191.688 153.391 190.075 153.588 188.175C154.159 182.179 155.155 172.172 152.079 169.258C151.629 168.825 150.86 168.31 149.227 168.498C142.459 171.678 138.081 175.229 134.895 177.845C131.537 180.563 129.129 182.527 126.351 181.956C123.303 181.39 120.603 178.061 115.287 168.328Z" fill="white"/>
</g>
<path opacity="0.8" d="M404.19 461.156L399.205 452.708L400.253 452.09L400.304 452.176C400.504 452.807 400.634 453.077 401.302 454.21L403.132 457.311L414.959 450.333C416.306 449.539 416.55 449.366 417.03 448.909L417.116 448.859L419.16 452.323L419.074 452.374C418.468 452.616 418.199 452.747 416.851 453.541L406.372 459.724C405.025 460.519 404.781 460.692 404.275 461.106L404.19 461.156ZM408.582 433.612C411.181 438.018 409.743 443.595 405.337 446.194C400.932 448.793 395.355 447.355 392.756 442.95C390.157 438.544 391.595 432.967 396 430.368C400.406 427.769 405.982 429.207 408.582 433.612ZM403.564 442.455C407.52 440.12 409.223 436.751 407.734 434.228C405.904 431.127 401.194 431.744 397.58 433.876C393.687 436.173 391.976 439.575 393.477 442.12C395.282 445.179 399.971 444.574 403.564 442.455ZM383.758 426.526C381.575 422.826 381.974 419.447 384.926 417.706C388.262 415.738 391.765 417.765 393.645 420.952C393.872 421.337 394.069 421.768 394.253 422.179L393.612 422.557L393.448 422.279C392.097 419.991 389.62 419.261 386.99 420.813C384.423 422.327 383.722 424.413 385.072 426.702L385.968 428.22L397.795 421.242C399.142 420.447 399.386 420.274 399.892 419.861L399.977 419.81L401.996 423.232L401.911 423.283C401.304 423.525 401.035 423.655 399.687 424.45L389.208 430.633C387.861 431.428 387.617 431.601 387.111 432.014L387.026 432.065L383.758 426.526ZM371.268 405.357L369.249 401.935L369.335 401.885C369.941 401.642 370.211 401.512 371.344 400.843L382.251 394.408C383.385 393.74 383.629 393.567 384.134 393.153L384.22 393.103L386.239 396.525L386.153 396.575C385.547 396.818 385.277 396.948 384.144 397.616L373.237 404.051C372.103 404.72 371.859 404.893 371.354 405.307L371.268 405.357ZM394.036 409.741L393.951 409.792C393.344 410.034 393.075 410.164 391.942 410.833L381.035 417.268C379.901 417.937 379.657 418.11 379.152 418.523L379.066 418.574L377.022 415.109L377.107 415.059C377.739 414.859 378.008 414.729 379.142 414.06L391.182 406.956L390.35 405.545C388.899 403.085 386.169 403.052 384.159 404.239C382.084 405.463 380.758 408.004 382.31 410.634L382.487 410.934L381.845 411.312C381.478 410.837 381.145 410.37 380.842 409.857C379.038 406.799 378.677 403.206 381.928 401.288C385.243 399.332 388.586 400.502 390.92 404.459L394.036 409.741Z" fill="#F6F1FF"/>
<path opacity="0.5" d="M447.095 444.992L447.633 444.675L450.439 449.431L449.953 449.718L445.659 448.894C445.125 448.791 444.671 448.726 444.298 448.698C443.921 448.671 443.599 448.683 443.333 448.732C443.061 448.78 442.82 448.866 442.611 448.989C442.305 449.169 442.071 449.39 441.91 449.649C441.746 449.905 441.668 450.19 441.676 450.505C441.683 450.82 441.789 451.151 441.995 451.499C442.2 451.847 442.454 452.106 442.755 452.275C443.057 452.445 443.383 452.52 443.733 452.501C444.078 452.481 444.419 452.371 444.757 452.172L445.123 452.793C444.705 453.039 444.268 453.173 443.811 453.194C443.352 453.211 442.917 453.107 442.507 452.88C442.092 452.655 441.743 452.3 441.457 451.817C441.186 451.357 441.035 450.914 441.003 450.487C440.968 450.061 441.05 449.671 441.248 449.315C441.444 448.955 441.756 448.649 442.184 448.396C442.414 448.261 442.67 448.166 442.952 448.112C443.233 448.054 443.532 448.028 443.849 448.033C444.161 448.037 444.484 448.062 444.817 448.11C445.148 448.154 445.48 448.209 445.815 448.274L449.451 448.986L447.095 444.992ZM442.041 439.802C442.5 439.531 442.952 439.41 443.396 439.439C443.838 439.464 444.247 439.613 444.623 439.884C444.999 440.155 445.32 440.516 445.587 440.969C445.856 441.425 446.018 441.883 446.074 442.343C446.129 442.803 446.062 443.234 445.873 443.637C445.681 444.036 445.356 444.371 444.896 444.642C444.594 444.821 444.284 444.924 443.967 444.951C443.644 444.977 443.329 444.936 443.021 444.827C442.707 444.716 442.413 444.545 442.14 444.312C441.866 444.079 441.627 443.789 441.421 443.441C441.15 442.981 440.996 442.516 440.958 442.046C440.916 441.578 440.986 441.147 441.167 440.754C441.346 440.358 441.637 440.04 442.041 439.802ZM442.41 440.429C442.087 440.62 441.849 440.865 441.698 441.166C441.547 441.466 441.485 441.791 441.513 442.141C441.537 442.492 441.651 442.84 441.855 443.185C442.06 443.533 442.31 443.801 442.604 443.989C442.894 444.179 443.206 444.279 443.54 444.288C443.874 444.297 444.203 444.207 444.527 444.016C444.864 443.816 445.107 443.572 445.256 443.283C445.402 442.99 445.456 442.672 445.418 442.329C445.379 441.985 445.257 441.638 445.049 441.286C444.842 440.935 444.598 440.661 444.318 440.465C444.038 440.268 443.735 440.164 443.408 440.15C443.08 440.137 442.748 440.229 442.41 440.429ZM438.524 442.145C438.896 441.925 439.287 441.828 439.697 441.854C440.101 441.878 440.485 442.008 440.849 442.244C441.21 442.482 441.514 442.811 441.763 443.232C442.013 443.657 442.156 444.086 442.192 444.52C442.222 444.953 442.15 445.352 441.976 445.718C441.797 446.081 441.521 446.373 441.149 446.593C440.706 446.854 440.278 446.978 439.862 446.965C439.44 446.951 439.051 446.824 438.694 446.584C438.337 446.345 438.033 446.012 437.782 445.588C437.534 445.167 437.391 444.742 437.354 444.313C437.315 443.881 437.391 443.477 437.582 443.101C437.768 442.724 438.082 442.405 438.524 442.145ZM438.885 442.769C438.589 442.944 438.37 443.169 438.228 443.445C438.084 443.718 438.02 444.014 438.035 444.334C438.044 444.652 438.139 444.964 438.32 445.27C438.503 445.58 438.726 445.819 438.989 445.988C439.251 446.152 439.536 446.238 439.844 446.243C440.151 446.246 440.46 446.154 440.774 445.97C441.08 445.789 441.304 445.565 441.447 445.298C441.584 445.029 441.643 444.739 441.623 444.427C441.603 444.115 441.502 443.804 441.319 443.494C441.136 443.184 440.913 442.945 440.65 442.777C440.386 442.609 440.104 442.519 439.802 442.51C439.497 442.502 439.192 442.588 438.885 442.769ZM438.415 433.657C438.875 433.386 439.326 433.265 439.77 433.294C440.213 433.319 440.621 433.467 440.997 433.738C441.373 434.009 441.694 434.371 441.961 434.824C442.23 435.28 442.393 435.738 442.448 436.198C442.504 436.657 442.437 437.089 442.247 437.492C442.056 437.891 441.73 438.226 441.271 438.497C440.968 438.676 440.658 438.779 440.341 438.806C440.019 438.832 439.703 438.791 439.395 438.682C439.081 438.571 438.787 438.4 438.514 438.167C438.24 437.934 438.001 437.643 437.796 437.295C437.525 436.836 437.37 436.371 437.332 435.901C437.29 435.433 437.36 435.002 437.541 434.609C437.72 434.212 438.011 433.895 438.415 433.657ZM438.785 434.283C438.461 434.474 438.224 434.72 438.072 435.02C437.921 435.321 437.859 435.646 437.887 435.995C437.912 436.347 438.026 436.695 438.229 437.04C438.434 437.388 438.684 437.656 438.978 437.844C439.268 438.034 439.581 438.133 439.915 438.143C440.249 438.152 440.577 438.061 440.901 437.87C441.239 437.671 441.482 437.427 441.63 437.138C441.777 436.845 441.831 436.527 441.792 436.183C441.754 435.84 441.631 435.492 441.423 435.141C441.216 434.789 440.972 434.515 440.692 434.319C440.412 434.123 440.109 434.018 439.782 434.005C439.455 433.991 439.122 434.084 438.785 434.283ZM434.898 435.999C435.271 435.78 435.662 435.683 436.071 435.709C436.475 435.733 436.859 435.863 437.223 436.099C437.584 436.336 437.889 436.666 438.137 437.087C438.388 437.512 438.531 437.941 438.566 438.375C438.596 438.808 438.525 439.207 438.351 439.572C438.171 439.936 437.895 440.228 437.523 440.448C437.081 440.709 436.652 440.833 436.236 440.82C435.815 440.806 435.425 440.679 435.068 440.439C434.711 440.199 434.407 439.867 434.156 439.443C433.908 439.021 433.765 438.596 433.728 438.168C433.689 437.736 433.765 437.332 433.956 436.956C434.142 436.579 434.456 436.26 434.898 435.999ZM435.26 436.624C434.964 436.798 434.745 437.024 434.603 437.3C434.459 437.573 434.394 437.869 434.409 438.188C434.418 438.507 434.513 438.819 434.694 439.125C434.877 439.435 435.1 439.674 435.364 439.842C435.625 440.007 435.91 440.092 436.218 440.098C436.525 440.101 436.835 440.009 437.148 439.824C437.454 439.644 437.679 439.42 437.821 439.153C437.959 438.884 438.017 438.594 437.997 438.281C437.977 437.969 437.876 437.659 437.693 437.349C437.511 437.039 437.287 436.8 437.024 436.632C436.76 436.463 436.478 436.374 436.176 436.364C435.871 436.357 435.566 436.443 435.26 436.624ZM433.137 434.744C432.9 434.884 432.649 434.955 432.383 434.957C432.114 434.956 431.866 434.893 431.639 434.769C431.405 434.644 431.22 434.465 431.082 434.232C430.945 433.999 430.879 433.753 430.887 433.495C430.889 433.236 430.956 432.992 431.089 432.764C431.219 432.532 431.403 432.346 431.64 432.207C431.88 432.065 432.131 431.994 432.394 431.994C432.655 431.99 432.899 432.05 433.127 432.174C433.353 432.294 433.534 432.471 433.672 432.704C433.809 432.937 433.878 433.185 433.878 433.448C433.877 433.707 433.813 433.953 433.688 434.187C433.561 434.417 433.377 434.602 433.137 434.744ZM432.863 434.279C433.1 434.14 433.248 433.946 433.309 433.699C433.37 433.452 433.332 433.214 433.197 432.984C433.061 432.755 432.873 432.61 432.631 432.551C432.39 432.491 432.151 432.532 431.914 432.671C431.677 432.811 431.525 433.002 431.456 433.244C431.388 433.486 431.422 433.722 431.557 433.952C431.693 434.181 431.885 434.328 432.134 434.393C432.383 434.457 432.626 434.419 432.863 434.279ZM429.896 424.789L431.175 424.034C431.732 423.706 432.249 423.471 432.724 423.332C433.197 423.194 433.628 423.146 434.019 423.187C434.404 423.227 434.748 423.353 435.051 423.564C435.351 423.771 435.61 424.059 435.828 424.428C436.001 424.721 436.117 425.014 436.177 425.306C436.237 425.599 436.239 425.892 436.181 426.184C436.118 426.475 435.995 426.763 435.812 427.049C435.629 427.336 435.382 427.617 435.072 427.894C434.758 428.174 434.378 428.445 433.932 428.707L432.653 429.462C432.093 429.793 431.578 430.026 431.109 430.162C430.638 430.294 430.21 430.34 429.825 430.3C429.438 430.256 429.095 430.128 428.796 429.915C428.493 429.704 428.234 429.416 428.018 429.05C427.846 428.758 427.731 428.464 427.674 428.169C427.612 427.873 427.609 427.581 427.665 427.295C427.719 427.005 427.839 426.718 428.024 426.436C428.203 426.151 428.449 425.873 428.762 425.599C429.072 425.322 429.45 425.052 429.896 424.789ZM431.615 424.613L430.184 425.457C429.84 425.66 429.541 425.869 429.288 426.084C429.032 426.296 428.825 426.51 428.666 426.725C428.507 426.941 428.398 427.161 428.337 427.384C428.274 427.604 428.263 427.827 428.302 428.052C428.336 428.277 428.42 428.503 428.556 428.733C428.722 429.015 428.926 429.23 429.169 429.378C429.405 429.525 429.677 429.604 429.984 429.615C430.288 429.628 430.626 429.574 431 429.452C431.372 429.327 431.774 429.136 432.205 428.882L433.636 428.038C433.977 427.836 434.275 427.63 434.53 427.418C434.782 427.209 434.988 426.993 435.149 426.772C435.309 426.551 435.424 426.328 435.493 426.104C435.558 425.879 435.574 425.653 435.544 425.427C435.508 425.199 435.424 424.972 435.29 424.746C435.12 424.457 434.915 424.24 434.674 424.096C434.431 423.953 434.154 423.877 433.843 423.868C433.529 423.861 433.187 423.92 432.815 424.045C432.44 424.173 432.04 424.362 431.615 424.613ZM426.27 418.644L427.55 417.889C428.107 417.561 428.623 417.326 429.099 417.186C429.571 417.048 430.003 417 430.393 417.042C430.778 417.082 431.122 417.208 431.425 417.419C431.726 417.626 431.985 417.914 432.202 418.283C432.375 418.576 432.491 418.868 432.552 419.161C432.612 419.454 432.613 419.747 432.555 420.039C432.492 420.329 432.369 420.618 432.186 420.904C432.003 421.191 431.756 421.472 431.446 421.749C431.132 422.028 430.752 422.299 430.307 422.562L429.027 423.317C428.467 423.648 427.952 423.881 427.484 424.017C427.013 424.149 426.585 424.195 426.2 424.155C425.812 424.111 425.469 423.983 425.17 423.77C424.867 423.559 424.608 423.271 424.392 422.905C424.22 422.613 424.105 422.319 424.049 422.024C423.986 421.728 423.983 421.436 424.039 421.15C424.093 420.86 424.213 420.573 424.398 420.29C424.578 420.006 424.824 419.727 425.136 419.454C425.447 419.177 425.825 418.907 426.27 418.644ZM427.989 418.467L426.559 419.311C426.214 419.515 425.915 419.724 425.662 419.939C425.407 420.151 425.2 420.364 425.041 420.58C424.882 420.796 424.772 421.015 424.711 421.239C424.649 421.459 424.637 421.682 424.676 421.907C424.71 422.131 424.795 422.358 424.93 422.588C425.097 422.87 425.301 423.085 425.543 423.233C425.78 423.38 426.051 423.459 426.358 423.47C426.662 423.483 427.001 423.429 427.374 423.307C427.746 423.181 428.148 422.991 428.579 422.737L430.01 421.892C430.351 421.691 430.649 421.485 430.905 421.273C431.156 421.064 431.362 420.848 431.523 420.627C431.683 420.406 431.798 420.183 431.868 419.959C431.932 419.733 431.949 419.508 431.919 419.281C431.883 419.054 431.798 418.827 431.665 418.601C431.494 418.312 431.289 418.095 431.049 417.95C430.805 417.808 430.528 417.732 430.218 417.723C429.904 417.716 429.561 417.775 429.189 417.9C428.814 418.028 428.414 418.217 427.989 418.467ZM421.343 418.44L421.943 418.086C422.156 417.961 422.382 417.867 422.622 417.805C422.862 417.743 423.106 417.714 423.353 417.719C423.594 417.722 423.828 417.758 424.056 417.825L424.003 418.356C423.689 418.325 423.401 418.333 423.138 418.381C422.871 418.43 422.6 418.536 422.325 418.698L421.709 419.062L421.343 418.44ZM420.591 417.166L421.192 416.812C421.404 416.687 421.63 416.593 421.87 416.531C422.111 416.469 422.354 416.44 422.601 416.445C422.842 416.448 423.077 416.484 423.304 416.551L423.251 417.082C422.938 417.051 422.649 417.06 422.386 417.107C422.12 417.156 421.849 417.262 421.574 417.424L420.958 417.788L420.591 417.166ZM418.833 405.274L419.37 404.957L422.457 410.188L421.919 410.506L418.833 405.274ZM415.236 399.238L414.861 398.601C414.631 398.212 414.372 397.925 414.086 397.742C413.794 397.558 413.498 397.465 413.197 397.464C412.894 397.46 412.607 397.538 412.336 397.698C412.029 397.879 411.795 398.094 411.633 398.345C411.468 398.597 411.39 398.88 411.401 399.192C411.407 399.504 411.517 399.842 411.733 400.208C411.922 400.528 412.153 400.776 412.426 400.953C412.699 401.13 412.995 401.222 413.315 401.231C413.634 401.239 413.956 401.148 414.28 400.957L414.646 401.579C414.232 401.823 413.81 401.938 413.379 401.925C412.946 401.913 412.537 401.786 412.154 401.543C411.771 401.299 411.452 400.96 411.195 400.525C410.93 400.076 410.782 399.638 410.75 399.21C410.717 398.78 410.803 398.382 411.01 398.016C411.214 397.646 411.541 397.329 411.99 397.064C412.22 396.929 412.476 396.846 412.758 396.815C413.038 396.781 413.326 396.808 413.622 396.897C413.915 396.987 414.2 397.144 414.479 397.37C414.757 397.595 415.009 397.899 415.235 398.282L415.654 398.992L415.236 399.238ZM415.774 398.921L415.362 399.164L414.943 398.454C414.686 398.019 414.517 397.617 414.435 397.248C414.35 396.88 414.339 396.544 414.403 396.239C414.461 395.932 414.581 395.662 414.762 395.429C414.944 395.195 415.17 394.998 415.442 394.838C415.79 394.632 416.132 394.508 416.467 394.465C416.803 394.422 417.128 394.451 417.441 394.552C417.749 394.652 418.035 394.816 418.301 395.044C418.562 395.271 418.791 395.553 418.991 395.89C419.171 396.197 419.303 396.523 419.385 396.868C419.465 397.211 419.485 397.551 419.445 397.889C419.399 398.225 419.281 398.542 419.089 398.837C418.895 399.135 418.618 399.39 418.259 399.602L417.893 398.98C418.213 398.791 418.451 398.548 418.608 398.249C418.762 397.952 418.828 397.626 418.807 397.273C418.78 396.918 418.662 396.563 418.453 396.208C418.241 395.849 418 395.579 417.728 395.396C417.451 395.213 417.152 395.124 416.832 395.13C416.511 395.136 416.177 395.241 415.829 395.447C415.464 395.662 415.214 395.92 415.081 396.219C414.946 396.515 414.909 396.839 414.972 397.191C415.032 397.54 415.175 397.905 415.398 398.284L415.774 398.921ZM409.42 390.085L410.7 389.33C411.257 389.001 411.773 388.767 412.249 388.627C412.721 388.489 413.153 388.441 413.543 388.483C413.928 388.523 414.272 388.649 414.575 388.86C414.876 389.067 415.135 389.355 415.353 389.724C415.525 390.016 415.641 390.309 415.702 390.602C415.762 390.895 415.763 391.188 415.706 391.48C415.642 391.77 415.519 392.059 415.336 392.345C415.153 392.631 414.907 392.913 414.596 393.19C414.282 393.469 413.902 393.74 413.457 394.003L412.178 394.758C411.617 395.088 411.103 395.322 410.634 395.458C410.163 395.59 409.735 395.636 409.35 395.596C408.962 395.552 408.619 395.424 408.32 395.211C408.017 395 407.758 394.712 407.543 394.346C407.37 394.054 407.255 393.76 407.199 393.465C407.136 393.169 407.133 392.877 407.189 392.591C407.244 392.301 407.363 392.014 407.548 391.731C407.728 391.447 407.974 391.168 408.286 390.895C408.597 390.618 408.975 390.348 409.42 390.085ZM411.139 389.908L409.709 390.752C409.364 390.956 409.065 391.165 408.812 391.38C408.557 391.591 408.35 391.805 408.191 392.021C408.032 392.237 407.922 392.456 407.862 392.68C407.799 392.9 407.787 393.122 407.826 393.348C407.86 393.572 407.945 393.799 408.08 394.029C408.247 394.311 408.451 394.526 408.693 394.674C408.93 394.82 409.202 394.899 409.509 394.911C409.812 394.924 410.151 394.87 410.525 394.748C410.896 394.622 411.298 394.432 411.73 394.177L413.16 393.333C413.501 393.132 413.8 392.926 414.055 392.714C414.307 392.505 414.513 392.289 414.673 392.068C414.833 391.846 414.948 391.624 415.018 391.4C415.082 391.174 415.099 390.948 415.069 390.722C415.033 390.495 414.948 390.268 414.815 390.041C414.644 389.752 414.439 389.536 414.199 389.391C413.955 389.249 413.678 389.173 413.368 389.164C413.054 389.156 412.711 389.216 412.339 389.341C411.964 389.469 411.564 389.658 411.139 389.908ZM406.525 389.639C406.289 389.779 406.037 389.85 405.771 389.852C405.503 389.851 405.255 389.788 405.027 389.665C404.793 389.54 404.608 389.36 404.47 389.127C404.333 388.894 404.268 388.648 404.275 388.391C404.277 388.131 404.344 387.888 404.477 387.659C404.608 387.427 404.791 387.241 405.028 387.102C405.268 386.96 405.52 386.889 405.782 386.889C406.043 386.885 406.287 386.945 406.515 387.069C406.741 387.189 406.923 387.366 407.06 387.599C407.198 387.832 407.267 388.08 407.267 388.343C407.265 388.602 407.201 388.849 407.076 389.082C406.949 389.312 406.765 389.498 406.525 389.639ZM406.251 389.175C406.488 389.035 406.636 388.842 406.697 388.595C406.758 388.348 406.721 388.109 406.585 387.88C406.449 387.65 406.261 387.505 406.019 387.446C405.778 387.387 405.539 387.427 405.302 387.567C405.066 387.706 404.913 387.897 404.845 388.139C404.776 388.381 404.81 388.617 404.946 388.847C405.081 389.077 405.273 389.224 405.522 389.288C405.771 389.352 406.014 389.314 406.251 389.175ZM403.284 379.684L404.564 378.93C405.12 378.601 405.637 378.367 406.113 378.227C406.585 378.089 407.016 378.041 407.407 378.082C407.792 378.123 408.136 378.248 408.439 378.459C408.74 378.667 408.999 378.955 409.216 379.324C409.389 379.616 409.505 379.909 409.565 380.202C409.626 380.495 409.627 380.787 409.569 381.079C409.506 381.37 409.383 381.658 409.2 381.945C409.017 382.231 408.77 382.513 408.46 382.79C408.146 383.069 407.766 383.34 407.321 383.603L406.041 384.357C405.481 384.688 404.966 384.921 404.497 385.057C404.027 385.19 403.599 385.236 403.213 385.195C402.826 385.152 402.483 385.023 402.184 384.81C401.881 384.599 401.622 384.311 401.406 383.946C401.234 383.653 401.119 383.36 401.062 383.065C401 382.768 400.997 382.477 401.053 382.19C401.107 381.9 401.227 381.614 401.412 381.331C401.592 381.047 401.838 380.768 402.15 380.494C402.461 380.217 402.839 379.947 403.284 379.684ZM405.003 379.508L403.573 380.352C403.228 380.555 402.929 380.764 402.676 380.98C402.421 381.191 402.214 381.405 402.055 381.621C401.896 381.836 401.786 382.056 401.725 382.279C401.663 382.499 401.651 382.722 401.69 382.948C401.724 383.172 401.809 383.399 401.944 383.628C402.11 383.91 402.315 384.125 402.557 384.273C402.794 384.42 403.065 384.499 403.372 384.51C403.676 384.524 404.015 384.469 404.388 384.347C404.76 384.222 405.162 384.032 405.593 383.777L407.024 382.933C407.365 382.732 407.663 382.525 407.919 382.314C408.17 382.104 408.376 381.889 408.537 381.667C408.697 381.446 408.812 381.223 408.882 380.999C408.946 380.774 408.963 380.548 408.932 380.322C408.897 380.094 408.812 379.867 408.679 379.641C408.508 379.352 408.303 379.135 408.063 378.991C407.819 378.848 407.542 378.772 407.232 378.763C406.918 378.756 406.575 378.815 406.203 378.941C405.828 379.068 405.428 379.257 405.003 379.508ZM399.659 373.539L400.938 372.784C401.495 372.456 402.011 372.222 402.487 372.082C402.959 371.944 403.391 371.896 403.781 371.937C404.167 371.978 404.51 372.103 404.813 372.314C405.114 372.521 405.373 372.81 405.591 373.179C405.763 373.471 405.88 373.764 405.94 374.057C406 374.349 406.001 374.642 405.944 374.934C405.881 375.225 405.757 375.513 405.574 375.799C405.391 376.086 405.145 376.367 404.834 376.645C404.52 376.924 404.14 377.195 403.695 377.457L402.416 378.212C401.855 378.543 401.341 378.776 400.872 378.912C400.401 379.044 399.973 379.09 399.588 379.05C399.201 379.006 398.857 378.878 398.558 378.665C398.255 378.454 397.996 378.166 397.781 377.801C397.608 377.508 397.493 377.214 397.437 376.919C397.374 376.623 397.371 376.332 397.428 376.045C397.482 375.755 397.601 375.469 397.786 375.186C397.966 374.901 398.212 374.623 398.525 374.349C398.835 374.072 399.213 373.802 399.659 373.539ZM401.378 373.363L399.947 374.207C399.602 374.41 399.303 374.619 399.05 374.834C398.795 375.046 398.588 375.26 398.429 375.475C398.27 375.691 398.16 375.911 398.1 376.134C398.037 376.354 398.025 376.577 398.065 376.802C398.098 377.027 398.183 377.254 398.318 377.483C398.485 377.765 398.689 377.98 398.931 378.128C399.168 378.275 399.44 378.354 399.747 378.365C400.05 378.378 400.389 378.324 400.763 378.202C401.134 378.077 401.536 377.887 401.968 377.632L403.398 376.788C403.739 376.587 404.038 376.38 404.293 376.168C404.545 375.959 404.751 375.744 404.911 375.522C405.071 375.301 405.186 375.078 405.256 374.854C405.32 374.629 405.337 374.403 405.307 374.177C405.271 373.949 405.186 373.722 405.053 373.496C404.882 373.207 404.677 372.99 404.437 372.846C404.193 372.703 403.916 372.627 403.606 372.618C403.292 372.611 402.949 372.67 402.577 372.795C402.202 372.923 401.802 373.112 401.378 373.363ZM394.731 373.336L395.331 372.981C395.544 372.856 395.77 372.762 396.01 372.7C396.251 372.638 396.494 372.61 396.741 372.614C396.982 372.617 397.216 372.653 397.444 372.72L397.391 373.251C397.077 373.221 396.789 373.229 396.526 373.276C396.259 373.325 395.989 373.431 395.714 373.593L395.098 373.957L394.731 373.336ZM393.979 372.062L394.58 371.707C394.792 371.582 395.018 371.488 395.259 371.426C395.499 371.364 395.742 371.336 395.989 371.34C396.23 371.343 396.465 371.379 396.692 371.446L396.64 371.977C396.326 371.947 396.037 371.955 395.774 372.002C395.508 372.051 395.237 372.157 394.962 372.319L394.346 372.683L393.979 372.062Z" fill="#BBBBBB"/>
<path fill-rule="evenodd" clip-rule="evenodd" d="M144.343 290.12L144.531 290.773L145.17 291.004L254.717 330.561C255.065 329.726 255.56 328.946 256.188 328.264L146.713 288.733L131.295 235.005L128.738 235.739L144.343 290.12ZM265.089 340.809C264.214 341.189 263.298 341.397 262.384 341.445L256.888 430.023L256.836 430.852L257.559 431.262C269.627 438.102 288.478 448.191 304.301 456.564C312.215 460.752 319.375 464.513 324.557 467.226C327.148 468.583 329.245 469.678 330.693 470.435C331.418 470.813 331.98 471.106 332.362 471.305L332.796 471.531L332.907 471.588L332.934 471.603L332.942 471.606L332.943 471.607C332.944 471.608 332.944 471.608 333.558 470.428C334.172 469.248 334.172 469.247 334.171 469.247L334.17 469.246L334.163 469.243L334.135 469.228L334.024 469.171L333.591 468.945C333.21 468.747 332.648 468.454 331.924 468.076C330.477 467.32 328.381 466.226 325.791 464.87C320.612 462.157 313.455 458.398 305.545 454.213C290.035 446.005 271.646 436.165 259.595 429.357L265.089 340.809Z" fill="#BBBBBB"/>
<circle cx="262.518" cy="333.57" r="5.56141" transform="rotate(-120.541 262.518 333.57)" fill="#BBBBBB"/>
<circle cx="128.629" cy="229.247" r="3.50794" transform="rotate(-120.541 128.629 229.247)" fill="#BBBBBB"/>
<circle cx="339.929" cy="471.678" r="3.50794" transform="rotate(-120.541 339.929 471.678)" fill="#BBBBBB"/>
<path d="M243.588 439.312L251.884 429.922L245.517 419.131L257.011 424.119L265.307 414.729L264.115 427.201L275.609 432.19L263.378 434.91L262.186 447.383L255.819 436.592L243.588 439.312Z" fill="white"/>
<path d="M132.165 310.725L138.655 293.493L124.272 281.996L142.666 282.843L149.155 265.611L154.034 283.366L172.428 284.213L157.049 294.34L161.927 312.095L147.544 300.598L132.165 310.725Z" fill="white"/>
</svg>
