<svg width="339" height="329" viewBox="0 0 339 329" fill="none" xmlns="http://www.w3.org/2000/svg">
<path opacity="0.8" d="M312.036 253.323L310.025 249.839L310.111 249.79C310.744 249.596 311.015 249.468 312.37 248.686L316.456 246.327L309.849 244.321C307.866 243.717 306.691 243.42 306.498 243.532L306.412 243.581L305.431 241.883L305.517 241.833C306.261 242.178 307.109 242.405 309.092 243.009L311.3 243.655L317.75 234.713C318.931 233.085 319.144 232.36 319.27 231.685L319.528 231.536C321.124 233.109 321.614 235.894 319.82 238.249L314.829 244.801L317.617 245.657L322.907 242.602C324.262 241.82 324.507 241.65 324.992 241.198L325.078 241.148L327.089 244.632L327.003 244.682C326.395 244.918 326.124 245.046 324.769 245.828L314.232 251.912C312.877 252.694 312.632 252.864 312.122 253.273L312.036 253.323ZM314.845 222.63C317.403 227.06 315.912 232.623 311.482 235.18C307.052 237.738 301.489 236.247 298.932 231.817C296.374 227.388 297.865 221.825 302.295 219.267C306.725 216.709 312.288 218.2 314.845 222.63ZM309.744 231.424C313.722 229.127 315.457 225.775 313.992 223.237C312.191 220.119 307.475 220.692 303.841 222.79C299.927 225.049 298.184 228.436 299.661 230.995C301.437 234.07 306.131 233.51 309.744 231.424ZM290.089 215.309C287.941 211.589 288.373 208.215 291.34 206.501C294.695 204.564 298.178 206.625 300.028 209.829C300.252 210.216 300.445 210.649 300.625 211.061L299.98 211.434L299.819 211.154C298.49 208.853 296.02 208.1 293.375 209.628C290.794 211.117 290.073 213.197 291.402 215.498L292.283 217.024L304.175 210.159C305.53 209.376 305.776 209.206 306.285 208.797L306.371 208.747L308.358 212.188L308.272 212.238C307.663 212.475 307.392 212.602 306.038 213.384L295.501 219.468C294.146 220.25 293.9 220.42 293.391 220.829L293.305 220.879L290.089 215.309ZM282.952 202.948C282.505 202.174 281.746 201.207 280.972 200.909L291.625 188.421C293.05 186.767 293.221 186.468 293.313 186.329L293.399 186.279L295.609 190.107L295.523 190.157C295.394 190.231 295.037 190.208 293.612 191.862L292.457 193.189L296.281 199.812L298.032 199.518C300.214 199.175 300.41 198.919 300.539 198.844L300.625 198.795L301.407 200.149L301.321 200.199C301.155 200.209 300.798 200.186 298.615 200.528L282.952 202.948ZM295.179 199.989L291.74 194.033L285.207 201.589L295.179 199.989ZM277.532 193.559L271.882 183.775L272.936 183.166L272.986 183.252C273.18 183.886 273.307 184.156 273.965 185.296L276.51 189.704L289.757 182.056L288.938 180.637C287.51 178.164 284.781 178.105 282.759 179.273C280.673 180.477 279.323 183.005 280.85 185.65L281.024 185.951L280.379 186.324C280.017 185.845 279.688 185.375 279.39 184.859C277.615 181.784 277.288 178.188 280.556 176.301C283.889 174.377 287.221 175.578 289.518 179.557L292.585 184.868L292.499 184.918C291.89 185.155 291.619 185.282 290.265 186.064L279.727 192.148C278.373 192.93 278.127 193.101 277.618 193.509L277.532 193.559ZM277.625 158.958L279.848 162.807L279.762 162.857C279.633 162.931 279.272 162.853 277.813 164.498L269.441 174.034L282.034 171.809C284.192 171.424 284.388 171.168 284.517 171.093L284.603 171.043L285.385 172.398L285.299 172.448C285.133 172.458 284.775 172.435 282.606 172.799L267.054 175.412C266.607 174.638 265.848 173.671 265.074 173.373L275.839 161.079C277.298 159.434 277.447 159.147 277.539 159.008L277.625 158.958ZM261.479 165.755L259.467 162.271L259.553 162.221C260.187 162.028 260.457 161.9 261.812 161.118L270.134 156.313L254.215 153.175L253.818 152.486C254.563 152.286 254.885 152.1 258.218 150.175L266.713 145.271C268.067 144.489 268.313 144.319 268.823 143.91L268.909 143.86L270.92 147.344L270.834 147.393C270.2 147.587 269.93 147.715 268.575 148.497L260.253 153.302L276.172 156.44L276.569 157.128C275.825 157.329 275.502 157.515 274.427 158.136L263.675 164.344C262.32 165.126 262.074 165.296 261.565 165.705L261.479 165.755ZM251.95 149.251L249.939 145.767L250.025 145.717C250.658 145.524 250.929 145.396 252.284 144.614L256.369 142.255L249.763 140.249C247.78 139.644 246.605 139.348 246.412 139.46L246.326 139.509L245.345 137.81L245.431 137.761C246.175 138.105 247.023 138.333 249.006 138.937L251.214 139.583L257.664 130.641C258.845 129.012 259.058 128.288 259.184 127.613L259.442 127.464C261.038 129.037 261.528 131.822 259.734 134.177L254.743 140.728L257.531 141.584L262.821 138.53C264.176 137.748 264.421 137.578 264.906 137.126L264.992 137.076L267.003 140.56L266.917 140.609C266.308 140.846 266.038 140.974 264.683 141.756L254.146 147.84C252.791 148.622 252.546 148.792 252.036 149.201L251.95 149.251Z" fill="#F6F1FF"/>
<path opacity="0.5" d="M332.372 219.029L336.308 220.304L334.16 216.583L334.893 216.16L337.713 221.045L337.014 221.441L332.005 219.823C331.153 219.546 330.611 219.664 330.092 219.964C329.167 220.498 328.85 221.63 329.381 222.55C329.933 223.506 331.11 223.769 331.983 223.251L332.433 224.031C331.066 224.82 329.444 224.35 328.643 222.963C327.857 221.601 328.315 219.958 329.65 219.187C330.59 218.644 331.302 218.677 332.372 219.029ZM327.841 213.174C327.844 212.244 328.323 211.49 329.134 211.022C330.501 210.233 331.962 210.712 332.775 212.12C333.585 213.523 333.264 215.018 331.897 215.807C331.081 216.278 330.2 216.336 329.384 215.859C329.374 216.633 328.937 217.28 328.267 217.667C327.02 218.387 325.725 217.909 324.981 216.62C324.237 215.331 324.467 213.966 325.714 213.246C326.389 212.856 327.162 212.79 327.841 213.174ZM325.734 216.185C326.214 217.017 326.962 217.34 327.799 216.857C328.641 216.371 328.74 215.559 328.26 214.727C327.78 213.896 327.024 213.57 326.182 214.056C325.345 214.539 325.254 215.354 325.734 216.185ZM332.042 212.543C331.496 211.597 330.584 211.265 329.602 211.832C328.609 212.405 328.445 213.345 328.997 214.301C329.549 215.257 330.439 215.575 331.432 215.002C332.414 214.435 332.585 213.484 332.042 212.543ZM324.121 206.73C324.124 205.8 324.603 205.045 325.413 204.577C326.78 203.788 328.242 204.268 329.055 205.676C329.865 207.079 329.543 208.574 328.176 209.363C327.361 209.834 326.48 209.892 325.663 209.415C325.654 210.189 325.217 210.836 324.546 211.223C323.299 211.943 322.004 211.465 321.26 210.176C320.516 208.887 320.746 207.522 321.993 206.802C322.669 206.412 323.442 206.346 324.121 206.73ZM322.014 209.741C322.494 210.572 323.242 210.896 324.078 210.413C324.92 209.927 325.019 209.114 324.539 208.283C324.059 207.452 323.303 207.126 322.461 207.612C321.625 208.095 321.534 208.91 322.014 209.741ZM328.322 206.099C327.776 205.153 326.864 204.821 325.881 205.388C324.889 205.961 324.725 206.901 325.277 207.857C325.829 208.813 326.719 209.131 327.711 208.558C328.694 207.991 328.865 207.04 328.322 206.099ZM321.758 202.398C322.352 203.427 322.007 204.749 320.968 205.349C319.949 205.937 318.593 205.556 318.017 204.558C317.423 203.529 317.768 202.208 318.808 201.608C319.847 201.008 321.164 201.369 321.758 202.398ZM321.067 202.797C320.698 202.158 319.846 201.93 319.207 202.299C318.567 202.668 318.339 203.52 318.708 204.159C319.077 204.798 319.929 205.027 320.569 204.658C321.208 204.289 321.436 203.436 321.067 202.797ZM322.3 193.977C323.101 195.364 322.655 197.028 321.268 197.829L318.358 199.509C316.971 200.31 315.307 199.864 314.506 198.477C313.705 197.089 314.151 195.426 315.538 194.625L318.448 192.945C319.835 192.144 321.499 192.589 322.3 193.977ZM321.562 194.403C321.031 193.483 319.851 193.167 318.931 193.698L315.949 195.42C315.024 195.954 314.707 197.134 315.238 198.054C315.769 198.973 316.95 199.29 317.875 198.756L320.857 197.034C321.777 196.503 322.093 195.322 321.562 194.403ZM318.398 187.218C319.199 188.605 318.753 190.269 317.366 191.07L314.456 192.75C313.068 193.551 311.405 193.105 310.604 191.718C309.803 190.331 310.248 188.667 311.636 187.866L314.546 186.186C315.933 185.385 317.597 185.831 318.398 187.218ZM317.66 187.644C317.129 186.724 315.949 186.408 315.029 186.939L312.046 188.661C311.122 189.195 310.805 190.375 311.336 191.295C311.867 192.215 313.048 192.531 313.972 191.997L316.955 190.275C317.875 189.744 318.191 188.564 317.66 187.644ZM310.715 185.947L307.942 186.904L307.498 186.135L310.412 185.422L310.715 185.947ZM309.953 184.627L307.18 185.584L306.736 184.815L309.65 184.102L309.953 184.627ZM306.43 173.653L308.95 178.018L308.295 178.396L305.775 174.031L306.43 173.653ZM300.59 167.87C299.789 166.482 300.259 164.777 301.646 163.976C303.029 163.178 304.809 163.681 305.61 165.068C306.423 166.477 305.948 168.247 304.488 169.09L301.895 170.587C300.394 171.454 298.643 170.989 297.788 169.508C297.296 168.656 297.25 167.664 297.65 166.81L298.472 167.118C298.162 167.72 298.158 168.47 298.515 169.088C299.124 170.143 300.414 170.41 301.381 169.852L302.529 169.189C301.739 169.056 301.01 168.597 300.59 167.87ZM304.867 165.497C304.303 164.521 303.067 164.181 302.09 164.745C301.113 165.309 300.777 166.549 301.341 167.526C301.905 168.503 303.147 168.832 304.124 168.268C305.091 167.71 305.431 166.474 304.867 165.497ZM301.7 158.297C302.501 159.684 302.055 161.348 300.668 162.149L297.758 163.829C296.371 164.63 294.707 164.184 293.906 162.797C293.105 161.409 293.551 159.745 294.938 158.944L297.848 157.264C299.235 156.463 300.899 156.909 301.7 158.297ZM300.962 158.723C300.431 157.803 299.251 157.487 298.331 158.018L295.349 159.74C294.424 160.274 294.107 161.454 294.638 162.374C295.169 163.293 296.35 163.61 297.275 163.076L300.257 161.354C301.177 160.823 301.493 159.642 300.962 158.723ZM294.315 154.865C294.909 155.894 294.564 157.216 293.524 157.816C292.506 158.404 291.15 158.023 290.574 157.025C289.98 155.996 290.325 154.675 291.364 154.075C292.404 153.475 293.721 153.836 294.315 154.865ZM293.624 155.264C293.255 154.625 292.402 154.397 291.763 154.766C291.124 155.135 290.896 155.987 291.265 156.626C291.634 157.265 292.486 157.494 293.125 157.125C293.764 156.756 293.993 155.903 293.624 155.264ZM294.857 146.444C295.658 147.831 295.212 149.495 293.825 150.296L290.915 151.976C289.527 152.777 287.864 152.331 287.063 150.944C286.262 149.556 286.707 147.893 288.095 147.092L291.005 145.412C292.392 144.611 294.056 145.056 294.857 146.444ZM294.119 146.87C293.588 145.95 292.408 145.634 291.488 146.165L288.505 147.887C287.58 148.421 287.264 149.601 287.795 150.521C288.326 151.44 289.506 151.757 290.431 151.223L293.414 149.501C294.334 148.97 294.65 147.789 294.119 146.87ZM290.955 139.685C291.756 141.072 291.31 142.736 289.922 143.537L287.013 145.217C285.625 146.018 283.961 145.572 283.16 144.185C282.359 142.798 282.805 141.134 284.193 140.333L287.102 138.653C288.49 137.852 290.154 138.298 290.955 139.685ZM290.217 140.111C289.686 139.191 288.506 138.875 287.586 139.406L284.603 141.128C283.678 141.662 283.362 142.842 283.893 143.762C284.424 144.682 285.604 144.998 286.529 144.464L289.512 142.742C290.432 142.211 290.748 141.031 290.217 140.111ZM283.272 138.414L280.499 139.371L280.055 138.602L282.969 137.889L283.272 138.414ZM282.51 137.094L279.737 138.051L279.293 137.282L282.207 136.569L282.51 137.094Z" fill="#BBBBBB"/>
<g opacity="0.2">
<path d="M141.101 33.1913C156.077 31.0152 171.187 28.8751 186.163 26.699C188.868 26.2724 190.895 27.0315 192.357 29.3661C194.064 32.1263 196.111 34.69 197.733 37.4994C231.586 95.9369 265.317 154.558 299.255 212.946C302.155 217.969 302.552 222.393 299.918 227.66C292.691 242.276 285.966 257.169 278.972 271.991C275.602 270.872 274.661 267.669 273.137 265.03C243.843 214.29 214.597 163.636 185.303 112.896C171.393 88.8036 157.483 64.7109 143.622 40.7033C142.344 38.4898 140.359 36.2307 141.101 33.1913Z" fill="white"/>
<path d="M116.413 36.4357C118.558 36.2189 129.185 34.9644 132.578 35.7297C179.088 116.485 225.648 197.326 272.415 277.934C272.351 282.739 267.148 297.32 265.505 300.766C264.612 302.758 263.6 302.774 262.518 300.901C240.918 263.882 219.949 226.383 197.923 189.609C195.883 188.631 194.887 186.709 193.805 184.836C182.992 166.106 172.228 147.462 161.414 128.733C160.284 126.775 158.934 124.83 159.228 122.39C144.027 95.8642 128.691 69.3026 113.405 42.8261C110.295 37.2433 110.38 37.1942 116.413 36.4357Z" fill="white"/>
<path d="M131.68 138.181C144.266 160.767 157.072 183.341 170.425 205.485C170.861 207.617 174.051 209.408 170.099 211.803C166.062 214.247 163.115 215.041 160.546 210.394C157.817 208.224 155.805 205.526 154.085 202.546C144.648 186.201 135.162 169.77 125.724 153.424C124.25 150.87 122.86 148.267 122.895 145.182C122.637 144.537 122.342 144.026 122.217 143.417C121.843 141.59 119.275 139.894 120.889 138.168C122.588 136.392 125.142 134.918 127.48 134.249C130.293 133.419 130.029 137.091 131.68 138.181Z" fill="white"/>
<path d="M122.981 145.133C134.475 163.469 144.912 182.529 155.64 201.308C157.361 204.287 158.996 207.316 160.582 210.26C150.867 205.426 142.573 199.317 137.673 188.865C133.328 179.569 127.826 170.827 122.289 162.218C119.661 158.06 118.913 154.405 121.076 150.092C121.911 148.588 122.379 146.842 122.981 145.133Z" fill="white"/>
<path d="M133.208 144.562C143.985 163.426 154.799 182.155 165.746 200.921C166.877 202.879 167.801 205.069 170.474 205.57C180.012 200.857 188.322 194.016 198.008 189.559C185.677 166.825 172.409 144.632 159.397 122.291C150.203 127.599 141.008 132.908 131.814 138.216C130.642 140.709 132.077 142.604 133.208 144.562ZM179.964 173.642C182.408 177.679 180.848 183.234 176.712 185.508C172.747 187.684 167.559 186.366 165.164 182.414C162.769 178.462 164.146 172.786 168.147 170.476C172.318 168.067 177.506 169.386 179.964 173.642ZM163.511 145.342C165.92 149.513 164.602 154.701 160.394 157.244C156.527 159.59 151.205 158.236 148.859 154.369C146.513 150.502 147.876 144.607 151.658 142.31C155.866 139.767 161.054 141.085 163.511 145.342Z" fill="white"/>
</g>
<path fill-rule="evenodd" clip-rule="evenodd" d="M28.1606 148.931L62.281 218.263L63.7756 221.3L64.7487 218.058L90.532 132.164C89.6476 132.055 88.7815 131.823 87.9605 131.477L63.1736 214.052L30.3113 147.276C29.7102 147.893 29.0155 148.438 28.2331 148.89C28.209 148.903 28.1848 148.917 28.1606 148.931ZM32.8489 138.695L82.188 123.938C82.0607 123.006 82.073 122.068 82.2167 121.153L31.9673 136.182C32.3858 136.992 32.6775 137.838 32.8489 138.695ZM100.013 117.836C99.6656 117.234 99.2626 116.684 98.8143 116.188L191.991 88.3203L192.965 88.0291L193.502 88.8919L250.976 181.241L251.465 182.026L250.899 182.757L221.127 221.277L219.022 219.65L248.229 181.861L191.78 91.1604L100.364 118.502C100.257 118.277 100.14 118.056 100.013 117.836Z" fill="#BBBBBB"/>
<circle cx="90.1036" cy="122.705" r="4.94935" transform="rotate(-120 90.1036 122.705)" fill="#BBBBBB"/>
<circle cx="24.4445" cy="141.182" r="3.71978" transform="rotate(-120 24.4445 141.182)" fill="#BBBBBB"/>
<circle cx="216.596" cy="226.979" r="3.71978" transform="rotate(-120 216.596 226.979)" fill="#BBBBBB"/>
<path d="M43.3332 225.104L52.7968 214.593L45.7253 202.345L58.6456 208.097L68.1092 197.587L66.6309 211.653L79.5513 217.405L65.7172 220.346L64.2388 234.411L57.1673 222.163L43.3332 225.104Z" fill="white"/>
<path d="M233.565 187.69L239.793 180.773L235.139 172.712L243.643 176.498L249.871 169.581L248.898 178.838L257.402 182.624L248.297 184.559L247.324 193.816L242.67 185.755L233.565 187.69Z" fill="white"/>
<path d="M179.199 98.8359L186.073 91.2018L180.936 82.3055L190.321 86.4838L197.195 78.8498L196.121 89.0661L205.505 93.2443L195.457 95.3801L194.383 105.596L189.247 96.7001L179.199 98.8359Z" fill="white"/>
</svg>
