<svg width="355" height="318" viewBox="0 0 355 318" fill="none" xmlns="http://www.w3.org/2000/svg">
<path opacity="0.8" d="M145.647 158.63L152.972 171.318L152.886 171.368C152.277 171.605 152.006 171.732 150.652 172.514L140.114 178.598C138.76 179.38 138.514 179.55 138.005 179.959L137.919 180.009L135.907 176.525L135.993 176.476C136.627 176.282 136.897 176.154 138.252 175.372L150.144 168.506L146.668 162.485L134.776 169.351C133.421 170.133 133.175 170.304 132.691 170.755L132.605 170.805L130.593 167.321L130.679 167.272C131.288 167.035 131.559 166.907 132.913 166.125L143.451 160.042C144.805 159.259 145.051 159.089 145.56 158.68L145.647 158.63ZM143.723 190.857C141.165 186.427 142.656 180.864 147.086 178.306C151.515 175.748 157.078 177.239 159.636 181.669C162.194 186.099 160.703 191.662 156.273 194.219C151.843 196.777 146.28 195.286 143.723 190.857ZM148.824 182.062C144.846 184.359 143.111 187.712 144.576 190.249C146.376 193.367 151.092 192.795 154.727 190.697C158.64 188.437 160.384 185.051 158.907 182.491C157.131 179.416 152.437 179.976 148.824 182.062ZM165.263 192.607L172.588 205.295L172.502 205.345C171.894 205.582 171.623 205.709 170.268 206.491L159.731 212.575C158.376 213.357 158.131 213.527 157.621 213.936L157.535 213.986L155.524 210.502L155.61 210.453C156.244 210.259 156.514 210.131 157.869 209.349L169.761 202.483L166.284 196.462L154.392 203.328C153.038 204.11 152.792 204.281 152.307 204.732L152.221 204.782L150.21 201.298L150.296 201.249C150.905 201.012 151.175 200.884 152.53 200.102L163.067 194.019C164.422 193.236 164.668 193.066 165.177 192.657L165.263 192.607ZM173.584 207.02L176.005 211.213L175.962 211.238C175.637 211.569 175.311 212.445 174.723 213.76L171.154 221.583L179.354 221.781C180.725 221.821 181.597 221.891 182.021 221.732L182.064 221.707L182.796 222.976L182.71 223.026C182.078 222.874 181.388 222.871 179.996 222.844L167.241 222.552C163.341 222.453 161.573 221.724 160.654 220.133C159.611 218.327 160.083 216.363 161.782 215.382C163.481 214.401 165.351 215.157 166.195 216.619C166.617 217.35 166.784 218.286 166.641 219.229L166.185 219.234C166.219 218.698 166.07 218.239 165.859 217.874C165.25 216.82 164.178 216.751 163.382 217.21C162.544 217.695 161.997 218.784 162.668 219.946C163.102 220.698 164.18 221.423 166.186 221.47L167.344 221.489L172.423 209.726C172.999 208.39 173.338 207.735 173.498 207.069L173.584 207.02ZM183.352 223.938L188.256 232.433L187.203 233.041L187.153 232.955C186.959 232.321 186.832 232.051 186.174 230.911L184.373 227.793L172.481 234.659C171.127 235.441 170.881 235.612 170.396 236.063L170.31 236.113L168.299 232.629L168.385 232.58C168.994 232.343 169.264 232.215 170.619 231.433L181.156 225.35C182.511 224.567 182.757 224.397 183.266 223.988L183.352 223.938ZM191.595 238.215C192.042 238.989 192.801 239.956 193.575 240.255L182.922 252.742C181.497 254.396 181.326 254.696 181.234 254.835L181.148 254.884L178.938 251.056L179.024 251.007C179.153 250.932 179.51 250.955 180.935 249.301L182.09 247.975L178.266 241.351L176.515 241.646C174.333 241.988 174.137 242.244 174.008 242.319L173.922 242.369L173.14 241.014L173.226 240.964C173.392 240.954 173.749 240.977 175.932 240.635L191.595 238.215ZM179.368 241.174L182.807 247.131L189.34 239.574L179.368 241.174ZM197.053 247.669L199.064 251.152L198.978 251.202C198.345 251.396 198.074 251.523 196.719 252.306L188.397 257.11L204.316 260.249L204.713 260.937C203.969 261.137 203.646 261.324 200.313 263.248L191.819 268.152C190.464 268.934 190.218 269.105 189.709 269.514L189.623 269.563L187.612 266.08L187.698 266.03C188.331 265.836 188.602 265.709 189.956 264.927L198.279 260.122L182.36 256.983L181.962 256.295C182.707 256.095 183.029 255.908 184.105 255.288L194.857 249.08C196.212 248.298 196.457 248.127 196.967 247.718L197.053 247.669ZM203.809 248.843L204.703 250.391L204.682 250.404C204.187 250.689 203.887 251.063 203.689 251.464C203.423 252.048 203.476 252.734 203.86 253.401C204.494 254.498 205.613 254.798 206.888 254.176L207.782 255.724C206.089 256.616 204.124 255.944 202.957 253.922C201.79 251.901 202.191 249.863 203.809 248.843ZM206.333 263.743L208.344 267.226L208.258 267.276C207.625 267.47 207.354 267.597 206 268.379L203.032 270.093C201.269 271.111 200.568 272.777 201.548 274.476C202.107 275.444 202.933 276.229 204.071 276.661L209.103 273.756C210.458 272.973 210.704 272.803 211.188 272.351L211.274 272.301L213.286 275.785L213.2 275.835C212.591 276.072 212.321 276.199 210.966 276.981L200.429 283.065C199.074 283.847 198.828 284.018 198.319 284.426L198.233 284.476L196.221 280.992L196.307 280.943C196.941 280.749 197.211 280.621 198.566 279.839L203.061 277.244C201.49 276.66 200.426 275.611 199.681 274.321C197.757 270.988 198.697 268.295 200.998 266.966L204.137 265.154C205.492 264.372 205.738 264.201 206.247 263.792L206.333 263.743ZM215.19 279.084L217.202 282.567L217.116 282.617C216.482 282.811 216.211 282.938 214.857 283.72L206.534 288.525L222.453 291.664L222.851 292.352C222.106 292.552 221.784 292.739 218.45 294.663L209.956 299.567C208.601 300.349 208.356 300.52 207.846 300.929L207.76 300.978L205.749 297.495L205.835 297.445C206.469 297.251 206.739 297.124 208.094 296.341L216.416 291.537L200.497 288.398L200.1 287.71C200.844 287.51 201.167 287.323 202.242 286.703L212.994 280.495C214.349 279.713 214.595 279.542 215.104 279.133L215.19 279.084ZM224.719 295.588L226.73 299.071L226.644 299.121C226.011 299.315 225.74 299.442 224.385 300.224L220.299 302.583L226.906 304.59C228.889 305.194 230.064 305.491 230.257 305.379L230.343 305.329L231.324 307.028L231.238 307.078C230.494 306.733 229.646 306.506 227.663 305.902L225.455 305.255L219.005 314.198C217.824 315.826 217.611 316.551 217.485 317.226L217.227 317.375C215.631 315.802 215.141 313.017 216.935 310.662L221.926 304.11L219.138 303.254L213.848 306.308C212.493 307.09 212.248 307.261 211.763 307.713L211.677 307.762L209.666 304.279L209.752 304.229C210.361 303.992 210.631 303.865 211.986 303.082L222.523 296.999C223.878 296.217 224.123 296.046 224.633 295.637L224.719 295.588Z" fill="#F6F1FF"/>
<path opacity="0.2" d="M335.669 113.246C352.61 51.0199 294.132 46.0548 254.798 79C249.508 82.2654 239.189 68.5958 225.011 71.8214C175.524 77.494 130.8 103.844 84.3883 120.509C70.8679 131.27 106.416 131.429 130.65 131.366C90.9576 137.188 58.0941 172.201 21.1114 188.382C16.5211 191.033 15.0884 195.131 17.2026 198.976C29.7802 210.708 49.0198 186.093 62.5819 182.167C34.0682 224.167 128.193 160.01 148.707 149.116C149.864 149.292 151.009 149.264 152.095 148.953C151.024 150.205 149.953 151.457 149.597 153.034C149.241 154.611 149.726 156.547 151.236 157.153C153.042 157.904 155.008 156.558 156.488 155.282C154.942 159.551 156.11 164.68 159.411 167.839C159.673 168.11 160.06 168.415 160.435 168.515C160.934 168.649 161.375 168.499 161.817 168.35C164.986 167.259 167.923 165.036 169.042 161.857C170.308 158.383 169.134 154.523 167.94 150.991C167.641 150.108 167.342 149.226 166.919 148.309C185.572 154.846 206.104 155.865 225.65 154.078C252.039 151.716 275.537 144.164 290.119 119.706C291.032 118.546 290.833 117.289 290.148 116.101C285.135 110.343 280.642 104.389 280.198 96.3091C280.195 95.5723 279.625 94.9514 278.831 94.6716C278.127 94.55 277.391 94.5533 276.687 94.4318C285.271 90.1088 283.354 74.5428 301.408 73.8276C325.267 70.9216 324.966 100.009 335.669 113.246ZM159.891 145.824C159.971 145.779 159.971 145.779 159.891 145.824C160.141 145.891 160.187 145.97 159.891 145.824Z" fill="white"/>
<path opacity="0.2" d="M296.153 120.654C295.23 109.368 311.848 112.014 319.102 109.409C342.151 112.775 309.557 144.783 295.248 136.266C307.692 130.77 301.655 129.085 296.153 120.654Z" fill="white"/>
<path opacity="0.2" d="M302.626 95.2852C301.716 92.5389 302.532 89.8517 306.038 87.7223C309.797 85.4465 313.329 85.4125 314.618 87.9392C315.771 90.2284 314.31 92.971 310.678 95.1736C306.919 97.4495 304.437 96.6661 302.626 95.2852Z" fill="white"/>
<path fill-rule="evenodd" clip-rule="evenodd" d="M182.713 128.843L243.27 135.414L243.557 132.769L182.266 126.118C182.602 127.005 182.746 127.931 182.713 128.843ZM180.87 123.849L189.87 115.31C189.171 114.789 188.558 114.13 188.077 113.344L178.693 122.247C179.503 122.629 180.246 123.167 180.87 123.849ZM187.254 107.978C187.032 108.866 186.982 109.799 187.12 110.72L94.4338 82.1691L94.6482 79.5794L172.509 69.1139L172.864 71.7507L101.005 81.4094L187.254 107.978Z" fill="#BBBBBB"/>
<circle cx="191.865" cy="110.448" r="3.06426" transform="rotate(60 191.865 110.448)" fill="#BBBBBB"/>
<circle cx="177.565" cy="127.488" r="3.06426" transform="rotate(60 177.565 127.488)" fill="#BBBBBB"/>
<path d="M194.991 64.4401L185.022 71.5029L188.658 83.1664L178.861 75.868L168.892 82.9308L172.805 71.3573L163.008 64.0588L175.224 64.2045L179.138 52.631L182.774 64.2945L194.991 64.4401Z" fill="white"/>
<path d="M254.321 131.983L245.882 135.109L246.247 144.101L240.666 137.041L232.227 140.166L237.217 132.677L231.637 125.617L240.301 128.048L245.292 120.559L245.657 129.551L254.321 131.983Z" fill="white"/>
<path d="M116.027 73.3926L105.189 83.5947L111.543 97.0542L98.4914 89.9L87.6541 100.102L90.425 85.4784L77.3733 78.3241L92.1376 76.4404L94.9085 61.8168L101.262 75.2763L116.027 73.3926Z" fill="white"/>
</svg>
