<svg width="246" height="235" viewBox="0 0 246 235" fill="none" xmlns="http://www.w3.org/2000/svg">
<path opacity="0.2" d="M241.263 117.211C243.447 273.885 -0.646392 273.885 0.663588 118.521C-3.00436 -39.0255 243.447 -39.5495 241.263 117.211ZM140.045 191.007C193.231 186.378 172.795 185.68 201.003 141.053C204.147 130.399 187.467 115.465 183.537 104.81C177.773 97.7364 141.879 107.605 130.788 106.994C119.61 114.155 116.291 131.971 108.781 143.062C110.003 157.21 123.627 169.261 128.692 182.71C132.098 189.26 135.854 192.579 140.045 191.007ZM129.129 99.7451C146.159 97.9984 162.402 96.4264 178.559 94.6798C179.782 94.5051 181.266 93.0205 181.79 91.8852C183.624 82.4533 195.327 68.2182 190.349 59.747C179.083 50.4025 164.498 23.6789 151.486 21.4956C101.445 23.8535 117.95 22.1942 101.008 66.2096C100.659 67.4322 100.921 69.4409 101.707 70.3142C110.877 79.9207 119.173 91.1865 129.129 99.7451ZM127.208 194.326C117.164 180.091 111.837 160.877 98.9994 150.048C89.9169 149.874 60.3113 138.258 55.9447 144.721C50.9668 155.55 38.8277 165.506 38.0417 177.209C45.2029 186.466 49.8315 199.391 59.176 206.377C75.6818 209.434 92.2749 212.403 108.868 215.111C117.601 212.753 120.832 200.876 127.208 194.326ZM84.153 10.2298C58.0407 20.1856 34.2864 35.7307 26.6012 64.6376C25.7279 67.9562 25.9899 69.4409 28.9592 71.1002C37.5177 73.9821 46.5129 85.7719 55.3334 83.414C67.9092 75.4668 84.3277 71.4495 94.8075 61.1443C105.549 20.8843 119.784 26.2115 84.153 10.2298ZM21.3613 75.0301C1.71157 96.6884 0.663585 156.86 32.2778 168.563C57.1674 132.233 53.6741 137.123 48.6962 94.1558C44.0676 84.462 29.9198 81.842 21.3613 75.0301ZM233.316 126.905C225.282 132.145 215.5 135.027 208.863 141.577C200.567 156.86 192.357 172.143 184.235 187.514C181.878 194.064 186.419 201.225 187.292 207.949C208.339 198.692 233.927 153.629 233.316 126.905ZM223.36 69.8775C214.54 46.7345 181.004 15.033 162.402 13.2864C169.476 30.4908 186.069 41.8439 197.248 56.6031C205.108 62.1923 214.714 65.1616 223.36 69.8775ZM66.5119 215.373C79.3497 224.892 108.781 231.966 124.588 229.608C106.423 219.215 85.8123 219.827 66.5119 215.373Z" fill="white"/>
<g filter="url(#filter0_f_92_9459)">
<path fill-rule="evenodd" clip-rule="evenodd" d="M112.874 27.0459L138.752 132.658L208.919 118.764L214.42 117.675L210.197 121.365C190.359 138.701 155.306 169.375 138.382 184.305C138.103 183.275 137.669 182.308 137.108 181.43C153.191 167.245 184.099 140.194 204.001 122.796L137.928 135.88L136.521 136.159L136.18 134.766L109.96 27.7599L112.874 27.0459ZM120.318 180.323C119.925 179.756 119.52 179.17 119.105 178.564C113.517 170.416 106.003 158.891 97.7461 145.967C81.2358 120.124 61.7889 88.7399 48.9178 67.7211L46.3594 69.2878C59.2358 90.3153 78.6936 121.717 95.218 147.582C103.479 160.512 111.014 172.071 116.631 180.26C117.323 181.27 117.988 182.23 118.621 183.137C119.037 182.107 119.613 181.159 120.318 180.323Z" fill="white"/>
<circle cx="127.742" cy="187.196" r="5.15228" fill="white"/>
<circle cx="109.195" cy="18.718" r="5.15228" fill="white"/>
<path d="M214.846 96.6392L219.694 111.559L235.382 111.559L222.69 120.78L227.538 135.7L214.846 126.479L202.155 135.7L207.002 120.78L194.311 111.559L209.999 111.559L214.846 96.6392Z" fill="white"/>
<path d="M39.6889 52.5029L47.2775 61.1496L57.846 56.6044L51.9675 66.4936L59.5561 75.1403L48.3344 72.6054L42.4558 82.4946L41.399 71.0388L30.1773 68.5039L40.7458 63.9587L39.6889 52.5029Z" fill="white"/>
<path d="M129.528 124.449L137.564 128.543L143.941 122.166L142.53 131.074L150.566 135.168L141.658 136.579L140.247 145.487L136.153 137.451L127.245 138.862L133.622 132.485L129.528 124.449Z" fill="white"/>
</g>
<path fill-rule="evenodd" clip-rule="evenodd" d="M112.874 27.0459L138.752 132.658L208.919 118.764L214.42 117.675L210.197 121.365C190.359 138.701 155.306 169.375 138.382 184.305C138.103 183.275 137.669 182.308 137.108 181.43C153.191 167.245 184.099 140.194 204.001 122.796L137.928 135.88L136.521 136.159L136.18 134.766L109.96 27.7599L112.874 27.0459ZM120.318 180.323C119.925 179.756 119.52 179.17 119.105 178.564C113.517 170.416 106.003 158.891 97.7461 145.967C81.2358 120.124 61.7889 88.7399 48.9178 67.7211L46.3594 69.2878C59.2358 90.3153 78.6936 121.717 95.218 147.582C103.479 160.512 111.014 172.071 116.631 180.26C117.323 181.27 117.988 182.23 118.621 183.137C119.037 182.107 119.613 181.159 120.318 180.323Z" fill="white"/>
<circle cx="127.742" cy="187.196" r="5.15228" fill="white"/>
<circle cx="109.195" cy="18.718" r="5.15228" fill="white"/>
<path d="M214.846 96.6392L219.694 111.559L235.382 111.559L222.69 120.78L227.538 135.7L214.846 126.479L202.155 135.7L207.002 120.78L194.311 111.559L209.999 111.559L214.846 96.6392Z" fill="white"/>
<path d="M39.6889 52.5029L47.2775 61.1496L57.846 56.6044L51.9675 66.4936L59.5561 75.1403L48.3344 72.6054L42.4558 82.4946L41.399 71.0388L30.1773 68.5039L40.7458 63.9587L39.6889 52.5029Z" fill="white"/>
<path d="M129.528 124.449L137.564 128.543L143.941 122.166L142.53 131.074L150.566 135.168L141.658 136.579L140.247 145.487L136.153 137.451L127.245 138.862L133.622 132.485L129.528 124.449Z" fill="white"/>
<defs>
<filter id="filter0_f_92_9459" x="20.1777" y="3.56567" width="225.205" height="198.783" filterUnits="userSpaceOnUse" color-interpolation-filters="sRGB">
<feFlood flood-opacity="0" result="BackgroundImageFix"/>
<feBlend mode="normal" in="SourceGraphic" in2="BackgroundImageFix" result="shape"/>
<feGaussianBlur stdDeviation="5" result="effect1_foregroundBlur_92_9459"/>
</filter>
</defs>
</svg>
