<svg width="166" height="327" viewBox="0 0 166 327" fill="none" xmlns="http://www.w3.org/2000/svg">
<g opacity="0.2">
<path d="M79.3653 188.675C76.5343 188.675 74.0696 188.941 71.6716 188.608C65.2435 187.742 60.1477 184.245 55.4848 179.982C47.9243 173.055 41.9293 164.895 36.8334 156.068C34.8018 152.538 32.7701 148.974 30.5053 145.077C29.4062 147.875 28.3737 150.306 27.5077 152.771C19.5809 175.919 14.4517 199.799 9.8555 223.813C7.0578 238.501 4.39331 253.189 1.62891 268.043C2.06189 268.21 2.49486 268.376 2.96115 268.543C3.96033 268.843 4.95951 269.209 5.992 269.409C17.2495 271.907 28.5402 274.138 40.0641 274.771C49.8561 275.304 59.6814 275.637 69.4734 276.137C70.6391 276.203 71.172 275.804 71.4717 274.738C72.0712 272.673 72.9039 270.675 73.4035 268.576C77.6001 250.724 80.0647 232.639 80.098 214.287C80.098 205.828 79.6317 197.368 79.3653 188.675Z" fill="white"/>
<path d="M106.74 238.434C104.576 237.435 102.91 235.803 101.778 233.705C100.013 230.374 99.0135 226.777 98.8136 223.08C98.5472 218.517 98.8136 213.888 98.7137 209.291C98.6804 207.793 99.18 207.26 100.645 207.093C105.541 206.494 110.404 205.761 115.3 205.095C116.566 204.928 117.332 204.629 117.032 203.03C115.9 196.902 114.967 190.707 113.701 184.578C112.802 180.049 111.537 175.619 110.338 170.856C109.638 171.489 109.205 171.889 108.772 172.288C102.777 177.884 96.3157 182.813 88.7219 186.044C87.8892 186.41 87.7227 186.81 87.6894 187.642C87.6561 188.075 87.1898 188.642 86.7901 188.808C86.4571 188.941 85.8576 188.675 85.4912 188.442C85.1915 188.242 85.0582 187.842 84.7918 187.476C83.8925 187.742 83.0266 188.009 82.0607 188.275C84.9916 218.084 82.4604 247.294 74.4336 276.57C80.4287 276.07 86.3239 275.837 92.1191 275.071C100.079 274.005 107.84 271.94 115.167 268.476C116 268.077 116.399 267.677 116.499 266.678C116.932 260.816 117.598 254.987 117.998 249.125C118.331 244.03 118.431 238.901 118.664 233.305C117.798 234.304 117.298 234.937 116.766 235.503C113.701 238.734 109.905 239.9 106.74 238.434Z" fill="white"/>
<path d="M123.791 138.649C115.031 145.743 106.305 152.838 97.5454 159.932C93.1823 163.462 88.8192 166.926 84.5228 170.556C82.3579 172.355 81.7917 172.422 79.8599 170.423C72.5659 162.996 65.2718 155.535 57.8779 148.175C53.3816 143.712 48.6854 139.482 43.0567 136.418C39.0933 134.253 36.1956 135.019 34.2639 138.982C33.1648 141.28 32.6319 143.645 34.3638 146.176C36.5953 149.407 38.3938 152.937 40.4255 156.301C45.7545 165.061 51.8495 173.188 59.8096 179.782C65.6049 184.578 72.0996 186.876 79.6934 185.544C86.2214 184.412 91.95 181.514 97.3123 177.784C104.773 172.555 111.101 166.093 116.996 159.232C120.893 154.703 124.457 149.907 127.954 145.544C126.488 143.012 125.256 140.814 123.957 138.583C124.057 138.516 123.891 138.549 123.791 138.649Z" fill="white"/>
<path d="M77.8961 120.064C77.8628 120.098 77.8628 120.131 77.8961 120.064V120.064Z" fill="white"/>
<path d="M77.8984 120.064C77.9315 120.031 77.9315 120.031 77.9645 120.031V119.998C77.8984 120.031 77.8984 120.064 77.8984 120.064Z" fill="white"/>
<path d="M83.726 165.994C84.9916 166.66 85.5245 165.827 86.2573 165.227C87.756 163.995 89.2548 162.763 90.7536 161.531C94.9835 158.033 99.2133 154.57 103.443 151.039C97.6479 138.716 89.3547 128.391 80.029 118.799C79.2297 119.265 78.5969 119.631 77.9308 119.998C78.0973 122.496 78.4303 124.794 78.4303 127.092C78.397 132.621 76.0323 135.485 70.6367 136.618C74.7001 144.478 76.3654 153.037 78.2971 161.531C79.0965 165.028 80.1956 166.859 82.3272 168.158C82.2605 166.66 82.9267 165.594 83.726 165.994Z" fill="white"/>
<path d="M105.84 149.041C112.9 143.445 119.861 137.917 126.423 132.721C125.657 129.357 124.991 126.359 124.324 123.528C111.568 124.061 98.7453 122.729 85.7227 120.498C93.7827 129.224 100.744 138.416 105.84 149.041Z" fill="white"/>
<path d="M152.5 85.9593C149.003 94.7521 145.906 103.711 140.51 111.638C140.077 111.771 139.211 112.904 138.945 113.137C138.378 113.67 137.779 114.169 137.146 114.669C135.914 115.668 134.615 116.601 133.249 117.433C131.717 118.366 130.118 119.232 128.453 119.931C128.819 122.363 131.684 123.595 132.683 125.827C134.415 124.561 136.147 123.262 137.879 121.996C139.511 120.797 141.143 119.598 142.841 118.499C142.875 118.533 142.875 118.599 142.908 118.633C144.673 118.1 146.505 117.234 147.871 118.966C149.203 120.631 147.871 122.13 147.038 123.528C148.07 123.595 149.036 123.662 150.169 123.728C154.698 111.805 159.927 100.048 161.593 87.3248C158.562 86.7919 155.664 86.2923 152.7 85.7927C152.667 85.826 152.533 85.8926 152.5 85.9593Z" fill="white"/>
<path d="M101.773 222.647C102.206 226.144 102.905 229.641 104.737 232.739C106.336 235.37 108.867 236.736 111.065 235.703C114.962 233.938 117.86 230.774 118.26 226.611C118.726 221.581 118.06 216.452 117.926 211.689C112.331 212.789 106.969 213.854 101.273 214.987C101.44 217.285 101.44 219.983 101.773 222.647Z" fill="white"/>
<path d="M45.1561 122.229C45.0895 122.229 45.0562 122.229 44.9229 122.263C42.858 125.493 40.793 128.724 38.8945 131.688C41.126 132.554 43.4242 133.054 45.256 134.286C49.0196 136.784 52.7499 139.449 56.1138 142.48C62.4752 148.208 68.5702 154.27 74.9317 160.365C72.8667 151.472 70.9017 142.746 66.3387 134.686C65.8391 135.419 65.4728 136.018 65.0731 136.584C63.6409 138.649 61.5427 139.715 59.1779 139.049C57.2795 138.516 55.3477 137.517 53.8156 136.285C50.6516 133.72 49.2527 130.023 48.6865 126.126C48.3535 123.828 47.3543 122.629 45.1561 122.229Z" fill="white"/>
<path d="M141.945 134.586C142.778 133.987 143.844 133.72 144.809 133.287C145.742 132.854 146.708 132.421 147.64 131.988C147.574 131.855 147.507 131.722 147.441 131.555C147.041 131.689 146.641 131.822 146.275 131.988C144.243 132.954 142.178 133.92 140.147 134.919C139.214 135.385 138.381 135.152 138.082 134.286C137.915 133.72 138.248 132.888 138.581 132.321C138.848 131.888 139.48 131.722 139.947 131.422C141.978 130.123 143.977 128.824 146.008 127.525C145.908 127.359 145.809 127.192 145.709 127.026C143.344 128.291 140.979 129.557 138.648 130.856C137.549 131.455 136.416 132.654 135.35 131.122C134.251 129.557 135.85 128.924 136.783 128.158C139.48 126.06 142.178 123.962 144.876 121.863C144.776 121.697 144.643 121.497 144.543 121.33C144.31 121.397 144.043 121.464 143.81 121.563C140.047 123.262 136.683 125.594 133.685 128.425C131.587 130.39 130.288 130.09 129.289 127.459C128.889 126.426 128.456 125.394 128.056 124.361C127.557 126.659 128.123 128.691 129.089 130.623C129.255 130.989 129.722 131.222 130.021 131.489C130.554 131.922 131.187 132.288 131.587 132.821C132.686 134.22 133.619 135.719 134.718 137.117C135.051 137.55 135.65 137.983 136.116 138.017C138.648 138.15 141.212 138.183 143.744 138.217C144.31 138.217 144.876 137.983 145.442 137.85C144.51 137.584 143.61 137.85 142.778 137.684C142.012 137.517 141.379 136.918 140.679 136.485C141.112 135.818 141.379 135.019 141.945 134.586Z" fill="white"/>
<path d="M58.7132 125.027C56.1154 124.794 53.6174 124.561 51.0195 124.294C51.3526 125.493 51.6523 126.559 51.9854 127.625C52.8847 130.456 54.2502 133.021 56.7482 134.819C59.9123 137.084 61.6442 136.684 63.5426 133.287C63.7758 132.854 64.0089 132.421 64.342 131.788C61.1446 130.456 59.4793 128.025 58.7132 125.027Z" fill="white"/>
<path d="M67.8047 131.688C70.2027 134.353 73.4001 133.82 74.699 130.489C75.8315 127.525 75.4318 124.561 74.8656 121.497C73.3002 122.063 71.868 122.596 70.4692 123.095C70.5025 126.326 70.6024 129.457 67.8047 131.688Z" fill="white"/>
<path d="M101.512 209.891C101.512 211.123 101.512 212.256 101.512 213.355C106.608 213.355 111.37 212.256 116.066 210.724C117.632 210.191 118.098 209.425 117.332 207.826C111.97 208.492 106.741 209.191 101.512 209.891Z" fill="white"/>
<path d="M163.562 73.2028C163.695 72.6699 163.895 72.137 163.961 71.6041C164.194 70.0054 164.394 68.3734 164.627 66.7414C164.427 66.7081 164.261 66.7081 164.061 66.6748C163.828 68.4067 163.595 70.1386 163.328 71.8372C163.162 72.8697 162.929 74.0687 161.497 73.9022C160.064 73.7357 160.264 72.6033 160.364 71.5708C160.531 69.6723 160.697 67.7739 160.864 65.8754C160.664 65.8421 160.497 65.8421 160.298 65.8088C160.098 67.8738 159.931 69.9388 159.665 72.0038C159.565 72.6366 159.265 73.4692 158.799 73.769C157.8 74.4351 156.7 73.5358 156.734 72.1037C156.767 70.1053 156.9 68.107 157 66.1419C156.601 66.3084 156.434 66.5416 156.434 66.7747C156.301 68.4733 156.301 70.2052 156.001 71.8705C155.868 72.7032 155.402 73.6358 154.769 74.1354C154.402 74.4351 153.37 74.0354 152.737 73.769C151.871 73.3693 151.105 72.7698 150.306 72.2369C150.206 72.4034 150.073 72.5367 149.973 72.7032C151.372 73.7024 152.604 75.1345 154.169 75.6341C156.7 76.4668 159.465 76.6 162.096 77.1662C164.261 77.6325 164.394 77.6658 165.36 75.5675C163.528 75.4676 163.129 74.9347 163.562 73.2028Z" fill="white"/>
<path d="M153.57 83.228C156.535 83.5611 159.232 83.8608 162.097 84.1939C162.23 82.6618 162.297 81.5627 162.396 80.3637C159.932 79.7309 157.667 79.1314 155.336 78.4985C154.769 80.0306 154.236 81.4295 153.57 83.228Z" fill="white"/>
<path d="M66.9402 127.925C67.2733 126.626 67.3732 125.294 67.573 123.828C65.3748 124.194 63.543 124.528 61.6445 124.827C62.1108 126.659 63.1766 127.825 64.6754 128.624C65.608 129.157 66.6071 129.19 66.9402 127.925Z" fill="white"/>
<path d="M5.48932 75.0014C8.35364 85.9924 11.5843 96.8835 15.1481 107.675C16.447 111.671 17.8792 115.735 20.6769 118.866C21.2098 119.465 21.8093 120.031 22.542 120.298C23.2748 120.564 24.0408 120.498 24.8068 120.464C30.7353 120.098 36.6638 119.698 42.5923 119.332C39.5947 118 36.6305 116.201 33.6996 113.936C29.5363 110.706 26.5054 106.542 24.6736 101.613C23.2748 97.8494 22.209 93.9526 21.0766 90.0891C20.3771 87.6244 20.0108 87.358 17.5128 86.925C16.5469 86.7585 15.5144 86.1922 14.815 85.5261C13.6826 84.3937 14.0157 83.3945 15.4478 82.6618C15.8475 82.462 16.2472 82.2954 16.6469 82.0623C18.7784 80.9632 19.278 79.8641 18.8784 77.4661C18.2122 73.4693 17.5461 69.5059 17.0465 65.5092C16.9466 64.8097 17.4462 63.8106 18.0124 63.311C25.7394 56.1502 33.2999 48.8561 40.2275 40.9626C40.8937 40.9959 41.5598 41.0292 42.2259 41.0625C35.3982 48.7562 28.0042 55.917 20.4437 62.9113C19.9108 63.4109 19.4113 64.4101 19.4779 65.1095C19.9775 69.1062 20.6436 73.103 21.3097 77.0664C21.7094 79.4644 21.2431 80.5635 19.0782 81.6626C18.6785 81.8625 18.2788 82.0623 17.8792 82.2621C16.447 82.9949 16.114 83.994 17.2464 85.1264C17.9458 85.8259 18.9783 86.3588 19.9442 86.5253C22.4421 86.9583 22.8085 87.258 23.5079 89.6894C24.6403 93.5529 25.7061 97.4497 27.105 101.213C28.9368 106.143 31.9676 110.306 36.1309 113.537C48.8205 123.428 62.4094 124.294 76.5978 117.2C83.9917 113.503 88.8211 107.641 90.6529 99.4814C91.8187 94.3522 91.852 89.1565 91.7187 83.9274C91.6188 79.964 91.6188 79.964 95.2492 78.3653C95.449 78.2654 95.6489 78.1655 95.8487 78.0656C97.9137 76.7666 98.0136 74.635 96.0818 73.1696C95.7155 72.9031 95.3491 72.6367 94.9494 72.4701C92.5181 71.5043 91.8186 69.5059 91.752 67.1412C91.7187 66.142 91.752 65.1428 91.752 64.1436C91.7187 64.1436 91.7187 64.1436 91.6854 64.1436C91.6854 63.0778 91.7853 62.012 91.6521 60.9796C91.5522 60.38 91.2191 59.6473 90.7196 59.3143C82.7594 53.6189 75.3655 47.3241 68.8708 40.0633C69.8033 39.9301 70.7026 39.7969 71.6352 39.6304C78.1632 46.991 85.6237 53.3525 93.6505 59.0811C94.1168 59.4142 94.4831 60.1469 94.5831 60.7464C94.7163 61.7789 94.6164 62.8447 94.6164 63.9105C94.6497 63.9105 94.6497 63.9105 94.683 63.9105C94.683 64.9097 94.6497 65.9088 94.683 66.908C94.7496 69.2728 95.449 71.2711 97.8804 72.237C98.28 72.4035 98.6464 72.67 99.0128 72.9364C100.945 74.4019 100.845 76.5335 98.7796 77.8324C98.5798 77.9656 98.38 78.0323 98.1801 78.1322C94.5498 79.7309 94.5498 79.7309 94.6497 83.6943C94.8162 88.9233 94.7496 94.1191 93.5839 99.2482C91.7853 107.175 87.1558 112.97 80.1282 116.667C85.757 116.301 91.3857 115.935 97.0144 115.602C98.1135 115.535 99.3125 115.435 100.178 114.702C100.911 114.069 101.244 113.07 101.511 112.138C102.71 108.108 103.909 104.044 105.108 100.014C106.34 95.8177 107.606 91.5878 108.205 87.258C108.938 81.8625 108.638 76.4003 109.105 71.0047C109.171 70.2386 109.271 69.4393 109.771 68.8731C110.603 67.8739 112.269 67.9738 113.135 66.9746C113.867 66.142 113.701 64.8097 113.101 63.8772C112.502 62.9446 111.569 62.2785 110.736 61.5791C108.672 59.8138 107.106 57.6156 105.541 55.4174C101.611 49.9219 97.6805 44.3931 93.7504 38.8976C93.2841 38.2648 92.8178 37.5987 92.1517 37.1657C91.6188 36.8326 90.986 36.6661 90.3865 36.4996C89.4206 36.2664 88.4547 36.0666 87.4556 35.8668C89.6871 35.134 91.8853 34.3014 94.1168 33.4021C84.2582 24.7092 78.4629 13.6183 75.2322 0.928711C68.9707 3.52658 62.8424 5.59156 56.2145 6.12446C49.5533 6.65735 43.1585 6.09115 36.8969 2.46079C30.3689 14.3177 23.9076 26.1081 17.4462 37.9318C17.646 38.1316 17.8126 38.3314 18.0124 38.5313C18.6785 38.6312 19.3446 38.7311 20.0108 38.7977C19.3113 39.8302 18.8117 41.1957 18.0457 42.861C16.1806 46.991 13.8491 50.9211 11.118 54.5515C7.65421 59.1477 3.45765 63.3776 1.42598 68.7399C0.793161 70.3719 0.426795 72.2703 1.19283 73.8357C1.89226 75.4344 4.25699 76.267 5.48932 75.0014ZM43.2917 62.6782C43.1252 62.445 43.4915 61.5124 43.8246 61.3792C45.3234 60.7464 46.9221 60.2468 48.7206 59.614C49.1203 60.047 49.7531 60.4133 49.7864 60.8463C49.8197 61.2793 49.3867 62.0453 48.9537 62.2119C47.5882 62.7448 46.1227 63.1778 44.6906 63.4775C44.2576 63.5441 43.5582 63.0778 43.2917 62.6782ZM48.0878 74.635C46.6889 74.6684 45.4899 73.5692 45.4566 72.2037C45.4233 70.8715 46.589 69.6391 47.9546 69.6058C49.3201 69.5725 50.4858 70.7049 50.5191 72.1038C50.5524 73.5359 49.5199 74.6017 48.0878 74.635ZM61.7433 97.0167C60.7441 98.4489 59.6117 99.7478 57.58 99.5813C55.2819 99.3815 53.7498 97.9826 52.5508 96.1841C52.351 95.8843 52.5175 95.0184 52.8172 94.7519C53.117 94.5188 53.883 94.5521 54.2827 94.7852C54.9821 95.2182 55.4817 95.9176 56.1479 96.4172C57.3136 97.3498 58.3794 97.2166 59.2453 95.9509C59.3785 95.7844 59.5118 95.5846 59.645 95.418C60.1779 94.6187 60.6109 93.3864 61.8765 94.1524C63.242 95.0184 62.3428 96.1175 61.7433 97.0167ZM58.3794 86.5253C58.9789 87.1914 59.5118 87.8909 58.6125 88.6236C57.6799 89.3896 56.9139 88.8234 56.381 88.0241C55.8481 87.2247 55.4484 86.3255 54.9488 85.4262C55.3818 84.3271 55.615 83.2613 56.1812 82.462C56.814 81.5627 57.8465 81.5627 58.6458 82.3287C59.4452 83.0615 59.2453 83.7276 58.3127 84.3271C57.2136 85.0598 57.7799 85.8592 58.3794 86.5253ZM65.4069 70.7715C64.1746 70.7049 63.1088 69.6391 63.1088 68.4068C63.0755 67.0413 64.3745 65.7756 65.7733 65.8089C67.1722 65.8089 68.1047 66.8081 68.1047 68.2403C68.1047 69.6391 66.8058 70.8382 65.4069 70.7715ZM69.9699 58.3484C69.6035 58.7813 69.3037 59.4142 68.8375 59.5807C68.0048 59.8804 67.1056 59.8805 66.2396 60.0137C66.2396 59.9804 66.2396 59.9471 66.2396 59.9138C65.8066 59.9138 65.2737 60.0803 64.9407 59.8805C64.4744 59.614 64.0081 59.1144 63.9082 58.6148C63.8416 58.3484 64.541 57.7156 64.974 57.6156C66.173 57.3825 67.4053 57.216 68.6043 57.2493C69.0373 57.2826 69.5036 57.9487 69.9699 58.3484ZM47.6215 21.4786C49.5199 21.2787 51.4517 21.1455 53.2835 20.979C53.4501 18.7142 53.6499 16.6159 53.7498 14.5509C53.7831 13.5184 54.2161 13.0854 55.2486 12.9522C59.1121 12.5525 59.0122 13.1853 59.0788 15.9497C59.1121 17.4152 59.1787 18.8807 59.2453 20.5127C60.7774 20.3795 62.2096 20.2462 63.675 20.1463C64.5077 20.0797 65.3403 20.0131 66.173 20.0131C67.4386 20.0131 68.0048 20.5793 68.0381 21.8782C68.0381 22.5443 68.0048 23.2105 67.9715 23.8766C67.9049 25.5752 67.7051 25.8083 66.0398 25.9416C63.9748 26.1081 61.8765 26.3412 59.9114 26.5411C59.7782 28.4062 59.5118 30.2047 59.5451 32.0033C59.5784 35.234 58.1462 35.6336 55.3152 34.7344C54.4492 34.4679 53.883 33.9017 53.8497 32.9025C53.7831 30.9708 53.6499 29.0723 53.55 27.0407C51.5516 27.2072 49.5866 27.3071 47.6548 27.507C45.3567 27.7401 44.9237 27.407 44.6906 25.1089C44.4241 22.1114 44.6573 21.7783 47.6215 21.4786Z" fill="white"/>
<path d="M130.485 136.751C129.452 135.852 128.753 134.919 127.887 133.92C126.921 134.653 126.288 136.118 125.355 137.017C126.821 138.616 127.953 140.548 128.553 142.613C128.753 143.279 128.919 143.978 129.385 144.511C130.585 142.979 131.85 141.48 133.182 140.082C132.483 138.816 131.55 137.684 130.485 136.751Z" fill="white"/>
<path d="M48.6203 317.836C47.7877 317.403 46.8551 317.336 45.9226 317.303C44.7235 317.237 43.4912 317.17 42.2922 317.17C45.423 304.514 47.1549 291.624 47.8876 278.535C42.3255 278.102 36.8966 277.636 31.168 277.203C31.5676 291.058 31.9007 304.813 34.7317 318.336C33.7658 319.934 36.397 323.698 37.3962 324.597C38.462 325.563 39.7276 326.329 41.1265 326.662C42.2256 326.929 43.358 326.929 44.4571 326.929C45.756 326.929 47.055 326.895 48.2873 326.462C49.5196 326.029 50.652 325.13 50.9851 323.898C51.1849 323.165 51.1183 322.366 50.9851 321.6C50.652 320.068 49.9526 318.535 48.6203 317.836Z" fill="white"/>
<path d="M101.343 314.305C100.51 313.872 99.5775 313.806 98.6449 313.773C97.9122 313.739 97.1794 313.706 96.4134 313.673C97.4459 301.383 98.4451 289.259 99.4442 277.103C94.1819 277.869 89.2193 278.601 84.1568 279.334C83.7238 291.358 85.2226 303.214 87.3541 314.938C86.6547 316.604 89.1527 320.167 90.0852 321.033C91.151 321.999 92.4167 322.765 93.8155 323.098C94.9146 323.365 96.047 323.365 97.1461 323.365C98.4451 323.365 99.744 323.331 100.976 322.898C102.209 322.465 103.341 321.566 103.674 320.334C103.874 319.601 103.807 318.802 103.674 318.036C103.374 316.537 102.675 315.005 101.343 314.305Z" fill="white"/>
</g>
<g filter="url(#filter0_f_105_1273)">
<path fill-rule="evenodd" clip-rule="evenodd" d="M87.7318 130.908C88.0477 130.868 88.3491 130.789 88.6319 130.677L77.4076 158.956C76.8164 158.091 75.8717 157.502 74.8086 157.373L85.4828 130.479C86.1445 130.845 86.9243 131.011 87.7318 130.908ZM72.6564 157.761L46.4462 134.523C46.3047 135.583 45.7069 136.521 44.8348 137.103L70.785 160.111C71.0467 159.102 71.7289 158.243 72.6564 157.761ZM73.6964 164.667L82.3082 220.089L85.2727 219.628L76.6212 163.952C76.1168 164.344 75.5039 164.61 74.8242 164.697C74.4387 164.746 74.0594 164.733 73.6964 164.667ZM86.665 123.607L78.5294 115.508L76.4129 117.634L84.1247 125.311C84.6678 124.431 85.5743 123.786 86.665 123.607ZM42.1833 130.392L46.4244 119.788L49.2098 120.902L45.1065 131.161C44.352 130.552 43.36 130.239 42.322 130.371C42.2754 130.377 42.2292 130.384 42.1833 130.392Z" fill="white"/>
<circle cx="42.7706" cy="134.232" r="2.2156" transform="rotate(-7.25406 42.7706 134.232)" fill="white"/>
<circle cx="87.8683" cy="126.807" r="2.2156" transform="rotate(-7.25406 87.8683 126.807)" fill="white"/>
<circle cx="74.2511" cy="160.671" r="2.2156" transform="rotate(-7.25406 74.2511 160.671)" fill="white"/>
<path d="M90.1205 208.361L88.7806 218.301L97.8194 222.646L87.9525 224.444L86.6127 234.383L81.8545 225.554L71.9877 227.351L78.9138 220.098L74.1556 211.269L83.1944 215.615L90.1205 208.361Z" fill="white"/>
<path d="M80.5213 110.522L79.872 115.339L84.2524 117.445L79.4707 118.316L78.8214 123.133L76.5154 118.854L71.7337 119.725L75.0903 116.21L72.7843 111.931L77.1647 114.037L80.5213 110.522Z" fill="white"/>
<path d="M83.2294 155.27L78.2391 161.017L82.1634 167.539L75.155 164.569L70.1646 170.317L70.8235 162.734L63.815 159.764L71.2307 158.047L71.8895 150.464L75.8138 156.986L83.2294 155.27Z" fill="white"/>
<path d="M50.994 114.281L50.3447 119.098L54.7251 121.204L49.9434 122.075L49.294 126.892L46.9881 122.613L42.2063 123.484L45.5629 119.969L43.257 115.69L47.6374 117.796L50.994 114.281Z" fill="white"/>
</g>
<path fill-rule="evenodd" clip-rule="evenodd" d="M87.7318 130.908C88.0477 130.868 88.3491 130.789 88.6319 130.677L77.4076 158.956C76.8164 158.091 75.8717 157.502 74.8086 157.373L85.4828 130.479C86.1445 130.845 86.9243 131.011 87.7318 130.908ZM72.6564 157.761L46.4462 134.523C46.3047 135.583 45.7069 136.521 44.8348 137.103L70.785 160.111C71.0467 159.102 71.7289 158.243 72.6564 157.761ZM73.6964 164.667L82.3082 220.089L85.2727 219.628L76.6212 163.952C76.1168 164.344 75.5039 164.61 74.8242 164.697C74.4387 164.746 74.0594 164.733 73.6964 164.667ZM86.665 123.607L78.5294 115.508L76.4129 117.634L84.1247 125.311C84.6678 124.431 85.5743 123.786 86.665 123.607ZM42.1833 130.392L46.4244 119.788L49.2098 120.902L45.1065 131.161C44.352 130.552 43.36 130.239 42.322 130.371C42.2754 130.377 42.2292 130.384 42.1833 130.392Z" fill="white"/>
<circle cx="42.7706" cy="134.232" r="2.2156" transform="rotate(-7.25406 42.7706 134.232)" fill="white"/>
<circle cx="87.8683" cy="126.807" r="2.2156" transform="rotate(-7.25406 87.8683 126.807)" fill="white"/>
<circle cx="74.2511" cy="160.671" r="2.2156" transform="rotate(-7.25406 74.2511 160.671)" fill="white"/>
<path d="M90.1205 208.361L88.7806 218.301L97.8194 222.646L87.9525 224.444L86.6127 234.383L81.8545 225.554L71.9877 227.351L78.9138 220.098L74.1556 211.269L83.1944 215.615L90.1205 208.361Z" fill="white"/>
<path d="M80.5213 110.522L79.872 115.339L84.2524 117.445L79.4707 118.316L78.8214 123.133L76.5154 118.854L71.7337 119.725L75.0903 116.21L72.7843 111.931L77.1647 114.037L80.5213 110.522Z" fill="white"/>
<path d="M83.2294 155.27L78.2391 161.017L82.1634 167.539L75.155 164.569L70.1646 170.317L70.8235 162.734L63.815 159.764L71.2307 158.047L71.8895 150.464L75.8138 156.986L83.2294 155.27Z" fill="white"/>
<path d="M50.994 114.281L50.3447 119.098L54.7251 121.204L49.9434 122.075L49.294 126.892L46.9881 122.613L42.2063 123.484L45.5629 119.969L43.257 115.69L47.6374 117.796L50.994 114.281Z" fill="white"/>
<defs>
<filter id="filter0_f_105_1273" x="30.5547" y="100.522" width="77.2656" height="143.861" filterUnits="userSpaceOnUse" color-interpolation-filters="sRGB">
<feFlood flood-opacity="0" result="BackgroundImageFix"/>
<feBlend mode="normal" in="SourceGraphic" in2="BackgroundImageFix" result="shape"/>
<feGaussianBlur stdDeviation="5" result="effect1_foregroundBlur_105_1273"/>
</filter>
</defs>
</svg>
