<svg width="403" height="137" viewBox="0 0 403 137" fill="none" xmlns="http://www.w3.org/2000/svg">
<g opacity="0.2">
<path d="M59.8622 84.6964C60.0432 85.2845 60.767 85.6916 61.9657 85.9404C68.4798 86.9356 73.2748 87.2975 77.1426 86.0082C81.3948 84.5833 84.109 81.1227 85.7375 75.1289L87.7053 75.6039C87.1398 78.2276 87.7505 80.3763 89.4921 81.8465C91.7766 83.7916 95.7121 84.2666 99.1275 83C100.462 81.7786 101.548 80.2858 102.701 78.6799C104.737 75.8753 106.84 72.9801 110.414 71.5326C113.173 69.8362 116.589 70.0398 119.326 72.098L119.371 72.1433C135.543 85.6011 157.008 91.7985 179.92 89.6045C181.322 84.8321 180.44 80.8965 177.228 77.2324C145.653 57.9616 119.258 43.2146 110.414 43.8931C108.175 44.0514 85.647 61.1734 61.5134 80.4894C60.292 82.1858 59.5682 83.7238 59.8622 84.6964Z" fill="white"/>
<path d="M181.369 81.7558C182.817 84.8318 183.111 88.4281 181.663 92.8387L181.46 93.472L180.804 93.5399C177.479 93.8791 174.199 94.0374 170.942 94.0374C150.97 94.0374 132.491 87.6817 118.083 75.6941C115.98 74.1334 113.492 73.9977 111.411 75.2869L111.343 75.3322L111.253 75.3774C108.177 76.5988 106.322 79.1547 104.354 81.8689C103.155 83.52 101.911 85.239 100.351 86.6187L100.215 86.7318L100.034 86.7996C95.8722 88.4281 91.0998 87.8627 88.182 85.3747C87.1868 84.5378 86.463 83.4974 86.0107 82.3438C84.1333 86.2342 81.4644 88.6996 77.8002 89.9209C73.5254 91.3459 68.4589 90.984 61.6282 89.9436H61.583C59.57 89.559 58.3486 88.6769 57.8962 87.3198C57.7153 86.7318 57.6926 86.0985 57.8284 85.4199C28.4473 109.079 -1.88374 134.886 0.242377 136.424L267.16 135.09C240.493 119.008 209.167 98.8551 181.369 81.7558Z" fill="white"/>
</g>
<g opacity="0.2">
<path d="M327.04 52.7376C327.311 52.4888 326.61 51.8103 325.095 50.8377C323.602 52.6019 321.521 54.2983 318.875 55.8816L318.626 56.0399H318.332C312.632 55.8363 308.606 55.9494 307.543 57.1482C306.865 57.9172 307.113 59.5683 307.475 62.0564C307.928 65.0193 308.538 69.0906 307.995 74.5868L307.973 74.7226L307.928 74.8583C307.362 76.3285 306.39 77.2558 305.1 77.6177C304.671 77.7308 304.218 77.7986 303.766 77.7986C300.079 77.7986 295.171 74.225 291.484 71.5334C290.444 70.7644 289.539 70.1084 288.838 69.6561L288.77 69.6108C282.03 64.386 274.521 59.885 267.26 55.5423C259.502 50.8829 251.473 46.0653 244.37 40.3655C234.17 45.9748 222.363 51.1091 212.66 54.14C200.242 58.0303 192.552 58.1886 189.838 54.6376C188.187 52.4888 188.481 49.2318 190.743 44.8213C178.732 54.2983 169.776 62.4182 171.766 63.3004L276.42 128.735L402.155 127.4C377.501 103.719 348.64 67.7109 327.04 52.7376Z" fill="white"/>
<path d="M316.524 50.1141C318.673 48.8022 320.392 47.4225 321.636 45.9975C306.233 36.905 247.426 10.5096 239.419 10.0346C235.506 9.80839 214.064 24.4424 196.716 37.8097C191.762 45.0928 192.056 48.2141 193.074 49.5486C195.087 52.1723 202.416 51.7426 213.159 48.3725C222.681 45.3868 234.307 40.3204 244.282 34.7789L244.87 34.4622L245.39 34.892C252.334 40.5465 260.296 45.319 267.986 49.9331C275.088 54.208 282.461 58.6185 289.111 63.7528C289.835 64.2052 290.717 64.8611 291.758 65.6302C295.06 68.0277 300.556 72.0537 303.315 71.2621C303.723 71.149 304.288 70.8776 304.74 69.8598C305.215 64.8159 304.65 61.0387 304.22 58.2792C303.79 55.3841 303.474 53.3032 304.763 51.8783C306.143 50.295 309.015 49.8653 316.524 50.1141Z" fill="white"/>
</g>
<g filter="url(#filter0_f_92_9686)">
<path fill-rule="evenodd" clip-rule="evenodd" d="M235.6 24.56L234.858 24.3677L234.267 24.8563L173.47 75.1606C174.174 75.9091 174.664 76.8613 174.842 77.9194L235.589 27.6563L271.951 37.0798L272.703 34.1757L235.6 24.56ZM164.265 78.8418C164.265 78.8308 164.265 78.8197 164.265 78.8086C164.265 77.7068 164.6 76.6831 165.173 75.8336L115.406 42.15L114.63 41.6245L113.817 42.092C105.663 46.7835 93.279 54.3144 82.9466 60.6642C77.7777 63.8408 73.1174 66.7248 69.7494 68.8145C68.0654 69.8594 66.7043 70.7058 65.7642 71.2911C65.2941 71.5837 64.9292 71.8111 64.6818 71.9653L64.4004 72.1408L64.3286 72.1856L64.3104 72.1969L64.3059 72.1998L64.3047 72.2005C64.3044 72.2006 64.3043 72.2007 65.0985 73.4732C65.8928 74.7457 65.8929 74.7456 65.8931 74.7455L65.8942 74.7448L65.8987 74.742L65.9167 74.7307L65.9881 74.6862L66.2689 74.5111C66.5158 74.3572 66.8801 74.1302 67.3496 73.8379C68.2886 73.2534 69.6484 72.4077 71.3311 71.3637C74.6965 69.2755 79.353 66.3939 84.5174 63.2201C94.5129 57.0773 106.393 49.8507 114.502 45.1605L164.265 78.8418Z" fill="white"/>
<circle cx="169.408" cy="79.137" r="3.76783" fill="white"/>
<circle cx="276.377" cy="36.9269" r="2.37661" fill="white"/>
<circle cx="62.1735" cy="76.7602" r="2.37661" fill="white"/>
<path d="M114.223 31.6873L116.846 39.7607H125.335L118.467 44.7503L121.091 52.8237L114.223 47.8341L107.355 52.8237L109.979 44.7503L103.111 39.7607H111.6L114.223 31.6873Z" fill="white"/>
<path d="M227.619 10.9405L235.44 20.6596L247.1 16.225L240.273 26.6664L248.094 36.3855L236.054 33.1195L229.228 43.5608L228.613 31.101L216.573 27.835L228.234 23.4003L227.619 10.9405Z" fill="white"/>
</g>
<path fill-rule="evenodd" clip-rule="evenodd" d="M235.6 24.56L234.858 24.3677L234.267 24.8563L173.47 75.1606C174.174 75.9091 174.664 76.8613 174.842 77.9194L235.589 27.6563L271.951 37.0798L272.703 34.1757L235.6 24.56ZM164.265 78.8418C164.265 78.8308 164.265 78.8197 164.265 78.8086C164.265 77.7068 164.6 76.6831 165.173 75.8336L115.406 42.15L114.63 41.6245L113.817 42.092C105.663 46.7835 93.279 54.3144 82.9466 60.6642C77.7777 63.8408 73.1174 66.7248 69.7494 68.8145C68.0654 69.8594 66.7043 70.7058 65.7642 71.2911C65.2941 71.5837 64.9292 71.8111 64.6818 71.9653L64.4004 72.1408L64.3286 72.1856L64.3104 72.1969L64.3059 72.1998L64.3047 72.2005C64.3044 72.2006 64.3043 72.2007 65.0985 73.4732C65.8928 74.7457 65.8929 74.7456 65.8931 74.7455L65.8942 74.7448L65.8987 74.742L65.9167 74.7307L65.9881 74.6862L66.2689 74.5111C66.5158 74.3572 66.8801 74.1302 67.3496 73.8379C68.2886 73.2534 69.6484 72.4077 71.3311 71.3637C74.6965 69.2755 79.353 66.3939 84.5174 63.2201C94.5129 57.0773 106.393 49.8507 114.502 45.1605L164.265 78.8418Z" fill="white"/>
<circle cx="169.408" cy="79.137" r="3.76783" fill="white"/>
<circle cx="276.377" cy="36.9269" r="2.37661" fill="white"/>
<circle cx="62.1735" cy="76.7602" r="2.37661" fill="white"/>
<path d="M114.223 31.6873L116.846 39.7607H125.335L118.467 44.7503L121.091 52.8237L114.223 47.8341L107.355 52.8237L109.979 44.7503L103.111 39.7607H111.6L114.223 31.6873Z" fill="white"/>
<path d="M227.619 10.9405L235.44 20.6596L247.1 16.225L240.273 26.6664L248.094 36.3855L236.054 33.1195L229.228 43.5608L228.613 31.101L216.573 27.835L228.234 23.4003L227.619 10.9405Z" fill="white"/>
<defs>
<filter id="filter0_f_92_9686" x="49.7969" y="0.94043" width="238.957" height="91.9644" filterUnits="userSpaceOnUse" color-interpolation-filters="sRGB">
<feFlood flood-opacity="0" result="BackgroundImageFix"/>
<feBlend mode="normal" in="SourceGraphic" in2="BackgroundImageFix" result="shape"/>
<feGaussianBlur stdDeviation="5" result="effect1_foregroundBlur_92_9686"/>
</filter>
</defs>
</svg>
