<svg width="314" height="262" viewBox="0 0 314 262" fill="none" xmlns="http://www.w3.org/2000/svg">
<g opacity="0.2">
<path d="M312.627 175.616C311.748 174.371 311.052 173.016 310.283 171.698C309.697 170.636 309.111 170.416 308.012 171.222C305.156 173.309 302.336 175.47 299.223 177.155C294.792 179.608 290.141 181.586 285.637 183.93C284.611 184.479 282.377 185.211 282.377 185.211L279.631 186.164C279.045 184.918 278.678 183.6 278.202 182.318C277.323 180.011 276.444 177.741 275.529 175.36C276.921 174.628 278.276 173.822 279.631 173.016C288.31 167.633 293.144 159.796 293.95 149.615C294.719 140.167 292.448 131.084 289.518 122.332C286.186 112.407 281.828 102.812 277.799 93.1075C274.43 84.9775 271.024 76.8841 269.267 68.2047C266.557 54.7279 265.934 40.9947 264.652 27.3348C264.396 24.5149 264.139 21.695 263.847 18.5455C262.675 19.0216 261.869 19.278 261.137 19.6808C251.944 24.6614 242.093 27.4446 231.729 28.5433C231.107 28.6165 230.264 29.0194 229.935 29.5321C225.577 36.4902 221.145 43.4484 217.007 50.553C213.968 55.7899 213.455 61.5762 214.114 67.5455C214.773 67.692 215.323 67.7652 215.835 67.9117C217.85 68.6075 219.644 69.6329 220.413 71.7936C221.402 74.6501 219.754 78.1658 216.861 79.5941C214.407 80.8026 211.441 79.9969 209.903 77.7264C207.779 74.6501 207.852 70.8048 210.232 68.9005C211.111 68.2047 211.258 67.6188 211.184 66.63C210.598 59.8183 211.844 53.3729 215.359 47.4768C218.692 41.8736 222.171 36.3437 225.613 30.8138C225.906 30.3377 226.236 29.825 226.566 29.2757C221.988 29.0926 195.913 32.3886 193.752 33.3774C195.034 39.7862 196.389 46.1217 197.634 52.5306C198.184 55.2772 198.367 58.0971 199.026 60.7705C199.832 64.1031 199.539 67.7286 201.663 70.695C201.846 70.988 201.773 71.5007 201.736 71.9035C201.699 72.7824 201.48 73.6613 201.553 74.5403C201.846 77.0306 202.285 79.4842 202.615 81.9745C202.871 83.9887 203.091 86.0395 203.347 88.4199C205.984 87.6143 208.328 86.8086 210.745 86.186C211.441 86.0029 212.246 86.3325 212.979 86.4424C212.686 87.1748 212.576 88.0537 212.1 88.5664C211.587 89.0791 210.745 89.3721 209.976 89.5918C207.815 90.1778 205.618 90.6539 203.567 91.13C202.761 95.7077 202.029 100.139 201.223 104.863C202.615 104.717 203.97 104.753 205.178 104.387C208.914 103.252 212.686 102.226 215.835 99.6995C216.238 99.3699 217.41 99.3699 217.593 99.6262C217.923 100.102 218.069 101.164 217.74 101.531C216.971 102.446 216.018 103.325 214.92 103.764C211.66 105.119 208.364 106.401 204.959 107.39C203.53 107.829 201.846 107.463 200.051 107.463C198.55 110.832 196.829 114.605 194.998 118.633C200.527 119.878 205.801 119.878 211.038 118.23C211.697 118.01 212.1 117.241 212.759 116.912C213.418 116.582 214.224 116.509 214.956 116.326C214.956 117.095 215.323 118.267 214.92 118.56C213.601 119.658 212.137 121.087 210.598 121.306C206.387 121.856 201.992 122.625 197.927 121.856C193.899 121.087 191.811 122.149 190.017 125.408C189.101 127.056 187.783 128.484 186.538 130.169C187.16 130.315 187.453 130.315 187.746 130.462C193.093 132.879 198.55 134.124 204.373 132.366C204.849 132.22 205.947 132.659 205.984 132.952C206.094 133.538 205.801 134.637 205.435 134.783C203.86 135.369 202.139 136.102 200.564 135.992C196.829 135.735 193.057 135.113 189.394 134.38C187.966 134.087 186.648 133.062 185.036 132.256C182.253 135.918 179.214 139.91 176.174 143.902C179.323 146.026 185.293 146.758 188.918 145.696C189.541 145.513 190.383 146.026 191.116 146.209C190.749 146.905 190.566 147.967 190.017 148.187C188.699 148.736 187.16 149.285 185.805 149.102C182.326 148.626 178.884 147.821 175.478 146.978C174.379 146.722 173.72 146.649 172.988 147.601C171.706 149.322 170.278 150.897 168.923 152.545C167.824 153.9 166.762 155.255 165.444 156.939C170.9 158.477 175.771 160.382 181.118 160.418C181.74 160.418 182.4 161.004 183.022 161.334C182.583 161.957 182.217 162.835 181.631 163.128C180.935 163.458 179.909 163.421 179.14 163.238C174.563 162.176 170.021 161.114 165.48 159.832C164.199 159.466 163.466 159.503 162.587 160.638C160.024 163.971 157.277 167.157 154.604 170.416C154.018 171.112 153.432 171.771 152.699 172.65C153.651 173.309 154.384 174.005 155.263 174.298C159.694 175.8 164.162 177.008 168.85 175.47C169.362 175.324 170.095 175.836 170.717 176.056C170.424 176.715 170.314 177.667 169.838 177.96C168.996 178.473 167.897 178.766 166.909 178.839C161.049 179.315 155.556 178.217 150.209 174.774C149.147 176.166 148.048 177.521 146.95 178.912C146.767 178.912 146.583 178.912 146.364 178.986C145.814 179.096 142.518 179.572 141.933 179.645C123.255 181.842 104.578 184.076 85.718 184.845C85.1321 184.882 84.4729 185.138 83.9602 185.431C82.2023 186.347 81.0304 185.687 81.0304 183.673C81.0671 179.242 81.1037 174.774 81.2135 170.343C81.3967 170.306 81.5798 170.27 81.7995 170.233C92.786 168.146 103.663 165.509 114.832 164.96C125.526 164.41 136.256 164.19 146.986 163.934C148.524 163.897 149.66 163.531 150.575 162.25C152.882 159.1 155.153 155.951 157.607 152.911C160.427 149.395 163.393 145.989 166.249 142.51C166.909 141.705 167.238 140.569 167.934 139.764C168.776 138.775 169.948 138.042 170.754 137.017C175.112 131.341 179.433 125.664 183.681 119.951C189.87 111.638 193.935 102.373 195.29 92.0455C196.279 84.4282 194.705 76.9939 193.459 69.5231C193.423 69.2301 193.276 68.9371 193.057 68.6808C191.921 62.4917 190.31 53.1898 189.504 49.0881C188.406 43.4117 187.49 37.6987 186.172 32.059C185.329 28.47 186.318 27.5179 189.724 27.0052C196.755 25.9431 203.897 25.2473 211.001 24.6614C213.199 24.4783 214.261 23.636 214.773 21.5851C215.432 18.985 216.275 16.4215 217.08 13.6748C216.495 13.565 216.311 13.4917 216.165 13.4917C215.506 13.4917 214.81 13.4551 214.151 13.5283C207.595 14.334 194.045 12.5395 185.879 11.2212C179.287 9.35345 172.731 7.48573 166.103 5.69127C165.444 5.50816 164.382 5.76451 163.869 6.20397C158.705 10.7451 154.897 16.3482 152.26 22.6472C150.172 27.6277 149.11 32.9013 148.927 38.3213C148.891 39.896 149.294 40.6651 150.941 41.1046C153.542 41.837 154.933 43.8512 155.116 46.5246C155.263 48.7585 154.384 50.5896 152.406 51.7249C149.806 53.2264 146.84 52.3475 144.569 49.5276C142.702 47.1838 142.555 43.4117 144.716 41.5074C146.107 40.2989 146.144 39.0904 146.107 37.5889C146.107 36.8564 146.144 36.124 146.217 35.3916C147.389 24.0022 152.004 14.1875 159.95 5.98424C160.39 5.50816 160.829 5.03207 161.562 4.29964C156.435 2.98125 151.637 1.73611 146.657 0.454346C146.474 1.33327 146.364 1.91922 146.254 2.50517C145.668 5.94762 145.192 9.39007 144.496 12.7593C143.178 19.2413 141.713 25.7234 140.358 32.2421C139.918 34.2563 138.71 36.8198 139.479 38.2481C140.98 41.1046 137.391 41.7637 137.904 43.8512C137.977 44.1075 137.794 44.4371 137.721 44.7301C137.062 47.1472 136.439 49.5642 135.78 51.9812C135.487 53.0066 135.231 54.0687 134.828 55.5336C137.611 55.7533 140.138 55.9364 142.665 56.2294C143.288 56.3026 143.837 56.8519 144.423 57.1449C144.02 57.7309 143.727 58.5365 143.141 58.8661C142.555 59.1957 141.713 59.2324 141.017 59.1591C139.076 58.9394 137.135 58.7197 135.231 58.2436C134.022 57.9506 133.546 58.3534 132.997 59.3422C131.422 62.1621 129.701 64.8721 128.016 67.6554C127.613 68.3146 127.137 68.9005 126.478 69.8161C127.906 70.2921 129.042 70.8781 130.177 70.988C134.132 71.3542 138.051 71.8669 142.006 70.7316C142.518 70.5851 143.251 71.0978 143.873 71.3176C143.58 71.9767 143.434 72.9289 142.958 73.2219C142.042 73.7346 140.907 74.0642 139.845 74.1008C136.732 74.1741 133.619 74.0642 130.543 73.9543C128.456 73.8811 126.405 73.5149 125.013 71.6105C121.937 74.5403 118.971 77.3602 115.858 80.3265C116.517 80.8392 116.993 81.3519 117.542 81.6083C120.802 82.9999 124.024 84.3915 127.32 85.6001C129.225 86.2593 131.239 86.4424 133.18 85.3803C133.619 85.1606 134.425 85.6733 135.048 85.8564C134.865 86.479 134.791 87.541 134.425 87.6875C132.887 88.2368 131.166 88.9326 129.591 88.8228C125.086 88.4932 120.655 87.1382 117.103 84.5014C113.807 82.0477 111.427 82.4506 108.57 84.7944C107.142 85.9663 105.421 86.7353 103.626 87.7974C104.871 89.0425 105.75 90.1778 106.849 90.9835C110.621 93.6935 114.32 96.55 119.3 96.6599C119.74 96.6599 120.509 97.4655 120.509 97.905C120.509 98.3811 119.85 99.1501 119.337 99.26C118.421 99.4431 117.359 99.4797 116.444 99.2234C110.474 97.4289 105.201 94.5358 101.319 89.2256C97.2539 91.6427 93.0058 94.1696 88.4647 96.8796C92.017 99.9192 95.1665 102.886 99.8541 103.142C100.477 103.179 101.063 103.984 101.685 104.46C101.063 104.936 100.477 105.815 99.8541 105.852C98.5357 105.889 97.0342 105.852 95.9355 105.229C92.8959 103.472 89.9295 101.567 87.1097 99.4431C85.9378 98.5642 85.1687 98.3811 83.9236 99.1135C81.2868 100.652 78.5768 102.043 75.9034 103.545C75.3541 103.838 74.8414 104.241 73.9624 104.827C78.2472 108.232 82.0925 111.675 86.8899 113.799C87.5125 114.092 87.9153 114.898 88.428 115.447C87.6956 115.813 86.8899 116.545 86.1941 116.436C85.1687 116.326 84.0701 115.776 83.1911 115.154C79.6022 112.59 76.0865 110.027 72.6074 107.317C71.582 106.511 70.9228 106.328 69.7509 107.024C65.9423 109.221 62.0603 111.272 58.1784 113.323C56.091 114.421 55.8713 115.3 57.7023 116.875C61.218 119.951 64.8802 122.735 69.8242 123.174C70.4101 123.211 70.9228 124.053 71.4721 124.492C70.8862 124.969 70.2636 125.884 69.6777 125.847C68.1396 125.774 66.4916 125.554 65.0633 124.932C60.3391 122.954 56.1276 120.244 53.1979 115.813C52.795 115.96 52.3556 116.033 51.9893 116.216C44.958 119.439 38.4759 123.577 32.7995 128.85C27.9288 133.355 24.0103 138.592 22.2524 145.074C19.2494 156.244 26.6104 170.087 40.7831 172.174C50.8907 173.676 60.8884 173.383 70.8496 172.101C70.9594 174.957 70.9961 177.814 70.9961 180.67C70.9594 184.699 70.8862 184.699 66.9677 184.589C66.8944 184.589 66.8212 184.589 66.7479 184.589C61.3279 184.882 55.9079 185.285 50.4512 185.468C43.0902 185.687 35.7293 185.907 28.3317 185.834C23.1314 185.761 18.517 183.93 15.1112 179.681C13.1702 177.264 12.9505 175.47 14.4154 172.76C15.2943 171.112 17.0521 169.354 16.869 167.853C16.6493 166.241 14.5619 164.886 13.4632 163.312C12.4378 161.847 11.5222 162.25 10.4968 163.202C5.11343 168.182 1.92733 174.408 0.389217 181.476C-0.709437 186.457 0.828679 190.485 5.11343 193.451C9.80102 196.711 15.0746 198.102 20.6777 198.505C34.5574 199.567 48.4737 199.054 62.2801 197.956C73.4863 197.077 84.5461 194.989 95.7524 194.184C109.815 193.158 123.915 192.572 138.014 191.913C135.194 197.15 133.326 202.717 132.814 208.869C131.862 221.211 141.2 231.977 153.542 232.563C159.987 232.856 165.956 230.659 171.779 228.315C176.76 226.338 181.631 224.067 186.318 221.54C187.527 224.104 188.699 226.704 189.834 229.341C191.152 232.417 191.116 232.454 188.039 233.589C187.93 233.625 187.82 233.699 187.71 233.735C184.011 235.603 180.312 237.507 176.577 239.265C170.498 242.122 164.455 244.978 158.266 247.578C154.201 249.3 149.953 249.446 145.888 247.322C143.434 246.04 142.702 244.795 142.958 242.012C143.104 240.474 143.983 238.533 143.361 237.507C142.628 236.299 140.541 235.969 139.149 235.127C137.831 234.321 137.172 234.724 136.622 235.969C134.059 241.755 133.656 247.725 134.865 253.877C135.743 258.272 138.453 260.762 142.848 261.604C147.353 262.447 151.784 261.897 155.995 260.396C170.9 255.049 185.219 248.311 198.77 240.181C212.43 231.977 226.382 224.323 240.811 217.585C250.846 212.897 260.807 207.917 270.585 202.68C281.388 196.857 291.386 189.679 302.519 184.479C305.778 182.977 308.781 180.963 311.894 179.169C313.323 178.217 313.652 177.118 312.627 175.616ZM270.622 192.279C270.438 192.536 269.45 192.536 269.157 192.279C268.278 191.437 267.655 191.95 266.923 192.426C265.641 193.232 264.323 194.037 263.004 194.77C251.285 201.288 239.603 207.88 227.811 214.289C219.571 218.794 211.184 223.005 202.871 227.4C202.359 227.656 201.882 228.059 201.516 228.498C200.418 229.817 199.282 229.78 198.66 228.205C197.122 224.47 195.62 220.735 194.082 216.999C196.316 215.607 198.513 214.179 200.674 212.678C204.043 210.334 207.376 207.99 210.855 205.866C223.636 198.029 237.222 191.877 251.029 186.164C256.119 184.076 261.246 182.099 266.3 179.865C266.996 181.183 267.765 182.465 268.424 183.82C269.413 185.98 270.365 188.141 271.134 190.375C271.354 190.888 270.988 191.73 270.622 192.279Z" fill="white"/>
<path d="M212.76 74.1375C212.284 73.5149 212.247 72.5994 211.881 71.3909C210.892 74.1009 211.844 76.5912 213.712 77.2137C215.36 77.7631 217.411 76.3348 217.887 74.3206C218.29 72.636 217.155 71.281 214.664 70.7317C214.957 71.6106 215.36 72.4163 215.397 73.222C215.433 73.8812 214.957 74.5404 214.738 75.1995C214.042 74.87 213.163 74.6868 212.76 74.1375Z" fill="white"/>
<path d="M149.953 48.0262C149.111 47.7332 148.196 47.2572 147.683 46.598C147.097 45.8289 146.914 44.7669 146.548 43.7048C145.449 45.9388 145.705 47.2571 147.793 48.6122C148.635 49.1615 150.136 49.5277 150.832 49.1249C151.565 48.6854 152.077 47.2205 152.077 46.2317C152.077 44.95 151.199 43.9612 149.477 43.7781C149.77 44.2542 149.953 44.5471 150.136 44.8767C150.503 45.6092 151.015 46.305 151.162 47.074C151.235 47.2938 150.246 48.1361 149.953 48.0262Z" fill="white"/>
</g>
<path fill-rule="evenodd" clip-rule="evenodd" d="M275.553 152.545C275.12 151.595 274.972 150.562 275.093 149.563L220.313 152.041L263.059 121.17L277.278 145.769C277.308 145.746 277.338 145.724 277.368 145.702C278.204 145.099 279.15 144.76 280.107 144.669L264.825 118.231L263.994 116.794L262.648 117.766L216.163 151.337L177.928 31.2039C177.634 31.6717 177.247 32.0919 176.772 32.4352C176.34 32.7473 175.87 32.9701 175.386 33.1071L213.932 154.221L214.281 155.316L215.429 155.264L275.553 152.545ZM170.595 31.4388C171.008 32.0113 171.533 32.4556 172.119 32.7635L83.7172 133.454L138.547 187.579L136.44 189.714L80.6028 134.595L79.5959 133.601L80.5294 132.538L170.088 30.5293C170.218 30.8448 170.386 31.1501 170.595 31.4388ZM175.878 24.7615C175.695 24.686 175.508 24.6228 175.318 24.5724L175.685 24.1546L175.878 24.7615Z" fill="white"/>
<circle cx="142.205" cy="192.165" r="3.74247" transform="rotate(144.164 142.205 192.165)" fill="white"/>
<circle cx="281.599" cy="150.969" r="3.5777" transform="rotate(144.164 281.599 150.969)" fill="white"/>
<circle cx="175.014" cy="25.194" r="4.22066" transform="rotate(144.164 175.014 25.194)" fill="white"/>
<path d="M227.254 165.33L217.933 158.517L208.573 165.276L212.172 154.306L202.85 147.493L214.396 147.526L217.995 136.556L221.532 147.546L233.077 147.579L223.717 154.339L227.254 165.33Z" fill="white"/>
<path d="M95.0677 148.865L83.3565 140.305L71.5965 148.798L76.1185 135.015L64.4072 126.455L78.9132 126.497L83.4352 112.713L87.8784 126.522L102.384 126.564L90.6245 135.056L95.0677 148.865Z" fill="white"/>
<path d="M268.507 130.138L261.839 125.265L255.144 130.1L257.718 122.253L251.05 117.379L259.309 117.403L261.884 109.555L264.414 117.417L272.673 117.441L265.977 122.276L268.507 130.138Z" fill="white"/>
<g filter="url(#filter0_f_92_13088)">
<path fill-rule="evenodd" clip-rule="evenodd" d="M275.553 152.545C275.12 151.595 274.972 150.562 275.093 149.563L220.313 152.041L263.059 121.17L277.278 145.769C277.308 145.746 277.338 145.724 277.368 145.702C278.204 145.099 279.15 144.76 280.107 144.669L264.825 118.231L263.994 116.794L262.648 117.766L216.163 151.337L177.928 31.2039C177.634 31.6717 177.247 32.0919 176.772 32.4352C176.34 32.7473 175.87 32.9701 175.386 33.1071L213.932 154.221L214.281 155.316L215.429 155.264L275.553 152.545ZM170.595 31.4388C171.008 32.0113 171.533 32.4556 172.119 32.7635L83.7172 133.454L138.547 187.579L136.44 189.714L80.6028 134.595L79.5959 133.601L80.5294 132.538L170.088 30.5293C170.218 30.8448 170.386 31.1501 170.595 31.4388ZM175.878 24.7615C175.695 24.686 175.508 24.6228 175.318 24.5724L175.685 24.1546L175.878 24.7615Z" fill="white"/>
<circle cx="142.205" cy="192.165" r="3.74247" transform="rotate(144.164 142.205 192.165)" fill="white"/>
<circle cx="281.599" cy="150.969" r="3.5777" transform="rotate(144.164 281.599 150.969)" fill="white"/>
<circle cx="175.014" cy="25.194" r="4.22066" transform="rotate(144.164 175.014 25.194)" fill="white"/>
<path d="M227.254 165.33L217.933 158.517L208.573 165.276L212.172 154.306L202.85 147.493L214.396 147.526L217.995 136.556L221.532 147.546L233.077 147.579L223.717 154.339L227.254 165.33Z" fill="white"/>
<path d="M95.0677 148.865L83.3565 140.305L71.5965 148.798L76.1185 135.015L64.4072 126.455L78.9132 126.497L83.4352 112.713L87.8784 126.522L102.384 126.564L90.6245 135.056L95.0677 148.865Z" fill="white"/>
<path d="M268.507 130.138L261.839 125.265L255.144 130.1L257.718 122.253L251.05 117.379L259.309 117.403L261.884 109.555L264.414 117.417L272.673 117.441L265.977 122.276L268.507 130.138Z" fill="white"/>
</g>
<defs>
<filter id="filter0_f_92_13088" x="54.4082" y="10.9729" width="240.768" height="194.935" filterUnits="userSpaceOnUse" color-interpolation-filters="sRGB">
<feFlood flood-opacity="0" result="BackgroundImageFix"/>
<feBlend mode="normal" in="SourceGraphic" in2="BackgroundImageFix" result="shape"/>
<feGaussianBlur stdDeviation="5" result="effect1_foregroundBlur_92_13088"/>
</filter>
</defs>
</svg>
