<svg width="307" height="212" viewBox="0 0 307 212" fill="none" xmlns="http://www.w3.org/2000/svg">
<path opacity="0.8" d="M1.93726 173.328L16.5877 173.328L16.5877 173.427C16.4883 174.073 16.4635 174.371 16.4635 175.935L16.4635 188.103C16.4635 189.667 16.4883 189.965 16.5877 190.611L16.5877 190.71L12.565 190.71L12.565 190.611C12.714 189.965 12.7388 189.667 12.7388 188.103L12.7388 174.371L5.7861 174.371L5.7861 188.103C5.7861 189.667 5.81094 189.965 5.95992 190.611L5.95992 190.71L1.93727 190.71L1.93727 190.611C2.03659 189.965 2.06143 189.667 2.06142 188.103L2.06142 175.935C2.06142 174.371 2.03659 174.073 1.93726 173.427L1.93726 173.328ZM28.884 191.107C23.7687 191.107 19.6964 187.035 19.6964 181.92C19.6964 176.804 23.7687 172.732 28.884 172.732C33.9992 172.732 38.0715 176.804 38.0715 181.92C38.0715 187.035 33.9992 191.107 28.884 191.107ZM23.8184 182.292C23.8184 186.886 25.8546 190.064 28.7846 190.064C32.3852 190.064 34.2475 185.694 34.2475 181.498C34.2475 176.978 32.1865 173.775 29.2316 173.775C25.6807 173.775 23.8184 178.121 23.8184 182.292ZM40.6739 173.328L42.6356 173.328L42.6356 173.427C42.6356 173.651 43.4798 174.52 44.7711 175.712L50.0353 180.653L50.0353 175.935C50.0353 174.371 50.0104 174.073 49.8615 173.427L49.8615 173.328L53.8841 173.328L53.8841 173.427C53.7351 174.073 53.7103 174.371 53.7103 175.935L53.7103 180.653L58.9745 175.712C60.2657 174.52 61.11 173.651 61.11 173.427L61.11 173.328L63.0716 173.328L63.0716 173.427C62.4012 173.899 61.7804 174.52 60.5389 175.687L58.602 177.525L63.1213 187.581C63.9407 189.419 64.4622 189.965 64.9837 190.412L64.9837 190.71C62.8233 191.306 60.1664 190.337 59.0242 187.606L55.8458 180.008L53.7103 181.994L53.7103 188.103C53.7103 189.667 53.7351 189.965 53.8841 190.611L53.8841 190.71L49.8615 190.71L49.8615 190.611C50.0104 189.965 50.0353 189.667 50.0353 188.103L50.0353 181.994L47.8998 180.008L44.7214 187.606C43.5792 190.337 40.9222 191.306 38.7619 190.71L38.7619 190.412C39.2834 189.965 39.8048 189.419 40.6243 187.581L45.1435 177.525L43.2067 175.687C41.9651 174.52 41.3444 173.899 40.6739 173.427L40.6739 173.328ZM71.3325 173.328C72.2264 173.328 73.4431 173.154 74.0887 172.633L79.5764 188.103C80.2965 190.164 80.4704 190.462 80.5449 190.611L80.5449 190.71L76.1249 190.71L76.1249 190.611C76.1249 190.462 76.3236 190.164 75.6034 188.103L75.0323 186.439L67.3843 186.439L66.7635 188.103C65.9689 190.164 66.0931 190.462 66.0931 190.611L66.0931 190.71L64.5287 190.71L64.5287 190.611C64.6032 190.462 64.8019 190.164 65.5965 188.103L71.3325 173.328ZM67.7816 185.396L74.6599 185.396L71.3821 175.96L67.7816 185.396ZM88.6053 173.328C92.9011 173.328 95.6077 175.389 95.6077 178.816C95.6077 182.689 92.0817 184.676 88.3818 184.676C87.9349 184.676 87.4631 184.626 87.0161 184.577L87.0161 183.832L87.3389 183.832C89.9958 183.832 91.883 182.069 91.883 179.014C91.883 176.035 90.4428 174.371 87.7859 174.371L86.0228 174.371L86.0229 188.103C86.0229 189.667 86.0477 189.965 86.147 190.611L86.147 190.71L82.174 190.71L82.174 190.611C82.2733 189.965 82.2982 189.667 82.2982 188.103L82.2982 175.935C82.2982 174.371 82.2733 174.073 82.174 173.427L82.174 173.328L88.6053 173.328ZM108.466 173.328L112.488 173.328L112.488 173.427C112.389 174.073 112.364 174.371 112.364 175.935L112.364 188.103C112.364 189.667 112.389 189.965 112.488 190.611L112.488 190.71L108.466 190.71L108.466 190.611C108.615 189.965 108.64 189.667 108.64 188.103L108.64 179.66L101.687 179.66L101.687 188.103C101.687 189.667 101.712 189.965 101.861 190.611L101.861 190.71L97.838 190.71L97.838 190.611C97.9374 189.965 97.9622 189.667 97.9622 188.103L97.9622 175.935C97.9622 174.371 97.9374 174.073 97.838 173.427L97.838 173.328L101.861 173.328L101.861 173.427C101.712 174.073 101.687 174.371 101.687 175.935L101.687 178.617L108.64 178.617L108.64 175.935C108.64 174.371 108.615 174.073 108.466 173.427L108.466 173.328ZM121.259 173.328C122.153 173.328 123.369 173.154 124.015 172.633L129.503 188.103C130.223 190.164 130.397 190.462 130.471 190.611L130.471 190.71L126.051 190.71L126.051 190.611C126.051 190.462 126.25 190.164 125.53 188.103L124.959 186.439L117.311 186.439L116.69 188.103C115.895 190.164 116.019 190.462 116.019 190.611L116.019 190.71L114.455 190.71L114.455 190.611C114.529 190.462 114.728 190.164 115.523 188.103L121.259 173.328ZM117.708 185.396L124.586 185.396L121.308 175.96L117.708 185.396ZM131.678 190.412C132.175 189.94 132.572 189.394 133.416 187.507L136.446 180.728C133.987 180.306 132.572 179.064 132.572 177.351C132.572 174.669 134.931 173.328 139.674 173.328L145.981 173.328L145.981 173.427C145.882 174.073 145.857 174.371 145.857 175.935L145.857 188.103C145.857 189.667 145.882 189.965 145.981 190.611L145.981 190.71L141.958 190.71L141.958 190.611C142.107 189.965 142.132 189.667 142.132 188.103L142.132 174.371L140.146 174.371C137.662 174.371 136.396 176.01 136.396 177.748C136.396 179.213 137.538 180.107 139.55 180.107C139.947 180.107 140.096 180.107 140.319 180.082L140.468 180.38L137.513 187.407C136.371 190.139 133.863 191.231 131.678 190.71L131.678 190.412ZM159.379 173.328L160.869 173.328L168.318 185.272L176.016 173.328L177.505 173.328C177.406 173.974 177.381 174.272 177.381 175.588L177.381 188.103C177.381 189.667 177.406 189.965 177.505 190.611L177.505 190.71L173.483 190.71L173.483 190.611C173.632 189.965 173.657 189.667 173.657 188.103L173.657 178.915L166.704 189.667L166.679 189.667L160.546 179.884L160.546 188.103C160.546 189.667 160.571 189.965 160.72 190.611L160.72 190.71L159.379 190.71L159.379 190.611C159.478 189.965 159.503 189.667 159.503 188.103L159.503 175.588C159.503 174.272 159.478 173.974 159.379 173.328ZM186.267 173.328C187.161 173.328 188.378 173.154 189.023 172.633L194.511 188.103C195.231 190.164 195.405 190.462 195.479 190.611L195.479 190.71L191.059 190.71L191.059 190.611C191.059 190.462 191.258 190.164 190.538 188.103L189.967 186.439L182.319 186.439L181.698 188.103C180.903 190.164 181.028 190.462 181.028 190.611L181.028 190.71L179.463 190.71L179.463 190.611C179.538 190.462 179.736 190.164 180.531 188.103L186.267 173.328ZM182.716 185.396L189.594 185.396L186.317 175.96L182.716 185.396ZM197.183 173.328L201.206 173.328L201.206 173.427C201.057 174.073 201.032 174.371 201.032 175.935L201.032 189.667L205.079 189.667L205.079 175.935C205.079 174.371 205.054 174.073 204.955 173.427L204.955 173.328L208.928 173.328L208.928 173.427C208.829 174.073 208.804 174.371 208.804 175.935L208.804 189.667L212.876 189.667L212.876 175.935C212.876 174.371 212.851 174.073 212.702 173.427L212.702 173.328L216.725 173.328L216.725 173.427C216.626 174.073 216.601 174.371 216.601 175.935L216.601 188.103C216.601 189.592 216.601 189.965 216.8 190.611L216.8 190.71L197.108 190.71L197.108 190.611C197.307 189.965 197.307 189.592 197.307 188.103L197.307 175.935C197.307 174.371 197.282 174.073 197.183 173.427L197.183 173.328ZM220.607 173.328L224.629 173.328L224.629 173.427C224.48 174.073 224.456 174.371 224.456 175.935L224.456 185.545L235.133 173.328L235.928 173.328C235.729 174.073 235.729 174.445 235.729 178.294L235.729 188.103C235.729 189.667 235.754 189.965 235.853 190.611L235.853 190.71L231.83 190.71L231.83 190.611C231.979 189.965 232.004 189.667 232.004 188.103L232.004 178.493L221.327 190.71L220.532 190.71C220.731 189.965 220.731 189.592 220.731 188.351L220.731 175.935C220.731 174.371 220.706 174.073 220.607 173.427L220.607 173.328ZM250.292 173.328L254.314 173.328L254.314 173.427C254.215 174.073 254.19 174.371 254.19 175.935L254.19 188.103C254.19 189.667 254.215 189.965 254.314 190.611L254.314 190.71L250.292 190.71L250.292 190.611C250.441 189.965 250.465 189.667 250.465 188.103L250.465 179.66L243.513 179.66L243.513 188.103C243.513 189.667 243.538 189.965 243.687 190.611L243.687 190.71L239.664 190.71L239.664 190.611C239.763 189.965 239.788 189.667 239.788 188.103L239.788 175.935C239.788 174.371 239.763 174.073 239.664 173.427L239.664 173.328L243.687 173.328L243.687 173.427C243.538 174.073 243.513 174.371 243.513 175.935L243.513 178.617L250.465 178.617L250.465 175.935C250.465 174.371 250.441 174.073 250.292 173.427L250.292 173.328ZM263.085 173.328C263.978 173.328 265.195 173.154 265.841 172.633L271.329 188.103C272.049 190.164 272.222 190.462 272.297 190.611L272.297 190.71L267.877 190.71L267.877 190.611C267.877 190.462 268.076 190.164 267.356 188.103L266.784 186.439L259.136 186.439L258.516 188.103C257.721 190.164 257.845 190.462 257.845 190.611L257.845 190.71L256.281 190.71L256.281 190.611C256.355 190.462 256.554 190.164 257.349 188.103L263.085 173.328ZM259.534 185.396L266.412 185.396L263.134 175.96L259.534 185.396Z" fill="#F6F1FF"/>
<path opacity="0.5" d="M92.0041 211.89C90.4021 211.89 89.1841 210.672 89.1841 209.07L89.1841 205.71C89.1841 204.108 90.4021 202.89 92.0041 202.89C93.6061 202.89 94.8241 204.108 94.8241 205.71L94.8241 209.07C94.8241 210.672 93.6061 211.89 92.0041 211.89ZM92.0041 211.038C93.0661 211.038 93.9301 210.174 93.9301 209.112L93.9301 205.668C93.9301 204.6 93.0661 203.736 92.0041 203.736C90.9421 203.736 90.0781 204.6 90.0781 205.668L90.0781 209.112C90.0781 210.174 90.9421 211.038 92.0041 211.038ZM99.8083 211.89C98.2063 211.89 96.9883 210.672 96.9883 209.07L96.9883 205.71C96.9883 204.108 98.2063 202.89 99.8083 202.89C101.41 202.89 102.628 204.108 102.628 205.71L102.628 209.07C102.628 210.672 101.41 211.89 99.8083 211.89ZM99.8083 211.038C100.87 211.038 101.734 210.174 101.734 209.112L101.734 205.668C101.734 204.6 100.87 203.736 99.8083 203.736C98.7463 203.736 97.8823 204.6 97.8823 205.668L97.8823 209.112C97.8823 210.174 98.7463 211.038 99.8083 211.038ZM106.473 207.21C105.285 207.21 104.313 206.25 104.313 205.05C104.313 203.874 105.321 202.89 106.473 202.89C107.661 202.89 108.633 203.85 108.633 205.05C108.633 206.25 107.661 207.21 106.473 207.21ZM106.473 206.412C107.211 206.412 107.835 205.788 107.835 205.05C107.835 204.312 107.211 203.688 106.473 203.688C105.735 203.688 105.111 204.312 105.111 205.05C105.111 205.788 105.735 206.412 106.473 206.412ZM113.495 211.89C111.893 211.89 110.675 210.672 110.675 209.07L110.675 205.71C110.675 204.108 111.893 202.89 113.495 202.89C115.097 202.89 116.315 204.108 116.315 205.71L116.315 209.07C116.315 210.672 115.097 211.89 113.495 211.89ZM113.495 211.038C114.557 211.038 115.421 210.174 115.421 209.112L115.421 205.668C115.421 204.6 114.557 203.736 113.495 203.736C112.433 203.736 111.569 204.6 111.569 205.668L111.569 209.112C111.569 210.174 112.433 211.038 113.495 211.038ZM121.299 211.89C119.697 211.89 118.479 210.672 118.479 209.07L118.479 205.71C118.479 204.108 119.697 202.89 121.299 202.89C122.901 202.89 124.119 204.108 124.119 205.71L124.119 209.07C124.119 210.672 122.901 211.89 121.299 211.89ZM121.299 211.038C122.361 211.038 123.225 210.174 123.225 209.112L123.225 205.668C123.225 204.6 122.361 203.736 121.299 203.736C120.237 203.736 119.373 204.6 119.373 205.668L119.373 209.112C119.373 210.174 120.237 211.038 121.299 211.038ZM126.241 205.872L126.799 202.992L127.687 202.992L126.847 205.872L126.241 205.872ZM127.765 205.872L128.323 202.992L129.211 202.992L128.371 205.872L127.765 205.872ZM139.031 208.308L133.991 208.308L133.991 207.552L139.031 207.552L139.031 208.308ZM146.797 202.896C148.423 202.896 149.719 204.192 149.719 205.878L149.719 208.872C149.719 210.606 148.441 211.89 146.731 211.89C145.747 211.89 144.865 211.434 144.325 210.66L145.003 210.102C145.369 210.672 146.017 211.05 146.731 211.05C147.949 211.05 148.825 210.066 148.825 208.95L148.825 207.624C148.315 208.242 147.553 208.644 146.713 208.644C145.111 208.644 143.869 207.384 143.869 205.782C143.869 204.186 145.195 202.896 146.797 202.896ZM146.791 207.822C147.919 207.822 148.825 206.91 148.825 205.782C148.825 204.666 147.925 203.754 146.797 203.754C145.669 203.754 144.757 204.654 144.757 205.782C144.757 206.91 145.663 207.822 146.791 207.822ZM154.695 211.89C153.093 211.89 151.875 210.672 151.875 209.07L151.875 205.71C151.875 204.108 153.093 202.89 154.695 202.89C156.297 202.89 157.515 204.108 157.515 205.71L157.515 209.07C157.515 210.672 156.297 211.89 154.695 211.89ZM154.695 211.038C155.757 211.038 156.621 210.174 156.621 209.112L156.621 205.668C156.621 204.6 155.757 203.736 154.695 203.736C153.633 203.736 152.769 204.6 152.769 205.668L152.769 209.112C152.769 210.174 153.633 211.038 154.695 211.038ZM161.359 207.21C160.171 207.21 159.199 206.25 159.199 205.05C159.199 203.874 160.207 202.89 161.359 202.89C162.547 202.89 163.519 203.85 163.519 205.05C163.519 206.25 162.547 207.21 161.359 207.21ZM161.359 206.412C162.097 206.412 162.721 205.788 162.721 205.05C162.721 204.312 162.097 203.688 161.359 203.688C160.621 203.688 159.997 204.312 159.997 205.05C159.997 205.788 160.621 206.412 161.359 206.412ZM168.381 211.89C166.779 211.89 165.561 210.672 165.561 209.07L165.561 205.71C165.561 204.108 166.779 202.89 168.381 202.89C169.983 202.89 171.201 204.108 171.201 205.71L171.201 209.07C171.201 210.672 169.983 211.89 168.381 211.89ZM168.381 211.038C169.443 211.038 170.307 210.174 170.307 209.112L170.307 205.668C170.307 204.6 169.443 203.736 168.381 203.736C167.319 203.736 166.455 204.6 166.455 205.668L166.455 209.112C166.455 210.174 167.319 211.038 168.381 211.038ZM176.186 211.89C174.584 211.89 173.366 210.672 173.366 209.07L173.366 205.71C173.366 204.108 174.584 202.89 176.186 202.89C177.788 202.89 179.006 204.108 179.006 205.71L179.006 209.07C179.006 210.672 177.788 211.89 176.186 211.89ZM176.186 211.038C177.248 211.038 178.112 210.174 178.112 209.112L178.112 205.668C178.112 204.6 177.248 203.736 176.186 203.736C175.124 203.736 174.26 204.6 174.26 205.668L174.26 209.112C174.26 210.174 175.124 211.038 176.186 211.038ZM181.128 205.872L181.686 202.992L182.574 202.992L181.734 205.872L181.128 205.872ZM182.652 205.872L183.21 202.992L184.098 202.992L183.258 205.872L182.652 205.872Z" fill="#F6F1FF"/>
<path opacity="0.2" d="M239.711 139.595C226.22 138.609 214.455 149.328 213.407 163.496C212.391 177.664 222.493 189.953 235.984 190.939C249.474 191.925 261.24 181.206 262.287 167.038C263.304 152.87 253.201 140.581 239.711 139.595ZM237.062 176.062C231.117 175.631 226.621 170.457 227.052 164.482C227.483 158.537 232.657 154.04 238.633 154.472C244.577 154.903 249.074 160.077 248.643 166.052C248.212 171.997 243.037 176.494 237.062 176.062Z" fill="white"/>
<g opacity="0.2">
<path d="M157.711 22.998C156.386 24.2301 154.97 25.3389 153.491 26.3553" stroke="white" stroke-width="13.3024" stroke-miterlimit="10"/>
<path d="M147.885 11.2969C146.375 12.8985 144.712 14.3769 142.926 15.6705" stroke="white" stroke-width="13.3024" stroke-miterlimit="10"/>
<path d="M103.585 13.7568C105.618 15.3584 107.62 17.0216 109.56 18.7773" stroke="white" stroke-width="13.3024" stroke-miterlimit="10"/>
<path d="M115.47 4.79785C117.287 6.73826 118.827 8.92507 120.059 11.2967" stroke="white" stroke-width="13.3024" stroke-miterlimit="10"/>
<path d="M126.951 139.595C113.46 138.609 101.695 149.328 100.648 163.496C99.6312 177.664 109.734 189.953 123.224 190.939C136.715 191.925 148.48 181.206 149.527 167.038C150.544 152.87 140.441 140.581 126.951 139.595ZM124.302 176.062C118.358 175.631 113.861 170.457 114.292 164.482C114.723 158.537 119.898 154.04 125.873 154.472C131.817 154.903 136.314 160.077 135.883 166.052C135.452 172.028 130.277 176.494 124.302 176.062Z" fill="white"/>
<path d="M144.446 35.0896C142.814 36.876 140.504 37.9848 138.102 38.3236C136.531 38.5392 134.96 38.4776 133.389 38.6008C133.173 38.6316 132.958 38.6316 132.742 38.6624L133.851 44.3604L116.942 44.6068L117.188 41.2188C117.096 41.188 117.003 41.1264 116.911 41.0956C116.049 40.6952 115.34 40.0792 114.632 39.4632C112.291 37.4304 109.858 35.0588 109.581 31.9788C109.457 30.4388 109.919 28.8988 110.505 27.4512C111.983 23.8476 114.385 20.6135 117.404 18.1187C118.051 17.5951 118.728 17.1023 119.467 16.7943C120.453 16.3939 121.531 16.3631 122.609 16.3323C124.734 16.2707 126.859 16.1783 128.954 16.4555C132.496 16.9175 135.822 18.3959 138.964 20.0899C140.658 21.0139 142.352 22.0303 143.738 23.3855C145.124 24.7407 146.233 26.4656 146.541 28.3752C146.941 30.7776 146.079 33.3032 144.446 35.0896Z" fill="white"/>
<path d="M305.346 162.387C304.853 160.97 304.052 159.676 302.974 158.568C302.42 157.982 301.773 157.428 301.095 156.997L297.276 154.471L297.522 92.3165L188.028 97.2137C189.106 124.256 190.153 147.11 190.553 148.866C190.523 148.804 190.523 148.742 190.492 148.712L189.229 149.266L187.966 149.82C187.72 149.266 187.258 148.25 185.133 94.2261C184.301 72.7892 183.5 51.2907 183.223 43.6523C169.517 43.8371 112.383 44.6687 95.9969 44.8535C101.11 90.0065 84.8165 106.793 84.1389 107.347L83.6461 107.747L62.1784 109.78C62.086 120.252 61.932 155.272 62.5788 158.475L56.1416 160.878C55.5564 161.093 55.0019 161.401 54.5091 161.802C52.7227 163.249 51.9835 165.652 52.6303 167.869L52.7227 168.147C53.3079 170.21 55.0328 171.75 57.1272 172.181C61.47 173.044 65.9052 173.321 70.3096 173.075C77.0241 172.674 85.8021 172.058 94.7649 171.442C94.0565 168.331 93.7793 165.097 94.0257 161.771C95.3193 143.814 110.935 130.324 128.861 131.618C146.817 132.911 160.308 148.527 159.014 166.452C158.983 166.976 158.922 167.5 158.86 168.023L183.747 167.253L205.861 167.407C205.676 165.528 205.645 163.65 205.769 161.709C207.062 143.753 222.678 130.262 240.604 131.556C258.56 132.849 272.051 148.465 270.757 166.391C270.726 166.884 270.665 167.376 270.603 167.869L304.576 168.116C305.315 168.116 305.9 167.561 305.962 166.822C306.054 165.313 305.869 163.804 305.346 162.387ZM145.893 102.696C145.893 102.696 145.123 96.6285 144.969 95.7045L160.739 93.4869L161.755 100.386L145.893 102.696Z" fill="white"/>
<path d="M257.698 88.8978L257.914 88.8978L257.944 88.8978L276.517 87.943C276.394 87.943 273.991 73.2206 273.93 72.9434L255.942 73.4054L257.698 88.8978Z" fill="white"/>
<path d="M186.981 69.8636C196.467 69.8328 280.09 69.5556 297.615 69.5556L297.646 58.8371L186.55 58.6523C186.704 62.3176 186.858 66.0752 186.981 69.8636Z" fill="white"/>
<path d="M207.432 91.4541L224.773 90.5917L224.033 74.206L206.2 74.6681L207.432 91.4541Z" fill="white"/>
<path d="M283.078 87.635L292.872 87.1422L290.285 72.543L280.028 72.7894L283.078 87.635Z" fill="white"/>
<path d="M228.562 74.1129L230.009 90.3138L248.859 89.359L247.75 73.6201L247.627 73.6201L228.562 74.1129Z" fill="white"/>
<path d="M200.626 74.8213L200.533 74.8213L187.166 75.1601C187.382 80.9505 187.597 86.7717 187.844 92.439L201.426 91.7614L200.626 74.8213Z" fill="white"/>
<path d="M82.0757 103.866C83.1537 102.788 86.1721 99.3076 88.6977 92.3467C91.4389 84.7699 94.3649 68.4766 92.2705 47.2861C86.7881 57.4502 66.8604 96.9976 62.918 105.344L82.0757 103.866Z" fill="white"/>
</g>
<path fill-rule="evenodd" clip-rule="evenodd" d="M82.7975 73.9867L128.893 69.9785C129.082 70.9439 129.518 71.821 130.132 72.5413L84.5238 76.5071L90.3864 104.355C89.4577 104.431 88.5928 104.733 87.8466 105.205L81.6111 75.586L81.3018 74.1168L82.7975 73.9867ZM135.736 79.5576L134.704 74.513C135.635 74.4664 136.506 74.1939 137.264 73.7492L138.403 79.3169C138.091 79.2443 137.766 79.2058 137.433 79.2058C136.83 79.2058 136.256 79.3313 135.736 79.5576ZM137.404 87.7122L138.856 94.8108L94.106 105.37C94.9214 105.948 95.5763 106.738 95.9907 107.659L140.724 97.1037L141.98 96.8072L141.721 95.5424L139.951 86.8869C139.246 87.4057 138.375 87.7123 137.433 87.7123C137.423 87.7123 137.414 87.7122 137.404 87.7122ZM140.557 86.345C146.485 89.5701 156.353 94.463 165.382 98.8556C170.945 101.562 176.214 104.09 180.091 105.941C182.03 106.867 183.621 107.624 184.728 108.149C185.282 108.412 185.714 108.616 186.008 108.756L186.343 108.914L186.429 108.955L186.45 108.965L186.456 108.967L186.457 108.968C186.458 108.968 186.458 108.968 187.026 107.766L186.458 108.968L186.743 109.103L187.058 109.095L297.192 106.431L297.128 103.772L187.309 106.428L187.146 106.351C186.853 106.212 186.421 106.008 185.869 105.745C184.764 105.221 183.174 104.465 181.237 103.54C177.364 101.691 172.101 99.1658 166.546 96.4632C157.37 91.9993 147.461 87.0822 141.661 83.9176C141.561 84.85 141.16 85.6923 140.557 86.345Z" fill="#BBBBBB"/>
<circle cx="91.0093" cy="108.076" r="2.53565" fill="#BBBBBB"/>
<circle cx="137.715" cy="83.6987" r="2.53565" fill="#BBBBBB"/>
<circle cx="133.718" cy="70.6323" r="2.53565" fill="#BBBBBB"/>
<path d="M283.037 101.867L290.908 100.91L292.43 93.1284L295.773 100.318L303.644 99.3612L297.838 104.762L301.181 111.952L294.251 108.1L288.445 113.5L289.967 105.719L283.037 101.867Z" fill="white"/>
<path d="M173.714 109.618L183.092 104.315L180.946 93.7567L188.888 101.037L198.266 95.734L193.796 105.537L201.738 112.817L191.034 111.595L186.564 121.398L184.418 110.84L173.714 109.618Z" fill="white"/>
<path d="M70.0738 73.6043L80.4414 72.3435L82.4462 62.0937L86.849 71.5644L97.2167 70.3037L89.5701 77.4176L93.9729 86.8882L84.8442 81.8142L77.1977 88.9281L79.2024 78.6783L70.0738 73.6043Z" fill="white"/>
</svg>
