<svg width="266" height="274" viewBox="0 0 266 274" fill="none" xmlns="http://www.w3.org/2000/svg">
<path opacity="0.8" d="M96.4147 235.168L97.9046 235.168L105.354 247.112L113.052 235.168L114.542 235.168C114.442 235.814 114.417 236.112 114.417 237.428L114.417 249.943C114.417 251.507 114.442 251.805 114.542 252.45L114.542 252.55L110.519 252.55L110.519 252.45C110.668 251.805 110.693 251.507 110.693 249.943L110.693 240.755L103.74 251.507L103.715 251.507L97.5818 241.723L97.5818 249.943C97.5818 251.507 97.6066 251.805 97.7556 252.45L97.7556 252.55L96.4147 252.55L96.4147 252.45C96.5141 251.805 96.5389 251.507 96.5389 249.943L96.5389 237.428C96.5389 236.112 96.5141 235.814 96.4147 235.168ZM123.303 235.168C124.197 235.168 125.414 234.994 126.059 234.473L131.547 249.943C132.267 252.004 132.441 252.301 132.515 252.45L132.515 252.55L128.095 252.55L128.095 252.45C128.095 252.301 128.294 252.004 127.574 249.943L127.003 248.279L119.355 248.279L118.734 249.943C117.94 252.004 118.064 252.301 118.064 252.45L118.064 252.55L116.499 252.55L116.499 252.45C116.574 252.301 116.772 252.004 117.567 249.943L123.303 235.168ZM119.752 247.236L126.63 247.236L123.353 237.8L119.752 247.236ZM134.145 235.168L135.634 235.168L143.084 247.112L150.781 235.168L152.271 235.168C152.172 235.814 152.147 236.112 152.147 237.428L152.147 249.943C152.147 251.507 152.172 251.805 152.271 252.45L152.271 252.55L148.249 252.55L148.249 252.45C148.398 251.805 148.423 251.507 148.423 249.943L148.423 240.755L141.47 251.507L141.445 251.507L135.312 241.723L135.312 249.943C135.312 251.507 135.336 251.805 135.485 252.45L135.485 252.55L134.145 252.55L134.145 252.45C134.244 251.805 134.269 251.507 134.269 249.943L134.269 237.428C134.269 236.112 134.244 235.814 134.145 235.168ZM161.033 235.168C161.927 235.168 163.144 234.994 163.789 234.473L169.277 249.943C169.997 252.003 170.171 252.301 170.245 252.45L170.245 252.55L165.825 252.55L165.825 252.45C165.825 252.301 166.024 252.003 165.304 249.943L164.733 248.279L157.085 248.279L156.464 249.943C155.669 252.003 155.793 252.301 155.793 252.45L155.793 252.55L154.229 252.55L154.229 252.45C154.304 252.301 154.502 252.003 155.297 249.943L161.033 235.168ZM157.482 247.236L164.36 247.236L161.083 237.8L157.482 247.236Z" fill="#F6F1FF"/>
<path opacity="0.5" d="M88.1213 273.73C86.5193 273.73 85.3013 272.512 85.3013 270.91L85.3013 267.55C85.3013 265.948 86.5193 264.73 88.1213 264.73C89.7233 264.73 90.9413 265.948 90.9413 267.55L90.9413 270.91C90.9413 272.512 89.7233 273.73 88.1213 273.73ZM88.1213 272.878C89.1833 272.878 90.0473 272.014 90.0473 270.952L90.0473 267.508C90.0473 266.44 89.1833 265.576 88.1213 265.576C87.0593 265.576 86.1953 266.44 86.1953 267.508L86.1953 270.952C86.1953 272.014 87.0593 272.878 88.1213 272.878ZM95.9255 273.73C94.3235 273.73 93.1055 272.512 93.1055 270.91L93.1055 267.55C93.1055 265.948 94.3235 264.73 95.9255 264.73C97.5275 264.73 98.7455 265.948 98.7455 267.55L98.7455 270.91C98.7455 272.512 97.5275 273.73 95.9255 273.73ZM95.9255 272.878C96.9875 272.878 97.8515 272.014 97.8515 270.952L97.8515 267.508C97.8515 266.44 96.9875 265.576 95.9255 265.576C94.8635 265.576 93.9995 266.44 93.9995 267.508L93.9995 270.952C93.9995 272.014 94.8635 272.878 95.9255 272.878ZM102.59 269.05C101.402 269.05 100.43 268.09 100.43 266.89C100.43 265.714 101.438 264.73 102.59 264.73C103.778 264.73 104.75 265.69 104.75 266.89C104.75 268.09 103.778 269.05 102.59 269.05ZM102.59 268.252C103.328 268.252 103.952 267.628 103.952 266.89C103.952 266.152 103.328 265.528 102.59 265.528C101.852 265.528 101.228 266.152 101.228 266.89C101.228 267.628 101.852 268.252 102.59 268.252ZM109.612 273.73C108.01 273.73 106.792 272.512 106.792 270.91L106.792 267.55C106.792 265.948 108.01 264.73 109.612 264.73C111.214 264.73 112.432 265.948 112.432 267.55L112.432 270.91C112.432 272.512 111.214 273.73 109.612 273.73ZM109.612 272.878C110.674 272.878 111.538 272.014 111.538 270.952L111.538 267.508C111.538 266.44 110.674 265.576 109.612 265.576C108.55 265.576 107.686 266.44 107.686 267.508L107.686 270.952C107.686 272.014 108.55 272.878 109.612 272.878ZM117.416 273.73C115.814 273.73 114.596 272.512 114.596 270.91L114.596 267.55C114.596 265.948 115.814 264.73 117.416 264.73C119.018 264.73 120.236 265.948 120.236 267.55L120.236 270.91C120.236 272.512 119.018 273.73 117.416 273.73ZM117.416 272.878C118.478 272.878 119.342 272.014 119.342 270.952L119.342 267.508C119.342 266.44 118.478 265.576 117.416 265.576C116.354 265.576 115.49 266.44 115.49 267.508L115.49 270.952C115.49 272.014 116.354 272.878 117.416 272.878ZM122.359 267.712L122.917 264.832L123.805 264.832L122.965 267.712L122.359 267.712ZM123.883 267.712L124.441 264.832L125.329 264.832L124.489 267.712L123.883 267.712ZM135.148 270.148L130.108 270.148L130.108 269.392L135.148 269.392L135.148 270.148ZM145.045 265.768L142.513 268.186C144.085 268.174 145.147 269.302 145.147 270.916C145.147 272.578 143.983 273.724 142.393 273.724C141.109 273.724 140.077 273.004 139.711 271.834L140.551 271.582C140.839 272.44 141.553 272.89 142.381 272.872C143.533 272.848 144.235 272.074 144.235 270.916C144.235 269.74 143.485 268.96 142.369 268.96C142.057 268.96 141.691 269.056 141.397 269.2L140.953 268.498L143.923 265.756L140.053 265.756L140.053 264.91L145.045 264.91L145.045 265.768ZM150.003 273.73C148.401 273.73 147.183 272.512 147.183 270.91L147.183 267.55C147.183 265.948 148.401 264.73 150.003 264.73C151.605 264.73 152.823 265.948 152.823 267.55L152.823 270.91C152.823 272.512 151.605 273.73 150.003 273.73ZM150.003 272.878C151.065 272.878 151.929 272.014 151.929 270.952L151.929 267.508C151.929 266.44 151.065 265.576 150.003 265.576C148.941 265.576 148.077 266.44 148.077 267.508L148.077 270.952C148.077 272.014 148.941 272.878 150.003 272.878ZM156.668 269.05C155.48 269.05 154.508 268.09 154.508 266.89C154.508 265.714 155.516 264.73 156.668 264.73C157.856 264.73 158.828 265.69 158.828 266.89C158.828 268.09 157.856 269.05 156.668 269.05ZM156.668 268.252C157.406 268.252 158.03 267.628 158.03 266.89C158.03 266.152 157.406 265.528 156.668 265.528C155.93 265.528 155.306 266.152 155.306 266.89C155.306 267.628 155.93 268.252 156.668 268.252ZM163.69 273.73C162.088 273.73 160.87 272.512 160.87 270.91L160.87 267.55C160.87 265.948 162.088 264.73 163.69 264.73C165.292 264.73 166.51 265.948 166.51 267.55L166.51 270.91C166.51 272.512 165.292 273.73 163.69 273.73ZM163.69 272.878C164.752 272.878 165.616 272.014 165.616 270.952L165.616 267.508C165.616 266.44 164.752 265.576 163.69 265.576C162.628 265.576 161.764 266.44 161.764 267.508L161.764 270.952C161.764 272.014 162.628 272.878 163.69 272.878ZM171.494 273.73C169.892 273.73 168.674 272.512 168.674 270.91L168.674 267.55C168.674 265.948 169.892 264.73 171.494 264.73C173.096 264.73 174.314 265.948 174.314 267.55L174.314 270.91C174.314 272.512 173.096 273.73 171.494 273.73ZM171.494 272.878C172.556 272.878 173.42 272.014 173.42 270.952L173.42 267.508C173.42 266.44 172.556 265.576 171.494 265.576C170.432 265.576 169.568 266.44 169.568 267.508L169.568 270.952C169.568 272.014 170.432 272.878 171.494 272.878ZM176.436 267.712L176.994 264.832L177.882 264.832L177.042 267.712L176.436 267.712ZM177.96 267.712L178.518 264.832L179.406 264.832L178.566 267.712L177.96 267.712Z" fill="#BBBBBB"/>
<path opacity="0.2" d="M87.8086 48.1936C87.8086 46.0655 89.3219 44.1738 91.119 44.1738C92.7269 44.1738 94.3349 46.1601 94.3349 48.099C94.3349 50.2272 92.9161 51.8351 91.119 51.8824C89.2273 51.9297 87.8086 50.3217 87.8086 48.1936Z" fill="white"/>
<path opacity="0.2" d="M101.098 48.1468C101.145 46.0659 102.611 44.2216 104.266 44.2216C106.016 44.1743 107.624 46.0659 107.624 48.1941C107.577 50.3222 106.205 51.9301 104.313 51.9301C102.422 51.9301 101.098 50.3222 101.098 48.1468Z" fill="white"/>
<path opacity="0.2" d="M187.216 138.852C183.149 138.852 178.704 135.068 178.325 131.049C178.325 130.954 178.325 130.812 178.325 130.718C178.562 129.488 180.17 129.062 181.068 129.914C181.163 129.961 181.21 130.055 181.257 130.15C181.777 130.812 181.919 131.805 182.345 132.562C183.433 134.595 185.041 136.014 187.5 135.872C189.864 135.778 191.094 134.17 191.898 132.184C192.229 131.285 192.371 130.292 192.844 129.488C192.938 129.299 193.08 129.157 193.269 129.015C194.026 128.306 195.303 128.542 195.776 129.441C195.918 129.724 196.012 129.961 196.012 130.245C196.06 134.737 191.709 138.852 187.216 138.852Z" fill="white"/>
<path opacity="0.2" d="M98.0709 73.684C91.5919 73.684 84.4982 67.6306 83.9307 61.1989C83.9307 61.0098 83.9307 60.8206 83.978 60.6314C84.3563 58.6925 86.91 57.9831 88.3288 59.3546C88.4234 59.4492 88.5653 59.591 88.6598 59.7329C89.5111 60.7733 89.7003 62.3812 90.3623 63.6108C92.0648 66.8739 94.6186 70.61 98.5438 70.4681C102.327 70.2789 104.361 66.2591 105.638 63.0906C106.205 61.6719 106.394 60.0166 107.151 58.7871C107.34 58.5033 107.577 58.2669 107.813 58.0304C109.043 56.9427 111.029 57.2264 111.833 58.6925C112.069 59.1181 112.211 59.5437 112.211 59.9694C112.164 67.1104 105.212 73.684 98.0709 73.684Z" fill="white"/>
<path opacity="0.2" d="M183.669 118.8C183.669 120.455 182.392 121.921 180.973 121.969C179.46 122.016 178.325 120.644 178.278 118.847C178.23 117.097 179.413 115.726 180.926 115.679C182.439 115.679 183.669 117.097 183.669 118.8Z" fill="white"/>
<path opacity="0.2" d="M191.567 115.821C193.127 115.821 194.499 117.335 194.452 119.037C194.404 120.598 193.127 121.969 191.709 121.969C190.148 121.969 188.966 120.598 189.013 118.848C189.013 117.098 190.148 115.821 191.567 115.821Z" fill="white"/>
<path opacity="0.2" d="M183.669 81.9125C184.899 79.9263 189.202 77.3725 192.087 85.6486C192.371 86.4998 193.506 86.6417 194.026 85.885C196.816 81.9125 201.309 82.0544 202.775 87.2565C202.917 87.824 203.532 88.155 204.099 88.0131C210.342 86.6417 218.003 87.02 214.314 94.3029C213.936 95.0123 214.456 95.8636 215.26 95.9108C219.28 96.1473 223.11 98.7956 219.658 102.815C218.334 104.991 213.652 105.416 214.456 108.49C216.679 118.942 215.591 116.057 222.259 115.631C223.394 115.537 223.914 117.098 222.921 117.665C221.313 118.611 219.185 118.847 217.577 119.84C216.821 120.313 216.963 121.496 217.814 121.779C219.705 122.489 222.685 121.59 224.813 122.252C225.806 122.536 225.853 123.955 224.908 124.333C222.685 125.232 219.847 124.38 217.483 125.184C216.631 125.468 216.49 126.698 217.294 127.171C219.091 128.258 221.455 128.164 223.063 129.488C223.773 130.103 223.489 131.285 222.543 131.427C220.462 131.805 218.429 130.481 216.253 130.15C216.206 130.15 216.111 130.15 216.064 130.15C215.071 130.197 213.794 131.001 213.605 132.136C211.24 138.142 206.889 142.351 201.214 145.331C201.167 145.378 201.12 145.378 201.073 145.425C190.432 153.228 218.334 166.186 223.773 171.578C223.867 171.672 224.009 171.767 224.151 171.814C226.515 172.665 228.738 170.395 231.103 170.159C232.096 170.064 232.711 171.294 232.001 172.05C231.718 172.334 231.434 172.571 231.055 172.76C230.204 173.233 230.393 174.462 231.292 174.746C232.38 175.077 233.373 175.408 234.082 176.212C234.744 176.969 234.129 178.151 233.136 178.057C232.853 178.009 232.569 177.962 232.285 177.867C231.434 177.631 230.63 178.482 230.961 179.286C231.055 179.523 231.103 179.759 231.197 180.043C231.387 180.989 230.393 181.745 229.542 181.225C229.022 180.894 228.644 180.468 228.265 179.995C227.603 179.097 226.184 179.712 226.279 180.799C226.326 181.32 226.279 181.84 226.043 182.313C225.712 183.022 224.718 183.117 224.245 182.502C222.212 179.948 224.624 175.077 220.699 173.185C214.929 169.402 209.774 165.004 203.91 161.41C203.106 160.89 202.066 161.646 202.255 162.592C203.626 169.213 205.471 175.739 206.842 182.313C208.403 189.738 208.497 197.352 207.552 204.871C206.842 210.546 208.781 216.647 208.923 222.369C208.923 222.416 208.923 222.511 208.97 222.558C210.673 230.219 199.275 222.936 198.424 228.564C198.282 232.868 197.999 237.124 197.857 241.38C197.1 245.684 202.586 243.083 204.714 245.116C210.247 250.555 200.221 253.581 195.918 251.075C195.823 251.028 195.729 250.933 195.681 250.886C191.945 246.961 195.492 235.469 194.594 229.746C194.594 229.699 194.594 229.652 194.594 229.557C194.641 226.767 194.546 226.72 191.851 226.814C191.756 226.814 191.709 226.814 191.614 226.862C187.736 227.902 178.751 224.544 178.987 230.408C178.987 230.456 178.987 230.55 178.987 230.598C177.852 237.36 183.575 250.555 174.92 253.014C174.873 253.014 174.826 253.014 174.778 253.061C163.901 255.284 160.638 246.251 172.272 246.062C172.366 246.062 172.508 246.062 172.603 246.109C178.751 247.717 174.778 233.955 175.582 229.888C175.582 229.794 175.63 229.652 175.582 229.557C174.968 223.409 161.82 231.496 161.962 224.592C162.057 219.2 163.05 213.667 162.908 208.276C162.624 196.406 164.232 184.536 167.306 173.091C168.205 169.686 169.151 166.328 170.002 162.923C170.238 162.072 169.387 161.315 168.583 161.599C161.726 163.916 155.105 166.186 148.342 168.504C147.586 168.787 147.349 169.733 147.917 170.348C148.579 171.01 149.194 171.719 149.525 172.571C149.903 173.469 148.957 174.368 148.059 173.989C147.775 173.895 147.538 173.753 147.302 173.611C146.403 173.091 145.363 173.942 145.694 174.935C145.978 175.645 146.12 176.354 146.072 177.111C145.978 178.057 144.843 178.482 144.181 177.773C143.755 177.347 143.471 176.874 143.235 176.354C142.856 175.503 141.627 175.503 141.201 176.354C140.87 177.111 140.492 177.773 139.924 178.293C139.215 179.002 137.938 178.435 138.033 177.394C138.127 176.591 138.364 175.787 138.647 174.983C138.979 174.037 137.985 173.186 137.087 173.611C137.087 173.611 137.04 173.611 137.04 173.658C136.094 174.131 135.101 173.138 135.526 172.192C136.614 169.922 139.451 168.125 138.6 165.335C131.412 145.567 125.217 124.806 114.34 106.788C113.677 105.7 112.022 106.362 112.306 107.592C120.298 142.635 129.851 177.3 136.709 212.627C139.31 222.038 120.109 216.552 114.481 217.971C114.387 217.971 114.292 218.018 114.245 218.018C111.36 218.065 110.935 218.444 110.982 221.328C111.076 230.267 110.84 239.157 111.218 248.096C111.266 248.758 111.833 249.231 112.448 249.136C116.373 248.616 122.379 247.386 123.183 252.021C123.467 254.102 122.758 255.71 120.488 256.23C115.096 257.27 105.543 258.784 106.678 250.46C106.678 250.413 106.678 250.366 106.678 250.318C106.773 240.671 106.962 230.929 107.104 221.281C107.151 218.207 107.009 218.16 104.125 218.349C104.03 218.349 103.935 218.349 103.841 218.396C100.199 219.437 89.4641 216.694 89.275 221.092C89.5587 231.827 90.6464 242.657 90.0316 253.392C90.3627 260.06 69.5543 259.919 75.3239 252.068C75.3712 252.021 75.3712 251.974 75.4185 251.926C77.7358 247.15 85.3498 251.737 85.9646 248.19C85.7754 239.252 85.6335 230.314 85.397 221.376C86.0591 216.41 68.8922 220.193 64.967 219.153C56.8329 219.91 63.9739 200.473 63.832 195.318C63.832 195.223 63.832 195.176 63.832 195.082C68.9868 166.801 75.6549 138.568 81.2353 110.429C81.4718 109.2 79.8166 108.585 79.2018 109.673C68.4666 127.927 60.3324 147.412 55.887 168.267C54.6101 172.24 58.7718 173.564 60.5216 176.26C61.0891 177.158 60.2378 178.293 59.1974 177.915C59.0083 177.82 58.7718 177.726 58.5826 177.631C57.5895 177.158 56.5964 178.198 57.1166 179.144C57.826 180.468 58.3462 181.793 57.3531 182.738C57.1639 182.928 56.8801 183.022 56.6437 183.022C55.556 183.07 55.0831 182.218 54.7047 181.225C54.3737 180.279 53.0495 180.232 52.6712 181.131C52.3874 181.793 52.0564 182.313 51.5835 182.833C50.8741 183.542 49.6918 183.07 49.6918 182.029C49.6918 181.651 49.7391 181.225 49.881 180.847C50.1647 179.854 49.077 179.097 48.1785 179.665C47.8947 179.854 47.611 179.996 47.3272 180.137C46.3341 180.61 45.2937 179.523 45.9085 178.577C46.4287 177.726 47.2799 177.063 48.0366 176.449C48.8878 175.739 48.3203 174.415 47.2326 174.51C46.9489 174.557 46.6651 174.557 46.4287 174.51C45.4828 174.415 45.0572 173.186 45.8139 172.571C48.0839 170.679 52.5293 172.287 52.9549 167.936C52.9549 167.889 52.9549 167.794 53.0022 167.747C58.8664 145.993 65.6764 124.57 77.783 105.369C90.268 84.0407 87.667 92.6478 69.7434 81.7234C68.6084 80.8721 67.8045 80.9667 67.1897 82.2909C62.6497 101.87 14.7432 97.4243 34.5584 89.1482C34.6057 89.1009 34.7003 89.1009 34.7476 89.1009C42.5034 87.3511 54.5155 87.6821 59.1974 80.8721C59.9068 79.8317 58.5826 78.6021 57.5895 79.4061C50.4484 85.1284 40.328 88.2496 31.3899 86.2634C30.5386 86.0742 30.2076 85.0338 30.8224 84.419C36.592 78.3184 46.4286 76.2848 53.6643 72.0286C55.8397 70.9409 55.9343 70.1842 54.7993 68.1034C46.003 52.2134 42.598 27.3379 59.3392 15.4677C80.857 -0.280436 122.616 -9.83338 133.729 22.4669C133.729 22.4669 133.729 22.5141 133.776 22.5141C138.269 32.6819 133.256 38.8298 146.876 33.0129C147.065 32.9183 147.255 32.9183 147.396 32.9183C147.444 32.9183 147.491 32.9183 147.586 32.9656C148.2 33.1075 148.579 33.7223 148.39 34.2898C147.586 36.9381 142.998 36.8908 140.681 38.0731C140.586 38.1204 140.445 38.215 140.35 38.3096C132.736 46.3965 145.126 42.0456 149.903 43.1806C150.943 43.4171 151.085 44.7885 150.139 45.2615C145.836 47.3423 133.445 46.1127 139.357 51.4567C139.451 51.5513 139.593 51.6458 139.688 51.6931C142.289 52.6863 147.822 52.4498 148.248 55.4765C148.295 55.7129 148.248 55.9494 148.153 56.1858C147.491 57.51 145.789 56.6115 144.512 56.3277C144.464 56.3277 144.417 56.3277 144.322 56.3277C141.721 56.1858 136.992 52.97 136.188 56.9425C133.114 70.2788 123.325 80.8248 110.698 85.7432C104.408 88.5334 112.873 96.1946 114.34 100.404C114.387 100.498 114.387 100.545 114.434 100.593C123.136 114.307 129.142 129.252 133.966 144.669C133.966 144.716 134.013 144.763 134.06 144.858C136.377 149.256 139.215 165.997 143.802 166.186C143.897 166.186 144.039 166.186 144.133 166.139C152.693 163.302 174.636 160.7 173.927 149.35C173.927 149.019 173.738 148.736 173.501 148.547C166.833 143.344 157.186 140.223 155.531 130.481C155.531 130.387 155.483 130.292 155.436 130.197C153.923 126.84 149.714 130.765 146.592 130.528C145.694 130.481 145.268 129.346 145.883 128.684C147.538 126.934 150.612 127.265 152.646 125.752C153.355 125.232 153.213 124.144 152.362 123.813C150.045 122.914 147.302 123.813 145.079 123.056C144.086 122.725 144.133 121.259 145.126 120.975C146.734 120.455 148.626 120.975 150.376 120.881C150.423 120.881 150.518 120.881 150.565 120.834C156.571 119.604 149.004 118.564 145.316 116.625C144.322 116.104 144.654 114.544 145.836 114.544C149.808 114.497 154.585 118.138 154.396 111.564C154.396 111.47 154.396 111.328 154.443 111.233C155.2 108.632 154.537 106.835 151.936 105.369C147.444 102.484 151.984 98.5119 155.862 97.4715C156.524 97.2823 156.902 96.5729 156.571 95.9582C153.592 89.8575 158.415 87.9186 164.516 89.8575C164.563 89.8575 164.563 89.8575 164.611 89.9048C167.212 90.4723 167.495 90.3777 168.063 87.824C168.063 87.7767 168.063 87.7767 168.11 87.7294C170.286 80.4465 176.386 84.75 180.122 87.0673M120.393 11.4479C120.298 11.4006 120.156 11.3533 120.109 11.306C118.123 13.1977 116.326 15.2312 114.103 16.8864C103.131 25.1625 91.0247 30.9794 77.6411 34.1479C75.5603 34.6681 74.6145 35.4721 74.3307 37.6002C73.9997 40.4377 73.4322 43.2752 72.6755 46.0181C70.5947 54.0104 67.237 61.5298 63.028 68.6709C62.3186 69.9005 61.8457 70.9882 63.1226 72.2178C72.8647 81.0613 83.5999 86.9255 97.4091 85.5067C110.414 84.1825 121.102 78.8386 127.96 67.5359C137.512 51.9296 136.046 35.945 128.858 19.9131C128.716 19.5821 128.338 19.3456 127.628 18.5889C127.77 20.1023 127.912 21.0008 127.96 21.9466C128.149 23.46 128.48 24.9733 128.432 26.4867C128.385 27.2906 127.628 28 127.203 28.8039C126.635 28.1419 125.737 27.5744 125.548 26.865C125.075 24.9733 124.933 22.9398 124.696 21.0008C124.413 18.4471 124.176 15.846 123.94 13.245C123.42 13.3396 123.183 13.3396 123.088 13.4814C122.379 14.4746 121.717 15.4677 121.008 16.4608C115.569 24.4058 108.806 30.6483 99.5372 33.9115C98.5441 34.2425 97.4091 34.4317 96.3687 34.479C96.0376 34.479 95.4701 33.9588 95.2809 33.5804C95.1864 33.344 95.5647 32.7765 95.8957 32.4927C96.1795 32.209 96.6997 32.0671 97.1253 31.9725C106.489 28.8985 113.346 22.7033 118.69 14.6637C119.4 13.576 119.873 12.441 120.393 11.4479ZM166.739 98.37C166.644 98.2754 166.55 98.2282 166.455 98.1336C165.036 99.5996 163.476 100.971 162.199 102.532C154.017 112.463 153.875 130.623 165.746 139.892C172.272 145.047 179.649 146.891 187.831 146.324C206.606 145 218.145 127.407 211.666 109.956C209.727 104.66 206.369 100.309 201.971 96.7148C202.066 98.3227 202.491 99.8361 202.68 101.349C202.917 103.052 203.011 104.754 203.011 106.457C203.011 106.551 202.964 106.646 202.964 106.693C202.586 107.403 201.593 107.497 201.025 106.883C200.931 106.788 200.883 106.646 200.836 106.551C200.363 105.227 200.174 103.856 199.843 102.437C199.228 100.025 198.803 97.5661 197.904 95.2961C197.573 94.4448 196.06 94.1138 195.066 93.5463C194.735 94.4448 194.121 95.3433 194.168 96.1946C194.263 99.3631 194.688 102.532 194.877 105.748C194.972 106.883 195.492 108.727 193.695 108.869C191.803 108.963 192.04 107.024 191.945 105.842C191.567 102.059 191.236 98.2281 191.047 94.3975C190.952 92.9315 190.432 92.2694 188.966 92.3167C188.446 92.3167 187.925 92.2694 187.453 92.2221C184.899 92.0802 184.71 92.2221 184.615 94.7286C184.473 98.4646 184.379 102.106 184.095 105.842C184.095 105.889 184.095 105.984 184.048 106.031C183.811 107.214 182.061 107.355 181.588 106.22C181.541 106.079 181.494 105.937 181.494 105.795C181.399 102.626 181.588 99.4104 181.494 96.2419C181.446 95.1069 182.345 93.3098 180.595 92.9315C178.704 92.5531 178.609 94.4921 178.183 95.769C176.717 100.073 175.346 104.376 173.785 108.585C173.738 108.68 173.691 108.774 173.643 108.869C172.981 109.72 171.562 109.294 171.373 108.207C171.326 108.018 171.326 107.876 171.326 107.686C171.279 107.355 171.515 106.977 171.61 106.599C172.745 103.005 173.927 99.4577 175.015 95.8163C175.157 95.2961 174.967 94.7286 174.92 94.2084C174.353 94.3029 173.549 94.2557 173.17 94.634C171.941 96.0054 170.711 97.4242 169.813 98.9848C168.157 101.917 166.739 104.991 165.178 108.018C164.705 108.916 164.09 109.72 163.428 110.524C163.192 110.808 162.53 111.139 162.293 110.997C161.962 110.76 161.584 110.146 161.679 109.767C161.915 108.585 162.199 107.403 162.672 106.315C163.996 103.619 165.415 101.018 166.739 98.37ZM184.993 223.788C191.047 223.598 197.147 223.315 203.201 223.173C204.95 223.126 205.565 222.416 205.471 220.95C205.092 216.363 204.761 211.776 204.336 207.188C204.147 205.107 203.768 204.824 201.451 204.871C190.668 205.107 179.839 205.391 169.009 205.628C167.448 205.675 166.597 206.101 166.455 207.567C165.935 212.343 165.367 217.167 164.8 221.943C164.611 223.551 165.415 224.071 167.117 224.071M76.4116 206.905C76.1279 207.756 74.9929 207.898 74.4727 207.141C73.9052 206.29 73.3377 205.533 72.6756 204.824C70.4056 202.412 67.8518 202.885 66.8114 206.006C66.102 208.134 65.771 210.499 65.6764 212.769C65.6764 213.147 65.8656 213.573 66.1966 213.951C66.6695 214.613 67.6627 214.518 68.0883 213.809C68.2302 213.525 68.372 213.289 68.4193 213.005C68.7504 211.917 68.6558 210.688 68.8922 209.6C69.0341 208.938 69.2233 208.323 69.4125 207.567C69.6489 206.715 70.7839 206.479 71.3041 207.188C71.5406 207.519 71.777 207.803 71.9189 208.087C72.8647 209.789 73.6214 211.634 74.6145 213.383C74.851 213.809 75.2766 214.14 75.7022 214.471C76.1752 214.85 76.8845 214.755 77.2629 214.235C77.5466 213.856 77.7831 213.478 77.925 213.052C78.4925 211.255 78.7762 209.316 79.391 207.519C79.722 206.668 80.526 205.486 81.2354 205.391C81.992 205.297 83.1743 206.101 83.6473 206.905C84.6877 208.607 85.3498 210.593 86.201 212.438C86.4848 213.005 87.005 213.951 87.2887 213.951C87.9508 213.856 88.6129 213.336 89.0858 212.816C89.4168 212.438 89.4641 211.728 89.6533 211.208C90.2208 209.789 90.6464 208.276 91.4031 206.999C92.6327 204.871 94.146 204.776 95.5175 206.857C96.6525 208.512 97.4091 210.357 98.4969 211.965C99.0171 212.769 100.01 213.667 100.861 213.667C101.429 213.667 102.28 212.343 102.611 211.539C103.179 209.837 103.415 208.04 103.935 206.384C104.55 204.445 105.638 204.256 106.915 205.864C107.53 206.668 107.955 207.614 108.428 208.512C108.901 209.411 109.232 210.404 109.8 211.208C110.083 211.681 110.887 212.107 111.313 212.012C111.739 211.917 112.117 211.113 112.259 210.593C112.542 209.695 112.353 208.607 112.779 207.803C113.157 207.046 113.725 206.384 114.292 205.722C114.671 205.297 115.333 205.202 115.806 205.533C116.515 206.053 117.224 206.573 117.697 207.283C118.549 208.512 118.88 210.12 119.731 211.397C120.204 212.107 121.102 212.863 121.859 212.911C122.379 212.958 123.183 211.917 123.514 211.208C124.271 209.6 124.791 207.898 125.5 206.29C125.642 206.006 125.926 205.77 126.21 205.533C126.683 205.202 127.345 205.249 127.723 205.675C127.912 205.911 128.101 206.148 128.243 206.432C128.858 207.708 129.236 209.08 129.993 210.262C130.088 210.451 130.324 210.546 130.608 210.641C131.317 210.83 132.074 210.31 132.027 209.553C132.027 209.506 132.027 209.458 131.979 209.411C131.506 207.756 131.034 206.101 130.371 204.493C129.709 202.979 128.622 201.75 126.777 201.702C124.933 201.655 123.94 203.027 123.183 204.445C122.899 204.966 122.663 205.533 122.426 206.101C122.048 206.952 120.866 206.999 120.44 206.195C119.494 204.493 118.407 203.121 116.468 202.506C113.961 201.702 112.401 202.696 111.266 204.445C110.84 205.06 109.941 205.107 109.469 204.54C108.192 202.979 106.915 201.561 104.692 202.081C102.138 202.601 101.476 204.54 100.956 206.573C100.72 207.519 99.4427 207.708 98.9225 206.857C97.8348 205.013 96.6525 203.358 94.3825 202.837C91.3558 202.175 89.8898 204.162 88.4237 206.148C87.9981 206.715 87.0995 206.763 86.6739 206.148C85.1133 204.114 83.6 202.175 80.6679 202.743C78.0668 203.121 77.121 204.871 76.4116 206.905Z" fill="white"/>
<path fill-rule="evenodd" clip-rule="evenodd" d="M218.121 177.261C218.072 176.971 218.047 176.674 218.047 176.37C218.047 175.753 218.152 175.161 218.345 174.61L138.429 169.046L138.339 169.04L138.25 169.046L52.3574 174.636C52.5446 175.18 52.6462 175.763 52.6462 176.37C52.6462 176.683 52.6191 176.99 52.5671 177.289L138.333 171.706L218.121 177.261ZM250.857 159.468L228.545 175.134C228.331 174.236 227.89 173.426 227.285 172.768L249.328 157.291L250.857 159.468ZM42.6813 173.77C42.2531 174.534 42.0077 175.413 42.0043 176.35L13.6152 166.727L14.4694 164.207L42.6813 173.77Z" fill="#BBBBBB"/>
<path d="M126.903 153.319L140.864 162.137L153.564 151.584L149.492 167.586L163.452 176.404L146.975 177.476L142.903 193.478L136.791 178.139L120.314 179.211L133.014 168.658L126.903 153.319Z" fill="white"/>
<path d="M244.285 147.363L250.484 152.933L257.697 148.758L254.316 156.375L260.515 161.945L252.226 161.083L248.845 168.7L247.103 160.55L238.814 159.688L246.027 155.513L244.285 147.363Z" fill="white"/>
<path d="M19.0827 151.753L18.6187 160.074L26.3891 163.087L18.332 165.217L17.868 173.538L13.3524 166.533L5.29525 168.663L10.5616 162.204L6.04599 155.199L13.8164 158.212L19.0827 151.753Z" fill="white"/>
<circle cx="47.3564" cy="176.107" r="2.82709" fill="#BBBBBB"/>
<circle cx="223.431" cy="175.221" r="2.82709" fill="#BBBBBB"/>
</svg>
