<svg width="302" height="264" viewBox="0 0 302 264" fill="none" xmlns="http://www.w3.org/2000/svg">
<path opacity="0.8" d="M300.106 39.1103L296.083 39.1103L296.083 39.011C296.232 38.3654 296.257 38.0674 296.257 36.5031L296.257 31.7851L291.216 36.5031C289.701 37.9185 288.857 38.7875 288.857 39.011L288.857 39.1104L286.895 39.1104L286.895 39.011C287.566 38.5392 288.187 37.9185 289.701 36.5031L291.365 34.9139L286.846 24.8572C286.026 23.0197 285.505 22.4735 284.983 22.0265L284.983 21.7285C287.144 21.1326 289.801 22.101 290.943 24.8324L294.121 32.4308L296.257 30.4443L296.257 24.3358C296.257 22.7714 296.232 22.4735 296.083 21.8278L296.083 21.7285L300.106 21.7285L300.106 21.8278C300.006 22.4735 299.981 22.7714 299.981 24.3358L299.982 36.5031C299.982 38.0674 300.006 38.3654 300.106 39.011L300.106 39.1103ZM274.929 21.3312C280.044 21.3312 284.117 25.4035 284.117 30.5188C284.117 35.634 280.044 39.7063 274.929 39.7063C269.814 39.7063 265.742 35.634 265.742 30.5188C265.742 25.4035 269.814 21.3312 274.929 21.3312ZM279.995 30.1463C279.995 25.5525 277.959 22.3741 275.028 22.3741C271.428 22.3741 269.566 26.7444 269.566 30.9409C269.566 35.4602 271.627 38.6634 274.582 38.6634C278.132 38.6634 279.995 34.3179 279.995 30.1463ZM262.643 39.1104L261.153 39.1104L253.703 27.1666L246.006 39.1104L244.516 39.1104C244.615 38.4648 244.64 38.1668 244.64 36.8507L244.64 24.3358C244.64 22.7714 244.615 22.4735 244.516 21.8279L244.516 21.7285L248.538 21.7285L248.538 21.8279C248.389 22.4735 248.365 22.7714 248.365 24.3358L248.365 33.5233L255.317 22.7714L255.342 22.7714L261.476 32.5549L261.476 24.3358C261.476 22.7714 261.451 22.4735 261.302 21.8279L261.302 21.7285L262.643 21.7285L262.643 21.8279C262.543 22.4735 262.518 22.7714 262.518 24.3358L262.518 36.8507C262.518 38.1668 262.543 38.4647 262.643 39.1104ZM240.795 39.1104L226.145 39.1104L226.145 39.011C226.244 38.3654 226.269 38.0675 226.269 36.5031L226.269 24.3358C226.269 22.7714 226.244 22.4735 226.145 21.8279L226.145 21.7285L230.167 21.7285L230.167 21.8279C230.018 22.4735 229.993 22.7714 229.993 24.3358L229.993 38.0675L236.946 38.0675L236.946 24.3358C236.946 22.7714 236.921 22.4735 236.772 21.8279L236.772 21.7285L240.795 21.7285L240.795 21.8279C240.696 22.4735 240.671 22.7714 240.671 24.3358L240.671 36.5031C240.671 38.0675 240.696 38.3654 240.795 39.011L240.795 39.1104ZM222.415 39.1104L218.392 39.1104L218.392 39.011C218.541 38.3654 218.566 38.0675 218.566 36.5031L218.566 22.7714L216.927 22.7714C214.072 22.7714 212.656 25.1056 212.656 27.4397C212.656 29.8483 214.171 32.2818 217.225 32.2818L217.573 32.2818L217.573 33.0267C216.977 33.1012 216.406 33.1509 215.81 33.1509C212.259 33.1509 208.981 31.6362 208.981 27.8618C208.981 24.013 211.688 21.7285 216.282 21.7285L222.415 21.7285L222.415 21.8279C222.316 22.4735 222.291 22.7714 222.291 24.3358L222.291 36.5031C222.291 38.0675 222.316 38.3654 222.415 39.011L222.415 39.1104ZM191.008 21.3312C196.098 21.3312 200.146 25.3539 200.196 30.4195L202.704 30.2953L202.704 24.3358C202.704 22.7715 202.679 22.4735 202.579 21.8279L202.579 21.7285L206.552 21.7285L206.552 21.8279C206.453 22.4735 206.428 22.7714 206.428 24.3358L206.428 36.5031C206.428 38.0675 206.453 38.3654 206.552 39.011L206.552 39.1104L202.579 39.1104L202.579 39.011C202.679 38.3654 202.704 38.0675 202.704 36.5031L202.704 31.2389L200.171 31.2389C199.798 36.0065 195.875 39.7063 191.008 39.7063C185.893 39.7063 181.821 35.634 181.821 30.5188C181.821 25.4036 185.893 21.3312 191.008 21.3312ZM196.074 30.1463C196.074 25.5525 194.037 22.3742 191.107 22.3742C187.507 22.3742 185.645 26.7444 185.645 30.9409C185.645 35.4602 187.706 38.6634 190.66 38.6634C194.211 38.6634 196.074 34.318 196.074 30.1463ZM179.092 39.1104L167.67 39.1104L167.67 37.8937L167.769 37.8937C168.415 38.0426 168.713 38.0675 170.029 38.0675L171.519 38.0675L171.519 24.3358C171.519 22.8211 171.494 22.548 171.37 21.952L171.345 21.8279L171.345 21.7285L175.417 21.7285L175.417 21.8279L175.393 21.952C175.268 22.548 175.244 22.8211 175.244 24.3358L175.244 38.0675L176.733 38.0675C178.05 38.0675 178.347 38.0426 178.993 37.8937L179.092 37.8937L179.092 39.1104ZM165.311 39.1104L154.435 39.1104L154.435 37.8192L154.534 37.8192C155.18 38.0675 155.552 38.0675 156.794 38.0675L161.462 38.0675L161.462 33.8213L156.372 33.8213L156.372 32.7784L161.462 32.7784L161.462 22.7715L155.875 22.7715C154.559 22.7715 154.261 22.7963 153.616 22.9453L153.516 22.9453L153.516 21.7286L165.311 21.7285L165.311 21.8279C165.212 22.4735 165.187 22.7715 165.187 24.3358L165.187 36.5031C165.187 38.0675 165.212 38.3654 165.311 39.0111L165.311 39.1104ZM144.356 39.1104C140.06 39.1104 137.353 37.0494 137.353 33.6227C137.353 29.749 140.879 27.7625 144.579 27.7625C145.026 27.7625 145.498 27.8122 145.945 27.8619L145.945 28.6068L145.622 28.6068C142.965 28.6068 141.078 30.3698 141.078 33.424C141.078 36.4038 142.518 38.0675 145.175 38.0675L146.938 38.0675L146.938 24.3358C146.938 22.7715 146.913 22.4735 146.814 21.8279L146.814 21.7286L150.787 21.7286L150.787 21.8279C150.687 22.4735 150.663 22.7715 150.663 24.3358L150.663 36.5031C150.663 38.0675 150.687 38.3655 150.787 39.0111L150.787 39.1104L144.356 39.1104Z" fill="#F6F1FF"/>
<path opacity="0.5" d="M265.582 4.35252L268.654 1.58052L264.358 1.58052L264.358 0.734517L269.998 0.734516L269.992 1.53852L266.086 5.06652C265.42 5.66652 265.252 6.19452 265.252 6.79452C265.252 7.86252 266.074 8.70252 267.136 8.70252C268.24 8.70252 269.056 7.81452 269.044 6.80052L269.944 6.80052C269.944 8.37852 268.726 9.54852 267.124 9.54852C265.552 9.54852 264.358 8.33052 264.358 6.78852C264.358 5.70252 264.742 5.10252 265.582 4.35252ZM260.034 0.728518L260.928 0.728518L260.928 8.38452L262.554 7.40652L262.554 8.39652L260.928 9.36852L260.034 9.36852L260.034 0.728518ZM254.273 6.29652C252.671 6.29652 251.429 5.03652 251.429 3.43452C251.429 1.83852 252.755 0.54852 254.357 0.54852C255.983 0.548519 257.279 1.84452 257.279 3.53052L257.279 6.52452C257.279 8.25852 256.001 9.54252 254.291 9.54252C253.307 9.54252 252.425 9.08652 251.885 8.31252L252.563 7.75452C252.929 8.32452 253.577 8.70252 254.291 8.70252C255.509 8.70252 256.385 7.71852 256.385 6.60252L256.385 5.27652C255.875 5.89452 255.113 6.29652 254.273 6.29652ZM254.357 1.40652C253.229 1.40652 252.317 2.30652 252.317 3.43452C252.317 4.56252 253.223 5.47452 254.351 5.47452C255.479 5.47452 256.385 4.56252 256.385 3.43452C256.385 2.31852 255.485 1.40652 254.357 1.40652ZM247.677 5.22852C248.865 5.22852 249.837 6.18852 249.837 7.38852C249.837 8.56452 248.829 9.54852 247.677 9.54852C246.489 9.54852 245.517 8.58852 245.517 7.38852C245.517 6.18852 246.489 5.22852 247.677 5.22852ZM247.677 6.02652C246.939 6.02652 246.315 6.65052 246.315 7.38852C246.315 8.12652 246.939 8.75052 247.677 8.75052C248.415 8.75052 249.039 8.12652 249.039 7.38852C249.039 6.65052 248.415 6.02652 247.677 6.02652ZM240.655 0.548523C242.257 0.548523 243.475 1.76652 243.475 3.36852L243.475 6.72852C243.475 8.33052 242.257 9.54852 240.655 9.54852C239.053 9.54852 237.835 8.33052 237.835 6.72852L237.835 3.36852C237.835 1.76652 239.053 0.548524 240.655 0.548523ZM240.655 1.40052C239.593 1.40052 238.729 2.26452 238.729 3.32652L238.729 6.77052C238.729 7.83852 239.593 8.70252 240.655 8.70252C241.717 8.70252 242.581 7.83852 242.581 6.77052L242.581 3.32652C242.581 2.26452 241.717 1.40052 240.655 1.40052ZM232.851 0.548525C234.453 0.548525 235.671 1.76652 235.671 3.36852L235.671 6.72852C235.671 8.33052 234.453 9.54852 232.851 9.54853C231.249 9.54853 230.031 8.33053 230.031 6.72853L230.031 3.36853C230.031 1.76653 231.249 0.548526 232.851 0.548525ZM232.851 1.40053C231.789 1.40053 230.925 2.26453 230.925 3.32653L230.925 6.77053C230.925 7.83853 231.789 8.70253 232.851 8.70253C233.913 8.70253 234.777 7.83853 234.777 6.77053L234.777 3.32652C234.777 2.26452 233.913 1.40052 232.851 1.40053ZM227.908 6.56653L227.35 9.44653L226.462 9.44653L227.302 6.56653L227.908 6.56653ZM226.384 6.56653L225.826 9.44653L224.938 9.44653L225.778 6.56653L226.384 6.56653ZM215.119 4.13053L220.159 4.13053L220.159 4.88653L215.119 4.88653L215.119 4.13053ZM207.19 6.29653C205.588 6.29653 204.346 5.03653 204.346 3.43453C204.346 1.83853 205.672 0.548532 207.274 0.548532C208.9 0.548531 210.196 1.84453 210.196 3.53053L210.196 6.52453C210.196 8.25853 208.918 9.54253 207.208 9.54253C206.224 9.54253 205.342 9.08653 204.802 8.31253L205.48 7.75453C205.846 8.32453 206.494 8.70253 207.208 8.70253C208.426 8.70253 209.302 7.71853 209.302 6.60253L209.302 5.27653C208.792 5.89453 208.03 6.29653 207.19 6.29653ZM207.274 1.40653C206.146 1.40653 205.234 2.30653 205.234 3.43453C205.234 4.56253 206.14 5.47453 207.268 5.47453C208.396 5.47453 209.302 4.56253 209.302 3.43453C209.302 2.31853 208.402 1.40653 207.274 1.40653ZM199.455 0.548534C201.057 0.548533 202.275 1.76653 202.275 3.36853L202.275 6.72853C202.275 8.33053 201.057 9.54853 199.455 9.54853C197.853 9.54853 196.635 8.33053 196.635 6.72853L196.635 3.36853C196.635 1.76653 197.853 0.548534 199.455 0.548534ZM199.455 1.40053C198.393 1.40053 197.529 2.26453 197.529 3.32653L197.529 6.77053C197.529 7.83853 198.393 8.70253 199.455 8.70253C200.517 8.70253 201.381 7.83853 201.381 6.77053L201.381 3.32653C201.381 2.26453 200.517 1.40053 199.455 1.40053ZM192.791 5.22854C193.979 5.22854 194.951 6.18853 194.951 7.38853C194.951 8.56454 193.943 9.54854 192.791 9.54854C191.603 9.54854 190.631 8.58854 190.631 7.38854C190.631 6.18854 191.603 5.22854 192.791 5.22854ZM192.791 6.02654C192.053 6.02654 191.429 6.65054 191.429 7.38854C191.429 8.12654 192.053 8.75054 192.791 8.75054C193.529 8.75054 194.153 8.12654 194.153 7.38854C194.153 6.65054 193.529 6.02654 192.791 6.02654ZM185.768 0.548537C187.37 0.548537 188.588 1.76654 188.588 3.36854L188.588 6.72854C188.588 8.33054 187.37 9.54854 185.768 9.54854C184.166 9.54854 182.948 8.33054 182.948 6.72854L182.948 3.36854C182.948 1.76654 184.166 0.548537 185.768 0.548537ZM185.768 1.40054C184.706 1.40054 183.842 2.26454 183.842 3.32654L183.842 6.77054C183.842 7.83854 184.706 8.70254 185.768 8.70254C186.83 8.70254 187.694 7.83854 187.694 6.77054L187.694 3.32654C187.694 2.26454 186.83 1.40054 185.768 1.40054ZM177.964 0.548539C179.566 0.548539 180.784 1.76654 180.784 3.36854L180.784 6.72854C180.784 8.33054 179.566 9.54854 177.964 9.54854C176.362 9.54854 175.144 8.33054 175.144 6.72854L175.144 3.36854C175.144 1.76654 176.362 0.548539 177.964 0.548539ZM177.964 1.40054C176.902 1.40054 176.038 2.26454 176.038 3.32654L176.038 6.77054C176.038 7.83854 176.902 8.70254 177.964 8.70254C179.026 8.70254 179.89 7.83854 179.89 6.77054L179.89 3.32654C179.89 2.26454 179.026 1.40054 177.964 1.40054ZM173.022 6.56654L172.464 9.44654L171.576 9.44654L172.416 6.56654L173.022 6.56654ZM171.498 6.56654L170.94 9.44654L170.052 9.44654L170.892 6.56654L171.498 6.56654Z" fill="#BBBBBB"/>
<g opacity="0.2">
<path d="M155.852 262.341C118.819 257.147 -0.303712 258.245 0.878633 208.84C6.45258 172.693 19.923 31.8663 61.7699 31.444C103.617 28.9103 239.292 37.3979 245.373 88.746C245.415 128.059 234.901 166.613 228.482 205.25C224.091 248.955 197.065 267.408 155.852 262.341ZM92.3 48.6726C77.3517 49.9816 59.743 49.306 50.5375 63.5365C33.14 106.312 24.3568 154.156 18.6562 199.972C18.3184 235.02 59.9964 237.427 86.0082 242.114C116.243 246.168 146.984 252.249 177.472 248.575C224.091 244.732 224.133 140.558 229.833 103.314C224.175 54.2043 130.642 55.5556 92.3 48.6726ZM202.681 61.9741C202.766 69.406 213.66 69.6171 213.787 62.1007C214.083 55.64 202.47 55.5133 202.681 61.9741ZM188.324 56.8224C188.324 64.2121 199.261 64.6343 199.43 57.1179C199.725 50.5305 188.24 50.4039 188.324 56.8224ZM172.7 52.2619C172.742 59.5671 183.468 59.9894 183.806 52.6419C184.27 45.9278 172.616 45.6322 172.7 52.2619ZM70.9332 38.2425C70.8909 45.6322 81.7855 46.0967 82.0389 38.5803C82.4189 31.9929 70.8487 31.7818 70.9332 38.2425Z" fill="white"/>
<path d="M79.5897 7.88123C83.2212 7.29005 86.8528 6.61441 90.4843 6.19214C107.248 4.29192 124.055 3.99632 140.861 4.96754C163.579 6.27657 186.086 9.06355 208.086 15.0598C210.705 15.7776 213.238 16.8755 215.814 17.8468C216.194 17.9734 216.447 18.3113 217.123 18.7757C201.035 25.6588 184.439 25.6165 167.506 25.0254C168.224 22.0272 166.113 21.1405 164.001 20.3382C156.105 17.3823 148.166 16.58 140.185 20.0848C139.763 20.2537 139.214 20.3382 138.792 20.2537C120.761 16.96 102.688 13.6663 84.6569 10.2882C82.9256 9.95035 81.2366 9.19026 79.5475 8.64131C79.5897 8.38795 79.5897 8.13459 79.5897 7.88123Z" fill="white"/>
<path d="M162.65 35.498C156.95 34.4424 151.46 33.3867 145.844 32.3732C145.844 28.8684 145.844 25.4902 145.844 21.8165C151.587 20.7608 157.161 21.2675 162.65 23.21C162.65 27.2638 162.65 31.2331 162.65 35.498Z" fill="white"/>
<path d="M149.053 245.999C139.89 246.633 128.869 244.31 117.721 242.621C101.59 240.172 85.4173 238.018 69.3288 235.443C60.0389 233.965 50.7912 231.98 42.1769 227.968C35.9695 225.097 30.3955 221.381 26.7218 215.343C23.977 210.824 23.0058 205.841 22.8791 200.605C22.668 190.893 24.526 181.434 26.384 171.975C32.1268 142.543 39.0098 113.407 46.5684 84.4388C48.0464 78.7804 50.1155 73.122 52.818 67.9281C57.1674 59.4827 65.0216 55.8511 74.016 54.331C83.9815 52.6419 93.9471 52.9797 103.913 53.9087C130.431 56.3579 156.57 61.1295 182.37 67.8014C192.04 70.2927 201.373 73.882 210.156 78.7804C222.064 85.3678 226.709 95.5867 225.864 108.804C224.64 127.215 221.599 145.415 218.221 163.53C215.476 178.309 212.732 193.131 209.607 207.826C208.425 213.4 206.398 218.932 204.16 224.21C199.388 235.358 190.858 242.03 178.908 244.352C169.66 246.168 160.455 246.084 149.053 245.999Z" fill="white"/>
<path d="M208.256 58.8919C210.536 58.8919 212.098 60.2854 212.141 62.3968C212.183 64.6348 210.916 65.8594 208.594 65.8594C206.482 65.8594 204.582 64.0436 204.54 62.0589C204.455 60.2854 206.06 58.8919 208.256 58.8919Z" fill="white"/>
<path d="M193.857 53.8245C196.137 53.7823 197.7 55.218 197.784 57.3294C197.826 59.5674 196.602 60.792 194.279 60.792C192.21 60.792 190.268 59.0185 190.183 57.0338C190.099 55.218 191.661 53.8668 193.857 53.8245Z" fill="white"/>
<path d="M178.275 49.1794C180.556 49.1794 182.118 50.6152 182.16 52.7265C182.16 54.9645 180.851 56.1891 178.571 56.1469C176.502 56.1047 174.559 54.2889 174.559 52.3042C174.475 50.5307 176.079 49.1794 178.275 49.1794Z" fill="white"/>
<path d="M76.4656 35.2445C78.7459 35.2445 80.3505 36.6379 80.3505 38.7493C80.3927 40.9873 79.1681 42.2119 76.8034 42.2119C74.6921 42.2119 72.7919 40.4384 72.7074 38.4115C72.6652 36.638 74.2698 35.2445 76.4656 35.2445Z" fill="white"/>
</g>
<path fill-rule="evenodd" clip-rule="evenodd" d="M172.124 220.984L170.225 220.086L89.6124 181.97C90.0146 181.178 90.2603 180.294 90.3087 179.357L169.464 216.783L169.464 139.776C169.556 139.78 169.649 139.782 169.743 139.782C170.581 139.782 171.383 139.631 172.124 139.355L172.124 218.883L172.124 220.984ZM88.7028 174.711L110.507 150.485L111.275 149.631L110.543 148.747L81.1566 113.238C80.6394 113.97 79.9818 114.595 79.2231 115.075L107.761 149.558L86.5732 173.1C87.3903 173.487 88.1144 174.038 88.7028 174.711ZM82.0775 107.206L111.734 94.2788L133.782 137.103C134.433 136.5 135.241 136.065 136.138 135.867L113.529 91.952L112.958 90.8432L111.814 91.3415L80.7728 104.873C81.3504 105.549 81.7982 106.34 82.0775 107.206ZM163.214 134.949L142.294 140.179C142.173 139.25 141.802 138.4 141.251 137.698L162.952 132.272C162.93 132.498 162.918 132.726 162.918 132.957C162.918 133.65 163.021 134.319 163.214 134.949Z" fill="#BBBBBB"/>
<circle cx="84.9787" cy="178.89" r="3.57504" transform="rotate(180 84.9787 178.89)" fill="#BBBBBB"/>
<circle cx="137.412" cy="139.781" r="2.46851" transform="rotate(180 137.412 139.781)" fill="#BBBBBB"/>
<circle cx="78.4954" cy="109.309" r="2.46851" transform="rotate(180 78.4954 109.309)" fill="#BBBBBB"/>
<circle cx="168.663" cy="134.845" r="3.33103" transform="rotate(180 168.663 134.845)" fill="#BBBBBB"/>
<path d="M172.25 234.559L168.731 223.727L157.341 223.727L166.555 217.033L163.036 206.201L172.25 212.896L181.464 206.201L177.945 217.033L187.159 223.727L175.769 223.727L172.25 234.559Z" fill="white"/>
<path d="M110.875 156.362L107.345 152.276L102.369 154.371L105.164 149.752L101.635 145.666L106.891 146.897L109.686 142.278L110.14 147.657L115.397 148.888L110.421 150.982L110.875 156.362Z" fill="white"/>
<path d="M111.589 105.02L108.985 97.0056L100.558 97.0056L107.375 92.0524L104.771 84.038L111.589 88.9912L118.406 84.038L115.802 92.0524L122.62 97.0056L114.193 97.0056L111.589 105.02Z" fill="white"/>
</svg>
