<svg width="175" height="316" viewBox="0 0 175 316" fill="none" xmlns="http://www.w3.org/2000/svg">
<path opacity="0.8" d="M152.988 36.8468L152.988 33.4201L153.559 33.4201C153.981 36.7227 156.464 38.6595 158.997 38.6595C162.002 38.6595 165.081 36.077 165.081 30.1424C165.081 24.754 162.3 22.3702 159.419 22.3702C156.936 22.3702 154.378 24.2326 153.559 27.4358L152.988 27.4358L152.988 24.1829C154.676 22.5192 157.135 21.3273 159.916 21.3273C165.031 21.3273 169.054 25.3996 169.054 30.5149C169.054 35.6301 165.031 39.7024 159.916 39.7024C157.11 39.7024 154.652 38.5105 152.988 36.8468ZM142.768 39.1064C139.565 39.1065 137.554 37.7159 137.554 35.3321C137.554 33.8422 138.572 32.6007 140.236 32.1289C137.405 31.8557 135.244 30.0679 135.244 27.2868C135.244 23.8601 137.951 21.7246 142.247 21.7246L149.398 21.7246L149.398 21.8239C149.299 22.4696 149.274 22.7675 149.274 24.3319L149.274 36.4992C149.274 38.0635 149.299 38.3615 149.398 39.0071L149.398 39.1064L142.768 39.1064ZM145.549 22.7675L142.942 22.7675C140.534 22.7675 138.969 24.4809 138.969 27.0385C138.969 29.7948 140.906 31.235 143.985 31.5081L144.556 31.5578L144.556 32.2034L144.258 32.253C142.321 32.5758 141.03 33.4698 141.03 35.4066C141.03 37.0455 142.197 38.0635 144.084 38.0635L145.549 38.0635L145.549 22.7675ZM132.401 39.1065L121.524 39.1065L121.524 37.8152L121.624 37.8152C122.269 38.0635 122.642 38.0635 123.883 38.0635L128.552 38.0635L128.552 33.8174L123.461 33.8174L123.461 32.7745L128.552 32.7745L128.552 22.7675L122.965 22.7675C121.649 22.7675 121.351 22.7924 120.705 22.9414L120.606 22.9414L120.606 21.7246L132.401 21.7246L132.401 21.8239C132.301 22.4696 132.276 22.7675 132.276 24.3319L132.276 36.4992C132.276 38.0635 132.301 38.3615 132.401 39.0071L132.401 39.1065ZM118.249 39.1065L106.826 39.1065L106.826 37.8897L106.926 37.8897C107.571 38.0387 107.869 38.0635 109.185 38.0635L110.675 38.0635L110.675 24.3319C110.675 22.8172 110.65 22.5441 110.526 21.9481L110.501 21.824L110.501 21.7246L114.574 21.7246L114.574 21.8239L114.549 21.9481C114.425 22.5441 114.4 22.8172 114.4 24.3319L114.4 38.0635L115.89 38.0635C117.206 38.0635 117.504 38.0387 118.149 37.8897L118.249 37.8897L118.249 39.1065ZM95.9006 21.3273C101.016 21.3273 105.088 25.3996 105.088 30.5149C105.088 35.6301 101.016 39.7024 95.9006 39.7024C90.7854 39.7024 86.7131 35.6301 86.7131 30.5149C86.7131 25.3996 90.7854 21.3273 95.9006 21.3273ZM100.966 30.1424C100.966 25.5486 98.93 22.3702 95.9999 22.3702C92.3994 22.3702 90.5371 26.7405 90.5371 30.937C90.5371 35.4563 92.5981 38.6595 95.553 38.6595C99.1038 38.6595 100.966 34.314 100.966 30.1424ZM76.2143 40.6957L72.2413 40.6957L72.2413 40.5963C72.3158 40.0749 72.3407 39.7769 72.3655 39.0071C67.2751 38.3864 63.8484 35.3321 63.8484 31.1853C63.8484 27.0633 67.2751 24.0091 72.3655 23.4132C72.3407 22.6434 72.3158 22.3454 72.2413 21.824L72.2413 21.7246L76.2143 21.7246L76.2143 21.824C76.1398 22.3454 76.115 22.6434 76.0902 23.4132C81.1806 24.0339 84.6073 27.0882 84.6073 31.235C84.6073 35.357 81.1806 38.4112 76.0902 39.0071C76.115 39.7769 76.1398 40.0749 76.2143 40.5963L76.2143 40.6957ZM80.7584 30.9618C80.7584 27.4855 79.0451 25.0768 76.0902 24.4064L76.0902 37.9891C79.0451 37.2441 80.7584 34.6865 80.7584 30.9618ZM72.3655 24.4312C69.4106 25.1762 67.6972 27.7338 67.6972 31.4585C67.6972 34.9348 69.4106 37.3435 72.3655 38.0139L72.3655 24.4312ZM52.545 21.3273C57.6602 21.3273 61.7325 25.3997 61.7325 30.5149C61.7325 35.6301 57.6602 39.7024 52.545 39.7024C47.4298 39.7024 43.3574 35.6301 43.3574 30.5149C43.3574 25.3997 47.4298 21.3273 52.545 21.3273ZM57.6105 30.1424C57.6105 25.5486 55.5744 22.3703 52.6443 22.3703C49.0438 22.3703 47.1814 26.7405 47.1814 30.937C47.1814 35.4563 49.2424 38.6595 52.1973 38.6595C55.7482 38.6595 57.6105 34.3141 57.6105 30.1424ZM33.8271 39.1065C29.5313 39.1065 26.8247 37.0455 26.8247 33.6188C26.8247 29.7451 30.3508 27.7586 34.0506 27.7586C34.4976 27.7586 34.9694 27.8083 35.4163 27.858L35.4163 28.6029L35.0935 28.6029C32.4366 28.6029 30.5494 30.3659 30.5494 33.4201C30.5494 36.3999 31.9896 38.0636 34.6466 38.0636L36.4096 38.0636L36.4096 24.3319C36.4096 22.7676 36.3847 22.4696 36.2854 21.824L36.2854 21.7246L40.2584 21.7246L40.2584 21.824C40.1591 22.4696 40.1342 22.7676 40.1342 24.3319L40.1342 36.4992C40.1342 38.0636 40.1591 38.3615 40.2584 39.0072L40.2584 39.1065L33.8271 39.1065Z" fill="#F6F1FF"/>
<path opacity="0.5" d="M143.076 4.34861L146.148 1.57661L141.852 1.57661L141.852 0.730611L147.492 0.73061L147.486 1.53461L143.58 5.06261C142.914 5.66261 142.746 6.19061 142.746 6.79061C142.746 7.85861 143.568 8.69861 144.63 8.69861C145.734 8.69861 146.55 7.81061 146.538 6.79661L147.438 6.79661C147.438 8.37461 146.22 9.54461 144.618 9.54461C143.046 9.54461 141.852 8.32661 141.852 6.78461C141.852 5.69861 142.236 5.09861 143.076 4.34861ZM137.528 0.724612L138.422 0.724612L138.422 8.38061L140.048 7.40261L140.048 8.39261L138.422 9.36461L137.528 9.36461L137.528 0.724612ZM131.767 6.29261C130.165 6.29261 128.923 5.03262 128.923 3.43062C128.923 1.83461 130.249 0.544614 131.851 0.544614C133.477 0.544614 134.773 1.84061 134.773 3.52661L134.773 6.52061C134.773 8.25461 133.495 9.53861 131.785 9.53861C130.801 9.53861 129.919 9.08261 129.379 8.30862L130.057 7.75061C130.423 8.32061 131.071 8.69861 131.785 8.69861C133.003 8.69861 133.879 7.71461 133.879 6.59861L133.879 5.27261C133.369 5.89061 132.607 6.29261 131.767 6.29261ZM131.851 1.40261C130.723 1.40261 129.811 2.30261 129.811 3.43061C129.811 4.55861 130.717 5.47061 131.845 5.47061C132.973 5.47061 133.879 4.55861 133.879 3.43061C133.879 2.31461 132.979 1.40261 131.851 1.40261ZM125.171 5.22462C126.359 5.22462 127.331 6.18462 127.331 7.38462C127.331 8.56062 126.323 9.54462 125.171 9.54462C123.983 9.54462 123.011 8.58462 123.011 7.38462C123.011 6.18462 123.983 5.22462 125.171 5.22462ZM125.171 6.02262C124.433 6.02262 123.809 6.64662 123.809 7.38462C123.809 8.12262 124.433 8.74662 125.171 8.74662C125.909 8.74662 126.533 8.12262 126.533 7.38462C126.533 6.64662 125.909 6.02262 125.171 6.02262ZM118.149 0.544618C119.751 0.544617 120.969 1.76262 120.969 3.36462L120.969 6.72462C120.969 8.32662 119.751 9.54462 118.149 9.54462C116.547 9.54462 115.329 8.32662 115.329 6.72462L115.329 3.36462C115.329 1.76262 116.547 0.544618 118.149 0.544618ZM118.149 1.39662C117.087 1.39662 116.223 2.26062 116.223 3.32262L116.223 6.76662C116.223 7.83462 117.087 8.69862 118.149 8.69862C119.211 8.69862 120.075 7.83462 120.075 6.76662L120.075 3.32262C120.075 2.26062 119.211 1.39662 118.149 1.39662ZM110.345 0.54462C111.947 0.54462 113.165 1.76262 113.165 3.36462L113.165 6.72462C113.165 8.32662 111.947 9.54462 110.345 9.54462C108.743 9.54462 107.525 8.32662 107.525 6.72462L107.525 3.36462C107.525 1.76262 108.743 0.544621 110.345 0.54462ZM110.345 1.39662C109.283 1.39662 108.419 2.26062 108.419 3.32262L108.419 6.76662C108.419 7.83462 109.283 8.69862 110.345 8.69862C111.407 8.69862 112.271 7.83462 112.271 6.76662L112.271 3.32262C112.271 2.26062 111.407 1.39662 110.345 1.39662ZM105.402 6.56262L104.844 9.44262L103.956 9.44262L104.796 6.56262L105.402 6.56262ZM103.878 6.56262L103.32 9.44262L102.432 9.44262L103.272 6.56262L103.878 6.56262ZM92.6133 4.12663L97.6533 4.12662L97.6533 4.88262L92.6133 4.88263L92.6133 4.12663ZM82.7165 8.50663L85.2485 6.08863C83.6765 6.10063 82.6145 4.97263 82.6145 3.35863C82.6145 1.69663 83.7785 0.550628 85.3685 0.550627C86.6525 0.550627 87.6845 1.27063 88.0505 2.44063L87.2105 2.69263C86.9225 1.83463 86.2085 1.38463 85.3805 1.40263C84.2285 1.42663 83.5265 2.20063 83.5265 3.35863C83.5265 4.53463 84.2765 5.31463 85.3925 5.31463C85.7045 5.31463 86.0705 5.21863 86.3645 5.07463L86.8085 5.77663L83.8385 8.51863L87.7085 8.51863L87.7085 9.36463L82.7165 9.36463L82.7165 8.50663ZM77.7577 0.544629C79.3597 0.544629 80.5777 1.76263 80.5777 3.36463L80.5777 6.72463C80.5777 8.32663 79.3597 9.54463 77.7577 9.54463C76.1557 9.54463 74.9377 8.32663 74.9377 6.72463L74.9377 3.36463C74.9377 1.76263 76.1557 0.54463 77.7577 0.544629ZM77.7577 1.39663C76.6957 1.39663 75.8317 2.26063 75.8317 3.32263L75.8317 6.76663C75.8317 7.83463 76.6957 8.69863 77.7577 8.69863C78.8197 8.69863 79.6837 7.83463 79.6837 6.76663L79.6837 3.32263C79.6837 2.26063 78.8197 1.39663 77.7577 1.39663ZM71.0934 5.22463C72.2814 5.22463 73.2534 6.18463 73.2534 7.38463C73.2534 8.56063 72.2454 9.54463 71.0934 9.54463C69.9054 9.54463 68.9334 8.58463 68.9334 7.38463C68.9334 6.18463 69.9054 5.22463 71.0934 5.22463ZM71.0934 6.02263C70.3554 6.02263 69.7314 6.64663 69.7314 7.38463C69.7314 8.12263 70.3554 8.74663 71.0934 8.74663C71.8314 8.74663 72.4554 8.12263 72.4554 7.38463C72.4554 6.64663 71.8314 6.02263 71.0934 6.02263ZM64.0711 0.544633C65.6731 0.544633 66.8911 1.76263 66.8911 3.36463L66.8911 6.72463C66.8911 8.32663 65.6731 9.54463 64.0711 9.54463C62.4691 9.54463 61.2511 8.32663 61.2511 6.72463L61.2511 3.36463C61.2511 1.76263 62.4691 0.544634 64.0711 0.544633ZM64.0711 1.39663C63.0091 1.39663 62.1451 2.26063 62.1451 3.32263L62.1451 6.76663C62.1451 7.83463 63.0091 8.69863 64.0711 8.69863C65.1331 8.69863 65.9971 7.83463 65.9971 6.76663L65.9971 3.32263C65.9971 2.26063 65.1331 1.39663 64.0711 1.39663ZM56.2669 0.544635C57.8689 0.544635 59.0869 1.76263 59.0869 3.36463L59.0869 6.72463C59.0869 8.32663 57.8689 9.54463 56.2669 9.54464C54.6649 9.54464 53.4469 8.32664 53.4469 6.72464L53.4469 3.36464C53.4469 1.76264 54.6649 0.544636 56.2669 0.544635ZM56.2669 1.39664C55.2049 1.39664 54.3409 2.26064 54.3409 3.32264L54.3409 6.76664C54.3409 7.83464 55.2049 8.69864 56.2669 8.69864C57.3289 8.69864 58.1929 7.83464 58.1929 6.76664L58.1929 3.32263C58.1929 2.26063 57.3289 1.39663 56.2669 1.39664ZM51.3247 6.56264L50.7667 9.44264L49.8787 9.44264L50.7187 6.56264L51.3247 6.56264ZM49.8007 6.56264L49.2427 9.44264L48.3547 9.44264L49.1947 6.56264L49.8007 6.56264Z" fill="#BBBBBB"/>
<g opacity="0.2">
<path d="M115.52 192.271C120.043 229.854 125.434 267.316 131.258 304.696C168.306 285.922 180.148 301.101 168.663 262.713C159.524 219.106 153.597 174.91 150.286 130.474C147.176 119.874 151.115 64.8053 141.908 66.908C123.732 61.8587 109.976 39.5285 100.236 30.1444C104.252 84.2929 109.1 138.386 115.52 192.271Z" fill="white"/>
<path d="M46.4722 212.082C61.5762 201.251 82.0413 211.156 93.7557 222.662C100.239 231.466 96.6843 232.881 107.465 239.239C110.832 255.364 106.938 276.093 94.8046 288.263C86.0617 295.641 75.0483 304.965 63.2892 299.577C41.6264 296 28.534 284.307 28.318 314.747C60.6161 310.123 100.676 311.82 129.145 304.032C127.61 294.165 126.056 284.322 124.583 274.45C117.197 224.861 110.925 175.086 106.292 125.161C88.5656 2.95373 127.106 26.3758 36.3163 51.305C40.351 76.2876 34.403 75.8087 46.7851 55.6393C55.9231 48.916 70.0924 41.3533 80.4595 49.591C85.396 53.8687 89.9616 59.1226 92.6631 65.0504C94.9054 66.8959 98.8378 67.5393 99.0921 70.761C101.347 90.0452 87.3625 114.193 66.6857 114.964C59.1377 113.25 47.8713 113.449 42.4381 108.777C52.7656 107.932 65.6328 117.175 76.0869 110.875C84.2222 105.542 91.9178 98.3864 95.1339 88.9625C99.7192 76.6702 97.5939 60.1586 80.8937 67.9749C67.183 77.3378 58.0867 91.5733 47.45 103.857C44.7299 105.468 41.9589 107.209 39.1347 108.599C40.283 114.712 38.0149 128.298 40.9092 130.859C56.4127 115.72 88.0493 115.742 91.0016 141.704C109.242 144.486 100.994 165.678 96.7611 177.247C91.9195 188.118 82.2125 195.941 71.7365 201.091C62.3203 199.78 52.8685 193.3 42.4507 194.53C34.4818 192.792 38.9834 211.012 36.9769 216.514C35.1079 227.154 41.9597 214.465 46.4722 212.082Z" fill="white"/>
<path d="M70.5404 299.434C86.4058 296.656 100.771 283.025 104.303 267.019C105.056 257.444 112.011 241.103 100.23 236.617C72.0814 239.687 60.481 276.554 37.7931 291.202C36.7238 292.096 35.5994 292.618 37.7492 292.546C48.8604 293.848 59.7521 296.406 70.5404 299.434Z" fill="white"/>
<path d="M39.7996 173.67C51.0531 184.946 58.0761 162.506 66.1783 156.129C70.9192 150.082 77.3652 144.821 84.4301 142.873C74.5832 104.544 18.2429 141.191 39.7996 173.67Z" fill="white"/>
<path d="M49.9129 93.3085C61.5341 87.6341 67.7681 67.0878 82.5705 63.9054C80.1371 45.1819 55.8591 48.0004 46.5829 59.8238C39.223 68.5819 36.6261 89.0659 49.9129 93.3085Z" fill="white"/>
<path d="M22.9499 271.63C40.3248 314.187 60.9437 240.606 91.4749 235.893C81.0103 187.886 7.45647 221.301 22.9499 271.63Z" fill="white"/>
<path d="M57.3916 194.454C82.7521 209.102 101.523 172.35 100.355 150.307C80.2192 126.679 58.0362 177.102 43.3851 187.849C32.3612 196.149 50.9117 190.695 57.3916 194.454Z" fill="white"/>
</g>
<path fill-rule="evenodd" clip-rule="evenodd" d="M84.0075 131.404C84.4882 129.927 85.4121 128.635 86.6357 127.702L56.2561 114.853C69.7076 100.052 93.2524 74.1819 94.6969 72.7344L91.5583 69.6022C89.9375 71.2263 63.7142 100.05 50.871 114.186L48.7679 116.5L51.6483 117.719L84.0075 131.404ZM89.1358 289.109L91.8273 141.338C91.8649 141.335 91.9025 141.332 91.9402 141.329C93.6219 141.174 95.1252 140.483 96.2967 139.44L93.5692 289.19L89.1358 289.109Z" fill="#BBBBBB"/>
<circle cx="89.7657" cy="134.72" r="4.76437" transform="rotate(174.747 89.7657 134.72)" fill="#BBBBBB"/>
<circle cx="97.7073" cy="65.4067" r="3.93977" transform="rotate(174.747 97.7073 65.4067)" fill="#BBBBBB"/>
<path d="M93.1471 309.648L87.7225 297.024L74.0399 298.282L84.3699 289.222L78.9453 276.598L90.7541 283.622L101.084 274.562L98.0524 287.964L109.861 294.988L96.1788 296.246L93.1471 309.648Z" fill="white"/>
<path d="M58.67 124.764L52.6797 118.344L44.7225 122.057L48.9775 114.376L42.9872 107.956L51.6072 109.629L55.8621 101.948L56.9346 110.663L65.5546 112.336L57.5975 116.049L58.67 124.764Z" fill="white"/>
</svg>
