<svg width="453" height="250" viewBox="0 0 453 250" fill="none" xmlns="http://www.w3.org/2000/svg">
<path opacity="0.8" d="M251.554 39.251L236.904 39.251L236.904 39.1517C237.003 38.506 237.028 38.2081 237.028 36.6437L237.028 24.4764C237.028 22.9121 237.003 22.6141 236.904 21.9685L236.904 21.8691L240.926 21.8691L240.926 21.9685C240.777 22.6141 240.753 22.9121 240.753 24.4764L240.753 38.2081L247.705 38.2081L247.705 24.4764C247.705 22.9121 247.681 22.6141 247.532 21.9685L247.532 21.8691L251.554 21.8691L251.554 21.9685C251.455 22.6141 251.43 22.9121 251.43 24.4764L251.43 36.6437C251.43 38.2081 251.455 38.506 251.554 39.1516L251.554 39.251ZM228.134 39.251C227.24 39.251 226.023 39.4248 225.377 39.9463L219.89 24.4764C219.17 22.4154 218.996 22.1175 218.921 21.9685L218.921 21.8691L223.341 21.8691L223.341 21.9685C223.341 22.1175 223.143 22.4154 223.863 24.4764L224.434 26.1401L232.082 26.1401L232.703 24.4764C233.497 22.4154 233.373 22.1175 233.373 21.9685L233.373 21.8691L234.937 21.8691L234.937 21.9685C234.863 22.1175 234.664 22.4154 233.87 24.4764L228.134 39.251ZM231.684 27.183L224.806 27.183L228.084 36.6189L231.684 27.183ZM210.861 39.251C206.565 39.251 203.858 37.19 203.858 33.7633C203.858 29.8896 207.384 27.9031 211.084 27.9031C211.531 27.9031 212.003 27.9528 212.45 28.0025L212.45 28.7474L212.127 28.7474C209.47 28.7474 207.583 30.5104 207.583 33.5646C207.583 36.5444 209.023 38.2081 211.68 38.2081L213.443 38.2081L213.443 24.4764C213.443 22.9121 213.418 22.6141 213.319 21.9685L213.319 21.8692L217.292 21.8691L217.292 21.9685C217.193 22.6141 217.168 22.9121 217.168 24.4764L217.168 36.6437C217.168 38.2081 217.193 38.506 217.292 39.1517L217.292 39.251L210.861 39.251ZM193.061 21.4719C198.176 21.4719 202.249 25.5442 202.249 30.6594C202.249 35.7746 198.176 39.8469 193.061 39.8469C187.946 39.8469 183.874 35.7746 183.874 30.6594C183.874 25.5442 187.946 21.4719 193.061 21.4719ZM198.127 30.2869C198.127 25.6932 196.091 22.5148 193.161 22.5148C189.56 22.5148 187.698 26.8851 187.698 31.0815C187.698 35.6008 189.759 38.804 192.714 38.804C196.264 38.804 198.127 34.4586 198.127 30.2869ZM174.145 39.251C170.942 39.251 168.93 37.8604 168.93 35.4767C168.93 33.9868 169.948 32.7452 171.612 32.2734C168.781 32.0003 166.621 30.2124 166.621 27.4313C166.621 24.0046 169.327 21.8692 173.623 21.8692L180.775 21.8692L180.775 21.9685C180.675 22.6141 180.651 22.9121 180.651 24.4764L180.651 36.6437C180.651 38.2081 180.675 38.5061 180.775 39.1517L180.775 39.251L174.145 39.251ZM176.926 22.9121L174.319 22.9121C171.91 22.9121 170.346 24.6254 170.346 27.183C170.346 29.9393 172.282 31.3795 175.361 31.6526L175.933 31.7023L175.933 32.3479L175.635 32.3976C173.698 32.7204 172.407 33.6143 172.407 35.5511C172.407 37.19 173.574 38.2081 175.461 38.2081L176.926 38.2081L176.926 22.9121ZM155.21 21.4719C160.325 21.4719 164.398 25.5442 164.398 30.6594C164.398 35.7746 160.325 39.8469 155.21 39.8469C150.095 39.8469 146.023 35.7746 146.023 30.6594C146.023 25.5442 150.095 21.4719 155.21 21.4719ZM160.276 30.2869C160.276 25.6932 158.24 22.5148 155.31 22.5148C151.709 22.5148 149.847 26.8851 149.847 31.0815C149.847 35.6008 151.908 38.804 154.863 38.804C158.413 38.804 160.276 34.4586 160.276 30.2869ZM142.501 37.6121C141.533 38.7295 139.497 39.6483 137.61 39.6483C134.506 39.6483 132.792 38.0839 132.792 36.2464C132.792 34.8311 133.711 33.664 135.3 32.919C132.296 32.3231 130.806 30.0635 130.806 27.7542C130.806 24.8489 133.165 21.6457 137.883 21.6457C140.738 21.6457 142.799 23.1604 143.743 24.8986L143.743 28.0273L143.097 28.0273C142.328 24.1288 140.49 22.6886 138.603 22.6886C136.194 22.6886 134.779 24.4764 134.779 27.481C134.779 29.7407 135.896 31.9506 138.777 31.9506C138.975 31.9506 139.174 31.9506 139.373 31.9258L139.373 32.6707C137.212 33.1425 136.07 34.7317 136.07 36.1223C136.07 37.6866 136.84 38.6054 138.131 38.6054C139.696 38.6054 141.558 37.041 141.856 34.2103L142.501 34.2103L142.501 37.6121Z" fill="#F6F1FF"/>
<path opacity="0.5" d="M237.408 4.2158L240.48 1.4438L236.184 1.4438L236.184 0.5978L241.824 0.597798L241.818 1.4018L237.912 4.9298C237.246 5.5298 237.078 6.0578 237.078 6.6578C237.078 7.7258 237.9 8.5658 238.962 8.5658C240.066 8.5658 240.882 7.6778 240.87 6.6638L241.77 6.6638C241.77 8.2418 240.552 9.4118 238.95 9.4118C237.378 9.4118 236.184 8.1938 236.184 6.6518C236.184 5.5658 236.568 4.9658 237.408 4.2158ZM231.86 0.591801L232.754 0.591801L232.754 8.2478L234.38 7.2698L234.38 8.2598L232.754 9.2318L231.86 9.2318L231.86 0.591801ZM226.098 6.1598C224.496 6.1598 223.254 4.8998 223.254 3.2978C223.254 1.7018 224.58 0.411803 226.182 0.411802C227.808 0.411802 229.104 1.7078 229.104 3.3938L229.104 6.3878C229.104 8.1218 227.826 9.4058 226.116 9.4058C225.132 9.4058 224.25 8.9498 223.71 8.1758L224.388 7.6178C224.754 8.1878 225.402 8.5658 226.116 8.5658C227.334 8.5658 228.21 7.5818 228.21 6.4658L228.21 5.1398C227.7 5.7578 226.938 6.1598 226.098 6.1598ZM226.182 1.2698C225.054 1.2698 224.142 2.1698 224.142 3.2978C224.142 4.4258 225.048 5.3378 226.176 5.3378C227.304 5.3378 228.21 4.4258 228.21 3.2978C228.21 2.1818 227.31 1.2698 226.182 1.2698ZM219.503 5.0918C220.691 5.0918 221.663 6.0518 221.663 7.2518C221.663 8.4278 220.655 9.4118 219.503 9.4118C218.315 9.4118 217.343 8.4518 217.343 7.2518C217.343 6.0518 218.315 5.0918 219.503 5.0918ZM219.503 5.8898C218.765 5.8898 218.141 6.5138 218.141 7.2518C218.141 7.9898 218.765 8.6138 219.503 8.6138C220.241 8.6138 220.865 7.9898 220.865 7.2518C220.865 6.5138 220.241 5.8898 219.503 5.8898ZM212.481 0.411806C214.083 0.411805 215.301 1.62981 215.301 3.23181L215.301 6.5918C215.301 8.19381 214.083 9.41181 212.481 9.41181C210.879 9.41181 209.661 8.19381 209.661 6.59181L209.661 3.23181C209.661 1.62981 210.879 0.411806 212.481 0.411806ZM212.481 1.26381C211.419 1.26381 210.555 2.12781 210.555 3.18981L210.555 6.63381C210.555 7.70181 211.419 8.56581 212.481 8.56581C213.543 8.56581 214.407 7.70181 214.407 6.63381L214.407 3.18981C214.407 2.12781 213.543 1.26381 212.481 1.26381ZM204.676 0.411808C206.278 0.411807 207.496 1.62981 207.496 3.23181L207.496 6.59181C207.496 8.19381 206.278 9.41181 204.676 9.41181C203.074 9.41181 201.856 8.19381 201.856 6.59181L201.856 3.23181C201.856 1.62981 203.074 0.411808 204.676 0.411808ZM204.676 1.26381C203.614 1.26381 202.75 2.12781 202.75 3.18981L202.75 6.63381C202.75 7.70181 203.614 8.56581 204.676 8.56581C205.738 8.56581 206.602 7.70181 206.602 6.63381L206.602 3.18981C206.602 2.12781 205.738 1.26381 204.676 1.26381ZM199.734 6.42981L199.176 9.30981L198.288 9.30981L199.128 6.42981L199.734 6.42981ZM198.21 6.42981L197.652 9.30981L196.764 9.30981L197.604 6.42981L198.21 6.42981ZM186.945 3.99381L191.985 3.99381L191.985 4.74981L186.945 4.74981L186.945 3.99381ZM179.016 6.15981C177.414 6.15981 176.172 4.89982 176.172 3.29782C176.172 1.70181 177.498 0.411814 179.1 0.411814C180.726 0.411814 182.022 1.70781 182.022 3.39381L182.022 6.38781C182.022 8.12181 180.744 9.40581 179.034 9.40581C178.05 9.40581 177.168 8.94981 176.628 8.17582L177.306 7.61781C177.672 8.18781 178.32 8.56581 179.034 8.56581C180.252 8.56581 181.128 7.58181 181.128 6.46581L181.128 5.13981C180.618 5.75781 179.856 6.15981 179.016 6.15981ZM179.1 1.26981C177.972 1.26981 177.06 2.16981 177.06 3.29781C177.06 4.42581 177.966 5.33781 179.094 5.33781C180.222 5.33781 181.128 4.42581 181.128 3.29781C181.128 2.18181 180.228 1.26981 179.1 1.26981ZM171.281 0.411816C172.883 0.411816 174.101 1.62982 174.101 3.23182L174.101 6.59182C174.101 8.19382 172.883 9.41182 171.281 9.41182C169.679 9.41182 168.461 8.19382 168.461 6.59182L168.461 3.23182C168.461 1.62982 169.679 0.411816 171.281 0.411816ZM171.281 1.26382C170.219 1.26382 169.355 2.12782 169.355 3.18982L169.355 6.63382C169.355 7.70182 170.219 8.56582 171.281 8.56582C172.343 8.56582 173.207 7.70182 173.207 6.63382L173.207 3.18982C173.207 2.12782 172.343 1.26382 171.281 1.26382ZM164.617 5.09182C165.805 5.09182 166.777 6.05182 166.777 7.25182C166.777 8.42782 165.769 9.41182 164.617 9.41182C163.429 9.41182 162.457 8.45182 162.457 7.25182C162.457 6.05182 163.429 5.09182 164.617 5.09182ZM164.617 5.88982C163.879 5.88982 163.255 6.51382 163.255 7.25182C163.255 7.98982 163.879 8.61382 164.617 8.61382C165.355 8.61382 165.979 7.98982 165.979 7.25182C165.979 6.51382 165.355 5.88982 164.617 5.88982ZM157.594 0.411819C159.196 0.411819 160.414 1.62982 160.414 3.23182L160.414 6.59182C160.414 8.19382 159.196 9.41182 157.594 9.41182C155.992 9.41182 154.774 8.19382 154.774 6.59182L154.774 3.23182C154.774 1.62982 155.992 0.41182 157.594 0.411819ZM157.594 1.26382C156.532 1.26382 155.668 2.12782 155.668 3.18982L155.668 6.63382C155.668 7.70182 156.532 8.56582 157.594 8.56582C158.656 8.56582 159.52 7.70182 159.52 6.63382L159.52 3.18982C159.52 2.12782 158.656 1.26382 157.594 1.26382ZM149.79 0.411821C151.392 0.411821 152.61 1.62982 152.61 3.23182L152.61 6.59182C152.61 8.19382 151.392 9.41182 149.79 9.41182C148.188 9.41182 146.97 8.19382 146.97 6.59182L146.97 3.23182C146.97 1.62982 148.188 0.411822 149.79 0.411821ZM149.79 1.26382C148.728 1.26382 147.864 2.12782 147.864 3.18982L147.864 6.63382C147.864 7.70182 148.728 8.56582 149.79 8.56582C150.852 8.56582 151.716 7.70182 151.716 6.63382L151.716 3.18982C151.716 2.12782 150.852 1.26382 149.79 1.26382ZM144.848 6.42982L144.29 9.30982L143.402 9.30982L144.242 6.42982L144.848 6.42982ZM143.324 6.42982L142.766 9.30982L141.878 9.30982L142.718 6.42982L143.324 6.42982Z" fill="#BBBBBB"/>
<path opacity="0.2" d="M5.14609 145.367C5.14609 147.229 5.14609 149.092 5.14609 150.954C5.14609 152.905 5.23478 154.945 5.23478 157.073C4.96873 157.251 4.61399 157.517 4.25925 157.871C3.54981 158.581 2.66297 159.202 2.04218 160C0.00248055 162.571 -0.174887 165.941 1.51011 168.779C2.66297 170.73 4.43663 172.061 6.38765 172.947C8.42735 173.834 10.5558 174.278 12.7728 174.366C13.1275 174.366 13.571 174.366 13.9257 174.366C64.3862 174.366 114.847 174.366 165.307 174.366C167.524 174.366 169.741 174.1 171.87 173.302C173.643 172.681 175.24 171.706 176.481 170.287C179.585 167.006 179.585 162.483 176.57 159.202C175.683 158.315 174.796 157.517 173.732 156.984C173.2 156.718 172.757 156.452 172.224 156.186C172.047 154.856 172.136 145.544 172.313 144.303C172.402 144.214 172.402 144.214 172.491 144.125C172.579 144.125 172.579 144.125 172.668 144.037C173.111 144.037 173.555 144.037 173.998 144.037C184.374 144.037 194.839 144.037 205.215 144.037C205.303 144.037 205.481 144.125 205.747 144.214C205.747 144.48 205.835 144.835 205.835 145.19C205.835 145.81 205.835 146.52 205.835 147.141C205.835 171.794 205.835 196.36 205.835 221.013C205.835 224.383 205.569 227.665 206.456 230.946C205.835 231.389 205.126 231.212 204.505 231.212C202.731 231.212 201.046 231.655 199.539 232.542C196.701 234.138 194.927 236.622 194.661 239.903C194.484 241.765 195.016 243.45 195.992 245.046C197.499 247.352 199.628 248.771 202.288 249.392C202.643 249.481 202.997 249.658 203.352 249.747L328.838 249.747C329.193 249.658 329.548 249.481 329.903 249.392C332.208 248.86 334.071 247.796 335.578 245.933C338.771 242.12 338.061 236.976 334.603 233.872C332.74 232.187 330.523 231.301 327.952 231.212C327.153 231.212 326.267 231.301 325.38 231.035C325.38 230.591 325.38 230.236 325.468 229.882C325.557 228.64 325.823 227.31 325.823 226.068C325.912 218.264 325.823 210.46 325.823 202.567C325.823 192.103 325.734 181.55 325.734 171.085C325.734 170.464 325.823 169.843 325.823 169.134C326.621 168.868 327.242 168.957 327.952 168.957C334.337 168.957 340.811 169.045 347.196 169.045C351.452 169.045 355.621 168.957 359.877 168.868C360.498 168.868 361.119 168.957 361.828 168.957C361.828 169.489 361.917 169.932 361.828 170.375C360.587 177.825 359.345 185.274 358.192 192.724C357.749 195.207 357.394 197.69 357.04 200.084C356.773 201.769 357.128 202.567 358.724 203.277C359.611 203.72 360.587 204.075 361.651 204.252C364.489 204.962 367.327 205.228 370.253 205.317C374.687 205.583 379.122 205.405 383.467 204.607C384.886 204.341 386.305 203.986 387.724 203.543C388.345 203.365 388.877 203.099 389.497 202.745C390.384 202.213 390.739 201.503 390.562 200.528C390.296 198.931 390.03 197.335 389.675 195.827C388.078 187.314 386.482 178.8 384.797 170.375C384.62 169.577 384.531 168.779 384.354 167.892C385.684 167.715 386.837 167.538 388.078 167.449C391.448 167.183 394.818 166.828 398.188 166.207C402.445 165.321 406.791 164.522 410.87 163.015C421.512 159.113 429.582 152.284 435.08 142.44C436.677 139.514 437.918 136.41 438.894 133.217C439.071 132.774 439.248 132.242 439.337 131.71C439.781 131.71 440.224 131.621 440.667 131.621C443.239 131.621 445.456 130.646 447.319 128.961C449.447 127.01 450.866 124.615 451.664 121.866C453.172 116.545 452.817 111.401 450.068 106.435C449.358 105.105 448.383 104.041 447.319 102.977C445.811 101.558 444.037 100.671 441.998 100.405C441.199 100.316 440.49 100.227 439.603 100.139C437.83 93.5762 434.992 87.5457 430.735 82.1361C426.478 76.7264 421.335 72.5584 415.304 69.1884C415.57 68.5676 415.747 68.1242 415.925 67.5921C417.432 64.0448 418.231 60.2314 418.053 56.3294C417.699 48.0819 414.329 41.4307 407.855 36.2871C404.485 33.6266 400.583 31.9416 396.326 31.2322C395.616 31.0548 394.818 31.1435 394.198 30.5227L389.231 30.5227C388.699 31.1435 387.812 31.0548 387.103 31.2322C384.975 31.5869 383.024 32.2077 381.073 33.0945C372.293 37.2626 367.061 44.0912 365.642 53.7576C364.932 58.5465 365.642 63.0693 367.504 67.5034C367.681 67.9468 367.947 68.3016 367.77 68.8337C367.593 68.8337 367.327 68.9224 367.061 68.9224C362.094 68.8337 357.039 68.8337 351.896 68.745C351.985 68.3016 352.073 67.9469 352.162 67.5921C353.492 64.4882 354.202 61.207 354.29 57.837C354.379 54.1123 353.847 50.565 352.339 47.1064C348.526 38.3268 341.963 33.0058 332.563 31.1435C331.765 30.9661 330.878 31.0548 330.169 30.434L325.557 30.434C324.936 31.0548 324.138 30.9661 323.429 31.1435C313.674 33.0945 306.845 38.6816 303.209 47.9046C300.815 54.1124 300.992 60.4088 303.386 66.7053C303.564 67.2374 303.83 67.7695 303.918 68.2129C303.741 68.745 303.386 68.6563 303.032 68.6563C298.952 68.6563 294.962 68.6563 290.882 68.6563C290.616 68.6563 290.439 68.5677 289.995 68.5677C289.907 67.3261 289.818 66.1732 289.729 64.9317C288.665 49.9443 278.023 36.0211 261.883 32.2077C240.333 27.0641 220.823 41.2534 217.098 60.8523C216.655 63.158 216.389 65.5525 216.389 67.9469C216.389 68.479 216.389 69.0111 216.389 69.5432C216.122 69.7205 215.945 69.8979 215.768 69.9866C210.447 72.2037 207.698 76.4604 206.367 81.8701C205.835 83.9098 205.658 86.0382 205.658 88.1666L205.658 111.845C205.658 112.554 205.569 113.264 205.569 113.973C204.771 114.328 204.062 114.151 203.441 114.151C197.144 114.151 190.848 114.151 184.551 114.151C181.093 114.151 177.634 114.151 174.176 114.151C173.555 114.151 172.934 114.062 172.313 114.062C171.87 113.353 172.047 112.554 172.047 111.934C172.047 104.839 172.047 97.6556 172.047 90.561C172.047 87.4571 171.692 84.4419 170.54 81.5154C168.5 76.2831 165.041 72.4697 159.809 70.3414C158.656 69.8979 157.326 69.5432 156.084 69.1885C155.996 68.7451 156.35 68.3016 156.528 67.8582C158.035 64.4883 158.833 60.941 158.833 57.2163C158.745 50.2104 156.439 44.0025 151.561 38.9476C147.571 34.7795 142.782 32.2077 137.017 31.1435C136.308 31.0549 135.598 31.0549 135.066 30.5228L129.657 30.5228C129.125 31.1435 128.238 31.1435 127.528 31.2322C118.926 32.7398 110.058 39.2137 107.043 49.9443C105.446 55.7087 105.712 61.4731 108.018 67.0601C108.284 67.6809 108.462 68.213 108.728 68.9224C108.373 69.0111 108.195 69.0998 107.929 69.0998C105.003 69.2772 69.0864 69.0998 67.6675 68.9224C67.4014 68.3903 67.7561 67.9469 67.9335 67.5035C69.6185 63.5128 70.328 59.4334 69.9732 55.0879C69.5298 48.4367 66.8693 42.8497 62.1691 38.2382C58.3558 34.4248 53.7443 32.0304 48.3346 31.1436C47.7138 31.0549 46.9157 31.0549 46.3836 30.4341L40.9739 30.4341C40.4418 31.0549 39.7324 30.9662 39.0229 31.1436C33.7906 32.0304 29.2678 34.3362 25.4544 37.9722C20.3108 42.9384 17.5617 49.0575 17.2956 56.2408C17.207 60.4976 18.0051 64.4883 19.7787 68.3904C19.8674 68.5677 19.9561 68.8338 20.1335 69.1885C19.7787 69.3659 19.424 69.5432 19.0693 69.6319C12.6841 71.3169 8.60472 75.5737 6.21028 81.6041C5.14608 84.1759 4.79134 86.9251 4.79134 89.6742C4.79134 96.9462 4.79135 104.307 4.79135 111.579L4.79135 113.53M391.98 45.244C399.341 45.4214 403.687 51.3632 403.509 57.3049C403.332 63.7787 397.922 68.9224 391.448 68.745C384.886 68.5676 379.831 63.2467 380.008 56.6841C380.186 50.7424 384.886 45.1554 391.98 45.244ZM316.334 56.9502C316.068 51.8066 320.236 45.2441 328.129 45.3327C335.224 45.3327 339.835 51.0085 339.835 57.1276C339.835 63.6014 334.603 68.8337 328.129 68.9224C321.034 68.8337 315.979 62.8033 316.334 56.9502ZM253.369 51.3632C262.326 51.3632 269.776 58.4578 269.864 67.6808C269.864 77.5246 261.883 84.1758 253.547 84.0872C244.412 84.0872 237.14 76.8152 237.052 67.7695C236.963 58.7239 244.146 51.3632 253.369 51.3632ZM238.825 155.211C239.535 155.122 240.244 155.122 240.954 155.122L292.035 155.122C292.744 155.122 293.454 155.122 294.163 155.211C297.622 155.654 299.307 158.315 299.307 160.709C299.307 161.152 299.307 161.596 299.307 162.039L299.307 204.607C299.307 205.05 299.307 205.494 299.307 205.937C299.307 209.13 296.824 211.436 293.72 211.613C293.365 211.613 293.099 211.613 292.744 211.613C275.274 211.613 257.803 211.613 240.333 211.613C239.535 211.613 238.648 211.524 237.85 211.347C235.455 210.726 233.77 208.686 233.682 206.203C233.682 205.76 233.682 205.317 233.682 204.873L233.682 162.039C233.682 161.685 233.682 161.241 233.682 160.886C233.504 158.226 235.633 155.565 238.825 155.211ZM132.672 45.2441C139.146 45.2441 144.555 50.299 144.467 57.1276C144.378 64.843 137.816 69.0998 132.672 68.7451C126.73 69.0998 120.7 63.6015 121.055 57.0389C120.7 51.3632 125.4 45.3328 132.672 45.2441ZM44.0778 45.2441C51.3498 45.3328 56.05 51.4519 55.6953 57.0389C55.9613 62.7147 51.1725 68.7451 43.9892 68.7451C37.6927 68.7451 32.283 63.7789 32.1943 57.039C32.1943 50.4764 37.4266 45.1555 44.0778 45.2441Z" fill="white"/>
<path fill-rule="evenodd" clip-rule="evenodd" d="M276.44 188.587L277.249 189.147L278.021 188.536L381.206 106.912L379.555 104.825L277.143 185.839L195.227 129.234C194.685 129.961 194.037 130.604 193.306 131.141L276.44 188.587ZM179.046 125.68C178.92 125.077 178.854 124.452 178.854 123.812C178.854 123.545 178.865 123.281 178.888 123.019L110.118 123.02C110.141 123.281 110.152 123.545 110.152 123.812C110.152 124.452 110.086 125.077 109.96 125.68L179.046 125.68ZM92.1765 125.68C92.0505 125.077 91.9842 124.452 91.9842 123.812C91.9842 123.545 91.9957 123.281 92.0183 123.02L64.9579 123.02L52.0425 98.3281C51.3286 98.8483 50.536 99.267 49.6859 99.5629L62.9738 124.966L63.3471 125.68L64.1525 125.68L92.1765 125.68ZM102.706 114.875C103.625 115.042 104.496 115.348 105.296 115.769L107.572 91.1038L107.707 89.6513L106.248 89.6513L55.6857 89.6513C55.7494 90.0855 55.7824 90.5297 55.7824 90.9816C55.7824 91.4334 55.7494 91.8776 55.6857 92.3118L104.789 92.3118L102.706 114.875Z" fill="#BBBBBB"/>
<circle cx="187.485" cy="124.886" r="4.62646" transform="rotate(180 187.485 124.886)" fill="#BBBBBB"/>
<circle cx="101.987" cy="123.812" r="4.62646" transform="rotate(180 101.987 123.812)" fill="#BBBBBB"/>
<circle cx="46.7192" cy="90.9819" r="4.62646" transform="rotate(180 46.7192 90.9819)" fill="#BBBBBB"/>
<path d="M55.7584 134.714L58.6838 125.435L50.7632 119.786L60.4918 119.701L63.4172 110.422L66.5044 119.648L76.233 119.563L68.4124 125.35L71.4996 134.576L63.579 128.927L55.7584 134.714Z" fill="white"/>
<path d="M276.763 205.12L272.806 192.94L259.998 192.94L270.36 185.412L266.402 173.232L276.763 180.76L287.124 173.232L283.167 185.412L293.528 192.94L280.721 192.94L276.763 205.12Z" fill="white"/>
<path d="M380.381 129.513L374.908 112.667L357.196 112.667L371.525 102.257L366.052 85.4113L380.381 95.8222L394.711 85.4113L389.237 102.257L403.567 112.667L385.854 112.667L380.381 129.513Z" fill="white"/>
<path d="M111.033 101.191L105.687 95.1288L98.2691 98.3396L102.383 91.382L97.037 85.3196L104.925 87.082L109.039 80.1244L109.801 88.1712L117.689 89.9336L110.271 93.1444L111.033 101.191Z" fill="white"/>
</svg>
