<svg width="97" height="105" viewBox="0 0 97 105" fill="none" xmlns="http://www.w3.org/2000/svg">
<g opacity="0.2">
<path d="M95.1318 24.2635C93.8639 23.0366 92.5961 21.7892 91.2056 20.685C86.7887 17.1473 81.7992 15.0002 76.0939 14.7957C75.4805 14.7753 75.1124 14.5912 74.8261 14.0391C72.7199 10.2152 69.7139 7.25013 65.9923 5.04166C57.1379 -0.172775 47.7315 -1.05207 37.9979 1.97435C31.2907 4.06012 25.8309 7.94539 22.2932 14.2027C22.1297 14.489 21.6184 14.7344 21.2504 14.7548C18.4693 14.9184 15.7905 15.4501 13.214 16.493C8.8584 18.2311 5.27987 21.053 2.04896 24.3657C0.22902 26.247 0.188122 28.1283 2.02851 29.9687C4.17563 32.1363 6.3432 34.3039 8.53122 36.4714C10.8419 38.7617 13.623 38.1482 14.7885 35.1014C15.218 33.9562 15.6883 32.8315 16.2609 31.7478C17.2015 29.9278 18.5307 28.4146 20.187 26.9218C20.8823 30.5617 22.375 33.6699 24.5835 36.3896C26.8124 39.1502 29.5526 41.2769 32.5176 42.9946C32.4767 44.0579 31.9655 44.5487 31.1476 44.9372C26.7306 47.0434 22.3341 49.1906 17.9581 51.3581C15.9541 52.3397 13.9092 53.2803 11.9666 54.405C10.1671 55.4274 9.24693 57.1451 9.12423 59.2105C8.83795 63.7092 13.4594 67.3695 18.2239 65.0588C20.5755 63.9137 22.9272 62.7685 25.2788 61.6234C25.8922 61.3167 26.5261 61.0304 27.3032 60.6623C27.1396 61.2144 27.0578 61.5621 26.9556 61.9301C25.2788 67.5536 23.5815 73.177 21.9047 78.8208C21.4344 80.3954 22.1501 81.336 23.786 81.3769C24.7675 81.3974 25.7491 81.3769 26.7511 81.3769H30.7386V82.6447C30.7386 87.2457 30.7386 91.8262 30.7386 96.4272C30.7386 98.7379 31.4543 100.762 33.0493 102.46C34.3171 103.789 35.953 104.402 37.6707 104.873H39.7156C41.5969 104.443 43.3146 103.727 44.6437 102.255C46.1978 100.517 46.7704 98.4516 46.7704 96.1614C46.75 91.6831 46.7704 87.1844 46.7704 82.7061V81.4587H50.533C50.5534 81.8063 50.5739 82.1744 50.5739 82.522C50.5739 87.1026 50.5739 91.7036 50.5739 96.2841C50.5739 99.7604 51.9644 102.46 55.1749 104.055C55.9519 104.443 56.8312 104.607 57.6696 104.873H59.51C64.5199 103.932 66.8511 100.21 66.6671 95.2821C66.5035 91.0287 66.6262 86.7754 66.6262 82.522V81.3974C68.9164 81.3974 71.0636 81.3974 73.2107 81.3974C75.3169 81.3974 75.9917 80.5181 75.3782 78.4936C74.0695 74.1381 72.7608 69.7825 71.4521 65.4269C71.0022 63.9137 70.5523 62.4005 70.0411 60.6828C70.5932 60.9486 70.9613 61.1122 71.3089 61.2962C74.2536 62.6867 77.1368 64.2613 80.1428 65.4678C84.069 67.0219 88.3223 63.8932 88.261 59.6603C88.2201 56.8997 86.7682 55.0389 84.3348 53.8529C78.3229 50.9287 72.3109 47.9841 66.2785 45.0599C65.5424 44.6918 64.7653 44.3033 64.888 43.4445C64.9494 43.015 65.6446 42.6061 66.115 42.2993C70.8795 39.2729 74.5194 35.3263 76.4007 29.9278C76.7074 29.0281 76.9324 28.0874 77.1982 27.0854C77.4436 27.2899 77.5663 27.3922 77.689 27.5149C79.9383 29.6211 81.5129 32.1567 82.5353 35.0809C83.6804 38.3527 86.4615 38.9457 88.9153 36.4919C90.9807 34.4265 93.0664 32.3612 95.1318 30.2959C97.1766 28.1079 97.1971 26.2675 95.1318 24.2635ZM48.6108 57.8608C52.5983 57.8404 55.9724 61.1735 55.9724 65.1815C55.9928 69.169 52.5983 72.5431 48.6108 72.5226C44.6437 72.5022 41.3515 69.2099 41.2901 65.2428C41.2697 61.2553 44.6028 57.8813 48.6108 57.8608ZM41.6991 46.3277C46.4023 47.1866 50.9011 47.207 55.5429 46.3277C53.2936 49.7018 44.3984 49.9063 41.6991 46.3277ZM67.8122 36.6964C63.4157 40.6839 58.1195 42.7287 52.2507 43.3831C45.3595 44.1397 38.8363 42.9741 32.8857 39.2729C27.9167 36.1851 24.3995 31.9727 23.4588 26.0017C23.2339 24.6111 23.4179 23.1797 23.4179 21.7279C33.8468 19.867 42.1285 14.489 48.6721 6.1459C49.2038 6.8616 49.6741 7.59776 50.2672 8.25212C56.4631 15.1434 63.8656 19.9488 73.1698 21.5234C73.7628 21.6256 73.9264 21.871 73.9673 22.4436C74.3149 28.2306 72.0042 32.8929 67.8122 36.6964Z" fill="white"/>
<path d="M48.5276 37.5347C46.0329 37.4734 43.8653 36.6145 41.984 34.9786C41.7387 34.7742 41.3297 34.7742 41.0229 34.631C40.5935 34.4265 40.021 34.2834 39.796 33.9153C39.5915 33.5881 39.6529 32.9133 39.8574 32.6066C40.3072 31.9522 40.9207 31.4001 41.5342 30.8684C41.984 30.4799 42.5975 30.3981 43.0065 30.8275C43.3337 31.1752 43.6199 31.7477 43.579 32.1976C43.5381 32.6679 43.6608 32.8724 43.9676 33.1178C46.769 35.4899 50.7566 35.449 53.4558 32.9951C53.6194 32.852 53.7012 32.5043 53.6807 32.2794C53.5989 31.6659 53.7421 31.1547 54.2737 30.8071C54.8463 30.439 55.4189 30.5413 55.9097 30.9707C56.4209 31.441 56.9934 31.8909 57.3615 32.4839C57.6069 32.8724 57.6478 33.5063 57.5251 33.9562C57.3615 34.5083 56.8094 34.6719 56.2164 34.6515C55.9301 34.6515 55.562 34.7946 55.3166 34.9991C53.4149 36.6554 50.9406 37.5961 48.5276 37.5347Z" fill="white"/>
<path d="M39.4903 24.6115C39.4903 26.3292 38.9586 27.1267 37.8135 27.1062C36.6684 27.1062 36.1367 26.2883 36.1367 24.591C36.1367 24.2843 36.1367 23.9776 36.1572 23.6708C36.2594 22.6484 36.9342 21.9531 37.834 21.9736C38.7337 21.9736 39.429 22.6893 39.4903 23.6913C39.4903 23.998 39.4903 24.3047 39.4903 24.6115Z" fill="white"/>
<path d="M57.8118 24.5296C57.7913 22.7915 58.323 21.994 59.4477 21.9531C60.5928 21.9122 61.1653 22.771 61.1653 24.55C61.1653 24.8568 61.1653 25.1635 61.1449 25.4702C61.0631 26.4518 60.4292 27.0857 59.5294 27.1061C58.5888 27.1266 57.914 26.4722 57.8322 25.4498C57.7913 25.1431 57.8118 24.8363 57.8118 24.5296Z" fill="white"/>
</g>
<path fill-rule="evenodd" clip-rule="evenodd" d="M16.6482 83.9095L16.2885 84.6233L17.0874 84.6495C22.8841 84.8402 31.6386 85.0779 39.0627 85.1715C42.774 85.2183 46.1574 85.2291 48.6739 85.1797C49.931 85.155 50.9792 85.1152 51.7464 85.0566C52.1288 85.0273 52.4518 84.9927 52.7 84.9507C52.8236 84.9299 52.9393 84.9055 53.0393 84.8756C53.1233 84.8506 53.258 84.8046 53.3703 84.7123L53.4927 84.6117L53.5366 84.4594L64.7693 45.4946L63.7881 45.2118L52.8242 83.2442L33.3903 59.6072C33.2361 59.9298 33.026 60.2195 32.7733 60.4646L52.1219 83.9977C51.9879 84.012 51.8368 84.0256 51.6686 84.0384C50.9304 84.0949 49.9049 84.1342 48.6538 84.1588C46.154 84.2078 42.7837 84.1972 39.0755 84.1505C31.9942 84.0612 23.6977 83.8406 17.92 83.655L29.3435 60.9905C29.0305 60.8327 28.7498 60.6219 28.5126 60.3704L16.6482 83.9095Z" fill="white"/>
<circle cx="30.8642" cy="58.1995" r="1.7601" transform="rotate(92.9628 30.8642 58.1995)" fill="white"/>
<circle cx="64.7042" cy="43.7195" r="0.997532" transform="rotate(92.9628 64.7042 43.7195)" fill="white"/>
<path d="M57.4077 80.4205L55.2988 83.43L57.5092 86.3657L53.9954 85.29L51.8864 88.2995L51.8237 84.6251L48.3098 83.5494L51.7849 82.3543L51.7221 78.6799L53.9326 81.6157L57.4077 80.4205Z" fill="white"/>
<path d="M20.1227 82.3798L18.9038 84.1191L20.1814 85.8159L18.1505 85.1941L16.9316 86.9335L16.8953 84.8099L14.8644 84.1881L16.8729 83.4974L16.8366 81.3738L18.1142 83.0705L20.1227 82.3798Z" fill="white"/>
</svg>
