<svg width="76" height="96" viewBox="0 0 76 96" fill="none" xmlns="http://www.w3.org/2000/svg">
<g opacity="0.1">
<path d="M52.771 30.9188C50.6277 33.3564 49.2408 33.6085 46.4251 32.1796C46.0468 31.9695 45.3744 31.9275 44.9962 32.0956C39.827 34.8693 34.9099 34.8273 30.119 31.171C29.7407 30.8768 28.564 31.213 28.0177 31.5913C25.286 33.3984 22.3862 33.9867 19.2762 32.8941C16.8807 32.0535 15.3678 30.5406 14.8635 27.8509C12.3419 14.9069 20.7892 2.80341 34.0694 0.660078C39.7009 -0.264495 45.3324 -0.348547 50.8378 1.41655C59.4531 4.23229 64.034 10.3681 65.2948 19.1515C65.5889 21.3369 65.715 23.6063 65.5889 25.8337C65.1687 31.8854 61.3023 34.2809 55.5447 32.2216C54.5781 31.8434 53.6956 31.3391 52.771 30.9188Z" fill="white"/>
<path d="M43.9038 58.7819C43.1894 58.1515 42.517 57.479 41.8025 56.8487C41.1301 56.2183 40.4577 55.6299 39.6592 54.8734C41.4663 53.4866 43.2314 52.1417 45.0385 50.7549C46.3413 51.6374 47.6021 52.52 48.9049 53.4025C48.989 53.3185 49.073 53.2344 49.1571 53.1083C48.1484 52.1417 47.1398 51.1751 46.0051 50.0825C46.2993 49.6202 46.5515 49.1159 47.0978 48.2753C46.2152 48.7376 45.753 48.9898 45.2066 49.284C43.6096 47.645 42.0126 46.0059 40.3316 44.2829C41.9706 43.0221 43.6517 41.8033 45.4167 40.4585C48.5687 43.6105 50.7541 47.771 55.2929 49.4941C53.948 54.201 52.6452 58.8659 51.2584 63.825C50.2077 63.1105 49.4092 62.5642 48.6107 61.9758C48.5687 62.0179 48.4847 62.0599 48.4426 62.1019C48.9049 62.6062 49.3672 63.1105 50.1657 64.0351C48.5687 65.548 46.9297 67.061 45.2486 68.616C43.1894 67.3552 41.3822 66.2205 39.323 65.0017C45.0385 61.4715 49.7034 57.0588 53.6539 51.8896C48.7368 56.0922 43.8618 60.2948 38.6926 64.6655C36.5913 62.7323 34.49 60.8411 32.3887 58.9079C32.7249 58.6138 32.8089 58.4877 32.935 58.4036C36.6753 55.3357 40.2896 54.8314 43.6096 59.5804C43.6937 59.3702 43.7777 59.076 43.9038 58.7819Z" fill="white"/>
<path d="M34.5314 68.7419C35.1618 68.1535 35.7922 67.5652 36.4226 67.0188C36.3386 66.8928 36.2545 66.7246 36.1284 66.5986C35.414 67.0609 34.6575 67.5231 33.9431 67.9854C31.2114 65.8841 30.0347 63.1104 29.4463 59.4121C30.4129 59.5382 31.5056 59.3281 31.9258 59.7483C35.3299 63.5727 39.0282 66.9768 43.7772 69.4143C43.2729 69.8346 43.0207 70.0447 42.7265 70.2548C38.3978 73.2387 37.8935 73.1126 34.5314 68.7419Z" fill="white"/>
<path d="M50.0814 34.4488C51.3842 36.6342 52.687 38.8615 54.1579 41.257C53.1073 42.2656 51.8465 43.4424 50.4176 44.7872C48.9047 43.1902 47.4338 41.6353 46.0049 40.1643C47.1816 38.6514 48.1902 37.3486 49.2409 36.0038C49.1148 35.8777 48.9887 35.7936 48.8626 35.6676C47.6859 36.7602 46.5092 37.8529 45.2064 39.1137C44.1977 37.7268 43.2732 36.5081 42.3906 35.2893C43.6094 34.4908 44.7021 33.8184 45.7947 33.146C47.2657 33.6083 48.7366 34.0706 50.2495 34.5329L50.0814 34.4488Z" fill="white"/>
<path d="M50.9642 64.5817C49.7455 68.9104 48.5687 73.1971 47.2659 77.8619C44.7444 76.391 42.4329 75.0462 39.6172 73.4072C42.6431 72.4826 43.9879 68.8684 47.6442 70.4233C47.1819 70.0031 46.7196 69.5828 46.2153 69.0785C47.6862 67.5235 49.1991 65.9265 50.7121 64.3716C50.7541 64.4556 50.8802 64.5397 50.9642 64.5817Z" fill="white"/>
<path d="M33.7754 49.4526C35.6245 48.0237 37.3056 46.6789 39.0707 45.292C40.7517 46.847 42.3907 48.4019 44.2819 50.167C42.4328 51.5118 40.6677 52.7726 38.7765 54.1595C37.0534 52.5205 35.4564 51.0496 33.7754 49.4526Z" fill="white"/>
<path d="M28.2703 54.0328C27.9761 53.5705 27.6819 53.1082 27.3457 52.5199C29.0267 51.7634 30.5397 50.9649 32.1367 50.3345C32.5569 50.1664 33.3554 50.3345 33.6916 50.6707C35.0365 51.8895 36.2552 53.1923 37.7682 54.7052C35.919 55.6718 34.196 56.6804 32.3888 57.521C32.0526 57.6891 31.2541 57.3108 30.8759 56.9326C29.9093 56.05 29.1108 54.9994 28.2703 54.0328Z" fill="white"/>
<path d="M33.9852 34.9533C33.8171 35.2895 33.3968 35.7098 33.4388 35.9619C33.7751 37.0967 34.2794 38.1893 34.8257 39.5762C32.8925 40.7529 30.9173 42.0137 28.816 43.3165C27.6393 41.7615 26.5886 40.3747 25.7061 39.198C27.8074 37.601 29.7406 36.004 31.7998 34.6171C32.2201 34.3229 33.1867 34.8272 33.9432 34.9533H33.9852Z" fill="white"/>
<path d="M38.6504 44.7878C36.8012 46.0906 35.0361 47.3094 33.0609 48.6962C31.7161 47.0992 30.4133 45.5863 28.9844 43.8632C31.1277 42.6445 33.1029 41.5098 35.2463 40.291C36.3389 41.7619 37.3896 43.1488 38.6504 44.7878Z" fill="white"/>
<path d="M50.1651 34.4909C51.0897 33.7764 52.0143 33.104 52.8127 32.4736C54.83 33.104 56.7212 33.7344 58.8645 34.4068C58.3602 36.7183 57.8138 39.1137 57.2675 41.5933C56.1748 41.131 56.1748 41.131 56.9313 38.6935C56.1748 39.1978 55.5865 39.6181 54.83 40.1644C53.233 38.2732 51.678 36.3821 50.0811 34.4489L50.1651 34.4909Z" fill="white"/>
<path d="M35.2041 75.7187C37.7257 73.9956 39.911 74.3318 42.1804 76.349C43.2311 77.2736 44.744 77.7359 46.341 78.5344C44.9962 79.543 43.7354 80.4676 42.4746 81.3501C42.2225 81.5183 41.6761 81.6023 41.508 81.4762C39.4067 79.585 37.3474 77.6098 35.2882 75.6766L35.2041 75.7187Z" fill="white"/>
<path d="M44.6179 39.6602C42.9788 41.0891 41.4659 42.4339 39.7428 43.9468C38.6081 42.56 37.5575 41.2992 36.5068 40.0384C37.7676 38.5675 38.9023 37.0966 40.2051 35.7938C40.4573 35.5416 41.55 35.6677 41.8441 36.0039C42.8528 37.0545 43.6513 38.3153 44.6179 39.6602Z" fill="white"/>
<path d="M45.5424 84.5855C45.3743 85.384 45.1642 86.3086 44.912 87.2332C44.4498 89.0403 43.3151 89.6286 41.8021 88.662C40.4153 87.8215 39.1545 86.7709 37.7256 85.7202C40.2471 83.3668 42.6006 82.19 45.5424 84.5855Z" fill="white"/>
<path d="M25.2861 45.2076C29.8249 43.0643 29.6989 48.1074 32.2625 48.7799C32.2204 48.948 32.2204 49.1161 32.1784 49.2842C30.5814 50.1247 29.0265 50.9652 27.2193 51.9318C26.5469 49.6204 25.9585 47.477 25.2861 45.2076Z" fill="white"/>
<path d="M25.1604 38.3152C24.572 37.4327 24.2358 36.8863 23.8996 36.34C23.8156 36.382 23.6895 36.424 23.6054 36.4661C23.7735 37.1385 23.8996 37.7689 24.0677 38.4413C23.8996 38.4833 23.6895 38.5674 23.5214 38.6094C23.1011 37.3906 22.7229 36.2139 22.4287 35.2893C24.9923 34.3648 27.3458 33.4822 29.9934 32.5156C30.1195 32.6417 30.7078 33.146 31.5063 33.8605C29.363 35.3734 27.3037 36.8023 25.1604 38.3152Z" fill="white"/>
<path d="M50.9219 45.3335C52.3508 44.0727 53.6115 42.938 55.0404 41.7192C55.6288 42.0554 56.1751 42.3496 56.9736 42.7699C56.4693 44.7871 55.923 46.8044 55.3346 49.1158C53.7376 47.729 52.3928 46.5943 50.9219 45.3335Z" fill="white"/>
<path d="M35.2465 75.6346C34.8682 75.1303 34.3219 74.668 34.1118 74.1217C33.3553 72.1044 32.7249 70.0872 32.3467 67.9438C34.0697 69.751 35.7928 71.5581 37.5159 73.3652C36.8014 74.1217 36.0029 74.9202 35.2465 75.7187C35.2045 75.7187 35.2465 75.6346 35.2465 75.6346Z" fill="white"/>
<path d="M40.6675 82.2749C39.7009 82.9893 38.7763 83.7037 37.6416 84.5443C36.8851 82.3169 36.1707 80.1736 35.2461 77.4839C37.3474 79.333 38.9444 80.7619 40.6675 82.2749Z" fill="white"/>
<path d="M44.0717 90.596C43.3993 92.3611 42.7689 94.1262 42.0965 95.8913C41.8864 95.8913 41.6342 95.8913 41.4241 95.8913C40.9198 94.7566 40.4575 93.6219 39.9111 92.4032C41.298 91.5626 42.4327 90.8902 43.5674 90.1758C43.7775 90.3019 43.9456 90.4279 44.0717 90.596Z" fill="white"/>
<path d="M33.9014 34.9952C35.5824 35.2053 37.2635 35.4154 39.3648 35.7096C38.0199 36.8443 36.9693 37.7689 35.5824 38.9456C34.994 37.4747 34.4897 36.2139 33.9434 34.9531C33.9854 34.9531 33.9014 34.9952 33.9014 34.9952Z" fill="white"/>
<path d="M24.4039 39.1982C25.4126 40.6271 26.3792 42.098 27.5139 43.695C26.7574 43.9892 26.085 44.2414 25.1604 44.5776C24.6561 42.8125 24.1518 41.1735 23.6475 39.5344C23.8996 39.4084 24.1518 39.2823 24.4039 39.1982Z" fill="white"/>
<path d="M46.719 79.459C46.3408 81.098 46.1307 82.1907 45.7945 83.5355C44.7858 83.1153 43.9873 82.779 42.7266 82.2747C44.1134 81.3081 45.1641 80.5517 46.719 79.459Z" fill="white"/>
<path d="M38.4404 87.1914C39.9954 88.2841 41.046 89.0406 42.2648 89.8811C41.4243 90.3854 40.7519 90.8477 39.8273 91.394C39.407 90.0912 39.0288 88.9565 38.4404 87.1914Z" fill="white"/>
<path d="M28.2705 54.0332C29.027 55.4201 29.7834 56.8069 30.5819 58.2778C29.8675 58.9082 29.1531 59.4125 28.8589 57.8576C28.6067 56.5968 28.4386 55.294 28.2705 54.0332Z" fill="white"/>
</g>
<path fill-rule="evenodd" clip-rule="evenodd" d="M48.6461 67.88L49.7308 68.2504L49.4122 67.1493L44.1528 48.973C43.8143 49.199 43.4194 49.3248 43.0161 49.3389L47.9471 66.38L31.7699 60.8559L31.3842 61.9854L48.6461 67.88ZM40.8436 46.5789C40.8964 46.3894 40.976 46.204 41.0835 46.0278C41.1916 45.8507 41.321 45.6945 41.4662 45.5605L27.1022 36.7279C27.0666 36.8053 27.0262 36.8815 26.9806 36.9561C26.8063 37.2417 26.5767 37.4729 26.314 37.6444L40.8436 46.5789ZM43.9294 45.2214C43.9791 45.2467 44.0283 45.2742 44.0767 45.3038C44.3853 45.4921 44.6303 45.7449 44.8052 46.0342L52.0676 37.4318C52.0227 37.4085 51.9783 37.3834 51.9344 37.3567C51.6209 37.1653 51.3729 36.9073 51.1975 36.6121L43.9294 45.2214ZM35.1094 18.0607L52.6356 33.3641C52.2176 33.4491 51.8252 33.6561 51.516 33.971L34.853 19.4214L25.916 33.7934C25.4736 33.6196 24.9973 33.6003 24.5571 33.7185L34.21 18.1951L34.5807 17.599L35.1094 18.0607Z" fill="white"/>
<circle cx="42.9801" cy="47.1853" r="1.39695" transform="rotate(31.4028 42.9801 47.1853)" fill="white"/>
<circle cx="52.6136" cy="35.6617" r="0.990792" transform="rotate(31.4028 52.6136 35.6617)" fill="white"/>
<circle cx="25.1497" cy="35.9254" r="0.990792" transform="rotate(31.4028 25.1497 35.9254)" fill="white"/>
<path d="M33.7007 67.7623L30.7675 63.4362L25.7466 64.889L28.9546 60.7624L26.0214 56.4363L30.9373 58.2121L34.1453 54.0855L33.9755 59.3096L38.8914 61.0854L33.8705 62.5383L33.7007 67.7623Z" fill="white"/>
<path d="M52.1561 67.8553L49.3626 67.8893L48.5317 70.5566L47.6361 67.9103L44.8425 67.9443L47.0826 66.2748L46.187 63.6285L48.467 65.243L50.7071 63.5735L49.8761 66.2408L52.1561 67.8553Z" fill="white"/>
<path d="M36.3997 26.6013L33.2873 22.0109L27.9597 23.5524L31.3637 19.1738L28.2513 14.5834L33.4674 16.4677L36.8714 12.0891L36.6912 17.6322L41.9074 19.5165L36.5799 21.0581L36.3997 26.6013Z" fill="white"/>
</svg>
