<svg width="109" height="77" viewBox="0 0 109 77" fill="none" xmlns="http://www.w3.org/2000/svg">
<g opacity="0.1">
<path d="M93.4199 50.2456C93.4199 50.2846 93.4199 50.2846 93.4199 50.3236C93.4589 50.2846 93.4199 50.2846 93.4199 50.2456Z" fill="white"/>
<path d="M93.4199 50.2456C93.4199 50.2846 93.4199 50.2846 93.4199 50.3236C93.4589 50.2846 93.4199 50.2846 93.4199 50.2456Z" fill="white"/>
<path d="M107.542 54.3032C105.474 50.597 102.158 48.4904 98.2961 47.203C87.9579 44.082 90.5717 47.5541 90.4937 36.6697C90.4937 33.2367 90.4937 29.8036 90.3766 26.3706C90.3376 24.615 89.4013 23.2496 87.9579 22.1963C85.4221 20.4017 82.6913 19.1924 79.6483 18.6462C78.517 18.4121 77.8928 17.944 78.0878 16.6566C79.2582 7.41073 68.686 7.33271 66.0331 14.862C65.7991 15.4472 64.9408 16.1104 64.3946 16.1104C63.6924 16.1104 62.8732 15.6033 62.288 15.0571C61.8589 14.706 61.7028 14.0038 61.5077 13.4966C60.6105 10.9608 58.7769 9.40034 56.3191 8.50306C54.9927 7.99591 54.7197 6.86456 55.6169 5.81124C56.0071 5.30408 56.6312 5.031 57.0604 4.56285C57.5285 4.09471 58.1527 3.58755 58.2698 3.00237C58.5428 1.01276 57.9186 0.115483 55.812 0.466591C52.8861 1.09078 53.4323 4.67989 53.3152 6.9816C53.2762 7.76184 53.1982 8.26899 52.3789 8.54208C49.8822 9.36133 48.2047 10.9998 47.1903 13.4186C47.1123 13.5746 47.0733 13.8087 46.9173 13.8867C46.02 14.2768 45.1227 14.823 44.1474 15.0181C43.9133 15.0571 43.4452 14.0818 43.0941 13.5746C42.3138 12.4433 41.6897 11.1169 40.7144 10.1806C36.7741 6.6695 29.869 9.12726 30.9223 15.6423C31.2344 17.2027 30.5322 17.6319 29.1668 18.139C26.8261 19.0753 24.5244 20.1677 22.3787 21.4941C20.2721 22.7424 19.2187 24.8491 19.1407 27.3069C18.9066 33.0026 18.7506 38.6984 18.6726 44.3941C18.6336 46.5008 18.5945 46.5398 16.6049 47.0859C11.6894 48.4514 7.08601 50.3629 3.4969 54.1471C-0.0531889 57.9703 -0.287261 62.2616 2.8337 66.4749C5.36948 69.908 9.03661 71.5075 12.8988 72.5218C23.5881 75.3306 34.6285 75.9158 45.5909 76.8911C49.7651 76.8911 53.9394 76.8911 58.2307 76.8521C71.8459 75.5257 85.8122 75.5257 98.7252 70.3371C101.924 69.1277 104.733 67.2942 106.762 64.4853C109.102 61.2473 109.532 57.8923 107.542 54.3032ZM93.4586 50.2849V50.2459C93.4196 50.2849 93.4586 50.2849 93.4586 50.2849ZM22.4567 24.1469C23.198 23.4837 24.0172 22.9375 24.7975 22.3523C25.9288 24.2249 26.67 24.654 27.7624 24.1859C28.8157 23.7568 28.9717 23.0545 28.4646 20.9869C29.4009 20.5968 30.3372 20.0896 31.3125 19.8946C31.8196 19.7775 32.5218 20.2067 33.068 20.5188C34.3944 21.221 35.6428 22.3133 37.0472 22.6644C39.8561 23.3666 42.2748 21.6501 43.2501 18.8022C43.5622 17.7879 45.3958 16.8906 46.3711 17.3198C46.6442 17.4368 46.8002 17.8659 46.9563 18.178C48.2047 21.377 50.8185 22.7034 53.9784 22.8595C56.9824 23.0155 59.5181 21.7671 61.0006 19.0363C61.5858 17.905 62.327 17.6709 63.3803 17.905C64.4727 18.139 65.682 18.022 66.0331 19.6605C66.7354 22.8205 69.5832 24.3419 72.5872 23.2886C73.7965 22.8595 74.9669 22.1183 75.9032 21.26C76.7224 20.4797 77.4246 20.2457 78.3999 20.6748C78.8291 20.8309 79.2582 20.9869 79.7263 21.0649C80.8577 21.299 81.5599 21.7281 81.4039 23.1326C81.3649 23.6787 82.0671 24.654 82.6132 24.7711C83.2374 24.9271 84.0177 24.3419 84.6809 23.9908C84.8759 23.8738 84.9149 23.5227 85.227 22.9375C85.7732 23.5617 86.3974 23.9908 86.4364 24.459C86.4754 24.8101 85.8122 25.3953 85.3051 25.5903C83.2764 26.2925 81.2088 26.8777 79.1412 27.5409C78.478 24.9661 77.7367 24.3419 76.3323 24.7711C75.201 25.1222 74.8498 26.2535 75.396 28.0481C73.5234 28.2822 71.6509 28.5162 69.9734 28.7113C69.5832 27.736 69.2711 26.8777 68.842 26.1755C68.6469 25.9024 68.0228 25.8244 67.5936 25.8244C66.3062 25.8634 65.8381 26.6827 65.7991 29.0624C63.9655 29.1794 62.1319 29.2575 60.3374 29.3355C60.6495 27.775 60.0643 26.2925 58.7379 26.2535C57.3725 26.0585 56.9043 28.1261 57.2164 29.4135C55.1878 29.4525 53.1592 29.4525 51.1306 29.3745C51.2476 27.6189 50.5844 26.2535 49.5311 26.2145C48.5168 26.1365 47.8145 27.4629 47.7755 29.2575C46.059 29.1794 44.3425 29.0624 42.6259 28.9454C42.6259 28.9063 42.6259 28.8283 42.6259 28.7893C42.665 27.0728 41.8457 25.7464 40.4413 25.7464C39.7391 25.7854 39.2709 27.0338 39.2319 28.6723C37.5544 28.5162 35.9159 28.3212 34.2774 28.0871C33.8873 26.7997 33.7702 25.6683 33.224 24.8491C32.99 24.498 31.6246 24.459 31.1564 24.8101C30.5712 25.2392 30.3372 26.2145 29.791 27.2678C27.6063 27.2678 25.1096 26.6046 22.6908 25.6293C21.8716 25.1612 21.9886 24.537 22.4567 24.1469ZM20.8182 42.1704C20.9353 39.7907 22.1837 37.684 23.1199 35.5774C23.393 35.0312 23.9782 34.6411 24.4073 34.212C25.4607 35.6944 25.4216 37.45 25.7337 39.1665C26.0458 42.1314 28.7767 44.1991 31.3905 42.0924C33.185 40.5709 34.5895 38.6203 36.306 37.0208C36.7351 36.6307 37.4764 36.3186 37.9835 36.4747C38.3346 36.5917 38.6467 37.3329 38.7638 37.8791C38.9978 38.8934 39.0759 39.9467 39.3489 40.9611C40.2072 44.3551 43.2111 45.2524 45.7079 42.8726C46.6052 42.0144 47.2684 40.922 48.0486 39.9077C48.5168 39.2445 48.8679 38.5033 49.414 37.8791C49.8432 37.411 50.5064 37.1769 51.0525 36.8648C51.3256 37.3329 51.6767 37.8011 51.8718 38.3472C52.7691 41.0781 53.3542 44.004 56.7873 44.2381C60.0253 44.4331 61.0006 39.9858 62.5221 37.8401C62.7951 37.411 63.4193 36.9038 63.8485 36.9038C64.2386 36.9428 64.6677 37.606 64.8628 38.1132C65.3699 39.2835 65.682 40.5319 66.2672 41.6633C67.7497 44.5892 70.7146 44.8623 72.6262 42.1314C73.3674 41.0781 73.8355 39.8297 74.3817 38.6203C74.9669 37.567 75.0449 36.0065 76.2933 35.5384C76.4493 35.4994 76.8785 36.0455 77.0735 36.3576C77.6197 37.3719 78.0098 38.4253 78.556 39.4006C80.6236 43.0287 84.0957 43.2238 86.6705 39.9077C87.0606 39.4396 87.3727 38.8934 87.9189 38.1522C87.9189 40.1028 88.0359 41.7023 87.9579 43.2628C87.8018 44.5892 86.6705 44.9403 85.5391 45.0183C72.4311 46.1887 59.2451 46.1497 46.059 45.9936C38.2176 45.7595 30.4152 44.8623 22.5738 44.3161C21.2084 44.199 20.7012 43.4578 20.8182 42.1704ZM87.4507 48.9195C87.3727 50.0118 87.3337 51.1042 87.2167 52.1965C87.1776 52.5866 86.9826 52.9377 86.7095 53.679C86.0463 52.5476 85.5781 51.8064 85.032 51.0261C83.5495 48.3733 80.4676 48.3733 78.9851 50.9871C78.1659 52.6256 77.8928 53.9521 77.1125 55.7856C76.0202 54.4202 75.8642 53.4059 75.201 51.9624C74.0696 49.6217 71.4948 49.3096 69.9734 51.4163C69.2711 52.3916 68.881 53.6009 68.3348 54.6933C68.1788 55.0444 67.9837 55.3565 67.6326 56.0197C67.0474 54.6543 66.6573 53.6009 66.1892 52.5476C65.682 51.3773 64.7848 50.7141 63.4193 50.7141C61.9759 50.7531 61.2347 51.6503 60.6885 52.7817C60.1033 53.952 59.5571 55.1224 59.011 56.2928H58.5818C58.3868 55.7466 58.1527 55.2004 57.9967 54.6543C57.4895 53.0158 57.2164 51.1432 54.9927 50.9091C52.7691 50.7141 52.0278 52.4306 51.1696 54.0301C50.8185 54.6933 50.4283 55.3955 50.0382 56.0587C49.9212 56.0197 49.8041 56.0197 49.6481 55.9807C49.336 54.9274 49.0239 53.835 48.6338 52.7817C47.6195 49.9338 45.1617 49.5047 43.2501 51.8454C42.4309 52.8207 41.8847 53.9911 41.1435 55.0444C40.9484 55.3565 40.5583 55.4735 40.2072 55.7076C39.427 54.6543 39.427 53.2889 38.9588 52.0795C38.1006 49.6607 35.7208 48.9585 33.7702 50.636C32.3268 51.8454 31.4685 53.757 29.752 54.6933C29.4789 54.2642 29.0498 53.874 28.8937 53.4059C28.6206 52.5086 28.5036 51.5723 28.2695 50.636C27.4893 47.9052 25.0705 47.203 22.9249 49.0365C22.4567 49.4657 22.0276 49.8558 21.5204 50.2849C21.3644 50.0508 21.2474 49.9338 21.2084 49.8168C20.4281 46.7348 20.6622 46.4227 23.8612 46.7738C44.4205 48.9975 65.0968 48.9585 85.7342 47.437C87.1386 47.32 87.5678 47.7491 87.4507 48.9195ZM94.2388 59.4137C93.1855 60.272 92.0932 61.2473 90.8448 61.5594C76.0982 65.8897 60.7275 66.5139 45.4348 66.1628C41.6116 66.1238 7.78822 64.9144 15.2005 57.3071C15.8247 56.7219 16.6049 56.2928 17.3072 55.8636C18.3605 55.2395 19.2187 55.0054 19.921 56.5659C20.3111 57.4241 21.5204 58.0483 22.4957 58.3214C38.6077 63.0419 55.5779 63.7051 72.236 62.0666C75.9812 61.6764 79.6873 60.5841 83.3935 59.8429C86.1243 58.8286 89.2843 57.8533 89.3623 54.1471C91.469 54.4202 93.1855 55.1614 94.4729 56.6049C95.3312 57.5412 95.1361 58.6725 94.2388 59.4137Z" fill="white"/>
</g>
<path fill-rule="evenodd" clip-rule="evenodd" d="M69.2858 19.8239C68.9893 20.2007 68.6239 20.5208 68.2087 20.7653L81.1457 45.3292L60.903 57.5366C61.1108 57.9648 61.2416 58.4373 61.2774 58.936L82.4267 46.1818L82.9891 45.8427L82.6831 45.2617L69.2858 19.8239ZM62.47 16.7485H39.1046V18.1402H62.47C62.4288 17.9146 62.4073 17.6821 62.4073 17.4445C62.4073 17.2069 62.4288 16.9743 62.47 16.7485ZM53.586 59.2157C53.586 59.2678 53.587 59.3197 53.5891 59.3713L25.1172 46.2176L25.7009 44.9542L53.8033 57.9372C53.6625 58.3372 53.586 58.7675 53.586 59.2157Z" fill="white"/>
<circle cx="57.3167" cy="59.178" r="1.72686" fill="white"/>
<circle cx="66.4028" cy="17.851" r="1.90867" fill="white"/>
<path d="M39.5909 10.1895L41.2197 15.2025H46.4908L42.2264 18.3007L43.8552 23.3138L39.5909 20.2156L35.3265 23.3138L36.9554 18.3007L32.691 15.2025H37.9621L39.5909 10.1895Z" fill="white"/>
<path d="M74.9463 43.9918L80.1788 43.3555L81.1906 38.1825L83.4127 42.9623L88.6452 42.326L84.786 45.9163L87.008 50.6961L82.4009 48.1353L78.5417 51.7256L79.5535 46.5526L74.9463 43.9918Z" fill="white"/>
<path d="M21.1464 45.0716L25.219 44.5764L26.0065 40.5501L27.736 44.2703L31.8085 43.7751L28.8049 46.5695L30.5343 50.2897L26.9485 48.2966L23.9448 51.091L24.7323 47.0647L21.1464 45.0716Z" fill="white"/>
</svg>
