<svg width="104" height="78" viewBox="0 0 104 78" fill="none" xmlns="http://www.w3.org/2000/svg">
<g opacity="0.1">
<path d="M9.12206 61.4694C9.06462 62.5752 9.02153 63.6666 8.96409 64.7868C11.9225 65.3468 14.7516 65.275 17.5807 64.7724C21.2571 64.1118 24.7181 62.8193 27.777 60.6795C29.0551 59.7891 30.1035 58.5828 31.3385 57.6063C31.956 57.1036 32.7028 56.7446 33.4209 56.4143C36.7526 54.8777 39.8689 52.9964 42.856 50.8997C45.5846 48.9753 48.1265 46.8212 50.5248 44.4947C53.2677 41.8379 55.8527 39.0519 58.251 36.0935C61.0083 32.69 63.7369 29.2577 66.5086 25.8685C70.2424 21.2873 74.2922 17.0365 79.2468 13.7335C81.1137 12.4697 83.0381 11.3208 84.8763 10.0283C85.6661 9.46824 86.3411 8.72147 86.9873 8.00342C87.8921 7.01251 88.4809 5.86363 88.2224 4.19775C89.0122 4.71475 89.6585 5.08814 90.2329 5.53333C92.8466 7.54386 95.13 9.84162 96.7097 12.7713C98.3469 15.8158 98.6628 18.9321 97.3703 22.1921C96.0348 25.5669 93.8519 28.3242 91.1233 30.6794C87.6049 33.7096 83.6556 36.0361 79.4909 38.0179C77.0926 39.1668 74.6513 40.2582 72.2099 41.3209C70.1419 42.2257 68.4042 43.5756 66.7814 45.0835C63.3348 48.2716 60.7211 52.106 58.1936 56.0266C55.8096 59.7317 53.4257 63.4512 50.9125 67.0702C49.419 69.2387 47.509 71.0625 45.1825 72.355C42.4826 73.8486 39.6248 74.9544 36.6521 75.7298C32.6166 76.7782 28.5094 77.5106 24.3447 77.6829C20.9986 77.8265 17.6238 77.9558 14.2777 77.8553C10.9603 77.7547 7.62852 77.4388 4.44038 76.3474C3.85158 76.1463 3.27714 75.9022 2.73142 75.615C1.36713 74.8825 0.634718 73.2167 0.792689 71.6944C1.13735 68.3196 3.23406 66.0218 5.54618 63.8964C6.58017 62.9342 7.80085 62.1731 8.93537 61.3258C8.99281 61.3832 9.05026 61.4263 9.12206 61.4694Z" fill="white"/>
<path d="M32.6598 54.6768C33.823 52.4796 34.2108 50.4259 33.2199 48.358C32.1428 46.1033 30.0892 45.7299 27.8058 46.0458C27.7914 45.9884 27.7771 45.931 27.7627 45.8735C28.251 45.5001 28.768 45.1555 29.2419 44.7534C32.3151 42.1971 35.5176 39.7701 38.4329 37.0559C41.4774 34.2124 44.3496 31.1679 47.1213 28.0515C51.2429 23.3986 55.1635 18.5876 59.242 13.8916C61.3818 11.4215 63.5359 8.95141 65.8768 6.69673C69.1654 3.53731 73.0572 1.45497 77.6815 0.952334C80.1947 0.679475 82.6217 0.89489 84.9912 1.81399C86.2981 2.31663 87.1454 3.30754 87.0448 4.37025C86.9587 5.38988 86.4561 6.20846 85.7524 6.94087C84.1583 8.59238 82.2339 9.78434 80.2521 10.8901C77.064 12.6565 74.2205 14.8825 71.6068 17.41C67.3416 21.5316 63.8662 26.3282 60.1611 30.9237C57.8202 33.839 55.422 36.7112 52.9519 39.526C48.9595 44.0784 44.3209 47.8841 39.2228 51.1153C37.3702 52.2929 35.4315 53.3269 33.5358 54.4039C33.3348 54.5045 33.0763 54.5476 32.6598 54.6768Z" fill="white"/>
<path d="M96.1931 27.836C95.8628 28.913 95.6187 30.0476 95.1735 31.0672C93.6081 34.6431 92.0715 38.2333 90.3482 41.7374C87.9499 46.6489 85.5229 51.5316 83.6272 56.6585C82.3778 60.0333 81.4444 63.5087 81.2146 67.1276C81.2002 67.3 81.1141 67.4723 81.1428 67.6159C81.43 68.8797 80.6114 69.2531 79.6349 69.569C76.6047 70.5743 73.5458 70.8471 70.4151 70.1434C69.9412 70.0429 69.7689 69.8706 69.8263 69.3249C70.0992 67.0127 70.3433 64.7006 70.5444 62.3885C70.8603 58.827 70.53 55.2942 69.9269 51.8045C69.6253 50.0381 69.0652 48.3004 68.5626 46.5771C68.2753 45.5861 68.2035 45.3707 69.0796 44.8394C70.7742 43.8197 72.4831 42.8288 74.2639 41.9672C79.8216 39.2817 85.4942 36.7972 90.42 32.9916C92.3013 31.5267 93.9241 29.7173 95.6617 28.0657C95.7623 27.9652 95.8484 27.8647 95.9346 27.7642C96.0208 27.7785 96.1069 27.8072 96.1931 27.836Z" fill="white"/>
<path d="M23.3107 49.464C24.5313 49.1624 25.7664 48.7747 27.0302 48.5593C27.9205 48.4013 28.8396 48.4157 29.6869 48.8609C30.7353 49.4066 31.2092 50.297 31.3097 51.4602C31.4964 53.6574 30.5342 55.3808 29.0981 56.903C26.2116 59.9619 22.5639 61.6278 18.5141 62.432C16.7477 62.7767 14.9526 62.9346 13.1574 63.15C12.5399 63.2219 11.9224 63.1931 11.3049 63.15C11.1756 63.1357 10.9602 62.791 10.9889 62.6331C11.3192 60.7661 11.6065 58.8992 12.066 57.061C12.7841 54.1314 13.9042 51.3597 15.7424 48.9327C16.6041 47.7838 17.5375 46.7211 18.8444 46.0748C20.7688 45.1127 22.4921 45.9025 23.0378 47.9848C23.167 48.4875 23.2245 49.0188 23.3107 49.464Z" fill="white"/>
</g>
<path fill-rule="evenodd" clip-rule="evenodd" d="M61.7558 12.8045L60.7036 11.3735L60.5075 13.1388C59.9025 18.5832 58.6686 30.4259 58.3066 36.565C58.6553 36.1577 59.1665 35.8937 59.7397 35.8734C60.1078 30.2441 61.0773 20.732 61.6924 15.0602L67.5258 22.9937C67.7009 22.5365 68.0406 22.1608 68.4725 21.9392L61.7558 12.8045ZM61.7895 37.9122C61.7745 38.4088 61.5767 38.8594 61.261 39.199L76.6554 44.2463C76.7025 43.7517 76.9317 43.3102 77.2751 42.9895L61.7895 37.9122ZM91.8111 13.4765L79.8618 42.8903C79.5231 42.6192 79.0933 42.4571 78.6258 42.4571C78.5969 42.4571 78.5681 42.4577 78.5395 42.459L89.8335 14.6585L71.3443 23.9031C71.351 23.8368 71.3544 23.7695 71.3544 23.7014C71.3544 23.2659 71.2138 22.8632 70.9754 22.5364L90.8582 12.595L92.5034 11.7724L91.8111 13.4765Z" fill="white"/>
<circle cx="69.3993" cy="23.7499" r="1.32216" fill="white"/>
<circle cx="59.5224" cy="37.9047" r="1.32216" fill="white"/>
<circle cx="78.6161" cy="44.3456" r="1.32216" fill="white"/>
<path d="M83.7011 13.0061L89.9651 10.1322L89.1675 3.28668L93.8365 8.35603L100.101 5.48211L96.722 11.4891L101.391 16.5584L94.634 15.2016L91.2556 21.2085L90.458 14.363L83.7011 13.0061Z" fill="white"/>
<path d="M53.9105 11.7319L58.2994 9.71832L57.7406 4.92201L61.0119 8.47384L65.4008 6.46023L63.0337 10.669L66.305 14.2208L61.5707 13.2702L59.2036 17.4789L58.6448 12.6826L53.9105 11.7319Z" fill="white"/>
</svg>
