<svg width="105" height="80" viewBox="0 0 105 80" fill="none" xmlns="http://www.w3.org/2000/svg">
<path opacity="0.1" d="M77.369 58.0851C71.8298 57.6805 66.9989 62.0814 66.569 67.8987C66.1516 73.7161 70.2996 78.762 75.8387 79.1666C81.3779 79.5713 86.2088 75.1704 86.6388 69.3531C87.0561 63.5357 82.9081 58.4898 77.369 58.0851ZM76.2814 73.0585C73.8406 72.8814 71.9943 70.7568 72.1713 68.3034C72.3484 65.8627 74.4729 64.0163 76.9263 64.1933C79.3671 64.3704 81.2135 66.495 81.0364 68.9484C80.8594 71.3891 78.7348 73.2355 76.2814 73.0585Z" fill="white"/>
<g opacity="0.1">
<path d="M43.7003 10.2107C43.1565 10.7165 42.5748 11.1718 41.9678 11.5891" stroke="white" stroke-width="5.29045" stroke-miterlimit="10"/>
<path d="M39.6659 5.40649C39.0463 6.06411 38.3634 6.67113 37.6299 7.20228" stroke="white" stroke-width="5.29045" stroke-miterlimit="10"/>
<path d="M21.4766 6.41626C22.3112 7.07387 23.1332 7.75678 23.93 8.47762" stroke="white" stroke-width="5.29045" stroke-miterlimit="10"/>
<path d="M26.3564 2.73779C27.1026 3.53451 27.7349 4.43241 28.2408 5.40618" stroke="white" stroke-width="5.29045" stroke-miterlimit="10"/>
<path d="M31.0711 58.0851C25.532 57.6805 20.7011 62.0814 20.2711 67.8987C19.8538 73.7161 24.0018 78.762 29.5409 79.1666C35.08 79.5713 39.9109 75.1704 40.3409 69.3531C40.7582 63.5357 36.6102 58.4898 31.0711 58.0851ZM29.9835 73.0585C27.5428 72.8814 25.6964 70.7568 25.8735 68.3034C26.0505 65.8627 28.1751 64.0163 30.6285 64.1933C33.0692 64.3704 34.9156 66.495 34.7386 68.9484C34.5615 71.4018 32.4369 73.2355 29.9835 73.0585Z" fill="white"/>
<path d="M38.2536 15.1756C37.5833 15.9091 36.6349 16.3644 35.6485 16.5035C35.0035 16.592 34.3585 16.5667 33.7136 16.6173C33.625 16.63 33.5365 16.63 33.448 16.6426L33.9033 18.9822L26.9604 19.0834L27.0616 17.6923C27.0236 17.6796 26.9857 17.6543 26.9477 17.6417C26.5936 17.4773 26.3028 17.2244 26.0119 16.9714C25.0508 16.1368 24.0517 15.163 23.9379 13.8984C23.8873 13.266 24.077 12.6337 24.3173 12.0393C24.9243 10.5597 25.9107 9.23185 27.1501 8.20749C27.4157 7.99251 27.6939 7.79016 27.9974 7.6637C28.4021 7.4993 28.8447 7.48665 29.2873 7.474C30.1599 7.44871 31.0325 7.41077 31.8925 7.52459C33.3468 7.71429 34.7126 8.32131 36.0025 9.01686C36.6981 9.39625 37.3937 9.81358 37.9627 10.37C38.5318 10.9265 38.9871 11.6347 39.1136 12.4187C39.278 13.4052 38.9239 14.4422 38.2536 15.1756Z" fill="white"/>
<path d="M104.318 67.4429C104.116 66.8612 103.787 66.33 103.344 65.8748C103.117 65.6345 102.851 65.4069 102.573 65.2298L101.005 64.1928L101.106 38.6724L56.1482 40.6832C56.5908 51.7867 57.0208 61.1703 57.1852 61.8912C57.1726 61.8659 57.1726 61.8406 57.1599 61.8279L56.6414 62.0556L56.1229 62.2832C56.0218 62.0556 55.8321 61.6382 54.9595 39.4565C54.618 30.6546 54.2892 21.8275 54.1754 18.6912C48.5477 18.767 25.0887 19.1085 18.3609 19.1844C20.4601 37.724 13.7702 44.6162 13.492 44.8439L13.2897 45.0083L4.47513 45.8429C4.4372 50.1427 4.37396 64.5216 4.63954 65.8368L1.99645 66.8233C1.75616 66.9118 1.52853 67.0382 1.32619 67.2026C0.592698 67.797 0.289185 68.7834 0.554759 69.694L0.592698 69.8078C0.832979 70.6551 1.54118 71.2874 2.40113 71.4645C4.18427 71.8186 6.00535 71.9324 7.81378 71.8312C10.5707 71.6668 14.1749 71.4139 17.855 71.161C17.5641 69.8837 17.4503 68.5558 17.5515 67.19C18.0826 59.8172 24.4943 54.2781 31.8545 54.8092C39.2274 55.3403 44.7665 61.7521 44.2353 69.1123C44.2227 69.3272 44.1974 69.5422 44.1721 69.7572L54.3904 69.4411L63.4705 69.5043C63.3946 68.7329 63.3819 67.9614 63.4325 67.1647C63.9637 59.7919 70.3754 54.2528 77.7356 54.7839C85.1084 55.3151 90.6475 61.7268 90.1164 69.087C90.1037 69.2893 90.0784 69.4916 90.0531 69.694L104.002 69.7952C104.306 69.7952 104.546 69.5675 104.571 69.264C104.609 68.6443 104.533 68.0247 104.318 67.4429ZM38.848 42.9343C38.848 42.9343 38.5318 40.4429 38.4686 40.0635L44.9435 39.153L45.3609 41.9858L38.848 42.9343Z" fill="white"/>
<path d="M84.755 37.2688H84.8436H84.8562L92.482 36.8768C92.4314 36.8768 91.445 30.8318 91.4197 30.718L84.0342 30.9077L84.755 37.2688Z" fill="white"/>
<path d="M55.719 29.4529C59.6141 29.4402 93.949 29.3264 101.145 29.3264L101.157 24.9255L55.542 24.8496C55.6052 26.3545 55.6685 27.8974 55.719 29.4529Z" fill="white"/>
<path d="M64.1162 38.3181L71.2361 37.964L70.9326 31.2361L63.6104 31.4258L64.1162 38.3181Z" fill="white"/>
<path d="M95.1748 36.7497L99.1964 36.5474L98.1341 30.553L93.9229 30.6541L95.1748 36.7497Z" fill="white"/>
<path d="M72.792 31.1979L73.3864 37.8499L81.1259 37.4579L80.6707 30.9956H80.6201L72.792 31.1979Z" fill="white"/>
<path d="M61.3204 31.4888H61.2825L55.7939 31.6279C55.8825 34.0054 55.971 36.3956 56.0722 38.7225L61.6492 38.4443L61.3204 31.4888Z" fill="white"/>
<path d="M12.6453 43.4145C13.088 42.9719 14.3273 41.5428 15.3643 38.6847C16.4898 35.5737 17.6912 28.8838 16.8313 20.1831C14.5802 24.3564 6.39803 40.5944 4.7793 44.0215L12.6453 43.4145Z" fill="white"/>
</g>
<path fill-rule="evenodd" clip-rule="evenodd" d="M12.9425 31.1635L31.8712 29.5176C31.9491 29.9002 32.1215 30.2484 32.3631 30.5369L13.6291 32.1659L16.0398 43.617C15.6714 43.6499 15.3279 43.7693 15.0296 43.9548L12.4707 31.7996L12.3477 31.2152L12.9425 31.1635ZM34.6936 33.4271L34.2711 31.3617C34.6403 31.3405 34.9863 31.2326 35.289 31.0582L35.7539 33.3311C35.6316 33.304 35.5044 33.2896 35.3738 33.2896C35.1325 33.2896 34.9026 33.3386 34.6936 33.4271ZM35.3798 36.7823L35.9786 39.7096L17.6026 44.0455C17.9241 44.2782 18.1834 44.5916 18.3507 44.9561L36.7213 40.6215L37.221 40.5035L37.1181 40.0005L36.3928 36.4544C36.1075 36.6597 35.7578 36.7811 35.3798 36.7823ZM36.6687 36.2077C39.1024 37.5316 43.1515 39.5392 46.8573 41.3421C49.1413 42.4532 51.3046 43.4912 52.8967 44.2513C53.6928 44.6314 54.3462 44.9421 54.8006 45.1578C55.0278 45.2656 55.2053 45.3497 55.326 45.4068L55.4636 45.4719L55.4988 45.4886L55.5077 45.4928L55.51 45.4939L55.5105 45.4941C55.5107 45.4942 55.5107 45.4942 55.7367 45.0159L55.5107 45.4942L55.6241 45.5478L55.7495 45.5448L100.97 44.4509L100.944 43.3931L55.8494 44.4839L55.7787 44.4505C55.6583 44.3935 55.4811 44.3095 55.2542 44.2019C54.8005 43.9865 54.1478 43.6762 53.3526 43.2965C51.762 42.5371 49.6012 41.5003 47.3202 40.3906C43.5563 38.5595 39.4908 36.5422 37.1081 35.2424C37.0646 35.6117 36.9058 35.9458 36.6687 36.2077Z" fill="white"/>
<circle cx="16.3126" cy="45.1427" r="1.04113" fill="white"/>
<circle cx="35.4903" cy="35.1337" r="1.04113" fill="white"/>
<circle cx="33.8487" cy="29.7689" r="1.04113" fill="white"/>
<path d="M95.159 42.5941L98.3907 42.2012L99.0156 39.0061L100.388 41.9583L103.62 41.5653L101.236 43.7828L102.609 46.7349L99.7631 45.1533L97.3796 47.3708L98.0045 44.1758L95.159 42.5941Z" fill="white"/>
<path d="M50.2709 45.7768L54.1215 43.5993L53.2405 39.2643L56.5013 42.2536L60.3519 40.0762L58.5165 44.1011L61.7773 47.0904L57.3822 46.5886L55.5469 50.6135L54.6659 46.2785L50.2709 45.7768Z" fill="white"/>
<path d="M7.71695 30.9899L11.9739 30.4723L12.797 26.2638L14.6048 30.1524L18.8617 29.6347L15.722 32.5557L17.5298 36.4443L13.7816 34.3609L10.642 37.2818L11.4651 33.0733L7.71695 30.9899Z" fill="white"/>
</svg>
