<svg width="109" height="91" viewBox="0 0 109 91" fill="none" xmlns="http://www.w3.org/2000/svg">
<g opacity="0.2">
<path d="M108.141 61.0354C107.838 60.6062 107.598 60.1392 107.333 59.6848C107.131 59.3188 106.929 59.243 106.551 59.5207C105.566 60.2402 104.594 60.9849 103.521 61.5655C101.994 62.4111 100.391 63.0927 98.8386 63.9005C98.4852 64.0899 97.7152 64.3423 97.7152 64.3423L96.7686 64.6705C96.5666 64.2413 96.4404 63.7869 96.2763 63.3452C95.9734 62.55 95.6705 61.7674 95.3549 60.947C95.8346 60.6946 96.3016 60.4169 96.7686 60.1392C99.76 58.2838 101.426 55.5827 101.704 52.0738C101.969 48.8173 101.186 45.6871 100.177 42.6704C99.0279 39.2499 97.5259 35.9429 96.1375 32.5981C94.9763 29.796 93.8024 27.0066 93.1966 24.0152C92.2626 19.3703 92.048 14.6371 91.6062 9.92906C91.5179 8.95717 91.4295 7.98528 91.3285 6.8998C90.9246 7.06388 90.6469 7.15223 90.3945 7.29108C87.2264 9.00766 83.8311 9.96693 80.2591 10.3456C80.0445 10.3708 79.7542 10.5097 79.6406 10.6864C78.1386 13.0846 76.6113 15.4827 75.1851 17.9314C74.1374 19.7363 73.9607 21.7306 74.1879 23.788C74.4151 23.8385 74.6044 23.8637 74.7812 23.9142C75.4754 24.154 76.0938 24.5074 76.3589 25.2521C76.6997 26.2366 76.1317 27.4483 75.1346 27.9406C74.2889 28.3571 73.2665 28.0794 72.7364 27.2969C72.0043 26.2366 72.0296 24.9113 72.85 24.255C73.1529 24.0152 73.2034 23.8132 73.1782 23.4724C72.9762 21.1247 73.4054 18.9033 74.6171 16.8711C75.7657 14.94 76.9648 13.0341 78.1512 11.1281C78.2522 10.9641 78.3658 10.7874 78.4794 10.598C76.9016 10.5349 67.9148 11.6709 67.1701 12.0117C67.6119 14.2205 68.0789 16.4041 68.508 18.613C68.6974 19.5596 68.7605 20.5315 68.9877 21.4529C69.2654 22.6015 69.1644 23.8511 69.8965 24.8735C69.9596 24.9744 69.9343 25.1511 69.9217 25.29C69.9091 25.5929 69.8333 25.8958 69.8586 26.1988C69.9596 27.0571 70.111 27.9027 70.2246 28.761C70.313 29.4552 70.3887 30.1621 70.4771 30.9825C71.3858 30.7048 72.1937 30.4271 73.0267 30.2125C73.2665 30.1494 73.5442 30.263 73.7966 30.3009C73.6957 30.5533 73.6578 30.8563 73.4937 31.033C73.317 31.2097 73.0267 31.3107 72.7616 31.3864C72.0169 31.5883 71.2596 31.7524 70.5528 31.9165C70.2751 33.4943 70.0227 35.0215 69.745 36.6497C70.2246 36.5993 70.6916 36.6119 71.1082 36.4857C72.3956 36.0944 73.6957 35.741 74.7812 34.87C74.92 34.7564 75.3239 34.7564 75.387 34.8448C75.5006 35.0089 75.5511 35.3749 75.4375 35.5011C75.1724 35.8167 74.8443 36.1196 74.4656 36.2711C73.3422 36.7381 72.2063 37.1799 71.0324 37.5207C70.5402 37.6721 69.9596 37.5459 69.3411 37.5459C68.8236 38.7071 68.2304 40.0072 67.5993 41.3956C69.5052 41.8247 71.3227 41.8247 73.1277 41.2568C73.3549 41.181 73.4937 40.916 73.7209 40.8024C73.9481 40.6888 74.2258 40.6635 74.4782 40.6004C74.4782 40.8655 74.6044 41.2694 74.4656 41.3703C74.0112 41.749 73.5063 42.2413 72.9762 42.317C71.5247 42.5063 70.0101 42.7714 68.609 42.5063C67.2206 42.2413 66.5011 42.6073 65.8827 43.7307C65.5671 44.2986 65.1127 44.7909 64.6836 45.3715C64.8982 45.422 64.9991 45.422 65.1001 45.4725C66.9429 46.3055 68.8236 46.7347 70.8305 46.1288C70.9946 46.0783 71.3732 46.2298 71.3858 46.3308C71.4237 46.5327 71.3227 46.9114 71.1965 46.9619C70.6538 47.1638 70.0605 47.4163 69.5178 47.3784C68.2304 47.29 66.9303 47.0755 65.6681 46.823C65.1758 46.7221 64.7215 46.3686 64.1661 46.091C63.2068 47.3532 62.1592 48.7289 61.1116 50.1047C62.1971 50.8368 64.2544 51.0893 65.504 50.7232C65.7186 50.6601 66.0089 50.8368 66.2613 50.8999C66.1351 51.1397 66.072 51.5058 65.8827 51.5815C65.4283 51.7708 64.8982 51.9602 64.4311 51.8971C63.2321 51.733 62.0456 51.4553 60.8718 51.165C60.4931 51.0766 60.2659 51.0514 60.0135 51.3796C59.5717 51.9728 59.0794 52.5155 58.6124 53.0835C58.2338 53.5505 57.8677 54.0175 57.4133 54.5982C59.294 55.1283 60.9727 55.7846 62.8155 55.7972C63.0301 55.7972 63.2573 55.9992 63.4719 56.1128C63.3204 56.3274 63.1942 56.6303 62.9922 56.7313C62.7524 56.8449 62.399 56.8322 62.134 56.7691C60.5562 56.4031 58.9911 56.0371 57.426 55.5953C56.9842 55.4691 56.7318 55.4817 56.4288 55.873C55.5453 57.0216 54.5986 58.1197 53.6772 59.243C53.4753 59.4828 53.2733 59.71 53.0209 60.013C53.3491 60.2402 53.6015 60.48 53.9044 60.581C55.4317 61.0985 56.9716 61.515 58.5872 60.9849C58.7639 60.9344 59.0163 61.1111 59.2309 61.1868C59.1299 61.414 59.0921 61.7422 58.928 61.8432C58.6377 62.0199 58.259 62.1208 57.9182 62.1461C55.8987 62.3102 54.0054 61.9315 52.1626 60.745C51.7966 61.2247 51.4179 61.6917 51.0393 62.1713C50.9761 62.1713 50.913 62.1713 50.8373 62.1966C50.648 62.2344 49.512 62.3985 49.31 62.4238C42.8729 63.1811 36.4357 63.951 29.9353 64.2161C29.7334 64.2287 29.5062 64.3171 29.3295 64.418C28.7236 64.7336 28.3197 64.5064 28.3197 63.8122C28.3324 62.2849 28.345 60.745 28.3828 59.2178C28.446 59.2052 28.5091 59.1925 28.5848 59.1799C32.3714 58.4605 36.1201 57.5517 39.9698 57.3624C43.6554 57.173 47.3536 57.0973 51.0519 57.0089C51.582 56.9963 51.9733 56.8701 52.2888 56.4283C53.084 55.3429 53.8666 54.2574 54.7122 53.2097C55.6841 51.998 56.7065 50.8242 57.691 49.6251C57.9182 49.3474 58.0318 48.9561 58.2716 48.6785C58.5619 48.3377 58.9658 48.0852 59.2435 47.7318C60.7455 45.7754 62.2349 43.819 63.6991 41.85C65.8322 38.9848 67.2332 35.7914 67.7002 32.2321C68.041 29.6067 67.4983 27.0444 67.0691 24.4696C67.0565 24.3686 67.006 24.2676 66.9303 24.1792C66.539 22.0461 65.9837 18.8402 65.706 17.4265C65.3273 15.4701 65.0118 13.5011 64.5574 11.5573C64.2671 10.3203 64.6079 9.99217 65.7817 9.81547C68.2051 9.44943 70.6664 9.20961 73.1151 9.00766C73.8724 8.94455 74.2384 8.65425 74.4151 7.94742C74.6423 7.05126 74.9326 6.16772 75.2103 5.22108C75.0083 5.18321 74.9452 5.15797 74.8948 5.15797C74.6676 5.15797 74.4277 5.14534 74.2005 5.17059C71.9412 5.44827 67.2711 4.82979 64.4564 4.3754C62.1844 3.73169 59.9251 3.08797 57.6405 2.46949C57.4133 2.40638 57.0473 2.49473 56.8706 2.6462C55.0909 4.21132 53.7782 6.14248 52.8694 8.31345C52.15 10.03 51.784 11.8476 51.7208 13.7156C51.7082 14.2584 51.8471 14.5235 52.4151 14.6749C53.3112 14.9274 53.7908 15.6216 53.854 16.543C53.9044 17.3129 53.6015 17.944 52.9199 18.3353C52.0238 18.8528 51.0014 18.5499 50.2188 17.578C49.5751 16.7702 49.5246 15.4701 50.2693 14.8138C50.749 14.3972 50.7616 13.9807 50.749 13.4632C50.749 13.2108 50.7616 12.9583 50.7868 12.7059C51.1907 8.78047 52.7811 5.39778 55.5201 2.57047C55.6715 2.40638 55.823 2.24229 56.0754 1.98986C54.3083 1.53547 52.6549 1.10632 50.9383 0.664551C50.8752 0.967478 50.8373 1.16943 50.7994 1.37138C50.5975 2.55784 50.4334 3.74431 50.1936 4.90553C49.7392 7.13961 49.2343 9.3737 48.7673 11.6204C48.6158 12.3146 48.1993 13.1981 48.4644 13.6904C48.9819 14.6749 47.7449 14.9021 47.9216 15.6216C47.9469 15.7099 47.8838 15.8235 47.8585 15.9245C47.6313 16.7575 47.4168 17.5906 47.1896 18.4236C47.0886 18.7771 47.0002 19.1431 46.8614 19.648C47.8207 19.7237 48.6916 19.7868 49.5625 19.8878C49.7771 19.913 49.9664 20.1024 50.1683 20.2033C50.0295 20.4053 49.9285 20.683 49.7266 20.7966C49.5246 20.9102 49.2343 20.9228 48.9945 20.8975C48.3255 20.8218 47.6566 20.7461 47.0002 20.582C46.5837 20.481 46.4196 20.6199 46.2303 20.9607C45.6875 21.9325 45.0943 22.8666 44.5137 23.8258C44.3749 24.053 44.2108 24.255 43.9836 24.5705C44.4758 24.7346 44.8671 24.9366 45.2584 24.9744C46.6216 25.1007 47.9721 25.2774 49.3353 24.8861C49.512 24.8356 49.7644 25.0123 49.979 25.088C49.878 25.3152 49.8275 25.6434 49.6635 25.7444C49.3479 25.9211 48.9566 26.0347 48.5906 26.0473C47.5177 26.0725 46.4449 26.0347 45.3846 25.9968C44.6652 25.9716 43.9583 25.8453 43.4787 25.189C42.4185 26.1988 41.3961 27.1707 40.3232 28.193C40.5504 28.3697 40.7145 28.5464 40.9038 28.6348C42.0272 29.1144 43.1379 29.5941 44.2739 30.0106C44.9302 30.2378 45.6244 30.3009 46.2934 29.9349C46.4449 29.8591 46.7225 30.0358 46.9371 30.0989C46.874 30.3135 46.8488 30.6796 46.7225 30.73C46.1924 30.9194 45.5992 31.1592 45.0564 31.1213C43.5039 31.0077 41.9767 30.5407 40.7524 29.6319C39.6164 28.7863 38.796 28.9251 37.8114 29.7329C37.3192 30.1368 36.726 30.4019 36.1075 30.7679C36.5366 31.1971 36.8396 31.5883 37.2182 31.866C38.5183 32.8 39.7931 33.7846 41.5097 33.8224C41.6611 33.8224 41.9262 34.1001 41.9262 34.2516C41.9262 34.4157 41.699 34.6807 41.5223 34.7186C41.2068 34.7817 40.8407 34.7943 40.5252 34.706C38.4678 34.0875 36.6502 33.0903 35.3123 31.2602C33.9113 32.0932 32.4471 32.9641 30.882 33.8982C32.1063 34.9458 33.1918 35.9682 34.8074 36.0565C35.022 36.0691 35.2239 36.3468 35.4385 36.5109C35.2239 36.675 35.022 36.9779 34.8074 36.9905C34.353 37.0032 33.8355 36.9905 33.4569 36.776C32.4092 36.1701 31.3869 35.5138 30.415 34.7817C30.0111 34.4788 29.746 34.4156 29.3169 34.6681C28.4081 35.1982 27.4741 35.6778 26.5527 36.1953C26.3633 36.2963 26.1866 36.4352 25.8837 36.6371C27.3605 37.811 28.6858 38.9974 30.3392 39.7295C30.5538 39.8305 30.6927 40.1082 30.8694 40.2975C30.6169 40.4237 30.3392 40.6761 30.0994 40.6383C29.746 40.6004 29.3674 40.4111 29.0644 40.1965C27.8275 39.313 26.6158 38.4294 25.4167 37.4954C25.0633 37.2177 24.8361 37.1546 24.4322 37.3944C23.1195 38.1517 21.7816 38.8586 20.4436 39.5654C19.7242 39.9441 19.6485 40.247 20.2796 40.7897C21.4913 41.85 22.7535 42.8092 24.4574 42.9607C24.6594 42.9733 24.8361 43.2636 25.0254 43.4151C24.8235 43.5792 24.6089 43.8947 24.4069 43.8821C23.8768 43.8569 23.3088 43.7811 22.8166 43.5666C21.1883 42.885 19.7368 41.951 18.7271 40.4237C18.5882 40.4742 18.4367 40.4994 18.3105 40.5625C15.8871 41.6733 13.653 43.0996 11.6966 44.9171C10.0179 46.4696 8.66735 48.2746 8.0615 50.5086C7.0265 54.3583 9.56351 59.1294 14.4482 59.8489C17.9319 60.3664 21.3777 60.2654 24.8108 59.8236C24.8487 60.8082 24.8613 61.7927 24.8613 62.7772C24.8487 64.1656 24.8235 64.1656 23.4729 64.1277C23.4477 64.1277 23.4224 64.1277 23.3972 64.1277C21.5291 64.2287 19.6611 64.3675 17.7804 64.4307C15.2434 64.5064 12.7064 64.5821 10.1567 64.5569C8.36443 64.5316 6.77406 63.9005 5.60022 62.4364C4.93126 61.6033 4.85552 60.9849 5.3604 60.0508C5.66333 59.4828 6.26918 58.877 6.20607 58.3595C6.13034 57.8041 5.41089 57.3371 5.03223 56.7944C4.67882 56.2895 4.36327 56.4283 4.00985 56.7565C2.15443 58.4731 1.05632 60.6188 0.526194 63.0549C0.147535 64.7715 0.677657 66.1599 2.15443 67.1822C3.77004 68.3056 5.5876 68.7852 7.51876 68.9241C12.3025 69.2901 17.0988 69.1134 21.8573 68.7347C25.7196 68.4318 29.5314 67.7124 33.3938 67.4347C38.2406 67.0813 43.1 66.8793 47.9595 66.6521C46.9876 68.4571 46.3439 70.3756 46.1672 72.4961C45.839 76.7497 49.0576 80.4605 53.3112 80.6625C55.5327 80.7635 57.59 80.0061 59.5969 79.1983C61.3135 78.5167 62.9922 77.7342 64.6079 76.8633C65.0244 77.7468 65.4283 78.643 65.8196 79.5518C66.2739 80.612 66.2613 80.6246 65.2011 81.0159C65.1632 81.0285 65.1254 81.0538 65.0875 81.0664C63.8127 81.7101 62.5379 82.3664 61.2504 82.9723C59.1552 83.9568 57.0726 84.9413 54.9394 85.8375C53.5384 86.4307 52.0743 86.4812 50.6732 85.7491C49.8275 85.3074 49.5751 84.8782 49.6635 83.9189C49.7139 83.3888 50.0169 82.7199 49.8023 82.3664C49.5499 81.9499 48.8304 81.8363 48.3508 81.546C47.8964 81.2683 47.6692 81.4072 47.4799 81.8363C46.5963 83.8306 46.4575 85.888 46.874 88.0085C47.1769 89.5231 48.111 90.3814 49.6256 90.6717C51.1781 90.962 52.7054 90.7727 54.1569 90.2552C59.294 88.4124 64.2292 86.0899 68.8993 83.2878C73.6073 80.4605 78.4163 77.8225 83.3893 75.5001C86.8477 73.8845 90.2809 72.1679 93.651 70.363C97.3745 68.3561 100.82 65.8822 104.657 64.0899C105.781 63.5724 106.816 62.8782 107.889 62.2597C108.381 61.9315 108.494 61.5529 108.141 61.0354ZM93.6636 66.7783C93.6005 66.8667 93.2597 66.8667 93.1587 66.7783C92.8558 66.488 92.6412 66.6647 92.3888 66.8288C91.947 67.1065 91.4926 67.3842 91.0382 67.6366C86.9992 69.8833 82.9728 72.1553 78.9085 74.3641C76.0686 75.9166 73.1782 77.3681 70.313 78.8828C70.1363 78.9711 69.9722 79.11 69.846 79.2614C69.4673 79.7158 69.076 79.7032 68.8615 79.1605C68.3313 77.873 67.8138 76.5856 67.2837 75.2982C68.0536 74.8185 68.811 74.3263 69.5557 73.8088C70.7169 73.001 71.8655 72.1932 73.0646 71.4611C77.4696 68.76 82.1524 66.6395 86.9109 64.6705C88.6653 63.951 90.4324 63.2694 92.1742 62.4995C92.414 62.9539 92.6791 63.3957 92.9063 63.8627C93.2471 64.6074 93.5752 65.3521 93.8403 66.122C93.916 66.2987 93.7898 66.589 93.6636 66.7783Z" fill="white"/>
<path d="M73.7209 26.0601C73.5568 25.8455 73.5442 25.53 73.418 25.1134C73.0772 26.0475 73.4054 26.9057 74.0491 27.1203C74.6171 27.3096 75.3239 26.8174 75.488 26.1232C75.6268 25.5426 75.2355 25.0756 74.3772 24.8862C74.4782 25.1892 74.6171 25.4668 74.6297 25.7445C74.6423 25.9717 74.4782 26.1989 74.4025 26.4261C74.1627 26.3125 73.8598 26.2494 73.7209 26.0601Z" fill="white"/>
<path d="M52.0749 17.0607C51.7846 16.9597 51.469 16.7956 51.2923 16.5684C51.0904 16.3034 51.0272 15.9373 50.901 15.5713C50.5224 16.3412 50.6107 16.7956 51.3302 17.2626C51.6205 17.452 52.138 17.5782 52.3778 17.4393C52.6302 17.2879 52.8069 16.783 52.8069 16.4422C52.8069 16.0004 52.504 15.6596 51.9108 15.5965C52.0118 15.7606 52.0749 15.8616 52.138 15.9752C52.2642 16.2276 52.4409 16.4674 52.4914 16.7325C52.5166 16.8082 52.1758 17.0985 52.0749 17.0607Z" fill="white"/>
</g>
<path fill-rule="evenodd" clip-rule="evenodd" d="M95.3875 53.1405C95.2079 52.779 95.1516 52.3795 95.2095 51.9974L76.5125 52.8429L91.0356 42.3545L95.9082 50.7842C95.9335 50.7639 95.9594 50.7442 95.9859 50.725C96.2925 50.5036 96.6422 50.3855 96.9937 50.364L91.7127 41.228L91.3942 40.677L90.8782 41.0496L74.9216 52.5733L61.753 11.1974C61.6479 11.3848 61.5014 11.5529 61.3157 11.687C61.1498 11.8068 60.9678 11.8885 60.7804 11.9336L74.0666 53.6788L74.2002 54.0987L74.6405 54.0788L95.3875 53.1405ZM59.1868 11.3436C59.3415 11.5579 59.5417 11.7201 59.7645 11.8265L29.3221 46.5008L48.1807 65.1168L47.3728 65.9352L28.1282 46.9383L27.7422 46.5572L28.1 46.1497L58.988 10.9678C59.0352 11.0987 59.1013 11.2252 59.1868 11.3436ZM61.0768 9.07289C60.9719 9.02326 60.8621 8.98594 60.7496 8.96131L60.9637 8.7175L61.0768 9.07289Z" fill="white"/>
<circle cx="49.4023" cy="66.7383" r="1.28987" transform="rotate(144.164 49.4023 66.7383)" fill="white"/>
<circle cx="97.4454" cy="52.5402" r="1.23308" transform="rotate(144.164 97.4454 52.5402)" fill="white"/>
<circle cx="60.7112" cy="9.19093" r="1.45468" transform="rotate(144.164 60.7112 9.19093)" fill="white"/>
<path d="M78.7151 57.4894L75.5025 55.1412L72.2765 57.471L73.5169 53.69L70.3043 51.3418L74.2836 51.3532L75.5241 47.5722L76.7429 51.3602L80.7222 51.3716L77.4962 53.7013L78.7151 57.4894Z" fill="white"/>
<path d="M33.1567 51.815L29.1203 48.8648L25.0672 51.7919L26.6257 47.0414L22.5893 44.0912L27.5889 44.1055L29.1475 39.355L30.6788 44.1143L35.6784 44.1286L31.6253 47.0557L33.1567 51.815Z" fill="white"/>
<path d="M92.9341 45.3607L90.636 43.681L88.3284 45.3476L89.2157 42.6429L86.9176 40.9632L89.7641 40.9713L90.6515 38.2666L91.5234 40.9763L94.3699 40.9844L92.0622 42.651L92.9341 45.3607Z" fill="white"/>
</svg>
