<svg width="123" height="61" viewBox="0 0 123 61" fill="none" xmlns="http://www.w3.org/2000/svg">
<path opacity="0.2" d="M120.98 28.9773C120.98 28.4738 120.98 27.9704 120.98 27.4669C120.98 26.9394 120.956 26.388 120.956 25.8126C121.028 25.7647 121.124 25.6927 121.22 25.5968C121.411 25.405 121.651 25.2372 121.819 25.0214C122.37 24.3262 122.418 23.4151 121.963 22.6479C121.651 22.1205 121.172 21.7608 120.644 21.5211C120.093 21.2814 119.517 21.1615 118.918 21.1375C118.822 21.1375 118.702 21.1375 118.606 21.1375C104.965 21.1375 91.3229 21.1375 77.6811 21.1375C77.0818 21.1375 76.4824 21.2094 75.907 21.4252C75.4275 21.593 74.9959 21.8567 74.6603 22.2403C73.8212 23.1274 73.8212 24.3501 74.6363 25.2372C74.8761 25.477 75.1158 25.6927 75.4035 25.8366C75.5474 25.9085 75.6672 25.9804 75.8111 26.0524C75.859 26.412 75.8351 28.9294 75.7871 29.265C75.7631 29.289 75.7631 29.289 75.7392 29.313C75.7152 29.313 75.7152 29.313 75.6912 29.3369C75.5713 29.3369 75.4515 29.3369 75.3316 29.3369C72.5265 29.3369 69.6975 29.3369 66.8924 29.3369C66.8684 29.3369 66.8205 29.313 66.7485 29.289C66.7485 29.2171 66.7246 29.1212 66.7246 29.0253C66.7246 28.8574 66.7246 28.6656 66.7246 28.4978C66.7246 21.8328 66.7246 15.1917 66.7246 8.52667C66.7246 7.61563 66.7965 6.72855 66.5567 5.84148C66.7246 5.7216 66.9164 5.76955 67.0842 5.76955C67.5637 5.76955 68.0192 5.64968 68.4268 5.40993C69.194 4.97838 69.6735 4.30708 69.7454 3.42001C69.7934 2.91653 69.6495 2.46101 69.3858 2.02946C68.9782 1.40611 68.4028 1.02251 67.6836 0.854689C67.5877 0.830714 67.4918 0.782764 67.3959 0.758789H33.4713C33.3754 0.782764 33.2795 0.830714 33.1836 0.854689C32.5603 0.998539 32.0568 1.28624 31.6492 1.78971C30.7861 2.82064 30.9779 4.21118 31.9129 5.05031C32.4164 5.50583 33.0158 5.74558 33.7111 5.76955C33.9268 5.76955 34.1666 5.74558 34.4063 5.8175C34.4063 5.93738 34.4063 6.03328 34.3824 6.12918C34.3584 6.46483 34.2865 6.82445 34.2865 7.1601C34.2625 9.2699 34.2865 11.3797 34.2865 13.5135C34.2865 16.3425 34.3104 19.1955 34.3104 22.0246C34.3104 22.1924 34.2865 22.3602 34.2865 22.552C34.0707 22.6239 33.9029 22.6 33.7111 22.6C31.9849 22.6 30.2347 22.576 28.5085 22.576C27.3577 22.576 26.2309 22.6 25.0801 22.6239C24.9123 22.6239 24.7444 22.6 24.5526 22.6C24.5526 22.4561 24.5287 22.3362 24.5526 22.2164C24.8883 20.2025 25.2239 18.1886 25.5356 16.1747C25.6555 15.5034 25.7514 14.8321 25.8473 14.1848C25.9192 13.7292 25.8233 13.5135 25.3918 13.3217C25.152 13.2018 24.8883 13.1059 24.6006 13.0579C23.8334 12.8661 23.0662 12.7942 22.275 12.7702C21.0763 12.6983 19.8775 12.7463 18.7027 12.962C18.3191 13.034 17.9355 13.1299 17.5519 13.2497C17.3841 13.2977 17.2403 13.3696 17.0724 13.4655C16.8327 13.6094 16.7368 13.8012 16.7847 14.0649C16.8567 14.4964 16.9286 14.928 17.0245 15.3356C17.456 17.6372 17.8876 19.9388 18.3431 22.2164C18.3911 22.4321 18.415 22.6479 18.463 22.8877C18.1034 22.9356 17.7917 22.9836 17.456 23.0075C16.545 23.0795 15.6339 23.1754 14.7229 23.3432C13.5721 23.5829 12.3973 23.7987 11.2945 24.2063C8.41749 25.2612 6.23577 27.1073 4.74932 29.7685C4.31777 30.5597 3.98212 31.3988 3.7184 32.2619C3.67045 32.3818 3.6225 32.5256 3.59852 32.6695C3.47865 32.6695 3.35877 32.6934 3.2389 32.6934C2.54362 32.6934 1.94425 32.9572 1.44078 33.4127C0.865377 33.9401 0.481778 34.5874 0.266003 35.3307C-0.141571 36.7692 -0.045671 38.1597 0.697553 39.5023C0.889352 39.8619 1.15308 40.1496 1.44078 40.4373C1.84835 40.8209 2.32785 41.0607 2.87927 41.1326C3.09505 41.1566 3.28685 41.1806 3.5266 41.2045C4.0061 42.9787 4.77329 44.609 5.92409 46.0715C7.07489 47.5339 8.46544 48.6607 10.0957 49.5718C10.0238 49.7396 9.97586 49.8595 9.92791 50.0033C9.52034 50.9623 9.30456 51.9933 9.35251 53.0482C9.44841 55.2778 10.3595 57.076 12.1096 58.4665C13.0207 59.1858 14.0756 59.6413 15.2264 59.8331C15.4182 59.881 15.6339 59.8571 15.8018 60.0249H17.1444C17.2882 59.8571 17.528 59.881 17.7198 59.8331C18.2952 59.7372 18.8226 59.5694 19.3501 59.3296C21.7236 58.2028 23.1381 56.3567 23.5217 53.7434C23.7135 52.4488 23.5217 51.2261 23.0182 50.0273C22.9703 49.9074 22.8984 49.8115 22.9463 49.6677C22.9943 49.6677 23.0662 49.6437 23.1381 49.6437C24.4807 49.6677 25.8473 49.6677 27.2378 49.6917C27.2139 49.8115 27.1899 49.9074 27.1659 50.0033C26.8063 50.8425 26.6145 51.7295 26.5905 52.6406C26.5665 53.6475 26.7104 54.6065 27.118 55.5416C28.1489 57.9151 29.923 59.3536 32.4644 59.8571C32.6801 59.905 32.9199 59.881 33.1117 60.0489H34.3584C34.5262 59.881 34.742 59.905 34.9338 59.8571C37.571 59.3296 39.4171 57.8192 40.4001 55.3258C41.0474 53.6475 40.9994 51.9453 40.3521 50.2431C40.3042 50.0992 40.2323 49.9554 40.2083 49.8355C40.2562 49.6917 40.3521 49.7156 40.448 49.7156C41.5509 49.7156 42.6297 49.7156 43.7326 49.7156C43.8045 49.7156 43.8525 49.7396 43.9723 49.7396C43.9963 50.0753 44.0203 50.3869 44.0443 50.7226C44.332 54.7744 47.209 58.5384 51.5724 59.5694C57.3983 60.9599 62.6728 57.1239 63.6798 51.8254C63.7996 51.2021 63.8716 50.5548 63.8716 49.9074C63.8716 49.7636 63.8716 49.6197 63.8716 49.4759C63.9435 49.4279 63.9914 49.38 64.0394 49.356C65.4779 48.7566 66.2211 47.6059 66.5807 46.1434C66.7246 45.592 66.7725 45.0166 66.7725 44.4412V38.0398C66.7725 37.848 66.7965 37.6562 66.7965 37.4644C67.0123 37.3685 67.2041 37.4165 67.3719 37.4165C69.0741 37.4165 70.7763 37.4165 72.4786 37.4165C73.4136 37.4165 74.3486 37.4165 75.2836 37.4165C75.4515 37.4165 75.6193 37.4405 75.7871 37.4405C75.907 37.6323 75.859 37.848 75.859 38.0159C75.859 39.9339 75.859 41.8758 75.859 43.7938C75.859 44.633 75.9549 45.4481 76.2666 46.2393C76.818 47.6538 77.7531 48.6847 79.1676 49.2601C79.4792 49.38 79.8389 49.4759 80.1745 49.5718C80.1985 49.6917 80.1026 49.8115 80.0546 49.9314C79.6471 50.8425 79.4313 51.8015 79.4313 52.8084C79.4553 54.7024 80.0786 56.3807 81.3972 57.7473C82.4761 58.8741 83.7708 59.5694 85.3291 59.8571C85.5209 59.881 85.7127 59.881 85.8566 60.0249H87.3191C87.4629 59.8571 87.7027 59.8571 87.8945 59.8331C90.22 59.4255 92.6175 57.6753 93.4327 54.7744C93.8642 53.216 93.7923 51.6576 93.1689 50.1472C93.097 49.9794 93.0491 49.8355 92.9771 49.6437C93.073 49.6197 93.121 49.5958 93.1929 49.5958C93.9841 49.5478 103.694 49.5958 104.078 49.6437C104.149 49.7876 104.054 49.9074 104.006 50.0273C103.55 51.1062 103.358 52.209 103.454 53.3838C103.574 55.1819 104.293 56.6924 105.564 57.9391C106.595 58.97 107.842 59.6173 109.304 59.8571C109.472 59.881 109.688 59.881 109.832 60.0489H111.294C111.438 59.881 111.63 59.905 111.821 59.8571C113.236 59.6173 114.459 58.994 115.49 58.011C116.88 56.6684 117.623 55.0141 117.695 53.0721C117.719 51.9213 117.504 50.8425 117.024 49.7876C117 49.7396 116.976 49.6677 116.928 49.5718C117.024 49.5238 117.12 49.4759 117.216 49.4519C118.942 48.9964 120.045 47.8456 120.692 46.2153C120.98 45.52 121.076 44.7768 121.076 44.0336C121.076 42.0676 121.076 40.0777 121.076 38.1118V37.5843M16.4011 56.045C14.4112 55.9971 13.2365 54.3908 13.2844 52.7844C13.3324 51.0343 14.7948 49.6437 16.545 49.6917C18.3191 49.7396 19.6857 51.1781 19.6378 52.9523C19.5898 54.5586 18.3191 56.069 16.4011 56.045ZM36.8518 52.8803C36.9237 54.2709 35.7969 56.045 33.6631 56.0211C31.7451 56.0211 30.4984 54.4867 30.4984 52.8324C30.4984 51.0822 31.9129 49.6677 33.6631 49.6437C35.5811 49.6677 36.9477 51.298 36.8518 52.8803ZM53.874 54.3908C51.4525 54.3908 49.4386 52.4728 49.4147 49.9794C49.4147 47.3181 51.5724 45.52 53.826 45.544C56.2955 45.544 58.2614 47.51 58.2854 49.9554C58.3094 52.4008 56.3674 54.3908 53.874 54.3908ZM57.8059 26.3161C57.6141 26.3401 57.4223 26.3401 57.2305 26.3401H43.4209C43.2291 26.3401 43.0373 26.3401 42.8455 26.3161C41.9105 26.1962 41.455 25.477 41.455 24.8296C41.455 24.7098 41.455 24.5899 41.455 24.47V12.962C41.455 12.8422 41.455 12.7223 41.455 12.6024C41.455 11.7393 42.1263 11.116 42.9654 11.068C43.0613 11.068 43.1332 11.068 43.2291 11.068C47.9522 11.068 52.6752 11.068 57.3983 11.068C57.6141 11.068 57.8538 11.092 58.0696 11.1399C58.7169 11.3078 59.1725 11.8592 59.1964 12.5305C59.1964 12.6504 59.1964 12.7702 59.1964 12.8901V24.47C59.1964 24.5659 59.1964 24.6858 59.1964 24.7817C59.2444 25.5009 58.669 26.2202 57.8059 26.3161ZM86.5039 56.045C84.7537 56.045 83.2913 54.6785 83.3152 52.8324C83.3392 50.7466 85.1134 49.5958 86.5039 49.6917C88.1102 49.5958 89.7405 51.0822 89.6446 52.8564C89.7405 54.3908 88.4699 56.0211 86.5039 56.045ZM110.455 56.045C108.489 56.0211 107.218 54.3668 107.314 52.8564C107.242 51.322 108.537 49.6917 110.479 49.6917C112.181 49.6917 113.644 51.0343 113.668 52.8564C113.668 54.6305 112.253 56.069 110.455 56.045Z" fill="white"/>
<path fill-rule="evenodd" clip-rule="evenodd" d="M47.6983 17.2028L47.4133 17.0059L47.1416 17.2208L19.2461 39.2874L19.8271 40.022L47.4509 18.1703L69.5291 33.4265C69.709 33.1614 69.9394 32.9334 70.2065 32.7562L47.6983 17.2028ZM73.9408 34.1902C73.9913 34.3864 74.0182 34.5922 74.0182 34.8042C74.0182 34.9135 74.0111 35.0212 73.9972 35.1267H92.612C92.5981 35.0212 92.591 34.9135 92.591 34.8042C92.591 34.5922 92.6178 34.3864 92.6684 34.1902H73.9408ZM97.4253 34.1902C97.4758 34.3864 97.5027 34.5922 97.5027 34.8042C97.5027 34.9135 97.4955 35.0212 97.4817 35.1267H104.744L108.214 41.7606C108.457 41.5663 108.738 41.4172 109.044 41.3261L105.442 34.4414L105.311 34.1902H105.027H97.4253ZM94.712 37.2374C94.383 37.1925 94.0748 37.0825 93.8007 36.9208L93.1808 43.6363L93.1336 44.1477H93.6471H107.334C107.305 43.9963 107.29 43.84 107.29 43.6801C107.29 43.5197 107.305 43.3629 107.335 43.2111H94.1606L94.712 37.2374Z" fill="white"/>
<circle cx="71.6843" cy="34.5139" r="1.25074" fill="white"/>
<circle cx="94.7996" cy="34.8045" r="1.25074" fill="white"/>
<circle cx="109.74" cy="43.6799" r="1.25074" fill="white"/>
<path d="M107.297 31.8575L106.506 34.366L108.647 35.8933L106.017 35.9163L105.226 38.4248L104.392 35.9305L101.762 35.9535L103.876 34.389L103.041 31.8947L105.183 33.4221L107.297 31.8575Z" fill="white"/>
<path d="M47.5497 12.8237L48.6196 16.1166L52.0819 16.1166L49.2808 18.1517L50.3508 21.4446L47.5497 19.4095L44.7486 21.4446L45.8185 18.1517L43.0174 16.1166L46.4798 16.1166L47.5497 12.8237Z" fill="white"/>
<path d="M19.5369 33.2637L21.0166 37.8177L25.805 37.8177L21.9311 40.6322L23.4108 45.1863L19.5369 42.3717L15.6631 45.1863L17.1427 40.6322L13.2689 37.8177L18.0572 37.8177L19.5369 33.2637Z" fill="white"/>
<path d="M92.3539 40.921L93.7991 42.5599L95.8044 41.6919L94.6923 43.5729L96.1375 45.2118L94.0049 44.7354L92.8928 46.6163L92.6869 44.4409L90.5544 43.9644L92.5597 43.0964L92.3539 40.921Z" fill="white"/>
</svg>
