<svg width="104" height="101" viewBox="0 0 104 101" fill="none" xmlns="http://www.w3.org/2000/svg">
<g opacity="0.2">
<path d="M86.5123 69.5657C90.0997 68.123 92.4003 65.5494 92.9072 61.6501C93.4531 57.5558 91.8934 54.2413 88.5399 51.8627C82.7689 47.8074 74.0733 50.6929 71.3438 57.3998C70.33 59.8954 70.213 62.5469 69.5111 65.1205C69.3551 65.2765 69.3161 65.4324 69.2771 65.5884C68.6532 64.3406 67.9903 63.1318 66.9765 62.118C66.1576 64.6136 64.3639 66.6022 62.9602 68.7469C59.9967 73.1531 59.9187 72.1393 63.7401 75.4538C64.325 75.9607 64.9488 76.3896 65.5727 76.8575C65.1438 77.3644 64.6759 77.8714 64.208 78.3393C63.857 77.9883 63.5451 77.5984 63.1941 77.2475C60.5816 74.4399 58.086 73.3481 54.6936 75.9997C53.6017 76.8575 52.081 77.1695 50.7162 77.6764C49.5854 78.0663 49.3125 78.6512 49.8974 79.743C50.9892 81.7317 51.925 83.7984 52.9389 85.865C52.7439 85.943 52.5879 86.021 52.3929 86.099C52.159 86.216 51.886 86.3719 51.7301 86.5669C50.7552 84.5392 49.7414 82.5116 48.9225 80.4059C48.1427 78.4953 47.1678 78.2223 45.2571 78.6122C41.6697 79.3921 38.0043 79.7431 34.3779 79.4701C33.0132 79.3531 32.7012 79.899 32.4673 80.9518C31.6484 84.6952 30.7905 88.3996 29.9717 92.143C30.0497 92.299 30.1277 92.4159 30.2446 92.5329C37.3804 92.8449 44.4383 92.182 51.3011 90.1543C51.0282 92.6499 50.6772 95.1065 50.7162 97.6021C50.7162 98.5379 50.6772 99.5907 51.769 99.9027C52.7049 100.176 53.0948 99.2788 53.5238 98.6549C53.6017 98.5769 53.7187 98.5379 53.9917 98.3819C54.4206 99.4738 54.8495 100.761 56.2533 100.644C57.6571 100.527 57.813 99.0838 58.3979 98.148C59.3728 98.4209 60.0747 100.254 61.3225 98.7719C62.1023 97.836 61.3225 96.5492 61.8294 95.4574C64.8709 98.226 66.0407 97.992 67.2105 94.3266C67.9513 94.8335 68.7702 95.5354 69.5891 94.8335C70.4079 94.1317 70.018 93.1178 69.862 92.26C69.3551 89.3744 68.8872 86.4889 68.1853 83.6814C67.8344 82.3166 68.2633 81.6927 69.2771 80.9908C72.0067 79.0022 74.6582 76.8965 76.8419 74.323C78.8305 71.9833 80.9752 70.3456 84.1726 70.3456C84.8745 70.2676 85.7324 69.8777 86.5123 69.5657ZM88.6179 67.5771C86.0833 67.6941 84.9525 66.5632 85.2255 64.3406C86.6682 66.5243 86.6682 66.5243 88.6179 67.5771ZM82.7689 55.918C82.7299 54.4753 83.5487 53.6174 84.9915 53.5394C86.3173 53.5004 87.0582 54.2023 87.0972 55.5281C87.1362 57.0098 86.2393 57.7117 85.0305 57.9457C83.5487 57.9067 82.8079 57.2048 82.7689 55.918Z" fill="white"/>
<path d="M12.0342 69.0589C14.1398 70.8916 14.2568 70.8916 15.8555 68.669C17.4543 66.4464 18.936 64.1458 20.6907 62.0401C21.8215 60.6753 21.8215 59.4275 21.0027 57.9458C20.4958 56.971 19.7159 56.0741 19.7159 54.9043C14.9587 57.8678 11.4883 61.9231 9.26562 67.0703C10.4744 67.2652 11.1763 68.3181 12.0342 69.0589Z" fill="white"/>
<path d="M22.2506 56.3467C23.0694 58.6473 24.6292 60.0121 27.0468 60.441C27.4757 60.519 27.9826 60.636 28.3336 60.8699C31.4531 62.9366 33.8706 61.2989 36.3272 59.4662C37.0681 58.9202 37.2631 58.2574 37.1461 57.3995C36.9121 55.5668 36.6392 53.7731 36.3662 51.9404C36.2493 51.0046 35.9763 50.0687 36.2493 49.1719C30.6732 49.4838 25.604 51.1995 20.9248 54.202C21.6657 54.709 21.9386 55.5668 22.2506 56.3467Z" fill="white"/>
<path d="M38.8611 56.347C39.017 57.8677 39.7189 58.9205 41.2787 59.2715C41.8636 59.3884 42.4095 59.5834 42.9554 59.8174C44.7491 60.6362 46.2308 60.3633 47.4786 58.8425C48.1025 58.1017 48.9604 57.5557 49.7013 56.9319C50.9491 55.879 51.8459 54.6702 51.9239 52.9545C51.9629 52.2916 52.0019 51.5897 52.6648 51.3168C47.8296 49.4061 42.8384 48.5872 37.6133 49.0162C37.8862 49.2891 37.9252 49.757 37.9642 50.147C38.3152 52.2136 38.6271 54.2803 38.8611 56.347Z" fill="white"/>
<path d="M54.7331 56.4637C57.3847 58.1795 59.8803 60.0512 62.2589 62.1178C63.3897 63.1316 64.4425 63.9115 65.4564 62.0008C65.6123 61.6889 65.9633 61.4159 66.3922 61.4159C63.1167 56.9707 58.7885 53.8902 53.7973 51.7065C54.1482 52.5254 53.7583 53.4223 53.6413 54.2021C53.4853 55.2939 53.8363 55.8788 54.7331 56.4637Z" fill="white"/>
<path d="M31.6479 80.8737C31.9209 79.7819 31.9599 79.314 30.5951 79.119C27.0077 78.6511 23.4983 77.7932 20.1838 76.3115C19.209 75.8826 18.6631 76.0775 18.0782 76.9744C16.4015 79.47 14.6858 81.9265 12.97 84.4221C12.7751 84.3441 12.6191 84.2662 12.4241 84.1492C13.9059 81.5756 15.7386 79.275 17.4543 76.8574C18.2342 75.7266 18.3511 75.1807 17.0254 74.3228C14.0619 72.3731 11.2933 70.1115 8.91471 67.46C7.90088 69.4876 7.35497 71.7103 6.77007 73.8549C5.36631 73.9329 3.96254 73.9329 2.55877 74.1278C1.46696 74.3228 0.453125 74.9077 0.453125 76.2335C0.453125 77.6763 1.54494 78.1832 2.79273 78.2612C4.11851 78.3391 5.48329 78.3002 6.80906 78.2612C7.23799 79.6649 7.74491 81.0297 8.4078 82.2775C8.32981 82.3165 8.25182 82.3165 8.13484 82.3945C6.92605 85.6699 5.01536 88.6334 3.49462 91.7919C3.10468 92.6108 2.51978 93.3906 3.14368 94.3265C3.84556 95.3013 4.66442 94.4045 5.44429 94.4435C5.75624 97.6409 6.5751 98.0309 9.5776 96.3931C10.0065 97.095 9.65559 98.3818 10.9424 98.4208C12.0732 98.4598 12.6191 97.5239 13.204 96.7831C13.36 96.5881 13.5159 96.3541 13.6329 96.1592C14.2958 95.1063 14.8027 94.4825 15.9335 95.9642C17.4933 97.9919 18.6631 97.7189 19.6769 95.3403C19.9109 95.5743 20.1448 95.7692 20.3788 96.0032C22.4455 98.0309 22.9914 97.9919 24.2782 95.4573C24.7461 94.5604 25.097 94.9894 25.6039 95.2233C26.3448 95.6133 27.1637 96.0812 27.9435 95.3403C28.8014 94.5604 28.3725 93.6246 28.0605 92.8057C27.9825 92.6108 27.9045 92.3768 27.8266 92.1818C28.2555 92.2208 28.6844 92.2598 29.1523 92.2598" fill="white"/>
<path d="M37.2243 78.573C40.3828 78.417 44.2431 78.066 48.0255 77.0912C49.0783 76.8182 49.3903 76.4673 49.0783 75.3365C47.9085 71.2812 46.8947 67.2258 45.7639 63.1705C45.3739 61.8057 39.2909 59.2712 38.1211 59.9731C36.5224 60.9479 34.9627 62.0397 33.3639 63.0145C32.701 63.4045 32.5841 63.9504 32.5451 64.6523C32.2721 67.4208 32.0381 70.1893 31.6872 72.9579C30.9853 78.6119 30.9853 78.6119 37.2243 78.573Z" fill="white"/>
<path d="M30.2058 63.0151C28.7241 62.5862 27.3593 62.0403 25.9555 61.4554C24.8247 60.9875 23.46 60.6365 22.6411 61.8453C20.6524 64.8088 18.6248 67.7333 16.4801 70.5798C15.5053 71.8666 15.8172 72.5685 16.987 73.3874C20.5744 75.961 24.7078 76.9748 28.919 77.9106C29.8939 78.1446 30.4008 77.7157 30.4788 76.7408C30.9077 72.9585 31.2976 69.1371 31.6876 65.4717C32.0775 64.0289 31.4926 63.405 30.2058 63.0151Z" fill="white"/>
<path d="M51.5734 57.1654C50.0916 58.4912 48.6099 59.8949 47.0891 61.1817C46.3092 61.8446 46.3092 62.4685 46.5822 63.4044C47.674 67.1867 48.7658 70.9691 49.7017 74.8295C50.0916 76.3502 50.6375 76.3502 51.9633 75.8823C56.9545 74.0886 60.6199 70.8911 63.1154 66.1729C63.5834 65.315 63.3884 64.9251 62.8035 64.4182C59.723 61.8446 56.6035 59.31 53.2501 57.0874C52.9771 56.9314 52.7432 56.7365 52.4312 56.5415C52.0803 56.7755 51.8073 56.9314 51.5734 57.1654Z" fill="white"/>
</g>
<path fill-rule="evenodd" clip-rule="evenodd" d="M53.1064 15.8622L72.554 51.5235L63.8893 53.3379L64.0704 54.203L73.3173 52.2666L85.5269 49.7099C85.4108 49.4437 85.3373 49.1546 85.3149 48.8513L73.4575 51.3343L53.9513 15.5654C53.6933 15.7094 53.4086 15.8115 53.1064 15.8622ZM55.2449 12.6873L81.5293 9.65132L87.004 46.184C87.2746 46.08 87.5666 46.0191 87.8716 46.0099L82.3401 9.09782L82.2767 8.67529L81.8523 8.72431L54.8929 11.8382C55.0566 12.0945 55.1774 12.3809 55.2449 12.6873ZM90.5983 48.648C90.5977 48.3424 90.5452 48.0491 90.4492 47.7762L99.1323 45.9579L99.3135 46.823L90.5983 48.648Z" fill="white"/>
<circle cx="87.5444" cy="48.4765" r="1.3803" fill="white"/>
<circle cx="61.4946" cy="54.1454" r="1.3803" fill="white"/>
<circle cx="52.6664" cy="13.1161" r="1.3803" fill="white"/>
<path d="M81.6816 0.678223L83.3076 5.68243H88.5693L84.3125 8.77519L85.9384 13.7794L81.6816 10.6866L77.4248 13.7794L79.0507 8.77519L74.7939 5.68243H80.0556L81.6816 0.678223Z" fill="white"/>
<path d="M73.3454 47.0962L74.289 50.0003L77.3425 50.0003L74.8721 51.7951L75.8157 54.6991L73.3454 52.9043L70.875 54.6991L71.8186 51.7951L69.3483 50.0003L72.4018 50.0003L73.3454 47.0962Z" fill="white"/>
<path d="M98.3713 42.7113L99.7272 44.6992L102.037 44.024L100.565 45.9278L101.921 47.9158L99.6556 47.1044L98.184 49.0083L98.2555 46.603L95.9901 45.7917L98.2997 45.1165L98.3713 42.7113Z" fill="white"/>
</svg>
