<svg width="62" height="122" viewBox="0 0 62 122" fill="none" xmlns="http://www.w3.org/2000/svg">
<g opacity="0.2">
<path d="M29.7695 69.8053C28.7183 69.8053 27.8032 69.9042 26.9128 69.7806C24.5261 69.4591 22.634 68.1606 20.9027 66.5777C18.0956 64.0055 15.8696 60.9757 13.9776 57.6986C13.2232 56.3878 12.4689 55.0645 11.6279 53.6177C11.2198 54.6565 10.8365 55.5592 10.515 56.4743C7.57175 65.069 5.66732 73.9357 3.96075 82.8519C2.92198 88.3055 1.93266 93.7591 0.90625 99.2745C1.06701 99.3363 1.22778 99.3981 1.40091 99.46C1.7719 99.5713 2.14289 99.7073 2.52625 99.7815C6.7061 100.709 10.8983 101.538 15.1771 101.772C18.8128 101.97 22.4609 102.094 26.0966 102.28C26.5295 102.304 26.7273 102.156 26.8386 101.76C27.0612 100.993 27.3704 100.251 27.5559 99.4723C29.114 92.8439 30.0292 86.129 30.0415 79.3151C30.0415 76.174 29.8684 73.0329 29.7695 69.8053Z" fill="white"/>
<path d="M39.9349 88.2804C39.1311 87.9094 38.5127 87.3035 38.0923 86.5244C37.4369 85.2878 37.0659 83.9522 36.9917 82.5795C36.8927 80.8853 36.9917 79.1664 36.9546 77.4598C36.9422 76.9033 37.1277 76.7055 37.6718 76.6436C39.4897 76.421 41.2952 76.149 43.113 75.9016C43.583 75.8398 43.8674 75.7285 43.7561 75.1349C43.3356 72.8595 42.9894 70.5593 42.5195 68.2839C42.1856 66.6021 41.7156 64.9574 41.2704 63.189C41.0108 63.4239 40.85 63.5723 40.6892 63.7207C38.4633 65.7983 36.0642 67.6285 33.2446 68.828C32.9355 68.9641 32.8737 69.1125 32.8613 69.4216C32.8489 69.5824 32.6758 69.7926 32.5274 69.8545C32.4037 69.9039 32.1811 69.805 32.0451 69.7184C31.9338 69.6442 31.8843 69.4958 31.7854 69.3598C31.4515 69.4587 31.13 69.5577 30.7714 69.6566C31.8596 80.7245 30.9198 91.5699 27.9395 102.44C30.1654 102.254 32.3543 102.168 34.506 101.883C37.4616 101.488 40.343 100.721 43.0636 99.4349C43.3727 99.2865 43.5211 99.1381 43.5582 98.7671C43.719 96.5907 43.9663 94.4265 44.1147 92.25C44.2384 90.358 44.2755 88.4536 44.3621 86.376C44.0405 86.747 43.855 86.9819 43.6572 87.1922C42.5195 88.3917 41.1097 88.8245 39.9349 88.2804Z" fill="white"/>
<path d="M46.2673 51.2309C43.0149 53.8649 39.7749 56.499 36.5225 59.133C34.9025 60.4439 33.2825 61.73 31.6873 63.0779C30.8834 63.7457 30.6732 63.7704 29.956 63.0285C27.2477 60.2708 24.5395 57.5007 21.7941 54.7677C20.1247 53.1106 18.381 51.5401 16.2911 50.4023C14.8195 49.5985 13.7436 49.883 13.0263 51.3546C12.6182 52.2078 12.4204 53.0859 13.0634 54.0257C13.892 55.2253 14.5598 56.5361 15.3141 57.7851C17.2928 61.0375 19.5558 64.0549 22.5114 66.5034C24.6631 68.2842 27.0746 69.1375 29.8941 68.6428C32.3179 68.2224 34.445 67.1465 36.436 65.7614C39.206 63.8199 41.5557 61.4208 43.7445 58.8733C45.1914 57.1915 46.5146 55.4107 47.8131 53.7907C47.2689 52.8509 46.8114 52.0347 46.3291 51.2062C46.3662 51.1814 46.3044 51.1938 46.2673 51.2309Z" fill="white"/>
<path d="M29.2253 44.3306C29.2114 44.3445 29.2114 44.3585 29.2253 44.3306V44.3306Z" fill="white"/>
<path d="M29.2266 44.3318C29.2396 44.3187 29.2396 44.3187 29.2527 44.3187V44.3057C29.2266 44.3187 29.2266 44.3318 29.2266 44.3318Z" fill="white"/>
<path d="M31.3903 61.384C31.8602 61.6314 32.0581 61.3222 32.3301 61.0996C32.8866 60.6421 33.4431 60.1845 33.9996 59.7269C35.5701 58.4285 37.1407 57.1424 38.7112 55.8315C36.5594 51.256 33.4802 47.4224 30.0176 43.8608C29.7208 44.034 29.4858 44.17 29.2385 44.306C29.3004 45.2335 29.424 46.0868 29.424 46.9401C29.4116 48.9929 28.5336 50.0564 26.5303 50.4769C28.039 53.3953 28.6573 56.5735 29.3745 59.7269C29.6713 61.0254 30.0794 61.7056 30.8709 62.1879C30.8462 61.6314 31.0935 61.2356 31.3903 61.384Z" fill="white"/>
<path d="M39.6021 55.0887C42.2238 53.0112 44.8084 50.9584 47.2446 49.0292C46.9601 47.7802 46.7128 46.6672 46.4655 45.6161C41.7292 45.8139 36.9681 45.3193 32.1328 44.4907C35.1255 47.7307 37.7101 51.1439 39.6021 55.0887Z" fill="white"/>
<path d="M56.9266 31.6673C55.6281 34.932 54.4781 38.2586 52.4747 41.2018C52.3139 41.2513 51.9924 41.6717 51.8935 41.7583C51.6832 41.9562 51.4606 42.1417 51.2257 42.3271C50.7681 42.6981 50.2858 43.0444 49.7788 43.3536C49.21 43.6998 48.6164 44.0213 47.998 44.281C48.1341 45.1838 49.1976 45.6413 49.5686 46.4699C50.2116 46 50.8547 45.5177 51.4977 45.0478C52.1037 44.6026 52.7097 44.1574 53.3403 43.7493C53.3527 43.7617 53.3527 43.7864 53.3651 43.7988C54.0205 43.6009 54.7006 43.2794 55.2077 43.9224C55.7023 44.5407 55.2077 45.0972 54.8985 45.6166C55.2819 45.6413 55.6405 45.6661 56.061 45.6908C57.7428 41.2636 59.6843 36.8983 60.3026 32.1743C59.1773 31.9765 58.1014 31.791 57.0008 31.6055C56.9884 31.6178 56.939 31.6426 56.9266 31.6673Z" fill="white"/>
<path d="M38.0917 82.4191C38.2525 83.7176 38.5122 85.0161 39.1924 86.1662C39.7859 87.1431 40.7258 87.6501 41.542 87.2668C42.9888 86.6114 44.0647 85.4365 44.2131 83.8907C44.3863 82.0234 44.1389 80.119 44.0895 78.3506C42.0119 78.7587 40.0209 79.1544 37.9062 79.5749C37.9681 80.4281 37.9681 81.4298 38.0917 82.4191Z" fill="white"/>
<path d="M17.07 45.1338C17.0453 45.1338 17.0329 45.1338 16.9834 45.1462C16.2167 46.3457 15.45 47.5452 14.7451 48.6459C15.5737 48.9674 16.4269 49.1529 17.1071 49.6104C18.5045 50.5379 19.8895 51.5272 21.1386 52.6526C23.5005 54.7796 25.7636 57.0303 28.1256 59.2933C27.3589 55.9915 26.6292 52.7515 24.935 49.7588C24.7495 50.0309 24.6135 50.2535 24.4651 50.4637C23.9334 51.2304 23.1543 51.6262 22.2763 51.3788C21.5714 51.181 20.8541 50.81 20.2853 50.3524C19.1105 49.4002 18.5911 48.0275 18.3808 46.5807C18.2572 45.7274 17.8862 45.2822 17.07 45.1338Z" fill="white"/>
<path d="M53.0049 49.7221C53.3141 49.4995 53.7098 49.4006 54.0684 49.2398C54.4147 49.0791 54.7733 48.9183 55.1196 48.7575C55.0948 48.7081 55.0701 48.6586 55.0454 48.5968C54.897 48.6462 54.7486 48.6957 54.6125 48.7575C53.8582 49.1162 53.0915 49.4748 52.3371 49.8458C51.9909 50.0189 51.6817 49.9324 51.5704 49.6108C51.5086 49.4006 51.6322 49.0914 51.7559 48.8812C51.8548 48.7204 52.0898 48.6586 52.2629 48.5473C53.0173 48.065 53.7593 47.5827 54.5136 47.1004C54.4765 47.0386 54.4394 46.9768 54.4023 46.915C53.5243 47.3849 52.6463 47.8548 51.7806 48.3371C51.3725 48.5597 50.9521 49.0049 50.5564 48.436C50.1483 47.8548 50.7418 47.6198 51.0881 47.3354C52.0898 46.5563 53.0915 45.7772 54.0931 44.9982C54.056 44.9363 54.0066 44.8621 53.9695 44.8003C53.8829 44.825 53.784 44.8498 53.6974 44.8869C52.3 45.5175 51.051 46.3832 49.938 47.4343C49.1589 48.164 48.6767 48.0527 48.3057 47.0757C48.1573 46.6924 47.9965 46.309 47.8481 45.9256C47.6626 46.7789 47.8728 47.5333 48.2315 48.2505C48.2933 48.3866 48.4664 48.4731 48.5777 48.572C48.7756 48.7328 49.0106 48.8688 49.1589 49.0667C49.567 49.5861 49.9133 50.1426 50.3214 50.662C50.4451 50.8227 50.6677 50.9835 50.8408 50.9959C51.7806 51.0453 52.7328 51.0577 53.6727 51.0701C53.8829 51.0701 54.0931 50.9835 54.3034 50.934C53.9571 50.8351 53.6232 50.934 53.3141 50.8722C53.0296 50.8104 52.7947 50.5878 52.535 50.427C52.6957 50.1797 52.7947 49.8829 53.0049 49.7221Z" fill="white"/>
<path d="M22.1018 46.1729C21.1372 46.0864 20.2097 45.9998 19.2451 45.9009C19.3688 46.3461 19.4801 46.7418 19.6037 47.1375C19.9376 48.1887 20.4447 49.1409 21.3721 49.8087C22.5469 50.6496 23.19 50.5012 23.8949 49.2398C23.9815 49.079 24.068 48.9183 24.1917 48.6833C23.0045 48.1887 22.3862 47.2859 22.1018 46.1729Z" fill="white"/>
<path d="M25.4785 48.6459C26.3689 49.6353 27.5561 49.4374 28.0384 48.2007C28.4588 47.1001 28.3104 45.9995 28.1002 44.8618C27.519 45.072 26.9872 45.2699 26.4678 45.4554C26.4802 46.6549 26.5173 47.8174 25.4785 48.6459Z" fill="white"/>
<path d="M37.9932 77.6822C37.9932 78.1398 37.9932 78.5603 37.9932 78.9683C39.8852 78.9683 41.6536 78.5603 43.3973 77.9914C43.9785 77.7935 44.1516 77.5091 43.8672 76.9155C41.8762 77.1629 39.9347 77.4226 37.9932 77.6822Z" fill="white"/>
<path d="M61.0328 26.9309C61.0823 26.733 61.1565 26.5352 61.1812 26.3373C61.2678 25.7437 61.342 25.1378 61.4285 24.5318C61.3543 24.5194 61.2925 24.5194 61.2183 24.5071C61.1317 25.1501 61.0452 25.7932 60.9462 26.4239C60.8844 26.8072 60.7978 27.2524 60.2661 27.1906C59.7343 27.1288 59.8085 26.7083 59.8456 26.3249C59.9075 25.62 59.9693 24.9152 60.0311 24.2103C59.9569 24.1979 59.8951 24.1979 59.8209 24.1855C59.7467 24.9523 59.6849 25.719 59.5859 26.4857C59.5488 26.7207 59.4375 27.0298 59.2644 27.1411C58.8934 27.3884 58.4853 27.0546 58.4977 26.5228C58.5101 25.7808 58.5595 25.0388 58.5966 24.3092C58.4482 24.371 58.3864 24.4576 58.3864 24.5442C58.3369 25.1749 58.3369 25.8179 58.2256 26.4362C58.1762 26.7454 58.003 27.0917 57.7681 27.2772C57.632 27.3884 57.2487 27.2401 57.0137 27.1411C56.6922 26.9927 56.4078 26.7701 56.111 26.5723C56.0739 26.6341 56.0244 26.6836 55.9873 26.7454C56.5067 27.1164 56.9643 27.6481 57.5455 27.8336C58.4853 28.1428 59.5117 28.1923 60.4887 28.4025C61.2925 28.5756 61.342 28.588 61.7006 27.8089C61.0204 27.7718 60.872 27.5739 61.0328 26.9309Z" fill="white"/>
<path d="M57.3213 30.6535C58.4219 30.7772 59.4236 30.8885 60.4871 31.0121C60.5366 30.4433 60.5613 30.0352 60.5984 29.59C59.6833 29.355 58.8424 29.1324 57.9767 28.8975C57.7665 29.4663 57.5686 29.9857 57.3213 30.6535Z" fill="white"/>
<path d="M25.1567 47.2491C25.2804 46.7668 25.3175 46.2721 25.3917 45.728C24.5755 45.8641 23.8953 45.9877 23.1904 46.099C23.3636 46.7792 23.7593 47.212 24.3158 47.5088C24.662 47.7067 25.033 47.719 25.1567 47.2491Z" fill="white"/>
<path d="M2.34128 27.5986C3.40479 31.6795 4.60433 35.7233 5.92754 39.7301C6.40983 41.214 6.94158 42.7227 7.98036 43.8852C8.17823 44.1078 8.40082 44.318 8.67288 44.4169C8.94494 44.5159 9.22937 44.4911 9.5138 44.4788C11.715 44.3427 13.9162 44.1943 16.1175 44.0583C15.0045 43.5637 13.9039 42.8959 12.8156 42.055C11.2698 40.8554 10.1445 39.3096 9.46433 37.4794C8.94494 36.082 8.54922 34.6351 8.12876 33.2006C7.86906 32.2855 7.73303 32.1866 6.80555 32.0258C6.44693 31.964 6.06357 31.7537 5.80387 31.5064C5.38341 31.0859 5.50708 30.7149 6.03884 30.4429C6.18723 30.3687 6.33563 30.3069 6.48403 30.2203C7.27548 29.8122 7.46097 29.4041 7.31258 28.5137C7.06525 27.0298 6.81792 25.5582 6.63242 24.0742C6.59532 23.8145 6.78082 23.4435 6.99105 23.258C9.86006 20.5992 12.6672 17.891 15.2394 14.9601C15.4868 14.9725 15.7341 14.9849 15.9814 14.9972C13.4463 17.8539 10.701 20.5127 7.8938 23.1096C7.69593 23.2951 7.51044 23.6661 7.53517 23.9258C7.72067 25.4098 7.968 26.8937 8.21532 28.3653C8.36372 29.2557 8.19059 29.6638 7.38677 30.0719C7.23838 30.1461 7.08998 30.2203 6.94158 30.2945C6.40983 30.5666 6.28616 30.9375 6.70662 31.358C6.96632 31.6177 7.34968 31.8156 7.7083 31.8774C8.63578 32.0382 8.77181 32.1495 9.03151 33.0522C9.45197 34.4867 9.84769 35.9336 10.3671 37.331C11.0472 39.1612 12.1726 40.707 13.7184 41.9066C18.43 45.5794 23.4755 45.9009 28.7436 43.2669C31.4889 41.8942 33.282 39.7177 33.9622 36.6879C34.395 34.7835 34.4074 32.8543 34.3579 30.9128C34.3208 29.4412 34.3208 29.4412 35.6688 28.8476C35.743 28.8105 35.8172 28.7734 35.8914 28.7363C36.6581 28.254 36.6952 27.4626 35.9779 26.9185C35.8419 26.8195 35.7059 26.7206 35.5575 26.6588C34.6547 26.3001 34.395 25.5582 34.3703 24.6801C34.3579 24.3091 34.3703 23.9382 34.3703 23.5672C34.3579 23.5672 34.3579 23.5672 34.3456 23.5672C34.3456 23.1714 34.3827 22.7757 34.3332 22.3924C34.2961 22.1698 34.1724 21.8977 33.9869 21.774C31.0314 19.6594 28.286 17.3221 25.8746 14.6262C26.2208 14.5768 26.5547 14.5273 26.901 14.4655C29.3248 17.1985 32.0949 19.5604 35.0752 21.6875C35.2483 21.8111 35.3843 22.0832 35.4214 22.3058C35.4709 22.6891 35.4338 23.0849 35.4338 23.4806C35.4462 23.4806 35.4462 23.4806 35.4585 23.4806C35.4585 23.8516 35.4462 24.2226 35.4585 24.5936C35.4833 25.4716 35.743 26.2136 36.6457 26.5722C36.7941 26.634 36.9301 26.733 37.0662 26.8319C37.7834 27.376 37.7463 28.1675 36.9796 28.6498C36.9054 28.6992 36.8312 28.724 36.757 28.7611C35.4091 29.3546 35.4091 29.3546 35.4462 30.8262C35.508 32.7678 35.4833 34.6969 35.0504 36.6014C34.3827 39.5446 32.6637 41.6963 30.0544 43.069C32.1443 42.933 34.2343 42.7969 36.3242 42.6733C36.7323 42.6485 37.1775 42.6114 37.499 42.3394C37.7711 42.1044 37.8947 41.7334 37.9937 41.3872C38.4388 39.8908 38.884 38.3821 39.3292 36.8858C39.7868 35.3276 40.2567 33.7571 40.4793 32.1495C40.7514 30.1461 40.6401 28.118 40.8132 26.1146C40.8379 25.8302 40.875 25.5334 41.0605 25.3232C41.3697 24.9522 41.988 24.9893 42.3095 24.6183C42.5816 24.3091 42.5198 23.8145 42.2972 23.4682C42.0746 23.122 41.7283 22.8746 41.4191 22.6149C40.6524 21.9595 40.0712 21.1433 39.49 20.3272C38.0308 18.2867 36.5715 16.2339 35.1123 14.1934C34.9391 13.9585 34.766 13.7111 34.5187 13.5504C34.3208 13.4267 34.0859 13.3649 33.8633 13.303C33.5046 13.2165 33.146 13.1423 32.775 13.0681C33.6036 12.796 34.4198 12.4869 35.2483 12.153C31.5878 8.92532 29.4361 4.80731 28.2366 0.0957031C25.9117 1.06028 23.6362 1.827 21.1753 2.02486C18.702 2.22273 16.3277 2.0125 14.0028 0.664558C11.579 5.067 9.1799 9.44471 6.78082 13.8348C6.85502 13.909 6.91685 13.9832 6.99105 14.0574C7.23838 14.0945 7.48571 14.1316 7.73303 14.1563C7.47334 14.5397 7.28784 15.0467 7.00342 15.665C6.3109 17.1985 5.44525 18.6577 4.4312 20.0056C3.14509 21.7122 1.58693 23.2827 0.832574 25.2737C0.597612 25.8797 0.461581 26.5846 0.746009 27.1658C1.0057 27.7594 1.88372 28.0685 2.34128 27.5986ZM16.3772 23.023C16.3153 22.9365 16.4514 22.5902 16.575 22.5407C17.1315 22.3058 17.7251 22.1203 18.3929 21.8853C18.5413 22.0461 18.7762 22.1821 18.7886 22.3429C18.801 22.5036 18.6402 22.7881 18.4795 22.8499C17.9724 23.0478 17.4283 23.2085 16.8965 23.3198C16.7358 23.3446 16.4761 23.1714 16.3772 23.023ZM18.1579 27.4626C17.6385 27.4749 17.1933 27.0669 17.181 26.5598C17.1686 26.0652 17.6014 25.6076 18.1085 25.5953C18.6155 25.5829 19.0483 26.0033 19.0607 26.5227C19.073 27.0545 18.6897 27.4502 18.1579 27.4626ZM23.2282 35.7728C22.8572 36.3046 22.4367 36.7869 21.6824 36.725C20.8291 36.6508 20.2602 36.1314 19.815 35.4636C19.7408 35.3524 19.8027 35.0308 19.914 34.9319C20.0253 34.8453 20.3097 34.8577 20.4581 34.9443C20.7178 35.105 20.9033 35.3647 21.1506 35.5502C21.5834 35.8965 21.9791 35.847 22.3007 35.3771C22.3501 35.3153 22.3996 35.2411 22.4491 35.1792C22.6469 34.8824 22.8077 34.4249 23.2776 34.7093C23.7846 35.0308 23.4507 35.4389 23.2282 35.7728ZM21.9791 31.8774C22.2017 32.1247 22.3996 32.3844 22.0657 32.6565C21.7194 32.9409 21.435 32.7307 21.2372 32.4339C21.0393 32.1371 20.8909 31.8032 20.7054 31.4693C20.8662 31.0612 20.9527 30.6655 21.163 30.3687C21.3979 30.0348 21.7813 30.0348 22.0781 30.3192C22.3749 30.5913 22.3007 30.8386 21.9544 31.0612C21.5463 31.3333 21.7565 31.6301 21.9791 31.8774ZM24.5885 26.0281C24.1309 26.0033 23.7352 25.6076 23.7352 25.1501C23.7228 24.643 24.2051 24.1731 24.7245 24.1855C25.2439 24.1855 25.5901 24.5565 25.5901 25.0882C25.5901 25.6076 25.1078 26.0528 24.5885 26.0281ZM26.2827 21.4154C26.1466 21.5762 26.0353 21.8111 25.8622 21.873C25.553 21.9843 25.2191 21.9843 24.8976 22.0337C24.8976 22.0214 24.8976 22.009 24.8976 21.9966C24.7369 21.9966 24.539 22.0585 24.4153 21.9843C24.2422 21.8853 24.0691 21.6998 24.032 21.5143C24.0072 21.4154 24.2669 21.1804 24.4277 21.1433C24.8729 21.0568 25.3304 20.9949 25.7756 21.0073C25.9364 21.0197 26.1095 21.267 26.2827 21.4154ZM17.9848 7.72578C18.6897 7.65158 19.4069 7.60212 20.0871 7.54029C20.1489 6.69937 20.2231 5.92029 20.2602 5.15357C20.2726 4.77021 20.4333 4.60945 20.8167 4.55998C22.2512 4.41158 22.2141 4.64654 22.2388 5.67296C22.2512 6.21708 22.2759 6.7612 22.3007 7.36716C22.8695 7.31769 23.4013 7.26822 23.9454 7.23112C24.2546 7.20639 24.5637 7.18166 24.8729 7.18166C25.3428 7.18166 25.553 7.39189 25.5654 7.87418C25.5654 8.12151 25.553 8.36883 25.5407 8.61616C25.5159 9.24685 25.4417 9.33342 24.8234 9.38288C24.0567 9.44471 23.2776 9.53128 22.548 9.60548C22.4985 10.298 22.3996 10.9658 22.412 11.6336C22.4243 12.8331 21.8926 12.9815 20.8414 12.6476C20.5199 12.5487 20.3097 12.3385 20.2973 11.9675C20.2726 11.2502 20.2231 10.5453 20.186 9.79097C19.444 9.8528 18.7144 9.8899 17.9972 9.9641C17.1439 10.0507 16.9831 9.927 16.8965 9.07372C16.7976 7.96074 16.8842 7.83708 17.9848 7.72578Z" fill="white"/>
<path d="M48.7521 50.5262C48.3687 50.1923 48.109 49.8461 47.7875 49.4751C47.4289 49.7472 47.1939 50.2913 46.8477 50.6252C47.3918 51.2188 47.8122 51.936 48.0348 52.7027C48.109 52.9501 48.1709 53.2098 48.344 53.4076C48.7892 52.8388 49.2591 52.2823 49.7538 51.7629C49.4941 51.293 49.1478 50.8725 48.7521 50.5262Z" fill="white"/>
<path d="M18.354 117.762C18.0449 117.602 17.6986 117.577 17.3523 117.564C16.9072 117.54 16.4496 117.515 16.0044 117.515C17.1668 112.816 17.8099 108.03 18.082 103.17C16.0168 103.009 14.001 102.836 11.874 102.675C12.0224 107.82 12.1461 112.927 13.1972 117.948C12.8386 118.541 13.8156 119.939 14.1865 120.273C14.5823 120.631 15.0522 120.916 15.5716 121.039C15.9797 121.138 16.4001 121.138 16.8082 121.138C17.2905 121.138 17.7728 121.126 18.2304 120.965C18.6879 120.804 19.1084 120.471 19.232 120.013C19.3062 119.741 19.2815 119.444 19.232 119.16C19.1084 118.591 18.8487 118.022 18.354 117.762Z" fill="white"/>
<path d="M37.9313 116.451C37.6221 116.291 37.2759 116.266 36.9296 116.254C36.6575 116.241 36.3855 116.229 36.101 116.217C36.4844 111.653 36.8554 107.152 37.2264 102.638C35.2725 102.923 33.4299 103.195 31.5502 103.467C31.3894 107.931 31.9459 112.333 32.7374 116.686C32.4777 117.305 33.4052 118.628 33.7514 118.949C34.1472 119.308 34.6171 119.593 35.1365 119.716C35.5446 119.815 35.965 119.815 36.3731 119.815C36.8554 119.815 37.3377 119.803 37.7952 119.642C38.2528 119.481 38.6733 119.147 38.7969 118.69C38.8711 118.418 38.8464 118.121 38.7969 117.837C38.6856 117.28 38.4259 116.711 37.9313 116.451Z" fill="white"/>
</g>
<path fill-rule="evenodd" clip-rule="evenodd" d="M32.878 48.3562C33.0142 48.3389 33.1431 48.3022 33.2624 48.2491L29.071 58.8092C28.8469 58.4559 28.4677 58.2177 28.0412 58.1781L32.0103 48.1781C32.2628 48.3269 32.5648 48.3961 32.878 48.3562ZM27.3176 58.3082L17.5549 49.6526C17.5127 50.0783 17.2725 50.456 16.9178 50.6781L26.5763 59.2413C26.6678 58.8352 26.9417 58.4896 27.3176 58.3082ZM27.6276 60.8829L30.8273 81.4749L32.0032 81.2922L28.7875 60.5977C28.5941 60.7583 28.3542 60.8676 28.0863 60.9017C27.9289 60.9217 27.7744 60.9142 27.6276 60.8829ZM32.5292 45.6383L29.4887 42.6115L28.6492 43.4548L31.5187 46.3114C31.7251 45.9549 32.0893 45.6952 32.5292 45.6383ZM15.9226 48.1724L17.5061 44.2137L18.611 44.6556L17.083 48.4757C16.7993 48.2328 16.418 48.106 16.0183 48.1569C15.986 48.161 15.9541 48.1662 15.9226 48.1724Z" fill="white"/>
<circle cx="16.1836" cy="49.5906" r="0.822645" transform="rotate(-7.25406 16.1836 49.5906)" fill="white"/>
<circle cx="32.9287" cy="46.8338" r="0.822645" transform="rotate(-7.25406 32.9287 46.8338)" fill="white"/>
<circle cx="27.8711" cy="59.4075" r="0.822645" transform="rotate(-7.25406 27.8711 59.4075)" fill="white"/>
<path d="M33.7637 77.1144L33.2663 80.8048L36.6223 82.4183L32.9588 83.0856L32.4613 86.776L30.6946 83.498L27.0311 84.1653L29.6027 81.4721L27.836 78.1941L31.1921 79.8076L33.7637 77.1144Z" fill="white"/>
<path d="M30.2005 40.7872L29.9594 42.5757L31.5859 43.3577L29.8104 43.681L29.5693 45.4695L28.7131 43.8809L26.9377 44.2043L28.184 42.8991L27.3278 41.3104L28.9542 42.0924L30.2005 40.7872Z" fill="white"/>
<path d="M31.2047 57.402L29.3518 59.5361L30.8089 61.9578L28.2067 60.855L26.3538 62.9891L26.5984 60.1735L23.9962 59.0708L26.7496 58.4334L26.9942 55.6177L28.4513 58.0394L31.2047 57.402Z" fill="white"/>
<path d="M19.2357 42.1832L18.9946 43.9717L20.621 44.7536L18.8456 45.077L18.6045 46.8655L17.7483 45.2769L15.9728 45.6003L17.2191 44.2951L16.3629 42.7064L17.9894 43.4884L19.2357 42.1832Z" fill="white"/>
</svg>
