<svg width="109" height="81" viewBox="0 0 109 81" fill="none" xmlns="http://www.w3.org/2000/svg">
<g opacity="0.2">
<path d="M104.465 63.864C102.496 68.8038 100.492 73.7781 98.5231 78.7178C98.1777 79.616 97.5904 80.0996 96.6232 80.1341C95.4833 80.1687 94.3433 80.3414 93.2034 80.3414C69.4718 80.3759 45.7057 80.3414 21.9741 80.4105C19.936 80.4105 18.5197 79.7541 17.3798 78.027C14.2017 73.2599 10.851 68.5965 7.56934 63.864C8.50202 63.035 9.64196 63.3113 10.7128 63.3113C31.3009 63.3113 51.8545 63.3113 72.4426 63.3113C82.2185 63.3113 91.9943 63.3113 101.736 63.3113C102.634 63.3113 103.67 63.104 104.465 63.864Z" fill="white"/>
<path d="M107.815 55.7806C107.504 56.4715 106.019 59.9259 105.19 60.824C72.4423 60.7895 39.6603 60.7549 6.91276 60.824C5.46192 59.9604 1.93845 55.8152 1.17849 54.7098C0.729422 54.088 0.902141 53.7771 1.6621 53.7771C16.7232 53.708 31.8188 53.9153 46.8799 53.6734C47.5362 53.2244 48.2962 53.2589 49.0562 53.2589C56.6558 53.2589 64.2209 53.2589 71.8205 53.2589C72.615 53.2589 73.4441 53.1898 74.1349 53.708C84.8781 53.7425 95.6557 53.7425 106.399 53.7425C108.644 53.7771 108.644 53.8116 107.815 55.7806Z" fill="white"/>
<path d="M74.1694 42.5508C65.0844 42.4126 55.9648 42.3435 46.8798 42.5162C46.1544 42.2744 45.049 42.9307 45.0144 41.3072C44.9799 39.6491 45.2562 38.6128 47.1216 38.6473C48.2615 38.1982 49.436 38.0601 50.645 38.0601C57.2775 38.0601 63.9444 38.0601 70.5768 38.0601C71.6131 38.0601 72.6494 38.0946 73.5821 38.6473C73.8239 38.6818 74.0312 38.6818 74.2385 38.7509C74.8602 38.9582 75.8275 38.4746 76.0693 39.2691C76.3111 40.0981 76.3111 41.1345 76.1038 41.9635C75.862 42.9653 74.7912 42.2399 74.1694 42.5508Z" fill="white"/>
<path d="M73.5822 38.6819C65.9826 38.9583 58.3484 38.7855 50.7488 38.751C49.5398 38.751 48.3307 38.7165 47.1562 38.6819C50.3343 36.5747 53.6505 35.1239 57.6921 35.4693C61.2847 35.7802 64.9118 35.6421 68.5043 35.4693C70.2315 35.4003 71.4751 35.8148 72.4077 37.2311C72.7186 37.7492 73.1677 38.1983 73.5822 38.6819Z" fill="white"/>
<path d="M71.9589 41.8946C64.3247 41.86 56.7251 41.86 49.0909 41.8946C48.2964 41.8946 47.4673 41.7909 46.8455 42.5163C46.6037 46.2471 47.2255 49.9778 46.8801 53.7085C55.9651 53.9503 65.0501 53.8122 74.1351 53.7776C74.1351 50.0469 74.1351 46.3162 74.1351 42.5854C73.5824 41.7909 72.7534 41.8946 71.9589 41.8946ZM54.8942 51.0141C53.2361 51.0487 51.8198 49.5978 51.8544 47.9397C51.8889 46.3507 53.2016 45.0035 54.8251 44.969C56.4487 44.9344 57.9341 46.3507 57.9341 47.9743C57.9341 49.6669 56.6214 51.0141 54.8942 51.0141ZM66.3973 50.9796C64.7047 50.9796 63.3575 49.6669 63.3229 47.9397C63.2884 46.3507 64.6356 44.969 66.2246 44.9344C67.8136 44.8999 69.3681 46.3507 69.4026 47.9052C69.4372 49.6324 68.1245 50.9796 66.3973 50.9796Z" fill="white"/>
</g>
<path fill-rule="evenodd" clip-rule="evenodd" d="M89.0883 9.01409L62 7.2164L60.4461 7.11328L61.514 8.2468L83.1424 31.2052C83.3757 30.8663 83.6693 30.5723 84.0077 30.3384L63.4728 8.54094L89.2552 10.252C89.1441 9.91749 89.0839 9.55978 89.0839 9.18803C89.0839 9.12969 89.0854 9.0717 89.0883 9.01409ZM91.239 12.3344C91.6128 12.4792 92.0188 12.5593 92.4434 12.561L88.1642 30.5948C87.8451 30.3109 87.4717 30.0866 87.0616 29.9395L91.239 12.3344ZM85.9228 36.4884C86.2235 36.4884 86.515 36.4491 86.7925 36.3752L78.8853 69.6985L78.7774 70.1534L78.31 70.1689L40.1082 71.4339L39.6831 71.448L39.5217 71.0544L33.0303 55.2262L34.1628 54.7618L40.4929 70.1964L77.8022 68.9609L85.5134 36.4638C85.6476 36.4801 85.7842 36.4884 85.9228 36.4884Z" fill="white"/>
<circle cx="86.1826" cy="32.6171" r="1.7392" fill="white"/>
<circle cx="92.0962" cy="9.38916" r="1.30712" fill="white"/>
<circle cx="32.2251" cy="52.791" r="1.30712" fill="white"/>
<path d="M63.2389 0.393066L64.7747 5.1197H69.7445L65.7238 8.04092L67.2596 12.7675L63.2389 9.84633L59.2182 12.7675L60.7539 8.04092L56.7332 5.1197H61.7031L63.2389 0.393066Z" fill="white"/>
<path d="M41.2002 64.8579L42.211 67.9687H45.4819L42.8357 69.8913L43.8464 73.0021L41.2002 71.0795L38.554 73.0021L39.5648 69.8913L36.9186 67.9687H40.1895L41.2002 64.8579Z" fill="white"/>
<path d="M77.7926 63.9248L78.9081 67.3579H82.5179L79.5975 69.4797L80.713 72.9128L77.7926 70.791L74.8723 72.9128L75.9878 69.4797L73.0674 67.3579H76.6772L77.7926 63.9248Z" fill="white"/>
</svg>
