<svg width="112" height="102" viewBox="0 0 112 102" fill="none" xmlns="http://www.w3.org/2000/svg">
<g opacity="0.1">
<mask id="path-1-inside-1_311_1822" fill="white">
<path d="M109.468 37.4338C107.903 36.2278 105.526 37.2365 103.674 36.4867C103.21 36.3084 103.104 35.7152 103.455 35.4097C105.059 33.9086 107.926 34.2885 108.876 32.1932C109.046 31.8387 108.819 31.4202 108.459 31.3223C106.803 30.9156 105.333 32.0598 103.73 32.4624C103.655 32.4939 103.618 32.4914 103.546 32.4864C99.6381 32.328 99.5037 20.4173 99.1458 17.0969C99.1483 17.0605 99.1169 16.9851 99.1194 16.9486C96.7533 10.3411 92.7076 22.331 88.7472 21.876C88.7108 21.8735 88.6743 21.871 88.6379 21.8685C80.3106 22.6151 78.5653 24.0333 71.9501 17.9763C71.9162 17.9373 71.8798 17.9348 71.8458 17.8959C69.9187 16.6283 68.8109 18.8959 69.0528 20.7069C69.5644 24.9899 68.8707 29.2268 68.0362 33.3808C67.5236 38.1794 63.0871 33.9931 60.6947 35.7697C60.4245 35.9709 60.3606 36.3693 60.5592 36.6759C61.7662 38.2968 64.6378 37.5419 66.194 38.3445C66.6553 38.5593 66.6442 39.2543 66.1893 39.4794C64.4791 40.3873 62.2443 39.8677 60.6674 40.9679C60.3218 41.2005 60.3207 41.7497 60.6702 41.9934C62.444 43.3603 65.6772 41.6048 67.4545 42.386C67.8455 42.5593 67.9173 43.1135 67.6421 43.3876C63.707 47.3653 57.61 42.296 52.9207 41.791C52.8843 41.7885 52.8843 41.7885 52.8478 41.7859C44.7157 39.6896 36.5213 39.5664 28.4094 41.9757C26.6902 42.4802 25.7311 42.0482 24.8736 40.671C19.7118 32.1137 16.2134 21.7299 19.2393 11.7939C20.5715 7.85721 21.7688 2.15348 16.4345 0.908371C16.3616 0.903366 16.3252 0.900864 16.2523 0.895859C6.20045 1.15785 3.77356 21.5716 6.89036 29.5123C6.88785 29.5488 6.9218 29.5877 6.9193 29.6242C8.81644 39.8615 21.4191 46.1831 18.453 54.1823C18.4505 54.2187 18.4505 54.2187 18.4115 54.2527C14.8094 61.9153 19.7346 69.6506 18.0982 77.4848C18.0957 77.5212 18.0957 77.5212 18.0932 77.5576C17.8686 82.962 13.1497 92.4887 20.1509 95.0567C20.1873 95.0592 20.1873 95.0592 20.2238 95.0617C22.5239 95.6957 24.9509 96.082 27.2936 96.0964C31.0742 96.5025 34.9193 90.1016 30.5074 88.2241C30.4709 88.2216 30.4005 88.1801 30.3641 88.1776C25.187 87.3095 27.5398 83.4429 29.0243 79.956C29.2416 79.4583 29.9391 79.4329 30.1981 79.9268C31.9511 83.1964 33.1599 86.3921 34.9104 89.6982C37.2036 96.3007 53.836 96.1976 50.1347 87.704C50.0718 87.5532 49.9674 87.4728 49.8266 87.3899C45.1292 84.8702 43.3057 85.2943 41.596 79.7938C41.4778 79.3829 41.7629 78.963 42.2028 78.9566C47.7025 78.8581 52.9382 78.3387 58.4215 77.9462C60.8521 77.7469 60.8986 77.6036 61.8783 79.868C61.8758 79.9045 61.9098 79.9434 61.9073 79.9799C67.7976 103.528 88.246 92.115 79.028 86.099C78.9941 86.06 78.9212 86.055 78.8872 86.0161C77.3136 85.4686 75.295 85.0004 74.4499 83.441C74.416 83.4021 74.4185 83.3656 74.3845 83.3267C73.2423 79.6961 69.6022 74.5758 73.8946 71.7944C78.7795 66.7833 91.801 82.4717 101.066 69.6683C101.105 69.6344 101.107 69.598 101.11 69.5615C103.642 64.6818 97.0127 60.9675 93.3867 64.7101C93.3088 64.778 93.2309 64.8459 93.119 64.8748C89.6318 66.0636 87.038 62.7728 84.1758 61.258C84.1393 61.2555 84.1054 61.2165 84.0714 61.1776C82.0626 59.5016 84.2999 56.2496 86.3596 55.5854C92.5587 53.3011 98.0914 50.0556 101.641 44.2205C101.888 43.8345 102.782 43.603 103.365 43.6431C103.402 43.6456 103.438 43.6481 103.475 43.6506C104.957 43.9354 106.341 44.5797 107.853 44.4272C108.331 44.3868 108.551 43.8526 108.324 43.4342C107.042 41.2955 103.303 41.881 102.867 40.2398C102.806 40.0525 102.855 39.8728 102.977 39.6981C104.237 37.8804 107.522 39.6439 109.395 38.4908C109.743 38.2218 109.815 37.714 109.468 37.4338ZM10.5239 9.65752C13.1642 0.537363 19.7302 1.9769 16.8223 11.2618C16.7708 11.478 16.5761 11.6477 16.3888 11.7081C14.7086 12.1786 12.8859 10.9915 11.0156 10.4969C10.6222 10.36 10.426 10.017 10.5239 9.65752ZM9.68129 24.0645C7.11742 24.0716 8.60156 19.5227 8.4401 17.6074C8.41116 17.4956 8.41867 17.3862 8.46262 17.2794C9.2388 15.5749 11.877 16.0856 13.4718 15.7923C17.3614 15.1439 16.1256 18.2083 15.9505 20.7597C15.948 20.7961 15.9455 20.8326 15.9455 20.8326C16.1815 24.3277 12.1934 23.2116 9.86854 24.0041C9.79314 24.0356 9.75419 24.0695 9.68129 24.0645ZM18.2052 33.2554C16.9149 34.4485 13.7556 35.6597 12.2284 34.969C12.0876 34.8861 11.9493 34.7667 11.8865 34.6159C11.1997 32.8843 8.30182 29.7557 11.0036 28.806C16.3684 26.9405 17.0434 27.2432 18.3961 32.6093C18.4175 32.8305 18.3635 33.0831 18.2052 33.2554ZM25.9469 93.8434C25.874 93.8384 25.8376 93.8359 25.7647 93.8309C22.723 93.3291 19.1461 93.1567 18.8057 89.5812C18.7868 89.3236 18.9161 89.0395 19.1788 88.9477C23.5958 87.0172 36.3579 92.6173 25.9469 93.8434ZM46.0589 87.8636C51.6333 89.3449 46.8785 92.4608 43.4599 92.1162C43.4234 92.1137 43.387 92.1112 43.3141 92.1062C39.9473 92.6074 35.1037 89.0157 37.4293 86.612C37.4683 86.578 37.5072 86.5441 37.5462 86.5102C40.7655 84.4241 42.6918 87.3029 46.0589 87.8636ZM87.9108 68.7285C89.2937 66.1869 93.4448 69.731 95.6997 66.2238C95.7801 66.1195 95.8605 66.0152 95.9723 65.9862C102.136 63.1502 99.7209 72.7253 90.844 72.4088C88.0765 72.1822 86.4638 71.6686 87.9108 68.7285ZM80.0795 31.3147C80.2463 34.2191 76.0108 34.0382 76.0577 31.2217C75.9198 28.4291 80.2621 28.654 80.0795 31.3147ZM71.4648 21.312C71.5627 20.9525 71.9812 20.7249 72.3381 20.8592C73.5473 21.3817 74.2216 23.2956 74.7736 24.3222C74.9019 24.5874 73.9406 25.2538 73.1252 25.9302C72.8915 26.1339 72.561 26.1478 72.3183 25.948C70.7243 24.6301 71.0116 23.1118 71.4648 21.312ZM78.1924 90.8022C78.1145 90.8701 78.0756 90.904 77.9637 90.933C75.1765 92.0599 69.9405 91.5173 68.2668 88.6926C68.1021 88.4249 68.1611 88.0994 68.3583 87.8932C71.3211 85.2769 81.684 87.4166 78.1924 90.8022ZM79.1153 59.226C78.9645 59.2889 78.7822 59.2764 78.6025 59.2275C74.4821 57.3699 63.2384 52.0571 67.1807 46.908C67.3025 46.7333 67.5287 46.639 67.7474 46.654C70.6947 46.9296 73.8676 53.5193 78.7181 54.8776C78.7909 54.8826 78.8249 54.9216 78.8953 54.963C81.2787 56.5182 81.7178 58.123 79.1153 59.226ZM82.5157 45.4341C79.1783 43.374 84.2885 43.615 84.459 42.1985C80.0964 37.468 78.6254 35.4262 86.9302 35.0076C93.2257 35.5863 83.5703 41.8079 88.5487 42.3694C92.6265 44.8466 84.1709 45.328 82.5157 45.4341ZM91.3748 32.6761C88.728 32.824 88.4137 28.3348 91.3006 28.4231C94.1031 28.1395 94.0405 32.7859 91.3748 32.6761ZM94.9512 23.254C92.7994 22.5936 95.0128 19.1569 96.5987 18.4601C97.0121 18.3054 97.432 18.5905 97.4748 19.0329C97.6213 21.1669 97.9403 24.5212 94.9512 23.254Z"/>
</mask>
<path d="M109.468 37.4338C107.903 36.2278 105.526 37.2365 103.674 36.4867C103.21 36.3084 103.104 35.7152 103.455 35.4097C105.059 33.9086 107.926 34.2885 108.876 32.1932C109.046 31.8387 108.819 31.4202 108.459 31.3223C106.803 30.9156 105.333 32.0598 103.73 32.4624C103.655 32.4939 103.618 32.4914 103.546 32.4864C99.6381 32.328 99.5037 20.4173 99.1458 17.0969C99.1483 17.0605 99.1169 16.9851 99.1194 16.9486C96.7533 10.3411 92.7076 22.331 88.7472 21.876C88.7108 21.8735 88.6743 21.871 88.6379 21.8685C80.3106 22.6151 78.5653 24.0333 71.9501 17.9763C71.9162 17.9373 71.8798 17.9348 71.8458 17.8959C69.9187 16.6283 68.8109 18.8959 69.0528 20.7069C69.5644 24.9899 68.8707 29.2268 68.0362 33.3808C67.5236 38.1794 63.0871 33.9931 60.6947 35.7697C60.4245 35.9709 60.3606 36.3693 60.5592 36.6759C61.7662 38.2968 64.6378 37.5419 66.194 38.3445C66.6553 38.5593 66.6442 39.2543 66.1893 39.4794C64.4791 40.3873 62.2443 39.8677 60.6674 40.9679C60.3218 41.2005 60.3207 41.7497 60.6702 41.9934C62.444 43.3603 65.6772 41.6048 67.4545 42.386C67.8455 42.5593 67.9173 43.1135 67.6421 43.3876C63.707 47.3653 57.61 42.296 52.9207 41.791C52.8843 41.7885 52.8843 41.7885 52.8478 41.7859C44.7157 39.6896 36.5213 39.5664 28.4094 41.9757C26.6902 42.4802 25.7311 42.0482 24.8736 40.671C19.7118 32.1137 16.2134 21.7299 19.2393 11.7939C20.5715 7.85721 21.7688 2.15348 16.4345 0.908371C16.3616 0.903366 16.3252 0.900864 16.2523 0.895859C6.20045 1.15785 3.77356 21.5716 6.89036 29.5123C6.88785 29.5488 6.9218 29.5877 6.9193 29.6242C8.81644 39.8615 21.4191 46.1831 18.453 54.1823C18.4505 54.2187 18.4505 54.2187 18.4115 54.2527C14.8094 61.9153 19.7346 69.6506 18.0982 77.4848C18.0957 77.5212 18.0957 77.5212 18.0932 77.5576C17.8686 82.962 13.1497 92.4887 20.1509 95.0567C20.1873 95.0592 20.1873 95.0592 20.2238 95.0617C22.5239 95.6957 24.9509 96.082 27.2936 96.0964C31.0742 96.5025 34.9193 90.1016 30.5074 88.2241C30.4709 88.2216 30.4005 88.1801 30.3641 88.1776C25.187 87.3095 27.5398 83.4429 29.0243 79.956C29.2416 79.4583 29.9391 79.4329 30.1981 79.9268C31.9511 83.1964 33.1599 86.3921 34.9104 89.6982C37.2036 96.3007 53.836 96.1976 50.1347 87.704C50.0718 87.5532 49.9674 87.4728 49.8266 87.3899C45.1292 84.8702 43.3057 85.2943 41.596 79.7938C41.4778 79.3829 41.7629 78.963 42.2028 78.9566C47.7025 78.8581 52.9382 78.3387 58.4215 77.9462C60.8521 77.7469 60.8986 77.6036 61.8783 79.868C61.8758 79.9045 61.9098 79.9434 61.9073 79.9799C67.7976 103.528 88.246 92.115 79.028 86.099C78.9941 86.06 78.9212 86.055 78.8872 86.0161C77.3136 85.4686 75.295 85.0004 74.4499 83.441C74.416 83.4021 74.4185 83.3656 74.3845 83.3267C73.2423 79.6961 69.6022 74.5758 73.8946 71.7944C78.7795 66.7833 91.801 82.4717 101.066 69.6683C101.105 69.6344 101.107 69.598 101.11 69.5615C103.642 64.6818 97.0127 60.9675 93.3867 64.7101C93.3088 64.778 93.2309 64.8459 93.119 64.8748C89.6318 66.0636 87.038 62.7728 84.1758 61.258C84.1393 61.2555 84.1054 61.2165 84.0714 61.1776C82.0626 59.5016 84.2999 56.2496 86.3596 55.5854C92.5587 53.3011 98.0914 50.0556 101.641 44.2205C101.888 43.8345 102.782 43.603 103.365 43.6431C103.402 43.6456 103.438 43.6481 103.475 43.6506C104.957 43.9354 106.341 44.5797 107.853 44.4272C108.331 44.3868 108.551 43.8526 108.324 43.4342C107.042 41.2955 103.303 41.881 102.867 40.2398C102.806 40.0525 102.855 39.8728 102.977 39.6981C104.237 37.8804 107.522 39.6439 109.395 38.4908C109.743 38.2218 109.815 37.714 109.468 37.4338ZM10.5239 9.65752C13.1642 0.537363 19.7302 1.9769 16.8223 11.2618C16.7708 11.478 16.5761 11.6477 16.3888 11.7081C14.7086 12.1786 12.8859 10.9915 11.0156 10.4969C10.6222 10.36 10.426 10.017 10.5239 9.65752ZM9.68129 24.0645C7.11742 24.0716 8.60156 19.5227 8.4401 17.6074C8.41116 17.4956 8.41867 17.3862 8.46262 17.2794C9.2388 15.5749 11.877 16.0856 13.4718 15.7923C17.3614 15.1439 16.1256 18.2083 15.9505 20.7597C15.948 20.7961 15.9455 20.8326 15.9455 20.8326C16.1815 24.3277 12.1934 23.2116 9.86854 24.0041C9.79314 24.0356 9.75419 24.0695 9.68129 24.0645ZM18.2052 33.2554C16.9149 34.4485 13.7556 35.6597 12.2284 34.969C12.0876 34.8861 11.9493 34.7667 11.8865 34.6159C11.1997 32.8843 8.30182 29.7557 11.0036 28.806C16.3684 26.9405 17.0434 27.2432 18.3961 32.6093C18.4175 32.8305 18.3635 33.0831 18.2052 33.2554ZM25.9469 93.8434C25.874 93.8384 25.8376 93.8359 25.7647 93.8309C22.723 93.3291 19.1461 93.1567 18.8057 89.5812C18.7868 89.3236 18.9161 89.0395 19.1788 88.9477C23.5958 87.0172 36.3579 92.6173 25.9469 93.8434ZM46.0589 87.8636C51.6333 89.3449 46.8785 92.4608 43.4599 92.1162C43.4234 92.1137 43.387 92.1112 43.3141 92.1062C39.9473 92.6074 35.1037 89.0157 37.4293 86.612C37.4683 86.578 37.5072 86.5441 37.5462 86.5102C40.7655 84.4241 42.6918 87.3029 46.0589 87.8636ZM87.9108 68.7285C89.2937 66.1869 93.4448 69.731 95.6997 66.2238C95.7801 66.1195 95.8605 66.0152 95.9723 65.9862C102.136 63.1502 99.7209 72.7253 90.844 72.4088C88.0765 72.1822 86.4638 71.6686 87.9108 68.7285ZM80.0795 31.3147C80.2463 34.2191 76.0108 34.0382 76.0577 31.2217C75.9198 28.4291 80.2621 28.654 80.0795 31.3147ZM71.4648 21.312C71.5627 20.9525 71.9812 20.7249 72.3381 20.8592C73.5473 21.3817 74.2216 23.2956 74.7736 24.3222C74.9019 24.5874 73.9406 25.2538 73.1252 25.9302C72.8915 26.1339 72.561 26.1478 72.3183 25.948C70.7243 24.6301 71.0116 23.1118 71.4648 21.312ZM78.1924 90.8022C78.1145 90.8701 78.0756 90.904 77.9637 90.933C75.1765 92.0599 69.9405 91.5173 68.2668 88.6926C68.1021 88.4249 68.1611 88.0994 68.3583 87.8932C71.3211 85.2769 81.684 87.4166 78.1924 90.8022ZM79.1153 59.226C78.9645 59.2889 78.7822 59.2764 78.6025 59.2275C74.4821 57.3699 63.2384 52.0571 67.1807 46.908C67.3025 46.7333 67.5287 46.639 67.7474 46.654C70.6947 46.9296 73.8676 53.5193 78.7181 54.8776C78.7909 54.8826 78.8249 54.9216 78.8953 54.963C81.2787 56.5182 81.7178 58.123 79.1153 59.226ZM82.5157 45.4341C79.1783 43.374 84.2885 43.615 84.459 42.1985C80.0964 37.468 78.6254 35.4262 86.9302 35.0076C93.2257 35.5863 83.5703 41.8079 88.5487 42.3694C92.6265 44.8466 84.1709 45.328 82.5157 45.4341ZM91.3748 32.6761C88.728 32.824 88.4137 28.3348 91.3006 28.4231C94.1031 28.1395 94.0405 32.7859 91.3748 32.6761ZM94.9512 23.254C92.7994 22.5936 95.0128 19.1569 96.5987 18.4601C97.0121 18.3054 97.432 18.5905 97.4748 19.0329C97.6213 21.1669 97.9403 24.5212 94.9512 23.254Z" fill="white" stroke="white" stroke-width="0.815632" mask="url(#path-1-inside-1_311_1822)"/>
</g>
<path d="M13.7588 33.834L32.4769 61.1313H74.9827L83.5619 37.9286" stroke="white" stroke-width="1.22345"/>
<circle cx="84.3913" cy="35.8103" r="1.15519" fill="white" stroke="white" stroke-width="0.407816"/>
<path d="M74.5079 56.2453L75.4252 59.0683L75.4709 59.2092H75.6191L78.5874 59.2092L76.186 60.954L76.0661 61.0411L76.1119 61.182L77.0292 64.005L74.6278 62.2603L74.5079 62.1732L74.388 62.2603L71.9866 64.005L72.9039 61.182L72.9497 61.0411L72.8298 60.954L70.4284 59.2092L73.3967 59.2092H73.5449L73.5906 59.0683L74.5079 56.2453Z" fill="white" stroke="white" stroke-width="0.407816"/>
<path d="M32.5765 54.8664L33.9373 59.0547L33.9831 59.1956H34.1312H38.5351L34.9723 61.7841L34.8524 61.8712L34.8982 62.0121L36.2591 66.2003L32.6963 63.6118L32.5765 63.5247L32.4566 63.6118L28.8939 66.2003L30.2547 62.0121L30.3005 61.8712L30.1806 61.7841L26.6179 59.1956H31.0217H31.1698L31.2156 59.0547L32.5765 54.8664Z" fill="white" stroke="white" stroke-width="0.407816"/>
<path d="M11.6488 28.717L13.9718 31.1178L14.0748 31.2243L14.2079 31.1592L17.2091 29.6917L15.6437 32.643L15.5742 32.7739L15.6773 32.8803L18.0003 35.2812L14.7098 34.7043L14.5638 34.6787L14.4944 34.8096L12.929 37.7609L12.4607 34.4531L12.44 34.3064L12.294 34.2808L9.00347 33.704L12.0047 32.2365L12.1377 32.1715L12.117 32.0248L11.6488 28.717Z" fill="white" stroke="white" stroke-width="0.407816"/>
</svg>
