<svg width="120" height="71" viewBox="0 0 120 71" fill="none" xmlns="http://www.w3.org/2000/svg">
<g opacity="0.2">
<path d="M10.4854 36.5412C10.9118 36.7351 11.3771 36.8902 11.8423 36.9289C13.6646 37.2003 15.7195 36.58 17.7356 35.9984C19.2089 35.5719 20.6434 35.1454 21.8065 34.4476C22.582 33.9823 23.3186 33.362 24.1716 32.4702C25.451 31.1132 26.2264 29.9113 26.5754 28.787C27.157 26.8096 26.4203 24.4058 24.7919 23.1264C24.4817 22.855 24.3267 22.8162 24.2491 22.7774C24.094 22.7387 23.7839 22.6999 23.59 22.6999C23.1635 22.6611 22.737 22.6611 22.3106 22.6611C16.65 25.5302 12.1525 30.1827 10.4854 36.5412Z" fill="white"/>
<path d="M118.773 34.7966C117.183 33.2845 115.788 31.5786 113.888 30.4543C114.004 29.4074 113.81 28.4382 113.345 27.4689C114.275 25.4528 115.206 23.3979 116.214 21.3818C116.641 20.4901 116.369 19.9473 115.516 19.9085C114.586 19.8697 113.578 17.9699 112.686 19.8697C111.794 21.8083 110.98 23.7468 110.166 25.7242C109.972 25.6854 109.817 25.6466 109.662 25.6079C108.227 23.4367 106.25 21.7695 104.389 20.0636C103.187 18.978 102.722 20.839 101.869 21.3043C101.21 21.6532 101.054 22.1572 101.714 22.8163C103.109 24.2121 104.428 25.7242 105.785 27.1587C106.134 27.1199 106.444 27.1975 106.676 27.4301C106.715 27.4689 106.754 27.5076 106.754 27.5464C106.715 27.5852 106.638 27.6627 106.599 27.7015C106.327 27.5076 106.056 27.3526 105.785 27.1587C94.192 26.6547 82.5994 26.1119 71.0456 25.6079C69.4948 25.5303 67.5562 25.9568 66.5482 25.1814C65.4626 24.3284 66.238 22.2735 66.2767 20.7615C66.2767 19.5208 65.8503 19.1331 64.6871 18.8617C60.4999 17.8536 56.3513 16.6905 52.164 15.6049C51.5049 15.4498 50.6907 15.4886 50.652 14.4805C51.0785 12.7358 51.5049 10.9524 51.8927 9.20766C52.009 8.70363 52.0477 8.16084 52.7844 8.23838C54.9943 8.47101 57.2043 8.04452 59.4918 8.7424C69.8049 11.8053 80.4282 13.3174 91.1678 13.7827C92.4861 13.8602 94.7736 14.1316 94.8511 13.0848C94.9674 11.5727 92.7575 11.5727 91.478 11.3013C80.4282 8.78118 69.456 6.95893 58.2124 6.84262C57.592 6.84262 57.0492 6.95893 56.6615 6.14474C54.8005 2.50025 49.3338 1.33711 46.4259 4.12864C45.224 5.29177 44.2935 5.29177 42.9365 5.02037C32.1194 2.77164 21.1859 2.30639 10.1749 3.08181C9.08928 3.12059 7.26704 2.9655 7.22827 4.12864C7.1895 5.13669 9.01174 5.29177 10.1361 5.48563C20.3717 7.15279 30.6848 7.61804 41.0367 7.15279C43.4405 7.03647 45.728 6.95893 48.0543 7.77313C48.9073 8.08329 48.9848 8.35469 48.8297 9.09134C48.4808 10.6034 48.1706 12.1155 47.8605 13.6276C47.1626 14.907 46.2321 13.9765 45.573 13.7439C41.8897 12.3869 38.7105 13.1235 36.5005 16.3416C34.9884 18.5903 32.9723 19.3657 30.6073 19.7922C30.2196 19.8697 29.8706 19.9473 29.4829 20.0248C31.8867 22.7388 32.856 26.7322 31.8092 30.2604C31.2276 32.2765 29.9869 34.2151 28.1259 36.1924C26.924 37.4718 25.7997 38.3636 24.5978 39.1002C22.853 40.147 20.9533 40.6898 19.2861 41.1939C17.4251 41.7367 15.1764 42.3958 12.8113 42.3958C12.2297 42.3958 11.6482 42.357 11.0278 42.2795C10.5626 42.2019 10.0973 42.1244 9.67085 41.9693C9.51577 50.3051 16.6109 54.0659 24.4039 56.4697C22.6204 59.5326 20.8369 62.5956 19.0922 65.6972C18.6658 66.4339 18.2005 66.6665 17.4251 66.6665C12.9276 66.6665 9.28314 64.9218 6.68547 61.2386C5.36725 59.3775 4.6306 57.2451 4.24289 54.9964C4.01026 53.717 3.11852 53.0966 1.87785 53.2905C0.714711 53.4843 0.171915 54.221 0.249457 55.5004C0.714711 63.4097 8.08123 70.5824 15.9906 70.5824C33.0886 70.6212 50.1867 70.5824 67.2848 70.5824C68.7193 70.5824 69.7662 70.1172 69.7274 68.5663C69.6886 67.1318 68.6806 66.6278 67.3623 66.6665C65.1524 66.7053 62.9812 66.589 60.7712 66.7053C59.3755 66.7828 58.8715 66.24 58.4837 65.0381C57.5145 62.1691 56.3901 59.3775 55.3045 56.5472C55.8085 56.0432 56.5064 56.082 57.088 55.9269C65.6564 54.0271 72.17 49.7623 74.7289 40.8449C75.4268 38.4411 77.2102 37.2392 79.6916 36.8127C88.9191 35.3007 98.1079 33.7498 107.297 32.2377C107.413 32.199 107.529 32.199 107.646 32.1602C107.646 32.1602 107.684 32.1602 107.684 32.199C107.568 32.2765 107.452 32.2765 107.297 32.2377C106.87 34.1375 105.862 35.8047 105.048 37.5106C104.389 38.9064 105.048 39.2165 106.172 39.6043C107.219 39.9532 108.227 40.8062 108.809 38.9839C109.468 36.9678 110.321 35.068 111.096 33.0907C111.213 33.0519 111.368 33.0132 111.484 33.0132C112.841 34.4865 114.198 35.921 115.555 37.4331C116.253 38.2085 116.796 38.1697 117.455 37.3943C117.842 36.9678 118.269 36.5801 118.734 36.1924C119.199 35.7659 119.354 35.3394 118.773 34.7966ZM51.3886 66.1237C43.2079 66.1237 34.9884 66.1237 26.8077 66.1237C25.8772 66.1237 24.0937 66.2788 24.9467 64.8443C25.6833 63.5648 26.4588 62.2854 27.1179 60.9672C27.6607 59.8816 28.5136 58.8735 28.5912 57.6328C28.5912 57.439 28.5912 57.2839 28.5912 57.09C36.074 58.0981 43.5569 58.0981 51.0397 57.09C50.6132 57.6716 50.9621 58.3307 51.156 58.9123C51.6988 60.5795 52.3191 62.2078 52.9395 63.8362C53.7537 66.0462 53.6761 66.1237 51.3886 66.1237Z" fill="white"/>
</g>
<path fill-rule="evenodd" clip-rule="evenodd" d="M22.6552 4.44336L50.5908 5.60045L51.2843 5.62917L51.1958 6.31754L49.9994 15.6226C49.6956 15.4682 49.3518 15.3812 48.9877 15.3812C48.9058 15.3812 48.8249 15.3856 48.7453 15.3941L49.8447 6.84358L22.6025 5.71522L22.6552 4.44336ZM48.9877 19.8537C49.2835 19.8537 49.566 19.7963 49.8245 19.6919L51.1107 41.7003C50.9358 41.6563 50.7527 41.633 50.5641 41.633C50.3102 41.633 50.0661 41.6753 49.8387 41.7533L48.5932 20.4431L38.6537 42.6269H48.7044C48.4665 42.9823 48.3278 43.4096 48.3278 43.8693C48.3278 43.8795 48.3279 43.8897 48.328 43.8999H37.6711H36.6885L37.0903 43.0032L47.6585 19.4161C48.0301 19.6911 48.4899 19.8537 48.9877 19.8537Z" fill="#BBBBBB"/>
<circle cx="49.3435" cy="17.5793" r="1.15403" fill="#BBBBBB"/>
<circle cx="50.4988" cy="43.6863" r="1.15403" fill="#BBBBBB"/>
<path d="M37.6254 39.8613L38.3628 42.1309H40.7492L38.8186 43.5336L39.556 45.8032L37.6254 44.4005L35.6948 45.8032L36.4322 43.5336L34.5016 42.1309H36.888L37.6254 39.8613Z" fill="white"/>
<path d="M23.0665 0.712402L24.063 3.77939H27.2879L24.6789 5.6749L25.6755 8.74189L23.0665 6.84639L20.4576 8.74189L21.4541 5.6749L18.8452 3.77939H22.07L23.0665 0.712402Z" fill="white"/>
<path d="M50.4981 2.48779L51.2954 4.94139H53.8752L51.7881 6.4578L52.5853 8.9114L50.4981 7.39499L48.411 8.9114L49.2082 6.4578L47.1211 4.94139H49.7009L50.4981 2.48779Z" fill="white"/>
</svg>
