<svg width="65" height="123" viewBox="0 0 65 123" fill="none" xmlns="http://www.w3.org/2000/svg">
<path opacity="0.2" d="M61.9058 7.04184C45.3999 -9.59687 33.2115 7.90533 36.433 26.271C36.4994 28.5294 30.3221 29.2932 28.7612 34.3413C21.5544 50.9468 21.7205 69.8107 18.5322 87.4457C19.4621 93.6562 25.9715 82.4973 30.3553 74.8587C24.9752 88.4088 30.0232 105.114 28.3959 119.694C28.3959 121.62 29.4254 122.815 31.0196 122.849C36.9975 121.022 32.7465 110.494 33.9753 105.512C42.0124 122.118 38.9238 80.8367 39.2227 72.4011C39.4884 72.069 39.6876 71.7037 39.7873 71.3052C39.9865 71.8697 40.1858 72.4343 40.6175 72.8329C41.0493 73.2314 41.7467 73.4307 42.2117 73.0653C42.7763 72.6336 42.7098 71.7701 42.577 71.0727C43.6398 72.3347 45.4664 72.8993 47.0605 72.4343C47.1933 72.4011 47.3594 72.3347 47.459 72.2351C47.5919 72.1022 47.6251 71.9362 47.6583 71.7701C47.8908 70.5745 47.7247 69.2461 46.9276 68.3162C46.0642 67.2866 44.6361 66.9545 43.3076 66.6888C42.9755 66.6224 42.6434 66.556 42.2781 66.5228C47.7247 61.84 51.7765 55.5631 54.7654 49.087C58.8172 40.3525 60.7102 31.5848 55.6621 22.5514C55.4629 22.0532 55.0311 21.8872 54.533 21.8872C51.8097 22.4185 49.1196 22.7507 46.4959 21.4222C46.2634 21.2894 45.9645 21.3558 45.732 21.5551C45.566 21.7543 45.4331 21.9868 45.2671 22.1861C45.4664 18.6989 40.219 16.4738 43.2744 10.6618C46.6952 2.62478 55.795 8.00496 61.9058 7.04184ZM40.219 68.283C40.219 68.2497 40.219 68.2497 40.219 68.283C40.2854 68.2165 40.3187 68.2165 40.219 68.283Z" fill="white"/>
<path opacity="0.2" d="M57.0578 20.8244C53.3382 19.0642 57.1907 14.315 57.6888 11.5585C62.9362 4.91632 67.0875 20.9905 61.807 23.9462C62.3384 19.031 60.711 20.6251 57.0578 20.8244Z" fill="white"/>
<path opacity="0.2" d="M50.2497 14.1774C49.2202 13.9645 48.5227 13.2194 48.4895 11.7293C48.4563 10.1326 49.0873 9.01501 50.1169 9.06823C51.0468 9.12145 51.6446 10.0794 51.6778 11.6228C51.711 13.2194 51.0136 13.8581 50.2497 14.1774Z" fill="white"/>
<path fill-rule="evenodd" clip-rule="evenodd" d="M39.0877 58.0586L52.1567 40.1976L51.2467 39.5317L37.9914 57.6473C38.3935 57.6983 38.7665 57.8429 39.0877 58.0586ZM37.1925 57.6711L36.1361 53.2695C35.8068 53.4245 35.439 53.5112 35.0509 53.5112L35.0344 53.5111L36.1435 58.1322C36.4479 57.905 36.8047 57.7442 37.1925 57.6711ZM33.2214 52.7378C33.4926 53.0169 33.827 53.2341 34.2017 53.3664L8.34461 77.3765L7.43945 76.749L18.2936 50.3425L19.3366 50.7712L9.45836 74.8035L33.2214 52.7378Z" fill="white"/>
<circle cx="34.8939" cy="51.7923" r="1.11359" fill="white"/>
<circle cx="37.6585" cy="59.389" r="1.11359" fill="white"/>
<path d="M20.9824 42.4491L21.3938 46.87L25.7254 47.8448L21.6481 49.6022L22.0595 54.023L19.1282 50.6883L15.0509 52.4457L17.3165 48.6273L14.3852 45.2927L18.7168 46.2675L20.9824 42.4491Z" fill="white"/>
<path d="M53.0217 36.0489L52.4719 39.273L55.3683 40.7921L52.1321 41.2655L51.5824 44.4896L50.1321 41.5581L46.896 42.0316L49.2358 39.7464L47.7855 36.815L50.6819 38.3341L53.0217 36.0489Z" fill="white"/>
<path d="M9.45173 68.9273L10.6934 74.1919L16.0839 74.6378L11.4607 77.4455L12.7024 82.7101L8.60344 79.1808L3.98023 81.9885L6.07015 76.9996L1.97122 73.4703L7.3618 73.9162L9.45173 68.9273Z" fill="white"/>
</svg>
