<svg width="112" height="107" viewBox="0 0 112 107" fill="none" xmlns="http://www.w3.org/2000/svg">
                <path opacity="0.2" d="M50.0834 50.0162C41.6699 41.6769 32.6733 34.4648 23.0449 28.4799C27.7811 27.0437 31.9578 25.0534 35.439 22.39C44.7631 29.0735 53.4612 35.5938 58.4672 41.1482L61.5898 43.8299L85.4286 30.4834C88.1862 29.7077 90.6284 29.9073 92.5628 31.6234C93.2041 33.7867 92.171 35.912 88.7891 37.9359L69.9682 52.205C74.5573 61.7007 76.7674 75.3654 77.5371 91.5216C73.9749 93.9164 71.0072 96.8293 68.7848 100.422C67.0689 83.3827 65.0692 68.2332 62.4008 57.9783L49.6542 65.5191C49.6542 65.5191 52.6035 86.2968 51.002 89.5917C51.002 89.5917 42.2513 84.7034 40.0892 85.4511C40.0486 79.2948 39.3553 73.7559 37.1465 69.7022C27.2176 62.8481 20.4781 60.207 14.3436 58.389C16.9208 55.445 21.2681 52.8499 26.8165 50.4683C31.1427 52.9591 35.4687 54.7974 39.8044 55.6L50.0834 50.0162Z" fill="white"></path>
                <path fill-rule="evenodd" clip-rule="evenodd" d="M61.9845 47.5475L45.1668 37.3184L44.5177 38.3855L61.104 48.4739C61.2619 48.0682 61.5747 47.7305 61.9845 47.5475ZM61.0428 49.5L41.8043 61.8439L42.4788 62.8951L61.7824 50.5094C61.4262 50.2874 61.1535 49.9334 61.0428 49.5ZM62.9824 50.7348L69.9624 72.9026L71.1537 72.5275L64.0669 50.0204C63.8276 50.3764 63.4529 50.6415 62.999 50.7316C62.9935 50.7327 62.9879 50.7338 62.9824 50.7348ZM64.34 48.8746L84.4404 36.1112L83.7709 35.0568L63.7344 47.7796C64.027 48.018 64.2414 48.3559 64.3207 48.755C64.3286 48.7949 64.335 48.8348 64.34 48.8746Z" fill="white"></path>
                <path d="M82.1683 30.1633L84.6825 33.179L88.3275 31.7197L86.2364 35.0427L88.7507 38.0584L84.944 37.0965L82.8529 40.4196L82.5914 36.5021L78.7848 35.5402L82.4298 34.0809L82.1683 30.1633Z" fill="white"></path>
                <path d="M39.2761 59.7698L41.7725 60.8042L43.5277 58.7496L43.3153 61.4434L45.8117 62.4778L43.1841 63.1083L42.9718 65.8021L41.5602 63.498L38.9326 64.1285L40.6878 62.074L39.2761 59.7698Z" fill="white"></path>
                <circle cx="62.6675" cy="49.0676" r="0.796219" transform="rotate(-11.2299 62.6675 49.0676)" fill="white"></circle>
                <circle cx="43.6695" cy="37.201" r="0.562868" transform="rotate(-11.2299 43.6695 37.201)" fill="white"></circle>
                <circle cx="70.8433" cy="73.8719" r="0.562868" transform="rotate(-11.2299 70.8433 73.8719)" fill="white"></circle>
                </svg>