<svg width="243" height="264" viewBox="0 0 243 264" fill="none" xmlns="http://www.w3.org/2000/svg">
<g opacity="0.2">
<path d="M238.574 60.6146C235.375 57.5189 232.176 54.3716 228.668 51.5855C217.523 42.6597 204.934 37.2423 190.539 36.7263C188.992 36.6747 188.063 36.2104 187.341 34.8173C182.026 25.1692 174.442 17.688 165.052 12.1158C142.711 -1.04083 118.978 -3.2594 94.419 4.37659C77.496 9.63922 63.7203 19.4422 54.7944 35.2301C54.3817 35.9524 53.0918 36.5715 52.1631 36.6231C45.1462 37.0359 38.3874 38.3773 31.8865 41.0087C20.8968 45.3942 11.8678 52.5142 3.71588 60.8725C-0.876026 65.6192 -0.979215 70.3659 3.66429 75.0094C9.08171 80.4784 14.5507 85.9475 20.0713 91.4165C25.9015 97.1951 32.9184 95.6472 35.8592 87.9596C36.9427 85.0704 38.1294 82.2327 39.574 79.4982C41.9474 74.9062 45.301 71.0882 49.4802 67.3219C51.2344 76.5057 55.0008 84.348 60.573 91.2101C66.1968 98.1753 73.1105 103.541 80.5917 107.875C80.4885 110.558 79.1986 111.796 77.1348 112.777C65.9904 118.091 54.8976 123.508 43.8564 128.977C38.8001 131.454 33.6407 133.827 28.7392 136.665C24.1989 139.245 21.8771 143.578 21.5676 148.79C20.8452 160.14 32.5056 169.376 44.5271 163.546C50.4605 160.656 56.3938 157.767 62.3272 154.878C63.875 154.104 65.4745 153.381 67.4351 152.453C67.0223 153.846 66.8159 154.723 66.558 155.652C62.3272 169.84 58.0449 184.029 53.8141 198.269C52.6274 202.241 54.4333 204.615 58.5608 204.718C61.0373 204.77 63.5139 204.718 66.042 204.718H76.1029V207.917C76.1029 219.526 76.1029 231.083 76.1029 242.691C76.1029 248.522 77.9087 253.63 81.9331 257.912C85.132 261.266 89.2595 262.813 93.5935 264H98.7529C103.5 262.917 107.834 261.111 111.187 257.396C115.108 253.01 116.553 247.799 116.553 242.021C116.501 230.722 116.553 219.371 116.553 208.072V204.924H126.046C126.098 205.801 126.15 206.73 126.15 207.607C126.15 219.164 126.15 230.773 126.15 242.33C126.15 251.101 129.658 257.912 137.758 261.936C139.719 262.917 141.937 263.329 144.053 264H148.696C161.337 261.627 167.219 252.236 166.754 239.802C166.342 229.071 166.651 218.339 166.651 207.607V204.77C172.43 204.77 177.847 204.77 183.265 204.77C188.579 204.77 190.282 202.551 188.734 197.443C185.432 186.454 182.13 175.464 178.828 164.474C177.692 160.656 176.557 156.838 175.268 152.504C176.661 153.175 177.589 153.588 178.466 154.052C185.896 157.561 193.171 161.533 200.755 164.577C210.661 168.499 221.393 160.605 221.238 149.925C221.135 142.959 217.472 138.264 211.332 135.272C196.163 127.894 180.995 120.464 165.774 113.086C163.917 112.157 161.956 111.177 162.266 109.01C162.421 107.927 164.175 106.895 165.361 106.121C177.383 98.4849 186.567 88.5272 191.313 74.9062C192.087 72.6361 192.655 70.2627 193.326 67.7346C193.945 68.2505 194.254 68.5085 194.564 68.8181C200.239 74.1323 204.212 80.53 206.792 87.908C209.681 96.1632 216.698 97.6594 222.889 91.4681C228.1 86.257 233.363 81.046 238.574 75.8349C243.733 70.3143 243.785 65.6708 238.574 60.6146ZM121.197 145.384C131.257 145.333 139.771 153.743 139.771 163.855C139.822 173.916 131.257 182.429 121.197 182.378C111.187 182.326 102.88 174.019 102.726 164.01C102.674 153.949 111.084 145.436 121.197 145.384ZM103.758 116.285C115.624 118.452 126.975 118.504 138.687 116.285C133.012 124.798 110.568 125.314 103.758 116.285ZM169.644 91.984C158.551 102.045 145.188 107.204 130.38 108.855C112.993 110.764 96.5343 107.824 81.5204 98.4849C68.9829 90.6941 60.1086 80.0657 57.7353 65.0001C57.1678 61.4917 57.6321 57.8801 57.6321 54.2169C83.9453 49.5218 104.841 35.9524 121.351 14.9019C122.693 16.7077 123.879 18.5651 125.376 20.2161C141.009 37.6034 159.686 49.7281 183.161 53.7009C184.658 53.9589 185.07 54.578 185.174 56.0227C186.051 70.6239 180.221 82.3874 169.644 91.984Z" fill="white"/>
<path d="M120.99 94.0993C114.695 93.9446 109.226 91.7776 104.479 87.65C103.86 87.1341 102.828 87.1341 102.054 86.7729C100.971 86.257 99.5263 85.8958 98.9588 84.9671C98.4428 84.1416 98.5976 82.439 99.1136 81.6651C100.249 80.0141 101.796 78.621 103.344 77.2795C104.479 76.2992 106.027 76.0929 107.059 77.1764C107.885 78.0535 108.607 79.4981 108.504 80.6332C108.401 81.8199 108.71 82.3358 109.484 82.9549C116.552 88.9399 126.613 88.8367 133.424 82.6454C133.837 82.2842 134.043 81.4071 133.991 80.8396C133.785 79.2917 134.146 78.0019 135.488 77.1248C136.932 76.1961 138.377 76.454 139.615 77.5375C140.905 78.7242 142.35 79.8593 143.278 81.3555C143.898 82.3358 144.001 83.9352 143.691 85.0703C143.278 86.4634 141.885 86.8761 140.389 86.8245C139.667 86.8245 138.738 87.1857 138.119 87.7016C133.321 91.8808 127.078 94.2541 120.99 94.0993Z" fill="white"/>
<path d="M98.1861 61.4915C98.1861 65.8254 96.8446 67.8376 93.9554 67.786C91.0661 67.786 89.7246 65.7223 89.7246 61.4399C89.7246 60.666 89.7246 59.8921 89.7762 59.1182C90.0342 56.5384 91.7368 54.7842 94.007 54.8358C96.2771 54.8358 98.0313 56.6416 98.1861 59.1698C98.1861 59.9437 98.1861 60.7176 98.1861 61.4915Z" fill="white"/>
<path d="M144.415 61.2854C144.364 56.8999 145.705 54.8877 148.543 54.7845C151.432 54.6813 152.877 56.8483 152.877 61.337C152.877 62.1109 152.877 62.8849 152.825 63.6588C152.619 66.1353 151.019 67.7347 148.749 67.7863C146.376 67.8379 144.673 66.1869 144.467 63.6072C144.364 62.8333 144.415 62.0593 144.415 61.2854Z" fill="white"/>
</g>
<g filter="url(#filter0_f_92_9588)">
<path fill-rule="evenodd" clip-rule="evenodd" d="M40.3665 211.009L39.3095 213.106L41.6567 213.183C56.2832 213.665 78.3733 214.264 97.1071 214.501C106.472 214.619 115.011 214.646 121.364 214.521C124.537 214.459 127.187 214.358 129.128 214.21C130.096 214.136 130.918 214.048 131.554 213.941C131.87 213.887 132.171 213.824 132.435 213.745C132.652 213.68 133.026 213.555 133.344 213.294L133.704 212.998L133.833 212.551L162.174 114.238L159.291 113.407L131.74 208.981L82.8946 149.572C82.4696 150.538 81.8491 151.395 81.0856 152.095L129.644 211.156C129.413 211.177 129.165 211.198 128.9 211.219C127.043 211.361 124.46 211.46 121.305 211.522C115.001 211.645 106.5 211.619 97.1449 211.501C79.4148 211.277 58.6647 210.727 44.103 210.261L72.7773 153.371C71.8411 152.932 71.0128 152.308 70.3369 151.547L40.3665 211.009Z" fill="white"/>
<circle cx="76.4234" cy="146.236" r="4.44092" transform="rotate(92.9628 76.4234 146.236)" fill="white"/>
<circle cx="161.806" cy="109.702" r="2.51688" transform="rotate(92.9628 161.806 109.702)" fill="white"/>
<path d="M143.397 202.302L138.076 209.895L143.653 217.302L134.787 214.588L129.466 222.181L129.308 212.91L120.442 210.196L129.21 207.181L129.052 197.91L134.629 205.317L143.397 202.302Z" fill="white"/>
<path d="M49.3254 207.246L46.25 211.635L49.4735 215.916L44.3493 214.347L41.2739 218.736L41.1824 213.378L36.0582 211.809L41.1258 210.066L41.0343 204.708L44.2578 208.989L49.3254 207.246Z" fill="white"/>
</g>
<path fill-rule="evenodd" clip-rule="evenodd" d="M40.3665 211.009L39.3095 213.106L41.6567 213.183C56.2832 213.665 78.3733 214.264 97.1071 214.501C106.472 214.619 115.011 214.646 121.364 214.521C124.537 214.459 127.187 214.358 129.128 214.21C130.096 214.136 130.918 214.048 131.554 213.941C131.87 213.887 132.171 213.824 132.435 213.745C132.652 213.68 133.026 213.555 133.344 213.294L133.704 212.998L133.833 212.551L162.174 114.238L159.291 113.407L131.74 208.981L82.8946 149.572C82.4696 150.538 81.8491 151.395 81.0856 152.095L129.644 211.156C129.413 211.177 129.165 211.198 128.9 211.219C127.043 211.361 124.46 211.46 121.305 211.522C115.001 211.645 106.5 211.619 97.1449 211.501C79.4148 211.277 58.6647 210.727 44.103 210.261L72.7773 153.371C71.8411 152.932 71.0128 152.308 70.3369 151.547L40.3665 211.009Z" fill="white"/>
<circle cx="76.4234" cy="146.236" r="4.44092" transform="rotate(92.9628 76.4234 146.236)" fill="white"/>
<circle cx="161.806" cy="109.702" r="2.51688" transform="rotate(92.9628 161.806 109.702)" fill="white"/>
<path d="M143.397 202.302L138.076 209.895L143.653 217.302L134.787 214.588L129.466 222.181L129.308 212.91L120.442 210.196L129.21 207.181L129.052 197.91L134.629 205.317L143.397 202.302Z" fill="white"/>
<path d="M49.3254 207.246L46.25 211.635L49.4735 215.916L44.3493 214.347L41.2739 218.736L41.1824 213.378L36.0582 211.809L41.1258 210.066L41.0343 204.708L44.2578 208.989L49.3254 207.246Z" fill="white"/>
<defs>
<filter id="filter0_f_92_9588" x="26.0586" y="97.1851" width="148.264" height="134.996" filterUnits="userSpaceOnUse" color-interpolation-filters="sRGB">
<feFlood flood-opacity="0" result="BackgroundImageFix"/>
<feBlend mode="normal" in="SourceGraphic" in2="BackgroundImageFix" result="shape"/>
<feGaussianBlur stdDeviation="5" result="effect1_foregroundBlur_92_9588"/>
</filter>
</defs>
</svg>
