<svg width="346" height="218" viewBox="0 0 346 218" fill="none" xmlns="http://www.w3.org/2000/svg">
<g opacity="0.2">
<path d="M73.9628 210.087C73.8746 210.219 73.7865 210.395 73.6544 210.527C72.8613 210.439 72.1123 210.351 71.3633 210.263C72.2445 210.219 73.0816 210.131 73.9628 210.087Z" fill="white"/>
<path d="M64.6677 178.673C63.3459 173.474 38.8932 118.488 38.8932 118.488L69.4701 137.257L17.4805 71.7854L58.4994 104.962L31.8878 51.2539L66.386 94.4758L62.9054 51.2539L77.7533 73.5037L70.7479 27.6823L101.721 88.7922L98.6813 34.6436L112.648 80.0244L117.45 27.6382L137.541 96.1941L140.141 18.0774L145.824 96.6347L169.396 30.2817L162.831 111.483L205.613 31.6035L192.483 89.6733L249.716 18.0774L213.94 118.047L272.01 53.0162L274.213 117.607L337.041 53.8533L317.39 105.358L345.324 108.839L282.011 148.58L240.551 168.98C234.515 171.932 227.906 173.518 221.165 173.606L64.6677 178.673Z" fill="white"/>
<path d="M73.9628 210.087C73.8746 210.219 73.7865 210.395 73.6544 210.527C72.8613 210.439 72.1123 210.351 71.3633 210.263C72.2445 210.219 73.0816 210.131 73.9628 210.087Z" fill="white"/>
<path d="M216.804 178.497C166.929 179.598 57.3098 182.55 57.3098 182.55C57.486 180.611 58.8518 162.547 51.8905 162.195C44.8851 161.798 38.3203 174.619 38.3203 174.619L12.8983 187.044C12.8983 187.044 0.297365 187.617 0.649837 192.684C0.826073 194.975 3.55773 196.473 6.55375 197.486C9.90224 198.587 13.5151 198.72 16.9957 197.971C18.8462 197.574 21.7101 197.354 25.8957 197.927C31.5352 198.676 41.4926 202.421 48.0133 205.108C51.6702 206.606 55.4593 207.752 59.3365 208.545C57.6182 208.765 55.8558 209.25 54.6222 210.439C54.7543 210.836 55.2831 210.88 55.7236 210.88C59.8652 210.792 64.0067 210.66 68.1483 210.439C67.3112 210.704 66.5181 211.056 65.9013 211.629C64.7558 212.686 64.2711 214.581 65.2404 215.815C66.8265 215.198 68.4127 214.581 69.8666 213.7C71.1443 212.907 72.7745 211.805 73.7438 210.572C72.9507 210.483 72.2017 210.395 71.4527 210.307C72.3339 210.263 73.171 210.219 74.0081 210.175C73.92 210.307 73.8319 210.483 73.6997 210.616C75.0656 210.792 76.5195 210.968 78.0175 211.1C77.8413 211.232 77.7091 211.409 77.5769 211.541C76.0789 213.171 75.5502 215.682 76.5636 217.665C78.2378 216.211 80.0442 214.889 81.9388 213.788C82.7759 213.303 84.4942 212.73 85.5957 211.893C99.9589 213.303 118.111 214.449 137.497 214.317C159.791 214.14 181.733 212.554 198.122 211.012C198.078 211.012 198.034 211.056 197.99 211.056C196.316 211.761 194.642 212.73 193.717 214.272C193.981 214.625 194.51 214.537 194.906 214.405C198.871 213.215 202.837 211.937 206.802 210.616C206.053 211.056 205.392 211.629 204.952 212.378C204.115 213.7 204.159 215.638 205.392 216.564C206.758 215.55 208.08 214.493 209.269 213.259C210.195 212.246 211.384 210.88 212.001 209.558C213.455 209.382 214.865 209.25 216.099 209.074C215.129 211.056 215.261 213.612 216.759 215.242C217.949 213.391 219.359 211.629 220.901 210.043C221.342 209.558 222.179 208.941 222.972 208.28C224.69 208.06 225.615 207.928 225.615 207.928C225.615 207.928 304.569 193.565 315.055 133.997C314.967 133.865 266.722 177.395 216.804 178.497ZM44.9292 180.699C43.9158 182.462 42.2856 183.387 41.2282 182.77C40.1708 182.153 40.1708 180.259 41.1401 178.497C42.1535 176.734 43.7836 175.809 44.8411 176.426C45.8985 177.043 45.8985 178.937 44.9292 180.699Z" fill="white"/>
</g>
<g filter="url(#filter0_f_92_9556)">
<path fill-rule="evenodd" clip-rule="evenodd" d="M140.028 73.001C140.881 73.5769 141.599 74.336 142.127 75.2218L158.904 51.8444L240.582 64.741C240.594 63.6928 240.837 62.7 241.262 61.8113L158.458 48.7369L157.545 48.5926L157.006 49.344L140.028 73.001ZM210.546 126.09L243.444 70.4629C244.252 71.0545 245.192 71.4767 246.211 71.6771L212.582 128.541L212.035 129.465L210.984 129.246L123.803 111.057C124.454 110.265 124.919 109.313 125.129 108.269L210.546 126.09ZM122.883 102.037L134.662 85.6246C133.635 85.406 132.692 84.9619 131.886 84.3465L120.121 100.741C121.153 100.946 122.096 101.4 122.883 102.037ZM105.724 28.9744L134.504 71.9966C133.494 72.2363 132.568 72.6956 131.781 73.3212L103.23 30.6424L105.724 28.9744Z" fill="white"/>
<circle cx="119.345" cy="106.55" r="3.48402" fill="white"/>
<circle cx="247.271" cy="65.6354" r="3.48402" fill="white"/>
<circle cx="136.238" cy="79.1823" r="4.47036" fill="white"/>
<path d="M93.6187 11.0994L105.323 21.5886L118.915 13.6987L112.556 28.0713L124.26 38.5604L108.626 36.954L102.267 51.3266L98.9638 35.9612L83.3296 34.3548L96.9222 26.4648L93.6187 11.0994Z" fill="white"/>
<path d="M201.459 114.392L210.099 122.135L220.133 116.311L215.439 126.921L224.079 134.664L212.538 133.478L207.844 144.088L205.405 132.745L193.864 131.559L203.898 125.735L201.459 114.392Z" fill="white"/>
<path d="M153.178 38.3966L160.073 44.576L168.081 39.9279L164.334 48.395L171.229 54.5744L162.019 53.628L158.273 62.0952L156.327 53.0432L147.116 52.0968L155.124 47.4487L153.178 38.3966Z" fill="white"/>
</g>
<path fill-rule="evenodd" clip-rule="evenodd" d="M140.028 73.001C140.881 73.5769 141.599 74.336 142.127 75.2218L158.904 51.8444L240.582 64.741C240.594 63.6928 240.837 62.7 241.262 61.8113L158.458 48.7369L157.545 48.5926L157.006 49.344L140.028 73.001ZM210.546 126.09L243.444 70.4629C244.252 71.0545 245.192 71.4767 246.211 71.6771L212.582 128.541L212.035 129.465L210.984 129.246L123.803 111.057C124.454 110.265 124.919 109.313 125.129 108.269L210.546 126.09ZM122.883 102.037L134.662 85.6246C133.635 85.406 132.692 84.9619 131.886 84.3465L120.121 100.741C121.153 100.946 122.096 101.4 122.883 102.037ZM105.724 28.9744L134.504 71.9966C133.494 72.2363 132.568 72.6956 131.781 73.3212L103.23 30.6424L105.724 28.9744Z" fill="white"/>
<circle cx="119.345" cy="106.55" r="3.48402" fill="white"/>
<circle cx="247.271" cy="65.6354" r="3.48402" fill="white"/>
<circle cx="136.238" cy="79.1823" r="4.47036" fill="white"/>
<path d="M93.6187 11.0994L105.323 21.5886L118.915 13.6987L112.556 28.0713L124.26 38.5604L108.626 36.954L102.267 51.3266L98.9638 35.9612L83.3296 34.3548L96.9222 26.4648L93.6187 11.0994Z" fill="white"/>
<path d="M201.459 114.392L210.099 122.135L220.133 116.311L215.439 126.921L224.079 134.664L212.538 133.478L207.844 144.088L205.405 132.745L193.864 131.559L203.898 125.735L201.459 114.392Z" fill="white"/>
<path d="M153.178 38.3966L160.073 44.576L168.081 39.9279L164.334 48.395L171.229 54.5744L162.019 53.628L158.273 62.0952L156.327 53.0432L147.116 52.0968L155.124 47.4487L153.178 38.3966Z" fill="white"/>
<defs>
<filter id="filter0_f_92_9556" x="73.3301" y="1.09937" width="187.426" height="152.989" filterUnits="userSpaceOnUse" color-interpolation-filters="sRGB">
<feFlood flood-opacity="0" result="BackgroundImageFix"/>
<feBlend mode="normal" in="SourceGraphic" in2="BackgroundImageFix" result="shape"/>
<feGaussianBlur stdDeviation="5" result="effect1_foregroundBlur_92_9556"/>
</filter>
</defs>
</svg>
