<svg width="281" height="263" viewBox="0 0 281 263" fill="none" xmlns="http://www.w3.org/2000/svg">
                <g filter="url(#filter0_f_92_9036)">
                <path fill-rule="evenodd" clip-rule="evenodd" d="M227.813 180.652C227.746 180.311 227.711 179.958 227.711 179.597C227.711 178.916 227.836 178.263 228.066 177.662L146.561 171.988L146.461 171.981L146.36 171.988L58.7631 177.689C58.9861 178.283 59.1081 178.926 59.1081 179.597C59.1081 179.968 59.0709 180.33 59 180.68L146.454 174.988L227.813 180.652ZM261.238 162.486L238.446 178.49C238.233 177.464 237.73 176.544 237.028 175.82L259.514 160.031L261.238 162.486ZM48.2602 179.597C48.2602 179.641 48.2607 179.686 48.2618 179.73L19.2754 169.904L20.2385 167.063L49.0238 176.82C48.5388 177.633 48.2602 178.582 48.2602 179.597Z" fill="white"></path>
                <path d="M134.802 156.1L149.033 165.088L161.979 154.332L157.828 170.643L172.058 179.632L155.262 180.725L151.111 197.036L144.882 181.4L128.086 182.493L141.032 171.736L134.802 156.1Z" fill="white"></path>
                <path d="M254.456 150.029L260.776 155.707L268.128 151.451L264.681 159.216L271.001 164.893L262.551 164.014L259.104 171.779L257.329 163.471L248.879 162.592L256.232 158.337L254.456 150.029Z" fill="white"></path>
                <path d="M24.8947 154.503L24.4218 162.985L32.3426 166.056L24.1295 168.227L23.6565 176.71L19.0535 169.569L10.8404 171.741L16.2087 165.157L11.6056 158.016L19.5264 161.087L24.8947 154.503Z" fill="white"></path>
                <circle cx="53.7158" cy="179.329" r="2.88182" fill="white"></circle>
                <circle cx="233.198" cy="178.425" r="2.88182" fill="white"></circle>
                </g>
                <path opacity="0.2" d="M94.9507 48.9401C94.9507 46.7708 96.4933 44.8425 98.3252 44.8425C99.9642 44.8425 101.603 46.8672 101.603 48.8437C101.603 51.013 100.157 52.6521 98.3252 52.7003C96.3969 52.7485 94.9507 51.1095 94.9507 48.9401Z" fill="white"></path>
                <path opacity="0.2" d="M108.497 48.892C108.545 46.7709 110.04 44.8908 111.727 44.8908C113.511 44.8426 115.15 46.7709 115.15 48.9402C115.101 51.1095 113.703 52.7485 111.775 52.7485C109.847 52.7485 108.497 51.1095 108.497 48.892Z" fill="white"></path>
                <path opacity="0.2" d="M196.283 141.353C192.137 141.353 187.605 137.497 187.22 133.399C187.22 133.303 187.22 133.158 187.22 133.062C187.461 131.808 189.1 131.374 190.016 132.242C190.112 132.29 190.16 132.387 190.209 132.483C190.739 133.158 190.883 134.17 191.317 134.942C192.426 137.014 194.065 138.461 196.572 138.316C198.982 138.22 200.236 136.581 201.055 134.556C201.393 133.64 201.537 132.628 202.019 131.808C202.116 131.615 202.26 131.471 202.453 131.326C203.225 130.603 204.526 130.844 205.008 131.76C205.153 132.049 205.249 132.29 205.249 132.579C205.297 137.159 200.862 141.353 196.283 141.353Z" fill="white"></path>
                <path opacity="0.2" d="M105.412 74.9238C98.8071 74.9238 91.576 68.7533 90.9976 62.1971C90.9976 62.0043 90.9976 61.8115 91.0458 61.6186C91.4314 59.6421 94.0346 58.919 95.4808 60.317C95.5772 60.4135 95.7219 60.5581 95.8183 60.7027C96.686 61.7633 96.8788 63.4023 97.5537 64.6557C99.2892 67.982 101.892 71.7903 105.894 71.6457C109.75 71.4529 111.823 67.3553 113.125 64.1254C113.703 62.6792 113.896 60.9919 114.667 59.7386C114.86 59.4493 115.101 59.2083 115.342 58.9672C116.596 57.8585 118.62 58.1477 119.44 59.6421C119.681 60.076 119.825 60.5099 119.825 60.9437C119.777 68.223 112.691 74.9238 105.412 74.9238Z" fill="white"></path>
                <path opacity="0.2" d="M192.667 120.913C192.667 122.6 191.365 124.095 189.919 124.143C188.377 124.191 187.22 122.793 187.171 120.961C187.123 119.178 188.328 117.78 189.871 117.731C191.414 117.731 192.667 119.178 192.667 120.913Z" fill="white"></path>
                <path opacity="0.2" d="M200.718 117.876C202.309 117.876 203.707 119.419 203.659 121.154C203.61 122.745 202.309 124.143 200.862 124.143C199.272 124.143 198.066 122.745 198.115 120.961C198.115 119.178 199.272 117.876 200.718 117.876Z" fill="white"></path>
                <path opacity="0.2" d="M192.667 83.3116C193.92 81.2869 198.307 78.6838 201.248 87.12C201.537 87.9877 202.694 88.1324 203.224 87.3611C206.068 83.3116 210.648 83.4563 212.142 88.7591C212.287 89.3375 212.914 89.675 213.492 89.5304C219.856 88.1324 227.665 88.518 223.905 95.9419C223.519 96.665 224.05 97.5328 224.869 97.581C228.967 97.822 232.872 100.522 229.352 104.619C228.003 106.837 223.23 107.271 224.05 110.404C226.315 121.058 225.207 118.117 232.004 117.683C233.161 117.587 233.691 119.178 232.679 119.756C231.04 120.72 228.87 120.961 227.231 121.974C226.46 122.456 226.605 123.661 227.472 123.95C229.401 124.673 232.438 123.757 234.607 124.432C235.619 124.722 235.668 126.168 234.703 126.553C232.438 127.469 229.545 126.602 227.135 127.421C226.267 127.71 226.122 128.964 226.942 129.446C228.774 130.555 231.184 130.458 232.823 131.808C233.546 132.435 233.257 133.64 232.293 133.785C230.172 134.17 228.099 132.82 225.881 132.483C225.833 132.483 225.737 132.483 225.689 132.483C224.676 132.531 223.375 133.351 223.182 134.508C220.771 140.63 216.336 144.92 210.552 147.957C210.503 148.006 210.455 148.006 210.407 148.054C199.56 156.008 228.003 169.217 233.546 174.712C233.643 174.809 233.787 174.905 233.932 174.953C236.342 175.821 238.608 173.507 241.019 173.266C242.031 173.17 242.658 174.423 241.934 175.195C241.645 175.484 241.356 175.725 240.97 175.918C240.103 176.4 240.295 177.653 241.211 177.942C242.32 178.28 243.332 178.617 244.056 179.437C244.73 180.208 244.104 181.413 243.091 181.317C242.802 181.269 242.513 181.22 242.224 181.124C241.356 180.883 240.536 181.751 240.874 182.57C240.97 182.811 241.019 183.052 241.115 183.342C241.308 184.306 240.295 185.077 239.428 184.547C238.897 184.209 238.512 183.775 238.126 183.293C237.451 182.377 236.005 183.004 236.101 184.113C236.15 184.643 236.101 185.173 235.86 185.655C235.523 186.379 234.511 186.475 234.028 185.848C231.956 183.245 234.414 178.28 230.413 176.352C224.532 172.495 219.277 168.012 213.299 164.348C212.48 163.818 211.419 164.589 211.612 165.553C213.01 172.302 214.89 178.955 216.288 185.655C217.879 193.224 217.975 200.985 217.011 208.65C216.288 214.435 218.265 220.654 218.409 226.487C218.409 226.535 218.409 226.632 218.458 226.68C220.193 234.489 208.575 227.065 207.707 232.802C207.563 237.189 207.273 241.528 207.129 245.866C206.358 250.253 211.95 247.602 214.119 249.675C219.759 255.218 209.539 258.304 205.152 255.749C205.056 255.701 204.96 255.604 204.911 255.556C201.103 251.555 204.719 239.84 203.803 234.007C203.803 233.959 203.803 233.911 203.803 233.814C203.851 230.97 203.754 230.922 201.007 231.018C200.91 231.018 200.862 231.018 200.766 231.067C196.813 232.127 187.653 228.704 187.894 234.682C187.894 234.73 187.894 234.827 187.894 234.875C186.737 241.769 192.57 255.218 183.748 257.725C183.7 257.725 183.652 257.725 183.604 257.773C172.516 260.039 169.19 250.832 181.049 250.639C181.145 250.639 181.29 250.639 181.386 250.687C187.653 252.326 183.604 238.298 184.423 234.152C184.423 234.055 184.471 233.911 184.423 233.814C183.797 227.548 170.395 235.791 170.54 228.753C170.636 223.257 171.648 217.617 171.504 212.121C171.215 200.021 172.854 187.921 175.987 176.255C176.903 172.784 177.867 169.361 178.735 165.891C178.976 165.023 178.108 164.251 177.289 164.541C170.299 166.903 163.55 169.217 156.656 171.579C155.885 171.868 155.644 172.832 156.222 173.459C156.897 174.134 157.524 174.857 157.861 175.725C158.247 176.641 157.283 177.557 156.367 177.171C156.077 177.075 155.836 176.93 155.595 176.785C154.679 176.255 153.619 177.123 153.956 178.135C154.246 178.858 154.39 179.581 154.342 180.353C154.246 181.317 153.089 181.751 152.414 181.028C151.98 180.594 151.691 180.112 151.45 179.581C151.064 178.714 149.811 178.714 149.377 179.581C149.039 180.353 148.654 181.028 148.075 181.558C147.352 182.281 146.05 181.702 146.147 180.642C146.243 179.822 146.484 179.003 146.773 178.183C147.111 177.219 146.099 176.352 145.183 176.785C145.183 176.785 145.134 176.785 145.134 176.834C144.17 177.316 143.158 176.303 143.592 175.339C144.701 173.025 147.593 171.193 146.725 168.349C139.398 148.199 133.083 127.036 121.995 108.669C121.32 107.56 119.633 108.235 119.922 109.488C128.069 145.21 137.807 180.546 144.797 216.556C147.448 226.15 127.876 220.557 122.14 222.004C122.043 222.004 121.947 222.052 121.899 222.052C118.958 222.1 118.524 222.486 118.572 225.426C118.669 234.538 118.428 243.6 118.813 252.712C118.862 253.387 119.44 253.869 120.067 253.772C124.068 253.242 130.19 251.989 131.01 256.713C131.299 258.834 130.576 260.473 128.262 261.003C122.766 262.064 113.028 263.606 114.185 255.122C114.185 255.074 114.185 255.026 114.185 254.977C114.282 245.143 114.475 235.212 114.619 225.378C114.667 222.245 114.523 222.197 111.582 222.389C111.486 222.389 111.389 222.389 111.293 222.438C107.581 223.498 96.638 220.702 96.4452 225.185C96.7344 236.128 97.8432 247.168 97.2165 258.111C97.5539 264.908 76.3428 264.763 82.2241 256.761C82.2723 256.713 82.2723 256.665 82.3205 256.616C84.6826 251.748 92.444 256.424 93.0707 252.808C92.8778 243.697 92.7332 234.586 92.4922 225.475C93.1671 220.413 75.6679 224.269 71.6667 223.209C63.3751 223.98 70.6543 204.167 70.5097 198.912C70.5097 198.816 70.5097 198.768 70.5097 198.671C75.7643 169.844 82.5615 141.064 88.25 112.381C88.491 111.127 86.8037 110.5 86.1771 111.609C75.234 130.217 66.9424 150.079 62.4109 171.338C61.1093 175.387 65.3515 176.737 67.1352 179.485C67.7137 180.401 66.846 181.558 65.7854 181.172C65.5926 181.076 65.3516 180.979 65.1587 180.883C64.1464 180.401 63.134 181.461 63.6643 182.426C64.3874 183.775 64.9177 185.125 63.9053 186.089C63.7125 186.282 63.4233 186.379 63.1822 186.379C62.0735 186.427 61.5914 185.559 61.2057 184.547C60.8683 183.583 59.5185 183.534 59.1328 184.45C58.8436 185.125 58.5061 185.655 58.0241 186.186C57.301 186.909 56.0958 186.427 56.0958 185.366C56.0958 184.981 56.144 184.547 56.2886 184.161C56.5778 183.149 55.4691 182.377 54.5531 182.956C54.2639 183.149 53.9747 183.293 53.6854 183.438C52.6731 183.92 51.6125 182.811 52.2392 181.847C52.7695 180.979 53.6372 180.304 54.4085 179.678C55.2763 178.955 54.6978 177.605 53.589 177.701C53.2998 177.75 53.0105 177.75 52.7695 177.701C51.8053 177.605 51.3715 176.352 52.1428 175.725C54.4567 173.797 58.9882 175.436 59.4221 171.001C59.4221 170.952 59.4221 170.856 59.4703 170.808C65.448 148.632 72.3898 126.795 84.7308 107.222C97.4575 85.481 94.8061 94.2547 76.5356 83.1188C75.3786 82.2511 74.5591 82.3475 73.9324 83.6973C69.3045 103.655 20.4707 99.1236 40.6695 90.6873C40.7177 90.6391 40.8141 90.6391 40.8623 90.6391C48.7683 88.8555 61.0129 89.1929 65.7854 82.2511C66.5085 81.1905 65.1587 79.9371 64.1464 80.7567C56.8671 86.5897 46.5508 89.7714 37.4396 87.7467C36.5719 87.5539 36.2344 86.4933 36.8611 85.8666C42.7424 79.6479 52.7695 77.575 60.1452 73.2363C62.3627 72.1276 62.4591 71.3563 61.3021 69.2351C52.3356 53.0375 48.8647 27.6806 65.93 15.5806C87.8643 -0.472432 130.431 -10.2103 141.76 22.7152C141.76 22.7152 141.76 22.7634 141.808 22.7634C146.388 33.128 141.278 39.3949 155.162 33.4654C155.354 33.369 155.547 33.369 155.692 33.369C155.74 33.369 155.788 33.369 155.885 33.4172C156.511 33.5618 156.897 34.1885 156.704 34.767C155.885 37.4666 151.209 37.4184 148.846 38.6236C148.75 38.6718 148.605 38.7682 148.509 38.8646C140.748 47.1081 153.378 42.673 158.247 43.83C159.307 44.071 159.452 45.469 158.488 45.9511C154.101 48.0722 141.471 46.8188 147.497 52.2662C147.593 52.3626 147.738 52.459 147.834 52.5073C150.485 53.5196 156.126 53.2786 156.56 56.3638C156.608 56.6049 156.56 56.8459 156.463 57.0869C155.788 58.4367 154.053 57.5208 152.751 57.2316C152.703 57.2316 152.655 57.2316 152.558 57.2316C149.907 57.0869 145.086 53.8089 144.267 57.8583C141.133 71.4527 131.154 82.2029 118.283 87.2164C111.871 90.0607 120.501 97.8702 121.995 102.161C122.043 102.257 122.043 102.305 122.091 102.353C130.962 116.334 137.084 131.567 142.001 147.283C142.001 147.331 142.049 147.379 142.097 147.475C144.46 151.959 147.352 169.024 152.028 169.217C152.124 169.217 152.269 169.217 152.366 169.169C161.091 166.276 183.459 163.625 182.736 152.055C182.736 151.718 182.543 151.428 182.302 151.236C175.505 145.933 165.671 142.751 163.983 132.82C163.983 132.724 163.935 132.628 163.887 132.531C162.344 129.108 158.054 133.11 154.872 132.869C153.956 132.82 153.522 131.663 154.149 130.989C155.836 129.205 158.97 129.542 161.043 128C161.766 127.469 161.621 126.361 160.754 126.023C158.391 125.107 155.595 126.023 153.33 125.252C152.317 124.914 152.366 123.42 153.378 123.131C155.017 122.6 156.945 123.131 158.729 123.034C158.777 123.034 158.873 123.034 158.922 122.986C165.044 121.733 157.331 120.672 153.571 118.696C152.558 118.165 152.896 116.575 154.101 116.575C158.15 116.526 163.019 120.238 162.826 113.538C162.826 113.441 162.826 113.297 162.875 113.2C163.646 110.549 162.971 108.717 160.32 107.222C155.74 104.282 160.368 100.232 164.321 99.1718C164.996 98.979 165.381 98.2559 165.044 97.6292C162.007 91.4104 166.924 89.434 173.143 91.4104C173.191 91.4104 173.191 91.4105 173.239 91.4587C175.891 92.0371 176.18 91.9407 176.758 89.3375C176.758 89.2893 176.758 89.2893 176.807 89.2411C179.024 81.8172 185.243 86.2041 189.051 88.5662M128.166 11.4829C128.069 11.4347 127.924 11.3865 127.876 11.3383C125.852 13.2666 124.02 15.3395 121.754 17.0268C110.57 25.463 98.2288 31.3925 84.5862 34.6224C82.4651 35.1527 81.501 35.9722 81.2117 38.1415C80.8743 41.0339 80.2958 43.9264 79.5245 46.7224C77.4033 54.8694 73.9806 62.5343 69.6902 69.8136C68.9671 71.067 68.485 72.1758 69.7866 73.4292C79.7173 82.4439 90.6603 88.4216 104.737 86.9754C117.994 85.6256 128.889 80.1782 135.879 68.6567C145.617 52.7483 144.122 36.4543 136.795 20.112C136.65 19.7746 136.264 19.5335 135.541 18.7622C135.686 20.3049 135.83 21.2208 135.879 22.1849C136.071 23.7276 136.409 25.2702 136.361 26.8128C136.313 27.6324 135.541 28.3555 135.107 29.175C134.529 28.5001 133.613 27.9216 133.42 27.1985C132.938 25.2702 132.793 23.1973 132.552 21.2208C132.263 18.6176 132.022 15.9662 131.781 13.3148C131.251 13.4112 131.01 13.4112 130.913 13.5559C130.19 14.5682 129.515 15.5806 128.792 16.5929C123.248 24.6917 116.355 31.0551 106.906 34.3814C105.894 34.7188 104.737 34.9116 103.676 34.9598C103.339 34.9598 102.76 34.4296 102.567 34.0439C102.471 33.8029 102.857 33.2244 103.194 32.9351C103.483 32.6459 104.014 32.5013 104.448 32.4049C113.993 29.2714 120.983 22.9563 126.43 14.761C127.153 13.6523 127.635 12.4953 128.166 11.4829ZM175.409 100.088C175.312 99.9913 175.216 99.9431 175.119 99.8467C173.673 101.341 172.082 102.739 170.781 104.33C162.441 114.453 162.296 132.965 174.396 142.414C181.049 147.668 188.569 149.548 196.909 148.97C216.047 147.62 227.81 129.687 221.205 111.898C219.229 106.499 215.806 102.064 211.323 98.4005C211.419 100.04 211.853 101.582 212.046 103.125C212.287 104.86 212.383 106.596 212.383 108.331C212.383 108.428 212.335 108.524 212.335 108.572C211.95 109.295 210.937 109.392 210.359 108.765C210.262 108.669 210.214 108.524 210.166 108.428C209.684 107.078 209.491 105.68 209.154 104.234C208.527 101.775 208.093 99.2682 207.177 96.9543C206.84 96.0865 205.297 95.7491 204.285 95.1706C203.947 96.0865 203.32 97.0025 203.369 97.8702C203.465 101.1 203.899 104.33 204.092 107.608C204.188 108.765 204.719 110.645 202.887 110.79C200.958 110.886 201.199 108.91 201.103 107.704C200.717 103.848 200.38 99.9431 200.187 96.0383C200.091 94.5439 199.56 93.869 198.066 93.9172C197.536 93.9172 197.005 93.869 196.523 93.8208C193.92 93.6762 193.727 93.8208 193.631 96.3758C193.486 100.184 193.39 103.896 193.101 107.704C193.101 107.753 193.101 107.849 193.052 107.897C192.811 109.102 191.028 109.247 190.546 108.09C190.497 107.946 190.449 107.801 190.449 107.656C190.353 104.426 190.546 101.148 190.449 97.9184C190.401 96.7614 191.317 94.9296 189.533 94.5439C187.605 94.1583 187.509 96.1348 187.075 97.4363C185.58 101.823 184.182 106.21 182.591 110.5C182.543 110.597 182.495 110.693 182.447 110.79C181.772 111.657 180.326 111.224 180.133 110.115C180.085 109.922 180.085 109.777 180.085 109.585C180.036 109.247 180.277 108.861 180.374 108.476C181.531 104.812 182.736 101.197 183.845 97.4846C183.989 96.9543 183.797 96.3758 183.748 95.8455C183.17 95.9419 182.35 95.8937 181.965 96.2794C180.711 97.6774 179.458 99.1236 178.542 100.714C176.855 103.703 175.409 106.837 173.818 109.922C173.336 110.838 172.709 111.657 172.034 112.477C171.793 112.766 171.118 113.104 170.877 112.959C170.54 112.718 170.154 112.091 170.25 111.706C170.491 110.5 170.781 109.295 171.263 108.187C172.613 105.439 174.059 102.787 175.409 100.088ZM194.017 227.933C200.187 227.74 206.406 227.451 212.576 227.306C214.36 227.258 214.987 226.535 214.89 225.041C214.505 220.365 214.167 215.689 213.733 211.012C213.54 208.891 213.155 208.602 210.793 208.65C199.801 208.891 188.762 209.181 177.722 209.422C176.132 209.47 175.264 209.904 175.119 211.398C174.589 216.267 174.011 221.184 173.432 226.053C173.239 227.692 174.059 228.222 175.794 228.222M83.3328 210.723C83.0436 211.591 81.8866 211.736 81.3563 210.964C80.7778 210.097 80.1994 209.325 79.5245 208.602C77.2105 206.144 74.6073 206.626 73.5468 209.807C72.8237 211.977 72.4862 214.387 72.3898 216.701C72.3898 217.087 72.5826 217.52 72.9201 217.906C73.4021 218.581 74.4145 218.485 74.8484 217.761C74.993 217.472 75.1376 217.231 75.1858 216.942C75.5233 215.833 75.4268 214.58 75.6679 213.471C75.8125 212.796 76.0053 212.169 76.1982 211.398C76.4392 210.53 77.5962 210.289 78.1265 211.012C78.3675 211.35 78.6085 211.639 78.7531 211.928C79.7173 213.664 80.4886 215.544 81.501 217.328C81.742 217.761 82.1759 218.099 82.6097 218.436C83.0918 218.822 83.8149 218.726 84.2006 218.195C84.4898 217.81 84.7308 217.424 84.8755 216.99C85.4539 215.158 85.7432 213.182 86.3699 211.35C86.7073 210.482 87.5269 209.277 88.25 209.181C89.0213 209.084 90.2265 209.904 90.7085 210.723C91.7691 212.459 92.444 214.483 93.3117 216.363C93.601 216.942 94.1312 217.906 94.4205 217.906C95.0954 217.81 95.7703 217.279 96.2524 216.749C96.5898 216.363 96.638 215.64 96.8308 215.11C97.4093 213.664 97.8432 212.121 98.6145 210.82C99.8679 208.65 101.411 208.554 102.809 210.675C103.965 212.362 104.737 214.242 105.846 215.881C106.376 216.701 107.388 217.617 108.256 217.617C108.834 217.617 109.702 216.267 110.04 215.448C110.618 213.712 110.859 211.88 111.389 210.193C112.016 208.216 113.125 208.024 114.426 209.663C115.053 210.482 115.487 211.446 115.969 212.362C116.451 213.278 116.789 214.291 117.367 215.11C117.656 215.592 118.476 216.026 118.91 215.93C119.344 215.833 119.729 215.014 119.874 214.483C120.163 213.567 119.97 212.459 120.404 211.639C120.79 210.868 121.368 210.193 121.947 209.518C122.332 209.084 123.007 208.988 123.489 209.325C124.213 209.855 124.936 210.386 125.418 211.109C126.285 212.362 126.623 214.001 127.491 215.303C127.973 216.026 128.889 216.797 129.66 216.846C130.19 216.894 131.01 215.833 131.347 215.11C132.118 213.471 132.649 211.736 133.372 210.097C133.517 209.807 133.806 209.566 134.095 209.325C134.577 208.988 135.252 209.036 135.638 209.47C135.83 209.711 136.023 209.952 136.168 210.241C136.795 211.543 137.18 212.941 137.952 214.146C138.048 214.339 138.289 214.435 138.578 214.532C139.301 214.724 140.073 214.194 140.024 213.423C140.024 213.375 140.024 213.326 139.976 213.278C139.494 211.591 139.012 209.904 138.337 208.265C137.662 206.722 136.554 205.469 134.673 205.42C132.793 205.372 131.781 206.77 131.01 208.216C130.72 208.747 130.479 209.325 130.238 209.904C129.853 210.771 128.648 210.82 128.214 210C127.25 208.265 126.141 206.867 124.164 206.24C121.609 205.42 120.018 206.433 118.862 208.216C118.428 208.843 117.512 208.891 117.03 208.313C115.728 206.722 114.426 205.276 112.161 205.806C109.558 206.336 108.883 208.313 108.352 210.386C108.111 211.35 106.81 211.543 106.279 210.675C105.171 208.795 103.966 207.108 101.652 206.577C98.5663 205.902 97.0719 207.927 95.5774 209.952C95.1436 210.53 94.2276 210.579 93.7938 209.952C92.2029 207.879 90.6603 205.903 87.6715 206.481C85.0201 206.867 84.0559 208.65 83.3328 210.723Z" fill="white"></path>
                <path fill-rule="evenodd" clip-rule="evenodd" d="M227.813 180.652C227.746 180.311 227.711 179.958 227.711 179.597C227.711 178.916 227.836 178.263 228.066 177.662L146.561 171.988L146.461 171.981L146.36 171.988L58.7631 177.689C58.9861 178.283 59.1081 178.926 59.1081 179.597C59.1081 179.968 59.0709 180.33 59 180.68L146.454 174.988L227.813 180.652ZM261.238 162.486L238.446 178.49C238.233 177.464 237.73 176.544 237.028 175.82L259.514 160.031L261.238 162.486ZM48.2602 179.597C48.2602 179.641 48.2607 179.686 48.2618 179.73L19.2754 169.904L20.2385 167.063L49.0238 176.82C48.5388 177.633 48.2602 178.582 48.2602 179.597Z" fill="white"></path>
                <path d="M134.802 156.1L149.033 165.088L161.979 154.332L157.828 170.643L172.058 179.632L155.262 180.725L151.111 197.036L144.882 181.4L128.086 182.493L141.032 171.736L134.802 156.1Z" fill="white"></path>
                <path d="M254.456 150.029L260.776 155.707L268.128 151.451L264.681 159.216L271.001 164.893L262.551 164.014L259.104 171.779L257.329 163.471L248.879 162.592L256.232 158.337L254.456 150.029Z" fill="white"></path>
                <path d="M24.8947 154.503L24.4218 162.985L32.3426 166.056L24.1295 168.227L23.6565 176.71L19.0535 169.569L10.8404 171.741L16.2087 165.157L11.6056 158.016L19.5264 161.087L24.8947 154.503Z" fill="white"></path>
                <circle cx="53.7158" cy="179.329" r="2.88182" fill="white"></circle>
                <circle cx="233.198" cy="178.425" r="2.88182" fill="white"></circle>
                <defs>
                <filter id="filter0_f_92_9036" x="0.840332" y="140.029" width="280.16" height="67.0073" filterUnits="userSpaceOnUse" color-interpolation-filters="sRGB">
                <feFlood flood-opacity="0" result="BackgroundImageFix"></feFlood>
                <feBlend mode="normal" in="SourceGraphic" in2="BackgroundImageFix" result="shape"></feBlend>
                <feGaussianBlur stdDeviation="5" result="effect1_foregroundBlur_92_9036"></feGaussianBlur>
                </filter>
                </defs>
                </svg>