<svg width="361" height="379" viewBox="0 0 361 379" fill="none" xmlns="http://www.w3.org/2000/svg">
<path opacity="0.8" d="M186.099 22.0516L184.088 25.5354L184.002 25.4857C183.517 25.0339 183.272 24.8634 181.917 24.0812L177.831 21.7222L179.397 28.4466C179.865 30.4661 180.195 31.6318 180.389 31.7435L180.475 31.7932L179.494 33.492L179.408 33.4424C179.335 32.6258 179.108 31.7778 178.639 29.7584L178.095 27.523L167.126 26.4085C165.125 26.1994 164.391 26.3778 163.743 26.6059L163.485 26.4569C164.049 24.2881 166.216 22.4713 169.153 22.8478L177.322 23.8944L176.67 21.0518L171.38 17.9976C170.025 17.2154 169.754 17.0879 169.121 16.8941L169.035 16.8445L171.046 13.3607L171.132 13.4104C171.642 13.8192 171.887 13.9897 173.242 14.7719L183.779 20.8555C185.134 21.6377 185.405 21.7652 186.013 22.002L186.099 22.0516ZM158.114 34.9656C160.671 30.5357 166.234 29.0451 170.664 31.6027C175.094 34.1603 176.585 39.7232 174.027 44.1531C171.47 48.583 165.907 50.0736 161.477 47.516C157.047 44.9584 155.556 39.3955 158.114 34.9656ZM168.281 34.9862C164.302 32.6893 160.532 32.8635 159.067 35.401C157.266 38.5192 160.12 42.3171 163.754 44.4154C167.668 46.675 171.473 46.4918 172.95 43.9327C174.726 40.8576 171.893 37.072 168.281 34.9862ZM162.054 63.6995L160.043 67.1833L159.957 67.1336C159.447 66.7248 159.201 66.5543 157.847 65.7721L147.31 59.6885C145.955 58.9063 145.684 58.7788 145.075 58.542L144.989 58.4923L147.001 55.0086L147.087 55.0583C147.571 55.5101 147.817 55.6806 149.172 56.4628L156.483 60.6841L159.96 54.6629L152.648 50.4416C151.293 49.6594 151.023 49.5319 150.389 49.3381L150.303 49.2884L152.315 45.8047L152.401 45.8544C152.91 46.2632 153.156 46.4337 154.511 47.2159L165.048 53.2995C166.403 54.0817 166.673 54.2092 167.282 54.446L167.368 54.4956L165.356 57.9794L165.27 57.9297C164.786 57.4779 164.54 57.3074 163.185 56.5252L160.863 55.1843L157.387 61.2056L159.709 62.5464C161.064 63.3286 161.334 63.4561 161.968 63.6499L162.054 63.6995ZM158.178 70.4131L156.166 73.8968L156.08 73.8472C155.596 73.3954 155.35 73.2249 153.995 72.4427L142.103 65.5769L141.284 66.9962C139.856 69.4692 141.17 71.862 143.191 73.029C145.277 74.2334 148.142 74.1383 149.669 71.4933L149.843 71.1922L150.488 71.5647C150.255 72.118 150.012 72.6375 149.714 73.1536C147.939 76.2287 144.988 78.3099 141.719 76.4228C138.386 74.4984 137.761 71.0121 140.058 67.0338L143.125 61.7222L143.211 61.7719C143.72 62.1807 143.966 62.3512 145.321 63.1334L155.858 69.217C157.213 69.9992 157.483 70.1267 158.092 70.3635L158.178 70.4131ZM150.346 83.9786L148.334 87.4623L148.248 87.4126C147.764 86.9608 147.518 86.7903 146.163 86.0081L142.078 83.6492L143.643 90.3735C144.111 92.393 144.442 93.5587 144.636 93.6704L144.722 93.7201L143.741 95.4189L143.655 95.3693C143.581 94.5528 143.354 93.7048 142.886 91.6853L142.341 89.4499L131.372 88.3354C129.371 88.1263 128.637 88.3047 127.99 88.5329L127.732 88.3839C128.296 86.215 130.463 84.3982 133.399 84.7747L141.569 85.8213L140.916 82.9787L135.626 79.9245C134.271 79.1423 134.001 79.0148 133.367 78.821L133.281 78.7714L135.293 75.2877L135.379 75.3373C135.888 75.7461 136.134 75.9166 137.489 76.6988L148.026 82.7825C149.381 83.5646 149.651 83.6921 150.26 83.9289L150.346 83.9786ZM142.004 98.4275L139.992 101.911L139.906 101.862C139.422 101.41 139.176 101.239 137.821 100.457L129.499 95.6523L134.741 111.008L134.343 111.696C133.797 111.151 133.475 110.965 130.142 109.041L121.647 104.136C120.293 103.354 120.022 103.227 119.413 102.99L119.327 102.94L121.339 99.4566L121.425 99.5063C121.909 99.9581 122.155 100.129 123.51 100.911L131.832 105.716L126.591 90.3603L126.988 89.6721C127.534 90.2166 127.856 90.4028 128.931 91.0236L139.684 97.2314C141.038 98.0136 141.309 98.1411 141.918 98.3779L142.004 98.4275Z" fill="#F6F1FF"/>
<path opacity="0.5" d="M150.667 6.65931L151.114 5.88509L157.744 9.71308L157.71 7.81593L158.568 8.31093L158.596 10.2051L158.149 10.9793L150.667 6.65931ZM146.943 13.1093L147.387 12.3403L148.837 13.1773L150.859 9.67504L151.586 10.095L155.446 15.6626L154.951 16.52L151.091 10.9524L149.564 13.5973L151.747 14.8573L151.303 15.6263L149.12 14.3663L148.649 15.1821L147.922 14.7621L148.393 13.9463L146.943 13.1093ZM143.105 19.7563L143.549 18.9873L144.999 19.8243L147.021 16.3221L147.749 16.7421L151.608 22.3096L151.113 23.167L147.254 17.5994L145.727 20.2443L147.909 21.5043L147.465 22.2733L145.283 21.0133L144.812 21.8291L144.084 21.4091L144.555 20.5933L143.105 19.7563ZM144.73 25.9434C145.324 24.9145 146.641 24.5527 147.68 25.1527C148.699 25.7407 149.047 27.1057 148.471 28.1034C147.877 29.1322 146.559 29.494 145.52 28.894C144.481 28.294 144.136 26.9722 144.73 25.9434ZM145.421 26.3424C145.052 26.9815 145.28 27.8339 145.919 28.2029C146.558 28.5719 147.411 28.3435 147.78 27.7044C148.149 27.0652 147.92 26.2128 147.281 25.8438C146.642 25.4748 145.79 25.7032 145.421 26.3424ZM137.165 29.6849C137.966 28.2975 139.63 27.8517 141.018 28.6527L143.927 30.3327C145.315 31.1337 145.761 32.7975 144.96 34.1849C144.159 35.5723 142.495 36.0181 141.107 35.2171L138.198 33.5371C136.81 32.7361 136.364 31.0723 137.165 29.6849ZM137.903 30.1109C137.372 31.0306 137.688 32.2109 138.608 32.7419L141.591 34.4639C142.516 34.9979 143.696 34.6816 144.227 33.7619C144.758 32.8422 144.442 31.6619 143.517 31.1279L140.534 29.4059C139.614 28.8749 138.434 29.1912 137.903 30.1109ZM133.263 36.4435C134.064 35.0562 135.728 34.6104 137.115 35.4114L140.025 37.0913C141.413 37.8923 141.858 39.5562 141.057 40.9435C140.256 42.3309 138.593 42.7767 137.205 41.9757L134.295 40.2957C132.908 39.4947 132.462 37.8309 133.263 36.4435ZM134.001 36.8695C133.47 37.7893 133.786 38.9695 134.706 39.5005L137.689 41.2225C138.614 41.7565 139.794 41.4403 140.325 40.5205C140.856 39.6008 140.54 38.4206 139.615 37.8866L136.632 36.1646C135.712 35.6336 134.532 35.9498 134.001 36.8695ZM136.004 43.7326L138.219 45.6559L137.775 46.4249L135.701 44.2574L136.004 43.7326ZM135.242 45.0525L137.457 46.9757L137.013 47.7447L134.939 45.5773L135.242 45.0525ZM127.5 53.5904L130.02 49.2256L130.674 49.6036L128.154 53.9684L127.5 53.5904ZM125.411 61.5399C124.61 62.9273 122.898 63.3729 121.511 62.5719C120.128 61.7739 119.674 59.9806 120.475 58.5932C121.288 57.185 123.059 56.7107 124.519 57.5537L127.112 59.0507C128.613 59.9177 129.086 61.6665 128.231 63.1474C127.739 63.9995 126.903 64.5354 125.963 64.616L125.819 63.7498C126.495 63.7179 127.147 63.3457 127.504 62.7274C128.113 61.6725 127.699 60.4219 126.732 59.8639L125.584 59.2009C125.864 59.9516 125.831 60.8125 125.411 61.5399ZM121.218 59.0222C120.654 59.9991 120.978 61.2389 121.955 61.8029C122.931 62.3669 124.174 62.0383 124.738 61.0614C125.302 60.0845 124.965 58.8439 123.989 58.2799C123.022 57.7219 121.782 58.0453 121.218 59.0222ZM116.565 65.365C117.366 63.9776 119.03 63.5318 120.418 64.3328L123.327 66.0128C124.715 66.8138 125.161 68.4776 124.36 69.865C123.559 71.2524 121.895 71.6982 120.507 70.8972L117.598 69.2172C116.21 68.4162 115.764 66.7524 116.565 65.365ZM117.303 65.791C116.772 66.7107 117.089 67.891 118.008 68.422L120.991 70.144C121.916 70.678 123.096 70.3617 123.627 69.442C124.158 68.5223 123.842 67.342 122.917 66.808L119.934 65.086C119.015 64.555 117.834 64.8713 117.303 65.791ZM117.286 73.4764C117.88 72.4476 119.198 72.0858 120.237 72.6858C121.255 73.2738 121.604 74.6387 121.028 75.6364C120.434 76.6652 119.116 77.027 118.077 76.427C117.038 75.827 116.692 74.5052 117.286 73.4764ZM117.977 73.8754C117.608 74.5145 117.837 75.3669 118.476 75.7359C119.115 76.1049 119.967 75.8765 120.336 75.2374C120.705 74.5983 120.477 73.7459 119.838 73.3769C119.199 73.0079 118.346 73.2363 117.977 73.8754ZM109.722 77.2179C110.523 75.8305 112.187 75.3847 113.574 76.1857L116.484 77.8657C117.872 78.6667 118.317 80.3305 117.516 81.7179C116.715 83.1053 115.052 83.5511 113.664 82.7501L110.754 81.0701C109.367 80.2691 108.921 78.6053 109.722 77.2179ZM110.46 77.6439C109.929 78.5636 110.245 79.7439 111.165 80.2749L114.148 81.9969C115.073 82.5309 116.253 82.2146 116.784 81.2949C117.315 80.3752 116.999 79.195 116.074 78.661L113.091 76.939C112.171 76.408 110.991 76.7242 110.46 77.6439ZM105.82 83.9766C106.621 82.5892 108.285 82.1434 109.672 82.9444L112.582 84.6244C113.969 85.4254 114.415 87.0892 113.614 88.4766C112.813 89.8639 111.149 90.3098 109.762 89.5088L106.852 87.8288C105.465 87.0278 105.019 85.3639 105.82 83.9766ZM106.558 84.4026C106.027 85.3223 106.343 86.5025 107.263 87.0335L110.245 88.7555C111.17 89.2895 112.351 88.9733 112.882 88.0536C113.413 87.1339 113.096 85.9536 112.171 85.4196L109.189 83.6976C108.269 83.1666 107.089 83.4829 106.558 84.4026ZM108.561 91.2657L110.776 93.1889L110.332 93.9579L108.258 91.7905L108.561 91.2657ZM107.799 92.5855L110.014 94.5087L109.57 95.2778L107.496 93.1103L107.799 92.5855Z" fill="#BBBBBB"/>
<g opacity="0.2">
<path d="M70.6939 295.801C72.1214 295.671 73.5523 295.741 74.9878 295.735C76.1284 295.757 76.5829 295.383 76.4433 294.109C76.0864 290.801 75.6525 287.488 75.7442 284.16C75.8295 279.397 76.4059 274.679 76.6152 269.908C76.6499 268.814 77.1039 266.65 77.1039 266.65L77.62 263.965C78.9097 264.074 80.1558 264.395 81.4237 264.61C83.7162 264.979 85.9789 265.331 88.3483 265.705C88.2905 267.183 88.3095 268.665 88.3286 270.148C88.6319 279.749 92.742 287.372 100.656 292.816C107.99 297.885 116.455 300.307 124.962 302.037C134.613 303.989 144.477 304.952 154.276 306.234C162.483 307.313 170.677 308.345 178.573 310.995C190.824 315.125 202.303 321.076 214.032 326.456C216.449 327.573 218.867 328.691 221.57 329.933C221.733 328.755 221.903 327.978 221.919 327.192C222.185 317.363 224.551 308.03 228.53 299.072C228.763 298.53 228.831 297.654 228.568 297.145C224.95 290.323 221.367 283.442 217.526 276.73C214.69 271.792 210.218 268.653 205.046 266.383C204.616 266.851 204.298 267.264 203.938 267.612C202.424 268.926 200.745 269.905 198.623 269.516C195.832 268.978 193.743 265.982 193.94 262.954C194.11 260.387 196.161 258.35 198.734 258.165C202.238 257.881 205.336 259.749 205.767 262.584C205.921 263.627 206.329 264.022 207.169 264.427C212.993 267.153 217.657 271.198 220.806 276.834C223.803 282.184 226.671 287.618 229.556 293.022C229.806 293.485 230.069 293.994 230.362 294.521C232.663 290.879 242.241 268.091 242.451 265.866C236.629 263.896 230.831 262.02 225.025 260.021C222.53 259.176 220.147 257.999 217.659 257.279C214.566 256.368 211.751 254.425 208.336 254.76C208.011 254.771 207.628 254.47 207.317 254.251C206.618 253.808 206.006 253.216 205.255 252.862C203.089 251.93 200.884 251.134 198.701 250.231C196.94 249.493 195.166 248.707 193.106 247.797C192.523 250.323 192.077 252.611 191.447 254.873C191.269 255.525 190.622 256.027 190.188 256.572C189.729 255.988 189.065 255.486 188.871 254.857C188.695 254.198 188.852 253.374 189.035 252.644C189.573 250.609 190.219 248.595 190.796 246.701C187.446 243.892 184.181 241.212 180.712 238.334C180.177 239.536 179.51 240.623 179.24 241.779C178.408 245.356 177.469 248.91 178.046 252.664C178.125 253.147 177.574 254.102 177.279 254.13C176.737 254.175 175.803 253.795 175.659 253.354C175.275 252.297 175.007 251.108 175.166 250.007C175.595 246.715 176.101 243.427 176.897 240.188C177.211 238.818 178.301 237.618 179.145 236.157C177.107 233.349 174.844 230.173 172.424 226.788C168.809 230.706 166.329 235.002 165.209 240.042C165.078 240.682 165.515 241.372 165.473 242.064C165.432 242.756 165.113 243.447 164.917 244.129C164.291 243.768 163.164 243.515 163.115 243.049C162.84 241.459 162.366 239.594 162.91 238.238C164.443 234.549 165.883 230.608 168.421 227.658C170.942 224.739 171.059 222.539 169.248 219.545C168.336 218.024 167.793 216.279 167.006 214.472C166.594 214.91 166.456 215.149 166.199 215.319C161.716 218.537 158.136 222.396 156.829 227.966C156.725 228.422 155.85 229.111 155.594 229.003C155.065 228.817 154.308 228.061 154.361 227.694C154.625 226.136 154.837 224.389 155.667 223.158C157.633 220.237 159.914 217.457 162.232 214.818C163.143 213.793 164.598 213.201 166.012 212.268C164.338 208.278 162.516 203.925 160.694 199.573C157.483 201.139 154.079 205.657 153.239 209.109C153.096 209.702 152.282 210.147 151.788 210.658C151.394 210.032 150.615 209.384 150.694 208.833C150.867 207.501 151.143 205.99 151.929 204.972C153.953 202.362 156.228 199.937 158.516 197.559C159.241 196.785 159.611 196.282 159.18 195.238C158.38 193.385 157.769 191.481 157.064 189.602C156.477 188.07 155.873 186.568 155.121 184.702C151.302 188.423 147.46 191.495 144.916 195.832C144.623 196.34 143.836 196.601 143.275 196.953C142.975 196.302 142.431 195.591 142.468 194.976C142.527 194.254 143.039 193.436 143.549 192.896C146.567 189.666 149.568 186.467 152.747 183.371C153.648 182.499 153.963 181.885 153.451 180.636C151.943 176.98 150.639 173.245 149.241 169.535C148.95 168.73 148.689 167.943 148.317 166.933C147.333 167.399 146.422 167.668 145.77 168.246C142.463 171.149 139.377 174.22 138.426 178.762C138.304 179.248 137.542 179.604 137.07 180.007C136.671 179.459 135.947 178.921 135.932 178.396C135.911 177.469 136.189 176.436 136.594 175.596C138.962 170.6 142.44 166.642 147.758 163.906C147.124 162.386 146.537 160.854 145.92 159.305C146.007 159.156 146.093 159.007 146.136 158.793C146.305 158.294 147.467 155.386 147.683 154.874C154.677 138.628 161.64 122.365 169.883 106.641C170.129 106.147 170.23 105.489 170.232 104.934C170.313 103.071 171.401 102.427 173.042 103.374C176.634 105.488 180.256 107.619 183.813 109.792C183.757 109.958 183.701 110.125 183.627 110.321C180.161 120.251 177.194 130.35 172.389 139.707C167.807 148.675 162.94 157.518 158.103 166.379C157.41 167.649 157.174 168.746 157.788 170.094C159.268 173.454 160.766 176.785 162.088 180.213C163.625 184.163 165.004 188.181 166.495 192.143C166.841 193.059 167.611 193.861 167.94 194.807C168.349 195.958 168.394 197.257 168.851 198.396C171.425 204.615 174.016 210.804 176.672 216.95C180.532 225.901 186.167 233.569 193.942 239.529C199.681 243.917 206.477 246.13 213.148 248.629C213.404 248.737 213.711 248.756 214.023 248.697C219.598 250.683 227.933 253.745 231.652 255.017C236.793 256.792 241.876 258.733 247.09 260.311C250.409 261.313 250.72 262.566 249.536 265.581C247.094 271.808 244.303 277.951 241.439 284.014C240.555 285.89 240.742 287.151 242.171 288.533C243.979 290.293 245.671 292.184 247.529 294.132C247.894 293.706 248.04 293.592 248.109 293.472C248.419 292.935 248.776 292.386 249.026 291.815C251.453 286.096 259.286 275.903 264.201 269.872C268.822 265.381 273.426 260.92 278.004 256.364C278.464 255.914 278.754 254.928 278.637 254.304C277.367 247.962 274.594 242.225 270.703 237.115C267.628 233.073 263.832 229.728 259.504 227.03C258.238 226.26 257.423 226.226 256.29 227.362C254.47 229.135 252.175 229.322 249.912 228.213C248.023 227.282 246.945 225.705 246.95 223.561C246.95 220.737 249.061 218.734 252.426 218.211C255.213 217.791 258.354 219.446 258.889 222.101C259.219 223.803 260.186 224.401 261.427 225.078C262.023 225.422 262.602 225.796 263.165 226.2C271.89 232.511 277.715 240.885 280.659 251.215C280.84 251.797 281.021 252.379 281.273 253.32C284.758 249.764 288.029 246.442 291.415 242.988C290.785 242.425 290.359 242.06 289.934 241.695C287.405 239.599 284.825 237.593 282.408 235.442C277.749 231.319 273.158 227.078 268.485 222.909C267.051 221.604 265.532 219.414 264.007 219.369C260.974 219.248 262.125 216.015 260.183 215.451C259.94 215.39 259.758 215.086 259.554 214.889C257.895 213.215 256.219 211.571 254.56 209.898C253.863 209.177 253.118 208.469 252.115 207.452C250.627 209.615 249.289 211.587 247.862 213.508C247.51 213.981 246.804 214.17 246.29 214.509C246.002 213.905 245.484 213.288 245.491 212.656C245.498 212.023 245.864 211.32 246.251 210.788C247.343 209.31 248.435 207.833 249.718 206.505C250.525 205.659 250.421 205.082 249.873 204.169C248.317 201.56 246.919 198.884 245.444 196.203C245.097 195.565 244.844 194.902 244.408 193.934C243.348 194.874 242.337 195.523 241.714 196.396C239.556 199.445 237.295 202.396 236.36 206.151C236.238 206.638 235.476 206.993 235.005 207.397C234.605 206.848 233.899 206.281 233.884 205.756C233.897 204.769 234.162 203.689 234.632 202.807C236.036 200.237 237.589 197.753 239.126 195.299C240.167 193.633 241.43 192.135 243.635 191.897C242.695 188.014 241.794 184.272 240.841 180.341C240.114 180.637 239.472 180.784 239.005 181.111C236.339 183.111 233.69 185.081 231.156 187.198C229.723 188.439 228.627 189.993 228.579 192.074C228.551 192.535 227.755 192.95 227.313 193.371C226.892 192.929 226.061 192.37 226.114 192.003C226.39 190.492 226.633 188.763 227.463 187.532C229.85 184.018 233.037 181.046 236.855 179.392C240.404 177.861 241.195 175.733 240.629 172.304C240.346 170.59 240.529 168.826 240.508 166.865C238.909 167.294 237.57 167.476 236.398 167.992C232.416 169.79 228.35 171.459 225.919 175.464C225.712 175.822 224.694 176.07 224.336 175.863C223.948 175.639 223.632 174.741 223.784 174.271C224.065 173.439 224.535 172.557 225.174 171.932C229.443 167.914 234.279 164.979 240.43 164.314C240.373 159.867 240.312 155.218 240.24 150.245C236.094 151.709 232.197 152.879 229.784 156.577C229.461 157.067 228.529 157.165 227.849 157.448C227.754 156.717 227.313 155.827 227.576 155.302C228.167 154.211 228.902 153.006 229.926 152.403C232.787 150.754 235.733 149.234 238.79 147.936C240.057 147.394 240.567 146.854 240.556 145.496C240.544 142.625 240.684 139.763 240.719 136.879C240.738 136.294 240.651 135.687 240.587 134.696C235.798 136.584 231.186 138.097 227.2 141.006C226.669 141.375 225.823 141.324 225.134 141.484C225.181 140.715 224.963 139.714 225.38 139.199C225.951 138.416 226.915 137.779 227.836 137.356C231.611 135.638 235.353 133.98 239.196 132.421C240.335 131.964 240.794 131.514 240.778 130.232C240.779 126.096 240.935 121.97 241.09 117.844C241.176 115.627 240.564 115.035 238.42 115.786C234.261 117.202 230.272 118.876 227.589 122.697C227.284 123.157 226.357 123.178 225.74 123.419C225.628 122.718 225.175 121.78 225.481 121.32C226.263 120.102 227.217 118.863 228.396 117.992C232.229 115.074 236.416 112.918 241.403 112.616C241.474 112.219 241.621 111.827 241.644 111.442C242.325 104.2 242.003 96.9737 240.377 89.8703C238.998 83.7848 236.576 78.1304 232.122 73.6503C224.437 65.9517 209.7 65.4375 201.335 75.9997C195.359 83.5264 190.896 91.8075 187.255 100.524C184.877 99.2699 182.533 97.9564 180.207 96.6131C176.943 94.6889 176.977 94.6293 178.909 91.4892C178.944 91.4296 178.978 91.3699 179.013 91.3102C181.323 86.7578 183.543 82.1537 185.96 77.623C189.243 71.5241 192.526 65.4251 196.064 59.4341C198.569 55.2329 202.231 52.3355 207.292 51.5591C210.174 51.1148 211.739 51.7797 213.257 54.2473C214.186 55.7382 214.791 57.9966 216.1 58.5536C217.516 59.1323 219.602 58.0693 221.401 57.915C223.076 57.7686 223.179 56.8335 222.885 55.5505C221.36 48.8235 217.788 43.3006 212.754 38.724C209.214 35.487 205.209 34.8454 200.778 36.9405C195.919 39.2258 192.306 42.8668 189.343 47.2412C181.95 58.0469 175.824 69.623 170.226 81.3852C165.672 90.9262 162.171 100.916 157.558 110.423C151.78 122.359 145.627 134.119 139.533 145.913C136.594 141.154 132.938 137.015 128.168 133.704C118.563 127.124 105.402 129.668 99.1211 139.444C95.8515 144.557 94.8341 150.452 94.0049 156.297C93.2735 161.284 92.8324 166.319 92.6862 171.325C90.0299 171.104 87.3609 170.836 84.6793 170.52C81.5537 170.148 81.5411 170.101 82.0631 167.061C82.0849 166.954 82.0769 166.83 82.0987 166.724C82.3168 162.833 82.5051 158.924 82.83 155.055C83.3621 148.76 83.8771 142.495 84.6697 136.231C85.1793 132.111 87.0577 128.582 90.6994 126.27C92.8973 124.874 94.2559 124.863 96.4024 126.381C97.5863 127.223 98.7539 128.852 99.8819 128.827C101.211 128.799 102.461 127.253 103.801 126.516C105.077 125.821 105.059 125.095 104.304 124.062C100.796 119.253 96.1234 116.117 90.5438 114.209C86.551 112.858 83.2482 113.894 80.4955 117.077C77.6912 120.35 76.0548 124.218 75.2973 128.354C72.6431 143.009 71.3979 157.841 71.6479 172.701C71.9058 187.685 71.5786 202.649 70.2818 217.57C69.3811 227.948 68.7536 238.404 68.4209 248.831C68.0833 260.368 69.2282 271.887 68.2285 283.401C67.9188 286.762 68.1472 290.155 68.1449 293.534C68.2488 295.145 68.9887 295.93 70.6939 295.801ZM76.8751 253.751C76.7524 253.482 77.2174 252.676 77.564 252.558C78.6633 252.239 78.5385 251.49 78.4952 250.67C78.4417 249.247 78.4054 247.794 78.4288 246.376C78.6302 233.765 78.7548 221.15 79.0801 208.531C79.286 199.701 79.7995 190.89 80.1293 182.052C80.1616 181.514 80.0574 180.937 79.8717 180.432C79.3145 178.917 79.8782 178.01 81.4536 178.243C85.2195 178.747 88.9681 179.28 92.734 179.784C92.817 182.258 92.947 184.72 93.1539 187.186C93.4785 191.032 93.8204 194.849 93.9144 198.681C94.2874 212.777 92.9094 226.737 91.0701 240.669C90.3766 245.797 89.5763 250.903 89.0193 256.07C87.6182 256.017 86.2125 256.04 84.7989 255.94C82.574 255.729 80.3663 255.489 78.1851 255.065C77.6641 255.002 77.1503 254.308 76.8751 253.751Z" fill="white"/>
<path d="M200.314 262.179C201.044 262.084 201.807 262.485 202.964 262.755C201.222 260.675 198.746 260.28 197.36 261.508C196.138 262.592 196.337 264.934 197.753 266.269C198.936 267.389 200.574 267.102 202.192 265.332C201.338 265.157 200.493 265.106 199.819 264.757C199.265 264.477 198.952 263.779 198.519 263.29C199.114 262.879 199.677 262.249 200.314 262.179Z" fill="white"/>
<path d="M251.117 223.301C251.752 222.753 252.57 222.231 253.348 222.124C254.25 222.008 255.201 222.358 256.238 222.559C254.935 220.614 253.741 220.203 251.656 221.266C250.812 221.694 249.808 222.744 249.809 223.501C249.822 224.304 250.774 225.41 251.58 225.875C252.624 226.478 253.842 226.227 254.801 224.911C254.275 224.926 253.951 224.937 253.596 224.931C252.827 224.885 252.019 224.976 251.324 224.733C251.111 224.69 250.89 223.488 251.117 223.301Z" fill="white"/>
</g>
<path fill-rule="evenodd" clip-rule="evenodd" d="M107.011 276.455C107.928 276.558 108.784 276.901 109.505 277.424L133.365 231.414L138.444 281.105L111.642 281.119C111.643 281.127 111.644 281.134 111.645 281.142C111.74 282.076 111.585 282.977 111.234 283.78L139.918 283.765L141.391 283.764L141.241 282.299L135.745 228.538L251.618 253.899C251.402 253.464 251.259 252.984 251.207 252.473C251.159 252.002 251.191 251.541 251.293 251.104L134.52 225.547L133.524 225.329L133.054 226.234L107.011 276.455ZM254.923 247.91C254.292 247.974 253.709 248.177 253.2 248.484L212.739 129.074L142.796 148.301L142.091 145.736L213.243 126.176L214.453 125.844L214.856 127.032L255.816 247.914C255.525 247.881 255.226 247.879 254.923 247.91ZM257.961 255.287C258.055 255.211 258.146 255.131 258.233 255.047L258.342 255.37L257.961 255.287Z" fill="#BBBBBB"/>
<circle cx="137.36" cy="149.203" r="3.51986" transform="rotate(-95.8365 137.36 149.203)" fill="#BBBBBB"/>
<circle cx="105.364" cy="282.114" r="3.36489" transform="rotate(-95.8365 105.364 282.114)" fill="#BBBBBB"/>
<circle cx="257.932" cy="254.446" r="3.96961" transform="rotate(-95.8365 257.932 254.446)" fill="#BBBBBB"/>
<path d="M119.222 231.097L129.155 226.709L128.051 215.906L135.294 223.997L145.226 219.608L139.77 228.997L147.013 237.087L136.398 234.799L130.942 244.188L129.837 233.385L119.222 231.097Z" fill="white"/>
<path d="M194.795 131.172L207.274 125.658L205.887 112.086L214.987 122.251L227.466 116.737L220.611 128.533L229.711 138.698L216.374 135.823L209.519 147.619L208.131 134.047L194.795 131.172Z" fill="white"/>
<path d="M128.486 281.248L135.591 278.109L134.801 270.381L139.983 276.168L147.088 273.029L143.185 279.745L148.366 285.533L140.772 283.896L136.869 290.612L136.079 282.884L128.486 281.248Z" fill="white"/>
</svg>
