<svg width="374" height="484" viewBox="0 0 374 484" fill="none" xmlns="http://www.w3.org/2000/svg">
<path opacity="0.8" d="M199.42 9.57774L197.409 13.0615L197.323 13.0118C196.838 12.56 196.593 12.3895 195.238 11.6073L192.27 9.89394C190.507 8.87586 188.713 9.10195 187.733 10.8008C187.174 11.7685 186.907 12.8761 187.102 14.0782L192.134 16.9834C193.489 17.7656 193.759 17.8931 194.393 18.0868L194.479 18.1365L192.468 21.6202L192.382 21.5706C191.872 21.1617 191.627 20.9913 190.272 20.2091L179.735 14.1254C178.38 13.3432 178.109 13.2158 177.501 12.979L177.415 12.9293L179.426 9.4456L179.512 9.49526C179.996 9.94709 180.242 10.1176 181.597 10.8998L186.091 13.4946C185.812 11.8425 186.188 10.3966 186.933 9.10635C188.858 5.77316 191.66 5.24048 193.961 6.56895L197.1 8.38162C198.455 9.16381 198.726 9.29129 199.334 9.52808L199.42 9.57774ZM190.6 24.8543L185.162 34.2732L184.044 33.6276L184.094 33.5416C184.632 33.1067 184.818 32.7841 185.439 31.7089L187.773 27.666L184.096 25.543L181.55 29.9514L180.647 29.4299L183.192 25.0215L174.526 20.018L171.733 24.8565C171.075 25.9963 170.947 26.2667 170.753 26.9003L170.704 26.9864L169.65 26.378L175.547 16.1634L175.633 16.213C176.143 16.6219 176.388 16.7924 177.743 17.5745L188.28 23.6582C189.635 24.4404 189.906 24.5678 190.514 24.8046L190.6 24.8543ZM180.123 43.0024C177.975 46.7226 174.837 48.0361 171.869 46.3228C168.514 44.3859 168.557 40.3391 170.407 37.1349C170.63 36.7478 170.909 36.3641 171.176 36.0018L171.821 36.3743L171.659 36.6538C170.331 38.9548 170.914 41.4707 173.559 42.9978C176.14 44.4877 178.301 44.0722 179.629 41.7713L180.511 40.2444L168.619 33.3786C167.264 32.5964 166.993 32.469 166.385 32.2322L166.299 32.1825L168.285 28.7418L168.371 28.7915C168.881 29.2003 169.126 29.3708 170.481 30.153L181.018 36.2366C182.373 37.0188 182.643 37.1463 183.252 37.3831L183.338 37.4327L180.123 43.0024ZM175.506 50.9982L170.068 60.4171L168.95 59.7715L169 59.6855C169.538 59.2505 169.724 58.9279 170.345 57.8527L172.679 53.8099L169.001 51.6868L166.456 56.0952L165.553 55.5738L168.098 51.1654L159.432 46.1619L156.638 51.0004C155.98 52.1401 155.853 52.4106 155.659 53.0442L155.609 53.1302L154.556 52.5219L160.453 42.3072L160.539 42.3569C161.049 42.7657 161.294 42.9362 162.649 43.7184L173.186 49.802C174.541 50.5842 174.811 50.7117 175.42 50.9485L175.506 50.9982ZM168.244 63.5766L160.919 76.2642L160.833 76.2145C160.323 75.8057 160.078 75.6352 158.723 74.853L148.186 68.7694C146.831 67.9872 146.561 67.8597 145.952 67.6229L145.866 67.5733L147.877 64.0896L147.963 64.1392C148.448 64.5911 148.693 64.7616 150.048 65.5437L161.94 72.4096L165.417 66.3883L153.525 59.5225C152.17 58.7403 151.899 58.6128 151.266 58.419L151.18 58.3694L153.191 54.8857L153.277 54.9353C153.786 55.3441 154.032 55.5146 155.387 56.2968L165.924 62.3805C167.279 63.1626 167.549 63.2901 168.158 63.5269L168.244 63.5766ZM156.534 83.8595C156.087 84.6336 155.629 85.7743 155.758 86.5941L139.617 83.6117C137.472 83.2048 137.127 83.2063 136.961 83.1964L136.875 83.1467L139.084 79.3189L139.171 79.3686C139.3 79.4431 139.458 79.7641 141.603 80.171L143.33 80.5082L147.154 73.8848L146.023 72.5154C144.636 70.7967 144.315 70.7553 144.186 70.6808L144.1 70.6311L144.883 69.2763L144.969 69.326C145.06 69.465 145.219 69.786 146.607 71.5047L156.534 83.8595ZM147.858 74.7504L144.419 80.7071L154.23 82.5864L147.858 74.7504ZM151.622 92.3668L149.263 96.4527L149.165 96.4245C148.857 96.3615 148.716 96.3086 146.941 96.4023L141.963 96.682L144.247 101.069C145.114 102.745 145.145 102.791 145.353 103.026L145.427 103.098L144.533 104.646L144.447 104.596C144.32 104.121 144.199 103.536 143.234 101.631L140.746 96.7535L131.818 97.2189C129.809 97.3208 129.134 97.4472 128.684 97.5314L128.598 97.4818L130.957 93.3959L131.056 93.4241C131.363 93.4871 131.505 93.54 133.279 93.4463L139.977 93.0696L136.942 87.1025C136.096 85.4386 136.044 85.3799 135.836 85.1449L135.762 85.0737L136.656 83.5254L136.742 83.5751C136.869 84.0499 136.999 84.6696 137.942 86.5618L141.16 93.0071L148.449 92.5991C150.491 92.4881 151.086 92.4014 151.536 92.3172L151.622 92.3668ZM140.118 112.292C139.671 113.067 139.213 114.207 139.342 115.027L123.201 112.045C121.056 111.638 120.711 111.639 120.545 111.629L120.459 111.58L122.669 107.752L122.755 107.801C122.884 107.876 123.043 108.197 125.187 108.604L126.914 108.941L130.738 102.318L129.607 100.948C128.22 99.2296 127.9 99.1882 127.771 99.1137L127.685 99.064L128.467 97.7092L128.553 97.7589C128.645 97.8979 128.803 98.2189 130.191 99.9376L140.118 112.292ZM131.442 103.183L128.003 109.14L137.814 111.019L131.442 103.183Z" fill="#F6F1FF"/>
<path opacity="0.5" d="M158.314 4.01283L158.761 3.2386L165.391 7.0666L165.357 5.16944L166.214 5.66444L166.243 7.5586L165.796 8.33283L158.314 4.01283ZM154.59 10.4628L155.034 9.69377L156.483 10.5308L158.505 7.02856L159.233 7.44856L163.092 13.0161L162.597 13.8735L158.738 8.30592L157.211 10.9508L159.393 12.2108L158.949 12.9798L156.767 11.7198L156.296 12.5356L155.568 12.1156L156.039 11.2998L154.59 10.4628ZM150.752 17.1098L151.196 16.3408L152.646 17.1778L154.668 13.6756L155.395 14.0956L159.254 19.6631L158.759 20.5205L154.9 14.9529L153.373 17.5978L155.556 18.8578L155.112 19.6268L152.929 18.3668L152.458 19.1826L151.731 18.7626L152.202 17.9468L150.752 17.1098ZM152.376 23.2969C152.97 22.268 154.287 21.9063 155.327 22.5063C156.345 23.0943 156.693 24.4592 156.117 25.4569C155.523 26.4857 154.206 26.8475 153.167 26.2475C152.127 25.6475 151.782 24.3257 152.376 23.2969ZM153.067 23.6959C152.698 24.335 152.927 25.1874 153.566 25.5564C154.205 25.9254 155.057 25.697 155.426 25.0579C155.795 24.4187 155.567 23.5663 154.928 23.1973C154.289 22.8283 153.436 23.0567 153.067 23.6959ZM144.812 27.0384C145.613 25.651 147.277 25.2052 148.664 26.0062L151.574 27.6862C152.961 28.4872 153.407 30.151 152.606 31.5384C151.805 32.9258 150.141 33.3716 148.754 32.5706L145.844 30.8906C144.457 30.0896 144.011 28.4258 144.812 27.0384ZM145.55 27.4644C145.019 28.3841 145.335 29.5644 146.255 30.0954L149.237 31.8174C150.162 32.3514 151.342 32.0351 151.873 31.1154C152.404 30.1957 152.088 29.0154 151.163 28.4814L148.181 26.7594C147.261 26.2284 146.081 26.5447 145.55 27.4644ZM140.91 33.7971C141.711 32.4097 143.375 31.9639 144.762 32.7649L147.672 34.4449C149.059 35.2459 149.505 36.9097 148.704 38.2971C147.903 39.6844 146.239 40.1302 144.852 39.3292L141.942 37.6493C140.555 36.8483 140.109 35.1844 140.91 33.7971ZM141.648 34.2231C141.117 35.1428 141.433 36.323 142.353 36.854L145.335 38.576C146.26 39.11 147.44 38.7938 147.971 37.8741C148.502 36.9543 148.186 35.7741 147.261 35.2401L144.279 33.5181C143.359 32.9871 142.179 33.3033 141.648 34.2231ZM143.65 41.0861L145.866 43.0094L145.422 43.7784L143.347 41.611L143.65 41.0861ZM142.888 42.406L145.104 44.3292L144.66 45.0982L142.585 42.9308L142.888 42.406ZM135.146 50.9439L137.666 46.5791L138.321 46.9571L135.801 51.3219L135.146 50.9439ZM133.058 58.8935C132.257 60.2808 130.544 60.7264 129.157 59.9254C127.775 59.1274 127.321 57.3341 128.122 55.9467C128.935 54.5386 130.705 54.0642 132.165 54.9072L134.758 56.4042C136.26 57.2712 136.733 59.02 135.878 60.5009C135.386 61.353 134.55 61.8889 133.609 61.9695L133.465 61.1034C134.142 61.0714 134.793 60.6992 135.15 60.0809C135.759 59.0261 135.345 57.7754 134.379 57.2174L133.23 56.5544C133.51 57.3051 133.478 58.166 133.058 58.8935ZM128.865 56.3757C128.301 57.3526 128.624 58.5924 129.601 59.1564C130.578 59.7204 131.821 59.3918 132.385 58.4149C132.949 57.438 132.612 56.1974 131.635 55.6334C130.669 55.0754 129.429 55.3988 128.865 56.3757ZM124.212 62.7185C125.013 61.3311 126.677 60.8853 128.064 61.6863L130.974 63.3663C132.361 64.1673 132.807 65.8311 132.006 67.2185C131.205 68.6059 129.541 69.0517 128.154 68.2507L125.244 66.5707C123.857 65.7697 123.411 64.1059 124.212 62.7185ZM124.95 63.1445C124.419 64.0642 124.735 65.2445 125.655 65.7755L128.637 67.4975C129.562 68.0315 130.743 67.7152 131.274 66.7955C131.805 65.8758 131.488 64.6956 130.563 64.1616L127.581 62.4396C126.661 61.9086 125.481 62.2248 124.95 63.1445ZM124.933 70.8299C125.527 69.8011 126.844 69.4393 127.883 70.0393C128.902 70.6273 129.25 71.9922 128.674 72.9899C128.08 74.0187 126.763 74.3805 125.723 73.7805C124.684 73.1805 124.339 71.8587 124.933 70.8299ZM125.624 71.2289C125.255 71.868 125.483 72.7204 126.122 73.0894C126.762 73.4584 127.614 73.23 127.983 72.5909C128.352 71.9518 128.124 71.0994 127.484 70.7304C126.845 70.3614 125.993 70.5898 125.624 71.2289ZM117.369 74.5714C118.17 73.1841 119.833 72.7382 121.221 73.5392L124.131 75.2192C125.518 76.0202 125.964 77.6841 125.163 79.0714C124.362 80.4588 122.698 80.9046 121.311 80.1036L118.401 78.4236C117.013 77.6226 116.568 75.9588 117.369 74.5714ZM118.107 74.9974C117.576 75.9172 117.892 77.0974 118.811 77.6284L121.794 79.3504C122.719 79.8844 123.899 79.5682 124.43 78.6484C124.961 77.7287 124.645 76.5485 123.72 76.0145L120.737 74.2925C119.818 73.7615 118.638 74.0777 118.107 74.9974ZM113.467 81.3301C114.268 79.9427 115.931 79.4969 117.319 80.2979L120.229 81.9779C121.616 82.7789 122.062 84.4427 121.261 85.8301C120.46 87.2175 118.796 87.6633 117.409 86.8623L114.499 85.1823C113.111 84.3813 112.666 82.7175 113.467 81.3301ZM114.204 81.7561C113.673 82.6758 113.99 83.8561 114.909 84.3871L117.892 86.1091C118.817 86.6431 119.997 86.3268 120.528 85.4071C121.059 84.4874 120.743 83.3071 119.818 82.7731L116.835 81.0511C115.916 80.5201 114.735 80.8364 114.204 81.7561ZM116.207 88.6192L118.422 90.5424L117.978 91.3114L115.904 89.144L116.207 88.6192ZM115.445 89.939L117.66 91.8622L117.216 92.6313L115.142 90.4638L115.445 89.939Z" fill="#BBBBBB"/>
<g opacity="0.2">
<path d="M105.08 313.23C103.191 326.517 106.935 337.898 117.776 346.189C129.135 354.935 141.805 355.999 154.774 350.047C176.979 339.738 183.396 308.593 167.973 288.749C162.231 281.37 154.464 276.417 147.947 269.841C147.748 269.102 147.347 268.714 146.946 268.326C151.78 268.616 156.563 268.721 161.37 267.433C155.29 260.641 152.425 251.798 148.415 243.857C140.313 227.302 143.496 228.827 126.901 234.561C124.363 235.44 121.991 236.571 119.501 237.634C118.722 235.465 118.01 233.179 117.416 230.96C119.08 230.514 120.793 230.253 122.457 229.808C135.43 226.827 143.043 221.22 140.96 206.422C140.276 201.651 141.978 196.538 142.823 191.556C143.613 187.481 142.328 185.645 138.032 185.508C130.159 185.339 122.323 184.566 114.351 184.026C114.455 183.305 114.492 182.701 114.596 181.98C114.65 181.073 114.655 179.982 114.339 179.175C122.126 179.764 129.98 180.235 137.731 181.428C144.827 182.399 147.34 179.943 149.483 173.523C153.365 161.386 158.671 149.76 165.785 139.333C168.505 135.434 167.405 133.549 164.647 131.018C154.816 122.06 145.17 113.053 135.339 104.095C134.735 104.059 134.248 104.091 133.693 104.239C120.372 125.147 110.116 147.512 104.301 171.66C97.2729 166.509 90.4978 161.19 82.9287 156.977C80.1157 155.353 77.0187 153.408 74.1863 156.149C71.7417 158.488 73.7608 161.217 74.8918 163.589C74.9909 163.958 74.9051 164.378 74.9002 165.469C70.874 164.863 66.2617 163.92 64.1772 168.342C62.0927 172.765 66.1587 175.737 67.9567 179.119C65.4444 181.576 58.7175 180.505 61.006 186.827C62.4656 190.796 67.6869 190.685 70.0891 194.103C56.4889 198.441 55.1621 202.363 64.1496 212.24C61.3401 213.588 57.8093 214.831 58.498 218.51C59.1867 222.19 62.9108 222.777 65.7601 223.797C75.3133 227.281 84.7988 230.882 94.4559 233.645C99.1672 234.958 100.298 237.33 100.649 241.596C101.889 253.252 103.617 264.876 107.563 275.906C111.145 285.944 112.345 295.233 106.796 304.844C105.813 307.089 105.496 310.344 105.08 313.23ZM107.404 323.01C111.451 315.189 116.812 313.752 123.02 318.43C113.952 318.977 113.952 318.977 107.404 323.01ZM152.6 325.662C157.004 328.049 158.162 331.999 155.892 336.471C153.709 340.524 150.313 341.533 146.261 339.349C141.739 336.895 141.186 332.981 142.58 328.942C145.269 324.555 148.664 323.546 152.6 325.662Z" fill="white"/>
<path d="M235.855 90.2398C226.692 93.3886 226.489 93.7402 230.395 102.403C234.301 111.066 238.645 119.512 241.929 128.441C244.069 134.208 247.82 136.374 253.695 136.484C257.505 136.652 261.554 135.864 265.07 137.894C264.418 118.452 258.251 100.983 246.637 85.3692C243.953 88.6643 239.57 88.947 235.855 90.2398Z" fill="white"/>
<path d="M256.336 143.01C247.999 141.479 241.19 143.799 235.705 150.321C234.727 151.475 233.495 152.796 232.183 153.445C220.557 159.235 221.284 169.344 222.53 179.909C222.885 183.083 224.539 184.819 227.321 185.957C233.236 188.434 239.101 190.726 245.084 193.086C248.1 194.359 251.386 195.162 253.609 197.539C262.348 180.237 265.988 162.022 265.083 142.747C262.274 144.094 259.221 143.426 256.336 143.01Z" fill="white"/>
<path d="M227.508 192.939C222.667 190.769 218.284 191.052 214.522 195.131C213.155 196.686 211.622 197.989 209.971 199.224C204.397 203.194 202.646 208.122 205.052 214.512C206.196 217.673 206.348 221.199 206.938 224.508C207.937 230.086 210.014 234.88 215.036 238.092C216.961 239.359 219.003 240.695 218.673 243.161C232.807 231.943 243.931 218.361 251.709 201.911C250.415 202.257 248.941 201.563 247.701 201.003C240.88 198.471 234.126 195.823 227.508 192.939Z" fill="white"/>
<path d="M199.614 240.442C189.855 245.435 179.898 249.688 169.558 253.252C164.548 254.891 160.377 256.702 164.361 263.066C165.028 264.076 165.239 265.604 164.495 266.894C183.541 264.763 200.312 257.098 215.537 245.885C212.467 245.519 210.448 242.79 208.307 241.085C205.295 238.722 202.928 238.762 199.614 240.442Z" fill="white"/>
<path d="M166.302 128.692C169.111 131.407 170.449 132.337 173.404 128.573C181.036 118.601 189.705 109.541 199.911 102.15C202.892 99.9643 203.253 97.985 201.573 94.6705C196.981 85.2995 192.574 75.8791 188.051 66.391C188.623 65.9403 189.128 65.6068 189.818 65.2238C194.983 74.144 198.718 83.6453 203.007 92.9981C205.053 97.3047 206.491 98.6038 211.37 96.1074C222.373 90.5831 233.976 86.1861 246.074 83.638C241.739 77.0717 236.005 71.5735 230.574 66.0935C232.776 61.7386 235.212 57.5191 237.062 52.9612C238.371 49.341 238.372 45.2785 234.387 42.9777C230.05 40.4739 226.632 42.876 224.232 46.4914C221.696 50.3412 219.445 54.5111 217.262 58.5639C212.298 57.4171 207.316 56.5723 202.415 56.3994C202.433 56.0973 202.568 55.8629 202.537 55.3759C194.789 46.0581 189.197 35.1719 182.342 25.1195C180.557 22.5263 179.228 19.4147 175.333 19.666C171.184 20.084 172.459 24.1018 170.988 26.3783C160.836 21.767 158.243 23.5517 157.955 35.4189C155.101 35.4902 151.842 32.2022 149.491 36.0024C147.412 39.3338 149.277 42.5988 150.489 45.6427C150.805 46.4499 151.237 47.3247 151.62 48.0147C153.635 51.8344 154.63 54.4408 148.214 55.2684C139.412 56.4379 138.202 60.4278 143.593 67.6032C142.483 67.9004 141.491 68.2653 140.382 68.5625C130.701 71.2557 129.871 72.9643 135.256 81.2308C137.14 84.1937 135.241 84.5042 133.658 85.6219C131.201 87.1722 128.373 88.8216 129.247 92.4515C130.102 96.3835 133.659 96.7183 136.662 97.2017C137.384 97.3056 138.222 97.4772 138.944 97.5812C138.082 98.8028 137.22 100.024 136.408 101.431" fill="white"/>
<path d="M163.541 149.446C158.528 159.211 152.884 171.423 149.25 184.485C148.243 188.123 148.757 189.67 152.697 190.694C166.917 194.216 180.866 198.206 195.019 201.845C199.798 203.041 217.973 189.155 217.893 184.421C217.737 177.923 217.162 171.34 217.007 164.843C216.985 162.174 215.547 160.875 213.505 159.539C205.657 153.914 197.741 148.407 190.028 142.547C174.251 130.625 174.251 130.625 163.541 149.446Z" fill="white"/>
<path d="M222.488 155.348C226.349 151.639 230.358 148.484 234.552 145.28C237.921 142.692 241.345 139.199 239.132 134.64C233.676 123.519 228.404 112.349 223.569 100.963C221.393 95.7994 218.742 95.519 214.251 97.6142C200.289 103.931 190.069 114.596 179.947 125.63C177.552 128.155 177.962 130.423 180.757 132.349C191.382 140.202 202.191 148.006 212.532 155.539C216.192 159.215 219.083 158.54 222.488 155.348Z" fill="white"/>
<path d="M202.986 229.729C201.572 222.974 199.924 216.084 198.695 209.28C198.056 205.785 196.181 204.703 192.894 203.899C179.63 200.617 166.366 197.335 153.138 193.448C147.89 191.981 146.943 193.622 146.049 198.419C142.778 216.535 146.029 233.102 155.88 248.791C157.646 251.686 159.157 251.777 161.696 250.899C174.777 246.105 187.81 241.127 200.31 234.904C201.253 234.355 202.245 233.99 203.372 233.39C203.278 231.93 203.283 230.838 202.986 229.729Z" fill="white"/>
</g>
<path fill-rule="evenodd" clip-rule="evenodd" d="M324.406 306.214L183.258 302.778L192.927 273.324L190.399 272.494L180.172 303.649L166.68 344.752C167.547 344.871 168.408 345.115 169.237 345.493L182.392 305.418L323.909 308.863C323.942 307.974 324.105 307.081 324.406 306.214ZM330.508 318.011L293.932 402.487L174.474 355.486C174.319 356.346 174.037 357.196 173.623 358.01L294.154 405.434L295.351 405.905L295.862 404.725L333.25 318.374C332.335 318.393 331.41 318.275 330.508 318.011ZM161.046 361.916C161.848 362.353 162.689 362.659 163.543 362.839L153.948 392.067L151.421 391.237L161.046 361.916Z" fill="#BBBBBB"/>
<circle cx="166.682" cy="352.925" r="4.79084" transform="rotate(120 166.682 352.925)" fill="#BBBBBB"/>
<circle cx="194.85" cy="264.786" r="4.79084" transform="rotate(120 194.85 264.786)" fill="#BBBBBB"/>
<circle cx="333.498" cy="309.456" r="4.79084" transform="rotate(120 333.498 309.456)" fill="#BBBBBB"/>
<path d="M320.529 418.256L302.666 414.459L293.534 430.275L291.625 412.112L273.762 408.315L290.446 400.887L288.537 382.724L300.757 396.296L317.441 388.868L308.309 404.684L320.529 418.256Z" fill="white"/>
<path d="M195.469 312.646L185.102 310.443L179.803 319.621L178.695 309.081L168.329 306.877L178.011 302.567L176.903 292.026L183.994 299.902L193.677 295.592L188.377 304.77L195.469 312.646Z" fill="white"/>
<path d="M165.219 395.478L156.891 396.104L154.912 404.218L151.743 396.491L143.415 397.116L149.785 391.715L146.616 383.987L153.722 388.376L160.092 382.975L158.113 391.089L165.219 395.478Z" fill="white"/>
</svg>
