<svg width="558" height="32" viewBox="0 0 558 32" fill="none" xmlns="http://www.w3.org/2000/svg">
<path d="M524.84 14.3861C523.694 14.3861 522.765 15.3151 522.765 16.4611C522.765 17.6071 523.694 18.5361 524.84 18.5361V14.3861ZM557.307 17.9283C558.117 17.118 558.117 15.8042 557.307 14.9938L544.102 1.78859C543.292 0.978253 541.978 0.978253 541.167 1.78859C540.357 2.59893 540.357 3.91275 541.167 4.72309L552.905 16.4611L541.167 28.199C540.357 29.0094 540.357 30.3232 541.167 31.1335C541.978 31.9439 543.292 31.9439 544.102 31.1335L557.307 17.9283ZM524.84 18.5361H555.84V14.3861H524.84V18.5361Z" fill="white"/>
<path d="M33.6274 17.5361C34.7734 17.5361 35.7024 16.6071 35.7024 15.4611C35.7024 14.3151 34.7734 13.3861 33.6274 13.3861L33.6274 17.5361ZM1.16019 13.9938C0.349857 14.8042 0.349857 16.118 1.16019 16.9283L14.3654 30.1335C15.1758 30.9439 16.4896 30.9439 17.2999 30.1335C18.1102 29.3232 18.1102 28.0094 17.2999 27.199L5.56194 15.4611L17.2999 3.72309C18.1102 2.91275 18.1102 1.59893 17.2999 0.788593C16.4896 -0.0217451 15.1758 -0.021745 14.3654 0.788593L1.16019 13.9938ZM33.6274 13.3861L2.62744 13.3861L2.62744 17.5361L33.6274 17.5361L33.6274 13.3861Z" fill="white"/>
</svg>
