<svg width="409" height="353" viewBox="0 0 409 353" fill="none" xmlns="http://www.w3.org/2000/svg">
<g opacity="0.2">
<path d="M70.9121 311.277L97.3221 336.118" stroke="white" stroke-width="1.56891"/>
<path d="M125.824 257.934L152.234 282.775" stroke="white" stroke-width="1.56891"/>
<path d="M125.035 252.604C127.073 250.625 130.32 250.634 132.345 252.627L156.374 276.256C158.423 278.271 158.463 281.564 156.461 283.627L152.779 287.419C152.009 288.212 150.782 288.343 149.862 287.73C148.959 287.128 147.758 287.242 146.983 288.002L93.8445 340.156C92.7468 341.233 92.7666 343.008 93.8884 344.06C95.036 345.136 95.0271 346.961 93.8689 348.026L89.9568 351.621C87.9237 353.489 84.7885 353.455 82.7966 351.543L57.2908 327.057C55.2615 325.109 55.1378 321.904 57.0105 319.804L60.6326 315.743C61.5288 314.738 63.0858 314.693 64.0378 315.645C64.9483 316.556 66.4229 316.561 67.3396 315.657L121.369 262.368C122.217 261.531 122.164 260.147 121.255 259.378C120.341 258.604 120.293 257.211 121.152 256.377L125.035 252.604ZM205.523 71.0475C251.562 26.3819 318.149 20.3374 354.25 57.5475C390.35 94.7578 382.294 161.132 336.256 205.798C313.942 227.446 286.801 240.021 260.643 242.997C232.96 247.96 192.079 252.465 162.321 266.75C160.332 267.704 157.952 267.394 156.332 265.897L141.694 252.372C139.788 250.61 139.453 247.717 140.663 245.421C146.757 233.858 157.368 205.244 165.052 156.099C166.335 126.83 180.168 95.6465 205.523 71.0475ZM341.344 70.0681C310.832 38.6182 254.553 43.7259 215.641 81.4772C176.73 119.229 169.921 175.328 200.433 206.778C230.946 238.228 287.225 233.119 326.136 195.368C365.048 157.617 371.857 101.518 341.344 70.0681Z" fill="white"/>
<path d="M314.878 47.1766L171.061 189.948" stroke="white" stroke-width="7.84455"/>
<path d="M340.242 66.5266L196.425 209.298" stroke="white" stroke-width="7.84455"/>
<path d="M369.528 87.9684L225.711 230.739" stroke="white" stroke-width="7.84455"/>
<path d="M369.528 131.898L265.457 236.492" stroke="white" stroke-width="7.84455"/>
<path d="M275.394 42.9929L171.323 147.587" stroke="white" stroke-width="7.84455"/>
<path d="M369.528 128.237L282.192 42.9929" stroke="white" stroke-width="7.84455"/>
<path d="M258.658 236.492L171.322 151.248" stroke="white" stroke-width="7.84455"/>
<path d="M302.588 226.555L188.057 113.071" stroke="white" stroke-width="7.84455"/>
<path d="M335.012 203.022L211.591 80.1238" stroke="white" stroke-width="7.84455"/>
<path d="M354.885 170.075L236.171 51.3604" stroke="white" stroke-width="7.84455"/>
<path d="M130.234 174.977C122.228 186.699 106.235 189.712 94.5125 181.706C84.7926 175.067 81.0617 162.937 84.6352 152.303L32.6333 69.3741C35.4945 65.3564 42.228 57.9148 49.2624 55.4346L78.1239 119.455L83.3784 117.086L54.6748 53.418C60.3452 48.6291 71.6003 41.7603 82.7283 42.6775L96.5453 113.464L102.202 112.36L88.5531 42.4362C95.6679 37.8956 109.297 32.5505 120.354 38.6174L116.14 108.255L121.893 108.604L125.971 41.1971C132.804 40.4926 144.818 41.1199 148.948 48.4605L130.065 145.728C136.025 154.238 136.44 165.891 130.234 174.977Z" fill="white"/>
<path d="M136.667 110.993C121.915 107.524 89.2181 108.735 67.5879 124.669" stroke="white" stroke-width="5.76299"/>
</g>
<g filter="url(#filter0_f_31_578)">
<path d="M306.439 72.0117L319.76 87.1176L338.243 79.1172L327.992 96.4536L341.313 111.56L321.657 107.168L311.407 124.504L309.509 104.454L289.854 100.063L308.337 92.0621L306.439 72.0117Z" fill="white"/>
<path d="M93.5383 302.399L96.629 310.973L105.739 310.683L98.5391 316.272L101.63 324.846L94.0895 319.726L86.89 325.315L89.4295 316.562L81.8893 311.442L90.9989 311.152L93.5383 302.399Z" fill="white"/>
<path d="M127.227 69.4013L117.267 86.7129L130.653 101.535L111.111 97.412L101.151 114.724L99.0335 94.8638L79.4913 90.7405L97.7248 82.5897L95.6073 62.7298L108.994 77.5521L127.227 69.4013Z" fill="white"/>
<path d="M125.581 282.039C126.25 282.792 127.027 283.447 127.89 283.977L97.3184 313.945C96.6999 313.154 95.969 312.455 95.1475 311.874L125.581 282.039ZM318.05 97.5713L142.081 270.066C141.568 269.192 140.93 268.401 140.19 267.718L315.95 95.4287L318.05 97.5713ZM133.905 265.023C133.686 265.009 133.466 265 133.243 265C132.441 265 131.661 265.094 130.912 265.269L106.014 82.2021L108.986 81.7979L133.905 265.023Z" fill="white"/>
<circle cx="133.217" cy="275.217" r="5.21686" fill="white"/>
</g>
<path d="M306.439 72.0117L319.76 87.1176L338.243 79.1172L327.992 96.4536L341.313 111.56L321.657 107.168L311.407 124.504L309.509 104.454L289.854 100.063L308.337 92.0621L306.439 72.0117Z" fill="white"/>
<path d="M127.227 69.4013L117.267 86.7129L130.653 101.535L111.111 97.412L101.151 114.724L99.0335 94.8638L79.4913 90.7405L97.7248 82.5897L95.6073 62.7298L108.994 77.5521L127.227 69.4013Z" fill="white"/>
<path d="M93.5383 302.399L96.629 310.973L105.739 310.683L98.5391 316.272L101.63 324.846L94.0895 319.726L86.89 325.315L89.4295 316.562L81.8893 311.442L90.9989 311.152L93.5383 302.399Z" fill="white"/>
<path d="M125.581 282.039C126.25 282.792 127.027 283.447 127.89 283.977L97.3184 313.945C96.6999 313.154 95.969 312.455 95.1475 311.874L125.581 282.039ZM318.05 97.5713L142.081 270.066C141.568 269.192 140.93 268.401 140.19 267.718L315.95 95.4287L318.05 97.5713ZM133.905 265.023C133.686 265.009 133.466 265 133.243 265C132.441 265 131.661 265.094 130.912 265.269L106.014 82.2021L108.986 81.7979L133.905 265.023Z" fill="white"/>
<circle cx="133.217" cy="275.217" r="5.21686" fill="white"/>
<g filter="url(#filter1_f_31_578)">
<path d="M139.351 288.877L158.281 288.877L158.281 290.916L158.115 290.916C157.033 290.666 156.534 290.625 154.329 290.625L145.8 290.625L145.8 316.253L148.546 316.253C153.33 316.253 155.702 312.342 155.702 308.431C155.702 304.396 153.164 300.318 148.047 300.318L147.464 300.318L147.464 299.07C148.463 298.945 149.42 298.862 150.418 298.862C156.367 298.862 161.859 301.4 161.859 307.724C161.859 314.172 157.324 318 149.628 318L139.351 318L139.351 317.834C139.518 316.752 139.559 316.253 139.559 313.632L139.559 293.246C139.559 290.625 139.518 290.125 139.351 289.044L139.351 288.877ZM175.667 288.877C177.164 288.877 179.203 288.586 180.285 287.712L189.479 313.632C190.686 317.085 190.977 317.584 191.102 317.834L191.102 318L183.696 318L183.696 317.834C183.696 317.584 184.029 317.085 182.823 313.632L181.866 310.844L169.052 310.844L168.012 313.632C166.68 317.085 166.888 317.584 166.888 317.834L166.888 318L164.267 318L164.267 317.834C164.392 317.584 164.725 317.085 166.056 313.632L175.667 288.877ZM169.717 309.097L181.242 309.097L175.75 293.287L169.717 309.097ZM203.484 288.877C204.981 288.877 207.02 288.586 208.102 287.712L218.17 316.253L221.082 316.253L221.082 323.325L220 323.325C219.626 318.666 218.96 318 215.174 318L195.995 318C192.209 318 191.543 318.666 191.169 323.325L190.087 323.325L190.087 316.253L192.875 316.253L203.484 288.877ZM194.788 316.253L211.555 316.253L203.567 293.287L194.788 316.253ZM223.57 288.877L226.066 288.877L238.548 308.889L251.445 288.877L253.941 288.877C253.775 289.959 253.733 290.458 253.733 292.663L253.733 313.632C253.733 316.253 253.775 316.752 253.941 317.834L253.941 318L247.201 318L247.201 317.834C247.451 316.752 247.492 316.253 247.492 313.632L247.492 298.238L235.843 316.253L235.802 316.253L225.525 299.861L225.526 313.632C225.526 316.253 225.567 316.752 225.817 317.834L225.817 318L223.57 318L223.57 317.834C223.737 316.752 223.778 316.253 223.778 313.632L223.778 292.663C223.778 290.458 223.737 289.959 223.57 288.877ZM260.3 288.877L267.04 288.877L267.04 289.044C266.79 290.125 266.749 290.625 266.749 293.246L266.749 309.346L284.638 288.877L285.97 288.877C285.637 290.125 285.637 290.749 285.637 297.198L285.637 313.632C285.637 316.253 285.678 316.752 285.845 317.834L285.845 318L279.105 318L279.105 317.834C279.355 316.752 279.396 316.253 279.396 313.632L279.396 297.531L261.506 318L260.175 318C260.508 316.752 260.508 316.128 260.508 314.048L260.508 293.246C260.508 290.625 260.466 290.125 260.3 289.044L260.3 288.877ZM310.036 288.877L316.776 288.877L316.776 289.044C316.61 290.125 316.568 290.625 316.568 293.246L316.568 313.632C316.568 316.253 316.61 316.752 316.776 317.834L316.776 318L310.036 318L310.036 317.834C310.286 316.752 310.327 316.253 310.327 313.632L310.327 299.486L298.678 299.486L298.678 313.632C298.678 316.253 298.72 316.752 298.97 317.834L298.97 318L292.23 318L292.23 317.834C292.396 316.752 292.438 316.253 292.438 313.632L292.438 293.246C292.438 290.625 292.396 290.125 292.23 289.044L292.23 288.877L298.969 288.877L298.969 289.044C298.72 290.125 298.678 290.625 298.678 293.246L298.678 297.739L310.327 297.739L310.327 293.246C310.327 290.625 310.286 290.125 310.036 289.044L310.036 288.877ZM322.401 288.877L341.538 288.877L341.538 290.916L341.372 290.916C340.29 290.666 339.791 290.625 337.586 290.625L335.09 290.625L335.09 313.632C335.09 316.169 335.131 316.627 335.339 317.626L335.381 317.834L335.381 318L328.558 318L328.558 317.834L328.6 317.626C328.808 316.627 328.849 316.169 328.849 313.632L328.849 290.625L326.353 290.625C324.148 290.625 323.649 290.666 322.567 290.916L322.401 290.916L322.401 288.877ZM359.844 318.666C351.274 318.666 344.451 311.843 344.451 303.272C344.451 294.702 351.274 287.879 359.844 287.879C368.415 287.879 375.238 294.702 375.238 303.272C375.238 311.843 368.415 318.666 359.844 318.666ZM351.357 303.896C351.357 311.593 354.769 316.918 359.678 316.918C365.71 316.918 368.831 309.596 368.831 302.565C368.831 294.993 365.378 289.626 360.427 289.626C354.477 289.626 351.357 296.907 351.357 303.896ZM398.237 288.877L404.976 288.877L404.976 289.044C404.81 290.125 404.768 290.625 404.768 293.246L404.768 313.632C404.768 316.253 404.81 316.752 404.976 317.834L404.976 318L398.237 318L398.237 317.834C398.486 316.752 398.528 316.253 398.528 313.632L398.528 299.486L386.879 299.486L386.879 313.632C386.879 316.253 386.92 316.752 387.17 317.834L387.17 318L380.43 318L380.43 317.834C380.596 316.752 380.638 316.253 380.638 313.632L380.638 293.246C380.638 290.625 380.596 290.125 380.43 289.044L380.43 288.877L387.17 288.877L387.17 289.044C386.92 290.125 386.879 290.625 386.879 293.246L386.879 297.739L398.528 297.739L398.528 293.246C398.528 290.625 398.486 290.125 398.237 289.044L398.237 288.877Z" fill="#F6F1FF"/>
</g>
<path d="M139.351 288.877L158.281 288.877L158.281 290.916L158.115 290.916C157.033 290.666 156.534 290.625 154.329 290.625L145.8 290.625L145.8 316.253L148.546 316.253C153.33 316.253 155.702 312.342 155.702 308.431C155.702 304.396 153.164 300.318 148.047 300.318L147.464 300.318L147.464 299.07C148.463 298.945 149.42 298.862 150.418 298.862C156.367 298.862 161.859 301.4 161.859 307.724C161.859 314.172 157.324 318 149.628 318L139.351 318L139.351 317.834C139.518 316.752 139.559 316.253 139.559 313.632L139.559 293.246C139.559 290.625 139.518 290.125 139.351 289.044L139.351 288.877ZM175.667 288.877C177.164 288.877 179.203 288.586 180.285 287.712L189.479 313.632C190.686 317.085 190.977 317.584 191.102 317.834L191.102 318L183.696 318L183.696 317.834C183.696 317.584 184.029 317.085 182.823 313.632L181.866 310.844L169.052 310.844L168.012 313.632C166.68 317.085 166.888 317.584 166.888 317.834L166.888 318L164.267 318L164.267 317.834C164.392 317.584 164.725 317.085 166.056 313.632L175.667 288.877ZM169.717 309.097L181.242 309.097L175.75 293.287L169.717 309.097ZM203.484 288.877C204.981 288.877 207.02 288.586 208.102 287.712L218.17 316.253L221.082 316.253L221.082 323.325L220 323.325C219.626 318.666 218.96 318 215.174 318L195.995 318C192.209 318 191.543 318.666 191.169 323.325L190.087 323.325L190.087 316.253L192.875 316.253L203.484 288.877ZM194.788 316.253L211.555 316.253L203.567 293.287L194.788 316.253ZM223.57 288.877L226.066 288.877L238.548 308.889L251.445 288.877L253.941 288.877C253.775 289.959 253.733 290.458 253.733 292.663L253.733 313.632C253.733 316.253 253.775 316.752 253.941 317.834L253.941 318L247.201 318L247.201 317.834C247.451 316.752 247.492 316.253 247.492 313.632L247.492 298.238L235.843 316.253L235.802 316.253L225.525 299.861L225.526 313.632C225.526 316.253 225.567 316.752 225.817 317.834L225.817 318L223.57 318L223.57 317.834C223.737 316.752 223.778 316.253 223.778 313.632L223.778 292.663C223.778 290.458 223.737 289.959 223.57 288.877ZM260.3 288.877L267.04 288.877L267.04 289.044C266.79 290.125 266.749 290.625 266.749 293.246L266.749 309.346L284.638 288.877L285.97 288.877C285.637 290.125 285.637 290.749 285.637 297.198L285.637 313.632C285.637 316.253 285.678 316.752 285.845 317.834L285.845 318L279.105 318L279.105 317.834C279.355 316.752 279.396 316.253 279.396 313.632L279.396 297.531L261.506 318L260.175 318C260.508 316.752 260.508 316.128 260.508 314.048L260.508 293.246C260.508 290.625 260.466 290.125 260.3 289.044L260.3 288.877ZM310.036 288.877L316.776 288.877L316.776 289.044C316.61 290.125 316.568 290.625 316.568 293.246L316.568 313.632C316.568 316.253 316.61 316.752 316.776 317.834L316.776 318L310.036 318L310.036 317.834C310.286 316.752 310.327 316.253 310.327 313.632L310.327 299.486L298.678 299.486L298.678 313.632C298.678 316.253 298.72 316.752 298.97 317.834L298.97 318L292.23 318L292.23 317.834C292.396 316.752 292.438 316.253 292.438 313.632L292.438 293.246C292.438 290.625 292.396 290.125 292.23 289.044L292.23 288.877L298.969 288.877L298.969 289.044C298.72 290.125 298.678 290.625 298.678 293.246L298.678 297.739L310.327 297.739L310.327 293.246C310.327 290.625 310.286 290.125 310.036 289.044L310.036 288.877ZM322.401 288.877L341.538 288.877L341.538 290.916L341.372 290.916C340.29 290.666 339.791 290.625 337.586 290.625L335.09 290.625L335.09 313.632C335.09 316.169 335.131 316.627 335.339 317.626L335.381 317.834L335.381 318L328.558 318L328.558 317.834L328.6 317.626C328.808 316.627 328.849 316.169 328.849 313.632L328.849 290.625L326.353 290.625C324.148 290.625 323.649 290.666 322.567 290.916L322.401 290.916L322.401 288.877ZM359.844 318.666C351.274 318.666 344.451 311.843 344.451 303.272C344.451 294.702 351.274 287.879 359.844 287.879C368.415 287.879 375.238 294.702 375.238 303.272C375.238 311.843 368.415 318.666 359.844 318.666ZM351.357 303.896C351.357 311.593 354.769 316.918 359.678 316.918C365.71 316.918 368.831 309.596 368.831 302.565C368.831 294.993 365.378 289.626 360.427 289.626C354.477 289.626 351.357 296.907 351.357 303.896ZM398.237 288.877L404.976 288.877L404.976 289.044C404.81 290.125 404.768 290.625 404.768 293.246L404.768 313.632C404.768 316.253 404.81 316.752 404.976 317.834L404.976 318L398.237 318L398.237 317.834C398.486 316.752 398.528 316.253 398.528 313.632L398.528 299.486L386.879 299.486L386.879 313.632C386.879 316.253 386.92 316.752 387.17 317.834L387.17 318L380.43 318L380.43 317.834C380.596 316.752 380.638 316.253 380.638 313.632L380.638 293.246C380.638 290.625 380.596 290.125 380.43 289.044L380.43 288.877L387.17 288.877L387.17 289.044C386.92 290.125 386.879 290.625 386.879 293.246L386.879 297.739L398.528 297.739L398.528 293.246C398.528 290.625 398.486 290.125 398.237 289.044L398.237 288.877Z" fill="#F6F1FF"/>
<path opacity="0.5" d="M195.436 351.589L195.436 338.761L192.711 340.4L192.711 338.741L195.436 337.113L196.934 337.113L196.934 351.589L195.436 351.589ZM205.823 351.89C203.571 351.89 201.722 350.392 201.149 348.281L202.566 347.899C202.958 349.467 204.376 350.443 205.863 350.443C207.794 350.443 209.271 348.884 209.271 347.035C209.271 345.125 207.693 343.637 205.863 343.637C204.496 343.637 203.501 344.3 202.908 345.205L201.561 344.642L202.003 337.113L209.734 337.113L209.734 338.53L203.35 338.53L203.059 343.345C203.853 342.652 204.898 342.25 205.994 342.25C208.658 342.25 210.749 344.361 210.749 347.035C210.749 349.689 208.507 351.89 205.823 351.89ZM218.231 351.89C215.98 351.89 214.13 350.392 213.557 348.281L214.974 347.899C215.366 349.467 216.784 350.443 218.272 350.443C220.202 350.443 221.68 348.884 221.68 347.035C221.68 345.125 220.101 343.637 218.272 343.637C216.904 343.637 215.909 344.3 215.316 345.205L213.969 344.642L214.411 337.113L222.142 337.113L222.142 338.53L215.758 338.53L215.467 343.345C216.261 342.652 217.307 342.25 218.402 342.25C221.066 342.25 223.157 344.361 223.157 347.035C223.157 349.689 220.916 351.89 218.231 351.89ZM229.182 344.049C227.191 344.049 225.563 342.441 225.563 340.43C225.563 338.46 227.252 336.811 229.182 336.811C231.172 336.811 232.801 338.419 232.801 340.43C232.801 342.441 231.172 344.049 229.182 344.049ZM229.182 342.712C230.418 342.712 231.464 341.666 231.464 340.43C231.464 339.193 230.418 338.148 229.182 338.148C227.945 338.148 226.9 339.193 226.9 340.43C226.9 341.666 227.945 342.712 229.182 342.712ZM240.948 351.89C238.264 351.89 236.223 349.849 236.223 347.165L236.223 341.536C236.223 338.852 238.264 336.811 240.948 336.811C243.632 336.811 245.673 338.852 245.673 341.536L245.673 347.165C245.673 349.849 243.632 351.89 240.948 351.89ZM240.948 350.463C242.727 350.463 244.175 349.015 244.175 347.236L244.175 341.465C244.175 339.676 242.727 338.228 240.948 338.228C239.168 338.228 237.721 339.676 237.721 341.465L237.721 347.236C237.721 349.015 239.168 350.463 240.948 350.463ZM254.023 351.89C251.339 351.89 249.299 349.849 249.299 347.165L249.299 341.536C249.299 338.852 251.339 336.811 254.023 336.811C256.708 336.811 258.748 338.852 258.748 341.536L258.748 347.165C258.748 349.849 256.708 351.89 254.023 351.89ZM254.023 350.463C255.803 350.463 257.25 349.015 257.25 347.236L257.25 341.465C257.25 339.676 255.803 338.228 254.023 338.228C252.244 338.228 250.796 339.676 250.796 341.465L250.796 347.236C250.796 349.015 252.244 350.463 254.023 350.463ZM263.239 336.982L264.727 336.982L263.319 341.807L262.304 341.807L263.239 336.982ZM265.792 336.982L267.28 336.982L265.873 341.807L264.857 341.807L265.792 336.982ZM275.288 345.889L275.288 344.622L283.732 344.622L283.732 345.889L275.288 345.889ZM295.87 351.88C293.719 351.88 291.99 350.674 291.377 348.713L292.784 348.291C293.267 349.729 294.463 350.483 295.85 350.453C297.78 350.412 298.957 349.116 298.957 347.175C298.957 345.205 297.7 343.898 295.83 343.898C295.307 343.898 294.694 344.059 294.202 344.3L293.458 343.124L298.424 338.53L291.95 338.53L291.95 337.113L300.314 337.113L300.314 338.55L296.082 342.601C298.705 342.581 300.485 344.471 300.485 347.175C300.485 349.96 298.534 351.88 295.87 351.88ZM308.622 351.89C305.938 351.89 303.897 349.849 303.897 347.165L303.897 341.536C303.897 338.852 305.938 336.811 308.622 336.811C311.306 336.811 313.347 338.852 313.347 341.536L313.347 347.165C313.347 349.849 311.306 351.89 308.622 351.89ZM308.622 350.463C310.401 350.463 311.849 349.015 311.849 347.236L311.849 341.465C311.849 339.676 310.401 338.228 308.622 338.228C306.843 338.228 305.395 339.676 305.395 341.465L305.395 347.236C305.395 349.015 306.843 350.463 308.622 350.463ZM319.788 344.049C317.797 344.049 316.169 342.441 316.169 340.43C316.169 338.46 317.858 336.811 319.788 336.811C321.778 336.811 323.407 338.419 323.407 340.43C323.407 342.441 321.778 344.049 319.788 344.049ZM319.788 342.712C321.024 342.712 322.07 341.666 322.07 340.43C322.07 339.193 321.024 338.148 319.788 338.148C318.551 338.148 317.506 339.193 317.506 340.43C317.506 341.666 318.551 342.712 319.788 342.712ZM331.554 351.89C328.869 351.89 326.829 349.849 326.829 347.165L326.829 341.536C326.829 338.852 328.869 336.811 331.554 336.811C334.238 336.811 336.278 338.852 336.278 341.536L336.278 347.165C336.278 349.849 334.238 351.89 331.554 351.89ZM331.554 350.463C333.333 350.463 334.781 349.015 334.781 347.236L334.781 341.465C334.781 339.676 333.333 338.228 331.554 338.228C329.774 338.228 328.327 339.676 328.327 341.465L328.327 347.236C328.327 349.015 329.774 350.463 331.554 350.463ZM344.629 351.89C341.945 351.89 339.904 349.849 339.904 347.165L339.904 341.536C339.904 338.852 341.945 336.811 344.629 336.811C347.313 336.811 349.354 338.852 349.354 341.536L349.354 347.165C349.354 349.849 347.313 351.89 344.629 351.89ZM344.629 350.463C346.409 350.463 347.856 349.015 347.856 347.236L347.856 341.465C347.856 339.676 346.409 338.228 344.629 338.228C342.85 338.228 341.402 339.676 341.402 341.465L341.402 347.236C341.402 349.015 342.85 350.463 344.629 350.463ZM353.845 336.982L355.333 336.982L353.925 341.807L352.91 341.807L353.845 336.982ZM356.398 336.982L357.886 336.982L356.479 341.807L355.463 341.807L356.398 336.982Z" fill="#F6F1FF"/>
<defs>
<filter id="filter0_f_31_578" x="69.4912" y="52.7297" width="281.821" height="282.586" filterUnits="userSpaceOnUse" color-interpolation-filters="sRGB">
<feFlood flood-opacity="0" result="BackgroundImageFix"/>
<feBlend mode="normal" in="SourceGraphic" in2="BackgroundImageFix" result="shape"/>
<feGaussianBlur stdDeviation="5" result="effect1_foregroundBlur_31_578"/>
</filter>
<filter id="filter1_f_31_578" x="135.351" y="283.712" width="273.625" height="43.6131" filterUnits="userSpaceOnUse" color-interpolation-filters="sRGB">
<feFlood flood-opacity="0" result="BackgroundImageFix"/>
<feBlend mode="normal" in="SourceGraphic" in2="BackgroundImageFix" result="shape"/>
<feGaussianBlur stdDeviation="2" result="effect1_foregroundBlur_31_578"/>
</filter>
</defs>
</svg>
