<svg width="283" height="259" viewBox="0 0 283 259" fill="none" xmlns="http://www.w3.org/2000/svg">
<g opacity="0.2">
<path d="M52.0156 228.328L71.3879 246.549" stroke="white" stroke-width="1.15083"/>
<path d="M92.2944 189.2L111.667 207.421" stroke="white" stroke-width="1.15083"/>
<path d="M91.7151 185.291C93.2102 183.839 95.5922 183.846 97.0784 185.307L114.703 202.639C116.207 204.118 116.235 206.532 114.767 208.046L112.067 210.828C111.502 211.41 110.602 211.505 109.927 211.055C109.265 210.614 108.383 210.697 107.815 211.255L68.8362 249.512C68.031 250.302 68.0463 251.604 68.8694 252.376C69.7111 253.165 69.7042 254.503 68.8547 255.284L65.9856 257.922C64.4943 259.292 62.1938 259.267 60.7327 257.864L42.0247 239.903C40.5359 238.474 40.444 236.123 41.8176 234.583L44.4749 231.603C45.1322 230.867 46.2746 230.834 46.9729 231.532C47.6408 232.2 48.7223 232.204 49.3948 231.541L89.0266 192.452C89.6096 191.877 89.6121 190.949 89.0608 190.37L88.8245 190.147C88.2704 189.565 88.2768 188.631 88.8674 188.057L91.7151 185.291ZM150.756 52.1151C184.526 19.3519 233.369 14.9183 259.85 42.2127C286.33 69.5072 280.421 118.194 246.651 150.957C230.283 166.837 210.374 176.061 191.187 178.244C170.881 181.885 140.893 185.189 119.066 195.667C117.607 196.367 115.862 196.139 114.673 195.041L103.936 185.12C102.538 183.828 102.291 181.705 103.179 180.021C107.649 171.54 115.432 150.55 121.069 114.502C122.01 93.032 132.158 70.1588 150.756 52.1151ZM250.383 51.3963C228.002 28.3272 186.72 32.0742 158.178 59.7654C129.636 87.4569 124.641 128.606 147.023 151.676C169.404 174.745 210.685 170.998 239.228 143.306C267.77 115.615 272.764 74.4655 250.383 51.3963Z" fill="white"/>
<path d="M230.97 34.6049L125.477 139.33" stroke="white" stroke-width="5.75415"/>
<path d="M249.575 48.7985L144.082 153.524" stroke="white" stroke-width="5.75415"/>
<path d="M271.057 64.5266L165.564 169.252" stroke="white" stroke-width="5.75415"/>
<path d="M271.057 96.7497L194.719 173.472" stroke="white" stroke-width="5.75415"/>
<path d="M202.007 31.5361L125.669 108.258" stroke="white" stroke-width="5.75415"/>
<path d="M271.057 94.0645L206.994 31.5361" stroke="white" stroke-width="5.75415"/>
<path d="M189.732 173.472L125.669 110.943" stroke="white" stroke-width="5.75415"/>
<path d="M221.955 166.183L137.944 82.9398" stroke="white" stroke-width="5.75415"/>
<path d="M245.739 148.921L155.207 58.7723" stroke="white" stroke-width="5.75415"/>
<path d="M260.316 124.753L173.236 37.6738" stroke="white" stroke-width="5.75415"/>
<path d="M95.5296 128.349C89.657 136.948 77.926 139.157 69.3275 133.285C62.1977 128.415 59.4601 119.517 62.0813 111.718L23.9369 50.8877C26.0354 47.9409 30.9745 42.483 36.1342 40.6633L57.3058 87.6222L59.2333 86.7533L61.1602 85.8851L40.1052 39.1831C44.2646 35.6703 52.5204 30.6311 60.683 31.3039L70.8177 83.2284L72.8922 82.8229L74.967 82.4187L64.9563 31.1264C70.1756 27.7959 80.1727 23.8764 88.2827 28.327L85.1916 79.4078L87.3018 79.5353L89.4115 79.6635L92.4041 30.2194C97.4167 29.703 106.228 30.1628 109.257 35.5468L95.4051 106.895C99.777 113.137 100.082 121.684 95.5296 128.349Z" fill="white"/>
<path d="M100.248 81.4158C89.4272 78.8712 65.4433 79.7591 49.5771 91.447" stroke="white" stroke-width="4.22728"/>
</g>
<path d="M224.78 52.8219L234.551 63.9024L248.108 58.0339L240.589 70.7506L250.36 81.8311L235.943 78.6099L228.424 91.3265L227.032 76.619L212.614 73.3978L226.172 67.5293L224.78 52.8219Z" fill="white"/>
<path d="M93.3241 50.9071L86.018 63.6055L95.8372 74.4781L81.5026 71.4536L74.1965 84.152L72.6433 69.5844L58.3087 66.5599L71.6834 60.5811L70.1302 46.0134L79.9494 56.8859L93.3241 50.9071Z" fill="white"/>
<path d="M68.6124 221.816L70.8795 228.105L77.5616 227.893L72.2806 231.992L74.5476 238.282L69.0167 234.526L63.7357 238.626L65.5985 232.205L60.0676 228.449L66.7497 228.237L68.6124 221.816Z" fill="white"/>
<path d="M92.1162 206.881C92.6069 207.434 93.1775 207.914 93.8105 208.303L71.3857 230.285C70.9319 229.704 70.395 229.192 69.792 228.766L92.1162 206.881ZM232.526 70.7844L233.296 71.5705L104.22 198.099C103.843 197.458 103.375 196.877 102.832 196.376L231.756 69.9992L232.526 70.7844ZM98.2217 194.4C98.0615 194.389 97.9001 194.383 97.7373 194.383C97.1487 194.383 96.576 194.452 96.0264 194.58L77.7627 60.2971L78.8535 60.1486L79.9434 60.0002L98.2217 194.4Z" fill="white"/>
<circle cx="97.7175" cy="201.877" r="3.82668" fill="white"/>
<path d="M121.229 218.607L132.526 218.607L132.526 219.823L132.427 219.823C131.781 219.674 131.484 219.649 130.168 219.649L125.077 219.649L125.077 234.945L126.716 234.945C129.572 234.945 130.987 232.611 130.987 230.277C130.987 227.868 129.472 225.435 126.418 225.435L126.071 225.435L126.071 224.69C126.666 224.615 127.238 224.566 127.834 224.566C131.384 224.566 134.662 226.08 134.662 229.855C134.662 233.703 131.955 235.988 127.362 235.988L121.229 235.988L121.229 235.888C121.328 235.243 121.353 234.945 121.353 233.38L121.353 221.214C121.353 219.649 121.328 219.351 121.229 218.706L121.229 218.607ZM142.902 218.607C143.796 218.607 145.013 218.433 145.659 217.911L151.146 233.38C151.866 235.441 152.04 235.739 152.114 235.888L152.114 235.988L147.695 235.988L147.695 235.888C147.695 235.739 147.893 235.441 147.173 233.38L146.602 231.717L138.954 231.717L138.334 233.38C137.539 235.441 137.663 235.739 137.663 235.888L137.663 235.988L136.099 235.988L136.099 235.888C136.173 235.739 136.372 235.441 137.167 233.38L142.902 218.607ZM139.352 230.674L146.23 230.674L142.952 221.239L139.352 230.674ZM159.504 218.607C160.398 218.607 161.615 218.433 162.26 217.911L168.269 234.945L170.007 234.945L170.007 239.166L169.361 239.166C169.138 236.385 168.741 235.988 166.481 235.988L155.035 235.988C152.775 235.988 152.378 236.385 152.154 239.166L151.509 239.166L151.509 234.945L153.172 234.945L159.504 218.607ZM154.315 234.945L164.321 234.945L159.554 221.239L154.315 234.945ZM171.492 218.607L172.982 218.607L180.431 230.55L188.128 218.607L189.618 218.607C189.519 219.252 189.494 219.55 189.494 220.866L189.494 233.38C189.494 234.945 189.519 235.243 189.618 235.888L189.618 235.988L185.595 235.988L185.595 235.888C185.744 235.243 185.769 234.945 185.769 233.38L185.769 224.193L178.817 234.945L178.792 234.945L172.659 225.162L172.659 233.38C172.659 234.945 172.684 235.243 172.833 235.888L172.833 235.988L171.492 235.988L171.492 235.888C171.591 235.243 171.616 234.945 171.616 233.38L171.616 220.866C171.616 219.55 171.591 219.252 171.492 218.607ZM193.413 218.607L197.435 218.607L197.435 218.706C197.287 219.351 197.262 219.649 197.262 221.214L197.262 230.823L207.939 218.607L208.733 218.607C208.534 219.351 208.534 219.724 208.534 223.573L208.535 233.38C208.535 234.945 208.559 235.243 208.659 235.888L208.659 235.988L204.636 235.988L204.636 235.888C204.785 235.243 204.81 234.945 204.81 233.38L204.81 223.771L194.133 235.988L193.339 235.988C193.537 235.243 193.537 234.87 193.537 233.629L193.537 221.214C193.537 219.649 193.512 219.351 193.413 218.706L193.413 218.607ZM223.097 218.607L227.119 218.607L227.119 218.706C227.02 219.351 226.995 219.649 226.995 221.214L226.995 233.38C226.995 234.945 227.02 235.243 227.119 235.888L227.119 235.988L223.097 235.988L223.097 235.888C223.245 235.243 223.27 234.945 223.27 233.38L223.27 224.938L216.318 224.938L216.318 233.38C216.318 234.945 216.343 235.243 216.492 235.888L216.492 235.988L212.469 235.988L212.469 235.888C212.569 235.243 212.593 234.945 212.593 233.38L212.593 221.214C212.593 219.649 212.569 219.351 212.469 218.706L212.469 218.607L216.492 218.607L216.492 218.706C216.343 219.351 216.318 219.649 216.318 221.214L216.318 223.895L223.27 223.895L223.27 221.214C223.27 219.649 223.245 219.351 223.097 218.706L223.097 218.607ZM230.476 218.607L241.898 218.607L241.898 219.823L241.798 219.823C241.153 219.674 240.855 219.649 239.539 219.649L238.049 219.649L238.049 233.38C238.049 234.895 238.074 235.168 238.198 235.764L238.223 235.888L238.223 235.988L234.151 235.988L234.151 235.888L234.176 235.764C234.3 235.168 234.325 234.895 234.325 233.38L234.325 219.649L232.835 219.649C231.519 219.649 231.221 219.674 230.575 219.823L230.476 219.823L230.476 218.607ZM252.823 236.385C247.708 236.385 243.636 232.313 243.636 227.198C243.636 222.083 247.708 218.011 252.823 218.011C257.938 218.011 262.01 222.083 262.01 227.198C262.01 232.313 257.938 236.385 252.823 236.385ZM247.758 227.57C247.758 232.164 249.794 235.342 252.724 235.342C256.324 235.342 258.186 230.972 258.186 226.776C258.186 222.257 256.125 219.053 253.17 219.053C249.62 219.053 247.758 223.399 247.758 227.57ZM275.736 218.606L279.759 218.606L279.759 218.706C279.659 219.351 279.634 219.649 279.634 221.214L279.634 233.38C279.634 234.945 279.659 235.243 279.759 235.888L279.759 235.987L275.736 235.987L275.736 235.888C275.885 235.243 275.91 234.945 275.91 233.38L275.91 224.938L268.958 224.938L268.958 233.38C268.958 234.945 268.982 235.243 269.131 235.888L269.131 235.987L265.109 235.987L265.109 235.888C265.208 235.243 265.233 234.945 265.233 233.38L265.233 221.214C265.233 219.649 265.208 219.351 265.109 218.706L265.109 218.606L269.131 218.606L269.131 218.706C268.982 219.351 268.958 219.649 268.958 221.214L268.958 223.895L275.91 223.895L275.91 221.214C275.91 219.649 275.885 219.351 275.736 218.706L275.736 218.606Z" fill="#F6F1FF"/>
<path opacity="0.5" d="M154.153 256.628L154.153 248.972L152.527 249.95L152.527 248.96L154.153 247.988L155.047 247.988L155.047 256.628L154.153 256.628ZM160.353 256.808C159.009 256.808 157.905 255.914 157.563 254.654L158.409 254.426C158.643 255.362 159.489 255.944 160.377 255.944C161.529 255.944 162.411 255.014 162.411 253.91C162.411 252.77 161.469 251.882 160.377 251.882C159.561 251.882 158.967 252.278 158.613 252.818L157.809 252.482L158.073 247.988L162.687 247.988L162.687 248.834L158.877 248.834L158.703 251.708C159.177 251.294 159.801 251.054 160.455 251.054C162.045 251.054 163.293 252.314 163.293 253.91C163.293 255.494 161.955 256.808 160.353 256.808ZM167.759 256.808C166.415 256.808 165.311 255.914 164.969 254.654L165.815 254.426C166.049 255.362 166.895 255.944 167.783 255.944C168.935 255.944 169.817 255.014 169.817 253.91C169.817 252.77 168.875 251.882 167.783 251.882C166.967 251.882 166.373 252.278 166.019 252.818L165.215 252.482L165.479 247.988L170.093 247.988L170.093 248.834L166.283 248.834L166.109 251.708C166.583 251.294 167.207 251.054 167.861 251.054C169.451 251.054 170.699 252.314 170.699 253.91C170.699 255.494 169.361 256.808 167.759 256.808ZM174.295 252.128C173.107 252.128 172.135 251.168 172.135 249.968C172.135 248.792 173.143 247.808 174.295 247.808C175.483 247.808 176.455 248.768 176.455 249.968C176.455 251.168 175.483 252.128 174.295 252.128ZM174.295 251.33C175.033 251.33 175.657 250.706 175.657 249.968C175.657 249.23 175.033 248.606 174.295 248.606C173.557 248.606 172.933 249.23 172.933 249.968C172.933 250.706 173.557 251.33 174.295 251.33ZM181.317 256.808C179.715 256.808 178.497 255.59 178.497 253.988L178.497 250.628C178.497 249.026 179.715 247.808 181.317 247.808C182.919 247.808 184.137 249.026 184.137 250.628L184.137 253.988C184.137 255.59 182.919 256.808 181.317 256.808ZM181.317 255.956C182.379 255.956 183.243 255.092 183.243 254.03L183.243 250.586C183.243 249.518 182.379 248.654 181.317 248.654C180.255 248.654 179.391 249.518 179.391 250.586L179.391 254.03C179.391 255.092 180.255 255.956 181.317 255.956ZM189.121 256.808C187.519 256.808 186.301 255.59 186.301 253.988L186.301 250.628C186.301 249.026 187.519 247.808 189.121 247.808C190.723 247.808 191.941 249.026 191.941 250.628L191.941 253.988C191.941 255.59 190.723 256.808 189.121 256.808ZM189.121 255.956C190.183 255.956 191.047 255.092 191.047 254.03L191.047 250.586C191.047 249.518 190.183 248.654 189.121 248.654C188.059 248.654 187.195 249.518 187.195 250.586L187.195 254.03C187.195 255.092 188.059 255.956 189.121 255.956ZM194.621 247.91L195.509 247.91L194.669 250.79L194.063 250.79L194.621 247.91ZM196.145 247.91L197.033 247.91L196.193 250.79L195.587 250.79L196.145 247.91ZM201.813 253.226L201.813 252.47L206.853 252.47L206.853 253.226L201.813 253.226ZM214.097 256.802C212.813 256.802 211.781 256.082 211.415 254.912L212.255 254.66C212.543 255.518 213.257 255.968 214.085 255.95C215.237 255.926 215.939 255.152 215.939 253.994C215.939 252.818 215.189 252.038 214.073 252.038C213.761 252.038 213.395 252.134 213.101 252.278L212.657 251.576L215.621 248.834L211.757 248.834L211.757 247.988L216.749 247.988L216.749 248.846L214.223 251.264C215.789 251.252 216.851 252.38 216.851 253.994C216.851 255.656 215.687 256.802 214.097 256.802ZM221.708 256.808C220.106 256.808 218.888 255.59 218.888 253.988L218.888 250.628C218.888 249.026 220.106 247.808 221.708 247.808C223.31 247.808 224.528 249.026 224.528 250.628L224.528 253.988C224.528 255.59 223.31 256.808 221.708 256.808ZM221.708 255.956C222.77 255.956 223.634 255.092 223.634 254.03L223.634 250.586C223.634 249.518 222.77 248.654 221.708 248.654C220.646 248.654 219.782 249.518 219.782 250.586L219.782 254.03C219.782 255.092 220.646 255.956 221.708 255.956ZM228.372 252.128C227.184 252.128 226.212 251.168 226.212 249.968C226.212 248.792 227.22 247.808 228.372 247.808C229.56 247.808 230.532 248.768 230.532 249.968C230.532 251.168 229.56 252.128 228.372 252.128ZM228.372 251.33C229.11 251.33 229.734 250.706 229.734 249.968C229.734 249.23 229.11 248.606 228.372 248.606C227.634 248.606 227.01 249.23 227.01 249.968C227.01 250.706 227.634 251.33 228.372 251.33ZM235.395 256.808C233.793 256.808 232.575 255.59 232.575 253.988L232.575 250.628C232.575 249.026 233.793 247.808 235.395 247.808C236.997 247.808 238.215 249.026 238.215 250.628L238.215 253.988C238.215 255.59 236.997 256.808 235.395 256.808ZM235.395 255.956C236.457 255.956 237.321 255.092 237.321 254.03L237.321 250.586C237.321 249.518 236.457 248.654 235.395 248.654C234.333 248.654 233.469 249.518 233.469 250.586L233.469 254.03C233.469 255.092 234.333 255.956 235.395 255.956ZM243.199 256.808C241.597 256.808 240.379 255.59 240.379 253.988L240.379 250.628C240.379 249.026 241.597 247.808 243.199 247.808C244.801 247.808 246.019 249.026 246.019 250.628L246.019 253.988C246.019 255.59 244.801 256.808 243.199 256.808ZM243.199 255.956C244.261 255.956 245.125 255.092 245.125 254.03L245.125 250.586C245.125 249.518 244.261 248.654 243.199 248.654C242.137 248.654 241.273 249.518 241.273 250.586L241.273 254.03C241.273 255.092 242.137 255.956 243.199 255.956ZM248.699 247.91L249.587 247.91L248.747 250.79L248.141 250.79L248.699 247.91ZM250.223 247.91L251.111 247.91L250.271 250.79L249.665 250.79L250.223 247.91Z" fill="#F6F1FF"/>
</svg>
