<svg width="108" height="106" viewBox="0 0 108 106" fill="none" xmlns="http://www.w3.org/2000/svg">
<path opacity="0.1" d="M107.649 52.6398C108.625 122.678 -0.492777 122.678 0.0928303 53.2254C-1.54687 -17.2036 108.625 -17.4378 107.649 52.6398ZM62.4014 85.629C86.1771 83.5599 77.0416 83.2475 89.6516 63.2979C91.0571 58.5349 83.6004 51.859 81.8436 47.0961C79.2669 43.9338 63.2213 48.3454 58.2631 48.0721C53.2659 51.2734 51.7824 59.2377 48.4249 64.1958C48.9715 70.5204 55.0618 75.9079 57.3261 81.9202C58.8487 84.8482 60.5275 86.3317 62.4014 85.629ZM57.5214 44.8317C65.1342 44.0509 72.3958 43.3482 79.6182 42.5674C80.1648 42.4893 80.8285 41.8256 81.0627 41.3181C81.8826 37.1017 87.114 30.7381 84.8887 26.9512C79.8525 22.7739 73.3327 10.8275 67.5157 9.85147C45.1455 10.9056 52.5242 10.1638 44.9503 29.8402C44.7942 30.3868 44.9113 31.2847 45.2626 31.6751C49.3619 35.9695 53.0707 41.0058 57.5214 44.8317ZM56.6625 87.1125C52.1728 80.749 49.7913 72.1601 44.0524 67.319C39.9922 67.241 26.7575 62.0486 24.8054 64.9376C22.5801 69.7786 17.1535 74.2292 16.8021 79.4606C20.0035 83.5989 22.0726 89.3769 26.2499 92.5001C33.6286 93.8666 41.0463 95.1939 48.464 96.4042C52.368 95.3501 53.8125 90.0406 56.6625 87.1125ZM37.4155 4.81525C25.7424 9.26586 15.1234 16.2151 11.6878 29.1375C11.2974 30.621 11.4146 31.2847 12.7419 32.0265C16.5679 33.3148 20.5891 38.5853 24.5322 37.5312C30.154 33.9785 37.4936 32.1826 42.1785 27.5758C46.9804 9.57819 53.344 11.9597 37.4155 4.81525ZM9.34542 33.7833C0.561316 43.4653 0.0928289 70.3642 14.2255 75.5956C25.352 59.3548 23.7904 61.541 21.5651 42.3331C19.4959 37.9996 13.1714 36.8284 9.34542 33.7833ZM104.097 56.9733C100.505 59.3157 96.1324 60.6041 93.1653 63.5321C89.4565 70.3642 85.7866 77.1963 82.1559 84.0674C81.1018 86.9954 83.1319 90.1967 83.5223 93.2029C92.931 89.0646 104.37 68.9197 104.097 56.9733ZM99.646 31.4799C95.7029 21.1342 80.7114 6.96247 72.3958 6.18166C75.558 13.8726 82.9757 18.9479 87.9729 25.5457C91.4866 28.0443 95.781 29.3717 99.646 31.4799ZM29.5293 96.5213C35.2683 100.777 48.4249 103.939 55.4912 102.885C47.3708 98.2391 38.1573 98.5124 29.5293 96.5213Z" fill="white"/>
<path fill-rule="evenodd" clip-rule="evenodd" d="M50.2067 12.3447L61.7867 59.6036L93.2003 53.3831L95.4766 52.9323L93.7293 54.4593C84.8696 62.2015 69.2179 75.8977 61.6438 82.5795C61.5232 82.1555 61.3442 81.7561 61.116 81.3906C68.3407 75.0186 82.2704 62.8267 91.1654 55.0514L61.4456 60.9365L60.8635 61.0518L60.7223 60.4754L49.001 12.6402L50.2067 12.3447ZM53.5499 80.8929C53.3716 80.636 53.1881 80.3698 52.9995 80.0948C50.5011 76.4518 47.1416 71.299 43.4505 65.5216C36.0696 53.9686 27.376 39.9384 21.6221 30.5421L20.5635 31.1904C26.3196 40.5903 35.0177 54.6277 42.4045 66.1899C46.0973 71.97 49.4656 77.1366 51.9758 80.7969C52.2787 81.2386 52.5696 81.659 52.8473 82.0564C53.0246 81.6333 53.2624 81.2419 53.5499 80.8929Z" fill="white"/>
<circle cx="56.9019" cy="83.9253" r="2.30325" fill="white"/>
<circle cx="48.6104" cy="8.60989" r="2.30325" fill="white"/>
<path d="M95.8401 43.4434L98.0072 50.1131H105.02L99.3466 54.2353L101.514 60.905L95.8401 56.7829L90.1664 60.905L92.3336 54.2353L86.6599 50.1131H93.6729L95.8401 43.4434Z" fill="white"/>
<path d="M17.5389 23.7132L20.9312 27.5785L25.6557 25.5467L23.0278 29.9675L26.4202 33.8329L21.4037 32.6997L18.7758 37.1205L18.3033 31.9993L13.2868 30.8662L18.0113 28.8343L17.5389 23.7132Z" fill="white"/>
<path d="M57.6998 55.8754L61.2922 57.7058L64.1431 54.8549L63.5124 58.837L67.1047 60.6674L63.1226 61.2981L62.4918 65.2803L60.6614 61.6879L56.6793 62.3186L59.5302 59.4677L57.6998 55.8754Z" fill="white"/>
</svg>
