<svg width="527" height="475" viewBox="0 0 527 475" fill="none" xmlns="http://www.w3.org/2000/svg">
<g opacity="0.2">
<path d="M285.985 404.099C313.454 357.598 316.865 328.769 315.137 320.167C315.91 316.571 317.225 308.544 316.301 305.199C315.145 301.018 293.516 299.062 285.502 266.144C277.488 233.225 247.67 219.637 229.557 221.406C215.067 222.822 212.951 234.629 213.704 240.355C242.261 253.842 247.849 277.17 247.073 287.149C230.807 248.316 192.157 230.087 174.866 225.826C101.253 247.873 113.509 354.072 118.318 373.823C123.126 393.574 251.649 462.226 285.985 404.099Z" fill="white"/>
<path d="M204.401 122.783C206.648 110.543 269.131 -3.42347 338.088 38.5105C351.286 52.4078 374.621 90.6857 362.371 132.62C368.137 124.557 376.171 99.7903 362.183 65.2283C383.283 57.5486 415.948 68.5673 405.76 120.042C395.571 171.516 403.691 166.933 404.594 182.741C404.332 185.172 402.254 190.656 396.034 193.142C388.26 196.251 368.811 228.338 327.717 245.523C286.622 262.707 202.156 135.024 204.401 122.783ZM349.862 140.206C343.683 139.158 333.726 138.569 323.774 140.187C313.866 141.798 303.6 145.66 297.28 153.843C296.605 154.717 296.767 155.973 297.641 156.648C298.515 157.323 299.771 157.162 300.446 156.288C305.86 149.278 314.927 145.678 324.417 144.135C333.865 142.6 343.373 143.163 349.193 144.15C350.282 144.335 351.315 143.601 351.5 142.512C351.685 141.424 350.951 140.39 349.862 140.206ZM328.975 58.9773C328.35 57.4426 326.6 56.7039 325.065 57.3279C323.531 57.9521 322.793 59.7024 323.417 61.2371C327.089 70.2652 328.051 84.9425 318.562 99.2654C309.065 113.599 288.771 128.063 248.957 135.843C247.331 136.16 246.27 137.736 246.588 139.362C246.906 140.988 248.481 142.049 250.107 141.731C290.823 133.775 312.861 118.733 323.563 102.579C334.273 86.4136 333.302 69.619 328.975 58.9773Z" fill="white"/>
<path d="M354.309 318.224C363.687 321.969 371.182 327.955 371.755 337.203C373.256 361.421 348.813 420.129 339.887 420.702C332.746 421.16 304.487 411.828 291.25 407.105C295.638 400.199 302.097 388.267 308.087 373.733C310.793 376.707 313.633 379.437 316.499 381.641C320.832 384.974 325.453 387.287 329.89 387.155C334.502 387.017 338.474 384.269 341.445 378.511C347.15 367.454 350.46 354.047 352.294 341.843C353.633 332.935 354.191 324.612 354.309 318.224ZM323.334 312.651C330.733 312.704 341.697 313.866 351.326 317.125C351.254 323.499 350.722 332.121 349.328 341.398C347.517 353.443 344.273 366.488 338.779 377.135C336.15 382.23 333.016 384.06 329.8 384.156C326.41 384.256 322.481 382.458 318.327 379.262C315.276 376.916 312.229 373.913 309.341 370.636C316.216 353.326 322.214 332.728 323.334 312.651Z" fill="white"/>
<path d="M405.343 191.34C419.143 203.097 442.876 231.099 427.403 249.057C408.062 271.504 365.755 296.503 353.916 285.532C350.462 282.333 346.681 277.903 343.036 273.183C348.266 271.708 354.328 269.726 360.617 267.219C371.918 262.714 384.052 256.477 393.405 248.378C398.286 244.151 400.029 239.611 399.154 235.039C398.31 230.631 395.089 226.563 390.939 222.992C388.318 220.738 385.243 218.611 381.968 216.654C391.214 208.886 399.553 200.313 405.343 191.34ZM379.496 218.693C382.988 220.721 386.257 222.936 388.981 225.28C392.956 228.699 395.559 232.212 396.213 235.624C396.835 238.873 395.749 242.392 391.457 246.109C382.462 253.897 370.674 259.984 359.528 264.427C352.864 267.084 346.463 269.137 341.084 270.612C335.489 263.119 330.434 255.33 327.705 250.821C339.619 245.408 361.032 233.673 379.496 218.693Z" fill="white"/>
</g>
<g filter="url(#filter0_f_31_380)">
<path d="M205.066 14.8502L201.296 37.9613L221.734 48.7506L198.967 52.2447L195.197 75.3557L184.895 54.4041L162.128 57.8982L178.529 41.4553L168.227 20.5038L188.665 31.2931L205.066 14.8502Z" fill="white"/>
<path d="M205.807 115.209L210.946 125.188L221.862 123.299L214.122 131.355L219.261 141.333L209.339 136.334L201.6 144.39L203.207 133.244L193.285 128.244L204.2 126.355L205.807 115.209Z" fill="white"/>
<path d="M298.026 361.253L298.469 372.509L309.128 375.559L298.743 379.466L299.186 390.723L292.325 381.881L281.94 385.788L288.084 376.417L281.223 367.575L291.882 370.625L298.026 361.253Z" fill="white"/>
<path d="M383.682 224.836L384.125 236.092L394.784 239.142L384.399 243.049L384.842 254.306L377.981 245.464L367.596 249.371L373.74 240L366.879 231.158L377.538 234.208L383.682 224.836Z" fill="white"/>
<path d="M136.704 232.635L137.455 251.717L155.524 256.886L137.92 263.51L138.671 282.591L127.04 267.603L109.436 274.226L119.851 258.34L108.22 243.352L126.289 248.522L136.704 232.635Z" fill="white"/>
<ellipse cx="219.92" cy="229.277" rx="4.77087" ry="4.85413" fill="white"/>
<ellipse cx="278.452" cy="220.491" rx="4.77087" ry="4.85413" fill="white"/>
<ellipse cx="293.804" cy="273.21" rx="4.77087" ry="4.85413" fill="white"/>
<path d="M290.653 282.965C291.598 283.288 292.605 283.469 293.653 283.482V375.867C293.653 376.553 293.188 377.151 292.523 377.32C291.859 377.489 291.164 377.186 290.836 376.584L243.375 289.309C244.285 288.856 245.113 288.262 245.837 287.556L290.653 369.968V282.965ZM210.369 231.862C210.597 232.863 210.973 233.805 211.473 234.665L133.911 257.445L230.171 276.279C229.769 277.182 229.497 278.157 229.377 279.18L127.306 259.21C126.627 259.077 126.128 258.497 126.096 257.806C126.064 257.116 126.508 256.493 127.171 256.298L210.369 231.862ZM380.176 236.241C380.842 236.342 381.36 236.875 381.44 237.544C381.521 238.213 381.145 238.855 380.521 239.111L303.202 270.921C302.938 269.935 302.53 269.011 302 268.173L374.375 238.395L287.209 225.177C287.64 224.277 287.942 223.302 288.09 222.276L380.176 236.241ZM220.848 219.71C220.532 219.678 220.212 219.662 219.889 219.662C219.188 219.662 218.504 219.738 217.845 219.881L206.227 126.613L207.715 126.428L209.203 126.243L220.848 219.71ZM276.252 211.124C275.256 211.353 274.318 211.737 273.463 212.25L189.094 38.7312L190.443 38.075L191.792 37.4187L276.252 211.124Z" fill="white"/>
<ellipse cx="239.111" cy="280.043" rx="4.77087" ry="4.85413" fill="white"/>
</g>
<path d="M205.066 14.8502L201.297 37.9613L221.735 48.7506L198.967 52.2447L195.197 75.3557L184.896 54.4041L162.128 57.8982L178.529 41.4553L168.227 20.5038L188.665 31.2931L205.066 14.8502Z" fill="white"/>
<path d="M205.808 115.209L210.946 125.188L221.862 123.299L214.122 131.355L219.261 141.333L209.339 136.334L201.6 144.39L203.207 133.244L193.285 128.244L204.2 126.355L205.808 115.209Z" fill="white"/>
<path d="M298.026 361.253L298.47 372.509L309.128 375.559L298.743 379.466L299.186 390.723L292.325 381.881L281.94 385.788L288.085 376.417L281.223 367.575L291.882 370.625L298.026 361.253Z" fill="white"/>
<path d="M383.682 224.836L384.125 236.092L394.784 239.142L384.399 243.049L384.842 254.306L377.981 245.464L367.596 249.371L373.74 240L366.879 231.158L377.538 234.208L383.682 224.836Z" fill="white"/>
<path d="M136.704 232.635L137.455 251.717L155.524 256.886L137.919 263.51L138.671 282.591L127.04 267.603L109.435 274.226L119.851 258.34L108.22 243.352L126.288 248.522L136.704 232.635Z" fill="white"/>
<ellipse cx="219.92" cy="229.277" rx="4.77087" ry="4.85413" fill="white"/>
<ellipse cx="278.452" cy="220.491" rx="4.77087" ry="4.85413" fill="white"/>
<ellipse cx="293.804" cy="273.21" rx="4.77087" ry="4.85413" fill="white"/>
<path d="M290.654 282.966C291.598 283.289 292.605 283.469 293.654 283.482V375.867C293.653 376.553 293.188 377.151 292.524 377.32C291.859 377.489 291.164 377.186 290.836 376.584L243.375 289.309C244.285 288.856 245.113 288.261 245.836 287.556L290.654 369.968V282.966ZM210.368 231.863C210.596 232.863 210.972 233.805 211.472 234.665L133.911 257.445L230.171 276.279C229.769 277.182 229.497 278.157 229.376 279.18L127.306 259.21C126.627 259.077 126.128 258.497 126.096 257.806C126.064 257.116 126.508 256.492 127.171 256.298L210.368 231.863ZM380.176 236.241C380.842 236.342 381.36 236.875 381.441 237.544C381.521 238.213 381.145 238.855 380.522 239.111L303.202 270.921C302.938 269.935 302.529 269.011 301.999 268.173L374.375 238.395L287.209 225.177C287.64 224.277 287.942 223.302 288.09 222.276L380.176 236.241ZM220.848 219.71C220.532 219.678 220.212 219.662 219.889 219.662C219.188 219.662 218.504 219.738 217.845 219.881L206.227 126.613L207.715 126.428L209.203 126.243L220.848 219.71ZM276.252 211.124C275.256 211.353 274.318 211.737 273.463 212.25L189.094 38.7312L190.444 38.075L191.792 37.4187L276.252 211.124Z" fill="white"/>
<ellipse cx="239.111" cy="280.043" rx="4.77087" ry="4.85413" fill="white"/>
<g filter="url(#filter1_f_31_380)">
<path d="M3.99989 411.877L22.9297 411.877L22.9297 413.916L22.7633 413.916C21.6816 413.666 21.1823 413.625 18.9773 413.625L10.4485 413.625L10.4485 439.253L13.1944 439.253C17.9788 439.253 20.3503 435.342 20.3503 431.431C20.3503 427.396 17.8124 423.319 12.6951 423.319L12.1127 423.319L12.1127 422.07C13.1112 421.946 14.0681 421.862 15.0665 421.862C21.0159 421.862 26.5076 424.4 26.5076 430.724C26.5076 437.173 21.9728 441 14.2761 441L3.9999 441L3.9999 440.834C4.16631 439.752 4.20792 439.253 4.20792 436.632L4.20791 416.246C4.20791 413.625 4.1663 413.126 3.99989 412.044L3.99989 411.877ZM46.223 441.666C37.6526 441.666 30.8296 434.843 30.8296 426.272C30.8296 417.702 37.6526 410.879 46.223 410.879C54.7934 410.879 61.6165 417.702 61.6165 426.272C61.6165 434.843 54.7935 441.666 46.223 441.666ZM37.7358 426.896C37.7358 434.593 41.1474 439.919 46.0566 439.919C52.0892 439.919 55.2095 432.596 55.2095 425.565C55.2095 417.993 51.7564 412.626 46.8055 412.626C40.8561 412.626 37.7358 419.907 37.7358 426.896ZM66.8089 411.877L73.5487 411.877L73.5487 412.044C73.2991 413.126 73.2575 413.625 73.2575 416.246L73.2575 424.151L81.7031 416.246C84.2409 413.874 85.6555 412.418 85.6555 412.044L85.6555 411.877L88.9422 411.877L88.9422 412.044C87.8189 412.834 86.7788 413.874 84.2409 416.246L81.4535 418.909L89.0254 435.758C90.3983 438.837 91.272 439.752 92.1457 440.501L92.1457 441C88.5261 441.999 84.0745 440.376 82.1607 435.8L76.8354 423.069L73.2575 426.397L73.2575 436.632C73.2575 439.253 73.2991 439.752 73.5487 440.834L73.5487 441L66.8089 441L66.8089 440.834C66.9753 439.752 67.0169 439.253 67.0169 436.632L67.0169 416.246C67.0169 413.625 66.9753 413.126 66.8089 412.044L66.8089 411.877ZM120.516 415.663L120.516 421.405L119.559 421.405C118.852 415.871 114.691 412.626 110.448 412.626C105.413 412.626 100.255 416.953 100.255 426.896C100.255 435.925 104.914 439.919 109.74 439.919C113.901 439.919 118.186 436.798 119.559 431.431L120.516 431.431L120.516 436.881C117.687 439.669 113.568 441.666 108.908 441.666C100.338 441.666 93.5979 434.843 93.5979 426.272C93.5979 417.702 100.338 410.879 108.908 410.879C113.609 410.879 117.728 412.876 120.516 415.663ZM126.53 411.877L144.753 411.877L144.753 414.041L144.586 414.041C143.504 413.625 142.88 413.625 140.8 413.625L132.979 413.625L132.979 420.739L141.507 420.739L141.507 422.486L132.979 422.486L132.979 439.253L142.34 439.253C144.545 439.253 145.044 439.211 146.126 438.962L146.292 438.962L146.292 441L126.53 441L126.53 440.834C126.696 439.752 126.738 439.253 126.738 436.632L126.738 416.246C126.738 413.625 126.696 413.126 126.53 412.044L126.53 411.877ZM161.641 411.877C168.838 411.877 173.373 415.331 173.373 421.072C173.373 427.562 167.465 430.89 161.266 430.89C160.517 430.89 159.727 430.807 158.978 430.724L158.978 429.476L159.519 429.476C163.97 429.476 167.132 426.522 167.132 421.405C167.132 416.412 164.719 413.625 160.268 413.625L157.314 413.625L157.314 436.632C157.314 439.253 157.355 439.752 157.522 440.834L157.522 441L150.865 441L150.865 440.834C151.032 439.752 151.073 439.253 151.073 436.632L151.073 416.246C151.073 413.625 151.032 413.126 150.865 412.044L150.865 411.877L161.641 411.877ZM202.987 415.663L202.987 421.405L202.031 421.405C201.323 415.871 197.163 412.626 192.919 412.626C187.885 412.626 182.726 416.953 182.726 426.896C182.726 435.924 187.386 439.918 192.212 439.918C196.372 439.918 200.658 436.798 202.031 431.431L202.987 431.431L202.987 436.881C200.158 439.669 196.04 441.666 191.38 441.666C182.81 441.666 176.07 434.843 176.07 426.272C176.07 417.702 182.809 410.879 191.38 410.879C196.081 410.879 200.2 412.876 202.987 415.663ZM209.002 411.877L215.742 411.877L215.742 412.044C215.492 413.126 215.45 413.625 215.45 416.246L215.45 424.151L223.896 416.246C226.434 413.874 227.848 412.418 227.848 412.044L227.848 411.877L231.135 411.877L231.135 412.044C230.012 412.834 228.972 413.874 226.434 416.246L223.646 418.908L231.218 435.758C232.591 438.837 233.465 439.752 234.339 440.501L234.339 441C230.719 441.999 226.267 440.376 224.354 435.8L219.028 423.069L215.45 426.397L215.45 436.632C215.45 439.253 215.492 439.752 215.742 440.834L215.742 441L209.002 441L209.002 440.834C209.168 439.752 209.21 439.253 209.21 436.632L209.21 416.246C209.21 413.625 209.168 413.126 209.002 412.044L209.002 411.877ZM236.956 411.877L243.696 411.877L243.696 412.044C243.446 413.126 243.404 413.625 243.404 416.246L243.404 432.347L261.294 411.877L262.625 411.877C262.293 413.126 262.293 413.75 262.293 420.198L262.293 436.632C262.293 439.253 262.334 439.752 262.501 440.834L262.501 441L255.761 441L255.761 440.834C256.01 439.752 256.052 439.253 256.052 436.632L256.052 420.531L238.162 441L236.831 441C237.164 439.752 237.164 439.128 237.164 437.048L237.164 416.246C237.164 413.625 237.122 413.126 236.956 412.044L236.956 411.877ZM268.885 411.877L287.108 411.877L287.108 414.041L286.942 414.041C285.86 413.625 285.236 413.625 283.156 413.625L275.334 413.625L275.334 420.739L283.863 420.739L283.863 422.486L275.334 422.486L275.334 439.253L284.695 439.253C286.9 439.253 287.399 439.211 288.481 438.962L288.647 438.962L288.647 441L268.885 441L268.885 440.834C269.052 439.752 269.094 439.253 269.094 436.632L269.093 416.246C269.093 413.625 269.052 413.125 268.885 412.044L268.885 411.877ZM309.43 411.877L333.976 411.877L333.976 412.044C333.81 413.125 333.768 413.625 333.768 416.246L333.768 436.632C333.768 439.253 333.81 439.752 333.976 440.834L333.976 441L327.236 441L327.236 440.834C327.486 439.752 327.528 439.253 327.528 436.632L327.528 413.625L315.878 413.625L315.878 436.632C315.878 439.253 315.92 439.752 316.17 440.834L316.17 441L309.43 441L309.43 440.834C309.596 439.752 309.638 439.253 309.638 436.632L309.638 416.246C309.638 413.625 309.596 413.125 309.43 412.044L309.43 411.877ZM340.225 411.877L358.447 411.877L358.447 414.041L358.281 414.041C357.199 413.625 356.575 413.625 354.495 413.625L346.674 413.625L346.674 420.739L355.202 420.739L355.202 422.486L346.674 422.486L346.674 439.253L356.034 439.253C358.239 439.253 358.739 439.211 359.82 438.962L359.987 438.962L359.987 441L340.225 441L340.225 440.834C340.391 439.752 340.433 439.253 340.433 436.632L340.433 416.246C340.433 413.625 340.391 413.125 340.225 412.044L340.225 411.877ZM375.335 411.877C382.533 411.877 387.068 415.33 387.068 421.072C387.068 427.562 381.16 430.89 374.961 430.89C374.212 430.89 373.422 430.807 372.673 430.724L372.673 429.476L373.214 429.476C377.665 429.476 380.827 426.522 380.827 421.405C380.827 416.412 378.414 413.625 373.962 413.625L371.009 413.625L371.009 436.632C371.009 439.253 371.05 439.752 371.217 440.834L371.217 441L364.56 441L364.56 440.834C364.726 439.752 364.768 439.253 364.768 436.632L364.768 416.246C364.768 413.625 364.726 413.125 364.56 412.044L364.56 411.877L375.335 411.877ZM389.973 411.877L396.712 411.877L396.712 412.044C396.463 413.125 396.421 413.625 396.421 416.246L396.421 421.987C396.421 425.399 398.252 427.812 401.538 427.812C403.411 427.812 405.241 427.271 406.822 425.981L406.822 416.246C406.822 413.625 406.781 413.125 406.531 412.044L406.531 411.877L413.271 411.877L413.271 412.044C413.104 413.125 413.063 413.625 413.063 416.246L413.063 436.632C413.063 439.253 413.104 439.752 413.271 440.834L413.271 441L406.531 441L406.531 440.834C406.781 439.752 406.822 439.253 406.822 436.632L406.822 427.936C404.659 429.725 402.246 430.391 399.749 430.391C393.301 430.391 390.181 426.772 390.181 422.32L390.181 416.246C390.181 413.625 390.139 413.125 389.973 412.044L389.973 411.877ZM427.973 411.877C429.471 411.877 431.51 411.586 432.591 410.712L441.786 436.632C442.992 440.085 443.283 440.584 443.408 440.834L443.408 441L436.003 441L436.003 440.834C436.003 440.584 436.336 440.085 435.129 436.632L434.172 433.844L421.358 433.844L420.318 436.632C418.987 440.085 419.195 440.584 419.195 440.834L419.195 441L416.574 441L416.574 440.834C416.699 440.584 417.031 440.085 418.363 436.632L427.973 411.877ZM422.024 432.097L433.548 432.097L428.056 416.287L422.024 432.097ZM445.514 411.877L464.652 411.877L464.652 413.916L464.485 413.916C463.404 413.666 462.904 413.625 460.699 413.625L458.203 413.625L458.203 436.632C458.203 439.17 458.245 439.627 458.453 440.626L458.494 440.834L458.494 441L451.671 441L451.671 440.834L451.713 440.626C451.921 439.627 451.962 439.17 451.962 436.632L451.962 413.625L449.466 413.625C447.261 413.625 446.762 413.666 445.68 413.916L445.514 413.916L445.514 411.877ZM468.604 411.877L475.344 411.877L475.344 412.044C475.094 413.125 475.053 413.625 475.053 416.246L475.053 424.15L483.498 416.246C486.036 413.874 487.451 412.418 487.451 412.044L487.451 411.877L490.737 411.877L490.737 412.044C489.614 412.834 488.574 413.874 486.036 416.246L483.249 418.908L490.821 435.758C492.193 438.837 493.067 439.752 493.941 440.501L493.941 441C490.321 441.999 485.87 440.376 483.956 435.8L478.631 423.069L475.053 426.397L475.053 436.632C475.053 439.253 475.094 439.752 475.344 440.834L475.344 441L468.604 441L468.604 440.834C468.77 439.752 468.812 439.253 468.812 436.632L468.812 416.246C468.812 413.625 468.77 413.125 468.604 412.044L468.604 411.877ZM496.558 411.877L503.298 411.877L503.298 412.044C503.048 413.125 503.007 413.625 503.007 416.246L503.007 432.346L520.896 411.877L522.228 411.877C521.895 413.125 521.895 413.749 521.895 420.198L521.895 436.632C521.895 439.253 521.936 439.752 522.103 440.834L522.103 441L515.363 441L515.363 440.834C515.613 439.752 515.654 439.253 515.654 436.632L515.654 420.531L497.764 441L496.433 441C496.766 439.752 496.766 439.128 496.766 437.048L496.766 416.246C496.766 413.625 496.724 413.125 496.558 412.044L496.558 411.877Z" fill="#F6F1FF"/>
</g>
<path d="M3.99989 411.877L22.9297 411.877L22.9297 413.916L22.7633 413.916C21.6816 413.666 21.1823 413.625 18.9773 413.625L10.4485 413.625L10.4485 439.253L13.1944 439.253C17.9788 439.253 20.3503 435.342 20.3503 431.431C20.3503 427.396 17.8124 423.319 12.6951 423.319L12.1127 423.319L12.1127 422.07C13.1112 421.946 14.0681 421.862 15.0665 421.862C21.0159 421.862 26.5076 424.4 26.5076 430.724C26.5076 437.173 21.9728 441 14.2761 441L3.9999 441L3.9999 440.834C4.16631 439.752 4.20792 439.253 4.20792 436.632L4.20791 416.246C4.20791 413.625 4.1663 413.126 3.99989 412.044L3.99989 411.877ZM46.223 441.666C37.6526 441.666 30.8296 434.843 30.8296 426.272C30.8296 417.702 37.6526 410.879 46.223 410.879C54.7934 410.879 61.6165 417.702 61.6165 426.272C61.6165 434.843 54.7935 441.666 46.223 441.666ZM37.7358 426.896C37.7358 434.593 41.1474 439.919 46.0566 439.919C52.0892 439.919 55.2095 432.596 55.2095 425.565C55.2095 417.993 51.7564 412.626 46.8055 412.626C40.8561 412.626 37.7358 419.907 37.7358 426.896ZM66.8089 411.877L73.5487 411.877L73.5487 412.044C73.2991 413.126 73.2575 413.625 73.2575 416.246L73.2575 424.151L81.7031 416.246C84.2409 413.874 85.6555 412.418 85.6555 412.044L85.6555 411.877L88.9422 411.877L88.9422 412.044C87.8189 412.834 86.7788 413.874 84.2409 416.246L81.4535 418.909L89.0254 435.758C90.3983 438.837 91.272 439.752 92.1457 440.501L92.1457 441C88.5261 441.999 84.0745 440.376 82.1607 435.8L76.8354 423.069L73.2575 426.397L73.2575 436.632C73.2575 439.253 73.2991 439.752 73.5487 440.834L73.5487 441L66.8089 441L66.8089 440.834C66.9753 439.752 67.0169 439.253 67.0169 436.632L67.0169 416.246C67.0169 413.625 66.9753 413.126 66.8089 412.044L66.8089 411.877ZM120.516 415.663L120.516 421.405L119.559 421.405C118.852 415.871 114.691 412.626 110.448 412.626C105.413 412.626 100.255 416.953 100.255 426.896C100.255 435.925 104.914 439.919 109.74 439.919C113.901 439.919 118.186 436.798 119.559 431.431L120.516 431.431L120.516 436.881C117.687 439.669 113.568 441.666 108.908 441.666C100.338 441.666 93.5979 434.843 93.5979 426.272C93.5979 417.702 100.338 410.879 108.908 410.879C113.609 410.879 117.728 412.876 120.516 415.663ZM126.53 411.877L144.753 411.877L144.753 414.041L144.586 414.041C143.504 413.625 142.88 413.625 140.8 413.625L132.979 413.625L132.979 420.739L141.507 420.739L141.507 422.486L132.979 422.486L132.979 439.253L142.34 439.253C144.545 439.253 145.044 439.211 146.126 438.962L146.292 438.962L146.292 441L126.53 441L126.53 440.834C126.696 439.752 126.738 439.253 126.738 436.632L126.738 416.246C126.738 413.625 126.696 413.126 126.53 412.044L126.53 411.877ZM161.641 411.877C168.838 411.877 173.373 415.331 173.373 421.072C173.373 427.562 167.465 430.89 161.266 430.89C160.517 430.89 159.727 430.807 158.978 430.724L158.978 429.476L159.519 429.476C163.97 429.476 167.132 426.522 167.132 421.405C167.132 416.412 164.719 413.625 160.268 413.625L157.314 413.625L157.314 436.632C157.314 439.253 157.355 439.752 157.522 440.834L157.522 441L150.865 441L150.865 440.834C151.032 439.752 151.073 439.253 151.073 436.632L151.073 416.246C151.073 413.625 151.032 413.126 150.865 412.044L150.865 411.877L161.641 411.877ZM202.987 415.663L202.987 421.405L202.031 421.405C201.323 415.871 197.163 412.626 192.919 412.626C187.885 412.626 182.726 416.953 182.726 426.896C182.726 435.924 187.386 439.918 192.212 439.918C196.372 439.918 200.658 436.798 202.031 431.431L202.987 431.431L202.987 436.881C200.158 439.669 196.04 441.666 191.38 441.666C182.81 441.666 176.07 434.843 176.07 426.272C176.07 417.702 182.809 410.879 191.38 410.879C196.081 410.879 200.2 412.876 202.987 415.663ZM209.002 411.877L215.742 411.877L215.742 412.044C215.492 413.126 215.45 413.625 215.45 416.246L215.45 424.151L223.896 416.246C226.434 413.874 227.848 412.418 227.848 412.044L227.848 411.877L231.135 411.877L231.135 412.044C230.012 412.834 228.972 413.874 226.434 416.246L223.646 418.908L231.218 435.758C232.591 438.837 233.465 439.752 234.339 440.501L234.339 441C230.719 441.999 226.267 440.376 224.354 435.8L219.028 423.069L215.45 426.397L215.45 436.632C215.45 439.253 215.492 439.752 215.742 440.834L215.742 441L209.002 441L209.002 440.834C209.168 439.752 209.21 439.253 209.21 436.632L209.21 416.246C209.21 413.625 209.168 413.126 209.002 412.044L209.002 411.877ZM236.956 411.877L243.696 411.877L243.696 412.044C243.446 413.126 243.404 413.625 243.404 416.246L243.404 432.347L261.294 411.877L262.625 411.877C262.293 413.126 262.293 413.75 262.293 420.198L262.293 436.632C262.293 439.253 262.334 439.752 262.501 440.834L262.501 441L255.761 441L255.761 440.834C256.01 439.752 256.052 439.253 256.052 436.632L256.052 420.531L238.162 441L236.831 441C237.164 439.752 237.164 439.128 237.164 437.048L237.164 416.246C237.164 413.625 237.122 413.126 236.956 412.044L236.956 411.877ZM268.885 411.877L287.108 411.877L287.108 414.041L286.942 414.041C285.86 413.625 285.236 413.625 283.156 413.625L275.334 413.625L275.334 420.739L283.863 420.739L283.863 422.486L275.334 422.486L275.334 439.253L284.695 439.253C286.9 439.253 287.399 439.211 288.481 438.962L288.647 438.962L288.647 441L268.885 441L268.885 440.834C269.052 439.752 269.094 439.253 269.094 436.632L269.093 416.246C269.093 413.625 269.052 413.125 268.885 412.044L268.885 411.877ZM309.43 411.877L333.976 411.877L333.976 412.044C333.81 413.125 333.768 413.625 333.768 416.246L333.768 436.632C333.768 439.253 333.81 439.752 333.976 440.834L333.976 441L327.236 441L327.236 440.834C327.486 439.752 327.528 439.253 327.528 436.632L327.528 413.625L315.878 413.625L315.878 436.632C315.878 439.253 315.92 439.752 316.17 440.834L316.17 441L309.43 441L309.43 440.834C309.596 439.752 309.638 439.253 309.638 436.632L309.638 416.246C309.638 413.625 309.596 413.125 309.43 412.044L309.43 411.877ZM340.225 411.877L358.447 411.877L358.447 414.041L358.281 414.041C357.199 413.625 356.575 413.625 354.495 413.625L346.674 413.625L346.674 420.739L355.202 420.739L355.202 422.486L346.674 422.486L346.674 439.253L356.034 439.253C358.239 439.253 358.739 439.211 359.82 438.962L359.987 438.962L359.987 441L340.225 441L340.225 440.834C340.391 439.752 340.433 439.253 340.433 436.632L340.433 416.246C340.433 413.625 340.391 413.125 340.225 412.044L340.225 411.877ZM375.335 411.877C382.533 411.877 387.068 415.33 387.068 421.072C387.068 427.562 381.16 430.89 374.961 430.89C374.212 430.89 373.422 430.807 372.673 430.724L372.673 429.476L373.214 429.476C377.665 429.476 380.827 426.522 380.827 421.405C380.827 416.412 378.414 413.625 373.962 413.625L371.009 413.625L371.009 436.632C371.009 439.253 371.05 439.752 371.217 440.834L371.217 441L364.56 441L364.56 440.834C364.726 439.752 364.768 439.253 364.768 436.632L364.768 416.246C364.768 413.625 364.726 413.125 364.56 412.044L364.56 411.877L375.335 411.877ZM389.973 411.877L396.712 411.877L396.712 412.044C396.463 413.125 396.421 413.625 396.421 416.246L396.421 421.987C396.421 425.399 398.252 427.812 401.538 427.812C403.411 427.812 405.241 427.271 406.822 425.981L406.822 416.246C406.822 413.625 406.781 413.125 406.531 412.044L406.531 411.877L413.271 411.877L413.271 412.044C413.104 413.125 413.063 413.625 413.063 416.246L413.063 436.632C413.063 439.253 413.104 439.752 413.271 440.834L413.271 441L406.531 441L406.531 440.834C406.781 439.752 406.822 439.253 406.822 436.632L406.822 427.936C404.659 429.725 402.246 430.391 399.749 430.391C393.301 430.391 390.181 426.772 390.181 422.32L390.181 416.246C390.181 413.625 390.139 413.125 389.973 412.044L389.973 411.877ZM427.973 411.877C429.471 411.877 431.51 411.586 432.591 410.712L441.786 436.632C442.992 440.085 443.283 440.584 443.408 440.834L443.408 441L436.003 441L436.003 440.834C436.003 440.584 436.336 440.085 435.129 436.632L434.172 433.844L421.358 433.844L420.318 436.632C418.987 440.085 419.195 440.584 419.195 440.834L419.195 441L416.574 441L416.574 440.834C416.699 440.584 417.031 440.085 418.363 436.632L427.973 411.877ZM422.024 432.097L433.548 432.097L428.056 416.287L422.024 432.097ZM445.514 411.877L464.652 411.877L464.652 413.916L464.485 413.916C463.404 413.666 462.904 413.625 460.699 413.625L458.203 413.625L458.203 436.632C458.203 439.17 458.245 439.627 458.453 440.626L458.494 440.834L458.494 441L451.671 441L451.671 440.834L451.713 440.626C451.921 439.627 451.962 439.17 451.962 436.632L451.962 413.625L449.466 413.625C447.261 413.625 446.762 413.666 445.68 413.916L445.514 413.916L445.514 411.877ZM468.604 411.877L475.344 411.877L475.344 412.044C475.094 413.125 475.053 413.625 475.053 416.246L475.053 424.15L483.498 416.246C486.036 413.874 487.451 412.418 487.451 412.044L487.451 411.877L490.737 411.877L490.737 412.044C489.614 412.834 488.574 413.874 486.036 416.246L483.249 418.908L490.821 435.758C492.193 438.837 493.067 439.752 493.941 440.501L493.941 441C490.321 441.999 485.87 440.376 483.956 435.8L478.631 423.069L475.053 426.397L475.053 436.632C475.053 439.253 475.094 439.752 475.344 440.834L475.344 441L468.604 441L468.604 440.834C468.77 439.752 468.812 439.253 468.812 436.632L468.812 416.246C468.812 413.625 468.77 413.125 468.604 412.044L468.604 411.877ZM496.558 411.877L503.298 411.877L503.298 412.044C503.048 413.125 503.007 413.625 503.007 416.246L503.007 432.346L520.896 411.877L522.228 411.877C521.895 413.125 521.895 413.749 521.895 420.198L521.895 436.632C521.895 439.253 521.936 439.752 522.103 440.834L522.103 441L515.363 441L515.363 440.834C515.613 439.752 515.654 439.253 515.654 436.632L515.654 420.531L497.764 441L496.433 441C496.766 439.752 496.766 439.128 496.766 437.048L496.766 416.246C496.766 413.625 496.724 413.125 496.558 412.044L496.558 411.877Z" fill="#F6F1FF"/>
<path opacity="0.5" d="M186.009 474.589L186.009 461.761L183.285 463.4L183.285 461.741L186.009 460.113L187.507 460.113L187.507 474.589L186.009 474.589ZM196.015 474.88C193.863 474.88 192.134 473.674 191.521 471.714L192.928 471.291C193.411 472.729 194.607 473.483 195.995 473.453C197.925 473.412 199.101 472.116 199.101 470.175C199.101 468.205 197.844 466.898 195.974 466.898C195.452 466.898 194.838 467.059 194.346 467.3L193.602 466.124L198.568 461.53L192.094 461.53L192.094 460.113L200.458 460.113L200.458 461.55L196.226 465.601C198.85 465.581 200.629 467.471 200.629 470.175C200.629 472.96 198.679 474.88 196.015 474.88ZM210.415 474.589L210.415 471.784L203.639 471.784L203.639 470.376L208.485 460.113L210.144 460.113L205.298 470.376L210.415 470.376L210.415 466.154L211.903 466.154L211.903 470.376L213.481 470.376L213.481 471.784L211.903 471.784L211.903 474.589L210.415 474.589ZM219.52 467.049C217.529 467.049 215.901 465.441 215.901 463.43C215.901 461.46 217.59 459.811 219.52 459.811C221.51 459.811 223.139 461.419 223.139 463.43C223.139 465.441 221.51 467.049 219.52 467.049ZM219.52 465.712C220.756 465.712 221.802 464.666 221.802 463.43C221.802 462.193 220.756 461.148 219.52 461.148C218.283 461.148 217.238 462.193 217.238 463.43C217.238 464.666 218.283 465.712 219.52 465.712ZM231.285 474.89C228.601 474.89 226.561 472.849 226.561 470.165L226.561 464.536C226.561 461.852 228.601 459.811 231.285 459.811C233.97 459.811 236.01 461.852 236.01 464.536L236.01 470.165C236.01 472.849 233.97 474.89 231.285 474.89ZM231.285 473.463C233.065 473.463 234.512 472.015 234.512 470.236L234.512 464.465C234.512 462.676 233.065 461.228 231.285 461.228C229.506 461.228 228.058 462.676 228.058 464.465L228.059 470.236C228.059 472.015 229.506 473.463 231.285 473.463ZM244.361 474.89C241.677 474.89 239.636 472.849 239.636 470.165L239.636 464.536C239.636 461.852 241.677 459.811 244.361 459.811C247.045 459.811 249.086 461.852 249.086 464.536L249.086 470.165C249.086 472.849 247.045 474.89 244.361 474.89ZM244.361 473.463C246.141 473.463 247.588 472.015 247.588 470.236L247.588 464.465C247.588 462.676 246.141 461.228 244.361 461.228C242.582 461.228 241.134 462.676 241.134 464.465L241.134 470.236C241.134 472.015 242.582 473.463 244.361 473.463ZM253.577 459.982L255.064 459.982L253.657 464.807L252.642 464.807L253.577 459.982ZM256.13 459.982L257.618 459.982L256.211 464.807L255.195 464.807L256.13 459.982ZM265.625 468.889L265.625 467.622L274.07 467.622L274.07 468.889L265.625 468.889ZM286.208 474.88C284.057 474.88 282.328 473.674 281.715 471.713L283.122 471.291C283.604 472.729 284.801 473.483 286.188 473.453C288.118 473.412 289.294 472.116 289.294 470.175C289.294 468.205 288.038 466.898 286.168 466.898C285.645 466.898 285.032 467.059 284.539 467.3L283.795 466.124L288.762 461.53L282.288 461.53L282.288 460.113L290.652 460.113L290.652 461.55L286.419 465.601C289.043 465.581 290.822 467.471 290.822 470.175C290.822 472.96 288.872 474.88 286.208 474.88ZM298.96 474.89C296.276 474.89 294.235 472.849 294.235 470.165L294.235 464.536C294.235 461.852 296.276 459.811 298.96 459.811C301.644 459.811 303.685 461.852 303.685 464.536L303.685 470.165C303.685 472.849 301.644 474.89 298.96 474.89ZM298.96 473.463C300.739 473.463 302.187 472.015 302.187 470.236L302.187 464.465C302.187 462.676 300.739 461.228 298.96 461.228C297.181 461.228 295.733 462.676 295.733 464.465L295.733 470.236C295.733 472.015 297.181 473.463 298.96 473.463ZM310.126 467.049C308.135 467.049 306.507 465.441 306.507 463.43C306.507 461.46 308.195 459.811 310.126 459.811C312.116 459.811 313.745 461.419 313.745 463.43C313.745 465.441 312.116 467.049 310.126 467.049ZM310.126 465.712C311.362 465.712 312.408 464.666 312.408 463.43C312.408 462.193 311.362 461.148 310.126 461.148C308.889 461.148 307.844 462.193 307.844 463.43C307.844 464.666 308.889 465.712 310.126 465.712ZM321.891 474.89C319.207 474.89 317.166 472.849 317.166 470.165L317.166 464.536C317.166 461.852 319.207 459.811 321.891 459.811C324.575 459.811 326.616 461.852 326.616 464.536L326.616 470.165C326.616 472.849 324.575 474.89 321.891 474.89ZM321.891 473.463C323.671 473.463 325.118 472.015 325.118 470.236L325.118 464.465C325.118 462.676 323.671 461.228 321.891 461.228C320.112 461.228 318.664 462.676 318.664 464.465L318.664 470.236C318.664 472.015 320.112 473.463 321.891 473.463ZM334.967 474.89C332.283 474.89 330.242 472.849 330.242 470.165L330.242 464.536C330.242 461.852 332.283 459.811 334.967 459.811C337.651 459.811 339.692 461.852 339.692 464.536L339.692 470.165C339.692 472.849 337.651 474.89 334.967 474.89ZM334.967 473.463C336.746 473.463 338.194 472.015 338.194 470.236L338.194 464.465C338.194 462.676 336.746 461.228 334.967 461.228C333.188 461.228 331.74 462.676 331.74 464.465L331.74 470.236C331.74 472.015 333.188 473.463 334.967 473.463ZM344.183 459.982L345.67 459.982L344.263 464.807L343.248 464.807L344.183 459.982ZM346.736 459.982L348.224 459.982L346.816 464.807L345.801 464.807L346.736 459.982Z" fill="#F6F1FF"/>
<defs>
<filter id="filter0_f_31_380" x="98.2205" y="4.85034" width="306.563" height="395.872" filterUnits="userSpaceOnUse" color-interpolation-filters="sRGB">
<feFlood flood-opacity="0" result="BackgroundImageFix"/>
<feBlend mode="normal" in="SourceGraphic" in2="BackgroundImageFix" result="shape"/>
<feGaussianBlur stdDeviation="5" result="effect1_foregroundBlur_31_380"/>
</filter>
<filter id="filter1_f_31_380" x="0" y="406.712" width="526.228" height="39.2864" filterUnits="userSpaceOnUse" color-interpolation-filters="sRGB">
<feFlood flood-opacity="0" result="BackgroundImageFix"/>
<feBlend mode="normal" in="SourceGraphic" in2="BackgroundImageFix" result="shape"/>
<feGaussianBlur stdDeviation="2" result="effect1_foregroundBlur_31_380"/>
</filter>
</defs>
</svg>
