<svg width="314" height="348" viewBox="0 0 314 348" fill="none" xmlns="http://www.w3.org/2000/svg">
<g opacity="0.2">
<path d="M173.708 296.416C193.857 262.306 196.359 241.159 195.092 234.85C195.659 232.212 196.623 226.324 195.945 223.871C195.098 220.804 179.232 219.369 173.354 195.222C167.475 171.076 145.603 161.109 132.317 162.407C121.689 163.445 120.136 172.106 120.689 176.306C141.636 186.199 145.735 203.311 145.166 210.63C133.234 182.145 104.884 168.774 92.2001 165.649C38.2032 181.82 47.1933 259.719 50.7205 274.207C54.2476 288.695 148.522 339.053 173.708 296.416Z" fill="white"/>
<path d="M113.865 90.0637C115.513 81.0856 161.345 -2.51181 211.927 28.2473C221.608 38.4411 238.724 66.5189 229.739 97.2786C233.968 91.3638 239.861 73.1975 229.6 47.8459C245.078 42.2128 269.039 50.2953 261.565 88.053C254.092 125.811 260.047 122.449 260.71 134.044C260.518 135.827 258.993 139.85 254.431 141.674C248.729 143.955 234.462 167.49 204.319 180.096C174.175 192.701 112.218 99.0433 113.865 90.0637ZM220.563 102.844C216.031 102.075 208.727 101.644 201.427 102.83C194.159 104.012 186.628 106.845 181.993 112.847C181.498 113.488 181.617 114.409 182.258 114.905C182.899 115.4 183.82 115.282 184.315 114.641C188.286 109.499 194.937 106.859 201.898 105.727C208.828 104.6 215.803 105.014 220.072 105.738C220.871 105.873 221.629 105.335 221.764 104.536C221.9 103.738 221.362 102.98 220.563 102.844ZM205.241 43.26C204.783 42.1347 203.499 41.5933 202.374 42.051C201.248 42.509 200.707 43.7927 201.165 44.9182C203.858 51.5406 204.564 62.3067 197.603 72.8127C190.637 83.3269 175.751 93.9361 146.547 99.6428C145.354 99.876 144.576 101.032 144.808 102.225C145.042 103.417 146.198 104.195 147.39 103.962C177.256 98.1263 193.422 87.0931 201.272 75.2434C209.128 63.3857 208.416 51.066 205.241 43.26Z" fill="white"/>
<path d="M223.825 233.425C230.704 236.172 236.202 240.563 236.622 247.346C237.723 265.111 219.794 308.174 213.246 308.594C208.008 308.93 187.279 302.086 177.57 298.621C180.788 293.556 185.527 284.803 189.921 274.142C191.906 276.323 193.988 278.326 196.09 279.942C199.269 282.387 202.659 284.083 205.913 283.986C209.296 283.886 212.21 281.87 214.389 277.646C218.574 269.536 221.003 259.701 222.348 250.75C223.33 244.216 223.739 238.111 223.825 233.425ZM201.105 229.336C206.531 229.375 214.574 230.228 221.637 232.619C221.585 237.294 221.195 243.618 220.172 250.423C218.844 259.258 216.464 268.828 212.434 276.638C210.506 280.374 208.207 281.717 205.848 281.787C203.361 281.861 200.48 280.542 197.432 278.198C195.194 276.477 192.958 274.274 190.84 271.87C195.883 259.173 200.283 244.063 201.105 229.336Z" fill="white"/>
<path d="M261.259 140.352C271.382 148.975 288.791 169.515 277.441 182.688C263.254 199.153 232.221 217.49 223.536 209.444C221.003 207.096 218.229 203.847 215.556 200.385C219.392 199.303 223.839 197.849 228.452 196.01C236.742 192.705 245.642 188.131 252.503 182.191C256.083 179.09 257.362 175.759 256.72 172.406C256.1 169.172 253.738 166.188 250.694 163.57C248.772 161.916 246.515 160.356 244.112 158.92C250.895 153.222 257.012 146.934 261.259 140.352ZM242.301 160.415C244.862 161.903 247.26 163.528 249.258 165.246C252.174 167.755 254.083 170.333 254.562 172.836C255.018 175.219 254.222 177.8 251.074 180.526C244.476 186.239 235.829 190.704 227.653 193.963C222.765 195.912 218.07 197.417 214.124 198.499C210.02 193.004 206.313 187.289 204.311 183.982C213.05 180.012 228.757 171.404 242.301 160.415Z" fill="white"/>
</g>
<path d="M114.353 10.893L111.588 27.8454L126.579 35.7596L109.879 38.3226L107.114 55.275L99.5571 39.9066L82.8565 42.4696L94.8869 30.4084L87.3304 15.04L102.322 22.9542L114.353 10.893Z" fill="white"/>
<path d="M114.896 84.5088L118.666 91.8283L126.672 90.4426L120.995 96.352L124.765 103.671L117.487 100.004L111.81 105.913L112.989 97.7376L105.711 94.0703L113.717 92.6847L114.896 84.5088Z" fill="white"/>
<path d="M182.542 264.987L182.867 273.244L190.685 275.481L183.068 278.347L183.393 286.603L178.36 280.118L170.742 282.984L175.249 276.11L170.216 269.624L178.035 271.861L182.542 264.987Z" fill="white"/>
<path d="M245.372 164.922L245.697 173.179L253.515 175.416L245.898 178.282L246.223 186.539L241.19 180.053L233.572 182.919L238.079 176.045L233.047 169.56L240.865 171.797L245.372 164.922Z" fill="white"/>
<path d="M64.2074 170.643L64.7584 184.64L78.0119 188.432L65.099 193.29L65.6499 207.287L57.1183 196.293L44.2053 201.151L51.8455 189.498L43.3138 178.504L56.5673 182.296L64.2074 170.643Z" fill="white"/>
<ellipse cx="125.248" cy="168.18" rx="3.49954" ry="3.56061" fill="white"/>
<ellipse cx="168.183" cy="161.735" rx="3.49954" ry="3.56061" fill="white"/>
<ellipse cx="179.445" cy="200.405" rx="3.49954" ry="3.56061" fill="white"/>
<path d="M177.132 207.561C177.825 207.798 178.564 207.93 179.333 207.94V275.706C179.333 276.209 178.992 276.649 178.504 276.773C178.017 276.897 177.507 276.674 177.266 276.233L142.453 212.214C143.12 211.881 143.727 211.446 144.258 210.929L177.132 271.379V207.561ZM118.242 170.075C118.409 170.81 118.684 171.501 119.051 172.132L62.1587 188.841L132.767 202.656C132.472 203.319 132.272 204.034 132.184 204.784L57.314 190.136C56.8164 190.039 56.4498 189.613 56.4263 189.107C56.4029 188.6 56.729 188.143 57.2153 188L118.242 170.075ZM242.799 173.287C243.288 173.362 243.667 173.754 243.726 174.244C243.785 174.735 243.51 175.205 243.053 175.393L186.337 198.726C186.144 198.003 185.844 197.325 185.456 196.71L238.544 174.867L174.606 165.172C174.923 164.512 175.143 163.796 175.251 163.043L242.799 173.287ZM125.928 161.162C125.697 161.139 125.463 161.127 125.226 161.127C124.712 161.127 124.21 161.183 123.726 161.287L115.204 92.8743L116.295 92.7375L117.387 92.6018L125.928 161.162ZM166.568 154.864C165.838 155.032 165.15 155.314 164.523 155.69L102.637 28.4104L104.616 27.4475L166.568 154.864Z" fill="white"/>
<ellipse cx="139.325" cy="205.418" rx="3.49954" ry="3.56061" fill="white"/>
<path d="M1.85372 308.829L13.1514 308.829L13.1514 310.046L13.052 310.046C12.4065 309.897 12.1085 309.872 10.7925 309.872L5.70237 309.872L5.70237 325.168L7.34115 325.168C10.1966 325.168 11.6119 322.834 11.6119 320.5C11.6119 318.091 10.0973 315.658 7.04319 315.658L6.69557 315.658L6.69557 314.913C7.29149 314.838 7.86258 314.789 8.4585 314.789C12.0092 314.789 15.2868 316.303 15.2868 320.077C15.2868 323.926 12.5803 326.21 7.98673 326.21L1.85372 326.21L1.85372 326.111C1.95304 325.466 1.97787 325.168 1.97787 323.603L1.97787 311.437C1.97787 309.872 1.95304 309.574 1.85372 308.929L1.85372 308.829ZM27.0533 326.608C21.9383 326.608 17.8662 322.536 17.8662 317.421C17.8662 312.306 21.9383 308.234 27.0533 308.234C32.1682 308.234 36.2404 312.306 36.2404 317.421C36.2404 322.536 32.1682 326.608 27.0533 326.608ZM21.9879 317.793C21.9879 322.387 24.024 325.565 26.9539 325.565C30.5543 325.565 32.4165 321.195 32.4165 316.999C32.4165 312.479 30.3556 309.276 27.4009 309.276C23.8502 309.276 21.9879 313.622 21.9879 317.793ZM39.3393 308.829L43.3617 308.829L43.3617 308.929C43.2127 309.574 43.1879 309.872 43.1879 311.437L43.1879 316.154L48.2284 311.437C49.743 310.021 50.5872 309.152 50.5872 308.929L50.5872 308.829L52.5488 308.829L52.5488 308.929C51.8784 309.401 51.2577 310.021 49.743 311.437L48.0794 313.026L52.5985 323.082C53.4179 324.919 53.9393 325.466 54.4607 325.912L54.4607 326.21C52.3005 326.806 49.6437 325.838 48.5015 323.107L45.3233 315.509L43.1879 317.495L43.1879 323.603C43.1879 325.168 43.2127 325.466 43.3617 326.111L43.3617 326.21L39.3393 326.21L39.3393 326.111C39.4386 325.466 39.4634 325.168 39.4634 323.603L39.4634 311.437C39.4634 309.872 39.4386 309.574 39.3393 308.929L39.3393 308.829ZM71.3925 311.089L71.3925 314.515L70.8214 314.515C70.3993 311.213 67.9163 309.276 65.3836 309.276C62.3792 309.276 59.3003 311.859 59.3003 317.793C59.3003 323.181 62.0812 325.565 64.9615 325.565C67.4445 325.565 70.002 323.703 70.8214 320.5L71.3925 320.5L71.3925 323.752C69.704 325.416 67.2459 326.608 64.4649 326.608C59.3499 326.608 55.3275 322.536 55.3275 317.421C55.3275 312.306 59.3499 308.234 64.4649 308.234C67.2707 308.234 69.7289 309.425 71.3925 311.089ZM74.9819 308.829L85.8575 308.829L85.8575 310.121L85.7582 310.121C85.1126 309.872 84.7401 309.872 83.4986 309.872L78.8306 309.872L78.8306 314.118L83.9207 314.118L83.9207 315.161L78.8306 315.161L78.8306 325.168L84.4174 325.168C85.7333 325.168 86.0313 325.143 86.6769 324.994L86.7762 324.994L86.7762 326.21L74.982 326.21L74.982 326.111C75.0813 325.466 75.1061 325.168 75.1061 323.603L75.1061 311.437C75.1061 309.872 75.0813 309.574 74.9819 308.929L74.9819 308.829ZM95.9365 308.829C100.232 308.829 102.939 310.89 102.939 314.317C102.939 318.19 99.4127 320.177 95.7131 320.177C95.2661 320.177 94.7944 320.127 94.3474 320.077L94.3474 319.333L94.6702 319.333C97.327 319.333 99.2141 317.57 99.2141 314.515C99.2141 311.536 97.7739 309.872 95.1171 309.872L93.3542 309.872L93.3542 323.603C93.3542 325.168 93.379 325.466 93.4784 326.111L93.4784 326.21L89.5056 326.21L89.5056 326.111C89.6049 325.466 89.6297 325.168 89.6297 323.603L89.6297 311.437C89.6297 309.872 89.6049 309.574 89.5056 308.929L89.5056 308.829L95.9365 308.829ZM120.613 311.089L120.613 314.515L120.042 314.515C119.62 311.213 117.137 309.276 114.604 309.276C111.6 309.276 108.521 311.859 108.521 317.793C108.521 323.181 111.302 325.565 114.182 325.565C116.665 325.565 119.223 323.703 120.042 320.5L120.613 320.5L120.613 323.752C118.925 325.416 116.466 326.608 113.686 326.608C108.571 326.608 104.548 322.536 104.548 317.421C104.548 312.306 108.571 308.233 113.686 308.233C116.491 308.233 118.949 309.425 120.613 311.089ZM124.203 308.829L128.225 308.829L128.225 308.929C128.076 309.574 128.051 309.872 128.051 311.437L128.051 316.154L133.092 311.437C134.606 310.021 135.451 309.152 135.451 308.929L135.451 308.829L137.412 308.829L137.412 308.929C136.742 309.4 136.121 310.021 134.606 311.437L132.943 313.026L137.462 323.082C138.281 324.919 138.803 325.466 139.324 325.912L139.324 326.21C137.164 326.806 134.507 325.838 133.365 323.107L130.187 315.509L128.051 317.495L128.051 323.603C128.051 325.168 128.076 325.466 128.225 326.111L128.225 326.21L124.203 326.21L124.203 326.111C124.302 325.466 124.327 325.168 124.327 323.603L124.327 311.437C124.327 309.872 124.302 309.574 124.203 308.929L124.203 308.829ZM140.886 308.829L144.908 308.829L144.908 308.929C144.759 309.574 144.735 309.872 144.735 311.437L144.735 321.046L155.412 308.829L156.206 308.829C156.007 309.574 156.007 309.947 156.007 313.795L156.007 323.603C156.007 325.168 156.032 325.465 156.132 326.111L156.132 326.21L152.109 326.21L152.109 326.111C152.258 325.465 152.283 325.168 152.283 323.603L152.283 313.994L141.606 326.21L140.812 326.21C141.01 325.466 141.01 325.093 141.01 323.852L141.01 311.437C141.01 309.872 140.985 309.574 140.886 308.929L140.886 308.829ZM159.942 308.829L170.818 308.829L170.818 310.121L170.718 310.121C170.073 309.872 169.7 309.872 168.459 309.872L163.791 309.872L163.791 314.118L168.881 314.118L168.881 315.161L163.791 315.161L163.791 325.168L169.378 325.168C170.694 325.168 170.992 325.143 171.637 324.994L171.737 324.994L171.737 326.21L159.942 326.21L159.942 326.111C160.042 325.465 160.066 325.168 160.066 323.603L160.066 311.437C160.066 309.872 160.042 309.574 159.942 308.929L159.942 308.829ZM184.14 308.829L198.79 308.829L198.79 308.929C198.69 309.574 198.665 309.872 198.665 311.437L198.665 323.603C198.665 325.168 198.69 325.465 198.79 326.111L198.79 326.21L194.767 326.21L194.767 326.111C194.916 325.465 194.941 325.168 194.941 323.603L194.941 309.872L187.989 309.872L187.989 323.603C187.989 325.168 188.013 325.465 188.162 326.111L188.162 326.21L184.14 326.21L184.14 326.111C184.239 325.465 184.264 325.168 184.264 323.603L184.264 311.437C184.264 309.872 184.239 309.574 184.14 308.929L184.14 308.829ZM202.519 308.829L213.394 308.829L213.394 310.121L213.295 310.121C212.65 309.872 212.277 309.872 211.036 309.872L206.368 309.872L206.368 314.118L211.458 314.118L211.458 315.161L206.368 315.161L206.368 325.168L211.954 325.168C213.27 325.168 213.568 325.143 214.214 324.994L214.313 324.994L214.313 326.21L202.519 326.21L202.519 326.111C202.618 325.465 202.643 325.168 202.643 323.603L202.643 311.437C202.643 309.872 202.618 309.574 202.519 308.929L202.519 308.829ZM223.473 308.829C227.769 308.829 230.476 310.89 230.476 314.317C230.476 318.19 226.95 320.177 223.25 320.177C222.803 320.177 222.331 320.127 221.884 320.077L221.884 319.332L222.207 319.332C224.864 319.332 226.751 317.57 226.751 314.515C226.751 311.536 225.311 309.872 222.654 309.872L220.891 309.872L220.891 323.603C220.891 325.168 220.916 325.465 221.015 326.111L221.015 326.21L217.043 326.21L217.043 326.111C217.142 325.465 217.167 325.168 217.167 323.603L217.167 311.437C217.167 309.872 217.142 309.574 217.043 308.929L217.043 308.829L223.473 308.829ZM232.209 308.829L236.232 308.829L236.232 308.929C236.083 309.574 236.058 309.872 236.058 311.437L236.058 314.863C236.058 316.899 237.15 318.339 239.112 318.339C240.229 318.339 241.322 318.016 242.265 317.247L242.265 311.437C242.265 309.872 242.241 309.574 242.092 308.929L242.092 308.829L246.114 308.829L246.114 308.929C246.015 309.574 245.99 309.872 245.99 311.437L245.99 323.603C245.99 325.168 246.015 325.465 246.114 326.111L246.114 326.21L242.092 326.21L242.092 326.111C242.241 325.465 242.265 325.168 242.265 323.603L242.265 318.414C240.974 319.481 239.534 319.879 238.044 319.879C234.196 319.879 232.333 317.719 232.333 315.062L232.333 311.437C232.333 309.872 232.309 309.574 232.209 308.929L232.209 308.829ZM254.889 308.829C255.783 308.829 256.999 308.656 257.645 308.134L263.132 323.603C263.852 325.664 264.026 325.962 264.101 326.111L264.101 326.21L259.681 326.21L259.681 326.111C259.681 325.962 259.88 325.664 259.159 323.603L258.588 321.94L250.941 321.94L250.32 323.603C249.525 325.664 249.65 325.962 249.65 326.111L249.65 326.21L248.085 326.21L248.085 326.111C248.16 325.962 248.358 325.664 249.153 323.603L254.889 308.829ZM251.338 320.897L258.216 320.897L254.938 311.461L251.338 320.897ZM265.357 308.829L276.779 308.829L276.779 310.046L276.68 310.046C276.034 309.897 275.736 309.872 274.42 309.872L272.93 309.872L272.93 323.603C272.93 325.118 272.955 325.391 273.079 325.987L273.104 326.111L273.104 326.21L269.032 326.21L269.032 326.111L269.057 325.987C269.181 325.391 269.206 325.118 269.206 323.603L269.206 309.872L267.716 309.872C266.4 309.872 266.102 309.897 265.457 310.046L265.357 310.046L265.357 308.829ZM279.138 308.829L283.16 308.829L283.16 308.929C283.011 309.574 282.987 309.872 282.987 311.437L282.987 316.154L288.027 311.437C289.542 310.021 290.386 309.152 290.386 308.929L290.386 308.829L292.347 308.829L292.347 308.929C291.677 309.4 291.056 310.021 289.542 311.437L287.878 313.026L292.397 323.082C293.217 324.919 293.738 325.465 294.259 325.912L294.259 326.21C292.099 326.806 289.442 325.838 288.3 323.107L285.122 315.509L282.987 317.495L282.987 323.603C282.987 325.167 283.011 325.465 283.16 326.111L283.16 326.21L279.138 326.21L279.138 326.111C279.237 325.465 279.262 325.167 279.262 323.603L279.262 311.437C279.262 309.872 279.237 309.574 279.138 308.929L279.138 308.829ZM295.821 308.829L299.844 308.829L299.844 308.929C299.695 309.574 299.67 309.872 299.67 311.436L299.67 321.046L310.347 308.829L311.141 308.829C310.943 309.574 310.943 309.947 310.943 313.795L310.943 323.603C310.943 325.167 310.968 325.465 311.067 326.111L311.067 326.21L307.045 326.21L307.045 326.111C307.193 325.465 307.218 325.167 307.218 323.603L307.218 313.994L296.541 326.21L295.747 326.21C295.945 325.465 295.945 325.093 295.945 323.851L295.945 311.436C295.945 309.872 295.921 309.574 295.821 308.929L295.821 308.829Z" fill="#F6F1FF"/>
<path opacity="0.5" d="M110.655 346.852L110.655 339.196L109.029 340.174L109.029 339.184L110.655 338.212L111.549 338.212L111.549 346.852L110.655 346.852ZM116.626 347.026C115.342 347.026 114.31 346.306 113.944 345.136L114.784 344.884C115.072 345.742 115.786 346.192 116.614 346.174C117.766 346.15 118.468 345.376 118.468 344.218C118.468 343.042 117.718 342.262 116.602 342.262C116.29 342.262 115.924 342.358 115.63 342.502L115.186 341.8L118.15 339.058L114.286 339.058L114.286 338.212L119.278 338.212L119.278 339.07L116.752 341.488C118.318 341.476 119.38 342.604 119.38 344.218C119.38 345.88 118.216 347.026 116.626 347.026ZM125.221 346.852L125.221 345.178L121.177 345.178L121.177 344.338L124.069 338.212L125.059 338.212L122.167 344.338L125.221 344.338L125.221 341.818L126.109 341.818L126.109 344.338L127.051 344.338L127.051 345.178L126.109 345.178L126.109 346.852L125.221 346.852ZM130.655 342.352C129.467 342.352 128.495 341.392 128.495 340.192C128.495 339.016 129.503 338.032 130.655 338.032C131.843 338.032 132.815 338.992 132.815 340.192C132.815 341.392 131.843 342.352 130.655 342.352ZM130.655 341.554C131.393 341.554 132.017 340.93 132.017 340.192C132.017 339.454 131.393 338.83 130.655 338.83C129.917 338.83 129.293 339.454 129.293 340.192C129.293 340.93 129.917 341.554 130.655 341.554ZM137.678 347.032C136.076 347.032 134.858 345.814 134.858 344.212L134.858 340.852C134.858 339.25 136.076 338.032 137.678 338.032C139.28 338.032 140.498 339.25 140.498 340.852L140.498 344.212C140.498 345.814 139.28 347.032 137.678 347.032ZM137.678 346.18C138.74 346.18 139.604 345.316 139.604 344.254L139.604 340.81C139.604 339.742 138.74 338.878 137.678 338.878C136.616 338.878 135.752 339.742 135.752 340.81L135.752 344.254C135.752 345.316 136.616 346.18 137.678 346.18ZM145.482 347.032C143.88 347.032 142.662 345.814 142.662 344.212L142.662 340.852C142.662 339.25 143.88 338.032 145.482 338.032C147.084 338.032 148.302 339.25 148.302 340.852L148.302 344.212C148.302 345.814 147.084 347.032 145.482 347.032ZM145.482 346.18C146.544 346.18 147.408 345.316 147.408 344.254L147.408 340.81C147.408 339.742 146.544 338.878 145.482 338.878C144.42 338.878 143.556 339.742 143.556 340.81L143.556 344.254C143.556 345.316 144.42 346.18 145.482 346.18ZM150.982 338.134L151.87 338.134L151.03 341.014L150.424 341.014L150.982 338.134ZM152.506 338.134L153.394 338.134L152.554 341.014L151.948 341.014L152.506 338.134ZM158.173 343.45L158.173 342.694L163.213 342.694L163.213 343.45L158.173 343.45ZM170.458 347.026C169.174 347.026 168.142 346.306 167.776 345.136L168.616 344.884C168.904 345.742 169.618 346.192 170.446 346.174C171.598 346.15 172.3 345.376 172.3 344.218C172.3 343.042 171.55 342.262 170.434 342.262C170.122 342.262 169.756 342.358 169.462 342.502L169.018 341.8L171.982 339.058L168.118 339.058L168.118 338.212L173.11 338.212L173.11 339.07L170.584 341.488C172.15 341.476 173.212 342.604 173.212 344.218C173.212 345.88 172.048 347.026 170.458 347.026ZM178.069 347.032C176.467 347.032 175.249 345.814 175.249 344.212L175.249 340.852C175.249 339.25 176.467 338.032 178.069 338.032C179.671 338.032 180.889 339.25 180.889 340.852L180.889 344.212C180.889 345.814 179.671 347.032 178.069 347.032ZM178.069 346.18C179.131 346.18 179.995 345.316 179.995 344.254L179.995 340.81C179.995 339.742 179.131 338.878 178.069 338.878C177.007 338.878 176.143 339.742 176.143 340.81L176.143 344.254C176.143 345.316 177.007 346.18 178.069 346.18ZM184.733 342.352C183.545 342.352 182.573 341.392 182.573 340.192C182.573 339.016 183.581 338.032 184.733 338.032C185.921 338.032 186.893 338.992 186.893 340.192C186.893 341.392 185.921 342.352 184.733 342.352ZM184.733 341.554C185.471 341.554 186.095 340.93 186.095 340.192C186.095 339.454 185.471 338.83 184.733 338.83C183.995 338.83 183.371 339.454 183.371 340.192C183.371 340.93 183.995 341.554 184.733 341.554ZM191.756 347.032C190.154 347.032 188.936 345.814 188.936 344.212L188.936 340.852C188.936 339.25 190.154 338.032 191.756 338.032C193.358 338.032 194.576 339.25 194.576 340.852L194.576 344.212C194.576 345.814 193.358 347.032 191.756 347.032ZM191.756 346.18C192.818 346.18 193.682 345.316 193.682 344.254L193.682 340.81C193.682 339.742 192.818 338.878 191.756 338.878C190.694 338.878 189.83 339.742 189.83 340.81L189.83 344.254C189.83 345.316 190.694 346.18 191.756 346.18ZM199.56 347.032C197.958 347.032 196.74 345.814 196.74 344.212L196.74 340.852C196.74 339.25 197.958 338.032 199.56 338.032C201.162 338.032 202.38 339.25 202.38 340.852L202.38 344.212C202.38 345.814 201.162 347.032 199.56 347.032ZM199.56 346.18C200.622 346.18 201.486 345.316 201.486 344.254L201.486 340.81C201.486 339.742 200.622 338.878 199.56 338.878C198.498 338.878 197.634 339.742 197.634 340.81L197.634 344.254C197.634 345.316 198.498 346.18 199.56 346.18ZM205.06 338.134L205.948 338.134L205.108 341.014L204.502 341.014L205.06 338.134ZM206.584 338.134L207.472 338.134L206.632 341.014L206.026 341.014L206.584 338.134Z" fill="#F6F1FF"/>
</svg>
