<svg width="145" height="103" viewBox="0 0 145 103" fill="none" xmlns="http://www.w3.org/2000/svg">
<g opacity="0.1">
<path d="M124.267 66.957C124.267 67.009 124.267 67.0091 124.267 67.0611C124.319 67.0091 124.267 67.009 124.267 66.957Z" fill="white"/>
<path d="M124.267 66.957C124.267 67.009 124.267 67.0091 124.267 67.0611C124.319 67.0091 124.267 67.009 124.267 66.957Z" fill="white"/>
<path d="M143.096 72.3667C140.34 67.4251 135.918 64.6162 130.768 62.8997C116.984 58.7384 120.469 63.3678 120.365 48.8552C120.365 44.2777 120.365 39.7002 120.209 35.1228C120.157 32.782 118.909 30.9615 116.984 29.557C113.603 27.1642 109.962 25.5517 105.905 24.8235C104.396 24.5114 103.564 23.8872 103.824 22.1706C105.384 9.84268 91.2878 9.73865 87.7507 19.7779C87.4386 20.5581 86.2942 21.4424 85.566 21.4424C84.6297 21.4424 83.5374 20.7662 82.7571 20.0379C82.1849 19.5698 81.9769 18.6335 81.7168 17.9573C80.5204 14.5762 78.0756 12.4955 74.7986 11.2991C73.03 10.6229 72.6659 9.11445 73.8623 7.71C74.3824 7.03378 75.2147 6.66966 75.7869 6.04546C76.4111 5.42126 77.2433 4.74505 77.3994 3.9648C77.7635 1.31195 76.9312 0.115562 74.1223 0.583712C70.2211 1.41598 70.9493 6.20151 70.7933 9.2705C70.7413 10.3108 70.6372 10.987 69.5449 11.3512C66.2158 12.4435 63.9791 14.6282 62.6267 17.8532C62.5226 18.0613 62.4706 18.3734 62.2625 18.4774C61.0662 18.9976 59.8698 19.7258 58.5694 19.9859C58.2573 20.0379 57.6331 18.7375 57.1649 18.0613C56.1246 16.5528 55.2923 14.7843 53.9919 13.5359C48.7382 8.85436 39.5313 12.1314 40.9357 20.8182C41.3518 22.8989 40.4155 23.471 38.595 24.1473C35.474 25.3957 32.405 26.8521 29.5441 28.6207C26.7352 30.2852 25.3307 33.0941 25.2267 36.3712C24.9146 43.9656 24.7065 51.5601 24.6025 59.1545C24.5505 61.9634 24.4984 62.0154 21.8456 62.7436C15.2915 64.5642 9.15352 67.113 4.36799 72.1587C-0.365527 77.2563 -0.677627 82.9781 3.48371 88.5959C6.86479 93.1734 11.7544 95.3061 16.904 96.6585C31.1566 100.404 45.8773 101.184 60.494 102.484C66.0598 102.484 71.6255 102.484 77.3474 102.432C95.5012 100.664 114.123 100.664 131.341 93.7456C135.606 92.1331 139.351 89.6883 142.056 85.9431C145.177 81.6257 145.749 77.1523 143.096 72.3667ZM124.318 67.009V66.957C124.266 67.009 124.318 67.009 124.318 67.009ZM29.6481 32.1578C30.6364 31.2736 31.7288 30.5453 32.7691 29.7651C34.2776 32.2619 35.2659 32.834 36.7224 32.2099C38.1268 31.6377 38.3349 30.7014 37.6587 27.9445C38.9071 27.4243 40.1555 26.7481 41.4559 26.488C42.1321 26.332 43.0684 26.9042 43.7966 27.3203C45.5652 28.2566 47.2297 29.7131 49.1023 30.1812C52.8475 31.1175 56.0726 28.8288 57.373 25.0315C57.7891 23.6791 60.2339 22.4827 61.5343 23.0549C61.8984 23.211 62.1065 23.7831 62.3146 24.1993C63.9791 28.4647 67.4642 30.2332 71.6776 30.4413C75.6828 30.6494 79.0639 28.9848 81.0406 25.3437C81.8208 23.8352 82.8091 23.5231 84.2136 23.8352C85.67 24.1473 87.2825 23.9912 87.7507 26.1759C88.687 30.3893 92.4842 32.4179 96.4895 31.0135C98.102 30.4413 99.6625 29.453 100.911 28.3086C102.003 27.2683 102.94 26.9562 104.24 27.5283C104.812 27.7364 105.384 27.9445 106.009 28.0485C107.517 28.3606 108.453 28.9328 108.245 30.8054C108.193 31.5336 109.13 32.834 109.858 32.9901C110.69 33.1982 111.73 32.4179 112.615 31.9498C112.875 31.7937 112.927 31.3256 113.343 30.5453C114.071 31.3776 114.903 31.9498 114.955 32.574C115.007 33.0421 114.123 33.8224 113.447 34.0824C110.742 35.0187 107.985 35.799 105.228 36.6833C104.344 33.2502 103.356 32.4179 101.483 32.9901C99.9746 33.4583 99.5065 34.9667 100.235 37.3595C97.7379 37.6716 95.2411 37.9837 93.0044 38.2438C92.4842 36.9434 92.0681 35.799 91.4959 34.8627C91.2358 34.4986 90.4035 34.3946 89.8314 34.3946C88.1148 34.4466 87.4906 35.5389 87.4386 38.7119C84.9938 38.868 82.549 38.972 80.1563 39.0761C80.5724 36.9954 79.7922 35.0187 78.0236 34.9667C76.203 34.7066 75.5788 37.4635 75.9949 39.1801C73.2901 39.2321 70.5852 39.2321 67.8803 39.1281C68.0364 36.7873 67.1521 34.9667 65.7477 34.9147C64.3952 34.8107 63.4589 36.5793 63.4069 38.972C61.1182 38.868 58.8294 38.7119 56.5407 38.5559C56.5407 38.5039 56.5407 38.3998 56.5407 38.3478C56.5927 36.0591 55.5004 34.2905 53.6278 34.2905C52.6915 34.3425 52.0673 36.0071 52.0153 38.1918C49.7785 37.9837 47.5938 37.7236 45.4091 37.4115C44.889 35.695 44.7329 34.1865 44.0047 33.0941C43.6926 32.626 41.872 32.574 41.2478 33.0421C40.4676 33.6143 40.1555 34.9147 39.4272 36.3192C36.5143 36.3192 33.1852 35.4349 29.9602 34.1345C28.8678 33.5103 29.0239 32.678 29.6481 32.1578ZM27.4634 56.1895C27.6194 53.0165 29.284 50.2076 30.5324 47.3987C30.8965 46.6705 31.6767 46.1503 32.2489 45.5781C33.6534 47.5548 33.6014 49.8955 34.0175 52.1843C34.4336 56.1375 38.0748 58.8944 41.5599 56.0855C43.9527 54.0569 45.8253 51.456 48.114 49.3233C48.6862 48.8032 49.6745 48.387 50.3507 48.5951C50.8189 48.7512 51.235 49.7395 51.3911 50.4677C51.7032 51.8201 51.8072 53.2246 52.1713 54.577C53.3157 59.1025 57.321 60.2989 60.65 57.1258C61.8464 55.9815 62.7307 54.525 63.771 53.1726C64.3952 52.2883 64.8634 51.3 65.5916 50.4677C66.1638 49.8435 67.0481 49.5314 67.7763 49.1153C68.1404 49.7395 68.6086 50.3637 68.8686 51.0919C70.065 54.7331 70.8453 58.6343 75.4228 58.9464C79.7401 59.2065 81.0406 53.2766 83.0692 50.4157C83.4333 49.8435 84.2656 49.1673 84.8378 49.1673C85.3579 49.2193 85.9301 50.1036 86.1902 50.7798C86.8664 52.3403 87.2826 54.0048 88.0628 55.5133C90.0394 59.4146 93.9927 59.7787 96.5415 56.1375C97.5298 54.7331 98.154 53.0685 98.8823 51.456C99.6625 50.0516 99.7665 47.9709 101.431 47.3467C101.639 47.2947 102.211 48.0229 102.471 48.4391C103.2 49.7915 103.72 51.1959 104.448 52.4964C107.205 57.3339 111.834 57.594 115.268 53.1726C115.788 52.5484 116.204 51.8201 116.932 50.8318C116.932 53.4327 117.088 55.5653 116.984 57.646C116.776 59.4146 115.268 59.8827 113.759 59.9868C96.2814 61.5473 78.6998 61.4952 61.1182 61.2872C50.6628 60.9751 40.2595 59.7787 29.8041 59.0505C27.9836 58.8944 27.3073 57.9061 27.4634 56.1895ZM116.308 65.1884C116.204 66.6449 116.152 68.1014 115.996 69.5578C115.944 70.078 115.684 70.5461 115.32 71.5345C114.435 70.026 113.811 69.0377 113.083 67.9973C111.106 64.4602 106.997 64.4602 105.02 67.9453C103.928 70.13 103.564 71.8986 102.523 74.3434C101.067 72.5228 100.859 71.1703 99.9746 69.2457C98.4661 66.1247 95.033 65.7086 93.0044 68.5175C92.0681 69.8179 91.5479 71.4304 90.8197 72.8869C90.6116 73.355 90.3515 73.7712 89.8834 74.6555C89.1031 72.8349 88.583 71.4304 87.9588 70.026C87.2826 68.4655 86.0862 67.5812 84.2656 67.5812C82.341 67.6332 81.3526 68.8296 80.6244 70.3381C79.8442 71.8986 79.1159 73.4591 78.3877 75.0196H77.8155C77.5554 74.2913 77.2433 73.5631 77.0353 72.8349C76.3591 70.6502 75.9949 68.1534 73.03 67.8413C70.065 67.5812 69.0767 69.8699 67.9324 72.0026C67.4642 72.8869 66.944 73.8232 66.4239 74.7075C66.2678 74.6555 66.1118 74.6555 65.9037 74.6034C65.4876 73.199 65.0714 71.7425 64.5513 70.3381C63.1988 66.5409 59.9218 65.9687 57.373 69.0897C56.2806 70.3901 55.5524 71.9506 54.5641 73.355C54.304 73.7712 53.7838 73.9272 53.3157 74.2393C52.2753 72.8349 52.2753 71.0143 51.6511 69.4018C50.5068 66.1767 47.3338 65.2404 44.7329 67.4772C42.8083 69.0897 41.6639 71.6385 39.3752 72.8869C39.0111 72.3147 38.4389 71.7945 38.2308 71.1703C37.8667 69.974 37.7107 68.7256 37.3986 67.4772C36.3582 63.836 33.1332 62.8997 30.2723 65.3445C29.6481 65.9167 29.0759 66.4368 28.3997 67.009C28.1916 66.6969 28.0356 66.5409 27.9836 66.3848C26.9432 62.2755 27.2553 61.8594 31.5207 62.3275C58.9335 65.2925 86.5023 65.2404 114.019 63.2118C115.892 63.0557 116.464 63.6279 116.308 65.1884ZM125.359 79.1809C123.954 80.3253 122.498 81.6257 120.833 82.0418C101.171 87.8157 80.6764 88.6479 60.2859 88.1798C55.1883 88.1278 10.0898 86.5153 19.973 76.372C20.8053 75.5918 21.8456 75.0196 22.7819 74.4474C24.1863 73.6151 25.3307 73.303 26.267 75.3837C26.7872 76.5281 28.3997 77.3603 29.7001 77.7244C51.183 84.0185 73.8102 84.9027 96.0214 82.718C101.015 82.1979 105.957 80.7414 110.898 79.7531C114.539 78.4007 118.753 77.1002 118.857 72.1587C121.666 72.5228 123.954 73.5111 125.671 75.4357C126.815 76.6841 126.555 78.1926 125.359 79.1809Z" fill="white"/>
</g>
<path fill-rule="evenodd" clip-rule="evenodd" d="M91.927 26.587C91.6135 26.9476 91.2505 27.2641 90.8485 27.5259L108.208 60.4861L81.0068 76.8896C81.1951 77.3274 81.3242 77.7966 81.3841 78.2872L109.489 61.3387L110.051 60.9996L109.745 60.4186L91.927 26.587ZM82.9628 22.5244H51.8448V23.9161H82.9628C82.932 23.6886 82.9161 23.4563 82.9161 23.2203C82.9161 22.9843 82.932 22.752 82.9628 22.5244ZM71.371 77.4335C71.2342 77.8877 71.1586 78.3685 71.1538 78.8662L33.292 61.3745L33.8757 60.1111L71.371 77.4335Z" fill="white"/>
<circle cx="76.1282" cy="78.866" r="2.30251" fill="white"/>
<circle cx="88.2437" cy="23.7627" r="2.54492" fill="white"/>
<path d="M52.4937 13.5469L54.6655 20.231H61.6937L56.0078 24.3621L58.1796 31.0462L52.4937 26.9152L46.8078 31.0462L48.9796 24.3621L43.2938 20.231H50.3219L52.4937 13.5469Z" fill="white"/>
<path d="M99.6357 58.6178L106.612 57.7694L107.961 50.872L110.924 57.2451L117.901 56.3968L112.755 61.1839L115.718 67.557L109.575 64.1426L104.43 68.9297L105.779 62.0323L99.6357 58.6178Z" fill="white"/>
<path d="M27.9013 60.0573L33.3315 59.397L34.3815 54.0285L36.6875 58.9889L42.1177 58.3285L38.1127 62.0545L40.4187 67.0149L35.6375 64.3573L31.6325 68.0833L32.6825 62.7148L27.9013 60.0573Z" fill="white"/>
</svg>
