<svg width="263" height="220" viewBox="0 0 263 220" fill="none" xmlns="http://www.w3.org/2000/svg">
<path opacity="0.8" d="M182.72 40.9144L178.747 40.9144L178.747 40.8151C178.822 40.2936 178.847 39.9956 178.871 39.2259C173.781 38.6051 170.354 35.5509 170.354 31.404C170.354 27.2821 173.781 24.2278 178.871 23.6319C178.847 22.8621 178.822 22.5641 178.747 22.0427L178.747 21.9434L182.72 21.9434L182.72 22.0427C182.646 22.5641 182.621 22.8621 182.596 23.6319C187.686 24.2527 191.113 27.3069 191.113 31.4537C191.113 35.5757 187.686 38.6299 182.596 39.2259C182.621 39.9956 182.646 40.2936 182.72 40.8151L182.72 40.9144ZM187.264 31.1806C187.264 27.7042 185.551 25.2956 182.596 24.6251L182.596 38.2078C185.551 37.4629 187.264 34.9052 187.264 31.1806ZM178.871 24.65C175.916 25.3949 174.203 27.9525 174.203 31.6772C174.203 35.1536 175.916 37.5622 178.871 38.2326L178.871 24.65ZM159.051 21.5461C164.166 21.5461 168.238 25.6184 168.238 30.7336C168.238 35.8488 164.166 39.9211 159.051 39.9211C153.936 39.9212 149.863 35.8488 149.863 30.7336C149.863 25.6184 153.936 21.5461 159.051 21.5461ZM164.116 30.3611C164.116 25.7674 162.08 22.589 159.15 22.589C155.55 22.589 153.687 26.9593 153.687 31.1557C153.687 35.675 155.748 38.8782 158.703 38.8782C162.254 38.8782 164.116 34.5328 164.116 30.3611ZM147.137 39.3252L135.714 39.3252L135.714 38.1085L135.814 38.1085C136.459 38.2575 136.757 38.2823 138.073 38.2823L139.563 38.2823L139.563 24.5506C139.563 23.0359 139.538 22.7628 139.414 22.1669L139.389 22.0427L139.389 21.9434L143.462 21.9434L143.462 22.0427L143.437 22.1669C143.313 22.7628 143.288 23.0359 143.288 24.5506L143.288 38.2823L144.778 38.2823C146.094 38.2823 146.392 38.2575 147.037 38.1085L147.137 38.1085L147.137 39.3252ZM124.789 21.5461C129.904 21.5461 133.976 25.6184 133.976 30.7336C133.976 35.8488 129.904 39.9212 124.789 39.9212C119.673 39.9212 115.601 35.8488 115.601 30.7336C115.601 25.6184 119.673 21.5461 124.789 21.5461ZM129.854 30.3611C129.854 25.7674 127.818 22.589 124.888 22.589C121.287 22.589 119.425 26.9593 119.425 31.1557C119.425 35.675 121.486 38.8782 124.441 38.8782C127.992 38.8782 129.854 34.5328 129.854 30.3611ZM107.461 39.3252C106.567 39.3252 105.351 39.499 104.705 40.0205L99.2174 24.5507C98.4973 22.4897 98.3235 22.1917 98.249 22.0427L98.249 21.9434L102.669 21.9434L102.669 22.0427C102.669 22.1917 102.47 22.4897 103.19 24.5507L103.762 26.2143L111.41 26.2143L112.03 24.5507C112.825 22.4897 112.701 22.1917 112.701 22.0427L112.701 21.9434L114.265 21.9434L114.265 22.0427C114.191 22.1917 113.992 22.4897 113.197 24.5507L107.461 39.3252ZM111.012 27.2573L104.134 27.2573L107.412 36.6931L111.012 27.2573ZM96.6198 39.3252L81.9694 39.3252L81.9694 39.2259C82.0687 38.5803 82.0936 38.2823 82.0936 36.7179L82.0936 24.5507C82.0936 22.9863 82.0687 22.6883 81.9694 22.0427L81.9694 21.9434L85.9921 21.9434L85.9921 22.0427C85.8431 22.6883 85.8183 22.9863 85.8183 24.5507L85.8183 38.2823L92.771 38.2823L92.771 24.5507C92.771 22.9863 92.7462 22.6883 92.5972 22.0427L92.5972 21.9434L96.6198 21.9434L96.6198 22.0427C96.5205 22.6883 96.4957 22.9863 96.4957 24.5507L96.4957 36.7179C96.4957 38.2823 96.5205 38.5803 96.6198 39.2259L96.6198 39.3252ZM78.2399 39.3252L63.5895 39.3252L63.5895 39.2259C63.6888 38.5803 63.7137 38.2823 63.7137 36.7179L63.7136 24.5507C63.7136 22.9863 63.6888 22.6883 63.5895 22.0427L63.5895 21.9434L67.6121 21.9434L67.6121 22.0427C67.4632 22.6883 67.4383 22.9863 67.4383 24.5507L67.4383 38.2823L74.3911 38.2823L74.3911 24.5507C74.3911 22.9863 74.3662 22.6883 74.2172 22.0427L74.2172 21.9434L78.2399 21.9434L78.2399 22.0427C78.1406 22.6883 78.1157 22.9863 78.1157 24.5507L78.1157 36.7179C78.1157 38.2823 78.1406 38.5803 78.2399 39.2259L78.2399 39.3252ZM54.8192 39.3252C53.9253 39.3252 52.7086 39.499 52.063 40.0205L46.5753 24.5507C45.8552 22.4897 45.6813 22.1917 45.6069 22.0427L45.6069 21.9434L50.0268 21.9434L50.0268 22.0427C50.0268 22.1917 49.8282 22.4897 50.5483 24.5507L51.1194 26.2144L58.7674 26.2144L59.3882 24.5507C60.1828 22.4897 60.0586 22.1917 60.0586 22.0427L60.0586 21.9434L61.623 21.9434L61.623 22.0427C61.5485 22.1917 61.3498 22.4897 60.5552 24.5507L54.8192 39.3252ZM58.3701 27.2573L51.4918 27.2573L54.7696 36.6931L58.3701 27.2573ZM37.5464 39.3252C33.2506 39.3252 30.544 37.2642 30.544 33.8375C30.544 29.9639 34.0701 27.9774 37.7699 27.9774C38.2169 27.9774 38.6887 28.027 39.1356 28.0767L39.1356 28.8216L38.8128 28.8216C36.1559 28.8216 34.2687 30.5847 34.2687 33.6389C34.2687 36.6186 35.7089 38.2823 38.3658 38.2823L40.1289 38.2823L40.1289 24.5507C40.1289 22.9863 40.104 22.6883 40.0047 22.0427L40.0047 21.9434L43.9777 21.9434L43.9777 22.0427C43.8784 22.6883 43.8535 22.9863 43.8535 24.5507L43.8535 36.718C43.8535 38.2823 43.8784 38.5803 43.9777 39.2259L43.9777 39.3252L37.5464 39.3252ZM23.273 39.3252C22.379 39.3252 21.1623 39.4991 20.5167 40.0205L15.029 24.5507C14.3089 22.4897 14.1351 22.1917 14.0606 22.0427L14.0606 21.9434L18.4805 21.9434L18.4805 22.0427C18.4805 22.1917 18.2819 22.4897 19.002 24.5507L19.5731 26.2144L27.2211 26.2144L27.8419 24.5507C28.6365 22.4897 28.5123 22.1917 28.5123 22.0427L28.5123 21.9434L30.0767 21.9434L30.0767 22.0427C30.0022 22.1917 29.8036 22.4897 29.009 24.5507L23.273 39.3252ZM26.8238 27.2573L19.9456 27.2573L23.2233 36.6931L26.8238 27.2573ZM12.8039 39.3252L1.38156 39.3252L1.38156 38.1085L1.48088 38.1085C2.12649 38.2575 2.42446 38.2823 3.74052 38.2823L5.23039 38.2823L5.23039 24.5507C5.23039 23.036 5.20555 22.7628 5.0814 22.1669L5.05657 22.0427L5.05657 21.9434L9.12888 21.9434L9.12888 22.0427L9.10405 22.1669C8.97989 22.7628 8.95506 23.036 8.95506 24.5507L8.95507 38.2823L10.4449 38.2823C11.761 38.2823 12.059 38.2575 12.7046 38.1085L12.8039 38.1085L12.8039 39.3252Z" fill="#F6F1FF"/>
<path opacity="0.5" d="M142.039 4.56736L145.111 1.79536L140.815 1.79536L140.815 0.949361L146.455 0.94936L146.449 1.75336L142.543 5.28136C141.877 5.88136 141.709 6.40936 141.709 7.00936C141.709 8.07736 142.531 8.91736 143.593 8.91736C144.697 8.91736 145.513 8.02936 145.501 7.01536L146.401 7.01536C146.401 8.59336 145.183 9.76336 143.581 9.76336C142.009 9.76336 140.815 8.54536 140.815 7.00336C140.815 5.91736 141.199 5.31736 142.039 4.56736ZM136.491 0.943362L137.385 0.943362L137.385 8.59936L139.011 7.62136L139.011 8.61136L137.385 9.58336L136.491 9.58336L136.491 0.943362ZM130.73 6.51136C129.128 6.51136 127.886 5.25136 127.886 3.64936C127.886 2.05336 129.212 0.763364 130.814 0.763364C132.44 0.763363 133.736 2.05936 133.736 3.74536L133.736 6.73936C133.736 8.47336 132.458 9.75736 130.748 9.75736C129.764 9.75736 128.882 9.30136 128.342 8.52736L129.02 7.96936C129.386 8.53936 130.034 8.91736 130.748 8.91736C131.966 8.91736 132.842 7.93336 132.842 6.81736L132.842 5.49136C132.332 6.10936 131.57 6.51136 130.73 6.51136ZM130.814 1.62136C129.686 1.62136 128.774 2.52136 128.774 3.64936C128.774 4.77736 129.68 5.68936 130.808 5.68936C131.936 5.68936 132.842 4.77736 132.842 3.64936C132.842 2.53336 131.942 1.62136 130.814 1.62136ZM124.134 5.44337C125.322 5.44337 126.294 6.40336 126.294 7.60336C126.294 8.77937 125.286 9.76337 124.134 9.76337C122.946 9.76337 121.974 8.80337 121.974 7.60337C121.974 6.40337 122.946 5.44337 124.134 5.44337ZM124.134 6.24137C123.396 6.24137 122.772 6.86537 122.772 7.60337C122.772 8.34137 123.396 8.96537 124.134 8.96537C124.872 8.96537 125.496 8.34137 125.496 7.60336C125.496 6.86537 124.872 6.24137 124.134 6.24137ZM117.112 0.763367C118.714 0.763367 119.932 1.98137 119.932 3.58337L119.932 6.94337C119.932 8.54537 118.714 9.76337 117.112 9.76337C115.51 9.76337 114.292 8.54537 114.292 6.94337L114.292 3.58337C114.292 1.98137 115.51 0.763367 117.112 0.763367ZM117.112 1.61537C116.05 1.61537 115.186 2.47937 115.186 3.54137L115.186 6.98537C115.186 8.05337 116.05 8.91737 117.112 8.91737C118.174 8.91737 119.038 8.05337 119.038 6.98537L119.038 3.54137C119.038 2.47937 118.174 1.61537 117.112 1.61537ZM109.308 0.763369C110.91 0.763369 112.128 1.98137 112.128 3.58337L112.128 6.94337C112.128 8.54537 110.91 9.76337 109.308 9.76337C107.706 9.76337 106.488 8.54537 106.488 6.94337L106.488 3.58337C106.488 1.98137 107.706 0.763369 109.308 0.763369ZM109.308 1.61537C108.246 1.61537 107.382 2.47937 107.382 3.54137L107.382 6.98537C107.382 8.05337 108.246 8.91737 109.308 8.91737C110.37 8.91737 111.234 8.05337 111.234 6.98537L111.234 3.54137C111.234 2.47937 110.37 1.61537 109.308 1.61537ZM104.365 6.78137L103.807 9.66137L102.919 9.66137L103.759 6.78137L104.365 6.78137ZM102.841 6.78137L102.283 9.66137L101.395 9.66137L102.235 6.78137L102.841 6.78137ZM91.5762 4.34537L96.6162 4.34537L96.6162 5.10137L91.5762 5.10137L91.5762 4.34537ZM83.8094 9.75738C82.1834 9.75738 80.8874 8.46138 80.8874 6.77538L80.8874 3.78138C80.8874 2.04738 82.1654 0.763376 83.8754 0.763375C84.8594 0.763375 85.7414 1.21937 86.2814 1.99337L85.6034 2.55137C85.2374 1.98138 84.5894 1.60338 83.8754 1.60338C82.6574 1.60338 81.7814 2.58738 81.7814 3.70338L81.7814 5.02938C82.2914 4.41138 83.0534 4.00938 83.8934 4.00938C85.4954 4.00938 86.7374 5.26937 86.7374 6.87137C86.7374 8.46738 85.4114 9.75738 83.8094 9.75738ZM83.8154 4.83138C82.6874 4.83138 81.7814 5.74338 81.7814 6.87138C81.7814 7.98738 82.6814 8.89938 83.8094 8.89938C84.9374 8.89938 85.8494 7.99937 85.8494 6.87138C85.8494 5.74337 84.9434 4.83138 83.8154 4.83138ZM75.912 0.763377C77.514 0.763377 78.732 1.98138 78.732 3.58338L78.732 6.94338C78.732 8.54538 77.514 9.76338 75.912 9.76338C74.31 9.76338 73.092 8.54538 73.092 6.94338L73.092 3.58338C73.092 1.98138 74.31 0.763378 75.912 0.763377ZM75.912 1.61538C74.85 1.61538 73.986 2.47938 73.986 3.54138L73.986 6.98538C73.986 8.05338 74.85 8.91738 75.912 8.91738C76.974 8.91738 77.838 8.05338 77.838 6.98538L77.838 3.54138C77.838 2.47938 76.974 1.61538 75.912 1.61538ZM69.2477 5.44338C70.4357 5.44338 71.4077 6.40338 71.4077 7.60338C71.4077 8.77938 70.3997 9.76338 69.2477 9.76338C68.0597 9.76338 67.0877 8.80338 67.0877 7.60338C67.0877 6.40338 68.0597 5.44338 69.2477 5.44338ZM69.2477 6.24138C68.5097 6.24138 67.8857 6.86538 67.8857 7.60338C67.8857 8.34138 68.5097 8.96538 69.2477 8.96538C69.9857 8.96538 70.6097 8.34138 70.6097 7.60338C70.6097 6.86538 69.9857 6.24138 69.2477 6.24138ZM62.2254 0.763381C63.8274 0.76338 65.0454 1.98138 65.0454 3.58338L65.0454 6.94338C65.0454 8.54538 63.8274 9.76338 62.2254 9.76338C60.6234 9.76338 59.4054 8.54538 59.4054 6.94338L59.4054 3.58338C59.4054 1.98138 60.6234 0.763381 62.2254 0.763381ZM62.2254 1.61538C61.1634 1.61538 60.2994 2.47938 60.2994 3.54138L60.2994 6.98538C60.2994 8.05338 61.1634 8.91738 62.2254 8.91738C63.2874 8.91738 64.1514 8.05338 64.1514 6.98538L64.1514 3.54138C64.1514 2.47938 63.2874 1.61538 62.2254 1.61538ZM54.4212 0.763383C56.0232 0.763382 57.2412 1.98138 57.2412 3.58338L57.2412 6.94338C57.2412 8.54538 56.0232 9.76338 54.4212 9.76338C52.8192 9.76338 51.6012 8.54538 51.6012 6.94338L51.6012 3.58338C51.6012 1.98138 52.8192 0.763383 54.4212 0.763383ZM54.4212 1.61538C53.3592 1.61538 52.4952 2.47938 52.4952 3.54138L52.4952 6.98538C52.4952 8.05338 53.3592 8.91738 54.4212 8.91738C55.4832 8.91738 56.3472 8.05338 56.3472 6.98538L56.3472 3.54138C56.3472 2.47938 55.4832 1.61538 54.4212 1.61538ZM49.479 6.78138L48.921 9.66138L48.033 9.66138L48.873 6.78138L49.479 6.78138ZM47.955 6.78138L47.397 9.66138L46.509 9.66139L47.349 6.78138L47.955 6.78138Z" fill="#BBBBBB"/>
<g opacity="0.2">
<path d="M190.197 46.233C191.244 45.9558 192.261 45.4321 193.308 45.4013C204.428 45.1241 215.547 45.1241 226.575 47.0647C232.858 48.1735 238.896 50.0525 244.378 53.4715C252.141 58.3075 256.484 65.3304 257.593 74.2631C258.424 80.8239 258.855 87.4156 259.102 94.0381C259.502 104.634 259.441 115.261 259.841 125.888C260.242 136.976 260.95 148.096 261.535 159.185C261.782 163.774 261.966 168.395 262.213 173.231C261.32 172.954 260.673 172.707 260.026 172.522C255.344 171.136 250.6 171.475 245.826 171.721C232.458 172.43 219.552 175.849 206.584 178.806C195.649 181.301 184.622 182.841 173.441 183.272C163.03 183.642 152.649 183.858 142.238 183.888C132.166 183.888 122.217 182.471 112.298 180.716C99.0225 178.375 85.7467 176.065 72.2861 175.079C62.0597 174.34 51.8026 173.785 41.5762 174.987C30.5182 176.28 20.5999 180.1 13.0225 188.694C11.7904 190.11 10.6815 191.681 9.32625 193.406C9.23384 192.605 9.14142 191.989 9.14142 191.373C9.04901 186.414 8.86421 181.424 8.86421 176.465C8.86421 167.902 9.01821 159.339 8.95661 150.807C8.89501 140.149 9.1414 129.461 8.37135 118.834C7.90931 112.304 5.75315 105.928 4.39786 99.4594C3.5662 95.4551 2.45731 91.4816 2.08768 87.4157C0.886384 75.064 5.90716 67.2094 17.5196 62.6815C23.9265 60.1865 30.6414 59.1392 37.4487 58.4616C50.8785 57.137 64.2775 57.9995 77.7073 58.7696C77.7997 58.7696 77.8921 58.8312 78.0153 58.8928C77.4608 61.5726 76.7832 64.2524 76.3828 66.963C76.1364 68.5647 75.5819 69.7044 74.3806 70.8132C70.6843 74.2631 69.7295 78.8834 69.3906 83.6578C68.9902 89.6334 69.8219 95.5167 70.6227 101.431C71.67 108.946 72.8097 116.431 75.1507 123.67C78.7545 134.79 85.7159 143.075 95.9114 148.681C97.2051 149.39 97.7904 150.252 98.0984 151.669C100.47 163.651 108.048 170.582 119.66 173.416C128.038 175.479 136.509 175.603 144.979 174.093C148.06 173.539 150.924 172.399 153.388 170.489C156.992 167.686 160.535 164.822 163.954 161.803C166.017 160.017 167.773 157.922 167.989 154.965C168.02 154.719 168.358 154.38 168.636 154.287C180.525 150.037 187.209 140.765 191.953 129.769C193.709 125.672 195.31 121.514 196.82 117.325C197.128 116.462 196.789 115.353 196.85 114.398C196.912 113.413 196.85 112.211 197.343 111.472C198.76 109.378 198.729 107.006 199.13 104.727C200.67 95.7323 201.871 86.6764 201.502 77.5281C201.04 66.4701 197.682 56.4286 190.998 47.5575C190.813 47.3111 190.628 47.0647 190.444 46.8182C190.382 46.7874 190.351 46.6642 190.197 46.233ZM248.198 144.369C248.105 142.274 248.013 140.18 247.921 138.085C247.828 135.837 246.504 134.605 244.286 134.636C243.608 134.636 242.961 134.728 242.284 134.759C235.754 135.252 229.224 135.775 222.694 136.237C220.599 136.391 219.213 137.408 219.182 139.502C219.151 143.322 219.213 147.172 219.459 150.992C219.613 153.425 220.815 154.349 223.279 154.411C225.527 154.472 227.776 154.503 230.055 154.441C236.647 154.257 243.115 153.456 249.307 151.053C251.34 150.252 252.233 148.805 251.894 146.895C251.586 145.17 250.539 144.431 248.198 144.369ZM18.1049 102.971C18.2589 106.544 20.4458 109.717 23.4337 110.641C25.1278 111.164 26.7911 110.487 27.438 109.008C28.0848 107.56 27.6844 105.651 26.2983 104.973C24.7582 104.203 24.6041 103.217 25.0662 101.739C25.6206 99.9214 24.7273 98.3197 23.0024 97.7036C21.4623 97.1492 19.8298 97.7961 19.0906 99.4902C18.6285 100.568 18.4129 101.8 18.1049 102.971ZM239.204 106.513C239.142 108.546 240.436 110.055 242.315 110.148C244.286 110.24 245.703 108.7 245.764 106.328C245.826 104.295 244.502 102.786 242.653 102.694C240.651 102.601 239.265 104.11 239.204 106.513ZM241.329 88.1857C239.573 88.0933 238.372 89.1406 238.249 90.8655C238.095 92.9292 239.419 94.531 241.391 94.685C243.085 94.8082 244.409 93.6069 244.502 91.8204C244.594 89.8798 243.177 88.2781 241.329 88.1857ZM240.374 123.023C240.343 125.056 241.668 126.473 243.608 126.535C245.364 126.596 246.596 125.426 246.627 123.639C246.658 121.729 245.21 120.158 243.362 120.097C241.545 120.066 240.405 121.175 240.374 123.023Z" fill="white"/>
<path d="M83.0056 211.826C82.6976 209.393 82.636 207.421 82.1431 205.573C80.8495 200.737 77.3996 197.75 72.9641 195.901C64.8631 192.575 56.5773 192.76 48.2606 195.162C46.4125 195.686 44.5644 196.394 42.8395 197.287C37.6955 199.875 33.8144 203.417 34.0608 209.947C28.6396 209.608 23.1568 210.04 18.444 206.805C17.366 206.066 16.3495 205.142 15.5178 204.126C13.7313 201.939 13.4849 199.444 14.8094 196.949C15.5794 195.532 16.5343 194.115 17.6432 192.944C24.1733 186.106 32.1511 182.287 41.5458 181.239C50.694 180.223 59.7807 181.024 68.8674 181.702C76.5679 182.287 84.2993 182.995 91.9691 184.012C99.9469 185.059 107.863 186.537 115.779 187.862C130.256 190.265 144.795 191.25 159.426 190.573C168.944 190.141 178.493 189.679 187.949 188.57C196.112 187.616 204.182 185.737 212.283 184.196C221.185 182.502 230.025 180.531 238.958 179.052C244.718 178.098 250.57 177.79 256.422 178.498C256.576 178.529 256.73 178.529 256.884 178.56C261.998 179.515 263.723 182.564 261.505 187.246C258.425 193.684 253.712 198.766 247.644 202.493C245.826 203.633 243.793 203.972 241.637 204.002C239.266 204.033 236.925 204.772 234.553 204.896C226.914 205.204 219.275 205.635 211.667 205.542C199.931 205.419 188.195 204.926 176.46 204.526C164.139 204.126 152.003 205.604 139.99 208.099C131.488 209.855 122.895 210.81 114.208 211.056C105.768 211.302 97.2979 211.611 88.8581 211.888C86.8251 211.888 84.8538 211.826 83.0056 211.826ZM99.8545 209.023C99.8853 209.177 99.9161 209.3 99.9777 209.454C103.335 208.592 106.723 207.914 109.988 206.744C111.22 206.313 112.483 204.988 113.038 203.756C114.67 200.09 113.315 195.901 110.112 193.499C105.584 190.08 98.2219 190.111 93.694 193.53C92.0307 194.792 90.9526 196.425 90.583 198.458C89.4125 204.557 93.386 209.054 99.8545 209.023Z" fill="white"/>
<path d="M140.082 31.4789C149.816 31.7869 160.443 32.8034 169.93 38.163C184.776 46.4796 193.524 59.0161 194.972 76.2654C195.711 85.198 194.233 93.9459 192.97 102.725C192.508 105.959 191.337 108.916 190.352 111.934C189.304 115.199 186.84 117.417 184.13 119.358C176.675 124.656 168.205 127.644 159.303 129.06C143.532 131.555 128.008 129.831 113.346 123.547C97.3595 116.678 87.8724 103.895 83.5909 87.2002C81.3731 78.5448 81.3424 69.8585 84.1762 61.2647C87.3796 51.562 94.1869 45.1243 102.966 40.4731C113.9 34.6515 125.944 31.6945 140.082 31.4789ZM187.887 85.6292C188.596 78.0519 186.625 70.6593 183.606 63.6056C179.263 53.4101 171.285 47.034 160.843 44.0154C143.224 38.9638 126.529 41.7668 111.005 51.3463C104.506 55.3506 99.1461 60.6486 96.4971 67.9796C91.0451 83.1035 93.8173 97.0877 104.937 108.361C120.584 124.225 139.99 128.598 161.428 123.177C171.778 120.559 179.663 114.245 184.314 104.388C187.087 98.5354 188.257 92.3133 187.887 85.6292Z" fill="white"/>
<path d="M186.408 125.703C182.958 134.081 178.615 141.751 170.483 146.402C165.555 149.236 160.072 150.345 154.497 150.992C145.256 152.039 136.077 151.177 126.898 150.253C120.06 149.575 113.253 148.62 106.723 146.371C97.174 143.076 89.227 137.685 84.2063 128.629C81.6497 124.009 80.51 118.896 79.4011 113.783C77.553 105.22 76.0436 96.595 75.8896 87.7856C75.8588 86.2147 75.8896 84.6129 76.1053 83.042C77.0909 88.2476 78.323 93.33 80.3868 98.1659C88.4878 117.109 102.472 129.061 122.678 133.527C132.935 135.806 143.377 136.7 153.85 136.207C165.155 135.683 175.597 132.048 185.361 126.319C185.731 126.104 186.069 125.919 186.408 125.703Z" fill="white"/>
<path d="M105.122 153.209C123.018 157.06 140.945 158.908 159.272 156.875C158.995 157.214 158.81 157.522 158.533 157.768C155.73 160.171 152.989 162.635 150.093 164.914C147.475 166.978 144.457 168.179 141.068 168.395C133.46 168.888 125.914 168.919 118.583 166.393C112.207 164.206 107.186 160.602 105.245 153.733C105.214 153.517 105.153 153.333 105.122 153.209Z" fill="white"/>
<path d="M73.2412 215.769C72.1939 217.278 70.6846 218.141 68.9905 218.541C61.9984 220.112 54.9755 220.358 48.1065 217.987C46.2584 217.34 44.5027 216.293 42.9626 215.091C41.1761 213.674 41.3301 212.504 43.4554 211.765C45.6732 210.964 48.0449 210.409 50.4167 210.132C55.3143 209.547 60.2426 209.639 65.0478 210.902C68.1588 211.703 70.9618 213.151 73.2412 215.769Z" fill="white"/>
<path d="M75.2123 206.805C72.0705 206.035 68.9595 205.142 65.7868 204.526C58.4559 203.109 51.0941 202.739 43.7016 204.403C45.7037 202.77 48.0447 201.815 50.5089 201.23C56.1457 199.844 61.8441 199.474 67.481 201.045C69.3291 201.538 71.1156 202.4 72.7789 203.386C73.8878 204.033 74.6887 205.234 75.6436 206.158C75.5203 206.343 75.3663 206.559 75.2123 206.805Z" fill="white"/>
<path d="M229.378 147.85C229.317 147.85 229.286 147.85 229.224 147.85C225.158 147.911 225.158 147.881 225.559 143.846C225.59 143.476 226.144 142.921 226.514 142.86C230.98 142.398 235.477 142.028 239.974 141.566C240.991 141.474 241.453 141.782 241.607 142.829C242.069 146.248 242.007 146.495 238.711 146.987C235.631 147.449 232.52 147.696 229.409 148.035C229.378 148.004 229.378 147.911 229.378 147.85Z" fill="white"/>
<path d="M101.733 196.979C103.705 197.257 105.399 197.688 106.508 199.382C107.093 200.275 107.093 201.045 105.799 201.261C103.705 201.631 101.579 202.123 99.454 202.216C98.6532 202.247 97.2979 201.507 97.0822 200.83C96.8666 200.152 97.5751 198.828 98.2527 198.335C99.2076 197.626 100.532 197.411 101.733 196.979Z" fill="white"/>
<path d="M143.563 48.1735C154.189 48.2967 162.722 50.3297 170.022 56.1513C172.979 58.5231 175.566 61.2645 176.921 64.8375C178.061 67.8561 179.232 70.9364 178.954 74.3246C178.893 74.9715 178.985 75.6799 179.17 76.296C180.34 80.2386 180.525 84.2429 180.002 88.3088C179.909 89.0173 180.217 89.7566 180.34 90.4958C180.494 91.5739 180.926 92.6828 180.741 93.6992C178.308 106.451 170.33 114.214 158.07 117.263C142.115 121.206 127.176 118.495 114.146 108.176C104.536 100.568 99.7001 90.465 100.593 78.0517C101.117 70.6592 104.844 64.7759 110.419 60.0632C117.719 53.8411 126.375 50.5761 135.739 49.036C138.819 48.4815 141.93 48.3275 143.563 48.1735Z" fill="white"/>
</g>
<path fill-rule="evenodd" clip-rule="evenodd" d="M113.284 165.581L113.522 161.898L116.235 119.848C116.702 120.061 117.214 120.194 117.757 120.229C118.142 120.254 118.519 120.228 118.881 120.156L116.414 158.387L152.128 120.536C152.518 121.355 153.159 122.036 153.956 122.476L115.817 162.897L113.284 165.581ZM116.014 112.058C115.212 112.481 114.555 113.149 114.148 113.969L75.274 68.4171L76.8115 66.3316L153.725 99.4134C153.188 100.084 152.845 100.921 152.785 101.844C152.784 101.864 152.783 101.884 152.782 101.904L81.0013 71.0298L116.014 112.058ZM161.163 100.553L189.95 78.8089L176.907 115.362C177.021 115.361 177.135 115.364 177.251 115.371C178.072 115.424 178.825 115.702 179.454 116.141L193.951 75.5132L195.446 71.3234L191.896 74.0047L159.486 98.4863C160.244 98.9812 160.834 99.7052 161.163 100.553ZM201.064 166.886L179.662 123.107C178.964 123.659 178.095 123.999 177.156 124.038L194.533 159.584L159.687 121.038C159.192 121.797 158.468 122.388 157.619 122.718L198.882 168.362L201.064 166.886Z" fill="#BBBBBB"/>
<path d="M128.323 165.32L118.383 165.883L115.847 175.51L112.24 166.231L102.3 166.793L110.011 160.496L106.404 151.216L114.776 156.603L122.487 150.305L119.951 159.933L128.323 165.32Z" fill="white"/>
<path d="M205.811 78.5485L195.871 79.1113L193.334 88.7389L189.727 79.4592L179.787 80.022L187.498 73.724L183.891 64.4443L192.264 69.8317L199.975 63.5337L197.438 73.1612L205.811 78.5485Z" fill="white"/>
<path d="M84.8841 67.2792L78.3084 69.7972L78.6712 76.8291L74.2444 71.3534L67.6688 73.8714L71.5086 67.9692L67.0818 62.4935L73.8817 64.3215L77.7214 58.4193L78.0842 65.4512L84.8841 67.2792Z" fill="white"/>
<circle cx="156.509" cy="120.037" r="1.6523" transform="rotate(-176.308 156.509 120.037)" fill="#BBBBBB"/>
<circle cx="203.177" cy="170.507" r="2.98516" transform="rotate(-176.308 203.177 170.507)" fill="#BBBBBB"/>
<circle cx="117.214" cy="115.846" r="2.1617" transform="rotate(-176.308 117.214 115.846)" fill="#BBBBBB"/>
<circle cx="156.806" cy="101.816" r="1.92524" transform="rotate(-176.308 156.806 101.816)" fill="#BBBBBB"/>
<circle cx="177.354" cy="119.727" r="2.27239" transform="rotate(-176.308 177.354 119.727)" fill="#BBBBBB"/>
</svg>
