<svg width="133" height="96" viewBox="0 0 133 96" fill="none" xmlns="http://www.w3.org/2000/svg">
<g opacity="0.1">
<path d="M37.1289 88.4059C36.5967 88.5468 36.0802 88.8128 35.5481 88.8285C29.8981 88.9693 24.248 88.9693 18.6449 87.9833C15.4521 87.4199 12.3845 86.4652 9.5986 84.7279C5.65453 82.2707 3.44772 78.7022 2.88428 74.1634C2.4617 70.8297 2.24259 67.4804 2.11738 64.1154C1.91392 58.7314 1.94522 53.3318 1.74175 47.9322C1.53829 42.2978 1.17832 36.6478 0.880945 31.0134C0.755736 28.6813 0.66183 26.3337 0.536621 23.8765C0.990503 24.0173 1.31918 24.1425 1.64785 24.2364C4.02681 24.9407 6.43708 24.7686 8.863 24.6434C15.6556 24.2834 22.2134 22.5461 28.8025 21.0436C34.3586 19.7759 39.9617 18.9933 45.6431 18.7742C50.9331 18.5864 56.2075 18.4768 61.4976 18.4612C66.6155 18.4612 71.6708 19.1811 76.7105 20.0732C83.4561 21.2627 90.2017 22.4366 97.0412 22.9374C102.237 23.313 107.449 23.5947 112.645 22.9844C118.264 22.327 123.304 20.3863 127.154 16.0196C127.78 15.2997 128.343 14.5015 129.032 13.625C129.079 14.0319 129.126 14.3449 129.126 14.658C129.173 17.1778 129.267 19.7133 129.267 22.2331C129.267 26.5841 129.189 30.9351 129.22 35.2705C129.251 40.6857 129.126 46.1167 129.517 51.5163C129.752 54.8343 130.848 58.0741 131.536 61.3608C131.959 63.3955 132.522 65.4144 132.71 67.4804C133.32 73.7565 130.769 77.7475 124.869 80.0482C121.613 81.316 118.201 81.8481 114.743 82.1924C107.919 82.8654 101.11 82.4272 94.2866 82.0359C94.2397 82.0359 94.1927 82.0046 94.1301 81.9733C94.4118 80.6117 94.7562 79.25 94.9596 77.8727C95.0848 77.0589 95.3665 76.4798 95.9769 75.9163C97.8551 74.1634 98.3403 71.8157 98.5124 69.3898C98.7159 66.3535 98.2933 63.3642 97.8864 60.3591C97.3542 56.5403 96.7751 52.7371 95.5857 49.0591C93.7545 43.409 90.2173 39.1989 85.0368 36.3504C84.3795 35.9904 84.0821 35.5522 83.9256 34.8322C82.7205 28.7439 78.8703 25.2225 72.9698 23.7826C68.7128 22.7339 64.4087 22.6713 60.1047 23.4382C58.5395 23.72 57.084 24.299 55.8319 25.2694C54.0007 26.6937 52.2009 28.1492 50.4636 29.683C49.415 30.5908 48.5229 31.6551 48.4133 33.1576C48.3976 33.2828 48.2255 33.4549 48.0846 33.5019C42.0433 35.6617 38.647 40.3727 36.2367 45.9601C35.3446 48.0417 34.5308 50.1546 33.7639 52.2832C33.6074 52.7214 33.7795 53.2849 33.7482 53.77C33.7169 54.2709 33.7482 54.8813 33.4978 55.2569C32.7779 56.3212 32.7935 57.5263 32.59 58.6845C31.8075 63.2546 31.1971 67.856 31.3849 72.5044C31.6197 78.1231 33.3256 83.2254 36.7219 87.7329C36.8158 87.8581 36.9097 87.9833 37.0037 88.1085C37.035 88.1242 37.0506 88.1868 37.1289 88.4059ZM7.65787 38.5415C7.70482 39.6058 7.75177 40.6701 7.79873 41.7344C7.84568 42.8769 8.51868 43.5029 9.64555 43.4873C9.98988 43.4873 10.3185 43.4403 10.6629 43.4247C13.9809 43.1743 17.2989 42.9082 20.617 42.6734C21.6812 42.5952 22.3855 42.0787 22.4012 41.0144C22.4168 39.0737 22.3855 37.1173 22.2603 35.1765C22.1821 33.9401 21.5717 33.4706 20.3196 33.4393C19.1771 33.408 18.0345 33.3923 16.8764 33.4236C13.527 33.5175 10.2403 33.9245 7.09443 35.1452C6.06145 35.5522 5.60757 36.2878 5.77974 37.2581C5.93625 38.1346 6.46838 38.5102 7.65787 38.5415ZM124.571 59.5766C124.493 57.7611 123.382 56.149 121.864 55.6795C121.003 55.4134 120.158 55.7577 119.829 56.509C119.501 57.2446 119.704 58.215 120.408 58.5593C121.191 58.9506 121.269 59.4514 121.034 60.2026C120.753 61.1261 121.206 61.9399 122.083 62.2529C122.866 62.5346 123.695 62.206 124.071 61.3452C124.305 60.7974 124.415 60.1713 124.571 59.5766ZM12.228 57.7767C12.2593 56.7437 11.6019 55.9768 10.6472 55.9299C9.64555 55.8829 8.9256 56.6655 8.8943 57.8706C8.863 58.9036 9.536 59.6705 10.4751 59.7175C11.4924 59.7644 12.1967 58.9975 12.228 57.7767ZM11.1481 67.0891C12.0402 67.1361 12.6506 66.6039 12.7132 65.7275C12.7914 64.6788 12.1184 63.865 11.1168 63.7867C10.2559 63.7241 9.58295 64.3345 9.536 65.2423C9.48904 66.2283 10.209 67.0422 11.1481 67.0891ZM11.6332 49.3877C11.6489 48.3548 10.9759 47.6348 9.98988 47.6035C9.09776 47.5722 8.47172 48.167 8.45607 49.0747C8.44042 50.0451 9.17602 50.8433 10.1151 50.8746C11.0385 50.8902 11.6176 50.3268 11.6332 49.3877Z" fill="white"/>
<path d="M91.5945 4.26568C91.751 5.50211 91.7823 6.50378 92.0327 7.44285C92.69 9.90007 94.443 11.4182 96.6967 12.3573C100.813 14.0476 105.023 13.9537 109.249 12.7329C110.188 12.4668 111.127 12.1069 112.003 11.653C114.617 10.3383 116.589 8.53842 116.464 5.22039C119.219 5.39256 122.005 5.17344 124.399 6.8168C124.947 7.19243 125.463 7.66196 125.886 8.17845C126.794 9.28968 126.919 10.5574 126.246 11.8252C125.855 12.5451 125.37 13.2651 124.806 13.8598C121.488 17.3343 117.434 19.2751 112.661 19.8072C108.012 20.3237 103.395 19.9168 98.7783 19.5724C94.8655 19.2751 90.9371 18.9151 87.04 18.3986C82.9864 17.8665 78.964 17.1152 74.9417 16.4422C67.5857 15.2214 60.1984 14.7206 52.7641 15.0649C47.9279 15.284 43.0761 15.5188 38.2712 16.0822C34.1237 16.5674 30.0231 17.5221 25.9068 18.3047C21.3837 19.1655 16.8918 20.1672 12.353 20.9184C9.42626 21.4036 6.45255 21.5601 3.47884 21.2002C3.40059 21.1845 3.32233 21.1845 3.24408 21.1688C0.645996 20.6837 -0.230465 19.1342 0.896414 16.7552C2.46152 13.4842 4.85614 10.9017 7.9394 9.00796C8.86282 8.42887 9.89579 8.2567 10.9914 8.24105C12.1965 8.2254 13.386 7.84978 14.5911 7.78717C18.4726 7.63066 22.3541 7.41155 26.2199 7.4585C32.1829 7.5211 38.146 7.77152 44.1091 7.97498C50.3695 8.17845 56.536 7.4272 62.64 6.15946C66.9597 5.26735 71.3263 4.78216 75.7399 4.65695C80.0283 4.53175 84.3324 4.37523 88.6208 4.23438C89.6537 4.23437 90.6554 4.26568 91.5945 4.26568ZM83.0333 5.68993C83.0177 5.61167 83.002 5.54907 82.9707 5.47081C81.2647 5.90904 79.5431 6.25337 77.8841 6.84811C77.2581 7.06722 76.6164 7.74022 76.3347 8.36626C75.5051 10.2287 76.1938 12.3573 77.8215 13.5781C80.1222 15.3153 83.8628 15.2997 86.1635 13.5624C87.0087 12.9207 87.5565 12.0912 87.7443 11.0582C88.339 7.95933 86.3201 5.67427 83.0333 5.68993Z" fill="white"/>
<path d="M62.5929 95.9026C57.6471 95.7461 52.2475 95.2296 47.427 92.5063C39.8832 88.2806 35.4383 81.9106 34.7027 73.146C34.327 68.6071 35.0783 64.1622 35.72 59.7017C35.9547 58.0583 36.5495 56.5558 37.0503 55.022C37.5825 53.363 38.8345 52.2361 40.2118 51.2501C43.9994 48.5581 48.3034 47.0399 52.8266 46.32C60.84 45.0523 68.7281 45.9287 76.178 49.1215C84.3009 52.6117 89.1215 59.1069 91.297 67.5898C92.4239 71.9878 92.4395 76.4014 90.9996 80.768C89.3719 85.6981 85.913 88.9692 81.4524 91.3325C75.8963 94.2906 69.7767 95.7931 62.5929 95.9026ZM38.3024 68.388C37.9424 72.2382 38.9441 75.9944 40.4779 79.5785C42.6847 84.7591 46.7383 87.9988 52.0441 89.5326C60.9965 92.0994 69.4794 90.6752 77.3675 85.8077C80.6699 83.773 83.3932 81.0811 84.7392 77.3561C87.5094 69.6714 86.1008 62.5658 80.4508 56.8375C72.5 48.7772 62.6398 46.5548 51.7467 49.3093C46.4879 50.6397 42.4812 53.8482 40.1179 58.8565C38.7093 61.8302 38.1146 64.9917 38.3024 68.388Z" fill="white"/>
<path d="M39.0537 48.0262C40.8066 43.7691 43.0134 39.872 47.1453 37.5087C49.6495 36.0688 52.4354 35.5054 55.2682 35.1767C59.9636 34.6446 64.6276 35.0828 69.2916 35.5523C72.7662 35.8966 76.225 36.3818 79.5431 37.5244C84.3949 39.199 88.4329 41.938 90.984 46.5394C92.2831 48.887 92.8621 51.4851 93.4256 54.0832C94.3646 58.4342 95.1316 62.8165 95.2098 67.2927C95.2255 68.0909 95.2098 68.9048 95.1003 69.703C94.5994 67.058 93.9734 64.4755 92.9247 62.0183C88.8085 52.3929 81.7029 46.3203 71.4358 44.0509C66.224 42.8927 60.9183 42.4388 55.5969 42.6892C49.853 42.9553 44.5472 44.8021 39.5858 47.7132C39.398 47.8228 39.2259 47.9167 39.0537 48.0262Z" fill="white"/>
<path d="M80.3569 34.0497C71.2636 32.0933 62.1547 31.1542 52.8423 32.1872C52.9831 32.015 53.0771 31.8585 53.2179 31.7333C54.6422 30.5125 56.0351 29.2605 57.5063 28.1023C58.8366 27.0537 60.3705 26.4433 62.0921 26.3337C65.9579 26.0833 69.7924 26.0676 73.5174 27.351C76.7571 28.4623 79.3083 30.2934 80.2943 33.7836C80.3099 33.8932 80.3412 33.9871 80.3569 34.0497Z" fill="white"/>
<path d="M96.5557 2.26233C97.0878 1.49543 97.8547 1.0572 98.7155 0.853731C102.268 0.0555257 105.837 -0.069683 109.327 1.13545C110.266 1.46412 111.158 1.99626 111.941 2.60665C112.848 3.3266 112.77 3.92134 111.69 4.29697C110.563 4.7039 109.358 4.98562 108.153 5.12648C105.665 5.42385 103.16 5.3769 100.719 4.7352C99.1381 4.32827 97.7138 3.59267 96.5557 2.26233Z" fill="white"/>
<path d="M95.5541 6.81689C97.1505 7.20817 98.7312 7.66205 100.343 7.97508C104.068 8.69503 107.809 8.88284 111.565 8.03768C110.548 8.86719 109.358 9.35237 108.106 9.64974C105.242 10.354 102.347 10.5419 99.4825 9.74365C98.5434 9.49323 97.6357 9.055 96.7905 8.55416C96.2271 8.22549 95.8201 7.6151 95.335 7.14557C95.3976 7.05166 95.4758 6.9421 95.5541 6.81689Z" fill="white"/>
<path d="M17.2203 36.7731C17.2516 36.7731 17.2673 36.7731 17.2986 36.7731C19.3645 36.7418 19.3645 36.7575 19.161 38.8077C19.1454 38.9956 18.8637 39.2773 18.6759 39.3086C16.4064 39.5433 14.1214 39.7312 11.8363 39.9659C11.3198 40.0129 11.0851 39.8564 11.0068 39.3242C10.7721 37.587 10.8034 37.4618 12.478 37.2113C14.0431 36.9766 15.6239 36.8514 17.2047 36.6792C17.2203 36.6949 17.2203 36.7418 17.2203 36.7731Z" fill="white"/>
<path d="M82.0789 11.8096C81.0772 11.6687 80.2164 11.4496 79.653 10.5888C79.3556 10.1349 79.3556 9.74365 80.013 9.63409C81.0772 9.44628 82.1572 9.19586 83.2371 9.14891C83.644 9.13326 84.3327 9.50889 84.4422 9.85321C84.5518 10.1975 84.1918 10.8705 83.8475 11.1209C83.3623 11.4809 82.6893 11.5905 82.0789 11.8096Z" fill="white"/>
<path d="M60.8245 87.42C55.4249 87.3574 51.0895 86.3245 47.3802 83.3664C45.8777 82.1613 44.563 80.7683 43.8744 78.9528C43.2953 77.419 42.7005 75.8539 42.8414 74.1323C42.8727 73.8036 42.8257 73.4436 42.7318 73.1306C42.1371 71.1273 42.0432 69.0926 42.3093 67.0267C42.3562 66.6667 42.1997 66.2911 42.1371 65.9155C42.0588 65.3677 41.8397 64.8042 41.9336 64.2877C43.1701 57.8082 47.2237 53.8641 53.4528 52.3147C61.5601 50.3113 69.1509 51.6886 75.7713 56.9317C80.6544 60.7976 83.1116 65.9311 82.6578 72.2385C82.3917 75.9948 80.4979 78.9841 77.6651 81.3787C73.9558 84.5402 69.5578 86.1993 64.7999 86.9818C63.2348 87.2635 61.654 87.3418 60.8245 87.42Z" fill="white"/>
</g>
<path fill-rule="evenodd" clip-rule="evenodd" d="M76.2091 27.7638L76.0884 29.635L74.7095 51.001C74.4724 50.8929 74.212 50.8252 73.9365 50.8075C73.7405 50.7948 73.5489 50.8082 73.365 50.8445L74.6186 31.4192L56.4718 50.6515C56.2736 50.2357 55.9483 49.8894 55.5429 49.6662L74.9223 29.1276L76.2091 27.7638ZM74.8219 54.9596C75.2292 54.7446 75.5633 54.4052 75.7703 53.9885L95.5226 77.134L94.7414 78.1937L55.6603 61.3843C55.9331 61.0435 56.1078 60.6184 56.138 60.1496L56.1398 60.119L92.6125 75.8065L74.8219 54.9596ZM51.881 60.8052L37.254 71.8538L43.8814 53.2805C43.8237 53.2813 43.7654 53.2799 43.7067 53.2761C43.2895 53.2491 42.9068 53.1078 42.5874 52.8847L35.2211 73.5284L34.4615 75.6573L36.2651 74.2949L52.7334 61.8555C52.3482 61.604 52.0485 61.2361 51.881 60.8052ZM31.6067 27.1005L42.4815 49.3454C42.8363 49.0648 43.278 48.8919 43.7548 48.8721L34.9251 30.8105L52.6313 50.3963C52.8827 50.0106 53.2507 49.7105 53.6819 49.5427L32.7153 26.3503L31.6067 27.1005Z" fill="#BBBBBB"/>
<path d="M68.5673 27.8963L73.618 27.6103L74.9068 22.7184L76.7395 27.4336L81.7903 27.1476L77.8722 30.3477L79.705 35.0628L75.4508 32.3255L71.5327 35.5256L72.8215 30.6337L68.5673 27.8963Z" fill="white"/>
<path d="M29.1952 71.9861L34.246 71.7002L35.5347 66.8083L37.3675 71.5234L42.4182 71.2374L38.5002 74.4375L40.3329 79.1527L36.0787 76.4153L32.1607 79.6154L33.4494 74.7235L29.1952 71.9861Z" fill="white"/>
<path d="M90.6399 77.712L93.981 76.4326L93.7967 72.8596L96.046 75.6419L99.3872 74.3625L97.4361 77.3614L99.6854 80.1437L96.2303 79.2149L94.2793 82.2139L94.095 78.6409L90.6399 77.712Z" fill="white"/>
<circle cx="54.2457" cy="50.9051" r="0.839556" transform="rotate(3.69244 54.2457 50.9051)" fill="#BBBBBB"/>
<circle cx="30.5327" cy="25.2608" r="1.5168" transform="rotate(3.69244 30.5327 25.2608)" fill="#BBBBBB"/>
<circle cx="74.2119" cy="53.035" r="1.09839" transform="rotate(3.69244 74.2119 53.035)" fill="#BBBBBB"/>
<circle cx="54.0949" cy="60.1637" r="0.978242" transform="rotate(3.69244 54.0949 60.1637)" fill="#BBBBBB"/>
<circle cx="43.6545" cy="51.063" r="1.15464" transform="rotate(3.69244 43.6545 51.063)" fill="#BBBBBB"/>
</svg>
