<svg width="141" height="129" viewBox="0 0 141 129" fill="none" xmlns="http://www.w3.org/2000/svg">
<g opacity="0.1">
<mask id="path-1-inside-1_1176_1089" fill="white">
<path d="M137.901 47.0869C135.922 45.5621 132.917 46.8374 130.575 45.8894C129.989 45.664 129.855 44.914 130.298 44.5278C132.327 42.6299 135.951 43.1103 137.152 40.4611C137.368 40.0129 137.08 39.4839 136.625 39.36C134.531 38.8459 132.672 40.2924 130.647 40.8015C130.551 40.8413 130.505 40.8381 130.413 40.8318C125.473 40.6315 125.303 25.5727 124.85 21.3748C124.853 21.3287 124.814 21.2334 124.817 21.1873C121.825 12.8334 116.71 27.9922 111.703 27.417C111.657 27.4138 111.611 27.4106 111.565 27.4075C101.037 28.3514 98.8302 30.1444 90.4667 22.4865C90.4237 22.4373 90.3777 22.4341 90.3347 22.3849C87.8983 20.7823 86.4977 23.6493 86.8035 25.9389C87.4503 31.354 86.5732 36.7107 85.5182 41.9626C84.8702 48.0296 79.261 42.7368 76.2363 44.983C75.8947 45.2373 75.8138 45.741 76.065 46.1287C77.5911 48.178 81.2216 47.2235 83.1891 48.2382C83.7723 48.5098 83.7583 49.3885 83.1832 49.6731C81.0209 50.821 78.1955 50.164 76.2018 51.555C75.7649 51.8491 75.7635 52.5435 76.2053 52.8516C78.4479 54.5797 82.5357 52.3602 84.7828 53.3479C85.2771 53.567 85.3678 54.2677 85.02 54.6143C80.0448 59.6433 72.3363 53.2341 66.4076 52.5956C66.3615 52.5924 66.3615 52.5924 66.3154 52.5893C56.0339 49.9388 45.6737 49.7831 35.4177 52.8292C33.2442 53.467 32.0316 52.9208 30.9474 51.1796C24.4213 40.3606 19.9983 27.2322 23.8239 14.6701C25.5083 9.69293 27.022 2.48166 20.2778 0.907467C20.1857 0.901139 20.1396 0.897975 20.0474 0.891648C7.33884 1.22288 4.2705 27.0321 8.21108 37.0717C8.20792 37.1177 8.25084 37.167 8.24767 37.2131C10.6462 50.1562 26.5798 58.1486 22.8298 68.2621C22.8266 68.3082 22.8266 68.3082 22.7774 68.3511C18.2231 78.0389 24.4502 87.8188 22.3812 97.7235C22.378 97.7696 22.378 97.7696 22.3749 97.8157C22.091 104.648 16.1249 116.693 24.9765 119.94C25.0226 119.943 25.0226 119.943 25.0686 119.946C27.9767 120.748 31.0452 121.236 34.0071 121.254C38.7869 121.768 43.6483 113.675 38.0702 111.301C38.0241 111.298 37.9351 111.246 37.8891 111.243C31.3437 110.145 34.3184 105.256 36.1952 100.848C36.4699 100.219 37.3518 100.187 37.6793 100.811C39.8956 104.945 41.4239 108.985 43.637 113.165C46.5363 121.513 67.5648 121.382 62.8852 110.644C62.8057 110.453 62.6737 110.352 62.4957 110.247C56.5567 107.061 54.2513 107.597 52.0897 100.643C51.9402 100.123 52.3007 99.5925 52.8569 99.5844C59.8102 99.4599 66.4297 98.8032 73.3623 98.3069C76.4353 98.0549 76.4941 97.8738 77.7328 100.737C77.7296 100.783 77.7725 100.832 77.7693 100.878C85.2165 130.65 111.07 116.221 99.4153 108.615C99.3723 108.565 99.2802 108.559 99.2373 108.51C97.2476 107.818 94.6956 107.226 93.6271 105.254C93.5842 105.205 93.5874 105.159 93.5445 105.11C92.1003 100.519 87.4982 94.0457 92.9251 90.5292C99.1011 84.1936 115.564 104.029 127.278 87.8412C127.327 87.7983 127.33 87.7522 127.334 87.7061C130.535 81.5367 122.153 76.8407 117.569 81.5725C117.471 81.6583 117.372 81.7441 117.231 81.7807C112.822 83.2837 109.542 79.1231 105.924 77.2079C105.878 77.2048 105.835 77.1555 105.792 77.1063C103.252 74.9873 106.081 70.8758 108.685 70.036C116.522 67.148 123.517 63.0447 128.005 55.6673C128.317 55.1793 129.448 54.8866 130.185 54.9372C130.231 54.9404 130.277 54.9436 130.324 54.9467C132.197 55.3069 133.947 56.1215 135.858 55.9286C136.464 55.8776 136.742 55.2022 136.454 54.6731C134.834 51.9692 130.107 52.7095 129.555 50.6345C129.478 50.3977 129.54 50.1705 129.694 49.9496C131.287 47.6514 135.44 49.8811 137.809 48.4232C138.249 48.0831 138.339 47.4411 137.901 47.0869ZM12.8051 11.9691C16.1431 0.438399 24.4446 2.25841 20.7681 13.9974C20.703 14.2707 20.4568 14.4853 20.2201 14.5616C18.0958 15.1565 15.7913 13.6557 13.4267 13.0303C12.9293 12.8573 12.6813 12.4236 12.8051 11.9691ZM11.7397 30.1839C8.49816 30.1929 10.3746 24.4418 10.1704 22.0202C10.1339 21.8788 10.1433 21.7406 10.1989 21.6055C11.1802 19.4505 14.5157 20.0962 16.532 19.7254C21.4497 18.9055 19.8873 22.7799 19.6658 26.0056C19.6627 26.0517 19.6595 26.0978 19.6595 26.0978C19.958 30.5167 14.9157 29.1056 11.9764 30.1076C11.8811 30.1473 11.8318 30.1902 11.7397 30.1839ZM22.5166 41.804C20.8851 43.3125 16.8909 44.8439 14.96 43.9705C14.782 43.8657 14.6072 43.7148 14.5277 43.5242C13.6594 41.3348 9.99561 37.3794 13.4115 36.1786C20.1942 33.8201 21.0476 34.2028 22.7578 40.9872C22.7849 41.2669 22.7167 41.5863 22.5166 41.804ZM32.3044 118.406C32.2122 118.4 32.1662 118.396 32.074 118.39C28.2285 117.756 23.7061 117.538 23.2757 113.017C23.2518 112.691 23.4154 112.332 23.7474 112.216C29.3319 109.775 45.4671 116.856 32.3044 118.406ZM57.7322 110.846C64.7799 112.718 58.7684 116.658 54.4462 116.222C54.4001 116.219 54.354 116.216 54.2619 116.21C50.0052 116.843 43.8814 112.302 46.8217 109.263C46.871 109.22 46.9202 109.177 46.9695 109.134C51.0396 106.497 53.4751 110.137 57.7322 110.846ZM110.646 86.653C112.394 83.4395 117.642 87.9204 120.493 83.4863C120.595 83.3544 120.697 83.2225 120.838 83.1859C128.631 79.6003 125.577 91.7061 114.354 91.306C110.855 91.0194 108.816 90.3702 110.646 86.653ZM100.745 39.3504C100.955 43.0225 95.6005 42.7937 95.6598 39.2328C95.4855 35.7021 100.976 35.9865 100.745 39.3504ZM89.853 26.7039C89.9768 26.2494 90.5058 25.9616 90.9572 26.1315C92.486 26.792 93.3384 29.2118 94.0364 30.5098C94.1986 30.845 92.9833 31.6876 91.9523 32.5427C91.6568 32.8002 91.2389 32.8179 90.9321 32.5653C88.9168 30.8991 89.2801 28.9795 89.853 26.7039ZM98.3588 114.561C98.2603 114.647 98.2111 114.69 98.0697 114.726C94.5458 116.151 87.9258 115.465 85.8098 111.894C85.6015 111.555 85.6761 111.144 85.9255 110.883C89.6713 107.575 102.773 110.28 98.3588 114.561ZM99.5256 74.6389C99.3349 74.7184 99.1045 74.7026 98.8773 74.6407C93.6679 72.2922 79.4524 65.5752 84.4366 59.0652C84.5906 58.8443 84.8766 58.725 85.1531 58.744C88.8794 59.0924 92.8909 67.4238 99.0234 69.1412C99.1155 69.1475 99.1584 69.1968 99.2474 69.2492C102.261 71.2154 102.816 73.2444 99.5256 74.6389ZM103.825 57.2017C99.6052 54.5971 106.066 54.9017 106.282 53.1109C100.766 47.1301 98.9062 44.5485 109.406 44.0194C117.365 44.751 105.158 52.6171 111.452 53.327C116.608 56.4589 105.917 57.0676 103.825 57.2017ZM115.025 41.0717C111.679 41.2586 111.282 35.5829 114.932 35.6946C118.475 35.336 118.396 41.2105 115.025 41.0717ZM119.547 29.1593C116.826 28.3243 119.625 23.9792 121.63 23.0982C122.153 22.9026 122.684 23.2632 122.738 23.8225C122.923 26.5205 123.326 30.7614 119.547 29.1593Z"/>
</mask>
<path d="M137.901 47.0869C135.922 45.5621 132.917 46.8374 130.575 45.8894C129.989 45.664 129.855 44.914 130.298 44.5278C132.327 42.6299 135.951 43.1103 137.152 40.4611C137.368 40.0129 137.08 39.4839 136.625 39.36C134.531 38.8459 132.672 40.2924 130.647 40.8015C130.551 40.8413 130.505 40.8381 130.413 40.8318C125.473 40.6315 125.303 25.5727 124.85 21.3748C124.853 21.3287 124.814 21.2334 124.817 21.1873C121.825 12.8334 116.71 27.9922 111.703 27.417C111.657 27.4138 111.611 27.4106 111.565 27.4075C101.037 28.3514 98.8302 30.1444 90.4667 22.4865C90.4237 22.4373 90.3777 22.4341 90.3347 22.3849C87.8983 20.7823 86.4977 23.6493 86.8035 25.9389C87.4503 31.354 86.5732 36.7107 85.5182 41.9626C84.8702 48.0296 79.261 42.7368 76.2363 44.983C75.8947 45.2373 75.8138 45.741 76.065 46.1287C77.5911 48.178 81.2216 47.2235 83.1891 48.2382C83.7723 48.5098 83.7583 49.3885 83.1832 49.6731C81.0209 50.821 78.1955 50.164 76.2018 51.555C75.7649 51.8491 75.7635 52.5435 76.2053 52.8516C78.4479 54.5797 82.5357 52.3602 84.7828 53.3479C85.2771 53.567 85.3678 54.2677 85.02 54.6143C80.0448 59.6433 72.3363 53.2341 66.4076 52.5956C66.3615 52.5924 66.3615 52.5924 66.3154 52.5893C56.0339 49.9388 45.6737 49.7831 35.4177 52.8292C33.2442 53.467 32.0316 52.9208 30.9474 51.1796C24.4213 40.3606 19.9983 27.2322 23.8239 14.6701C25.5083 9.69293 27.022 2.48166 20.2778 0.907467C20.1857 0.901139 20.1396 0.897975 20.0474 0.891648C7.33884 1.22288 4.2705 27.0321 8.21108 37.0717C8.20792 37.1177 8.25084 37.167 8.24767 37.2131C10.6462 50.1562 26.5798 58.1486 22.8298 68.2621C22.8266 68.3082 22.8266 68.3082 22.7774 68.3511C18.2231 78.0389 24.4502 87.8188 22.3812 97.7235C22.378 97.7696 22.378 97.7696 22.3749 97.8157C22.091 104.648 16.1249 116.693 24.9765 119.94C25.0226 119.943 25.0226 119.943 25.0686 119.946C27.9767 120.748 31.0452 121.236 34.0071 121.254C38.7869 121.768 43.6483 113.675 38.0702 111.301C38.0241 111.298 37.9351 111.246 37.8891 111.243C31.3437 110.145 34.3184 105.256 36.1952 100.848C36.4699 100.219 37.3518 100.187 37.6793 100.811C39.8956 104.945 41.4239 108.985 43.637 113.165C46.5363 121.513 67.5648 121.382 62.8852 110.644C62.8057 110.453 62.6737 110.352 62.4957 110.247C56.5567 107.061 54.2513 107.597 52.0897 100.643C51.9402 100.123 52.3007 99.5925 52.8569 99.5844C59.8102 99.4599 66.4297 98.8032 73.3623 98.3069C76.4353 98.0549 76.4941 97.8738 77.7328 100.737C77.7296 100.783 77.7725 100.832 77.7693 100.878C85.2165 130.65 111.07 116.221 99.4153 108.615C99.3723 108.565 99.2802 108.559 99.2373 108.51C97.2476 107.818 94.6956 107.226 93.6271 105.254C93.5842 105.205 93.5874 105.159 93.5445 105.11C92.1003 100.519 87.4982 94.0457 92.9251 90.5292C99.1011 84.1936 115.564 104.029 127.278 87.8412C127.327 87.7983 127.33 87.7522 127.334 87.7061C130.535 81.5367 122.153 76.8407 117.569 81.5725C117.471 81.6583 117.372 81.7441 117.231 81.7807C112.822 83.2837 109.542 79.1231 105.924 77.2079C105.878 77.2048 105.835 77.1555 105.792 77.1063C103.252 74.9873 106.081 70.8758 108.685 70.036C116.522 67.148 123.517 63.0447 128.005 55.6673C128.317 55.1793 129.448 54.8866 130.185 54.9372C130.231 54.9404 130.277 54.9436 130.324 54.9467C132.197 55.3069 133.947 56.1215 135.858 55.9286C136.464 55.8776 136.742 55.2022 136.454 54.6731C134.834 51.9692 130.107 52.7095 129.555 50.6345C129.478 50.3977 129.54 50.1705 129.694 49.9496C131.287 47.6514 135.44 49.8811 137.809 48.4232C138.249 48.0831 138.339 47.4411 137.901 47.0869ZM12.8051 11.9691C16.1431 0.438399 24.4446 2.25841 20.7681 13.9974C20.703 14.2707 20.4568 14.4853 20.2201 14.5616C18.0958 15.1565 15.7913 13.6557 13.4267 13.0303C12.9293 12.8573 12.6813 12.4236 12.8051 11.9691ZM11.7397 30.1839C8.49816 30.1929 10.3746 24.4418 10.1704 22.0202C10.1339 21.8788 10.1433 21.7406 10.1989 21.6055C11.1802 19.4505 14.5157 20.0962 16.532 19.7254C21.4497 18.9055 19.8873 22.7799 19.6658 26.0056C19.6627 26.0517 19.6595 26.0978 19.6595 26.0978C19.958 30.5167 14.9157 29.1056 11.9764 30.1076C11.8811 30.1473 11.8318 30.1902 11.7397 30.1839ZM22.5166 41.804C20.8851 43.3125 16.8909 44.8439 14.96 43.9705C14.782 43.8657 14.6072 43.7148 14.5277 43.5242C13.6594 41.3348 9.99561 37.3794 13.4115 36.1786C20.1942 33.8201 21.0476 34.2028 22.7578 40.9872C22.7849 41.2669 22.7167 41.5863 22.5166 41.804ZM32.3044 118.406C32.2122 118.4 32.1662 118.396 32.074 118.39C28.2285 117.756 23.7061 117.538 23.2757 113.017C23.2518 112.691 23.4154 112.332 23.7474 112.216C29.3319 109.775 45.4671 116.856 32.3044 118.406ZM57.7322 110.846C64.7799 112.718 58.7684 116.658 54.4462 116.222C54.4001 116.219 54.354 116.216 54.2619 116.21C50.0052 116.843 43.8814 112.302 46.8217 109.263C46.871 109.22 46.9202 109.177 46.9695 109.134C51.0396 106.497 53.4751 110.137 57.7322 110.846ZM110.646 86.653C112.394 83.4395 117.642 87.9204 120.493 83.4863C120.595 83.3544 120.697 83.2225 120.838 83.1859C128.631 79.6003 125.577 91.7061 114.354 91.306C110.855 91.0194 108.816 90.3702 110.646 86.653ZM100.745 39.3504C100.955 43.0225 95.6005 42.7937 95.6598 39.2328C95.4855 35.7021 100.976 35.9865 100.745 39.3504ZM89.853 26.7039C89.9768 26.2494 90.5058 25.9616 90.9572 26.1315C92.486 26.792 93.3384 29.2118 94.0364 30.5098C94.1986 30.845 92.9833 31.6876 91.9523 32.5427C91.6568 32.8002 91.2389 32.8179 90.9321 32.5653C88.9168 30.8991 89.2801 28.9795 89.853 26.7039ZM98.3588 114.561C98.2603 114.647 98.2111 114.69 98.0697 114.726C94.5458 116.151 87.9258 115.465 85.8098 111.894C85.6015 111.555 85.6761 111.144 85.9255 110.883C89.6713 107.575 102.773 110.28 98.3588 114.561ZM99.5256 74.6389C99.3349 74.7184 99.1045 74.7026 98.8773 74.6407C93.6679 72.2922 79.4524 65.5752 84.4366 59.0652C84.5906 58.8443 84.8766 58.725 85.1531 58.744C88.8794 59.0924 92.8909 67.4238 99.0234 69.1412C99.1155 69.1475 99.1584 69.1968 99.2474 69.2492C102.261 71.2154 102.816 73.2444 99.5256 74.6389ZM103.825 57.2017C99.6052 54.5971 106.066 54.9017 106.282 53.1109C100.766 47.1301 98.9062 44.5485 109.406 44.0194C117.365 44.751 105.158 52.6171 111.452 53.327C116.608 56.4589 105.917 57.0676 103.825 57.2017ZM115.025 41.0717C111.679 41.2586 111.282 35.5829 114.932 35.6946C118.475 35.336 118.396 41.2105 115.025 41.0717ZM119.547 29.1593C116.826 28.3243 119.625 23.9792 121.63 23.0982C122.153 22.9026 122.684 23.2632 122.738 23.8225C122.923 26.5205 123.326 30.7614 119.547 29.1593Z" fill="white" stroke="white" stroke-width="0.815632" mask="url(#path-1-inside-1_1176_1089)"/>
</g>
<path d="M16.894 42.5352L40.5595 77.0473H94.2999L105.147 47.712" stroke="white" stroke-width="1.22345"/>
<circle cx="106.195" cy="45.0338" r="1.51441" fill="white" stroke="white" stroke-width="0.407816"/>
<path d="M93.7003 70.695L94.9113 74.422L94.957 74.5628H95.1052H99.0239L95.8536 76.8662L95.7338 76.9533L95.7795 77.0942L96.9905 80.8211L93.8202 78.5178L93.7003 78.4307L93.5805 78.5178L90.4101 80.8211L91.6211 77.0942L91.6669 76.9533L91.547 76.8662L88.3767 74.5628H92.2954H92.4436L92.4894 74.422L93.7003 70.695Z" fill="white" stroke="white" stroke-width="0.407816"/>
<path d="M40.6866 68.9519L42.4584 74.4049L42.5042 74.5458H42.6523H48.386L43.7474 77.9159L43.6275 78.003L43.6733 78.1439L45.4451 83.5969L40.8065 80.2268L40.6866 80.1397L40.5668 80.2268L35.9281 83.5969L37.6999 78.1439L37.7457 78.003L37.6259 77.9159L32.9872 74.5458H38.7209H38.869L38.9148 74.4049L40.6866 68.9519Z" fill="white" stroke="white" stroke-width="0.407816"/>
<path d="M14.1507 35.9081L17.2031 39.0626L17.3061 39.1691L17.4392 39.104L21.3827 37.1758L19.3257 41.0537L19.2563 41.1846L19.3593 41.291L22.4117 44.4456L18.0881 43.6877L17.9421 43.6621L17.8727 43.7929L15.8158 47.6708L15.2006 43.3245L15.1798 43.1778L15.0339 43.1522L10.7102 42.3943L14.6536 40.4661L14.7867 40.401L14.766 40.2543L14.1507 35.9081Z" fill="white" stroke="white" stroke-width="0.407816"/>
</svg>
