<svg width="307" height="284" viewBox="0 0 307 284" fill="none" xmlns="http://www.w3.org/2000/svg">
<path opacity="0.2" d="M299.685 102.343C295.382 99.0272 288.849 101.8 283.755 99.7391C282.48 99.2489 282.189 97.618 283.153 96.7781C287.564 92.651 295.446 93.6955 298.056 87.9346C298.526 86.9601 297.9 85.8096 296.912 85.5404C292.357 84.4223 288.316 87.5679 283.91 88.675C283.703 88.7614 283.603 88.7546 283.402 88.7408C272.659 88.3053 272.29 55.5589 271.306 46.4301C271.313 46.3299 271.226 46.1226 271.233 46.0224C264.728 27.8561 253.605 60.8202 242.717 59.5693C242.617 59.5624 242.516 59.5555 242.416 59.5487C219.522 61.6013 214.723 65.5004 196.536 48.8477C196.443 48.7406 196.342 48.7337 196.249 48.6266C190.951 45.1418 187.905 51.3762 188.57 56.3552C189.977 68.1306 188.069 79.7793 185.775 91.2C184.366 104.393 172.168 92.8835 165.591 97.7679C164.848 98.321 164.672 99.4164 165.219 100.259C168.537 104.716 176.432 102.64 180.71 104.847C181.979 105.437 181.948 107.348 180.698 107.967C175.996 110.463 169.851 109.035 165.516 112.059C164.566 112.699 164.563 114.209 165.524 114.879C170.4 118.637 179.29 113.81 184.176 115.958C185.251 116.435 185.448 117.958 184.692 118.712C173.873 129.648 157.11 115.711 144.218 114.322C144.117 114.315 144.117 114.315 144.017 114.308C121.659 108.545 99.1302 108.206 76.8278 114.83C72.1013 116.217 69.4645 115.029 67.1068 111.243C52.9153 87.7164 43.2971 59.1676 51.6161 31.8504C55.2789 21.0271 58.5705 5.34559 43.9049 1.92238C43.7045 1.90862 43.6043 1.90174 43.4039 1.88798C15.7681 2.60829 9.09574 58.7324 17.6649 80.5642C17.658 80.6644 17.7513 80.7715 17.7444 80.8717C22.9603 109.018 57.6092 126.398 49.4544 148.39C49.4475 148.49 49.4475 148.49 49.3404 148.584C39.4369 169.651 52.9781 190.918 48.4789 212.456C48.4721 212.557 48.4721 212.557 48.4652 212.657C47.8478 227.515 34.874 253.707 54.1226 260.768C54.2228 260.775 54.2228 260.775 54.323 260.781C60.6469 262.524 67.3195 263.587 73.7603 263.626C84.1544 264.742 94.7259 247.145 82.596 241.982C82.4958 241.976 82.3022 241.862 82.202 241.855C67.9686 239.468 74.4372 228.837 78.5185 219.251C79.1159 217.882 81.0336 217.813 81.7458 219.17C86.5654 228.16 89.8887 236.946 94.7014 246.035C101.006 264.188 146.734 263.904 136.558 240.553C136.385 240.138 136.098 239.917 135.711 239.689C122.796 232.762 117.783 233.928 113.082 218.805C112.757 217.675 113.541 216.521 114.751 216.503C129.871 216.232 144.266 214.804 159.341 213.725C166.024 213.177 166.152 212.783 168.845 219.009C168.838 219.109 168.932 219.216 168.925 219.316C185.119 284.058 241.339 252.68 215.996 236.14C215.902 236.033 215.702 236.019 215.608 235.912C211.282 234.407 205.732 233.12 203.409 228.832C203.315 228.725 203.322 228.625 203.229 228.518C200.088 218.536 190.081 204.459 201.882 196.812C215.312 183.035 251.113 226.167 276.585 190.966C276.692 190.873 276.699 190.773 276.706 190.673C283.668 177.257 265.441 167.045 255.472 177.335C255.258 177.521 255.044 177.708 254.736 177.788C245.149 181.056 238.018 172.008 230.148 167.844C230.048 167.837 229.955 167.73 229.862 167.623C224.338 163.015 230.49 154.074 236.152 152.248C253.196 145.968 268.407 137.045 278.167 121.002C278.844 119.941 281.304 119.304 282.907 119.414C283.008 119.421 283.108 119.428 283.208 119.435C287.282 120.218 291.087 121.989 295.244 121.57C296.56 121.459 297.164 119.99 296.539 118.84C293.016 112.96 282.737 114.57 281.536 110.058C281.37 109.543 281.505 109.049 281.84 108.568C285.304 103.571 294.334 108.419 299.485 105.249C300.442 104.509 300.639 103.113 299.685 102.343ZM27.6548 25.9767C34.9137 0.902361 52.9658 4.86011 44.971 30.3874C44.8295 30.9817 44.2941 31.4484 43.7793 31.6144C39.1599 32.9081 34.1486 29.6443 29.0066 28.2845C27.9249 27.9082 27.3856 26.9651 27.6548 25.9767ZM25.3381 65.5863C18.2891 65.6058 22.3695 53.0995 21.9256 47.8337C21.8461 47.5262 21.8667 47.2256 21.9875 46.9318C24.1215 42.2457 31.3748 43.6498 35.7594 42.8433C46.4532 41.0605 43.0557 49.4858 42.5741 56.5003C42.5672 56.6005 42.5603 56.7007 42.5603 56.7007C43.2095 66.3099 32.2446 63.2415 25.8529 65.4203C25.6456 65.5068 25.5385 65.6001 25.3381 65.5863ZM48.7732 90.8551C45.2256 94.1354 36.5398 97.4656 32.341 95.5664C31.9539 95.3385 31.5737 95.0103 31.4008 94.5957C29.5127 89.8348 21.5454 81.2334 28.9737 78.6223C43.7231 73.4935 45.5789 74.3256 49.2979 89.0789C49.3568 89.687 49.2085 90.3816 48.7732 90.8551ZM70.0577 257.432C69.8573 257.418 69.7571 257.411 69.5567 257.397C61.1943 256.018 51.3602 255.544 50.4242 245.714C50.3721 245.005 50.7278 244.224 51.4499 243.972C63.5939 238.664 98.681 254.061 70.0577 257.432ZM125.352 240.991C140.678 245.064 127.606 253.63 118.207 252.683C118.107 252.676 118.006 252.669 117.806 252.656C108.549 254.034 95.2329 244.159 101.627 237.55C101.734 237.457 101.841 237.364 101.948 237.27C110.799 231.535 116.095 239.45 125.352 240.991ZM240.417 188.383C244.219 181.395 255.632 191.139 261.831 181.496C262.052 181.21 262.274 180.923 262.581 180.843C279.527 173.046 272.887 199.371 248.482 198.501C240.873 197.878 236.439 196.466 240.417 188.383ZM218.886 85.5195C219.345 93.5047 207.7 93.0073 207.829 85.2638C207.45 77.5861 219.388 78.2044 218.886 85.5195ZM195.202 58.0186C195.471 57.0303 196.621 56.4045 197.603 56.774C200.927 58.2104 202.781 63.4723 204.299 66.2949C204.651 67.0239 202.009 68.856 199.767 70.7157C199.124 71.2757 198.215 71.314 197.548 70.7648C193.166 67.1414 193.956 62.9671 195.202 58.0186ZM213.698 249.071C213.484 249.257 213.377 249.351 213.069 249.43C205.406 252.528 191.011 251.037 186.409 243.27C185.957 242.535 186.119 241.64 186.661 241.073C194.807 233.88 223.298 239.762 213.698 249.071ZM216.235 162.257C215.821 162.43 215.32 162.396 214.826 162.261C203.497 157.154 172.585 142.547 183.423 128.391C183.758 127.91 184.38 127.651 184.981 127.692C193.084 128.45 201.808 146.567 215.143 150.302C215.344 150.316 215.437 150.423 215.631 150.537C222.183 154.812 223.391 159.225 216.235 162.257ZM225.584 124.339C216.409 118.675 230.458 119.337 230.927 115.443C218.933 102.437 214.888 96.8233 237.721 95.6725C255.03 97.2636 228.484 114.369 242.171 115.913C253.382 122.723 230.135 124.047 225.584 124.339ZM249.941 89.2625C242.664 89.669 241.8 77.3267 249.737 77.5696C257.442 76.7898 257.27 89.5643 249.941 89.2625ZM259.774 63.358C253.858 61.5423 259.943 52.0935 264.303 50.1779C265.44 49.7525 266.594 50.5365 266.712 51.7528C267.115 57.6199 267.992 66.842 259.774 63.358Z" fill="white"/>
<path opacity="0.8" d="M143.266 244.67L143.266 244.769C143.216 244.968 143.175 245.175 143.142 245.39C143.125 245.589 143.109 245.837 143.092 246.135C143.092 246.433 143.092 246.814 143.092 247.277L143.092 252.392L142.67 252.392L148.133 247.277C148.596 246.847 149.01 246.449 149.374 246.085C149.755 245.705 150.036 245.407 150.219 245.191C150.401 244.976 150.492 244.835 150.492 244.769L150.492 244.67L152.453 244.67L152.453 244.769C152.271 244.902 152.081 245.051 151.882 245.216C151.7 245.382 151.485 245.58 151.237 245.812C150.988 246.027 150.715 246.276 150.417 246.557L149.647 247.277L147.735 249.09L147.735 248.32L152.503 258.923C152.867 259.751 153.19 260.363 153.471 260.761C153.753 261.158 154.051 261.489 154.365 261.754L154.365 262.052C153.637 262.25 152.876 262.267 152.081 262.101C151.303 261.952 150.583 261.613 149.921 261.083C149.275 260.537 148.77 259.825 148.406 258.948L145.054 250.927L145.674 250.927L142.769 253.634L143.092 252.964L143.092 259.444C143.092 259.908 143.092 260.289 143.092 260.587C143.109 260.885 143.125 261.141 143.142 261.356C143.175 261.555 143.216 261.754 143.266 261.952L143.266 262.052L139.243 262.052L139.243 261.952C139.276 261.754 139.301 261.555 139.318 261.356C139.334 261.141 139.343 260.885 139.343 260.587C139.359 260.289 139.367 259.908 139.367 259.444L139.367 247.277C139.367 246.814 139.359 246.433 139.343 246.135C139.343 245.837 139.334 245.589 139.318 245.39C139.301 245.175 139.276 244.968 139.243 244.769L139.243 244.67L143.266 244.67ZM164.42 262.449C162.748 262.449 161.208 262.043 159.801 261.232C158.394 260.405 157.277 259.287 156.449 257.88C155.638 256.473 155.232 254.933 155.232 253.262C155.232 251.59 155.638 250.05 156.449 248.643C157.277 247.236 158.394 246.127 159.801 245.316C161.208 244.488 162.748 244.074 164.42 244.074C166.092 244.074 167.631 244.488 169.038 245.316C170.445 246.127 171.555 247.236 172.366 248.643C173.193 250.05 173.607 251.59 173.607 253.262C173.607 254.933 173.193 256.473 172.366 257.88C171.555 259.287 170.445 260.405 169.038 261.232C167.631 262.043 166.092 262.449 164.42 262.449ZM164.32 261.406C165.463 261.406 166.448 261.001 167.275 260.189C168.103 259.362 168.724 258.294 169.138 256.986C169.568 255.678 169.783 254.296 169.783 252.839C169.783 251.35 169.568 250.017 169.138 248.842C168.724 247.666 168.136 246.756 167.375 246.11C166.613 245.448 165.744 245.117 164.767 245.117C163.642 245.117 162.665 245.522 161.837 246.334C161.026 247.145 160.405 248.204 159.975 249.512C159.561 250.82 159.354 252.194 159.354 253.634C159.354 255.14 159.561 256.49 159.975 257.681C160.405 258.857 160.993 259.776 161.738 260.438C162.499 261.083 163.36 261.406 164.32 261.406ZM187.756 244.67L187.756 245.887L187.657 245.887C187.458 245.837 187.26 245.804 187.061 245.787C186.879 245.754 186.647 245.738 186.366 245.738C186.101 245.721 185.778 245.713 185.397 245.713L183.51 245.713L183.907 245.316L183.907 259.444C183.907 259.891 183.907 260.264 183.907 260.562C183.924 260.843 183.94 261.083 183.957 261.282C183.99 261.464 184.023 261.646 184.056 261.828L184.081 261.952L184.081 262.052L180.009 262.052L180.009 261.952L180.034 261.828C180.067 261.646 180.092 261.464 180.108 261.282C180.141 261.083 180.158 260.843 180.158 260.562C180.174 260.264 180.183 259.891 180.183 259.444L180.183 245.316L180.58 245.713L178.693 245.713C178.312 245.713 177.981 245.721 177.7 245.738C177.435 245.738 177.203 245.754 177.004 245.787C176.822 245.804 176.632 245.837 176.433 245.887L176.334 245.887L176.334 244.67L187.756 244.67ZM194.212 244.67L194.212 244.769C194.163 244.968 194.121 245.175 194.088 245.39C194.072 245.589 194.055 245.837 194.038 246.135C194.038 246.433 194.038 246.814 194.038 247.277L194.038 258.277L192.822 258.277L204.716 244.67L205.51 244.67C205.444 244.935 205.395 245.2 205.361 245.464C205.345 245.729 205.328 246.218 205.312 246.93C205.312 247.625 205.312 248.527 205.312 249.636L205.312 259.444C205.312 259.908 205.312 260.289 205.312 260.587C205.328 260.885 205.345 261.141 205.361 261.356C205.378 261.555 205.403 261.754 205.436 261.952L205.436 262.052L201.413 262.052L201.413 261.952C201.463 261.754 201.496 261.555 201.513 261.356C201.546 261.141 201.562 260.885 201.562 260.587C201.579 260.289 201.587 259.908 201.587 259.444L201.587 248.444L202.804 248.444L190.91 262.052L190.115 262.052C190.181 261.82 190.223 261.597 190.239 261.381C190.272 261.166 190.289 260.926 190.289 260.661C190.305 260.38 190.314 260.057 190.314 259.693L190.314 247.277C190.314 246.814 190.305 246.433 190.289 246.135C190.289 245.837 190.281 245.589 190.264 245.39C190.248 245.175 190.223 244.968 190.19 244.769L190.19 244.67L194.212 244.67ZM213.269 244.67L213.269 244.769C213.22 244.968 213.178 245.175 213.145 245.39C213.129 245.589 213.112 245.837 213.096 246.135C213.096 246.433 213.096 246.814 213.096 247.277L213.096 252.392L212.673 252.392L218.136 247.277C218.6 246.847 219.014 246.449 219.378 246.085C219.759 245.705 220.04 245.407 220.222 245.191C220.404 244.976 220.495 244.835 220.495 244.769L220.495 244.67L222.457 244.67L222.457 244.769C222.275 244.902 222.084 245.051 221.886 245.216C221.704 245.382 221.489 245.58 221.24 245.812C220.992 246.027 220.719 246.276 220.421 246.557L219.651 247.277L217.739 249.09L217.739 248.32L222.507 258.923C222.871 259.751 223.194 260.363 223.475 260.761C223.756 261.158 224.054 261.489 224.369 261.754L224.369 262.052C223.641 262.25 222.879 262.267 222.084 262.101C221.306 261.952 220.586 261.613 219.924 261.083C219.279 260.537 218.774 259.825 218.409 258.948L215.057 250.927L215.678 250.927L212.773 253.634L213.096 252.964L213.096 259.444C213.096 259.908 213.096 260.289 213.096 260.587C213.112 260.885 213.129 261.141 213.145 261.356C213.178 261.555 213.22 261.754 213.269 261.952L213.269 262.052L209.247 262.052L209.247 261.952C209.28 261.754 209.305 261.555 209.321 261.356C209.338 261.141 209.346 260.885 209.346 260.587C209.363 260.289 209.371 259.908 209.371 259.444L209.371 247.277C209.371 246.814 209.363 246.433 209.346 246.135C209.346 245.837 209.338 245.589 209.321 245.39C209.305 245.175 209.28 244.968 209.247 244.769L209.247 244.67L213.269 244.67Z" fill="#F6F1FF"/>
<path opacity="0.5" d="M137.027 283.231C135.425 283.231 134.207 282.013 134.207 280.411L134.207 277.051C134.207 275.449 135.425 274.231 137.027 274.231C138.629 274.231 139.847 275.449 139.847 277.051L139.847 280.411C139.847 282.013 138.629 283.231 137.027 283.231ZM137.027 282.379C138.089 282.379 138.953 281.515 138.953 280.453L138.953 277.009C138.953 275.941 138.089 275.077 137.027 275.077C135.965 275.077 135.101 275.941 135.101 277.009L135.101 280.453C135.101 281.515 135.965 282.379 137.027 282.379ZM144.831 283.231C143.229 283.231 142.011 282.013 142.011 280.411L142.011 277.051C142.011 275.449 143.229 274.231 144.831 274.231C146.433 274.231 147.651 275.449 147.651 277.051L147.651 280.411C147.651 282.013 146.433 283.231 144.831 283.231ZM144.831 282.379C145.893 282.379 146.757 281.515 146.757 280.453L146.757 277.009C146.757 275.941 145.893 275.077 144.831 275.077C143.769 275.077 142.905 275.941 142.905 277.009L142.905 280.453C142.905 281.515 143.769 282.379 144.831 282.379ZM151.495 278.551C150.307 278.551 149.335 277.591 149.335 276.391C149.335 275.215 150.343 274.231 151.495 274.231C152.683 274.231 153.655 275.191 153.655 276.391C153.655 277.591 152.683 278.551 151.495 278.551ZM151.495 277.753C152.233 277.753 152.857 277.129 152.857 276.391C152.857 275.653 152.233 275.029 151.495 275.029C150.757 275.029 150.133 275.653 150.133 276.391C150.133 277.129 150.757 277.753 151.495 277.753ZM158.517 283.231C156.915 283.231 155.697 282.013 155.697 280.411L155.697 277.051C155.697 275.449 156.915 274.231 158.517 274.231C160.119 274.231 161.337 275.449 161.337 277.051L161.337 280.411C161.337 282.013 160.119 283.231 158.517 283.231ZM158.517 282.379C159.579 282.379 160.443 281.515 160.443 280.453L160.443 277.009C160.443 275.941 159.579 275.077 158.517 275.077C157.455 275.077 156.591 275.941 156.591 277.009L156.591 280.453C156.591 281.515 157.455 282.379 158.517 282.379ZM166.322 283.231C164.72 283.231 163.502 282.013 163.502 280.411L163.502 277.051C163.502 275.449 164.72 274.231 166.322 274.231C167.924 274.231 169.142 275.449 169.142 277.051L169.142 280.411C169.142 282.013 167.924 283.231 166.322 283.231ZM166.322 282.379C167.384 282.379 168.248 281.515 168.248 280.453L168.248 277.009C168.248 275.941 167.384 275.077 166.322 275.077C165.26 275.077 164.396 275.941 164.396 277.009L164.396 280.453C164.396 281.515 165.26 282.379 166.322 282.379ZM171.264 277.213L171.822 274.333L172.71 274.333L171.87 277.213L171.264 277.213ZM172.788 277.213L173.346 274.333L174.234 274.333L173.394 277.213L172.788 277.213ZM184.053 279.649L179.013 279.649L179.013 278.893L184.053 278.893L184.053 279.649ZM193.95 275.269L191.418 277.687C192.99 277.675 194.052 278.803 194.052 280.417C194.052 282.079 192.888 283.225 191.298 283.225C190.014 283.225 188.982 282.505 188.616 281.335L189.456 281.083C189.744 281.941 190.458 282.391 191.286 282.373C192.438 282.349 193.14 281.575 193.14 280.417C193.14 279.241 192.39 278.461 191.274 278.461C190.962 278.461 190.596 278.557 190.302 278.701L189.858 277.999L192.828 275.257L188.958 275.257L188.958 274.411L193.95 274.411L193.95 275.269ZM198.909 283.231C197.307 283.231 196.089 282.013 196.089 280.411L196.089 277.051C196.089 275.449 197.307 274.231 198.909 274.231C200.511 274.231 201.729 275.449 201.729 277.051L201.729 280.411C201.729 282.013 200.511 283.231 198.909 283.231ZM198.909 282.379C199.971 282.379 200.835 281.515 200.835 280.453L200.835 277.009C200.835 275.941 199.971 275.077 198.909 275.077C197.847 275.077 196.983 275.941 196.983 277.009L196.983 280.453C196.983 281.515 197.847 282.379 198.909 282.379ZM205.573 278.551C204.385 278.551 203.413 277.591 203.413 276.391C203.413 275.215 204.421 274.231 205.573 274.231C206.761 274.231 207.733 275.191 207.733 276.391C207.733 277.591 206.761 278.551 205.573 278.551ZM205.573 277.753C206.311 277.753 206.935 277.129 206.935 276.391C206.935 275.653 206.311 275.029 205.573 275.029C204.835 275.029 204.211 275.653 204.211 276.391C204.211 277.129 204.835 277.753 205.573 277.753ZM212.595 283.231C210.993 283.231 209.775 282.013 209.775 280.411L209.775 277.051C209.775 275.449 210.993 274.231 212.595 274.231C214.197 274.231 215.415 275.449 215.415 277.051L215.415 280.411C215.415 282.013 214.197 283.231 212.595 283.231ZM212.595 282.379C213.657 282.379 214.521 281.515 214.521 280.453L214.521 277.009C214.521 275.941 213.657 275.077 212.595 275.077C211.533 275.077 210.669 275.941 210.669 277.009L210.669 280.453C210.669 281.515 211.533 282.379 212.595 282.379ZM220.399 283.231C218.797 283.231 217.579 282.013 217.579 280.411L217.579 277.051C217.579 275.449 218.797 274.231 220.399 274.231C222.001 274.231 223.219 275.449 223.219 277.051L223.219 280.411C223.219 282.013 222.001 283.231 220.399 283.231ZM220.399 282.379C221.461 282.379 222.325 281.515 222.325 280.453L222.325 277.009C222.325 275.941 221.461 275.077 220.399 275.077C219.337 275.077 218.473 275.941 218.473 277.009L218.473 280.453C218.473 281.515 219.337 282.379 220.399 282.379ZM225.342 277.213L225.9 274.333L226.788 274.333L225.948 277.213L225.342 277.213ZM226.866 277.213L227.424 274.333L228.312 274.333L227.472 277.213L226.866 277.213Z" fill="#BBBBBB"/>
<path d="M36.5449 92.4453L88.0074 167.495L204.87 167.495L228.457 103.703" stroke="#BBBBBB" stroke-width="2.66048"/>
<circle cx="230.739" cy="97.8792" r="3.73662" fill="#BBBBBB"/>
<path d="M203.565 152.247L206.62 161.649L216.507 161.649L208.508 167.46L211.563 176.863L203.565 171.052L195.567 176.863L198.622 167.46L190.624 161.649L200.51 161.649L203.565 152.247Z" fill="white"/>
<path d="M88.2826 148.455L92.5572 161.611L106.39 161.611L95.1991 169.742L99.4737 182.898L88.2826 174.767L77.0915 182.898L81.3661 169.742L70.175 161.611L84.008 161.611L88.2826 148.455Z" fill="white"/>
<path d="M29.9483 76.7455L37.535 84.5861L47.3362 79.7937L42.2238 89.4319L49.8105 97.2725L39.0641 95.3886L33.9517 105.027L32.4225 94.2244L21.6762 92.3405L31.4775 87.548L29.9483 76.7455Z" fill="white"/>
</svg>
