<svg width="257" height="393" viewBox="0 0 257 393" fill="none" xmlns="http://www.w3.org/2000/svg">
<path opacity="0.2" d="M50.5455 364.074C50.6018 365.975 50.7789 367.889 51.1276 369.667C51.5968 372.059 52.3986 374.321 53.734 375.965C55.1135 377.663 57.0414 378.667 59.5543 378.494C62.0802 378.32 64.1393 376.905 65.778 374.928C67.4107 372.957 68.6992 370.346 69.7096 367.557C69.7324 367.494 69.7525 367.429 69.775 367.366C69.6054 377.594 68.9209 387.392 66.4469 389.866C62.3392 393.973 54.9556 391.578 51.777 389.866C51.777 385.832 51.41 376.442 49.943 371.161C49.5415 369.715 49.8255 367.196 50.5455 364.074ZM120.361 220.057C120.605 223.48 121.389 231.207 122.562 234.728C124.031 239.132 137.967 269.204 142.001 281.673C146.034 294.143 138.7 316.148 144.568 329.352C147.502 329.23 153.516 330.746 154.103 337.787C154.836 346.589 147.135 348.057 148.235 353.925C149.336 359.793 160.337 374.829 151.17 376.663C147.463 377.404 143.396 373.47 139.842 367.914C141.844 365.177 143.137 360.412 141.611 352.97C141.489 352.375 140.907 351.991 140.312 352.112C139.717 352.234 139.334 352.816 139.456 353.411C140.74 359.672 139.884 363.543 138.571 365.823C133.952 357.839 130.465 347.567 130.264 342.555C129.898 333.386 125.862 285.341 117.06 270.67C110.019 258.935 107.036 252.822 106.424 251.231L120.361 220.057ZM117.427 211.254C124.761 209.055 103.49 234.727 100.189 264.434C96.8883 294.141 71.2161 334.851 70.1149 341.454C69.6972 343.961 69.8075 350.803 69.8248 358.608C69.304 361.338 68.5876 364.194 67.6412 366.807C66.6744 369.475 65.4905 371.825 64.0836 373.523C62.6822 375.215 61.1312 376.18 59.403 376.299C57.6616 376.419 56.4075 375.766 55.442 374.577C54.433 373.335 53.7261 371.479 53.2877 369.244C52.4134 364.786 52.6912 359.275 53.2321 355.549L53.0319 355.52C56.5088 345.08 61.7441 332.964 63.5133 328.983C66.4481 322.379 80.7502 272.136 82.2174 261.5C83.6843 250.864 81.1181 233.259 86.986 223.724C94.6881 220.3 111.559 213.014 117.427 211.254ZM34.9059 0C39.3074 0.978356 50.0897 5.86872 58.0114 17.6045C67.9138 32.2748 66.0803 36.3097 71.5817 44.7451C77.0828 53.1803 77.4497 58.6817 78.1832 61.249C78.9169 63.8164 83.3183 69.318 84.4186 74.8193C85.2993 79.2207 94.8102 89.3674 99.4557 93.8906C100.923 94.1351 104.076 94.3305 104.957 93.1572C106.057 91.69 108.625 88.0226 109.725 86.5557C110.605 85.3819 109.602 82.3985 108.991 81.0537C105.934 80.1978 99.9686 77.5329 100.555 73.7188C101.289 68.951 103.856 68.5836 103.123 64.916C102.615 62.3756 102.07 61.6681 101.774 61.6035L101.718 61.5996L102.185 61.4688C104.648 60.7565 108.907 59.1232 109.725 57.2148C110.395 55.6533 115.133 51.9209 120.806 50.9688C119.384 54.7269 118.615 61.5368 123.82 67.4785C126.979 71.0851 126.96 75.0226 126.464 79.1865C126.221 81.219 125.846 83.4129 125.765 85.457C125.71 86.8598 125.787 88.2724 126.147 89.6465C125.57 89.6554 124.985 89.6072 124.395 89.4893C123.539 92.4233 123.222 99.2453 128.797 103.06C135.765 107.827 135.765 103.427 147.868 111.495C159.971 119.564 181.61 127.266 187.478 127.266C193.347 127.266 223.054 140.103 229.656 144.504C236.258 148.905 249.827 160.641 255.329 164.309C258.74 166.583 256.428 166.509 244.326 161.375C246.526 163.576 250.121 168.637 249.828 171.277C249.574 173.559 241.954 163.918 235.215 156.902C234.951 159.06 234.623 161.769 234.422 163.575C234.056 166.876 230.388 168.71 232.221 164.309C233.54 161.144 230.807 154.78 228.821 151.128C228.328 150.8 227.87 150.543 227.455 150.372C221.219 147.805 156.023 131.893 150.435 129.1C143.1 125.432 135.031 121.765 130.997 123.965C126.962 126.166 111.925 140.103 109.358 149.639C109.48 153.062 110.752 160.201 114.859 161.375C119.997 162.842 190.411 172.378 176.108 196.584C161.804 220.789 147.134 182.648 67.5475 229.959C-12.0396 277.271 18.768 186.314 78.1832 168.343C79.1614 166.386 80.8247 157.853 79.651 139.369L79.5817 138.288C78.1729 116.124 77.8982 111.793 82.9518 107.461C88.085 103.058 66.081 67.4829 62.0465 47.3115C58.0121 27.1405 56.1777 21.6387 53.2438 19.0713C50.3096 16.5041 39.3071 14.6703 37.1061 11.7363C35.3456 9.38912 39.5518 9.29065 41.8746 9.53516C36.3731 6.35656 27.2771 0 34.9059 0ZM123.302 50.7461C126.244 50.7209 129.307 51.5699 132.097 53.9141C141.265 61.6153 141.633 64.5495 141.633 67.4834C145.056 70.5398 149.04 77.7533 137.598 82.1543C136.094 84.4109 132.563 88.2258 128.344 89.335C128.002 88.1743 127.91 86.9148 127.964 85.5439C128.041 83.614 128.386 81.6429 128.648 79.4473C129.16 75.1546 129.286 70.3786 125.475 66.0283C120.424 60.2629 121.879 53.547 123.302 50.7461Z" fill="white"/>
<path d="M117.578 160.123L121.822 165.78L128.513 163.491L124.445 169.276L128.689 174.932L121.931 172.851L117.863 178.635L117.754 171.564L110.996 169.482L117.687 167.194L117.578 160.123Z" fill="white"/>
<path d="M88.5349 225.47L90.8878 228.606L94.5974 227.337L92.342 230.544L94.6949 233.68L90.948 232.526L88.6926 235.733L88.6324 231.813L84.8855 230.659L88.5951 229.39L88.5349 225.47Z" fill="white"/>
<path d="M62.8617 224.003L65.2146 227.139L68.9242 225.87L66.6688 229.077L69.0217 232.213L65.2748 231.059L63.0194 234.266L62.9592 230.346L59.2123 229.192L62.9219 227.923L62.8617 224.003Z" fill="white"/>
<path d="M7.76398 226.119L13.5631 230.166L19.2039 225.901L17.1471 232.667L22.9462 236.714L15.8759 236.848L13.8191 243.614L11.5062 236.931L4.43597 237.066L10.0768 232.801L7.76398 226.119Z" fill="white"/>
<path d="M91.1931 85.8235L96.9921 89.8704L102.633 85.6057L100.576 92.3715L106.375 96.4184L99.305 96.553L97.2482 103.319L94.9353 96.6362L87.865 96.7708L93.5059 92.5061L91.1931 85.8235Z" fill="white"/>
<path d="M120.534 117.365L126.333 121.412L131.974 117.147L129.917 123.913L135.716 127.96L128.646 128.095L126.589 134.861L124.276 128.178L117.206 128.313L122.847 124.048L120.534 117.365Z" fill="white"/>
<circle cx="98.9947" cy="127.521" r="3.64713" fill="white"/>
<circle cx="79.1896" cy="172.266" r="2.93409" fill="white"/>
<circle cx="90.7644" cy="191.449" r="2.93409" fill="white"/>
<path d="M72.9619 175.95C73.3743 176.562 73.8764 177.109 74.4473 177.575L17.4756 232.626L64.0996 228.542L86.1973 195.241C86.7029 195.777 87.2863 196.239 87.9307 196.608L65.6416 230.201L65.3486 230.642L64.8203 230.689L14.5742 235.089L11.4805 235.361L13.7139 233.203L72.9619 175.95ZM89.6641 197.327C90.2923 197.498 90.9532 197.592 91.6357 197.592C91.7125 197.592 91.789 197.589 91.8652 197.586V228.021L169.538 199.745C169.791 200.469 170.202 201.118 170.729 201.653L91.1416 230.626L89.6641 231.164V197.327ZM169.96 195.448C169.585 196.084 169.342 196.808 169.272 197.583L118.106 169.306L119.171 167.38L169.96 195.448ZM94.4287 132.969C95.0127 133.417 95.6643 133.78 96.3662 134.042L83.2148 165.502C82.6019 165.106 81.9277 164.798 81.209 164.594L94.4287 132.969ZM127.808 127.266H106.438C106.44 127.19 106.443 127.113 106.443 127.037C106.443 126.354 106.35 125.694 106.179 125.066H127.808V127.266ZM99.1084 94.7847C96.751 96.4771 93.1571 99.2729 90.0537 102.144C88.5011 103.58 87.0917 105.017 86.0244 106.331C84.9284 107.679 84.3006 108.77 84.1387 109.526C84.085 109.777 84.1039 110.151 84.2861 110.68C84.4671 111.206 84.7867 111.819 85.2422 112.506C86.1541 113.883 87.5299 115.435 89.1426 117.019C90.6765 118.526 92.3933 120.03 94.0645 121.401C93.5099 121.884 93.0281 122.448 92.6357 123.074C90.9307 121.673 89.1762 120.136 87.6006 118.588C85.9405 116.958 84.4413 115.283 83.4072 113.722C82.8899 112.941 82.4678 112.157 82.2061 111.397C81.946 110.642 81.8213 109.841 81.9873 109.065C82.2654 107.767 83.1867 106.333 84.3164 104.943C85.4748 103.518 86.9673 102.002 88.5596 100.529C91.7461 97.5807 95.4147 94.7282 97.8252 92.9976L99.1084 94.7847Z" fill="white"/>
<circle cx="174.753" cy="198.418" r="2.56733" fill="white"/>
<path d="M40.0936 278.755L51.3913 278.755L51.3913 279.972L51.2919 279.972C50.6464 279.823 50.3484 279.798 49.0324 279.798L43.9423 279.798L43.9423 295.093L45.581 295.093C48.4365 295.093 49.8518 292.759 49.8518 290.425C49.8518 288.017 48.3372 285.583 45.2831 285.583L44.9355 285.583L44.9355 284.839C45.5314 284.764 46.1025 284.714 46.6984 284.714C50.2491 284.714 53.5266 286.229 53.5266 290.003C53.5266 293.852 50.8202 296.136 46.2266 296.136L40.0936 296.136L40.0936 296.037C40.1929 295.391 40.2178 295.093 40.2178 293.529L40.2178 281.362C40.2178 279.798 40.1929 279.5 40.0936 278.855L40.0936 278.755ZM61.7673 278.755C62.6612 278.755 63.8778 278.581 64.5234 278.06L70.0109 293.529C70.7309 295.59 70.9047 295.888 70.9792 296.037L70.9792 296.136L66.5595 296.136L66.5595 296.037C66.5595 295.888 66.7581 295.59 66.0381 293.529L65.467 291.865L57.8193 291.865L57.1986 293.529C56.404 295.59 56.5282 295.888 56.5282 296.037L56.5282 296.136L54.9639 296.136L54.9639 296.037C55.0384 295.888 55.237 295.59 56.0316 293.529L61.7673 278.755ZM58.2166 290.823L65.0945 290.823L61.817 281.387L58.2166 290.823ZM85.8924 296.136L81.4478 296.136L81.4478 296.037C81.4478 295.888 81.6961 295.615 81.0008 293.529L76.9287 281.511L72.5586 293.529C71.8137 295.59 71.9379 295.888 71.9379 296.037L71.9379 296.136L70.3736 296.136L70.3736 296.037C70.4481 295.888 70.6467 295.59 71.4165 293.529L76.9287 278.755C77.8226 278.755 79.0393 278.581 79.6848 278.06L84.9488 293.529C85.6441 295.615 85.8179 295.888 85.8924 296.037L85.8924 296.136ZM88.0048 278.755L98.8804 278.755L98.8804 280.046L98.7811 280.046C98.1355 279.798 97.763 279.798 96.5215 279.798L91.8535 279.798L91.8535 284.044L96.9436 284.044L96.9436 285.087L91.8535 285.087L91.8535 295.093L97.4402 295.093C98.7562 295.093 99.0542 295.069 99.6998 294.92L99.7991 294.92L99.7991 296.136L88.0048 296.136L88.0048 296.037C88.1042 295.391 88.129 295.093 88.129 293.529L88.129 281.362C88.129 279.798 88.1042 279.5 88.0048 278.855L88.0048 278.755ZM108.959 278.755C113.255 278.755 115.961 280.816 115.961 284.243C115.961 288.116 112.436 290.103 108.736 290.103C108.289 290.103 107.817 290.053 107.37 290.003L107.37 289.258L107.693 289.258C110.35 289.258 112.237 287.495 112.237 284.441C112.237 281.462 110.797 279.798 108.14 279.798L106.377 279.798L106.377 293.529C106.377 295.093 106.402 295.391 106.501 296.037L106.501 296.136L102.528 296.136L102.528 296.037C102.628 295.391 102.653 295.093 102.653 293.529L102.653 281.362C102.653 279.798 102.628 279.5 102.528 278.855L102.528 278.755L108.959 278.755ZM118.266 278.755L122.289 278.755L122.289 278.855C122.14 279.5 122.115 279.798 122.115 281.362L122.115 290.972L132.792 278.755L133.586 278.755C133.388 279.5 133.388 279.873 133.388 283.721L133.388 293.529C133.388 295.093 133.413 295.391 133.512 296.037L133.512 296.136L129.489 296.136L129.489 296.037C129.638 295.391 129.663 295.093 129.663 293.529L129.663 283.92L118.986 296.136L118.192 296.136C118.39 295.391 118.39 295.019 118.39 293.777L118.39 281.362C118.39 279.798 118.366 279.5 118.266 278.855L118.266 278.755ZM147.95 278.755L151.972 278.755L151.972 278.855C151.873 279.5 151.848 279.798 151.848 281.362L151.848 293.529C151.848 295.093 151.873 295.391 151.972 296.037L151.972 296.136L147.95 296.136L147.95 296.037C148.099 295.391 148.124 295.093 148.124 293.529L148.124 285.087L141.171 285.087L141.171 293.529C141.171 295.093 141.196 295.391 141.345 296.037L141.345 296.136L137.322 296.136L137.322 296.037C137.422 295.391 137.447 295.093 137.447 293.529L137.447 281.362C137.447 279.798 137.422 279.5 137.322 278.855L137.322 278.755L141.345 278.755L141.345 278.855C141.196 279.5 141.171 279.798 141.171 281.362L141.171 284.044L148.124 284.044L148.124 281.362C148.124 279.798 148.099 279.5 147.95 278.855L147.95 278.755ZM160.742 278.755C161.636 278.755 162.853 278.581 163.498 278.06L168.986 293.529C169.706 295.59 169.879 295.888 169.954 296.037L169.954 296.136L165.534 296.136L165.534 296.037C165.534 295.888 165.733 295.59 165.013 293.529L164.442 291.865L156.794 291.865L156.173 293.529C155.379 295.59 155.503 295.888 155.503 296.037L155.503 296.136L153.939 296.136L153.939 296.037C154.013 295.888 154.212 295.59 155.006 293.529L160.742 278.755ZM157.191 290.823L164.069 290.823L160.792 281.387L157.191 290.823Z" fill="#F6F1FF"/>
<path opacity="0.5" d="M56.5192 316.951C55.2352 316.951 54.2032 316.231 53.8372 315.061L54.6772 314.809C54.9652 315.667 55.6792 316.117 56.5072 316.099C57.6592 316.075 58.3612 315.301 58.3612 314.143C58.3612 312.967 57.6112 312.187 56.4952 312.187C56.1832 312.187 55.8172 312.283 55.5232 312.427L55.0792 311.725L58.0432 308.983L54.1792 308.983L54.1792 308.137L59.1712 308.137L59.1712 308.995L56.6452 311.413C58.2112 311.401 59.2732 312.529 59.2732 314.143C59.2732 315.805 58.1092 316.951 56.5192 316.951ZM65.114 316.777L65.114 315.103L61.07 315.103L61.07 314.263L63.962 308.137L64.952 308.137L62.06 314.263L65.114 314.263L65.114 311.743L66.002 311.743L66.002 314.263L66.944 314.263L66.944 315.103L66.002 315.103L66.002 316.777L65.114 316.777ZM71.6881 316.957C70.0861 316.957 68.8681 315.739 68.8681 314.137L68.8681 310.777C68.8681 309.175 70.0861 307.957 71.6881 307.957C73.2901 307.957 74.5081 309.175 74.5081 310.777L74.5081 314.137C74.5081 315.739 73.2901 316.957 71.6881 316.957ZM71.6881 316.105C72.7501 316.105 73.6141 315.241 73.6141 314.179L73.6141 310.735C73.6141 309.667 72.7501 308.803 71.6881 308.803C70.6261 308.803 69.7621 309.667 69.7621 310.735L69.7621 314.179C69.7621 315.241 70.6261 316.105 71.6881 316.105ZM78.3523 312.277C77.1643 312.277 76.1923 311.317 76.1923 310.117C76.1923 308.941 77.2003 307.957 78.3523 307.957C79.5403 307.957 80.5123 308.917 80.5123 310.117C80.5123 311.317 79.5403 312.277 78.3523 312.277ZM78.3523 311.479C79.0903 311.479 79.7143 310.855 79.7143 310.117C79.7143 309.379 79.0903 308.755 78.3523 308.755C77.6143 308.755 76.9903 309.379 76.9903 310.117C76.9903 310.855 77.6143 311.479 78.3523 311.479ZM85.3747 316.957C83.7727 316.957 82.5547 315.739 82.5547 314.137L82.5547 310.777C82.5547 309.175 83.7727 307.957 85.3747 307.957C86.9767 307.957 88.1947 309.175 88.1947 310.777L88.1947 314.137C88.1947 315.739 86.9767 316.957 85.3747 316.957ZM85.3747 316.105C86.4367 316.105 87.3007 315.241 87.3007 314.179L87.3007 310.735C87.3007 309.667 86.4367 308.803 85.3747 308.803C84.3127 308.803 83.4487 309.667 83.4487 310.735L83.4487 314.179C83.4487 315.241 84.3127 316.105 85.3747 316.105ZM93.1789 316.957C91.5769 316.957 90.3589 315.739 90.3589 314.137L90.3589 310.777C90.3589 309.175 91.5769 307.957 93.1789 307.957C94.7809 307.957 95.9989 309.175 95.9989 310.777L95.9989 314.137C95.9989 315.739 94.7809 316.957 93.1789 316.957ZM93.1789 316.105C94.2409 316.105 95.1049 315.241 95.1049 314.179L95.1049 310.735C95.1049 309.667 94.2409 308.803 93.1789 308.803C92.1169 308.803 91.2529 309.667 91.2529 310.735L91.2529 314.179C91.2529 315.241 92.1169 316.105 93.1789 316.105ZM98.6791 308.059L99.5671 308.059L98.7271 310.939L98.1211 310.939L98.6791 308.059ZM100.203 308.059L101.091 308.059L100.251 310.939L99.6451 310.939L100.203 308.059ZM105.87 313.375L105.87 312.619L110.91 312.619L110.91 313.375L105.87 313.375ZM118.755 316.957C117.129 316.957 115.833 315.661 115.833 313.975L115.833 310.981C115.833 309.247 117.111 307.963 118.821 307.963C119.805 307.963 120.687 308.419 121.227 309.193L120.549 309.751C120.183 309.181 119.535 308.803 118.821 308.803C117.603 308.803 116.727 309.787 116.727 310.903L116.727 312.229C117.237 311.605 117.993 311.209 118.839 311.209C120.441 311.209 121.683 312.469 121.683 314.071C121.683 315.667 120.357 316.957 118.755 316.957ZM118.755 316.099C119.883 316.099 120.795 315.199 120.795 314.071C120.795 312.943 119.889 312.031 118.761 312.031C117.633 312.031 116.727 312.943 116.727 314.071C116.727 315.187 117.627 316.099 118.755 316.099ZM126.575 316.957C124.973 316.957 123.755 315.739 123.754 314.137L123.754 310.777C123.754 309.175 124.972 307.957 126.574 307.957C128.176 307.957 129.394 309.175 129.394 310.777L129.394 314.137C129.395 315.739 128.177 316.957 126.575 316.957ZM126.575 316.105C127.637 316.105 128.501 315.241 128.5 314.179L128.5 310.735C128.5 309.667 127.636 308.803 126.574 308.803C125.512 308.803 124.648 309.667 124.648 310.735L124.648 314.179C124.648 315.241 125.513 316.105 126.575 316.105ZM133.239 312.277C132.051 312.277 131.079 311.317 131.079 310.117C131.079 308.941 132.087 307.957 133.239 307.957C134.427 307.957 135.399 308.917 135.399 310.117C135.399 311.317 134.427 312.277 133.239 312.277ZM133.239 311.479C133.977 311.479 134.601 310.855 134.601 310.117C134.601 309.379 133.977 308.755 133.239 308.755C132.501 308.755 131.877 309.379 131.877 310.117C131.877 310.855 132.501 311.479 133.239 311.479ZM140.261 316.957C138.659 316.957 137.441 315.739 137.441 314.137L137.441 310.777C137.441 309.175 138.659 307.957 140.261 307.957C141.863 307.957 143.081 309.175 143.081 310.777L143.081 314.137C143.081 315.739 141.863 316.957 140.261 316.957ZM140.261 316.105C141.323 316.105 142.187 315.241 142.187 314.179L142.187 310.735C142.187 309.667 141.323 308.803 140.261 308.803C139.199 308.803 138.335 309.667 138.335 310.735L138.335 314.179C138.335 315.241 139.199 316.105 140.261 316.105ZM148.065 316.957C146.463 316.957 145.245 315.739 145.245 314.137L145.245 310.777C145.245 309.175 146.463 307.957 148.065 307.957C149.667 307.957 150.885 309.175 150.885 310.777L150.885 314.137C150.885 315.739 149.667 316.957 148.065 316.957ZM148.065 316.105C149.127 316.105 149.991 315.241 149.991 314.179L149.991 310.735C149.991 309.667 149.127 308.803 148.065 308.803C147.003 308.803 146.139 309.667 146.139 310.735L146.139 314.179C146.139 315.241 147.003 316.105 148.065 316.105ZM153.565 308.059L154.453 308.059L153.613 310.939L153.007 310.939L153.565 308.059ZM155.089 308.059L155.977 308.059L155.137 310.939L154.531 310.939L155.089 308.059Z" fill="#F6F1FF"/>
</svg>
