<svg width="354" height="535" viewBox="0 0 354 535" fill="none" xmlns="http://www.w3.org/2000/svg">
<path opacity="0.2" d="M72.8602 496.338C72.9369 498.93 73.1786 501.54 73.6542 503.964C74.294 507.225 75.387 510.307 77.2079 512.549C79.0885 514.864 81.7166 516.232 85.1425 515.996C88.5859 515.758 91.3929 513.831 93.6268 511.135C95.853 508.448 97.6097 504.888 98.9872 501.086C99.0173 501.003 99.0453 500.918 99.0751 500.835C98.8436 514.775 97.9112 528.127 94.5389 531.5C88.939 537.1 78.8724 533.833 74.5389 531.5C74.5389 526 74.0389 513.2 72.0389 506C71.4914 504.029 71.8784 500.594 72.8602 496.338ZM168.039 300C168.372 304.667 169.439 315.2 171.039 320C173.039 326 192.039 367 197.539 384C203.039 401 193.039 431 201.039 449C205.039 448.833 213.239 450.9 214.039 460.5C215.039 472.5 204.539 474.5 206.039 482.5C207.539 490.5 222.539 511 210.039 513.5C204.986 514.511 199.444 509.148 194.599 501.574C197.328 497.843 199.09 491.345 197.009 481.198C196.842 480.387 196.049 479.864 195.237 480.03C194.426 480.197 193.903 480.99 194.069 481.802C195.82 490.336 194.654 495.612 192.864 498.722C186.567 487.836 181.812 473.833 181.539 467C181.039 454.5 175.539 389 163.539 369C153.939 353 149.872 344.667 149.039 342.5L168.039 300ZM164.039 288C174.038 285.001 145.039 320 140.539 360.5C136.039 401 101.039 456.5 99.5389 465.5C98.9695 468.917 99.1197 478.243 99.1434 488.882C98.4331 492.605 97.4568 496.501 96.1659 500.064C94.8478 503.703 93.2354 506.906 91.3173 509.221C89.4066 511.527 87.2915 512.841 84.9354 513.004C82.5617 513.167 80.8522 512.277 79.536 510.657C78.1601 508.963 77.1962 506.433 76.5985 503.387C75.4063 497.309 75.7859 489.796 76.5233 484.716L76.2509 484.676C80.9909 470.444 88.127 453.927 90.5389 448.5C94.539 439.5 114.039 371 116.039 356.5C118.039 342 114.539 318 122.539 305C133.039 300.333 156.039 290.4 164.039 288ZM51.5389 0C57.5394 1.33374 72.2394 8.0007 83.0389 24C96.5387 43.9997 94.039 49.5001 101.539 61C109.039 72.4998 109.539 80 110.539 83.5C111.539 87.0001 117.539 94.5002 119.039 102C120.239 108 133.206 121.833 139.539 128C141.539 128.333 145.839 128.6 147.039 127C148.539 125 152.039 120 153.539 118C154.738 116.4 153.372 112.333 152.539 110.5C148.372 109.333 140.239 105.7 141.039 100.5C142.039 94.0002 145.539 93.4998 144.539 88.5C143.8 84.8047 143.003 83.9543 142.623 83.9775C142.595 83.985 142.567 83.9927 142.539 84C142.564 83.9876 142.592 83.9795 142.623 83.9775C145.822 83.1247 152.35 80.7751 153.539 78C154.452 75.8711 160.912 70.7832 168.646 69.4854C166.708 74.6087 165.658 83.8918 172.754 91.9922C177.061 96.9091 177.036 102.277 176.358 107.954C176.028 110.725 175.517 113.716 175.407 116.503C175.332 118.416 175.436 120.341 175.927 122.215C175.14 122.227 174.343 122.161 173.539 122C172.372 126 171.939 135.3 179.539 140.5C189.038 146.999 189.039 141 205.539 152C222.039 163 251.539 173.5 259.539 173.5C267.541 173.501 308.039 191 317.039 197C326.039 203 344.539 219 352.039 224C356.689 227.1 353.538 226.999 337.039 220C340.039 223 344.939 229.9 344.539 233.5C344.193 236.612 333.805 223.468 324.619 213.903C324.258 216.845 323.811 220.538 323.537 223C323.037 227.5 318.037 230 320.537 224C322.335 219.685 318.608 211.008 315.9 206.029C315.229 205.583 314.605 205.233 314.039 205C305.539 201.5 216.66 179.809 209.039 176C199.04 171 188.039 166.001 182.539 169C177.039 172 156.539 191 153.039 204C153.206 208.667 154.939 218.4 160.539 220C167.546 222.001 263.537 235.002 244.039 268C224.539 301 204.538 249.001 96.0389 313.5C-12.4611 378 29.5389 254 110.539 229.5C111.872 226.833 114.139 215.199 112.539 190L112.445 188.527C110.525 158.311 110.149 152.405 117.039 146.5C124.037 140.498 94.0391 91.9995 88.5389 64.5C83.0389 37.0008 80.5387 29.5001 76.5389 26C72.539 22.5001 57.5397 19.9998 54.5389 16C52.1388 12.8 57.8722 12.6667 61.0389 13C53.5388 8.66667 41.1388 0 51.5389 0ZM172.048 69.1826C176.058 69.1481 180.234 70.304 184.039 73.5C196.538 83.9997 197.039 88.0001 197.039 92C201.705 96.1669 207.137 106 191.539 112C189.488 115.077 184.675 120.281 178.923 121.793C178.455 120.21 178.33 118.491 178.404 116.621C178.508 113.99 178.98 111.302 179.338 108.309C180.036 102.456 180.206 95.9454 175.011 90.0146C168.126 82.1559 170.108 73.0021 172.048 69.1826Z" fill="white"/>
<path d="M164.245 218.294L170.031 226.005L179.153 222.886L173.607 230.771L179.393 238.482L170.179 235.645L164.633 243.53L164.485 233.891L155.272 231.053L164.394 227.933L164.245 218.294Z" fill="white"/>
<path d="M124.651 307.38L127.859 311.656L132.916 309.926L129.841 314.298L133.049 318.573L127.941 317L124.866 321.372L124.784 316.028L119.676 314.454L124.733 312.725L124.651 307.38Z" fill="white"/>
<path d="M89.651 305.38L92.8587 309.656L97.9159 307.926L94.8411 312.298L98.0488 316.573L92.9408 315L89.866 319.372L89.7839 314.028L84.6759 312.454L89.7331 310.725L89.651 305.38Z" fill="white"/>
<path d="M14.537 308.265L22.4429 313.782L30.133 307.968L27.3289 317.191L35.2348 322.708L25.5959 322.892L22.7919 332.116L19.6388 323.005L10 323.189L17.6901 317.375L14.537 308.265Z" fill="white"/>
<path d="M128.275 117.002L136.181 122.519L143.871 116.705L141.067 125.929L148.973 131.446L139.334 131.63L136.53 140.854L133.377 131.743L123.738 131.927L131.428 126.113L128.275 117.002Z" fill="white"/>
<path d="M168.275 160.002L176.181 165.519L183.871 159.705L181.067 168.929L188.973 174.446L179.334 174.63L176.53 183.854L173.377 174.743L163.738 174.927L171.428 169.113L168.275 160.002Z" fill="white"/>
<circle cx="138.91" cy="173.848" r="4.97208" fill="white"/>
<circle cx="111.911" cy="234.848" r="4" fill="white"/>
<circle cx="127.69" cy="261" r="4" fill="white"/>
<path d="M103.421 239.868C103.983 240.704 104.667 241.451 105.445 242.086L27.7772 317.136L91.3397 311.568L121.464 266.17C122.153 266.902 122.949 267.531 123.827 268.033L93.4403 313.829L93.0409 314.432L92.3212 314.494L23.8212 320.494L19.6024 320.863L22.6483 317.921L103.421 239.868ZM126.19 269.013C127.047 269.246 127.947 269.375 128.878 269.375C128.982 269.375 129.086 269.369 129.19 269.366V310.857L235.081 272.309C235.426 273.296 235.985 274.182 236.703 274.911L128.203 314.409L126.19 315.143V269.013ZM235.656 266.451C235.145 267.319 234.815 268.306 234.72 269.36L164.965 230.812L166.416 228.188L235.656 266.451ZM132.685 181.275C133.481 181.886 134.369 182.381 135.326 182.737L117.397 225.627C116.562 225.087 115.643 224.666 114.663 224.388L132.685 181.275ZM178.19 173.5H149.057C149.061 173.396 149.065 173.292 149.065 173.188C149.065 172.257 148.938 171.356 148.704 170.5H178.19V173.5ZM139.065 129.219C135.852 131.526 130.952 135.337 126.722 139.251C124.605 141.209 122.683 143.169 121.227 144.959C119.733 146.797 118.878 148.284 118.657 149.314C118.584 149.657 118.61 150.166 118.858 150.889C119.105 151.605 119.54 152.44 120.161 153.378C121.404 155.254 123.28 157.37 125.478 159.53C127.57 161.585 129.91 163.636 132.188 165.506C131.432 166.165 130.775 166.933 130.24 167.786C127.916 165.876 125.525 163.78 123.377 161.67C121.113 159.447 119.07 157.163 117.66 155.035C116.955 153.971 116.379 152.902 116.022 151.866C115.668 150.836 115.497 149.743 115.724 148.686C116.103 146.916 117.359 144.961 118.899 143.066C120.479 141.123 122.514 139.057 124.684 137.049C129.029 133.03 134.029 129.141 137.315 126.781L139.065 129.219Z" fill="white"/>
<circle cx="242.19" cy="270.5" r="3.5" fill="white"/>
<g filter="url(#filter0_f_31_483)">
<path d="M164.245 218.294L170.031 226.005L179.153 222.886L173.607 230.771L179.393 238.482L170.179 235.645L164.633 243.53L164.485 233.891L155.272 231.053L164.394 227.933L164.245 218.294Z" fill="white"/>
<path d="M124.651 307.38L127.859 311.656L132.916 309.926L129.841 314.298L133.049 318.573L127.941 317L124.866 321.372L124.784 316.028L119.676 314.454L124.733 312.725L124.651 307.38Z" fill="white"/>
<path d="M89.651 305.38L92.8587 309.656L97.9159 307.926L94.8411 312.298L98.0488 316.573L92.9408 315L89.866 319.372L89.7839 314.028L84.6759 312.454L89.7331 310.725L89.651 305.38Z" fill="white"/>
<path d="M14.537 308.265L22.4429 313.782L30.133 307.968L27.3289 317.191L35.2348 322.708L25.5959 322.892L22.7919 332.116L19.6388 323.005L10 323.189L17.6901 317.375L14.537 308.265Z" fill="white"/>
<path d="M128.275 117.002L136.181 122.519L143.871 116.705L141.067 125.929L148.973 131.446L139.334 131.63L136.53 140.854L133.377 131.743L123.738 131.927L131.428 126.113L128.275 117.002Z" fill="white"/>
<path d="M168.275 160.002L176.181 165.519L183.871 159.705L181.067 168.929L188.973 174.446L179.334 174.63L176.53 183.854L173.377 174.743L163.738 174.927L171.428 169.113L168.275 160.002Z" fill="white"/>
<circle cx="138.91" cy="173.848" r="4.97208" fill="white"/>
<circle cx="111.911" cy="234.848" r="4" fill="white"/>
<circle cx="127.69" cy="261" r="4" fill="white"/>
<path d="M103.421 239.868C103.983 240.704 104.667 241.451 105.445 242.086L27.7772 317.136L91.3397 311.568L121.464 266.17C122.153 266.902 122.949 267.531 123.827 268.033L93.4403 313.829L93.0409 314.432L92.3212 314.494L23.8212 320.494L19.6024 320.863L22.6483 317.921L103.421 239.868ZM126.19 269.013C127.047 269.246 127.947 269.375 128.878 269.375C128.982 269.375 129.086 269.369 129.19 269.366V310.857L235.081 272.309C235.426 273.296 235.985 274.182 236.703 274.911L128.203 314.409L126.19 315.143V269.013ZM235.656 266.451C235.145 267.319 234.815 268.306 234.72 269.36L164.965 230.812L166.416 228.188L235.656 266.451ZM132.685 181.275C133.481 181.886 134.369 182.381 135.326 182.737L117.397 225.627C116.562 225.087 115.643 224.666 114.663 224.388L132.685 181.275ZM178.19 173.5H149.057C149.061 173.396 149.065 173.292 149.065 173.188C149.065 172.257 148.938 171.356 148.704 170.5H178.19V173.5ZM139.065 129.219C135.852 131.526 130.952 135.337 126.722 139.251C124.605 141.209 122.683 143.169 121.227 144.959C119.733 146.797 118.878 148.284 118.657 149.314C118.584 149.657 118.61 150.166 118.858 150.889C119.105 151.605 119.54 152.44 120.161 153.378C121.404 155.254 123.28 157.37 125.478 159.53C127.57 161.585 129.91 163.636 132.188 165.506C131.432 166.165 130.775 166.933 130.24 167.786C127.916 165.876 125.525 163.78 123.377 161.67C121.113 159.447 119.07 157.163 117.66 155.035C116.955 153.971 116.379 152.902 116.022 151.866C115.668 150.836 115.497 149.743 115.724 148.686C116.103 146.916 117.359 144.961 118.899 143.066C120.479 141.123 122.514 139.057 124.684 137.049C129.029 133.03 134.029 129.141 137.315 126.781L139.065 129.219Z" fill="white"/>
<circle cx="242.19" cy="270.5" r="3.5" fill="white"/>
</g>
<g filter="url(#filter1_f_31_483)">
<path d="M38.5821 370.877L57.5119 370.877L57.5119 372.916L57.3454 372.916C56.2637 372.666 55.7645 372.625 53.5595 372.625L45.0307 372.625L45.0307 398.253L47.7765 398.253C52.561 398.253 54.9324 394.342 54.9324 390.431C54.9324 386.395 52.3946 382.318 47.2773 382.318L46.6948 382.318L46.6948 381.07C47.6933 380.945 48.6502 380.862 49.6487 380.862C55.5981 380.862 61.0898 383.4 61.0898 389.724C61.0898 396.172 56.555 400 48.8582 400L38.5821 400L38.5821 399.834C38.7485 398.752 38.7901 398.253 38.7901 395.632L38.7901 375.246C38.7901 372.625 38.7485 372.125 38.5821 371.044L38.5821 370.877ZM74.8974 370.877C76.3952 370.877 78.4338 370.586 79.5155 369.712L88.71 395.632C89.9165 399.085 90.2077 399.584 90.3325 399.834L90.3325 400L82.927 400L82.927 399.834C82.927 399.584 83.2598 399.085 82.0533 395.632L81.0964 392.844L68.2824 392.844L67.2423 395.632C65.911 399.085 66.119 399.584 66.119 399.834L66.119 400L63.498 400L63.498 399.834C63.6228 399.584 63.9556 399.085 65.2869 395.632L74.8974 370.877ZM68.9481 391.097L80.4724 391.097L74.9806 375.287L68.9481 391.097ZM115.32 400L107.873 400L107.873 399.834C107.873 399.584 108.289 399.126 107.124 395.632L100.301 375.495L92.9789 395.632C91.7308 399.085 91.9388 399.584 91.9388 399.834L91.9388 400L89.3178 400L89.3178 399.834C89.4426 399.584 89.7754 399.085 91.0651 395.632L100.301 370.877C101.799 370.877 103.838 370.586 104.919 369.712L113.739 395.632C114.904 399.126 115.195 399.584 115.32 399.834L115.32 400ZM118.86 370.877L137.082 370.877L137.082 373.041L136.916 373.041C135.834 372.625 135.21 372.625 133.13 372.625L125.308 372.625L125.308 379.739L133.837 379.739L133.837 381.486L125.308 381.486L125.308 398.253L134.669 398.253C136.874 398.253 137.374 398.211 138.455 397.961L138.622 397.961L138.622 400L118.86 400L118.86 399.834C119.026 398.752 119.068 398.253 119.068 395.632L119.068 375.246C119.068 372.625 119.026 372.125 118.86 371.044L118.86 370.877ZM153.97 370.877C161.168 370.877 165.703 374.33 165.703 380.072C165.703 386.562 159.795 389.89 153.596 389.89C152.847 389.89 152.057 389.807 151.308 389.724L151.308 388.476L151.849 388.476C156.3 388.476 159.462 385.522 159.462 380.404C159.462 375.412 157.049 372.625 152.597 372.625L149.644 372.625L149.644 395.632C149.644 398.253 149.685 398.752 149.852 399.834L149.852 400L143.195 400L143.195 399.834C143.361 398.752 143.403 398.253 143.403 395.632L143.403 375.246C143.403 372.625 143.361 372.125 143.195 371.044L143.195 370.877L153.97 370.877ZM169.564 370.877L176.304 370.877L176.304 371.044C176.055 372.125 176.013 372.625 176.013 375.246L176.013 391.346L193.903 370.877L195.234 370.877C194.901 372.125 194.901 372.749 194.901 379.198L194.901 395.632C194.901 398.253 194.943 398.752 195.109 399.834L195.109 400L188.369 400L188.369 399.834C188.619 398.752 188.661 398.253 188.661 395.632L188.661 379.531L170.771 400L169.44 400C169.772 398.752 169.772 398.128 169.772 396.048L169.772 375.246C169.772 372.625 169.731 372.125 169.564 371.044L169.564 370.877ZM219.301 370.877L226.04 370.877L226.04 371.044C225.874 372.125 225.832 372.625 225.832 375.246L225.832 395.632C225.832 398.253 225.874 398.752 226.04 399.834L226.04 400L219.301 400L219.301 399.834C219.55 398.752 219.592 398.253 219.592 395.632L219.592 381.486L207.943 381.486L207.943 395.632C207.943 398.253 207.984 398.752 208.234 399.834L208.234 400L201.494 400L201.494 399.834C201.66 398.752 201.702 398.253 201.702 395.632L201.702 375.246C201.702 372.625 201.66 372.125 201.494 371.044L201.494 370.877L208.234 370.877L208.234 371.044C207.984 372.125 207.943 372.625 207.943 375.246L207.943 379.739L219.592 379.739L219.592 375.246C219.592 372.625 219.55 372.125 219.301 371.044L219.301 370.877ZM240.735 370.877C242.232 370.877 244.271 370.586 245.353 369.712L254.547 395.632C255.754 399.085 256.045 399.584 256.17 399.834L256.17 400L248.764 400L248.764 399.834C248.764 399.584 249.097 399.085 247.891 395.632L246.934 392.844L234.12 392.844L233.08 395.632C231.748 399.085 231.956 399.584 231.956 399.834L231.956 400L229.335 400L229.335 399.834C229.46 399.584 229.793 399.085 231.124 395.632L240.735 370.877ZM234.785 391.097L246.31 391.097L240.818 375.287L234.785 391.097Z" fill="#F6F1FF"/>
</g>
<path d="M38.5821 370.877L57.5119 370.877L57.5119 372.916L57.3454 372.916C56.2637 372.666 55.7645 372.625 53.5595 372.625L45.0307 372.625L45.0307 398.253L47.7765 398.253C52.561 398.253 54.9324 394.342 54.9324 390.431C54.9324 386.395 52.3946 382.318 47.2773 382.318L46.6948 382.318L46.6948 381.07C47.6933 380.945 48.6502 380.862 49.6487 380.862C55.5981 380.862 61.0898 383.4 61.0898 389.724C61.0898 396.172 56.555 400 48.8582 400L38.5821 400L38.5821 399.834C38.7485 398.752 38.7901 398.253 38.7901 395.632L38.7901 375.246C38.7901 372.625 38.7485 372.125 38.5821 371.044L38.5821 370.877ZM74.8974 370.877C76.3952 370.877 78.4338 370.586 79.5155 369.712L88.71 395.632C89.9165 399.085 90.2077 399.584 90.3325 399.834L90.3325 400L82.927 400L82.927 399.834C82.927 399.584 83.2598 399.085 82.0533 395.632L81.0964 392.844L68.2824 392.844L67.2423 395.632C65.911 399.085 66.119 399.584 66.119 399.834L66.119 400L63.498 400L63.498 399.834C63.6228 399.584 63.9556 399.085 65.2869 395.632L74.8974 370.877ZM68.9481 391.097L80.4724 391.097L74.9806 375.287L68.9481 391.097ZM115.32 400L107.873 400L107.873 399.834C107.873 399.584 108.289 399.126 107.124 395.632L100.301 375.495L92.9789 395.632C91.7308 399.085 91.9388 399.584 91.9388 399.834L91.9388 400L89.3178 400L89.3178 399.834C89.4426 399.584 89.7754 399.085 91.0651 395.632L100.301 370.877C101.799 370.877 103.838 370.586 104.919 369.712L113.739 395.632C114.904 399.126 115.195 399.584 115.32 399.834L115.32 400ZM118.86 370.877L137.082 370.877L137.082 373.041L136.916 373.041C135.834 372.625 135.21 372.625 133.13 372.625L125.308 372.625L125.308 379.739L133.837 379.739L133.837 381.486L125.308 381.486L125.308 398.253L134.669 398.253C136.874 398.253 137.374 398.211 138.455 397.961L138.622 397.961L138.622 400L118.86 400L118.86 399.834C119.026 398.752 119.068 398.253 119.068 395.632L119.068 375.246C119.068 372.625 119.026 372.125 118.86 371.044L118.86 370.877ZM153.97 370.877C161.168 370.877 165.703 374.33 165.703 380.072C165.703 386.562 159.795 389.89 153.596 389.89C152.847 389.89 152.057 389.807 151.308 389.724L151.308 388.476L151.849 388.476C156.3 388.476 159.462 385.522 159.462 380.404C159.462 375.412 157.049 372.625 152.597 372.625L149.644 372.625L149.644 395.632C149.644 398.253 149.685 398.752 149.852 399.834L149.852 400L143.195 400L143.195 399.834C143.361 398.752 143.403 398.253 143.403 395.632L143.403 375.246C143.403 372.625 143.361 372.125 143.195 371.044L143.195 370.877L153.97 370.877ZM169.564 370.877L176.304 370.877L176.304 371.044C176.055 372.125 176.013 372.625 176.013 375.246L176.013 391.346L193.903 370.877L195.234 370.877C194.901 372.125 194.901 372.749 194.901 379.198L194.901 395.632C194.901 398.253 194.943 398.752 195.109 399.834L195.109 400L188.369 400L188.369 399.834C188.619 398.752 188.661 398.253 188.661 395.632L188.661 379.531L170.771 400L169.44 400C169.772 398.752 169.772 398.128 169.772 396.048L169.772 375.246C169.772 372.625 169.731 372.125 169.564 371.044L169.564 370.877ZM219.301 370.877L226.04 370.877L226.04 371.044C225.874 372.125 225.832 372.625 225.832 375.246L225.832 395.632C225.832 398.253 225.874 398.752 226.04 399.834L226.04 400L219.301 400L219.301 399.834C219.55 398.752 219.592 398.253 219.592 395.632L219.592 381.486L207.943 381.486L207.943 395.632C207.943 398.253 207.984 398.752 208.234 399.834L208.234 400L201.494 400L201.494 399.834C201.66 398.752 201.702 398.253 201.702 395.632L201.702 375.246C201.702 372.625 201.66 372.125 201.494 371.044L201.494 370.877L208.234 370.877L208.234 371.044C207.984 372.125 207.943 372.625 207.943 375.246L207.943 379.739L219.592 379.739L219.592 375.246C219.592 372.625 219.55 372.125 219.301 371.044L219.301 370.877ZM240.735 370.877C242.232 370.877 244.271 370.586 245.353 369.712L254.547 395.632C255.754 399.085 256.045 399.584 256.17 399.834L256.17 400L248.764 400L248.764 399.834C248.764 399.584 249.097 399.085 247.891 395.632L246.934 392.844L234.12 392.844L233.08 395.632C231.748 399.085 231.956 399.584 231.956 399.834L231.956 400L229.335 400L229.335 399.834C229.46 399.584 229.793 399.085 231.124 395.632L240.735 370.877ZM234.785 391.097L246.31 391.097L240.818 375.287L234.785 391.097Z" fill="#F6F1FF"/>
<path opacity="0.5" d="M66.9771 433.88C64.8258 433.88 63.0967 432.674 62.4835 430.714L63.8909 430.291C64.3734 431.729 65.5697 432.483 66.957 432.453C68.8872 432.412 70.0633 431.116 70.0633 429.175C70.0633 427.205 68.8067 425.898 66.9369 425.898C66.4142 425.898 65.8009 426.059 65.3084 426.3L64.5644 425.124L69.5305 420.53L63.0565 420.53L63.0565 419.113L71.4205 419.113L71.4205 420.55L67.1882 424.601C69.812 424.581 71.5914 426.471 71.5914 429.175C71.5914 431.96 69.6411 433.88 66.9771 433.88ZM81.3775 433.589L81.3775 430.784L74.6019 430.784L74.6019 429.376L79.4473 419.113L81.1061 419.113L76.2606 429.376L81.3775 429.376L81.3775 425.154L82.8653 425.154L82.8653 429.376L84.4436 429.376L84.4436 430.784L82.8653 430.784L82.8653 433.589L81.3775 433.589ZM92.3923 433.89C89.7082 433.89 87.6674 431.849 87.6674 429.165L87.6674 423.536C87.6674 420.852 89.7081 418.811 92.3923 418.811C95.0764 418.811 97.1171 420.852 97.1171 423.536L97.1171 429.165C97.1171 431.849 95.0764 433.89 92.3923 433.89ZM92.3923 432.463C94.1716 432.463 95.6192 431.015 95.6192 429.236L95.6192 423.465C95.6192 421.676 94.1716 420.228 92.3923 420.228C90.6129 420.228 89.1653 421.676 89.1653 423.465L89.1653 429.236C89.1653 431.015 90.6129 432.463 92.3923 432.463ZM103.558 426.049C101.568 426.049 99.9389 424.441 99.9389 422.43C99.9389 420.46 101.628 418.811 103.558 418.811C105.548 418.811 107.177 420.419 107.177 422.43C107.177 424.441 105.548 426.049 103.558 426.049ZM103.558 424.712C104.794 424.712 105.84 423.666 105.84 422.43C105.84 421.193 104.794 420.148 103.558 420.148C102.321 420.148 101.276 421.193 101.276 422.43C101.276 423.666 102.321 424.712 103.558 424.712ZM115.324 433.89C112.64 433.89 110.599 431.849 110.599 429.165L110.599 423.536C110.599 420.852 112.64 418.811 115.324 418.811C118.008 418.811 120.049 420.852 120.049 423.536L120.049 429.165C120.049 431.849 118.008 433.89 115.324 433.89ZM115.324 432.463C117.103 432.463 118.551 431.015 118.551 429.236L118.551 423.465C118.551 421.676 117.103 420.228 115.324 420.228C113.544 420.228 112.097 421.676 112.097 423.465L112.097 429.236C112.097 431.015 113.544 432.463 115.324 432.463ZM128.399 433.89C125.715 433.89 123.675 431.849 123.675 429.165L123.675 423.536C123.675 420.852 125.715 418.811 128.399 418.811C131.084 418.811 133.124 420.852 133.124 423.536L133.124 429.165C133.124 431.849 131.084 433.89 128.399 433.89ZM128.399 432.463C130.179 432.463 131.626 431.015 131.626 429.236L131.626 423.465C131.626 421.676 130.179 420.228 128.399 420.228C126.62 420.228 125.173 421.676 125.173 423.465L125.173 429.236C125.173 431.015 126.62 432.463 128.399 432.463ZM137.615 418.982L139.103 418.982L137.695 423.807L136.68 423.807L137.615 418.982ZM140.168 418.982L141.656 418.982L140.249 423.807L139.233 423.807L140.168 418.982ZM149.664 427.889L149.664 426.622L158.108 426.622L158.108 427.889L149.664 427.889ZM171.252 433.89C168.527 433.89 166.356 431.719 166.356 428.894L166.356 423.878C166.356 420.972 168.497 418.821 171.362 418.821C173.011 418.821 174.489 419.585 175.393 420.882L174.257 421.817C173.644 420.862 172.559 420.228 171.362 420.228C169.322 420.228 167.854 421.877 167.854 423.747L167.854 425.969C168.708 424.923 169.975 424.26 171.392 424.26C174.077 424.26 176.157 426.371 176.157 429.055C176.157 431.729 173.936 433.89 171.252 433.89ZM171.252 432.453C173.142 432.453 174.67 430.945 174.67 429.055C174.67 427.165 173.152 425.637 171.262 425.637C169.372 425.637 167.854 427.165 167.854 429.055C167.854 430.925 169.362 432.453 171.252 432.453ZM184.353 433.89C181.669 433.89 179.628 431.849 179.628 429.165L179.628 423.536C179.628 420.852 181.669 418.811 184.353 418.811C187.037 418.811 189.078 420.852 189.078 423.536L189.078 429.165C189.078 431.849 187.037 433.89 184.353 433.89ZM184.353 432.463C186.132 432.463 187.58 431.015 187.58 429.236L187.58 423.465C187.58 421.676 186.132 420.228 184.353 420.228C182.574 420.228 181.126 421.676 181.126 423.465L181.126 429.236C181.126 431.015 182.574 432.463 184.353 432.463ZM195.519 426.049C193.528 426.049 191.9 424.441 191.9 422.43C191.9 420.46 193.588 418.811 195.519 418.811C197.509 418.811 199.138 420.419 199.138 422.43C199.138 424.44 197.509 426.049 195.519 426.049ZM195.519 424.712C196.755 424.712 197.801 423.666 197.801 422.43C197.801 421.193 196.755 420.148 195.519 420.148C194.282 420.148 193.237 421.193 193.237 422.43C193.237 423.666 194.282 424.712 195.519 424.712ZM207.284 433.89C204.6 433.89 202.56 431.849 202.56 429.165L202.56 423.536C202.56 420.852 204.6 418.811 207.284 418.811C209.968 418.811 212.009 420.852 212.009 423.536L212.009 429.165C212.009 431.849 209.968 433.89 207.284 433.89ZM207.284 432.463C209.064 432.463 210.511 431.015 210.511 429.236L210.511 423.465C210.511 421.676 209.064 420.228 207.284 420.228C205.505 420.228 204.057 421.676 204.057 423.465L204.057 429.236C204.057 431.015 205.505 432.463 207.284 432.463ZM220.36 433.89C217.676 433.89 215.635 431.849 215.635 429.165L215.635 423.536C215.635 420.852 217.676 418.811 220.36 418.811C223.044 418.811 225.085 420.852 225.085 423.536L225.085 429.165C225.085 431.849 223.044 433.89 220.36 433.89ZM220.36 432.463C222.139 432.463 223.587 431.015 223.587 429.236L223.587 423.465C223.587 421.676 222.139 420.228 220.36 420.228C218.581 420.228 217.133 421.676 217.133 423.465L217.133 429.236C217.133 431.015 218.581 432.463 220.36 432.463ZM229.576 418.982L231.063 418.982L229.656 423.807L228.641 423.807L229.576 418.982ZM232.129 418.982L233.617 418.982L232.209 423.807L231.194 423.807L232.129 418.982Z" fill="#F6F1FF"/>
<defs>
<filter id="filter0_f_31_483" x="0" y="106.705" width="255.69" height="235.41" filterUnits="userSpaceOnUse" color-interpolation-filters="sRGB">
<feFlood flood-opacity="0" result="BackgroundImageFix"/>
<feBlend mode="normal" in="SourceGraphic" in2="BackgroundImageFix" result="shape"/>
<feGaussianBlur stdDeviation="5" result="effect1_foregroundBlur_31_483"/>
</filter>
<filter id="filter1_f_31_483" x="34.582" y="365.712" width="225.588" height="38.2878" filterUnits="userSpaceOnUse" color-interpolation-filters="sRGB">
<feFlood flood-opacity="0" result="BackgroundImageFix"/>
<feBlend mode="normal" in="SourceGraphic" in2="BackgroundImageFix" result="shape"/>
<feGaussianBlur stdDeviation="2" result="effect1_foregroundBlur_31_483"/>
</filter>
</defs>
</svg>
