<svg width="77" height="150" viewBox="0 0 77 150" fill="none" xmlns="http://www.w3.org/2000/svg">
<g opacity="0.2">
<path d="M36.6726 86.3864C35.37 86.3864 34.2359 86.509 33.1325 86.3558C30.1748 85.9573 27.8301 84.3482 25.6846 82.3867C22.2059 79.1991 19.4474 75.4445 17.1027 71.3834C16.1679 69.7589 15.2331 68.1192 14.191 66.3262C13.6853 67.6135 13.2102 68.7322 12.8117 69.8662C9.16441 80.517 6.80438 91.505 4.68954 102.554C3.40225 109.312 2.17626 116.071 0.904297 122.906C1.10352 122.982 1.30274 123.059 1.51729 123.136C1.97704 123.273 2.43679 123.442 2.91186 123.534C8.09167 124.683 13.2868 125.71 18.5892 126.001C23.0947 126.246 27.6156 126.4 32.1211 126.63C32.6575 126.66 32.9027 126.476 33.0406 125.986C33.3164 125.036 33.6996 124.116 33.9294 123.151C35.8604 114.937 36.9944 106.615 37.0097 98.1713C37.0097 94.2788 36.7952 90.3862 36.6726 86.3864Z" fill="white"/>
<path d="M49.2709 109.282C48.2748 108.822 47.5085 108.071 46.9875 107.106C46.1753 105.573 45.7155 103.918 45.6236 102.217C45.501 100.117 45.6236 97.9873 45.5776 95.8724C45.5623 95.1828 45.7921 94.9376 46.4664 94.861C48.7192 94.5851 50.9566 94.248 53.2094 93.9415C53.7917 93.8649 54.1442 93.7269 54.0063 92.9913C53.4852 90.1716 53.0561 87.3211 52.4738 84.5014C52.06 82.4172 51.4777 80.379 50.926 78.1875C50.6042 78.4787 50.4049 78.6626 50.2057 78.8465C47.4472 81.421 44.4742 83.6891 40.9801 85.1756C40.597 85.3442 40.5204 85.5281 40.5051 85.9112C40.4897 86.1105 40.2752 86.371 40.0913 86.4476C39.938 86.5089 39.6622 86.3863 39.4936 86.279C39.3557 86.1871 39.2944 86.0032 39.1718 85.8346C38.758 85.9572 38.3596 86.0798 37.9152 86.2024C39.2637 99.9182 38.0991 113.358 34.4058 126.829C37.1642 126.599 39.8767 126.492 42.5433 126.139C46.2059 125.649 49.7766 124.699 53.1481 123.105C53.5312 122.921 53.7151 122.737 53.7611 122.277C53.9603 119.58 54.2668 116.898 54.4507 114.201C54.604 111.856 54.6499 109.496 54.7572 106.922C54.3588 107.381 54.1289 107.673 53.8837 107.933C52.4738 109.42 50.7268 109.956 49.2709 109.282Z" fill="white"/>
<path d="M57.1177 63.3685C53.0872 66.6327 49.0721 69.8969 45.0417 73.1611C43.0341 74.7855 41.0265 76.3793 39.0496 78.0497C38.0535 78.8773 37.793 78.9079 36.9041 77.9884C33.548 74.571 30.1918 71.1382 26.7897 67.7514C24.7208 65.6978 22.56 63.7516 19.9701 62.3417C18.1465 61.3456 16.8132 61.6981 15.9244 63.5217C15.4186 64.5791 15.1734 65.6672 15.9703 66.8319C16.9971 68.3184 17.8246 69.9428 18.7595 71.4907C21.2114 75.5211 24.0159 79.2604 27.6786 82.2947C30.3451 84.5015 33.3334 85.5589 36.8275 84.9459C39.8312 84.4249 42.4671 83.0916 44.9344 81.3752C48.3671 78.9692 51.2789 75.9962 53.9914 72.8392C55.7844 70.7551 57.4242 68.5483 59.0333 66.5407C58.359 65.376 57.792 64.3646 57.1943 63.3378C57.2403 63.3072 57.1636 63.3225 57.1177 63.3685Z" fill="white"/>
<path d="M35.9987 54.8174C35.9829 54.8332 35.9829 54.8491 35.9987 54.8174V54.8174Z" fill="white"/>
<path d="M36 54.8178C36.0158 54.8019 36.0158 54.8019 36.0316 54.8019V54.7861C36 54.8019 36 54.8178 36 54.8178Z" fill="white"/>
<path d="M38.6823 75.9497C39.2647 76.2562 39.5099 75.8731 39.847 75.5973C40.5367 75.0302 41.2263 74.4632 41.9159 73.8962C43.8622 72.2871 45.8084 70.6933 47.7547 69.0689C45.0882 63.3987 41.2723 58.6479 36.9813 54.2344C36.6135 54.4489 36.3223 54.6175 36.0158 54.7861C36.0924 55.9354 36.2457 56.9929 36.2457 58.0503C36.2304 60.5942 35.1423 61.9121 32.6597 62.4332C34.5293 66.0499 35.2955 69.9884 36.1844 73.8962C36.5522 75.5053 37.0579 76.3482 38.0387 76.9459C38.0081 76.2562 38.3146 75.7658 38.6823 75.9497Z" fill="white"/>
<path d="M48.8573 68.15C52.1062 65.5755 55.3091 63.0315 58.3281 60.6408C57.9756 59.093 57.6691 57.7138 57.3626 56.4112C51.4932 56.6564 45.5931 56.0434 39.6011 55.0166C43.3097 59.0317 46.5126 63.2614 48.8573 68.15Z" fill="white"/>
<path d="M70.3273 39.1245C68.7182 43.1702 67.2929 47.2926 64.8103 50.94C64.6111 51.0013 64.2126 51.5223 64.09 51.6296C63.8295 51.8748 63.5537 52.1047 63.2625 52.3345C62.6955 52.7943 62.0978 53.2234 61.4695 53.6065C60.7645 54.0356 60.0289 54.434 59.2627 54.7559C59.4313 55.8746 60.7492 56.4416 61.209 57.4684C62.0059 56.886 62.8027 56.2883 63.5996 55.706C64.3506 55.1543 65.1015 54.6026 65.883 54.0969C65.8984 54.1122 65.8984 54.1429 65.9137 54.1582C66.7259 53.913 67.5688 53.5145 68.1971 54.3114C68.8101 55.0777 68.1971 55.7673 67.814 56.4109C68.2891 56.4416 68.7335 56.4722 69.2545 56.5029C71.3387 51.0166 73.7447 45.6069 74.511 39.7528C73.1164 39.5076 71.7831 39.2777 70.4192 39.0479C70.4039 39.0632 70.3426 39.0938 70.3273 39.1245Z" fill="white"/>
<path d="M46.9867 102.017C47.1859 103.627 47.5078 105.236 48.3506 106.661C49.0862 107.872 50.2509 108.5 51.2624 108.025C53.0554 107.213 54.3886 105.757 54.5725 103.841C54.7871 101.527 54.4806 99.167 54.4193 96.9756C51.8447 97.4813 49.3774 97.9717 46.7568 98.4928C46.8335 99.5502 46.8335 100.791 46.9867 102.017Z" fill="white"/>
<path d="M20.9358 55.8135C20.9051 55.8135 20.8898 55.8135 20.8285 55.8288C19.8783 57.3153 18.9282 58.8018 18.0547 60.1657C19.0815 60.5642 20.1389 60.7941 20.9817 61.3611C22.7135 62.5105 24.4298 63.7364 25.9777 65.131C28.9047 67.7669 31.7092 70.556 34.6362 73.3605C33.6861 69.2687 32.7819 65.2536 30.6824 61.545C30.4525 61.8821 30.2839 62.158 30.1 62.4185C29.4411 63.3686 28.4756 63.859 27.3875 63.5525C26.514 63.3073 25.6252 62.8476 24.9202 62.2806C23.4644 61.1006 22.8207 59.3995 22.5602 57.6065C22.407 56.5491 21.9472 55.9974 20.9358 55.8135Z" fill="white"/>
<path d="M65.4684 61.4987C65.8516 61.2229 66.3419 61.1003 66.7864 60.9011C67.2155 60.7018 67.6599 60.5026 68.089 60.3034C68.0583 60.2421 68.0277 60.1808 67.997 60.1042C67.8131 60.1655 67.6292 60.2268 67.4607 60.3034C66.5258 60.7478 65.5757 61.1922 64.6409 61.652C64.2118 61.8665 63.8287 61.7592 63.6907 61.3608C63.6141 61.1003 63.7674 60.7171 63.9206 60.4566C64.0432 60.2574 64.3344 60.1808 64.5489 60.0429C65.4838 59.4452 66.4032 58.8475 67.3381 58.2498C67.2921 58.1732 67.2461 58.0966 67.2001 58.02C66.1121 58.6023 65.024 59.1847 63.9513 59.7823C63.4455 60.0582 62.9245 60.6099 62.4341 59.9049C61.9284 59.1847 62.664 58.8935 63.0931 58.541C64.3344 57.5755 65.5757 56.6101 66.817 55.6446C66.771 55.568 66.7097 55.476 66.6638 55.3994C66.5565 55.4301 66.4339 55.4607 66.3266 55.5067C64.5949 56.2883 63.0471 57.361 61.6679 58.6636C60.7024 59.5678 60.1047 59.4299 59.645 58.2192C59.4611 57.7441 59.2618 57.2691 59.0779 56.794C58.8481 57.8514 59.1086 58.7862 59.553 59.6751C59.6296 59.8436 59.8442 59.9509 59.9821 60.0735C60.2273 60.2727 60.5185 60.4413 60.7024 60.6865C61.2081 61.3301 61.6372 62.0198 62.1429 62.6634C62.2962 62.8626 62.572 63.0619 62.7866 63.0772C63.9513 63.1385 65.1313 63.1538 66.296 63.1691C66.5565 63.1691 66.817 63.0619 67.0775 63.0006C66.6484 62.878 66.2347 63.0006 65.8516 62.9239C65.4991 62.8473 65.2079 62.5715 64.8861 62.3722C65.0853 62.0657 65.2079 61.6979 65.4684 61.4987Z" fill="white"/>
<path d="M27.1724 57.1008C25.977 56.9935 24.8277 56.8863 23.6323 56.7637C23.7856 57.3154 23.9235 57.8058 24.0767 58.2962C24.4905 59.5988 25.1188 60.7788 26.2682 61.6063C27.7241 62.6484 28.521 62.4645 29.3945 60.9014C29.5018 60.7022 29.609 60.5029 29.7623 60.2118C28.2911 59.5988 27.5248 58.4801 27.1724 57.1008Z" fill="white"/>
<path d="M31.3555 60.165C32.4589 61.391 33.9301 61.1458 34.5277 59.6133C35.0488 58.2494 34.8649 56.8855 34.6043 55.4756C33.8841 55.7361 33.2251 55.9813 32.5815 56.2112C32.5968 57.6977 32.6428 59.1382 31.3555 60.165Z" fill="white"/>
<path d="M46.8647 96.1484C46.8647 96.7154 46.8647 97.2364 46.8647 97.7422C49.2095 97.7422 51.4009 97.2365 53.5617 96.5315C54.282 96.2863 54.4965 95.9338 54.1441 95.1982C51.6768 95.5047 49.2708 95.8266 46.8647 96.1484Z" fill="white"/>
<path d="M75.4161 33.2547C75.4774 33.0095 75.5694 32.7643 75.6 32.5191C75.7073 31.7835 75.7993 31.0326 75.9065 30.2816C75.8146 30.2663 75.7379 30.2663 75.646 30.251C75.5387 31.0479 75.4315 31.8448 75.3089 32.6263C75.2322 33.1014 75.125 33.6531 74.466 33.5765C73.807 33.4999 73.899 32.9788 73.9449 32.5037C74.0216 31.6302 74.0982 30.7567 74.1748 29.8832C74.0829 29.8679 74.0062 29.8679 73.9143 29.8525C73.8223 30.8027 73.7457 31.7528 73.6231 32.703C73.5771 32.9941 73.4392 33.3773 73.2247 33.5152C72.7649 33.8217 72.2592 33.4079 72.2745 32.7489C72.2898 31.8294 72.3512 30.91 72.3971 30.0058C72.2132 30.0824 72.1366 30.1897 72.1366 30.297C72.0753 31.0785 72.0753 31.8754 71.9374 32.6417C71.8761 33.0248 71.6615 33.4539 71.3704 33.6838C71.2018 33.8217 70.7267 33.6378 70.4355 33.5152C70.0371 33.3313 69.6846 33.0554 69.3168 32.8102C69.2708 32.8869 69.2095 32.9482 69.1636 33.0248C69.8072 33.4845 70.3742 34.1435 71.0945 34.3734C72.2592 34.7565 73.5312 34.8178 74.7418 35.0783C75.7379 35.2929 75.7992 35.3082 76.2437 34.3427C75.4008 34.2968 75.2169 34.0516 75.4161 33.2547Z" fill="white"/>
<path d="M70.8169 37.8675C72.1808 38.0208 73.4221 38.1587 74.7401 38.312C74.8014 37.607 74.832 37.1013 74.878 36.5496C73.7439 36.2584 72.7019 35.9826 71.6291 35.6914C71.3686 36.3964 71.1234 37.04 70.8169 37.8675Z" fill="white"/>
<path d="M30.9572 58.4338C31.1104 57.8361 31.1564 57.2231 31.2483 56.5488C30.2369 56.7174 29.394 56.8707 28.5205 57.0086C28.7351 57.8514 29.2255 58.3878 29.9151 58.7556C30.3442 59.0008 30.8039 59.0161 30.9572 58.4338Z" fill="white"/>
<path d="M2.68358 34.0826C4.00152 39.1398 5.48803 44.151 7.12779 49.1163C7.72547 50.9552 8.38444 52.8249 9.67173 54.2654C9.91692 54.5413 10.1928 54.8018 10.5299 54.9244C10.8671 55.047 11.2195 55.0163 11.572 55.001C14.2998 54.8325 17.0277 54.6485 19.7555 54.48C18.3763 53.867 17.0123 53.0394 15.6638 51.9973C13.7481 50.5108 12.3536 48.5952 11.5107 46.3271C10.8671 44.5954 10.3767 42.8024 9.85562 41.0247C9.5338 39.8907 9.36523 39.7681 8.21586 39.5689C7.77144 39.4922 7.29637 39.2317 6.97455 38.9252C6.4535 38.4042 6.60675 37.9444 7.26572 37.6073C7.44962 37.5153 7.63352 37.4387 7.81741 37.3314C8.79821 36.8257 9.02808 36.32 8.84418 35.2166C8.53768 33.3776 8.23119 31.5539 8.00131 29.715C7.95534 29.3931 8.18521 28.9334 8.44574 28.7035C12.0011 25.4087 15.4799 22.0525 18.6674 18.4205C18.9739 18.4358 19.2804 18.4512 19.5869 18.4665C16.4453 22.0065 13.0432 25.3014 9.56445 28.5196C9.31925 28.7495 9.08938 29.2092 9.12003 29.5311C9.3499 31.37 9.6564 33.209 9.9629 35.0327C10.1468 36.1361 9.93225 36.6418 8.93613 37.1475C8.75223 37.2395 8.56833 37.3314 8.38444 37.4234C7.72547 37.7605 7.57222 38.2203 8.09326 38.7413C8.41509 39.0631 8.89016 39.3083 9.33458 39.385C10.4839 39.5842 10.6525 39.7221 10.9743 40.8408C11.4954 42.6185 11.9858 44.4115 12.6294 46.1432C13.4723 48.4113 14.8669 50.3269 16.7825 51.8134C22.6213 56.3649 28.8738 56.7634 35.4022 53.4992C38.8043 51.7981 41.0264 49.1009 41.8693 45.3463C42.4057 42.9863 42.421 40.5956 42.3597 38.1896C42.3137 36.366 42.3137 36.366 43.9841 35.6304C44.0761 35.5844 44.168 35.5384 44.26 35.4924C45.2101 34.8948 45.2561 33.914 44.3673 33.2397C44.1987 33.1171 44.0301 32.9945 43.8462 32.9179C42.7275 32.4734 42.4057 31.5539 42.375 30.4659C42.3597 30.0061 42.375 29.5464 42.375 29.0866C42.3597 29.0866 42.3597 29.0866 42.3444 29.0866C42.3444 28.5962 42.3904 28.1058 42.3291 27.6308C42.2831 27.3549 42.1298 27.0178 41.9 26.8645C38.2373 24.244 34.8352 21.3476 31.8468 18.0067C32.2759 17.9454 32.6897 17.8841 33.1188 17.8075C36.1225 21.1943 39.5553 24.1214 43.2486 26.7573C43.4631 26.9105 43.6317 27.2476 43.6777 27.5235C43.7389 27.9986 43.693 28.489 43.693 28.9794C43.7083 28.9794 43.7083 28.9794 43.7236 28.9794C43.7236 29.4391 43.7083 29.8989 43.7236 30.3586C43.7543 31.4467 44.0761 32.3662 45.1948 32.8106C45.3787 32.8872 45.5473 33.0098 45.7159 33.1324C46.6047 33.8067 46.5587 34.7875 45.6086 35.3852C45.5166 35.4465 45.4247 35.4771 45.3327 35.5231C43.6623 36.2587 43.6623 36.2587 43.7083 38.0823C43.7849 40.4884 43.7543 42.879 43.2179 45.2391C42.3904 48.8864 40.2602 51.5529 37.0266 53.254C39.6166 53.0854 42.2065 52.9168 44.7964 52.7636C45.3021 52.7329 45.8538 52.687 46.2522 52.3498C46.5894 52.0586 46.7426 51.5989 46.8652 51.1698C47.4169 49.3155 47.9686 47.4459 48.5203 45.5915C49.0873 43.6606 49.6697 41.7143 49.9455 39.7221C50.2827 37.2395 50.1448 34.7262 50.3593 32.2436C50.39 31.8911 50.4359 31.5233 50.6658 31.2628C51.0489 30.803 51.8152 30.849 52.2136 30.3893C52.5508 30.0061 52.4741 29.3931 52.1983 28.964C51.9224 28.5349 51.4933 28.2284 51.1102 27.9066C50.1601 27.0944 49.4398 26.083 48.7195 25.0715C46.9112 22.5429 45.1029 19.999 43.2945 17.4704C43.08 17.1792 42.8654 16.8727 42.5589 16.6735C42.3137 16.5202 42.0226 16.4436 41.7467 16.367C41.3023 16.2597 40.8579 16.1678 40.3981 16.0758C41.4249 15.7387 42.4363 15.3555 43.4631 14.9418C38.9269 10.942 36.2604 5.83878 34.7739 0C31.8928 1.19534 29.073 2.14548 26.0234 2.39068C22.9584 2.63588 20.016 2.37536 17.1349 0.704945C14.1313 6.1606 11.1582 11.5856 8.18521 17.0259C8.27716 17.1179 8.35379 17.2098 8.44574 17.3018C8.75223 17.3478 9.05873 17.3937 9.36523 17.4244C9.04341 17.8995 8.81353 18.5278 8.46106 19.294C7.60287 21.1943 6.53012 23.0027 5.27348 24.6731C3.6797 26.7879 1.74876 28.7342 0.813941 31.2015C0.522768 31.9524 0.354195 32.8259 0.706667 33.5462C1.02849 34.2818 2.11656 34.6649 2.68358 34.0826ZM20.0773 28.4123C20.0007 28.3051 20.1693 27.876 20.3225 27.8147C21.0121 27.5235 21.7477 27.2936 22.5753 27.0025C22.7592 27.2017 23.0504 27.3702 23.0657 27.5695C23.081 27.7687 22.8818 28.1212 22.6826 28.1978C22.0542 28.443 21.3799 28.6422 20.721 28.7801C20.5217 28.8108 20.1999 28.5962 20.0773 28.4123ZM22.2841 33.914C21.6405 33.9293 21.0888 33.4236 21.0734 32.7953C21.0581 32.1823 21.5945 31.6152 22.2228 31.5999C22.8511 31.5846 23.3875 32.1056 23.4028 32.7493C23.4182 33.4083 22.9431 33.8987 22.2841 33.914ZM28.5673 44.2123C28.1076 44.8713 27.5865 45.4689 26.6517 45.3923C25.5943 45.3004 24.8893 44.6567 24.3376 43.8292C24.2457 43.6913 24.3223 43.2928 24.4602 43.1702C24.5982 43.0629 24.9506 43.0783 25.1345 43.1855C25.4564 43.3848 25.6862 43.7066 25.9927 43.9365C26.5291 44.3656 27.0195 44.3043 27.4179 43.7219C27.4792 43.6453 27.5405 43.5533 27.6018 43.4767C27.847 43.1089 28.0463 42.5419 28.6286 42.8944C29.2569 43.2928 28.8432 43.7985 28.5673 44.2123ZM27.0195 39.385C27.2953 39.6915 27.5405 40.0133 27.1268 40.3504C26.6977 40.7029 26.3452 40.4424 26.1 40.0746C25.8548 39.7068 25.6709 39.293 25.441 38.8792C25.6403 38.3735 25.7475 37.8831 26.0081 37.5153C26.2992 37.1016 26.7743 37.1016 27.1421 37.454C27.5099 37.7912 27.4179 38.0977 26.9888 38.3735C26.4831 38.7107 26.7437 39.0785 27.0195 39.385ZM30.253 32.1363C29.686 32.1056 29.1956 31.6152 29.1956 31.0482C29.1803 30.4199 29.778 29.8376 30.4216 29.8529C31.0653 29.8529 31.4944 30.3126 31.4944 30.9716C31.4944 31.6152 30.8967 32.1669 30.253 32.1363ZM32.3526 26.4201C32.184 26.6193 32.0461 26.9105 31.8315 26.9871C31.4484 27.125 31.0346 27.125 30.6362 27.1863C30.6362 27.171 30.6362 27.1557 30.6362 27.1404C30.4369 27.1404 30.1918 27.217 30.0385 27.1251C29.824 27.0025 29.6094 26.7726 29.5634 26.5427C29.5328 26.4201 29.8546 26.1289 30.0538 26.083C30.6055 25.9757 31.1725 25.8991 31.7242 25.9144C31.9235 25.9297 32.138 26.2362 32.3526 26.4201ZM22.0696 9.45546C22.9431 9.36351 23.8319 9.30221 24.6748 9.22558C24.7514 8.18349 24.8434 7.21802 24.8893 6.26788C24.9047 5.79281 25.1039 5.59358 25.579 5.53228C27.3566 5.34839 27.3107 5.63956 27.3413 6.91152C27.3566 7.58582 27.3873 8.26011 27.4179 9.01103C28.1229 8.94973 28.7819 8.88844 29.4562 8.84246C29.8393 8.81181 30.2224 8.78116 30.6055 8.78116C31.1879 8.78116 31.4484 9.04168 31.4637 9.63935C31.4637 9.94585 31.4484 10.2523 31.4331 10.5588C31.4024 11.3404 31.3105 11.4477 30.5442 11.509C29.5941 11.5856 28.6286 11.6929 27.7244 11.7848C27.6631 12.643 27.5405 13.4706 27.5559 14.2981C27.5712 15.7846 26.9122 15.9685 25.6096 15.5548C25.2112 15.4322 24.9506 15.1716 24.9353 14.7119C24.9047 13.823 24.8434 12.9495 24.7974 12.0147C23.8779 12.0913 22.9737 12.1373 22.0849 12.2293C21.0275 12.3365 20.8282 12.1833 20.721 11.1259C20.5984 9.74663 20.7056 9.59338 22.0696 9.45546Z" fill="white"/>
<path d="M60.1969 62.495C59.7219 62.0812 59.4 61.6521 59.0016 61.1924C58.5572 61.5295 58.266 62.2038 57.8369 62.6176C58.5112 63.3532 59.0323 64.242 59.3081 65.1922C59.4 65.4987 59.4767 65.8205 59.6912 66.0657C60.2429 65.3608 60.8253 64.6711 61.4383 64.0275C61.1164 63.4451 60.6873 62.9241 60.1969 62.495Z" fill="white"/>
<path d="M22.5283 145.816C22.1452 145.617 21.7161 145.587 21.287 145.571C20.7353 145.541 20.1683 145.51 19.6166 145.51C21.0571 139.687 21.854 133.756 22.1911 127.733C19.6319 127.534 17.1339 127.319 14.498 127.12C14.6819 133.495 14.8352 139.824 16.1378 146.046C15.6934 146.782 16.9041 148.514 17.3638 148.927C17.8542 149.372 18.4365 149.724 19.0802 149.878C19.5859 150 20.107 150 20.6127 150C21.2103 150 21.808 149.985 22.375 149.786C22.9421 149.586 23.4631 149.173 23.6164 148.606C23.7083 148.268 23.6777 147.901 23.6164 147.548C23.4631 146.843 23.1413 146.138 22.5283 145.816Z" fill="white"/>
<path d="M46.7887 144.192C46.4056 143.993 45.9765 143.962 45.5474 143.947C45.2102 143.932 44.8731 143.916 44.5206 143.901C44.9957 138.246 45.4554 132.668 45.9152 127.074C43.4939 127.427 41.2104 127.764 38.8811 128.101C38.6818 133.633 39.3715 139.089 40.3523 144.483C40.0304 145.25 41.1798 146.889 41.6089 147.288C42.0993 147.732 42.6816 148.085 43.3253 148.238C43.831 148.36 44.352 148.36 44.8578 148.36C45.4554 148.36 46.0531 148.345 46.6201 148.146C47.1872 147.947 47.7082 147.533 47.8614 146.966C47.9534 146.629 47.9227 146.261 47.8614 145.909C47.7235 145.219 47.4017 144.514 46.7887 144.192Z" fill="white"/>
</g>
<path fill-rule="evenodd" clip-rule="evenodd" d="M40.5234 59.8067C40.6256 59.7937 40.7244 59.7719 40.8193 59.7421L35.7073 72.622C35.4534 72.2985 35.0866 72.0731 34.6745 71.9983L39.5743 59.6533C39.8594 59.7905 40.1862 59.8496 40.5234 59.8067ZM33.4995 72.2111L21.5096 61.5809C21.4267 61.9905 21.1948 62.3531 20.8662 62.6009L32.7559 73.1422C32.883 72.7537 33.1478 72.4215 33.4995 72.2111ZM34.1648 75.355L38.1228 100.826L39.2986 100.644L35.3254 75.0735C35.111 75.2196 34.8598 75.3185 34.5848 75.3535C34.4421 75.3717 34.3014 75.3716 34.1648 75.355ZM39.9207 56.4693L36.2228 52.788L35.3833 53.6314L38.9174 57.1496C39.1506 56.8161 39.5023 56.567 39.9207 56.4693ZM19.6746 59.5547L21.6061 54.7255L22.711 55.1675L20.8328 59.8631C20.508 59.6306 20.1008 59.5115 19.6746 59.5547Z" fill="white"/>
<circle cx="19.8358" cy="61.3357" r="1.01945" transform="rotate(-7.25406 19.8358 61.3357)" fill="white"/>
<circle cx="40.5878" cy="57.9197" r="1.01945" transform="rotate(-7.25406 40.5878 57.9197)" fill="white"/>
<circle cx="34.3202" cy="73.5007" r="1.01945" transform="rotate(-7.25406 34.3202 73.5007)" fill="white"/>
<path d="M41.6218 95.4445L41.0053 100.018L45.1642 102.017L40.6242 102.844L40.0077 107.418L37.8184 103.355L33.2784 104.182L36.4653 100.845L34.2759 96.7825L38.4349 98.782L41.6218 95.4445Z" fill="white"/>
<path d="M37.2058 50.4265L36.907 52.6429L38.9226 53.6119L36.7224 54.0126L36.4236 56.229L35.3626 54.2603L33.1624 54.6611L34.7068 53.0436L33.6458 51.0749L35.6613 52.044L37.2058 50.4265Z" fill="white"/>
<path d="M38.4501 71.0163L36.154 73.6609L37.9596 76.6619L34.7349 75.2954L32.4387 77.9401L32.7418 74.4508L29.5171 73.0843L32.9292 72.2944L33.2323 68.8052L35.038 71.8062L38.4501 71.0163Z" fill="white"/>
<path d="M23.6179 52.156L23.3191 54.3724L25.3347 55.3414L23.1345 55.7421L22.8357 57.9585L21.7747 55.9898L19.5745 56.3905L21.1189 54.7731L20.0579 52.8044L22.0735 53.7735L23.6179 52.156Z" fill="white"/>
</svg>
