<svg width="342" height="416" viewBox="0 0 342 416" fill="none" xmlns="http://www.w3.org/2000/svg">
<g opacity="0.2">
<path d="M329.5 255.5L298 262C301.5 268.333 307.7 282.6 304.5 289C300.5 297 304.5 319.5 304.5 328V362.5L308.5 415.5H312.5C313.667 415.167 316.9 412.4 320.5 404C324.1 395.6 325 380.833 325 374.5C324.667 369.333 325.1 355.7 329.5 342.5C333.9 329.3 331.333 279 329.5 255.5Z" fill="white"/>
<path d="M131.472 297.5C129.472 287.5 134.306 248.333 136.972 230L149.472 238.5L145.472 411.5C140.806 408.667 131.972 399.1 133.972 383.5C136.472 364 133.972 310 131.472 297.5Z" fill="white"/>
<path d="M150 150.5C145.784 157.016 136.64 196.801 132.071 218.297C131.724 219.93 132.435 221.592 133.846 222.484L154.064 235.275C155.263 236.034 155.971 237.371 155.923 238.79L150.139 411.366C150.063 413.626 151.875 415.5 154.136 415.5H302.026C304.412 415.5 306.267 413.425 306.001 411.054L290.055 268.988C290.018 268.664 290.022 268.337 290.065 268.013L295 231V256.111C295 258.638 297.315 260.532 299.792 260.031L338.378 252.232C340.423 251.819 341.807 249.903 341.557 247.831L331.13 161.572C331.045 160.87 330.775 160.203 330.348 159.639L317.528 142.698C317.18 142.238 316.737 141.859 316.229 141.586L270.988 117.334C269.497 116.534 267.663 116.76 266.41 117.898L233.345 147.917C231.755 149.36 229.311 149.291 227.805 147.762L201.578 121.112C200.344 119.857 198.44 119.552 196.885 120.378C181.495 128.549 154.153 144.082 150 150.5Z" fill="white"/>
<path d="M229.416 140.992C227.686 140.558 212.839 126.335 205.632 119.279L209.956 110.05V93.2226C205.199 89.7485 203.289 80.1944 202.929 75.8516C196.983 75.8516 193.199 58.4811 192.118 54.1384C191.253 50.6642 195.361 50.1576 197.523 50.3385V30.7964C194.496 27.7565 194.46 22.6537 194.821 20.4823C219.146 -15.8878 251.579 5.82569 261.85 12.8826C272.12 19.9394 267.255 48.1669 270.498 47.6241C273.742 47.0813 271.039 63.3664 268.877 68.7947C267.147 73.1374 263.471 75.3088 261.85 75.8516V83.4513C259.147 109.507 269.417 105.708 266.174 110.05C262.931 114.393 231.578 141.535 229.416 140.992Z" fill="white"/>
</g>
<g filter="url(#filter0_f_31_530)">
<path d="M201.384 210.431L188.934 194.98L170.565 201.774L181.239 185.431L168.788 169.98L187.835 175.331L198.509 158.988L199.607 178.638L218.654 183.988L200.286 190.782L201.384 210.431Z" fill="white"/>
<path d="M278.637 226.604L266.758 227.812L264.155 239.305L259.417 228.558L247.538 229.765L256.489 221.916L251.751 211.169L262.02 217.065L270.971 209.215L268.367 220.708L278.637 226.604Z" fill="white"/>
<path d="M242.637 350.604L230.758 351.812L228.155 363.305L223.417 352.558L211.538 353.765L220.489 345.916L215.751 335.169L226.02 341.065L234.971 333.215L232.367 344.708L242.637 350.604Z" fill="white"/>
<path d="M296.998 328.832L285.067 328.351L280.868 339.361L277.694 328.053L265.764 327.572L275.733 321.065L272.559 309.757L281.893 317.043L291.862 310.535L287.663 321.546L296.998 328.832Z" fill="white"/>
<circle cx="287" cy="99" r="4" fill="white"/>
<circle cx="178" cy="109" r="4" fill="white"/>
<circle cx="205" cy="292" r="4" fill="white"/>
<path d="M229.146 346.431L226.371 347.569L207.586 301.792C208.548 301.452 209.443 300.971 210.247 300.375L229.146 346.431ZM285.308 279.959C286.221 280.228 287.187 280.375 288.188 280.375C288.218 280.375 288.249 280.372 288.28 280.372L283.354 321.542L281.864 321.364L280.375 321.186L285.308 279.959ZM284.219 109.183C284.856 109.307 285.514 109.375 286.188 109.375C286.55 109.375 286.909 109.354 287.262 109.317L262.811 220.271L284.606 260.648C283.657 261.005 282.775 261.5 281.984 262.107L260.984 223.203L211.618 285.223C210.933 284.492 210.142 283.862 209.269 283.358L259.836 219.829L284.219 109.183ZM191.867 189.04L190.387 189.283L188.907 189.526L177.364 119.37C178.396 119.353 179.389 119.182 180.324 118.88L191.867 189.04ZM276.028 98.4561C276.011 98.6977 276 98.9415 276 99.1875C276 99.9643 276.089 100.72 276.254 101.447L187.355 108.589C187.295 107.553 187.081 106.56 186.734 105.63L276.028 98.4561Z" fill="white"/>
<circle cx="289" cy="270" r="4" fill="white"/>
</g>
<path d="M201.384 210.431L188.934 194.98L170.565 201.774L181.239 185.431L168.788 169.98L187.835 175.331L198.509 158.988L199.607 178.638L218.654 183.988L200.286 190.782L201.384 210.431Z" fill="white"/>
<path d="M278.637 226.604L266.758 227.812L264.155 239.305L259.417 228.558L247.538 229.765L256.489 221.916L251.751 211.169L262.02 217.065L270.971 209.215L268.367 220.708L278.637 226.604Z" fill="white"/>
<path d="M242.637 350.604L230.758 351.812L228.155 363.305L223.417 352.558L211.538 353.765L220.489 345.916L215.751 335.169L226.02 341.065L234.971 333.215L232.367 344.708L242.637 350.604Z" fill="white"/>
<path d="M296.998 328.832L285.067 328.351L280.868 339.361L277.694 328.053L265.764 327.572L275.733 321.065L272.559 309.757L281.893 317.043L291.862 310.535L287.663 321.546L296.998 328.832Z" fill="white"/>
<circle cx="287" cy="99" r="4" fill="white"/>
<circle cx="178" cy="109" r="4" fill="white"/>
<circle cx="205" cy="292" r="4" fill="white"/>
<path d="M229.146 346.431L226.371 347.569L207.586 301.792C208.548 301.452 209.443 300.971 210.247 300.375L229.146 346.431ZM285.308 279.959C286.221 280.228 287.187 280.375 288.188 280.375C288.218 280.375 288.249 280.372 288.28 280.372L283.354 321.542L281.864 321.364L280.375 321.186L285.308 279.959ZM284.219 109.183C284.856 109.307 285.514 109.375 286.188 109.375C286.55 109.375 286.909 109.354 287.262 109.317L262.811 220.271L284.606 260.648C283.657 261.005 282.775 261.5 281.984 262.107L260.984 223.203L211.618 285.223C210.933 284.492 210.142 283.862 209.269 283.358L259.836 219.829L284.219 109.183ZM191.867 189.04L190.387 189.283L188.907 189.526L177.364 119.37C178.396 119.353 179.389 119.182 180.324 118.88L191.867 189.04ZM276.028 98.4561C276.011 98.6977 276 98.9415 276 99.1875C276 99.9643 276.089 100.72 276.254 101.447L187.355 108.589C187.295 107.553 187.081 106.56 186.734 105.63L276.028 98.4561Z" fill="white"/>
<circle cx="289" cy="270" r="4" fill="white"/>
<g filter="url(#filter1_f_31_530)">
<path d="M41.4207 67.8772C46.7876 67.8772 50.1575 70.207 50.1575 74.201C50.1575 76.6973 48.4518 78.7775 45.6643 79.5679C50.4072 80.0256 54.0267 83.0211 54.0267 87.6807C54.0267 93.4221 49.4919 97 42.2944 97L30.3125 97L30.3125 96.8336C30.4789 95.7519 30.5205 95.2526 30.5205 92.6316L30.5205 72.2456C30.5205 69.6246 30.4789 69.1253 30.3124 68.0436L30.3124 67.8772L41.4207 67.8772ZM36.7611 95.2526L41.1295 95.2526C45.1651 95.2526 47.7861 92.382 47.7861 88.0967C47.7861 83.4787 44.541 81.0657 39.3821 80.608L38.4252 80.5248L38.4252 79.4431L38.9245 79.3599C42.1696 78.8191 44.333 77.3213 44.333 74.0762C44.333 71.3303 42.3776 69.6246 39.2157 69.6246L36.7611 69.6246L36.7611 95.2526ZM69.5671 67.8772C76.7646 67.8772 81.2994 71.3303 81.2994 77.0717C81.2994 83.5619 75.3916 86.8902 69.1927 86.8902C68.4438 86.8902 67.6533 86.807 66.9044 86.7238L66.9044 85.4757L67.4453 85.4757C71.8969 85.4757 75.0588 82.5218 75.0588 77.4045C75.0588 72.412 72.6458 69.6246 68.1942 69.6246L65.2403 69.6246L65.2403 92.6316C65.2403 95.2526 65.2819 95.7519 65.4483 96.8336L65.4483 97L58.7917 97L58.7917 96.8336C58.9581 95.7519 58.9997 95.2526 58.9997 92.6316L58.9997 72.2456C58.9997 69.6246 58.9581 69.1253 58.7917 68.0436L58.7917 67.8772L69.5671 67.8772ZM93.4819 67.8772C94.9796 67.8772 97.0182 67.586 98.0999 66.7123L107.294 92.6316C108.501 96.0847 108.792 96.5839 108.917 96.8336L108.917 97L101.511 97L101.511 96.8336C101.511 96.5839 101.844 96.0847 100.638 92.6316L99.6809 89.8441L86.8669 89.8441L85.8268 92.6316C84.4954 96.0847 84.7035 96.5839 84.7035 96.8336L84.7035 97L82.0824 97L82.0824 96.8336C82.2072 96.5839 82.5401 96.0847 83.8714 92.6316L93.4819 67.8772ZM87.5325 88.0967L99.0568 88.0967L93.5651 72.2872L87.5325 88.0967ZM110.814 67.8772L117.554 67.8772L117.554 68.0436C117.305 69.1253 117.263 69.6246 117.263 72.2456L117.263 77.987C117.263 81.3985 119.094 83.8115 122.38 83.8115C124.253 83.8115 126.083 83.2707 127.664 81.9809L127.664 72.2456C127.664 69.6246 127.622 69.1253 127.373 68.0436L127.373 67.8772L134.113 67.8772L134.113 68.0436C133.946 69.1253 133.905 69.6246 133.905 72.2456L133.905 92.6315C133.905 95.2526 133.946 95.7518 134.113 96.8335L134.113 97L127.373 97L127.373 96.8336C127.623 95.7518 127.664 95.2526 127.664 92.6315L127.664 83.9363C125.501 85.7253 123.088 86.391 120.591 86.391C114.143 86.391 111.023 82.7714 111.023 78.3198L111.023 72.2456C111.023 69.6246 110.981 69.1253 110.814 68.0436L110.814 67.8772Z" fill="#F6F1FF"/>
</g>
<path d="M41.4207 67.8775C46.7876 67.8775 50.1575 70.2073 50.1575 74.2013C50.1575 76.6975 48.4518 78.7777 45.6643 79.5682C50.4072 80.0258 54.0267 83.0213 54.0267 87.6809C54.0267 93.4223 49.4919 97.0002 42.2944 97.0002L30.3125 97.0002L30.3125 96.8338C30.4789 95.7521 30.5205 95.2529 30.5205 92.6318L30.5205 72.2459C30.5205 69.6248 30.4789 69.1256 30.3124 68.0439L30.3124 67.8775L41.4207 67.8775ZM36.7611 95.2529L41.1295 95.2529C45.1651 95.2529 47.7861 92.3822 47.7861 88.097C47.7861 83.4789 44.541 81.0659 39.3821 80.6083L38.4252 80.5251L38.4252 79.4434L38.9245 79.3602C42.1696 78.8193 44.333 77.3216 44.333 74.0765C44.333 71.3306 42.3776 69.6248 39.2157 69.6248L36.7611 69.6248L36.7611 95.2529ZM69.5671 67.8775C76.7646 67.8775 81.2994 71.3306 81.2994 77.0719C81.2994 83.5621 75.3916 86.8905 69.1927 86.8905C68.4438 86.8905 67.6533 86.8073 66.9044 86.7241L66.9044 85.4759L67.4453 85.4759C71.8969 85.4759 75.0588 82.522 75.0588 77.4048C75.0588 72.4123 72.6458 69.6248 68.1942 69.6248L65.2403 69.6248L65.2403 92.6318C65.2403 95.2529 65.2819 95.7521 65.4483 96.8338L65.4483 97.0002L58.7917 97.0002L58.7917 96.8338C58.9581 95.7521 58.9997 95.2529 58.9997 92.6318L58.9997 72.2459C58.9997 69.6248 58.9581 69.1256 58.7917 68.0439L58.7917 67.8775L69.5671 67.8775ZM93.4819 67.8774C94.9796 67.8774 97.0182 67.5862 98.0999 66.7125L107.294 92.6318C108.501 96.0849 108.792 96.5842 108.917 96.8338L108.917 97.0002L101.511 97.0002L101.511 96.8338C101.511 96.5842 101.844 96.0849 100.638 92.6318L99.6809 89.8443L86.8669 89.8443L85.8268 92.6318C84.4954 96.0849 84.7035 96.5842 84.7035 96.8338L84.7035 97.0002L82.0824 97.0002L82.0824 96.8338C82.2072 96.5842 82.5401 96.0849 83.8714 92.6318L93.4819 67.8774ZM87.5325 88.097L99.0568 88.097L93.5651 72.2875L87.5325 88.097ZM110.814 67.8774L117.554 67.8774L117.554 68.0439C117.305 69.1256 117.263 69.6248 117.263 72.2459L117.263 77.9872C117.263 81.3987 119.094 83.8118 122.38 83.8118C124.253 83.8118 126.083 83.2709 127.664 81.9812L127.664 72.2459C127.664 69.6248 127.622 69.1256 127.373 68.0439L127.373 67.8774L134.113 67.8774L134.113 68.0438C133.946 69.1256 133.905 69.6248 133.905 72.2458L133.905 92.6318C133.905 95.2528 133.946 95.7521 134.113 96.8338L134.113 97.0002L127.373 97.0002L127.373 96.8338C127.623 95.7521 127.664 95.2528 127.664 92.6318L127.664 83.9366C125.501 85.7255 123.088 86.3912 120.591 86.3912C114.143 86.3912 111.023 82.7717 111.023 78.32L111.023 72.2459C111.023 69.6248 110.981 69.1256 110.814 68.0439L110.814 67.8774Z" fill="#F6F1FF"/>
<path opacity="0.5" d="M3.97902 130.589L3.97901 117.761L1.2547 119.4L1.2547 117.741L3.97901 116.113L5.47688 116.113L5.47689 130.589L3.97902 130.589ZM14.3666 130.89C12.1147 130.89 10.265 129.392 9.69201 127.281L11.1095 126.899C11.5015 128.467 12.919 129.443 14.4068 129.443C16.3369 129.443 17.8147 127.884 17.8147 126.035C17.8147 124.125 16.2364 122.637 14.4068 122.637C13.0396 122.637 12.0444 123.3 11.4513 124.205L10.1042 123.642L10.5465 116.113L18.2771 116.113L18.2771 117.53L11.8936 117.53L11.602 122.345C12.3962 121.652 13.4417 121.25 14.5375 121.25C17.2015 121.25 19.2925 123.361 19.2925 126.035C19.2925 128.689 17.0507 130.89 14.3666 130.89ZM26.7748 130.89C24.5229 130.89 22.6732 129.392 22.1002 127.281L23.5176 126.899C23.9097 128.467 25.3271 129.443 26.815 129.443C28.7451 129.443 30.2229 127.884 30.2229 126.035C30.2229 124.125 28.6446 122.637 26.815 122.637C25.4478 122.637 24.4525 123.3 23.8594 124.205L22.5124 123.642L22.9547 116.113L30.6853 116.113L30.6853 117.53L24.3018 117.53L24.0102 122.345C24.8044 121.652 25.8499 121.25 26.9456 121.25C29.6097 121.25 31.7006 123.361 31.7006 126.035C31.7006 128.689 29.4589 130.89 26.7748 130.89ZM37.7253 123.049C35.7348 123.049 34.1063 121.441 34.1062 119.43C34.1062 117.46 35.7951 115.811 37.7253 115.811C39.7157 115.811 41.3443 117.419 41.3443 119.43C41.3443 121.441 39.7157 123.049 37.7253 123.049ZM37.7253 121.712C38.9618 121.712 40.0073 120.666 40.0073 119.43C40.0073 118.193 38.9618 117.148 37.7253 117.148C36.4888 117.148 35.4433 118.193 35.4433 119.43C35.4433 120.666 36.4888 121.712 37.7253 121.712ZM49.491 130.89C46.8069 130.89 44.7662 128.849 44.7662 126.165L44.7662 120.536C44.7662 117.852 46.8069 115.811 49.491 115.811C52.1751 115.811 54.2158 117.852 54.2158 120.536L54.2158 126.165C54.2158 128.849 52.1751 130.89 49.491 130.89ZM49.491 129.463C51.2704 129.463 52.718 128.015 52.718 126.236L52.718 120.465C52.718 118.676 51.2704 117.228 49.491 117.228C47.7117 117.228 46.264 118.676 46.264 120.465L46.2641 126.236C46.2641 128.015 47.7117 129.463 49.491 129.463ZM62.5668 130.89C59.8827 130.89 57.8419 128.849 57.8419 126.165L57.8419 120.536C57.8419 117.852 59.8827 115.811 62.5668 115.811C65.2509 115.811 67.2916 117.852 67.2916 120.536L67.2916 126.165C67.2916 128.849 65.2509 130.89 62.5668 130.89ZM62.5668 129.463C64.3461 129.463 65.7937 128.015 65.7937 126.236L65.7937 120.465C65.7937 118.676 64.3461 117.228 62.5668 117.228C60.7874 117.228 59.3398 118.676 59.3398 120.465L59.3398 126.236C59.3398 128.015 60.7874 129.463 62.5668 129.463ZM71.7822 115.982L73.27 115.982L71.8626 120.807L70.8473 120.807L71.7822 115.982ZM74.3356 115.982L75.8235 115.982L74.4161 120.807L73.4007 120.807L74.3356 115.982ZM83.8309 124.889L83.8309 123.622L92.2752 123.622L92.2752 124.889L83.8309 124.889ZM105.419 130.89C102.695 130.89 100.523 128.719 100.523 125.894L100.523 120.878C100.523 117.972 102.665 115.821 105.53 115.821C107.178 115.821 108.656 116.585 109.561 117.882L108.425 118.817C107.812 117.862 106.726 117.228 105.53 117.228C103.489 117.228 102.021 118.877 102.021 120.747L102.021 122.969C102.876 121.923 104.142 121.26 105.56 121.26C108.244 121.26 110.325 123.371 110.325 126.055C110.325 128.729 108.103 130.89 105.419 130.89ZM105.419 129.453C107.309 129.453 108.837 127.945 108.837 126.055C108.837 124.165 107.319 122.637 105.429 122.637C103.539 122.637 102.021 124.165 102.021 126.055C102.021 127.925 103.529 129.453 105.419 129.453ZM118.52 130.89C115.836 130.89 113.795 128.849 113.795 126.165L113.795 120.536C113.795 117.852 115.836 115.811 118.52 115.811C121.204 115.811 123.245 117.852 123.245 120.536L123.245 126.165C123.245 128.849 121.204 130.89 118.52 130.89ZM118.52 129.463C120.3 129.463 121.747 128.015 121.747 126.236L121.747 120.465C121.747 118.676 120.3 117.228 118.52 117.228C116.741 117.228 115.293 118.676 115.293 120.465L115.293 126.236C115.293 128.015 116.741 129.463 118.52 129.463ZM129.686 123.049C127.695 123.049 126.067 121.441 126.067 119.43C126.067 117.46 127.756 115.811 129.686 115.811C131.676 115.811 133.305 117.419 133.305 119.43C133.305 121.441 131.676 123.049 129.686 123.049ZM129.686 121.712C130.922 121.712 131.968 120.666 131.968 119.43C131.968 118.193 130.922 117.148 129.686 117.148C128.449 117.148 127.404 118.193 127.404 119.43C127.404 120.666 128.449 121.712 129.686 121.712ZM141.452 130.89C138.768 130.89 136.727 128.849 136.727 126.165L136.727 120.536C136.727 117.852 138.768 115.811 141.452 115.811C144.136 115.811 146.176 117.852 146.176 120.536L146.176 126.165C146.176 128.849 144.136 130.89 141.452 130.89ZM141.452 129.463C143.231 129.463 144.679 128.015 144.679 126.236L144.679 120.465C144.679 118.676 143.231 117.228 141.452 117.228C139.672 117.228 138.225 118.676 138.225 120.465L138.225 126.236C138.225 128.015 139.672 129.463 141.452 129.463ZM154.527 130.89C151.843 130.89 149.803 128.849 149.803 126.165L149.803 120.536C149.803 117.852 151.843 115.811 154.527 115.811C157.212 115.811 159.252 117.852 159.252 120.536L159.252 126.165C159.252 128.849 157.212 130.89 154.527 130.89ZM154.527 129.463C156.307 129.463 157.754 128.015 157.754 126.236L157.754 120.465C157.754 118.676 156.307 117.228 154.527 117.228C152.748 117.228 151.3 118.676 151.3 120.465L151.3 126.236C151.3 128.015 152.748 129.463 154.527 129.463ZM163.743 115.982L165.231 115.982L163.823 120.807L162.808 120.807L163.743 115.982ZM166.296 115.982L167.784 115.982L166.377 120.807L165.361 120.807L166.296 115.982Z" fill="#F6F1FF"/>
<defs>
<filter id="filter0_f_31_530" x="158.788" y="85" width="148.21" height="288.304" filterUnits="userSpaceOnUse" color-interpolation-filters="sRGB">
<feFlood flood-opacity="0" result="BackgroundImageFix"/>
<feBlend mode="normal" in="SourceGraphic" in2="BackgroundImageFix" result="shape"/>
<feGaussianBlur stdDeviation="5" result="effect1_foregroundBlur_31_530"/>
</filter>
<filter id="filter1_f_31_530" x="26.3125" y="62.7122" width="111.8" height="38.2878" filterUnits="userSpaceOnUse" color-interpolation-filters="sRGB">
<feFlood flood-opacity="0" result="BackgroundImageFix"/>
<feBlend mode="normal" in="SourceGraphic" in2="BackgroundImageFix" result="shape"/>
<feGaussianBlur stdDeviation="2" result="effect1_foregroundBlur_31_530"/>
</filter>
</defs>
</svg>
