<svg width="239" height="305" viewBox="0 0 239 305" fill="none" xmlns="http://www.w3.org/2000/svg">
<g opacity="0.2">
<path d="M229.695 187.415L206.589 192.183C209.157 196.829 213.705 207.293 211.357 211.988C208.423 217.856 211.357 234.36 211.357 240.595V265.902L214.291 304.778H217.225C218.081 304.534 220.453 302.505 223.094 296.343C225.734 290.181 226.394 279.35 226.394 274.704C226.15 270.914 226.468 260.914 229.695 251.231C232.923 241.549 231.04 204.653 229.695 187.415Z" fill="white"/>
<path d="M84.4378 218.223C82.9707 210.888 86.5161 182.158 88.4721 168.71L97.6412 174.945L94.7071 301.845C91.284 299.766 84.8045 292.749 86.2716 281.306C88.1055 267.002 86.2716 227.392 84.4378 218.223Z" fill="white"/>
<path d="M98.0282 110.395C94.9355 115.175 88.2283 144.358 84.8767 160.126C84.6221 161.324 85.144 162.543 86.1788 163.197L101.009 172.58C101.889 173.136 102.408 174.117 102.373 175.158L98.1298 301.746C98.0742 303.404 99.4033 304.779 101.062 304.779H209.542C211.292 304.779 212.653 303.256 212.458 301.517L200.761 197.309C200.735 197.071 200.737 196.831 200.769 196.594L204.389 169.444V187.863C204.389 189.717 206.087 191.106 207.904 190.739L236.207 185.018C237.708 184.715 238.723 183.309 238.539 181.79L230.891 118.517C230.828 118.002 230.631 117.513 230.317 117.099L220.914 104.672C220.658 104.335 220.333 104.057 219.96 103.857L186.776 86.0673C185.681 85.4807 184.336 85.6464 183.417 86.4809L159.163 108.501C157.998 109.559 156.204 109.509 155.1 108.387L135.862 88.8384C134.956 87.9182 133.56 87.6946 132.42 88.3C121.131 94.2936 101.074 105.688 98.0282 110.395Z" fill="white"/>
<path d="M156.282 103.421C155.013 103.102 144.122 92.6697 138.835 87.4933L142.007 80.7243V68.3808C138.518 65.8324 137.117 58.8243 136.853 55.6388C132.491 55.6388 129.715 42.8971 128.922 39.7117C128.288 37.1633 131.301 36.7917 132.887 36.9244V22.5898C130.667 20.36 130.641 16.617 130.905 15.0242C148.748 -11.654 172.538 4.27327 180.072 9.44963C187.606 14.626 184.037 35.3315 186.416 34.9333C188.795 34.5351 186.813 46.4806 185.227 50.4624C183.958 53.6479 181.262 55.2406 180.072 55.6388V61.2133C178.09 80.3261 185.623 77.5388 183.244 80.7243C180.865 83.9097 157.868 103.819 156.282 103.421Z" fill="white"/>
</g>
<path d="M135.719 154.356L126.587 143.022L113.113 148.005L120.942 136.018L111.809 124.684L125.781 128.609L133.61 116.621L134.416 131.035L148.388 134.959L134.914 139.943L135.719 154.356Z" fill="white"/>
<path d="M192.386 166.22L183.673 167.105L181.763 175.535L178.288 167.652L169.574 168.538L176.14 162.78L172.664 154.897L180.197 159.222L186.763 153.464L184.853 161.895L192.386 166.22Z" fill="white"/>
<path d="M165.979 257.176L157.266 258.061L155.356 266.492L151.881 258.609L143.168 259.494L149.733 253.737L146.258 245.853L153.791 250.178L160.356 244.421L158.446 252.851L165.979 257.176Z" fill="white"/>
<path d="M205.854 241.206L197.103 240.853L194.023 248.929L191.694 240.635L182.943 240.282L190.256 235.508L187.927 227.214L194.775 232.558L202.087 227.785L199.007 235.861L205.854 241.206Z" fill="white"/>
<circle cx="198.521" cy="72.6191" r="2.93409" fill="white"/>
<circle cx="118.567" cy="79.9541" r="2.93409" fill="white"/>
<circle cx="138.372" cy="214.189" r="2.93409" fill="white"/>
<path d="M156.084 254.115L155.065 254.532L154.048 254.95L140.267 221.37C140.973 221.121 141.629 220.77 142.219 220.332L156.084 254.115ZM197.278 205.356C197.948 205.553 198.657 205.661 199.391 205.661C199.414 205.661 199.436 205.66 199.459 205.659L195.845 235.859L194.753 235.728L193.661 235.598L197.278 205.356ZM196.48 80.0881C196.948 80.1797 197.43 80.2288 197.925 80.2288C198.19 80.2288 198.453 80.2139 198.712 80.1868L180.776 161.573L196.763 191.192C196.067 191.453 195.421 191.816 194.842 192.262L179.437 163.725L143.225 209.217C142.723 208.681 142.143 208.219 141.503 207.85L178.594 161.25L196.48 80.0881ZM128.738 138.665L127.652 138.844L126.567 139.023L118.1 87.5608C118.857 87.5479 119.585 87.423 120.27 87.2014L128.738 138.665ZM190.472 72.2209C190.46 72.3977 190.452 72.5761 190.452 72.7561C190.452 73.3257 190.518 73.8802 190.638 74.4133L125.428 79.6526C125.384 78.8931 125.228 78.1646 124.973 77.4827L190.472 72.2209Z" fill="white"/>
<circle cx="199.987" cy="198.051" r="2.93409" fill="white"/>
<path d="M24.4833 56.4989C27.6864 56.4989 29.6976 57.8894 29.6976 60.273C29.6976 61.7628 28.6796 63.0043 27.016 63.4761C29.8466 63.7492 32.0068 65.537 32.0068 68.318C32.0068 71.7445 29.3003 73.8799 25.0048 73.8799L17.8537 73.8799L17.8537 73.7806C17.953 73.135 17.9779 72.837 17.9779 71.2727L17.9779 59.106C17.9779 57.5417 17.953 57.2438 17.8537 56.5982L17.8537 56.4989L24.4833 56.4989ZM21.7024 72.837L24.3095 72.837C26.718 72.837 28.2823 71.1237 28.2823 68.5663C28.2823 65.8101 26.3456 64.37 23.2666 64.0969L22.6956 64.0472L22.6956 63.4016L22.9935 63.352C24.9303 63.0292 26.2214 62.1353 26.2214 60.1985C26.2214 58.5598 25.0544 57.5417 23.1673 57.5417L21.7024 57.5417L21.7024 72.837ZM41.2816 56.4989C45.5772 56.4989 48.2836 58.5598 48.2837 61.9863C48.2837 65.8598 44.7578 67.8462 41.0581 67.8462C40.6112 67.8462 40.1394 67.7965 39.6925 67.7469L39.6925 67.002L40.0153 67.002C42.6721 67.002 44.5592 65.239 44.5592 62.1849C44.5591 59.2053 43.119 57.5417 40.4622 57.5417L38.6993 57.5417L38.6993 71.2727C38.6993 72.837 38.7241 73.135 38.8234 73.7806L38.8234 73.8799L34.8506 73.8799L34.8506 73.7806C34.9499 73.135 34.9748 72.837 34.9748 71.2727L34.9748 59.106C34.9748 57.5417 34.9499 57.2438 34.8506 56.5982L34.8506 56.4989L41.2816 56.4989ZM55.5544 56.4989C56.4483 56.4989 57.6649 56.3251 58.3105 55.8036L63.7979 71.2727C64.518 73.3336 64.6918 73.6316 64.7663 73.7805L64.7663 73.8799L60.3466 73.8799L60.3466 73.7805C60.3466 73.6316 60.5452 73.3336 59.8251 71.2727L59.254 69.6091L51.6064 69.6091L50.9857 71.2727C50.1911 73.3336 50.3153 73.6316 50.3153 73.7806L50.3153 73.8799L48.751 73.8799L48.751 73.7806C48.8255 73.6316 49.0241 73.3336 49.8187 71.2727L55.5544 56.4989ZM52.0037 68.5663L58.8816 68.5662L55.604 59.1308L52.0037 68.5663ZM65.8988 56.4989L69.9212 56.4989L69.9212 56.5982C69.7723 57.2438 69.7474 57.5417 69.7474 59.106L69.7474 62.5326C69.7474 64.5686 70.84 66.0088 72.8015 66.0088C73.9189 66.0088 75.0114 65.686 75.9549 64.9162L75.9549 59.106C75.9549 57.5417 75.9301 57.2438 75.7811 56.5982L75.7811 56.4989L79.8036 56.4989L79.8036 56.5982C79.7043 57.2438 79.6794 57.5417 79.6794 59.106L79.6794 71.2727C79.6794 72.837 79.7043 73.135 79.8036 73.7805L79.8036 73.8799L75.7811 73.8799L75.7811 73.7805C75.9301 73.135 75.9549 72.837 75.9549 71.2727L75.9549 66.0832C74.6638 67.1509 73.2236 67.5482 71.7338 67.5482C67.8852 67.5482 66.0229 65.388 66.0229 62.7312L66.0229 59.106C66.0229 57.5417 65.9981 57.2438 65.8988 56.5982L65.8988 56.4989Z" fill="#F6F1FF"/>
<path opacity="0.5" d="M2.44132 94.5205L2.44131 86.8645L0.815315 87.8425L0.815315 86.8525L2.44131 85.8805L3.33531 85.8805L3.33532 94.5205L2.44132 94.5205ZM8.6411 94.7005C7.2971 94.7005 6.1931 93.8065 5.8511 92.5465L6.6971 92.3185C6.9311 93.2545 7.7771 93.8365 8.6651 93.8365C9.8171 93.8365 10.6991 92.9065 10.6991 91.8025C10.6991 90.6625 9.7571 89.7745 8.6651 89.7745C7.8491 89.7745 7.2551 90.1705 6.9011 90.7105L6.0971 90.3745L6.3611 85.8805L10.9751 85.8805L10.9751 86.7265L7.1651 86.7265L6.9911 89.6005C7.4651 89.1865 8.0891 88.9465 8.7431 88.9465C10.3331 88.9465 11.5811 90.2065 11.5811 91.8025C11.5811 93.3865 10.2431 94.7005 8.6411 94.7005ZM16.0469 94.7005C14.7029 94.7005 13.5989 93.8065 13.2569 92.5465L14.1029 92.3185C14.3369 93.2545 15.1829 93.8365 16.0709 93.8365C17.2229 93.8365 18.1049 92.9065 18.1049 91.8025C18.1049 90.6625 17.1629 89.7745 16.0709 89.7745C15.2549 89.7745 14.6609 90.1705 14.3069 90.7105L13.5029 90.3745L13.7669 85.8805L18.3809 85.8805L18.3809 86.7265L14.5709 86.7265L14.3969 89.6005C14.8709 89.1865 15.4949 88.9465 16.1489 88.9465C17.7389 88.9465 18.9869 90.2065 18.9869 91.8025C18.9869 93.3865 17.6489 94.7005 16.0469 94.7005ZM22.5827 90.0205C21.3947 90.0205 20.4227 89.0605 20.4227 87.8605C20.4227 86.6845 21.4307 85.7005 22.5827 85.7005C23.7707 85.7005 24.7427 86.6605 24.7427 87.8605C24.7427 89.0605 23.7707 90.0205 22.5827 90.0205ZM22.5827 89.2225C23.3207 89.2225 23.9447 88.5985 23.9447 87.8605C23.9447 87.1225 23.3207 86.4985 22.5827 86.4985C21.8447 86.4985 21.2207 87.1225 21.2207 87.8605C21.2207 88.5985 21.8447 89.2225 22.5827 89.2225ZM29.605 94.7005C28.003 94.7005 26.785 93.4825 26.785 91.8805L26.785 88.5205C26.785 86.9185 28.003 85.7005 29.605 85.7005C31.207 85.7005 32.425 86.9185 32.425 88.5205L32.425 91.8805C32.425 93.4825 31.207 94.7005 29.605 94.7005ZM29.605 93.8485C30.667 93.8485 31.531 92.9845 31.531 91.9225L31.531 88.4785C31.531 87.4105 30.667 86.5465 29.605 86.5465C28.543 86.5465 27.679 87.4105 27.679 88.4785L27.679 91.9225C27.679 92.9845 28.543 93.8485 29.605 93.8485ZM37.4092 94.7005C35.8072 94.7005 34.5892 93.4825 34.5892 91.8805L34.5892 88.5205C34.5892 86.9185 35.8072 85.7005 37.4092 85.7005C39.0112 85.7005 40.2292 86.9185 40.2292 88.5205L40.2292 91.8805C40.2292 93.4825 39.0112 94.7005 37.4092 94.7005ZM37.4092 93.8485C38.4712 93.8485 39.3352 92.9845 39.3352 91.9225L39.3352 88.4785C39.3352 87.4105 38.4712 86.5465 37.4092 86.5465C36.3472 86.5465 35.4832 87.4105 35.4832 88.4785L35.4832 91.9225C35.4832 92.9845 36.3472 93.8485 37.4092 93.8485ZM42.9094 85.8025L43.7974 85.8025L42.9574 88.6825L42.3514 88.6825L42.9094 85.8025ZM44.4334 85.8025L45.3214 85.8025L44.4814 88.6825L43.8754 88.6825L44.4334 85.8025ZM50.1006 91.1185L50.1006 90.3625L55.1406 90.3625L55.1406 91.1185L50.1006 91.1185ZM62.9854 94.7005C61.3594 94.7005 60.0634 93.4045 60.0634 91.7185L60.0634 88.7245C60.0634 86.9905 61.3414 85.7065 63.0514 85.7065C64.0354 85.7065 64.9174 86.1625 65.4574 86.9365L64.7794 87.4945C64.4134 86.9245 63.7654 86.5465 63.0514 86.5465C61.8334 86.5465 60.9574 87.5305 60.9574 88.6465L60.9574 89.9725C61.4674 89.3485 62.2234 88.9525 63.0694 88.9525C64.6714 88.9525 65.9134 90.2125 65.9134 91.8145C65.9134 93.4105 64.5874 94.7005 62.9854 94.7005ZM62.9854 93.8425C64.1134 93.8425 65.0254 92.9425 65.0254 91.8145C65.0254 90.6865 64.1194 89.7745 62.9914 89.7745C61.8634 89.7745 60.9574 90.6865 60.9574 91.8145C60.9574 92.9305 61.8574 93.8425 62.9854 93.8425ZM70.8048 94.7005C69.2028 94.7005 67.9848 93.4825 67.9848 91.8805L67.9848 88.5205C67.9848 86.9185 69.2028 85.7005 70.8048 85.7005C72.4068 85.7005 73.6248 86.9185 73.6248 88.5205L73.6248 91.8805C73.6248 93.4825 72.4068 94.7005 70.8048 94.7005ZM70.8048 93.8485C71.8668 93.8485 72.7308 92.9845 72.7308 91.9225L72.7308 88.4785C72.7308 87.4105 71.8668 86.5465 70.8048 86.5465C69.7428 86.5465 68.8788 87.4105 68.8788 88.4785L68.8788 91.9225C68.8788 92.9845 69.7428 93.8485 70.8048 93.8485ZM77.4691 90.0205C76.2811 90.0205 75.3091 89.0605 75.3091 87.8605C75.3091 86.6845 76.3171 85.7005 77.4691 85.7005C78.6571 85.7005 79.6291 86.6605 79.6291 87.8605C79.6291 89.0605 78.6571 90.0205 77.4691 90.0205ZM77.4691 89.2225C78.2071 89.2225 78.8311 88.5985 78.8311 87.8605C78.8311 87.1225 78.2071 86.4985 77.4691 86.4985C76.7311 86.4985 76.1071 87.1225 76.1071 87.8605C76.1071 88.5985 76.7311 89.2225 77.4691 89.2225ZM84.4914 94.7005C82.8894 94.7005 81.6714 93.4825 81.6714 91.8805L81.6714 88.5205C81.6714 86.9185 82.8894 85.7005 84.4914 85.7005C86.0934 85.7005 87.3114 86.9185 87.3114 88.5205L87.3114 91.8805C87.3114 93.4825 86.0934 94.7005 84.4914 94.7005ZM84.4914 93.8485C85.5534 93.8485 86.4174 92.9845 86.4174 91.9225L86.4174 88.4785C86.4174 87.4105 85.5534 86.5465 84.4914 86.5465C83.4294 86.5465 82.5654 87.4105 82.5654 88.4785L82.5654 91.9225C82.5654 92.9845 83.4294 93.8485 84.4914 93.8485ZM92.2956 94.7005C90.6936 94.7005 89.4756 93.4825 89.4756 91.8805L89.4756 88.5205C89.4756 86.9185 90.6936 85.7005 92.2956 85.7005C93.8976 85.7005 95.1156 86.9185 95.1156 88.5205L95.1156 91.8805C95.1156 93.4825 93.8976 94.7005 92.2956 94.7005ZM92.2956 93.8485C93.3576 93.8485 94.2216 92.9845 94.2216 91.9225L94.2216 88.4785C94.2216 87.4105 93.3576 86.5465 92.2956 86.5465C91.2336 86.5465 90.3696 87.4105 90.3696 88.4785L90.3696 91.9225C90.3696 92.9845 91.2336 93.8485 92.2956 93.8485ZM97.7958 85.8025L98.6838 85.8025L97.8438 88.6825L97.2378 88.6825L97.7958 85.8025ZM99.3198 85.8025L100.208 85.8025L99.3678 88.6825L98.7618 88.6825L99.3198 85.8025Z" fill="#F6F1FF"/>
</svg>
