<svg width="303" height="284" viewBox="0 0 303 284" fill="none" xmlns="http://www.w3.org/2000/svg">
<path opacity="0.8" d="M92.1089 250.189L91.5378 250.189C91.4053 249.13 91.066 248.203 90.5197 247.408C89.99 246.614 89.3361 246.009 88.558 245.595C87.78 245.165 86.9606 244.95 86.0997 244.95C85.0403 244.95 84.047 245.264 83.12 245.893C82.2095 246.506 81.4646 247.45 80.8852 248.724C80.3058 249.999 80.0161 251.58 80.0161 253.467C80.0161 255.189 80.281 256.637 80.8107 257.812C81.3404 258.971 82.0274 259.832 82.8717 260.395C83.7325 260.958 84.6678 261.239 85.6776 261.239C86.5219 261.239 87.3413 261.04 88.1359 260.643C88.9305 260.229 89.6258 259.642 90.2217 258.88C90.8342 258.119 91.2729 257.216 91.5378 256.174L92.1089 256.174L92.1089 259.426C91.2315 260.304 90.1886 260.999 88.9802 261.512C87.7883 262.025 86.5219 262.282 85.181 262.282C83.509 262.282 81.9695 261.876 80.5624 261.065C79.1719 260.238 78.071 259.12 77.2599 257.713C76.4487 256.306 76.0431 254.766 76.0431 253.095C76.0431 251.423 76.4487 249.883 77.2598 248.476C78.071 247.069 79.1718 245.96 80.5624 245.149C81.9695 244.321 83.509 243.907 85.181 243.907C86.5384 243.907 87.8131 244.164 89.005 244.677C90.1969 245.19 91.2315 245.885 92.1089 246.763L92.1089 250.189ZM104.265 262.282C102.593 262.282 101.054 261.876 99.6467 261.065C98.2396 260.238 97.1222 259.12 96.2945 257.713C95.4834 256.306 95.0778 254.766 95.0778 253.095C95.0778 251.423 95.4834 249.883 96.2945 248.476C97.1222 247.069 98.2396 245.96 99.6467 245.149C101.054 244.321 102.593 243.907 104.265 243.907C105.937 243.907 107.477 244.321 108.884 245.149C110.291 245.96 111.4 247.069 112.211 248.476C113.039 249.883 113.453 251.423 113.453 253.095C113.453 254.766 113.039 256.306 112.211 257.713C111.4 259.12 110.291 260.238 108.884 261.065C107.477 261.876 105.937 262.282 104.265 262.282ZM104.166 261.239C105.308 261.239 106.293 260.834 107.121 260.022C107.949 259.195 108.569 258.127 108.983 256.819C109.414 255.511 109.629 254.129 109.629 252.672C109.629 251.183 109.414 249.85 108.983 248.675C108.569 247.499 107.982 246.589 107.22 245.943C106.459 245.281 105.59 244.95 104.613 244.95C103.487 244.95 102.511 245.355 101.683 246.167C100.872 246.978 100.251 248.037 99.8205 249.345C99.4067 250.653 99.1998 252.027 99.1998 253.467C99.1998 254.973 99.4067 256.323 99.8205 257.514C100.251 258.69 100.839 259.609 101.584 260.271C102.345 260.916 103.206 261.239 104.166 261.239ZM127.85 244.503L127.85 245.72L127.751 245.72C127.552 245.67 127.353 245.637 127.155 245.62C126.973 245.587 126.741 245.571 126.46 245.571C126.195 245.554 125.872 245.546 125.491 245.546L120.003 245.546L120.401 245.223L120.401 261.239L120.003 260.842L122.04 260.842C122.95 260.842 123.728 260.627 124.374 260.196C125.019 259.749 125.499 259.17 125.814 258.458C126.145 257.746 126.311 256.985 126.311 256.174C126.311 255.346 126.137 254.56 125.789 253.815C125.441 253.07 124.92 252.474 124.225 252.027C123.546 251.563 122.718 251.331 121.742 251.331C121.659 251.331 121.601 251.331 121.568 251.331C121.535 251.331 121.477 251.331 121.394 251.331L121.394 250.587C121.692 250.553 121.982 250.529 122.263 250.512C122.561 250.479 122.859 250.462 123.157 250.462C124.399 250.462 125.533 250.653 126.559 251.034C127.602 251.398 128.429 251.977 129.042 252.772C129.671 253.55 129.986 254.543 129.986 255.751C129.986 257.026 129.696 258.127 129.116 259.054C128.537 259.964 127.701 260.668 126.609 261.165C125.516 261.645 124.208 261.885 122.685 261.885L116.552 261.885L116.552 261.785C116.585 261.587 116.61 261.388 116.626 261.189C116.643 260.974 116.651 260.718 116.651 260.42C116.668 260.122 116.676 259.741 116.676 259.277L116.676 247.11C116.676 246.647 116.668 246.266 116.651 245.968C116.651 245.67 116.643 245.422 116.626 245.223C116.61 245.008 116.585 244.801 116.552 244.602L116.552 244.503L127.85 244.503ZM142.87 256.571L142.87 257.614L133.931 257.614L133.931 256.571L142.87 256.571ZM138.227 244.503C138.74 244.503 139.253 244.445 139.766 244.329C140.279 244.213 140.685 244.039 140.983 243.808L146.471 259.277C146.686 259.873 146.86 260.353 146.992 260.718C147.124 261.065 147.224 261.314 147.29 261.463C147.356 261.612 147.406 261.719 147.439 261.785L147.439 261.885L143.019 261.885L143.019 261.785L143.019 261.711C143.036 261.612 143.036 261.487 143.019 261.338C143.019 261.189 142.978 260.949 142.895 260.618C142.812 260.271 142.68 259.824 142.498 259.277L138.078 246.589L138.475 246.589L133.658 259.277C133.442 259.84 133.277 260.296 133.161 260.643C133.062 260.991 133.004 261.239 132.987 261.388C132.971 261.537 132.971 261.653 132.987 261.736L132.987 261.785L132.987 261.885L131.423 261.885L131.423 261.785C131.456 261.719 131.514 261.612 131.597 261.463C131.663 261.314 131.771 261.065 131.92 260.718C132.068 260.353 132.259 259.873 132.491 259.277L138.227 244.503ZM152.594 244.503L152.594 244.602C152.545 244.801 152.503 245.008 152.47 245.223C152.453 245.422 152.437 245.67 152.42 245.968C152.42 246.266 152.42 246.647 152.42 247.11L152.42 250.537C152.42 251.58 152.685 252.424 153.215 253.07C153.761 253.699 154.514 254.013 155.475 254.013C156.269 254.013 157.014 253.839 157.709 253.492C158.421 253.144 159.05 252.614 159.597 251.903L160.118 252.523C159.323 253.599 158.446 254.377 157.486 254.857C156.542 255.321 155.516 255.553 154.407 255.553C153.165 255.553 152.114 255.346 151.253 254.932C150.409 254.502 149.772 253.922 149.341 253.194C148.911 252.465 148.696 251.646 148.696 250.736L148.696 247.11C148.696 246.647 148.687 246.266 148.671 245.968C148.671 245.67 148.663 245.422 148.646 245.223C148.629 245.008 148.605 244.801 148.572 244.602L148.572 244.503L152.594 244.503ZM158.454 261.785C158.504 261.587 158.537 261.388 158.554 261.189C158.587 260.974 158.603 260.718 158.603 260.42C158.62 260.122 158.628 259.741 158.628 259.277L158.628 247.11C158.628 246.647 158.62 246.266 158.603 245.968C158.603 245.67 158.587 245.422 158.554 245.223C158.537 245.008 158.504 244.801 158.454 244.602L158.454 244.503L162.477 244.503L162.477 244.602C162.444 244.801 162.419 245.008 162.402 245.223C162.386 245.422 162.369 245.67 162.353 245.968C162.353 246.266 162.353 246.647 162.353 247.11L162.353 259.277C162.353 259.741 162.353 260.122 162.353 260.42C162.369 260.718 162.386 260.974 162.403 261.189C162.419 261.388 162.444 261.587 162.477 261.785L162.477 261.885L158.454 261.885L158.454 261.785ZM170.234 244.503L170.234 244.602C170.184 244.801 170.143 245.008 170.11 245.223C170.093 245.422 170.077 245.67 170.06 245.968C170.06 246.266 170.06 246.647 170.06 247.11L170.06 252.225L169.638 252.225L175.101 247.11C175.564 246.68 175.978 246.282 176.342 245.918C176.723 245.538 177.005 245.24 177.187 245.024C177.369 244.809 177.46 244.668 177.46 244.602L177.46 244.503L179.422 244.503L179.422 244.602C179.239 244.735 179.049 244.884 178.85 245.049C178.668 245.215 178.453 245.413 178.205 245.645C177.957 245.86 177.683 246.109 177.385 246.39L176.616 247.11L174.704 248.923L174.704 248.153L179.471 258.756C179.835 259.584 180.158 260.196 180.44 260.593C180.721 260.991 181.019 261.322 181.334 261.587L181.334 261.885C180.605 262.083 179.844 262.1 179.049 261.934C178.271 261.785 177.551 261.446 176.889 260.916C176.243 260.37 175.738 259.658 175.374 258.781L172.022 250.76L172.643 250.76L169.737 253.467L170.06 252.796L170.06 259.277C170.06 259.741 170.06 260.122 170.06 260.42C170.077 260.718 170.093 260.974 170.11 261.189C170.143 261.388 170.184 261.587 170.234 261.785L170.234 261.885L166.211 261.885L166.211 261.785C166.244 261.587 166.269 261.388 166.286 261.189C166.302 260.974 166.311 260.718 166.311 260.42C166.327 260.122 166.336 259.741 166.336 259.277L166.336 247.11C166.336 246.647 166.327 246.266 166.311 245.968C166.311 245.67 166.302 245.422 166.286 245.223C166.269 245.008 166.244 244.801 166.211 244.602L166.211 244.503L170.234 244.503ZM192.505 256.571L192.505 257.614L183.566 257.614L183.566 256.571L192.505 256.571ZM187.862 244.503C188.375 244.503 188.888 244.445 189.401 244.329C189.915 244.213 190.32 244.039 190.618 243.808L196.106 259.277C196.321 259.873 196.495 260.353 196.627 260.718C196.76 261.065 196.859 261.314 196.925 261.463C196.991 261.612 197.041 261.719 197.074 261.785L197.074 261.885L192.654 261.885L192.654 261.785L192.654 261.711C192.671 261.612 192.671 261.487 192.654 261.338C192.654 261.189 192.613 260.949 192.53 260.618C192.447 260.271 192.315 259.824 192.133 259.277L187.713 246.589L188.11 246.589L183.293 259.277C183.078 259.84 182.912 260.296 182.796 260.643C182.697 260.991 182.639 261.239 182.622 261.388C182.606 261.537 182.606 261.653 182.622 261.736L182.622 261.785L182.622 261.885L181.058 261.885L181.058 261.785C181.091 261.719 181.149 261.612 181.232 261.463C181.298 261.314 181.406 261.065 181.555 260.718C181.704 260.353 181.894 259.873 182.126 259.277L187.862 244.503Z" fill="#F6F1FF"/>
<path opacity="0.5" d="M91.7561 283.065C90.1541 283.065 88.9361 281.847 88.9361 280.245L88.9361 276.885C88.9361 275.283 90.1541 274.065 91.7561 274.065C93.3581 274.065 94.5761 275.283 94.5761 276.885L94.5761 280.245C94.5761 281.847 93.3581 283.065 91.7561 283.065ZM91.7561 282.213C92.8181 282.213 93.6821 281.349 93.6821 280.287L93.6821 276.843C93.6821 275.775 92.8181 274.911 91.7561 274.911C90.6941 274.911 89.8301 275.775 89.8301 276.843L89.8301 280.287C89.8301 281.349 90.6941 282.213 91.7561 282.213ZM99.5603 283.065C97.9583 283.065 96.7403 281.847 96.7403 280.245L96.7403 276.885C96.7403 275.283 97.9583 274.065 99.5603 274.065C101.162 274.065 102.38 275.283 102.38 276.885L102.38 280.245C102.38 281.847 101.162 283.065 99.5603 283.065ZM99.5603 282.213C100.622 282.213 101.486 281.349 101.486 280.287L101.486 276.843C101.486 275.775 100.622 274.911 99.5603 274.911C98.4983 274.911 97.6343 275.775 97.6343 276.843L97.6343 280.287C97.6343 281.349 98.4983 282.213 99.5603 282.213ZM106.224 278.385C105.036 278.385 104.064 277.425 104.064 276.225C104.064 275.049 105.072 274.065 106.224 274.065C107.412 274.065 108.384 275.025 108.384 276.225C108.384 277.425 107.412 278.385 106.224 278.385ZM106.224 277.587C106.962 277.587 107.586 276.963 107.586 276.225C107.586 275.487 106.962 274.863 106.224 274.863C105.486 274.863 104.862 275.487 104.862 276.225C104.862 276.963 105.486 277.587 106.224 277.587ZM113.247 283.065C111.645 283.065 110.427 281.847 110.427 280.245L110.427 276.885C110.427 275.283 111.645 274.065 113.247 274.065C114.849 274.065 116.067 275.283 116.067 276.885L116.067 280.245C116.067 281.847 114.849 283.065 113.247 283.065ZM113.247 282.213C114.309 282.213 115.173 281.349 115.173 280.287L115.173 276.843C115.173 275.775 114.309 274.911 113.247 274.911C112.185 274.911 111.321 275.775 111.321 276.843L111.321 280.287C111.321 281.349 112.185 282.213 113.247 282.213ZM121.051 283.065C119.449 283.065 118.231 281.847 118.231 280.245L118.231 276.885C118.231 275.283 119.449 274.065 121.051 274.065C122.653 274.065 123.871 275.283 123.871 276.885L123.871 280.245C123.871 281.847 122.653 283.065 121.051 283.065ZM121.051 282.213C122.113 282.213 122.977 281.349 122.977 280.287L122.977 276.843C122.977 275.775 122.113 274.911 121.051 274.911C119.989 274.911 119.125 275.775 119.125 276.843L119.125 280.287C119.125 281.349 119.989 282.213 121.051 282.213ZM125.993 277.047L126.551 274.167L127.439 274.167L126.599 277.047L125.993 277.047ZM127.517 277.047L128.075 274.167L128.963 274.167L128.123 277.047L127.517 277.047ZM138.782 279.483L133.742 279.483L133.742 278.727L138.782 278.727L138.782 279.483ZM146.711 277.317C148.313 277.317 149.555 278.577 149.555 280.179C149.555 281.775 148.229 283.065 146.627 283.065C145.001 283.065 143.705 281.769 143.705 280.083L143.705 277.089C143.705 275.355 144.983 274.071 146.693 274.071C147.677 274.071 148.559 274.527 149.099 275.301L148.421 275.859C148.055 275.289 147.407 274.911 146.693 274.911C145.475 274.911 144.599 275.895 144.599 277.011L144.599 278.337C145.109 277.719 145.871 277.317 146.711 277.317ZM146.627 282.207C147.755 282.207 148.667 281.307 148.667 280.179C148.667 279.051 147.761 278.139 146.633 278.139C145.505 278.139 144.599 279.051 144.599 280.179C144.599 281.295 145.499 282.207 146.627 282.207ZM154.447 283.065C152.845 283.065 151.627 281.847 151.627 280.245L151.627 276.885C151.627 275.283 152.845 274.065 154.447 274.065C156.049 274.065 157.267 275.283 157.267 276.885L157.267 280.245C157.267 281.847 156.049 283.065 154.447 283.065ZM154.447 282.213C155.509 282.213 156.373 281.349 156.373 280.287L156.373 276.843C156.373 275.775 155.509 274.911 154.447 274.911C153.385 274.911 152.521 275.775 152.521 276.843L152.521 280.287C152.521 281.349 153.385 282.213 154.447 282.213ZM161.111 278.385C159.923 278.385 158.951 277.425 158.951 276.225C158.951 275.049 159.959 274.065 161.111 274.065C162.299 274.065 163.271 275.025 163.271 276.225C163.271 277.425 162.299 278.385 161.111 278.385ZM161.111 277.587C161.849 277.587 162.473 276.963 162.473 276.225C162.473 275.487 161.849 274.863 161.111 274.863C160.373 274.863 159.749 275.487 159.749 276.225C159.749 276.963 160.373 277.587 161.111 277.587ZM168.133 283.065C166.531 283.065 165.313 281.847 165.313 280.245L165.313 276.885C165.313 275.283 166.531 274.065 168.133 274.065C169.735 274.065 170.953 275.283 170.953 276.885L170.953 280.245C170.953 281.847 169.735 283.065 168.133 283.065ZM168.133 282.213C169.195 282.213 170.059 281.349 170.059 280.287L170.059 276.843C170.059 275.775 169.195 274.911 168.133 274.911C167.071 274.911 166.207 275.775 166.207 276.843L166.207 280.287C166.207 281.349 167.071 282.213 168.133 282.213ZM175.937 283.065C174.335 283.065 173.117 281.847 173.117 280.245L173.117 276.885C173.117 275.283 174.335 274.065 175.937 274.065C177.539 274.065 178.757 275.283 178.757 276.885L178.757 280.245C178.757 281.847 177.539 283.065 175.937 283.065ZM175.937 282.213C176.999 282.213 177.863 281.349 177.863 280.287L177.863 276.843C177.863 275.775 176.999 274.911 175.937 274.911C174.875 274.911 174.011 275.775 174.011 276.843L174.011 280.287C174.011 281.349 174.875 282.213 175.937 282.213ZM180.88 277.047L181.438 274.167L182.326 274.167L181.486 277.047L180.88 277.047ZM182.404 277.047L182.962 274.167L183.85 274.167L183.01 277.047L182.404 277.047Z" fill="#BBBBBB"/>
<path opacity="0.2" d="M302.247 123.866C302.096 124.47 301.794 124.923 301.643 125.527C299.226 138.442 291.598 147.128 279.665 152.415C276.039 154.001 272.263 155.436 268.638 156.946C263.955 158.834 261.01 162.158 260.103 167.218C258.744 174.015 257.309 180.737 255.949 187.534C254.514 195.238 250.738 201.658 245.904 207.775C244.016 210.117 242.581 212.836 241.448 215.63C237.748 225.146 234.349 234.738 230.799 244.255C229.062 248.862 227.552 253.544 225.966 258.151C224.002 264.042 216.827 268.423 210.634 267.366C206.782 266.686 204.063 263.287 203.534 258.378C203.081 254.602 205.196 251.203 209.048 249.995C211.465 249.239 214.183 249.39 216.676 248.635C218.186 248.182 220.226 247.125 220.679 245.916C223.247 237.155 225.437 228.318 227.778 219.482C227.854 219.029 227.703 218.651 227.703 218.047C222.34 218.802 217.053 219.18 211.993 220.464C209.954 220.992 207.764 223.183 206.933 225.222C203.836 232.623 201.193 240.327 198.474 247.88C197.266 251.278 196.51 254.904 195.075 258.227C192.583 263.891 186.088 267.214 179.97 266.233C177.176 265.704 175.514 263.967 174.608 261.248C173.324 257.547 173.248 253.771 176.269 251.127C178.686 248.937 181.858 247.351 184.955 246.143C187.749 245.161 189.486 243.726 190.468 240.931C192.432 235.645 194.622 230.509 196.737 225.297C198.776 220.237 198.323 218.953 192.734 218.349C185.559 217.518 178.233 217.216 170.982 216.914C151.27 216.234 132.54 212.08 115.773 201.356C112.45 199.241 109.202 198.637 105.879 200.6C99.0815 204.603 92.4352 208.682 85.94 213.062C84.505 214.044 84.0518 216.461 83.4476 218.274C81.2573 224.844 74.9887 227.488 68.8711 224.542C64.6416 222.428 63.1311 220.011 63.7353 216.008C64.3395 211.552 68.0403 207.02 72.4963 206.643C80.351 206.114 86.1665 201.507 92.2842 197.504C93.9457 196.371 95.8339 194.86 96.5891 193.048C97.3444 191.16 97.9486 188.139 96.9668 186.628C91.3778 177.489 87.2239 167.973 84.8826 157.551C84.5049 155.813 82.2391 153.774 80.4265 153.246C74.3844 151.357 68.6444 152.566 63.2066 155.889C61.9226 156.72 60.7142 157.702 59.3547 158.457C53.9924 161.251 48.7055 159.212 46.1376 153.321C44.0229 148.563 46.2887 143.427 51.5755 141.539C55.3518 140.179 59.2037 139.802 62.7534 142.068C67.0584 144.636 71.4389 143.729 75.7439 142.747C78.7649 141.992 79.9734 139.575 79.9734 136.554C79.9734 129.53 75.2152 125.527 68.1913 126.056C52.8594 127.265 37.9808 125.981 25.2169 116.464C21.4405 113.67 18.7216 109.516 15.3229 106.117C13.7369 104.456 12.0753 102.719 10.1116 101.812C3.08767 98.338 -0.764175 90.0301 1.72818 82.4775C3.23871 78.097 6.48633 75.4536 10.8669 74.5473C17.5887 73.1878 24.5371 72.357 31.3344 71.2241C37.15 70.3178 43.041 69.7136 48.5544 67.9765C51.651 67.0701 54.9741 64.5023 56.6357 61.7078C62.7533 51.9649 70.9857 45.8473 82.3901 43.8836C83.9762 43.657 85.9399 43.0528 84.807 41.0891C81.5593 35.3491 77.9341 29.8357 74.3844 24.2468C73.9312 24.3223 73.5536 24.5489 73.1759 24.6244C72.7228 27.3434 72.3452 30.0623 71.892 32.7057C71.4388 35.3491 71.0612 38.0681 70.3815 40.636C69.2486 44.5633 65.8499 46.9046 61.5449 46.8291C58.2218 46.7536 55.7294 44.5633 55.2007 40.0318C54.7476 35.5757 54.3699 30.8931 55.2007 26.437C56.4846 19.5642 58.2973 12.7668 60.7896 6.19602C63.3575 -0.450284 67.738 -1.3566 73.1004 3.17497C84.1272 12.4647 91.8309 23.7181 93.7946 38.3702C94.0967 40.636 95.5317 43.1283 97.1178 44.6388C100.441 47.7354 104.595 46.7536 107.54 43.3549C111.845 38.4457 116.15 33.4609 120.984 29.0049C124.987 25.3041 127.857 25.9083 130.349 30.5909C136.618 42.4486 141.301 54.9104 143.113 68.2785C144.02 74.6982 142.358 77.5682 138.053 78.7767C133.446 80.1361 127.555 77.9459 125.667 73.1122C123.25 66.768 122.041 60.1217 120.002 53.6264C119.625 52.3425 118.265 51.2096 117.359 50.0767C115.999 51.1341 114.564 52.1159 113.507 53.3999C112.978 54.0796 113.28 55.4391 113.431 56.4209C113.582 57.1762 113.809 58.007 114.187 58.7622C120.606 72.0548 124.76 85.9516 126.346 100.679C127.026 107.023 130.651 111.782 135.561 115.936C140.847 120.392 146.663 123.413 153.234 125.754C173.097 133.08 193.112 139.802 214.183 142.521C230.799 144.635 247.339 143.2 262.218 134.364C270.753 129.304 276.568 121.902 278.154 111.857C278.532 109.365 278.23 106.797 278.079 104.153C278.003 101.208 277.399 98.2623 277.701 95.4679C278.23 90.1055 280.646 87.4621 285.329 86.7824C290.616 85.9516 293.863 87.4621 296.129 92.4468C297.866 96.2986 299.15 100.15 300.661 104.078C301.265 110.724 301.718 117.295 302.247 123.866ZM28.0113 76.9641C32.996 87.5377 31.41 93.5043 22.0447 99.6975C20.0811 101.057 19.8545 102.719 21.214 104.078C24.3105 107.401 27.3316 110.951 31.0324 113.292C42.0592 120.165 54.6721 121.071 67.3605 120.996C71.1368 120.996 71.5899 119.712 69.9284 116.313C67.2094 111.026 64.3394 105.815 61.847 100.377C58.7505 93.4288 56.0315 86.2538 53.3126 79.2299C52.4063 76.9641 51.3489 75.227 48.5544 75.4535C41.8326 75.9067 35.1108 76.4354 28.0113 76.9641ZM93.9457 140.859C93.9457 140.784 93.9457 140.708 93.9457 140.708C94.4744 140.633 95.1541 140.708 95.6828 140.557C109.126 137.612 120.229 130.437 130.274 121.449C131.029 120.769 131.558 118.73 131.105 118.126C130.198 116.842 128.461 115.256 127.253 115.331C124.911 115.407 122.495 116.389 120.38 117.522C110.108 123.111 99.9123 128.775 89.7162 134.439C89.3386 134.591 88.961 134.742 88.8099 134.968C88.4323 136.026 87.677 137.309 87.8281 138.367C87.9791 139.198 89.1876 140.179 90.0939 140.557C91.3023 140.935 92.6618 140.784 93.9457 140.859ZM86.8462 84.2146C89.4141 84.0635 91.2267 81.7977 91.0001 79.0788C90.698 76.1333 88.8854 74.6983 86.0909 74.6227C83.5986 74.6227 81.7104 76.8885 81.786 79.6075C81.786 82.4019 83.9762 84.3656 86.8462 84.2146ZM86.9217 63.747C86.7707 60.877 84.7315 58.8378 82.3902 59.0643C79.6712 59.442 77.7831 60.877 77.7831 63.8225C77.7831 66.4659 79.6712 67.9009 82.4657 67.7499C85.2602 67.6743 86.6952 66.1638 86.9217 63.747Z" fill="white"/>
<path fill-rule="evenodd" clip-rule="evenodd" d="M147.592 159.469C148.223 158.818 149.012 158.319 149.896 158.035L97.5389 102.406L95.6016 104.23L147.592 159.469ZM157.079 162.209C157.156 162.58 157.197 162.965 157.197 163.359C157.197 163.886 157.124 164.397 156.987 164.881L238.006 159.764L237.839 157.109L157.079 162.209ZM156.189 166.561C155.654 167.326 154.931 167.951 154.088 168.37L169.146 201.657L171.57 200.56L156.189 166.561Z" fill="#BBBBBB"/>
<circle cx="151.547" cy="162.932" r="3.61811" fill="#BBBBBB"/>
<path d="M171.305 190.077L173.663 197.334L181.294 197.334L175.121 201.819L177.479 209.077L171.305 204.591L165.132 209.077L167.49 201.819L161.317 197.334L168.947 197.334L171.305 190.077Z" fill="white"/>
<path d="M106.179 93.2378L103.865 103.355L112.772 108.681L102.435 109.607L100.122 119.724L96.047 110.18L85.7103 111.105L93.5287 104.281L89.4539 94.7359L98.3607 100.063L106.179 93.2378Z" fill="white"/>
</svg>
