<svg width="129" height="114" viewBox="0 0 129 114" fill="none" xmlns="http://www.w3.org/2000/svg">
<path d="M101.199 62.7041L102.196 65.7736H105.424L102.813 67.6707L103.81 70.7403L101.199 68.8432L98.588 70.7403L99.5854 67.6707L96.9743 65.7736H100.202L101.199 62.7041Z" fill="white"/>
<path opacity="0.1" d="M128.37 52.7217C128.306 52.9772 128.178 53.1689 128.114 53.4245C127.092 58.8871 123.866 62.5608 118.818 64.7969C117.285 65.4678 115.688 66.0748 114.154 66.7137C112.174 67.5123 110.928 68.9179 110.545 71.0582C109.97 73.9333 109.363 76.7764 108.788 79.6515C108.181 82.9099 106.583 85.6252 104.539 88.2128C103.74 89.2031 103.133 90.3531 102.654 91.5351C101.089 95.5602 99.6513 99.6172 98.1499 103.642C97.4151 105.591 96.7762 107.572 96.1054 109.52C95.2748 112.012 92.24 113.865 89.6205 113.418C87.9913 113.13 86.8413 111.693 86.6177 109.616C86.426 108.019 87.3204 106.581 88.9497 106.07C89.9719 105.751 91.1219 105.815 92.1761 105.495C92.815 105.303 93.6775 104.856 93.8692 104.345C94.9554 100.639 95.8818 96.9019 96.8721 93.1643C96.904 92.9726 96.8401 92.8129 96.8401 92.5573C94.572 92.8768 92.3358 93.0365 90.1955 93.5796C89.333 93.8032 88.4066 94.7296 88.0552 95.5921C86.7454 98.7227 85.6273 101.981 84.4773 105.176C83.9662 106.613 83.6468 108.147 83.0398 109.552C81.9856 111.948 79.2383 113.354 76.6508 112.938C75.4688 112.715 74.766 111.98 74.3826 110.83C73.8396 109.265 73.8076 107.667 75.0854 106.549C76.1077 105.623 77.4494 104.952 78.7591 104.441C79.9411 104.026 80.6758 103.419 81.0911 102.237C81.9217 100.001 82.8481 97.8283 83.7426 95.6241C84.6051 93.4837 84.4134 92.9407 82.0495 92.6851C79.0147 92.3337 75.916 92.2059 72.8493 92.0781C64.5116 91.7906 56.5892 90.0337 49.4973 85.4974C48.0918 84.603 46.7181 84.3474 45.3125 85.178C42.4374 86.8711 39.6263 88.5961 36.879 90.449C36.272 90.8642 36.0804 91.8865 35.8248 92.6532C34.8984 95.4324 32.2469 96.5505 29.6594 95.3046C27.8704 94.4101 27.2315 93.3879 27.4871 91.6948C27.7427 89.81 29.308 87.8933 31.1927 87.7336C34.515 87.51 36.9748 85.5613 39.5624 83.8682C40.2652 83.3891 41.0638 82.7501 41.3833 81.9835C41.7027 81.1848 41.9583 79.907 41.543 79.2681C39.179 75.4027 37.4221 71.3777 36.4318 66.9692C36.272 66.2345 35.3137 65.372 34.547 65.1483C31.9914 64.3497 29.5635 64.8608 27.2635 66.2664C26.7204 66.6178 26.2093 67.0331 25.6343 67.3526C23.3662 68.5345 21.13 67.672 20.0439 65.1803C19.1494 63.1677 20.1078 60.9955 22.3439 60.1968C23.9412 59.6218 25.5704 59.4621 27.0718 60.4205C28.8927 61.5066 30.7455 61.1232 32.5664 60.708C33.8442 60.3885 34.3553 59.3663 34.3553 58.0885C34.3553 55.1175 32.3428 53.4245 29.3719 53.6481C22.887 54.1592 16.5938 53.6161 11.195 49.591C9.59778 48.4091 8.44776 46.6521 7.01022 45.2145C6.33937 44.5117 5.63658 43.777 4.806 43.3937C1.8351 41.9242 0.205896 38.4102 1.26009 35.2157C1.89899 33.3629 3.27264 32.2448 5.12546 31.8614C7.96858 31.2864 10.9075 30.935 13.7826 30.4559C16.2424 30.0725 18.7341 29.817 21.0661 29.0822C22.3759 28.6989 23.7815 27.6127 24.4842 26.4308C27.0718 22.3098 30.5538 19.7223 35.3776 18.8917C36.0484 18.7959 36.879 18.5403 36.3998 17.7097C35.0262 15.2819 33.4928 12.9499 31.9914 10.5859C31.7997 10.6179 31.64 10.7137 31.4802 10.7457C31.2886 11.8957 31.1288 13.0457 30.9372 14.1638C30.7455 15.2819 30.5858 16.4319 30.2983 17.5181C29.8191 19.1792 28.3816 20.1695 26.5607 20.1376C25.1551 20.1056 24.1009 19.1792 23.8773 17.2625C23.6856 15.3777 23.5259 13.3971 23.8773 11.5124C24.4204 8.60534 25.187 5.73027 26.2412 2.95104C27.3274 0.139864 29.1802 -0.243479 31.4483 1.67323C36.1123 5.60249 39.3707 10.3623 40.2013 16.5597C40.3291 17.5181 40.936 18.5722 41.6069 19.2111C43.0125 20.5209 44.7695 20.1056 46.0153 18.6681C47.8362 16.5916 49.6571 14.4833 51.7016 12.5985C53.3946 11.0332 54.6086 11.2887 55.6628 13.2693C58.3142 18.2847 60.2948 23.5557 61.0615 29.21C61.4448 31.9253 60.742 33.1393 58.9212 33.6504C56.9725 34.2254 54.4808 33.299 53.6822 31.2545C52.6599 28.5711 52.1488 25.7599 51.2863 23.0126C51.1265 22.4696 50.5515 21.9904 50.1682 21.5112C49.5932 21.9584 48.9862 22.3737 48.539 22.9168C48.3154 23.2043 48.4431 23.7793 48.507 24.1946C48.5709 24.5141 48.6668 24.8654 48.8265 25.1849C51.5418 30.8073 53.2988 36.6852 53.9697 42.9145C54.2572 45.5979 55.7905 47.6104 57.867 49.3674C60.1031 51.2522 62.5629 52.53 65.3422 53.5203C73.7437 56.619 82.2092 59.4621 91.1219 60.6121C98.1499 61.5066 105.146 60.8996 111.439 57.162C115.049 55.0217 117.509 51.8911 118.18 47.6424C118.339 46.5882 118.211 45.502 118.148 44.384C118.116 43.1381 117.86 41.8922 117.988 40.7103C118.211 38.4422 119.234 37.3241 121.214 37.0366C123.45 36.6852 124.824 37.3241 125.782 39.4325C126.517 41.0617 127.06 42.6909 127.699 44.352C127.955 47.1632 128.146 49.9424 128.37 52.7217ZM12.377 32.8837C14.4854 37.356 13.8146 39.8797 9.85335 42.4992C9.02277 43.0742 8.92693 43.777 9.50195 44.352C10.8117 45.7576 12.0895 47.259 13.6548 48.2493C18.3188 51.1563 23.6537 51.5397 29.0205 51.5077C30.6177 51.5077 30.8094 50.9647 30.1066 49.5271C28.9566 47.291 27.7427 45.0868 26.6885 42.7867C25.3787 39.8477 24.2287 36.813 23.0787 33.842C22.6953 32.8837 22.2481 32.149 21.0661 32.2448C18.223 32.4365 15.3799 32.6601 12.377 32.8837ZM40.2652 59.9093C40.2652 59.8774 40.2652 59.8454 40.2652 59.8454C40.4888 59.8135 40.7763 59.8454 40.9999 59.7815C46.6862 58.5357 51.3821 55.5009 55.6308 51.6994C55.9503 51.4119 56.1739 50.5494 55.9822 50.2938C55.5989 49.7508 54.8641 49.0799 54.353 49.1119C53.3627 49.1438 52.3405 49.5591 51.446 50.0383C47.1015 52.4022 42.7888 54.7981 38.4762 57.194C38.3165 57.2579 38.1568 57.3218 38.0929 57.4176C37.9332 57.8648 37.6137 58.4079 37.6776 58.8551C37.7415 59.2065 38.2526 59.6218 38.636 59.7815C39.1471 59.9413 39.7221 59.8774 40.2652 59.9093ZM37.2623 35.9504C38.3485 35.8865 39.1151 34.9282 39.0193 33.7782C38.8915 32.5323 38.1248 31.9253 36.9429 31.8934C35.8887 31.8934 35.0901 32.8517 35.122 34.0018C35.122 35.1837 36.0484 36.0143 37.2623 35.9504ZM37.2943 27.2933C37.2304 26.0794 36.3679 25.2168 35.3776 25.3127C34.2275 25.4724 33.4289 26.0794 33.4289 27.3252C33.4289 28.4433 34.2275 29.0503 35.4095 28.9864C36.5915 28.9544 37.1984 28.3155 37.2943 27.2933Z" fill="white"/>
<path fill-rule="evenodd" clip-rule="evenodd" d="M62.9551 67.7814C63.2221 67.5058 63.5556 67.295 63.9297 67.1749L41.7843 43.6455L40.9648 44.4168L62.9551 67.7814ZM66.9678 68.9404C67.0006 69.0973 67.0178 69.2599 67.0178 69.4265C67.0178 69.6497 66.9869 69.8657 66.9291 70.0703L101.198 67.906L101.127 66.783L66.9678 68.9404ZM66.5916 70.7811C66.365 71.1048 66.0593 71.3691 65.7026 71.546L72.0718 85.6255L73.0971 85.1616L66.5916 70.7811Z" fill="#FFF3F3"/>
<circle cx="64.628" cy="69.2452" r="1.53035" fill="#FFF3F3"/>
<path d="M72.9853 80.7275L73.9826 83.7971H77.2101L74.599 85.6942L75.5964 88.7637L72.9853 86.8666L70.3741 88.7637L71.3715 85.6942L68.7604 83.7971H71.9879L72.9853 80.7275Z" fill="white"/>
<path d="M45.4391 39.767L44.4605 44.0462L48.2278 46.2992L43.8557 46.6908L42.8771 50.9699L41.1536 46.9328L36.7815 47.3245L40.0884 44.4378L38.3649 40.4007L42.1322 42.6537L45.4391 39.767Z" fill="white"/>
</svg>
