<svg width="105" height="115" viewBox="0 0 105 115" fill="none" xmlns="http://www.w3.org/2000/svg">
<g opacity="0.2">
<path d="M103.198 26.1825C101.816 24.8453 100.434 23.4859 98.9186 22.2824C94.1047 18.4269 88.6669 16.0868 82.449 15.864C81.7804 15.8417 81.3793 15.6411 81.0673 15.0394C78.7718 10.8718 75.4957 7.64033 71.4396 5.23341C61.7896 -0.44959 51.5379 -1.4079 40.9297 1.89047C33.6198 4.16367 27.6693 8.39806 23.8138 15.2177C23.6355 15.5297 23.0783 15.7971 22.6772 15.8194C19.6463 15.9977 16.7268 16.5771 13.9187 17.7137C9.17171 19.6081 5.27161 22.6836 1.75038 26.2939C-0.2331 28.3443 -0.277673 30.3946 1.72809 32.4004C4.06815 34.7627 6.4305 37.1251 8.81513 39.4874C11.3335 41.9835 14.3644 41.3149 15.6347 37.9942C16.1027 36.7462 16.6153 35.5205 17.2393 34.3393C18.2645 32.3558 19.7131 30.7066 21.5183 29.0797C22.276 33.0467 23.9029 36.4342 26.3099 39.3983C28.7391 42.4069 31.7254 44.7247 34.9569 46.5967C34.9124 47.7556 34.3552 48.2905 33.4638 48.7139C28.6499 51.0094 23.8584 53.3495 19.0891 55.7118C16.905 56.7816 14.6764 57.8067 12.5592 59.0325C10.598 60.1468 9.59515 62.0189 9.46143 64.2698C9.14942 69.1727 14.1861 73.162 19.3788 70.6436C21.9417 69.3956 24.5047 68.1476 27.0676 66.8996C27.7362 66.5653 28.4271 66.2532 29.2739 65.8521C29.0956 66.4538 29.0065 66.8327 28.8951 67.2338C27.0676 73.3626 25.2178 79.4913 23.3904 85.6423C22.8778 87.3584 23.6578 88.3835 25.4407 88.4281C26.5104 88.4504 27.5802 88.4281 28.6722 88.4281H33.018V89.8098C33.018 94.8243 33.018 99.8164 33.018 104.831C33.018 107.349 33.798 109.555 35.5364 111.405C36.9181 112.854 38.701 113.522 40.5731 114.035H42.8017C44.852 113.567 46.7241 112.787 48.1727 111.182C49.8665 109.288 50.4905 107.037 50.4905 104.541C50.4682 99.6604 50.4905 94.7574 50.4905 89.8767V88.5172H54.5911C54.6134 88.8961 54.6357 89.2973 54.6357 89.6761C54.6357 94.6683 54.6357 99.6827 54.6357 104.675C54.6357 108.463 56.1512 111.405 59.6501 113.144C60.497 113.567 61.4553 113.745 62.3691 114.035H64.3748C69.835 113.01 72.3756 108.954 72.175 103.583C71.9967 98.9472 72.1305 94.3117 72.1305 89.6761V88.4504C74.6265 88.4504 76.9666 88.4504 79.3066 88.4504C81.6021 88.4504 82.3376 87.4921 81.669 85.2857C80.2427 80.5388 78.8163 75.7918 77.39 71.0448C76.8997 69.3956 76.4094 67.7464 75.8523 65.8744C76.454 66.1641 76.8551 66.3424 77.234 66.543C80.4432 68.0584 83.5856 69.7745 86.8617 71.0894C91.1406 72.7831 95.7762 69.3733 95.7093 64.7601C95.6648 61.7514 94.0824 59.7234 91.4304 58.4308C84.8782 55.2438 78.326 52.0346 71.7516 48.8477C70.9493 48.4465 70.1024 48.0231 70.2361 47.087C70.303 46.619 71.0607 46.1733 71.5733 45.839C76.766 42.5406 80.733 38.2394 82.7833 32.3558C83.1176 31.3752 83.3627 30.35 83.6525 29.258C83.9199 29.4809 84.0536 29.5923 84.1873 29.726C86.6388 32.0215 88.3549 34.785 89.4692 37.972C90.7172 41.5378 93.7481 42.1841 96.4225 39.5097C98.6734 37.2588 100.947 35.0079 103.198 32.757C105.426 30.3723 105.448 28.3666 103.198 26.1825ZM52.4962 62.7989C56.8421 62.7766 60.5193 66.4092 60.5193 70.7774C60.5416 75.1232 56.8421 78.8004 52.4962 78.7781C48.1727 78.7559 44.5846 75.1678 44.5177 70.8442C44.4955 66.4984 48.1281 62.8212 52.4962 62.7989ZM44.9635 50.2294C50.0893 51.1654 54.9923 51.1877 60.0513 50.2294C57.5998 53.9066 47.9053 54.1295 44.9635 50.2294ZM73.4231 39.7326C68.6315 44.0784 62.8594 46.307 56.4632 47.0202C48.9527 47.8448 41.8434 46.5745 35.3581 42.5406C29.9425 39.1754 26.1093 34.5844 25.0841 28.0768C24.839 26.5614 25.0395 25.0013 25.0395 23.419C36.4055 21.391 45.4315 15.5297 52.5631 6.43687C53.1425 7.21689 53.6551 8.0192 54.3014 8.73236C61.0542 16.2428 69.1218 21.4801 79.2621 23.1962C79.9084 23.3076 80.0867 23.575 80.1312 24.199C80.5101 30.5061 77.9917 35.5873 73.4231 39.7326Z" fill="white"/>
<path d="M52.4066 40.6462C49.6877 40.5794 47.3253 39.6434 45.275 37.8605C45.0076 37.6376 44.5618 37.6376 44.2275 37.4816C43.7595 37.2587 43.1355 37.1027 42.8904 36.7016C42.6675 36.345 42.7344 35.6095 42.9572 35.2752C43.4475 34.5621 44.1161 33.9604 44.7847 33.3809C45.275 32.9575 45.9436 32.8683 46.3893 33.3363C46.7459 33.7152 47.0579 34.3392 47.0133 34.8295C46.9687 35.3421 47.1025 35.565 47.4368 35.8324C50.49 38.4176 54.8358 38.373 57.7776 35.6987C57.9559 35.5427 58.045 35.1638 58.0227 34.9187C57.9336 34.2501 58.0896 33.6929 58.669 33.3141C59.2931 32.9129 59.9171 33.0243 60.4519 33.4923C61.0091 34.0049 61.6331 34.4952 62.0343 35.1415C62.3017 35.565 62.3463 36.2558 62.2126 36.7461C62.0343 37.3479 61.4325 37.5262 60.7862 37.5039C60.4742 37.5039 60.0731 37.6599 59.8056 37.8827C57.733 39.6879 55.0364 40.7131 52.4066 40.6462Z" fill="white"/>
<path d="M42.5563 26.561C42.5563 28.433 41.9769 29.3022 40.7288 29.2799C39.4808 29.2799 38.9014 28.3884 38.9014 26.5387C38.9014 26.2044 38.9014 25.8701 38.9237 25.5358C39.0351 24.4215 39.7705 23.6637 40.7511 23.686C41.7317 23.686 42.4895 24.466 42.5563 25.5581C42.5563 25.8924 42.5563 26.2267 42.5563 26.561Z" fill="white"/>
<path d="M62.5251 26.4727C62.5028 24.5783 63.0823 23.7092 64.308 23.6646C65.556 23.62 66.1801 24.5561 66.1801 26.495C66.1801 26.8293 66.18 27.1636 66.1578 27.4978C66.0686 28.5676 65.3777 29.2585 64.3971 29.2807C63.372 29.303 62.6365 28.5899 62.5474 27.4756C62.5028 27.1413 62.5251 26.807 62.5251 26.4727Z" fill="white"/>
</g>
<path fill-rule="evenodd" clip-rule="evenodd" d="M17.7002 91.2077L17.3404 91.9215L18.1393 91.9478C24.4567 92.1556 33.9976 92.4147 42.0884 92.5166C46.133 92.5676 49.8199 92.5794 52.5617 92.5256C53.9315 92.4987 55.073 92.4554 55.9078 92.3915C56.324 92.3597 56.6744 92.322 56.943 92.2767C57.0767 92.2541 57.2007 92.2279 57.3072 92.1961C57.3977 92.1691 57.537 92.1211 57.652 92.0266L57.7744 91.926L57.8183 91.7737L70.0603 49.3076L69.0791 49.0248L57.1059 90.5586L35.8838 64.7466C35.7248 65.066 35.5153 65.3549 35.2662 65.6033L56.4097 91.3196C56.243 91.3386 56.0496 91.3566 55.8299 91.3734C55.0241 91.435 53.9054 91.4779 52.5417 91.5047C49.8165 91.5581 46.1427 91.5466 42.1012 91.4956C34.3538 91.398 25.272 91.156 18.9719 90.9533L31.4545 66.1877C31.1443 66.0258 30.8642 65.8157 30.6234 65.5679L17.7002 91.2077Z" fill="white"/>
<circle cx="33.1541" cy="63.1671" r="1.91826" transform="rotate(92.9628 33.1541 63.1671)" fill="white"/>
<circle cx="70.0349" cy="47.386" r="1.08717" transform="rotate(92.9628 70.0349 47.386)" fill="white"/>
<path d="M62.0844 87.3842L59.786 90.6641L62.1951 93.8636L58.3654 92.6912L56.067 95.9711L55.9986 91.9666L52.1689 90.7942L55.9563 89.4917L55.8879 85.4872L58.297 88.6867L62.0844 87.3842Z" fill="white"/>
<path d="M21.4496 89.5208L20.1212 91.4164L21.5136 93.2656L19.3002 92.588L17.9718 94.4837L17.9323 92.1692L15.7189 91.4916L17.9078 90.7388L17.8683 88.4244L19.2607 90.2736L21.4496 89.5208Z" fill="white"/>
</svg>
