<svg width="395" height="385" viewBox="0 0 395 385" fill="none" xmlns="http://www.w3.org/2000/svg">
<path opacity="0.8" d="M313.995 177.067L316.006 173.583L316.092 173.633C316.577 174.085 316.823 174.255 318.177 175.037L322.263 177.396L320.698 170.672C320.229 168.653 319.899 167.487 319.705 167.375L319.619 167.326L320.6 165.627L320.686 165.676C320.759 166.493 320.987 167.341 321.455 169.36L322 171.596L332.968 172.71C334.97 172.919 335.703 172.741 336.351 172.513L336.609 172.662C336.045 174.831 333.878 176.647 330.941 176.271L322.772 175.224L323.424 178.067L328.715 181.121C330.069 181.903 330.34 182.031 330.973 182.225L331.059 182.274L329.048 185.758L328.962 185.708C328.453 185.299 328.207 185.129 326.852 184.347L316.315 178.263C314.96 177.481 314.69 177.353 314.081 177.117L313.995 177.067ZM321.431 164.188L323.852 159.995L323.895 160.019C324.344 160.135 325.266 159.979 326.698 159.832L335.258 159.01L331.329 151.81C330.679 150.603 330.303 149.813 329.954 149.525L329.911 149.5L330.643 148.232L330.729 148.281C330.914 148.904 331.257 149.503 331.929 150.723L338.054 161.915C339.918 165.342 340.171 167.237 339.252 168.829C338.209 170.635 336.273 171.209 334.574 170.228C332.875 169.247 332.594 167.25 333.439 165.787C333.861 165.056 334.587 164.444 335.476 164.096L335.708 164.489C335.227 164.727 334.905 165.086 334.694 165.451C334.085 166.505 334.561 167.468 335.357 167.927C336.196 168.412 337.413 168.34 338.083 167.179C338.518 166.426 338.607 165.13 337.644 163.37L337.082 162.357L324.355 163.841C322.91 164.01 322.174 164.043 321.517 164.238L321.431 164.188ZM331.199 147.269L333.21 143.785L333.296 143.835C333.781 144.287 334.026 144.457 335.381 145.24L339.467 147.598L337.902 140.874C337.433 138.855 337.103 137.689 336.909 137.577L336.823 137.528L337.804 135.829L337.89 135.878C337.963 136.695 338.191 137.543 338.659 139.562L339.203 141.798L350.172 142.912C352.173 143.121 352.907 142.943 353.555 142.715L353.813 142.864C353.249 145.033 351.082 146.849 348.145 146.473L339.976 145.426L340.628 148.269L345.918 151.323C347.273 152.105 347.544 152.233 348.177 152.427L348.263 152.476L346.252 155.96L346.166 155.91C345.656 155.502 345.411 155.331 344.056 154.549L333.519 148.465C332.164 147.683 331.894 147.556 331.285 147.319L331.199 147.269ZM361.199 130.071L358.977 133.92L358.891 133.87C358.762 133.796 358.649 133.444 356.495 133.003L344.051 130.521L352.274 140.315C353.686 141.991 354.007 142.032 354.136 142.106L354.222 142.156L353.439 143.511L353.353 143.461C353.262 143.322 353.103 143.001 351.703 141.304L341.664 129.143C342.111 128.369 342.569 127.228 342.44 126.408L358.469 129.584C360.623 130.025 360.947 130.011 361.113 130.021L361.199 130.071ZM349.723 115.185C350.17 114.411 350.627 113.27 350.499 112.45L366.64 115.433C368.785 115.839 369.13 115.838 369.296 115.848L369.382 115.898L367.172 119.725L367.086 119.676C366.957 119.601 366.798 119.28 364.653 118.873L362.927 118.536L359.103 125.159L360.233 126.529C361.621 128.248 361.941 128.289 362.07 128.363L362.156 128.413L361.374 129.768L361.288 129.718C361.196 129.579 361.037 129.258 359.65 127.54L349.723 115.185ZM358.398 124.294L361.838 118.337L352.027 116.458L358.398 124.294Z" fill="#F6F1FF"/>
<path opacity="0.5" d="M337.328 197.854L338.156 201.256C338.931 199.889 340.439 199.533 341.837 200.34C343.276 201.171 343.687 202.752 342.892 204.129C342.25 205.241 341.11 205.775 339.914 205.507L340.116 204.653C341.003 204.833 341.75 204.44 342.148 203.713C342.703 202.704 342.384 201.709 341.381 201.13C340.363 200.542 339.312 200.801 338.754 201.768C338.598 202.038 338.498 202.403 338.476 202.73L337.646 202.763L336.756 198.82L334.821 202.172L334.089 201.749L336.585 197.425L337.328 197.854ZM341.818 194.506C342.619 193.118 344.331 192.673 345.718 193.474C347.1 194.272 347.555 196.065 346.754 197.453C345.941 198.861 344.17 199.335 342.71 198.492L340.117 196.995C338.615 196.128 338.142 194.379 338.997 192.898C339.489 192.046 340.325 191.51 341.266 191.43L341.41 192.296C340.733 192.328 340.082 192.7 339.725 193.318C339.116 194.373 339.53 195.624 340.497 196.182L341.645 196.845C341.365 196.094 341.398 195.233 341.818 194.506ZM346.01 197.024C346.574 196.047 346.251 194.807 345.274 194.243C344.297 193.679 343.054 194.008 342.49 194.984C341.926 195.961 342.263 197.202 343.24 197.766C344.207 198.324 345.446 198 346.01 197.024ZM350.663 190.681C349.862 192.068 348.198 192.514 346.811 191.713L343.901 190.033C342.514 189.232 342.068 187.568 342.869 186.181C343.67 184.793 345.334 184.348 346.721 185.149L349.631 186.829C351.018 187.63 351.464 189.293 350.663 190.681ZM349.925 190.255C350.456 189.335 350.14 188.155 349.22 187.624L346.238 185.902C345.313 185.368 344.133 185.684 343.602 186.604C343.071 187.524 343.387 188.704 344.312 189.238L347.294 190.96C348.214 191.491 349.394 191.174 349.925 190.255ZM349.942 182.569C349.348 183.598 348.031 183.96 346.992 183.36C345.973 182.772 345.625 181.407 346.201 180.409C346.795 179.381 348.112 179.019 349.152 179.619C350.191 180.219 350.536 181.541 349.942 182.569ZM349.251 182.17C349.62 181.531 349.392 180.679 348.753 180.31C348.114 179.941 347.261 180.169 346.892 180.808C346.523 181.448 346.752 182.3 347.391 182.669C348.03 183.038 348.882 182.81 349.251 182.17ZM357.507 178.828C356.706 180.215 355.042 180.661 353.654 179.86L350.744 178.18C349.357 177.379 348.911 175.715 349.712 174.328C350.513 172.94 352.177 172.495 353.564 173.296L356.474 174.976C357.862 175.777 358.308 177.44 357.507 178.828ZM356.769 178.402C357.3 177.482 356.983 176.302 356.064 175.771L353.081 174.049C352.156 173.515 350.976 173.831 350.445 174.751C349.914 175.671 350.23 176.851 351.155 177.385L354.138 179.107C355.057 179.638 356.238 179.322 356.769 178.402ZM361.409 172.069C360.608 173.457 358.944 173.902 357.556 173.101L354.647 171.421C353.259 170.62 352.813 168.957 353.614 167.569C354.415 166.182 356.079 165.736 357.467 166.537L360.376 168.217C361.764 169.018 362.21 170.682 361.409 172.069ZM360.671 171.643C361.202 170.723 360.886 169.543 359.966 169.012L356.983 167.29C356.058 166.756 354.878 167.072 354.347 167.992C353.816 168.912 354.132 170.092 355.057 170.626L358.04 172.348C358.96 172.879 360.14 172.563 360.671 171.643ZM358.668 164.78L356.453 162.857L356.897 162.088L358.971 164.255L358.668 164.78ZM359.43 163.46L357.215 161.537L357.659 160.768L359.733 162.935L359.43 163.46ZM367.172 154.922L364.652 159.287L363.997 158.909L366.517 154.544L367.172 154.922ZM368.327 144.161L369.155 147.563C369.931 146.196 371.439 145.84 372.837 146.647C374.276 147.478 374.687 149.059 373.892 150.436C373.25 151.548 372.11 152.082 370.914 151.814L371.115 150.96C372.003 151.14 372.749 150.747 373.148 150.021C373.703 149.011 373.384 148.016 372.381 147.437C371.362 146.849 370.312 147.108 369.754 148.075C369.598 148.345 369.498 148.71 369.476 149.037L368.646 149.07L367.756 145.127L365.821 148.479L365.088 148.056L367.584 143.732L368.327 144.161ZM377.702 143.848C376.901 145.235 375.237 145.681 373.85 144.88L370.94 143.2C369.553 142.399 369.107 140.735 369.908 139.348C370.709 137.961 372.373 137.515 373.76 138.316L376.67 139.996C378.057 140.797 378.503 142.461 377.702 143.848ZM376.964 143.422C377.495 142.502 377.179 141.322 376.259 140.791L373.277 139.069C372.352 138.535 371.172 138.851 370.641 139.771C370.11 140.691 370.426 141.871 371.351 142.405L374.333 144.127C375.253 144.658 376.433 144.342 376.964 143.422ZM376.981 135.737C376.387 136.765 375.07 137.127 374.031 136.527C373.012 135.939 372.664 134.574 373.24 133.577C373.834 132.548 375.151 132.186 376.191 132.786C377.23 133.386 377.575 134.708 376.981 135.737ZM376.29 135.338C376.659 134.698 376.431 133.846 375.792 133.477C375.152 133.108 374.3 133.336 373.931 133.976C373.562 134.615 373.79 135.467 374.43 135.836C375.069 136.205 375.921 135.977 376.29 135.338ZM384.545 131.995C383.744 133.382 382.081 133.828 380.693 133.027L377.783 131.347C376.396 130.546 375.95 128.882 376.751 127.495C377.552 126.108 379.216 125.662 380.603 126.463L383.513 128.143C384.901 128.944 385.346 130.608 384.545 131.995ZM383.808 131.569C384.339 130.649 384.022 129.469 383.103 128.938L380.12 127.216C379.195 126.682 378.015 126.998 377.484 127.918C376.953 128.838 377.269 130.018 378.194 130.552L381.177 132.274C382.096 132.805 383.277 132.489 383.808 131.569ZM388.448 125.236C387.647 126.624 385.983 127.07 384.595 126.269L381.685 124.589C380.298 123.788 379.852 122.124 380.653 120.736C381.454 119.349 383.118 118.903 384.505 119.704L387.415 121.384C388.803 122.185 389.249 123.849 388.448 125.236ZM387.71 124.81C388.241 123.891 387.924 122.71 387.005 122.179L384.022 120.457C383.097 119.923 381.917 120.24 381.386 121.159C380.855 122.079 381.171 123.259 382.096 123.793L385.079 125.515C385.998 126.046 387.179 125.73 387.71 124.81ZM385.707 117.947L383.492 116.024L383.936 115.255L386.01 117.423L385.707 117.947ZM386.469 116.628L384.254 114.704L384.698 113.935L386.772 116.103L386.469 116.628Z" fill="#BBBBBB"/>
<g opacity="0.2">
<path d="M193.841 38.1455C189.023 39.5213 184.156 40.8681 179.466 42.7199C164.495 48.5592 152.131 57.7808 143.527 71.5207C142.606 73.0002 141.631 73.6441 139.867 73.5642C127.472 73.3146 115.913 76.497 105.198 82.5137C79.8029 96.8846 64.2851 118.768 57.9077 147.002C53.5141 166.458 55.3168 185.401 65.682 202.985C66.1537 203.794 66.0313 205.399 65.559 206.334C62.0128 213.405 59.5169 220.747 58.4233 228.564C56.5136 241.743 58.3724 254.55 61.9317 267.199C63.9742 274.346 68.5426 277.118 75.6814 275.205C84.0604 273.002 92.4684 270.749 100.905 268.446C109.818 266.015 112.258 258.305 106.42 251.113C104.214 248.431 102.116 245.677 100.264 242.731C97.1237 237.833 95.2896 232.416 93.9703 226.223C103.909 229.682 113.672 230.424 123.496 228.854C133.449 227.292 142.569 223.573 151.003 218.72C153.56 220.331 154.041 222.285 153.836 224.848C152.744 238.7 151.782 252.561 150.899 266.4C150.468 272.722 149.878 279.086 149.885 285.46C149.845 291.337 152.762 296.039 157.667 299.273C168.324 306.364 183.887 300.196 184.969 285.198C185.492 277.789 186.015 270.381 186.537 262.972C186.654 261.027 186.85 259.062 187.048 256.629C188.174 257.815 188.913 258.51 189.673 259.284C201.121 271.391 212.54 283.549 224.039 295.686C227.243 299.078 230.572 298.654 232.996 294.689C234.44 292.304 235.783 289.861 237.206 287.397L242.867 277.591L245.985 279.391C257.3 285.924 268.564 292.427 279.879 298.96C285.561 302.241 291.556 303.355 297.994 301.842C303.063 300.612 306.894 297.46 310.49 293.903L313.393 288.874C315.008 283.638 315.687 278.398 313.953 273.039C311.885 266.749 307.619 262.409 301.987 259.157C290.945 252.849 279.911 246.411 268.898 240.053L265.83 238.282L271.173 229.029C272.057 229.472 272.991 229.945 273.846 230.438C285.11 236.942 296.425 243.474 307.689 249.978C316.238 254.913 324.85 255.326 333.331 249.696C335.39 248.336 337.04 246.406 338.884 244.722L341.497 240.196C346.297 226.54 340.455 215.523 328.074 208.979C317.382 203.342 307.097 197.001 296.637 190.963L293.871 189.366C297.123 183.734 300.171 178.453 303.22 173.173C306.21 167.994 305.006 165.086 299.157 163.72C286.587 160.754 274.018 157.788 261.448 154.823C257.088 153.781 252.728 152.738 247.778 151.557C249.216 150.576 250.141 149.904 251.087 149.31C258.688 144.043 266.653 139.188 273.888 133.509C283.285 126.06 281.63 111.158 271.133 105.299C264.286 101.48 257.649 102.408 251.277 106.709C235.55 117.341 219.773 127.945 204.017 138.628C202.066 139.916 200.008 141.275 198.07 139.754C197.101 138.993 197.082 136.703 196.996 135.111C196.318 119.097 191.78 104.542 181.176 92.2511C179.398 90.2193 177.405 88.3306 175.318 86.2542C176.169 85.9411 176.595 85.7845 177.071 85.657C185.444 83.1159 193.915 82.8439 202.558 84.4813C212.23 86.3105 217.637 80.3134 215.086 70.7949C212.94 62.7835 210.822 54.7218 208.675 46.7104C206.198 38.575 201.701 35.9118 193.841 38.1455ZM210.412 200.251C216.023 190.416 229.01 186.851 238.867 192.542C248.702 198.153 252.18 211.291 246.468 221.068C240.785 230.795 228.014 234.217 218.172 228.735C208.336 223.124 204.771 210.137 210.412 200.251ZM172.236 200.874C181.026 190.527 187.464 179.493 191.892 166.829C196.996 177.151 184.869 199.317 172.236 200.874ZM185.627 122.982C189.191 139.455 186.7 155.383 179.976 170.745C172.053 188.766 159.924 203.153 142.374 212.531C127.725 220.367 112.372 223.035 96.3527 216.871C92.6138 215.45 89.355 212.965 85.7846 210.904C96.0155 182.615 94.5484 154.613 83.3218 126.675C85.8368 126.384 88.3149 126.272 90.7661 125.743C116.51 120.29 138.838 108.909 155.92 88.2638C157.014 86.9506 157.849 86.8967 159.315 87.6091C174.04 94.9706 182.225 107.273 185.627 122.982Z" fill="white"/>
<path d="M160.31 171.593C156.617 177.641 151.428 181.752 144.733 184.056C143.882 184.369 143.302 185.375 142.514 185.926C141.401 186.692 140.236 187.897 139.012 187.927C137.917 187.966 136.345 186.857 135.881 185.918C134.91 183.883 134.423 181.59 133.987 179.327C133.67 177.669 134.34 176.044 135.977 175.648C137.296 175.337 139.111 175.446 140.159 176.185C141.258 176.954 141.935 176.942 142.974 176.536C152.784 173.015 158.345 163.151 156.143 153.029C156.024 152.423 155.285 151.728 154.703 151.459C153.078 150.789 152.024 149.712 151.924 147.911C151.832 145.98 152.896 144.717 154.649 144.12C156.531 143.53 158.451 142.761 160.432 142.698C161.735 142.646 163.352 143.446 164.285 144.386C165.41 145.572 165.028 147.162 164.136 148.592C163.73 149.296 163.559 150.404 163.714 151.298C165.087 158.326 163.887 165.747 160.31 171.593Z" fill="white"/>
<path d="M115.695 175.471C119.919 177.91 121.125 180.35 119.449 183.137C117.823 185.953 115.057 186.099 110.883 183.69C110.129 183.254 109.375 182.819 108.649 182.333C106.28 180.63 105.528 177.983 106.856 175.799C108.134 173.587 110.881 172.893 113.432 174.165C114.186 174.6 114.941 175.036 115.695 175.471Z" fill="white"/>
<path d="M141.508 130.298C137.205 127.88 135.998 125.441 137.494 122.617C139.02 119.743 141.945 119.554 146.32 122.08C147.074 122.515 147.828 122.951 148.554 123.437C150.851 125.031 151.51 127.49 150.283 129.732C148.998 132.074 146.431 132.805 143.8 131.554C142.988 131.219 142.262 130.734 141.508 130.298Z" fill="white"/>
</g>
<path fill-rule="evenodd" clip-rule="evenodd" d="M229.184 315.774L230.326 317.515L231.426 315.747C240.125 301.763 253.139 280.572 263.909 262.449C269.293 253.389 274.123 245.085 277.574 238.828C279.297 235.702 280.687 233.07 281.63 231.103C282.1 230.122 282.472 229.283 282.72 228.618C282.843 228.287 282.945 227.973 283.012 227.691C283.069 227.451 283.142 227.075 283.079 226.692L283.011 226.285L282.725 225.987L202.851 143.041L200.935 144.887L279.055 226.012L193.163 240.272C193.677 241.046 194.056 241.896 194.292 242.781L279.865 228.574C279.691 228.975 279.48 229.435 279.231 229.952C278.321 231.851 276.96 234.431 275.244 237.543C271.814 243.762 267.002 252.036 261.622 261.09C251.309 278.444 238.931 298.621 230.267 312.573L190.647 252.144C189.878 252.633 189.039 252.992 188.166 253.212L229.184 315.774Z" fill="#BBBBBB"/>
<circle cx="186.044" cy="244.374" r="4.99803" transform="rotate(32.9628 186.044 244.374)" fill="#BBBBBB"/>
<circle cx="198.483" cy="140.596" r="2.83262" transform="rotate(32.9628 198.483 140.596)" fill="#BBBBBB"/>
<path d="M278.379 210.645L282.785 220.104L293.143 218.836L285.509 225.95L289.915 235.409L280.79 230.347L273.156 237.461L275.151 227.218L266.026 222.155L276.384 220.887L278.379 210.645Z" fill="white"/>
<path d="M230.261 305.116L232.808 310.584L238.795 309.851L234.382 313.962L236.929 319.429L231.655 316.503L227.243 320.615L228.396 314.695L223.122 311.769L229.108 311.036L230.261 305.116Z" fill="white"/>
</svg>
