<svg width="139" height="105" viewBox="0 0 139 105" fill="none" xmlns="http://www.w3.org/2000/svg">
<path opacity="0.1" d="M102.475 76.1806C95.1458 75.6452 88.7537 81.4684 88.1848 89.1657C87.6326 96.863 93.1211 103.54 100.45 104.075C107.779 104.611 114.172 98.7874 114.741 91.09C115.293 83.3927 109.804 76.7161 102.475 76.1806ZM101.036 95.9929C97.8064 95.7586 95.3633 92.9474 95.5976 89.7012C95.8319 86.4716 98.6431 84.0286 101.889 84.2628C105.119 84.4971 107.562 87.3083 107.328 90.5546C107.093 93.7841 104.282 96.2272 101.036 95.9929Z" fill="white"/>
<g opacity="0.1">
<path d="M57.9253 12.8354C57.2057 13.5048 56.436 14.1072 55.6328 14.6594" stroke="white" stroke-width="7.22704" stroke-miterlimit="10"/>
<path d="M52.5871 6.47803C51.7672 7.34816 50.8636 8.15136 49.8931 8.85416" stroke="white" stroke-width="7.22704" stroke-miterlimit="10"/>
<path d="M28.5195 7.81445C29.6239 8.68459 30.7116 9.58818 31.7658 10.542" stroke="white" stroke-width="7.22704" stroke-miterlimit="10"/>
<path d="M34.9766 2.94727C35.9638 4.00146 36.8005 5.18953 37.4698 6.478" stroke="white" stroke-width="7.22704" stroke-miterlimit="10"/>
<path d="M41.2143 76.1806C33.8851 75.6452 27.4929 81.4684 26.924 89.1657C26.3718 96.863 31.8603 103.54 39.1895 104.075C46.5187 104.611 52.9109 98.7874 53.4798 91.09C54.032 83.3927 48.5435 76.7161 41.2143 76.1806ZM39.7752 95.9929C36.5457 95.7586 34.1026 92.9474 34.3369 89.7012C34.5711 86.4716 37.3823 84.0286 40.6286 84.2628C43.8581 84.4971 46.3012 87.3083 46.0669 90.5546C45.8327 93.8008 43.0215 96.2272 39.7752 95.9929Z" fill="white"/>
<path d="M50.7191 19.4045C49.8322 20.3751 48.5772 20.9775 47.272 21.1615C46.4187 21.2787 45.5652 21.2452 44.7118 21.3121C44.5947 21.3289 44.4776 21.3289 44.3604 21.3456L44.9628 24.4412L35.7763 24.5751L35.9101 22.7345C35.8599 22.7177 35.8097 22.6843 35.7595 22.6675C35.291 22.45 34.9061 22.1153 34.5213 21.7807C33.2495 20.6763 31.9276 19.3878 31.777 17.7145C31.7101 16.8778 31.9611 16.0411 32.279 15.2547C33.0822 13.2969 34.3874 11.5399 36.0273 10.1845C36.3787 9.89999 36.7468 9.63226 37.1484 9.46493C37.6839 9.24739 38.2695 9.23066 38.8552 9.21393C40.0098 9.18046 41.1644 9.13026 42.3023 9.28086C44.2266 9.53186 46.0338 10.3351 47.7406 11.2554C48.6609 11.7574 49.5812 12.3096 50.3342 13.0459C51.0872 13.7821 51.6896 14.7192 51.857 15.7567C52.0745 17.0619 51.606 18.434 50.7191 19.4045Z" fill="white"/>
<path d="M138.133 88.5631C137.866 87.7934 137.43 87.0906 136.845 86.4882C136.544 86.1702 136.192 85.869 135.824 85.6348L133.749 84.2626L133.883 50.4948L74.3961 53.1554C74.9817 67.8473 75.5507 80.2634 75.7682 81.2172C75.7515 81.1837 75.7514 81.1502 75.7347 81.1335L75.0487 81.4347L74.3626 81.7359C74.2287 81.4347 73.9777 80.8825 72.8231 51.5323C72.3713 39.8859 71.9363 28.206 71.7857 24.0562C64.3393 24.1566 33.299 24.6084 24.3969 24.7088C27.1746 49.2398 18.3227 58.3595 17.9546 58.6607L17.6868 58.8782L6.0237 59.9826C5.9735 65.6719 5.88984 84.6977 6.24124 86.438L2.74397 87.7432C2.42604 87.8603 2.12484 88.0276 1.8571 88.2452C0.886572 89.0316 0.484972 90.3368 0.836372 91.5416L0.886572 91.6922C1.2045 92.8134 2.14157 93.65 3.27944 93.8843C5.63884 94.3528 8.04843 94.5034 10.4413 94.3696C14.0892 94.152 18.8582 93.8174 23.7276 93.4827C23.3427 91.7926 23.1921 90.0356 23.326 88.2284C24.0288 78.4729 32.5125 71.1437 42.2513 71.8465C52.0069 72.5493 59.3361 81.0331 58.6333 90.7719C58.6165 91.0564 58.5831 91.3408 58.5496 91.6253L72.0701 91.207L84.0846 91.2906C83.9843 90.2699 83.9675 89.2492 84.0344 88.195C84.7372 78.4394 93.221 71.1103 102.96 71.8131C112.715 72.5159 120.045 80.9996 119.342 90.7384C119.325 91.0062 119.292 91.2739 119.258 91.5416L137.715 91.6755C138.117 91.6755 138.434 91.3743 138.468 90.9727C138.518 90.1528 138.418 89.3328 138.133 88.5631ZM51.5049 56.1339C51.5049 56.1339 51.0865 52.8375 51.0029 52.3355L59.5703 51.1307L60.1225 54.8789L51.5049 56.1339Z" fill="white"/>
<path d="M112.247 48.6371H112.364H112.381L122.471 48.1184C122.404 48.1184 121.099 40.1198 121.066 39.9692L111.293 40.2202L112.247 48.6371Z" fill="white"/>
<path d="M73.8275 38.296C78.9814 38.2793 124.412 38.1287 133.934 38.1287L133.95 32.3055L73.5933 32.2051C73.6769 34.1963 73.7606 36.2378 73.8275 38.296Z" fill="white"/>
<path d="M84.9389 50.0264L94.3597 49.5579L93.9581 40.6558L84.2695 40.9068L84.9389 50.0264Z" fill="white"/>
<path d="M126.036 47.9513L131.357 47.6835L129.951 39.752L124.379 39.8858L126.036 47.9513Z" fill="white"/>
<path d="M96.418 40.6051L97.2044 49.4069L107.445 48.8881L106.843 40.3374H106.776L96.418 40.6051Z" fill="white"/>
<path d="M81.2402 40.9902H81.19L73.9277 41.1743C74.0449 44.3202 74.162 47.4828 74.2959 50.5617L81.6753 50.1936L81.2402 40.9902Z" fill="white"/>
<path d="M16.8339 56.7699C17.4196 56.1842 19.0594 54.2933 20.4316 50.5116C21.9208 46.3952 23.5105 37.5433 22.3726 26.0308C19.3941 31.5528 8.56765 53.0383 6.42578 57.5731L16.8339 56.7699Z" fill="white"/>
</g>
<path fill-rule="evenodd" clip-rule="evenodd" d="M17.2262 40.5365L42.2696 38.3589C42.3723 38.8834 42.6091 39.3599 42.9428 39.7512L18.1641 41.9058L21.3491 57.0351C20.8446 57.0765 20.3747 57.2404 19.9693 57.4969L16.5816 41.4054L16.4136 40.6072L17.2262 40.5365ZM45.9872 43.563L45.4266 40.8225C45.9321 40.7972 46.4054 40.6492 46.8171 40.4077L47.4358 43.4324C47.2664 43.3929 47.09 43.372 46.9086 43.372C46.5811 43.372 46.2694 43.4402 45.9872 43.563ZM46.8934 47.9934L47.6822 51.85L23.3699 57.5866C23.8129 57.9007 24.1686 58.3296 24.3938 58.8301L48.6968 53.0957L49.3794 52.9346L49.2388 52.2475L48.277 47.5449C47.8939 47.8269 47.4207 47.9934 46.9086 47.9934C46.9035 47.9934 46.8984 47.9934 46.8934 47.9934ZM48.606 47.2506C51.8265 49.0027 57.1878 51.661 62.0933 54.0475C65.1155 55.5178 67.9779 56.8912 70.0846 57.897C71.138 58.4 72.0025 58.811 72.6038 59.0964C72.9045 59.2391 73.1393 59.3504 73.299 59.426L73.4811 59.5121L73.5277 59.5342L73.5395 59.5397L73.5425 59.5411L73.5432 59.5415C73.5434 59.5416 73.5435 59.5416 73.8522 58.8882L73.5435 59.5416L73.6984 59.6148L73.8697 59.6107L133.704 58.1633L133.669 56.7184L74.0062 58.1615L73.9175 58.1196C73.7582 58.0441 73.5238 57.9331 73.2235 57.7906C72.6231 57.5056 71.7596 57.0951 70.7073 56.5927C68.6027 55.5879 65.7437 54.216 62.7256 52.7477C57.7405 50.3225 52.3568 47.651 49.2061 45.9318C49.1518 46.4383 48.9338 46.8959 48.606 47.2506Z" fill="white"/>
<circle cx="21.6876" cy="59.0563" r="1.37759" fill="white"/>
<circle cx="47.0626" cy="45.8126" r="1.37759" fill="white"/>
<circle cx="44.8903" cy="38.714" r="1.37759" fill="white"/>
<path d="M126.014 55.6837L130.29 55.1637L131.117 50.9362L132.933 54.8424L137.209 54.3224L134.055 57.2565L135.871 61.1627L132.106 59.0699L128.952 62.0041L129.779 57.7765L126.014 55.6837Z" fill="white"/>
<path d="M66.6197 59.8942L71.7148 57.0131L70.5491 51.2771L74.8636 55.2324L79.9587 52.3513L77.5302 57.677L81.8447 61.6323L76.0293 60.9684L73.6008 66.2941L72.4352 60.5581L66.6197 59.8942Z" fill="white"/>
<path d="M10.3136 40.3291L15.9462 39.6442L17.0354 34.0756L19.4273 39.2209L25.0599 38.536L20.9057 42.4009L23.2976 47.5462L18.3382 44.7895L14.1839 48.6544L15.273 43.0858L10.3136 40.3291Z" fill="white"/>
</svg>
