<svg width="507" height="371" viewBox="0 0 507 371" fill="none" xmlns="http://www.w3.org/2000/svg">
<g opacity="0.2">
<path d="M381.296 61.4699C359.971 102.92 325.886 145.477 292.902 181.009L312.795 246.507C316.1 243.463 319.939 240.968 324.259 239.178C346.326 230.04 372.567 242.8 382.87 267.679C393.173 292.558 383.637 320.135 361.57 329.273C339.504 338.411 313.263 325.651 302.96 300.773C299.857 293.279 298.554 285.541 298.851 278.136C291.795 260.066 282.421 232.77 273.649 201.121C252.633 222.423 233.268 240.009 219.472 251.578C214.631 258.365 207.915 264.216 199.658 268.3C175.521 280.239 147.37 272.562 136.781 251.154C126.191 229.746 137.174 202.713 161.311 190.774C185.447 178.835 213.598 186.511 224.187 207.919C225.055 209.673 225.776 211.464 226.359 213.281L266.555 173.897C255.519 128.638 247.027 77.963 248.158 33.6921L285.195 155.632L381.296 61.4699ZM207.936 215.958C201.284 202.511 183.602 197.689 168.441 205.188C153.279 212.687 146.381 229.668 153.032 243.116C159.684 256.563 177.367 261.385 192.528 253.885C207.689 246.386 214.587 229.405 207.936 215.958ZM369.368 273.271C362.546 256.799 345.173 248.351 330.563 254.401C315.954 260.452 309.64 278.71 316.462 295.181C323.283 311.653 340.657 320.101 355.266 314.051C369.876 308 376.189 289.742 369.368 273.271ZM283.073 168.593C279.347 167.193 275.191 169.079 273.791 172.805C272.391 176.531 274.277 180.687 278.003 182.087C281.73 183.487 285.885 181.601 287.286 177.875C288.686 174.149 286.8 169.993 283.073 168.593Z" fill="white"/>
<path d="M263.114 281.556C264.923 279.375 268.157 279.073 270.338 280.881L293.704 300.251C294.136 301.512 294.61 302.768 295.127 304.017C299.838 315.391 307.62 324.791 317.012 331.233L301.747 349.876C294.488 358.741 281.373 359.936 272.632 352.528L227.163 313.994L226.84 313.718L227.058 313.354C228.404 311.11 231.269 308.611 235.493 308.373C239.719 308.134 245.182 310.164 251.725 316.71C255.788 320.776 259.337 324.445 262.538 327.5C265.74 330.555 268.559 332.962 271.147 334.509C273.732 336.055 276.033 336.71 278.221 336.347C279.873 336.073 281.52 335.206 283.219 333.595L249.73 305.833C247.549 304.024 247.246 300.79 249.054 298.609C250.862 296.428 254.096 296.126 256.277 297.934L289.845 325.762C291.848 323.327 294.378 320.25 297.367 316.615L263.789 288.779C261.609 286.971 261.307 283.737 263.114 281.556ZM314.474 288.759C314.927 290.909 315.585 293.06 316.463 295.181L316.791 295.948C320.126 303.515 325.713 309.313 332.199 312.685L322.396 324.658C315.742 320.258 309.935 314.076 305.711 306.468C307.516 304.273 309.416 301.963 311.404 299.544L299.711 289.85C298.976 285.91 298.699 281.978 298.853 278.136C298.421 277.03 297.98 275.889 297.531 274.715L314.474 288.759ZM334.285 262.047C343.665 258.506 356.219 263.679 361.535 276.515C361.567 276.592 361.596 276.669 361.627 276.746L337.74 305.918C332.234 303.643 327.192 298.927 324.297 291.937C323.467 289.934 322.895 287.938 322.554 285.98C323.351 285.01 324.158 284.029 324.974 283.038L322.179 280.72C322.311 276.709 323.409 273.005 325.225 269.917L331.489 275.112C333.934 272.138 336.443 269.084 339.009 265.963L334.285 262.047ZM277.17 264.499C278.978 262.318 282.212 262.016 284.393 263.824L284.526 263.935C286.57 269.678 288.521 274.933 290.335 279.627C290.327 280.449 290.337 281.274 290.363 282.1L277.846 271.722C275.665 269.914 275.362 266.68 277.17 264.499ZM291.325 248.479C293.133 246.298 296.368 245.995 298.549 247.803L318.613 264.437C316.687 267.404 315.296 270.767 314.499 274.353L292 255.702C289.82 253.893 289.517 250.66 291.325 248.479ZM336.703 236.302C344.025 235.845 351.394 237.437 358.159 240.763L359.09 241.535C359.147 241.465 359.204 241.395 359.262 241.325C366.239 244.986 372.518 250.508 377.36 257.532L367.554 269.507C363.254 261.759 356.474 256.242 348.99 253.82C350.176 252.377 351.371 250.924 352.574 249.46L336.703 236.302ZM338.838 252.495C336.042 252.666 333.256 253.286 330.565 254.401L329.886 254.694C328.935 255.12 328.021 255.6 327.145 256.127L314.128 245.336C316.858 243.041 319.918 241.102 323.283 239.6L338.838 252.495ZM452.543 38.7603L498.74 77.187C507.397 84.3876 508.625 97.223 501.492 105.935L382.907 250.757C377.891 244.082 371.665 238.601 364.739 234.662L368.018 230.675L336.24 204.332C334.06 202.523 333.758 199.289 335.566 197.108C337.374 194.927 340.608 194.625 342.789 196.433L374.532 222.75L384.861 210.183L354.245 184.8C352.064 182.992 351.761 179.758 353.569 177.577C355.378 175.396 358.612 175.094 360.793 176.902L391.376 202.256L402.636 188.557L370.911 162.258C368.73 160.45 368.428 157.216 370.236 155.035C372.045 152.854 375.277 152.551 377.458 154.359L409.151 180.631L419.474 168.073L386.641 140.853C384.46 139.045 384.157 135.811 385.965 133.629C387.773 131.448 391.007 131.146 393.189 132.954L425.988 160.147L433.509 150.998L400.696 123.795C398.515 121.987 398.213 118.753 400.021 116.572C401.829 114.391 405.062 114.089 407.243 115.897L440.024 143.072L446.139 135.632C446.095 135.598 446.05 135.564 446.007 135.529L411.64 107.039C409.459 105.231 409.157 101.997 410.964 99.8159C412.772 97.6348 416.006 97.3321 418.188 99.1401L452.555 127.63C452.587 127.657 452.617 127.686 452.649 127.713L460.173 118.559C460.136 118.53 460.099 118.502 460.063 118.472L425.695 89.981C423.515 88.1728 423.213 84.9393 425.021 82.7583C426.829 80.5775 430.062 80.2748 432.243 82.0825L466.611 110.574C466.636 110.594 466.659 110.617 466.684 110.638L473.738 102.055L439.851 73.9624C437.67 72.1544 437.367 68.9199 439.175 66.7388C440.983 64.5577 444.217 64.2551 446.399 66.063L480.253 94.1294L481.143 93.0474L481.172 93.0122L481.206 92.9829C483.09 91.3901 484.49 87.8804 481.917 82.4819C479.332 77.0568 472.747 69.7877 458.743 60.9097C456.386 59.8606 453.247 57.5275 451.385 53.8813C449.499 50.1861 448.952 45.1945 451.768 38.9399L452.037 38.3403L452.543 38.7603ZM311.873 243.467L306.057 238.645C303.876 236.837 303.573 233.604 305.381 231.422C306.021 230.65 306.841 230.114 307.729 229.823L311.873 243.467ZM318.399 214.465C320.207 212.284 323.441 211.982 325.622 213.791L342.55 227.824C337.723 227.49 332.823 227.876 327.972 229.064L319.074 221.688C316.894 219.88 316.591 216.646 318.399 214.465Z" fill="white"/>
</g>
<g filter="url(#filter0_f_31_336)">
<path d="M265.517 32.8527L268.548 56.7314L292.195 61.2277L270.421 71.4892L273.452 95.3678L256.965 77.8311L235.191 88.0927L246.775 66.9929L230.287 49.4562L253.934 53.9525L265.517 32.8527Z" fill="white"/>
<path d="M393.845 80.7451L378.424 78.1753L371.215 92.0472L368.894 76.587L353.473 74.0172L367.459 67.0321L365.138 51.572L376.103 62.7151L390.089 55.7301L382.88 69.602L393.845 80.7451Z" fill="white"/>
<path d="M194.68 284.038L180.818 276.81L169.66 287.759L172.251 272.342L158.39 265.113L173.853 262.814L176.444 247.396L183.41 261.392L198.873 259.093L187.715 270.042L194.68 284.038Z" fill="white"/>
<path d="M458.414 89.3211L452.147 113.898L473.584 127.453L448.273 129.087L442.006 153.664L432.63 130.098L407.32 131.732L426.836 115.532L417.46 91.9654L438.897 105.521L458.414 89.3211Z" fill="white"/>
<circle cx="280.813" cy="167.512" r="4.97208" fill="white"/>
<path d="M442.853 117.479L319.941 307.606C319.228 306.902 318.411 306.303 317.516 305.832L440.334 115.85L442.853 117.479ZM312.827 304.665C312.811 304.665 312.796 304.664 312.781 304.664C311.761 304.664 310.776 304.816 309.846 305.095L280.544 178.032C280.622 178.034 280.702 178.039 280.781 178.039C281.736 178.039 282.659 177.904 283.536 177.658L312.827 304.665ZM271.608 172.288C272.056 173.214 272.642 174.059 273.337 174.803L176.655 271.724L174.532 269.604L271.608 172.288ZM380.155 67.7236L287.714 160.39C286.969 159.697 286.122 159.113 285.195 158.667L378.032 65.6045L380.155 67.7236ZM278.963 157.828C277.951 158.01 276.991 158.341 276.107 158.799L252.631 57.001L255.555 56.3271L278.963 157.828Z" fill="white"/>
<circle cx="312.814" cy="314.512" r="4.97208" fill="white"/>
</g>
<path d="M265.517 32.8527L268.548 56.7314L292.195 61.2277L270.421 71.4892L273.452 95.3678L256.965 77.8311L235.191 88.0927L246.775 66.9929L230.287 49.4562L253.934 53.9525L265.517 32.8527Z" fill="white"/>
<path d="M393.845 80.7451L378.424 78.1753L371.215 92.0472L368.894 76.587L353.473 74.0172L367.459 67.0321L365.138 51.572L376.103 62.7151L390.089 55.7301L382.88 69.602L393.845 80.7451Z" fill="white"/>
<path d="M194.68 284.038L180.818 276.81L169.66 287.759L172.251 272.342L158.39 265.113L173.853 262.814L176.444 247.396L183.41 261.392L198.873 259.093L187.715 270.042L194.68 284.038Z" fill="white"/>
<path d="M458.414 89.3211L452.147 113.898L473.584 127.453L448.273 129.087L442.006 153.664L432.63 130.098L407.32 131.732L426.836 115.532L417.46 91.9654L438.897 105.521L458.414 89.3211Z" fill="white"/>
<circle cx="280.813" cy="167.512" r="4.97208" fill="white"/>
<path d="M439.854 121.477L319.93 307.597C319.216 306.893 318.399 306.295 317.503 305.825L437.333 119.852L439.854 121.477ZM312.827 304.665C312.811 304.665 312.796 304.664 312.781 304.664C311.761 304.664 310.776 304.816 309.846 305.095L280.544 178.032C280.622 178.034 280.702 178.039 280.781 178.039C281.736 178.039 282.659 177.904 283.536 177.658L312.827 304.665ZM271.608 172.288C272.056 173.214 272.642 174.059 273.337 174.803L176.655 271.724L174.532 269.604L271.608 172.288ZM380.155 67.7236L287.714 160.39C286.969 159.697 286.122 159.113 285.195 158.667L378.032 65.6045L380.155 67.7236ZM278.963 157.828C277.951 158.01 276.991 158.341 276.107 158.799L252.631 57.001L255.555 56.3271L278.963 157.828Z" fill="white"/>
<circle cx="312.814" cy="314.512" r="4.97208" fill="white"/>
<g filter="url(#filter1_f_31_336)">
<path d="M4.00006 307.877L28.5464 307.877L28.5464 308.044C28.38 309.125 28.3384 309.625 28.3384 312.246L28.3384 332.632C28.3384 335.253 28.38 335.752 28.5464 336.834L28.5464 337L21.8066 337L21.8066 336.834C22.0562 335.752 22.0978 335.253 22.0978 332.632L22.0978 309.625L10.4487 309.625L10.4487 332.632C10.4487 335.253 10.4903 335.752 10.7399 336.834L10.7399 337L4.00007 337L4.00007 336.834C4.16648 335.752 4.20808 335.253 4.20808 332.632L4.20808 312.246C4.20808 309.625 4.16647 309.125 4.00006 308.044L4.00006 307.877ZM43.2407 307.877C44.7385 307.877 46.7771 307.586 47.8588 306.712L57.0532 332.632C58.2598 336.085 58.551 336.584 58.6758 336.834L58.6758 337L51.2703 337L51.2703 336.834C51.2703 336.584 51.6031 336.085 50.3966 332.632L49.4397 329.844L36.6257 329.844L35.5856 332.632C34.2543 336.085 34.4623 336.584 34.4623 336.834L34.4623 337L31.8412 337L31.8412 336.834C31.9661 336.584 32.2989 336.085 33.6302 332.632L43.2407 307.877ZM37.2914 328.097L48.8157 328.097L43.3239 312.287L37.2914 328.097ZM72.1808 307.877C79.3783 307.877 83.9131 311.33 83.9131 317.072C83.9131 323.562 78.0054 326.89 71.8064 326.89C71.0575 326.89 70.267 326.807 69.5182 326.724L69.5182 325.476L70.059 325.476C74.5107 325.476 77.6726 322.522 77.6726 317.405C77.6725 312.412 75.2595 309.625 70.8079 309.625L67.854 309.625L67.854 332.632C67.854 335.253 67.8956 335.752 68.062 336.834L68.062 337L61.4054 337L61.4054 336.834C61.5718 335.752 61.6134 335.253 61.6134 332.632L61.6134 312.246C61.6134 309.625 61.5718 309.125 61.4054 308.044L61.4054 307.877L72.1808 307.877ZM87.7748 307.877L94.5147 307.877L94.5147 308.044C94.2651 309.125 94.2234 309.625 94.2234 312.246L94.2235 328.346L112.113 307.877L113.444 307.877C113.112 309.125 113.112 309.749 113.112 316.198L113.112 332.632C113.112 335.253 113.153 335.752 113.32 336.834L113.32 337L106.58 337L106.58 336.834C106.829 335.752 106.871 335.253 106.871 332.632L106.871 316.531L88.9814 337L87.65 337C87.9829 335.752 87.9829 335.128 87.9829 333.048L87.9829 312.246C87.9829 309.625 87.9412 309.125 87.7748 308.044L87.7748 307.877ZM119.705 307.877L126.444 307.877L126.444 308.044C126.195 309.125 126.153 309.625 126.153 312.246L126.153 320.15L134.599 312.246C137.137 309.874 138.551 308.418 138.551 308.044L138.551 307.877L141.838 307.877L141.838 308.044C140.715 308.834 139.674 309.874 137.137 312.246L134.349 314.908L141.921 331.758C143.294 334.837 144.168 335.752 145.041 336.501L145.041 337C141.422 337.998 136.97 336.376 135.056 331.799L129.731 319.069L126.153 322.397L126.153 332.632C126.153 335.253 126.195 335.752 126.444 336.834L126.444 337L119.705 337L119.705 336.834C119.871 335.752 119.913 335.253 119.913 332.632L119.913 312.246C119.913 309.625 119.871 309.125 119.705 308.044L119.705 307.877ZM147.534 307.877L150.03 307.877L162.511 327.889L175.408 307.877L177.905 307.877C177.738 308.959 177.697 309.458 177.697 311.663L177.697 332.632C177.697 335.253 177.738 335.752 177.905 336.834L177.905 337L171.165 337L171.165 336.834C171.414 335.752 171.456 335.253 171.456 332.632L171.456 317.238L159.807 335.253L159.765 335.253L149.489 318.861L149.489 332.632C149.489 335.253 149.531 335.752 149.78 336.834L149.78 337L147.534 337L147.534 336.834C147.7 335.752 147.742 335.253 147.742 332.632L147.742 311.663C147.742 309.458 147.7 308.959 147.534 307.877ZM192.584 307.877C194.082 307.877 196.121 307.586 197.202 306.712L206.397 332.632C207.603 336.085 207.895 336.584 208.019 336.834L208.019 337L200.614 337L200.614 336.834C200.614 336.584 200.947 336.085 199.74 332.632L198.783 329.844L185.969 329.844L184.929 332.632C183.598 336.085 183.806 336.584 183.806 336.834L183.806 337L181.185 337L181.185 336.834C181.31 336.584 181.642 336.085 182.974 332.632L192.584 307.877ZM186.635 328.097L198.159 328.097L192.668 312.287L186.635 328.097ZM209.043 307.877L216.948 307.877L216.99 308.044C217.156 308.543 217.198 308.792 218.82 311.289L223.397 318.278L227.848 311.289C229.554 308.626 229.596 308.543 229.762 308.044L229.804 307.877L232.799 307.877L232.799 308.044C232.217 308.626 231.468 309.292 229.512 312.287L224.52 319.984L232.674 332.548C234.505 335.377 235.254 336.251 235.753 336.834L235.753 337L227.848 337L227.807 336.834C227.64 336.334 227.599 336.085 225.976 333.588L219.819 324.186L213.703 333.588C211.997 336.209 211.956 336.334 211.789 336.834L211.747 337L208.752 337L208.752 336.834C209.334 336.251 210.125 335.544 212.08 332.59L218.737 322.522L212.039 312.287C210.167 309.417 209.542 308.626 209.043 308.044L209.043 307.877ZM239.147 307.877L257.369 307.877L257.369 310.041L257.203 310.041C256.121 309.625 255.497 309.625 253.417 309.625L245.596 309.625L245.596 316.739L254.124 316.739L254.124 318.486L245.596 318.486L245.596 335.253L254.956 335.253C257.161 335.253 257.661 335.211 258.742 334.961L258.909 334.961L258.909 337L239.147 337L239.147 336.834C239.313 335.752 239.355 335.253 239.355 332.632L239.355 312.246C239.355 309.625 239.313 309.125 239.147 308.044L239.147 307.877ZM274.257 307.877C281.455 307.877 285.99 311.33 285.99 317.072C285.99 323.562 280.082 326.89 273.883 326.89C273.134 326.89 272.344 326.807 271.595 326.724L271.595 325.476L272.136 325.476C276.587 325.476 279.749 322.522 279.749 317.404C279.749 312.412 277.336 309.624 272.885 309.624L269.931 309.624L269.931 332.631C269.931 335.253 269.972 335.752 270.139 336.833L270.139 337L263.482 337L263.482 336.833C263.648 335.752 263.69 335.253 263.69 332.631L263.69 312.246C263.69 309.625 263.648 309.125 263.482 308.044L263.482 307.877L274.257 307.877Z" fill="#F6F1FF"/>
</g>
<path d="M4.00006 307.877L28.5464 307.877L28.5464 308.044C28.38 309.125 28.3384 309.625 28.3384 312.246L28.3384 332.632C28.3384 335.253 28.38 335.752 28.5464 336.834L28.5464 337L21.8066 337L21.8066 336.834C22.0562 335.752 22.0978 335.253 22.0978 332.632L22.0978 309.625L10.4487 309.625L10.4487 332.632C10.4487 335.253 10.4903 335.752 10.7399 336.834L10.7399 337L4.00007 337L4.00007 336.834C4.16648 335.752 4.20808 335.253 4.20808 332.632L4.20808 312.246C4.20808 309.625 4.16647 309.125 4.00006 308.044L4.00006 307.877ZM43.2407 307.877C44.7385 307.877 46.7771 307.586 47.8588 306.712L57.0532 332.632C58.2598 336.085 58.551 336.584 58.6758 336.834L58.6758 337L51.2703 337L51.2703 336.834C51.2703 336.584 51.6031 336.085 50.3966 332.632L49.4397 329.844L36.6257 329.844L35.5856 332.632C34.2543 336.085 34.4623 336.584 34.4623 336.834L34.4623 337L31.8412 337L31.8412 336.834C31.9661 336.584 32.2989 336.085 33.6302 332.632L43.2407 307.877ZM37.2914 328.097L48.8157 328.097L43.3239 312.287L37.2914 328.097ZM72.1808 307.877C79.3783 307.877 83.9131 311.33 83.9131 317.072C83.9131 323.562 78.0054 326.89 71.8064 326.89C71.0575 326.89 70.267 326.807 69.5182 326.724L69.5182 325.476L70.059 325.476C74.5107 325.476 77.6726 322.522 77.6726 317.405C77.6725 312.412 75.2595 309.625 70.8079 309.625L67.854 309.625L67.854 332.632C67.854 335.253 67.8956 335.752 68.062 336.834L68.062 337L61.4054 337L61.4054 336.834C61.5718 335.752 61.6134 335.253 61.6134 332.632L61.6134 312.246C61.6134 309.625 61.5718 309.125 61.4054 308.044L61.4054 307.877L72.1808 307.877ZM87.7748 307.877L94.5147 307.877L94.5147 308.044C94.2651 309.125 94.2234 309.625 94.2234 312.246L94.2235 328.346L112.113 307.877L113.444 307.877C113.112 309.125 113.112 309.749 113.112 316.198L113.112 332.632C113.112 335.253 113.153 335.752 113.32 336.834L113.32 337L106.58 337L106.58 336.834C106.829 335.752 106.871 335.253 106.871 332.632L106.871 316.531L88.9814 337L87.65 337C87.9829 335.752 87.9829 335.128 87.9829 333.048L87.9829 312.246C87.9829 309.625 87.9412 309.125 87.7748 308.044L87.7748 307.877ZM119.705 307.877L126.444 307.877L126.444 308.044C126.195 309.125 126.153 309.625 126.153 312.246L126.153 320.15L134.599 312.246C137.137 309.874 138.551 308.418 138.551 308.044L138.551 307.877L141.838 307.877L141.838 308.044C140.715 308.834 139.674 309.874 137.137 312.246L134.349 314.908L141.921 331.758C143.294 334.837 144.168 335.752 145.041 336.501L145.041 337C141.422 337.998 136.97 336.376 135.056 331.799L129.731 319.069L126.153 322.397L126.153 332.632C126.153 335.253 126.195 335.752 126.444 336.834L126.444 337L119.705 337L119.705 336.834C119.871 335.752 119.913 335.253 119.913 332.632L119.913 312.246C119.913 309.625 119.871 309.125 119.705 308.044L119.705 307.877ZM147.534 307.877L150.03 307.877L162.511 327.889L175.408 307.877L177.905 307.877C177.738 308.959 177.697 309.458 177.697 311.663L177.697 332.632C177.697 335.253 177.738 335.752 177.905 336.834L177.905 337L171.165 337L171.165 336.834C171.414 335.752 171.456 335.253 171.456 332.632L171.456 317.238L159.807 335.253L159.765 335.253L149.489 318.861L149.489 332.632C149.489 335.253 149.531 335.752 149.78 336.834L149.78 337L147.534 337L147.534 336.834C147.7 335.752 147.742 335.253 147.742 332.632L147.742 311.663C147.742 309.458 147.7 308.959 147.534 307.877ZM192.584 307.877C194.082 307.877 196.121 307.586 197.202 306.712L206.397 332.632C207.603 336.085 207.895 336.584 208.019 336.834L208.019 337L200.614 337L200.614 336.834C200.614 336.584 200.947 336.085 199.74 332.632L198.783 329.844L185.969 329.844L184.929 332.632C183.598 336.085 183.806 336.584 183.806 336.834L183.806 337L181.185 337L181.185 336.834C181.31 336.584 181.642 336.085 182.974 332.632L192.584 307.877ZM186.635 328.097L198.159 328.097L192.668 312.287L186.635 328.097ZM209.043 307.877L216.948 307.877L216.99 308.044C217.156 308.543 217.198 308.792 218.82 311.289L223.397 318.278L227.848 311.289C229.554 308.626 229.596 308.543 229.762 308.044L229.804 307.877L232.799 307.877L232.799 308.044C232.217 308.626 231.468 309.292 229.512 312.287L224.52 319.984L232.674 332.548C234.505 335.377 235.254 336.251 235.753 336.834L235.753 337L227.848 337L227.807 336.834C227.64 336.334 227.599 336.085 225.976 333.588L219.819 324.186L213.703 333.588C211.997 336.209 211.956 336.334 211.789 336.834L211.747 337L208.752 337L208.752 336.834C209.334 336.251 210.125 335.544 212.08 332.59L218.737 322.522L212.039 312.287C210.167 309.417 209.542 308.626 209.043 308.044L209.043 307.877ZM239.147 307.877L257.369 307.877L257.369 310.041L257.203 310.041C256.121 309.625 255.497 309.625 253.417 309.625L245.596 309.625L245.596 316.739L254.124 316.739L254.124 318.486L245.596 318.486L245.596 335.253L254.956 335.253C257.161 335.253 257.661 335.211 258.742 334.961L258.909 334.961L258.909 337L239.147 337L239.147 336.834C239.313 335.752 239.355 335.253 239.355 332.632L239.355 312.246C239.355 309.625 239.313 309.125 239.147 308.044L239.147 307.877ZM274.257 307.877C281.455 307.877 285.99 311.33 285.99 317.072C285.99 323.562 280.082 326.89 273.883 326.89C273.134 326.89 272.344 326.807 271.595 326.724L271.595 325.476L272.136 325.476C276.587 325.476 279.749 322.522 279.749 317.404C279.749 312.412 277.336 309.624 272.885 309.624L269.931 309.624L269.931 332.631C269.931 335.253 269.972 335.752 270.139 336.833L270.139 337L263.482 337L263.482 336.833C263.648 335.752 263.69 335.253 263.69 332.631L263.69 312.246C263.69 309.625 263.648 309.125 263.482 308.044L263.482 307.877L274.257 307.877Z" fill="#F6F1FF"/>
<path opacity="0.5" d="M60.6721 370.579L60.6822 369.231L67.2266 363.32C68.3424 362.315 68.6239 361.43 68.6239 360.425C68.6239 358.636 67.2467 357.228 65.4673 357.228C63.6176 357.228 62.2504 358.716 62.2705 360.415L60.7626 360.415C60.7626 357.771 62.8033 355.811 65.4874 355.811C68.1213 355.811 70.1218 357.852 70.1218 360.435C70.1218 362.255 69.4784 363.26 68.071 364.517L62.924 369.161L70.1218 369.161L70.1218 370.579L60.6721 370.579ZM79.3258 370.589L79.3258 367.784L72.5502 367.784L72.5502 366.376L77.3956 356.113L79.0543 356.113L74.2089 366.376L79.3258 366.376L79.3258 362.154L80.8136 362.154L80.8136 366.376L82.3919 366.376L82.3919 367.784L80.8136 367.784L80.8136 370.589L79.3258 370.589ZM90.3405 370.89C87.6564 370.89 85.6157 368.849 85.6157 366.165L85.6157 360.536C85.6157 357.852 87.6564 355.811 90.3405 355.811C93.0246 355.811 95.0654 357.852 95.0654 360.536L95.0654 366.165C95.0654 368.849 93.0246 370.89 90.3405 370.89ZM90.3405 369.463C92.1199 369.463 93.5675 368.015 93.5675 366.236L93.5675 360.465C93.5675 358.676 92.1199 357.228 90.3405 357.228C88.5612 357.228 87.1136 358.676 87.1136 360.465L87.1136 366.236C87.1136 368.015 88.5612 369.463 90.3405 369.463ZM101.506 363.049C99.5158 363.049 97.8872 361.441 97.8872 359.43C97.8872 357.46 99.5761 355.811 101.506 355.811C103.497 355.811 105.125 357.419 105.125 359.43C105.125 361.441 103.497 363.049 101.506 363.049ZM101.506 361.712C102.743 361.712 103.788 360.666 103.788 359.43C103.788 358.193 102.743 357.148 101.506 357.148C100.27 357.148 99.2243 358.193 99.2243 359.43C99.2243 360.666 100.27 361.712 101.506 361.712ZM113.272 370.89C110.588 370.89 108.547 368.849 108.547 366.165L108.547 360.536C108.547 357.852 110.588 355.811 113.272 355.811C115.956 355.811 117.997 357.852 117.997 360.536L117.997 366.165C117.997 368.849 115.956 370.89 113.272 370.89ZM113.272 369.463C115.051 369.463 116.499 368.015 116.499 366.236L116.499 360.465C116.499 358.676 115.051 357.228 113.272 357.228C111.493 357.228 110.045 358.676 110.045 360.465L110.045 366.236C110.045 368.015 111.493 369.463 113.272 369.463ZM126.348 370.89C123.664 370.89 121.623 368.849 121.623 366.165L121.623 360.536C121.623 357.852 123.664 355.811 126.348 355.811C129.032 355.811 131.073 357.852 131.073 360.536L131.073 366.165C131.073 368.849 129.032 370.89 126.348 370.89ZM126.348 369.463C128.127 369.463 129.575 368.015 129.575 366.236L129.575 360.465C129.575 358.676 128.127 357.228 126.348 357.228C124.568 357.228 123.121 358.676 123.121 360.465L123.121 366.236C123.121 368.015 124.568 369.463 126.348 369.463ZM135.563 355.982L137.051 355.982L135.644 360.807L134.628 360.807L135.563 355.982ZM138.117 355.982L139.604 355.982L138.197 360.807L137.182 360.807L138.117 355.982ZM147.612 364.889L147.612 363.622L156.056 363.622L156.056 364.889L147.612 364.889ZM168.195 370.88C166.043 370.88 164.314 369.674 163.701 367.713L165.108 367.291C165.591 368.729 166.787 369.483 168.175 369.453C170.105 369.412 171.281 368.116 171.281 366.175C171.281 364.205 170.024 362.898 168.154 362.898C167.632 362.898 167.019 363.059 166.526 363.3L165.782 362.124L170.748 357.53L164.274 357.53L164.274 356.113L172.638 356.113L172.638 357.55L168.406 361.601C171.03 361.581 172.809 363.471 172.809 366.175C172.809 368.96 170.859 370.88 168.195 370.88ZM180.946 370.89C178.262 370.89 176.222 368.849 176.222 366.165L176.222 360.536C176.222 357.852 178.262 355.811 180.946 355.811C183.63 355.811 185.671 357.852 185.671 360.536L185.671 366.165C185.671 368.849 183.631 370.89 180.946 370.89ZM180.946 369.463C182.726 369.463 184.173 368.015 184.173 366.236L184.173 360.465C184.173 358.676 182.726 357.228 180.946 357.228C179.167 357.228 177.719 358.676 177.719 360.465L177.719 366.236C177.719 368.015 179.167 369.463 180.946 369.463ZM192.112 363.049C190.122 363.049 188.493 361.441 188.493 359.43C188.493 357.46 190.182 355.811 192.112 355.811C194.103 355.811 195.731 357.419 195.731 359.43C195.731 361.44 194.103 363.049 192.112 363.049ZM192.112 361.712C193.349 361.712 194.394 360.666 194.394 359.43C194.394 358.193 193.349 357.148 192.112 357.148C190.876 357.148 189.83 358.193 189.83 359.43C189.83 360.666 190.876 361.712 192.112 361.712ZM203.878 370.89C201.194 370.89 199.153 368.849 199.153 366.165L199.153 360.536C199.153 357.852 201.194 355.811 203.878 355.811C206.562 355.811 208.603 357.852 208.603 360.536L208.603 366.165C208.603 368.849 206.562 370.89 203.878 370.89ZM203.878 369.463C205.657 369.463 207.105 368.015 207.105 366.236L207.105 360.465C207.105 358.676 205.657 357.228 203.878 357.228C202.098 357.228 200.651 358.676 200.651 360.465L200.651 366.236C200.651 368.015 202.098 369.463 203.878 369.463ZM216.954 370.89C214.27 370.89 212.229 368.849 212.229 366.165L212.229 360.536C212.229 357.852 214.27 355.811 216.954 355.811C219.638 355.811 221.678 357.852 221.678 360.536L221.678 366.165C221.678 368.849 219.638 370.89 216.954 370.89ZM216.954 369.463C218.733 369.463 220.181 368.015 220.181 366.236L220.181 360.465C220.181 358.676 218.733 357.228 216.954 357.228C215.174 357.228 213.727 358.676 213.727 360.465L213.727 366.236C213.727 368.015 215.174 369.463 216.954 369.463ZM226.169 355.982L227.657 355.982L226.249 360.807L225.234 360.807L226.169 355.982ZM228.722 355.982L230.21 355.982L228.803 360.807L227.788 360.807L228.722 355.982Z" fill="#F6F1FF"/>
<defs>
<filter id="filter0_f_31_336" x="148.39" y="22.8528" width="335.194" height="306.632" filterUnits="userSpaceOnUse" color-interpolation-filters="sRGB">
<feFlood flood-opacity="0" result="BackgroundImageFix"/>
<feBlend mode="normal" in="SourceGraphic" in2="BackgroundImageFix" result="shape"/>
<feGaussianBlur stdDeviation="5" result="effect1_foregroundBlur_31_336"/>
</filter>
<filter id="filter1_f_31_336" x="0" y="302.712" width="289.99" height="39.2864" filterUnits="userSpaceOnUse" color-interpolation-filters="sRGB">
<feFlood flood-opacity="0" result="BackgroundImageFix"/>
<feBlend mode="normal" in="SourceGraphic" in2="BackgroundImageFix" result="shape"/>
<feGaussianBlur stdDeviation="2" result="effect1_foregroundBlur_31_336"/>
</filter>
</defs>
</svg>
