<svg width="352" height="271" viewBox="0 0 352 271" fill="none" xmlns="http://www.w3.org/2000/svg">
<g opacity="0.2">
<path d="M259.777 45.0895C244.134 75.4943 219.132 106.71 194.938 132.774L209.53 180.818C211.954 178.586 214.77 176.755 217.939 175.443C234.126 168.739 253.374 178.099 260.932 196.348C268.489 214.598 261.494 234.826 245.308 241.529C229.121 248.232 209.873 238.872 202.316 220.623C200.039 215.127 199.084 209.451 199.302 204.018C194.126 190.764 187.25 170.741 180.816 147.526C165.4 163.152 151.196 176.052 141.076 184.537C137.525 189.516 132.598 193.808 126.542 196.804C108.837 205.561 88.1872 199.93 80.4197 184.227C72.6523 168.524 80.7084 148.694 98.4132 139.937C116.118 131.179 136.767 136.81 144.534 152.513C145.171 153.799 145.7 155.113 146.127 156.446L175.612 127.557C167.517 94.3587 161.288 57.1875 162.117 24.7139L189.285 114.16L259.777 45.0895ZM132.614 158.41C127.735 148.546 114.764 145.009 103.643 150.51C92.5218 156.011 87.4615 168.466 92.3405 178.33C97.2196 188.194 110.191 191.731 121.312 186.23C132.433 180.729 137.493 168.274 132.614 158.41ZM251.027 200.45C246.024 188.368 233.28 182.171 222.563 186.609C211.847 191.047 207.216 204.439 212.22 216.522C217.223 228.604 229.967 234.801 240.684 230.363C251.4 225.925 256.031 212.532 251.027 200.45ZM187.729 123.666C184.995 122.639 181.947 124.023 180.92 126.756C179.893 129.489 181.276 132.538 184.01 133.565C186.743 134.592 189.791 133.208 190.818 130.475C191.845 127.742 190.462 124.693 187.729 123.666Z" fill="white"/>
<path d="M173.089 206.527C174.415 204.927 176.787 204.707 178.386 206.033L195.532 220.247C195.848 221.169 196.192 222.089 196.571 223.003C200.026 231.347 205.735 238.24 212.624 242.965L201.425 256.642C196.101 263.144 186.48 264.021 180.069 258.587L146.717 230.321L146.479 230.12L146.639 229.852C147.627 228.206 149.728 226.374 152.827 226.199C155.926 226.024 159.934 227.513 164.733 232.315C167.714 235.297 170.318 237.987 172.666 240.228C175.014 242.469 177.081 244.236 178.979 245.371C180.875 246.504 182.564 246.984 184.169 246.718C185.381 246.517 186.589 245.88 187.835 244.699L163.271 224.334C161.671 223.008 161.449 220.636 162.775 219.036C164.101 217.436 166.474 217.214 168.074 218.541L192.695 238.954C194.164 237.167 196.02 234.909 198.213 232.243L173.584 211.826C171.984 210.499 171.762 208.127 173.089 206.527ZM210.76 211.81C211.093 213.388 211.577 214.966 212.221 216.522L212.462 217.084C214.908 222.635 219.006 226.887 223.763 229.361L216.572 238.143C211.691 234.915 207.43 230.38 204.332 224.798C205.655 223.189 207.049 221.494 208.507 219.72L199.935 212.614C199.396 209.722 199.19 206.838 199.303 204.019C198.986 203.207 198.663 202.37 198.334 201.508L210.76 211.81ZM225.293 192.217C232.172 189.619 241.382 193.414 245.282 202.83C245.305 202.886 245.327 202.943 245.349 202.999L227.827 224.398C223.788 222.729 220.091 219.269 217.967 214.142C217.358 212.671 216.939 211.206 216.688 209.769C217.272 209.059 217.863 208.34 218.461 207.614L216.413 205.917C216.509 202.973 217.315 200.256 218.647 197.991L223.241 201.799C225.034 199.618 226.876 197.379 228.757 195.09L225.293 192.217ZM183.398 194.015C184.724 192.416 187.097 192.194 188.697 193.52L188.794 193.6C190.293 197.813 191.724 201.669 193.055 205.113C193.05 205.717 193.059 206.322 193.079 206.929L183.893 199.315C182.293 197.989 182.072 195.615 183.398 194.015ZM193.782 182.264C195.108 180.665 197.48 180.443 199.08 181.769L213.798 193.971C212.385 196.148 211.363 198.615 210.779 201.246L194.276 187.563C192.677 186.237 192.456 183.864 193.782 182.264ZM227.065 173.333C232.436 172.996 237.842 174.165 242.804 176.604L243.488 177.171C243.53 177.12 243.572 177.068 243.614 177.017C248.731 179.703 253.337 183.753 256.889 188.905L249.697 197.69C246.543 192.006 241.57 187.959 236.081 186.182C236.95 185.125 237.827 184.059 238.709 182.986L227.065 173.333ZM228.632 185.209C226.582 185.335 224.538 185.791 222.564 186.609L222.067 186.824C221.369 187.136 220.698 187.488 220.055 187.875L210.506 179.96C212.509 178.276 214.755 176.854 217.224 175.751L228.632 185.209ZM312.038 28.4321L345.924 56.6187C352.274 61.9005 353.176 71.3161 347.943 77.7065L260.958 183.937C257.278 179.04 252.711 175.021 247.63 172.131L250.037 169.206L226.728 149.882C225.128 148.556 224.906 146.182 226.232 144.583C227.558 142.983 229.932 142.761 231.532 144.087L254.816 163.39L262.391 154.173L239.934 135.555C238.335 134.229 238.113 131.857 239.439 130.257C240.765 128.658 243.137 128.435 244.737 129.761L267.171 148.359L275.429 138.312L252.159 119.02C250.559 117.694 250.337 115.32 251.664 113.72C252.99 112.121 255.363 111.899 256.963 113.225L280.209 132.497L287.781 123.285L263.697 103.318C262.097 101.991 261.877 99.6188 263.203 98.019C264.529 96.4199 266.901 96.1979 268.501 97.5239L292.56 117.471L298.075 110.761L274.006 90.8071C272.407 89.481 272.186 87.1091 273.511 85.5093C274.838 83.9095 277.21 83.6871 278.81 85.0132L302.854 104.947L307.339 99.4897C307.307 99.4649 307.275 99.4396 307.244 99.4136L282.035 78.5151C280.435 77.1889 280.213 74.8162 281.539 73.2163C282.865 71.6164 285.239 71.3958 286.839 72.7222L312.047 93.6196C312.071 93.639 312.092 93.6604 312.115 93.6802L317.634 86.9663C317.608 86.9452 317.581 86.9238 317.554 86.9019L292.344 66.0034C290.745 64.6772 290.523 62.3054 291.849 60.7056C293.176 59.1057 295.548 58.8841 297.148 60.2104L322.358 81.1079C322.376 81.1229 322.392 81.1405 322.41 81.1558L327.585 74.8599L302.728 54.2534C301.128 52.9271 300.906 50.5535 302.232 48.9536C303.558 47.3538 305.932 47.1322 307.532 48.4585L332.364 69.0454L333.016 68.2524L333.037 68.2261L333.062 68.2056C334.444 67.0373 335.471 64.4627 333.584 60.5024C331.687 56.5234 326.859 51.1916 316.589 44.6802C314.859 43.9112 312.554 42.199 311.188 39.5229C309.805 36.8125 309.404 33.1515 311.468 28.564L311.667 28.1235L312.038 28.4321ZM208.853 178.589L204.587 175.052C202.987 173.726 202.766 171.352 204.092 169.752C204.562 169.186 205.162 168.793 205.813 168.58L208.853 178.589ZM213.641 157.315C214.968 155.715 217.339 155.493 218.939 156.819L231.359 167.116C227.818 166.871 224.224 167.154 220.665 168.026L214.136 162.614C212.536 161.287 212.315 158.915 213.641 157.315Z" fill="white"/>
</g>
<path d="M174.851 24.0981L177.074 41.6136L194.419 44.9117L178.448 52.4388L180.671 69.9543L168.577 57.0907L152.606 64.6178L161.103 49.1406L149.009 36.2771L166.354 39.5752L174.851 24.0981Z" fill="white"/>
<path d="M268.982 59.2283L257.671 57.3433L252.382 67.5186L250.68 56.1782L239.368 54.2932L249.628 49.1695L247.925 37.8292L255.968 46.0029L266.227 40.8792L260.939 51.0546L268.982 59.2283Z" fill="white"/>
<path d="M122.89 208.348L112.722 203.046L104.537 211.077L106.438 199.769L96.2703 194.466L107.613 192.779L109.514 181.471L114.623 191.737L125.966 190.05L117.781 198.082L122.89 208.348Z" fill="white"/>
<path d="M316.344 65.5188L311.747 83.5466L327.472 93.4895L308.906 94.6883L304.309 112.716L297.432 95.4292L278.866 96.628L293.181 84.7453L286.304 67.4585L302.029 77.4015L316.344 65.5188Z" fill="white"/>
<circle cx="186.071" cy="122.874" r="3.64713" fill="white"/>
<path d="M302.73 89.1052L214.763 225.629C214.239 225.112 213.64 224.673 212.982 224.329L300.881 87.9138L302.73 89.1052ZM209.552 223.477C209.542 223.477 209.53 223.477 209.519 223.477C208.771 223.477 208.049 223.588 207.367 223.793L185.873 130.591C185.931 130.592 185.989 130.595 186.047 130.595C186.747 130.595 187.424 130.496 188.067 130.316L209.552 223.477ZM179.318 126.376C179.647 127.055 180.076 127.676 180.586 128.221L109.669 199.315L108.11 197.76L179.318 126.376ZM258.161 48.8992L258.94 49.6765L191.132 117.649C190.585 117.141 189.964 116.713 189.284 116.385L257.382 48.1228L258.161 48.8992ZM184.713 115.77C183.971 115.904 183.268 116.147 182.62 116.482L165.399 41.8113L166.47 41.5642L167.543 41.3171L184.713 115.77Z" fill="white"/>
<circle cx="209.544" cy="230.702" r="3.64713" fill="white"/>
<path d="M1.59884 232.543L16.2485 232.543L16.2485 232.643C16.1492 233.288 16.1244 233.586 16.1244 235.15L16.1244 247.317C16.1244 248.881 16.1492 249.179 16.2485 249.825L16.2485 249.924L12.2261 249.924L12.2261 249.825C12.3751 249.179 12.3999 248.881 12.3999 247.317L12.3999 233.586L5.44749 233.586L5.4475 247.317C5.4475 248.881 5.47233 249.179 5.62131 249.825L5.62131 249.924L1.59885 249.924L1.59885 249.825C1.69817 249.179 1.723 248.881 1.723 247.317L1.72299 235.15C1.72299 233.586 1.69816 233.288 1.59884 232.643L1.59884 232.543ZM25.0184 232.543C25.9123 232.543 27.1289 232.369 27.7745 231.848L33.2619 247.317C33.982 249.378 34.1558 249.676 34.2303 249.825L34.2303 249.924L29.8106 249.924L29.8106 249.825C29.8106 249.676 30.0092 249.378 29.2891 247.317L28.7181 245.654L21.0704 245.654L20.4497 247.317C19.6551 249.378 19.7793 249.676 19.7793 249.825L19.7793 249.924L18.215 249.924L18.215 249.825C18.2895 249.676 18.4881 249.378 19.2827 247.317L25.0184 232.543ZM21.4677 244.611L28.3456 244.611L25.068 235.175L21.4677 244.611ZM42.2904 232.543C46.586 232.543 49.2924 234.604 49.2924 238.031C49.2924 241.904 45.7666 243.891 42.0669 243.891C41.62 243.891 41.1482 243.841 40.7012 243.791L40.7012 243.046L41.024 243.046C43.6808 243.046 45.5679 241.283 45.5679 238.229C45.5679 235.25 44.1278 233.586 41.471 233.586L39.708 233.586L39.708 247.317C39.708 248.881 39.7329 249.179 39.8322 249.825L39.8322 249.924L35.8594 249.924L35.8594 249.825C35.9587 249.179 35.9835 248.881 35.9835 247.317L35.9835 235.15C35.9835 233.586 35.9587 233.288 35.8594 232.643L35.8594 232.543L42.2904 232.543ZM51.5972 232.543L55.6196 232.543L55.6196 232.643C55.4706 233.288 55.4458 233.586 55.4458 235.15L55.4458 244.76L66.1227 232.543L66.9173 232.543C66.7186 233.288 66.7186 233.661 66.7186 237.509L66.7186 247.317C66.7186 248.881 66.7435 249.179 66.8428 249.825L66.8428 249.924L62.8203 249.924L62.8203 249.825C62.9693 249.179 62.9941 248.881 62.9941 247.317L62.9941 237.708L52.3172 249.924L51.5227 249.924C51.7213 249.179 51.7213 248.807 51.7213 247.565L51.7213 235.15C51.7213 233.586 51.6965 233.288 51.5972 232.643L51.5972 232.543ZM70.6534 232.543L74.6759 232.543L74.6759 232.643C74.5269 233.288 74.5021 233.586 74.5021 235.15L74.5021 239.868L79.5425 235.15C81.0572 233.735 81.9014 232.866 81.9014 232.643L81.9014 232.543L83.863 232.543L83.863 232.643C83.1926 233.114 82.5718 233.735 81.0572 235.15L79.3936 236.74L83.9126 246.796C84.732 248.633 85.2534 249.179 85.7749 249.626L85.7749 249.924C83.6147 250.52 80.9579 249.552 79.8157 246.821L76.6374 239.223L74.5021 241.209L74.5021 247.317C74.5021 248.881 74.5269 249.179 74.6759 249.825L74.6759 249.924L70.6534 249.924L70.6534 249.825C70.7527 249.179 70.7776 248.881 70.7776 247.317L70.7776 235.15C70.7776 233.586 70.7527 233.288 70.6534 232.643L70.6534 232.543ZM87.2623 232.543L88.7521 232.543L96.2011 244.487L103.898 232.543L105.388 232.543C105.289 233.189 105.264 233.487 105.264 234.803L105.264 247.317C105.264 248.881 105.289 249.179 105.388 249.825L105.388 249.924L101.366 249.924L101.366 249.825C101.515 249.179 101.54 248.881 101.54 247.317L101.54 238.13L94.5872 248.881L94.5624 248.881L88.4294 239.098L88.4294 247.317C88.4294 248.881 88.4542 249.179 88.6032 249.825L88.6032 249.924L87.2623 249.924L87.2623 249.825C87.3617 249.179 87.3865 248.881 87.3865 247.317L87.3865 234.803C87.3865 233.487 87.3617 233.189 87.2623 232.543ZM114.149 232.543C115.043 232.543 116.26 232.369 116.905 231.848L122.393 247.317C123.113 249.378 123.287 249.676 123.361 249.825L123.361 249.924L118.942 249.924L118.942 249.825C118.942 249.676 119.14 249.378 118.42 247.317L117.849 245.654L110.201 245.654L109.581 247.317C108.786 249.378 108.91 249.676 108.91 249.825L108.91 249.924L107.346 249.924L107.346 249.825C107.42 249.676 107.619 249.378 108.414 247.317L114.149 232.543ZM110.599 244.611L117.477 244.611L114.199 235.175L110.599 244.611ZM123.972 232.543L128.69 232.543L128.715 232.643C128.814 232.941 128.839 233.09 129.807 234.579L132.539 238.751L135.195 234.579C136.214 232.99 136.238 232.941 136.338 232.643L136.363 232.543L138.15 232.543L138.15 232.643C137.803 232.99 137.356 233.387 136.189 235.175L133.209 239.769L138.076 247.267C139.168 248.956 139.615 249.477 139.913 249.825L139.913 249.924L135.195 249.924L135.171 249.825C135.071 249.527 135.047 249.378 134.078 247.888L130.403 242.277L126.753 247.888C125.735 249.453 125.71 249.527 125.611 249.825L125.586 249.924L123.799 249.924L123.799 249.825C124.146 249.477 124.618 249.055 125.785 247.292L129.758 241.283L125.76 235.175C124.643 233.462 124.27 232.99 123.972 232.643L123.972 232.543ZM141.939 232.543L152.814 232.543L152.814 233.834L152.715 233.834C152.069 233.586 151.697 233.586 150.455 233.586L145.787 233.586L145.787 237.832L150.878 237.832L150.878 238.875L145.787 238.875L145.787 248.881L151.374 248.881C152.69 248.881 152.988 248.857 153.634 248.708L153.733 248.708L153.733 249.924L141.939 249.924L141.939 249.825C142.038 249.179 142.063 248.881 142.063 247.317L142.063 235.15C142.063 233.586 142.038 233.288 141.939 232.643L141.939 232.543ZM162.893 232.543C167.189 232.543 169.895 234.604 169.895 238.031C169.895 241.904 166.37 243.891 162.67 243.891C162.223 243.891 161.751 243.841 161.304 243.791L161.304 243.046L161.627 243.046C164.284 243.046 166.171 241.283 166.171 238.229C166.171 235.25 164.731 233.586 162.074 233.586L160.311 233.586L160.311 247.317C160.311 248.881 160.336 249.179 160.435 249.825L160.435 249.924L156.462 249.924L156.462 249.825C156.562 249.179 156.587 248.881 156.587 247.317L156.587 235.15C156.587 233.586 156.562 233.288 156.462 232.643L156.462 232.543L162.893 232.543Z" fill="#F6F1FF"/>
<path opacity="0.5" d="M36.6066 270.559L36.6126 269.755L40.5186 266.227C41.1846 265.627 41.3526 265.099 41.3526 264.499C41.3526 263.431 40.5306 262.591 39.4686 262.591C38.3646 262.591 37.5486 263.479 37.5606 264.493L36.6606 264.493C36.6606 262.915 37.8786 261.745 39.4806 261.745C41.0526 261.745 42.2466 262.963 42.2466 264.505C42.2466 265.591 41.8626 266.191 41.0226 266.941L37.9506 269.713L42.2466 269.713L42.2466 270.559L36.6066 270.559ZM47.7399 270.565L47.7399 268.891L43.6959 268.891L43.6959 268.051L46.5879 261.925L47.5779 261.925L44.6859 268.051L47.7399 268.051L47.7399 265.531L48.6279 265.531L48.6279 268.051L49.5699 268.051L49.5699 268.891L48.6279 268.891L48.6279 270.565L47.7399 270.565ZM54.3141 270.745C52.7121 270.745 51.4941 269.527 51.4941 267.925L51.4941 264.565C51.4941 262.963 52.7121 261.745 54.3141 261.745C55.9161 261.745 57.1341 262.963 57.1341 264.565L57.1341 267.925C57.1341 269.527 55.9161 270.745 54.3141 270.745ZM54.3141 269.893C55.3761 269.893 56.2401 269.029 56.2401 267.967L56.2401 264.523C56.2401 263.455 55.3761 262.591 54.3141 262.591C53.2521 262.591 52.3881 263.455 52.3881 264.523L52.3881 267.967C52.3881 269.029 53.2521 269.893 54.3141 269.893ZM60.9783 266.065C59.7903 266.065 58.8183 265.105 58.8183 263.905C58.8183 262.729 59.8263 261.745 60.9783 261.745C62.1663 261.745 63.1383 262.705 63.1383 263.905C63.1383 265.105 62.1663 266.065 60.9783 266.065ZM60.9783 265.267C61.7163 265.267 62.3403 264.643 62.3403 263.905C62.3403 263.167 61.7163 262.543 60.9783 262.543C60.2403 262.543 59.6163 263.167 59.6163 263.905C59.6163 264.643 60.2403 265.267 60.9783 265.267ZM68.0006 270.745C66.3986 270.745 65.1806 269.527 65.1806 267.925L65.1806 264.565C65.1806 262.963 66.3986 261.745 68.0006 261.745C69.6026 261.745 70.8206 262.963 70.8206 264.565L70.8206 267.925C70.8206 269.527 69.6026 270.745 68.0006 270.745ZM68.0006 269.893C69.0626 269.893 69.9266 269.029 69.9266 267.967L69.9266 264.523C69.9266 263.455 69.0626 262.591 68.0006 262.591C66.9386 262.591 66.0746 263.455 66.0746 264.523L66.0746 267.967C66.0746 269.029 66.9386 269.893 68.0006 269.893ZM75.8049 270.745C74.2029 270.745 72.9849 269.527 72.9849 267.925L72.9849 264.565C72.9849 262.963 74.2029 261.745 75.8049 261.745C77.4069 261.745 78.6249 262.963 78.6249 264.565L78.6249 267.925C78.6249 269.527 77.4069 270.745 75.8049 270.745ZM75.8049 269.893C76.8669 269.893 77.7309 269.029 77.7309 267.967L77.7309 264.523C77.7309 263.455 76.8669 262.591 75.8049 262.591C74.7429 262.591 73.8789 263.455 73.8789 264.523L73.8789 267.967C73.8789 269.029 74.7429 269.893 75.8049 269.893ZM81.3051 261.847L82.1931 261.847L81.3531 264.727L80.7471 264.727L81.3051 261.847ZM82.8291 261.847L83.7171 261.847L82.8771 264.727L82.2711 264.727L82.8291 261.847ZM88.4963 267.163L88.4963 266.407L93.5363 266.407L93.5363 267.163L88.4963 267.163ZM100.781 270.739C99.4971 270.739 98.4651 270.019 98.0991 268.849L98.9391 268.597C99.2271 269.455 99.9411 269.905 100.769 269.887C101.921 269.863 102.623 269.089 102.623 267.931C102.623 266.755 101.873 265.975 100.757 265.975C100.445 265.975 100.079 266.071 99.7851 266.215L99.3411 265.513L102.305 262.771L98.4411 262.771L98.4411 261.925L103.433 261.925L103.433 262.783L100.907 265.201C102.473 265.189 103.535 266.317 103.535 267.931C103.535 269.593 102.371 270.739 100.781 270.739ZM108.392 270.745C106.79 270.745 105.572 269.527 105.572 267.925L105.572 264.565C105.572 262.963 106.79 261.745 108.392 261.745C109.994 261.745 111.212 262.963 111.212 264.565L111.212 267.925C111.212 269.527 109.994 270.745 108.392 270.745ZM108.392 269.893C109.454 269.893 110.318 269.029 110.318 267.967L110.318 264.523C110.318 263.455 109.454 262.591 108.392 262.591C107.33 262.591 106.466 263.455 106.466 264.523L106.466 267.967C106.466 269.029 107.33 269.893 108.392 269.893ZM115.056 266.065C113.868 266.065 112.896 265.105 112.896 263.905C112.896 262.729 113.904 261.745 115.056 261.745C116.244 261.745 117.216 262.705 117.216 263.905C117.216 265.105 116.244 266.065 115.056 266.065ZM115.056 265.267C115.794 265.267 116.418 264.643 116.418 263.905C116.418 263.167 115.794 262.543 115.056 262.543C114.318 262.543 113.694 263.167 113.694 263.905C113.694 264.643 114.318 265.267 115.056 265.267ZM122.078 270.745C120.476 270.745 119.258 269.527 119.258 267.925L119.258 264.565C119.258 262.963 120.476 261.745 122.078 261.745C123.68 261.745 124.898 262.963 124.898 264.565L124.898 267.925C124.898 269.527 123.68 270.745 122.078 270.745ZM122.078 269.893C123.14 269.893 124.004 269.029 124.004 267.967L124.004 264.523C124.004 263.455 123.14 262.591 122.078 262.591C121.016 262.591 120.152 263.455 120.152 264.523L120.152 267.967C120.152 269.029 121.016 269.893 122.078 269.893ZM129.883 270.745C128.281 270.745 127.063 269.527 127.063 267.925L127.063 264.565C127.063 262.963 128.281 261.745 129.883 261.745C131.485 261.745 132.703 262.963 132.703 264.565L132.703 267.925C132.703 269.527 131.485 270.745 129.883 270.745ZM129.883 269.893C130.945 269.893 131.809 269.029 131.809 267.967L131.809 264.523C131.809 263.455 130.945 262.591 129.883 262.591C128.821 262.591 127.957 263.455 127.957 264.523L127.957 267.967C127.957 269.029 128.821 269.893 129.883 269.893ZM135.383 261.847L136.271 261.847L135.431 264.727L134.825 264.727L135.383 261.847ZM136.907 261.847L137.795 261.847L136.955 264.727L136.349 264.727L136.907 261.847Z" fill="#F6F1FF"/>
</svg>
