<svg width="148" height="93" viewBox="0 0 148 93" fill="none" xmlns="http://www.w3.org/2000/svg">
<g opacity="0.1">
<path d="M31.3985 89.4067C31.361 89.4631 31.3235 89.5381 31.2671 89.5945C30.9292 89.5569 30.6101 89.5194 30.291 89.4818C30.6664 89.4631 31.0231 89.4255 31.3985 89.4067Z" fill="white"/>
<path d="M27.4374 76.0225C26.8742 73.8074 16.456 50.3805 16.456 50.3805L29.4835 58.3772L7.33301 30.4826L24.8093 44.6176L13.4713 21.7351L28.1695 40.15L26.6865 21.7351L33.0125 31.2147L30.0278 11.6923L43.2243 37.7285L41.929 14.6582L47.8796 33.9929L49.9257 11.6735L58.4855 40.8821L59.5931 7.6001L62.0146 41.0698L72.0574 12.7998L69.2604 47.3958L87.4876 13.363L81.8937 38.1039L106.278 7.6001L91.0355 50.1928L115.776 22.486L116.715 50.0051L143.483 22.8426L135.111 44.7866L147.012 46.2695L120.038 63.2015L102.373 71.8927C99.8018 73.1504 96.986 73.8262 94.114 73.8637L27.4374 76.0225Z" fill="white"/>
<path d="M31.3985 89.4067C31.361 89.4631 31.3235 89.5381 31.2671 89.5945C30.9292 89.5569 30.6101 89.5194 30.291 89.4818C30.6664 89.4631 31.0231 89.4255 31.3985 89.4067Z" fill="white"/>
<path d="M92.2556 75.9472C71.0062 76.4165 24.3025 77.6742 24.3025 77.6742C24.3776 76.8482 24.9595 69.1519 21.9936 69.0017C19.0089 68.8328 16.212 74.2953 16.212 74.2953L5.38077 79.5889C5.38077 79.5889 0.0120999 79.8329 0.162272 81.9917C0.237359 82.9678 1.4012 83.606 2.67766 84.0378C4.1043 84.507 5.64357 84.5634 7.12652 84.2442C7.91493 84.0753 9.13508 83.9814 10.9184 84.2255C13.3211 84.5446 17.5635 86.1402 20.3417 87.2852C21.8997 87.9235 23.5141 88.4115 25.166 88.7494C24.4339 88.8433 23.683 89.0498 23.1574 89.5566C23.2138 89.7255 23.439 89.7443 23.6267 89.7443C25.3913 89.7068 27.1558 89.6505 28.9203 89.5566C28.5637 89.6692 28.2258 89.8194 27.963 90.0634C27.4749 90.5139 27.2684 91.3211 27.6814 91.8467C28.3572 91.5839 29.0329 91.3211 29.6524 90.9457C30.1968 90.6078 30.8913 90.1385 31.3043 89.6129C30.9664 89.5754 30.6473 89.5378 30.3282 89.5003C30.7036 89.4815 31.0603 89.4627 31.4169 89.444C31.3794 89.5003 31.3418 89.5754 31.2855 89.6317C31.8675 89.7068 32.4869 89.7819 33.1251 89.8382C33.0501 89.8945 32.9937 89.9696 32.9374 90.0259C32.2992 90.7204 32.0739 91.7904 32.5057 92.6351C33.219 92.0157 33.9886 91.4525 34.7958 90.9832C35.1525 90.7768 35.8846 90.5327 36.3539 90.1761C42.4734 90.7767 50.2073 91.2648 58.4668 91.2085C67.9652 91.1334 77.3134 90.4576 84.2964 89.8006C84.2777 89.8006 84.2589 89.8194 84.2401 89.8194C83.5268 90.1197 82.8135 90.5327 82.4193 91.1897C82.5319 91.3399 82.7572 91.3024 82.9261 91.246C84.6156 90.7392 86.305 90.1948 87.9944 89.6317C87.6753 89.8194 87.3938 90.0634 87.206 90.3825C86.8494 90.9457 86.8681 91.7716 87.3938 92.1658C87.9757 91.7341 88.5388 91.2836 89.0456 90.758C89.4398 90.3262 89.9467 89.7443 90.2095 89.1812C90.8289 89.1061 91.4296 89.0498 91.9552 88.9747C91.5423 89.8194 91.5986 90.9082 92.2368 91.6027C92.7436 90.8143 93.3443 90.0634 94.0013 89.3877C94.1891 89.1812 94.5457 88.9184 94.8836 88.6368C95.6157 88.5429 96.0099 88.4866 96.0099 88.4866C96.0099 88.4866 129.649 82.3671 134.116 56.9879C134.079 56.9316 113.524 75.4779 92.2556 75.9472ZM19.0277 76.8858C18.596 77.6367 17.9014 78.0308 17.4509 77.768C17.0004 77.5052 17.0004 76.6981 17.4133 75.9472C17.8451 75.1963 18.5396 74.8021 18.9902 75.0649C19.4407 75.3277 19.4407 76.1349 19.0277 76.8858Z" fill="white"/>
</g>
<path fill-rule="evenodd" clip-rule="evenodd" d="M59.5913 31.0322C59.9176 31.2618 60.1957 31.5553 60.4073 31.8945L67.5617 21.9252L102.388 27.424C102.4 27.0189 102.493 26.6342 102.652 26.2855L67.3886 20.7176L67.0337 20.6616L66.8241 20.9535L59.5913 31.0322ZM89.6176 53.682L103.652 29.9515C103.97 30.1753 104.334 30.3384 104.727 30.4238L90.4087 54.6345L90.1963 54.9936L89.7879 54.9084L52.6708 47.1645C52.9166 46.8514 53.0952 46.4829 53.1848 46.0809L89.6176 53.682ZM52.1961 43.3364L57.199 36.3651C56.8035 36.2724 56.4383 36.1008 56.121 35.8678L51.1236 42.8314C51.5208 42.9199 51.8853 43.0952 52.1961 43.3364ZM44.883 12.2734L57.1337 30.5863C56.7444 30.6869 56.3861 30.8643 56.0757 31.1014L43.9141 12.9216L44.883 12.2734Z" fill="white"/>
<circle cx="50.7324" cy="45.2935" r="1.48438" fill="white"/>
<circle cx="105.235" cy="27.8618" r="1.48438" fill="white"/>
<circle cx="57.93" cy="33.6336" r="1.90462" fill="white"/>
<path d="M39.7717 4.62665L44.7582 9.09561L50.5494 5.73406L47.8401 11.8576L52.8267 16.3265L46.1657 15.6421L43.4564 21.7656L42.049 15.2191L35.3879 14.5347L41.1791 11.1732L39.7717 4.62665Z" fill="white"/>
<path d="M85.7181 48.6348L89.3993 51.9338L93.6744 49.4523L91.6744 53.9727L95.3555 57.2717L90.4383 56.7665L88.4383 61.2869L87.3993 56.4542L82.482 55.949L86.7571 53.4675L85.7181 48.6348Z" fill="white"/>
<path d="M65.147 16.2567L68.0847 18.8895L71.4964 16.9091L69.9003 20.5166L72.838 23.1493L68.9138 22.7461L67.3177 26.3536L66.4886 22.4969L62.5644 22.0937L65.9761 20.1134L65.147 16.2567Z" fill="white"/>
</svg>
