<svg width="151" height="89" viewBox="0 0 151 89" fill="none" xmlns="http://www.w3.org/2000/svg">
<g opacity="0.2">
<path d="M13.6499 45.197C14.1879 45.4416 14.7748 45.6372 15.3617 45.6861C17.6605 46.0285 20.2527 45.246 22.796 44.5123C24.6545 43.9743 26.4642 43.4363 27.9314 42.5559C28.9096 41.969 29.8389 41.1865 30.9149 40.0616C32.5289 38.3497 33.5071 36.8335 33.9473 35.4152C34.6809 32.9208 33.7516 29.8884 31.6975 28.2744C31.3062 27.932 31.1105 27.8831 31.0127 27.8342C30.8171 27.7853 30.4258 27.7364 30.1813 27.7364C29.6433 27.6875 29.1053 27.6875 28.5673 27.6875C21.4265 31.3068 15.753 37.1759 13.6499 45.197Z" fill="white"/>
<path d="M150.253 42.9961C148.248 41.0887 146.487 38.9367 144.091 37.5183C144.237 36.1977 143.993 34.975 143.406 33.7523C144.58 31.209 145.753 28.6168 147.025 26.0735C147.563 24.9486 147.221 24.2639 146.145 24.215C144.971 24.166 143.699 21.7695 142.574 24.166C141.449 26.6115 140.422 29.057 139.395 31.5514C139.151 31.5024 138.955 31.4535 138.759 31.4046C136.95 28.6657 134.455 26.5626 132.108 24.4106C130.592 23.0411 130.005 25.3888 128.929 25.9757C128.097 26.4159 127.902 27.0517 128.733 27.8832C130.494 29.6439 132.157 31.5514 133.868 33.361C134.309 33.3121 134.7 33.4099 134.993 33.7034C135.042 33.7523 135.091 33.8012 135.091 33.8501C135.042 33.899 134.944 33.9968 134.896 34.0457C134.553 33.8012 134.211 33.6055 133.868 33.361C119.245 32.7252 104.621 32.0404 90.0457 31.4046C88.0893 31.3068 85.6438 31.8448 84.3722 30.8666C83.0027 29.7906 83.9809 27.1984 84.0298 25.291C84.0298 23.7259 83.4918 23.2368 82.0245 22.8944C76.7423 21.6228 71.509 20.1555 66.2268 18.786C65.3954 18.5904 64.3683 18.6393 64.3194 17.3676C64.8574 15.1667 65.3954 12.9169 65.8845 10.716C66.0312 10.0802 66.0801 9.39542 67.0094 9.49324C69.7972 9.7867 72.585 9.24869 75.4707 10.1291C88.4806 13.9929 101.882 15.9004 115.43 16.4873C117.093 16.5851 119.978 16.9275 120.076 15.6069C120.223 13.6994 117.435 13.6994 115.821 13.3571C101.882 10.178 88.0404 7.87923 73.8567 7.7325C73.0741 7.7325 72.3894 7.87923 71.9003 6.85214C69.5527 2.25466 62.6564 0.787377 58.9882 4.30885C57.472 5.77613 56.2982 5.77613 54.5864 5.43376C40.9407 2.59702 27.1482 2.01011 13.258 2.9883C11.8885 3.03721 9.58979 2.84157 9.54088 4.30885C9.49197 5.58049 11.7907 5.77613 13.2091 6.02068C26.1212 8.12378 39.131 8.71069 52.1898 8.12378C55.2222 7.97705 58.1079 7.87923 61.0424 8.90633C62.1184 9.2976 62.2163 9.63997 62.0206 10.5692C61.5804 12.4767 61.1892 14.3842 60.7979 16.2916C59.9175 17.9056 58.7437 16.7318 57.9122 16.4384C53.2658 14.7265 49.2553 15.6558 46.4674 19.7153C44.56 22.552 42.0167 23.5302 39.0332 24.0682C38.5441 24.166 38.1039 24.2639 37.6148 24.3617C40.6472 27.7853 41.87 32.823 40.5494 37.2737C39.8158 39.817 38.2507 42.2625 35.903 44.7569C34.3868 46.3709 32.9685 47.4958 31.4523 48.4251C29.2514 49.7456 26.8548 50.4304 24.7517 51.0662C22.404 51.7509 19.5673 52.5824 16.5838 52.5824C15.8502 52.5824 15.1165 52.5335 14.334 52.4356C13.7471 52.3378 13.1602 52.24 12.6222 52.0444C12.4265 62.5599 21.3769 67.3041 31.2077 70.3365C28.9579 74.2003 26.7081 78.0641 24.5071 81.9769C23.9691 82.9062 23.3822 83.1996 22.404 83.1996C16.7306 83.1996 12.1331 80.9987 8.85615 76.3523C7.19323 74.0047 6.26395 71.3147 5.77486 68.4779C5.4814 66.8639 4.35649 66.0814 2.79139 66.3259C1.32411 66.5704 0.639379 67.4997 0.737198 69.1137C1.32411 79.0912 10.6169 88.1395 20.5944 88.1395C42.1634 88.1884 63.7324 88.1395 85.3015 88.1395C87.1111 88.1395 88.4317 87.5526 88.3828 85.5962C88.3338 83.7865 87.0622 83.1507 85.3993 83.1996C82.6115 83.2485 79.8725 83.1018 77.0847 83.2485C75.324 83.3464 74.6881 82.6616 74.199 81.1454C72.9763 77.5261 71.5579 74.0047 70.1885 70.4343C70.8243 69.7985 71.7047 69.8474 72.4383 69.6517C83.2473 67.2552 91.464 61.8751 94.6921 50.626C95.5724 47.5936 97.8223 46.0774 100.952 45.5394C112.593 43.632 124.184 41.6756 135.776 39.7681C135.923 39.7192 136.069 39.7192 136.216 39.6703C136.216 39.6703 136.265 39.6703 136.265 39.7192C136.118 39.817 135.972 39.817 135.776 39.7681C135.238 42.1647 133.966 44.2678 132.939 46.4198C132.108 48.1805 132.939 48.5718 134.358 49.0609C135.678 49.5011 136.95 50.5771 137.683 48.2784C138.515 45.7351 139.591 43.3385 140.569 40.8441C140.716 40.7952 140.911 40.7463 141.058 40.7463C142.77 42.6049 144.482 44.4145 146.194 46.322C147.074 47.3002 147.759 47.2513 148.59 46.2731C149.079 45.7351 149.617 45.246 150.204 44.7569C150.791 44.2189 150.987 43.6809 150.253 42.9961ZM65.2486 82.5149C54.9288 82.5149 44.56 82.5149 34.2401 82.5149C33.0663 82.5149 30.8164 82.7105 31.8925 80.9009C32.8217 79.2869 33.7999 77.6729 34.6314 76.01C35.3161 74.6405 36.3921 73.3689 36.4899 71.8037C36.4899 71.5592 36.4899 71.3636 36.4899 71.119C45.9294 72.3907 55.3689 72.3907 64.8084 71.119C64.2704 71.8527 64.7106 72.6841 64.9552 73.4178C65.6399 75.5209 66.4225 77.5751 67.205 79.6292C68.2321 82.4171 68.1343 82.5149 65.2486 82.5149Z" fill="white"/>
</g>
<path fill-rule="evenodd" clip-rule="evenodd" d="M28.9946 4.87305L64.235 6.3327L64.9284 6.36142L64.8399 7.04979L63.3376 18.7342C62.9948 18.586 62.6168 18.504 62.2196 18.504C62.1739 18.504 62.1285 18.505 62.0834 18.5072L63.4889 7.57583L28.9419 6.14491L28.9946 4.87305ZM62.2196 24.1461C62.5314 24.1461 62.8314 24.0955 63.1119 24.0021L64.7287 51.6681C64.5601 51.6367 64.3863 51.6203 64.2085 51.6203C63.9482 51.6203 63.6961 51.6555 63.4567 51.7215L61.8484 24.201L48.9264 53.0413H61.7588C61.5423 53.4194 61.4108 53.8524 61.3903 54.3143H47.9438H46.9612L47.363 53.4175L60.6821 23.6907C61.1244 23.9787 61.6525 24.1461 62.2196 24.1461Z" fill="#BBBBBB"/>
<circle cx="62.6682" cy="21.2771" r="1.45579" fill="#BBBBBB"/>
<circle cx="64.1238" cy="54.2107" r="1.45579" fill="#BBBBBB"/>
<path d="M47.8866 49.3848L48.8169 52.2478H51.8273L49.3918 54.0173L50.3221 56.8803L47.8866 55.1109L45.4512 56.8803L46.3814 54.0173L43.946 52.2478H46.9563L47.8866 49.3848Z" fill="white"/>
<path d="M29.5206 0L30.7777 3.86897H34.8458L31.5547 6.26013L32.8118 10.1291L29.5206 7.73794L26.2295 10.1291L27.4866 6.26013L24.1954 3.86897H28.2635L29.5206 0Z" fill="white"/>
<path d="M64.1239 2.23926L65.1296 5.33444H68.3841L65.7512 7.24737L66.7568 10.3426L64.1239 8.42963L61.491 10.3426L62.4967 7.24737L59.8638 5.33444H63.1182L64.1239 2.23926Z" fill="white"/>
</svg>
