<svg width="104" height="122" viewBox="0 0 104 122" fill="none" xmlns="http://www.w3.org/2000/svg">
<g opacity="0.1">
<path d="M0.937267 118.679C3.0947 119.694 5.25214 119.647 7.47303 119.202C7.4889 118.536 7.07645 118.425 6.60054 118.536C5.18869 118.901 3.77684 118.726 2.34912 118.6C1.34972 118.52 1.08004 117.997 1.57181 117.108C1.93667 116.442 2.12703 115.459 2.66639 115.173C3.22161 114.887 4.12583 115.379 4.87142 115.379C10.2967 115.332 15.7221 115.3 21.1474 115.3C21.4647 115.3 22.0357 115.474 21.9406 114.872C21.9088 114.697 21.3219 114.475 20.9888 114.475C16.4835 114.475 11.9624 114.618 7.45717 114.681C6.1405 114.665 4.82383 114.57 3.50716 114.491C3.31679 114.475 3.11057 114.38 2.82503 114.301C3.18989 113.523 3.52302 112.809 3.82443 112.191C5.29973 112.381 6.71159 112.556 8.20276 112.746C8.15517 111.905 7.6634 111.873 7.15576 111.842C6.18809 111.794 5.23628 111.731 4.07824 111.651C4.53828 110.7 4.90315 109.954 5.3156 109.081C6.23568 110.271 7.47303 110.462 8.6628 110.541C10.9789 110.684 13.2949 110.7 15.611 110.747C15.7379 110.747 15.849 110.684 16.0076 110.652C16.0076 110.128 15.7855 109.906 15.2937 109.922C14.3737 109.954 13.4536 109.986 12.5176 109.954C11.0106 109.906 9.51943 109.859 8.01239 109.732C7.47303 109.684 6.93368 109.494 6.41018 109.304C5.83909 109.097 5.72805 108.669 5.99773 108.161C8.59934 103.291 12.0576 103.196 17.0546 103.244C23.638 103.291 30.253 103.767 36.8047 103.101C38.7876 102.895 40.8657 102.546 42.3886 101.134C46.0848 97.9294 48.2105 93.5352 50.479 89.3155C50.7804 88.7603 51.0501 88.6175 51.6529 88.8713C52.9379 89.3948 54.2704 89.8231 55.6188 90.3149C55.127 92.0123 54.6353 93.7256 53.9531 95.3595C50.2887 103.482 46.8939 111.715 43.737 120.043C43.3404 121.011 42.4838 121.265 41.5796 120.757C41.3416 120.614 41.0402 120.551 40.7706 120.551C38.6131 120.582 36.4398 120.598 34.2824 120.725C32.4898 120.82 30.7131 121.122 28.9364 121.233C21.8771 121.614 14.802 121.503 7.74271 121.661C5.60114 121.661 3.41198 122.169 1.30213 121.566C-0.22077 121.106 0.508952 119.726 0.937267 118.679Z" fill="white"/>
<path d="M62.6144 73.1666C61.615 72.6749 60.6473 72.199 59.5845 71.6755C61.6626 66.4405 64.0738 61.3642 66.1996 56.1451C67.659 52.5282 69.0074 48.8479 70.9586 45.4689C71.2442 44.9613 71.9422 44.7075 72.4339 44.3109C72.7195 44.073 73.2588 43.8667 72.894 43.4067C72.7512 43.2322 72.2277 43.375 71.8311 43.375C72.9574 40.7733 73.9885 38.0289 75.1149 35.4115C75.6542 34.1424 76.3205 32.9209 76.8757 31.6518C77.0661 31.2076 77.0026 30.6683 77.193 30.2241C78.1765 27.8446 79.2394 25.4968 80.2229 23.1014C80.7305 21.864 81.0637 20.5474 81.5396 19.2941C81.7617 18.7231 82.1741 18.2154 82.4279 17.6443C83.8557 14.0116 85.4103 10.4423 86.9332 6.85714C87.6153 5.01697 88.345 3.19267 89.0747 1.38423C89.6458 0.194465 89.6141 -0.297304 91.026 0.416554C91.7398 0.749688 92.4219 1.16214 93.1199 1.527C93.6276 1.79668 93.5165 2.22499 93.3579 2.62158C91.9302 5.8736 90.677 9.20494 89.2968 12.4728C87.9326 15.6614 86.5207 18.85 85.1089 22.0227C84.5536 23.2759 84.0301 24.5608 83.2687 25.6871C82.5548 26.7341 82.4438 27.9715 81.8568 29.0661C80.7623 31.0966 79.8105 33.2223 78.9221 35.348C76.8281 40.6464 74.7659 45.9448 72.3705 51.1164C72.2911 51.2909 72.0849 51.386 71.9739 51.5605C71.847 51.7668 71.7201 51.9888 71.6407 52.2109C71.5614 52.4489 71.609 52.7344 71.5138 52.9565C68.5791 59.7302 65.9933 66.5991 62.6144 73.1666Z" fill="white"/>
<path d="M54.8734 81.1777C56.1583 81.733 57.3481 82.2565 58.633 82.8117C57.9985 84.3504 57.4274 85.7306 56.8246 87.0948C56.7611 87.2376 56.428 87.428 56.3011 87.3804C55.0003 86.9045 53.7153 86.3968 52.3511 85.8575C53.2236 84.2394 54.0326 82.7482 54.8734 81.1777Z" fill="white"/>
<path d="M61.4564 75.4189C60.8695 76.8466 60.3619 78.1633 59.7908 79.4641C59.6956 79.6703 59.2831 79.9083 59.1086 79.8607C58.1886 79.5593 57.3002 79.1786 56.3325 78.8137C56.9829 77.3542 57.6175 75.9265 58.2837 74.5147C58.3472 74.3719 58.6327 74.1815 58.7438 74.2291C59.648 74.5781 60.5522 75.0064 61.4564 75.4189Z" fill="white"/>
<path d="M51.3359 88.0305C51.9546 86.5235 51.9546 86.5235 53.2396 87.0152C54.1279 87.3642 55.0163 87.6974 55.857 88.1098C56.2854 88.3795 56.3329 89.6327 55.508 89.363C54.1279 88.9347 52.7637 88.4905 51.3359 88.0305Z" fill="white"/>
<path d="M55.2222 80.6063C55.5077 80.1462 55.7298 79.7814 55.9678 79.3848C56.9513 79.7972 57.9348 80.1304 58.8708 80.6063C59.6481 81.0028 58.8232 81.4946 58.8866 81.9864C57.6493 81.5105 56.4754 81.0822 55.2222 80.6063Z" fill="white"/>
<path d="M62.2337 73.8327C61.9164 74.7369 61.726 74.8162 60.9804 74.4514C60.2666 74.1182 59.5527 73.801 58.8389 73.4678C59.0927 72.2781 59.2196 72.2146 60.3459 72.7698C60.9804 73.1347 61.5515 73.4678 62.2337 73.8327Z" fill="white"/>
<path d="M88.171 100.229C89.5987 101.372 90.6616 103.735 88.8848 105.02C85.2838 107.32 77.9549 106.765 73.8145 106.146C72.6565 105.972 71.8791 105.147 71.3398 104.116C70.8322 103.148 71.086 102.228 71.6095 101.419C73.9731 97.6912 78.526 96.676 82.1587 97.3898C83.2057 97.596 84.2844 97.7388 85.2997 98.0561C86.0294 98.294 86.9336 98.643 87.2826 99.23C87.8378 100.182 88.1234 101.356 88.2503 102.45C88.3455 103.196 87.584 103.64 86.9336 103.989C86.6322 104.148 86.188 104.29 86.5212 104.703C86.6481 104.862 87.1399 104.877 87.3778 104.766C88.8055 104.116 89.218 102.926 88.631 101.451C88.4724 101.038 88.3296 100.626 88.171 100.229Z" fill="white"/>
<path d="M89.8045 105.75C89.5983 107.384 89.4079 108.923 89.2017 110.446C89.1858 110.589 89.0113 110.779 88.8685 110.858C84.2681 112.921 78.7159 114.047 73.9727 111.778C73.7823 111.699 73.6713 111.398 73.5761 111.176C73.4492 110.89 73.3699 110.589 73.2588 110.287C73.1954 110.303 73.1319 110.319 73.0685 110.335C73.0209 110.573 72.9733 110.811 72.9098 111.065C72.8464 111.08 72.7988 111.096 72.7353 111.096C72.6402 110.43 72.5291 109.748 72.4339 109.082C72.3388 109.082 72.2594 109.082 72.1643 109.098C72.1008 109.589 72.0215 110.081 71.958 110.573C71.8787 110.573 71.7835 110.573 71.7042 110.573C71.7042 109.986 71.7518 109.399 71.6884 108.812C71.6249 108.257 71.9739 107.575 71.2124 107.019C71.149 108.019 71.0855 108.86 71.0379 109.7C70.9269 109.7 70.8 109.684 70.689 109.684C70.5938 108.082 70.7683 106.464 70.8317 104.624C71.1649 104.989 71.3394 105.163 71.498 105.354C72.4974 106.559 73.7982 107.115 75.337 107.305C77.3834 107.575 79.4297 107.495 81.492 107.527C83.6336 107.559 85.68 107.257 87.7105 106.686C88.3609 106.496 88.9479 106.131 89.8045 105.75Z" fill="white"/>
</g>
<path fill-rule="evenodd" clip-rule="evenodd" d="M29.0804 107.471C28.7974 107.25 28.4812 107.069 28.1406 106.937L43.0859 72.2053C43.4233 72.3302 43.784 72.4071 44.1597 72.4279L29.0804 107.471ZM46.8999 66.0598L63.1381 28.3231L62.1513 27.8984L46 65.4331C46.3311 65.5968 46.6342 65.8088 46.8999 66.0598ZM29.6778 112.702C29.9549 112.361 30.1721 111.968 30.3135 111.541L55.6428 108.403C55.6268 108.542 55.6186 108.684 55.6186 108.827C55.6186 109.051 55.6385 109.269 55.6764 109.481L29.6778 112.702ZM62.9909 108.575C62.966 108.206 62.8869 107.852 62.7615 107.521L80.3037 105.348C80.3768 105.716 80.5047 106.064 80.6784 106.384L62.9909 108.575ZM86.3347 101.831L95.3871 81.5711L94.4062 81.1328L85.4179 101.25C85.7527 101.398 86.0612 101.595 86.3347 101.831Z" fill="white"/>
<circle cx="44.8175" cy="68.4122" r="1.88781" fill="white"/>
<circle cx="27.171" cy="110.715" r="1.88781" fill="white"/>
<circle cx="59.5846" cy="108.577" r="1.88781" fill="white"/>
<circle cx="84.2902" cy="104.625" r="1.88781" fill="white"/>
<path d="M64.3077 22.3718L64.1656 28.1285L69.5966 30.0426L64.0778 31.6863L63.9357 37.443L60.6669 32.7022L55.1481 34.346L58.6467 29.7723L55.378 25.0315L60.809 26.9455L64.3077 22.3718Z" fill="white"/>
<path d="M97.5311 74.4079L97.4239 78.7539L101.524 80.199L97.3576 81.44L97.2503 85.786L94.7825 82.2069L90.616 83.4479L93.2574 79.9949L90.7896 76.4158L94.8898 77.8609L97.5311 74.4079Z" fill="white"/>
</svg>
