<svg width="91" height="116" viewBox="0 0 91 116" fill="none" xmlns="http://www.w3.org/2000/svg">
<g opacity="0.1">
<path d="M63.3787 37.5535C60.8079 40.4772 59.1445 40.7796 55.7671 39.0658C55.3134 38.8137 54.5069 38.7633 54.0532 38.9649C47.853 42.2919 41.9553 42.2415 36.2088 37.856C35.7551 37.5031 34.3437 37.9064 33.6884 38.36C30.4119 40.5276 26.9337 41.2333 23.2035 39.9227C20.3302 38.9145 18.5156 37.0998 17.9107 33.8737C14.8862 18.348 25.0182 3.83052 40.9471 1.25971C47.7018 0.150728 54.4565 0.0499118 61.06 2.16705C71.3936 5.54439 76.8881 12.904 78.4003 23.4393C78.7532 26.0605 78.9044 28.7825 78.7532 31.4541C78.2491 38.7129 73.6116 41.5862 66.7057 39.1162C65.5463 38.6625 64.4877 38.0576 63.3787 37.5535Z" fill="white"/>
<path d="M52.7425 70.974C51.8855 70.2179 51.079 69.4114 50.2221 68.6552C49.4155 67.8991 48.609 67.1934 47.6513 66.2861C49.8188 64.6226 51.9359 63.0095 54.1035 61.3461C55.6661 62.4046 57.1784 63.4632 58.741 64.5218C58.8419 64.421 58.9427 64.3201 59.0435 64.1689C57.8337 63.0095 56.6239 61.8501 55.2629 60.5395C55.6157 59.9851 55.9182 59.3802 56.5735 58.372C55.5149 58.9265 54.9604 59.2289 54.3051 59.5818C52.3896 57.6159 50.4741 55.65 48.4578 53.5832C50.4237 52.071 52.44 50.6092 54.5572 48.9961C58.3378 52.7767 60.959 57.7671 66.4031 59.8338C64.79 65.4795 63.2274 71.0748 61.5639 77.023C60.3037 76.166 59.3459 75.5107 58.3882 74.805C58.3378 74.8554 58.237 74.9058 58.1865 74.9563C58.741 75.5611 59.2955 76.166 60.2533 77.275C58.3378 79.0897 56.3719 80.9044 54.3555 82.7695C51.8855 81.2573 49.718 79.8962 47.248 78.4344C54.1035 74.2001 59.6988 68.9073 64.4371 62.7071C58.5394 67.7479 52.6921 72.7887 46.4919 78.0311C43.9715 75.7124 41.4511 73.444 38.9307 71.1252C39.3339 70.7724 39.4347 70.6212 39.586 70.5203C44.0723 66.8405 48.4074 66.2357 52.3896 71.9318C52.4904 71.6797 52.5913 71.3269 52.7425 70.974Z" fill="white"/>
<path d="M41.5017 82.9211C42.2578 82.2154 43.014 81.5096 43.7701 80.8543C43.6693 80.7031 43.5684 80.5015 43.4172 80.3503C42.5603 80.9047 41.6529 81.4592 40.796 82.0137C37.5195 79.4933 36.1081 76.1664 35.4023 71.7305C36.5617 71.8817 37.8723 71.6297 38.3764 72.1337C42.4595 76.7209 46.8954 80.8039 52.5915 83.7276C51.9866 84.2317 51.6841 84.4837 51.3313 84.7358C46.1393 88.3147 45.5344 88.1635 41.5017 82.9211Z" fill="white"/>
<path d="M60.1524 41.7873C61.7151 44.4085 63.2777 47.0801 65.042 49.9534C63.7818 51.1632 62.2696 52.5746 60.5557 54.1876C58.741 52.2721 56.9767 50.407 55.2628 48.6428C56.6743 46.8281 57.884 45.2654 59.1443 43.6524C58.993 43.5011 58.8418 43.4003 58.6906 43.2491C57.2792 44.5597 55.8677 45.8703 54.3051 47.3826C53.0953 45.7191 51.9863 44.2573 50.9277 42.7954C52.3896 41.8377 53.7002 41.0311 55.0108 40.2246C56.7751 40.7791 58.5394 41.3336 60.354 41.8881L60.1524 41.7873Z" fill="white"/>
<path d="M61.2113 77.9308C59.7494 83.1228 58.338 88.2644 56.7753 93.8597C53.7509 92.0954 50.9784 90.4824 47.6011 88.5164C51.2305 87.4075 52.8435 83.0724 57.229 84.9375C56.6745 84.4334 56.12 83.9293 55.5151 83.3244C57.2794 81.4593 59.0941 79.5438 60.9088 77.6787C60.9592 77.7795 61.1104 77.8803 61.2113 77.9308Z" fill="white"/>
<path d="M40.5942 59.7834C42.8122 58.0695 44.8285 56.4564 46.9457 54.793C48.962 56.6581 50.9279 58.5232 53.1963 60.6403C50.9783 62.2534 48.8612 63.7656 46.5928 65.4291C44.5261 63.4632 42.6106 61.6989 40.5942 59.7834Z" fill="white"/>
<path d="M33.9908 65.2777C33.638 64.7232 33.2851 64.1687 32.8818 63.463C34.8982 62.5557 36.7128 61.5979 38.6284 60.8418C39.1324 60.6402 40.0902 60.8418 40.4935 61.2451C42.1065 62.7069 43.5683 64.2695 45.383 66.0842C43.1651 67.2436 41.0984 68.4534 38.9308 69.4616C38.5275 69.6632 37.5698 69.2095 37.1161 68.7559C35.9567 67.6973 34.999 66.4371 33.9908 65.2777Z" fill="white"/>
<path d="M40.8464 42.393C40.6448 42.7962 40.1407 43.3003 40.1911 43.6028C40.5944 44.9638 41.1993 46.2744 41.8546 47.9379C39.5358 49.3493 37.1666 50.8615 34.6462 52.4242C33.2348 50.5591 31.9746 48.8956 30.916 47.4842C33.4364 45.5687 35.7552 43.6532 38.2252 41.9897C38.7293 41.6369 39.8887 42.2417 40.796 42.393H40.8464Z" fill="white"/>
<path d="M46.442 54.1876C44.224 55.7503 42.1069 57.2121 39.7377 58.8756C38.1247 56.9601 36.562 55.1454 34.8481 53.0786C37.419 51.6168 39.7881 50.2558 42.3589 48.7939C43.6696 50.5582 44.9298 52.2217 46.442 54.1876Z" fill="white"/>
<path d="M60.2536 41.8385C61.3626 40.9816 62.4716 40.1751 63.4294 39.4189C65.8489 40.1751 68.1173 40.9312 70.6881 41.7377C70.0832 44.5102 69.4279 47.3834 68.7726 50.3575C67.462 49.803 67.462 49.803 68.3693 46.8793C67.462 47.4842 66.7563 47.9883 65.8489 48.6436C63.9334 46.3753 62.0683 44.1069 60.1528 41.7881L60.2536 41.8385Z" fill="white"/>
<path d="M42.3081 91.2883C45.3326 89.2216 47.9538 89.6249 50.6758 92.0445C51.936 93.1534 53.7507 93.7079 55.6662 94.6657C54.0532 95.8755 52.5409 96.9844 51.0287 98.043C50.7263 98.2446 50.0709 98.3455 49.8693 98.1942C47.3489 95.9259 44.8789 93.5567 42.4089 91.2379L42.3081 91.2883Z" fill="white"/>
<path d="M53.5994 48.0384C51.6334 49.7523 49.8188 51.3654 47.752 53.18C46.391 51.5166 45.1308 50.0043 43.8706 48.4921C45.3828 46.7278 46.7439 44.9635 48.3065 43.4009C48.609 43.0984 49.9196 43.2497 50.2724 43.6529C51.4822 44.9131 52.44 46.4254 53.5994 48.0384Z" fill="white"/>
<path d="M54.7084 101.925C54.5068 102.883 54.2547 103.992 53.9523 105.101C53.3978 107.268 52.0368 107.974 50.2221 106.815C48.5586 105.806 47.0464 104.546 45.3325 103.286C48.357 100.463 51.1799 99.0517 54.7084 101.925Z" fill="white"/>
<path d="M30.4121 54.6926C35.8562 52.1218 35.705 58.1708 38.7798 58.9773C38.7294 59.1789 38.7294 59.3806 38.679 59.5822C36.7635 60.5904 34.8984 61.5985 32.7309 62.7579C31.9244 59.9855 31.2186 57.4147 30.4121 54.6926Z" fill="white"/>
<path d="M30.2609 46.4251C29.5552 45.3665 29.1519 44.7112 28.7487 44.0559C28.6478 44.1063 28.4966 44.1567 28.3958 44.2071C28.5974 45.0136 28.7487 45.7698 28.9503 46.5763C28.7487 46.6267 28.4966 46.7275 28.295 46.7779C27.7909 45.3161 27.3372 43.9047 26.9844 42.7957C30.0593 41.6867 32.8821 40.6281 36.0578 39.4688C36.2091 39.62 36.9148 40.2249 37.8725 41.0818C35.3017 42.8965 32.8317 44.6104 30.2609 46.4251Z" fill="white"/>
<path d="M61.1611 54.8439C62.875 53.3316 64.3873 51.9706 66.1011 50.5088C66.8068 50.9121 67.4621 51.2649 68.4199 51.769C67.815 54.1886 67.1597 56.6082 66.454 59.3806C64.5385 57.7171 62.9254 56.3561 61.1611 54.8439Z" fill="white"/>
<path d="M42.3585 91.1876C41.9049 90.5827 41.2496 90.0282 40.9975 89.3729C40.0902 86.9533 39.334 84.5337 38.8804 81.9629C40.9471 84.1304 43.0138 86.298 45.0806 88.4655C44.2236 89.3729 43.2659 90.3306 42.3585 91.2884C42.3081 91.2884 42.3585 91.1876 42.3585 91.1876Z" fill="white"/>
<path d="M48.8615 99.1518C47.7021 100.009 46.5932 100.866 45.2321 101.874C44.3248 99.2022 43.4679 96.6314 42.3589 93.4053C44.8793 95.6232 46.7948 97.3371 48.8615 99.1518Z" fill="white"/>
<path d="M52.9445 109.133C52.138 111.25 51.3819 113.367 50.5753 115.484C50.3233 115.484 50.0208 115.484 49.7688 115.484C49.1639 114.123 48.6094 112.762 47.9541 111.301C49.6176 110.292 50.9786 109.486 52.3396 108.629C52.5916 108.78 52.7933 108.931 52.9445 109.133Z" fill="white"/>
<path d="M40.7456 42.443C42.7619 42.695 44.7783 42.9471 47.2987 43.2999C45.6856 44.6609 44.4254 45.7699 42.7619 47.1813C42.0562 45.4171 41.4513 43.9048 40.796 42.3926C40.8464 42.3926 40.7456 42.443 40.7456 42.443Z" fill="white"/>
<path d="M29.3536 47.4834C30.5634 49.1973 31.7228 50.9616 33.0838 52.8771C32.1765 53.2299 31.37 53.5324 30.261 53.9356C29.6561 51.8185 29.0512 49.8526 28.4463 47.8867C28.7487 47.7354 29.0512 47.5842 29.3536 47.4834Z" fill="white"/>
<path d="M56.1203 95.7744C55.6666 97.7403 55.4146 99.0509 55.0113 100.664C53.8015 100.16 52.8438 99.7567 51.3315 99.1518C52.995 97.9924 54.2552 97.085 56.1203 95.7744Z" fill="white"/>
<path d="M46.1899 105.05C48.055 106.36 49.3152 107.268 50.7771 108.276C49.7689 108.881 48.9624 109.435 47.8534 110.091C47.3493 108.528 46.8957 107.167 46.1899 105.05Z" fill="white"/>
<path d="M33.9907 65.2783C34.8981 66.9418 35.8054 68.6052 36.7632 70.3695C35.9062 71.1257 35.0493 71.7305 34.6964 69.8654C34.394 68.3532 34.1924 66.7906 33.9907 65.2783Z" fill="white"/>
</g>
<path fill-rule="evenodd" clip-rule="evenodd" d="M58.4699 81.7737L59.5547 82.1441L59.2361 81.043L52.9373 59.2748C52.5907 59.4831 52.2007 59.6076 51.8005 59.6403L57.7709 80.2737L38.1509 73.5739L37.7652 74.7035L58.4699 81.7737ZM49.1086 56.2191C49.1702 56.0328 49.2538 55.8505 49.3605 55.6759C49.4678 55.5 49.5926 55.3414 49.7313 55.2008L32.5382 44.6284C32.5092 44.6845 32.4781 44.74 32.4447 44.7947C32.2596 45.0978 32.0227 45.3498 31.7523 45.5464L49.1086 56.2191ZM52.8809 54.7664C52.9043 54.7797 52.9276 54.7934 52.9507 54.8075C53.2828 55.0103 53.5537 55.2753 53.7574 55.5785L62.4289 45.3068C62.411 45.2965 62.3932 45.2859 62.3755 45.275C62.0375 45.0687 61.763 44.7979 61.5581 44.4881L52.8809 54.7664ZM42.1166 22.2203L63.0736 40.5194C62.6633 40.627 62.2787 40.834 61.9591 41.1309L41.8602 23.5811L31.0538 40.9595C30.6111 40.8091 30.1448 40.784 29.7021 40.8728L41.2172 22.3547L41.5879 21.7587L42.1166 22.2203Z" fill="white"/>
<circle cx="51.6352" cy="57.0649" r="1.67556" transform="rotate(31.4028 51.6352 57.0649)" fill="white"/>
<circle cx="63.1905" cy="43.242" r="1.1884" transform="rotate(31.4028 63.1905 43.242)" fill="white"/>
<circle cx="30.2481" cy="43.5584" r="1.1884" transform="rotate(31.4028 30.2481 43.5584)" fill="white"/>
<path d="M40.5045 81.7451L36.9862 76.5561L30.964 78.2987L34.8118 73.3491L31.2935 68.1601L37.1899 70.2901L41.0378 65.3405L40.8341 71.6065L46.7305 73.7366L40.7082 75.4791L40.5045 81.7451Z" fill="white"/>
<path d="M62.6419 81.8566L59.2912 81.8974L58.2945 85.0967L57.2203 81.9226L53.8696 81.9633L56.5564 79.9608L55.4823 76.7867L58.217 78.7232L60.9038 76.7208L59.9072 79.9201L62.6419 81.8566Z" fill="white"/>
<path d="M43.7428 32.3741L40.0097 26.8681L33.6195 28.7171L37.7024 23.4652L33.9692 17.9592L40.2258 20.2194L44.3087 14.9674L44.0925 21.6162L50.3491 23.8763L43.959 25.7253L43.7428 32.3741Z" fill="white"/>
</svg>
