<svg width="330" height="248" viewBox="0 0 330 248" fill="none" xmlns="http://www.w3.org/2000/svg">
<path opacity="0.8" d="M228.253 219.391L228.998 218.101L243.066 217.621L236.571 204.983L237.316 203.693C237.826 204.102 238.071 204.272 239.211 204.93L250.049 211.188C251.404 211.97 251.674 212.097 252.283 212.334L252.369 212.384L250.358 215.867L250.272 215.818C249.787 215.366 249.542 215.195 248.187 214.413L240.23 209.82L246.065 221.217L246.053 221.238L234.513 221.658L241.631 225.768C242.986 226.55 243.257 226.677 243.89 226.871L243.976 226.921L243.306 228.082L243.22 228.032C242.71 227.624 242.465 227.453 241.11 226.671L230.272 220.413C229.132 219.755 228.862 219.628 228.253 219.391ZM258.857 201.941C256.299 206.371 250.737 207.862 246.307 205.304C241.877 202.746 240.386 197.183 242.944 192.754C245.501 188.324 251.064 186.833 255.494 189.391C259.924 191.948 261.415 197.511 258.857 201.941ZM248.69 201.92C252.669 204.217 256.439 204.043 257.904 201.506C259.705 198.387 256.851 194.59 253.217 192.491C249.303 190.232 245.498 190.415 244.021 192.974C242.245 196.049 245.077 199.835 248.69 201.92ZM252.819 176.841C254.967 173.121 258.105 171.808 261.073 173.521C264.427 175.458 264.385 179.505 262.535 182.709C262.311 183.096 262.032 183.48 261.766 183.842L261.121 183.469L261.282 183.19C262.61 180.889 262.027 178.373 259.382 176.846C256.802 175.356 254.641 175.771 253.312 178.072L252.431 179.599L264.323 186.465C265.678 187.247 265.948 187.375 266.557 187.612L266.643 187.661L264.656 191.102L264.57 191.052C264.061 190.643 263.815 190.473 262.46 189.691L251.923 183.607C250.568 182.825 250.298 182.697 249.689 182.461L249.603 182.411L252.819 176.841ZM277.116 170.316C274.558 174.746 268.995 176.237 264.565 173.679C260.135 171.121 258.645 165.558 261.202 161.129C263.76 156.699 269.323 155.208 273.753 157.766C278.183 160.323 279.673 165.886 277.116 170.316ZM266.949 170.295C270.927 172.592 274.698 172.418 276.163 169.881C277.963 166.763 275.11 162.965 271.475 160.866C267.562 158.607 263.757 158.79 262.279 161.349C260.504 164.424 263.336 168.21 266.949 170.295ZM267.614 151.216L268.594 149.517L268.68 149.567C268.874 149.679 270.049 149.382 271.727 148.86L278.638 146.772L274.552 144.413C273.197 143.63 272.927 143.503 272.293 143.309L272.207 143.259L274.219 139.776L274.305 139.825C274.789 140.277 275.035 140.448 276.39 141.23L280.476 143.589L278.828 136.559C278.442 134.845 278.111 133.679 277.918 133.568L277.832 133.518L278.812 131.819L278.898 131.869C278.972 132.685 279.199 133.533 279.589 135.192L280.212 137.788L291.181 138.903C293.182 139.112 293.916 138.933 294.563 138.705L294.822 138.854C294.257 141.023 292.09 142.84 289.154 142.463L280.984 141.417L281.637 144.259L286.927 147.314C288.282 148.096 288.552 148.223 289.186 148.417L289.272 148.467L287.26 151.95L287.174 151.901C286.69 151.449 286.444 151.278 285.089 150.496L279.799 147.442L277.011 148.298L282.002 154.85C283.797 157.205 283.307 159.99 281.711 161.563L281.453 161.414C281.326 160.739 281.114 160.014 279.932 158.386L273.483 149.444L270.923 150.202C269.291 150.694 268.443 150.921 267.7 151.266L267.614 151.216ZM280.422 129.03L285.86 119.611L286.979 120.257L286.929 120.343C286.391 120.778 286.205 121.101 285.584 122.176L283.25 126.219L286.927 128.342L289.473 123.933L290.376 124.455L287.831 128.863L296.497 133.867L299.29 129.028C299.948 127.888 300.076 127.618 300.27 126.984L300.319 126.898L301.373 127.507L295.476 137.721L295.39 137.672C294.88 137.263 294.634 137.092 293.28 136.31L282.743 130.227C281.388 129.444 281.117 129.317 280.508 129.08L280.422 129.03ZM292.998 107.248L295.01 103.764L295.096 103.814C295.605 104.223 295.851 104.393 297.206 105.176L307.743 111.259C309.098 112.041 309.368 112.169 309.977 112.406L310.063 112.455L308.052 115.939L307.966 115.889C307.481 115.438 307.235 115.267 305.881 114.485L298.569 110.264L295.093 116.285L302.404 120.506C303.759 121.288 304.029 121.416 304.663 121.61L304.749 121.659L302.738 125.143L302.652 125.093C302.142 124.684 301.897 124.514 300.542 123.732L290.005 117.648C288.65 116.866 288.379 116.738 287.771 116.502L287.685 116.452L289.696 112.968L289.782 113.018C290.267 113.47 290.512 113.64 291.867 114.422L294.189 115.763L297.666 109.742L295.343 108.401C293.989 107.619 293.718 107.492 293.085 107.298L292.998 107.248ZM316.555 102.005C313.998 106.435 308.435 107.926 304.005 105.368C299.575 102.81 298.084 97.2474 300.642 92.8175C303.199 88.3876 308.762 86.897 313.192 89.4546C317.622 92.0122 319.113 97.5751 316.555 102.005ZM306.388 101.984C310.367 104.281 314.137 104.107 315.602 101.57C317.403 98.4515 314.549 94.6535 310.915 92.5552C307.001 90.2956 303.196 90.4789 301.719 93.0379C299.943 96.113 302.776 99.8986 306.388 101.984ZM307.301 82.475L312.739 73.056L313.858 73.7016L313.808 73.7877C313.27 74.2226 313.084 74.5452 312.463 75.6204L310.129 79.6632L313.806 81.7863L316.351 77.3779L317.254 77.8993L314.709 82.3078L323.376 87.3112L326.169 82.4727C326.827 81.333 326.955 81.0625 327.148 80.4289L327.198 80.3429L328.252 80.9513L322.354 91.1659L322.268 91.1162C321.759 90.7074 321.513 90.5369 320.158 89.7547L309.621 83.6711C308.267 82.8889 307.996 82.7614 307.387 82.5246L307.301 82.475Z" fill="#F6F1FF"/>
<path opacity="0.5" d="M273.964 201.416L274.792 204.818C275.567 203.45 277.075 203.095 278.473 203.902C279.912 204.733 280.323 206.314 279.528 207.691C278.886 208.803 277.746 209.336 276.55 209.068L276.752 208.215C277.639 208.395 278.385 208.001 278.784 207.275C279.339 206.265 279.02 205.271 278.017 204.692C276.998 204.104 275.948 204.363 275.39 205.33C275.234 205.6 275.134 205.965 275.112 206.291L274.282 206.325L273.392 202.382L271.457 205.733L270.725 205.31L273.221 200.987L273.964 201.416ZM278.453 198.067C279.254 196.68 280.967 196.235 282.354 197.036C283.736 197.834 284.19 199.627 283.389 201.014C282.576 202.422 280.806 202.897 279.346 202.054L276.753 200.557C275.251 199.69 274.778 197.941 275.633 196.46C276.125 195.608 276.961 195.072 277.901 194.991L278.046 195.858C277.369 195.89 276.718 196.262 276.361 196.88C275.752 197.935 276.166 199.186 277.132 199.744L278.281 200.407C278.001 199.656 278.033 198.795 278.453 198.067ZM282.646 200.585C283.21 199.608 282.887 198.369 281.91 197.805C280.933 197.241 279.69 197.569 279.126 198.546C278.562 199.523 278.899 200.764 279.876 201.328C280.842 201.886 282.082 201.562 282.646 200.585ZM287.299 194.242C286.498 195.63 284.834 196.076 283.447 195.275L280.537 193.595C279.15 192.794 278.704 191.13 279.505 189.742C280.306 188.355 281.97 187.909 283.357 188.71L286.267 190.39C287.654 191.191 288.1 192.855 287.299 194.242ZM286.561 193.816C287.092 192.897 286.776 191.716 285.856 191.185L282.874 189.463C281.949 188.929 280.768 189.246 280.237 190.165C279.706 191.085 280.023 192.265 280.948 192.799L283.93 194.521C284.85 195.052 286.03 194.736 286.561 193.816ZM286.578 186.131C285.984 187.16 284.667 187.522 283.627 186.922C282.609 186.334 282.261 184.969 282.837 183.971C283.431 182.942 284.748 182.58 285.787 183.18C286.827 183.78 287.172 185.102 286.578 186.131ZM285.887 185.732C286.256 185.093 286.028 184.241 285.388 183.872C284.749 183.503 283.897 183.731 283.528 184.37C283.159 185.009 283.387 185.862 284.026 186.231C284.666 186.6 285.518 186.371 285.887 185.732ZM294.142 182.39C293.341 183.777 291.677 184.223 290.29 183.422L287.38 181.742C285.993 180.941 285.547 179.277 286.348 177.89C287.149 176.502 288.813 176.056 290.2 176.857L293.11 178.537C294.497 179.338 294.943 181.002 294.142 182.39ZM293.404 181.964C293.935 181.044 293.619 179.864 292.699 179.333L289.717 177.611C288.792 177.077 287.612 177.393 287.081 178.313C286.55 179.232 286.866 180.412 287.791 180.946L290.773 182.668C291.693 183.199 292.873 182.883 293.404 181.964ZM298.044 175.631C297.243 177.018 295.58 177.464 294.192 176.663L291.282 174.983C289.895 174.182 289.449 172.518 290.25 171.131C291.051 169.743 292.715 169.298 294.102 170.099L297.012 171.779C298.4 172.58 298.845 174.243 298.044 175.631ZM297.307 175.205C297.838 174.285 297.521 173.105 296.602 172.574L293.619 170.852C292.694 170.318 291.514 170.634 290.983 171.554C290.452 172.474 290.768 173.654 291.693 174.188L294.676 175.91C295.595 176.441 296.776 176.125 297.307 175.205ZM295.304 168.342L293.089 166.419L293.533 165.65L295.607 167.817L295.304 168.342ZM296.066 167.022L293.851 165.099L294.295 164.33L296.369 166.497L296.066 167.022ZM303.808 158.484L301.288 162.849L300.633 162.471L303.153 158.106L303.808 158.484ZM303.004 149.052C303.817 147.644 305.588 147.169 307.048 148.012L309.641 149.509C311.142 150.376 311.615 152.125 310.76 153.606C310.268 154.458 309.433 154.994 308.492 155.075L308.348 154.208C309.025 154.176 309.676 153.804 310.033 153.186C310.642 152.131 310.228 150.88 309.261 150.322L308.113 149.659C308.393 150.41 308.36 151.271 307.94 151.999C307.139 153.386 305.427 153.831 304.04 153.03C302.658 152.232 302.203 150.439 303.004 149.052ZM307.267 151.52C307.831 150.543 307.495 149.302 306.518 148.738C305.551 148.18 304.311 148.504 303.747 149.481C303.183 150.458 303.507 151.697 304.484 152.261C305.461 152.825 306.703 152.497 307.267 151.52ZM314.742 146.709C313.941 148.097 312.277 148.543 310.89 147.742L307.98 146.062C306.593 145.261 306.147 143.597 306.948 142.209C307.749 140.822 309.413 140.376 310.8 141.177L313.71 142.857C315.097 143.658 315.543 145.322 314.742 146.709ZM314.004 146.283C314.535 145.364 314.219 144.183 313.299 143.652L310.317 141.93C309.392 141.396 308.212 141.713 307.681 142.632C307.15 143.552 307.466 144.732 308.391 145.266L311.373 146.988C312.293 147.519 313.473 147.203 314.004 146.283ZM314.021 138.598C313.427 139.627 312.11 139.989 311.071 139.389C310.052 138.801 309.704 137.436 310.28 136.438C310.874 135.409 312.191 135.047 313.231 135.647C314.27 136.247 314.615 137.569 314.021 138.598ZM313.33 138.199C313.699 137.56 313.471 136.707 312.832 136.338C312.193 135.969 311.34 136.198 310.971 136.837C310.602 137.476 310.831 138.329 311.47 138.698C312.109 139.067 312.961 138.838 313.33 138.199ZM321.585 134.856C320.784 136.244 319.121 136.69 317.733 135.889L314.823 134.209C313.436 133.408 312.99 131.744 313.791 130.356C314.592 128.969 316.256 128.523 317.643 129.324L320.553 131.004C321.941 131.805 322.386 133.469 321.585 134.856ZM320.848 134.43C321.379 133.511 321.062 132.331 320.143 131.8L317.16 130.078C316.235 129.544 315.055 129.86 314.524 130.779C313.993 131.699 314.309 132.879 315.234 133.413L318.217 135.135C319.136 135.666 320.317 135.35 320.848 134.43ZM325.488 128.098C324.687 129.485 323.023 129.931 321.635 129.13L318.726 127.45C317.338 126.649 316.892 124.985 317.693 123.598C318.494 122.21 320.158 121.765 321.546 122.566L324.455 124.246C325.843 125.047 326.289 126.71 325.488 128.098ZM324.75 127.672C325.281 126.752 324.964 125.572 324.045 125.041L321.062 123.319C320.137 122.785 318.957 123.101 318.426 124.021C317.895 124.941 318.211 126.121 319.136 126.655L322.119 128.377C323.038 128.908 324.219 128.592 324.75 127.672ZM322.747 120.809L320.532 118.886L320.976 118.116L323.05 120.284L322.747 120.809ZM323.509 119.489L321.294 117.566L321.738 116.797L323.812 118.964L323.509 119.489Z" fill="#BBBBBB"/>
<g opacity="0.2">
<path d="M123.74 71.9405C126.518 80.1614 125.248 83.7095 118.176 88.3189C117.184 88.9137 116.188 90.4144 116.071 91.5149C115.583 107.191 108.913 118.52 94.0432 124.725C92.8564 125.207 92.0618 128.381 92.2073 130.152C92.7397 138.892 90.2257 146.393 83.5385 152.133C78.3902 156.556 72.8648 158.036 65.9631 155.608C32.6225 144.144 15.8907 108.406 28.6807 74.7923C34.068 60.5175 41.4013 47.3663 52.8476 36.9789C70.8836 20.7954 91.2136 18.3913 113.236 27.2135C118.689 29.4537 124.112 32.1954 129.1 35.4649C142.551 44.5277 142.928 56.6819 130.464 67.2599C128.296 68.9923 125.949 70.3615 123.74 71.9405Z" fill="white"/>
<path d="M176.399 129.718C173.984 130.53 171.529 131.188 169.114 131.999C166.756 132.713 164.494 133.484 161.676 134.321C160.88 128.283 160.126 122.399 159.331 116.361C163.116 114.524 166.844 112.785 170.629 110.948C170.547 110.641 170.465 110.334 170.285 109.971C166.699 111.014 163.113 112.057 159.066 113.224C158.389 111.925 157.558 110.667 156.342 108.278C156.233 110.94 156.199 112.347 156.15 114.005C150.22 115.512 144.29 117.019 138.054 118.607C137.325 113.127 136.751 107.606 135.997 101.721C147.508 98.6368 160.062 99.1387 170.119 90.9331C179.22 100.339 188.279 109.591 197.907 119.431C194.848 120.909 192.516 122.027 190.086 123.09C190.127 123.243 190.112 123.494 190.153 123.647C191.939 123.251 193.725 122.855 196.933 122.242C198.301 127.962 199.613 133.78 200.966 139.75C195.294 142.833 190.251 145.5 184.677 148.639C184.143 130.686 180.162 113.987 173.474 97.9302C176.632 114.933 179.846 131.838 183.055 149.649C175.77 151.93 168.583 154.267 161.298 156.548C161.066 155.377 160.887 155.013 160.861 154.609C158.757 141.848 162.421 132.806 177.855 131.467C177.48 130.991 176.912 130.403 176.399 129.718Z" fill="white"/>
<path d="M186.933 164.732C186.413 162.486 185.893 160.24 185.471 158.05C185.067 158.076 184.565 158.046 184.105 158.169C184.22 160.441 184.279 162.811 184.395 165.083C175.878 168.599 167.883 167.616 158.533 164.034C160.117 161.965 161.091 159.154 162.626 158.743C176.031 155.973 188.857 151.961 200.849 144.224C201.148 145.953 201.297 146.818 201.39 147.78C202.513 161.791 201.547 162.79 186.933 164.732Z" fill="white"/>
<path d="M128.318 82.8869C135.119 82.7918 142.018 82.7528 149.53 82.5493C150.461 86.3302 151.5 90.8224 152.704 95.9285C146.984 97.2967 141.418 98.6237 136.102 99.9658C134.172 95.2188 132.504 91.142 130.794 86.9116C130.334 87.035 129.971 87.2146 129.51 87.3379C130.467 91.5231 131.424 95.7083 132.602 100.41C128.042 100.892 123.985 101.403 119.983 101.817C119.763 97.928 119.667 94.4992 119.571 91.0705C122.608 88.2828 125.644 85.4951 128.737 82.61L128.318 82.8869Z" fill="white"/>
<path d="M199.265 121.124C207.658 129.732 216.01 138.187 225.07 147.439C218.293 151.311 212.09 154.865 204.531 159.194C206.435 150.952 199.865 143.007 208.352 136.62C206.761 137.128 205.17 137.637 203.329 138.13C201.695 132.646 200.019 127.008 198.442 121.427C198.692 121.442 199.056 121.262 199.265 121.124Z" fill="white"/>
<path d="M141.258 140.697C140.422 134.506 139.555 128.816 138.704 122.875C144.551 121.062 150.342 119.345 156.957 117.326C157.599 123.405 158.159 129.178 158.842 135.41C152.743 137.209 147.203 138.94 141.258 140.697Z" fill="white"/>
<path d="M144.505 159.567C143.042 159.63 141.578 159.693 139.766 159.685C140.262 154.782 140.436 150.211 141.111 145.671C141.283 144.473 142.74 142.849 143.968 142.52C148.587 141.036 153.233 139.955 158.758 138.475C158.525 144.048 158.557 149.386 158.087 154.694C158.027 155.697 156.084 157.04 154.702 157.41C151.367 158.469 147.867 158.913 144.505 159.567Z" fill="white"/>
<path d="M107.969 120.828C108.523 121.667 108.934 123.202 109.574 123.442C112.651 124.18 115.855 124.473 119.796 125.062C119.936 131.111 120.215 137.37 120.423 143.977C115.249 144.622 110.634 145.201 106.729 145.672C105.841 138.672 104.727 132.061 104.269 125.439C104.15 124.073 106.61 122.509 107.913 120.926L107.969 120.828Z" fill="white"/>
<path d="M136.974 123.173C137.519 129.196 137.981 134.912 138.552 141.339C133.057 142.318 127.812 143.312 121.913 144.317C121.956 137.725 121.969 131.635 122.012 125.044C126.879 124.48 131.494 123.901 136.974 123.173Z" fill="white"/>
<path d="M128.527 82.7481C128.109 79.6523 127.788 76.6128 127.396 73.9213C131.552 70.0933 135.54 66.5573 139.962 62.4936C144.639 66.7511 149.455 71.2183 154.466 75.7978C151.935 77.7098 151.935 77.7097 147.302 72.6999C147.459 75.1255 147.645 77.0496 147.899 79.5314C141.386 80.7009 134.928 81.7731 128.317 82.8865L128.527 82.7481Z" fill="white"/>
<path d="M203.984 172.5C203.365 164.359 207.065 159.748 214.769 157.191C218.314 155.994 221.407 153.109 225.391 150.479C225.928 154.941 226.384 159.096 226.742 163.195C226.794 164.003 226.258 165.381 225.741 165.601C218.554 167.938 211.228 170.066 203.999 172.25L203.984 172.5Z" fill="white"/>
<path d="M133.08 102.503C134.198 108.208 135.289 113.509 136.489 119.521C131.761 120.294 127.437 121.041 123.114 121.789C121.393 116.903 119.504 112.31 118.23 107.552C117.983 106.631 119.735 104.269 120.907 104.038C124.688 103.107 128.674 102.943 133.08 102.503Z" fill="white"/>
<path d="M238.335 160.417C239.959 161.874 241.819 163.596 243.622 165.416C247.188 168.902 247.034 172.316 242.773 174.526C238.973 176.614 234.855 178.129 230.513 180.033C228.434 171.048 228.856 164.026 238.335 160.417Z" fill="white"/>
<path d="M120.082 154.678C121.187 141.304 132.695 148.337 137.679 143.301C138.012 143.623 138.401 143.847 138.734 144.169C138.546 148.991 138.413 153.714 138.235 159.191C131.985 157.658 126.236 156.155 120.082 154.678Z" fill="white"/>
<path d="M103.956 145.757C101.126 145.939 99.4114 145.988 97.697 146.036C97.6819 146.287 97.6107 146.635 97.5956 146.885C99.3772 147.395 101.005 147.946 102.787 148.455C102.66 148.901 102.573 149.5 102.446 149.945C99.0622 149.289 95.832 148.592 93.2981 148.037C94.5843 140.865 95.6869 134.237 96.9882 126.814C97.4486 126.691 99.4028 126.003 102.124 125.109C102.762 132.094 103.318 138.772 103.956 145.757Z" fill="white"/>
<path d="M154.644 95.4906C153.635 90.4968 152.693 86.0609 151.781 81.1233C153.346 80.2105 154.757 79.3388 156.798 78.0518C160.794 81.916 164.735 85.8776 169.3 90.3297C163.954 92.1733 159.529 93.7703 154.644 95.4906Z" fill="white"/>
<path d="M203.845 172.29C202.172 172.492 200.371 173.139 198.825 172.895C193.144 171.95 187.63 170.713 182.162 168.724C188.65 167.15 195.137 165.576 201.624 164.002C202.421 166.668 203.202 169.584 204.04 172.403C203.984 172.5 203.845 172.29 203.845 172.29Z" fill="white"/>
<path d="M226.467 168.615C226.829 171.808 227.247 174.904 227.676 178.654C221.508 177.428 215.59 176.217 208.127 174.763C215.217 172.369 220.66 170.582 226.467 168.615Z" fill="white"/>
<path d="M250.284 171.856C253.472 175.773 256.716 179.592 259.904 183.508C259.623 183.995 259.286 184.579 259.005 185.065C255.704 184.716 252.458 184.269 248.906 183.905C248.814 179.571 248.774 176.044 248.637 172.462C249.209 172.144 249.726 171.924 250.284 171.856Z" fill="white"/>
<path d="M107.954 121.08C110.687 117.468 113.421 113.857 116.911 109.385C117.741 114.016 118.477 117.684 119.348 122.468C115.155 121.864 111.562 121.347 107.913 120.926C107.969 120.829 107.954 121.08 107.954 121.08Z" fill="white"/>
<path d="M104.988 148.688C109.644 148.263 114.342 147.991 119.557 147.499C119.227 149.643 118.912 151.537 118.454 154.127C113.693 152.936 109.224 151.912 104.755 150.889C104.8 150.137 104.845 149.384 104.988 148.688Z" fill="white"/>
<path d="M228.037 150.839C231.326 153.906 233.575 155.853 236.24 158.429C233.918 160.203 232.073 161.602 229.22 163.847C228.836 159.344 228.488 155.9 228.037 150.839Z" fill="white"/>
<path d="M234.874 180.345C239.483 178.205 242.639 176.784 246.214 175.085C246.258 177.706 246.429 179.881 246.458 182.752C242.88 181.983 239.747 181.342 234.874 180.345Z" fill="white"/>
<path d="M144.505 159.567C148.727 159.67 152.949 159.772 157.422 159.89C157.927 162.387 158.14 164.715 154.146 163.317C150.89 162.216 147.649 160.864 144.505 159.567Z" fill="white"/>
</g>
<path fill-rule="evenodd" clip-rule="evenodd" d="M203.629 130.699L205.553 129.018L203.073 128.406L154.033 116.305C154.049 117.206 153.854 118.097 153.472 118.907L199.955 130.377L165.156 160.784L166.907 162.787L203.629 130.699ZM143.867 120.29C143.576 119.963 143.318 119.599 143.1 119.198C142.88 118.795 142.713 118.377 142.596 117.953L103.026 139.359C103.102 139.477 103.174 139.599 103.243 139.725C103.622 140.42 103.844 141.158 103.922 141.899L143.867 120.29ZM145.267 111.389C145.319 111.358 145.371 111.329 145.424 111.3C146.186 110.885 147 110.657 147.812 110.602L137.648 82.4154C137.608 82.4383 137.568 82.4609 137.527 82.4831C136.752 82.9056 135.924 83.1336 135.097 83.1837L145.267 111.389ZM70.4456 95.8958L129.125 75.8356C128.876 76.7474 128.847 77.7205 129.064 78.6682L72.7866 97.9072L94.2894 138.135C93.5056 138.822 92.9375 139.694 92.6157 140.648L69.7028 97.7816L68.9653 96.4019L70.4456 95.8958Z" fill="#BBBBBB"/>
<circle cx="148.315" cy="116.355" r="3.73477" transform="rotate(-28.5972 148.315 116.355)" fill="#BBBBBB"/>
<circle cx="134.511" cy="78.6438" r="2.64891" transform="rotate(-28.5972 134.511 78.6438)" fill="#BBBBBB"/>
<circle cx="98.4091" cy="142.587" r="2.64891" transform="rotate(-28.5972 98.4091 142.587)" fill="#BBBBBB"/>
<path d="M183.551 165.347L169.614 166.356L166.266 179.923L161 166.979L147.062 167.987L157.745 158.979L152.479 146.035L164.347 153.412L175.031 144.404L171.683 157.971L183.551 165.347Z" fill="white"/>
<path d="M208.439 122.739L204.784 129.253L209.849 134.742L202.524 133.278L198.869 139.792L197.998 132.373L190.673 130.909L197.459 127.789L196.588 120.37L201.653 125.86L208.439 122.739Z" fill="white"/>
<path d="M91.8586 104.073L77.0696 105.143L73.5172 119.539L67.9295 105.804L53.1405 106.874L64.4761 97.3158L58.8884 83.5813L71.4819 91.4084L82.8175 81.85L79.2651 96.2458L91.8586 104.073Z" fill="white"/>
</svg>
