<svg width="119" height="116" viewBox="0 0 119 116" fill="none" xmlns="http://www.w3.org/2000/svg">
<path opacity="0.1" d="M39.375 21.3678C39.375 20.4164 40.0515 19.5708 40.8549 19.5708C41.5737 19.5708 42.2924 20.4587 42.2924 21.3255C42.2924 22.2768 41.6582 22.9956 40.8549 23.0168C40.0092 23.0379 39.375 22.3191 39.375 21.3678Z" fill="white"/>
<path opacity="0.1" d="M45.3154 21.3464C45.3366 20.4162 45.9919 19.5917 46.7319 19.5917C47.5141 19.5706 48.2329 20.4162 48.2329 21.3675C48.2117 22.3189 47.5987 23.0377 46.753 23.0377C45.9074 23.0377 45.3154 22.3189 45.3154 21.3464Z" fill="white"/>
<path opacity="0.1" d="M83.8134 61.895C81.9952 61.895 80.008 60.2038 79.8389 58.4068C79.8389 58.3645 79.8389 58.3011 79.8389 58.2588C79.9446 57.7091 80.6634 57.5189 81.065 57.8994C81.1073 57.9205 81.1285 57.9628 81.1496 58.0051C81.3822 58.3011 81.4456 58.745 81.6358 59.0833C82.1221 59.9923 82.8409 60.6266 83.9402 60.5631C84.9973 60.5209 85.5469 59.8021 85.9063 58.9142C86.0543 58.5125 86.1177 58.0685 86.3291 57.7091C86.3714 57.6246 86.4348 57.5611 86.5194 57.4977C86.8577 57.1806 87.4285 57.2863 87.6399 57.688C87.7033 57.8148 87.7456 57.9205 87.7456 58.0474C87.7667 60.0558 85.8217 61.895 83.8134 61.895Z" fill="white"/>
<path opacity="0.1" d="M43.9627 32.7626C41.0664 32.7626 37.8953 30.0566 37.6416 27.1814C37.6416 27.0968 37.6416 27.0123 37.6627 26.9277C37.8319 26.0609 38.9735 25.7438 39.6077 26.3569C39.65 26.3992 39.7134 26.4626 39.7557 26.526C40.1362 26.9911 40.2208 27.7099 40.5168 28.2596C41.2778 29.7183 42.4194 31.3884 44.1741 31.325C45.8654 31.2404 46.7745 29.4435 47.3453 28.027C47.599 27.3928 47.6835 26.6529 48.0218 26.1032C48.1064 25.9764 48.2121 25.8707 48.3178 25.7649C48.8674 25.2787 49.7554 25.4056 50.1147 26.0609C50.2205 26.2512 50.2839 26.4415 50.2839 26.6317C50.2627 29.824 47.155 32.7626 43.9627 32.7626Z" fill="white"/>
<path opacity="0.1" d="M82.2281 52.9309C82.2281 53.6709 81.6573 54.3262 81.023 54.3474C80.3465 54.3685 79.8391 53.7554 79.818 52.9521C79.7969 52.1699 80.3254 51.5568 81.0019 51.5356C81.6784 51.5356 82.2281 52.1699 82.2281 52.9309Z" fill="white"/>
<path opacity="0.1" d="M85.7584 51.5991C86.4561 51.5991 87.0692 52.2756 87.048 53.0367C87.0269 53.7344 86.4561 54.3474 85.8219 54.3474C85.1242 54.3474 84.5957 53.7344 84.6168 52.9521C84.6168 52.1699 85.1242 51.5991 85.7584 51.5991Z" fill="white"/>
<path opacity="0.1" d="M82.2278 36.4411C82.7774 35.5532 84.7013 34.4116 85.9909 38.1112C86.1177 38.4918 86.6251 38.5552 86.8576 38.2169C88.1049 36.4411 90.1133 36.5045 90.7687 38.83C90.8321 39.0837 91.107 39.2317 91.3607 39.1683C94.1513 38.5552 97.5761 38.7243 95.9271 41.98C95.758 42.2971 95.9905 42.6777 96.3499 42.6988C98.1469 42.8045 99.8593 43.9884 98.316 45.7854C97.7241 46.7579 95.6311 46.9481 95.9905 48.3223C96.9841 52.9944 96.4979 51.7049 99.4788 51.5146C99.9862 51.4723 100.219 52.17 99.7747 52.4236C99.0559 52.8465 98.1046 52.9522 97.3858 53.3961C97.0476 53.6075 97.111 54.1361 97.4915 54.2629C98.3372 54.58 99.669 54.1783 100.62 54.4743C101.064 54.6012 101.085 55.2354 100.663 55.4045C99.669 55.8062 98.4006 55.4257 97.3435 55.7851C96.963 55.9119 96.8996 56.4616 97.259 56.673C98.0623 57.1592 99.1194 57.1169 99.8382 57.7089C100.155 57.9837 100.028 58.5122 99.6056 58.5757C98.6754 58.7448 97.7663 58.1528 96.7939 58.0049C96.7727 58.0049 96.7304 58.0049 96.7093 58.0049C96.2653 58.026 95.6945 58.3854 95.61 58.8928C94.5529 61.5777 92.608 63.4592 90.0711 64.7911C90.0499 64.8122 90.0288 64.8122 90.0076 64.8334C85.2509 68.3216 97.7241 74.1142 100.155 76.5243C100.198 76.5666 100.261 76.6089 100.324 76.63C101.381 77.0105 102.375 75.9958 103.432 75.8901C103.876 75.8478 104.151 76.3975 103.834 76.7357C103.707 76.8625 103.58 76.9683 103.411 77.0528C103.03 77.2642 103.115 77.8139 103.517 77.9407C104.003 78.0887 104.447 78.2367 104.764 78.5961C105.06 78.9344 104.785 79.4629 104.341 79.4206C104.214 79.3995 104.087 79.3783 103.961 79.336C103.58 79.2303 103.221 79.6109 103.369 79.9703C103.411 80.076 103.432 80.1817 103.474 80.3085C103.559 80.7313 103.115 81.0696 102.734 80.8371C102.502 80.6891 102.333 80.4988 102.164 80.2874C101.868 79.8857 101.233 80.1605 101.276 80.6468C101.297 80.8793 101.276 81.1119 101.17 81.3233C101.022 81.6404 100.578 81.6827 100.367 81.4079C99.4576 80.2662 100.536 78.0887 98.7811 77.2431C96.2019 75.5518 93.8976 73.5857 91.2761 71.979C90.9167 71.7464 90.4516 72.0847 90.5362 72.5075C91.1492 75.4672 91.9737 78.3847 92.5868 81.3233C93.2845 84.6424 93.3268 88.0461 92.9039 91.4075C92.5868 93.9444 93.4536 96.6716 93.517 99.2297C93.517 99.2508 93.517 99.2931 93.5382 99.3142C94.2992 102.739 89.2043 99.4833 88.8237 101.999C88.7603 103.923 88.6335 105.826 88.5701 107.728C88.2318 109.652 90.6841 108.489 91.6355 109.398C94.109 111.83 89.6271 113.183 87.7033 112.062C87.661 112.041 87.6187 111.999 87.5976 111.978C85.9274 110.223 87.513 105.086 87.1113 102.528C87.1113 102.506 87.1113 102.485 87.1113 102.443C87.1325 101.196 87.0902 101.175 85.8852 101.217C85.8429 101.217 85.8217 101.217 85.7794 101.238C84.0459 101.703 80.0291 100.202 80.1348 102.824C80.1348 102.845 80.1348 102.887 80.1348 102.908C79.6274 105.931 82.1855 111.83 78.3167 112.929C78.2956 112.929 78.2744 112.929 78.2533 112.95C73.3909 113.944 71.9321 109.906 77.1328 109.821C77.1751 109.821 77.2385 109.821 77.2808 109.842C80.0291 110.561 78.2533 104.409 78.6127 102.591C78.6127 102.549 78.6338 102.485 78.6127 102.443C78.3378 99.6948 72.4607 103.31 72.5241 100.223C72.5664 97.8132 73.0103 95.3397 72.9469 92.9297C72.8201 87.6233 73.5389 82.3169 74.913 77.2008C75.3147 75.6787 75.7375 74.1777 76.118 72.6555C76.2238 72.275 75.8432 71.9367 75.4838 72.0636C72.4184 73.0995 69.4587 74.1142 66.4355 75.1501C66.0972 75.277 65.9915 75.6998 66.2452 75.9746C66.5412 76.2706 66.816 76.5877 66.964 76.9683C67.1332 77.3699 66.7103 77.7716 66.3087 77.6025C66.1818 77.5602 66.0761 77.4968 65.9704 77.4334C65.5687 77.2008 65.1036 77.5813 65.2516 78.0253C65.3785 78.3424 65.4419 78.6595 65.4207 78.9978C65.3785 79.4206 64.8711 79.6109 64.5751 79.2938C64.3848 79.1035 64.258 78.8921 64.1523 78.6595C63.9832 78.279 63.4335 78.279 63.2432 78.6595C63.0952 78.9978 62.9261 79.2938 62.6724 79.5263C62.3553 79.8434 61.7845 79.5897 61.8268 79.1246C61.8691 78.7652 61.9748 78.4058 62.1016 78.0464C62.2496 77.6236 61.8056 77.2431 61.404 77.4334C61.404 77.4334 61.3828 77.4334 61.3828 77.4545C60.96 77.6659 60.516 77.222 60.7063 76.7991C61.1926 75.7844 62.461 74.981 62.0805 73.7337C58.8671 64.8968 56.0976 55.6159 51.2352 47.5612C50.9392 47.075 50.1993 47.371 50.3261 47.9206C53.8989 63.5861 58.1694 79.0824 61.2348 94.8746C62.3976 99.0817 53.8144 96.6293 51.2986 97.2635C51.2563 97.2635 51.214 97.2847 51.1929 97.2847C49.9033 97.3058 49.713 97.475 49.7342 98.7645C49.7765 102.76 49.6707 106.735 49.8399 110.73C49.861 111.026 50.1147 111.238 50.3895 111.195C52.1442 110.963 54.8291 110.413 55.1885 112.485C55.3154 113.415 54.9983 114.134 53.9835 114.367C51.5734 114.832 47.303 115.508 47.8104 111.787C47.8104 111.766 47.8104 111.745 47.8104 111.724C47.8526 107.411 47.9372 103.056 48.0006 98.7434C48.0218 97.3692 47.9583 97.3481 46.6687 97.4327C46.6265 97.4327 46.5842 97.4327 46.5419 97.4538C44.914 97.9189 40.1151 96.6927 40.0305 98.6588C40.1573 103.458 40.6436 108.299 40.3687 113.098C40.5167 116.079 31.2147 116.016 33.7939 112.506C33.8151 112.485 33.8151 112.464 33.8362 112.443C34.8721 110.308 38.2758 112.358 38.5506 110.773C38.4661 106.777 38.4026 102.781 38.2969 98.7857C38.5929 96.5659 30.9187 98.2572 29.1641 97.7921C25.5278 98.1303 28.7201 89.4414 28.6567 87.137C28.6567 87.0948 28.6567 87.0736 28.6567 87.0313C30.961 74.3891 33.9419 61.7679 36.4365 49.1891C36.5422 48.6394 35.8023 48.3646 35.5275 48.8508C30.7285 57.0112 27.0922 65.7213 25.105 75.0444C24.5342 76.8203 26.3946 77.4122 27.1768 78.6173C27.4305 79.0189 27.05 79.5263 26.5849 79.3572C26.5003 79.3149 26.3946 79.2726 26.31 79.2303C25.8661 79.0189 25.4221 79.484 25.6547 79.9068C25.9718 80.4988 26.2043 81.0907 25.7604 81.5136C25.6758 81.5981 25.549 81.6404 25.4433 81.6404C24.957 81.6615 24.7456 81.281 24.5765 80.8371C24.4285 80.4142 23.8365 80.3931 23.6674 80.7948C23.5406 81.0907 23.3926 81.3233 23.1812 81.5558C22.8641 81.873 22.3355 81.6615 22.3355 81.1964C22.3355 81.0273 22.3567 80.837 22.4201 80.6679C22.5469 80.224 22.0607 79.8857 21.659 80.1394C21.5322 80.224 21.4053 80.2874 21.2785 80.3508C20.8345 80.5622 20.3694 80.076 20.6443 79.6532C20.8768 79.2726 21.2573 78.9766 21.5956 78.7018C21.9761 78.3847 21.7224 77.7928 21.2362 77.835C21.1094 77.8562 20.9825 77.8562 20.8768 77.835C20.454 77.7928 20.2637 77.2431 20.602 76.9683C21.6167 76.1226 23.604 76.8414 23.7943 74.8964C23.7943 74.8753 23.7943 74.833 23.8154 74.8119C26.4369 65.0871 29.4812 55.5102 34.8932 46.927C40.4744 37.3924 39.3117 41.2401 31.2993 36.3565C30.7919 35.976 30.4325 36.0183 30.1577 36.6102C28.1281 45.3626 6.71239 43.3753 15.5704 39.6757C15.5916 39.6545 15.6339 39.6545 15.655 39.6545C19.1221 38.8723 24.4919 39.0203 26.5849 35.976C26.902 35.5109 26.31 34.9612 25.8661 35.3206C22.6738 37.8787 18.1496 39.274 14.154 38.3861C13.7735 38.3015 13.6255 37.8364 13.9003 37.5616C16.4795 34.8344 20.8768 33.9253 24.1114 32.0227C25.0839 31.5364 25.1261 31.1982 24.6188 30.268C20.6865 23.1646 19.1644 12.0445 26.6483 6.7381C36.2674 -0.301825 54.9348 -4.57229 59.903 9.86696C59.903 9.86696 59.903 9.8881 59.9241 9.8881C61.9325 14.4334 59.6916 17.1817 65.7801 14.5814C65.8647 14.5391 65.9493 14.5391 66.0127 14.5391C66.0338 14.5391 66.055 14.5391 66.0972 14.5602C66.3721 14.6237 66.5412 14.8985 66.4566 15.1522C66.0972 16.3361 64.0466 16.3149 63.0107 16.8435C62.9684 16.8646 62.905 16.9069 62.8627 16.9492C59.459 20.5643 64.9979 18.6193 67.1332 19.1267C67.5983 19.2324 67.6617 19.8455 67.2389 20.0569C65.315 20.9871 59.7761 20.4374 62.4187 22.8263C62.461 22.8686 62.5244 22.9109 62.5667 22.9321C63.7295 23.376 66.203 23.2703 66.3932 24.6233C66.4144 24.729 66.3932 24.8347 66.3509 24.9404C66.055 25.5324 65.2939 25.1307 64.7231 25.0039C64.702 25.0039 64.6808 25.0039 64.6385 25.0039C63.4758 24.9404 61.3617 23.5029 61.0023 25.2787C59.6281 31.2404 55.252 35.9549 49.6073 38.1535C46.7956 39.4008 50.5798 42.8257 51.2352 44.7072C51.2563 44.7495 51.2563 44.7706 51.2775 44.7918C55.1674 50.9226 57.8523 57.6032 60.0087 64.4951C60.0087 64.5163 60.0298 64.5374 60.0509 64.5797C61.0868 66.5458 62.3553 74.0297 64.406 74.1142C64.4483 74.1142 64.5117 74.1142 64.554 74.0931C68.3805 72.8246 78.1899 71.6619 77.8727 66.5881C77.8727 66.4401 77.7882 66.3132 77.6825 66.2287C74.7016 63.9032 70.3889 62.5079 69.6489 58.1528C69.6489 58.1105 69.6278 58.0683 69.6066 58.026C68.9301 56.525 67.0486 58.2797 65.6533 58.174C65.2516 58.1528 65.0613 57.6455 65.3362 57.3495C66.0761 56.5673 67.4503 56.7153 68.3593 56.0387C68.6764 55.8062 68.613 55.3199 68.2325 55.172C67.1966 54.7703 65.9704 55.172 64.9768 54.8337C64.5328 54.6857 64.554 54.0304 64.9979 53.9035C65.7167 53.671 66.5623 53.9035 67.3446 53.8612C67.3657 53.8612 67.408 53.8612 67.4291 53.8401C70.114 53.2904 66.7315 52.8253 65.0825 51.9585C64.6385 51.726 64.7865 51.0283 65.315 51.0283C67.0909 51.0072 69.2261 52.6351 69.1415 49.6965C69.1415 49.6542 69.1415 49.5908 69.1627 49.5485C69.5009 48.3857 69.205 47.5824 68.0422 46.927C66.0338 45.6374 68.0634 43.8616 69.7969 43.3965C70.0929 43.3119 70.262 42.9948 70.114 42.72C68.7821 39.9928 70.9385 39.126 73.6657 39.9928C73.6868 39.9928 73.6868 39.9928 73.708 40.0139C74.8707 40.2676 74.9976 40.2253 75.2513 39.0837C75.2513 39.0626 75.2513 39.0626 75.2724 39.0414C76.2449 35.7857 78.9721 37.7096 80.6422 38.7455M53.9412 4.94112C53.8989 4.91998 53.8355 4.89884 53.8144 4.8777C52.9265 5.72334 52.1231 6.6324 51.1295 7.37233C46.2248 11.072 40.8127 13.6723 34.8298 15.0888C33.8996 15.3213 33.4768 15.6807 33.35 16.6321C33.202 17.9005 32.9483 19.169 32.61 20.3951C31.6798 23.968 30.1788 27.3294 28.2973 30.5216C27.9802 31.0713 27.7688 31.5575 28.3396 32.1072C32.6946 36.0606 37.4936 38.682 43.6667 38.0478C49.4805 37.4559 54.2583 35.0669 57.3238 30.0143C61.5942 23.0378 60.9389 15.8921 57.7254 8.72535C57.662 8.57736 57.4929 8.47166 57.1758 8.1334C57.2392 8.80991 57.3026 9.21159 57.3238 9.63441C57.4083 10.3109 57.5563 10.9874 57.5352 11.6639C57.514 12.0233 57.1758 12.3404 56.9855 12.6998C56.7318 12.4039 56.3301 12.1502 56.2456 11.8331C56.0342 10.9874 55.9707 10.0784 55.865 9.21159C55.7382 8.06998 55.6325 6.90723 55.5268 5.74448C55.2942 5.78676 55.1885 5.78676 55.1463 5.85018C54.8291 6.29414 54.5332 6.7381 54.216 7.18206C51.7848 10.7337 48.7617 13.5243 44.6181 14.9831C44.1741 15.1311 43.6667 15.2156 43.2016 15.2368C43.0536 15.2368 42.7999 15.0042 42.7154 14.8351C42.6731 14.7294 42.8422 14.4757 42.9902 14.3488C43.1171 14.222 43.3496 14.1586 43.5399 14.1163C47.7258 12.7421 50.7912 9.97266 53.1801 6.37871C53.4973 5.89247 53.7087 5.38508 53.9412 4.94112ZM74.6593 43.7981C74.617 43.7559 74.5748 43.7347 74.5325 43.6924C73.8983 44.3478 73.2006 44.9609 72.6298 45.6585C68.9724 50.0981 68.909 58.2163 74.2154 62.3599C77.1328 64.6642 80.4308 65.4887 84.0882 65.235C92.4811 64.6431 97.6395 56.7787 94.7432 48.9777C93.8764 46.6099 92.3754 44.6649 90.4093 43.0582C90.4516 43.777 90.6419 44.4535 90.7264 45.13C90.8321 45.8911 90.8744 46.6522 90.8744 47.4132C90.8744 47.4555 90.8533 47.4978 90.8533 47.519C90.6841 47.8361 90.2402 47.8783 89.9865 47.6035C89.9442 47.5612 89.9231 47.4978 89.9019 47.4555C89.6905 46.8636 89.606 46.2505 89.458 45.6163C89.1831 44.5381 88.9929 43.4388 88.5912 42.424C88.4432 42.0434 87.7667 41.8955 87.3227 41.6418C87.1748 42.0434 86.8999 42.4451 86.9211 42.8257C86.9633 44.2421 87.1536 45.6586 87.2382 47.0961C87.2805 47.6035 87.513 48.428 86.7096 48.4914C85.864 48.5337 85.9697 47.6669 85.9274 47.1384C85.7583 45.4471 85.6103 43.7347 85.5258 42.0223C85.4835 41.3669 85.2509 41.071 84.5956 41.0921C84.363 41.0921 84.1305 41.071 83.919 41.0498C82.7774 40.9864 82.6929 41.0498 82.6506 42.1703C82.5872 43.8404 82.5449 45.4683 82.418 47.1384C82.418 47.1596 82.418 47.2018 82.3969 47.223C82.2912 47.7515 81.509 47.8149 81.2976 47.3075C81.2764 47.2441 81.2553 47.1807 81.2553 47.1173C81.213 45.7008 81.2976 44.2632 81.2553 42.8468C81.2341 42.3394 81.6358 41.5361 80.8536 41.3669C80.008 41.1978 79.9657 42.0646 79.7754 42.6354C79.1201 44.5592 78.507 46.483 77.8093 48.3646C77.7882 48.4069 77.767 48.4492 77.7459 48.4914C77.4499 48.872 76.8157 48.6817 76.7311 48.1955C76.71 48.1109 76.71 48.0475 76.71 47.9629C76.6889 47.8149 76.7946 47.6458 76.8368 47.4767C77.3442 45.87 77.8727 44.2844 78.359 42.6565C78.4224 42.424 78.3378 42.1703 78.3167 41.9377C78.063 41.98 77.7036 41.9589 77.5345 42.128C76.9848 42.7411 76.4352 43.3753 76.0335 44.073C75.2936 45.3837 74.6593 46.7579 73.9617 48.1109C73.7503 48.5126 73.4754 48.872 73.1795 49.2314C73.0738 49.3582 72.7778 49.5062 72.6721 49.4428C72.5241 49.3371 72.355 49.0622 72.3972 48.8931C72.5029 48.3646 72.6298 47.8361 72.8412 47.3498C73.4331 46.1448 74.0674 44.982 74.6593 43.7981ZM82.8197 99.8639C85.5258 99.7793 88.2529 99.6525 90.959 99.5891C91.7412 99.5679 92.016 99.2508 91.9737 98.5954C91.8046 96.5448 91.6566 94.4941 91.4664 92.4434C91.3818 91.5132 91.2127 91.3864 90.1768 91.4075C85.3566 91.5132 80.5154 91.6401 75.6741 91.7458C74.9764 91.7669 74.5959 91.9572 74.5325 92.6125C74.2999 94.7478 74.0462 96.9042 73.7925 99.0394C73.708 99.7582 74.0674 99.9907 74.8284 99.9907M34.2802 92.3166C34.1533 92.6971 33.6459 92.7605 33.4134 92.4223C33.1597 92.0417 32.906 91.7035 32.61 91.3864C31.5953 90.3082 30.4536 90.5196 29.9886 91.9149C29.6714 92.8662 29.5234 93.9233 29.4812 94.938C29.4812 95.1072 29.5657 95.2974 29.7137 95.4666C29.9251 95.7625 30.3691 95.7203 30.5594 95.4031C30.6228 95.2763 30.6862 95.1706 30.7073 95.0437C30.8553 94.5575 30.813 94.0078 30.9187 93.5216C30.9822 93.2256 31.0667 92.9508 31.1513 92.6125C31.257 92.232 31.7644 92.1263 31.9969 92.4434C32.1026 92.5914 32.2083 92.7182 32.2718 92.8451C32.6946 93.6062 33.0328 94.4307 33.4768 95.2129C33.5825 95.4031 33.7728 95.5511 33.963 95.6991C34.1745 95.8682 34.4916 95.826 34.6607 95.5934C34.7875 95.4243 34.8932 95.2552 34.9567 95.0649C35.2104 94.2615 35.3372 93.3948 35.612 92.5914C35.76 92.2109 36.1194 91.6823 36.4365 91.6401C36.7748 91.5978 37.3033 91.9572 37.5147 92.3166C37.9798 93.0776 38.2758 93.9656 38.6563 94.7901C38.7832 95.0438 39.0157 95.4666 39.1426 95.4666C39.4385 95.4243 39.7345 95.1917 39.9459 94.9592C40.0939 94.7901 40.1151 94.4729 40.1996 94.2404C40.4533 93.6062 40.6436 92.9297 40.9818 92.3589C41.5315 91.4075 42.208 91.3652 42.8211 92.2954C43.3285 93.0354 43.6667 93.8599 44.153 94.5787C44.3855 94.938 44.8295 95.3397 45.21 95.3397C45.4637 95.3397 45.8442 94.7478 45.9922 94.3884C46.2459 93.6273 46.3516 92.824 46.5842 92.084C46.859 91.2172 47.3452 91.1327 47.9161 91.8515C48.1909 92.2109 48.3812 92.6337 48.5926 93.0354C48.804 93.437 48.952 93.881 49.2057 94.2404C49.3325 94.4518 49.6919 94.6421 49.8822 94.5998C50.0724 94.5575 50.2416 94.1981 50.305 93.9656C50.4318 93.5639 50.3473 93.0776 50.5375 92.7182C50.7067 92.38 50.9603 92.084 51.214 91.788C51.3832 91.5978 51.6791 91.5555 51.8905 91.7035C52.2077 91.936 52.5248 92.1686 52.7362 92.4857C53.1167 93.0354 53.2647 93.7542 53.6452 94.325C53.8567 94.6421 54.2583 94.9803 54.5966 95.0015C54.8291 95.0226 55.1885 94.5575 55.3365 94.2404C55.6748 93.5216 55.9073 92.7605 56.2244 92.0417C56.2879 91.9149 56.4147 91.8092 56.5415 91.7035C56.753 91.5555 57.0489 91.5766 57.2181 91.7669C57.3026 91.8726 57.3872 91.9783 57.4506 92.1052C57.7254 92.676 57.8946 93.2891 58.2328 93.8176C58.2751 93.9021 58.3808 93.9444 58.5077 93.9867C58.8248 94.0713 59.163 93.8387 59.1419 93.5005C59.1419 93.4793 59.1419 93.4582 59.1207 93.437C58.9093 92.6971 58.6979 91.9572 58.402 91.2384C58.106 90.5619 57.6197 90.0122 56.7952 89.9911C55.9707 89.9699 55.5268 90.583 55.1885 91.2172C55.0617 91.4498 54.956 91.7035 54.8503 91.9572C54.6811 92.3377 54.1526 92.3588 53.9624 91.9995C53.5395 91.2384 53.0533 90.6253 52.1865 90.3505C51.0661 89.9911 50.3684 90.435 49.861 91.2172C49.6707 91.4921 49.2691 91.5132 49.0577 91.2595C48.4869 90.5619 47.9161 89.9276 46.9224 90.1602C45.7808 90.3927 45.4848 91.2595 45.2523 92.1686C45.1466 92.5914 44.5758 92.676 44.3432 92.2954C43.857 91.4709 43.3285 90.731 42.3137 90.4985C40.9607 90.2025 40.3053 91.0904 39.65 91.9783C39.4597 92.232 39.058 92.2531 38.8677 91.9783C38.1701 91.0693 37.4936 90.2025 36.1828 90.4562C35.0201 90.6253 34.5973 91.4075 34.2802 92.3166Z" fill="white"/>
<path fill-rule="evenodd" clip-rule="evenodd" d="M97.6329 79.0831C97.609 78.9478 97.5965 78.8086 97.5965 78.6665C97.5965 78.3842 97.6456 78.1135 97.7359 77.8623L62.0058 75.3748L61.9647 75.3719L61.9235 75.3746L23.5217 77.8741C23.6093 78.122 23.6569 78.3887 23.6569 78.6665C23.6569 78.8129 23.6437 78.9563 23.6183 79.0954L61.9619 76.5997L97.6329 79.0831ZM112.274 71.1256L102.294 78.1329C102.199 77.7177 101.995 77.344 101.714 77.0432L111.57 70.123L112.274 71.1256ZM18.8996 78.6665L18.8996 78.6765L6.20312 74.3726L6.59639 73.2124L19.2112 77.4886C19.0129 77.8359 18.8996 78.238 18.8996 78.6665Z" fill="white"/>
<path d="M56.8514 68.3618L63.0921 72.3037L68.7696 67.5865L66.9491 74.7399L73.1899 78.6817L65.824 79.1609L64.0036 86.3143L61.2717 79.4571L53.9059 79.9363L59.5833 75.2191L56.8514 68.3618Z" fill="white"/>
<path d="M109.325 65.6998L112.096 68.1897L115.32 66.3234L113.809 69.7285L116.58 72.2184L112.875 71.833L111.363 75.2381L110.584 71.5948L106.879 71.2094L110.103 69.3431L109.325 65.6998Z" fill="white"/>
<path d="M8.65211 67.6617L8.4447 71.3815L11.9183 72.7282L8.31651 73.6804L8.1091 77.4002L6.09047 74.2689L2.48867 75.2211L4.8429 72.3337L2.82427 69.2024L6.29789 70.5492L8.65211 67.6617Z" fill="white"/>
<circle cx="21.2921" cy="78.549" r="1.2638" fill="white"/>
<circle cx="100.002" cy="78.1525" r="1.2638" fill="white"/>
</svg>
