<svg width="496" height="371" viewBox="0 0 496 371" fill="none" xmlns="http://www.w3.org/2000/svg">
<path opacity="0.2" d="M287.311 173.283C331.336 163.463 344.551 129.801 345.655 114.198L494.458 274.706C495.781 301.894 469.649 316.578 456.417 320.522L287.311 173.283ZM356.427 184.629C353.181 188.044 353.318 193.445 356.733 196.692L370.234 209.527C373.649 212.773 379.05 212.637 382.297 209.222C385.543 205.807 385.406 200.406 381.991 197.16L368.49 184.325C365.075 181.078 359.674 181.214 356.427 184.629ZM210.73 152.974C228.795 151.444 250.323 145.304 269.637 131.165C292.285 114.586 311.468 87.3151 318.647 44.6482C325.533 55.9394 329.663 69.1213 330.075 83.2869C331.337 126.739 297.135 162.988 253.682 164.25C237.989 164.705 223.235 160.535 210.73 152.974ZM172.719 87.857C171.457 44.4044 205.659 8.15629 249.112 6.89417C273.293 6.19187 295.242 16.4736 310.173 33.2195C304.799 79.4005 285.634 107.061 263.731 123.096C241.519 139.356 215.995 144.023 197.895 143.303C182.949 129.45 173.358 109.837 172.719 87.857Z" fill="white"/>
<g filter="url(#filter0_f_31_209)">
<path d="M185.898 348.728L173.334 348.233L168.981 360.029L165.569 347.927L153.005 347.432L163.46 340.448L160.048 328.345L169.922 336.131L180.377 329.146L176.024 340.942L185.898 348.728Z" fill="white"/>
<path d="M213.103 233.412L204.538 236.221L204.563 245.235L199.245 237.957L190.679 240.767L195.958 233.459L190.639 226.181L199.22 228.943L204.498 221.636L204.523 230.65L213.103 233.412Z" fill="white"/>
<path d="M396.57 218.393L395.134 205.901L382.811 203.406L394.247 198.181L392.812 185.689L401.316 194.952L412.753 189.727L406.571 200.676L415.075 209.939L402.751 207.443L396.57 218.393Z" fill="white"/>
<path d="M282.749 85.2222L268.125 70.7928L249.883 80.2422L259.087 61.875L244.463 47.4456L264.775 50.5234L273.979 32.1562L277.329 52.4256L297.641 55.5035L279.399 64.9528L282.749 85.2222Z" fill="white"/>
<circle cx="279.441" cy="312.83" r="4.22852" fill="white"/>
<circle cx="330.468" cy="295.821" r="4.22852" fill="white"/>
<path d="M275.146 305.474C274.263 305.975 273.477 306.626 272.823 307.393L200.388 234.958L172.092 340.56L270.821 314.105C270.949 315.128 271.255 316.094 271.708 316.974L170.36 344.131L167.85 344.803L168.522 342.293L198.162 231.673L198.835 229.163L275.146 305.474ZM322.123 298.431C322.412 299.423 322.873 300.342 323.473 301.153L288.045 312.3C287.961 311.269 287.698 310.291 287.284 309.394L322.123 298.431ZM264.367 58.8303L402.222 99.1545C401.685 99.9969 401.291 100.938 401.071 101.945L266.14 62.4739L330.803 287.349C330.683 287.344 330.562 287.341 330.441 287.341C329.519 287.341 328.631 287.485 327.797 287.752L262.504 60.6838L261.751 58.0647L264.367 58.8303ZM407.099 112.116C407.871 112.342 408.687 112.466 409.532 112.466C409.717 112.466 409.901 112.458 410.083 112.447L402.863 199.979L401.367 199.856L399.873 199.733L407.099 112.116Z" fill="white"/>
<circle cx="409.56" cy="103.619" r="4.22852" fill="white"/>
</g>
<path d="M185.898 348.728L173.334 348.233L168.981 360.029L165.569 347.927L153.005 347.432L163.46 340.448L160.048 328.345L169.922 336.131L180.377 329.146L176.024 340.942L185.898 348.728Z" fill="white"/>
<path d="M213.103 233.412L204.538 236.221L204.563 245.235L199.245 237.957L190.679 240.767L195.958 233.459L190.639 226.181L199.22 228.943L204.498 221.636L204.523 230.65L213.103 233.412Z" fill="white"/>
<path d="M396.57 218.393L395.134 205.901L382.811 203.406L394.247 198.181L392.812 185.689L401.316 194.952L412.753 189.727L406.571 200.676L415.075 209.939L402.751 207.443L396.57 218.393Z" fill="white"/>
<path d="M282.749 85.2222L268.125 70.7928L249.883 80.2422L259.087 61.875L244.463 47.4456L264.775 50.5234L273.979 32.1562L277.329 52.4256L297.641 55.5035L279.399 64.9528L282.749 85.2222Z" fill="white"/>
<circle cx="279.441" cy="312.83" r="4.22852" fill="white"/>
<circle cx="330.468" cy="295.821" r="4.22852" fill="white"/>
<path d="M275.146 305.474C274.263 305.975 273.477 306.626 272.823 307.393L200.388 234.958L172.092 340.56L270.821 314.105C270.949 315.128 271.255 316.094 271.708 316.974L170.36 344.131L167.85 344.803L168.522 342.293L198.162 231.673L198.835 229.163L275.146 305.474ZM322.123 298.431C322.412 299.423 322.873 300.342 323.473 301.153L288.045 312.3C287.961 311.269 287.698 310.291 287.284 309.394L322.123 298.431ZM264.367 58.8303L402.222 99.1545C401.685 99.9969 401.291 100.938 401.071 101.945L266.14 62.4739L330.803 287.349C330.683 287.344 330.562 287.341 330.441 287.341C329.519 287.341 328.631 287.485 327.797 287.752L262.504 60.6838L261.751 58.0647L264.367 58.8303ZM407.099 112.116C407.871 112.342 408.687 112.466 409.532 112.466C409.717 112.466 409.901 112.458 410.083 112.447L402.863 199.979L401.367 199.856L399.873 199.733L407.099 112.116Z" fill="white"/>
<circle cx="409.56" cy="103.619" r="4.22852" fill="white"/>
<g filter="url(#filter1_f_31_209)">
<path d="M4.00001 132.877L6.49625 132.877L18.9774 152.889L31.8747 132.877L34.3709 132.877C34.2045 133.959 34.1629 134.458 34.1629 136.663L34.1629 157.632C34.1629 160.253 34.2045 160.752 34.3709 161.834L34.3709 162L27.6311 162L27.6311 161.834C27.8807 160.752 27.9223 160.253 27.9223 157.632L27.9223 142.238L16.2732 160.253L16.2316 160.253L5.9554 143.861L5.9554 157.632C5.95541 160.253 5.99701 160.752 6.24663 161.834L6.24663 162L4.00002 162L4.00002 161.834C4.16644 160.752 4.20804 160.253 4.20804 157.632L4.20803 136.663C4.20803 134.458 4.16643 133.959 4.00001 132.877ZM40.7298 132.877L47.4696 132.877L47.4696 133.044C47.22 134.125 47.1784 134.625 47.1784 137.246L47.1784 153.346L65.0681 132.877L66.3995 132.877C66.0666 134.125 66.0666 134.75 66.0666 141.198L66.0666 157.632C66.0666 160.253 66.1082 160.752 66.2747 161.834L66.2747 162L59.5348 162L59.5348 161.834C59.7844 160.752 59.826 160.253 59.826 157.632L59.826 141.531L41.9363 162L40.605 162C40.9378 160.752 40.9378 160.128 40.9378 158.048L40.9378 137.246C40.9378 134.625 40.8962 134.125 40.7298 133.044L40.7298 132.877ZM72.6595 132.877L79.3994 132.877L79.3994 133.044C79.1498 134.125 79.1082 134.625 79.1082 137.246L79.1082 145.15L87.5538 137.246C90.0916 134.874 91.5061 133.418 91.5061 133.044L91.5061 132.877L94.7929 132.877L94.7929 133.044C93.6695 133.834 92.6295 134.874 90.0916 137.246L87.3041 139.908L94.8761 156.758C96.249 159.837 97.1227 160.752 97.9964 161.501L97.9964 162C94.3768 162.999 89.9252 161.376 88.0114 156.8L82.6861 144.069L79.1082 147.397L79.1082 157.632C79.1082 160.253 79.1498 160.752 79.3994 161.834L79.3994 162L72.6596 162L72.6596 161.834C72.826 160.752 72.8676 160.253 72.8676 157.632L72.8676 137.246C72.8676 134.625 72.826 134.125 72.6595 133.044L72.6595 132.877ZM111.264 132.877C118.462 132.877 122.996 136.33 122.996 142.072C122.996 148.562 117.089 151.89 110.89 151.89C110.141 151.89 109.35 151.807 108.601 151.724L108.601 150.476L109.142 150.476C113.594 150.476 116.756 147.522 116.756 142.405C116.756 137.412 114.343 134.625 109.891 134.625L106.937 134.625L106.937 157.632C106.937 160.253 106.979 160.752 107.145 161.834L107.145 162L100.489 162L100.489 161.834C100.655 160.752 100.697 160.253 100.697 157.632L100.697 137.246C100.697 134.625 100.655 134.125 100.489 133.044L100.489 132.877L111.264 132.877ZM141.087 162.666C132.516 162.666 125.693 155.843 125.693 147.272C125.693 138.702 132.516 131.879 141.087 131.879C149.657 131.879 156.48 138.702 156.48 147.272C156.48 155.843 149.657 162.666 141.087 162.666ZM132.599 147.896C132.599 155.593 136.011 160.918 140.92 160.918C146.953 160.918 150.073 153.596 150.073 146.565C150.073 138.993 146.62 133.626 141.669 133.626C135.72 133.626 132.599 140.907 132.599 147.896ZM174.071 130.215L180.727 130.215L180.727 130.381C180.602 131.255 180.561 131.754 180.519 133.044C189.048 134.084 194.789 139.201 194.789 146.149C194.789 153.055 189.048 158.172 180.519 159.171C180.561 160.461 180.602 160.96 180.727 161.834L180.727 162L174.071 162L174.071 161.834C174.195 160.96 174.237 160.461 174.279 159.171C165.75 158.131 160.008 153.014 160.008 146.066C160.008 139.159 165.75 134.042 174.279 133.044C174.237 131.754 174.195 131.255 174.071 130.381L174.071 130.215ZM166.457 146.523C166.457 152.348 169.328 156.384 174.279 157.507L174.279 134.749C169.328 135.998 166.457 140.283 166.457 146.523ZM180.519 157.465C185.47 156.217 188.341 151.932 188.341 145.691C188.341 139.867 185.47 135.831 180.519 134.708L180.519 157.465ZM213.728 162.666C205.157 162.666 198.334 155.843 198.334 147.272C198.334 138.702 205.157 131.879 213.728 131.879C222.298 131.879 229.121 138.702 229.121 147.272C229.121 155.843 222.298 162.666 213.728 162.666ZM205.241 147.896C205.241 155.593 208.652 160.918 213.561 160.918C219.594 160.918 222.714 153.596 222.714 146.565C222.714 138.993 219.261 133.626 214.31 133.626C208.361 133.626 205.241 140.907 205.241 147.896ZM252.12 132.877L258.86 132.877L258.86 133.044C258.694 134.125 258.652 134.625 258.652 137.246L258.652 157.632C258.652 160.253 258.694 160.752 258.86 161.834L258.86 162L252.12 162L252.12 161.834C252.37 160.752 252.411 160.253 252.411 157.632L252.411 143.486L240.762 143.486L240.762 157.632C240.762 160.253 240.804 160.752 241.054 161.834L241.054 162L234.314 162L234.314 161.834C234.48 160.752 234.522 160.253 234.522 157.632L234.522 137.246C234.522 134.625 234.48 134.125 234.314 133.044L234.314 132.877L241.054 132.877L241.054 133.044C240.804 134.125 240.762 134.625 240.762 137.246L240.762 141.739L252.411 141.739L252.411 137.246C252.411 134.625 252.37 134.125 252.12 133.044L252.12 132.877Z" fill="#F6F1FF"/>
</g>
<path d="M4.00001 132.877L6.49625 132.877L18.9774 152.889L31.8747 132.877L34.3709 132.877C34.2045 133.959 34.1629 134.458 34.1629 136.663L34.1629 157.632C34.1629 160.253 34.2045 160.752 34.3709 161.834L34.3709 162L27.6311 162L27.6311 161.834C27.8807 160.752 27.9223 160.253 27.9223 157.632L27.9223 142.238L16.2732 160.253L16.2316 160.253L5.9554 143.861L5.9554 157.632C5.95541 160.253 5.99701 160.752 6.24663 161.834L6.24663 162L4.00002 162L4.00002 161.834C4.16644 160.752 4.20804 160.253 4.20804 157.632L4.20803 136.663C4.20803 134.458 4.16643 133.959 4.00001 132.877ZM40.7298 132.877L47.4696 132.877L47.4696 133.044C47.22 134.125 47.1784 134.625 47.1784 137.246L47.1784 153.346L65.0681 132.877L66.3995 132.877C66.0666 134.125 66.0666 134.75 66.0666 141.198L66.0666 157.632C66.0666 160.253 66.1082 160.752 66.2747 161.834L66.2747 162L59.5348 162L59.5348 161.834C59.7844 160.752 59.826 160.253 59.826 157.632L59.826 141.531L41.9363 162L40.605 162C40.9378 160.752 40.9378 160.128 40.9378 158.048L40.9378 137.246C40.9378 134.625 40.8962 134.125 40.7298 133.044L40.7298 132.877ZM72.6595 132.877L79.3994 132.877L79.3994 133.044C79.1498 134.125 79.1082 134.625 79.1082 137.246L79.1082 145.15L87.5538 137.246C90.0916 134.874 91.5061 133.418 91.5061 133.044L91.5061 132.877L94.7929 132.877L94.7929 133.044C93.6695 133.834 92.6295 134.874 90.0916 137.246L87.3041 139.908L94.8761 156.758C96.249 159.837 97.1227 160.752 97.9964 161.501L97.9964 162C94.3768 162.999 89.9252 161.376 88.0114 156.8L82.6861 144.069L79.1082 147.397L79.1082 157.632C79.1082 160.253 79.1498 160.752 79.3994 161.834L79.3994 162L72.6596 162L72.6596 161.834C72.826 160.752 72.8676 160.253 72.8676 157.632L72.8676 137.246C72.8676 134.625 72.826 134.125 72.6595 133.044L72.6595 132.877ZM111.264 132.877C118.462 132.877 122.996 136.33 122.996 142.072C122.996 148.562 117.089 151.89 110.89 151.89C110.141 151.89 109.35 151.807 108.601 151.724L108.601 150.476L109.142 150.476C113.594 150.476 116.756 147.522 116.756 142.405C116.756 137.412 114.343 134.625 109.891 134.625L106.937 134.625L106.937 157.632C106.937 160.253 106.979 160.752 107.145 161.834L107.145 162L100.489 162L100.489 161.834C100.655 160.752 100.697 160.253 100.697 157.632L100.697 137.246C100.697 134.625 100.655 134.125 100.489 133.044L100.489 132.877L111.264 132.877ZM141.087 162.666C132.516 162.666 125.693 155.843 125.693 147.272C125.693 138.702 132.516 131.879 141.087 131.879C149.657 131.879 156.48 138.702 156.48 147.272C156.48 155.843 149.657 162.666 141.087 162.666ZM132.599 147.896C132.599 155.593 136.011 160.918 140.92 160.918C146.953 160.918 150.073 153.596 150.073 146.565C150.073 138.993 146.62 133.626 141.669 133.626C135.72 133.626 132.599 140.907 132.599 147.896ZM174.071 130.215L180.727 130.215L180.727 130.381C180.602 131.255 180.561 131.754 180.519 133.044C189.048 134.084 194.789 139.201 194.789 146.149C194.789 153.055 189.048 158.172 180.519 159.171C180.561 160.461 180.602 160.96 180.727 161.834L180.727 162L174.071 162L174.071 161.834C174.195 160.96 174.237 160.461 174.279 159.171C165.75 158.131 160.008 153.014 160.008 146.066C160.008 139.159 165.75 134.042 174.279 133.044C174.237 131.754 174.195 131.255 174.071 130.381L174.071 130.215ZM166.457 146.523C166.457 152.348 169.328 156.384 174.279 157.507L174.279 134.749C169.328 135.998 166.457 140.283 166.457 146.523ZM180.519 157.465C185.47 156.217 188.341 151.932 188.341 145.691C188.341 139.867 185.47 135.831 180.519 134.708L180.519 157.465ZM213.728 162.666C205.157 162.666 198.334 155.843 198.334 147.272C198.334 138.702 205.157 131.879 213.728 131.879C222.298 131.879 229.121 138.702 229.121 147.272C229.121 155.843 222.298 162.666 213.728 162.666ZM205.241 147.896C205.241 155.593 208.652 160.918 213.561 160.918C219.594 160.918 222.714 153.596 222.714 146.565C222.714 138.993 219.261 133.626 214.31 133.626C208.361 133.626 205.241 140.907 205.241 147.896ZM252.12 132.877L258.86 132.877L258.86 133.044C258.694 134.125 258.652 134.625 258.652 137.246L258.652 157.632C258.652 160.253 258.694 160.752 258.86 161.834L258.86 162L252.12 162L252.12 161.834C252.37 160.752 252.411 160.253 252.411 157.632L252.411 143.486L240.762 143.486L240.762 157.632C240.762 160.253 240.804 160.752 241.054 161.834L241.054 162L234.314 162L234.314 161.834C234.48 160.752 234.522 160.253 234.522 157.632L234.522 137.246C234.522 134.625 234.48 134.125 234.314 133.044L234.314 132.877L241.054 132.877L241.054 133.044C240.804 134.125 240.762 134.625 240.762 137.246L240.762 141.739L252.411 141.739L252.411 137.246C252.411 134.625 252.37 134.125 252.12 133.044L252.12 132.877Z" fill="#F6F1FF"/>
<path opacity="0.5" d="M53.8102 195.589L53.8102 182.761L51.0859 184.4L51.0859 182.741L53.8102 181.113L55.3081 181.113L55.3081 195.589L53.8102 195.589ZM63.8158 195.88C61.6645 195.88 59.9354 194.674 59.3221 192.714L60.7295 192.291C61.2121 193.729 62.4084 194.483 63.7957 194.453C65.7258 194.412 66.902 193.116 66.902 191.175C66.902 189.205 65.6454 187.898 63.7755 187.898C63.2528 187.898 62.6396 188.059 62.147 188.3L61.4031 187.124L66.3692 182.53L59.8952 182.53L59.8952 181.113L68.2591 181.113L68.2591 182.55L64.0269 186.601C66.6507 186.581 68.43 188.471 68.43 191.175C68.43 193.96 66.4798 195.88 63.8158 195.88ZM78.2161 195.589L78.2161 192.784L71.4405 192.784L71.4405 191.376L76.286 181.113L77.9447 181.113L73.0992 191.376L78.2161 191.376L78.2161 187.154L79.7039 187.154L79.7039 191.376L81.2822 191.376L81.2822 192.784L79.7039 192.784L79.7039 195.589L78.2161 195.589ZM87.3209 188.049C85.3304 188.049 83.7018 186.441 83.7018 184.43C83.7018 182.46 85.3907 180.811 87.3208 180.811C89.3113 180.811 90.9399 182.419 90.9399 184.43C90.9399 186.441 89.3113 188.049 87.3209 188.049ZM87.3209 186.712C88.5573 186.712 89.6028 185.666 89.6028 184.43C89.6028 183.193 88.5573 182.148 87.3208 182.148C86.0844 182.148 85.0389 183.193 85.0389 184.43C85.0389 185.666 86.0844 186.712 87.3209 186.712ZM99.0866 195.89C96.4025 195.89 94.3618 193.849 94.3618 191.165L94.3618 185.536C94.3618 182.852 96.4025 180.811 99.0866 180.811C101.771 180.811 103.811 182.852 103.811 185.536L103.811 191.165C103.811 193.849 101.771 195.89 99.0866 195.89ZM99.0866 194.463C100.866 194.463 102.314 193.015 102.314 191.236L102.314 185.465C102.314 183.676 100.866 182.228 99.0866 182.228C97.3072 182.228 95.8596 183.676 95.8596 185.465L95.8596 191.236C95.8596 193.015 97.3072 194.463 99.0866 194.463ZM112.162 195.89C109.478 195.89 107.438 193.849 107.438 191.165L107.438 185.536C107.438 182.852 109.478 180.811 112.162 180.811C114.846 180.811 116.887 182.852 116.887 185.536L116.887 191.165C116.887 193.849 114.846 195.89 112.162 195.89ZM112.162 194.463C113.942 194.463 115.389 193.015 115.389 191.236L115.389 185.465C115.389 183.676 113.942 182.228 112.162 182.228C110.383 182.228 108.935 183.676 108.935 185.465L108.935 191.236C108.935 193.015 110.383 194.463 112.162 194.463ZM121.378 180.982L122.866 180.982L121.458 185.807L120.443 185.807L121.378 180.982ZM123.931 180.982L125.419 180.982L124.012 185.807L122.996 185.807L123.931 180.982ZM133.426 189.889L133.426 188.622L141.871 188.622L141.871 189.889L133.426 189.889ZM154.884 180.821C157.608 180.821 159.78 182.992 159.78 185.807L159.78 190.834C159.78 193.739 157.648 195.89 154.773 195.89C153.125 195.89 151.657 195.116 150.752 193.829L151.878 192.894C152.501 193.849 153.577 194.473 154.773 194.473C156.814 194.473 158.292 192.824 158.292 190.964L158.292 188.743C157.427 189.778 156.161 190.452 154.743 190.452C152.059 190.452 149.988 188.34 149.988 185.656C149.988 182.972 152.2 180.821 154.884 180.821ZM154.884 182.248C152.994 182.248 151.476 183.766 151.476 185.656C151.476 187.546 152.984 189.064 154.874 189.064C156.764 189.064 158.292 187.546 158.292 185.656C158.292 183.777 156.774 182.248 154.884 182.248ZM168.116 195.89C165.432 195.89 163.391 193.849 163.391 191.165L163.391 185.536C163.391 182.852 165.432 180.811 168.116 180.811C170.8 180.811 172.841 182.852 172.841 185.536L172.841 191.165C172.841 193.849 170.8 195.89 168.116 195.89ZM168.116 194.463C169.895 194.463 171.343 193.015 171.343 191.236L171.343 185.465C171.343 183.676 169.895 182.228 168.116 182.228C166.336 182.228 164.889 183.676 164.889 185.465L164.889 191.236C164.889 193.015 166.336 194.463 168.116 194.463ZM179.281 188.049C177.291 188.049 175.662 186.441 175.662 184.43C175.662 182.46 177.351 180.811 179.281 180.811C181.272 180.811 182.901 182.419 182.901 184.43C182.901 186.441 181.272 188.049 179.281 188.049ZM179.281 186.712C180.518 186.712 181.563 185.666 181.563 184.43C181.563 183.193 180.518 182.148 179.281 182.148C178.045 182.148 176.999 183.193 176.999 184.43C176.999 185.666 178.045 186.712 179.281 186.712ZM191.047 195.89C188.363 195.89 186.322 193.849 186.322 191.165L186.322 185.536C186.322 182.852 188.363 180.811 191.047 180.811C193.731 180.811 195.772 182.852 195.772 185.536L195.772 191.165C195.772 193.849 193.731 195.89 191.047 195.89ZM191.047 194.463C192.827 194.463 194.274 193.015 194.274 191.236L194.274 185.465C194.274 183.676 192.827 182.228 191.047 182.228C189.268 182.228 187.82 183.676 187.82 185.465L187.82 191.236C187.82 193.015 189.268 194.463 191.047 194.463ZM204.123 195.89C201.439 195.89 199.398 193.849 199.398 191.165L199.398 185.536C199.398 182.852 201.439 180.811 204.123 180.811C206.807 180.811 208.848 182.852 208.848 185.536L208.848 191.165C208.848 193.849 206.807 195.89 204.123 195.89ZM204.123 194.463C205.902 194.463 207.35 193.015 207.35 191.236L207.35 185.465C207.35 183.676 205.902 182.228 204.123 182.228C202.344 182.228 200.896 183.676 200.896 185.465L200.896 191.236C200.896 193.015 202.344 194.463 204.123 194.463ZM213.338 180.982L214.826 180.982L213.419 185.807L212.404 185.807L213.338 180.982ZM215.892 180.982L217.38 180.982L215.972 185.807L214.957 185.807L215.892 180.982Z" fill="#F6F1FF"/>
<defs>
<filter id="filter0_f_31_209" x="143.005" y="22.1562" width="282.07" height="347.873" filterUnits="userSpaceOnUse" color-interpolation-filters="sRGB">
<feFlood flood-opacity="0" result="BackgroundImageFix"/>
<feBlend mode="normal" in="SourceGraphic" in2="BackgroundImageFix" result="shape"/>
<feGaussianBlur stdDeviation="5" result="effect1_foregroundBlur_31_209"/>
</filter>
<filter id="filter1_f_31_209" x="0" y="126.215" width="262.86" height="40.7841" filterUnits="userSpaceOnUse" color-interpolation-filters="sRGB">
<feFlood flood-opacity="0" result="BackgroundImageFix"/>
<feBlend mode="normal" in="SourceGraphic" in2="BackgroundImageFix" result="shape"/>
<feGaussianBlur stdDeviation="2" result="effect1_foregroundBlur_31_209"/>
</filter>
</defs>
</svg>
