<svg width="345" height="268" viewBox="0 0 345 268" fill="none" xmlns="http://www.w3.org/2000/svg">
<path opacity="0.2" d="M191.697 127.107C223.99 119.904 233.683 95.2128 234.493 83.7676L343.643 201.504C344.614 221.447 325.445 232.218 315.739 235.11L191.697 127.107ZM242.395 135.43C240.014 137.935 240.114 141.896 242.619 144.278L252.523 153.694C255.028 156.075 258.989 155.975 261.371 153.47C263.752 150.965 263.652 147.004 261.147 144.622L251.243 135.206C248.738 132.825 244.777 132.925 242.395 135.43ZM135.523 112.21C148.774 111.088 164.565 106.583 178.733 96.212C195.345 84.0512 209.416 64.0476 214.682 32.751C219.733 41.0331 222.763 50.7022 223.065 61.0928C223.991 92.9662 198.903 119.555 167.029 120.481C155.518 120.815 144.696 117.757 135.523 112.21ZM107.641 64.4451C106.716 32.5718 131.804 5.98262 163.677 5.05692C181.414 4.54179 197.514 12.0841 208.466 24.3673C204.524 58.2419 190.467 78.5316 174.4 90.2933C158.106 102.222 139.382 105.642 126.105 105.113C115.143 94.9512 108.109 80.5661 107.641 64.4451Z" fill="white"/>
<path d="M117.308 255.8L108.092 255.437L104.899 264.09L102.396 255.213L93.1804 254.85L100.85 249.726L98.3469 240.849L105.59 246.56L113.259 241.437L110.066 250.089L117.308 255.8Z" fill="white"/>
<path d="M137.264 171.214L130.981 173.274L130.999 179.886L127.098 174.548L120.815 176.608L124.687 171.248L120.786 165.91L127.08 167.936L130.952 162.576L130.97 169.188L137.264 171.214Z" fill="white"/>
<path d="M271.84 160.197L270.788 151.034L261.748 149.204L270.137 145.371L269.084 136.208L275.322 143.002L283.711 139.169L279.177 147.201L285.414 153.995L276.375 152.165L271.84 160.197Z" fill="white"/>
<path d="M188.35 62.5133L177.623 51.929L164.242 58.8603L170.994 45.3876L160.267 34.8033L175.166 37.061L181.918 23.5882L184.375 38.4563L199.274 40.7139L185.893 47.6452L188.35 62.5133Z" fill="white"/>
<circle cx="185.924" cy="229.469" r="3.10171" fill="white"/>
<circle cx="223.354" cy="216.992" r="3.10171" fill="white"/>
<path d="M182.774 224.073C182.126 224.44 181.549 224.918 181.069 225.481L127.936 172.348L107.181 249.809L179.601 230.403C179.695 231.154 179.92 231.863 180.252 232.508L105.91 252.428L104.07 252.922L104.563 251.081L126.305 169.938L126.798 168.097L182.774 224.073ZM217.233 218.907C217.445 219.635 217.782 220.309 218.222 220.904L192.236 229.08C192.174 228.324 191.981 227.606 191.678 226.949L217.233 218.907ZM174.866 43.1549L275.986 72.734C275.592 73.3515 275.303 74.041 275.142 74.7789L176.167 45.8268L223.599 210.778C223.511 210.774 223.422 210.771 223.333 210.771C222.657 210.771 222.006 210.877 221.395 211.073L173.5 44.5143L172.948 42.5934L174.866 43.1549ZM279.564 82.2408C280.13 82.4064 280.729 82.4977 281.349 82.4977C281.484 82.4977 281.619 82.4914 281.752 82.483L276.456 146.69L275.36 146.6L274.263 146.509L279.564 82.2408Z" fill="white"/>
<circle cx="281.369" cy="76.008" r="3.10171" fill="white"/>
<path d="M1.44503 104.178L2.93483 104.178L10.3838 116.121L18.0811 104.178L19.5709 104.178C19.4716 104.824 19.4468 105.122 19.4468 106.438L19.4468 118.952C19.4468 120.516 19.4716 120.814 19.5709 121.46L19.5709 121.559L15.5485 121.559L15.5485 121.46C15.6975 120.814 15.7223 120.516 15.7223 118.952L15.7223 109.765L8.76989 120.516L8.74506 120.516L2.61205 110.733L2.61205 118.952C2.61205 120.516 2.63688 120.814 2.78586 121.46L2.78586 121.559L1.44504 121.559L1.44504 121.46C1.54436 120.814 1.56919 120.516 1.56919 118.952L1.56918 106.438C1.56918 105.122 1.54435 104.824 1.44503 104.178ZM23.366 104.178L27.3885 104.178L27.3885 104.278C27.2395 104.923 27.2147 105.221 27.2147 106.785L27.2147 116.395L37.8916 104.178L38.6862 104.178C38.4875 104.923 38.4875 105.296 38.4875 109.144L38.4875 118.952C38.4875 120.516 38.5124 120.814 38.6117 121.46L38.6117 121.559L34.5892 121.559L34.5892 121.46C34.7382 120.814 34.763 120.516 34.763 118.952L34.763 109.343L24.0861 121.559L23.2916 121.559C23.4902 120.814 23.4902 120.442 23.4902 119.2L23.4902 106.785C23.4902 105.221 23.4654 104.923 23.366 104.278L23.366 104.178ZM42.4223 104.178L46.4448 104.178L46.4448 104.278C46.2958 104.923 46.2709 105.221 46.2709 106.785L46.2709 111.503L51.3114 106.785C52.8261 105.37 53.6703 104.501 53.6703 104.278L53.6703 104.178L55.6319 104.178L55.6319 104.278C54.9614 104.749 54.3407 105.37 52.8261 106.785L51.1625 108.374L55.6815 118.431C56.5009 120.268 57.0223 120.814 57.5438 121.261L57.5438 121.559C55.3836 122.155 52.7268 121.187 51.5846 118.455L48.4063 110.857L46.2709 112.844L46.2709 118.952C46.271 120.516 46.2958 120.814 46.4448 121.46L46.4448 121.559L42.4223 121.559L42.4223 121.46C42.5216 120.814 42.5464 120.516 42.5464 118.952L42.5464 106.785C42.5464 105.221 42.5216 104.923 42.4223 104.278L42.4223 104.178ZM65.4622 104.178C69.7578 104.178 72.4643 106.239 72.4643 109.666C72.4643 113.539 68.9384 115.525 65.2387 115.525C64.7918 115.525 64.32 115.476 63.8731 115.426L63.8731 114.681L64.1959 114.681C66.8527 114.681 68.7398 112.918 68.7398 109.864C68.7398 106.885 67.2996 105.221 64.6428 105.221L62.8799 105.221L62.8799 118.952C62.8799 120.516 62.9047 120.814 63.004 121.46L63.004 121.559L59.0312 121.559L59.0312 121.46C59.1306 120.814 59.1554 120.516 59.1554 118.952L59.1554 106.785C59.1554 105.221 59.1306 104.923 59.0312 104.278L59.0312 104.178L65.4622 104.178ZM83.2609 121.956C78.1459 121.956 74.0738 117.884 74.0738 112.769C74.0738 107.654 78.1459 103.582 83.2609 103.582C88.3758 103.582 92.448 107.654 92.448 112.769C92.448 117.884 88.3758 121.956 83.2609 121.956ZM78.1955 113.142C78.1955 117.735 80.2316 120.914 83.1615 120.914C86.7619 120.914 88.6241 116.544 88.6241 112.347C88.6241 107.828 86.5632 104.625 83.6085 104.625C80.0578 104.625 78.1955 108.97 78.1955 113.142ZM102.946 102.589L106.919 102.589L106.919 102.688C106.845 103.21 106.82 103.508 106.795 104.277C111.885 104.898 115.312 107.952 115.312 112.099C115.312 116.221 111.885 119.275 106.795 119.871C106.82 120.64 106.845 120.938 106.919 121.46L106.919 121.559L102.946 121.559L102.946 121.46C103.021 120.938 103.046 120.64 103.07 119.871C97.9802 119.25 94.5537 116.196 94.5537 112.049C94.5537 107.928 97.9802 104.873 103.07 104.277C103.046 103.508 103.021 103.21 102.946 102.688L102.946 102.589ZM98.4023 112.322C98.4023 115.799 100.116 118.207 103.07 118.878L103.07 105.296C100.116 106.04 98.4023 108.598 98.4023 112.322ZM106.795 118.853C109.75 118.108 111.463 115.55 111.463 111.826C111.463 108.35 109.75 105.941 106.795 105.271L106.795 118.853ZM126.614 121.956C121.499 121.956 117.427 117.884 117.427 112.769C117.427 107.654 121.499 103.582 126.614 103.582C131.729 103.582 135.802 107.654 135.802 112.769C135.802 117.884 131.729 121.956 126.614 121.956ZM121.549 113.142C121.549 117.735 123.585 120.914 126.515 120.914C130.115 120.914 131.978 116.543 131.978 112.347C131.978 107.828 129.917 104.625 126.962 104.625C123.411 104.625 121.549 108.97 121.549 113.142ZM149.528 104.178L153.55 104.178L153.55 104.277C153.451 104.923 153.426 105.221 153.426 106.785L153.426 118.952C153.426 120.516 153.451 120.814 153.55 121.46L153.55 121.559L149.528 121.559L149.528 121.46C149.677 120.814 149.701 120.516 149.701 118.952L149.701 110.51L142.749 110.51L142.749 118.952C142.749 120.516 142.774 120.814 142.923 121.46L142.923 121.559L138.9 121.559L138.9 121.46C139 120.814 139.025 120.516 139.025 118.952L139.025 106.785C139.025 105.221 139 104.923 138.9 104.277L138.9 104.178L142.923 104.178L142.923 104.277C142.774 104.923 142.749 105.221 142.749 106.785L142.749 109.467L149.701 109.467L149.701 106.785C149.701 105.221 149.677 104.923 149.528 104.277L149.528 104.178Z" fill="#F6F1FF"/>
<path opacity="0.5" d="M31.9252 142.2L31.9252 134.544L30.2992 135.522L30.2992 134.532L31.9252 133.56L32.8192 133.56L32.8192 142.2L31.9252 142.2ZM37.897 142.374C36.613 142.374 35.581 141.654 35.215 140.484L36.055 140.232C36.343 141.09 37.057 141.54 37.885 141.522C39.037 141.498 39.739 140.724 39.739 139.566C39.739 138.39 38.989 137.61 37.873 137.61C37.561 137.61 37.195 137.706 36.901 137.85L36.457 137.148L39.421 134.406L35.557 134.406L35.557 133.56L40.549 133.56L40.549 134.418L38.023 136.836C39.589 136.824 40.651 137.952 40.651 139.566C40.651 141.228 39.487 142.374 37.897 142.374ZM46.4918 142.2L46.4918 140.526L42.4478 140.526L42.4478 139.686L45.3398 133.56L46.3298 133.56L43.4378 139.686L46.4918 139.686L46.4918 137.166L47.3798 137.166L47.3798 139.686L48.3218 139.686L48.3218 140.526L47.3798 140.526L47.3798 142.2L46.4918 142.2ZM51.9259 137.7C50.7379 137.7 49.7659 136.74 49.7659 135.54C49.7659 134.364 50.7739 133.38 51.9259 133.38C53.1139 133.38 54.0859 134.34 54.0859 135.54C54.0859 136.74 53.1139 137.7 51.9259 137.7ZM51.9259 136.902C52.6639 136.902 53.2879 136.278 53.2879 135.54C53.2879 134.802 52.6639 134.178 51.9259 134.178C51.1879 134.178 50.5639 134.802 50.5639 135.54C50.5639 136.278 51.1879 136.902 51.9259 136.902ZM58.9483 142.38C57.3463 142.38 56.1283 141.162 56.1283 139.56L56.1283 136.2C56.1283 134.598 57.3463 133.38 58.9483 133.38C60.5503 133.38 61.7683 134.598 61.7683 136.2L61.7683 139.56C61.7683 141.162 60.5503 142.38 58.9483 142.38ZM58.9483 141.528C60.0103 141.528 60.8743 140.664 60.8743 139.602L60.8743 136.158C60.8743 135.09 60.0103 134.226 58.9483 134.226C57.8863 134.226 57.0223 135.09 57.0223 136.158L57.0223 139.602C57.0223 140.664 57.8863 141.528 58.9483 141.528ZM66.7525 142.38C65.1505 142.38 63.9325 141.162 63.9325 139.56L63.9325 136.2C63.9325 134.598 65.1505 133.38 66.7525 133.38C68.3545 133.38 69.5725 134.598 69.5725 136.2L69.5725 139.56C69.5725 141.162 68.3545 142.38 66.7525 142.38ZM66.7525 141.528C67.8145 141.528 68.6785 140.664 68.6785 139.602L68.6785 136.158C68.6785 135.09 67.8145 134.226 66.7525 134.226C65.6905 134.226 64.8265 135.09 64.8265 136.158L64.8265 139.602C64.8265 140.664 65.6905 141.528 66.7525 141.528ZM72.2527 133.482L73.1407 133.482L72.3007 136.362L71.6947 136.362L72.2527 133.482ZM73.7767 133.482L74.6647 133.482L73.8247 136.362L73.2187 136.362L73.7767 133.482ZM79.4439 138.798L79.4439 138.042L84.4839 138.042L84.4839 138.798L79.4439 138.798ZM92.2507 133.386C93.8767 133.386 95.1727 134.682 95.1727 136.362L95.1727 139.362C95.1727 141.096 93.9007 142.38 92.1847 142.38C91.2007 142.38 90.3247 141.918 89.7847 141.15L90.4567 140.592C90.8287 141.162 91.4707 141.534 92.1847 141.534C93.4027 141.534 94.2847 140.55 94.2847 139.44L94.2847 138.114C93.7687 138.732 93.0127 139.134 92.1667 139.134C90.5647 139.134 89.3287 137.874 89.3287 136.272C89.3287 134.67 90.6487 133.386 92.2507 133.386ZM92.2507 134.238C91.1227 134.238 90.2167 135.144 90.2167 136.272C90.2167 137.4 91.1167 138.306 92.2447 138.306C93.3727 138.306 94.2847 137.4 94.2847 136.272C94.2847 135.15 93.3787 134.238 92.2507 134.238ZM100.148 142.38C98.5461 142.38 97.3281 141.162 97.3281 139.56L97.3281 136.2C97.3281 134.598 98.5461 133.38 100.148 133.38C101.75 133.38 102.968 134.598 102.968 136.2L102.968 139.56C102.968 141.162 101.75 142.38 100.148 142.38ZM100.148 141.528C101.21 141.528 102.074 140.664 102.074 139.602L102.074 136.158C102.074 135.09 101.21 134.226 100.148 134.226C99.0861 134.226 98.2221 135.09 98.2221 136.158L98.2221 139.602C98.2221 140.664 99.0861 141.528 100.148 141.528ZM106.812 137.7C105.624 137.7 104.652 136.74 104.652 135.54C104.652 134.364 105.66 133.38 106.812 133.38C108 133.38 108.972 134.34 108.972 135.54C108.972 136.74 108 137.7 106.812 137.7ZM106.812 136.902C107.55 136.902 108.174 136.278 108.174 135.54C108.174 134.802 107.55 134.178 106.812 134.178C106.074 134.178 105.45 134.802 105.45 135.54C105.45 136.278 106.074 136.902 106.812 136.902ZM113.835 142.38C112.233 142.38 111.015 141.162 111.015 139.56L111.015 136.2C111.015 134.598 112.233 133.38 113.835 133.38C115.437 133.38 116.655 134.598 116.655 136.2L116.655 139.56C116.655 141.162 115.437 142.38 113.835 142.38ZM113.835 141.528C114.897 141.528 115.761 140.664 115.761 139.602L115.761 136.158C115.761 135.09 114.897 134.226 113.835 134.226C112.773 134.226 111.909 135.09 111.909 136.158L111.909 139.602C111.909 140.664 112.773 141.528 113.835 141.528ZM121.639 142.38C120.037 142.38 118.819 141.162 118.819 139.56L118.819 136.2C118.819 134.598 120.037 133.38 121.639 133.38C123.241 133.38 124.459 134.598 124.459 136.2L124.459 139.56C124.459 141.162 123.241 142.38 121.639 142.38ZM121.639 141.528C122.701 141.528 123.565 140.664 123.565 139.602L123.565 136.158C123.565 135.09 122.701 134.226 121.639 134.226C120.577 134.226 119.713 135.09 119.713 136.158L119.713 139.602C119.713 140.664 120.577 141.528 121.639 141.528ZM127.139 133.482L128.027 133.482L127.187 136.362L126.581 136.362L127.139 133.482ZM128.663 133.482L129.551 133.482L128.711 136.362L128.105 136.362L128.663 133.482Z" fill="#F6F1FF"/>
</svg>
