<svg width="181" height="60" viewBox="0 0 181 60" fill="none" xmlns="http://www.w3.org/2000/svg">
<g opacity="0.1">
<path d="M27.3604 36.6148C27.4415 36.8786 27.7661 37.0611 28.3037 37.1727C31.225 37.619 33.3754 37.7813 35.1099 37.2031C37.0168 36.5641 38.234 35.0122 38.9643 32.3242L39.8468 32.5372C39.5932 33.7138 39.8671 34.6774 40.6481 35.3368C41.6726 36.2091 43.4376 36.4221 44.9692 35.8541C45.5677 35.3063 46.0545 34.6369 46.5718 33.9167C47.4847 32.6589 48.4281 31.3606 50.0307 30.7114C51.2682 29.9507 52.7999 30.0419 54.0272 30.965L54.0475 30.9853C61.3 37.0206 70.926 39.7998 81.2012 38.8159C81.8301 36.6757 81.4345 34.9107 79.9941 33.2675C65.834 24.6254 53.9968 18.0119 50.0307 18.3162C49.0265 18.3872 38.9238 26.0658 28.1008 34.7282C27.5531 35.4889 27.2285 36.1787 27.3604 36.6148Z" fill="white"/>
<path d="M81.8504 35.2963C82.4996 36.6757 82.6314 38.2885 81.9823 40.2665L81.891 40.5505L81.5968 40.5809C80.1058 40.7331 78.635 40.8041 77.1743 40.8041C68.2178 40.8041 59.9307 37.9538 53.4694 32.5778C52.526 31.878 51.4103 31.8171 50.4771 32.3953L50.4466 32.4155L50.4061 32.4358C49.0266 32.9836 48.1948 34.1298 47.3123 35.347C46.7747 36.0874 46.2169 36.8583 45.517 37.4771L45.4561 37.5278L45.375 37.5582C43.5086 38.2885 41.3684 38.035 40.0599 36.9192C39.6136 36.5439 39.289 36.0773 39.0861 35.56C38.2442 37.3046 37.0473 38.4103 35.4041 38.958C33.487 39.597 31.2149 39.4347 28.1516 38.9681H28.1313C27.2285 38.7957 26.6808 38.4001 26.4779 37.7915C26.3968 37.5278 26.3866 37.2438 26.4475 36.9395C13.2713 47.5494 -0.330895 59.1229 0.622579 59.8127L120.324 59.2142C108.365 52.0023 94.3166 42.9646 81.8504 35.2963Z" fill="white"/>
</g>
<g opacity="0.1">
<path d="M147.176 25.5943C147.298 25.4827 146.984 25.1784 146.304 24.7423C145.635 25.5334 144.702 26.2942 143.515 27.0042L143.403 27.0752H143.271C140.715 26.9839 138.91 27.0347 138.433 27.5723C138.129 27.9171 138.24 28.6576 138.403 29.7734C138.605 31.1021 138.879 32.9279 138.636 35.3928L138.626 35.4536L138.605 35.5145C138.352 36.1738 137.916 36.5897 137.337 36.752C137.145 36.8027 136.942 36.8331 136.739 36.8331C135.086 36.8331 132.885 35.2305 131.231 34.0234C130.765 33.6785 130.359 33.3844 130.044 33.1815L130.014 33.1612C126.991 30.8181 123.624 28.7996 120.368 26.8521C116.888 24.7625 113.288 22.602 110.103 20.0459C105.528 22.5614 100.233 24.864 95.8816 26.2232C90.3129 27.9678 86.8642 28.0388 85.647 26.4463C84.9066 25.4827 85.0384 24.0221 86.0527 22.0441C80.6666 26.2942 76.6499 29.9356 77.5425 30.3312L124.476 59.6759L180.863 59.0775C169.806 48.4574 156.863 32.3092 147.176 25.5943Z" fill="white"/>
<path d="M142.46 24.4175C143.423 23.8292 144.194 23.2105 144.752 22.5714C137.845 18.4938 111.472 6.65655 107.881 6.44354C106.126 6.34211 96.5105 12.9048 88.7306 18.8996C86.5092 22.1657 86.641 23.5655 87.0975 24.1639C88.0003 25.3406 91.2867 25.1479 96.1048 23.6365C100.375 22.2976 105.589 20.0255 110.062 17.5404L110.326 17.3983L110.559 17.5911C113.673 20.1269 117.243 22.2671 120.692 24.3364C123.877 26.2535 127.184 28.2314 130.166 30.534C130.491 30.7368 130.886 31.031 131.353 31.3759C132.834 32.4511 135.299 34.2566 136.536 33.9016C136.719 33.8508 136.972 33.7291 137.175 33.2727C137.388 31.0107 137.135 29.3168 136.942 28.0793C136.749 26.7809 136.607 25.8477 137.185 25.2087C137.804 24.4987 139.092 24.306 142.46 24.4175Z" fill="white"/>
</g>
<path fill-rule="evenodd" clip-rule="evenodd" d="M106.103 9.90582L105.903 9.854L105.744 9.98566L78.4802 32.5443C78.6451 32.7646 78.7728 33.0143 78.8541 33.2841L106.101 10.7401L122.54 15.0006L122.743 14.2181L106.103 9.90582ZM74.1972 33.6764C74.233 33.3888 74.3199 33.117 74.4486 32.8705L52.1182 17.7566L51.909 17.6151L51.6901 17.741C48.0371 19.8428 42.4865 23.2182 37.8527 26.0659C35.535 27.4902 33.4454 28.7834 31.9353 29.7204C31.1802 30.1889 30.5699 30.5684 30.1484 30.8308L29.6632 31.1331L29.537 31.2117L29.5048 31.2318L29.4967 31.2369L29.4947 31.2382L29.4941 31.2385C29.494 31.2385 29.494 31.2386 29.708 31.5814C29.922 31.9243 29.922 31.9243 29.9221 31.9242L29.9226 31.9239L29.9247 31.9226L29.9327 31.9176L29.9648 31.8976L30.0908 31.819L30.5756 31.517C30.9968 31.2548 31.6067 30.8755 32.3614 30.4072C33.8709 29.4706 35.9595 28.1782 38.2759 26.7546C42.8184 23.963 48.2323 20.6702 51.8744 18.5677L74.1972 33.6764Z" fill="white"/>
<circle cx="76.4885" cy="34.1214" r="1.68971" fill="white"/>
<circle cx="124.458" cy="15.1918" r="1.06581" fill="white"/>
<circle cx="28.3969" cy="33.0556" r="1.06581" fill="white"/>
<path d="M51.7407 12.8423L52.9171 16.4629H56.724L53.6442 18.7005L54.8206 22.3211L51.7407 20.0835L48.6609 22.3211L49.8373 18.7005L46.7574 16.4629H50.5643L51.7407 12.8423Z" fill="white"/>
<path d="M102.592 3.53813L106.099 7.89676L111.328 5.90802L108.267 10.5905L111.774 14.9492L106.375 13.4845L103.313 18.167L103.038 12.5793L97.6382 11.1146L102.867 9.12586L102.592 3.53813Z" fill="white"/>
</svg>
