<svg width="261" height="264" viewBox="0 0 261 264" fill="none" xmlns="http://www.w3.org/2000/svg">
<g opacity="0.2">
<path d="M183.645 93.8364C172.694 49.8022 227.038 38.5995 255.579 38.5024C274.8 47.5306 226.164 51.8991 241.017 78.4011C255.87 104.903 197.332 148.879 183.645 93.8364Z" fill="white"/>
<path d="M112.993 235.744C104.734 208.342 154.469 140.96 180.369 110.695C194.768 134.074 209.71 124.831 209.71 130.268C209.71 135.705 123.316 269.997 112.993 235.744Z" fill="white"/>
<path d="M198.428 172.285C205.785 183.556 210.299 194.927 206.472 206.925C200.621 225.267 177.857 240.688 144.331 239.953C161.535 221.984 181.061 196.701 198.428 172.285ZM61.4388 9.76062C75.3211 1.50911 110.424 -9.16842 139.78 14.1298C176.474 43.2528 164.243 73.2492 163.078 108.779C163.012 110.796 163.13 112.791 163.406 114.767C150.13 132.914 136.737 152.737 125.547 172.056C123.502 171.452 121.339 171.128 119.101 171.128C106.395 171.128 96.0943 181.559 96.0941 194.426C96.0941 202.059 99.7202 208.835 105.323 213.085C102.959 219.237 101.086 225.125 99.8051 230.651C81.4979 223.693 61.5378 212.486 40.4701 195.857C-46.6075 127.127 38.4313 18.1215 61.4388 9.76062ZM50.3685 128.617C38.6273 128.617 29.1088 138.267 29.1088 150.169C29.1089 162.071 38.6274 171.719 50.3685 171.72C62.11 171.72 71.6291 162.071 71.6293 150.169C71.6293 138.266 62.11 128.617 50.3685 128.617ZM49.2045 62.7977C38.1064 62.7979 29.1097 71.9256 29.1097 83.1844C29.1099 94.4432 38.1066 103.57 49.2045 103.57C60.3024 103.57 69.299 94.4432 69.2992 83.1844C69.2992 71.9255 60.3026 62.7978 49.2045 62.7977ZM108.616 18.5302C96.5525 18.5303 86.7728 28.3098 86.7728 40.3729C86.773 52.4359 96.5526 62.2146 108.616 62.2147C120.679 62.2146 130.457 52.4359 130.457 40.3729C130.457 28.3098 120.679 18.5303 108.616 18.5302Z" fill="white"/>
</g>
<path d="M103.201 30.437L108.596 36.6821L116.203 33.4809L111.931 40.5417L117.326 46.7868L109.29 44.9056L105.018 51.9664L104.324 43.7429L96.2887 41.8617L103.895 38.6605L103.201 30.437Z" fill="white"/>
<path d="M49.8006 71.0584L50.9919 79.2247L59.1266 80.6154L51.7281 84.2718L52.9193 92.4381L47.1555 86.5316L39.757 90.1881L43.5933 82.8812L37.8296 76.9747L45.9643 78.3653L49.8006 71.0584Z" fill="white"/>
<path d="M119.666 183.557L124.03 190.562L132.04 188.576L126.727 194.891L131.091 201.896L123.443 198.794L118.13 205.109L118.717 196.877L111.069 193.775L119.079 191.789L119.666 183.557Z" fill="white"/>
<path d="M223.377 68.2305L219.966 80.2246L230.318 87.1757L217.857 87.6374L214.445 99.6315L210.156 87.9227L197.694 88.3844L207.504 80.6863L203.214 68.9775L213.567 75.9286L223.377 68.2305Z" fill="white"/>
<path d="M215.028 82.1737L122.21 194.932L121.618 195.649L120.811 195.185L54.1648 156.832C54.5852 156.233 54.9198 155.57 55.1511 154.86L121.101 192.813L213.329 80.7753L215.028 82.1737ZM108.918 41.4735L49.5808 82.0546V145.229C49.0857 145.126 48.5725 145.072 48.0466 145.072C47.8219 145.072 47.5993 145.083 47.3796 145.102V80.8934L47.8591 80.5663L107.676 39.6571L108.918 41.4735Z" fill="white"/>
<circle cx="48.0703" cy="152.296" r="3.64713" fill="white"/>
<path d="M0.551622 225.208L5.26932 225.208L5.29415 225.307C5.39347 225.605 5.4183 225.754 6.38667 227.244L9.11798 231.415L11.7748 227.244C12.7928 225.655 12.8176 225.605 12.917 225.307L12.9418 225.208L14.7296 225.208L14.7296 225.307C14.3819 225.655 13.935 226.052 12.768 227.84L9.78838 232.434L14.6551 239.932C15.7476 241.621 16.1945 242.142 16.4925 242.49L16.4925 242.589L11.7748 242.589L11.75 242.49C11.6506 242.192 11.6258 242.043 10.6574 240.553L6.9826 234.941L3.33259 240.553C2.31456 242.117 2.28973 242.192 2.19041 242.49L2.16558 242.589L0.377818 242.589L0.377818 242.49C0.725438 242.142 1.19721 241.72 2.36422 239.957L6.33702 233.948L2.33938 227.84C1.22203 226.127 0.849582 225.655 0.551622 225.307L0.551622 225.208ZM16.78 225.208L21.6218 225.208L21.6218 225.258C21.746 225.705 22.3419 226.425 23.1861 227.592L28.1769 234.594L32.4477 227.592C33.1678 226.425 33.6644 225.705 33.7389 225.258L33.7389 225.208L35.2038 225.208L35.2038 225.307C34.7569 225.779 34.4093 226.375 33.6892 227.567L27.0596 238.467C25.0235 241.794 23.5089 242.961 21.6715 242.961C19.5858 242.961 18.1208 241.571 18.1208 239.609C18.1208 237.648 19.7099 236.406 21.3983 236.406C22.2426 236.406 23.1365 236.729 23.8814 237.325L23.6579 237.722C23.2109 237.424 22.7392 237.325 22.3171 237.325C21.1004 237.325 20.5045 238.219 20.5045 239.138C20.5045 240.106 21.1749 241.124 22.5157 241.124C23.3848 241.124 24.5518 240.553 25.5946 238.84L26.1905 237.846L18.5429 227.567C17.6738 226.4 17.2766 225.779 16.78 225.307L16.78 225.208ZM42.0757 225.208C42.9696 225.208 44.1863 225.034 44.8319 224.513L50.8407 241.546L52.5788 241.546L52.5788 245.767L51.9332 245.767C51.7098 242.986 51.3125 242.589 49.053 242.589L37.6063 242.589C35.3468 242.589 34.9495 242.986 34.726 245.767L34.0805 245.767L34.0805 241.546L35.7441 241.546L42.0757 225.208ZM36.8863 241.546L46.8927 241.546L42.1254 227.84L36.8863 241.546ZM62.6301 242.986C57.5151 242.986 53.443 238.914 53.443 233.799C53.443 228.684 57.5151 224.612 62.6301 224.612C67.7451 224.612 71.8172 228.684 71.8172 233.799C71.8172 238.914 67.7451 242.986 62.6301 242.986ZM57.5648 234.172C57.5648 238.765 59.6009 241.943 62.5308 241.943C66.1311 241.943 67.9934 237.573 67.9934 233.377C67.9934 228.858 65.9325 225.655 62.9777 225.655C59.427 225.655 57.5648 230 57.5648 234.172ZM74.4195 225.208L76.3811 225.208L76.3811 225.307C76.3811 225.531 77.2253 226.4 78.5165 227.592L83.7804 232.533L83.7804 227.815C83.7804 226.251 83.7556 225.953 83.6066 225.307L83.6066 225.208L87.6291 225.208L87.6291 225.307C87.4801 225.953 87.4553 226.251 87.4553 227.815L87.4553 232.533L92.7192 227.592C94.0104 226.4 94.8546 225.531 94.8546 225.307L94.8546 225.208L96.8162 225.208L96.8162 225.307C96.1458 225.779 95.525 226.4 94.2835 227.567L92.3468 229.404L96.8658 239.46C97.6852 241.298 98.2067 241.844 98.7281 242.291L98.7281 242.589C96.5679 243.185 93.9111 242.217 92.7689 239.485L89.5906 231.887L87.4553 233.874L87.4553 239.982C87.4553 241.546 87.4801 241.844 87.6291 242.49L87.6291 242.589L83.6066 242.589L83.6066 242.49C83.7556 241.844 83.7804 241.546 83.7804 239.982L83.7804 233.874L81.645 231.887L78.4668 239.485C77.3246 242.217 74.6678 243.185 72.5076 242.589L72.5076 242.291C73.029 241.844 73.5505 241.298 74.3699 239.46L78.8889 229.404L76.9522 227.567C75.7107 226.4 75.0899 225.779 74.4195 225.307L74.4195 225.208ZM110.663 225.208L114.686 225.208L114.686 225.307C114.587 225.953 114.562 226.251 114.562 227.815L114.562 239.982C114.562 241.546 114.587 241.844 114.686 242.49L114.686 242.589L110.663 242.589L110.663 242.49C110.812 241.844 110.837 241.546 110.837 239.982L110.837 231.54L103.885 231.54L103.885 239.982C103.885 241.546 103.91 241.844 104.059 242.49L104.059 242.589L100.036 242.589L100.036 242.49C100.135 241.844 100.16 241.546 100.16 239.982L100.16 227.815C100.16 226.251 100.135 225.953 100.036 225.307L100.036 225.208L104.059 225.208L104.059 225.307C103.91 225.953 103.885 226.251 103.885 227.815L103.885 230.497L110.837 230.497L110.837 227.815C110.837 226.251 110.812 225.953 110.663 225.307L110.663 225.208ZM118.49 225.208L122.512 225.208L122.512 225.307C122.363 225.953 122.338 226.251 122.338 227.815L122.338 237.424L133.015 225.208L133.81 225.208C133.611 225.953 133.611 226.325 133.611 230.174L133.611 239.982C133.611 241.546 133.636 241.844 133.735 242.49L133.735 242.589L129.713 242.589L129.713 242.49C129.862 241.844 129.887 241.546 129.887 239.982L129.887 230.373L119.21 242.589L118.415 242.589C118.614 241.844 118.614 241.472 118.614 240.23L118.614 227.815C118.614 226.251 118.589 225.953 118.49 225.307L118.49 225.208ZM137.546 225.208L141.568 225.208L141.568 225.307C141.419 225.953 141.395 226.251 141.395 227.815L141.395 232.533L146.435 227.815C147.95 226.4 148.794 225.531 148.794 225.307L148.794 225.208L150.755 225.208L150.755 225.307C150.085 225.779 149.464 226.4 147.95 227.815L146.286 229.404L150.805 239.46C151.625 241.298 152.146 241.844 152.667 242.291L152.667 242.589C150.507 243.185 147.85 242.216 146.708 239.485L143.53 231.887L141.395 233.874L141.395 239.982C141.395 241.546 141.419 241.844 141.568 242.49L141.568 242.589L137.546 242.589L137.546 242.49C137.645 241.844 137.67 241.546 137.67 239.982L137.67 227.815C137.67 226.251 137.645 225.953 137.546 225.307L137.546 225.208Z" fill="#F6F1FF"/>
<path opacity="0.5" d="M25.9658 263.224L25.9718 262.42L29.8778 258.892C30.5438 258.292 30.7118 257.764 30.7118 257.164C30.7118 256.096 29.8898 255.256 28.8278 255.256C27.7238 255.256 26.9078 256.144 26.9198 257.158L26.0198 257.158C26.0198 255.58 27.2378 254.41 28.8398 254.41C30.4118 254.41 31.6058 255.628 31.6058 257.17C31.6058 258.256 31.2218 258.856 30.3818 259.606L27.3098 262.378L31.6058 262.378L31.6058 263.224L25.9658 263.224ZM37.0992 263.23L37.0992 261.556L33.0552 261.556L33.0552 260.716L35.9472 254.59L36.9372 254.59L34.0452 260.716L37.0992 260.716L37.0992 258.196L37.9872 258.196L37.9872 260.716L38.9292 260.716L38.9292 261.556L37.9872 261.556L37.9872 263.23L37.0992 263.23ZM43.6733 263.41C42.0713 263.41 40.8533 262.192 40.8533 260.59L40.8533 257.23C40.8533 255.628 42.0713 254.41 43.6733 254.41C45.2753 254.41 46.4933 255.628 46.4933 257.23L46.4933 260.59C46.4933 262.192 45.2753 263.41 43.6733 263.41ZM43.6733 262.558C44.7353 262.558 45.5993 261.694 45.5993 260.632L45.5993 257.188C45.5993 256.12 44.7353 255.256 43.6733 255.256C42.6113 255.256 41.7473 256.12 41.7473 257.188L41.7473 260.632C41.7473 261.694 42.6113 262.558 43.6733 262.558ZM50.3375 258.73C49.1495 258.73 48.1775 257.77 48.1775 256.57C48.1775 255.394 49.1855 254.41 50.3375 254.41C51.5255 254.41 52.4975 255.37 52.4975 256.57C52.4975 257.77 51.5255 258.73 50.3375 258.73ZM50.3375 257.932C51.0755 257.932 51.6995 257.308 51.6995 256.57C51.6995 255.832 51.0755 255.208 50.3375 255.208C49.5995 255.208 48.9755 255.832 48.9755 256.57C48.9755 257.308 49.5995 257.932 50.3375 257.932ZM57.3599 263.41C55.7579 263.41 54.5399 262.192 54.5399 260.59L54.5399 257.23C54.5399 255.628 55.7579 254.41 57.3599 254.41C58.9619 254.41 60.1799 255.628 60.1799 257.23L60.1799 260.59C60.1799 262.192 58.9619 263.41 57.3599 263.41ZM57.3599 262.558C58.4219 262.558 59.2859 261.694 59.2859 260.632L59.2859 257.188C59.2859 256.12 58.4219 255.256 57.3599 255.256C56.2979 255.256 55.4339 256.12 55.4339 257.188L55.4339 260.632C55.4339 261.694 56.2979 262.558 57.3599 262.558ZM65.1641 263.41C63.5621 263.41 62.3441 262.192 62.3441 260.59L62.3441 257.23C62.3441 255.628 63.5621 254.41 65.1641 254.41C66.7661 254.41 67.9841 255.628 67.9841 257.23L67.9841 260.59C67.9841 262.192 66.7661 263.41 65.1641 263.41ZM65.1641 262.558C66.2261 262.558 67.0901 261.694 67.0901 260.632L67.0901 257.188C67.0901 256.12 66.2261 255.256 65.1641 255.256C64.1021 255.256 63.2381 256.12 63.2381 257.188L63.2381 260.632C63.2381 261.694 64.1021 262.558 65.1641 262.558ZM70.6643 254.512L71.5523 254.512L70.7123 257.392L70.1063 257.392L70.6643 254.512ZM72.1883 254.512L73.0763 254.512L72.2363 257.392L71.6303 257.392L72.1883 254.512ZM77.8555 259.828L77.8555 259.072L82.8955 259.072L82.8955 259.828L77.8555 259.828ZM90.7403 263.41C89.1143 263.41 87.8183 262.114 87.8183 260.428L87.8183 257.434C87.8183 255.7 89.0963 254.416 90.8063 254.416C91.7903 254.416 92.6723 254.872 93.2123 255.646L92.5343 256.204C92.1683 255.634 91.5203 255.256 90.8063 255.256C89.5883 255.256 88.7123 256.24 88.7123 257.356L88.7123 258.682C89.2223 258.058 89.9783 257.662 90.8243 257.662C92.4263 257.662 93.6683 258.922 93.6683 260.524C93.6683 262.12 92.3423 263.41 90.7403 263.41ZM90.7403 262.552C91.8683 262.552 92.7803 261.652 92.7803 260.524C92.7803 259.396 91.8743 258.484 90.7463 258.484C89.6183 258.484 88.7123 259.396 88.7123 260.524C88.7123 261.64 89.6123 262.552 90.7403 262.552ZM98.5597 263.41C96.9577 263.41 95.7397 262.192 95.7397 260.59L95.7397 257.23C95.7397 255.628 96.9577 254.41 98.5597 254.41C100.162 254.41 101.38 255.628 101.38 257.23L101.38 260.59C101.38 262.192 100.162 263.41 98.5597 263.41ZM98.5597 262.558C99.6217 262.558 100.486 261.694 100.486 260.632L100.486 257.188C100.486 256.12 99.6217 255.256 98.5597 255.256C97.4977 255.256 96.6337 256.12 96.6337 257.188L96.6337 260.632C96.6337 261.694 97.4977 262.558 98.5597 262.558ZM105.224 258.73C104.036 258.73 103.064 257.77 103.064 256.57C103.064 255.394 104.072 254.41 105.224 254.41C106.412 254.41 107.384 255.37 107.384 256.57C107.384 257.77 106.412 258.73 105.224 258.73ZM105.224 257.932C105.962 257.932 106.586 257.308 106.586 256.57C106.586 255.832 105.962 255.208 105.224 255.208C104.486 255.208 103.862 255.832 103.862 256.57C103.862 257.308 104.486 257.932 105.224 257.932ZM112.246 263.41C110.644 263.41 109.426 262.192 109.426 260.59L109.426 257.23C109.426 255.628 110.644 254.41 112.246 254.41C113.848 254.41 115.066 255.628 115.066 257.23L115.066 260.59C115.066 262.192 113.848 263.41 112.246 263.41ZM112.246 262.558C113.308 262.558 114.172 261.694 114.172 260.632L114.172 257.188C114.172 256.12 113.308 255.256 112.246 255.256C111.184 255.256 110.32 256.12 110.32 257.188L110.32 260.632C110.32 261.694 111.184 262.558 112.246 262.558ZM120.051 263.41C118.449 263.41 117.231 262.192 117.231 260.59L117.231 257.23C117.231 255.628 118.449 254.41 120.051 254.41C121.653 254.41 122.871 255.628 122.871 257.23L122.871 260.59C122.871 262.192 121.653 263.41 120.051 263.41ZM120.051 262.558C121.113 262.558 121.977 261.694 121.977 260.632L121.977 257.188C121.977 256.12 121.113 255.256 120.051 255.256C118.989 255.256 118.125 256.12 118.125 257.188L118.125 260.632C118.125 261.694 118.989 262.558 120.051 262.558ZM125.551 254.512L126.439 254.512L125.599 257.392L124.993 257.392L125.551 254.512ZM127.075 254.512L127.963 254.512L127.123 257.392L126.517 257.392L127.075 254.512Z" fill="#F6F1FF"/>
</svg>
