<svg width="382" height="361" viewBox="0 0 382 361" fill="none" xmlns="http://www.w3.org/2000/svg">
<g opacity="0.2">
<path d="M276.745 127.926C261.817 67.8949 335.903 52.6225 374.812 52.4901C401.016 64.7981 334.712 70.7536 354.961 106.883C375.209 143.013 295.406 202.965 276.745 127.926Z" fill="white"/>
<path d="M180.427 321.387C169.167 284.03 236.97 192.17 272.28 150.909C291.909 182.781 312.28 170.18 312.28 177.592C312.28 185.005 194.501 368.083 180.427 321.387Z" fill="white"/>
<path d="M296.901 234.873C306.931 250.238 313.083 265.742 307.866 282.098C299.89 307.104 268.855 328.128 223.151 327.126C246.605 302.629 273.225 268.159 296.901 234.873ZM110.145 13.3076C129.07 2.05842 176.926 -12.4996 216.946 19.2627C266.972 58.9657 250.296 99.8602 248.708 148.298C248.618 151.048 248.777 153.769 249.153 156.464C231.055 181.202 212.797 208.226 197.543 234.562C194.754 233.739 191.806 233.296 188.755 233.296C171.432 233.296 157.39 247.517 157.39 265.059C157.39 275.465 162.332 284.703 169.97 290.496C166.747 298.884 164.195 306.911 162.449 314.445C137.491 304.96 110.28 289.681 81.5586 267.011C-37.1538 173.311 78.779 24.7051 110.145 13.3076ZM95.0527 175.343C79.0459 175.343 66.0704 188.497 66.0703 204.723C66.0703 220.949 79.0459 234.103 95.0527 234.104C111.06 234.103 124.036 220.949 124.036 204.723C124.036 188.497 111.06 175.343 95.0527 175.343ZM93.4658 85.6113C78.336 85.6113 66.0706 98.0543 66.0703 113.403C66.0703 128.753 78.3359 141.196 93.4658 141.196C108.595 141.196 120.86 128.752 120.86 113.403C120.86 98.0546 108.595 85.6118 93.4658 85.6113ZM174.46 25.2627C158.014 25.2627 144.683 38.5945 144.683 55.04C144.683 71.4855 158.014 84.8174 174.46 84.8174C190.905 84.8171 204.237 71.4853 204.237 55.04C204.237 38.5947 190.905 25.263 174.46 25.2627Z" fill="white"/>
</g>
<g filter="url(#filter0_f_31_148)">
<path d="M167.078 41.4948L174.433 50.0086L184.803 45.6445L178.979 55.2705L186.334 63.7843L175.379 61.2196L169.555 70.8456L168.609 59.6346L157.654 57.0699L168.024 52.7058L167.078 41.4948Z" fill="white"/>
<path d="M94.2774 96.8734L95.9013 108.006L106.991 109.902L96.905 114.887L98.529 126.02L90.6713 117.968L80.585 122.953L85.815 112.991L77.9574 104.939L89.0473 106.835L94.2774 96.8734Z" fill="white"/>
<path d="M189.524 250.242L195.473 259.791L206.394 257.084L199.15 265.693L205.099 275.242L194.673 271.014L187.43 279.623L188.23 268.4L177.804 264.171L188.724 261.464L189.524 250.242Z" fill="white"/>
<path d="M330.912 93.0182L326.261 109.37L340.375 118.846L323.387 119.475L318.736 135.827L312.887 119.864L295.899 120.494L309.273 109.999L303.425 94.0366L317.538 103.513L330.912 93.0182Z" fill="white"/>
<path d="M319.531 112.025L192.993 265.746L192.186 266.726L191.087 266.094L100.227 213.807C100.8 212.99 101.257 212.087 101.572 211.119L191.482 262.859L317.214 110.119L319.531 112.025ZM174.872 56.5399L93.9781 111.863V197.991C93.3029 197.85 92.6034 197.775 91.8864 197.775C91.5803 197.775 91.2773 197.791 90.9781 197.817V110.281L91.6315 109.834L173.178 54.0634L174.872 56.5399Z" fill="white"/>
<circle cx="91.9185" cy="207.623" r="4.97208" fill="white"/>
</g>
<path d="M167.078 41.4948L174.433 50.0086L184.803 45.6445L178.979 55.2705L186.334 63.7843L175.379 61.2196L169.555 70.8456L168.609 59.6346L157.654 57.0699L168.024 52.7058L167.078 41.4948Z" fill="white"/>
<path d="M94.2774 96.8734L95.9013 108.006L106.991 109.902L96.905 114.887L98.529 126.02L90.6713 117.968L80.585 122.953L85.815 112.991L77.9574 104.939L89.0473 106.835L94.2774 96.8734Z" fill="white"/>
<path d="M189.524 250.242L195.473 259.791L206.394 257.084L199.15 265.693L205.099 275.242L194.673 271.014L187.43 279.623L188.23 268.4L177.804 264.171L188.724 261.464L189.524 250.242Z" fill="white"/>
<path d="M330.912 93.0182L326.261 109.37L340.375 118.846L323.387 119.475L318.736 135.827L312.887 119.864L295.899 120.494L309.273 109.999L303.425 94.0366L317.538 103.513L330.912 93.0182Z" fill="white"/>
<path d="M319.531 112.025L192.993 265.746L192.186 266.726L191.087 266.094L100.227 213.807C100.8 212.99 101.257 212.087 101.572 211.119L191.482 262.859L317.214 110.119L319.531 112.025ZM174.872 56.5399L93.9781 111.863V197.991C93.3029 197.85 92.6034 197.775 91.8864 197.775C91.5803 197.775 91.2773 197.791 90.9781 197.817V110.281L91.6315 109.834L173.178 54.0634L174.872 56.5399Z" fill="white"/>
<circle cx="91.9185" cy="207.623" r="4.97208" fill="white"/>
<g filter="url(#filter1_f_31_148)">
<path d="M4.29129 297.877L12.196 297.877L12.2376 298.044C12.4041 298.543 12.4457 298.793 14.0682 301.289L18.6447 308.278L23.0963 301.289C24.802 298.626 24.8436 298.543 25.0101 298.044L25.0517 297.877L28.0472 297.877L28.0472 298.044C27.4647 298.626 26.7158 299.292 24.7604 302.287L19.768 309.984L27.9223 322.548C29.7529 325.378 30.5018 326.251 31.001 326.834L31.001 327L23.0963 327L23.0547 326.834C22.8883 326.334 22.8467 326.085 21.2241 323.589L15.0667 314.186L8.95094 323.589C7.24518 326.21 7.20357 326.334 7.03716 326.834L6.99555 327L4.00007 327L4.00007 326.834C4.58252 326.251 5.373 325.544 7.32839 322.59L13.985 312.522L7.28677 302.287C5.41459 299.417 4.79054 298.626 4.29129 298.044L4.29129 297.877ZM31.4827 297.877L39.5955 297.877L39.5955 297.961C39.8035 298.709 40.802 299.916 42.2165 301.871L50.579 313.604L57.7348 301.871C58.9413 299.916 59.7734 298.709 59.8982 297.961L59.8982 297.877L62.3529 297.877L62.3529 298.044C61.604 298.834 61.0215 299.833 59.815 301.83L48.7068 320.094C45.2953 325.669 42.7574 327.624 39.6787 327.624C36.184 327.624 33.7293 325.294 33.7293 322.008C33.7293 318.721 36.392 316.641 39.2211 316.641C40.6356 316.641 42.1333 317.182 43.3815 318.18L43.007 318.846C42.2582 318.346 41.4677 318.18 40.7604 318.18C38.7218 318.18 37.7233 319.678 37.7233 321.217C37.7233 322.84 38.8466 324.545 41.0932 324.545C42.5494 324.545 44.5048 323.589 46.2521 320.718L47.2506 319.054L34.4366 301.83C32.9805 299.874 32.3148 298.834 31.4827 298.044L31.4827 297.877ZM73.8671 297.877C75.3648 297.877 77.4034 297.586 78.4851 296.712L88.5533 325.253L91.4656 325.253L91.4656 332.325L90.3839 332.325C90.0094 327.666 89.3438 327 85.5578 327L66.3784 327C62.5924 327 61.9268 327.666 61.5523 332.325L60.4706 332.325L60.4706 325.253L63.2581 325.253L73.8671 297.877ZM65.1719 325.253L81.9383 325.253L73.9503 302.287L65.1719 325.253ZM108.307 327.666C99.7366 327.666 92.9136 320.843 92.9136 312.272C92.9136 303.702 99.7366 296.879 108.307 296.879C116.877 296.879 123.701 303.702 123.701 312.272C123.701 320.843 116.877 327.666 108.307 327.666ZM99.8198 312.896C99.8198 320.593 103.231 325.918 108.141 325.918C114.173 325.918 117.294 318.596 117.294 311.565C117.294 303.993 113.84 298.626 108.89 298.626C102.94 298.626 99.8198 305.907 99.8198 312.896ZM128.061 297.877L131.348 297.877L131.348 298.044C131.348 298.418 132.762 299.874 134.925 301.871L143.745 310.15L143.745 302.246C143.745 299.625 143.704 299.125 143.454 298.044L143.454 297.877L150.194 297.877L150.194 298.044C149.944 299.125 149.903 299.625 149.903 302.246L149.903 310.15L158.723 301.871C160.886 299.874 162.301 298.418 162.301 298.044L162.301 297.877L165.588 297.877L165.588 298.044C164.464 298.834 163.424 299.874 161.344 301.83L158.099 304.908L165.671 321.758C167.044 324.837 167.917 325.752 168.791 326.501L168.791 327C165.172 327.999 160.72 326.376 158.806 321.8L153.481 309.069L149.903 312.397L149.903 322.632C149.903 325.253 149.944 325.752 150.194 326.834L150.194 327L143.454 327L143.454 326.834C143.704 325.752 143.746 325.253 143.746 322.632L143.745 312.397L140.168 309.069L134.842 321.8C132.928 326.376 128.477 327.999 124.857 327L124.857 326.501C125.731 325.752 126.605 324.837 127.978 321.758L135.55 304.908L132.304 301.83C130.224 299.874 129.184 298.834 128.061 298.044L128.061 297.877ZM188.789 297.877L195.529 297.877L195.529 298.044C195.363 299.125 195.321 299.625 195.321 302.246L195.321 322.632C195.321 325.253 195.363 325.752 195.529 326.834L195.529 327L188.789 327L188.789 326.834C189.039 325.752 189.08 325.253 189.08 322.632L189.08 308.486L177.431 308.486L177.431 322.632C177.431 325.253 177.473 325.752 177.723 326.834L177.723 327L170.983 327L170.983 326.834C171.149 325.752 171.191 325.253 171.191 322.632L171.191 302.246C171.191 299.625 171.149 299.125 170.983 298.044L170.983 297.877L177.723 297.877L177.723 298.044C177.473 299.125 177.431 299.625 177.431 302.246L177.431 306.739L189.08 306.739L189.08 302.246C189.08 299.625 189.039 299.125 188.789 298.044L188.789 297.877ZM201.903 297.877L208.642 297.877L208.642 298.044C208.393 299.125 208.351 299.625 208.351 302.246L208.351 318.346L226.241 297.877L227.572 297.877C227.239 299.125 227.239 299.749 227.239 306.198L227.239 322.632C227.239 325.253 227.281 325.752 227.447 326.834L227.447 327L220.708 327L220.708 326.834C220.957 325.752 220.999 325.253 220.999 322.632L220.999 306.531L203.109 327L201.778 327C202.111 325.752 202.111 325.128 202.111 323.048L202.111 302.246C202.111 299.625 202.069 299.125 201.903 298.044L201.903 297.877ZM233.832 297.877L240.572 297.877L240.572 298.044C240.323 299.125 240.281 299.625 240.281 302.246L240.281 310.15L248.727 302.246C251.264 299.874 252.679 298.418 252.679 298.044L252.679 297.877L255.966 297.877L255.966 298.044C254.842 298.834 253.802 299.874 251.264 302.246L248.477 304.908L256.049 321.758C257.422 324.837 258.296 325.752 259.169 326.501L259.169 327C255.55 327.999 251.098 326.376 249.184 321.8L243.859 309.069L240.281 312.397L240.281 322.632C240.281 325.253 240.323 325.752 240.572 326.834L240.572 327L233.832 327L233.832 326.834C233.999 325.752 234.04 325.253 234.04 322.632L234.04 302.246C234.04 299.625 233.999 299.125 233.832 298.044L233.832 297.877Z" fill="#F6F1FF"/>
</g>
<path d="M4.29129 297.877L12.196 297.877L12.2376 298.044C12.4041 298.543 12.4457 298.793 14.0682 301.289L18.6447 308.278L23.0963 301.289C24.802 298.626 24.8436 298.543 25.0101 298.044L25.0517 297.877L28.0472 297.877L28.0472 298.044C27.4647 298.626 26.7158 299.292 24.7604 302.287L19.768 309.984L27.9223 322.548C29.7529 325.378 30.5018 326.251 31.001 326.834L31.001 327L23.0963 327L23.0547 326.834C22.8883 326.334 22.8467 326.085 21.2241 323.589L15.0667 314.186L8.95094 323.589C7.24518 326.21 7.20357 326.334 7.03716 326.834L6.99555 327L4.00007 327L4.00007 326.834C4.58252 326.251 5.373 325.544 7.32839 322.59L13.985 312.522L7.28677 302.287C5.41459 299.417 4.79054 298.626 4.29129 298.044L4.29129 297.877ZM31.4827 297.877L39.5955 297.877L39.5955 297.961C39.8035 298.709 40.802 299.916 42.2165 301.871L50.579 313.604L57.7348 301.871C58.9413 299.916 59.7734 298.709 59.8982 297.961L59.8982 297.877L62.3529 297.877L62.3529 298.044C61.604 298.834 61.0215 299.833 59.815 301.83L48.7068 320.094C45.2953 325.669 42.7574 327.624 39.6787 327.624C36.184 327.624 33.7293 325.294 33.7293 322.008C33.7293 318.721 36.392 316.641 39.2211 316.641C40.6356 316.641 42.1333 317.182 43.3815 318.18L43.007 318.846C42.2582 318.346 41.4677 318.18 40.7604 318.18C38.7218 318.18 37.7233 319.678 37.7233 321.217C37.7233 322.84 38.8466 324.545 41.0932 324.545C42.5494 324.545 44.5048 323.589 46.2521 320.718L47.2506 319.054L34.4366 301.83C32.9805 299.874 32.3148 298.834 31.4827 298.044L31.4827 297.877ZM73.8671 297.877C75.3648 297.877 77.4034 297.586 78.4851 296.712L88.5533 325.253L91.4656 325.253L91.4656 332.325L90.3839 332.325C90.0094 327.666 89.3438 327 85.5578 327L66.3784 327C62.5924 327 61.9268 327.666 61.5523 332.325L60.4706 332.325L60.4706 325.253L63.2581 325.253L73.8671 297.877ZM65.1719 325.253L81.9383 325.253L73.9503 302.287L65.1719 325.253ZM108.307 327.666C99.7366 327.666 92.9136 320.843 92.9136 312.272C92.9136 303.702 99.7366 296.879 108.307 296.879C116.877 296.879 123.701 303.702 123.701 312.272C123.701 320.843 116.877 327.666 108.307 327.666ZM99.8198 312.896C99.8198 320.593 103.231 325.918 108.141 325.918C114.173 325.918 117.294 318.596 117.294 311.565C117.294 303.993 113.84 298.626 108.89 298.626C102.94 298.626 99.8198 305.907 99.8198 312.896ZM128.061 297.877L131.348 297.877L131.348 298.044C131.348 298.418 132.762 299.874 134.925 301.871L143.745 310.15L143.745 302.246C143.745 299.625 143.704 299.125 143.454 298.044L143.454 297.877L150.194 297.877L150.194 298.044C149.944 299.125 149.903 299.625 149.903 302.246L149.903 310.15L158.723 301.871C160.886 299.874 162.301 298.418 162.301 298.044L162.301 297.877L165.588 297.877L165.588 298.044C164.464 298.834 163.424 299.874 161.344 301.83L158.099 304.908L165.671 321.758C167.044 324.837 167.917 325.752 168.791 326.501L168.791 327C165.172 327.999 160.72 326.376 158.806 321.8L153.481 309.069L149.903 312.397L149.903 322.632C149.903 325.253 149.944 325.752 150.194 326.834L150.194 327L143.454 327L143.454 326.834C143.704 325.752 143.746 325.253 143.746 322.632L143.745 312.397L140.168 309.069L134.842 321.8C132.928 326.376 128.477 327.999 124.857 327L124.857 326.501C125.731 325.752 126.605 324.837 127.978 321.758L135.55 304.908L132.304 301.83C130.224 299.874 129.184 298.834 128.061 298.044L128.061 297.877ZM188.789 297.877L195.529 297.877L195.529 298.044C195.363 299.125 195.321 299.625 195.321 302.246L195.321 322.632C195.321 325.253 195.363 325.752 195.529 326.834L195.529 327L188.789 327L188.789 326.834C189.039 325.752 189.08 325.253 189.08 322.632L189.08 308.486L177.431 308.486L177.431 322.632C177.431 325.253 177.473 325.752 177.723 326.834L177.723 327L170.983 327L170.983 326.834C171.149 325.752 171.191 325.253 171.191 322.632L171.191 302.246C171.191 299.625 171.149 299.125 170.983 298.044L170.983 297.877L177.723 297.877L177.723 298.044C177.473 299.125 177.431 299.625 177.431 302.246L177.431 306.739L189.08 306.739L189.08 302.246C189.08 299.625 189.039 299.125 188.789 298.044L188.789 297.877ZM201.903 297.877L208.642 297.877L208.642 298.044C208.393 299.125 208.351 299.625 208.351 302.246L208.351 318.346L226.241 297.877L227.572 297.877C227.239 299.125 227.239 299.749 227.239 306.198L227.239 322.632C227.239 325.253 227.281 325.752 227.447 326.834L227.447 327L220.708 327L220.708 326.834C220.957 325.752 220.999 325.253 220.999 322.632L220.999 306.531L203.109 327L201.778 327C202.111 325.752 202.111 325.128 202.111 323.048L202.111 302.246C202.111 299.625 202.069 299.125 201.903 298.044L201.903 297.877ZM233.832 297.877L240.572 297.877L240.572 298.044C240.323 299.125 240.281 299.625 240.281 302.246L240.281 310.15L248.727 302.246C251.264 299.874 252.679 298.418 252.679 298.044L252.679 297.877L255.966 297.877L255.966 298.044C254.842 298.834 253.802 299.874 251.264 302.246L248.477 304.908L256.049 321.758C257.422 324.837 258.296 325.752 259.169 326.501L259.169 327C255.55 327.999 251.098 326.376 249.184 321.8L243.859 309.069L240.281 312.397L240.281 322.632C240.281 325.253 240.323 325.752 240.572 326.834L240.572 327L233.832 327L233.832 326.834C233.999 325.752 234.04 325.253 234.04 322.632L234.04 302.246C234.04 299.625 233.999 299.125 233.832 298.044L233.832 297.877Z" fill="#F6F1FF"/>
<path opacity="0.5" d="M46.9607 360.579L46.9707 359.231L53.5151 353.32C54.631 352.315 54.9125 351.43 54.9125 350.425C54.9125 348.636 53.5352 347.228 51.7559 347.228C49.9062 347.228 48.539 348.716 48.5591 350.415L47.0512 350.415C47.0512 347.771 49.0919 345.811 51.776 345.811C54.4098 345.811 56.4103 347.852 56.4103 350.435C56.4103 352.255 55.767 353.26 54.3596 354.517L49.2125 359.161L56.4103 359.161L56.4103 360.579L46.9607 360.579ZM65.6143 360.589L65.6143 357.784L58.8387 357.784L58.8387 356.376L63.6842 346.113L65.3429 346.113L60.4974 356.376L65.6143 356.376L65.6143 352.154L67.1022 352.154L67.1022 356.376L68.6804 356.376L68.6804 357.784L67.1022 357.784L67.1022 360.589L65.6143 360.589ZM76.6291 360.89C73.945 360.89 71.9043 358.849 71.9043 356.165L71.9043 350.536C71.9043 347.852 73.945 345.811 76.6291 345.811C79.3132 345.811 81.3539 347.852 81.3539 350.536L81.3539 356.165C81.3539 358.849 79.3132 360.89 76.6291 360.89ZM76.6291 359.463C78.4084 359.463 79.8561 358.015 79.8561 356.236L79.8561 350.465C79.8561 348.676 78.4084 347.228 76.6291 347.228C74.8497 347.228 73.4021 348.676 73.4021 350.465L73.4021 356.236C73.4021 358.015 74.8497 359.463 76.6291 359.463ZM87.7948 353.049C85.8043 353.049 84.1758 351.441 84.1758 349.43C84.1758 347.46 85.8647 345.811 87.7948 345.811C89.7853 345.811 91.4138 347.419 91.4138 349.43C91.4138 351.441 89.7853 353.049 87.7948 353.049ZM87.7948 351.712C89.0313 351.712 90.0768 350.666 90.0768 349.43C90.0768 348.193 89.0313 347.148 87.7948 347.148C86.5583 347.148 85.5128 348.193 85.5128 349.43C85.5128 350.666 86.5583 351.712 87.7948 351.712ZM99.5606 360.89C96.8764 360.89 94.8357 358.849 94.8357 356.165L94.8357 350.536C94.8357 347.852 96.8764 345.811 99.5605 345.811C102.245 345.811 104.285 347.852 104.285 350.536L104.285 356.165C104.285 358.849 102.245 360.89 99.5606 360.89ZM99.5605 359.463C101.34 359.463 102.788 358.015 102.788 356.236L102.788 350.465C102.788 348.676 101.34 347.228 99.5605 347.228C97.7812 347.228 96.3336 348.676 96.3336 350.465L96.3336 356.236C96.3336 358.015 97.7812 359.463 99.5605 359.463ZM112.636 360.89C109.952 360.89 107.911 358.849 107.911 356.165L107.911 350.536C107.911 347.852 109.952 345.811 112.636 345.811C115.32 345.811 117.361 347.852 117.361 350.536L117.361 356.165C117.361 358.849 115.32 360.89 112.636 360.89ZM112.636 359.463C114.416 359.463 115.863 358.015 115.863 356.236L115.863 350.465C115.863 348.676 114.416 347.228 112.636 347.228C110.857 347.228 109.409 348.676 109.409 350.465L109.409 356.236C109.409 358.015 110.857 359.463 112.636 359.463ZM121.852 345.982L123.34 345.982L121.932 350.807L120.917 350.807L121.852 345.982ZM124.405 345.982L125.893 345.982L124.486 350.807L123.47 350.807L124.405 345.982ZM133.9 354.889L133.9 353.622L142.345 353.622L142.345 354.889L133.9 354.889ZM155.489 360.89C152.764 360.89 150.593 358.719 150.593 355.894L150.593 350.878C150.593 347.972 152.734 345.821 155.599 345.821C157.248 345.821 158.726 346.585 159.63 347.882L158.494 348.817C157.881 347.862 156.795 347.228 155.599 347.228C153.558 347.228 152.091 348.877 152.091 350.747L152.091 352.969C152.945 351.923 154.212 351.26 155.629 351.26C158.313 351.26 160.394 353.371 160.394 356.055C160.394 358.729 158.173 360.89 155.489 360.89ZM155.489 359.453C157.378 359.453 158.907 357.945 158.907 356.055C158.907 354.165 157.389 352.637 155.499 352.637C153.609 352.637 152.091 354.165 152.091 356.055C152.091 357.925 153.599 359.453 155.489 359.453ZM168.59 360.89C165.906 360.89 163.865 358.849 163.865 356.165L163.865 350.536C163.865 347.852 165.906 345.811 168.59 345.811C171.274 345.811 173.315 347.852 173.315 350.536L173.315 356.165C173.315 358.849 171.274 360.89 168.59 360.89ZM168.59 359.463C170.369 359.463 171.817 358.015 171.817 356.236L171.817 350.465C171.817 348.676 170.369 347.228 168.59 347.228C166.81 347.228 165.363 348.676 165.363 350.465L165.363 356.236C165.363 358.015 166.81 359.463 168.59 359.463ZM179.755 353.049C177.765 353.049 176.136 351.441 176.136 349.43C176.136 347.46 177.825 345.811 179.755 345.811C181.746 345.811 183.374 347.419 183.374 349.43C183.374 351.44 181.746 353.049 179.755 353.049ZM179.755 351.712C180.992 351.712 182.037 350.666 182.037 349.43C182.037 348.193 180.992 347.148 179.755 347.148C178.519 347.148 177.473 348.193 177.473 349.43C177.473 350.666 178.519 351.712 179.755 351.712ZM191.521 360.89C188.837 360.89 186.796 358.849 186.796 356.165L186.796 350.536C186.796 347.852 188.837 345.811 191.521 345.811C194.205 345.811 196.246 347.852 196.246 350.536L196.246 356.165C196.246 358.849 194.205 360.89 191.521 360.89ZM191.521 359.463C193.301 359.463 194.748 358.015 194.748 356.236L194.748 350.465C194.748 348.676 193.301 347.228 191.521 347.228C189.742 347.228 188.294 348.676 188.294 350.465L188.294 356.236C188.294 358.015 189.742 359.463 191.521 359.463ZM204.597 360.89C201.913 360.89 199.872 358.849 199.872 356.165L199.872 350.536C199.872 347.852 201.913 345.811 204.597 345.811C207.281 345.811 209.322 347.852 209.322 350.536L209.322 356.165C209.322 358.849 207.281 360.89 204.597 360.89ZM204.597 359.463C206.376 359.463 207.824 358.015 207.824 356.236L207.824 350.465C207.824 348.676 206.376 347.228 204.597 347.228C202.818 347.228 201.37 348.676 201.37 350.465L201.37 356.236C201.37 358.015 202.818 359.463 204.597 359.463ZM213.812 345.982L215.3 345.982L213.893 350.807L212.877 350.807L213.812 345.982ZM216.366 345.982L217.854 345.982L216.446 350.807L215.431 350.807L216.366 345.982Z" fill="#F6F1FF"/>
<defs>
<filter id="filter0_f_31_148" x="67.9574" y="31.4948" width="282.418" height="258.128" filterUnits="userSpaceOnUse" color-interpolation-filters="sRGB">
<feFlood flood-opacity="0" result="BackgroundImageFix"/>
<feBlend mode="normal" in="SourceGraphic" in2="BackgroundImageFix" result="shape"/>
<feGaussianBlur stdDeviation="5" result="effect1_foregroundBlur_31_148"/>
</filter>
<filter id="filter1_f_31_148" x="0" y="292.712" width="263.169" height="43.613" filterUnits="userSpaceOnUse" color-interpolation-filters="sRGB">
<feFlood flood-opacity="0" result="BackgroundImageFix"/>
<feBlend mode="normal" in="SourceGraphic" in2="BackgroundImageFix" result="shape"/>
<feGaussianBlur stdDeviation="2" result="effect1_foregroundBlur_31_148"/>
</filter>
</defs>
</svg>
