<svg width="75" height="144" viewBox="0 0 75 144" fill="none" xmlns="http://www.w3.org/2000/svg">
<path opacity="0.2" d="M71.3813 8.40741C52.1301 -10.9988 37.9143 9.41452 41.6716 30.835C41.7491 33.4689 34.5444 34.3598 32.7238 40.2476C24.3183 59.6151 24.512 81.6165 20.7935 102.185C21.878 109.428 29.4701 96.4133 34.5831 87.5042C28.308 103.308 34.1958 122.792 32.2977 139.796C32.2977 142.043 33.4985 143.438 35.3578 143.476C42.3301 141.346 37.372 129.067 38.8052 123.257C48.1791 142.624 44.5767 94.4765 44.9254 84.6379C45.2352 84.2505 45.4676 83.8244 45.5838 83.3596C45.8163 84.0181 46.0487 84.6766 46.5522 85.1414C47.0558 85.6062 47.8692 85.8386 48.4115 85.4126C49.07 84.909 48.9925 83.9019 48.8376 83.0885C50.0771 84.5604 52.2075 85.2189 54.0668 84.6766C54.2217 84.6379 54.4154 84.5604 54.5316 84.4442C54.6866 84.2892 54.7253 84.0956 54.764 83.9019C55.0352 82.5074 54.8415 80.958 53.9119 79.8735C52.9048 78.6727 51.2392 78.2853 49.6898 77.9754C49.3024 77.898 48.9151 77.8205 48.489 77.7818C54.8415 72.3201 59.5672 64.9992 63.0533 57.4459C67.779 47.2586 69.9869 37.0326 64.0992 26.4966C63.8668 25.9156 63.3632 25.7219 62.7822 25.7219C59.6059 26.3417 56.4684 26.7291 53.4083 25.1797C53.1372 25.0247 52.7886 25.1022 52.5174 25.3346C52.3237 25.567 52.1688 25.8381 51.9751 26.0706C52.2075 22.0034 46.0874 19.4081 49.651 12.6295C53.6407 3.25565 64.2541 9.53072 71.3813 8.40741ZM46.0874 79.8347C46.0874 79.796 46.0874 79.796 46.0874 79.8347C46.1649 79.7572 46.2036 79.7572 46.0874 79.8347Z" fill="white"/>
<path opacity="0.2" d="M65.7258 24.4828C61.3875 22.4298 65.8807 16.8907 66.4617 13.6757C72.5819 5.92873 77.4237 24.6765 71.2649 28.1239C71.8846 22.3911 69.9866 24.2504 65.7258 24.4828Z" fill="white"/>
<path opacity="0.2" d="M57.7863 16.7297C56.5856 16.4814 55.7721 15.6124 55.7334 13.8743C55.6947 12.0121 56.4306 10.7086 57.6314 10.7707C58.716 10.8328 59.4132 11.9501 59.452 13.7502C59.4907 15.6124 58.6773 16.3572 57.7863 16.7297Z" fill="white"/>
<path fill-rule="evenodd" clip-rule="evenodd" d="M44.6911 67.8584L59.937 47.0223L59.0269 46.3564L43.5962 67.4451C43.993 67.5098 44.3635 67.6531 44.6911 67.8584ZM42.4676 67.4766L41.2403 62.3628C40.9011 62.5094 40.5292 62.5947 40.1386 62.6047L41.4182 67.9364C41.7299 67.7198 42.0849 67.5613 42.4676 67.4766ZM37.9941 61.7701C38.2733 62.04 38.6051 62.2556 38.9727 62.4002L8.8495 90.3718L7.94434 89.7443L20.6038 58.9457L21.6468 59.3744L9.96325 87.7988L37.9941 61.7701Z" fill="white"/>
<circle cx="39.8784" cy="60.6006" r="1.29881" fill="white"/>
<circle cx="43.1025" cy="69.4609" r="1.29881" fill="white"/>
<path d="M23.6518 49.7026L24.1316 54.8587L29.1837 55.9957L24.4282 58.0454L24.9081 63.2015L21.4892 59.3122L16.7337 61.3619L19.3762 56.9084L15.9573 53.0191L21.0093 54.156L23.6518 49.7026Z" fill="white"/>
<path d="M61.0192 42.2385L60.378 45.9988L63.7561 47.7706L59.9817 48.3228L59.3405 52.0831L57.649 48.664L53.8746 49.2162L56.6036 46.551L54.9121 43.1319L58.2902 44.9037L61.0192 42.2385Z" fill="white"/>
<path d="M10.2039 80.586L11.652 86.7263L17.9392 87.2464L12.547 90.5211L13.9952 96.6613L9.21449 92.545L3.82231 95.8197L6.25985 90.001L1.47914 85.8846L7.76633 86.4048L10.2039 80.586Z" fill="white"/>
</svg>
