<svg width="110" height="115" viewBox="0 0 110 115" fill="none" xmlns="http://www.w3.org/2000/svg">
<g opacity="0.2">
<path d="M40.3038 0.447133C56.7282 2.75066 109.56 2.26374 109.035 24.1754C106.563 40.2065 100.589 102.664 82.0295 102.851C63.4702 103.975 3.29746 100.211 0.600642 77.4375C0.581914 60.0019 5.24516 42.9033 8.0918 25.7673C10.0395 6.38388 22.0254 -1.80021 40.3038 0.447133ZM68.4893 95.2103C75.119 94.6297 82.9285 94.9294 87.0112 88.6181C94.7271 69.6467 98.6225 48.428 101.151 28.1082C101.301 12.5641 82.8161 11.4966 71.2797 9.4178C57.8706 7.61992 44.2366 4.9231 30.7151 6.55243C10.0395 8.25667 10.0208 54.4584 7.49251 70.9764C10.002 92.757 51.4843 92.1577 68.4893 95.2103ZM19.5345 89.311C19.4971 86.0149 14.6653 85.9213 14.6091 89.2548C14.478 92.1202 19.6282 92.1764 19.5345 89.311ZM25.902 91.5958C25.902 88.3184 21.0515 88.1312 20.9766 91.4647C20.8455 94.3863 25.9395 94.4425 25.902 91.5958ZM32.8314 93.6184C32.8126 90.3785 28.0557 90.1912 27.9059 93.4499C27.6999 96.4276 32.8688 96.5587 32.8314 93.6184ZM77.9656 99.8361C77.9843 96.5587 73.1525 96.3527 73.0402 99.6863C72.8716 102.608 78.0031 102.701 77.9656 99.8361Z" fill="white"/>
<path d="M74.1267 113.301C72.5161 113.563 70.9055 113.863 69.2949 114.05C61.8599 114.893 54.4062 115.024 46.9525 114.593C36.8769 114.013 26.8949 112.777 17.1377 110.117C15.9765 109.799 14.8528 109.312 13.7104 108.881C13.5419 108.825 13.4295 108.675 13.1299 108.469C20.2652 105.417 27.6253 105.436 35.1352 105.698C34.8168 107.027 35.7532 107.421 36.6896 107.777C40.1917 109.087 43.7125 109.443 47.2521 107.889C47.4394 107.814 47.6829 107.777 47.8701 107.814C55.867 109.275 63.8825 110.736 71.8793 112.234C72.6472 112.384 73.3963 112.721 74.1454 112.964C74.1267 113.077 74.1267 113.189 74.1267 113.301Z" fill="white"/>
<path d="M37.2881 101.054C39.8164 101.522 42.251 101.99 44.7418 102.44C44.7418 103.994 44.7418 105.492 44.7418 107.122C42.1948 107.59 39.7227 107.365 37.2881 106.504C37.2881 104.706 37.2881 102.945 37.2881 101.054Z" fill="white"/>
<path d="M43.3189 7.69479C47.3828 7.41387 52.2708 8.4439 57.215 9.19302C64.369 10.2792 71.5418 11.2344 78.6772 12.3768C82.7973 13.0322 86.8987 13.9125 90.7192 15.6916C93.4722 16.9651 95.9443 18.6132 97.5736 21.2912C98.7909 23.2951 99.2217 25.505 99.2778 27.8273C99.3715 32.1347 98.5475 36.3297 97.7234 40.5248C95.1764 53.5781 92.1238 66.5004 88.7715 79.3477C88.116 81.8573 87.1983 84.3668 85.9998 86.6703C84.0708 90.4159 80.5874 92.0265 76.5984 92.7007C72.1786 93.4498 67.7588 93.3 63.339 92.888C51.5779 91.8018 39.9853 89.6855 28.5426 86.7265C24.2539 85.6216 20.115 84.0297 16.2196 81.8573C10.9383 78.9357 8.87827 74.4036 9.25283 68.5417C9.79594 60.3764 11.1443 52.3046 12.6426 44.2704C13.8599 37.7156 15.0772 31.1421 16.4631 24.6248C16.9874 22.1527 17.8864 19.6994 18.879 17.3584C20.9952 12.4142 24.7783 9.45521 30.0783 8.42518C34.1797 7.61988 38.2623 7.65733 43.3189 7.69479Z" fill="white"/>
<path d="M17.0623 90.678C16.051 90.678 15.358 90.06 15.3393 89.1236C15.3206 88.131 15.8824 87.5879 16.9125 87.5879C17.8489 87.5879 18.6916 88.3932 18.7103 89.2734C18.7478 90.06 18.0361 90.678 17.0623 90.678Z" fill="white"/>
<path d="M23.4482 92.9251C22.4369 92.9438 21.744 92.307 21.7065 91.3706C21.6878 90.3781 22.2309 89.835 23.2609 89.835C24.1786 89.835 25.0401 90.6215 25.0775 91.5017C25.115 92.307 24.4221 92.9063 23.4482 92.9251Z" fill="white"/>
<path d="M30.3587 94.9851C29.3474 94.9851 28.6545 94.3484 28.6357 93.412C28.6357 92.4194 29.2163 91.8763 30.2276 91.895C31.1453 91.9137 32.0068 92.719 32.0068 93.5992C32.0442 94.3858 31.3326 94.9851 30.3587 94.9851Z" fill="white"/>
<path d="M75.5125 101.165C74.5012 101.165 73.7895 100.547 73.7895 99.6109C73.7708 98.6183 74.3139 98.0752 75.3627 98.0752C76.2991 98.0752 77.1418 98.8618 77.1793 99.7607C77.198 100.547 76.4864 101.165 75.5125 101.165Z" fill="white"/>
</g>
<path fill-rule="evenodd" clip-rule="evenodd" d="M33.0869 18.7891L33.9291 19.1873L69.6813 36.0918C69.5029 36.443 69.3939 36.8355 69.3725 37.251L34.2669 20.6522V54.8052C34.2257 54.8035 34.1843 54.8027 34.1428 54.8027C33.7714 54.8027 33.4157 54.8695 33.0869 54.9919V19.7206V18.7891ZM70.0847 39.3113L60.4145 50.0559L60.0739 50.4344L60.3986 50.8267L73.4314 66.5748C73.6608 66.2504 73.9525 65.9731 74.289 65.7603L61.6322 50.4667L71.0292 40.0257C70.6668 39.8541 70.3457 39.6097 70.0847 39.3113ZM73.023 69.2502L59.8701 74.9835L50.0918 55.9909C49.8031 56.2581 49.4446 56.4509 49.0467 56.5388L59.0742 76.0154L59.3274 76.5072L59.8345 76.2862L73.6017 70.2851C73.3455 69.9851 73.1469 69.6344 73.023 69.2502ZM37.0386 56.9458L46.3169 54.6263C46.3704 55.0383 46.5349 55.4155 46.7794 55.7269L37.1547 58.1331C37.1646 58.0333 37.1697 57.932 37.1697 57.8296C37.1697 57.5221 37.1238 57.2254 37.0386 56.9458Z" fill="white"/>
<circle cx="71.7359" cy="37.4576" r="1.58555" fill="white"/>
<circle cx="48.4815" cy="54.8028" r="1.0948" fill="white"/>
<circle cx="74.6114" cy="68.3175" r="1.0948" fill="white"/>
<circle cx="34.6219" cy="56.992" r="1.47733" fill="white"/>
<path d="M33.0314 12.7686L34.5923 17.5725L39.6434 17.5725L35.5569 20.5414L37.1178 25.3454L33.0314 22.3764L28.9449 25.3454L30.5058 20.5414L26.4194 17.5725L31.4705 17.5725L33.0314 12.7686Z" fill="white"/>
<path d="M60.2514 47.4492L61.8167 49.2611L64.0236 48.3323L62.7841 50.3809L64.3494 52.1928L62.018 51.647L60.7785 53.6956L60.5772 51.3097L58.2458 50.7639L60.4528 49.8351L60.2514 47.4492Z" fill="white"/>
<path d="M59.9351 70.2197L61.09 73.7742L64.8273 73.7742L61.8037 75.9709L62.9586 79.5254L59.9351 77.3286L56.9115 79.5254L58.0664 75.9709L55.0428 73.7742L58.7801 73.7742L59.9351 70.2197Z" fill="white"/>
</svg>
