<svg width="457" height="339" viewBox="0 0 457 339" fill="none" xmlns="http://www.w3.org/2000/svg">
<g opacity="0.2">
<rect x="130.178" y="82.1782" width="283.523" height="184.235" rx="20" fill="white"/>
<path d="M143.274 28.1212C154.32 28.1214 163.274 37.0757 163.274 48.1212V63.424H34.751C29.5721 63.424 25.374 67.622 25.374 72.8009C25.374 77.9798 29.5721 82.1779 34.751 82.1779H111.493C110.734 84.2899 110.32 86.5663 110.32 88.9396V97.6232H34.751C29.5721 97.6232 25.3741 101.821 25.374 107C25.374 112.179 29.5721 116.377 34.751 116.377H110.32V131.822H34.751C29.5721 131.822 25.3741 136.021 25.374 141.199C25.374 146.378 29.5721 150.576 34.751 150.576H110.32V259.651C110.32 270.697 119.275 279.651 130.32 279.651H163.274V318.121C163.274 329.167 154.32 338.121 143.274 338.121H20C8.95431 338.121 0 329.167 0 318.121V48.1212C0 37.0755 8.95431 28.1212 20 28.1212H143.274ZM81.6367 270.826C71.2791 270.826 62.8829 279.223 62.8828 289.58C62.8828 299.938 71.2791 308.335 81.6367 308.335C91.9945 308.335 100.392 299.938 100.392 289.58C100.392 279.222 91.9945 270.826 81.6367 270.826ZM81.6367 242.143C76.458 242.143 72.2598 246.341 72.2598 251.52C72.2598 256.698 76.458 260.896 81.6367 260.897C86.8156 260.897 91.0146 256.699 91.0146 251.52C91.0146 246.341 86.8156 242.143 81.6367 242.143Z" fill="white"/>
<rect x="237.189" y="286.271" width="63.9858" height="51.8505" fill="white"/>
<rect x="200.783" y="318.264" width="135.694" height="19.8577" rx="9.92883" fill="white"/>
</g>
<g filter="url(#filter0_f_31_104)">
<path d="M292.047 311.311L339.769 290.509C340.136 291.459 340.632 292.344 341.236 293.143L291.957 314.625L290.668 315.186L290.024 313.936L254.081 244.124C255.058 243.826 255.955 243.347 256.737 242.729L292.047 311.311ZM329.431 182.88C330.136 183.596 330.943 184.211 331.83 184.7L297.842 222.465L343.591 277.746C342.772 278.332 342.037 279.028 341.409 279.814L294.705 223.381L293.88 222.383L294.746 221.421L329.431 182.88ZM243.771 238.029C243.983 239.045 244.385 239.991 244.939 240.829L210.812 249.361C210.817 249.215 210.823 249.068 210.823 248.92C210.823 248.032 210.714 247.169 210.513 246.342L243.771 238.029ZM198.923 110.728L327.298 171.427C326.898 172.347 326.628 173.336 326.509 174.372L199.781 114.453V238.055C198.739 238.071 197.733 238.233 196.781 238.523V109.716L198.923 110.728Z" fill="white"/>
<circle cx="334.939" cy="175.772" r="5.69314" fill="white"/>
<circle cx="251.44" cy="238.052" r="3.93102" fill="white"/>
<circle cx="345.264" cy="286.578" r="3.93102" fill="white"/>
<circle cx="201.675" cy="245.914" r="5.30456" fill="white"/>
<path d="M195.963 87.1212L201.568 104.37H219.704L205.032 115.031L210.636 132.28L195.963 121.619L181.29 132.28L186.895 115.031L172.222 104.37H190.359L195.963 87.1212Z" fill="white"/>
<path d="M293.701 211.648L299.321 218.154L307.246 214.819L302.795 222.175L308.415 228.68L300.044 226.721L295.594 234.076L294.871 225.509L286.5 223.55L294.424 220.215L293.701 211.648Z" fill="white"/>
<path d="M292.564 293.408L296.711 306.171H310.13L299.274 314.058L303.42 326.821L292.564 318.933L281.707 326.821L285.854 314.058L274.998 306.171H288.417L292.564 293.408Z" fill="white"/>
</g>
<path d="M292.047 311.311L335.999 292.153C336.467 293.071 337.06 293.914 337.758 294.659L291.957 314.625L290.668 315.186L290.024 313.936L255.202 246.301C256.103 245.778 256.893 245.088 257.531 244.271L292.047 311.311ZM327.618 184.895C328.431 185.517 329.337 186.022 330.314 186.384L297.842 222.465L342.775 276.76C341.756 277.043 340.798 277.469 339.923 278.018L294.705 223.381L293.88 222.383L294.746 221.421L327.618 184.895ZM243.099 238.197C243.051 238.552 243.025 238.914 243.025 239.283C243.025 239.96 243.108 240.618 243.265 241.248L212.156 249.025C212.385 248.147 212.509 247.226 212.509 246.276C212.509 246.132 212.503 245.989 212.497 245.846L243.099 238.197ZM198.923 110.728L325.468 170.562C324.887 171.372 324.421 172.268 324.09 173.228L199.781 114.453V235.568C198.721 235.751 197.713 236.087 196.781 236.553V109.716L198.923 110.728Z" fill="white"/>
<circle cx="334.939" cy="175.772" r="5.69314" fill="white"/>
<circle cx="251.44" cy="238.052" r="3.93102" fill="white"/>
<circle cx="345.264" cy="286.578" r="3.93102" fill="white"/>
<circle cx="201.675" cy="245.914" r="5.30456" fill="white"/>
<path d="M195.963 87.1212L201.568 104.37H219.704L205.032 115.031L210.636 132.28L195.963 121.619L181.29 132.28L186.895 115.031L172.222 104.37H190.359L195.963 87.1212Z" fill="white"/>
<path d="M293.701 211.648L299.321 218.154L307.246 214.819L302.795 222.175L308.415 228.68L300.044 226.721L295.594 234.076L294.871 225.509L286.5 223.55L294.424 220.215L293.701 211.648Z" fill="white"/>
<path d="M292.564 293.408L296.711 306.171H310.13L299.274 314.058L303.42 326.821L292.564 318.933L281.707 326.821L285.854 314.058L274.998 306.171H288.417L292.564 293.408Z" fill="white"/>
<path d="M179.408 4.99856L186.148 4.99856L186.148 5.16498C185.898 6.24668 185.857 6.74593 185.857 9.36698L185.857 17.2717L194.302 9.36697C196.84 6.99555 198.255 5.53941 198.255 5.16497L198.255 4.99856L201.542 4.99855L201.542 5.16497C200.418 5.95545 199.378 6.99555 196.84 9.36697L194.053 12.0296L201.625 28.8792C202.998 31.9579 203.871 32.8732 204.745 33.6221L204.745 34.1213C201.125 35.1198 196.674 33.4973 194.76 28.9208L189.435 16.19L185.857 19.5183L185.857 29.7529C185.857 32.374 185.898 32.8732 186.148 33.9549L186.148 34.1213L179.408 34.1213L179.408 33.9549C179.575 32.8732 179.616 32.374 179.616 29.7529L179.616 9.36698C179.616 6.74593 179.575 6.24668 179.408 5.16498L179.408 4.99856ZM221.591 34.787C213.02 34.787 206.197 27.9639 206.197 19.3935C206.197 10.8231 213.02 4.00006 221.591 4.00005C230.161 4.00005 236.984 10.8231 236.984 19.3935C236.984 27.9639 230.161 34.787 221.591 34.787ZM213.104 20.0176C213.104 27.7143 216.515 33.0396 221.424 33.0396C227.457 33.0396 230.577 25.7173 230.577 18.6862C230.577 11.1143 227.124 5.74742 222.173 5.74742C216.224 5.74742 213.104 13.0281 213.104 20.0176ZM242.177 4.99854L244.673 4.99854L257.154 25.01L270.051 4.99853L272.547 4.99853C272.381 6.08023 272.339 6.57948 272.339 8.78449L272.339 29.7529C272.339 32.3739 272.381 32.8732 272.547 33.9549L272.547 34.1213L265.808 34.1213L265.808 33.9549C266.057 32.8732 266.099 32.3739 266.099 29.7529L266.099 14.3594L254.45 32.3739L254.408 32.3739L244.132 15.982L244.132 29.7529C244.132 32.3739 244.174 32.8732 244.423 33.9549L244.423 34.1213L242.177 34.1213L242.177 33.9549C242.343 32.8732 242.385 32.3739 242.385 29.7529L242.385 8.7845C242.385 6.57949 242.343 6.08024 242.177 4.99854ZM278.782 4.99853L303.328 4.99852L303.328 5.16494C303.161 6.24664 303.12 6.74589 303.12 9.36694L303.12 29.7529C303.12 32.3739 303.161 32.8732 303.328 33.9549L303.328 34.1213L296.588 34.1213L296.588 33.9549C296.838 32.8732 296.879 32.3739 296.879 29.7529L296.879 6.74589L285.23 6.74589L285.23 29.7529C285.23 32.3739 285.272 32.8732 285.521 33.9549L285.521 34.1213L278.782 34.1213L278.782 33.9549C278.948 32.8732 278.99 32.3739 278.99 29.7529L278.99 9.36694C278.99 6.74589 278.948 6.24665 278.782 5.16494L278.782 4.99853ZM309.577 4.99852L316.316 4.99852L316.316 5.16493C316.067 6.24664 316.025 6.74588 316.025 9.36693L316.025 32.3739L318.771 32.3739C323.556 32.3739 325.927 28.4631 325.927 24.5524C325.927 20.5168 323.389 16.4396 318.272 16.4396L317.689 16.4396L317.689 15.1915C318.688 15.0667 319.645 14.9835 320.643 14.9835C326.593 14.9835 332.084 17.5213 332.084 23.8451C332.084 30.2937 327.55 34.1213 319.853 34.1213L309.577 34.1213L309.577 33.9549C309.743 32.8732 309.785 32.3739 309.785 29.7529L309.785 9.36693C309.785 6.74588 309.743 6.24664 309.577 5.16493L309.577 4.99852ZM362.198 34.7869C353.669 34.7869 346.888 28.0471 346.805 19.5599L342.603 19.7679L342.603 29.7529C342.603 32.3739 342.644 32.8732 342.811 33.9549L342.811 34.1213L336.154 34.1213L336.154 33.9549C336.32 32.8732 336.362 32.3739 336.362 29.7529L336.362 9.36693C336.362 6.74587 336.32 6.24663 336.154 5.16492L336.154 4.99851L342.811 4.99851L342.811 5.16492C342.644 6.24663 342.603 6.74587 342.603 9.36692L342.603 18.187L346.846 18.187C347.47 10.199 354.044 4.00001 362.198 4.00001C370.769 4 377.592 10.8231 377.592 19.3935C377.592 27.9639 370.769 34.7869 362.198 34.7869ZM353.711 20.0175C353.711 27.7143 357.122 33.0396 362.032 33.0396C368.064 33.0396 371.185 25.7173 371.185 18.6862C371.185 11.1143 367.731 5.74737 362.781 5.74737C356.831 5.74737 353.711 13.0281 353.711 20.0175ZM382.163 4.99849L401.3 4.99849L401.3 7.03708L401.134 7.03708C400.052 6.78746 399.553 6.74585 397.348 6.74585L394.852 6.74585L394.852 29.7528C394.852 32.2907 394.893 32.7483 395.101 33.7468L395.143 33.9548L395.143 34.1213L388.32 34.1213L388.32 33.9549L388.362 33.7468C388.57 32.7483 388.611 32.2907 388.611 29.7529L388.611 6.74586L386.115 6.74586C383.91 6.74586 383.411 6.78746 382.329 7.03709L382.163 7.03709L382.163 4.99849ZM405.253 4.99849L423.475 4.99848L423.475 7.16189L423.309 7.16189C422.227 6.74585 421.603 6.74585 419.523 6.74585L411.701 6.74585L411.701 13.8601L420.23 13.8601L420.23 15.6075L411.701 15.6075L411.701 32.3739L421.062 32.3739C423.267 32.3739 423.766 32.3323 424.848 32.0827L425.015 32.0827L425.015 34.1213L405.253 34.1213L405.253 33.9548C405.419 32.8731 405.461 32.3739 405.461 29.7528L405.461 9.3669C405.461 6.74585 405.419 6.24661 405.253 5.1649L405.253 4.99849ZM440.363 4.99847C447.561 4.99847 452.096 8.4516 452.096 14.1929C452.096 20.6832 446.188 24.0115 439.989 24.0115C439.24 24.0115 438.449 23.9283 437.701 23.8451L437.701 22.597L438.241 22.597C442.693 22.5969 445.855 19.6431 445.855 14.5258C445.855 9.5333 443.442 6.74584 438.99 6.74584L436.036 6.74584L436.036 29.7528C436.036 32.3739 436.078 32.8731 436.244 33.9548L436.244 34.1213L429.588 34.1213L429.588 33.9548C429.754 32.8731 429.796 32.3739 429.796 29.7528L429.796 9.36689C429.796 6.74584 429.754 6.2466 429.588 5.16489L429.588 4.99848L440.363 4.99847Z" fill="#F6F1FF"/>
<g filter="url(#filter1_f_31_104)">
<path d="M179.408 4.99856L186.148 4.99856L186.148 5.16498C185.898 6.24668 185.857 6.74593 185.857 9.36698L185.857 17.2717L194.302 9.36697C196.84 6.99555 198.255 5.53941 198.255 5.16497L198.255 4.99856L201.542 4.99855L201.542 5.16497C200.418 5.95545 199.378 6.99555 196.84 9.36697L194.053 12.0296L201.625 28.8792C202.998 31.9579 203.871 32.8732 204.745 33.6221L204.745 34.1213C201.125 35.1198 196.674 33.4973 194.76 28.9208L189.435 16.19L185.857 19.5183L185.857 29.7529C185.857 32.374 185.898 32.8732 186.148 33.9549L186.148 34.1213L179.408 34.1213L179.408 33.9549C179.575 32.8732 179.616 32.374 179.616 29.7529L179.616 9.36698C179.616 6.74593 179.575 6.24668 179.408 5.16498L179.408 4.99856ZM221.591 34.787C213.02 34.787 206.197 27.9639 206.197 19.3935C206.197 10.8231 213.02 4.00006 221.591 4.00005C230.161 4.00005 236.984 10.8231 236.984 19.3935C236.984 27.9639 230.161 34.787 221.591 34.787ZM213.104 20.0176C213.104 27.7143 216.515 33.0396 221.424 33.0396C227.457 33.0396 230.577 25.7173 230.577 18.6862C230.577 11.1143 227.124 5.74742 222.173 5.74742C216.224 5.74742 213.104 13.0281 213.104 20.0176ZM242.177 4.99854L244.673 4.99854L257.154 25.01L270.051 4.99853L272.547 4.99853C272.381 6.08023 272.339 6.57948 272.339 8.78449L272.339 29.7529C272.339 32.3739 272.381 32.8732 272.547 33.9549L272.547 34.1213L265.808 34.1213L265.808 33.9549C266.057 32.8732 266.099 32.3739 266.099 29.7529L266.099 14.3594L254.45 32.3739L254.408 32.3739L244.132 15.982L244.132 29.7529C244.132 32.3739 244.174 32.8732 244.423 33.9549L244.423 34.1213L242.177 34.1213L242.177 33.9549C242.343 32.8732 242.385 32.3739 242.385 29.7529L242.385 8.7845C242.385 6.57949 242.343 6.08024 242.177 4.99854ZM278.782 4.99853L303.328 4.99852L303.328 5.16494C303.161 6.24664 303.12 6.74589 303.12 9.36694L303.12 29.7529C303.12 32.3739 303.161 32.8732 303.328 33.9549L303.328 34.1213L296.588 34.1213L296.588 33.9549C296.838 32.8732 296.879 32.3739 296.879 29.7529L296.879 6.74589L285.23 6.74589L285.23 29.7529C285.23 32.3739 285.272 32.8732 285.521 33.9549L285.521 34.1213L278.782 34.1213L278.782 33.9549C278.948 32.8732 278.99 32.3739 278.99 29.7529L278.99 9.36694C278.99 6.74589 278.948 6.24665 278.782 5.16494L278.782 4.99853ZM309.577 4.99852L316.316 4.99852L316.316 5.16493C316.067 6.24664 316.025 6.74588 316.025 9.36693L316.025 32.3739L318.771 32.3739C323.556 32.3739 325.927 28.4631 325.927 24.5524C325.927 20.5168 323.389 16.4396 318.272 16.4396L317.689 16.4396L317.689 15.1915C318.688 15.0667 319.645 14.9835 320.643 14.9835C326.593 14.9835 332.084 17.5213 332.084 23.8451C332.084 30.2937 327.55 34.1213 319.853 34.1213L309.577 34.1213L309.577 33.9549C309.743 32.8732 309.785 32.3739 309.785 29.7529L309.785 9.36693C309.785 6.74588 309.743 6.24664 309.577 5.16493L309.577 4.99852ZM362.198 34.7869C353.669 34.7869 346.888 28.0471 346.805 19.5599L342.603 19.7679L342.603 29.7529C342.603 32.3739 342.644 32.8732 342.811 33.9549L342.811 34.1213L336.154 34.1213L336.154 33.9549C336.32 32.8732 336.362 32.3739 336.362 29.7529L336.362 9.36693C336.362 6.74587 336.32 6.24663 336.154 5.16492L336.154 4.99851L342.811 4.99851L342.811 5.16492C342.644 6.24663 342.603 6.74587 342.603 9.36692L342.603 18.187L346.846 18.187C347.47 10.199 354.044 4.00001 362.198 4.00001C370.769 4 377.592 10.8231 377.592 19.3935C377.592 27.9639 370.769 34.7869 362.198 34.7869ZM353.711 20.0175C353.711 27.7143 357.122 33.0396 362.032 33.0396C368.064 33.0396 371.185 25.7173 371.185 18.6862C371.185 11.1143 367.731 5.74737 362.781 5.74737C356.831 5.74737 353.711 13.0281 353.711 20.0175ZM382.163 4.99849L401.3 4.99849L401.3 7.03708L401.134 7.03708C400.052 6.78746 399.553 6.74585 397.348 6.74585L394.852 6.74585L394.852 29.7528C394.852 32.2907 394.893 32.7483 395.101 33.7468L395.143 33.9548L395.143 34.1213L388.32 34.1213L388.32 33.9549L388.362 33.7468C388.57 32.7483 388.611 32.2907 388.611 29.7529L388.611 6.74586L386.115 6.74586C383.91 6.74586 383.411 6.78746 382.329 7.03709L382.163 7.03709L382.163 4.99849ZM405.253 4.99849L423.475 4.99848L423.475 7.16189L423.309 7.16189C422.227 6.74585 421.603 6.74585 419.523 6.74585L411.701 6.74585L411.701 13.8601L420.23 13.8601L420.23 15.6075L411.701 15.6075L411.701 32.3739L421.062 32.3739C423.267 32.3739 423.766 32.3323 424.848 32.0827L425.015 32.0827L425.015 34.1213L405.253 34.1213L405.253 33.9548C405.419 32.8731 405.461 32.3739 405.461 29.7528L405.461 9.3669C405.461 6.74585 405.419 6.24661 405.253 5.1649L405.253 4.99849ZM440.363 4.99847C447.561 4.99847 452.096 8.4516 452.096 14.1929C452.096 20.6832 446.188 24.0115 439.989 24.0115C439.24 24.0115 438.449 23.9283 437.701 23.8451L437.701 22.597L438.241 22.597C442.693 22.5969 445.855 19.6431 445.855 14.5258C445.855 9.5333 443.442 6.74584 438.99 6.74584L436.036 6.74584L436.036 29.7528C436.036 32.3739 436.078 32.8731 436.244 33.9548L436.244 34.1213L429.588 34.1213L429.588 33.9548C429.754 32.8731 429.796 32.3739 429.796 29.7528L429.796 9.36689C429.796 6.74584 429.754 6.2466 429.588 5.16489L429.588 4.99848L440.363 4.99847Z" fill="#F6F1FF"/>
</g>
<path opacity="0.5" d="M235.721 68.0014C233.57 68.0014 231.841 66.7951 231.227 64.8348L232.635 64.4126C233.117 65.8501 234.314 66.6041 235.701 66.5739C237.631 66.5337 238.807 65.2369 238.807 63.2967C238.807 61.3263 237.551 60.0195 235.681 60.0195C235.158 60.0195 234.545 60.1803 234.052 60.4216L233.308 59.2454L238.274 54.6513L231.8 54.6513L231.8 53.2338L240.164 53.2338L240.164 54.6714L235.932 58.7227C238.556 58.7026 240.335 60.5925 240.335 63.2967C240.335 66.0813 238.385 68.0014 235.721 68.0014ZM243.346 67.6998L243.356 66.3528L249.9 60.4417C251.016 59.4364 251.298 58.5518 251.298 57.5465C251.298 55.7571 249.92 54.3497 248.141 54.3497C246.291 54.3497 244.924 55.8375 244.944 57.5364L243.436 57.5364C243.436 54.8925 245.477 52.9322 248.161 52.9322C250.795 52.9322 252.795 54.973 252.795 57.5565C252.795 59.3761 252.152 60.3814 250.745 61.638L245.598 66.2824L252.795 66.2824L252.795 67.6998L243.346 67.6998ZM260.743 68.0115C258.059 68.0115 256.019 65.9708 256.019 63.2866L256.019 57.6571C256.019 54.973 258.059 52.9322 260.743 52.9322C263.428 52.9322 265.468 54.9729 265.468 57.6571L265.468 63.2866C265.468 65.9707 263.428 68.0115 260.743 68.0115ZM260.743 66.584C262.523 66.584 263.97 65.1364 263.97 63.357L263.97 57.5867C263.97 55.7973 262.523 54.3497 260.743 54.3497C258.964 54.3497 257.516 55.7973 257.516 57.5867L257.516 63.357C257.516 65.1364 258.964 66.584 260.743 66.584ZM271.909 60.1703C269.919 60.1703 268.29 58.5618 268.29 56.5512C268.29 54.5809 269.979 52.9322 271.909 52.9322C273.9 52.9322 275.528 54.5407 275.528 56.5512C275.528 58.5618 273.9 60.1703 271.909 60.1703ZM271.909 58.8332C273.146 58.8332 274.191 57.7877 274.191 56.5512C274.191 55.3147 273.146 54.2692 271.909 54.2692C270.673 54.2693 269.627 55.3147 269.627 56.5512C269.627 57.7877 270.673 58.8332 271.909 58.8332ZM283.675 68.0115C280.991 68.0115 278.95 65.9707 278.95 63.2866L278.95 57.6571C278.95 54.9729 280.991 52.9322 283.675 52.9322C286.359 52.9322 288.4 54.9729 288.4 57.657L288.4 63.2866C288.4 65.9707 286.359 68.0115 283.675 68.0115ZM283.675 66.584C285.454 66.584 286.902 65.1364 286.902 63.357L286.902 57.5867C286.902 55.7973 285.454 54.3497 283.675 54.3497C281.896 54.3497 280.448 55.7973 280.448 57.5867L280.448 63.357C280.448 65.1364 281.896 66.584 283.675 66.584ZM296.751 68.0115C294.067 68.0115 292.026 65.9707 292.026 63.2866L292.026 57.657C292.026 54.9729 294.066 52.9322 296.751 52.9322C299.435 52.9322 301.475 54.9729 301.475 57.657L301.475 63.2866C301.475 65.9707 299.435 68.0115 296.751 68.0115ZM296.751 66.584C298.53 66.584 299.978 65.1364 299.978 63.357L299.978 57.5867C299.978 55.7973 298.53 54.3497 296.751 54.3497C294.971 54.3497 293.524 55.7973 293.524 57.5867L293.524 63.357C293.524 65.1364 294.971 66.584 296.751 66.584ZM305.966 53.1031L307.454 53.1031L306.046 57.9285L305.031 57.9285L305.966 53.1031ZM308.519 53.1031L310.007 53.1031L308.6 57.9285L307.585 57.9285L308.519 53.1031ZM318.015 62.0099L318.015 60.7433L326.459 60.7433L326.459 62.0099L318.015 62.0099ZM339.472 52.9423C342.196 52.9423 344.368 55.1137 344.368 57.9285L344.368 62.9549C344.368 65.8601 342.237 68.0114 339.362 68.0114C337.713 68.0114 336.245 67.2374 335.34 65.9506L336.466 65.0157C337.09 65.9707 338.165 66.594 339.362 66.594C341.402 66.594 342.88 64.9453 342.88 63.0856L342.88 60.8639C342.016 61.8993 340.749 62.5729 339.331 62.5729C336.647 62.5729 334.576 60.4618 334.576 57.7777C334.576 55.0936 336.788 52.9423 339.472 52.9423ZM339.472 54.3698C337.582 54.3698 336.064 55.8877 336.064 57.7777C336.064 59.6676 337.572 61.1856 339.462 61.1856C341.352 61.1856 342.88 59.6676 342.88 57.7777C342.88 55.8978 341.362 54.3698 339.472 54.3698ZM352.704 68.0114C350.02 68.0114 347.979 65.9707 347.979 63.2866L347.979 57.657C347.979 54.9729 350.02 52.9322 352.704 52.9322C355.388 52.9322 357.429 54.9729 357.429 57.657L357.429 63.2866C357.429 65.9707 355.388 68.0114 352.704 68.0114ZM352.704 66.5839C354.483 66.5839 355.931 65.1363 355.931 63.357L355.931 57.5867C355.931 55.7973 354.483 54.3496 352.704 54.3496C350.925 54.3496 349.477 55.7973 349.477 57.5867L349.477 63.357C349.477 65.1363 350.925 66.5839 352.704 66.5839ZM363.87 60.1702C361.879 60.1702 360.251 58.5618 360.251 56.5512C360.251 54.5809 361.94 52.9322 363.87 52.9322C365.86 52.9322 367.489 54.5406 367.489 56.5512C367.489 58.5618 365.86 60.1702 363.87 60.1702ZM363.87 58.8332C365.106 58.8332 366.152 57.7877 366.152 56.5512C366.152 55.3147 365.106 54.2692 363.87 54.2692C362.633 54.2692 361.588 55.3147 361.588 56.5512C361.588 57.7877 362.633 58.8332 363.87 58.8332ZM375.635 68.0114C372.951 68.0114 370.911 65.9707 370.911 63.2866L370.911 57.657C370.911 54.9729 372.951 52.9322 375.635 52.9322C378.32 52.9322 380.36 54.9729 380.36 57.657L380.36 63.2866C380.36 65.9707 378.32 68.0114 375.635 68.0114ZM375.635 66.5839C377.415 66.5839 378.862 65.1363 378.862 63.357L378.862 57.5866C378.862 55.7972 377.415 54.3496 375.635 54.3496C373.856 54.3496 372.409 55.7972 372.409 57.5866L372.409 63.357C372.409 65.1363 373.856 66.5839 375.635 66.5839ZM388.711 68.0114C386.027 68.0114 383.986 65.9707 383.986 63.2866L383.986 57.657C383.986 54.9729 386.027 52.9322 388.711 52.9322C391.395 52.9322 393.436 54.9729 393.436 57.657L393.436 63.2866C393.436 65.9707 391.395 68.0114 388.711 68.0114ZM388.711 66.5839C390.491 66.5839 391.938 65.1363 391.938 63.357L391.938 57.5866C391.938 55.7972 390.491 54.3496 388.711 54.3496C386.932 54.3496 385.484 55.7972 385.484 57.5866L385.484 63.357C385.484 65.1363 386.932 66.5839 388.711 66.5839ZM397.927 53.1031L399.415 53.1031L398.007 57.9284L396.992 57.9284L397.927 53.1031ZM400.48 53.1031L401.968 53.1031L400.561 57.9284L399.545 57.9284L400.48 53.1031Z" fill="#F6F1FF"/>
<defs>
<filter id="filter0_f_31_104" x="162.222" y="77.1212" width="196.973" height="259.7" filterUnits="userSpaceOnUse" color-interpolation-filters="sRGB">
<feFlood flood-opacity="0" result="BackgroundImageFix"/>
<feBlend mode="normal" in="SourceGraphic" in2="BackgroundImageFix" result="shape"/>
<feGaussianBlur stdDeviation="5" result="effect1_foregroundBlur_31_104"/>
</filter>
<filter id="filter1_f_31_104" x="175.408" y="0" width="280.687" height="39.1198" filterUnits="userSpaceOnUse" color-interpolation-filters="sRGB">
<feFlood flood-opacity="0" result="BackgroundImageFix"/>
<feBlend mode="normal" in="SourceGraphic" in2="BackgroundImageFix" result="shape"/>
<feGaussianBlur stdDeviation="2" result="effect1_foregroundBlur_31_104"/>
</filter>
</defs>
</svg>
