<svg width="313" height="239" viewBox="0 0 313 239" fill="none" xmlns="http://www.w3.org/2000/svg">
<g opacity="0.2">
<rect x="95.4883" y="50.4999" width="207.97" height="135.14" rx="14.6704" fill="white"/>
<path d="M105.095 10.8479C113.197 10.848 119.765 17.4166 119.765 25.5188V36.7434H25.4902C21.6917 36.7437 18.6124 39.8227 18.6123 43.6213C18.6123 47.42 21.6916 50.5 25.4902 50.5002H81.7822C81.2259 52.0492 80.9219 53.7187 80.9219 55.4592V61.8293H25.4902C21.6916 61.8296 18.6123 64.9086 18.6123 68.7073C18.6123 72.5059 21.6916 75.5859 25.4902 75.5862H80.9219V86.9153H25.4902C21.6916 86.9155 18.6123 89.9946 18.6123 93.7932C18.6123 97.5919 21.6916 100.672 25.4902 100.672H80.9219V180.68C80.9219 188.782 87.4905 195.351 95.5928 195.351H119.765V223.57C119.764 231.672 113.197 238.239 105.095 238.24H14.6709C6.5688 238.24 0.000249029 231.672 0 223.57V25.5188C0 17.4165 6.56864 10.8479 14.6709 10.8479H105.095ZM59.8828 188.877C52.2851 188.877 46.126 195.036 46.126 202.634C46.1261 210.232 52.2852 216.391 59.8828 216.391C67.4802 216.391 73.6395 210.231 73.6396 202.634C73.6396 195.036 67.4803 188.877 59.8828 188.877ZM59.8828 167.837C56.084 167.837 53.0039 170.917 53.0039 174.716C53.0042 178.515 56.0841 181.594 59.8828 181.594C63.6814 181.594 66.7605 178.515 66.7607 174.716C66.7607 170.917 63.6815 167.837 59.8828 167.837Z" fill="white"/>
<rect x="173.983" y="200.206" width="46.9349" height="38.0335" fill="white"/>
<rect x="147.279" y="223.674" width="99.5344" height="14.566" rx="7.28301" fill="white"/>
</g>
<path d="M214.223 218.574L246.463 204.521C246.805 205.195 247.242 205.813 247.754 206.359L214.157 221.004L213.212 221.417L212.739 220.5L187.196 170.887C187.857 170.504 188.437 169.997 188.905 169.398L214.223 218.574ZM240.315 125.844C240.912 126.301 241.577 126.671 242.294 126.937L218.473 153.403L251.433 193.229C250.686 193.437 249.982 193.75 249.34 194.153L216.173 154.076L215.568 153.344L216.203 152.638L240.315 125.844ZM178.318 164.944C178.283 165.204 178.264 165.47 178.264 165.74C178.264 166.237 178.325 166.719 178.44 167.18L155.621 172.885C155.789 172.241 155.88 171.565 155.88 170.869C155.88 170.764 155.876 170.659 155.872 170.555L178.318 164.944ZM145.915 71.442L238.737 115.332C238.311 115.926 237.969 116.583 237.726 117.288L146.545 74.1744V163.014C145.766 163.148 145.027 163.395 144.343 163.738V70.6998L145.915 71.442Z" fill="white"/>
<circle cx="245.685" cy="119.153" r="4.17604" fill="white"/>
<circle cx="184.437" cy="164.836" r="2.88348" fill="white"/>
<circle cx="253.258" cy="200.432" r="2.88348" fill="white"/>
<circle cx="147.933" cy="170.603" r="3.89101" fill="white"/>
<path d="M143.743 54.1257L147.854 66.7783H161.158L150.395 74.598L154.506 87.2506L143.743 79.4308L132.98 87.2506L137.091 74.598L126.328 66.7783H139.632L143.743 54.1257Z" fill="white"/>
<path d="M215.436 145.469L219.559 150.241L225.371 147.795L222.106 153.19L226.229 157.962L220.089 156.525L216.824 161.92L216.294 155.636L210.154 154.199L215.966 151.753L215.436 145.469Z" fill="white"/>
<path d="M214.602 205.441L217.644 214.803H227.487L219.524 220.589L222.565 229.951L214.602 224.165L206.638 229.951L209.68 220.589L201.717 214.803H211.56L214.602 205.441Z" fill="white"/>
<path d="M150.208 0.595988L154.231 0.595987L154.231 0.695307C154.082 1.34089 154.057 1.63885 154.057 3.20314L154.057 7.92084L159.097 3.20314C160.612 1.78783 161.456 0.918775 161.456 0.695305L161.456 0.595984L163.418 0.595984L163.418 0.695304C162.747 1.16707 162.127 1.78783 160.612 3.20314L158.948 4.79226L163.467 14.8484C164.287 16.6858 164.808 17.2321 165.33 17.679L165.33 17.977C163.169 18.5729 160.513 17.6045 159.37 14.8732L156.192 7.27526L154.057 9.26166L154.057 15.3698C154.057 16.9341 154.082 17.2321 154.231 17.8777L154.231 17.977L150.208 17.977L150.208 17.8777C150.307 17.2321 150.332 16.9341 150.332 15.3698L150.332 3.20314C150.332 1.63885 150.307 1.34089 150.208 0.695308L150.208 0.595988ZM175.383 18.3743C170.268 18.3743 166.196 14.3021 166.196 9.18716C166.196 4.07218 170.268 6.16275e-05 175.383 5.98946e-05C180.498 5.81616e-05 184.571 4.07218 184.571 9.18716C184.571 14.3021 180.498 18.3743 175.383 18.3743ZM170.318 9.55961C170.318 14.1532 172.354 17.3314 175.284 17.3314C178.884 17.3314 180.747 12.9613 180.747 8.76505C180.747 4.24599 178.686 1.04292 175.731 1.04292C172.18 1.04292 170.318 5.38817 170.318 9.55961ZM187.669 0.595975L189.159 0.595975L196.608 12.5392L204.306 0.59597L205.795 0.595969C205.696 1.24155 205.671 1.53951 205.671 2.8555L205.671 15.3698C205.671 16.9341 205.696 17.2321 205.795 17.8777L205.795 17.977L201.773 17.977L201.773 17.8777C201.922 17.2321 201.947 16.9341 201.947 15.3698L201.947 6.18272L194.994 16.9341L194.969 16.9341L188.836 7.1511L188.836 15.3698C188.836 16.9341 188.861 17.2321 189.01 17.8777L189.01 17.977L187.669 17.977L187.669 17.8777C187.769 17.2321 187.794 16.9341 187.794 15.3698L187.794 2.85551C187.794 1.53952 187.769 1.24156 187.669 0.595975ZM209.516 0.595968L224.166 0.595963L224.166 0.695283C224.066 1.34086 224.041 1.63882 224.041 3.20311L224.042 15.3698C224.042 16.9341 224.066 17.2321 224.166 17.8776L224.166 17.977L220.143 17.977L220.143 17.8776C220.292 17.2321 220.317 16.9341 220.317 15.3698L220.317 1.63882L213.365 1.63883L213.365 15.3698C213.365 16.9341 213.389 17.2321 213.538 17.8776L213.538 17.977L209.516 17.977L209.516 17.8776C209.615 17.2321 209.64 16.9341 209.64 15.3698L209.64 3.20312C209.64 1.63883 209.615 1.34087 209.516 0.695288L209.516 0.595968ZM227.895 0.595962L231.917 0.59596L231.917 0.695281C231.768 1.34086 231.744 1.63882 231.744 3.20311L231.744 16.9341L233.382 16.9341C236.238 16.9341 237.653 14.6001 237.653 12.2661C237.653 9.85755 236.139 7.42421 233.084 7.42421L232.737 7.42421L232.737 6.67931C233.333 6.60482 233.904 6.55516 234.5 6.55516C238.05 6.55516 241.328 8.06979 241.328 11.8439C241.328 15.6926 238.622 17.977 234.028 17.977L227.895 17.977L227.895 17.8776C227.994 17.2321 228.019 16.9341 228.019 15.3698L228.019 3.20311C228.019 1.63882 227.994 1.34086 227.895 0.695282L227.895 0.595962ZM259.3 18.3742C254.21 18.3742 250.163 14.3518 250.113 9.28645L247.606 9.41061L247.606 15.3698C247.606 16.9341 247.63 17.2321 247.73 17.8776L247.73 17.977L243.757 17.977L243.757 17.8776C243.856 17.2321 243.881 16.9341 243.881 15.3698L243.881 3.20311C243.881 1.63882 243.856 1.34086 243.757 0.695277L243.757 0.595956L247.73 0.595955L247.73 0.695275C247.63 1.34086 247.606 1.63882 247.606 3.20311L247.606 8.46707L250.138 8.46707C250.511 3.6997 254.434 3.31125e-05 259.3 3.14637e-05C264.415 2.97307e-05 268.488 4.07215 268.488 9.18713C268.488 14.3021 264.415 18.3742 259.3 18.3742ZM254.235 9.55958C254.235 14.1531 256.271 17.3314 259.201 17.3314C262.802 17.3314 264.664 12.9613 264.664 8.76502C264.664 4.24596 262.603 1.04289 259.648 1.04289C256.097 1.04289 254.235 5.38814 254.235 9.55958ZM271.216 0.595947L282.637 0.595943L282.637 1.81261L282.538 1.81261C281.892 1.66363 281.595 1.6388 280.279 1.6388L278.789 1.6388L278.789 15.3698C278.789 16.8844 278.814 17.1576 278.938 17.7535L278.963 17.8776L278.963 17.9769L274.89 17.9769L274.89 17.8776L274.915 17.7535C275.039 17.1576 275.064 16.8844 275.064 15.3698L275.064 1.63881L273.574 1.63881C272.258 1.63881 271.96 1.66364 271.315 1.81262L271.216 1.81262L271.216 0.595947ZM284.996 0.595942L295.872 0.595939L295.872 1.8871L295.772 1.8871C295.127 1.6388 294.754 1.6388 293.513 1.6388L288.845 1.6388L288.845 5.88473L293.935 5.88473L293.935 6.92759L288.845 6.92759L288.845 16.9341L294.432 16.9341C295.748 16.9341 296.046 16.9092 296.691 16.7603L296.79 16.7603L296.79 17.9769L284.996 17.9769L284.996 17.8776C285.096 17.232 285.12 16.9341 285.12 15.3698L285.12 3.20309C285.12 1.6388 285.096 1.34084 284.996 0.695263L284.996 0.595942ZM305.951 0.595935C310.246 0.595934 312.953 2.65682 312.953 6.08336C312.953 9.95684 309.427 11.9432 305.727 11.9432C305.28 11.9432 304.809 11.8936 304.362 11.8439L304.362 11.099L304.684 11.099C307.341 11.099 309.228 9.33609 309.228 6.28201C309.228 3.3024 307.788 1.63879 305.131 1.6388L303.368 1.6388L303.368 15.3698C303.368 16.9341 303.393 17.232 303.493 17.8776L303.493 17.9769L299.52 17.9769L299.52 17.8776C299.619 17.232 299.644 16.9341 299.644 15.3698L299.644 3.20309C299.644 1.6388 299.619 1.34084 299.52 0.695258L299.52 0.595938L305.951 0.595935Z" fill="#F6F1FF"/>
<path opacity="0.5" d="M183.535 38.7917C182.251 38.7917 181.219 38.0717 180.853 36.9017L181.693 36.6497C181.981 37.5077 182.695 37.9577 183.523 37.9397C184.675 37.9157 185.377 37.1417 185.377 35.9837C185.377 34.8077 184.627 34.0277 183.511 34.0277C183.199 34.0277 182.833 34.1237 182.539 34.2677L182.095 33.5657L185.059 30.8237L181.195 30.8237L181.195 29.9777L186.187 29.9777L186.187 30.8357L183.661 33.2537C185.227 33.2417 186.289 34.3697 186.289 35.9837C186.289 37.6457 185.125 38.7917 183.535 38.7917ZM188.086 38.6117L188.092 37.8077L191.998 34.2797C192.664 33.6797 192.832 33.1517 192.832 32.5517C192.832 31.4837 192.01 30.6437 190.948 30.6437C189.844 30.6437 189.028 31.5317 189.04 32.5457L188.14 32.5457C188.14 30.9677 189.358 29.7977 190.96 29.7977C192.532 29.7977 193.726 31.0157 193.726 32.5577C193.726 33.6437 193.342 34.2437 192.502 34.9937L189.43 37.7657L193.726 37.7657L193.726 38.6117L188.086 38.6117ZM198.47 38.7977C196.868 38.7977 195.65 37.5797 195.65 35.9777L195.65 32.6177C195.65 31.0157 196.868 29.7977 198.47 29.7977C200.072 29.7977 201.29 31.0157 201.29 32.6177L201.29 35.9777C201.29 37.5797 200.072 38.7977 198.47 38.7977ZM198.47 37.9457C199.532 37.9457 200.396 37.0817 200.396 36.0197L200.396 32.5757C200.396 31.5077 199.532 30.6437 198.47 30.6437C197.408 30.6437 196.544 31.5077 196.544 32.5757L196.544 36.0197C196.544 37.0817 197.408 37.9457 198.47 37.9457ZM205.134 34.1177C203.946 34.1177 202.974 33.1577 202.974 31.9577C202.974 30.7817 203.982 29.7977 205.134 29.7977C206.322 29.7977 207.294 30.7577 207.294 31.9577C207.294 33.1577 206.322 34.1177 205.134 34.1177ZM205.134 33.3197C205.872 33.3197 206.496 32.6957 206.496 31.9577C206.496 31.2197 205.872 30.5957 205.134 30.5957C204.396 30.5957 203.772 31.2197 203.772 31.9577C203.772 32.6957 204.396 33.3197 205.134 33.3197ZM212.157 38.7977C210.555 38.7977 209.337 37.5797 209.337 35.9777L209.337 32.6177C209.337 31.0157 210.555 29.7977 212.157 29.7977C213.759 29.7977 214.977 31.0157 214.977 32.6177L214.977 35.9777C214.977 37.5797 213.759 38.7977 212.157 38.7977ZM212.157 37.9457C213.219 37.9457 214.083 37.0817 214.083 36.0197L214.083 32.5757C214.083 31.5077 213.219 30.6437 212.157 30.6437C211.095 30.6437 210.231 31.5077 210.231 32.5757L210.231 36.0197C210.231 37.0817 211.095 37.9457 212.157 37.9457ZM219.961 38.7977C218.359 38.7977 217.141 37.5797 217.141 35.9777L217.141 32.6177C217.141 31.0157 218.359 29.7977 219.961 29.7977C221.563 29.7977 222.781 31.0157 222.781 32.6177L222.781 35.9777C222.781 37.5797 221.563 38.7977 219.961 38.7977ZM219.961 37.9457C221.023 37.9457 221.887 37.0817 221.887 36.0197L221.887 32.5757C221.887 31.5077 221.023 30.6437 219.961 30.6437C218.899 30.6437 218.035 31.5077 218.035 32.5757L218.035 36.0197C218.035 37.0817 218.899 37.9457 219.961 37.9457ZM225.461 29.8997L226.349 29.8997L225.509 32.7797L224.903 32.7797L225.461 29.8997ZM226.985 29.8997L227.873 29.8997L227.033 32.7797L226.427 32.7797L226.985 29.8997ZM232.652 35.2157L232.652 34.4597L237.692 34.4597L237.692 35.2157L232.652 35.2157ZM245.459 29.8037C247.085 29.8037 248.381 31.0997 248.381 32.7797L248.381 35.7797C248.381 37.5137 247.109 38.7977 245.393 38.7977C244.409 38.7977 243.533 38.3357 242.993 37.5677L243.665 37.0097C244.037 37.5797 244.679 37.9517 245.393 37.9517C246.611 37.9517 247.493 36.9677 247.493 35.8577L247.493 34.5317C246.977 35.1497 246.221 35.5517 245.375 35.5517C243.773 35.5517 242.537 34.2917 242.537 32.6897C242.537 31.0877 243.857 29.8037 245.459 29.8037ZM245.459 30.6557C244.331 30.6557 243.425 31.5617 243.425 32.6897C243.425 33.8177 244.325 34.7237 245.453 34.7237C246.581 34.7237 247.493 33.8177 247.493 32.6897C247.493 31.5677 246.587 30.6557 245.459 30.6557ZM253.356 38.7977C251.754 38.7977 250.536 37.5797 250.536 35.9777L250.536 32.6177C250.536 31.0157 251.754 29.7977 253.356 29.7977C254.958 29.7977 256.176 31.0157 256.176 32.6177L256.176 35.9777C256.176 37.5797 254.958 38.7977 253.356 38.7977ZM253.356 37.9457C254.418 37.9457 255.282 37.0817 255.282 36.0197L255.282 32.5757C255.282 31.5077 254.418 30.6437 253.356 30.6437C252.294 30.6437 251.43 31.5077 251.43 32.5757L251.43 36.0197C251.43 37.0817 252.294 37.9457 253.356 37.9457ZM260.021 34.1177C258.833 34.1177 257.861 33.1577 257.861 31.9577C257.861 30.7817 258.869 29.7977 260.021 29.7977C261.209 29.7977 262.181 30.7577 262.181 31.9577C262.181 33.1577 261.209 34.1177 260.021 34.1177ZM260.021 33.3197C260.759 33.3197 261.383 32.6957 261.383 31.9577C261.383 31.2197 260.759 30.5957 260.021 30.5957C259.283 30.5957 258.659 31.2197 258.659 31.9577C258.659 32.6957 259.283 33.3197 260.021 33.3197ZM267.043 38.7977C265.441 38.7977 264.223 37.5797 264.223 35.9777L264.223 32.6177C264.223 31.0157 265.441 29.7977 267.043 29.7977C268.645 29.7977 269.863 31.0157 269.863 32.6177L269.863 35.9777C269.863 37.5797 268.645 38.7977 267.043 38.7977ZM267.043 37.9457C268.105 37.9457 268.969 37.0817 268.969 36.0197L268.969 32.5757C268.969 31.5077 268.105 30.6437 267.043 30.6437C265.981 30.6437 265.117 31.5077 265.117 32.5757L265.117 36.0197C265.117 37.0817 265.981 37.9457 267.043 37.9457ZM274.847 38.7977C273.245 38.7977 272.027 37.5797 272.027 35.9777L272.027 32.6177C272.027 31.0157 273.245 29.7977 274.847 29.7977C276.449 29.7977 277.667 31.0157 277.667 32.6177L277.667 35.9777C277.667 37.5797 276.449 38.7977 274.847 38.7977ZM274.847 37.9457C275.909 37.9457 276.773 37.0817 276.773 36.0197L276.773 32.5757C276.773 31.5077 275.909 30.6437 274.847 30.6437C273.785 30.6437 272.921 31.5077 272.921 32.5757L272.921 36.0197C272.921 37.0817 273.785 37.9457 274.847 37.9457ZM280.347 29.8997L281.235 29.8997L280.395 32.7797L279.789 32.7797L280.347 29.8997ZM281.871 29.8997L282.759 29.8997L281.919 32.7797L281.313 32.7797L281.871 29.8997Z" fill="#F6F1FF"/>
</svg>
