<svg width="333" height="266" viewBox="0 0 333 266" fill="none" xmlns="http://www.w3.org/2000/svg">
<g opacity="0.2">
<path d="M220.768 62.5348C220.768 58.8335 220.039 55.1685 218.623 51.749C217.206 48.3294 215.13 45.2224 212.513 42.6052C209.896 39.988 206.789 37.9119 203.369 36.4955C199.95 35.0791 196.285 34.3501 192.583 34.3501C188.882 34.3501 185.217 35.0791 181.798 36.4955C178.378 37.9119 175.271 39.988 172.654 42.6052C170.037 45.2224 167.961 48.3294 166.544 51.749C165.128 55.1685 164.399 58.8335 164.399 62.5348L192.583 62.5348H220.768Z" fill="white"/>
<rect x="188.179" width="9.68848" height="22.0193" rx="4.84424" fill="white"/>
<rect x="228.885" y="11.5529" width="9.68848" height="22.0193" rx="4.84424" transform="rotate(56.4447 228.885 11.5529)" fill="white"/>
<rect x="149.426" y="20.3417" width="9.68848" height="22.0193" rx="4.84424" transform="rotate(-55.7784 149.426 20.3417)" fill="white"/>
<circle cx="95.6986" cy="201.697" r="35.2308" fill="white"/>
<circle cx="257.76" cy="201.697" r="35.2308" fill="white"/>
<path d="M272.784 59.8925C279.028 59.8925 284.806 63.1983 287.97 68.5809L323.151 128.423C324.741 131.129 325.58 134.211 325.58 137.35V193.769C325.58 203.498 317.693 211.385 307.964 211.385H299.825C300.54 208.27 300.918 205.027 300.918 201.696C300.918 177.861 281.595 158.539 257.76 158.539C233.925 158.539 214.603 177.861 214.603 201.696C214.603 205.027 214.98 208.27 215.694 211.385H137.764C138.478 208.27 138.857 205.027 138.857 201.696C138.856 177.861 119.534 158.539 95.6984 158.539C71.8631 158.539 52.5403 177.861 52.5402 201.696C52.5402 205.027 52.9186 208.27 53.6329 211.385H36.6866C26.958 211.385 19.0714 203.498 19.0714 193.769V151.882C19.0715 143.87 24.4783 136.867 32.2296 134.84L70.2892 124.886C74.1922 123.865 77.6261 121.535 80.0177 118.286L117.723 67.0653C121.043 62.5554 126.309 59.8925 131.909 59.8925H272.784ZM142.617 77.0673C139.712 77.0673 136.994 78.4999 135.352 80.8964L114.833 110.843C110.828 116.688 115.013 124.629 122.099 124.629H175.849C180.713 124.629 184.656 120.685 184.656 115.821V85.8749C184.656 81.0107 180.713 77.0674 175.849 77.0673H142.617ZM200.069 77.0673C195.205 77.0673 191.262 81.0106 191.262 85.8749V115.821C191.262 120.685 195.205 124.629 200.069 124.629H285.087C292.172 124.629 296.358 116.688 292.353 110.843L271.834 80.8964C270.192 78.4999 267.474 77.0674 264.568 77.0673H200.069Z" fill="white"/>
</g>
<path d="M199.732 49.7133L22.3098 160.06L190.02 167.227L267.675 112.531C267.983 113.206 268.389 113.828 268.874 114.377L190.982 169.243L190.676 169.458L190.301 169.442L18.6575 162.107L15.0979 161.954L18.1233 160.074L198.57 47.8441L199.732 49.7133Z" fill="white"/>
<path d="M202.627 149.641L197.979 165.981L212.083 175.451L195.106 176.08L190.458 192.421L184.614 176.469L167.637 177.098L181.002 166.61L175.157 150.659L189.262 160.129L202.627 149.641Z" fill="white"/>
<path d="M15.439 145.397L21.5499 155.206L32.767 152.425L25.3267 161.268L31.4376 171.077L20.7283 166.733L13.2879 175.576L14.1096 164.049L3.40027 159.705L14.6174 156.925L15.439 145.397Z" fill="white"/>
<path d="M209.429 33.7735L206.018 45.7676L216.37 52.7187L203.909 53.1803L200.497 65.1744L196.208 53.4657L183.746 53.9273L193.556 46.2293L189.266 34.5205L199.619 41.4716L209.429 33.7735Z" fill="white"/>
<circle cx="274.498" cy="109.183" r="3.64713" fill="white"/>
<path d="M15.3218 227.409L29.9715 227.409L29.9715 227.509C29.8722 228.154 29.8474 228.452 29.8474 230.016L29.8474 242.183C29.8474 243.747 29.8722 244.045 29.9715 244.691L29.9715 244.79L25.9491 244.79L25.9491 244.691C26.098 244.045 26.1229 243.747 26.1229 242.183L26.1229 228.452L19.1705 228.452L19.1705 242.183C19.1705 243.747 19.1953 244.045 19.3443 244.691L19.3443 244.79L15.3218 244.79L15.3218 244.691C15.4211 244.045 15.446 243.747 15.446 242.183L15.446 230.016C15.446 228.452 15.4211 228.154 15.3218 227.509L15.3218 227.409ZM42.2672 245.188C37.1522 245.188 33.0801 241.115 33.0801 236C33.0801 230.885 37.1522 226.813 42.2672 226.813C47.3822 226.813 51.4543 230.885 51.4543 236C51.4543 241.115 47.3822 245.188 42.2672 245.188ZM37.2019 236.373C37.2019 240.966 39.238 244.145 42.1679 244.145C45.7682 244.145 47.6305 239.775 47.6305 235.578C47.6305 231.059 45.5696 227.856 42.6148 227.856C39.0641 227.856 37.2019 232.201 37.2019 236.373ZM67.8373 244.79L63.3927 244.79L63.3927 244.691C63.3927 244.542 63.641 244.269 62.9458 242.183L58.8736 230.165L54.5036 242.183C53.7587 244.244 53.8828 244.542 53.8828 244.691L53.8828 244.79L52.3185 244.79L52.3185 244.691C52.393 244.542 52.5916 244.244 53.3614 242.183L58.8736 227.409C59.7675 227.409 60.9842 227.235 61.6298 226.714L66.8937 242.183C67.589 244.269 67.7628 244.542 67.8373 244.691L67.8373 244.79ZM70.0242 227.409L74.0467 227.409L74.0467 227.509C73.8977 228.154 73.8729 228.452 73.8729 230.016L73.8729 239.626L84.5498 227.409L85.3443 227.409C85.1457 228.154 85.1457 228.527 85.1457 232.375L85.1457 242.183C85.1457 243.747 85.1705 244.045 85.2699 244.691L85.2699 244.79L81.2474 244.79L81.2474 244.691C81.3964 244.045 81.4212 243.747 81.4212 242.183L81.4212 232.574L70.7443 244.79L69.9498 244.79C70.1484 244.045 70.1484 243.673 70.1484 242.431L70.1484 230.016C70.1484 228.452 70.1236 228.154 70.0242 227.509L70.0242 227.409ZM89.0805 227.409L93.1029 227.409L93.1029 227.509C92.954 228.154 92.9291 228.452 92.9291 230.016L92.9291 243.673L99.8815 243.673L99.8815 230.016C99.8815 228.452 99.8567 228.154 99.7077 227.509L99.7077 227.409L103.73 227.409L103.73 227.509C103.631 228.154 103.606 228.452 103.606 230.016L103.606 243.673L105.096 243.673L105.096 247.968L104.45 247.968C104.227 245.188 103.83 244.79 101.57 244.79L89.0805 244.79L89.0805 244.691C89.1798 244.045 89.2046 243.747 89.2046 242.183L89.2046 230.016C89.2046 228.452 89.1798 228.154 89.0805 227.509L89.0805 227.409ZM107.46 227.409L118.335 227.409L118.335 228.7L118.236 228.7C117.59 228.452 117.218 228.452 115.976 228.452L111.308 228.452L111.308 232.698L116.398 232.698L116.398 233.741L111.308 233.741L111.308 243.747L116.895 243.747C118.211 243.747 118.509 243.723 119.154 243.574L119.254 243.574L119.254 244.79L107.46 244.79L107.46 244.691C107.559 244.045 107.584 243.747 107.584 242.183L107.584 230.016C107.584 228.452 107.559 228.154 107.46 227.509L107.46 227.409ZM122.058 227.409L126.08 227.409L126.08 227.509C125.931 228.154 125.906 228.452 125.906 230.016L125.906 239.626L136.583 227.409L137.378 227.409C137.179 228.154 137.179 228.527 137.179 232.375L137.179 242.183C137.179 243.747 137.204 244.045 137.303 244.691L137.303 244.79L133.281 244.79L133.281 244.691C133.43 244.045 133.455 243.747 133.455 242.183L133.455 232.574L122.778 244.79L121.983 244.79C122.182 244.045 122.182 243.673 122.182 242.431L122.182 230.016C122.182 228.452 122.157 228.154 122.058 227.509L122.058 227.409ZM126.105 222.145L127.893 222.145L127.893 222.17C127.893 222.741 128.066 223.188 128.315 223.561C128.687 224.082 129.308 224.38 130.078 224.38C131.344 224.38 132.163 223.561 132.263 222.145L134.051 222.145C133.976 224.057 132.412 225.423 130.078 225.423C127.744 225.423 126.179 224.057 126.105 222.145ZM156.558 229.669L156.558 233.095L155.987 233.095C155.565 229.793 153.082 227.856 150.549 227.856C147.545 227.856 144.466 230.438 144.466 236.373C144.466 241.761 147.247 244.145 150.127 244.145C152.61 244.145 155.168 242.282 155.987 239.079L156.558 239.079L156.558 242.332C154.87 243.996 152.412 245.188 149.631 245.188C144.516 245.188 140.493 241.115 140.493 236C140.493 230.885 144.516 226.813 149.631 226.813C152.436 226.813 154.895 228.005 156.558 229.669ZM160.148 227.409L164.17 227.409L164.17 227.509C164.021 228.154 163.996 228.452 163.996 230.016L163.996 234.734L169.037 230.016C170.551 228.601 171.396 227.732 171.396 227.509L171.396 227.409L173.357 227.409L173.357 227.509C172.687 227.98 172.066 228.601 170.551 230.016L168.888 231.606L173.407 241.662C174.226 243.499 174.748 244.045 175.269 244.492L175.269 244.79C173.109 245.386 170.452 244.418 169.31 241.686L166.132 234.089L163.996 236.075L163.996 242.183C163.996 243.747 164.021 244.045 164.17 244.691L164.17 244.79L160.148 244.79L160.148 244.691C160.247 244.045 160.272 243.747 160.272 242.183L160.272 230.016C160.272 228.452 160.247 228.154 160.148 227.509L160.148 227.409ZM181.797 227.409C182.691 227.409 183.908 227.235 184.553 226.714L190.041 242.183C190.761 244.244 190.935 244.542 191.009 244.691L191.009 244.79L186.589 244.79L186.589 244.691C186.589 244.542 186.788 244.244 186.068 242.183L185.497 240.519L177.849 240.519L177.228 242.183C176.434 244.244 176.558 244.542 176.558 244.691L176.558 244.79L174.994 244.79L174.994 244.691C175.068 244.542 175.267 244.244 176.061 242.183L181.797 227.409ZM178.246 239.477L185.124 239.477L181.847 230.041L178.246 239.477ZM192.216 244.492C192.713 244.02 193.11 243.474 193.954 241.587L196.983 234.809C194.525 234.386 193.11 233.145 193.11 231.432C193.11 228.75 195.469 227.409 200.211 227.409L206.518 227.409L206.518 227.509C206.419 228.154 206.394 228.452 206.394 230.016L206.394 242.183C206.394 243.747 206.419 244.045 206.518 244.691L206.518 244.79L202.496 244.79L202.496 244.691C202.645 244.045 202.669 243.747 202.669 242.183L202.669 228.452L200.683 228.452C198.2 228.452 196.934 230.091 196.934 231.829C196.934 233.294 198.076 234.188 200.087 234.188C200.484 234.188 200.633 234.188 200.857 234.163L201.006 234.461L198.051 241.488C196.909 244.219 194.401 245.312 192.216 244.79L192.216 244.492ZM219.915 227.409L221.405 227.409L228.854 239.352L236.551 227.409L238.041 227.409C237.942 228.055 237.917 228.353 237.917 229.669L237.917 242.183C237.917 243.747 237.942 244.045 238.041 244.691L238.041 244.79L234.019 244.79L234.019 244.691C234.168 244.045 234.192 243.747 234.192 242.183L234.192 232.996L227.24 243.747L227.215 243.747L221.082 233.964L221.082 242.183C221.082 243.747 221.107 244.045 221.256 244.691L221.256 244.79L219.915 244.79L219.915 244.691C220.015 244.045 220.039 243.747 220.039 242.183L220.039 229.669C220.039 228.353 220.015 228.055 219.915 227.409ZM246.802 227.409C247.696 227.409 248.913 227.235 249.558 226.714L255.046 242.183C255.766 244.244 255.94 244.542 256.014 244.691L256.014 244.79L251.594 244.79L251.594 244.691C251.594 244.542 251.793 244.244 251.073 242.183L250.502 240.519L242.854 240.519L242.233 242.183C241.439 244.244 241.563 244.542 241.563 244.691L241.563 244.79L239.999 244.79L239.999 244.691C240.073 244.542 240.272 244.244 241.066 242.183L246.802 227.409ZM243.252 239.477L250.129 239.477L246.852 230.041L243.252 239.477ZM257.718 227.409L261.74 227.409L261.74 227.509C261.591 228.154 261.566 228.452 261.566 230.016L261.566 243.747L265.614 243.747L265.614 230.016C265.614 228.452 265.589 228.154 265.489 227.509L265.489 227.409L269.462 227.409L269.462 227.509C269.363 228.154 269.338 228.452 269.338 230.016L269.338 243.747L273.41 243.747L273.41 230.016C273.41 228.452 273.385 228.154 273.236 227.509L273.236 227.409L277.259 227.409L277.259 227.509C277.16 228.154 277.135 228.452 277.135 230.016L277.135 242.183C277.135 243.673 277.135 244.045 277.333 244.691L277.333 244.79L257.643 244.79L257.643 244.691C257.842 244.045 257.842 243.673 257.842 242.183L257.842 230.016C257.842 228.452 257.817 228.154 257.718 227.509L257.718 227.409ZM281.14 227.409L285.163 227.409L285.163 227.509C285.014 228.154 284.989 228.452 284.989 230.016L284.989 239.626L295.666 227.409L296.46 227.409C296.262 228.154 296.262 228.527 296.262 232.375L296.262 242.183C296.262 243.747 296.287 244.045 296.386 244.691L296.386 244.79L292.364 244.79L292.364 244.691C292.512 244.045 292.537 243.747 292.537 242.183L292.537 232.574L281.86 244.79L281.066 244.79C281.264 244.045 281.264 243.673 281.264 242.431L281.264 230.016C281.264 228.452 281.24 228.154 281.14 227.509L281.14 227.409ZM310.824 227.409L314.846 227.409L314.846 227.509C314.747 228.154 314.722 228.452 314.722 230.016L314.722 242.183C314.722 243.747 314.747 244.045 314.846 244.691L314.846 244.79L310.824 244.79L310.824 244.691C310.973 244.045 310.998 243.747 310.998 242.183L310.998 233.741L304.045 233.741L304.045 242.183C304.045 243.747 304.07 244.045 304.219 244.691L304.219 244.79L300.197 244.79L300.197 244.691C300.296 244.045 300.321 243.747 300.321 242.183L300.321 230.016C300.321 228.452 300.296 228.154 300.197 227.509L300.197 227.409L304.219 227.409L304.219 227.509C304.07 228.154 304.045 228.452 304.045 230.016L304.045 232.698L310.998 232.698L310.998 230.016C310.998 228.452 310.973 228.154 310.824 227.509L310.824 227.409ZM323.616 227.409C324.51 227.409 325.727 227.235 326.372 226.714L331.86 242.183C332.58 244.244 332.754 244.542 332.828 244.691L332.828 244.79L328.408 244.79L328.408 244.691C328.408 244.542 328.607 244.244 327.887 242.183L327.316 240.519L319.668 240.519L319.047 242.183C318.253 244.244 318.377 244.542 318.377 244.691L318.377 244.79L316.813 244.79L316.813 244.691C316.887 244.542 317.086 244.244 317.88 242.183L323.616 227.409ZM320.065 239.477L326.943 239.477L323.666 230.041L320.065 239.477Z" fill="#F6F1FF"/>
<path opacity="0.5" d="M126.193 265.605C124.909 265.605 123.877 264.885 123.511 263.715L124.351 263.463C124.639 264.321 125.353 264.771 126.181 264.753C127.333 264.729 128.035 263.955 128.035 262.797C128.035 261.621 127.285 260.841 126.169 260.841C125.857 260.841 125.491 260.937 125.197 261.081L124.753 260.379L127.717 257.637L123.853 257.637L123.853 256.791L128.845 256.791L128.845 257.649L126.319 260.067C127.885 260.055 128.947 261.183 128.947 262.797C128.947 264.459 127.783 265.605 126.193 265.605ZM133.905 265.611C132.279 265.611 130.983 264.315 130.983 262.629L130.983 259.635C130.983 257.901 132.261 256.617 133.971 256.617C134.955 256.617 135.837 257.073 136.377 257.847L135.699 258.405C135.333 257.835 134.685 257.457 133.971 257.457C132.753 257.457 131.877 258.441 131.877 259.557L131.877 260.883C132.387 260.259 133.143 259.863 133.989 259.863C135.591 259.863 136.833 261.123 136.833 262.725C136.833 264.321 135.507 265.611 133.905 265.611ZM133.905 264.753C135.033 264.753 135.945 263.853 135.945 262.725C135.945 261.597 135.039 260.685 133.911 260.685C132.783 260.685 131.877 261.597 131.877 262.725C131.877 263.841 132.777 264.753 133.905 264.753ZM141.725 265.611C140.123 265.611 138.905 264.393 138.905 262.791L138.905 259.431C138.905 257.829 140.123 256.611 141.725 256.611C143.327 256.611 144.545 257.829 144.545 259.431L144.545 262.791C144.545 264.393 143.327 265.611 141.725 265.611ZM141.725 264.759C142.787 264.759 143.651 263.895 143.651 262.833L143.651 259.389C143.651 258.321 142.787 257.457 141.725 257.457C140.663 257.457 139.799 258.321 139.799 259.389L139.799 262.833C139.799 263.895 140.663 264.759 141.725 264.759ZM148.389 260.931C147.201 260.931 146.229 259.971 146.229 258.771C146.229 257.595 147.237 256.611 148.389 256.611C149.577 256.611 150.549 257.571 150.549 258.771C150.549 259.971 149.577 260.931 148.389 260.931ZM148.389 260.133C149.127 260.133 149.751 259.509 149.751 258.771C149.751 258.033 149.127 257.409 148.389 257.409C147.651 257.409 147.027 258.033 147.027 258.771C147.027 259.509 147.651 260.133 148.389 260.133ZM155.411 265.611C153.809 265.611 152.591 264.393 152.591 262.791L152.591 259.431C152.591 257.829 153.809 256.611 155.411 256.611C157.013 256.611 158.231 257.829 158.231 259.431L158.231 262.791C158.231 264.393 157.013 265.611 155.411 265.611ZM155.411 264.759C156.473 264.759 157.337 263.895 157.337 262.833L157.337 259.389C157.337 258.321 156.473 257.457 155.411 257.457C154.349 257.457 153.485 258.321 153.485 259.389L153.485 262.833C153.485 263.895 154.349 264.759 155.411 264.759ZM163.216 265.611C161.614 265.611 160.396 264.393 160.396 262.791L160.396 259.431C160.396 257.829 161.614 256.611 163.216 256.611C164.818 256.611 166.036 257.829 166.036 259.431L166.036 262.791C166.036 264.393 164.818 265.611 163.216 265.611ZM163.216 264.759C164.278 264.759 165.142 263.895 165.142 262.833L165.142 259.389C165.142 258.321 164.278 257.457 163.216 257.457C162.154 257.457 161.29 258.321 161.29 259.389L161.29 262.833C161.29 263.895 162.154 264.759 163.216 264.759ZM168.716 256.713L169.604 256.713L168.764 259.593L168.158 259.593L168.716 256.713ZM170.24 256.713L171.128 256.713L170.288 259.593L169.682 259.593L170.24 256.713ZM175.907 262.029L175.907 261.273L180.947 261.273L180.947 262.029L175.907 262.029ZM188.192 265.605C186.908 265.605 185.876 264.885 185.51 263.715L186.35 263.463C186.638 264.321 187.352 264.771 188.18 264.753C189.332 264.729 190.034 263.955 190.034 262.797C190.034 261.621 189.284 260.841 188.168 260.841C187.856 260.841 187.49 260.937 187.196 261.081L186.752 260.379L189.716 257.637L185.852 257.637L185.852 256.791L190.844 256.791L190.844 257.649L188.318 260.067C189.884 260.055 190.946 261.183 190.946 262.797C190.946 264.459 189.782 265.605 188.192 265.605ZM195.803 265.611C194.201 265.611 192.983 264.393 192.983 262.791L192.983 259.431C192.983 257.829 194.201 256.611 195.803 256.611C197.405 256.611 198.623 257.829 198.623 259.431L198.623 262.791C198.623 264.393 197.405 265.611 195.803 265.611ZM195.803 264.759C196.865 264.759 197.729 263.895 197.729 262.833L197.729 259.389C197.729 258.321 196.865 257.457 195.803 257.457C194.741 257.457 193.877 258.321 193.877 259.389L193.877 262.833C193.877 263.895 194.741 264.759 195.803 264.759ZM202.467 260.931C201.279 260.931 200.307 259.971 200.307 258.771C200.307 257.595 201.315 256.611 202.467 256.611C203.655 256.611 204.627 257.571 204.627 258.771C204.627 259.971 203.655 260.931 202.467 260.931ZM202.467 260.133C203.205 260.133 203.829 259.509 203.829 258.771C203.829 258.033 203.205 257.409 202.467 257.409C201.729 257.409 201.105 258.033 201.105 258.771C201.105 259.509 201.729 260.133 202.467 260.133ZM209.489 265.611C207.887 265.611 206.669 264.393 206.669 262.791L206.669 259.431C206.669 257.829 207.887 256.611 209.489 256.611C211.091 256.611 212.309 257.829 212.309 259.431L212.309 262.791C212.309 264.393 211.091 265.611 209.489 265.611ZM209.489 264.759C210.551 264.759 211.415 263.895 211.415 262.833L211.415 259.389C211.415 258.321 210.551 257.457 209.489 257.457C208.427 257.457 207.563 258.321 207.563 259.389L207.563 262.833C207.563 263.895 208.427 264.759 209.489 264.759ZM217.293 265.611C215.691 265.611 214.473 264.393 214.473 262.791L214.473 259.431C214.473 257.829 215.691 256.611 217.293 256.611C218.895 256.611 220.113 257.829 220.113 259.431L220.113 262.791C220.113 264.393 218.895 265.611 217.293 265.611ZM217.293 264.759C218.355 264.759 219.219 263.895 219.219 262.833L219.219 259.389C219.219 258.321 218.355 257.457 217.293 257.457C216.231 257.457 215.367 258.321 215.367 259.389L215.367 262.833C215.367 263.895 216.231 264.759 217.293 264.759ZM222.794 256.713L223.682 256.713L222.842 259.593L222.236 259.593L222.794 256.713ZM224.318 256.713L225.206 256.713L224.366 259.593L223.76 259.593L224.318 256.713Z" fill="#F6F1FF"/>
</svg>
