<svg width="540" height="364" viewBox="0 0 540 364" fill="none" xmlns="http://www.w3.org/2000/svg">
<g opacity="0.2">
<path d="M334.214 85.2529C334.214 80.207 333.22 75.2105 331.289 70.5487C329.358 65.887 326.528 61.6511 322.96 58.0832C319.392 54.5152 315.156 51.6849 310.494 49.7539C305.832 47.823 300.836 46.8291 295.79 46.8291C290.744 46.8291 285.748 47.823 281.086 49.7539C276.424 51.6849 272.188 54.5152 268.62 58.0832C265.052 61.6512 262.222 65.887 260.291 70.5487C258.36 75.2105 257.366 80.207 257.366 85.2529L295.79 85.2529H334.214Z" fill="white"/>
<rect x="289.786" width="13.2082" height="30.0186" rx="6.60409" fill="white"/>
<rect x="345.28" y="15.75" width="13.2082" height="30.0186" rx="6.60409" transform="rotate(56.4447 345.28 15.75)" fill="white"/>
<rect x="236.954" y="27.7317" width="13.2082" height="30.0186" rx="6.60409" transform="rotate(-55.7784 236.954 27.7317)" fill="white"/>
<circle cx="163.708" cy="274.97" r="48.0297" fill="white"/>
<circle cx="384.645" cy="274.97" r="48.0297" fill="white"/>
<path d="M405.126 81.6506C413.639 81.6506 421.516 86.1572 425.829 93.4954L473.789 175.077C475.958 178.767 477.102 182.969 477.102 187.248V264.163C477.102 277.426 466.35 288.179 453.087 288.179H441.993C442.967 283.933 443.481 279.511 443.481 274.97C443.481 242.476 417.139 216.134 384.645 216.134C352.151 216.134 325.808 242.476 325.808 274.97C325.808 279.511 326.323 283.933 327.297 288.179H221.055C222.029 283.933 222.544 279.512 222.544 274.97C222.544 242.476 196.203 216.134 163.708 216.134C131.214 216.134 104.872 242.476 104.871 274.97C104.871 279.512 105.387 283.933 106.361 288.179H83.2582C69.9952 288.179 59.2435 277.426 59.2435 264.163V207.059C59.2435 196.136 66.6147 186.589 77.182 183.825L129.068 170.255C134.389 168.863 139.071 165.687 142.331 161.258L193.733 91.429C198.259 85.2806 205.439 81.6506 213.074 81.6506H405.126ZM227.672 105.065C223.712 105.065 220.006 107.018 217.767 110.285L189.794 151.111C184.334 159.079 190.04 169.906 199.7 169.906H272.976C279.607 169.905 284.983 164.529 284.983 157.898V117.073C284.983 110.441 279.607 105.065 272.976 105.065H227.672ZM305.996 105.065C299.365 105.065 293.989 110.441 293.989 117.073V157.898C293.989 164.529 299.365 169.906 305.996 169.906H421.899C431.558 169.906 437.264 159.079 431.804 151.111L403.831 110.285C401.593 107.018 397.887 105.065 393.926 105.065H305.996Z" fill="white"/>
</g>
<g filter="url(#filter0_f_31_243)">
<path d="M305.536 67.7734L63.6597 218.208L292.297 227.979L398.162 153.413C398.582 154.334 399.135 155.181 399.797 155.931L293.607 230.727L293.19 231.021L292.679 230.999L58.6792 220.999L53.8276 220.791L57.9517 218.227L303.952 65.2266L305.536 67.7734Z" fill="white"/>
<path d="M309.482 204.003L303.146 226.28L322.374 239.191L299.23 240.048L292.893 262.325L284.925 240.578L261.781 241.435L280.001 227.138L272.034 205.391L291.262 218.301L309.482 204.003Z" fill="white"/>
<path d="M54.2914 198.218L62.6224 211.59L77.9145 207.799L67.7711 219.854L76.1021 233.227L61.5022 227.305L51.3589 239.361L52.479 223.645L37.8792 217.724L53.1713 213.933L54.2914 198.218Z" fill="white"/>
<path d="M318.756 46.043L314.105 62.3944L328.219 71.8707L311.23 72.5001L306.579 88.8515L300.731 72.8891L283.742 73.5185L297.116 63.0238L291.268 47.0614L305.382 56.5377L318.756 46.043Z" fill="white"/>
<circle cx="407.464" cy="148.848" r="4.97208" fill="white"/>
</g>
<path d="M305.536 67.7734L63.6597 218.208L292.297 227.979L398.162 153.413C398.582 154.334 399.135 155.181 399.797 155.931L293.607 230.727L293.19 231.021L292.679 230.999L58.6792 220.999L53.8276 220.791L57.9517 218.227L303.952 65.2266L305.536 67.7734Z" fill="white"/>
<path d="M309.482 204.003L303.146 226.28L322.374 239.191L299.23 240.048L292.893 262.325L284.925 240.578L261.781 241.435L280.001 227.138L272.034 205.391L291.262 218.301L309.482 204.003Z" fill="white"/>
<path d="M54.2914 198.218L62.6224 211.59L77.9145 207.799L67.7711 219.854L76.1021 233.227L61.5022 227.305L51.3589 239.361L52.479 223.645L37.8792 217.724L53.1713 213.933L54.2914 198.218Z" fill="white"/>
<path d="M318.756 46.043L314.105 62.3944L328.219 71.8707L311.23 72.5001L306.579 88.8515L300.731 72.8891L283.742 73.5185L297.116 63.0238L291.268 47.0614L305.382 56.5377L318.756 46.043Z" fill="white"/>
<circle cx="407.464" cy="148.848" r="4.97208" fill="white"/>
<g filter="url(#filter1_f_31_243)">
<path d="M3.99998 300.877L28.5463 300.877L28.5463 301.044C28.3799 302.126 28.3383 302.625 28.3383 305.246L28.3383 325.632C28.3383 328.253 28.3799 328.752 28.5463 329.834L28.5463 330L21.8065 330L21.8065 329.834C22.0561 328.752 22.0977 328.253 22.0977 325.632L22.0977 302.625L10.4486 302.625L10.4486 325.632C10.4486 328.253 10.4902 328.752 10.7398 329.834L10.7398 330L3.99999 330L3.99999 329.834C4.1664 328.752 4.20801 328.253 4.20801 325.632L4.208 305.246C4.208 302.625 4.1664 302.126 3.99998 301.044L3.99998 300.877ZM49.1484 330.666C40.578 330.666 33.7549 323.843 33.7549 315.272C33.7549 306.702 40.578 299.879 49.1484 299.879C57.7188 299.879 64.5419 306.702 64.5419 315.272C64.5419 323.843 57.7188 330.666 49.1484 330.666ZM40.6612 315.896C40.6612 323.593 44.0727 328.919 48.982 328.919C55.0146 328.919 58.1349 321.596 58.1349 314.565C58.1349 306.993 54.6817 301.626 49.7309 301.626C43.7815 301.626 40.6612 308.907 40.6612 315.896ZM91.9924 330L84.5453 330L84.5453 329.834C84.5453 329.584 84.9613 329.127 83.7964 325.632L76.9733 305.495L69.651 325.632C68.4029 329.085 68.6109 329.584 68.6109 329.834L68.6109 330L65.9899 330L65.9899 329.834C66.1147 329.584 66.4475 329.085 67.7373 325.632L76.9733 300.877C78.4711 300.877 80.5097 300.586 81.5914 299.713L90.4114 325.632C91.5763 329.127 91.8676 329.584 91.9924 329.834L91.9924 330ZM95.6568 300.877L102.397 300.877L102.397 301.044C102.147 302.126 102.105 302.625 102.105 305.246L102.105 321.347L119.995 300.877L121.326 300.877C120.994 302.126 120.994 302.75 120.994 309.198L120.994 325.632C120.994 328.253 121.035 328.752 121.202 329.834L121.202 330L114.462 330L114.462 329.834C114.711 328.752 114.753 328.253 114.753 325.632L114.753 309.531L96.8633 330L95.532 330C95.8648 328.752 95.8648 328.128 95.8648 326.048L95.8648 305.246C95.8648 302.625 95.8232 302.126 95.6568 301.044L95.6568 300.877ZM127.586 300.877L134.326 300.877L134.326 301.044C134.077 302.126 134.035 302.625 134.035 305.246L134.035 328.128L145.684 328.128L145.684 305.246C145.684 302.625 145.643 302.126 145.393 301.044L145.393 300.877L152.133 300.877L152.133 301.044C151.966 302.126 151.925 302.625 151.925 305.246L151.925 328.128L154.421 328.128L154.421 335.325L153.339 335.325C152.965 330.666 152.299 330 148.513 330L127.587 330L127.587 329.834C127.753 328.752 127.795 328.253 127.795 325.632L127.795 305.246C127.795 302.625 127.753 302.126 127.586 301.044L127.586 300.877ZM158.382 300.877L176.604 300.877L176.604 303.041L176.438 303.041C175.356 302.625 174.732 302.625 172.652 302.625L164.83 302.625L164.83 309.739L173.359 309.739L173.359 311.486L164.83 311.486L164.83 328.253L174.191 328.253C176.396 328.253 176.895 328.211 177.977 327.962L178.143 327.962L178.143 330L158.382 330L158.382 329.834C158.548 328.752 158.59 328.253 158.59 325.632L158.59 305.246C158.59 302.625 158.548 302.126 158.382 301.044L158.382 300.877ZM182.841 300.877L189.581 300.877L189.581 301.044C189.332 302.126 189.29 302.625 189.29 305.246L189.29 321.347L207.18 300.877L208.511 300.877C208.178 302.126 208.178 302.75 208.178 309.198L208.178 325.632C208.178 328.253 208.22 328.752 208.386 329.834L208.386 330L201.646 330L201.646 329.834C201.896 328.752 201.938 328.253 201.938 325.632L201.938 309.531L184.048 330L182.717 330C183.049 328.752 183.049 328.128 183.049 326.048L183.049 305.246C183.049 302.625 183.008 302.126 182.841 301.044L182.841 300.877ZM189.623 292.057L192.618 292.057L192.618 292.099C192.618 293.056 192.91 293.805 193.326 294.429C193.95 295.302 194.99 295.802 196.28 295.802C198.401 295.802 199.774 294.429 199.941 292.057L202.936 292.057C202.811 295.261 200.19 297.549 196.28 297.549C192.369 297.549 189.748 295.261 189.623 292.057ZM240.649 304.663L240.649 310.405L239.692 310.405C238.985 304.871 234.824 301.626 230.581 301.626C225.547 301.626 220.388 305.953 220.388 315.896C220.388 324.924 225.047 328.918 229.873 328.918C234.034 328.918 238.319 325.798 239.692 320.431L240.649 320.431L240.649 325.881C237.82 328.669 233.701 330.666 229.041 330.666C220.471 330.666 213.731 323.843 213.731 315.272C213.731 306.702 220.471 299.879 229.041 299.879C233.743 299.879 237.861 301.876 240.649 304.663ZM246.663 300.877L253.403 300.877L253.403 301.044C253.153 302.126 253.112 302.625 253.112 305.246L253.112 313.151L261.557 305.246C264.095 302.874 265.51 301.418 265.51 301.044L265.51 300.877L268.797 300.877L268.797 301.044C267.673 301.834 266.633 302.874 264.095 305.246L261.308 307.908L268.88 324.758C270.253 327.837 271.126 328.752 272 329.501L272 330C268.38 330.999 263.929 329.376 262.015 324.8L256.69 312.069L253.112 315.397L253.112 325.632C253.112 328.253 253.153 328.752 253.403 329.834L253.403 330L246.663 330L246.663 329.834C246.83 328.752 246.871 328.253 246.871 325.632L246.871 305.246C246.871 302.625 246.83 302.126 246.663 301.044L246.663 300.877ZM282.938 300.877C284.436 300.877 286.474 300.586 287.556 299.712L296.75 325.632C297.957 329.085 298.248 329.584 298.373 329.834L298.373 330L290.968 330L290.968 329.834C290.968 329.584 291.3 329.085 290.094 325.632L289.137 322.844L276.323 322.844L275.283 325.632C273.952 329.085 274.16 329.584 274.16 329.834L274.16 330L271.538 330L271.538 329.834C271.663 329.584 271.996 329.085 273.327 325.632L282.938 300.877ZM276.989 321.097L288.513 321.097L283.021 305.287L276.989 321.097ZM300.395 329.501C301.227 328.71 301.893 327.795 303.308 324.633L308.383 313.275C304.265 312.568 301.893 310.488 301.893 307.617C301.893 303.124 305.845 300.877 313.792 300.877L324.359 300.877L324.359 301.044C324.193 302.125 324.151 302.625 324.151 305.246L324.151 325.632C324.151 328.253 324.193 328.752 324.359 329.834L324.359 330L317.619 330L317.619 329.834C317.869 328.752 317.911 328.253 317.911 325.632L317.911 302.625L314.582 302.625C310.422 302.625 308.3 305.371 308.3 308.283C308.3 310.738 310.214 312.235 313.584 312.235C314.249 312.235 314.499 312.235 314.874 312.194L315.123 312.693L310.172 324.467C308.259 329.043 304.057 330.874 300.395 330L300.395 329.501ZM346.807 300.877L349.303 300.877L361.784 320.889L374.682 300.877L377.178 300.877C377.011 301.959 376.97 302.458 376.97 304.663L376.97 325.632C376.97 328.253 377.011 328.752 377.178 329.834L377.178 330L370.438 330L370.438 329.834C370.688 328.752 370.729 328.253 370.729 325.632L370.729 310.238L359.08 328.253L359.038 328.253L348.762 311.861L348.762 325.632C348.762 328.253 348.804 328.752 349.053 329.834L349.053 330L346.807 330L346.807 329.834C346.973 328.752 347.015 328.253 347.015 325.632L347.015 304.663C347.015 302.458 346.973 301.959 346.807 300.877ZM391.857 300.877C393.355 300.877 395.394 300.586 396.476 299.712L405.67 325.632C406.877 329.085 407.168 329.584 407.293 329.834L407.293 330L399.887 330L399.887 329.834C399.887 329.584 400.22 329.085 399.013 325.632L398.056 322.844L385.242 322.844L384.202 325.632C382.871 329.085 383.079 329.584 383.079 329.834L383.079 330L380.458 330L380.458 329.834C380.583 329.584 380.916 329.085 382.247 325.632L391.857 300.877ZM385.908 321.097L397.432 321.097L391.941 305.287L385.908 321.097ZM410.147 300.877L416.887 300.877L416.887 301.044C416.637 302.125 416.596 302.625 416.596 305.246L416.596 328.253L423.377 328.253L423.377 305.246C423.377 302.625 423.335 302.125 423.169 301.044L423.169 300.877L429.826 300.877L429.826 301.044C429.659 302.125 429.618 302.625 429.618 305.246L429.618 328.253L436.441 328.253L436.441 305.246C436.441 302.625 436.399 302.125 436.149 301.044L436.149 300.877L442.889 300.877L442.889 301.044C442.723 302.125 442.681 302.625 442.681 305.246L442.681 325.632C442.681 328.128 442.681 328.752 443.014 329.834L443.014 330L410.022 330L410.022 329.834C410.355 328.752 410.355 328.128 410.355 325.632L410.355 305.246C410.355 302.625 410.313 302.125 410.147 301.044L410.147 300.877ZM449.393 300.877L456.133 300.877L456.133 301.044C455.883 302.125 455.841 302.625 455.841 305.246L455.841 321.346L473.731 300.877L475.062 300.877C474.73 302.125 474.73 302.749 474.73 309.198L474.73 325.632C474.73 328.253 474.771 328.752 474.938 329.834L474.938 330L468.198 330L468.198 329.834C468.447 328.752 468.489 328.253 468.489 325.632L468.489 309.531L450.599 330L449.268 330C449.601 328.752 449.601 328.128 449.601 326.048L449.601 305.246C449.601 302.625 449.559 302.125 449.393 301.044L449.393 300.877ZM499.129 300.877L505.869 300.877L505.869 301.044C505.702 302.125 505.661 302.625 505.661 305.246L505.661 325.632C505.661 328.253 505.702 328.752 505.869 329.834L505.869 330L499.129 330L499.129 329.834C499.379 328.752 499.42 328.253 499.42 325.632L499.42 311.486L487.771 311.486L487.771 325.632C487.771 328.253 487.813 328.752 488.062 329.834L488.062 330L481.323 330L481.323 329.834C481.489 328.752 481.531 328.253 481.531 325.632L481.531 305.246C481.531 302.625 481.489 302.125 481.323 301.044L481.323 300.877L488.062 300.877L488.062 301.044C487.813 302.125 487.771 302.625 487.771 305.246L487.771 309.739L499.42 309.739L499.42 305.246C499.42 302.625 499.379 302.125 499.129 301.044L499.129 300.877ZM520.563 300.877C522.061 300.877 524.1 300.586 525.181 299.712L534.376 325.632C535.582 329.085 535.873 329.584 535.998 329.834L535.998 330L528.593 330L528.593 329.834C528.593 329.584 528.926 329.085 527.719 325.632L526.762 322.844L513.948 322.844L512.908 325.632C511.577 329.085 511.785 329.584 511.785 329.834L511.785 330L509.164 330L509.164 329.834C509.289 329.584 509.621 329.085 510.953 325.632L520.563 300.877ZM514.614 321.097L526.138 321.097L520.646 305.287L514.614 321.097Z" fill="#F6F1FF"/>
</g>
<path d="M3.99998 300.877L28.5463 300.877L28.5463 301.044C28.3799 302.126 28.3383 302.625 28.3383 305.246L28.3383 325.632C28.3383 328.253 28.3799 328.752 28.5463 329.834L28.5463 330L21.8065 330L21.8065 329.834C22.0561 328.752 22.0977 328.253 22.0977 325.632L22.0977 302.625L10.4486 302.625L10.4486 325.632C10.4486 328.253 10.4902 328.752 10.7398 329.834L10.7398 330L3.99999 330L3.99999 329.834C4.1664 328.752 4.20801 328.253 4.20801 325.632L4.208 305.246C4.208 302.625 4.1664 302.126 3.99998 301.044L3.99998 300.877ZM49.1484 330.666C40.578 330.666 33.7549 323.843 33.7549 315.272C33.7549 306.702 40.578 299.879 49.1484 299.879C57.7188 299.879 64.5419 306.702 64.5419 315.272C64.5419 323.843 57.7188 330.666 49.1484 330.666ZM40.6612 315.896C40.6612 323.593 44.0727 328.919 48.982 328.919C55.0146 328.919 58.1349 321.596 58.1349 314.565C58.1349 306.993 54.6817 301.626 49.7309 301.626C43.7815 301.626 40.6612 308.907 40.6612 315.896ZM91.9924 330L84.5453 330L84.5453 329.834C84.5453 329.584 84.9613 329.127 83.7964 325.632L76.9733 305.495L69.651 325.632C68.4029 329.085 68.6109 329.584 68.6109 329.834L68.6109 330L65.9899 330L65.9899 329.834C66.1147 329.584 66.4475 329.085 67.7373 325.632L76.9733 300.877C78.4711 300.877 80.5097 300.586 81.5914 299.713L90.4114 325.632C91.5763 329.127 91.8676 329.584 91.9924 329.834L91.9924 330ZM95.6568 300.877L102.397 300.877L102.397 301.044C102.147 302.126 102.105 302.625 102.105 305.246L102.105 321.347L119.995 300.877L121.326 300.877C120.994 302.126 120.994 302.75 120.994 309.198L120.994 325.632C120.994 328.253 121.035 328.752 121.202 329.834L121.202 330L114.462 330L114.462 329.834C114.711 328.752 114.753 328.253 114.753 325.632L114.753 309.531L96.8633 330L95.532 330C95.8648 328.752 95.8648 328.128 95.8648 326.048L95.8648 305.246C95.8648 302.625 95.8232 302.126 95.6568 301.044L95.6568 300.877ZM127.586 300.877L134.326 300.877L134.326 301.044C134.077 302.126 134.035 302.625 134.035 305.246L134.035 328.128L145.684 328.128L145.684 305.246C145.684 302.625 145.643 302.126 145.393 301.044L145.393 300.877L152.133 300.877L152.133 301.044C151.966 302.126 151.925 302.625 151.925 305.246L151.925 328.128L154.421 328.128L154.421 335.325L153.339 335.325C152.965 330.666 152.299 330 148.513 330L127.587 330L127.587 329.834C127.753 328.752 127.795 328.253 127.795 325.632L127.795 305.246C127.795 302.625 127.753 302.126 127.586 301.044L127.586 300.877ZM158.382 300.877L176.604 300.877L176.604 303.041L176.438 303.041C175.356 302.625 174.732 302.625 172.652 302.625L164.83 302.625L164.83 309.739L173.359 309.739L173.359 311.486L164.83 311.486L164.83 328.253L174.191 328.253C176.396 328.253 176.895 328.211 177.977 327.962L178.143 327.962L178.143 330L158.382 330L158.382 329.834C158.548 328.752 158.59 328.253 158.59 325.632L158.59 305.246C158.59 302.625 158.548 302.126 158.382 301.044L158.382 300.877ZM182.841 300.877L189.581 300.877L189.581 301.044C189.332 302.126 189.29 302.625 189.29 305.246L189.29 321.347L207.18 300.877L208.511 300.877C208.178 302.126 208.178 302.75 208.178 309.198L208.178 325.632C208.178 328.253 208.22 328.752 208.386 329.834L208.386 330L201.646 330L201.646 329.834C201.896 328.752 201.938 328.253 201.938 325.632L201.938 309.531L184.048 330L182.717 330C183.049 328.752 183.049 328.128 183.049 326.048L183.049 305.246C183.049 302.625 183.008 302.126 182.841 301.044L182.841 300.877ZM189.623 292.057L192.618 292.057L192.618 292.099C192.618 293.056 192.91 293.805 193.326 294.429C193.95 295.302 194.99 295.802 196.28 295.802C198.401 295.802 199.774 294.429 199.941 292.057L202.936 292.057C202.811 295.261 200.19 297.549 196.28 297.549C192.369 297.549 189.748 295.261 189.623 292.057ZM240.649 304.663L240.649 310.405L239.692 310.405C238.985 304.871 234.824 301.626 230.581 301.626C225.547 301.626 220.388 305.953 220.388 315.896C220.388 324.924 225.047 328.918 229.873 328.918C234.034 328.918 238.319 325.798 239.692 320.431L240.649 320.431L240.649 325.881C237.82 328.669 233.701 330.666 229.041 330.666C220.471 330.666 213.731 323.843 213.731 315.272C213.731 306.702 220.471 299.879 229.041 299.879C233.743 299.879 237.861 301.876 240.649 304.663ZM246.663 300.877L253.403 300.877L253.403 301.044C253.153 302.126 253.112 302.625 253.112 305.246L253.112 313.151L261.557 305.246C264.095 302.874 265.51 301.418 265.51 301.044L265.51 300.877L268.797 300.877L268.797 301.044C267.673 301.834 266.633 302.874 264.095 305.246L261.308 307.908L268.88 324.758C270.253 327.837 271.126 328.752 272 329.501L272 330C268.38 330.999 263.929 329.376 262.015 324.8L256.69 312.069L253.112 315.397L253.112 325.632C253.112 328.253 253.153 328.752 253.403 329.834L253.403 330L246.663 330L246.663 329.834C246.83 328.752 246.871 328.253 246.871 325.632L246.871 305.246C246.871 302.625 246.83 302.126 246.663 301.044L246.663 300.877ZM282.938 300.877C284.436 300.877 286.474 300.586 287.556 299.712L296.75 325.632C297.957 329.085 298.248 329.584 298.373 329.834L298.373 330L290.968 330L290.968 329.834C290.968 329.584 291.3 329.085 290.094 325.632L289.137 322.844L276.323 322.844L275.283 325.632C273.952 329.085 274.16 329.584 274.16 329.834L274.16 330L271.538 330L271.538 329.834C271.663 329.584 271.996 329.085 273.327 325.632L282.938 300.877ZM276.989 321.097L288.513 321.097L283.021 305.287L276.989 321.097ZM300.395 329.501C301.227 328.71 301.893 327.795 303.308 324.633L308.383 313.275C304.265 312.568 301.893 310.488 301.893 307.617C301.893 303.124 305.845 300.877 313.792 300.877L324.359 300.877L324.359 301.044C324.193 302.125 324.151 302.625 324.151 305.246L324.151 325.632C324.151 328.253 324.193 328.752 324.359 329.834L324.359 330L317.619 330L317.619 329.834C317.869 328.752 317.911 328.253 317.911 325.632L317.911 302.625L314.582 302.625C310.422 302.625 308.3 305.371 308.3 308.283C308.3 310.738 310.214 312.235 313.584 312.235C314.249 312.235 314.499 312.235 314.874 312.194L315.123 312.693L310.172 324.467C308.259 329.043 304.057 330.874 300.395 330L300.395 329.501ZM346.807 300.877L349.303 300.877L361.784 320.889L374.682 300.877L377.178 300.877C377.011 301.959 376.97 302.458 376.97 304.663L376.97 325.632C376.97 328.253 377.011 328.752 377.178 329.834L377.178 330L370.438 330L370.438 329.834C370.688 328.752 370.729 328.253 370.729 325.632L370.729 310.238L359.08 328.253L359.038 328.253L348.762 311.861L348.762 325.632C348.762 328.253 348.804 328.752 349.053 329.834L349.053 330L346.807 330L346.807 329.834C346.973 328.752 347.015 328.253 347.015 325.632L347.015 304.663C347.015 302.458 346.973 301.959 346.807 300.877ZM391.857 300.877C393.355 300.877 395.394 300.586 396.476 299.712L405.67 325.632C406.877 329.085 407.168 329.584 407.293 329.834L407.293 330L399.887 330L399.887 329.834C399.887 329.584 400.22 329.085 399.013 325.632L398.056 322.844L385.242 322.844L384.202 325.632C382.871 329.085 383.079 329.584 383.079 329.834L383.079 330L380.458 330L380.458 329.834C380.583 329.584 380.916 329.085 382.247 325.632L391.857 300.877ZM385.908 321.097L397.432 321.097L391.941 305.287L385.908 321.097ZM410.147 300.877L416.887 300.877L416.887 301.044C416.637 302.125 416.596 302.625 416.596 305.246L416.596 328.253L423.377 328.253L423.377 305.246C423.377 302.625 423.335 302.125 423.169 301.044L423.169 300.877L429.826 300.877L429.826 301.044C429.659 302.125 429.618 302.625 429.618 305.246L429.618 328.253L436.441 328.253L436.441 305.246C436.441 302.625 436.399 302.125 436.149 301.044L436.149 300.877L442.889 300.877L442.889 301.044C442.723 302.125 442.681 302.625 442.681 305.246L442.681 325.632C442.681 328.128 442.681 328.752 443.014 329.834L443.014 330L410.022 330L410.022 329.834C410.355 328.752 410.355 328.128 410.355 325.632L410.355 305.246C410.355 302.625 410.313 302.125 410.147 301.044L410.147 300.877ZM449.393 300.877L456.133 300.877L456.133 301.044C455.883 302.125 455.841 302.625 455.841 305.246L455.841 321.346L473.731 300.877L475.062 300.877C474.73 302.125 474.73 302.749 474.73 309.198L474.73 325.632C474.73 328.253 474.771 328.752 474.938 329.834L474.938 330L468.198 330L468.198 329.834C468.447 328.752 468.489 328.253 468.489 325.632L468.489 309.531L450.599 330L449.268 330C449.601 328.752 449.601 328.128 449.601 326.048L449.601 305.246C449.601 302.625 449.559 302.125 449.393 301.044L449.393 300.877ZM499.129 300.877L505.869 300.877L505.869 301.044C505.702 302.125 505.661 302.625 505.661 305.246L505.661 325.632C505.661 328.253 505.702 328.752 505.869 329.834L505.869 330L499.129 330L499.129 329.834C499.379 328.752 499.42 328.253 499.42 325.632L499.42 311.486L487.771 311.486L487.771 325.632C487.771 328.253 487.813 328.752 488.062 329.834L488.062 330L481.323 330L481.323 329.834C481.489 328.752 481.531 328.253 481.531 325.632L481.531 305.246C481.531 302.625 481.489 302.125 481.323 301.044L481.323 300.877L488.062 300.877L488.062 301.044C487.813 302.125 487.771 302.625 487.771 305.246L487.771 309.739L499.42 309.739L499.42 305.246C499.42 302.625 499.379 302.125 499.129 301.044L499.129 300.877ZM520.563 300.877C522.061 300.877 524.1 300.586 525.181 299.712L534.376 325.632C535.582 329.085 535.873 329.584 535.998 329.834L535.998 330L528.593 330L528.593 329.834C528.593 329.584 528.926 329.085 527.719 325.632L526.762 322.844L513.948 322.844L512.908 325.632C511.577 329.085 511.785 329.584 511.785 329.834L511.785 330L509.164 330L509.164 329.834C509.289 329.584 509.621 329.085 510.953 325.632L520.563 300.877ZM514.614 321.097L526.138 321.097L520.646 305.287L514.614 321.097Z" fill="#F6F1FF"/>
<path opacity="0.5" d="M190.141 363.88C187.99 363.88 186.261 362.674 185.648 360.714L187.055 360.292C187.538 361.729 188.734 362.483 190.121 362.453C192.051 362.413 193.228 361.116 193.228 359.176C193.228 357.205 191.971 355.898 190.101 355.898C189.578 355.898 188.965 356.059 188.473 356.301L187.729 355.124L192.695 350.53L186.221 350.53L186.221 349.113L194.585 349.113L194.585 350.55L190.352 354.602C192.976 354.582 194.756 356.471 194.756 359.176C194.756 361.96 192.805 363.88 190.141 363.88ZM203.064 363.89C200.34 363.89 198.168 361.719 198.168 358.894L198.168 353.878C198.168 350.973 200.309 348.821 203.175 348.821C204.823 348.821 206.301 349.585 207.206 350.882L206.07 351.817C205.456 350.862 204.371 350.229 203.175 350.229C201.134 350.229 199.666 351.877 199.666 353.747L199.666 355.969C200.521 354.923 201.787 354.26 203.205 354.26C205.889 354.26 207.97 356.371 207.97 359.055C207.97 361.729 205.748 363.89 203.064 363.89ZM203.064 362.453C204.954 362.453 206.482 360.945 206.482 359.055C206.482 357.165 204.964 355.637 203.074 355.637C201.184 355.637 199.666 357.165 199.666 359.055C199.666 360.925 201.174 362.453 203.064 362.453ZM216.165 363.89C213.481 363.89 211.44 361.85 211.44 359.166L211.44 353.536C211.44 350.852 213.481 348.811 216.165 348.811C218.849 348.811 220.89 350.852 220.89 353.536L220.89 359.166C220.89 361.85 218.849 363.89 216.165 363.89ZM216.165 362.463C217.944 362.463 219.392 361.015 219.392 359.236L219.392 353.466C219.392 351.676 217.944 350.229 216.165 350.229C214.386 350.229 212.938 351.676 212.938 353.466L212.938 359.236C212.938 361.015 214.386 362.463 216.165 362.463ZM227.331 356.049C225.34 356.049 223.712 354.441 223.712 352.43C223.712 350.46 225.401 348.811 227.331 348.811C229.321 348.811 230.95 350.42 230.95 352.43C230.95 354.441 229.321 356.049 227.331 356.049ZM227.331 354.712C228.567 354.712 229.613 353.667 229.613 352.43C229.613 351.194 228.567 350.148 227.331 350.148C226.094 350.148 225.049 351.194 225.049 352.43C225.049 353.667 226.094 354.712 227.331 354.712ZM239.097 363.89C236.412 363.89 234.372 361.85 234.372 359.166L234.372 353.536C234.372 350.852 236.412 348.811 239.097 348.811C241.781 348.811 243.821 350.852 243.821 353.536L243.821 359.166C243.821 361.85 241.781 363.89 239.097 363.89ZM239.097 362.463C240.876 362.463 242.324 361.015 242.324 359.236L242.324 353.466C242.324 351.676 240.876 350.229 239.097 350.229C237.317 350.229 235.87 351.676 235.87 353.466L235.87 359.236C235.87 361.015 237.317 362.463 239.097 362.463ZM252.172 363.89C249.488 363.89 247.447 361.85 247.447 359.166L247.447 353.536C247.447 350.852 249.488 348.811 252.172 348.811C254.856 348.811 256.897 350.852 256.897 353.536L256.897 359.166C256.897 361.85 254.856 363.89 252.172 363.89ZM252.172 362.463C253.952 362.463 255.399 361.015 255.399 359.236L255.399 353.466C255.399 351.676 253.952 350.229 252.172 350.229C250.393 350.229 248.945 351.676 248.945 353.466L248.945 359.236C248.945 361.015 250.393 362.463 252.172 362.463ZM261.388 348.982L262.876 348.982L261.468 353.807L260.453 353.807L261.388 348.982ZM263.941 348.982L265.429 348.982L264.022 353.807L263.006 353.807L263.941 348.982ZM273.436 357.889L273.436 356.622L281.881 356.622L281.881 357.889L273.436 357.889ZM294.019 363.88C291.868 363.88 290.139 362.674 289.526 360.714L290.933 360.292C291.416 361.729 292.612 362.483 293.999 362.453C295.929 362.413 297.105 361.116 297.105 359.176C297.105 357.205 295.849 355.898 293.979 355.898C293.456 355.898 292.843 356.059 292.351 356.301L291.607 355.124L296.573 350.53L290.099 350.53L290.099 349.113L298.463 349.113L298.463 350.55L294.23 354.602C296.854 354.581 298.634 356.471 298.634 359.176C298.634 361.96 296.683 363.88 294.019 363.88ZM306.771 363.89C304.087 363.89 302.046 361.85 302.046 359.166L302.046 353.536C302.046 350.852 304.087 348.811 306.771 348.811C309.455 348.811 311.496 350.852 311.496 353.536L311.496 359.166C311.496 361.85 309.455 363.89 306.771 363.89ZM306.771 362.463C308.55 362.463 309.998 361.015 309.998 359.236L309.998 353.466C309.998 351.676 308.55 350.229 306.771 350.229C304.992 350.229 303.544 351.676 303.544 353.466L303.544 359.236C303.544 361.015 304.992 362.463 306.771 362.463ZM317.937 356.049C315.946 356.049 314.318 354.441 314.318 352.43C314.318 350.46 316.007 348.811 317.937 348.811C319.927 348.811 321.556 350.42 321.556 352.43C321.556 354.441 319.927 356.049 317.937 356.049ZM317.937 354.712C319.173 354.712 320.219 353.667 320.219 352.43C320.219 351.194 319.173 350.148 317.937 350.148C316.7 350.148 315.655 351.194 315.655 352.43C315.655 353.667 316.7 354.712 317.937 354.712ZM329.702 363.89C327.018 363.89 324.978 361.85 324.978 359.166L324.978 353.536C324.978 350.852 327.018 348.811 329.702 348.811C332.387 348.811 334.427 350.852 334.427 353.536L334.427 359.166C334.427 361.85 332.387 363.89 329.702 363.89ZM329.702 362.463C331.482 362.463 332.929 361.015 332.929 359.236L332.929 353.466C332.929 351.676 331.482 350.229 329.702 350.229C327.923 350.229 326.475 351.676 326.475 353.466L326.475 359.236C326.475 361.015 327.923 362.463 329.702 362.463ZM342.778 363.89C340.094 363.89 338.053 361.85 338.053 359.166L338.053 353.536C338.053 350.852 340.094 348.811 342.778 348.811C345.462 348.811 347.503 350.852 347.503 353.536L347.503 359.166C347.503 361.85 345.462 363.89 342.778 363.89ZM342.778 362.463C344.558 362.463 346.005 361.015 346.005 359.236L346.005 353.466C346.005 351.676 344.558 350.229 342.778 350.229C340.999 350.229 339.551 351.676 339.551 353.466L339.551 359.236C339.551 361.015 340.999 362.463 342.778 362.463ZM351.994 348.982L353.481 348.982L352.074 353.807L351.059 353.807L351.994 348.982ZM354.547 348.982L356.035 348.982L354.627 353.807L353.612 353.807L354.547 348.982Z" fill="#F6F1FF"/>
<defs>
<filter id="filter0_f_31_243" x="27.8792" y="36.043" width="394.557" height="236.282" filterUnits="userSpaceOnUse" color-interpolation-filters="sRGB">
<feFlood flood-opacity="0" result="BackgroundImageFix"/>
<feBlend mode="normal" in="SourceGraphic" in2="BackgroundImageFix" result="shape"/>
<feGaussianBlur stdDeviation="5" result="effect1_foregroundBlur_31_243"/>
</filter>
<filter id="filter1_f_31_243" x="0" y="288.057" width="539.998" height="51.2683" filterUnits="userSpaceOnUse" color-interpolation-filters="sRGB">
<feFlood flood-opacity="0" result="BackgroundImageFix"/>
<feBlend mode="normal" in="SourceGraphic" in2="BackgroundImageFix" result="shape"/>
<feGaussianBlur stdDeviation="2" result="effect1_foregroundBlur_31_243"/>
</filter>
</defs>
</svg>
