<svg width="481" height="364" viewBox="0 0 481 364" fill="none" xmlns="http://www.w3.org/2000/svg">
<g opacity="0.2">
<path d="M342.174 21.0674C351.559 38.377 372.098 64.3359 402.411 81.7663C380.284 123.394 337.353 171.258 260.478 210.137C268.686 214.712 279.182 223.238 273.08 230.924C267.011 238.567 234.769 255.452 213.434 265.877C209.803 267.65 205.727 264.564 206.402 260.58L209.487 242.352C209.716 240.999 210.491 239.799 211.63 239.035L240.364 219.743C233.479 222.846 226.351 225.879 218.973 228.831C211.634 231.766 203.223 229.907 197.686 224.267L184.339 210.669C178.991 205.22 177.145 197.211 180.047 190.149C184.043 180.427 189.093 169.732 195.202 158.545L169.198 194.79C168.398 195.904 167.175 196.641 165.816 196.828L147.501 199.346C143.498 199.896 140.539 195.726 142.425 192.153C153.508 171.152 171.387 139.451 179.215 133.623C187.334 127.578 195.799 139.211 199.996 147.644C200.254 148.163 200.401 148.714 200.448 149.27C228.712 100.991 275.886 46.2225 342.174 21.0674ZM313.822 68.069C297.872 71.5246 287.743 87.2557 291.198 103.206C294.654 119.156 310.386 129.285 326.336 125.829C342.286 122.374 352.415 106.642 348.96 90.6917C345.504 74.7417 329.772 64.6136 313.822 68.069ZM351.734 17.6911C373.457 10.5892 397.126 6.67363 422.746 7.1184C423.435 23.1513 419.348 46.435 406.902 72.8114C379.503 56.9063 360.653 33.5184 351.734 17.6911Z" fill="white"/>
<path d="M78.3309 248.162C144.09 201.249 179.853 210.354 190.612 233.474C207.406 287.562 148.879 344.118 144.243 335.124C140.534 327.928 153.279 291.585 160.116 274.313C141.492 297.947 104.059 342.324 103.324 330.759C102.588 319.194 127.281 281.433 139.72 263.998C112.155 287.04 57.1309 329.284 57.5478 313.93C57.9648 298.576 95.7233 266.022 114.55 251.665C75.0777 270.045 12.5721 295.076 78.3309 248.162Z" fill="white"/>
</g>
<g filter="url(#filter0_f_31_178)">
<path d="M80.3726 321.999L87.7277 330.513L98.0976 326.148L92.2733 335.774L99.6283 344.288L88.6737 341.724L82.8494 351.349L81.9033 340.138L70.9487 337.574L81.3187 333.21L80.3726 321.999Z" fill="white"/>
<path d="M185.927 243.562L172.027 253.349L177.039 269.593L163.436 259.397L149.535 269.184L155.028 253.096L141.425 242.9L158.423 243.153L163.917 227.065L168.929 243.309L185.927 243.562Z" fill="white"/>
<path d="M414.722 42.0363L400.816 37.014L391.743 48.6873L392.222 33.9101L378.316 28.8878L392.518 24.7773L392.998 10.0001L401.296 22.2368L415.498 18.1262L406.424 29.7995L414.722 42.0363Z" fill="white"/>
<circle cx="323.319" cy="99.8401" r="4.97208" fill="white"/>
<path d="M325.253 268.934C325.428 269.943 325.752 270.9 326.2 271.784L81.499 339.437L80.7002 336.547L325.253 268.934ZM336.771 257.1C336.287 257.03 335.791 256.992 335.287 256.992C334.769 256.992 334.259 257.031 333.762 257.105L322.001 110.283C322.422 110.336 322.851 110.367 323.287 110.367C323.873 110.367 324.446 110.314 325.005 110.219L336.771 257.1ZM314.825 105.852C315.386 106.688 316.068 107.435 316.845 108.07L164.627 251.085L162.572 248.899L314.825 105.852ZM396.127 33.5847L331.562 94.2419C330.976 93.4257 330.273 92.6994 329.476 92.0886L394.072 31.3992L396.127 33.5847Z" fill="white"/>
<circle cx="335.319" cy="266.84" r="4.97208" fill="white"/>
</g>
<path d="M80.3726 321.999L87.7277 330.513L98.0976 326.148L92.2733 335.774L99.6283 344.288L88.6737 341.724L82.8494 351.349L81.9033 340.138L70.9487 337.574L81.3187 333.21L80.3726 321.999Z" fill="white"/>
<path d="M185.927 243.562L172.027 253.349L177.039 269.593L163.436 259.397L149.535 269.184L155.028 253.096L141.425 242.9L158.423 243.153L163.917 227.065L168.929 243.309L185.927 243.562Z" fill="white"/>
<path d="M414.722 42.0363L400.816 37.014L391.743 48.6873L392.222 33.9101L378.316 28.8878L392.518 24.7773L392.998 10.0001L401.296 22.2368L415.498 18.1262L406.424 29.7995L414.722 42.0363Z" fill="white"/>
<circle cx="323.319" cy="99.8401" r="4.97208" fill="white"/>
<path d="M325.253 268.934C325.428 269.943 325.752 270.9 326.2 271.784L81.499 339.437L80.7002 336.547L325.253 268.934ZM336.771 257.1C336.287 257.03 335.791 256.992 335.287 256.992C334.769 256.992 334.259 257.031 333.762 257.105L322.001 110.283C322.422 110.336 322.851 110.367 323.287 110.367C323.873 110.367 324.446 110.314 325.005 110.219L336.771 257.1ZM314.825 105.852C315.386 106.688 316.068 107.435 316.845 108.07L164.627 251.085L162.572 248.899L314.825 105.852ZM396.127 33.5847L331.562 94.2419C330.976 93.4257 330.273 92.6994 329.476 92.0886L394.072 31.3992L396.127 33.5847Z" fill="white"/>
<circle cx="335.319" cy="266.84" r="4.97208" fill="white"/>
<g filter="url(#filter1_f_31_178)">
<path d="M83.0686 20.8693C90.2661 20.8693 94.801 24.3224 94.801 30.0638C94.801 36.554 88.8932 39.8823 82.6942 39.8823C81.9453 39.8823 81.1549 39.7991 80.406 39.7159L80.406 38.4678L80.9469 38.4678C85.3985 38.4678 88.5604 35.5139 88.5604 30.3966C88.5604 25.4041 86.1473 22.6167 81.6957 22.6167L78.7418 22.6167L78.7418 45.6236C78.7418 48.2447 78.7835 48.7439 78.9499 49.8256L78.9499 49.9921L72.2932 49.9921L72.2932 49.8256C72.4596 48.7439 72.5013 48.2447 72.5013 45.6236L72.5012 25.2377C72.5012 22.6167 72.4596 22.1174 72.2932 21.0357L72.2932 20.8693L83.0686 20.8693ZM106.983 20.8693C108.481 20.8693 110.52 20.578 111.601 19.7044L120.796 45.6236C122.002 49.0768 122.294 49.576 122.419 49.8256L122.419 49.992L115.013 49.9921L115.013 49.8256C115.013 49.576 115.346 49.0768 114.139 45.6236L113.182 42.8362L100.368 42.8362L99.3283 45.6236C97.997 49.0768 98.205 49.576 98.205 49.8256L98.205 49.9921L95.584 49.9921L95.584 49.8256C95.7088 49.576 96.0416 49.0768 97.3729 45.6236L106.983 20.8693ZM101.034 41.0888L112.558 41.0888L107.067 25.2793L101.034 41.0888ZM125.148 20.8693L131.888 20.8693L131.888 21.0357C131.638 22.1174 131.597 22.6166 131.597 25.2377L131.597 33.1424L140.042 25.2377C142.58 22.8663 143.995 21.4101 143.995 21.0357L143.995 20.8693L147.281 20.8693L147.281 21.0357C146.158 21.8262 145.118 22.8663 142.58 25.2377L139.793 27.9003L147.365 44.7499C148.738 47.8286 149.611 48.7439 150.485 49.4928L150.485 49.992C146.865 50.9905 142.414 49.368 140.5 44.7915L135.175 32.0607L131.597 35.3891L131.597 45.6236C131.597 48.2447 131.638 48.7439 131.888 49.8256L131.888 49.992L125.148 49.992L125.148 49.8256C125.315 48.7439 125.356 48.2447 125.356 45.6236L125.356 25.2377C125.356 22.6166 125.315 22.1174 125.148 21.0357L125.148 20.8693ZM152.977 20.8693L171.2 20.8693L171.2 23.0327L171.033 23.0327C169.952 22.6166 169.328 22.6166 167.247 22.6166L159.426 22.6166L159.426 29.7309L167.955 29.7309L167.955 31.4783L159.426 31.4783L159.426 48.2447L168.787 48.2447C170.992 48.2447 171.491 48.2031 172.573 47.9534L172.739 47.9534L172.739 49.992L152.977 49.992L152.977 49.8256C153.144 48.7439 153.185 48.2447 153.185 45.6236L153.185 25.2377C153.185 22.6166 153.144 22.1174 152.977 21.0357L152.977 20.8693ZM176.688 20.8693L195.826 20.8692L195.826 22.9078L195.66 22.9078C194.578 22.6582 194.079 22.6166 191.874 22.6166L189.378 22.6166L189.378 45.6236C189.378 48.1615 189.419 48.6191 189.627 49.6176L189.669 49.8256L189.669 49.992L182.846 49.992L182.846 49.8256L182.887 49.6176C183.095 48.6191 183.137 48.1615 183.137 45.6236L183.137 22.6166L180.641 22.6166C178.436 22.6166 177.936 22.6582 176.855 22.9078L176.688 22.9078L176.688 20.8693ZM208.224 20.8692C209.722 20.8692 211.76 20.578 212.842 19.7043L222.037 45.6236C223.243 49.0767 223.534 49.576 223.659 49.8256L223.659 49.992L216.254 49.992L216.254 49.8256C216.254 49.576 216.587 49.0767 215.38 45.6236L214.423 42.8361L201.609 42.8361L200.569 45.6236C199.238 49.0767 199.446 49.576 199.446 49.8256L199.446 49.992L196.825 49.992L196.825 49.8256C196.949 49.576 197.282 49.0767 198.614 45.6236L208.224 20.8692ZM202.275 41.0888L213.799 41.0888L208.307 25.2793L202.275 41.0888Z" fill="#F6F1FF"/>
</g>
<path d="M83.0686 20.8693C90.2661 20.8693 94.801 24.3224 94.801 30.0638C94.801 36.554 88.8932 39.8823 82.6942 39.8823C81.9453 39.8823 81.1549 39.7991 80.406 39.7159L80.406 38.4678L80.9469 38.4678C85.3985 38.4678 88.5604 35.5139 88.5604 30.3966C88.5604 25.4041 86.1473 22.6167 81.6957 22.6167L78.7418 22.6167L78.7418 45.6236C78.7418 48.2447 78.7835 48.7439 78.9499 49.8256L78.9499 49.9921L72.2932 49.9921L72.2932 49.8256C72.4596 48.7439 72.5013 48.2447 72.5013 45.6236L72.5012 25.2377C72.5012 22.6167 72.4596 22.1174 72.2932 21.0357L72.2932 20.8693L83.0686 20.8693ZM106.983 20.8693C108.481 20.8693 110.52 20.578 111.601 19.7044L120.796 45.6236C122.002 49.0768 122.294 49.576 122.419 49.8256L122.419 49.992L115.013 49.9921L115.013 49.8256C115.013 49.576 115.346 49.0768 114.139 45.6236L113.182 42.8362L100.368 42.8362L99.3283 45.6236C97.997 49.0768 98.205 49.576 98.205 49.8256L98.205 49.9921L95.584 49.9921L95.584 49.8256C95.7088 49.576 96.0416 49.0768 97.3729 45.6236L106.983 20.8693ZM101.034 41.0888L112.558 41.0888L107.067 25.2793L101.034 41.0888ZM125.148 20.8693L131.888 20.8693L131.888 21.0357C131.638 22.1174 131.597 22.6166 131.597 25.2377L131.597 33.1424L140.042 25.2377C142.58 22.8663 143.995 21.4101 143.995 21.0357L143.995 20.8693L147.281 20.8693L147.281 21.0357C146.158 21.8262 145.118 22.8663 142.58 25.2377L139.793 27.9003L147.365 44.7499C148.738 47.8286 149.611 48.7439 150.485 49.4928L150.485 49.992C146.865 50.9905 142.414 49.368 140.5 44.7915L135.175 32.0607L131.597 35.3891L131.597 45.6236C131.597 48.2447 131.638 48.7439 131.888 49.8256L131.888 49.992L125.148 49.992L125.148 49.8256C125.315 48.7439 125.356 48.2447 125.356 45.6236L125.356 25.2377C125.356 22.6166 125.315 22.1174 125.148 21.0357L125.148 20.8693ZM152.977 20.8693L171.2 20.8693L171.2 23.0327L171.033 23.0327C169.952 22.6166 169.328 22.6166 167.247 22.6166L159.426 22.6166L159.426 29.7309L167.955 29.7309L167.955 31.4783L159.426 31.4783L159.426 48.2447L168.787 48.2447C170.992 48.2447 171.491 48.2031 172.573 47.9534L172.739 47.9534L172.739 49.992L152.977 49.992L152.977 49.8256C153.144 48.7439 153.185 48.2447 153.185 45.6236L153.185 25.2377C153.185 22.6166 153.144 22.1174 152.977 21.0357L152.977 20.8693ZM176.688 20.8693L195.826 20.8692L195.826 22.9078L195.66 22.9078C194.578 22.6582 194.079 22.6166 191.874 22.6166L189.378 22.6166L189.378 45.6236C189.378 48.1615 189.419 48.6191 189.627 49.6176L189.669 49.8256L189.669 49.992L182.846 49.992L182.846 49.8256L182.887 49.6176C183.095 48.6191 183.137 48.1615 183.137 45.6236L183.137 22.6166L180.641 22.6166C178.436 22.6166 177.936 22.6582 176.855 22.9078L176.688 22.9078L176.688 20.8693ZM208.224 20.8692C209.722 20.8692 211.76 20.578 212.842 19.7043L222.037 45.6236C223.243 49.0767 223.534 49.576 223.659 49.8256L223.659 49.992L216.254 49.992L216.254 49.8256C216.254 49.576 216.587 49.0767 215.38 45.6236L214.423 42.8361L201.609 42.8361L200.569 45.6236C199.238 49.0767 199.446 49.576 199.446 49.8256L199.446 49.992L196.825 49.992L196.825 49.8256C196.949 49.576 197.282 49.0767 198.614 45.6236L208.224 20.8692ZM202.275 41.0888L213.799 41.0888L208.307 25.2793L202.275 41.0888Z" fill="#F6F1FF"/>
<path opacity="0.5" d="M66.441 83.8722C64.2897 83.8722 62.5606 82.6659 61.9474 80.7056L63.3548 80.2834C63.8373 81.7209 65.0336 82.4749 66.4209 82.4447C68.351 82.4045 69.5272 81.1077 69.5272 79.1675C69.5272 77.1971 68.2706 75.8903 66.4008 75.8903C65.878 75.8903 65.2648 76.0511 64.7722 76.2924L64.0283 75.1162L68.9944 70.5221L62.5204 70.5221L62.5204 69.1046L70.8843 69.1046L70.8843 70.5422L66.6521 74.5935C69.2759 74.5733 71.0552 76.4633 71.0552 79.1675C71.0552 81.9521 69.105 83.8722 66.441 83.8722ZM79.3636 83.8823C76.6393 83.8823 74.4679 81.7109 74.4679 78.886L74.4679 73.8696C74.4679 70.9644 76.6091 68.8131 79.4742 68.8131C81.1228 68.8131 82.6006 69.5771 83.5054 70.8739L82.3694 71.8088C81.7562 70.8538 80.6705 70.2205 79.4742 70.2205C77.4334 70.2205 75.9657 71.8691 75.9657 73.739L75.9657 75.9606C76.8202 74.9151 78.0869 74.2517 79.5043 74.2517C82.1884 74.2517 84.2694 76.3627 84.2694 79.0469C84.2694 81.7209 82.0477 83.8823 79.3636 83.8823ZM79.3636 82.4447C81.2535 82.4447 82.7816 80.9368 82.7816 79.0469C82.7816 77.1569 81.2636 75.6289 79.3736 75.6289C77.4837 75.6289 75.9657 77.1569 75.9657 79.0469C75.9657 80.9167 77.4737 82.4447 79.3636 82.4447ZM92.4648 83.8823C89.7807 83.8823 87.74 81.8415 87.74 79.1574L87.74 73.5278C87.74 70.8437 89.7807 68.803 92.4648 68.803C95.1489 68.803 97.1896 70.8437 97.1896 73.5278L97.1896 79.1574C97.1896 81.8415 95.1489 83.8823 92.4648 83.8823ZM92.4648 82.4548C94.2441 82.4548 95.6917 81.0072 95.6917 79.2278L95.6917 73.4575C95.6917 71.6681 94.2441 70.2205 92.4648 70.2205C90.6854 70.2205 89.2378 71.6681 89.2378 73.4575L89.2378 79.2278C89.2378 81.0072 90.6854 82.4548 92.4648 82.4548ZM103.63 76.041C101.64 76.0411 100.011 74.4326 100.011 72.422C100.011 70.4517 101.7 68.803 103.63 68.803C105.621 68.803 107.25 70.4115 107.25 72.422C107.25 74.4326 105.621 76.041 103.63 76.041ZM103.63 74.704C104.867 74.704 105.912 73.6585 105.912 72.422C105.912 71.1855 104.867 70.14 103.63 70.14C102.394 70.14 101.349 71.1855 101.349 72.422C101.349 73.6585 102.394 74.704 103.63 74.704ZM115.396 83.8823C112.712 83.8823 110.671 81.8415 110.671 79.1574L110.671 73.5278C110.671 70.8437 112.712 68.803 115.396 68.803C118.08 68.803 120.121 70.8437 120.121 73.5278L120.121 79.1574C120.121 81.8415 118.08 83.8823 115.396 83.8823ZM115.396 82.4548C117.176 82.4548 118.623 81.0071 118.623 79.2278L118.623 73.4575C118.623 71.6681 117.176 70.2205 115.396 70.2205C113.617 70.2205 112.169 71.6681 112.169 73.4575L112.169 79.2278C112.169 81.0071 113.617 82.4548 115.396 82.4548ZM128.472 83.8823C125.788 83.8823 123.747 81.8415 123.747 79.1574L123.747 73.5278C123.747 70.8437 125.788 68.803 128.472 68.803C131.156 68.803 133.197 70.8437 133.197 73.5278L133.197 79.1574C133.197 81.8415 131.156 83.8822 128.472 83.8823ZM128.472 82.4547C130.251 82.4547 131.699 81.0071 131.699 79.2278L131.699 73.4575C131.699 71.6681 130.251 70.2205 128.472 70.2205C126.693 70.2205 125.245 71.6681 125.245 73.4575L125.245 79.2278C125.245 81.0071 126.693 82.4547 128.472 82.4547ZM137.687 68.9739L139.175 68.9739L137.768 73.7993L136.753 73.7993L137.687 68.9739ZM140.241 68.9739L141.729 68.9739L140.321 73.7993L139.306 73.7993L140.241 68.9739ZM149.736 77.8807L149.736 76.614L158.18 76.614L158.18 77.8807L149.736 77.8807ZM171.324 83.8822C168.6 83.8822 166.428 81.7108 166.428 78.886L166.428 73.8696C166.428 70.9643 168.57 68.813 171.435 68.813C173.083 68.813 174.561 69.5771 175.466 70.8739L174.33 71.8088C173.717 70.8538 172.631 70.2204 171.435 70.2204C169.394 70.2204 167.926 71.8691 167.926 73.7389L167.926 75.9606C168.781 74.9151 170.048 74.2516 171.465 74.2516C174.149 74.2516 176.23 76.3627 176.23 79.0468C176.23 81.7209 174.008 83.8822 171.324 83.8822ZM171.324 82.4447C173.214 82.4447 174.742 80.9368 174.742 79.0468C174.742 77.1569 173.224 75.6289 171.334 75.6289C169.444 75.6289 167.926 77.1569 167.926 79.0468C167.926 80.9167 169.434 82.4447 171.324 82.4447ZM184.425 83.8822C181.741 83.8822 179.701 81.8415 179.701 79.1574L179.701 73.5278C179.701 70.8437 181.741 68.803 184.425 68.803C187.11 68.803 189.15 70.8437 189.15 73.5278L189.15 79.1574C189.15 81.8415 187.11 83.8822 184.425 83.8822ZM184.425 82.4547C186.205 82.4547 187.652 81.0071 187.652 79.2278L187.652 73.4574C187.652 71.668 186.205 70.2204 184.425 70.2204C182.646 70.2204 181.198 71.668 181.198 73.4574L181.198 79.2278C181.198 81.0071 182.646 82.4547 184.425 82.4547ZM195.591 76.041C193.601 76.041 191.972 74.4326 191.972 72.422C191.972 70.4516 193.661 68.803 195.591 68.803C197.582 68.803 199.21 70.4114 199.21 72.422C199.21 74.4326 197.582 76.041 195.591 76.041ZM195.591 74.704C196.828 74.704 197.873 73.6585 197.873 72.422C197.873 71.1855 196.828 70.14 195.591 70.14C194.355 70.14 193.309 71.1855 193.309 72.422C193.309 73.6585 194.355 74.704 195.591 74.704ZM207.357 83.8822C204.673 83.8822 202.632 81.8415 202.632 79.1574L202.632 73.5278C202.632 70.8437 204.673 68.803 207.357 68.803C210.041 68.803 212.082 70.8437 212.082 73.5278L212.082 79.1574C212.082 81.8415 210.041 83.8822 207.357 83.8822ZM207.357 82.4547C209.136 82.4547 210.584 81.0071 210.584 79.2278L210.584 73.4574C210.584 71.668 209.136 70.2204 207.357 70.2204C205.578 70.2204 204.13 71.668 204.13 73.4574L204.13 79.2278C204.13 81.0071 205.578 82.4547 207.357 82.4547ZM220.433 83.8822C217.749 83.8822 215.708 81.8415 215.708 79.1574L215.708 73.5278C215.708 70.8437 217.749 68.803 220.433 68.803C223.117 68.803 225.157 70.8437 225.157 73.5278L225.157 79.1574C225.157 81.8415 223.117 83.8822 220.433 83.8822ZM220.433 82.4547C222.212 82.4547 223.66 81.0071 223.66 79.2278L223.66 73.4574C223.66 71.668 222.212 70.2204 220.433 70.2204C218.653 70.2204 217.206 71.668 217.206 73.4574L217.206 79.2278C217.206 81.0071 218.653 82.4547 220.433 82.4547ZM229.648 68.9739L231.136 68.9739L229.729 73.7992L228.713 73.7992L229.648 68.9739ZM232.202 68.9739L233.689 68.9739L232.282 73.7992L231.267 73.7992L232.202 68.9739Z" fill="#F6F1FF"/>
<defs>
<filter id="filter0_f_31_178" x="60.9487" y="0" width="364.549" height="361.349" filterUnits="userSpaceOnUse" color-interpolation-filters="sRGB">
<feFlood flood-opacity="0" result="BackgroundImageFix"/>
<feBlend mode="normal" in="SourceGraphic" in2="BackgroundImageFix" result="shape"/>
<feGaussianBlur stdDeviation="5" result="effect1_foregroundBlur_31_178"/>
</filter>
<filter id="filter1_f_31_178" x="68.2932" y="15.7043" width="159.366" height="39.2863" filterUnits="userSpaceOnUse" color-interpolation-filters="sRGB">
<feFlood flood-opacity="0" result="BackgroundImageFix"/>
<feBlend mode="normal" in="SourceGraphic" in2="BackgroundImageFix" result="shape"/>
<feGaussianBlur stdDeviation="2" result="effect1_foregroundBlur_31_178"/>
</filter>
</defs>
</svg>
