<svg width="353" height="266" viewBox="0 0 353 266" fill="none" xmlns="http://www.w3.org/2000/svg">
<g opacity="0.2">
<path d="M250.994 14.7244C257.878 27.4212 272.941 46.4636 295.176 59.2491C278.944 89.7832 247.453 124.892 191.063 153.41C197.084 156.766 204.785 163.021 200.308 168.66C195.857 174.266 172.207 186.651 156.557 194.298C153.893 195.599 150.904 193.335 151.398 190.413L153.662 177.042C153.83 176.05 154.398 175.17 155.234 174.609L176.322 160.45C171.268 162.728 166.036 164.957 160.619 167.124C155.236 169.277 149.066 167.914 145.005 163.777L135.215 153.802C131.292 149.805 129.937 143.93 132.067 138.75C134.997 131.619 138.702 123.775 143.182 115.57L124.109 142.154C123.522 142.972 122.625 143.513 121.628 143.65L108.193 145.497C105.257 145.899 103.087 142.841 104.47 140.22C112.6 124.816 125.714 101.563 131.456 97.2873C137.412 92.8531 143.621 101.386 146.7 107.572C146.889 107.952 146.997 108.357 147.031 108.764C167.764 73.3497 202.369 33.1756 250.994 14.7244ZM230.194 49.2014C218.494 51.7365 211.065 63.2768 213.599 74.9763C216.134 86.6757 227.674 94.1054 239.373 91.571C251.073 89.0362 258.502 77.4968 255.968 65.797C253.433 54.0975 241.893 46.6667 230.194 49.2014ZM258.006 12.2481C273.939 7.03908 291.3 4.16733 310.093 4.49354C310.597 16.2541 307.6 33.3334 298.471 52.6807C278.373 41.0139 264.547 23.8576 258.006 12.2481Z" fill="white"/>
<path d="M57.4573 181.305C105.693 146.893 131.926 153.571 139.818 170.531C152.136 210.205 109.206 251.69 105.805 245.093C103.085 239.814 112.434 213.156 117.448 200.487C103.787 217.823 76.3295 250.374 75.7901 241.891C75.2506 233.408 93.3634 205.709 102.487 192.921C82.2682 209.822 41.9066 240.809 42.2125 229.546C42.5183 218.284 70.215 194.405 84.025 183.874C55.071 197.356 9.22181 215.717 57.4573 181.305Z" fill="white"/>
</g>
<path d="M58.9549 235.465L64.35 241.711L71.9566 238.509L67.6843 245.57L73.0794 251.815L65.0439 249.934L60.7717 256.995L60.0777 248.771L52.0423 246.89L59.6489 243.689L58.9549 235.465Z" fill="white"/>
<path d="M136.381 177.931L126.185 185.109L129.861 197.025L119.883 189.546L109.687 196.725L113.716 184.924L103.738 177.445L116.207 177.63L120.236 165.829L123.913 177.745L136.381 177.931Z" fill="white"/>
<path d="M304.207 30.107L294.007 26.423L287.351 34.9856L287.703 24.1462L277.503 20.4623L287.92 17.4471L288.272 6.60771L294.359 15.5836L304.776 12.5684L298.12 21.131L304.207 30.107Z" fill="white"/>
<circle cx="237.161" cy="72.5074" r="3.64713" fill="white"/>
<path d="M238.58 196.542C238.708 197.282 238.946 197.984 239.275 198.633L59.781 248.258L59.1951 246.136L238.58 196.542ZM247.028 187.861C246.673 187.809 246.31 187.782 245.94 187.782C245.56 187.782 245.186 187.81 244.821 187.865L236.194 80.1667C236.503 80.2057 236.818 80.2283 237.137 80.2283C237.567 80.2283 237.988 80.1896 238.398 80.1199L247.028 187.861ZM230.93 76.9177C231.342 77.5306 231.843 78.0787 232.413 78.5447L120.757 183.449L120.004 182.647L119.25 181.845L230.93 76.9177ZM289.814 23.1062L290.567 23.908L243.209 68.4011C242.778 67.8022 242.262 67.2702 241.677 66.822L289.06 22.3044L289.814 23.1062Z" fill="white"/>
<circle cx="245.964" cy="195.005" r="3.64713" fill="white"/>
<path d="M69.9511 21.2894C74.2467 21.2894 76.9531 23.3503 76.9531 26.7768C76.9531 30.6503 73.4273 32.6367 69.7276 32.6367C69.2807 32.6367 68.8089 32.5871 68.3619 32.5374L68.3619 31.7925L68.6847 31.7925C71.3415 31.7925 73.2286 30.0296 73.2286 26.9755C73.2286 23.9959 71.7885 22.3323 69.1317 22.3323L67.3687 22.3323L67.3688 36.0633C67.3688 37.6275 67.3936 37.9255 67.4929 38.5711L67.4929 38.6704L63.5201 38.6704L63.5201 38.5711C63.6194 37.9255 63.6443 37.6275 63.6443 36.0633L63.6442 23.8966C63.6442 22.3323 63.6194 22.0343 63.5201 21.3887L63.5201 21.2894L69.9511 21.2894ZM84.2239 21.2894C85.1177 21.2894 86.3344 21.1156 86.98 20.5942L92.4674 36.0632C93.1875 38.1241 93.3613 38.4221 93.4358 38.5711L93.4358 38.6704L89.0161 38.6704L89.0161 38.5711C89.0161 38.4221 89.2147 38.1241 88.4946 36.0633L87.9235 34.3996L80.2759 34.3996L79.6551 36.0633C78.8606 38.1241 78.9847 38.4221 78.9847 38.5711L78.9847 38.6704L77.4204 38.6704L77.4204 38.5711C77.4949 38.4221 77.6936 38.1241 78.4881 36.0633L84.2239 21.2894ZM80.6732 33.3568L87.5511 33.3568L84.2735 23.9214L80.6732 33.3568ZM95.0649 21.2894L99.0873 21.2894L99.0873 21.3887C98.9383 22.0343 98.9135 22.3323 98.9135 23.8965L98.9135 28.6142L103.954 23.8965C105.469 22.4812 106.313 21.6122 106.313 21.3887L106.313 21.2894L108.274 21.2894L108.274 21.3887C107.604 21.8605 106.983 22.4812 105.469 23.8965L103.805 25.4857L108.324 35.5418C109.143 37.3792 109.665 37.9255 110.186 38.3724L110.186 38.6704C108.026 39.2663 105.369 38.2979 104.227 35.5666L101.049 27.9687L98.9135 29.9551L98.9135 36.0632C98.9135 37.6275 98.9384 37.9255 99.0873 38.5711L99.0873 38.6704L95.0649 38.6704L95.0649 38.5711C95.1642 37.9255 95.189 37.6275 95.189 36.0632L95.189 23.8965C95.189 22.3323 95.1642 22.0343 95.0649 21.3887L95.0649 21.2894ZM111.674 21.2894L122.549 21.2894L122.549 22.5805L122.45 22.5805C121.804 22.3322 121.432 22.3322 120.19 22.3322L115.522 22.3323L115.522 26.5782L120.613 26.5782L120.613 27.621L115.522 27.621L115.522 37.6275L121.109 37.6275C122.425 37.6275 122.723 37.6027 123.369 37.4537L123.468 37.4537L123.468 38.6704L111.674 38.6704L111.674 38.5711C111.773 37.9255 111.798 37.6275 111.798 36.0632L111.798 23.8965C111.798 22.3323 111.773 22.0343 111.674 21.3887L111.674 21.2894ZM125.825 21.2894L137.247 21.2894L137.247 22.5061L137.147 22.5061C136.502 22.3571 136.204 22.3322 134.888 22.3322L133.398 22.3322L133.398 36.0632C133.398 37.5779 133.423 37.851 133.547 38.4469L133.572 38.5711L133.572 38.6704L129.5 38.6704L129.5 38.5711L129.525 38.4469C129.649 37.851 129.674 37.5779 129.674 36.0632L129.674 22.3322L128.184 22.3322C126.868 22.3322 126.57 22.3571 125.924 22.5061L125.825 22.5061L125.825 21.2894ZM144.646 21.2894C145.54 21.2894 146.757 21.1156 147.402 20.5941L152.89 36.0632C153.61 38.1241 153.784 38.4221 153.858 38.5711L153.858 38.6704L149.438 38.6704L149.438 38.5711C149.438 38.4221 149.637 38.1241 148.917 36.0632L148.346 34.3996L140.698 34.3996L140.077 36.0632C139.283 38.1241 139.407 38.4221 139.407 38.5711L139.407 38.6704L137.843 38.6704L137.843 38.5711C137.917 38.4221 138.116 38.1241 138.91 36.0632L144.646 21.2894ZM141.095 33.3568L147.973 33.3568L144.696 23.9214L141.095 33.3568Z" fill="#F6F1FF"/>
<path opacity="0.5" d="M60.0666 59.4854C58.7826 59.4854 57.7506 58.7654 57.3846 57.5954L58.2246 57.3434C58.5126 58.2014 59.2266 58.6514 60.0546 58.6334C61.2066 58.6094 61.9086 57.8354 61.9086 56.6774C61.9086 55.5014 61.1586 54.7214 60.0426 54.7214C59.7306 54.7214 59.3646 54.8174 59.0706 54.9614L58.6266 54.2594L61.5906 51.5174L57.7266 51.5174L57.7266 50.6714L62.7186 50.6714L62.7186 51.5294L60.1926 53.9474C61.7586 53.9354 62.8206 55.0634 62.8206 56.6774C62.8206 58.3394 61.6566 59.4854 60.0666 59.4854ZM67.7795 59.4914C66.1535 59.4914 64.8575 58.1954 64.8575 56.5094L64.8575 53.5154C64.8575 51.7814 66.1355 50.4974 67.8455 50.4974C68.8295 50.4974 69.7115 50.9534 70.2515 51.7274L69.5735 52.2854C69.2075 51.7154 68.5595 51.3374 67.8455 51.3374C66.6275 51.3374 65.7515 52.3214 65.7515 53.4374L65.7515 54.7634C66.2615 54.1394 67.0175 53.7434 67.8635 53.7434C69.4655 53.7434 70.7075 55.0034 70.7075 56.6054C70.7075 58.2014 69.3815 59.4914 67.7795 59.4914ZM67.7795 58.6334C68.9075 58.6334 69.8195 57.7334 69.8195 56.6054C69.8195 55.4774 68.9135 54.5654 67.7855 54.5654C66.6575 54.5654 65.7515 55.4774 65.7515 56.6054C65.7515 57.7214 66.6515 58.6334 67.7795 58.6334ZM75.5989 59.4914C73.9969 59.4914 72.7789 58.2734 72.7789 56.6714L72.7789 53.3114C72.7789 51.7094 73.9969 50.4914 75.5989 50.4914C77.2009 50.4914 78.4189 51.7094 78.4189 53.3114L78.4189 56.6714C78.4189 58.2734 77.2009 59.4914 75.5989 59.4914ZM75.5989 58.6394C76.6609 58.6394 77.5249 57.7754 77.5249 56.7134L77.5249 53.2694C77.5249 52.2014 76.6609 51.3374 75.5989 51.3374C74.5369 51.3374 73.6729 52.2014 73.6729 53.2694L73.6729 56.7134C73.6729 57.7754 74.5369 58.6394 75.5989 58.6394ZM82.2631 54.8114C81.0751 54.8114 80.1031 53.8514 80.1031 52.6514C80.1031 51.4754 81.1111 50.4914 82.2631 50.4914C83.4511 50.4914 84.4231 51.4514 84.4231 52.6514C84.4231 53.8514 83.4511 54.8114 82.2631 54.8114ZM82.2631 54.0134C83.0011 54.0134 83.6251 53.3894 83.6251 52.6514C83.6251 51.9134 83.0011 51.2894 82.2631 51.2894C81.5251 51.2894 80.9011 51.9134 80.9011 52.6514C80.9011 53.3894 81.5251 54.0134 82.2631 54.0134ZM89.2854 59.4914C87.6834 59.4914 86.4654 58.2734 86.4654 56.6714L86.4654 53.3114C86.4654 51.7094 87.6834 50.4914 89.2854 50.4914C90.8874 50.4914 92.1054 51.7094 92.1054 53.3114L92.1054 56.6714C92.1054 58.2734 90.8874 59.4914 89.2854 59.4914ZM89.2854 58.6394C90.3474 58.6394 91.2114 57.7754 91.2114 56.7134L91.2114 53.2694C91.2114 52.2014 90.3474 51.3374 89.2854 51.3374C88.2234 51.3374 87.3594 52.2014 87.3594 53.2694L87.3594 56.7134C87.3594 57.7754 88.2234 58.6394 89.2854 58.6394ZM97.0896 59.4914C95.4876 59.4914 94.2696 58.2734 94.2696 56.6714L94.2696 53.3114C94.2696 51.7094 95.4876 50.4914 97.0896 50.4914C98.6916 50.4914 99.9096 51.7094 99.9096 53.3114L99.9096 56.6714C99.9096 58.2734 98.6916 59.4914 97.0896 59.4914ZM97.0896 58.6394C98.1516 58.6394 99.0156 57.7754 99.0156 56.7134L99.0156 53.2694C99.0156 52.2014 98.1516 51.3374 97.0896 51.3374C96.0276 51.3374 95.1636 52.2014 95.1636 53.2694L95.1636 56.7134C95.1636 57.7754 96.0276 58.6394 97.0896 58.6394ZM102.59 50.5934L103.478 50.5934L102.638 53.4734L102.032 53.4734L102.59 50.5934ZM104.114 50.5934L105.002 50.5934L104.162 53.4734L103.556 53.4734L104.114 50.5934ZM109.781 55.9094L109.781 55.1534L114.821 55.1534L114.821 55.9094L109.781 55.9094ZM122.666 59.4914C121.04 59.4914 119.744 58.1954 119.744 56.5094L119.744 53.5154C119.744 51.7814 121.022 50.4974 122.732 50.4974C123.716 50.4974 124.598 50.9534 125.138 51.7274L124.46 52.2854C124.094 51.7154 123.446 51.3374 122.732 51.3374C121.514 51.3374 120.638 52.3214 120.638 53.4374L120.638 54.7634C121.148 54.1394 121.904 53.7434 122.75 53.7434C124.352 53.7434 125.594 55.0034 125.594 56.6054C125.594 58.2014 124.268 59.4914 122.666 59.4914ZM122.666 58.6334C123.794 58.6334 124.706 57.7334 124.706 56.6054C124.706 55.4774 123.8 54.5654 122.672 54.5654C121.544 54.5654 120.638 55.4774 120.638 56.6054C120.638 57.7214 121.538 58.6334 122.666 58.6334ZM130.485 59.4914C128.883 59.4914 127.665 58.2734 127.665 56.6714L127.665 53.3114C127.665 51.7094 128.883 50.4914 130.485 50.4914C132.087 50.4914 133.305 51.7094 133.305 53.3114L133.305 56.6714C133.305 58.2734 132.087 59.4914 130.485 59.4914ZM130.485 58.6394C131.547 58.6394 132.411 57.7754 132.411 56.7134L132.411 53.2694C132.411 52.2014 131.547 51.3374 130.485 51.3374C129.423 51.3374 128.559 52.2014 128.559 53.2694L128.559 56.7134C128.559 57.7754 129.423 58.6394 130.485 58.6394ZM137.149 54.8114C135.961 54.8114 134.989 53.8514 134.989 52.6514C134.989 51.4754 135.997 50.4914 137.149 50.4914C138.337 50.4914 139.309 51.4514 139.309 52.6514C139.309 53.8514 138.337 54.8114 137.149 54.8114ZM137.149 54.0134C137.887 54.0134 138.511 53.3894 138.511 52.6514C138.511 51.9134 137.887 51.2894 137.149 51.2894C136.411 51.2894 135.787 51.9134 135.787 52.6514C135.787 53.3894 136.411 54.0134 137.149 54.0134ZM144.172 59.4914C142.57 59.4914 141.352 58.2734 141.352 56.6714L141.352 53.3114C141.352 51.7094 142.57 50.4914 144.172 50.4914C145.774 50.4914 146.992 51.7094 146.992 53.3114L146.992 56.6714C146.992 58.2734 145.774 59.4914 144.172 59.4914ZM144.172 58.6394C145.234 58.6394 146.098 57.7754 146.098 56.7134L146.098 53.2694C146.098 52.2014 145.234 51.3374 144.172 51.3374C143.11 51.3374 142.246 52.2014 142.246 53.2694L142.246 56.7134C142.246 57.7754 143.11 58.6394 144.172 58.6394ZM151.976 59.4914C150.374 59.4914 149.156 58.2734 149.156 56.6714L149.156 53.3114C149.156 51.7094 150.374 50.4914 151.976 50.4914C153.578 50.4914 154.796 51.7094 154.796 53.3114L154.796 56.6714C154.796 58.2734 153.578 59.4914 151.976 59.4914ZM151.976 58.6394C153.038 58.6394 153.902 57.7754 153.902 56.7134L153.902 53.2694C153.902 52.2014 153.038 51.3374 151.976 51.3374C150.914 51.3374 150.05 52.2014 150.05 53.2694L150.05 56.7134C150.05 57.7754 150.914 58.6394 151.976 58.6394ZM157.476 50.5934L158.364 50.5934L157.524 53.4734L156.918 53.4734L157.476 50.5934ZM159 50.5934L159.888 50.5934L159.048 53.4734L158.442 53.4734L159 50.5934Z" fill="#F6F1FF"/>
</svg>
