<svg width="374" height="331" viewBox="0 0 374 331" fill="none" xmlns="http://www.w3.org/2000/svg">
<g opacity="0.2">
<path d="M304.689 155.859C310.094 154.715 315.403 158.172 316.543 163.578L333.288 242.954C355.804 244.885 373.478 263.771 373.478 286.788C373.478 311.088 353.778 330.787 329.478 330.788C305.177 330.788 285.478 311.088 285.478 286.788C285.478 270.482 294.348 256.248 307.526 248.647L305.545 240.342C303.748 232.809 294.439 230.09 288.869 235.471L263.422 260.061C259.755 263.605 259.341 269.341 262.463 273.374L264.344 275.802C267.085 279.343 267.138 284.274 264.475 287.873L253.476 302.737C251.59 305.285 248.608 306.787 245.438 306.788H150.457C149.476 306.788 148.5 306.643 147.561 306.359L121.541 298.485C115.883 296.773 112.938 290.552 115.198 285.09L115.94 283.294C114.931 282.049 114.245 280.505 114.007 278.842C112.606 269.052 108.46 259.8 101.98 252.196C93.8744 242.686 82.6455 236.374 70.3079 234.393C57.9702 232.413 45.3301 234.893 34.6555 241.388C26.1203 246.582 19.2878 254.072 14.8928 262.932C13.0594 266.628 8.88249 268.792 4.96411 267.5C1.04572 266.209 -1.12173 261.962 0.593994 258.21C6.18159 245.994 15.3168 235.666 26.8889 228.625C40.598 220.282 56.8311 217.098 72.676 219.641C88.5208 222.185 102.941 230.29 113.351 242.503C119.438 249.646 123.919 257.922 126.592 266.771C127.568 266.456 128.601 266.288 129.662 266.288H212.893C215.511 266.288 218.024 265.261 219.894 263.428L290.64 194.051C293.036 191.702 294.094 188.306 293.456 185.011L290.345 168.938C289.308 163.582 292.757 158.383 298.094 157.254L304.689 155.859ZM329.978 270.288C320.865 270.288 313.478 277.675 313.478 286.788C313.478 295.9 320.865 303.288 329.978 303.288C339.09 303.288 346.478 295.9 346.478 286.788C346.478 277.675 339.09 270.288 329.978 270.288Z" fill="white"/>
<path d="M61.9775 241.788C86.5542 241.788 106.478 261.711 106.478 286.288C106.478 310.865 86.5542 330.788 61.9775 330.788C37.4009 330.788 17.4775 310.865 17.4775 286.288C17.4775 261.711 37.4009 241.788 61.9775 241.788ZM61.9775 265.788C50.6557 265.788 41.4775 275.19 41.4775 286.788C41.4775 298.386 50.6557 307.788 61.9775 307.788C73.2994 307.788 82.4775 298.386 82.4775 286.788C82.4775 275.19 73.2994 265.788 61.9775 265.788Z" fill="white"/>
<path d="M268.19 49.6635L294.538 170.868C295.627 175.875 300.433 179.163 305.494 178.364C310.935 177.505 314.56 172.281 313.46 166.884L290.421 53.7839C289.159 47.5862 293.895 41.7878 300.22 41.7878H300.478C306 41.7878 310.478 37.3107 310.478 31.7878V21.7676C310.478 16.0609 305.71 11.5113 300.009 11.7785L256.009 13.841C250.674 14.0911 246.478 18.4893 246.478 23.8301V31.7878C246.478 37.3107 250.955 41.7878 256.478 41.7878H258.418C263.122 41.7878 267.19 45.0667 268.19 49.6635Z" fill="white"/>
</g>
<g filter="url(#filter0_f_31_453)">
<path d="M296.48 30.3343L284.596 34.3648L284.633 46.7498L277.252 36.8558L265.368 40.8862L272.69 30.7409L265.309 20.8469L277.215 24.4708L284.537 14.3254L284.574 26.7104L296.48 30.3343Z" fill="white"/>
<path d="M85.6197 284.931L73.1551 283.481L67.8819 294.688L65.4515 282.586L52.9868 281.136L63.9494 275.106L61.5191 263.004L70.7247 271.379L81.6873 265.349L76.4141 276.556L85.6197 284.931Z" fill="white"/>
<path d="M354.265 309.129L336.421 300.448L322.692 314.415L325.393 295.084L307.549 286.403L327.061 283.136L329.762 263.804L339.121 281.117L358.634 277.849L344.905 291.816L354.265 309.129Z" fill="white"/>
<path d="M142.635 101.204L132.462 101.982L129.993 111.744L126.175 102.463L116.002 103.241L123.815 96.7267L119.996 87.4453L128.643 92.7006L136.456 86.1862L133.988 95.9485L142.635 101.204Z" fill="white"/>
<path d="M334.032 289.2L331.968 291.376L237.205 201.503C238.037 200.936 238.777 200.244 239.402 199.452L334.032 289.2ZM130.532 96.2L225.143 185.928C224.411 186.616 223.784 187.417 223.286 188.302L130.165 99.9851L68.4202 281.271L65.5803 280.304L128.08 96.8044L128.835 94.5896L130.532 96.2ZM281.44 27.2078L235.64 184.096C234.735 183.7 233.76 183.438 232.739 183.337L278.561 26.3679L281.44 27.2078Z" fill="white"/>
<ellipse cx="231.807" cy="193.903" rx="4.77087" ry="4.85413" fill="white"/>
</g>
<path d="M296.48 30.3343L284.596 34.3648L284.633 46.7498L277.252 36.8558L265.368 40.8862L272.69 30.7409L265.309 20.8469L277.215 24.4708L284.537 14.3254L284.574 26.7104L296.48 30.3343Z" fill="white"/>
<path d="M85.6197 284.931L73.1551 283.481L67.8819 294.688L65.4515 282.586L52.9868 281.136L63.9494 275.106L61.5191 263.004L70.7247 271.379L81.6873 265.349L76.4141 276.556L85.6197 284.931Z" fill="white"/>
<path d="M354.265 309.129L336.421 300.448L322.692 314.415L325.393 295.084L307.549 286.403L327.061 283.136L329.762 263.804L339.121 281.117L358.634 277.849L344.905 291.816L354.265 309.129Z" fill="white"/>
<path d="M142.635 101.204L132.462 101.982L129.993 111.744L126.175 102.463L116.002 103.241L123.815 96.7267L119.996 87.4453L128.643 92.7006L136.456 86.1862L133.988 95.9485L142.635 101.204Z" fill="white"/>
<path d="M334.032 289.2L331.968 291.376L237.205 201.503C238.037 200.936 238.777 200.244 239.402 199.452L334.032 289.2ZM130.532 96.2L225.143 185.928C224.411 186.616 223.784 187.417 223.286 188.302L130.165 99.9851L68.4202 281.271L65.5803 280.304L128.08 96.8044L128.835 94.5896L130.532 96.2ZM281.44 27.2078L235.64 184.096C234.735 183.7 233.76 183.438 232.739 183.337L278.561 26.3679L281.44 27.2078Z" fill="white"/>
<ellipse cx="231.807" cy="193.903" rx="4.77087" ry="4.85413" fill="white"/>
<g filter="url(#filter1_f_31_453)">
<path d="M49.5222 8.95102L49.5222 14.6924L48.5653 14.6924C47.858 9.15904 43.6976 5.91393 39.454 5.91393C34.4199 5.91393 29.261 10.2407 29.261 20.1841C29.261 29.2122 33.9207 33.2061 38.7468 33.2061C42.9071 33.2061 47.1924 30.0858 48.5653 24.7189L49.5222 24.7189L49.5222 30.169C46.6931 32.9565 42.5743 34.9535 37.9147 34.9535C29.3443 34.9535 22.6044 28.1305 22.6044 19.56C22.6044 10.9896 29.3442 4.16657 37.9147 4.16657C42.6159 4.16656 46.7347 6.16355 49.5222 8.95102ZM63.9821 5.16505C65.4799 5.16505 67.5185 4.87382 68.6002 4.00014L77.7947 29.9194C79.0012 33.3725 79.2924 33.8718 79.4172 34.1214L79.4172 34.2878L72.0117 34.2878L72.0117 34.1214C72.0117 33.8718 72.3446 33.3725 71.138 29.9194L70.1811 27.1319L57.3671 27.1319L56.327 29.9194C54.9957 33.3725 55.2037 33.8718 55.2037 34.1214L55.2037 34.2878L52.5827 34.2878L52.5827 34.1214C52.7075 33.8718 53.0403 33.3725 54.3716 29.9194L63.9821 5.16505ZM58.0328 25.3846L69.5571 25.3846L64.0654 9.57507L58.0328 25.3846ZM82.1468 5.16505L84.6431 5.16504L97.1243 25.1765L110.021 5.16504L112.518 5.16504C112.351 6.24674 112.31 6.74599 112.31 8.951L112.31 29.9194C112.31 32.5404 112.351 33.0397 112.518 34.1214L112.518 34.2878L105.778 34.2878L105.778 34.1214C106.028 33.0397 106.069 32.5404 106.069 29.9194L106.069 14.5259L94.42 32.5405L94.3784 32.5405L84.1022 16.1485L84.1022 29.9194C84.1022 32.5405 84.1438 33.0397 84.3934 34.1214L84.3934 34.2878L82.1468 34.2878L82.1468 34.1214C82.3132 33.0397 82.3549 32.5405 82.3549 29.9194L82.3548 8.95101C82.3548 6.746 82.3132 6.24675 82.1468 5.16505ZM133.105 34.9535C124.535 34.9535 117.712 28.1304 117.712 19.56C117.712 10.9896 124.535 4.16654 133.105 4.16653C141.676 4.16653 148.499 10.9896 148.499 19.56C148.499 28.1304 141.676 34.9535 133.105 34.9535ZM124.618 20.1841C124.618 27.8808 128.03 33.2061 132.939 33.2061C138.971 33.2061 142.092 25.8838 142.092 18.8527C142.092 11.2808 138.639 5.9139 133.688 5.9139C127.738 5.9139 124.618 13.1946 124.618 20.1841ZM153.691 5.16502L160.431 5.16502L160.431 5.33144C160.181 6.41314 160.14 6.91239 160.14 9.53344L160.14 17.4382L168.585 9.53343C171.123 7.16201 172.538 5.70587 172.538 5.33143L172.538 5.16502L175.824 5.16501L175.824 5.33143C174.701 6.12191 173.661 7.16201 171.123 9.53343L168.336 12.1961L175.908 29.0457C177.28 32.1244 178.154 33.0397 179.028 33.7885L179.028 34.2878C175.408 35.2863 170.957 33.6637 169.043 29.0873L163.718 16.3565L160.14 19.6848L160.14 29.9194C160.14 32.5404 160.181 33.0397 160.431 34.1214L160.431 34.2878L153.691 34.2878L153.691 34.1214C153.857 33.0397 153.899 32.5404 153.899 29.9194L153.899 9.53344C153.899 6.91239 153.857 6.41314 153.691 5.33144L153.691 5.16502ZM189.966 5.16501C191.463 5.16501 193.502 4.87378 194.584 4.0001L203.778 29.9194C204.985 33.3725 205.276 33.8717 205.401 34.1214L205.401 34.2878L197.995 34.2878L197.995 34.1214C197.995 33.8717 198.328 33.3725 197.122 29.9194L196.165 27.1319L183.351 27.1319L182.311 29.9194C180.979 33.3725 181.187 33.8717 181.187 34.1214L181.187 34.2878L178.566 34.2878L178.566 34.1214C178.691 33.8717 179.024 33.3725 180.355 29.9194L189.966 5.16501ZM184.016 25.3845L195.541 25.3845L190.049 9.57503L184.016 25.3845ZM207.506 5.165L226.644 5.165L226.644 7.20359L226.478 7.20359C225.396 6.95397 224.897 6.91236 222.692 6.91236L220.196 6.91237L220.196 29.9194C220.196 32.4572 220.237 32.9148 220.445 33.9133L220.487 34.1214L220.487 34.2878L213.664 34.2878L213.664 34.1214L213.705 33.9133C213.913 32.9148 213.955 32.4572 213.955 29.9194L213.955 6.91237L211.459 6.91237C209.254 6.91237 208.755 6.95397 207.673 7.2036L207.506 7.2036L207.506 5.165Z" fill="#F6F1FF"/>
</g>
<path d="M49.5222 8.95102L49.5222 14.6924L48.5653 14.6924C47.858 9.15904 43.6976 5.91393 39.454 5.91393C34.4199 5.91393 29.261 10.2407 29.261 20.1841C29.261 29.2122 33.9207 33.2061 38.7468 33.2061C42.9071 33.2061 47.1924 30.0858 48.5653 24.7189L49.5222 24.7189L49.5222 30.169C46.6931 32.9565 42.5743 34.9535 37.9147 34.9535C29.3443 34.9535 22.6044 28.1305 22.6044 19.56C22.6044 10.9896 29.3442 4.16657 37.9147 4.16657C42.6159 4.16656 46.7347 6.16355 49.5222 8.95102ZM63.9821 5.16505C65.4799 5.16505 67.5185 4.87382 68.6002 4.00014L77.7947 29.9194C79.0012 33.3725 79.2924 33.8718 79.4172 34.1214L79.4172 34.2878L72.0117 34.2878L72.0117 34.1214C72.0117 33.8718 72.3446 33.3725 71.138 29.9194L70.1811 27.1319L57.3671 27.1319L56.327 29.9194C54.9957 33.3725 55.2037 33.8718 55.2037 34.1214L55.2037 34.2878L52.5827 34.2878L52.5827 34.1214C52.7075 33.8718 53.0403 33.3725 54.3716 29.9194L63.9821 5.16505ZM58.0328 25.3846L69.5571 25.3846L64.0654 9.57507L58.0328 25.3846ZM82.1468 5.16505L84.6431 5.16504L97.1243 25.1765L110.021 5.16504L112.518 5.16504C112.351 6.24674 112.31 6.74599 112.31 8.951L112.31 29.9194C112.31 32.5404 112.351 33.0397 112.518 34.1214L112.518 34.2878L105.778 34.2878L105.778 34.1214C106.028 33.0397 106.069 32.5404 106.069 29.9194L106.069 14.5259L94.42 32.5405L94.3784 32.5405L84.1022 16.1485L84.1022 29.9194C84.1022 32.5405 84.1438 33.0397 84.3934 34.1214L84.3934 34.2878L82.1468 34.2878L82.1468 34.1214C82.3132 33.0397 82.3549 32.5405 82.3549 29.9194L82.3548 8.95101C82.3548 6.746 82.3132 6.24675 82.1468 5.16505ZM133.105 34.9535C124.535 34.9535 117.712 28.1304 117.712 19.56C117.712 10.9896 124.535 4.16654 133.105 4.16653C141.676 4.16653 148.499 10.9896 148.499 19.56C148.499 28.1304 141.676 34.9535 133.105 34.9535ZM124.618 20.1841C124.618 27.8808 128.03 33.2061 132.939 33.2061C138.971 33.2061 142.092 25.8838 142.092 18.8527C142.092 11.2808 138.639 5.9139 133.688 5.9139C127.738 5.9139 124.618 13.1946 124.618 20.1841ZM153.691 5.16502L160.431 5.16502L160.431 5.33144C160.181 6.41314 160.14 6.91239 160.14 9.53344L160.14 17.4382L168.585 9.53343C171.123 7.16201 172.538 5.70587 172.538 5.33143L172.538 5.16502L175.824 5.16501L175.824 5.33143C174.701 6.12191 173.661 7.16201 171.123 9.53343L168.336 12.1961L175.908 29.0457C177.28 32.1244 178.154 33.0397 179.028 33.7885L179.028 34.2878C175.408 35.2863 170.957 33.6637 169.043 29.0873L163.718 16.3565L160.14 19.6848L160.14 29.9194C160.14 32.5404 160.181 33.0397 160.431 34.1214L160.431 34.2878L153.691 34.2878L153.691 34.1214C153.857 33.0397 153.899 32.5404 153.899 29.9194L153.899 9.53344C153.899 6.91239 153.857 6.41314 153.691 5.33144L153.691 5.16502ZM189.966 5.16501C191.463 5.16501 193.502 4.87378 194.584 4.0001L203.778 29.9194C204.985 33.3725 205.276 33.8717 205.401 34.1214L205.401 34.2878L197.995 34.2878L197.995 34.1214C197.995 33.8717 198.328 33.3725 197.122 29.9194L196.165 27.1319L183.351 27.1319L182.311 29.9194C180.979 33.3725 181.187 33.8717 181.187 34.1214L181.187 34.2878L178.566 34.2878L178.566 34.1214C178.691 33.8717 179.024 33.3725 180.355 29.9194L189.966 5.16501ZM184.016 25.3845L195.541 25.3845L190.049 9.57503L184.016 25.3845ZM207.506 5.165L226.644 5.165L226.644 7.20359L226.478 7.20359C225.396 6.95397 224.897 6.91236 222.692 6.91236L220.196 6.91237L220.196 29.9194C220.196 32.4572 220.237 32.9148 220.445 33.9133L220.487 34.1214L220.487 34.2878L213.664 34.2878L213.664 34.1214L213.705 33.9133C213.913 32.9148 213.955 32.4572 213.955 29.9194L213.955 6.91237L211.459 6.91237C209.254 6.91237 208.755 6.95397 207.673 7.2036L207.506 7.2036L207.506 5.165Z" fill="#F6F1FF"/>
<path opacity="0.5" d="M44.7205 68.168C42.5692 68.168 40.8401 66.9617 40.2269 65.0014L41.6343 64.5791C42.1168 66.0167 43.3131 66.7707 44.7004 66.7405C46.6306 66.7003 47.8067 65.4035 47.8067 63.4633C47.8067 61.4929 46.5501 60.186 44.6803 60.186C44.1576 60.186 43.5443 60.3469 43.0518 60.5882L42.3078 59.412L47.2739 54.8178L40.7999 54.8178L40.7999 53.4004L49.1639 53.4004L49.1639 54.8379L44.9316 58.8892C47.5554 58.8691 49.3348 60.7591 49.3348 63.4633C49.3348 66.2479 47.3845 68.168 44.7205 68.168ZM57.6431 68.178C54.9188 68.178 52.7474 66.0066 52.7474 63.1818L52.7474 58.1654C52.7474 55.2602 54.8887 53.1088 57.7537 53.1088C59.4024 53.1088 60.8801 53.8729 61.7849 55.1697L60.6489 56.1046C60.0357 55.1496 58.95 54.5162 57.7537 54.5162C55.713 54.5162 54.2453 56.1649 54.2453 58.0347L54.2453 60.2564C55.0998 59.2109 56.3664 58.5474 57.7839 58.5474C60.468 58.5474 62.5489 60.6585 62.5489 63.3426C62.5489 66.0167 60.3272 68.178 57.6431 68.178ZM57.6431 66.7405C59.5331 66.7405 61.0611 65.2326 61.0611 63.3426C61.0611 61.4527 59.5431 59.9247 57.6532 59.9247C55.7633 59.9247 54.2453 61.4527 54.2453 63.3426C54.2453 65.2125 55.7532 66.7405 57.6431 66.7405ZM70.7443 68.178C68.0602 68.178 66.0195 66.1373 66.0195 63.4532L66.0195 57.8236C66.0195 55.1395 68.0602 53.0988 70.7443 53.0988C73.4284 53.0988 75.4692 55.1395 75.4692 57.8236L75.4692 63.4532C75.4692 66.1373 73.4284 68.178 70.7443 68.178ZM70.7443 66.7505C72.5237 66.7505 73.9713 65.3029 73.9713 63.5236L73.9713 57.7533C73.9713 55.9638 72.5237 54.5162 70.7443 54.5162C68.965 54.5162 67.5174 55.9638 67.5174 57.7533L67.5174 63.5236C67.5174 65.3029 68.965 66.7505 70.7443 66.7505ZM81.91 60.3368C79.9196 60.3368 78.291 58.7284 78.291 56.7178C78.291 54.7475 79.9799 53.0988 81.91 53.0988C83.9005 53.0988 85.5291 54.7072 85.5291 56.7178C85.5291 58.7284 83.9005 60.3368 81.91 60.3368ZM81.91 58.9998C83.1465 58.9998 84.192 57.9543 84.192 56.7178C84.192 55.4813 83.1465 54.4358 81.91 54.4358C80.6735 54.4358 79.628 55.4813 79.628 56.7178C79.628 57.9543 80.6735 58.9998 81.91 58.9998ZM93.6758 68.178C90.9917 68.178 88.9509 66.1373 88.9509 63.4532L88.9509 57.8236C88.9509 55.1395 90.9917 53.0988 93.6758 53.0988C96.3599 53.0988 98.4006 55.1395 98.4006 57.8236L98.4006 63.4532C98.4006 66.1373 96.3599 68.178 93.6758 68.178ZM93.6758 66.7505C95.4551 66.7505 96.9027 65.3029 96.9027 63.5236L96.9027 57.7532C96.9027 55.9638 95.4551 54.5162 93.6758 54.5162C91.8964 54.5162 90.4488 55.9638 90.4488 57.7532L90.4488 63.5236C90.4488 65.3029 91.8964 66.7505 93.6758 66.7505ZM106.752 68.178C104.067 68.178 102.027 66.1373 102.027 63.4532L102.027 57.8236C102.027 55.1395 104.067 53.0988 106.752 53.0988C109.436 53.0988 111.476 55.1395 111.476 57.8236L111.476 63.4532C111.476 66.1373 109.436 68.178 106.752 68.178ZM106.752 66.7505C108.531 66.7505 109.978 65.3029 109.978 63.5236L109.978 57.7532C109.978 55.9638 108.531 54.5162 106.752 54.5162C104.972 54.5162 103.525 55.9638 103.525 57.7532L103.525 63.5236C103.525 65.3029 104.972 66.7505 106.752 66.7505ZM115.967 53.2697L117.455 53.2697L116.047 58.095L115.032 58.095L115.967 53.2697ZM118.52 53.2697L120.008 53.2697L118.601 58.095L117.585 58.095L118.52 53.2697ZM128.016 62.1765L128.016 60.9098L136.46 60.9098L136.46 62.1765L128.016 62.1765ZM149.473 53.1088C152.197 53.1088 154.369 55.2802 154.369 58.095L154.369 63.1214C154.369 66.0267 152.238 68.178 149.362 68.178C147.714 68.178 146.246 67.4039 145.341 66.1172L146.467 65.1823C147.091 66.1373 148.166 66.7606 149.362 66.7606C151.403 66.7606 152.881 65.1119 152.881 63.2521L152.881 61.0304C152.016 62.0659 150.75 62.7394 149.332 62.7394C146.648 62.7394 144.577 60.6283 144.577 57.9442C144.577 55.2601 146.789 53.1088 149.473 53.1088ZM149.473 54.5363C147.583 54.5363 146.065 56.0543 146.065 57.9442C146.065 59.8342 147.573 61.3521 149.463 61.3521C151.353 61.3521 152.881 59.8342 152.881 57.9442C152.881 56.0643 151.363 54.5363 149.473 54.5363ZM162.705 68.178C160.021 68.178 157.98 66.1373 157.98 63.4532L157.98 57.8236C157.98 55.1395 160.021 53.0988 162.705 53.0988C165.389 53.0988 167.43 55.1395 167.43 57.8236L167.43 63.4532C167.43 66.1373 165.389 68.178 162.705 68.178ZM162.705 66.7505C164.484 66.7505 165.932 65.3029 165.932 63.5235L165.932 57.7532C165.932 55.9638 164.484 54.5162 162.705 54.5162C160.926 54.5162 159.478 55.9638 159.478 57.7532L159.478 63.5235C159.478 65.3029 160.926 66.7505 162.705 66.7505ZM173.871 60.3368C171.88 60.3368 170.252 58.7283 170.252 56.7178C170.252 54.7474 171.941 53.0988 173.871 53.0988C175.861 53.0988 177.49 54.7072 177.49 56.7178C177.49 58.7283 175.861 60.3368 173.871 60.3368ZM173.871 58.9998C175.107 58.9998 176.153 57.9543 176.153 56.7178C176.153 55.4813 175.107 54.4358 173.871 54.4358C172.634 54.4358 171.589 55.4813 171.589 56.7178C171.589 57.9543 172.634 58.9998 173.871 58.9998ZM185.636 68.178C182.952 68.178 180.912 66.1373 180.912 63.4532L180.912 57.8236C180.912 55.1395 182.952 53.0988 185.636 53.0988C188.321 53.0988 190.361 55.1395 190.361 57.8236L190.361 63.4532C190.361 66.1373 188.321 68.178 185.636 68.178ZM185.636 66.7505C187.416 66.7505 188.863 65.3029 188.863 63.5235L188.863 57.7532C188.863 55.9638 187.416 54.5162 185.636 54.5162C183.857 54.5162 182.409 55.9638 182.409 57.7532L182.409 63.5235C182.409 65.3029 183.857 66.7505 185.636 66.7505ZM198.712 68.178C196.028 68.178 193.987 66.1373 193.987 63.4532L193.987 57.8236C193.987 55.1395 196.028 53.0987 198.712 53.0987C201.396 53.0987 203.437 55.1395 203.437 57.8236L203.437 63.4532C203.437 66.1373 201.396 68.178 198.712 68.178ZM198.712 66.7505C200.492 66.7505 201.939 65.3029 201.939 63.5235L201.939 57.7532C201.939 55.9638 200.492 54.5162 198.712 54.5162C196.933 54.5162 195.485 55.9638 195.485 57.7532L195.485 63.5235C195.485 65.3029 196.933 66.7505 198.712 66.7505ZM207.928 53.2696L209.415 53.2696L208.008 58.095L206.993 58.095L207.928 53.2696ZM210.481 53.2696L211.969 53.2696L210.561 58.095L209.546 58.095L210.481 53.2696Z" fill="#F6F1FF"/>
<defs>
<filter id="filter0_f_31_453" x="42.9868" y="4.32544" width="325.647" height="320.09" filterUnits="userSpaceOnUse" color-interpolation-filters="sRGB">
<feFlood flood-opacity="0" result="BackgroundImageFix"/>
<feBlend mode="normal" in="SourceGraphic" in2="BackgroundImageFix" result="shape"/>
<feGaussianBlur stdDeviation="5" result="effect1_foregroundBlur_31_453"/>
</filter>
<filter id="filter1_f_31_453" x="18.6045" y="0" width="212.04" height="39.2864" filterUnits="userSpaceOnUse" color-interpolation-filters="sRGB">
<feFlood flood-opacity="0" result="BackgroundImageFix"/>
<feBlend mode="normal" in="SourceGraphic" in2="BackgroundImageFix" result="shape"/>
<feGaussianBlur stdDeviation="2" result="effect1_foregroundBlur_31_453"/>
</filter>
</defs>
</svg>
