<svg width="274" height="235" viewBox="0 0 274 235" fill="none" xmlns="http://www.w3.org/2000/svg">
<g opacity="0.2">
<path d="M223.495 106.044C227.46 105.206 231.354 107.742 232.191 111.707L244.473 169.93C260.989 171.347 273.953 185.201 273.953 202.084C273.953 219.909 259.503 234.359 241.678 234.359C223.853 234.359 209.404 219.909 209.404 202.084C209.404 190.124 215.91 179.682 225.576 174.107L224.123 168.015C222.805 162.49 215.977 160.495 211.892 164.442L193.225 182.479C190.535 185.078 190.232 189.287 192.522 192.245L193.902 194.026C195.912 196.623 195.951 200.239 193.997 202.879L185.929 213.783C184.546 215.652 182.359 216.754 180.033 216.754H110.364C109.644 216.754 108.927 216.648 108.239 216.44L89.1526 210.664C85.0024 209.407 82.8414 204.845 84.4993 200.838L85.0442 199.521C84.3042 198.608 83.8008 197.475 83.6262 196.255C82.5984 189.074 79.5568 182.287 74.803 176.709C68.8576 169.734 60.6212 165.105 51.5715 163.652C42.5217 162.199 33.2501 164.018 25.4202 168.783C19.1595 172.592 14.1479 178.086 10.9241 184.585C9.57927 187.297 6.51517 188.883 3.64087 187.936C0.766635 186.989 -0.823023 183.874 0.435791 181.122C4.53441 172.161 11.2347 164.586 19.7229 159.42C29.7788 153.301 41.6863 150.965 53.3088 152.831C64.9313 154.696 75.5092 160.642 83.1448 169.601C87.6101 174.84 90.8969 180.911 92.8577 187.402C93.5732 187.171 94.3314 187.047 95.1096 187.047H156.16C158.081 187.047 159.925 186.293 161.296 184.949L213.191 134.06C214.948 132.336 215.724 129.845 215.256 127.428L212.974 115.638C212.214 111.71 214.743 107.896 218.657 107.068L223.495 106.044ZM242.045 189.982C235.361 189.982 229.942 195.4 229.942 202.084C229.942 208.769 235.361 214.188 242.045 214.188C248.73 214.188 254.149 208.769 254.149 202.084C254.148 195.4 248.729 189.982 242.045 189.982Z" fill="white"/>
<path d="M45.4609 169.077C63.4884 169.077 78.1025 183.691 78.1025 201.718C78.1025 219.746 63.4885 234.36 45.4609 234.36C27.4334 234.36 12.8193 219.746 12.8193 201.718C12.8194 183.691 27.4335 169.077 45.4609 169.077ZM45.4609 186.681C37.1561 186.681 30.4238 193.578 30.4238 202.085C30.424 210.593 37.1562 217.489 45.4609 217.489C53.7656 217.489 60.4979 210.593 60.498 202.085C60.498 193.578 53.7657 186.681 45.4609 186.681Z" fill="white"/>
<path d="M196.722 28.1494L216.05 117.055C216.848 120.728 220.373 123.14 224.086 122.554C228.077 121.924 230.736 118.092 229.929 114.133L213.03 31.1718C212.104 26.6256 215.578 22.3724 220.217 22.3724H220.406C224.457 22.3724 227.742 19.0883 227.742 15.0372V7.68711C227.742 3.50114 224.244 0.163936 220.063 0.359938L187.788 1.87283C183.875 2.05626 180.796 5.28241 180.796 9.2V15.0372C180.796 19.0883 184.08 22.3724 188.131 22.3724H189.555C193.005 22.3724 195.989 24.7775 196.722 28.1494Z" fill="white"/>
</g>
<path d="M217.474 13.971L208.757 16.9274L208.784 26.0121L203.369 18.7546L194.652 21.711L200.023 14.2692L194.609 7.01176L203.343 9.66995L208.714 2.22815L208.74 11.3128L217.474 13.971Z" fill="white"/>
<path d="M62.8033 200.723L53.6602 199.659L49.7922 207.88L48.0095 199.002L38.8664 197.939L46.9077 193.516L45.125 184.639L51.8775 190.782L59.9188 186.359L56.0508 194.579L62.8033 200.723Z" fill="white"/>
<path d="M259.86 218.472L246.771 212.105L236.701 222.35L238.682 208.17L225.593 201.803L239.906 199.406L241.887 185.226L248.752 197.925L263.065 195.528L252.995 205.773L259.86 218.472Z" fill="white"/>
<path d="M104.625 65.9552L97.1632 66.526L95.3523 73.6868L92.5514 66.8788L85.0893 67.4496L90.8203 62.6712L88.0194 55.8631L94.3623 59.7179L100.093 54.9395L98.2824 62.1003L104.625 65.9552Z" fill="white"/>
<path d="M245.02 203.854L244.263 204.653L243.505 205.451L173.994 139.527C174.604 139.112 175.147 138.603 175.605 138.021L245.02 203.854ZM95.7485 62.2849L165.147 128.102C164.61 128.607 164.15 129.195 163.785 129.844L95.479 65.0623L50.188 198.039L48.104 197.33L93.9497 62.7283L94.5024 61.1033L95.7485 62.2849ZM205.386 11.3699L206.442 11.6785L172.847 126.76C172.183 126.468 171.468 126.275 170.718 126.2L204.33 11.0613L205.386 11.3699Z" fill="white"/>
<ellipse cx="170.035" cy="133.952" rx="3.49954" ry="3.56061" fill="white"/>
<path d="M46.4537 4.47691L46.4537 7.90345L45.8826 7.90345C45.4605 4.60106 42.9775 2.66432 40.4448 2.66432C37.4404 2.66432 34.3615 5.24665 34.3615 11.181C34.3615 16.5691 37.1424 18.9528 40.0227 18.9528C42.5057 18.9528 45.0632 17.0906 45.8826 13.8875L46.4537 13.8875L46.4537 17.1402C44.7653 18.8038 42.3071 19.9957 39.5261 19.9957C34.4111 19.9957 30.3887 15.9235 30.3887 10.8086C30.3887 5.69359 34.4111 1.62147 39.5261 1.62146C42.3319 1.62146 44.7901 2.8133 46.4537 4.47691ZM55.0837 2.21738C55.9776 2.21738 57.1942 2.04357 57.8398 1.52214L63.3272 16.9912C64.0473 19.0521 64.2211 19.3501 64.2956 19.4991L64.2956 19.5984L59.8759 19.5984L59.8759 19.4991C59.8759 19.3501 60.0745 19.0521 59.3544 16.9912L58.7833 15.3276L51.1357 15.3276L50.515 16.9912C49.7204 19.0521 49.8445 19.3501 49.8445 19.4991L49.8445 19.5984L48.2803 19.5984L48.2803 19.4991C48.3547 19.3501 48.5534 19.0521 49.3479 16.9912L55.0837 2.21738ZM51.533 14.2848L58.4109 14.2848L55.1333 4.84936L51.533 14.2848ZM65.9247 2.21738L67.4145 2.21737L74.8635 14.1606L82.5608 2.21737L84.0506 2.21737C83.9513 2.86295 83.9264 3.16091 83.9264 4.4769L83.9264 16.9912C83.9264 18.5555 83.9513 18.8535 84.0506 19.4991L84.0506 19.5984L80.0281 19.5984L80.0281 19.4991C80.1771 18.8535 80.2019 18.5555 80.2019 16.9912L80.2019 7.80412L73.2495 18.5555L73.2247 18.5555L67.0917 8.7725L67.0917 16.9912C67.0917 18.5555 67.1165 18.8535 67.2655 19.4991L67.2655 19.5984L65.9247 19.5984L65.9247 19.4991C66.024 18.8535 66.0488 18.5555 66.0488 16.9912L66.0488 4.47691C66.0488 3.16091 66.024 2.86296 65.9247 2.21738ZM96.3376 19.9956C91.2226 19.9956 87.1505 15.9235 87.1505 10.8085C87.1505 5.69357 91.2226 1.62145 96.3376 1.62145C101.453 1.62144 105.525 5.69356 105.525 10.8085C105.525 15.9235 101.453 19.9956 96.3376 19.9956ZM91.2722 11.181C91.2722 15.7745 93.3083 18.9528 96.2382 18.9528C99.8386 18.9528 101.701 14.5827 101.701 10.3864C101.701 5.86737 99.6399 2.6643 96.6852 2.6643C93.1345 2.66431 91.2722 7.00956 91.2722 11.181ZM108.624 2.21736L112.646 2.21736L112.646 2.31668C112.497 2.96226 112.472 3.26022 112.472 4.82451L112.472 9.54221L117.513 4.82451C119.027 3.4092 119.872 2.54015 119.872 2.31668L119.872 2.21736L121.833 2.21736L121.833 2.31668C121.163 2.78845 120.542 3.4092 119.027 4.82451L117.364 6.41363L121.883 16.4698C122.702 18.3072 123.224 18.8535 123.745 19.3004L123.745 19.5984C121.585 20.1943 118.928 19.2259 117.786 16.4946L114.608 8.89663L112.472 10.883L112.472 16.9912C112.472 18.5555 112.497 18.8535 112.646 19.499L112.646 19.5984L108.624 19.5984L108.624 19.499C108.723 18.8535 108.748 18.5555 108.748 16.9912L108.748 4.82451C108.748 3.26022 108.723 2.96226 108.624 2.31668L108.624 2.21736ZM130.273 2.21735C131.167 2.21735 132.384 2.04354 133.029 1.52211L138.517 16.9912C139.237 19.0521 139.41 19.3501 139.485 19.499L139.485 19.5984L135.065 19.5984L135.065 19.499C135.065 19.3501 135.264 19.0521 134.544 16.9912L133.973 15.3276L126.325 15.3276L125.704 16.9912C124.91 19.0521 125.034 19.3501 125.034 19.499L125.034 19.5984L123.47 19.5984L123.47 19.499C123.544 19.3501 123.743 19.0521 124.537 16.9912L130.273 2.21735ZM126.722 14.2847L133.6 14.2847L130.323 4.84933L126.722 14.2847ZM140.742 2.21735L152.163 2.21735L152.163 3.43402L152.064 3.43402C151.418 3.28504 151.12 3.26021 149.804 3.26021L148.315 3.26021L148.315 16.9912C148.315 18.5058 148.34 18.779 148.464 19.3749L148.489 19.499L148.489 19.5983L144.416 19.5983L144.416 19.499L144.441 19.3749C144.565 18.779 144.59 18.5058 144.59 16.9912L144.59 3.26021L143.1 3.26021C141.784 3.26021 141.486 3.28504 140.841 3.43402L140.742 3.43402L140.742 2.21735Z" fill="#F6F1FF"/>
<path opacity="0.5" d="M44.1335 40.4133C42.8495 40.4133 41.8175 39.6933 41.4515 38.5233L42.2915 38.2713C42.5795 39.1293 43.2935 39.5793 44.1215 39.5613C45.2735 39.5373 45.9755 38.7633 45.9755 37.6053C45.9755 36.4293 45.2255 35.6493 44.1095 35.6493C43.7975 35.6493 43.4315 35.7453 43.1375 35.8893L42.6935 35.1873L45.6575 32.4453L41.7935 32.4453L41.7935 31.5993L46.7855 31.5993L46.7855 32.4573L44.2595 34.8753C45.8255 34.8633 46.8875 35.9913 46.8875 37.6053C46.8875 39.2673 45.7235 40.4133 44.1335 40.4133ZM51.8464 40.4193C50.2204 40.4193 48.9243 39.1233 48.9243 37.4373L48.9243 34.4433C48.9243 32.7093 50.2023 31.4253 51.9123 31.4253C52.8963 31.4253 53.7783 31.8813 54.3183 32.6553L53.6403 33.2133C53.2743 32.6433 52.6263 32.2653 51.9123 32.2653C50.6943 32.2653 49.8183 33.2493 49.8183 34.3653L49.8183 35.6913C50.3283 35.0673 51.0843 34.6713 51.9303 34.6713C53.5323 34.6713 54.7743 35.9313 54.7743 37.5333C54.7743 39.1293 53.4484 40.4193 51.8464 40.4193ZM51.8464 39.5613C52.9744 39.5613 53.8864 38.6613 53.8863 37.5333C53.8863 36.4053 52.9803 35.4933 51.8523 35.4933C50.7243 35.4933 49.8183 36.4053 49.8183 37.5333C49.8183 38.6493 50.7184 39.5613 51.8464 39.5613ZM59.6658 40.4193C58.0638 40.4193 56.8458 39.2013 56.8458 37.5993L56.8458 34.2393C56.8458 32.6373 58.0638 31.4193 59.6658 31.4193C61.2678 31.4193 62.4858 32.6372 62.4858 34.2393L62.4858 37.5993C62.4858 39.2013 61.2678 40.4193 59.6658 40.4193ZM59.6658 39.5673C60.7278 39.5673 61.5918 38.7033 61.5918 37.6413L61.5918 34.1973C61.5918 33.1293 60.7278 32.2653 59.6658 32.2653C58.6038 32.2653 57.7398 33.1293 57.7398 34.1973L57.7398 37.6413C57.7398 38.7033 58.6038 39.5673 59.6658 39.5673ZM66.33 35.7392C65.142 35.7392 64.17 34.7792 64.17 33.5792C64.17 32.4032 65.178 31.4192 66.33 31.4192C67.518 31.4192 68.49 32.3792 68.49 33.5792C68.49 34.7792 67.518 35.7392 66.33 35.7392ZM66.33 34.9412C67.068 34.9412 67.692 34.3172 67.692 33.5792C67.692 32.8412 67.068 32.2172 66.33 32.2172C65.592 32.2172 64.968 32.8412 64.968 33.5792C64.968 34.3172 65.592 34.9412 66.33 34.9412ZM73.3523 40.4192C71.7503 40.4192 70.5323 39.2012 70.5323 37.5992L70.5323 34.2392C70.5323 32.6372 71.7503 31.4192 73.3523 31.4192C74.9543 31.4192 76.1723 32.6372 76.1723 34.2392L76.1723 37.5992C76.1723 39.2012 74.9543 40.4192 73.3523 40.4192ZM73.3523 39.5672C74.4143 39.5672 75.2783 38.7032 75.2783 37.6412L75.2783 34.1972C75.2783 33.1292 74.4143 32.2652 73.3523 32.2652C72.2903 32.2652 71.4263 33.1292 71.4263 34.1972L71.4263 37.6412C71.4263 38.7032 72.2903 39.5672 73.3523 39.5672ZM81.1565 40.4192C79.5545 40.4192 78.3365 39.2012 78.3365 37.5992L78.3365 34.2392C78.3365 32.6372 79.5545 31.4192 81.1565 31.4192C82.7585 31.4192 83.9765 32.6372 83.9765 34.2392L83.9765 37.5992C83.9765 39.2012 82.7585 40.4192 81.1565 40.4192ZM81.1565 39.5672C82.2185 39.5672 83.0825 38.7032 83.0825 37.6412L83.0825 34.1972C83.0825 33.1292 82.2185 32.2652 81.1565 32.2652C80.0945 32.2652 79.2305 33.1292 79.2305 34.1972L79.2305 37.6412C79.2305 38.7032 80.0945 39.5672 81.1565 39.5672ZM86.6568 31.5212L87.5448 31.5212L86.7048 34.4012L86.0988 34.4012L86.6568 31.5212ZM88.1808 31.5212L89.0688 31.5212L88.2288 34.4012L87.6228 34.4012L88.1808 31.5212ZM93.8479 36.8372L93.8479 36.0812L98.8879 36.0812L98.8879 36.8372L93.8479 36.8372ZM106.655 31.4252C108.281 31.4252 109.577 32.7212 109.577 34.4012L109.577 37.4012C109.577 39.1352 108.305 40.4192 106.589 40.4192C105.605 40.4192 104.729 39.9572 104.189 39.1892L104.861 38.6312C105.233 39.2012 105.875 39.5732 106.589 39.5732C107.807 39.5732 108.689 38.5892 108.689 37.4792L108.689 36.1532C108.173 36.7712 107.417 37.1732 106.571 37.1732C104.969 37.1732 103.733 35.9132 103.733 34.3112C103.733 32.7092 105.053 31.4252 106.655 31.4252ZM106.655 32.2772C105.527 32.2772 104.621 33.1832 104.621 34.3112C104.621 35.4392 105.521 36.3452 106.649 36.3452C107.777 36.3452 108.689 35.4392 108.689 34.3112C108.689 33.1892 107.783 32.2772 106.655 32.2772ZM114.552 40.4192C112.95 40.4192 111.732 39.2012 111.732 37.5992L111.732 34.2392C111.732 32.6372 112.95 31.4192 114.552 31.4192C116.154 31.4192 117.372 32.6372 117.372 34.2392L117.372 37.5992C117.372 39.2012 116.154 40.4192 114.552 40.4192ZM114.552 39.5672C115.614 39.5672 116.478 38.7032 116.478 37.6412L116.478 34.1972C116.478 33.1292 115.614 32.2652 114.552 32.2652C113.49 32.2652 112.626 33.1292 112.626 34.1972L112.626 37.6412C112.626 38.7032 113.49 39.5672 114.552 39.5672ZM121.216 35.7392C120.028 35.7392 119.056 34.7792 119.056 33.5792C119.056 32.4032 120.064 31.4192 121.216 31.4192C122.404 31.4192 123.376 32.3792 123.376 33.5792C123.376 34.7792 122.404 35.7392 121.216 35.7392ZM121.216 34.9412C121.954 34.9412 122.578 34.3172 122.578 33.5792C122.578 32.8412 121.954 32.2172 121.216 32.2172C120.478 32.2172 119.854 32.8412 119.854 33.5792C119.854 34.3172 120.478 34.9412 121.216 34.9412ZM128.239 40.4192C126.637 40.4192 125.419 39.2012 125.419 37.5992L125.419 34.2392C125.419 32.6372 126.637 31.4192 128.239 31.4192C129.841 31.4192 131.059 32.6372 131.059 34.2392L131.059 37.5992C131.059 39.2012 129.841 40.4192 128.239 40.4192ZM128.239 39.5672C129.301 39.5672 130.165 38.7032 130.165 37.6412L130.165 34.1972C130.165 33.1292 129.301 32.2652 128.239 32.2652C127.177 32.2652 126.313 33.1292 126.313 34.1972L126.313 37.6412C126.313 38.7032 127.177 39.5672 128.239 39.5672ZM136.043 40.4192C134.441 40.4192 133.223 39.2012 133.223 37.5992L133.223 34.2392C133.223 32.6372 134.441 31.4192 136.043 31.4192C137.645 31.4192 138.863 32.6372 138.863 34.2392L138.863 37.5992C138.863 39.2012 137.645 40.4192 136.043 40.4192ZM136.043 39.5672C137.105 39.5672 137.969 38.7032 137.969 37.6412L137.969 34.1972C137.969 33.1292 137.105 32.2652 136.043 32.2652C134.981 32.2652 134.117 33.1292 134.117 34.1972L134.117 37.6412C134.117 38.7032 134.981 39.5672 136.043 39.5672ZM141.543 31.5212L142.431 31.5212L141.591 34.4012L140.985 34.4012L141.543 31.5212ZM143.067 31.5212L143.955 31.5212L143.115 34.4012L142.509 34.4012L143.067 31.5212Z" fill="#F6F1FF"/>
</svg>
