<svg width="142" height="106" viewBox="0 0 142 106" fill="none" xmlns="http://www.w3.org/2000/svg">
<g opacity="0.2">
<path d="M136.352 83.7259C133.774 90.1938 131.15 96.707 128.572 103.175C128.12 104.351 127.351 104.984 126.085 105.029C124.592 105.075 123.099 105.301 121.607 105.301C90.5338 105.346 59.4155 105.301 28.3424 105.391C25.6738 105.391 23.8194 104.532 22.3268 102.27C18.1656 96.0285 13.7783 89.9224 9.48145 83.7259C10.7027 82.6404 12.1953 83.0022 13.5974 83.0022C40.5545 83.0022 67.4664 83.0022 94.4236 83.0022C107.224 83.0022 120.024 83.0022 132.779 83.0022C133.955 83.0022 135.312 82.7308 136.352 83.7259Z" fill="white"/>
<path d="M140.739 73.1427C140.332 74.0473 138.387 78.5703 137.301 79.7463C94.4233 79.7011 51.5 79.6559 8.62182 79.7463C6.72216 78.6156 2.10869 73.188 1.11363 71.7406C0.525635 70.9264 0.751786 70.5194 1.74685 70.5194C21.4672 70.4289 41.2327 70.7003 60.953 70.3837C61.8124 69.7957 62.8075 69.8409 63.8025 69.8409C73.7532 69.8409 83.6586 69.8409 93.6092 69.8409C94.6495 69.8409 95.735 69.7505 96.6396 70.4289C110.706 70.4741 124.818 70.4741 138.885 70.4741C141.824 70.5194 141.824 70.5646 140.739 73.1427Z" fill="white"/>
<path d="M96.6846 55.8194C84.7891 55.6384 72.8483 55.548 60.9528 55.7741C60.003 55.4575 58.5556 56.3169 58.5104 54.1911C58.4651 52.02 58.827 50.6631 61.2694 50.7084C62.762 50.1204 64.2998 49.9395 65.8829 49.9395C74.567 49.9395 83.2965 49.9395 91.9806 49.9395C93.3376 49.9395 94.6945 49.9847 95.9157 50.7084C96.2323 50.7536 96.5037 50.7536 96.775 50.8441C97.5892 51.1154 98.8556 50.4822 99.1722 51.5225C99.4888 52.608 99.4888 53.9649 99.2175 55.0505C98.9009 56.3621 97.4987 55.4123 96.6846 55.8194Z" fill="white"/>
<path d="M95.9155 50.7535C85.9649 51.1153 75.969 50.8892 66.0184 50.844C64.4353 50.844 62.8523 50.7987 61.3145 50.7535C65.4756 47.9945 69.8177 46.0948 75.1096 46.5471C79.8136 46.9542 84.5627 46.7732 89.2667 46.5471C91.5282 46.4566 93.1564 46.9994 94.3777 48.8538C94.7847 49.5323 95.3727 50.1203 95.9155 50.7535Z" fill="white"/>
<path d="M93.7905 54.9597C83.7947 54.9145 73.844 54.9145 63.8482 54.9597C62.8079 54.9597 61.7224 54.824 60.9082 55.7738C60.5916 60.6587 61.4058 65.5435 60.9535 70.4284C72.849 70.745 84.7445 70.5641 96.64 70.5189C96.64 65.634 96.64 60.7492 96.64 55.8643C95.9163 54.824 94.8308 54.9597 93.7905 54.9597ZM71.4468 66.9005C69.2758 66.9457 67.4214 65.046 67.4666 62.875C67.5118 60.7944 69.2306 59.0304 71.3564 58.9852C73.4822 58.94 75.4271 60.7944 75.4271 62.9202C75.4271 65.1365 73.7083 66.9005 71.4468 66.9005ZM86.5085 66.8552C84.2922 66.8552 82.5282 65.1365 82.483 62.875C82.4378 60.7944 84.2017 58.9852 86.2823 58.94C88.3629 58.8947 90.3983 60.7944 90.4435 62.8297C90.4887 65.0912 88.77 66.8552 86.5085 66.8552Z" fill="white"/>
</g>
<path fill-rule="evenodd" clip-rule="evenodd" d="M116.216 12.0971L80.74 9.74277L79.1862 9.63965L80.254 10.7732L108.548 40.8072C108.795 40.4799 109.087 40.1881 109.414 39.9407L82.2129 11.0673L116.381 13.3348C116.274 12.9535 116.216 12.5512 116.216 12.1355C116.216 12.1227 116.216 12.1099 116.216 12.0971ZM119.216 16.3199C119.597 16.4488 120.001 16.5271 120.42 16.5469L114.849 40.0269C114.517 39.7591 114.146 39.5383 113.746 39.3747L119.216 16.3199ZM112.076 47.8811C112.396 47.8811 112.708 47.8471 113.009 47.7825L102.677 91.3214L102.569 91.7764L102.102 91.7919L52.0822 93.4482L51.6571 93.4622L51.4957 93.0687L42.9961 72.344L44.1287 71.8795L52.4669 92.2106L101.594 90.5839L111.73 47.8678C111.844 47.8766 111.96 47.8811 112.076 47.8811Z" fill="white"/>
<circle cx="112.416" cy="42.8124" r="2.27723" fill="white"/>
<circle cx="120.159" cy="12.399" r="1.71149" fill="white"/>
<circle cx="41.7662" cy="69.2271" r="1.71149" fill="white"/>
<path d="M82.3736 0.619141L84.3844 6.80798H90.8918L85.6272 10.6329L87.6381 16.8217L82.3736 12.9968L77.109 16.8217L79.1199 10.6329L73.8554 6.80798H80.3627L82.3736 0.619141Z" fill="white"/>
<path d="M53.5178 85.0264L54.8412 89.0995H59.124L55.6591 91.6169L56.9826 95.69L53.5178 93.1727L50.0529 95.69L51.3764 91.6169L47.9116 89.0995H52.1943L53.5178 85.0264Z" fill="white"/>
<path d="M101.43 83.8047L102.891 88.2998H107.617L103.793 91.078L105.254 95.5731L101.43 92.795L97.6064 95.5731L99.067 91.078L95.2432 88.2998H99.9697L101.43 83.8047Z" fill="white"/>
</svg>
