<svg width="123" height="93" viewBox="0 0 123 93" fill="none" xmlns="http://www.w3.org/2000/svg">
<g opacity="0.1">
<path d="M10.1058 72.8763C10.0372 74.1967 9.98572 75.4999 9.91713 76.8374C13.4496 77.5062 16.8277 77.4204 20.2058 76.8203C24.5956 76.0315 28.7282 74.4882 32.3806 71.9332C33.9068 70.87 35.1586 69.4296 36.6333 68.2635C37.3706 67.6634 38.2623 67.2347 39.1197 66.8403C43.0979 65.0055 46.819 62.7591 50.3857 60.2556C53.6438 57.9578 56.6789 55.3856 59.5426 52.6077C62.8178 49.4354 65.9044 46.1087 68.7681 42.5763C72.0604 38.5123 75.3185 34.414 78.628 30.3671C83.0864 24.897 87.9221 19.8213 93.838 15.8773C96.0672 14.3683 98.365 12.9965 100.56 11.4532C101.503 10.7844 102.309 9.89274 103.081 9.03535C104.161 7.85216 104.864 6.48035 104.555 4.49121C105.498 5.10853 106.27 5.55437 106.956 6.08595C110.077 8.48663 112.803 11.2303 114.69 14.7284C116.644 18.3637 117.022 22.0848 115.478 25.9773C113.884 30.007 111.277 33.2994 108.019 36.1116C103.818 39.7298 99.1024 42.5077 94.1295 44.8741C91.2659 46.2459 88.3508 47.5491 85.4356 48.818C82.9664 49.8983 80.8915 51.5102 78.9538 53.3107C74.8384 57.1175 71.7175 61.696 68.6995 66.3773C65.853 70.8014 63.0064 75.2427 60.0056 79.5639C58.2222 82.1532 55.9416 84.331 53.1637 85.8742C49.9399 87.6576 46.5275 88.978 42.9779 89.904C38.1594 91.1557 33.2552 92.0303 28.2823 92.236C24.2869 92.4075 20.2572 92.5619 16.2618 92.4418C12.3007 92.3218 8.32239 91.9445 4.5156 90.6413C3.81255 90.4012 3.12664 90.1097 2.47503 89.7668C0.845993 88.8923 -0.0285402 86.9031 0.160085 85.0854C0.57163 81.0557 3.0752 78.3121 5.83598 75.7742C7.07061 74.6254 8.52817 73.7165 9.88284 72.7048C9.95143 72.7734 10.02 72.8248 10.1058 72.8763Z" fill="white"/>
<path d="M38.2106 64.7654C39.5996 62.1418 40.0626 59.6896 38.8794 57.2204C37.5933 54.5282 35.1412 54.0823 32.4147 54.4596C32.3976 54.391 32.3804 54.3224 32.3633 54.2538C32.9463 53.808 33.5636 53.3964 34.1295 52.9163C37.7991 49.864 41.623 46.966 45.104 43.7251C48.7393 40.3299 52.1689 36.6946 55.4784 32.9735C60.3998 27.4177 65.0811 21.6732 69.9511 16.0659C72.5061 13.1165 75.0782 10.1671 77.8733 7.47486C81.8001 3.70237 86.4472 1.21595 91.9687 0.615778C94.9696 0.289972 97.8675 0.547187 100.697 1.64464C102.257 2.24481 103.269 3.428 103.149 4.69693C103.046 5.91442 102.446 6.89184 101.606 7.76637C99.7023 9.73836 97.4045 11.1616 95.0381 12.482C91.2314 14.5912 87.8361 17.2491 84.7152 20.2671C79.6224 25.1884 75.4726 30.9158 71.0485 36.4031C68.2534 39.884 65.3898 43.3136 62.4404 46.6745C57.6733 52.1104 52.1346 56.6545 46.0471 60.5127C43.8351 61.9189 41.5202 63.1535 39.2567 64.4396C39.0166 64.5596 38.7079 64.611 38.2106 64.7654Z" fill="white"/>
<path d="M114.072 32.7166C113.678 34.0027 113.386 35.3573 112.854 36.5748C110.985 40.8446 109.151 45.1315 107.093 49.3156C104.229 55.1801 101.331 61.0103 99.0677 67.1321C97.5759 71.1618 96.4613 75.3115 96.1869 79.6327C96.1698 79.8385 96.0669 80.0443 96.1012 80.2158C96.4441 81.7248 95.4667 82.1706 94.3007 82.5478C90.6825 83.7482 87.03 84.074 83.2918 83.2337C82.726 83.1137 82.5202 82.9079 82.5888 82.2563C82.9146 79.4955 83.2061 76.7348 83.4462 73.974C83.8234 69.7214 83.429 65.503 82.7088 61.3361C82.3487 59.227 81.6799 57.1521 81.0798 55.0944C80.7368 53.9112 80.6511 53.6539 81.6971 53.0195C83.7205 51.802 85.7611 50.6188 87.8874 49.5899C94.5236 46.3833 101.297 43.4168 107.179 38.8726C109.425 37.1236 111.363 34.9629 113.438 32.991C113.558 32.8709 113.66 32.7509 113.763 32.6309C113.866 32.648 113.969 32.6823 114.072 32.7166Z" fill="white"/>
<path d="M27.0479 58.5409C28.5054 58.1808 29.9801 57.7178 31.4891 57.4606C32.5523 57.272 33.6497 57.2891 34.6615 57.8207C35.9132 58.4723 36.4791 59.5355 36.5991 60.9244C36.8221 63.548 35.6732 65.6057 33.9584 67.4234C30.5117 71.0759 26.1562 73.065 21.3205 74.0253C19.2114 74.4368 17.0679 74.6254 14.9244 74.8827C14.1871 74.9684 13.4497 74.9341 12.7124 74.8827C12.5581 74.8655 12.3008 74.454 12.3351 74.2653C12.7295 72.0361 13.0725 69.8069 13.6212 67.612C14.4786 64.1139 15.8161 60.8044 18.011 57.9064C19.0399 56.5346 20.1545 55.2657 21.7149 54.494C24.0127 53.3451 26.0705 54.2883 26.7221 56.7747C26.8764 57.3748 26.945 58.0093 27.0479 58.5409Z" fill="white"/>
</g>
<path fill-rule="evenodd" clip-rule="evenodd" d="M72.8454 14.8489L71.7933 13.418L71.5971 15.1832C70.88 21.6377 69.4232 35.6159 68.9795 42.9859C69.3564 42.6175 69.856 42.3742 70.4112 42.3229C70.8577 35.4842 72.0492 23.8352 72.7817 17.1042L79.9045 26.7913C80.1072 26.3521 80.4406 25.9857 80.855 25.7419L72.8454 14.8489ZM72.9856 44.8879C72.9424 45.3744 72.7519 45.8185 72.4589 46.1753L90.7615 52.1761C90.836 51.6929 91.0568 51.2579 91.3773 50.918L72.9856 44.8879ZM108.717 15.5209L94.4621 50.6092C94.0876 50.3439 93.6324 50.1848 93.1406 50.176L106.739 16.7029L84.4137 27.8656C84.4147 27.8373 84.4152 27.809 84.4152 27.7805C84.4152 27.3093 84.2773 26.8702 84.0396 26.5015L107.764 14.6394L109.409 13.8168L108.717 15.5209Z" fill="white"/>
<circle cx="82.0817" cy="27.8385" r="1.57873" fill="white"/>
<circle cx="70.2877" cy="44.7399" r="1.57873" fill="white"/>
<circle cx="93.0865" cy="52.4303" r="1.57873" fill="white"/>
<path d="M99.158 15.0084L106.638 11.5768L105.685 3.40287L111.26 9.45592L118.74 6.02431L114.706 13.1969L120.281 19.25L112.212 17.6298L108.178 24.8024L107.226 16.6285L99.158 15.0084Z" fill="white"/>
<path d="M63.5865 13.4866L68.827 11.0822L68.1598 5.35518L72.0658 9.59624L77.3064 7.19189L74.4799 12.2174L78.386 16.4584L72.7331 15.3233L69.9067 20.3487L69.2394 14.6217L63.5865 13.4866Z" fill="white"/>
</svg>
