<svg width="128" height="107" viewBox="0 0 128 107" fill="none" xmlns="http://www.w3.org/2000/svg">
<g opacity="0.2">
<path d="M127.203 71.831C126.846 71.3248 126.563 70.7739 126.25 70.2379C126.012 69.8062 125.774 69.7169 125.327 70.0444C124.166 70.893 123.019 71.7715 121.754 72.4563C119.952 73.4539 118.061 74.2579 116.23 75.2107C115.813 75.434 114.905 75.7318 114.905 75.7318L113.788 76.1189C113.55 75.6127 113.401 75.0767 113.208 74.5556C112.85 73.6176 112.493 72.6946 112.121 71.7268C112.687 71.429 113.237 71.1015 113.788 70.7739C117.317 68.5853 119.282 65.3992 119.61 61.2602C119.922 57.4189 118.999 53.7266 117.808 50.1682C116.453 46.1334 114.682 42.2326 113.044 38.2871C111.674 34.9819 110.29 31.6915 109.575 28.1629C108.473 22.684 108.22 17.1008 107.699 11.5473C107.595 10.4009 107.49 9.25449 107.371 7.97408C106.895 8.16763 106.567 8.27185 106.27 8.43562C102.533 10.4605 98.5276 11.592 94.3141 12.0386C94.061 12.0684 93.7186 12.2322 93.5846 12.4406C91.8128 15.2695 90.0113 18.0983 88.3289 20.9867C87.0932 23.1157 86.8847 25.4681 87.1527 27.8949C87.4207 27.9545 87.644 27.9843 87.8525 28.0438C88.6713 28.3267 89.4009 28.7436 89.7135 29.622C90.1155 30.7833 89.4455 32.2126 88.2693 32.7933C87.2718 33.2846 86.0658 32.957 85.4405 32.034C84.577 30.7833 84.6068 29.22 85.5745 28.4458C85.9319 28.1629 85.9914 27.9247 85.9616 27.5227C85.7234 24.7535 86.2296 22.1331 87.6589 19.736C89.0138 17.4581 90.4282 15.2099 91.8277 12.9617C91.9468 12.7682 92.0808 12.5597 92.2148 12.3364C90.3537 12.262 79.7531 13.6019 78.8747 14.0039C79.3958 16.6094 79.9467 19.1852 80.4529 21.7906C80.6762 22.9073 80.7506 24.0537 81.0186 25.1406C81.3462 26.4954 81.2271 27.9694 82.0906 29.1754C82.165 29.2945 82.1353 29.5029 82.1204 29.6667C82.1055 30.024 82.0162 30.3813 82.0459 30.7387C82.1651 31.7511 82.3437 32.7486 82.4777 33.761C82.5819 34.5799 82.6713 35.4137 82.7755 36.3814C83.8475 36.0539 84.8003 35.7263 85.783 35.4732C86.0659 35.3988 86.3934 35.5328 86.6912 35.5774C86.5721 35.8752 86.5274 36.2325 86.3338 36.441C86.1254 36.6494 85.783 36.7685 85.4703 36.8578C84.5919 37.0961 83.6986 37.2896 82.8648 37.4832C82.5373 39.3442 82.2395 41.1457 81.9119 43.0664C82.4777 43.0068 83.0286 43.0217 83.5199 42.8728C85.0385 42.4113 86.5721 41.9944 87.8525 40.9671C88.0163 40.8331 88.4927 40.8331 88.5671 40.9373C88.7011 41.1309 88.7607 41.5626 88.6267 41.7115C88.314 42.0837 87.9269 42.441 87.4803 42.6197C86.1552 43.1706 84.8152 43.6917 83.4306 44.0937C82.8499 44.2723 82.1651 44.1235 81.4355 44.1235C80.8251 45.4932 80.1253 47.0267 79.3809 48.6645C81.6291 49.1707 83.773 49.1707 85.9021 48.5007C86.1701 48.4114 86.3338 48.0987 86.6018 47.9647C86.8698 47.8307 87.1974 47.8009 87.4952 47.7265C87.4952 48.0391 87.644 48.5156 87.4803 48.6347C86.9443 49.0813 86.3487 49.662 85.7234 49.7513C84.0112 49.9746 82.2246 50.2873 80.572 49.9746C78.9342 49.662 78.0856 50.0938 77.3561 51.4188C76.9838 52.0888 76.4479 52.6695 75.9416 53.3543C76.1947 53.4139 76.3139 53.4139 76.433 53.4735C78.6067 54.4561 80.8251 54.9623 83.1924 54.2477C83.3859 54.1881 83.8326 54.3668 83.8475 54.4859C83.8921 54.7241 83.773 55.1707 83.6241 55.2303C82.9839 55.4685 82.2842 55.7663 81.644 55.7216C80.1253 55.6174 78.5918 55.3643 77.1029 55.0665C76.5223 54.9474 75.9863 54.5305 75.3312 54.203C74.1997 55.6918 72.9639 57.3147 71.7282 58.9375C73.0086 59.8011 75.4354 60.0989 76.9094 59.6671C77.1625 59.5926 77.5049 59.8011 77.8027 59.8755C77.6538 60.1584 77.5794 60.5902 77.3561 60.6795C76.8201 60.9028 76.1947 61.1262 75.6439 61.0517C74.2295 60.8582 72.8299 60.5306 71.4453 60.1882C70.9986 60.084 70.7307 60.0542 70.4329 60.4413C69.9118 61.1411 69.3311 61.7813 68.7803 62.4512C68.3336 63.0021 67.9018 63.553 67.3658 64.2379C69.5842 64.8632 71.5644 65.6374 73.7381 65.6523C73.9912 65.6523 74.2592 65.8905 74.5123 66.0245C74.3337 66.2776 74.1848 66.6349 73.9466 66.754C73.6637 66.888 73.2468 66.8731 72.9342 66.7987C71.0731 66.3669 69.2269 65.9352 67.3807 65.4141C66.8596 65.2652 66.5619 65.2801 66.2045 65.7416C65.1623 67.0965 64.0457 68.3918 62.9588 69.7169C62.7206 69.9997 62.4824 70.2677 62.1846 70.6251C62.5717 70.893 62.8695 71.1759 63.2268 71.295C65.0283 71.9055 66.8447 72.3968 68.7505 71.7715C68.9589 71.7119 69.2567 71.9203 69.5098 72.0097C69.3907 72.2777 69.346 72.6648 69.1525 72.7839C68.81 72.9923 68.3634 73.1114 67.9614 73.1412C65.5792 73.3348 63.3459 72.8881 61.1722 71.4886C60.7404 72.0543 60.2938 72.6052 59.8471 73.171C59.7727 73.171 59.6982 73.171 59.6089 73.2008C59.3856 73.2454 58.0456 73.439 57.8074 73.4688C50.2142 74.3621 42.6211 75.2703 34.9535 75.5829C34.7153 75.5978 34.4473 75.702 34.2388 75.8212C33.5242 76.1934 33.0478 75.9254 33.0478 75.1065C33.0627 73.305 33.0775 71.4886 33.1222 69.6871C33.1966 69.6722 33.2711 69.6573 33.3604 69.6424C37.827 68.7938 42.2489 67.7218 46.7899 67.4985C51.1373 67.2751 55.4997 67.1858 59.862 67.0816C60.4873 67.0667 60.9489 66.9178 61.3211 66.3967C62.2591 65.1163 63.1822 63.8359 64.1797 62.6001C65.3261 61.1708 66.5321 59.7862 67.6934 58.3718C67.9614 58.0442 68.0954 57.5827 68.3783 57.2551C68.7207 56.8531 69.1971 56.5554 69.5247 56.1385C71.2964 53.8308 73.0533 51.5231 74.7803 49.2004C77.2965 45.8207 78.9491 42.0539 79.5 37.8554C79.902 34.7586 79.2618 31.7362 78.7556 28.6989C78.7407 28.5798 78.6811 28.4607 78.5918 28.3565C78.1303 25.8403 77.4752 22.0586 77.1476 20.3911C76.701 18.0834 76.3287 15.7608 75.7928 13.4679C75.4503 12.0089 75.8523 11.6218 77.2369 11.4133C80.0956 10.9816 82.9988 10.6987 85.8872 10.4605C86.7805 10.386 87.2123 10.0436 87.4207 9.20983C87.6887 8.15274 88.0311 7.11054 88.3587 5.9939C88.1205 5.94924 88.046 5.91946 87.9865 5.91946C87.7185 5.91946 87.4356 5.90457 87.1676 5.93435C84.5026 6.2619 78.9938 5.53236 75.6737 4.99637C72.9937 4.23706 70.3287 3.47774 67.6338 2.7482C67.3658 2.67376 66.9341 2.77798 66.7256 2.95664C64.6264 4.80282 63.0779 7.08077 62.006 9.64159C61.1573 11.6664 60.7256 13.8104 60.6511 16.0139C60.6362 16.6541 60.8 16.9668 61.47 17.1454C62.5271 17.4432 63.0928 18.2621 63.1673 19.3489C63.2268 20.2571 62.8695 21.0016 62.0655 21.4631C61.0084 22.0735 59.8025 21.7162 58.8794 20.5698C58.1201 19.6169 58.0605 18.0834 58.9389 17.3092C59.5047 16.8179 59.5196 16.3265 59.5047 15.7161C59.5047 15.4183 59.5196 15.1206 59.5494 14.8228C60.0258 10.1925 61.9018 6.20234 65.1326 2.86731C65.3112 2.67376 65.4899 2.48021 65.7877 2.18244C63.7033 1.64645 61.7529 1.14024 59.728 0.619141C59.6536 0.976466 59.6089 1.21468 59.5643 1.4529C59.326 2.85242 59.1325 4.25194 58.8496 5.62169C58.3136 8.25696 57.7181 10.8922 57.1672 13.5424C56.9885 14.3613 56.4972 15.4035 56.8099 15.9841C57.4203 17.1454 55.9612 17.4134 56.1697 18.2621C56.1994 18.3663 56.125 18.5003 56.0952 18.6194C55.8272 19.602 55.5741 20.5847 55.3061 21.5673C55.187 21.9842 55.0828 22.416 54.919 23.0115C56.0506 23.1008 57.0779 23.1753 58.1052 23.2944C58.3583 23.3242 58.5816 23.5475 58.8198 23.6666C58.656 23.9048 58.5369 24.2324 58.2987 24.3664C58.0605 24.5004 57.7181 24.5152 57.4352 24.4855C56.6461 24.3961 55.857 24.3068 55.0828 24.1133C54.5915 23.9941 54.3979 24.1579 54.1746 24.5599C53.5344 25.7063 52.8346 26.8081 52.1498 27.9396C51.986 28.2076 51.7924 28.4458 51.5244 28.818C52.1051 29.0116 52.5666 29.2498 53.0282 29.2945C54.6361 29.4434 56.2292 29.6518 57.8372 29.1902C58.0456 29.1307 58.3434 29.3391 58.5965 29.4285C58.4774 29.6965 58.4178 30.0836 58.2243 30.2027C57.8521 30.4111 57.3905 30.5451 56.9588 30.56C55.6932 30.5898 54.4277 30.5451 53.1771 30.5004C52.3284 30.4707 51.4947 30.3218 50.9289 29.5476C49.6783 30.7387 48.4723 31.8851 47.2068 33.091C47.4748 33.2995 47.6683 33.5079 47.8916 33.6121C49.2167 34.1779 50.5269 34.7437 51.8669 35.235C52.6411 35.503 53.46 35.5774 54.249 35.1457C54.4277 35.0563 54.7553 35.2648 55.0084 35.3392C54.9339 35.5923 54.9041 36.0241 54.7553 36.0836C54.1299 36.307 53.4302 36.5899 52.79 36.5452C50.9587 36.4112 49.1572 35.8603 47.713 34.7883C46.373 33.7908 45.4053 33.9546 44.2439 34.9074C43.6633 35.3839 42.9635 35.6965 42.234 36.1283C42.7402 36.6345 43.0975 37.0961 43.5442 37.4236C45.0777 38.5254 46.5814 39.6867 48.6063 39.7313C48.785 39.7313 49.0976 40.0589 49.0976 40.2375C49.0976 40.4311 48.8296 40.7438 48.6212 40.7884C48.249 40.8629 47.8172 40.8778 47.445 40.7735C45.0182 40.044 42.8742 38.8678 41.296 36.709C39.6434 37.6916 37.9163 38.7189 36.0701 39.8207C37.5143 41.0564 38.7947 42.2624 40.7005 42.3666C40.9536 42.3815 41.1918 42.709 41.4449 42.9026C41.1918 43.0961 40.9536 43.4535 40.7005 43.4684C40.1645 43.4832 39.5541 43.4684 39.1074 43.2152C37.8717 42.5006 36.6657 41.7264 35.5193 40.8629C35.0428 40.5055 34.7302 40.4311 34.224 40.7289C33.152 41.3542 32.0502 41.9199 30.9634 42.5304C30.74 42.6495 30.5316 42.8133 30.1743 43.0515C31.9162 44.4361 33.4795 45.8356 35.4299 46.6992C35.683 46.8183 35.8468 47.1458 36.0552 47.3692C35.7575 47.518 35.4299 47.8158 35.147 47.7711C34.7302 47.7265 34.2835 47.5032 33.9262 47.25C32.4671 46.2078 31.0378 45.1656 29.6234 44.0639C29.2065 43.7364 28.9385 43.6619 28.4621 43.9448C26.9137 44.8381 25.3355 45.6719 23.7573 46.5056C22.9087 46.9523 22.8193 47.3096 23.5638 47.9498C24.9931 49.2004 26.4819 50.332 28.4919 50.5106C28.7301 50.5255 28.9385 50.868 29.1619 51.0466C28.9236 51.2402 28.6705 51.6124 28.4323 51.5975C27.807 51.5677 27.137 51.4784 26.5564 51.2253C24.6357 50.4213 22.9236 49.3195 21.7325 47.518C21.5687 47.5776 21.39 47.6074 21.2412 47.6818C18.3826 48.992 15.7473 50.6744 13.4396 52.8184C11.4594 54.6496 9.86631 56.7787 9.15166 59.414C7.9308 63.955 10.9234 69.5828 16.6853 70.4315C20.7945 71.0419 24.8591 70.9228 28.9087 70.4017C28.9534 71.563 28.9683 72.7243 28.9683 73.8856C28.9534 75.5234 28.9236 75.5234 27.3306 75.4787C27.3008 75.4787 27.271 75.4787 27.2412 75.4787C25.0377 75.5978 22.8342 75.7616 20.6158 75.836C17.6232 75.9254 14.6306 76.0147 11.6232 75.9849C9.50899 75.9551 7.63303 75.2107 6.24839 73.4837C5.4593 72.501 5.36997 71.7715 5.96551 70.6697C6.32284 69.9997 7.03749 69.2851 6.96304 68.6747C6.87371 68.0196 6.02507 67.4687 5.57841 66.8285C5.16153 66.2329 4.78932 66.3967 4.37244 66.7838C2.18382 68.8086 0.888521 71.3397 0.263202 74.2132C-0.183454 76.238 0.441865 77.8758 2.18382 79.0817C4.08956 80.4068 6.23351 80.9726 8.51145 81.1364C14.1542 81.5681 19.8119 81.3597 25.4248 80.913C29.9807 80.5557 34.4771 79.7071 39.033 79.3795C44.7502 78.9626 50.4822 78.7244 56.2143 78.4564C55.0679 80.5855 54.3086 82.8485 54.1002 85.3498C53.7131 90.3672 57.5096 94.7445 62.5271 94.9827C65.1475 95.1018 67.5743 94.2085 69.9416 93.2556C71.9664 92.4516 73.9466 91.5285 75.8523 90.5012C76.3436 91.5434 76.8201 92.6005 77.2816 93.6725C77.8176 94.9231 77.8027 94.938 76.5521 95.3996C76.5074 95.4145 76.4627 95.4442 76.4181 95.4591C74.9143 96.2184 73.4106 96.9926 71.892 97.7073C69.4205 98.8686 66.9639 100.03 64.4477 101.087C62.7951 101.787 61.068 101.846 59.4154 100.983C58.4178 100.462 58.1201 99.9555 58.2243 98.8239C58.2838 98.1986 58.6412 97.4095 58.3881 96.9926C58.0903 96.5013 57.2416 96.3673 56.6759 96.0249C56.1399 95.6973 55.8719 95.8611 55.6486 96.3673C54.6064 98.7197 54.4426 101.147 54.9339 103.648C55.2912 105.434 56.393 106.447 58.1796 106.789C60.0109 107.132 61.8124 106.908 63.5246 106.298C69.5842 104.124 75.4057 101.385 80.9144 98.0795C86.4678 94.7445 92.1404 91.6328 98.0065 88.8933C102.086 86.9875 106.136 84.9627 110.111 82.8336C114.503 80.4664 118.568 77.5482 123.094 75.434C124.419 74.8236 125.64 74.0047 126.905 73.2752C127.486 72.8881 127.62 72.4415 127.203 71.831ZM110.126 78.6053C110.051 78.7095 109.649 78.7095 109.53 78.6053C109.173 78.2629 108.92 78.4713 108.622 78.6648C108.101 78.9924 107.565 79.32 107.029 79.6177C102.265 82.2679 97.5151 84.9478 92.721 87.5533C89.3711 89.3846 85.9616 91.0968 82.5819 92.8834C82.3735 92.9876 82.1799 93.1514 82.0311 93.3301C81.5844 93.8661 81.1229 93.8512 80.8698 93.211C80.2444 91.6923 79.634 90.1737 79.0087 88.6551C79.9169 88.0893 80.8102 87.5087 81.6886 86.8982C83.0584 85.9454 84.4132 84.9925 85.8276 84.1289C91.0237 80.9428 96.5474 78.4415 102.16 76.1189C104.23 75.2703 106.314 74.4663 108.369 73.5581C108.652 74.0941 108.964 74.6152 109.232 75.1661C109.634 76.0445 110.022 76.9229 110.334 77.8311C110.424 78.0395 110.275 78.382 110.126 78.6053Z" fill="white"/>
<path d="M86.6016 30.5751C86.4081 30.322 86.3932 29.9497 86.2443 29.4584C85.8423 30.5602 86.2294 31.5726 86.9887 31.8257C87.6587 32.049 88.4925 31.4684 88.686 30.6495C88.8498 29.9646 88.3882 29.4138 87.3758 29.1904C87.4949 29.5478 87.6587 29.8753 87.6736 30.2029C87.6885 30.4708 87.4949 30.7388 87.4056 31.0068C87.1227 30.8728 86.7654 30.7984 86.6016 30.5751Z" fill="white"/>
<path d="M61.0684 19.959C60.726 19.8399 60.3537 19.6463 60.1453 19.3783C59.9071 19.0657 59.8326 18.6339 59.6838 18.2021C59.2371 19.1103 59.3413 19.6463 60.19 20.1972C60.5324 20.4205 61.1428 20.5694 61.4257 20.4057C61.7235 20.227 61.9319 19.6314 61.9319 19.2295C61.9319 18.7084 61.5746 18.3064 60.8748 18.2319C60.9939 18.4255 61.0684 18.5446 61.1428 18.6786C61.2917 18.9764 61.5002 19.2592 61.5597 19.5719C61.5895 19.6612 61.1875 20.0037 61.0684 19.959Z" fill="white"/>
</g>
<path fill-rule="evenodd" clip-rule="evenodd" d="M112.113 62.4174C111.953 62.0515 111.896 61.6572 111.937 61.2741L89.5554 62.2863L107.059 49.645L112.857 59.6754C112.86 59.6734 112.863 59.6714 112.866 59.6694C113.194 59.4319 113.565 59.2952 113.942 59.2533L107.737 48.5185L107.418 47.9675L106.902 48.3401L87.9645 62.0166L72.4148 13.1594C72.2987 13.3339 72.1499 13.491 71.97 13.6209C71.8039 13.7408 71.6243 13.8283 71.4387 13.8846L87.1095 63.1221L87.2432 63.542L87.6834 63.5221L112.113 62.4174ZM69.4587 13.2158C69.6191 13.438 69.8209 13.6127 70.0459 13.737L34.0898 54.6916L56.4042 76.7189L55.5963 77.5374L32.8959 55.129L32.5099 54.748L32.8677 54.3404L69.2673 12.8808C69.3179 12.9967 69.3816 13.1091 69.4587 13.2158ZM71.5633 10.484C71.5146 10.4653 71.4651 10.4487 71.4151 10.4344L71.5123 10.3237L71.5633 10.484Z" fill="white"/>
<circle cx="57.9158" cy="78.5587" r="1.52149" transform="rotate(144.164 57.9158 78.5587)" fill="white"/>
<circle cx="114.586" cy="61.8111" r="1.45451" transform="rotate(144.164 114.586 61.8111)" fill="white"/>
<circle cx="71.2547" cy="10.677" r="1.7159" transform="rotate(144.164 71.2547 10.677)" fill="white"/>
<path d="M92.492 67.6497L88.7024 64.8799L84.8971 67.628L86.3604 63.168L82.5708 60.3982L87.2647 60.4116L88.7279 55.9516L90.1657 60.4199L94.8595 60.4333L91.0542 63.1814L92.492 67.6497Z" fill="white"/>
<path d="M38.7516 60.9555L33.9904 57.4755L29.2094 60.9282L31.0478 55.3247L26.2866 51.8447L32.184 51.8615L34.0224 46.2579L35.8288 51.8719L41.7262 51.8887L36.9452 55.3415L38.7516 60.9555Z" fill="white"/>
<path d="M109.264 53.3425L106.553 51.3611L103.831 53.327L104.878 50.1366L102.167 48.1552L105.525 48.1648L106.572 44.9744L107.6 48.1707L110.958 48.1803L108.236 50.1462L109.264 53.3425Z" fill="white"/>
</svg>
