<svg width="401" height="383" viewBox="0 0 401 383" fill="none" xmlns="http://www.w3.org/2000/svg">
<path opacity="0.2" d="M283.693 34.5781C286.669 33.5838 294.406 31.6947 301.548 32.0924C308.69 32.4901 310.144 29.2753 309.979 27.6182C311.467 29.9382 312.856 35.97 306.507 41.5379C307.003 44.355 309.185 51.0828 313.947 55.4576C314.443 55.789 314.641 56.949 311.467 58.9375C311.302 61.4231 311.368 66.8916 312.955 68.8801C314.939 71.3658 303.531 71.3658 304.027 76.3371C304.424 80.3141 308.16 85.2854 309.979 87.274C316.923 82.3027 333.091 73.1554 342.217 76.3371C343.043 77.3313 344.201 80.0158 342.217 82.7998C347.011 76.9999 359.774 65.4996 372.471 65.8973C373.297 61.2574 376.934 50.4862 384.87 44.5207C392.805 38.5551 391.152 33.4181 389.334 31.5953C384.209 29.9382 375.05 24.1383 379.414 14.1957C384.87 1.76738 400.741 7.73295 399.749 14.1957C398.757 20.6584 403.717 25.6297 398.757 53.4691C393.797 81.3084 393.301 78.8228 391.317 80.3142C389.334 81.8056 372.967 90.7539 368.503 97.7138C364.039 104.674 346.185 111.136 344.697 113.622C343.209 116.108 334.777 136.987 326.346 146.93C317.914 156.872 319.402 191.174 322.874 192.169C326.346 193.163 387.846 232.436 390.326 252.322C392.805 272.207 368.503 267.733 354.12 278.172C339.737 288.612 319.898 289.606 315.931 294.578C311.963 299.549 302.044 320.926 301.052 329.874C300.06 338.822 282.701 323.411 291.132 300.046C289.479 296.732 286.569 288.513 288.156 282.15C290.14 274.195 301.052 282.647 309.483 278.172C316.228 274.593 334.116 256.796 342.217 248.345C329.983 243.705 304.623 234.127 301.052 232.933C296.588 231.442 287.165 233.431 281.213 242.379C275.261 251.327 254.431 275.687 247.983 282.15C241.536 288.612 245.007 292.092 242.032 297.561C239.056 303.029 224.177 327.886 219.713 332.36C215.249 336.834 208.802 349.759 207.81 355.228C206.818 360.696 205.826 375.113 197.395 379.587C188.963 384.061 176.564 384.061 177.06 379.587C177.556 375.113 192.435 353.239 194.915 345.285C197.395 337.331 207.81 293.086 218.721 280.658C229.632 268.23 231.616 255.802 235.088 247.847C238.56 239.893 248.479 213.048 256.415 202.608C264.35 192.169 269.806 158.861 257.903 145.438C248.743 135.109 247.109 130.392 247.439 129.163C246.03 132.881 240.301 141.427 228.145 146.93C228.475 152.232 230.327 163.733 235.088 167.312C235.915 164.661 239.75 159.955 248.479 162.341C259.39 165.324 256.415 182.226 244.511 183.22C232.608 184.215 200.37 159.855 205.33 145.438C210.29 131.022 210.786 137.484 216.737 127.045C222.689 116.605 228.145 117.102 228.145 116.108C228.145 115.113 232.608 87.274 262.862 88.2683C255.423 85.2855 237.667 83.297 226.161 99.2052C211.778 119.09 214.753 114.616 206.818 122.57C198.883 130.524 186.483 149.415 206.818 169.798C227.153 190.18 238.853 194.654 250.959 190.18C246.33 202.608 235.088 229.155 227.153 235.916C217.233 244.368 175.076 272.207 169.125 286.127C163.173 300.046 149.782 322.914 150.278 330.371C144.657 322.251 135.796 299.649 145.318 274.195C154.841 248.742 129.778 225.145 116.056 216.528C129.117 213.711 155.634 207.182 157.221 203.603C159.205 199.129 129.943 201.117 107.129 212.054C84.3143 222.991 52.5725 180.735 63.4837 166.815C72.2127 155.679 96.2175 151.57 107.129 150.907C93.903 149.581 67.0546 146.333 65.4676 143.947C63.4837 140.964 47.6128 94.2338 0 100.697C6.11692 92.411 30.1987 70.0914 67.4514 84.2912C102.665 97.7138 120.024 106.165 151.766 110.142C183.508 114.119 225.665 79.817 241.04 78.8228C256.415 77.8285 267.326 81.3084 273.277 84.7883C275.923 82.7998 280.32 76.8342 276.749 68.8801C272.286 58.9375 263.358 41.538 283.693 34.5781Z" fill="white"/>
<g filter="url(#filter0_f_31_314)">
<path d="M247.909 236.933L251.269 263.4L277.479 268.384L253.345 279.758L256.705 306.225L238.429 286.788L214.296 298.162L227.135 274.774L208.86 255.336L235.07 260.32L247.909 236.933Z" fill="white"/>
<path d="M288.813 104.372L300.742 112.978L312.613 104.292L308.115 118.297L320.044 126.903L305.335 126.952L300.836 140.957L296.244 126.983L281.534 127.032L293.405 118.346L288.813 104.372Z" fill="white"/>
<path d="M142.898 154.649L151.586 160.916L160.23 154.591L156.955 164.789L165.642 171.056L154.93 171.092L151.654 181.291L148.31 171.114L137.598 171.15L146.243 164.825L142.898 154.649Z" fill="white"/>
<circle cx="320.167" cy="154.285" r="5.16739" fill="white"/>
<path d="M159.432 137.141C160.244 137.723 161.141 138.192 162.102 138.527L150.748 165.65L243.297 269.508L314.982 164.066C315.913 164.516 316.92 164.834 317.979 164.996L244.697 272.787L243.616 274.376L242.337 272.941L147.88 166.941L147.251 166.235L147.616 165.364L159.432 137.141ZM302.417 117.179L318.287 144.025C317.233 144.154 316.227 144.437 315.292 144.853L300.308 119.506L176.172 128.62C176.172 128.59 176.175 128.56 176.175 128.531C176.175 127.529 176.033 126.56 175.772 125.641L301.016 116.447L301.943 116.378L302.417 117.179Z" fill="white"/>
<circle cx="166.167" cy="128.285" r="5.16739" fill="white"/>
</g>
<path d="M247.909 236.933L251.269 263.4L277.479 268.384L253.345 279.758L256.705 306.225L238.429 286.788L214.296 298.162L227.135 274.774L208.86 255.336L235.07 260.32L247.909 236.933Z" fill="white"/>
<path d="M288.813 104.372L300.742 112.978L312.613 104.292L308.115 118.297L320.044 126.903L305.335 126.952L300.836 140.957L296.244 126.983L281.534 127.032L293.405 118.346L288.813 104.372Z" fill="white"/>
<path d="M142.898 154.649L151.586 160.916L160.23 154.591L156.955 164.789L165.642 171.056L154.93 171.092L151.654 181.291L148.31 171.114L137.598 171.15L146.243 164.825L142.898 154.649Z" fill="white"/>
<circle cx="320.167" cy="154.285" r="5.16739" fill="white"/>
<path d="M159.432 137.141C160.244 137.723 161.141 138.192 162.102 138.527L150.748 165.65L243.297 269.508L314.982 164.066C315.913 164.516 316.92 164.834 317.979 164.996L244.697 272.787L243.616 274.376L242.337 272.941L147.88 166.941L147.251 166.235L147.616 165.364L159.432 137.141ZM302.417 117.179L318.287 144.025C317.233 144.154 316.227 144.437 315.292 144.853L300.308 119.506L176.172 128.62C176.172 128.59 176.175 128.56 176.175 128.531C176.175 127.529 176.033 126.56 175.772 125.641L301.016 116.447L301.943 116.378L302.417 117.179Z" fill="white"/>
<circle cx="166.167" cy="128.285" r="5.16739" fill="white"/>
<g filter="url(#filter1_f_31_314)">
<path d="M33.509 16.606L33.509 22.3474L32.5521 22.3474C31.8449 16.8141 27.6845 13.569 23.4408 13.569C18.4068 13.569 13.2479 17.8958 13.2479 27.8391C13.2479 36.8672 17.9075 40.8612 22.7336 40.8612C26.894 40.8612 31.1792 37.7409 32.5521 32.374L33.509 32.374L33.509 37.8241C30.6799 40.6115 26.5612 42.6085 21.9015 42.6085C13.3311 42.6085 6.59125 35.7855 6.59125 27.2151C6.59125 18.6447 13.3311 11.8216 21.9015 11.8216C26.6028 11.8216 30.7215 13.8186 33.509 16.606ZM36.6111 12.8201L44.7239 12.8201L44.7239 12.9033C44.9319 13.6522 45.9304 14.8587 47.3449 16.8141L55.7073 28.5464L62.8632 16.8141C64.0697 14.8587 64.9018 13.6522 65.0266 12.9033L65.0266 12.8201L67.4812 12.8201L67.4812 12.9865C66.7324 13.777 66.1499 14.7755 64.9434 16.7725L53.8351 35.0366C50.4236 40.6115 47.8858 42.5669 44.8071 42.5669C41.3124 42.5669 38.8577 40.2371 38.8577 36.9504C38.8577 33.6637 41.5204 31.5835 44.3494 31.5835C45.764 31.5835 47.2617 32.1243 48.5098 33.1228L48.1354 33.7885C47.3865 33.2892 46.5961 33.1228 45.8888 33.1228C43.8502 33.1228 42.8517 34.6206 42.8517 36.1599C42.8517 37.7825 43.975 39.4882 46.2216 39.4882C47.6778 39.4882 49.6332 38.5313 51.3805 35.6607L52.379 33.9965L39.565 16.7725C38.1088 14.8171 37.4432 13.777 36.6111 12.9865L36.6111 12.8201ZM69.3433 12.8201L93.8897 12.8201L93.8897 12.9865C93.7233 14.0682 93.6817 14.5674 93.6817 17.1885L93.6817 37.5744C93.6817 40.1955 93.7233 40.6947 93.8897 41.7764L93.8897 41.9428L87.1499 41.9428L87.1499 41.7764C87.3995 40.6947 87.4411 40.1955 87.4411 37.5744L87.4411 14.5674L75.792 14.5674L75.792 37.5744C75.792 40.1955 75.8336 40.6947 76.0832 41.7764L76.0832 41.9428L69.3434 41.9428L69.3434 41.7764C69.5098 40.6947 69.5514 40.1955 69.5514 37.5744L69.5514 17.1885C69.5514 14.5674 69.5098 14.0682 69.3433 12.9865L69.3433 12.8201ZM100.138 12.8201L118.361 12.8201L118.361 14.9835L118.195 14.9835C117.113 14.5674 116.489 14.5674 114.409 14.5674L106.587 14.5674L106.587 21.6817L115.116 21.6817L115.116 23.4291L106.587 23.4291L106.587 40.1955L115.948 40.1955C118.153 40.1955 118.652 40.1539 119.734 39.9042L119.9 39.9042L119.9 41.9428L100.138 41.9428L100.138 41.7764C100.305 40.6947 100.346 40.1955 100.346 37.5744L100.346 17.1885C100.346 14.5674 100.305 14.0682 100.138 12.9865L100.138 12.8201ZM135.249 12.8201C142.446 12.82 146.981 16.2732 146.981 22.0145C146.981 28.5047 141.073 31.8331 134.874 31.8331C134.126 31.8331 133.335 31.7499 132.586 31.6666L132.586 30.4185L133.127 30.4185C137.579 30.4185 140.741 27.4646 140.741 22.3474C140.741 17.3549 138.328 14.5674 133.876 14.5674L130.922 14.5674L130.922 37.5744C130.922 40.1955 130.964 40.6947 131.13 41.7764L131.13 41.9428L124.473 41.9428L124.473 41.7764C124.64 40.6947 124.681 40.1955 124.681 37.5744L124.681 17.1885C124.681 14.5674 124.64 14.0682 124.473 12.9865L124.473 12.8201L135.249 12.8201ZM150.718 12.82L167.152 12.82L167.152 14.8586L166.985 14.8586C165.904 14.609 165.404 14.5674 163.199 14.5674L157.167 14.5674L157.167 37.5744C157.167 40.1955 157.208 40.6947 157.458 41.7764L157.458 41.9428L150.718 41.9428L150.718 41.7764C150.885 40.6947 150.926 40.1955 150.926 37.5744L150.926 17.1885C150.926 14.5674 150.885 14.0682 150.718 12.9865L150.718 12.82ZM172.372 12.82L190.594 12.82L190.594 14.9834L190.428 14.9834C189.346 14.5674 188.722 14.5674 186.642 14.5674L178.82 14.5674L178.82 21.6817L187.349 21.6817L187.349 23.429L178.82 23.429L178.82 40.1954L188.181 40.1954C190.386 40.1954 190.885 40.1538 191.967 39.9042L192.134 39.9042L192.134 41.9428L172.372 41.9428L172.372 41.7764C172.538 40.6947 172.58 40.1954 172.58 37.5744L172.58 17.1885C172.58 14.5674 172.538 14.0682 172.372 12.9865L172.372 12.82ZM207.482 12.82C214.68 12.82 219.214 16.2732 219.214 22.0145C219.214 28.5047 213.307 31.833 207.108 31.833C206.359 31.833 205.568 31.7498 204.819 31.6666L204.819 30.4185L205.36 30.4185C209.812 30.4185 212.974 27.4646 212.974 22.3473C212.974 17.3549 210.561 14.5674 206.109 14.5674L203.155 14.5674L203.155 37.5744C203.155 40.1954 203.197 40.6947 203.363 41.7764L203.363 41.9428L196.707 41.9428L196.707 41.7764C196.873 40.6947 196.915 40.1954 196.915 37.5744L196.915 17.1884C196.915 14.5674 196.873 14.0682 196.707 12.9864L196.707 12.82L207.482 12.82ZM237.305 42.6085C228.734 42.6085 221.911 35.7854 221.911 27.215C221.911 18.6446 228.734 11.8215 237.305 11.8215C245.875 11.8215 252.698 18.6446 252.698 27.215C252.698 35.7854 245.875 42.6085 237.305 42.6085ZM228.818 27.8391C228.818 35.5358 232.229 40.8611 237.138 40.8611C243.171 40.8611 246.291 33.5388 246.291 26.5077C246.291 18.9358 242.838 13.5689 237.887 13.5689C231.938 13.5689 228.818 20.8496 228.818 27.8391ZM258.015 12.82L264.755 12.82L264.755 12.9864C264.506 14.0681 264.464 14.5674 264.464 17.1884L264.464 33.2892L282.354 12.82L283.685 12.82C283.352 14.0681 283.352 14.6922 283.352 21.1408L283.352 37.5744C283.352 40.1954 283.394 40.6947 283.56 41.7764L283.56 41.9428L276.82 41.9428L276.82 41.7764C277.07 40.6947 277.112 40.1954 277.112 37.5744L277.112 21.4736L259.222 41.9428L257.891 41.9428C258.223 40.6947 258.223 40.0706 258.223 37.9904L258.223 17.1884C258.223 14.5674 258.182 14.0681 258.015 12.9864L258.015 12.82ZM264.797 3.99997L267.792 3.99997L267.792 4.04157C267.792 4.99846 268.084 5.74733 268.5 6.37139C269.124 7.24508 270.164 7.74432 271.453 7.74432C273.575 7.74432 274.948 6.37139 275.115 3.99996L278.11 3.99996C277.985 7.20347 275.364 9.49169 271.453 9.49169C267.543 9.49169 264.922 7.20347 264.797 3.99997Z" fill="#F6F1FF"/>
</g>
<path d="M33.509 16.606L33.509 22.3474L32.5521 22.3474C31.8449 16.8141 27.6845 13.569 23.4408 13.569C18.4068 13.569 13.2479 17.8958 13.2479 27.8391C13.2479 36.8672 17.9075 40.8612 22.7336 40.8612C26.894 40.8612 31.1792 37.7409 32.5521 32.374L33.509 32.374L33.509 37.8241C30.6799 40.6115 26.5612 42.6085 21.9015 42.6085C13.3311 42.6085 6.59125 35.7855 6.59125 27.2151C6.59125 18.6447 13.3311 11.8216 21.9015 11.8216C26.6028 11.8216 30.7215 13.8186 33.509 16.606ZM36.6111 12.8201L44.7239 12.8201L44.7239 12.9033C44.9319 13.6522 45.9304 14.8587 47.3449 16.8141L55.7073 28.5464L62.8632 16.8141C64.0697 14.8587 64.9018 13.6522 65.0266 12.9033L65.0266 12.8201L67.4812 12.8201L67.4812 12.9865C66.7324 13.777 66.1499 14.7755 64.9434 16.7725L53.8351 35.0366C50.4236 40.6115 47.8858 42.5669 44.8071 42.5669C41.3124 42.5669 38.8577 40.2371 38.8577 36.9504C38.8577 33.6637 41.5204 31.5835 44.3494 31.5835C45.764 31.5835 47.2617 32.1243 48.5098 33.1228L48.1354 33.7885C47.3865 33.2892 46.5961 33.1228 45.8888 33.1228C43.8502 33.1228 42.8517 34.6206 42.8517 36.1599C42.8517 37.7825 43.975 39.4882 46.2216 39.4882C47.6778 39.4882 49.6332 38.5313 51.3805 35.6607L52.379 33.9965L39.565 16.7725C38.1088 14.8171 37.4432 13.777 36.6111 12.9865L36.6111 12.8201ZM69.3433 12.8201L93.8897 12.8201L93.8897 12.9865C93.7233 14.0682 93.6817 14.5674 93.6817 17.1885L93.6817 37.5744C93.6817 40.1955 93.7233 40.6947 93.8897 41.7764L93.8897 41.9428L87.1499 41.9428L87.1499 41.7764C87.3995 40.6947 87.4411 40.1955 87.4411 37.5744L87.4411 14.5674L75.792 14.5674L75.792 37.5744C75.792 40.1955 75.8336 40.6947 76.0832 41.7764L76.0832 41.9428L69.3434 41.9428L69.3434 41.7764C69.5098 40.6947 69.5514 40.1955 69.5514 37.5744L69.5514 17.1885C69.5514 14.5674 69.5098 14.0682 69.3433 12.9865L69.3433 12.8201ZM100.138 12.8201L118.361 12.8201L118.361 14.9835L118.195 14.9835C117.113 14.5674 116.489 14.5674 114.409 14.5674L106.587 14.5674L106.587 21.6817L115.116 21.6817L115.116 23.4291L106.587 23.4291L106.587 40.1955L115.948 40.1955C118.153 40.1955 118.652 40.1539 119.734 39.9042L119.9 39.9042L119.9 41.9428L100.138 41.9428L100.138 41.7764C100.305 40.6947 100.346 40.1955 100.346 37.5744L100.346 17.1885C100.346 14.5674 100.305 14.0682 100.138 12.9865L100.138 12.8201ZM135.249 12.8201C142.446 12.82 146.981 16.2732 146.981 22.0145C146.981 28.5047 141.073 31.8331 134.874 31.8331C134.126 31.8331 133.335 31.7499 132.586 31.6666L132.586 30.4185L133.127 30.4185C137.579 30.4185 140.741 27.4646 140.741 22.3474C140.741 17.3549 138.328 14.5674 133.876 14.5674L130.922 14.5674L130.922 37.5744C130.922 40.1955 130.964 40.6947 131.13 41.7764L131.13 41.9428L124.473 41.9428L124.473 41.7764C124.64 40.6947 124.681 40.1955 124.681 37.5744L124.681 17.1885C124.681 14.5674 124.64 14.0682 124.473 12.9865L124.473 12.8201L135.249 12.8201ZM150.718 12.82L167.152 12.82L167.152 14.8586L166.985 14.8586C165.904 14.609 165.404 14.5674 163.199 14.5674L157.167 14.5674L157.167 37.5744C157.167 40.1955 157.208 40.6947 157.458 41.7764L157.458 41.9428L150.718 41.9428L150.718 41.7764C150.885 40.6947 150.926 40.1955 150.926 37.5744L150.926 17.1885C150.926 14.5674 150.885 14.0682 150.718 12.9865L150.718 12.82ZM172.372 12.82L190.594 12.82L190.594 14.9834L190.428 14.9834C189.346 14.5674 188.722 14.5674 186.642 14.5674L178.82 14.5674L178.82 21.6817L187.349 21.6817L187.349 23.429L178.82 23.429L178.82 40.1954L188.181 40.1954C190.386 40.1954 190.885 40.1538 191.967 39.9042L192.134 39.9042L192.134 41.9428L172.372 41.9428L172.372 41.7764C172.538 40.6947 172.58 40.1954 172.58 37.5744L172.58 17.1885C172.58 14.5674 172.538 14.0682 172.372 12.9865L172.372 12.82ZM207.482 12.82C214.68 12.82 219.214 16.2732 219.214 22.0145C219.214 28.5047 213.307 31.833 207.108 31.833C206.359 31.833 205.568 31.7498 204.819 31.6666L204.819 30.4185L205.36 30.4185C209.812 30.4185 212.974 27.4646 212.974 22.3473C212.974 17.3549 210.561 14.5674 206.109 14.5674L203.155 14.5674L203.155 37.5744C203.155 40.1954 203.197 40.6947 203.363 41.7764L203.363 41.9428L196.707 41.9428L196.707 41.7764C196.873 40.6947 196.915 40.1954 196.915 37.5744L196.915 17.1884C196.915 14.5674 196.873 14.0682 196.707 12.9864L196.707 12.82L207.482 12.82ZM237.305 42.6085C228.734 42.6085 221.911 35.7854 221.911 27.215C221.911 18.6446 228.734 11.8215 237.305 11.8215C245.875 11.8215 252.698 18.6446 252.698 27.215C252.698 35.7854 245.875 42.6085 237.305 42.6085ZM228.818 27.8391C228.818 35.5358 232.229 40.8611 237.138 40.8611C243.171 40.8611 246.291 33.5388 246.291 26.5077C246.291 18.9358 242.838 13.5689 237.887 13.5689C231.938 13.5689 228.818 20.8496 228.818 27.8391ZM258.015 12.82L264.755 12.82L264.755 12.9864C264.506 14.0681 264.464 14.5674 264.464 17.1884L264.464 33.2892L282.354 12.82L283.685 12.82C283.352 14.0681 283.352 14.6922 283.352 21.1408L283.352 37.5744C283.352 40.1954 283.394 40.6947 283.56 41.7764L283.56 41.9428L276.82 41.9428L276.82 41.7764C277.07 40.6947 277.112 40.1954 277.112 37.5744L277.112 21.4736L259.222 41.9428L257.891 41.9428C258.223 40.6947 258.223 40.0706 258.223 37.9904L258.223 17.1884C258.223 14.5674 258.182 14.0681 258.015 12.9864L258.015 12.82ZM264.797 3.99997L267.792 3.99997L267.792 4.04157C267.792 4.99846 268.084 5.74733 268.5 6.37139C269.124 7.24508 270.164 7.74432 271.453 7.74432C273.575 7.74432 274.948 6.37139 275.115 3.99996L278.11 3.99996C277.985 7.20347 275.364 9.49169 271.453 9.49169C267.543 9.49169 264.922 7.20347 264.797 3.99997Z" fill="#F6F1FF"/>
<path opacity="0.5" d="M66.8185 75.823C64.6671 75.823 62.9381 74.6167 62.3248 72.6564L63.7322 72.2342C64.2148 73.6717 65.4111 74.4257 66.7983 74.3955C68.7285 74.3553 69.9047 73.0585 69.9047 71.1183C69.9047 69.1479 68.6481 67.8411 66.7782 67.8411C66.2555 67.8411 65.6423 68.0019 65.1497 68.2432L64.4058 67.067L69.3719 62.4729L62.8978 62.4729L62.8978 61.0554L71.2618 61.0554L71.2618 62.493L67.0296 66.5443C69.6533 66.5242 71.4327 68.4141 71.4327 71.1183C71.4327 73.9029 69.4825 75.823 66.8185 75.823ZM79.5702 75.8331C76.8861 75.8331 74.8453 73.7923 74.8453 71.1082L74.8453 65.4787C74.8453 62.7946 76.886 60.7538 79.5702 60.7538C82.2543 60.7538 84.295 62.7945 84.295 65.4787L84.295 71.1082C84.295 73.7923 82.2543 75.8331 79.5702 75.8331ZM79.5702 74.4056C81.3495 74.4056 82.7971 72.958 82.7971 71.1786L82.7971 65.4083C82.7971 63.6189 81.3495 62.1713 79.5702 62.1713C77.7908 62.1713 76.3432 63.6189 76.3432 65.4083L76.3432 71.1786C76.3432 72.958 77.7908 74.4056 79.5702 74.4056ZM92.6459 75.8331C89.9618 75.8331 87.9211 73.7923 87.9211 71.1082L87.9211 65.4787C87.9211 62.7945 89.9618 60.7538 92.6459 60.7538C95.33 60.7538 97.3707 62.7945 97.3707 65.4787L97.3707 71.1082C97.3707 73.7923 95.33 75.8331 92.6459 75.8331ZM92.6459 74.4056C94.4253 74.4056 95.8729 72.958 95.8729 71.1786L95.8729 65.4083C95.8729 63.6189 94.4253 62.1713 92.6459 62.1713C90.8666 62.1713 89.4189 63.6189 89.4189 65.4083L89.4189 71.1786C89.4189 72.958 90.8666 74.4056 92.6459 74.4056ZM103.812 67.9919C101.821 67.9919 100.193 66.3834 100.193 64.3728C100.193 62.4025 101.881 60.7538 103.812 60.7538C105.802 60.7538 107.431 62.3623 107.431 64.3728C107.431 66.3834 105.802 67.9919 103.812 67.9919ZM103.812 66.6548C105.048 66.6548 106.094 65.6093 106.094 64.3728C106.094 63.1363 105.048 62.0908 103.812 62.0908C102.575 62.0908 101.53 63.1363 101.53 64.3728C101.53 65.6093 102.575 66.6548 103.812 66.6548ZM115.577 75.8331C112.893 75.8331 110.853 73.7923 110.853 71.1082L110.853 65.4786C110.853 62.7945 112.893 60.7538 115.577 60.7538C118.261 60.7538 120.302 62.7945 120.302 65.4786L120.302 71.1082C120.302 73.7923 118.261 75.8331 115.577 75.8331ZM115.577 74.4056C117.357 74.4056 118.804 72.9579 118.804 71.1786L118.804 65.4083C118.804 63.6189 117.357 62.1713 115.577 62.1713C113.798 62.1713 112.35 63.6189 112.35 65.4083L112.35 71.1786C112.35 72.958 113.798 74.4056 115.577 74.4056ZM128.653 75.8331C125.969 75.8331 123.928 73.7923 123.928 71.1082L123.928 65.4786C123.928 62.7945 125.969 60.7538 128.653 60.7538C131.337 60.7538 133.378 62.7945 133.378 65.4786L133.378 71.1082C133.378 73.7923 131.337 75.8331 128.653 75.8331ZM128.653 74.4056C130.432 74.4056 131.88 72.9579 131.88 71.1786L131.88 65.4083C131.88 63.6189 130.432 62.1713 128.653 62.1713C126.874 62.1713 125.426 63.6189 125.426 65.4083L125.426 71.1786C125.426 72.9579 126.874 74.4056 128.653 74.4056ZM137.869 60.9247L139.356 60.9247L137.949 65.7501L136.934 65.7501L137.869 60.9247ZM140.422 60.9247L141.91 60.9247L140.502 65.7501L139.487 65.7501L140.422 60.9247ZM149.917 69.8315L149.917 68.5649L158.362 68.5648L158.362 69.8315L149.917 69.8315ZM171.505 75.833C168.781 75.833 166.61 73.6616 166.61 70.8368L166.61 65.8204C166.61 62.9152 168.751 60.7638 171.616 60.7638C173.265 60.7638 174.742 61.5279 175.647 62.8247L174.511 63.7596C173.898 62.8046 172.812 62.1712 171.616 62.1712C169.575 62.1712 168.107 63.8199 168.107 65.6897L168.107 67.9114C168.962 66.8659 170.229 66.2024 171.646 66.2024C174.33 66.2024 176.411 68.3135 176.411 70.9976C176.411 73.6717 174.189 75.833 171.505 75.833ZM171.505 74.3955C173.395 74.3955 174.923 72.8876 174.923 70.9976C174.923 69.1077 173.405 67.5797 171.515 67.5797C169.625 67.5797 168.107 69.1077 168.107 70.9976C168.107 72.8675 169.615 74.3955 171.505 74.3955ZM184.607 75.833C181.922 75.833 179.882 73.7923 179.882 71.1082L179.882 65.4786C179.882 62.7945 181.922 60.7538 184.607 60.7538C187.291 60.7538 189.331 62.7945 189.331 65.4786L189.331 71.1082C189.331 73.7923 187.291 75.833 184.607 75.833ZM184.607 74.4055C186.386 74.4055 187.834 72.9579 187.834 71.1786L187.833 65.4082C187.833 63.6188 186.386 62.1712 184.607 62.1712C182.827 62.1712 181.38 63.6188 181.38 65.4083L181.38 71.1786C181.38 72.9579 182.827 74.4055 184.607 74.4055ZM195.772 67.9918C193.782 67.9918 192.153 66.3834 192.153 64.3728C192.153 62.4025 193.842 60.7538 195.772 60.7538C197.763 60.7538 199.391 62.3622 199.391 64.3728C199.391 66.3834 197.763 67.9918 195.772 67.9918ZM195.772 66.6548C197.009 66.6548 198.054 65.6093 198.054 64.3728C198.054 63.1363 197.009 62.0908 195.772 62.0908C194.536 62.0908 193.49 63.1363 193.49 64.3728C193.49 65.6093 194.536 66.6548 195.772 66.6548ZM207.538 75.833C204.854 75.833 202.813 73.7923 202.813 71.1082L202.813 65.4786C202.813 62.7945 204.854 60.7538 207.538 60.7538C210.222 60.7538 212.263 62.7945 212.263 65.4786L212.263 71.1082C212.263 73.7923 210.222 75.833 207.538 75.833ZM207.538 74.4055C209.317 74.4055 210.765 72.9579 210.765 71.1786L210.765 65.4082C210.765 63.6188 209.317 62.1712 207.538 62.1712C205.759 62.1712 204.311 63.6188 204.311 65.4082L204.311 71.1786C204.311 72.9579 205.759 74.4055 207.538 74.4055ZM220.614 75.833C217.93 75.833 215.889 73.7923 215.889 71.1082L215.889 65.4786C215.889 62.7945 217.93 60.7538 220.614 60.7538C223.298 60.7538 225.339 62.7945 225.339 65.4786L225.339 71.1082C225.339 73.7923 223.298 75.833 220.614 75.833ZM220.614 74.4055C222.393 74.4055 223.841 72.9579 223.841 71.1786L223.841 65.4082C223.841 63.6188 222.393 62.1712 220.614 62.1712C218.834 62.1712 217.387 63.6188 217.387 65.4082L217.387 71.1786C217.387 72.9579 218.834 74.4055 220.614 74.4055ZM229.829 60.9247L231.317 60.9247L229.91 65.75L228.894 65.75L229.829 60.9247ZM232.383 60.9247L233.87 60.9247L232.463 65.75L231.448 65.75L232.383 60.9247Z" fill="#F6F1FF"/>
<defs>
<filter id="filter0_f_31_314" x="127.598" y="94.2917" width="207.737" height="221.934" filterUnits="userSpaceOnUse" color-interpolation-filters="sRGB">
<feFlood flood-opacity="0" result="BackgroundImageFix"/>
<feBlend mode="normal" in="SourceGraphic" in2="BackgroundImageFix" result="shape"/>
<feGaussianBlur stdDeviation="5" result="effect1_foregroundBlur_31_314"/>
</filter>
<filter id="filter1_f_31_314" x="2.59131" y="0" width="285.094" height="46.6086" filterUnits="userSpaceOnUse" color-interpolation-filters="sRGB">
<feFlood flood-opacity="0" result="BackgroundImageFix"/>
<feBlend mode="normal" in="SourceGraphic" in2="BackgroundImageFix" result="shape"/>
<feGaussianBlur stdDeviation="2" result="effect1_foregroundBlur_31_314"/>
</filter>
</defs>
</svg>
