<svg width="295" height="276" viewBox="0 0 295 276" fill="none" xmlns="http://www.w3.org/2000/svg">
<path opacity="0.2" d="M208.095 20.271C210.278 19.5417 215.953 18.156 221.192 18.4478C226.43 18.7395 227.498 16.3813 227.376 15.1658C228.468 16.8675 229.486 21.292 224.83 25.3762C225.193 27.4426 226.794 32.3776 230.287 35.5866C230.65 35.8297 230.796 36.6805 228.468 38.1392C228.346 39.9624 228.395 43.9737 229.559 45.4323C231.014 47.2556 222.647 47.2556 223.011 50.9021C223.302 53.8194 226.042 57.466 227.376 58.9246C232.469 55.278 244.329 48.5683 251.023 50.9021C251.63 51.6315 252.479 53.6006 251.023 55.6427C254.54 51.3883 263.902 42.9526 273.215 43.2444C273.822 39.8409 276.49 31.94 282.31 27.5641C288.131 23.1882 286.918 19.4201 285.585 18.0831C281.825 16.8675 275.107 12.6132 278.309 5.32008C282.31 -3.79634 293.952 0.579542 293.224 5.32008C292.497 10.0606 296.135 13.7072 292.497 34.128C288.859 54.5487 288.495 52.7254 287.04 53.8194C285.585 54.9134 273.579 61.4772 270.305 66.5824C267.031 71.6876 253.934 76.4281 252.842 78.2514C251.751 80.0747 245.566 95.3903 239.382 102.683C233.197 109.977 234.288 135.138 236.835 135.867C239.382 136.596 284.493 165.404 286.312 179.991C288.131 194.577 270.305 191.295 259.755 198.953C249.204 206.61 234.652 207.34 231.742 210.986C228.831 214.633 221.555 230.313 220.828 236.877C220.1 243.441 207.367 232.136 213.552 214.998C212.339 212.567 210.205 206.538 211.369 201.87C212.824 196.035 220.828 202.235 227.012 198.953C231.96 196.327 245.081 183.272 251.023 177.073C242.05 173.67 223.447 166.644 220.828 165.769C217.554 164.675 210.641 166.134 206.276 172.697C201.91 179.261 186.63 197.129 181.901 201.87C177.172 206.61 179.718 209.163 177.535 213.174C175.353 217.186 164.439 235.418 161.164 238.7C157.89 241.982 153.161 251.463 152.433 255.474C151.705 259.486 150.978 270.061 144.793 273.343C138.609 276.625 129.514 276.625 129.877 273.343C130.241 270.061 141.155 254.016 142.974 248.181C144.793 242.347 152.433 209.892 160.437 200.776C168.44 191.66 169.896 182.543 172.442 176.709C174.989 170.874 182.265 151.183 188.086 143.525C193.906 135.867 197.908 111.435 189.177 101.589C182.458 94.0127 181.26 90.5525 181.502 89.6509C180.469 92.3783 176.266 98.6469 167.349 102.683C167.591 106.573 168.95 115.009 172.442 117.634C173.048 115.689 175.862 112.237 182.265 113.988C190.268 116.176 188.086 128.574 179.354 129.303C170.623 130.033 146.976 112.164 150.614 101.589C154.252 91.0144 154.616 95.7549 158.981 88.0971C163.347 80.4393 167.349 80.804 167.349 80.0747C167.349 79.3454 170.623 58.9246 192.815 59.6539C187.358 57.466 174.334 56.0074 165.894 67.6764C155.343 82.2626 157.526 78.9807 151.705 84.8152C145.885 90.6497 136.79 104.507 151.705 119.458C166.621 134.409 175.204 137.69 184.084 134.409C180.688 143.525 172.442 162.998 166.621 167.957C159.345 174.156 128.422 194.577 124.056 204.787C119.691 214.998 109.868 231.772 110.232 237.242C106.109 231.286 99.609 214.706 106.594 196.035C113.579 177.365 95.1949 160.056 85.1297 153.735C94.7098 151.669 114.161 146.88 115.325 144.254C116.78 140.972 95.3161 142.431 78.5813 150.453C61.8464 158.476 38.563 127.48 46.5667 117.27C52.9696 109.101 70.5776 106.087 78.5813 105.601C68.8798 104.628 49.186 102.246 48.0219 100.495C46.5667 98.3075 34.925 64.0298 0 68.7703C4.48689 62.6927 22.1514 46.3208 49.4771 56.7367C75.307 66.5824 88.0401 72.7816 111.323 75.6988C134.607 78.6161 165.53 53.4548 176.808 52.7254C188.086 51.9961 196.089 54.5487 200.455 57.1013C202.395 55.6427 205.621 51.2668 203.001 45.4323C199.727 38.1392 193.179 25.3763 208.095 20.271Z" fill="white"/>
<path d="M181.846 168.702L184.311 188.117L203.536 191.773L185.834 200.116L188.298 219.53L174.893 205.272L157.19 213.615L166.608 196.46L153.203 182.202L172.429 185.857L181.846 168.702Z" fill="white"/>
<path d="M211.85 71.4663L220.601 77.779L229.308 71.4075L226.009 81.6804L234.759 87.993L223.97 88.0293L220.67 98.3022L217.301 88.0518L206.511 88.0881L215.219 81.7167L211.85 71.4663Z" fill="white"/>
<path d="M104.819 108.345L111.191 112.942L117.532 108.303L115.129 115.784L121.501 120.38L113.644 120.407L111.241 127.888L108.788 120.423L100.931 120.45L107.272 115.81L104.819 108.345Z" fill="white"/>
<circle cx="234.849" cy="108.078" r="3.79039" fill="white"/>
<path d="M116.946 95.5028C117.542 95.9296 118.2 96.2746 118.905 96.5204L110.577 116.414L178.464 192.598L231.047 115.253C231.729 115.583 232.468 115.817 233.244 115.935L179.491 195.002L178.698 196.168L177.76 195.115L108.473 117.362L108.012 116.845L108.28 116.205L116.946 95.5028ZM221.829 80.8612L233.47 100.552C232.697 100.646 231.959 100.855 231.273 101.16L220.282 82.5682L129.225 89.2518C129.226 89.2304 129.227 89.2089 129.227 89.1874C129.227 88.4522 129.123 87.7413 128.932 87.0673L220.802 80.3231L221.482 80.2733L221.829 80.8612Z" fill="white"/>
<circle cx="121.887" cy="89.0067" r="3.79039" fill="white"/>
<path d="M40.7322 13.2792L40.7322 16.7057L40.1611 16.7057C39.739 13.4033 37.256 11.4666 34.7233 11.4666C31.7189 11.4666 28.64 14.0489 28.64 19.9833C28.64 25.3714 31.4209 27.7551 34.3012 27.7551C36.7842 27.7551 39.3417 25.8928 40.1611 22.6897L40.7322 22.6897L40.7322 25.9425C39.0437 27.6061 36.5856 28.7979 33.8046 28.7979C28.6896 28.7979 24.6672 24.7258 24.6672 19.6108C24.6671 14.4958 28.6896 10.4237 33.8046 10.4237C36.6104 10.4237 39.0685 11.6155 40.7322 13.2792ZM42.5835 11.0196L47.4254 11.0196L47.4254 11.0693C47.5495 11.5162 48.1455 12.2363 48.9897 13.4033L53.9805 20.4054L58.2513 13.4033C58.9713 12.2363 59.4679 11.5162 59.5424 11.0693L59.5424 11.0196L61.0074 11.0196L61.0074 11.1189C60.5605 11.5907 60.2128 12.1866 59.4928 13.3785L52.8632 24.2788C50.8271 27.6061 49.3125 28.7731 47.4751 28.7731C45.3893 28.7731 43.9244 27.3826 43.9244 25.421C43.9244 23.4595 45.5135 22.218 47.2019 22.218C48.0461 22.218 48.94 22.5407 49.6849 23.1367L49.4615 23.5339C49.0145 23.236 48.5427 23.1367 48.1206 23.1367C46.904 23.1367 46.308 24.0305 46.3081 24.9493C46.3081 25.9176 46.9785 26.9357 48.3193 26.9357C49.1883 26.9357 50.3553 26.3646 51.3982 24.6513L51.9941 23.6581L44.3465 13.3785C43.4774 12.2115 43.0801 11.5907 42.5835 11.1189L42.5835 11.0196ZM62.1187 11.0196L76.7684 11.0196L76.7684 11.1189C76.6691 11.7645 76.6443 12.0625 76.6443 13.6268L76.6443 25.7935C76.6443 27.3578 76.6691 27.6557 76.7684 28.3013L76.7684 28.4006L72.746 28.4006L72.746 28.3013C72.895 27.6557 72.9198 27.3578 72.9198 25.7935L72.9198 12.0625L65.9674 12.0625L65.9674 25.7935C65.9674 27.3578 65.9922 27.6557 66.1412 28.3013L66.1412 28.4006L62.1187 28.4006L62.1187 28.3013C62.2181 27.6557 62.2429 27.3578 62.2429 25.7935L62.2429 13.6268C62.2429 12.0625 62.2181 11.7645 62.1187 11.1189L62.1187 11.0196ZM80.4978 11.0196L91.3733 11.0196L91.3733 12.3108L91.274 12.3108C90.6284 12.0625 90.256 12.0625 89.0145 12.0625L84.3464 12.0625L84.3464 16.3084L89.4366 16.3084L89.4366 17.3513L84.3464 17.3513L84.3464 27.3578L89.9332 27.3578C91.2492 27.3578 91.5471 27.3329 92.1927 27.1839L92.292 27.1839L92.292 28.4006L80.4978 28.4006L80.4978 28.3013C80.5971 27.6557 80.6219 27.3578 80.6219 25.7935L80.6219 13.6268C80.6219 12.0625 80.5971 11.7645 80.4978 11.1189L80.4978 11.0196ZM101.452 11.0196C105.748 11.0196 108.454 13.0805 108.454 16.507C108.454 20.3805 104.929 22.3669 101.229 22.3669C100.782 22.3669 100.31 22.3173 99.8633 22.2676L99.8632 21.5227L100.186 21.5227C102.843 21.5227 104.73 19.7598 104.73 16.7057C104.73 13.7261 103.29 12.0625 100.633 12.0625L98.87 12.0625L98.8701 25.7935C98.8701 27.3577 98.8949 27.6557 98.9942 28.3013L98.9942 28.4006L95.0214 28.4006L95.0214 28.3013C95.1207 27.6557 95.1456 27.3578 95.1456 25.7935L95.1455 13.6268C95.1455 12.0625 95.1207 11.7645 95.0214 11.1189L95.0214 11.0196L101.452 11.0196ZM110.685 11.0196L120.493 11.0196L120.493 12.2363L120.393 12.2363C119.748 12.0873 119.45 12.0625 118.134 12.0625L114.533 12.0625L114.533 25.7935C114.533 27.3577 114.558 27.6557 114.707 28.3013L114.707 28.4006L110.685 28.4006L110.685 28.3013C110.784 27.6557 110.809 27.3577 110.809 25.7935L110.809 13.6268C110.809 12.0625 110.784 11.7645 110.685 11.1189L110.685 11.0196ZM123.608 11.0196L134.483 11.0196L134.483 12.3108L134.384 12.3108C133.739 12.0625 133.366 12.0625 132.125 12.0625L127.457 12.0625L127.457 16.3084L132.547 16.3084L132.547 17.3512L127.457 17.3512L127.457 27.3577L133.043 27.3577C134.359 27.3577 134.657 27.3329 135.303 27.1839L135.402 27.1839L135.402 28.4006L123.608 28.4006L123.608 28.3013C123.707 27.6557 123.732 27.3577 123.732 25.7935L123.732 13.6268C123.732 12.0625 123.707 11.7645 123.608 11.1189L123.608 11.0196ZM144.562 11.0196C148.858 11.0196 151.565 13.0805 151.565 16.507C151.565 20.3805 148.039 22.3669 144.339 22.3669C143.892 22.3669 143.42 22.3172 142.973 22.2676L142.973 21.5227L143.296 21.5227C145.953 21.5227 147.84 19.7598 147.84 16.7057C147.84 13.7261 146.4 12.0625 143.743 12.0625L141.98 12.0625L141.98 25.7934C141.98 27.3577 142.005 27.6557 142.104 28.3013L142.104 28.4006L138.132 28.4006L138.132 28.3013C138.231 27.6557 138.256 27.3577 138.256 25.7934L138.256 13.6267C138.256 12.0625 138.231 11.7645 138.132 11.1189L138.132 11.0196L144.562 11.0196ZM162.361 28.7979C157.246 28.7979 153.174 24.7258 153.174 19.6108C153.174 14.4958 157.246 10.4237 162.361 10.4237C167.476 10.4237 171.548 14.4958 171.548 19.6108C171.548 24.7257 167.476 28.7979 162.361 28.7979ZM157.296 19.9832C157.296 24.5768 159.332 27.755 162.262 27.755C165.862 27.755 167.724 23.3849 167.724 19.1887C167.724 14.6696 165.664 11.4665 162.709 11.4665C159.158 11.4665 157.296 15.8118 157.296 19.9832ZM174.722 11.0196L178.744 11.0196L178.744 11.1189C178.595 11.7645 178.57 12.0624 178.57 13.6267L178.57 23.2359L189.247 11.0196L190.042 11.0196C189.843 11.7645 189.843 12.1369 189.843 15.9856L189.843 25.7934C189.843 27.3577 189.868 27.6557 189.967 28.3013L189.967 28.4006L185.945 28.4006L185.945 28.3013C186.094 27.6557 186.119 27.3577 186.119 25.7934L186.119 16.1842L175.442 28.4006L174.647 28.4006C174.846 27.6557 174.846 27.2832 174.846 26.0417L174.846 13.6267C174.846 12.0624 174.821 11.7645 174.722 11.1189L174.722 11.0196ZM178.769 5.75562L180.557 5.75562L180.557 5.78045C180.557 6.35154 180.73 6.79848 180.979 7.17093C181.351 7.69236 181.972 7.99032 182.742 7.99032C184.008 7.99032 184.827 7.17093 184.927 5.75562L186.715 5.75562C186.64 7.66753 185.076 9.03318 182.742 9.03318C180.408 9.03318 178.843 7.66753 178.769 5.75562Z" fill="#F6F1FF"/>
<path opacity="0.5" d="M60.3298 49.2157C59.0458 49.2157 58.0138 48.4957 57.6478 47.3257L58.4878 47.0737C58.7758 47.9317 59.4898 48.3817 60.3178 48.3637C61.4698 48.3397 62.1718 47.5657 62.1718 46.4077C62.1718 45.2317 61.4218 44.4517 60.3058 44.4517C59.9938 44.4517 59.6278 44.5477 59.3338 44.6917L58.8898 43.9897L61.8538 41.2477L57.9898 41.2477L57.9898 40.4017L62.9818 40.4017L62.9818 41.2597L60.4558 43.6777C62.0218 43.6657 63.0838 44.7937 63.0838 46.4077C63.0838 48.0697 61.9198 49.2157 60.3298 49.2157ZM67.9406 49.2217C66.3386 49.2217 65.1206 48.0037 65.1206 46.4017L65.1206 43.0417C65.1206 41.4397 66.3386 40.2217 67.9406 40.2217C69.5426 40.2217 70.7606 41.4397 70.7606 43.0417L70.7606 46.4017C70.7606 48.0037 69.5426 49.2217 67.9406 49.2217ZM67.9406 48.3697C69.0026 48.3697 69.8666 47.5057 69.8666 46.4437L69.8666 42.9997C69.8666 41.9317 69.0026 41.0677 67.9406 41.0677C66.8786 41.0677 66.0146 41.9317 66.0146 42.9997L66.0146 46.4437C66.0146 47.5057 66.8786 48.3697 67.9406 48.3697ZM75.7449 49.2217C74.1429 49.2217 72.9249 48.0037 72.9249 46.4017L72.9249 43.0417C72.9249 41.4397 74.1429 40.2217 75.7449 40.2217C77.3469 40.2217 78.5649 41.4397 78.5649 43.0417L78.5649 46.4017C78.5649 48.0037 77.3469 49.2217 75.7449 49.2217ZM75.7449 48.3697C76.8069 48.3697 77.6709 47.5057 77.6709 46.4437L77.6709 42.9997C77.6709 41.9317 76.8069 41.0677 75.7449 41.0677C74.6829 41.0677 73.8189 41.9317 73.8189 42.9997L73.8189 46.4437C73.8189 47.5057 74.6829 48.3697 75.7449 48.3697ZM82.4091 44.5417C81.2211 44.5417 80.2491 43.5817 80.2491 42.3817C80.2491 41.2057 81.2571 40.2217 82.4091 40.2217C83.5971 40.2217 84.5691 41.1817 84.5691 42.3817C84.5691 43.5817 83.5971 44.5417 82.4091 44.5417ZM82.4091 43.7437C83.1471 43.7437 83.7711 43.1197 83.7711 42.3817C83.7711 41.6437 83.1471 41.0197 82.4091 41.0197C81.6711 41.0197 81.0471 41.6437 81.0471 42.3817C81.0471 43.1197 81.6711 43.7437 82.4091 43.7437ZM89.4314 49.2217C87.8294 49.2217 86.6114 48.0037 86.6114 46.4017L86.6114 43.0417C86.6114 41.4397 87.8294 40.2217 89.4314 40.2217C91.0334 40.2217 92.2514 41.4397 92.2514 43.0417L92.2514 46.4017C92.2514 48.0037 91.0334 49.2217 89.4314 49.2217ZM89.4314 48.3697C90.4934 48.3697 91.3574 47.5057 91.3574 46.4437L91.3574 42.9997C91.3574 41.9317 90.4934 41.0677 89.4314 41.0677C88.3694 41.0677 87.5054 41.9317 87.5054 42.9997L87.5054 46.4437C87.5054 47.5057 88.3694 48.3697 89.4314 48.3697ZM97.2356 49.2217C95.6336 49.2217 94.4156 48.0037 94.4156 46.4017L94.4156 43.0417C94.4156 41.4397 95.6336 40.2217 97.2356 40.2217C98.8376 40.2217 100.056 41.4397 100.056 43.0417L100.056 46.4017C100.056 48.0037 98.8376 49.2217 97.2356 49.2217ZM97.2356 48.3697C98.2976 48.3697 99.1616 47.5057 99.1616 46.4437L99.1616 42.9997C99.1616 41.9317 98.2976 41.0677 97.2356 41.0677C96.1736 41.0677 95.3096 41.9317 95.3096 42.9997L95.3096 46.4437C95.3096 47.5057 96.1736 48.3697 97.2356 48.3697ZM102.736 40.3237L103.624 40.3237L102.784 43.2037L102.178 43.2037L102.736 40.3237ZM104.26 40.3237L105.148 40.3237L104.308 43.2037L103.702 43.2037L104.26 40.3237ZM109.927 45.6397L109.927 44.8837L114.967 44.8837L114.967 45.6397L109.927 45.6397ZM122.812 49.2217C121.186 49.2217 119.89 47.9257 119.89 46.2397L119.89 43.2457C119.89 41.5117 121.168 40.2277 122.878 40.2277C123.862 40.2277 124.744 40.6837 125.284 41.4577L124.606 42.0157C124.24 41.4457 123.592 41.0677 122.878 41.0677C121.66 41.0677 120.784 42.0517 120.784 43.1677L120.784 44.4937C121.294 43.8697 122.05 43.4737 122.896 43.4737C124.498 43.4737 125.74 44.7337 125.74 46.3357C125.74 47.9317 124.414 49.2217 122.812 49.2217ZM122.812 48.3637C123.94 48.3637 124.852 47.4637 124.852 46.3357C124.852 45.2077 123.946 44.2957 122.818 44.2957C121.69 44.2957 120.784 45.2077 120.784 46.3357C120.784 47.4517 121.684 48.3637 122.812 48.3637ZM130.631 49.2217C129.029 49.2217 127.811 48.0037 127.811 46.4017L127.811 43.0417C127.811 41.4397 129.029 40.2217 130.631 40.2217C132.233 40.2217 133.451 41.4397 133.451 43.0417L133.451 46.4017C133.451 48.0037 132.233 49.2217 130.631 49.2217ZM130.631 48.3697C131.693 48.3697 132.557 47.5057 132.557 46.4437L132.557 42.9997C132.557 41.9317 131.693 41.0677 130.631 41.0677C129.569 41.0677 128.705 41.9317 128.705 42.9997L128.705 46.4437C128.705 47.5057 129.569 48.3697 130.631 48.3697ZM137.295 44.5417C136.107 44.5417 135.135 43.5817 135.135 42.3817C135.135 41.2057 136.143 40.2217 137.295 40.2217C138.483 40.2217 139.455 41.1817 139.455 42.3817C139.455 43.5817 138.483 44.5417 137.295 44.5417ZM137.295 43.7437C138.033 43.7437 138.657 43.1197 138.657 42.3817C138.657 41.6437 138.033 41.0197 137.295 41.0197C136.557 41.0197 135.933 41.6437 135.933 42.3817C135.933 43.1197 136.557 43.7437 137.295 43.7437ZM144.318 49.2217C142.716 49.2217 141.498 48.0037 141.498 46.4017L141.498 43.0417C141.498 41.4397 142.716 40.2217 144.318 40.2217C145.92 40.2217 147.138 41.4397 147.138 43.0417L147.138 46.4017C147.138 48.0037 145.92 49.2217 144.318 49.2217ZM144.318 48.3697C145.38 48.3697 146.244 47.5057 146.244 46.4437L146.244 42.9997C146.244 41.9317 145.38 41.0677 144.318 41.0677C143.256 41.0677 142.392 41.9317 142.392 42.9997L142.392 46.4437C142.392 47.5057 143.256 48.3697 144.318 48.3697ZM152.122 49.2217C150.52 49.2217 149.302 48.0037 149.302 46.4017L149.302 43.0417C149.302 41.4397 150.52 40.2217 152.122 40.2217C153.724 40.2217 154.942 41.4397 154.942 43.0417L154.942 46.4017C154.942 48.0037 153.724 49.2217 152.122 49.2217ZM152.122 48.3697C153.184 48.3697 154.048 47.5057 154.048 46.4437L154.048 42.9997C154.048 41.9317 153.184 41.0677 152.122 41.0677C151.06 41.0677 150.196 41.9317 150.196 42.9997L150.196 46.4437C150.196 47.5057 151.06 48.3697 152.122 48.3697ZM157.622 40.3237L158.51 40.3237L157.67 43.2037L157.064 43.2037L157.622 40.3237ZM159.146 40.3237L160.034 40.3237L159.194 43.2037L158.588 43.2037L159.146 40.3237Z" fill="#F6F1FF"/>
</svg>
