<svg width="70" height="115" viewBox="0 0 70 115" fill="none" xmlns="http://www.w3.org/2000/svg">
<g opacity="0.1">
<path d="M24.4181 48.9627C22.6255 34.0692 20.489 19.2239 18.1812 4.41089C3.49988 11.8505 -1.19318 5.83552 3.35824 21.0479C6.9798 38.3286 9.32853 55.8425 10.6406 73.4517C11.8732 77.6526 10.3121 99.4752 13.9607 98.642C21.1636 100.643 26.615 109.492 30.4747 113.211C28.8834 91.7526 26.9622 70.3166 24.4181 48.9627Z" fill="white"/>
<path d="M51.7797 41.1121C45.7943 45.4042 37.6843 41.4789 33.0421 36.9194C30.473 33.4305 31.8816 32.8695 27.6095 30.3502C26.2752 23.9601 27.8181 15.7456 32.6265 10.9229C36.0911 7.99919 40.4556 4.30414 45.1155 6.43934C53.7001 7.85692 58.8884 12.4906 58.9739 0.42774C46.1748 2.26 30.2996 1.58743 19.0179 4.67399C19.6263 8.58384 20.2422 12.4847 20.8259 16.3968C23.7528 36.0479 26.2384 55.7727 28.0741 75.5573C35.0988 123.986 19.8259 114.704 55.8043 104.825C54.2054 94.9249 56.5625 95.1147 51.6557 103.107C48.0345 105.772 42.4194 108.769 38.3111 105.504C36.3549 103.809 34.5456 101.727 33.4751 99.378C32.5865 98.6467 31.0282 98.3917 30.9274 97.115C30.0339 89.473 35.5756 79.9036 43.7695 79.5982C46.7606 80.2773 51.2253 80.1986 53.3784 82.0499C49.2858 82.3848 44.1867 78.7219 40.0439 81.2184C36.8201 83.3318 33.7704 86.1676 32.496 89.9021C30.6789 94.7733 31.5211 101.317 38.1391 98.2191C43.5724 94.5087 47.1771 88.8675 51.3922 83.9997C52.4702 83.3613 53.5683 82.6713 54.6874 82.1204C54.2324 79.6981 55.1312 74.314 53.9842 73.2994C47.8405 79.2986 35.3035 79.2898 34.1335 69.0017C26.9053 67.8991 30.1736 59.5011 31.8511 54.9164C33.7698 50.6083 37.6165 47.5085 41.7679 45.4674C45.4994 45.9872 49.245 48.5549 53.3734 48.0675C56.5313 48.7561 54.7474 41.5361 55.5426 39.3557C56.2832 35.1393 53.568 40.1678 51.7797 41.1121Z" fill="white"/>
<path d="M42.2423 6.49603C35.9552 7.5968 30.2626 12.9986 28.8629 19.3415C28.5646 23.1356 25.8082 29.6115 30.4767 31.3891C41.6316 30.1726 46.2287 15.5628 55.2195 9.75812C55.6432 9.40389 56.0888 9.19699 55.2369 9.22554C50.8337 8.70947 46.5176 7.6959 42.2423 6.49603Z" fill="white"/>
<path d="M54.4245 56.3335C49.9649 51.8651 47.1818 60.7578 43.971 63.2848C42.0923 65.681 39.5378 67.766 36.7382 68.5379C40.6403 83.7269 62.967 69.2043 54.4245 56.3335Z" fill="white"/>
<path d="M50.416 88.1794C45.8107 90.4281 43.3403 98.5702 37.4744 99.8314C38.4387 107.251 48.0596 106.134 51.7356 101.449C54.6522 97.9781 55.6813 89.8607 50.416 88.1794Z" fill="white"/>
<path d="M61.1014 17.514C54.2161 0.649518 46.0451 29.8084 33.9462 31.6759C38.0931 50.7004 67.2412 37.4587 61.1014 17.514Z" fill="white"/>
<path d="M47.4529 48.0975C37.403 42.293 29.9643 56.8572 30.4273 65.5925C38.4067 74.9558 47.1974 54.974 53.0034 50.715C57.372 47.4261 50.0208 49.5871 47.4529 48.0975Z" fill="white"/>
</g>
<path fill-rule="evenodd" clip-rule="evenodd" d="M36.9057 73.0832C36.7152 73.6688 36.349 74.1807 35.8642 74.5506L47.903 79.6423C42.5724 85.5075 33.242 95.7595 32.6696 96.3331L33.9133 97.5743C34.5556 96.9307 44.9475 85.5083 50.037 79.9067L50.8704 78.9894L49.729 78.5067L36.9057 73.0832ZM34.8733 10.5876L33.8067 69.1466C33.7919 69.1477 33.777 69.149 33.7621 69.1504C33.0956 69.2116 32.4999 69.4855 32.0356 69.8987L33.1165 10.5556L34.8733 10.5876Z" fill="white"/>
<circle cx="34.6243" cy="71.7692" r="1.88804" transform="rotate(-5.25333 34.6243 71.7692)" fill="white"/>
<circle cx="31.4769" cy="99.2365" r="1.56126" transform="rotate(-5.25333 31.4769 99.2365)" fill="white"/>
<path d="M33.2833 2.44809L35.4329 7.4508L40.8551 6.95226L36.7615 10.5426L38.9112 15.5454L34.2315 12.7616L30.138 16.352L31.3394 11.0412L26.6597 8.25746L32.0819 7.75892L33.2833 2.44809Z" fill="white"/>
<path d="M46.9466 75.7145L49.3204 78.2587L52.4737 76.7873L50.7875 79.8311L53.1614 82.3754L49.7454 81.7124L48.0593 84.7562L47.6343 81.3026L44.2183 80.6396L47.3716 79.1681L46.9466 75.7145Z" fill="white"/>
</svg>
