<svg width="415" height="318" viewBox="0 0 415 318" fill="none" xmlns="http://www.w3.org/2000/svg">
<g opacity="0.2">
<path d="M285.675 0C295.229 6.21991e-05 303.282 7.1278 304.444 16.6113L318.188 128.855C318.728 133.269 313.227 136.129 309.64 133.5C293.15 121.413 272.806 114.274 250.793 114.274C195.761 114.274 151.149 158.887 151.149 213.919C151.149 215.86 151.205 217.788 151.315 219.702C151.476 222.513 149.294 224.96 146.478 224.96H138.316C138.223 224.96 138.131 224.948 138.041 224.925C137.611 224.812 137.293 224.446 137.235 224.005C132.314 186.993 100.627 158.438 62.2688 158.438C43.2603 158.438 25.8888 165.449 12.6016 177.028C9.9053 179.378 5.54677 178.416 4.5936 174.968C-2.76237 148.366 -4.6386 110.902 25.1272 95.7158C25.7608 95.3926 26.4794 95.2285 27.1907 95.2285H130.533C132.742 95.2285 134.657 93.6985 135.144 91.5437L152.509 14.7393C154.458 6.1202 162.116 0 170.952 0H285.675ZM185.437 20.1494C180.79 20.1495 176.833 23.5266 176.101 28.1152L168.904 73.2441C167.988 78.987 172.424 84.1874 178.24 84.1875H227.814C233.035 84.1873 237.268 79.9539 237.268 74.7324V29.6045C237.268 24.383 233.035 20.1496 227.814 20.1494H185.437ZM252.251 20.1494C248.385 20.1495 245.251 23.2836 245.251 27.1494V77.1875C245.251 81.0534 248.385 84.1874 252.251 84.1875H278.726C283.032 84.1875 286.317 80.337 285.639 76.085L277.658 26.0469C277.116 22.6497 274.186 20.1495 270.746 20.1494H252.251Z" fill="white"/>
<path d="M62.2683 175.094C94.8384 175.094 121.242 201.498 121.242 234.068C121.242 266.638 94.8385 293.042 62.2683 293.042C29.6982 293.041 3.29468 266.638 3.29468 234.068C3.29485 201.498 29.6983 175.095 62.2683 175.094ZM62.2683 214.195C51.2927 214.195 42.3955 223.092 42.3953 234.068C42.3953 245.044 51.2925 253.942 62.2683 253.942C73.2443 253.942 82.1423 245.044 82.1423 234.068C82.1421 223.092 73.2441 214.195 62.2683 214.195Z" fill="white"/>
<path d="M250.793 129.838C297.23 129.838 334.874 167.482 334.874 213.919C334.874 260.356 297.23 298 250.793 298C204.356 298 166.712 260.356 166.712 213.919C166.712 167.482 204.356 129.838 250.793 129.838ZM251.07 184.936C234.911 184.936 221.811 198.035 221.811 214.194C221.811 230.353 234.911 243.453 251.07 243.453C267.228 243.453 280.327 230.353 280.327 214.194C280.327 198.036 267.228 184.937 251.07 184.936Z" fill="white"/>
</g>
<g filter="url(#filter0_f_31_579)">
<path d="M73.7874 23.8245L62.1558 44.0409L77.7884 61.3504L54.9671 56.5353L43.3356 76.7517L40.8628 53.5594L18.0415 48.7444L39.3346 39.2258L36.8618 16.0335L52.4944 33.343L73.7874 23.8245Z" fill="white"/>
<path d="M383.125 145.648L388.204 146.12L383.679 148.473L252.302 216.788L251.601 217.153L250.904 216.781L78.3345 124.707C78.9752 123.937 79.5197 123.085 79.9526 122.169L251.62 213.762L377.771 148.162L80.5806 120.542C80.8673 119.598 81.0411 118.604 81.0845 117.576L383.125 145.648ZM67.3979 105.227C66.3872 105.374 65.4176 105.647 64.5054 106.031L51.0415 48.8069L53.9614 48.1194L67.3979 105.227Z" fill="white"/>
<path d="M404.12 143.397L388.003 151.549L390.775 169.396L378.042 156.587L361.925 164.739L370.173 148.671L357.439 135.862L375.27 138.74L383.517 122.672L386.289 140.519L404.12 143.397Z" fill="white"/>
<path d="M245.786 200.841L252.825 208.824L262.593 204.596L257.176 213.758L264.216 221.741L253.828 219.42L248.411 228.582L247.408 217.986L237.021 215.665L246.789 211.437L245.786 200.841Z" fill="white"/>
<circle cx="69.1039" cy="117.033" r="6.09222" fill="white"/>
</g>
<g filter="url(#filter1_d_31_579)">
<path d="M73.7874 23.8245L62.1558 44.0409L77.7884 61.3504L54.9671 56.5353L43.3356 76.7517L40.8628 53.5594L18.0415 48.7444L39.3346 39.2258L36.8618 16.0335L52.4944 33.343L73.7874 23.8245Z" fill="white"/>
<path d="M383.125 145.648L388.204 146.12L383.679 148.473L252.302 216.788L251.601 217.153L250.904 216.781L78.3345 124.707C78.9752 123.937 79.5197 123.085 79.9526 122.169L251.62 213.762L377.771 148.162L80.5806 120.542C80.8673 119.598 81.0411 118.604 81.0845 117.576L383.125 145.648ZM67.3979 105.227C66.3872 105.374 65.4176 105.647 64.5054 106.031L51.0415 48.8069L53.9614 48.1194L67.3979 105.227Z" fill="white"/>
<path d="M404.12 143.397L388.003 151.549L390.775 169.396L378.042 156.587L361.925 164.739L370.173 148.671L357.439 135.862L375.27 138.74L383.517 122.672L386.289 140.519L404.12 143.397Z" fill="white"/>
<path d="M245.786 200.841L252.825 208.824L262.593 204.596L257.176 213.758L264.216 221.741L253.828 219.42L248.411 228.582L247.408 217.986L237.021 215.665L246.789 211.437L245.786 200.841Z" fill="white"/>
<circle cx="69.1039" cy="117.033" r="6.09222" fill="white"/>
</g>
<g filter="url(#filter2_f_31_579)">
<path d="M64.0962 254.877L83.234 254.877L83.234 256.916L83.0676 256.916C81.9859 256.666 81.4866 256.625 79.2816 256.625L76.7854 256.625L76.7854 279.632C76.7854 282.169 76.827 282.627 77.035 283.626L77.0766 283.834L77.0766 284L70.2536 284L70.2536 283.834L70.2952 283.626C70.5032 282.627 70.5448 282.169 70.5448 279.632L70.5448 256.625L68.0485 256.625C65.8435 256.625 65.3443 256.666 64.2626 256.916L64.0962 256.916L64.0962 254.877ZM97.9618 254.877C105.159 254.877 109.694 258.33 109.694 264.072C109.694 270.562 103.786 273.89 97.5874 273.89C96.8385 273.89 96.048 273.807 95.2991 273.724L95.2991 272.476L95.84 272.476C100.292 272.476 103.454 269.522 103.454 264.405C103.454 259.412 101.04 256.625 96.5889 256.625L93.635 256.625L93.635 279.632C93.635 282.253 93.6766 282.752 93.843 283.834L93.843 284L87.1864 284L87.1864 283.834C87.3528 282.752 87.3944 282.253 87.3944 279.632L87.3944 259.246C87.3944 256.625 87.3528 256.125 87.1864 255.044L87.1864 254.877L97.9618 254.877ZM121.877 254.877C123.374 254.877 125.413 254.586 126.495 253.712L135.689 279.632C136.896 283.085 137.187 283.584 137.312 283.834L137.312 284L129.906 284L129.906 283.834C129.906 283.584 130.239 283.085 129.032 279.632L128.076 276.844L115.262 276.844L114.221 279.632C112.89 283.085 113.098 283.584 113.098 283.834L113.098 284L110.477 284L110.477 283.834C110.602 283.584 110.935 283.085 112.266 279.632L121.877 254.877ZM115.927 275.097L127.452 275.097L121.96 259.287L115.927 275.097ZM140.041 254.877L146.781 254.877L146.781 255.044C146.531 256.125 146.49 256.625 146.49 259.246L146.49 267.15L154.935 259.246C157.473 256.874 158.888 255.418 158.888 255.044L158.888 254.877L162.175 254.877L162.175 255.044C161.051 255.834 160.011 256.874 157.473 259.246L154.686 261.908L162.258 278.758C163.631 281.837 164.504 282.752 165.378 283.501L165.378 284C161.759 284.999 157.307 283.376 155.393 278.8L150.068 266.069L146.49 269.397L146.49 279.632C146.49 282.253 146.531 282.752 146.781 283.834L146.781 284L140.041 284L140.041 283.834C140.208 282.752 140.249 282.253 140.249 279.632L140.249 259.246C140.249 256.625 140.208 256.125 140.041 255.044L140.041 254.877ZM167.246 254.877L186.384 254.877L186.384 256.916L186.218 256.916C185.136 256.666 184.637 256.625 182.432 256.625L179.936 256.625L179.936 279.632C179.936 282.169 179.977 282.627 180.185 283.626L180.227 283.834L180.227 284L173.404 284L173.404 283.834L173.445 283.626C173.653 282.627 173.695 282.169 173.695 279.632L173.695 256.625L171.199 256.625C168.994 256.625 168.494 256.666 167.413 256.916L167.246 256.916L167.246 254.877ZM204.69 284.666C196.12 284.666 189.296 277.843 189.296 269.272C189.296 260.702 196.12 253.879 204.69 253.879C213.26 253.879 220.083 260.702 220.083 269.272C220.083 277.843 213.26 284.666 204.69 284.666ZM196.203 269.896C196.203 277.593 199.614 282.918 204.524 282.918C210.556 282.918 213.676 275.596 213.676 268.565C213.676 260.993 210.223 255.626 205.272 255.626C199.323 255.626 196.203 262.907 196.203 269.896ZM236.051 254.877C243.249 254.877 247.784 258.33 247.784 264.072C247.784 270.562 241.876 273.89 235.677 273.89C234.928 273.89 234.137 273.807 233.389 273.724L233.389 272.476L233.929 272.476C238.381 272.476 241.543 269.522 241.543 264.405C241.543 259.412 239.13 256.625 234.678 256.625L231.724 256.625L231.724 279.632C231.724 282.253 231.766 282.752 231.932 283.834L231.932 284L225.276 284L225.276 283.834C225.442 282.752 225.484 282.253 225.484 279.632L225.484 259.246C225.484 256.625 225.442 256.125 225.276 255.044L225.276 254.877L236.051 254.877Z" fill="#F6F1FF"/>
</g>
<path d="M64.0962 254.877L83.234 254.877L83.234 256.916L83.0676 256.916C81.9859 256.666 81.4866 256.625 79.2816 256.625L76.7854 256.625L76.7854 279.632C76.7854 282.169 76.827 282.627 77.035 283.626L77.0766 283.834L77.0766 284L70.2536 284L70.2536 283.834L70.2952 283.626C70.5032 282.627 70.5448 282.169 70.5448 279.632L70.5448 256.625L68.0485 256.625C65.8435 256.625 65.3443 256.666 64.2626 256.916L64.0962 256.916L64.0962 254.877ZM97.9618 254.877C105.159 254.877 109.694 258.33 109.694 264.072C109.694 270.562 103.786 273.89 97.5874 273.89C96.8385 273.89 96.048 273.807 95.2991 273.724L95.2991 272.476L95.84 272.476C100.292 272.476 103.454 269.522 103.454 264.405C103.454 259.412 101.04 256.625 96.5889 256.625L93.635 256.625L93.635 279.632C93.635 282.253 93.6766 282.752 93.843 283.834L93.843 284L87.1864 284L87.1864 283.834C87.3528 282.752 87.3944 282.253 87.3944 279.632L87.3944 259.246C87.3944 256.625 87.3528 256.125 87.1864 255.044L87.1864 254.877L97.9618 254.877ZM121.877 254.877C123.374 254.877 125.413 254.586 126.495 253.712L135.689 279.632C136.896 283.085 137.187 283.584 137.312 283.834L137.312 284L129.906 284L129.906 283.834C129.906 283.584 130.239 283.085 129.032 279.632L128.076 276.844L115.262 276.844L114.221 279.632C112.89 283.085 113.098 283.584 113.098 283.834L113.098 284L110.477 284L110.477 283.834C110.602 283.584 110.935 283.085 112.266 279.632L121.877 254.877ZM115.927 275.097L127.452 275.097L121.96 259.287L115.927 275.097ZM140.041 254.877L146.781 254.877L146.781 255.044C146.531 256.125 146.49 256.625 146.49 259.246L146.49 267.15L154.935 259.246C157.473 256.874 158.888 255.418 158.888 255.044L158.888 254.877L162.175 254.877L162.175 255.044C161.051 255.834 160.011 256.874 157.473 259.246L154.686 261.908L162.258 278.758C163.631 281.837 164.504 282.752 165.378 283.501L165.378 284C161.759 284.999 157.307 283.376 155.393 278.8L150.068 266.069L146.49 269.397L146.49 279.632C146.49 282.253 146.531 282.752 146.781 283.834L146.781 284L140.041 284L140.041 283.834C140.208 282.752 140.249 282.253 140.249 279.632L140.249 259.246C140.249 256.625 140.208 256.125 140.041 255.044L140.041 254.877ZM167.246 254.877L186.384 254.877L186.384 256.916L186.218 256.916C185.136 256.666 184.637 256.625 182.432 256.625L179.936 256.625L179.936 279.632C179.936 282.169 179.977 282.627 180.185 283.626L180.227 283.834L180.227 284L173.404 284L173.404 283.834L173.445 283.626C173.653 282.627 173.695 282.169 173.695 279.632L173.695 256.625L171.199 256.625C168.994 256.625 168.494 256.666 167.413 256.916L167.246 256.916L167.246 254.877ZM204.69 284.666C196.12 284.666 189.296 277.843 189.296 269.272C189.296 260.702 196.12 253.879 204.69 253.879C213.26 253.879 220.083 260.702 220.083 269.272C220.083 277.843 213.26 284.666 204.69 284.666ZM196.203 269.896C196.203 277.593 199.614 282.918 204.524 282.918C210.556 282.918 213.676 275.596 213.676 268.565C213.676 260.993 210.223 255.626 205.272 255.626C199.323 255.626 196.203 262.907 196.203 269.896ZM236.051 254.877C243.249 254.877 247.784 258.33 247.784 264.072C247.784 270.562 241.876 273.89 235.677 273.89C234.928 273.89 234.137 273.807 233.389 273.724L233.389 272.476L233.929 272.476C238.381 272.476 241.543 269.522 241.543 264.405C241.543 259.412 239.13 256.625 234.678 256.625L231.724 256.625L231.724 279.632C231.724 282.253 231.766 282.752 231.932 283.834L231.932 284L225.276 284L225.276 283.834C225.442 282.752 225.484 282.253 225.484 279.632L225.484 259.246C225.484 256.625 225.442 256.125 225.276 255.044L225.276 254.877L236.051 254.877Z" fill="#F6F1FF"/>
<path opacity="0.5" d="M77.2583 317.589L77.2583 304.761L74.534 306.4L74.534 304.741L77.2583 303.113L78.7562 303.113L78.7562 317.589L77.2583 317.589ZM87.6459 317.89C85.394 317.89 83.5443 316.392 82.9713 314.281L84.3888 313.899C84.7808 315.468 86.1983 316.443 87.6861 316.443C89.6162 316.443 91.094 314.885 91.094 313.035C91.094 311.125 89.5157 309.637 87.6861 309.637C86.3189 309.637 85.3237 310.3 84.7306 311.205L83.3835 310.642L83.8258 303.113L91.5564 303.113L91.5564 304.53L85.1729 304.53L84.8813 309.345C85.6755 308.652 86.721 308.25 87.8168 308.25C90.4808 308.25 92.5718 310.361 92.5718 313.035C92.5718 315.689 90.33 317.89 87.6459 317.89ZM100.054 317.89C97.8022 317.89 95.9525 316.392 95.3795 314.281L96.7969 313.899C97.189 315.468 98.6064 316.443 100.094 316.443C102.024 316.443 103.502 314.885 103.502 313.035C103.502 311.125 101.924 309.637 100.094 309.637C98.7271 309.637 97.7318 310.3 97.1387 311.205L95.7916 310.642L96.234 303.113L103.965 303.113L103.965 304.53L97.5811 304.53L97.2895 309.345C98.0837 308.652 99.1292 308.25 100.225 308.25C102.889 308.25 104.98 310.361 104.98 313.035C104.98 315.689 102.738 317.89 100.054 317.89ZM111.005 310.049C109.014 310.049 107.386 308.441 107.386 306.43C107.386 304.46 109.074 302.811 111.005 302.811C112.995 302.811 114.624 304.42 114.624 306.43C114.624 308.441 112.995 310.049 111.005 310.049ZM111.005 308.712C112.241 308.712 113.287 307.667 113.287 306.43C113.287 305.194 112.241 304.148 111.005 304.148C109.768 304.148 108.723 305.194 108.723 306.43C108.723 307.667 109.768 308.712 111.005 308.712ZM122.77 317.89C120.086 317.89 118.045 315.85 118.045 313.165L118.045 307.536C118.045 304.852 120.086 302.811 122.77 302.811C125.454 302.811 127.495 304.852 127.495 307.536L127.495 313.165C127.495 315.85 125.454 317.89 122.77 317.89ZM122.77 316.463C124.55 316.463 125.997 315.015 125.997 313.236L125.997 307.466C125.997 305.676 124.55 304.229 122.77 304.229C120.991 304.229 119.543 305.676 119.543 307.466L119.543 313.236C119.543 315.015 120.991 316.463 122.77 316.463ZM135.846 317.89C133.162 317.89 131.121 315.85 131.121 313.165L131.121 307.536C131.121 304.852 133.162 302.811 135.846 302.811C138.53 302.811 140.571 304.852 140.571 307.536L140.571 313.165C140.571 315.85 138.53 317.89 135.846 317.89ZM135.846 316.463C137.625 316.463 139.073 315.015 139.073 313.236L139.073 307.466C139.073 305.676 137.625 304.229 135.846 304.229C134.067 304.229 132.619 305.676 132.619 307.466L132.619 313.236C132.619 315.015 134.067 316.463 135.846 316.463ZM145.062 302.982L146.549 302.982L145.142 307.807L144.127 307.807L145.062 302.982ZM147.615 302.982L149.103 302.982L147.695 307.807L146.68 307.807L147.615 302.982ZM157.11 311.889L157.11 310.622L165.555 310.622L165.555 311.889L157.11 311.889ZM178.698 317.89C175.974 317.89 173.803 315.719 173.803 312.894L173.803 307.878C173.803 304.972 175.944 302.821 178.809 302.821C180.458 302.821 181.935 303.585 182.84 304.882L181.704 305.817C181.091 304.862 180.005 304.228 178.809 304.228C176.768 304.228 175.3 305.877 175.3 307.747L175.3 309.969C176.155 308.923 177.422 308.26 178.839 308.26C181.523 308.26 183.604 310.371 183.604 313.055C183.604 315.729 181.382 317.89 178.698 317.89ZM178.698 316.453C180.588 316.453 182.116 314.945 182.116 313.055C182.116 311.165 180.598 309.637 178.708 309.637C176.818 309.637 175.3 311.165 175.3 313.055C175.3 314.925 176.808 316.453 178.698 316.453ZM191.799 317.89C189.115 317.89 187.075 315.85 187.075 313.165L187.075 307.536C187.075 304.852 189.115 302.811 191.799 302.811C194.484 302.811 196.524 304.852 196.524 307.536L196.524 313.165C196.524 315.85 194.484 317.89 191.799 317.89ZM191.799 316.463C193.579 316.463 195.026 315.015 195.026 313.236L195.026 307.466C195.026 305.676 193.579 304.228 191.799 304.228C190.02 304.228 188.573 305.676 188.573 307.466L188.573 313.236C188.573 315.015 190.02 316.463 191.799 316.463ZM202.965 310.049C200.975 310.049 199.346 308.441 199.346 306.43C199.346 304.46 201.035 302.811 202.965 302.811C204.956 302.811 206.584 304.419 206.584 306.43C206.584 308.441 204.956 310.049 202.965 310.049ZM202.965 308.712C204.202 308.712 205.247 307.667 205.247 306.43C205.247 305.194 204.202 304.148 202.965 304.148C201.729 304.148 200.683 305.194 200.683 306.43C200.683 307.667 201.729 308.712 202.965 308.712ZM214.731 317.89C212.047 317.89 210.006 315.85 210.006 313.165L210.006 307.536C210.006 304.852 212.047 302.811 214.731 302.811C217.415 302.811 219.456 304.852 219.456 307.536L219.456 313.165C219.456 315.85 217.415 317.89 214.731 317.89ZM214.731 316.463C216.51 316.463 217.958 315.015 217.958 313.236L217.958 307.465C217.958 305.676 216.51 304.228 214.731 304.228C212.952 304.228 211.504 305.676 211.504 307.465L211.504 313.236C211.504 315.015 212.952 316.463 214.731 316.463ZM227.807 317.89C225.123 317.89 223.082 315.85 223.082 313.165L223.082 307.536C223.082 304.852 225.123 302.811 227.807 302.811C230.491 302.811 232.532 304.852 232.532 307.536L232.532 313.165C232.532 315.85 230.491 317.89 227.807 317.89ZM227.807 316.463C229.586 316.463 231.034 315.015 231.034 313.236L231.034 307.465C231.034 305.676 229.586 304.228 227.807 304.228C226.027 304.228 224.58 305.676 224.58 307.465L224.58 313.236C224.58 315.015 226.027 316.463 227.807 316.463ZM237.022 302.982L238.51 302.982L237.103 307.807L236.087 307.807L237.022 302.982ZM239.576 302.982L241.063 302.982L239.656 307.807L238.641 307.807L239.576 302.982Z" fill="#F6F1FF"/>
<defs>
<filter id="filter0_f_31_579" x="8.0415" y="6.03351" width="406.078" height="232.549" filterUnits="userSpaceOnUse" color-interpolation-filters="sRGB">
<feFlood flood-opacity="0" result="BackgroundImageFix"/>
<feBlend mode="normal" in="SourceGraphic" in2="BackgroundImageFix" result="shape"/>
<feGaussianBlur stdDeviation="5" result="effect1_foregroundBlur_31_579"/>
</filter>
<filter id="filter1_d_31_579" x="14.0415" y="16.0335" width="394.078" height="220.549" filterUnits="userSpaceOnUse" color-interpolation-filters="sRGB">
<feFlood flood-opacity="0" result="BackgroundImageFix"/>
<feColorMatrix in="SourceAlpha" type="matrix" values="0 0 0 0 0 0 0 0 0 0 0 0 0 0 0 0 0 0 127 0" result="hardAlpha"/>
<feOffset dy="4"/>
<feGaussianBlur stdDeviation="2"/>
<feComposite in2="hardAlpha" operator="out"/>
<feColorMatrix type="matrix" values="0 0 0 0 0 0 0 0 0 0 0 0 0 0 0 0 0 0 0.25 0"/>
<feBlend mode="normal" in2="BackgroundImageFix" result="effect1_dropShadow_31_579"/>
<feBlend mode="normal" in="SourceGraphic" in2="effect1_dropShadow_31_579" result="shape"/>
</filter>
<filter id="filter2_f_31_579" x="60.0962" y="249.712" width="191.687" height="39.2862" filterUnits="userSpaceOnUse" color-interpolation-filters="sRGB">
<feFlood flood-opacity="0" result="BackgroundImageFix"/>
<feBlend mode="normal" in="SourceGraphic" in2="BackgroundImageFix" result="shape"/>
<feGaussianBlur stdDeviation="2" result="effect1_foregroundBlur_31_579"/>
</filter>
</defs>
</svg>
