<svg width="300" height="232" viewBox="0 0 300 232" fill="none" xmlns="http://www.w3.org/2000/svg">
<g opacity="0.2">
<path d="M209.549 6.10352e-05C216.557 0.000157809 222.464 5.2283 223.316 12.1846L233.397 94.5174C233.793 97.7552 229.758 99.8531 227.127 97.9246C215.031 89.0584 200.108 83.8223 183.962 83.8223C143.594 83.8225 110.871 116.547 110.871 156.914C110.871 158.338 110.912 159.752 110.992 161.156C111.111 163.218 109.51 165.013 107.444 165.013H101.457C101.389 165.013 101.321 165.004 101.255 164.987C100.939 164.904 100.706 164.635 100.663 164.312C97.0534 137.163 73.8105 116.218 45.6746 116.218C31.7317 116.218 18.9898 121.361 9.24359 129.854C7.26577 131.578 4.06871 130.872 3.36953 128.343C-2.02632 108.83 -3.40314 81.3496 18.4304 70.21C18.8953 69.9729 19.4232 69.8516 19.9451 69.8516H95.7491C97.3696 69.8516 98.774 68.7293 99.1313 67.1487L111.868 10.8116C113.297 4.48931 118.915 6.10352e-05 125.397 6.10352e-05H209.549ZM136.022 14.7803C132.614 14.7803 129.71 17.2572 129.174 20.6231L123.894 53.7256C123.222 57.9383 126.477 61.753 130.743 61.753H167.106C170.936 61.7528 174.041 58.6483 174.041 54.8184V21.7149C174.041 17.8851 170.936 14.7805 167.106 14.7803H136.022ZM185.032 14.7803C182.196 14.7803 179.897 17.0793 179.897 19.9151V56.6182C179.897 59.454 182.196 61.753 185.032 61.753H204.452C207.61 61.7527 210.02 58.9284 209.522 55.8096L203.669 19.1065C203.271 16.6144 201.121 14.7803 198.597 14.7803H185.032Z" fill="white"/>
<path d="M45.675 128.435C69.566 128.436 88.9338 147.803 88.9338 171.694C88.9338 195.585 69.566 214.953 45.675 214.953C21.7841 214.953 2.41628 195.585 2.41626 171.694C2.41626 147.803 21.7841 128.435 45.675 128.435ZM45.675 157.116C37.624 157.116 31.0969 163.643 31.0969 171.694C31.097 179.745 37.624 186.272 45.675 186.272C53.7261 186.272 60.2531 179.745 60.2532 171.694C60.2532 163.643 53.7262 157.116 45.675 157.116Z" fill="white"/>
<path d="M183.961 95.2388C218.024 95.2388 245.637 122.851 245.637 156.914C245.637 190.976 218.024 218.589 183.961 218.589C149.899 218.589 122.287 190.976 122.287 156.914C122.287 122.852 149.899 95.239 183.961 95.2388ZM184.165 135.655C172.312 135.655 162.703 145.264 162.703 157.117C162.703 168.97 172.312 178.578 184.165 178.578C196.017 178.577 205.625 168.969 205.625 157.117C205.625 145.264 196.017 135.655 184.165 135.655Z" fill="white"/>
</g>
<path d="M54.1241 17.4758L45.5921 32.3049L57.0589 45.0018L40.319 41.4699L31.787 56.299L29.9732 39.287L13.2332 35.755L28.8521 28.773L27.0383 11.7609L38.5052 24.4578L54.1241 17.4758Z" fill="white"/>
<path d="M281.031 106.836L284.755 107.182L281.437 108.908L185.069 159.019L184.555 159.286L184.043 159.013L57.46 91.4753C57.93 90.9102 58.3298 90.285 58.6475 89.613L184.567 156.799L277.102 108.68L59.1074 88.4197C59.3177 87.7267 59.4448 86.9978 59.4766 86.2439L281.031 106.836ZM49.4375 77.1863C48.6964 77.2941 47.9853 77.4942 47.3164 77.7751L37.4395 35.8005L39.582 35.2966L49.4375 77.1863Z" fill="white"/>
<path d="M296.43 105.185L284.608 111.165L286.642 124.256L277.301 114.86L265.48 120.84L271.529 109.053L262.189 99.6579L275.268 101.769L281.317 89.9827L283.351 103.074L296.43 105.185Z" fill="white"/>
<path d="M180.289 147.321L185.452 153.177L192.617 150.076L188.644 156.796L193.807 162.652L186.188 160.95L182.214 167.67L181.479 159.898L173.859 158.195L181.024 155.094L180.289 147.321Z" fill="white"/>
<circle cx="50.6885" cy="85.8459" r="4.46877" fill="white"/>
<path d="M59.7245 193.667L71.1463 193.667L71.1463 194.884L71.047 194.884C70.4014 194.735 70.1034 194.71 68.7874 194.71L67.2976 194.71L67.2976 208.441C67.2976 209.956 67.3225 210.229 67.4466 210.825L67.4714 210.949L67.4714 211.048L63.3993 211.048L63.3993 210.949L63.4241 210.825C63.5483 210.229 63.5731 209.956 63.5731 208.441L63.5731 194.71L62.0833 194.71C60.7673 194.71 60.4694 194.735 59.8238 194.884L59.7245 194.884L59.7245 193.667ZM79.9361 193.667C84.2317 193.667 86.9382 195.728 86.9382 199.155C86.9382 203.028 83.4123 205.014 79.7126 205.014C79.2657 205.014 78.7939 204.965 78.347 204.915L78.347 204.17L78.6698 204.17C81.3266 204.17 83.2137 202.407 83.2137 199.353C83.2137 196.374 81.7735 194.71 79.1167 194.71L77.3538 194.71L77.3538 208.441C77.3538 210.005 77.3786 210.303 77.4779 210.949L77.4779 211.048L73.5051 211.048L73.5051 210.949C73.6044 210.303 73.6293 210.005 73.6293 208.441L73.6293 196.274C73.6293 194.71 73.6044 194.412 73.5051 193.766L73.5051 193.667L79.9361 193.667ZM94.2089 193.667C95.1028 193.667 96.3194 193.493 96.965 192.972L102.452 208.441C103.173 210.502 103.346 210.8 103.421 210.949L103.421 211.048L99.0011 211.048L99.0011 210.949C99.0011 210.8 99.1997 210.502 98.4796 208.441L97.9086 206.777L90.2609 206.777L89.6402 208.441C88.8456 210.502 88.9698 210.8 88.9698 210.949L88.9698 211.048L87.4055 211.048L87.4055 210.949C87.48 210.8 87.6786 210.502 88.4732 208.441L94.2089 193.667ZM90.6582 205.734L97.5361 205.734L94.2585 196.299L90.6582 205.734ZM105.05 193.667L109.072 193.667L109.072 193.766C108.923 194.412 108.899 194.71 108.899 196.274L108.899 200.992L113.939 196.274C115.454 194.859 116.298 193.99 116.298 193.766L116.298 193.667L118.259 193.667L118.259 193.766C117.589 194.238 116.968 194.859 115.454 196.274L113.79 197.863L118.309 207.919C119.129 209.757 119.65 210.303 120.171 210.75L120.171 211.048C118.011 211.644 115.354 210.676 114.212 207.944L111.034 200.346L108.899 202.333L108.899 208.441C108.899 210.005 108.923 210.303 109.072 210.949L109.072 211.048L105.05 211.048L105.05 210.949C105.149 210.303 105.174 210.005 105.174 208.441L105.174 196.274C105.174 194.71 105.149 194.412 105.05 193.766L105.05 193.667ZM121.286 193.667L132.708 193.667L132.708 194.884L132.609 194.884C131.963 194.735 131.665 194.71 130.349 194.71L128.86 194.71L128.86 208.441C128.86 209.956 128.884 210.229 129.009 210.825L129.033 210.949L129.033 211.048L124.961 211.048L124.961 210.949L124.986 210.825C125.11 210.229 125.135 209.956 125.135 208.441L125.135 194.71L123.645 194.71C122.329 194.71 122.031 194.735 121.386 194.884L121.286 194.884L121.286 193.667ZM143.633 211.445C138.518 211.445 134.446 207.373 134.446 202.258C134.446 197.143 138.518 193.071 143.633 193.071C148.748 193.071 152.82 197.143 152.82 202.258C152.82 207.373 148.748 211.445 143.633 211.445ZM138.568 202.631C138.568 207.224 140.604 210.402 143.534 210.402C147.134 210.402 148.997 206.032 148.997 201.836C148.997 197.317 146.936 194.114 143.981 194.114C140.43 194.114 138.568 198.459 138.568 202.631ZM162.35 193.667C166.646 193.667 169.352 195.728 169.352 199.154C169.352 203.028 165.827 205.014 162.127 205.014C161.68 205.014 161.208 204.965 160.761 204.915L160.761 204.17L161.084 204.17C163.741 204.17 165.628 202.407 165.628 199.353C165.628 196.374 164.188 194.71 161.531 194.71L159.768 194.71L159.768 208.441C159.768 210.005 159.793 210.303 159.892 210.949L159.892 211.048L155.919 211.048L155.919 210.949C156.019 210.303 156.044 210.005 156.044 208.441L156.044 196.274C156.044 194.71 156.019 194.412 155.919 193.766L155.919 193.667L162.35 193.667Z" fill="#F6F1FF"/>
<path opacity="0.5" d="M64.934 231.689L64.934 224.033L63.308 225.011L63.308 224.021L64.934 223.049L65.828 223.049L65.828 231.689L64.934 231.689ZM71.1338 231.869C69.7898 231.869 68.6858 230.975 68.3438 229.715L69.1898 229.487C69.4238 230.423 70.2698 231.005 71.1578 231.005C72.3098 231.005 73.1918 230.075 73.1918 228.971C73.1918 227.831 72.2498 226.943 71.1578 226.943C70.3418 226.943 69.7478 227.339 69.3938 227.879L68.5898 227.543L68.8538 223.049L73.4678 223.049L73.4678 223.895L69.6578 223.895L69.4838 226.769C69.9578 226.355 70.5818 226.115 71.2358 226.115C72.8258 226.115 74.0738 227.375 74.0738 228.971C74.0738 230.555 72.7358 231.869 71.1338 231.869ZM78.5396 231.869C77.1956 231.869 76.0916 230.975 75.7496 229.715L76.5956 229.487C76.8296 230.423 77.6756 231.005 78.5636 231.005C79.7156 231.005 80.5976 230.075 80.5976 228.971C80.5976 227.831 79.6556 226.943 78.5636 226.943C77.7476 226.943 77.1536 227.339 76.7996 227.879L75.9956 227.543L76.2596 223.049L80.8736 223.049L80.8736 223.895L77.0636 223.895L76.8896 226.769C77.3636 226.355 77.9876 226.115 78.6416 226.115C80.2316 226.115 81.4796 227.375 81.4796 228.971C81.4796 230.555 80.1416 231.869 78.5396 231.869ZM85.0753 227.189C83.8873 227.189 82.9153 226.229 82.9153 225.029C82.9153 223.853 83.9233 222.869 85.0753 222.869C86.2633 222.869 87.2353 223.829 87.2353 225.029C87.2353 226.229 86.2633 227.189 85.0753 227.189ZM85.0753 226.391C85.8133 226.391 86.4373 225.767 86.4373 225.029C86.4373 224.291 85.8133 223.667 85.0753 223.667C84.3373 223.667 83.7133 224.291 83.7133 225.029C83.7133 225.767 84.3373 226.391 85.0753 226.391ZM92.0977 231.869C90.4957 231.869 89.2777 230.651 89.2777 229.049L89.2777 225.689C89.2777 224.087 90.4957 222.869 92.0977 222.869C93.6997 222.869 94.9177 224.087 94.9177 225.689L94.9177 229.049C94.9177 230.651 93.6997 231.869 92.0977 231.869ZM92.0977 231.017C93.1597 231.017 94.0237 230.153 94.0237 229.091L94.0237 225.647C94.0237 224.579 93.1597 223.715 92.0977 223.715C91.0357 223.715 90.1717 224.579 90.1717 225.647L90.1717 229.091C90.1717 230.153 91.0357 231.017 92.0977 231.017ZM99.9019 231.869C98.2999 231.869 97.0819 230.651 97.0819 229.049L97.0819 225.689C97.0819 224.087 98.2999 222.869 99.9019 222.869C101.504 222.869 102.722 224.087 102.722 225.689L102.722 229.049C102.722 230.651 101.504 231.869 99.9019 231.869ZM99.9019 231.017C100.964 231.017 101.828 230.153 101.828 229.091L101.828 225.647C101.828 224.579 100.964 223.715 99.9019 223.715C98.8399 223.715 97.9759 224.579 97.9759 225.647L97.9759 229.091C97.9759 230.153 98.8399 231.017 99.9019 231.017ZM105.402 222.971L106.29 222.971L105.45 225.851L104.844 225.851L105.402 222.971ZM106.926 222.971L107.814 222.971L106.974 225.851L106.368 225.851L106.926 222.971ZM112.593 228.287L112.593 227.531L117.633 227.531L117.633 228.287L112.593 228.287ZM125.478 231.869C123.852 231.869 122.556 230.573 122.556 228.887L122.556 225.893C122.556 224.159 123.834 222.875 125.544 222.875C126.528 222.875 127.41 223.331 127.95 224.105L127.272 224.663C126.906 224.093 126.258 223.715 125.544 223.715C124.326 223.715 123.45 224.699 123.45 225.815L123.45 227.141C123.96 226.517 124.716 226.121 125.562 226.121C127.164 226.121 128.406 227.381 128.406 228.983C128.406 230.579 127.08 231.869 125.478 231.869ZM125.478 231.011C126.606 231.011 127.518 230.111 127.518 228.983C127.518 227.855 126.612 226.943 125.484 226.943C124.356 226.943 123.45 227.855 123.45 228.983C123.45 230.099 124.35 231.011 125.478 231.011ZM133.298 231.869C131.696 231.869 130.478 230.651 130.478 229.049L130.478 225.689C130.478 224.087 131.696 222.869 133.298 222.869C134.9 222.869 136.118 224.087 136.118 225.689L136.118 229.049C136.118 230.651 134.9 231.869 133.298 231.869ZM133.298 231.017C134.36 231.017 135.224 230.153 135.224 229.091L135.224 225.647C135.224 224.579 134.36 223.715 133.298 223.715C132.236 223.715 131.372 224.579 131.372 225.647L131.372 229.091C131.372 230.153 132.236 231.017 133.298 231.017ZM139.962 227.189C138.774 227.189 137.802 226.229 137.802 225.029C137.802 223.853 138.81 222.869 139.962 222.869C141.15 222.869 142.122 223.829 142.122 225.029C142.122 226.229 141.15 227.189 139.962 227.189ZM139.962 226.391C140.7 226.391 141.324 225.767 141.324 225.029C141.324 224.291 140.7 223.667 139.962 223.667C139.224 223.667 138.6 224.291 138.6 225.029C138.6 225.767 139.224 226.391 139.962 226.391ZM146.984 231.869C145.382 231.869 144.164 230.651 144.164 229.049L144.164 225.689C144.164 224.087 145.382 222.869 146.984 222.869C148.586 222.869 149.804 224.087 149.804 225.689L149.804 229.049C149.804 230.651 148.586 231.869 146.984 231.869ZM146.984 231.017C148.046 231.017 148.91 230.153 148.91 229.091L148.91 225.647C148.91 224.579 148.046 223.715 146.984 223.715C145.922 223.715 145.058 224.579 145.058 225.647L145.058 229.091C145.058 230.153 145.922 231.017 146.984 231.017ZM154.788 231.869C153.186 231.869 151.968 230.651 151.968 229.049L151.968 225.689C151.968 224.087 153.186 222.869 154.788 222.869C156.39 222.869 157.608 224.087 157.608 225.689L157.608 229.049C157.608 230.651 156.39 231.869 154.788 231.869ZM154.788 231.017C155.85 231.017 156.714 230.153 156.714 229.091L156.714 225.647C156.714 224.579 155.85 223.715 154.788 223.715C153.726 223.715 152.862 224.579 152.862 225.647L152.862 229.091C152.862 230.153 153.726 231.017 154.788 231.017ZM160.289 222.971L161.177 222.971L160.337 225.851L159.731 225.851L160.289 222.971ZM161.813 222.971L162.701 222.971L161.861 225.851L161.255 225.851L161.813 222.971Z" fill="#F6F1FF"/>
</svg>
