<svg width="120" height="116" viewBox="0 0 120 116" fill="none" xmlns="http://www.w3.org/2000/svg">
<g opacity="0.2">
<path d="M99.6845 80.0484C103.821 78.3849 106.474 75.4175 107.058 70.9214C107.688 66.2005 105.889 62.3788 102.023 59.6362C95.3683 54.9603 85.342 58.2874 82.1947 66.0206C81.0258 68.8981 80.8909 71.9555 80.0816 74.9229C79.9017 75.1027 79.8568 75.2826 79.8118 75.4624C79.0924 74.0237 78.3281 72.6299 77.1591 71.4609C76.2149 74.3384 74.1467 76.6314 72.5281 79.1043C69.1111 84.1848 69.0212 83.0159 73.4274 86.8375C74.1018 87.422 74.8212 87.9166 75.5405 88.4561C75.046 89.0406 74.5064 89.6251 73.9669 90.1646C73.5622 89.76 73.2026 89.3104 72.7979 88.9057C69.7855 85.6686 66.908 84.4097 62.9964 87.467C61.7375 88.4561 59.984 88.8158 58.4104 89.4003C57.1066 89.8499 56.7918 90.5243 57.4662 91.7832C58.7251 94.0762 59.8042 96.4592 60.9732 98.8421C60.7484 98.932 60.5685 99.0219 60.3437 99.1119C60.074 99.2468 59.7592 99.4266 59.5794 99.6514C58.4554 97.3134 57.2864 94.9755 56.3422 92.5476C55.443 90.3445 54.319 90.0298 52.1159 90.4794C47.9795 91.3786 43.7532 91.7832 39.5718 91.4685C37.9982 91.3336 37.6385 91.9631 37.3687 93.177C36.4245 97.4933 35.4354 101.765 34.4912 106.081C34.5811 106.261 34.6711 106.396 34.8059 106.53C43.0338 106.89 51.1717 106.126 59.0848 103.788C58.7701 106.665 58.3655 109.498 58.4104 112.375C58.4104 113.454 58.3655 114.668 59.6244 115.028C60.7034 115.343 61.153 114.309 61.6476 113.589C61.7375 113.499 61.8724 113.454 62.1871 113.275C62.6817 114.533 63.1763 116.017 64.7949 115.882C66.4135 115.747 66.5933 114.084 67.2677 113.005C68.3917 113.32 69.201 115.433 70.6398 113.724C71.539 112.645 70.6398 111.161 71.2243 109.902C74.7312 113.095 76.0801 112.825 77.4289 108.599C78.2831 109.183 79.2273 109.992 80.1715 109.183C81.1157 108.374 80.6661 107.205 80.4862 106.216C79.9017 102.889 79.3622 99.5615 78.5529 96.3243C78.1483 94.7507 78.6428 94.0313 79.8118 93.222C82.9591 90.929 86.0164 88.5011 88.5342 85.5337C90.8272 82.836 93.3001 80.9477 96.9869 80.9477C97.7962 80.8577 98.7853 80.4081 99.6845 80.0484ZM102.112 77.7554C99.19 77.8903 97.8861 76.5865 98.2008 74.0237C99.8644 76.5415 99.8644 76.5415 102.112 77.7554ZM95.3683 64.3121C95.3233 62.6486 96.2675 61.6594 97.9311 61.5695C99.4597 61.5245 100.314 62.3338 100.359 63.8625C100.404 65.571 99.3698 66.3803 97.976 66.6501C96.2675 66.6051 95.4133 65.7958 95.3683 64.3121Z" fill="white"/>
<path d="M13.8089 79.4644C16.2368 81.5775 16.3717 81.5775 18.2151 79.0148C20.0585 76.452 21.767 73.7993 23.7902 71.3714C25.0941 69.7978 25.0941 68.359 24.1499 66.6505C23.5654 65.5265 22.6662 64.4924 22.6662 63.1436C17.181 66.5606 13.1795 71.2365 10.6167 77.1714C12.0105 77.3962 12.8198 78.6101 13.8089 79.4644Z" fill="white"/>
<path d="M25.5887 64.807C26.5329 67.4597 28.3313 69.0333 31.1189 69.5279C31.6135 69.6178 32.198 69.7527 32.6026 70.0225C36.1995 72.4054 38.9871 70.517 41.8196 68.4039C42.6739 67.7744 42.8987 67.0101 42.7638 66.0209C42.494 63.9078 42.1793 61.8396 41.8646 59.7264C41.7297 58.6473 41.415 57.5683 41.7297 56.5342C35.3003 56.8939 29.4554 58.8721 24.0601 62.3341C24.9143 62.9186 25.229 63.9078 25.5887 64.807Z" fill="white"/>
<path d="M44.742 64.8067C44.9218 66.5601 45.7311 67.7741 47.5295 68.1787C48.204 68.3136 48.8334 68.5384 49.4629 68.8082C51.5311 69.7524 53.2396 69.4376 54.6783 67.6842C55.3977 66.8299 56.3868 66.2005 57.2411 65.4811C58.6799 64.2671 59.714 62.8734 59.8039 60.8951C59.8488 60.1307 59.8938 59.3214 60.6581 59.0067C55.083 56.8036 49.328 55.8595 43.3032 56.354C43.6179 56.6687 43.6629 57.2083 43.7079 57.6579C44.1125 60.0408 44.4722 62.4237 44.742 64.8067Z" fill="white"/>
<path d="M63.0415 64.9413C66.0988 66.9196 68.9763 69.0777 71.7189 71.4606C73.0228 72.6296 74.2367 73.5288 75.4057 71.3257C75.5856 70.966 75.9902 70.6513 76.4848 70.6513C72.7081 65.5258 67.7174 61.9739 61.9624 59.4561C62.367 60.4002 61.9174 61.4343 61.7826 62.3336C61.6027 63.5925 62.0074 64.2669 63.0415 64.9413Z" fill="white"/>
<path d="M36.4243 93.0867C36.739 91.8278 36.784 91.2882 35.2104 91.0634C31.0739 90.5239 27.0275 89.5348 23.2058 87.8262C22.0818 87.3317 21.4523 87.5565 20.7779 88.5906C18.8446 91.4681 16.8663 94.3006 14.888 97.1781C14.6632 97.0882 14.4834 96.9983 14.2586 96.8634C15.9671 93.896 18.0802 91.2433 20.0585 88.4557C20.9577 87.1518 21.0926 86.5224 19.564 85.5332C16.1469 83.2852 12.9547 80.6775 10.2121 77.6201C9.0431 79.9581 8.41365 82.5209 7.73923 84.9937C6.12064 85.0836 4.50205 85.0836 2.88346 85.3084C1.62455 85.5332 0.455566 86.2077 0.455566 87.7363C0.455566 89.3999 1.71447 89.9844 3.15322 90.0743C4.68189 90.1642 6.25552 90.1193 7.78419 90.0743C8.27876 91.6929 8.86326 93.2665 9.62759 94.7053C9.53767 94.7502 9.44775 94.7502 9.31287 94.8401C7.91908 98.6169 5.71599 102.034 3.96252 105.676C3.51291 106.62 2.83849 107.519 3.55787 108.598C4.36717 109.722 5.31135 108.688 6.21056 108.733C6.57025 112.42 7.51443 112.869 10.9764 110.981C11.471 111.79 11.0663 113.274 12.5501 113.319C13.8539 113.364 14.4834 112.285 15.1578 111.431C15.3376 111.206 15.5175 110.936 15.6524 110.711C16.4167 109.497 17.0012 108.778 18.305 110.487C20.1035 112.825 21.4523 112.51 22.6213 109.767C22.8911 110.037 23.1608 110.262 23.4306 110.532C25.8135 112.869 26.443 112.825 27.9267 109.902C28.4662 108.868 28.8709 109.363 29.4554 109.632C30.3096 110.082 31.2538 110.621 32.153 109.767C33.1422 108.868 32.6476 107.789 32.2879 106.845C32.198 106.62 32.108 106.35 32.0181 106.125C32.5127 106.17 33.0073 106.215 33.5468 106.215" fill="white"/>
<path d="M42.8537 90.4339C46.4955 90.2541 50.9467 89.8495 55.3079 88.7254C56.5218 88.4107 56.8815 88.0061 56.5218 86.7022C55.173 82.0263 54.004 77.3503 52.7001 72.6744C52.2505 71.1008 45.2366 68.1783 43.8878 68.9876C42.0444 70.1116 40.246 71.3705 38.4026 72.4945C37.6382 72.9441 37.5034 73.5736 37.4584 74.3829C37.1437 77.5751 36.8739 80.7673 36.4693 83.9596C35.66 90.4789 35.66 90.4789 42.8537 90.4339Z" fill="white"/>
<path d="M34.7608 72.495C33.0523 72.0004 31.4787 71.371 29.8601 70.6966C28.5562 70.157 26.9826 69.7524 26.0384 71.1462C23.7454 74.5632 21.4074 77.9353 18.9346 81.2174C17.8105 82.7011 18.1702 83.5104 19.5191 84.4546C23.6555 87.422 28.4213 88.591 33.2771 89.6701C34.4011 89.9398 34.9856 89.4453 35.0755 88.3213C35.5701 83.96 36.0197 79.5539 36.4693 75.3276C36.9189 73.664 36.2445 72.9446 34.7608 72.495Z" fill="white"/>
<path d="M59.3996 65.7506C57.6911 67.2793 55.9826 68.8979 54.2291 70.3816C53.3299 71.1459 53.3299 71.8653 53.6446 72.9444C54.9035 77.3056 56.1624 81.6668 57.2415 86.1179C57.6911 87.8714 58.3205 87.8714 59.8492 87.3319C65.6042 85.2637 69.8305 81.5769 72.708 76.1366C73.2475 75.1475 73.0227 74.6978 72.3483 74.1134C68.7964 71.1459 65.1995 68.2235 61.3329 65.6607C61.0182 65.4809 60.7484 65.2561 60.3887 65.0312C59.9841 65.301 59.6694 65.4809 59.3996 65.7506Z" fill="white"/>
</g>
<path fill-rule="evenodd" clip-rule="evenodd" d="M61.2349 18.1141L83.6911 59.2924L73.6113 61.4032L73.7924 62.2682L84.4544 60.0356L98.5208 57.0901C98.4108 56.8209 98.3381 56.5326 98.3092 56.2314L84.5946 59.1032L62.0795 17.817C61.8182 17.9552 61.5343 18.0566 61.2349 18.1141ZM63.6155 14.3989L93.9942 10.8901L100.314 53.0647C100.588 52.9666 100.879 52.9064 101.182 52.8904L94.8049 10.3366L94.7416 9.91406L94.3172 9.96308L63.2643 13.5498C63.4218 13.8099 63.5413 14.0955 63.6155 14.3989ZM104.394 55.8601C104.387 55.5564 104.335 55.2638 104.245 54.9884L114.248 52.8938L114.429 53.7589L104.394 55.8601Z" fill="white"/>
<circle cx="100.872" cy="55.7322" r="1.59154" fill="white"/>
<circle cx="70.8362" cy="62.2683" r="1.59154" fill="white"/>
<circle cx="60.6579" cy="14.9597" r="1.59154" fill="white"/>
<path d="M94.1136 0.619141L95.9884 6.38917H102.055L97.1471 9.95524L99.0219 15.7253L94.1136 12.1592L89.2054 15.7253L91.0802 9.95524L86.1719 6.38917H92.2389L94.1136 0.619141Z" fill="white"/>
<path d="M84.5022 54.1406L85.5902 57.4891H89.111L86.2626 59.5586L87.3506 62.9071L84.5022 60.8376L81.6538 62.9071L82.7418 59.5586L79.8934 57.4891H83.4142L84.5022 54.1406Z" fill="white"/>
<path d="M113.358 49.0847L114.922 51.3768L117.585 50.5983L115.888 52.7935L117.451 55.0856L114.839 54.1502L113.142 56.3453L113.225 53.572L110.613 52.6365L113.276 51.858L113.358 49.0847Z" fill="white"/>
</svg>
