<svg width="260" height="314" viewBox="0 0 260 314" fill="none" xmlns="http://www.w3.org/2000/svg">
<path opacity="0.2" d="M174.743 55.3811C178.411 55.3832 185.746 82.5212 194.181 82.8879C200.929 83.1812 203.35 80.3208 203.717 78.8538C205.306 81.5434 206.798 88.023 200.05 92.4241C191.614 97.9255 216.554 100.126 216.921 115.897C217.287 131.667 200.783 135.701 197.482 133.867C194.842 132.4 179.755 127.389 172.542 125.066C174.865 132.034 179.29 148.245 178.41 157.341C177.31 168.709 178.009 146.939 213.986 162.475C230.122 169.443 202.62 239.851 200.05 239.862C197.482 239.862 178.41 224.824 178.41 210.521C178.41 199.078 181.589 194.017 183.178 192.916C178.533 194.139 169.095 195.85 168.508 192.916C167.774 189.25 163.739 216.756 138.433 224.091C140.389 234.727 139.02 258.126 117.894 266.635C124.251 276.049 136.012 297.15 132.198 306.245C127.43 317.615 102.124 315.048 100.657 306.245C99.1898 297.443 75.7178 267.736 83.4197 257.1C89.5782 248.595 90.3867 246.221 90.0212 246.097C80.241 240.473 61.7075 224.164 65.8152 203.919C59.4581 199.763 45.716 194.383 41.6082 206.119C36.4735 220.79 57.3789 221.157 64.3474 239.128C71.3157 257.099 46.3767 298.543 17.0359 258.933C16.547 257.588 16.7425 255.119 21.4363 255.999C27.3046 257.099 42.7081 249.764 15.2019 236.928C-12.3052 224.091 1.2651 174.212 26.2048 172.378C51.1442 170.544 58.4794 173.845 72.783 185.581C78.8695 180.601 92.2685 170.813 101.283 167.913C99.6424 150.206 106.956 135 102.139 144.678C97.2437 154.515 83.5084 159.434 77.2527 160.663C87.0442 136.481 121.314 111.888 102.139 125.004C82.9646 138.12 66.2375 132.382 73.989 132.382C81.7413 132.381 133.145 87.7057 108.26 104.51C83.373 121.315 63.7899 115.987 77.2527 111.888C90.7163 107.789 151.912 68.0308 117.234 89.7542C82.5564 111.477 65.4217 89.3445 77.2527 89.7542C89.0838 90.164 89.492 86.0647 117.234 70.4895C127.359 64.8053 136.113 63.7956 143.119 65.0012C132.063 76.493 116.508 110.571 108.725 129.833C105.669 139.247 102.417 160.494 113.86 170.177C112.638 161.619 111.66 140.983 117.528 126.9C117.284 130.567 117.454 139.809 120.094 147.438C123.884 125.799 134.032 80.7609 144.302 73.719C154.571 66.6775 159.094 72.4965 160.072 76.2864C160.665 74.063 160.699 70.196 158.413 66.7756C159.079 66.631 159.754 66.5007 160.439 66.384C163.985 62.7164 171.809 55.3811 174.743 55.3811Z" fill="white"/>
<ellipse cx="181.936" cy="108.279" rx="3.49954" ry="3.56061" fill="white"/>
<path d="M29.0444 183.781L73.1265 195.043C72.9088 195.732 72.7888 196.465 72.7837 197.227L29.5337 186.177L18.0933 225.863L15.978 225.253L27.7144 184.542L28.0103 183.517L29.0444 183.781ZM202.953 21.8977L183.735 101.464C183.153 101.309 182.542 101.227 181.913 101.227C181.783 101.227 181.653 101.23 181.525 101.237L198.254 31.9749L172.805 86.2893L172.746 86.4163L172.656 86.5247L85.0444 192.142C84.5298 191.614 83.9365 191.166 83.2837 190.817L170.871 85.2278L200.887 21.1721L202.953 21.8977Z" fill="white"/>
<ellipse cx="79.9763" cy="197.035" rx="3.49954" ry="3.56061" fill="white"/>
<path d="M169.496 79.8053L172.961 83.6814L177.677 81.6578L175.103 86.077L178.568 89.9531L173.512 88.8082L170.938 93.2275L170.387 88.1006L165.332 86.9557L170.047 84.9321L169.496 79.8053Z" fill="white"/>
<path d="M27.193 178.097L30.6578 181.973L35.3732 179.95L32.7992 184.369L36.2641 188.245L31.2085 187.1L28.6345 191.519L28.0839 186.392L23.0283 185.247L27.7436 183.224L27.193 178.097Z" fill="white"/>
<path d="M28.0329 218.954L22.1542 226.037L26.9336 233.763L18.5209 230.414L12.6422 237.497L13.3216 228.345L4.90899 224.996L13.7415 222.688L14.4209 213.536L19.2003 221.262L28.0329 218.954Z" fill="white"/>
<path d="M209.635 7.51939L207.727 19.2216L218.075 24.6848L206.547 26.454L204.638 38.1562L199.422 27.5474L187.893 29.3167L196.198 20.9908L190.982 10.3821L201.331 15.8452L209.635 7.51939Z" fill="white"/>
<path d="M120.521 214.939L131.397 214.939L131.397 216.23L131.298 216.23C130.652 215.982 130.28 215.982 129.038 215.982L124.37 215.982L124.37 220.228L129.46 220.228L129.46 221.27L124.37 221.27L124.37 231.277L129.957 231.277C131.273 231.277 131.571 231.252 132.216 231.103L132.316 231.103L132.316 232.32L120.521 232.32L120.521 232.221C120.621 231.575 120.646 231.277 120.646 229.713L120.646 217.546C120.646 215.982 120.621 215.684 120.521 215.038L120.521 214.939ZM140.806 214.939C141.699 214.939 142.916 214.765 143.562 214.244L149.571 231.277L151.309 231.277L151.309 235.498L150.663 235.498C150.44 232.717 150.042 232.32 147.783 232.32L136.336 232.32C134.077 232.32 133.679 232.717 133.456 235.498L132.81 235.498L132.81 231.277L134.474 231.277L140.806 214.939ZM135.616 231.277L145.623 231.277L140.855 217.571L135.616 231.277ZM152.868 214.939L156.891 214.939L156.891 215.038C156.742 215.684 156.717 215.982 156.717 217.546L156.717 227.155L167.394 214.939L168.188 214.939C167.99 215.684 167.99 216.056 167.99 219.905L167.99 229.713C167.99 231.277 168.014 231.575 168.114 232.22L168.114 232.32L164.091 232.32L164.091 232.22C164.24 231.575 164.265 231.277 164.265 229.713L164.265 220.103L153.588 232.32L152.794 232.32C152.992 231.575 152.992 231.202 152.992 229.961L152.992 217.546C152.992 215.982 152.967 215.684 152.868 215.038L152.868 214.939ZM182.552 214.939L186.574 214.939L186.574 215.038C186.475 215.684 186.45 215.982 186.45 217.546L186.45 229.713C186.45 231.277 186.475 231.575 186.574 232.22L186.574 232.32L182.552 232.32L182.552 232.22C182.701 231.575 182.725 231.277 182.725 229.713L182.725 221.27L175.773 221.27L175.773 229.713C175.773 231.277 175.798 231.575 175.947 232.22L175.947 232.32L171.924 232.32L171.924 232.22C172.024 231.575 172.049 231.277 172.049 229.713L172.049 217.546C172.049 215.982 172.024 215.684 171.924 215.038L171.924 214.939L175.947 214.939L175.947 215.038C175.798 215.684 175.773 215.982 175.773 217.546L175.773 220.228L182.725 220.228L182.725 217.546C182.725 215.982 182.701 215.684 182.552 215.038L182.552 214.939ZM198.87 232.717C193.755 232.717 189.683 228.645 189.683 223.53C189.683 218.415 193.755 214.343 198.87 214.343C203.985 214.343 208.057 218.415 208.057 223.53C208.057 228.645 203.985 232.717 198.87 232.717ZM193.804 223.902C193.804 228.496 195.841 231.674 198.77 231.674C202.371 231.674 204.233 227.304 204.233 223.108C204.233 218.589 202.172 215.386 199.217 215.386C195.667 215.386 193.804 219.731 193.804 223.902ZM217.587 214.939C221.882 214.939 224.589 217 224.589 220.426C224.589 224.3 221.063 226.286 217.363 226.286C216.916 226.286 216.445 226.236 215.998 226.187L215.998 225.442L216.32 225.442C218.977 225.442 220.864 223.679 220.864 220.625C220.864 217.645 219.424 215.982 216.767 215.982L215.004 215.982L215.004 229.713C215.004 231.277 215.029 231.575 215.129 232.22L215.129 232.32L211.156 232.32L211.156 232.22C211.255 231.575 211.28 231.277 211.28 229.713L211.28 217.546C211.28 215.982 211.255 215.684 211.156 215.038L211.156 214.939L217.587 214.939ZM235.385 232.717C230.27 232.717 226.198 228.645 226.198 223.53C226.198 218.415 230.27 214.343 235.385 214.343C240.5 214.343 244.572 218.415 244.572 223.53C244.572 228.645 240.5 232.717 235.385 232.717ZM230.32 223.902C230.32 228.496 232.356 231.674 235.286 231.674C238.886 231.674 240.749 227.304 240.749 223.108C240.749 218.589 238.688 215.386 235.733 215.386C232.182 215.386 230.32 219.731 230.32 223.902ZM247.671 214.939L257.479 214.939L257.479 216.155L257.38 216.155C256.734 216.006 256.436 215.982 255.12 215.982L251.52 215.982L251.52 229.713C251.52 231.277 251.545 231.575 251.694 232.22L251.694 232.32L247.671 232.32L247.671 232.22C247.771 231.575 247.796 231.277 247.796 229.713L247.796 217.546C247.796 215.982 247.771 215.684 247.671 215.038L247.671 214.939Z" fill="#F6F1FF"/>
<path opacity="0.5" d="M142.628 253.135C141.344 253.135 140.312 252.415 139.946 251.245L140.786 250.993C141.074 251.851 141.788 252.301 142.616 252.283C143.768 252.259 144.47 251.485 144.47 250.327C144.47 249.151 143.72 248.371 142.604 248.371C142.292 248.371 141.926 248.467 141.632 248.611L141.188 247.909L144.152 245.167L140.288 245.167L140.288 244.321L145.28 244.321L145.28 245.179L142.754 247.597C144.32 247.585 145.382 248.713 145.382 250.327C145.382 251.989 144.218 253.135 142.628 253.135ZM147.179 252.955L147.185 252.151L151.091 248.623C151.757 248.023 151.925 247.495 151.925 246.895C151.925 245.827 151.103 244.987 150.041 244.987C148.937 244.987 148.121 245.875 148.133 246.889L147.233 246.889C147.233 245.311 148.451 244.141 150.053 244.141C151.625 244.141 152.819 245.359 152.819 246.901C152.819 247.987 152.435 248.587 151.595 249.337L148.523 252.109L152.819 252.109L152.819 252.955L147.179 252.955ZM157.563 253.141C155.961 253.141 154.743 251.923 154.743 250.321L154.743 246.961C154.743 245.359 155.961 244.141 157.563 244.141C159.165 244.141 160.383 245.359 160.383 246.961L160.383 250.321C160.383 251.923 159.165 253.141 157.563 253.141ZM157.563 252.289C158.625 252.289 159.489 251.425 159.489 250.363L159.489 246.919C159.489 245.851 158.625 244.987 157.563 244.987C156.501 244.987 155.637 245.851 155.637 246.919L155.637 250.363C155.637 251.425 156.501 252.289 157.563 252.289ZM164.227 248.461C163.039 248.461 162.067 247.501 162.067 246.301C162.067 245.125 163.075 244.141 164.227 244.141C165.415 244.141 166.387 245.101 166.387 246.301C166.387 247.501 165.415 248.461 164.227 248.461ZM164.227 247.663C164.965 247.663 165.589 247.039 165.589 246.301C165.589 245.563 164.965 244.939 164.227 244.939C163.489 244.939 162.865 245.563 162.865 246.301C162.865 247.039 163.489 247.663 164.227 247.663ZM171.25 253.141C169.648 253.141 168.43 251.923 168.43 250.321L168.43 246.961C168.43 245.359 169.648 244.141 171.25 244.141C172.852 244.141 174.07 245.359 174.07 246.961L174.07 250.321C174.07 251.923 172.852 253.141 171.25 253.141ZM171.25 252.289C172.312 252.289 173.176 251.425 173.176 250.363L173.176 246.919C173.176 245.851 172.312 244.987 171.25 244.987C170.188 244.987 169.324 245.851 169.324 246.919L169.324 250.363C169.324 251.425 170.188 252.289 171.25 252.289ZM179.054 253.141C177.452 253.141 176.234 251.923 176.234 250.321L176.234 246.961C176.234 245.359 177.452 244.141 179.054 244.141C180.656 244.141 181.874 245.359 181.874 246.961L181.874 250.321C181.874 251.923 180.656 253.141 179.054 253.141ZM179.054 252.289C180.116 252.289 180.98 251.425 180.98 250.363L180.98 246.919C180.98 245.851 180.116 244.987 179.054 244.987C177.992 244.987 177.128 245.851 177.128 246.919L177.128 250.363C177.128 251.425 177.992 252.289 179.054 252.289ZM184.554 244.243L185.442 244.243L184.602 247.123L183.996 247.123L184.554 244.243ZM186.078 244.243L186.966 244.243L186.126 247.123L185.52 247.123L186.078 244.243ZM191.745 249.559L191.745 248.803L196.785 248.803L196.785 249.559L191.745 249.559ZM204.03 253.135C202.746 253.135 201.714 252.415 201.348 251.245L202.188 250.993C202.476 251.851 203.19 252.301 204.018 252.283C205.17 252.259 205.872 251.485 205.872 250.327C205.872 249.151 205.122 248.371 204.006 248.371C203.694 248.371 203.328 248.467 203.034 248.611L202.59 247.909L205.554 245.167L201.69 245.167L201.69 244.321L206.682 244.321L206.682 245.179L204.156 247.597C205.722 247.585 206.784 248.713 206.784 250.327C206.784 251.989 205.62 253.135 204.03 253.135ZM211.641 253.141C210.039 253.141 208.821 251.923 208.821 250.321L208.821 246.961C208.821 245.359 210.039 244.141 211.641 244.141C213.243 244.141 214.461 245.359 214.461 246.961L214.461 250.321C214.461 251.923 213.243 253.141 211.641 253.141ZM211.641 252.289C212.703 252.289 213.567 251.425 213.567 250.363L213.567 246.919C213.567 245.851 212.703 244.987 211.641 244.987C210.579 244.987 209.715 245.851 209.715 246.919L209.715 250.363C209.715 251.425 210.579 252.289 211.641 252.289ZM218.305 248.461C217.117 248.461 216.145 247.501 216.145 246.301C216.145 245.125 217.153 244.141 218.305 244.141C219.493 244.141 220.465 245.101 220.465 246.301C220.465 247.501 219.493 248.461 218.305 248.461ZM218.305 247.663C219.043 247.663 219.667 247.039 219.667 246.301C219.667 245.563 219.043 244.939 218.305 244.939C217.567 244.939 216.943 245.563 216.943 246.301C216.943 247.039 217.567 247.663 218.305 247.663ZM225.327 253.141C223.725 253.141 222.507 251.923 222.507 250.321L222.507 246.961C222.507 245.359 223.725 244.141 225.327 244.141C226.929 244.141 228.147 245.359 228.147 246.961L228.147 250.321C228.147 251.923 226.929 253.141 225.327 253.141ZM225.327 252.289C226.389 252.289 227.253 251.425 227.253 250.363L227.253 246.919C227.253 245.851 226.389 244.987 225.327 244.987C224.265 244.987 223.401 245.851 223.401 246.919L223.401 250.363C223.401 251.425 224.265 252.289 225.327 252.289ZM233.132 253.141C231.53 253.141 230.312 251.923 230.312 250.321L230.312 246.961C230.312 245.359 231.53 244.141 233.132 244.141C234.734 244.141 235.952 245.359 235.952 246.961L235.952 250.321C235.952 251.923 234.734 253.141 233.132 253.141ZM233.132 252.289C234.194 252.289 235.058 251.425 235.058 250.363L235.058 246.919C235.058 245.851 234.194 244.987 233.132 244.987C232.07 244.987 231.206 245.851 231.206 246.919L231.206 250.363C231.206 251.425 232.07 252.289 233.132 252.289ZM238.632 244.243L239.52 244.243L238.68 247.123L238.074 247.123L238.632 244.243ZM240.156 244.243L241.044 244.243L240.204 247.123L239.598 247.123L240.156 244.243Z" fill="#F6F1FF"/>
</svg>
