<svg width="380" height="428" viewBox="0 0 380 428" fill="none" xmlns="http://www.w3.org/2000/svg">
<path opacity="0.2" d="M241.531 75.5C246.531 75.5 256.531 112.5 268.031 113C277.232 113.4 280.531 109.5 281.031 107.5C283.198 111.167 285.232 120 276.031 126C264.531 133.5 298.531 136.5 299.031 158C299.531 179.5 277.031 185 272.531 182.5C268.931 180.5 248.365 173.667 238.531 170.5C241.698 180 247.731 202.1 246.531 214.5C245.031 230 245.984 200.32 295.031 221.5C317.031 231 279.532 326.999 276.031 327C272.531 327 246.531 306.5 246.531 287C246.531 271.4 250.865 264.5 253.031 263C246.698 264.667 233.832 267 233.031 263C232.031 258 226.531 295.5 192.031 305.5C194.698 320 192.831 351.9 164.031 363.5C172.698 376.333 188.731 405.1 183.531 417.5C177.031 433 142.532 429.5 140.531 417.5C138.531 405.5 106.531 365 117.031 350.5C125.431 338.9 126.531 335.667 126.031 335.5C112.698 327.833 87.4315 305.6 93.0315 278C84.3648 272.333 65.6315 265 60.0315 281C53.0315 301 81.5315 301.5 91.0315 326C100.531 350.5 66.5315 407 26.5315 353C25.8648 351.167 26.1315 347.8 32.5315 349C40.5315 350.5 61.5315 340.5 24.0315 323C-13.4685 305.5 5.03151 237.5 39.0315 235C73.0315 232.5 83.0315 237 102.531 253C110.829 246.211 129.096 232.867 141.385 228.914C139.148 204.775 149.119 184.043 142.553 197.237C135.879 210.648 117.154 217.354 108.625 219.03C121.974 186.062 168.693 152.535 142.553 170.416C116.412 188.297 93.6084 180.474 104.175 180.474C114.743 180.474 184.823 119.567 150.896 142.477C116.968 165.387 90.271 158.123 108.625 152.535C126.98 146.947 210.407 92.7449 163.131 122.36C115.855 151.976 92.4958 121.802 108.625 122.36C124.754 122.919 125.311 117.331 163.131 96.0977C176.933 88.3487 188.868 86.9729 198.418 88.6162C183.346 104.284 162.141 150.741 151.531 177C147.365 189.833 142.932 218.8 158.531 232C156.865 220.333 155.532 192.2 163.531 173C163.198 178 163.432 190.6 167.031 201C172.198 171.5 186.032 110.1 200.031 100.5C214.031 90.9001 220.198 98.8333 221.531 104C222.34 100.969 222.387 95.697 219.271 91.0342C220.178 90.8371 221.098 90.659 222.031 90.5C226.865 85.5 237.532 75.5 241.531 75.5Z" fill="white"/>
<g filter="url(#filter0_f_31_425)">
<ellipse cx="251.338" cy="147.615" rx="4.77087" ry="4.85413" fill="white"/>
<path d="M42.9026 250.547L103 265.899C102.704 266.839 102.539 267.838 102.532 268.876L43.5696 253.812L27.9729 307.915L25.0901 307.085L41.0901 251.585L41.4934 250.187L42.9026 250.547ZM279.99 29.8525L253.79 138.325C252.997 138.114 252.165 138 251.307 138C251.13 138 250.953 138.004 250.779 138.014L273.584 43.5928L238.89 117.637L238.809 117.811L238.686 117.958L119.247 261.943C118.546 261.224 117.737 260.613 116.847 260.138L236.253 116.189L277.173 28.8633L279.99 29.8525Z" fill="white"/>
<ellipse cx="112.338" cy="268.615" rx="4.77087" ry="4.85413" fill="white"/>
<path d="M234.379 108.797L239.103 114.082L245.531 111.323L242.022 117.347L246.746 122.632L239.854 121.071L236.345 127.096L235.594 120.106L228.702 118.545L235.13 115.787L234.379 108.797Z" fill="white"/>
<path d="M40.3793 242.797L45.1029 248.082L51.5313 245.323L48.0223 251.347L52.7459 256.632L45.8536 255.071L42.3446 261.096L41.5939 254.106L34.7017 252.545L41.13 249.787L40.3793 242.797Z" fill="white"/>
<path d="M41.5245 298.497L33.5101 308.153L40.0258 318.685L28.557 314.121L20.5426 323.777L21.4688 311.299L10 306.735L22.0413 303.588L22.9675 291.111L29.4832 301.643L41.5245 298.497Z" fill="white"/>
<path d="M289.101 10.2511L286.498 26.2046L300.607 33.6524L284.89 36.0644L282.288 52.0179L275.177 37.5551L259.46 39.967L270.782 28.6165L263.671 14.1537L277.779 21.6016L289.101 10.2511Z" fill="white"/>
</g>
<ellipse cx="251.338" cy="147.615" rx="4.77087" ry="4.85413" fill="white"/>
<path d="M42.9026 250.547L103 265.899C102.704 266.839 102.539 267.838 102.532 268.876L43.5696 253.812L27.9729 307.915L25.0901 307.085L41.0901 251.585L41.4934 250.187L42.9026 250.547ZM279.99 29.8525L253.79 138.325C252.997 138.114 252.165 138 251.307 138C251.13 138 250.953 138.004 250.779 138.014L273.584 43.5928L238.89 117.637L238.809 117.811L238.686 117.958L119.247 261.943C118.546 261.224 117.737 260.613 116.847 260.138L236.253 116.189L277.173 28.8633L279.99 29.8525Z" fill="white"/>
<ellipse cx="112.338" cy="268.615" rx="4.77087" ry="4.85413" fill="white"/>
<path d="M234.379 108.797L239.103 114.082L245.531 111.323L242.022 117.347L246.746 122.632L239.854 121.071L236.345 127.096L235.594 120.106L228.702 118.545L235.13 115.787L234.379 108.797Z" fill="white"/>
<path d="M40.3793 242.797L45.1029 248.082L51.5313 245.323L48.0223 251.347L52.7459 256.632L45.8536 255.071L42.3446 261.096L41.5939 254.106L34.7017 252.545L41.13 249.787L40.3793 242.797Z" fill="white"/>
<path d="M41.5245 298.497L33.5101 308.153L40.0258 318.685L28.557 314.121L20.5426 323.777L21.4688 311.299L10 306.735L22.0413 303.588L22.9675 291.111L29.4832 301.643L41.5245 298.497Z" fill="white"/>
<path d="M289.101 10.2511L286.498 26.2046L300.607 33.6524L284.89 36.0644L282.288 52.0179L275.177 37.5551L259.46 39.967L270.782 28.6165L263.671 14.1537L277.779 21.6016L289.101 10.2511Z" fill="white"/>
<g filter="url(#filter1_f_31_425)">
<path d="M145.745 283.877L163.968 283.877L163.968 286.041L163.801 286.041C162.72 285.625 162.095 285.625 160.015 285.625L152.194 285.625L152.194 292.739L160.723 292.739L160.723 294.486L152.194 294.486L152.194 311.253L161.555 311.253C163.76 311.253 164.259 311.211 165.341 310.962L165.507 310.962L165.507 313L145.745 313L145.745 312.834C145.912 311.752 145.953 311.253 145.953 308.632L145.953 288.246C145.953 285.625 145.912 285.126 145.745 284.044L145.745 283.877ZM179.732 283.877C181.23 283.877 183.269 283.586 184.35 282.713L194.419 311.253L197.331 311.253L197.331 318.326L196.249 318.326C195.875 313.666 195.209 313 191.423 313L172.244 313C168.458 313 167.792 313.666 167.418 318.326L166.336 318.326L166.336 311.253L169.123 311.253L179.732 283.877ZM171.037 311.253L187.803 311.253L179.816 288.287L171.037 311.253ZM199.944 283.877L206.684 283.877L206.684 284.044C206.434 285.126 206.392 285.625 206.392 288.246L206.392 304.347L224.282 283.877L225.613 283.877C225.281 285.126 225.281 285.75 225.281 292.198L225.281 308.632C225.281 311.253 225.322 311.752 225.489 312.834L225.489 313L218.749 313L218.749 312.834C218.998 311.752 219.04 311.253 219.04 308.632L219.04 292.531L201.15 313L199.819 313C200.152 311.752 200.152 311.128 200.152 309.048L200.152 288.246C200.152 285.625 200.11 285.126 199.944 284.044L199.944 283.877ZM249.68 283.877L256.42 283.877L256.42 284.044C256.253 285.126 256.212 285.625 256.212 288.246L256.212 308.632C256.212 311.253 256.253 311.752 256.42 312.834L256.42 313L249.68 313L249.68 312.834C249.93 311.752 249.971 311.253 249.971 308.632L249.971 294.486L238.322 294.486L238.322 308.632C238.322 311.253 238.364 311.752 238.613 312.834L238.613 313L231.873 313L231.873 312.834C232.04 311.752 232.081 311.253 232.081 308.632L232.081 288.246C232.081 285.625 232.04 285.126 231.873 284.044L231.873 283.877L238.613 283.877L238.613 284.044C238.364 285.126 238.322 285.625 238.322 288.246L238.322 292.739L249.971 292.739L249.971 288.246C249.971 285.625 249.93 285.126 249.68 284.044L249.68 283.877ZM277.022 313.666C268.451 313.666 261.628 306.843 261.628 298.272C261.628 289.702 268.451 282.879 277.022 282.879C285.592 282.879 292.415 289.702 292.415 298.272C292.415 306.843 285.592 313.666 277.022 313.666ZM268.535 298.896C268.535 306.593 271.946 311.918 276.855 311.918C282.888 311.918 286.008 304.596 286.008 297.565C286.008 289.993 282.555 284.626 277.604 284.626C271.655 284.626 268.535 291.907 268.535 298.896ZM308.383 283.877C315.581 283.877 320.115 287.331 320.115 293.072C320.115 299.562 314.208 302.89 308.009 302.89C307.26 302.89 306.469 302.807 305.72 302.724L305.72 301.476L306.261 301.476C310.713 301.476 313.875 298.522 313.875 293.405C313.875 288.412 311.462 285.625 307.01 285.625L304.056 285.625L304.056 308.632C304.056 311.253 304.098 311.752 304.264 312.834L304.264 313L297.608 313L297.608 312.834C297.774 311.752 297.816 311.253 297.816 308.632L297.816 288.246C297.816 285.625 297.774 285.126 297.608 284.044L297.608 283.877L308.383 283.877ZM338.206 313.666C329.635 313.666 322.812 306.843 322.812 298.272C322.812 289.702 329.635 282.879 338.206 282.879C346.776 282.879 353.599 289.702 353.599 298.272C353.599 306.843 346.776 313.666 338.206 313.666ZM329.718 298.896C329.718 306.593 333.13 311.918 338.039 311.918C344.072 311.918 347.192 304.596 347.192 297.565C347.192 289.993 343.739 284.626 338.788 284.626C332.839 284.626 329.718 291.907 329.718 298.896ZM358.792 283.877L375.225 283.877L375.225 285.916L375.059 285.916C373.977 285.666 373.478 285.625 371.273 285.625L365.24 285.625L365.24 308.632C365.24 311.253 365.282 311.752 365.531 312.834L365.531 313L358.792 313L358.792 312.834C358.958 311.752 359 311.253 359 308.632L359 288.246C359 285.625 358.958 285.126 358.792 284.044L358.792 283.877Z" fill="#F6F1FF"/>
</g>
<path d="M145.745 283.877L163.968 283.877L163.968 286.041L163.801 286.041C162.72 285.625 162.095 285.625 160.015 285.625L152.194 285.625L152.194 292.739L160.723 292.739L160.723 294.486L152.194 294.486L152.194 311.253L161.555 311.253C163.76 311.253 164.259 311.211 165.341 310.962L165.507 310.962L165.507 313L145.745 313L145.745 312.834C145.912 311.752 145.953 311.253 145.953 308.632L145.953 288.246C145.953 285.625 145.912 285.126 145.745 284.044L145.745 283.877ZM179.732 283.877C181.23 283.877 183.269 283.586 184.35 282.713L194.419 311.253L197.331 311.253L197.331 318.326L196.249 318.326C195.875 313.666 195.209 313 191.423 313L172.244 313C168.458 313 167.792 313.666 167.418 318.326L166.336 318.326L166.336 311.253L169.123 311.253L179.732 283.877ZM171.037 311.253L187.803 311.253L179.816 288.287L171.037 311.253ZM199.944 283.877L206.684 283.877L206.684 284.044C206.434 285.126 206.392 285.625 206.392 288.246L206.392 304.347L224.282 283.877L225.613 283.877C225.281 285.126 225.281 285.75 225.281 292.198L225.281 308.632C225.281 311.253 225.322 311.752 225.489 312.834L225.489 313L218.749 313L218.749 312.834C218.998 311.752 219.04 311.253 219.04 308.632L219.04 292.531L201.15 313L199.819 313C200.152 311.752 200.152 311.128 200.152 309.048L200.152 288.246C200.152 285.625 200.11 285.126 199.944 284.044L199.944 283.877ZM249.68 283.877L256.42 283.877L256.42 284.044C256.253 285.126 256.212 285.625 256.212 288.246L256.212 308.632C256.212 311.253 256.253 311.752 256.42 312.834L256.42 313L249.68 313L249.68 312.834C249.93 311.752 249.971 311.253 249.971 308.632L249.971 294.486L238.322 294.486L238.322 308.632C238.322 311.253 238.364 311.752 238.613 312.834L238.613 313L231.873 313L231.873 312.834C232.04 311.752 232.081 311.253 232.081 308.632L232.081 288.246C232.081 285.625 232.04 285.126 231.873 284.044L231.873 283.877L238.613 283.877L238.613 284.044C238.364 285.126 238.322 285.625 238.322 288.246L238.322 292.739L249.971 292.739L249.971 288.246C249.971 285.625 249.93 285.126 249.68 284.044L249.68 283.877ZM277.022 313.666C268.451 313.666 261.628 306.843 261.628 298.272C261.628 289.702 268.451 282.879 277.022 282.879C285.592 282.879 292.415 289.702 292.415 298.272C292.415 306.843 285.592 313.666 277.022 313.666ZM268.535 298.896C268.535 306.593 271.946 311.918 276.855 311.918C282.888 311.918 286.008 304.596 286.008 297.565C286.008 289.993 282.555 284.626 277.604 284.626C271.655 284.626 268.535 291.907 268.535 298.896ZM308.383 283.877C315.581 283.877 320.115 287.331 320.115 293.072C320.115 299.562 314.208 302.89 308.009 302.89C307.26 302.89 306.469 302.807 305.72 302.724L305.72 301.476L306.261 301.476C310.713 301.476 313.875 298.522 313.875 293.405C313.875 288.412 311.462 285.625 307.01 285.625L304.056 285.625L304.056 308.632C304.056 311.253 304.098 311.752 304.264 312.834L304.264 313L297.608 313L297.608 312.834C297.774 311.752 297.816 311.253 297.816 308.632L297.816 288.246C297.816 285.625 297.774 285.126 297.608 284.044L297.608 283.877L308.383 283.877ZM338.206 313.666C329.635 313.666 322.812 306.843 322.812 298.272C322.812 289.702 329.635 282.879 338.206 282.879C346.776 282.879 353.599 289.702 353.599 298.272C353.599 306.843 346.776 313.666 338.206 313.666ZM329.718 298.896C329.718 306.593 333.13 311.918 338.039 311.918C344.072 311.918 347.192 304.596 347.192 297.565C347.192 289.993 343.739 284.626 338.788 284.626C332.839 284.626 329.718 291.907 329.718 298.896ZM358.792 283.877L375.225 283.877L375.225 285.916L375.059 285.916C373.977 285.666 373.478 285.625 371.273 285.625L365.24 285.625L365.24 308.632C365.24 311.253 365.282 311.752 365.531 312.834L365.531 313L358.792 313L358.792 312.834C358.958 311.752 359 311.253 359 308.632L359 288.246C359 285.625 358.958 285.126 358.792 284.044L358.792 283.877Z" fill="#F6F1FF"/>
<path opacity="0.5" d="M182.205 346.88C180.054 346.88 178.325 345.674 177.712 343.714L179.119 343.292C179.602 344.729 180.798 345.483 182.185 345.453C184.115 345.413 185.291 344.116 185.291 342.176C185.291 340.205 184.035 338.898 182.165 338.898C181.642 338.898 181.029 339.059 180.536 339.301L179.793 338.124L184.759 333.53L178.285 333.53L178.285 332.113L186.649 332.113L186.649 333.55L182.416 337.602C185.04 337.582 186.819 339.471 186.819 342.176C186.819 344.96 184.869 346.88 182.205 346.88ZM189.83 346.579L189.84 345.232L196.384 339.321C197.5 338.315 197.782 337.431 197.782 336.425C197.782 334.636 196.405 333.229 194.625 333.229C192.775 333.229 191.408 334.716 191.428 336.415L189.92 336.415C189.92 333.772 191.961 331.811 194.645 331.811C197.279 331.811 199.28 333.852 199.28 336.435C199.28 338.255 198.636 339.26 197.229 340.517L192.082 345.161L199.28 345.161L199.28 346.579L189.83 346.579ZM207.228 346.89C204.544 346.89 202.503 344.85 202.503 342.166L202.503 336.536C202.503 333.852 204.544 331.811 207.228 331.811C209.912 331.811 211.953 333.852 211.953 336.536L211.953 342.166C211.953 344.85 209.912 346.89 207.228 346.89ZM207.228 345.463C209.007 345.463 210.455 344.015 210.455 342.236L210.455 336.466C210.455 334.676 209.007 333.229 207.228 333.229C205.448 333.229 204.001 334.676 204.001 336.466L204.001 342.236C204.001 344.015 205.448 345.463 207.228 345.463ZM218.393 339.049C216.403 339.049 214.774 337.441 214.774 335.43C214.774 333.46 216.463 331.811 218.393 331.811C220.384 331.811 222.012 333.42 222.012 335.43C222.012 337.441 220.384 339.049 218.393 339.049ZM218.393 337.712C219.63 337.712 220.675 336.667 220.675 335.43C220.675 334.194 219.63 333.148 218.393 333.148C217.157 333.148 216.111 334.194 216.111 335.43C216.111 336.667 217.157 337.712 218.393 337.712ZM230.159 346.89C227.475 346.89 225.434 344.85 225.434 342.166L225.434 336.536C225.434 333.852 227.475 331.811 230.159 331.811C232.843 331.811 234.884 333.852 234.884 336.536L234.884 342.166C234.884 344.85 232.843 346.89 230.159 346.89ZM230.159 345.463C231.938 345.463 233.386 344.015 233.386 342.236L233.386 336.466C233.386 334.676 231.938 333.229 230.159 333.229C228.38 333.229 226.932 334.676 226.932 336.466L226.932 342.236C226.932 344.015 228.38 345.463 230.159 345.463ZM243.235 346.89C240.551 346.89 238.51 344.85 238.51 342.166L238.51 336.536C238.51 333.852 240.551 331.811 243.235 331.811C245.919 331.811 247.96 333.852 247.96 336.536L247.96 342.166C247.96 344.85 245.919 346.89 243.235 346.89ZM243.235 345.463C245.014 345.463 246.462 344.015 246.462 342.236L246.462 336.466C246.462 334.676 245.014 333.229 243.235 333.229C241.456 333.229 240.008 334.676 240.008 336.466L240.008 342.236C240.008 344.015 241.456 345.463 243.235 345.463ZM252.45 331.982L253.938 331.982L252.531 336.807L251.515 336.807L252.45 331.982ZM255.004 331.982L256.492 331.982L255.084 336.807L254.069 336.807L255.004 331.982ZM264.499 340.889L264.499 339.622L272.943 339.622L272.943 340.889L264.499 340.889ZM285.082 346.88C282.931 346.88 281.201 345.674 280.588 343.714L281.996 343.292C282.478 344.729 283.674 345.483 285.062 345.453C286.992 345.413 288.168 344.116 288.168 342.176C288.168 340.205 286.911 338.898 285.042 338.898C284.519 338.898 283.906 339.059 283.413 339.301L282.669 338.124L287.635 333.53L281.161 333.53L281.161 332.113L289.525 332.113L289.525 333.55L285.293 337.602C287.917 337.581 289.696 339.471 289.696 342.176C289.696 344.96 287.746 346.88 285.082 346.88ZM297.834 346.89C295.149 346.89 293.109 344.85 293.109 342.166L293.109 336.536C293.109 333.852 295.149 331.811 297.834 331.811C300.518 331.811 302.558 333.852 302.558 336.536L302.558 342.166C302.558 344.85 300.518 346.89 297.834 346.89ZM297.834 345.463C299.613 345.463 301.06 344.015 301.06 342.236L301.06 336.466C301.06 334.676 299.613 333.229 297.834 333.229C296.054 333.229 294.607 334.676 294.607 336.466L294.607 342.236C294.607 344.015 296.054 345.463 297.834 345.463ZM308.999 339.049C307.009 339.049 305.38 337.441 305.38 335.43C305.38 333.46 307.069 331.811 308.999 331.811C310.99 331.811 312.618 333.42 312.618 335.43C312.618 337.441 310.99 339.049 308.999 339.049ZM308.999 337.712C310.236 337.712 311.281 336.667 311.281 335.43C311.281 334.194 310.236 333.148 308.999 333.148C307.763 333.148 306.717 334.194 306.717 335.43C306.717 336.667 307.763 337.712 308.999 337.712ZM320.765 346.89C318.081 346.89 316.04 344.85 316.04 342.166L316.04 336.536C316.04 333.852 318.081 331.811 320.765 331.811C323.449 331.811 325.49 333.852 325.49 336.536L325.49 342.166C325.49 344.85 323.449 346.89 320.765 346.89ZM320.765 345.463C322.544 345.463 323.992 344.015 323.992 342.236L323.992 336.466C323.992 334.676 322.544 333.229 320.765 333.229C318.986 333.229 317.538 334.676 317.538 336.466L317.538 342.236C317.538 344.015 318.986 345.463 320.765 345.463ZM333.841 346.89C331.157 346.89 329.116 344.85 329.116 342.166L329.116 336.536C329.116 333.852 331.157 331.811 333.841 331.811C336.525 331.811 338.566 333.852 338.566 336.536L338.566 342.166C338.566 344.85 336.525 346.89 333.841 346.89ZM333.841 345.463C335.62 345.463 337.068 344.015 337.068 342.236L337.068 336.466C337.068 334.676 335.62 333.229 333.841 333.229C332.061 333.229 330.614 334.676 330.614 336.466L330.614 342.236C330.614 344.015 332.061 345.463 333.841 345.463ZM343.056 331.982L344.544 331.982L343.137 336.807L342.121 336.807L343.056 331.982ZM345.61 331.982L347.097 331.982L345.69 336.807L344.675 336.807L345.61 331.982Z" fill="#F6F1FF"/>
<defs>
<filter id="filter0_f_31_425" x="0" y="0.250977" width="310.607" height="333.526" filterUnits="userSpaceOnUse" color-interpolation-filters="sRGB">
<feFlood flood-opacity="0" result="BackgroundImageFix"/>
<feBlend mode="normal" in="SourceGraphic" in2="BackgroundImageFix" result="shape"/>
<feGaussianBlur stdDeviation="5" result="effect1_foregroundBlur_31_425"/>
</filter>
<filter id="filter1_f_31_425" x="141.745" y="278.712" width="237.48" height="43.613" filterUnits="userSpaceOnUse" color-interpolation-filters="sRGB">
<feFlood flood-opacity="0" result="BackgroundImageFix"/>
<feBlend mode="normal" in="SourceGraphic" in2="BackgroundImageFix" result="shape"/>
<feGaussianBlur stdDeviation="2" result="effect1_foregroundBlur_31_425"/>
</filter>
</defs>
</svg>
