<svg width="304" height="272" viewBox="0 0 304 272" fill="none" xmlns="http://www.w3.org/2000/svg">
<path opacity="0.2" d="M10.256 104.088C14.6582 101.858 18.7721 100.503 22.2184 99.7138L54.6476 226.633C56.208 232.738 62.5885 236.079 68.4237 234.214C114.091 219.615 147.486 224.741 161.476 229.977C166.376 231.81 171.845 230.107 174.953 226.126C182.295 216.721 197.23 208.243 214.652 201.332C231.802 194.529 250.315 189.641 263.689 186.906C269.664 185.684 273.559 179.711 272.016 173.669L241.472 54.1275C242.253 52.5793 243.007 50.9781 243.736 49.3398L248.991 48.1191L285.55 191.203L215.189 209.181C197.717 213.646 184.578 233.1 176.099 239.291C167.62 245.482 151.28 240.602 137.655 234.525C126.754 229.664 73.3577 244.079 48.0219 251.894L10.256 104.088ZM177.57 46.3573C166.337 61.298 160.783 75.7401 158.889 87.9555C156.18 88.0082 153.674 89.4675 152.299 91.8314C142.55 108.598 144.877 125.968 150.941 139.997C156.322 152.448 164.891 162.968 171.98 169.682L173.874 192.735C174.062 195.023 175.25 197.113 177.119 198.446C178.989 199.779 181.353 200.22 183.578 199.651L187.826 198.566C191.223 197.698 193.624 194.669 193.693 191.163L194.077 171.657C208.858 161.93 218.386 147.875 224.238 136.02C227.435 129.542 229.618 123.554 231.003 118.977C231.696 116.688 232.201 114.711 232.537 113.161C232.704 112.391 232.84 111.678 232.935 111.055C232.996 110.66 233.152 109.639 233.096 108.592C232.997 106.711 232.315 105.121 231.357 103.874C234.743 98.2261 236.787 91.9376 238.039 86.5742C239.226 81.4889 239.855 76.5784 240.141 72.5458L266.349 175.117C266.633 176.229 266.511 177.344 266.08 178.314C266.047 178.389 266.012 178.463 265.976 178.535C265.755 178.972 265.471 179.376 265.131 179.732C265.075 179.791 265.016 179.849 264.957 179.905C264.779 180.075 264.586 180.232 264.383 180.375C264.315 180.422 264.245 180.468 264.175 180.512C263.963 180.645 263.74 180.764 263.506 180.865C263.428 180.898 263.348 180.931 263.268 180.961C263.108 181.02 262.943 181.073 262.774 181.116C262.689 181.138 262.603 181.158 262.517 181.176C258.261 182.046 253.493 183.13 248.414 184.422C247.906 184.551 247.395 184.682 246.881 184.815C246.368 184.948 245.85 185.084 245.331 185.221C241.694 186.183 237.923 187.247 234.089 188.409C233.541 188.575 232.992 188.744 232.442 188.914C228.59 190.104 224.683 191.393 220.791 192.779C220.235 192.977 219.678 193.177 219.123 193.379C217.457 193.985 215.795 194.609 214.144 195.249C211.941 196.104 209.755 196.989 207.6 197.905C204.906 199.05 202.259 200.244 199.684 201.485C199.169 201.733 198.657 201.983 198.148 202.235C193.057 204.754 188.275 207.461 184 210.35C183.573 210.639 183.15 210.93 182.733 211.222C181.274 212.246 179.878 213.292 178.556 214.36C178.367 214.513 178.18 214.666 177.994 214.819C177.437 215.28 176.893 215.744 176.363 216.213C176.187 216.369 176.012 216.526 175.839 216.683C175.319 217.154 174.813 217.63 174.323 218.109C174.16 218.268 173.998 218.428 173.838 218.588C172.558 219.873 171.389 221.187 170.343 222.527C169.995 222.973 169.588 223.362 169.141 223.687C169.077 223.734 169.013 223.78 168.947 223.823C168.62 224.043 168.272 224.229 167.911 224.382C167.838 224.412 167.765 224.441 167.692 224.469C167.472 224.552 167.248 224.623 167.02 224.68C166.549 224.798 166.063 224.859 165.576 224.861C165.342 224.862 165.106 224.849 164.872 224.822C164.731 224.806 164.59 224.785 164.45 224.758C164.372 224.743 164.294 224.727 164.217 224.708C164.14 224.69 164.062 224.67 163.985 224.649C163.832 224.606 163.678 224.555 163.527 224.499C161.848 223.871 159.936 223.25 157.803 222.663C156.584 222.328 155.291 222.004 153.928 221.695C153.588 221.618 153.243 221.541 152.894 221.466C142.756 219.286 128.914 217.99 112.057 219.38C110.673 219.494 109.269 219.629 107.845 219.78C106.286 219.946 104.702 220.133 103.095 220.345C102.479 220.427 101.858 220.512 101.235 220.601C99.9899 220.778 98.7302 220.971 97.4578 221.178C96.8213 221.282 96.1806 221.389 95.5374 221.5C89.749 222.502 83.6903 223.816 77.3831 225.495C75.2807 226.055 73.1498 226.655 70.9928 227.298C70.2739 227.512 69.5513 227.732 68.8264 227.955C68.1016 228.179 67.3731 228.409 66.6424 228.643L66.3872 228.717C66.0935 228.794 65.7973 228.842 65.5038 228.865C65.4601 228.868 65.4157 228.872 65.3721 228.874C65.3474 228.876 65.3218 228.875 65.2971 228.876C65.2418 228.878 65.1859 228.88 65.1308 228.881C65.0875 228.881 65.0435 228.88 65.0003 228.879C64.9634 228.878 64.9256 228.878 64.8887 228.876C64.84 228.874 64.7906 228.87 64.7421 228.866C64.7077 228.863 64.6725 228.861 64.6383 228.858C64.5871 228.853 64.5353 228.847 64.4845 228.84C64.4577 228.837 64.4299 228.833 64.4032 228.83C64.35 228.822 64.2962 228.813 64.2434 228.804C64.2154 228.799 64.1866 228.794 64.1588 228.788C64.1106 228.779 64.0617 228.769 64.0139 228.758C63.9808 228.75 63.947 228.742 63.9141 228.734C63.8727 228.724 63.8308 228.712 63.7898 228.701C63.7528 228.691 63.7148 228.681 63.6781 228.67C63.6329 228.657 63.5875 228.641 63.5428 228.626C63.5149 228.617 63.4859 228.608 63.4581 228.598C63.4063 228.58 63.3543 228.56 63.3031 228.54C63.2808 228.532 63.2573 228.523 63.235 228.514C63.182 228.493 63.1287 228.469 63.0765 228.446C63.0547 228.436 63.0321 228.426 63.0105 228.416C62.9686 228.397 62.9264 228.376 62.8851 228.356C62.848 228.337 62.8103 228.318 62.7737 228.298C62.7363 228.279 62.6982 228.258 62.6614 228.237C62.6352 228.223 62.6082 228.207 62.5823 228.192C62.5343 228.164 62.486 228.135 62.439 228.105C62.4209 228.093 62.4024 228.081 62.3846 228.069C62.3377 228.039 62.2904 228.007 62.2446 227.975C62.2215 227.959 62.1981 227.942 62.1754 227.925C62.1348 227.896 62.094 227.865 62.0543 227.834C62.0322 227.817 62.0094 227.799 61.9875 227.782C61.9416 227.745 61.8954 227.707 61.8507 227.669C61.8402 227.659 61.8289 227.65 61.8184 227.64C61.7715 227.599 61.7245 227.557 61.6792 227.514C61.6595 227.495 61.6395 227.475 61.6201 227.456C61.5854 227.422 61.5506 227.387 61.5168 227.352C61.4961 227.33 61.4749 227.308 61.4546 227.286C60.9235 226.711 60.5216 226.001 60.3133 225.186L26.2302 91.7934C25.6298 89.4435 26.8293 87.0106 29.0917 86.1365C53.5735 76.6796 100.263 64.2461 125.784 76.8591C125.863 76.8978 125.943 76.9355 126.022 76.9706C126.21 77.0532 126.402 77.1245 126.596 77.1869C128.946 77.9462 131.642 77.2228 133.197 75.2543C140.499 66.0069 155.13 53.8188 177.57 46.3573ZM130.651 85.0499C129.427 85.3625 128.689 86.6083 129.001 87.832L162.182 217.693C162.495 218.917 163.74 219.656 164.964 219.343C166.188 219.03 166.926 217.784 166.614 216.561L133.433 86.6996C133.12 85.476 131.875 84.7373 130.651 85.0499ZM250.278 -2.00418e-05C247.509 14.9731 240.253 43.2527 230.234 57.9796C230.181 58.0572 230.128 58.1348 230.075 58.2116C229.91 58.4508 229.745 58.6864 229.578 58.9181C229.525 58.9932 229.471 59.0685 229.417 59.1428C229.358 59.2234 229.3 59.3037 229.241 59.3834C229.096 59.5795 228.951 59.7732 228.805 59.9633C228.749 60.0363 228.692 60.108 228.636 60.18C228.507 60.3456 228.378 60.5093 228.248 60.6702C228.216 60.7105 228.184 60.7516 228.151 60.7917C227.999 60.9789 227.845 61.1621 227.691 61.3426C227.632 61.412 227.574 61.4817 227.514 61.5501C227.367 61.7201 227.219 61.8868 227.071 62.0505C227.016 62.1113 226.961 62.1719 226.905 62.2318C226.744 62.4067 226.583 62.5785 226.421 62.7457C226.391 62.7765 226.36 62.8068 226.33 62.8374C226.18 62.9908 226.028 63.1403 225.877 63.2869C225.608 63.5474 225.338 63.7981 225.065 64.0365C225.039 64.0593 225.013 64.0823 224.987 64.1049C224.906 64.1754 224.824 64.2451 224.742 64.3136C224.706 64.3442 224.669 64.3749 224.632 64.4051C224.556 64.4681 224.479 64.5296 224.403 64.5908C224.364 64.6219 224.325 64.6534 224.286 64.684C224.223 64.7338 224.16 64.7829 224.096 64.8314C224.05 64.8667 224.004 64.9026 223.958 64.9373C224.156 64.8146 224.36 64.6924 224.567 64.5701C226.437 63.4649 228.621 62.4223 230.201 62.2827C231.255 62.1897 232.04 62.498 232.285 63.4548C232.315 63.5727 232.343 63.7201 232.369 63.8949C232.499 64.7711 232.573 66.3415 232.532 68.3941C232.524 68.8046 232.511 69.2346 232.493 69.682C232.368 72.8134 231.995 76.8068 231.216 81.0816C230.77 83.5246 230.192 86.0595 229.451 88.5779C229.173 89.5222 228.873 90.4642 228.548 91.3981C228.44 91.7092 228.329 92.0196 228.215 92.3288C227.988 92.9475 227.749 93.5618 227.498 94.17C227.123 95.0823 226.723 95.9814 226.294 96.8605C226.008 97.4466 225.709 98.024 225.399 98.5911C224.933 99.4414 224.438 100.269 223.914 101.067C223.301 101.998 222.648 102.89 221.951 103.734C221.055 104.818 220.087 105.822 219.042 106.727C218.229 107.43 217.369 108.073 216.46 108.647C216.331 108.729 216.2 108.81 216.069 108.889C215.543 109.205 215 109.497 214.442 109.766C215.112 109.563 215.909 109.341 216.761 109.126C217.046 109.054 217.337 108.982 217.632 108.912C219.989 108.357 222.581 107.92 224.07 108.132C224.162 108.145 224.251 108.162 224.335 108.18C224.924 108.309 225.286 108.569 225.309 109.003C225.315 109.119 225.301 109.315 225.267 109.583C225.233 109.852 225.177 110.193 225.1 110.602C224.765 112.375 224.013 115.411 222.739 119.232C222.053 121.289 221.216 123.574 220.211 126.011C220.067 126.359 219.92 126.71 219.769 127.064C219.017 128.836 218.177 130.68 217.245 132.569C217.058 132.946 216.869 133.326 216.675 133.707C213.96 139.043 210.508 144.691 206.187 150.052C205.878 150.436 205.565 150.818 205.248 151.198C204.136 152.527 202.969 153.835 201.746 155.114C201.047 155.845 200.329 156.566 199.593 157.276C199.04 157.808 198.477 158.333 197.903 158.852C197.712 159.024 197.519 159.197 197.325 159.368C195.388 161.08 193.329 162.709 191.144 164.227C190.925 164.379 190.705 164.531 190.484 164.68C189.158 165.578 187.785 166.436 186.365 167.247L186.238 173.66L185.896 191.009L181.646 192.095L180.211 174.626L179.501 165.982C178.093 164.759 176.583 163.333 175.025 161.731C174.324 161.01 173.613 160.254 172.898 159.463C170.172 156.45 167.375 152.947 164.785 149.072C164.33 148.391 163.881 147.699 163.44 146.996C162.999 146.292 162.567 145.578 162.143 144.854C161.719 144.129 161.304 143.394 160.901 142.65C160.497 141.906 160.104 141.153 159.724 140.391C158.392 137.723 157.21 134.946 156.244 132.089C155.83 130.865 155.455 129.626 155.124 128.375C155.069 128.166 155.016 127.957 154.963 127.748C154.858 127.329 154.757 126.909 154.662 126.488C154.141 124.172 153.777 121.817 153.602 119.438C153.586 119.221 153.571 119.004 153.559 118.787C153.533 118.354 153.515 117.92 153.502 117.485C153.47 116.397 153.48 115.306 153.532 114.211C153.623 112.331 153.844 110.442 154.207 108.551C154.351 107.798 154.517 107.045 154.707 106.293C154.763 106.072 154.821 105.852 154.881 105.632C154.941 105.411 155.003 105.19 155.068 104.969C155.196 104.528 155.332 104.087 155.477 103.647C155.622 103.206 155.775 102.766 155.937 102.326C156.018 102.106 156.102 101.886 156.187 101.666C156.443 101.006 156.719 100.347 157.015 99.6888C157.608 98.372 158.281 97.0585 159.041 95.7512C160.136 98.1173 162.024 101.792 163.761 104.267C164.904 105.894 165.981 107.003 166.726 106.878C166.786 106.867 166.845 106.85 166.901 106.823C166.619 105.643 166.391 104.357 166.226 102.977C166.223 102.947 166.219 102.917 166.216 102.887C165.944 100.565 165.854 97.9749 165.998 95.156C165.999 95.1336 166 95.1111 166.001 95.0887C166.044 94.274 166.106 93.4402 166.189 92.5884C166.192 92.5495 166.196 92.5106 166.2 92.4716C166.521 89.2462 167.141 85.7639 168.128 82.077C168.143 82.0237 168.157 81.9702 168.171 81.9169C168.346 81.2698 168.532 80.6162 168.73 79.9569C168.744 79.9091 168.759 79.8614 168.774 79.8136C171.074 72.2053 174.93 63.8061 180.915 55.0487C180.931 55.0253 180.948 55.0022 180.964 54.9788C181.771 53.8001 182.617 52.615 183.502 51.4244C183.522 51.3972 183.542 51.3696 183.563 51.3424C184.149 50.5554 184.753 49.7658 185.375 48.9744C185.399 48.9435 185.423 48.9121 185.448 48.8812C198.29 32.5664 218.729 15.385 250.278 -2.00418e-05ZM221.376 36.3891C220.494 35.4852 219.046 35.4669 218.142 36.3485C205.271 48.8996 180.623 90.2694 181.542 157.36C181.559 158.623 182.598 159.633 183.86 159.616C185.123 159.599 186.134 158.561 186.116 157.298C185.211 91.2455 209.507 51.1574 221.335 39.6228C222.239 38.741 222.258 37.2934 221.376 36.3891Z" fill="white"/>
<path d="M130.437 135.318L130.123 140.256L134.722 142.08L129.929 143.308L129.616 148.246L126.967 144.067L122.174 145.294L125.33 141.484L122.681 137.305L127.281 139.129L130.437 135.318Z" fill="white"/>
<path d="M47.9429 99.327L47.6294 104.265L52.2287 106.089L47.4357 107.317L47.1222 112.254L44.4735 108.075L39.6805 109.303L42.8364 105.493L40.1877 101.314L44.7869 103.138L47.9429 99.327Z" fill="white"/>
<path d="M64.9458 206.125L72.0571 209.224L77.2019 203.419L76.452 211.14L83.5633 214.239L75.9886 215.911L75.2387 223.632L71.3072 216.945L63.7325 218.618L68.8773 212.812L64.9458 206.125Z" fill="white"/>
<path d="M222.011 54.0913L224.234 71.6068L241.58 74.9049L225.608 82.4319L227.832 99.9475L215.738 87.0839L199.767 94.6109L208.263 79.1338L196.169 66.2703L213.514 69.5684L222.011 54.0913Z" fill="white"/>
<circle cx="117.567" cy="94.4138" r="3.79039" fill="white"/>
<circle cx="59.629" cy="153.114" r="3.79039" fill="white"/>
<path d="M128.634 140.668C129.1 140.585 129.57 140.799 129.814 141.206C130.058 141.612 130.026 142.127 129.733 142.5L74.4626 212.878L175.371 192.969C175.443 193.75 175.629 194.497 175.915 195.194L71.8796 215.719C71.4106 215.811 70.9332 215.602 70.6833 215.194C70.4339 214.787 70.4644 214.266 70.7595 213.89L126.084 143.442L67.2654 153.878C67.3332 153.465 67.3708 153.041 67.3708 152.609C67.3708 152.25 67.343 151.896 67.2957 151.55L128.634 140.668ZM216.552 80.8552C216.736 80.2513 217.375 79.9106 217.979 80.0945C218.583 80.2786 218.924 80.9174 218.74 81.5212L187.031 185.552C186.376 185.167 185.66 184.876 184.9 184.696L216.552 80.8552ZM111.376 98.6306C111.842 99.2389 112.397 99.7751 113.02 100.222L65.8464 147.989C65.3901 147.374 64.8444 146.829 64.2292 146.372L111.376 98.6306ZM109.802 93.2791C109.786 93.4872 109.775 93.6975 109.775 93.9099C109.775 94.4802 109.838 95.0358 109.955 95.571L44.4001 106.33C43.777 106.432 43.1889 106.01 43.0867 105.386C42.9849 104.764 43.4064 104.175 44.0291 104.073L109.802 93.2791Z" fill="white"/>
<circle cx="183.127" cy="192.755" r="3.79039" fill="white"/>
<path d="M4.76883 19.8221L19.4185 19.8221L19.4185 19.9214C19.3192 20.567 19.2944 20.865 19.2944 22.4293L19.2944 34.596C19.2944 36.1603 19.3192 36.4582 19.4185 37.1038L19.4185 37.2031L15.3961 37.2031L15.3961 37.1038C15.5451 36.4582 15.5699 36.1603 15.5699 34.596L15.5699 20.865L8.61748 20.865L8.61749 34.596C8.61749 36.1603 8.64232 36.4582 8.7913 37.1038L8.7913 37.2031L4.76884 37.2031L4.76884 37.1038C4.86816 36.4582 4.89299 36.1603 4.89299 34.596L4.89298 22.4293C4.89298 20.865 4.86815 20.567 4.76883 19.9214L4.76883 19.8221ZM23.2224 19.8221L27.2448 19.8221L27.2448 19.9214C27.0959 20.567 27.071 20.865 27.071 22.4293L27.071 32.0385L37.7479 19.8221L38.5425 19.8221C38.3438 20.567 38.3438 20.9395 38.3438 24.7881L38.3438 34.596C38.3438 36.1603 38.3687 36.4582 38.468 37.1038L38.468 37.2031L34.4455 37.2031L34.4455 37.1038C34.5945 36.4582 34.6193 36.1603 34.6193 34.596L34.6193 24.9868L23.9424 37.2031L23.1479 37.2031C23.3465 36.4582 23.3465 36.0858 23.3465 34.8443L23.3465 22.4293C23.3465 20.865 23.3217 20.567 23.2224 19.9214L23.2224 19.8221ZM57.7229 22.0816L57.7229 25.5082L57.1518 25.5082C56.7297 22.2058 54.2467 20.269 51.714 20.269C48.7096 20.269 45.6307 22.8514 45.6307 28.7857C45.6307 34.1739 48.4116 36.5575 51.2919 36.5575C53.7749 36.5575 56.3324 34.6953 57.1518 31.4922L57.7229 31.4922L57.7229 34.7449C56.0344 36.4085 53.5763 37.6004 50.7953 37.6004C45.6803 37.6004 41.6579 33.5283 41.6579 28.4133C41.6579 23.2983 45.6803 19.2262 50.7953 19.2262C53.6011 19.2262 56.0593 20.418 57.7229 22.0816ZM66.3529 19.8221C67.2467 19.8221 68.4634 19.6483 69.109 19.1269L74.5964 34.596C75.3165 36.6568 75.4903 36.9548 75.5648 37.1038L75.5648 37.2031L71.1451 37.2031L71.1451 37.1038C71.1451 36.9548 71.3437 36.6568 70.6236 34.596L70.0525 32.9323L62.4049 32.9323L61.7841 34.596C60.9896 36.6568 61.1137 36.9548 61.1137 37.1038L61.1137 37.2031L59.5494 37.2031L59.5494 37.1038C59.6239 36.9548 59.8226 36.6568 60.6171 34.596L66.3529 19.8221ZM62.8022 31.8895L69.6801 31.8895L66.4025 22.4541L62.8022 31.8895ZM76.8214 19.8221L88.2432 19.8221L88.2432 21.0388L88.1439 21.0388C87.4983 20.8898 87.2004 20.865 85.8844 20.865L84.3946 20.865L84.3946 34.5959C84.3946 36.1106 84.4194 36.3837 84.5436 36.9796L84.5684 37.1038L84.5684 37.2031L80.4963 37.2031L80.4963 37.1038L80.5211 36.9796C80.6452 36.3837 80.6701 36.1106 80.6701 34.5959L80.6701 20.865L79.1803 20.865C77.8643 20.865 77.5663 20.8898 76.9207 21.0388L76.8214 21.0388L76.8214 19.8221ZM90.6021 19.8221L101.478 19.8221L101.478 21.1133L101.378 21.1133C100.733 20.865 100.36 20.865 99.1188 20.865L94.4507 20.865L94.4507 25.1109L99.5409 25.1109L99.5409 26.1537L94.4507 26.1537L94.4507 36.1602L100.037 36.1602C101.353 36.1602 101.651 36.1354 102.297 35.9864L102.396 35.9864L102.396 37.2031L90.6021 37.2031L90.6021 37.1038C90.7014 36.4582 90.7262 36.1602 90.7262 34.5959L90.7262 22.4292C90.7262 20.865 90.7014 20.567 90.6021 19.9214L90.6021 19.8221ZM117.173 37.2031L112.729 37.2031L112.729 37.1038C112.729 36.9548 112.977 36.6817 112.282 34.5959L108.209 22.5782L103.839 34.5959C103.094 36.6568 103.219 36.9548 103.219 37.1038L103.219 37.2031L101.654 37.2031L101.654 37.1038C101.729 36.9548 101.927 36.6568 102.697 34.5959L108.209 19.8221C109.103 19.8221 110.32 19.6483 110.966 19.1268L116.23 34.5959C116.925 36.6817 117.099 36.9548 117.173 37.1038L117.173 37.2031ZM119.286 19.8221L123.308 19.8221L123.308 19.9214C123.159 20.567 123.134 20.8649 123.134 22.4292L123.134 36.1602L124.773 36.1602C127.628 36.1602 129.044 33.8262 129.044 31.4922C129.044 29.0837 127.529 26.6503 124.475 26.6503L124.127 26.6503L124.127 25.9054C124.723 25.8309 125.294 25.7813 125.89 25.7813C129.441 25.7813 132.719 27.2959 132.719 31.0701C132.719 34.9187 130.012 37.2031 125.419 37.2031L119.286 37.2031L119.286 37.1038C119.385 36.4582 119.41 36.1602 119.41 34.5959L119.41 22.4292C119.41 20.8649 119.385 20.567 119.286 19.9214L119.286 19.8221Z" fill="#F6F1FF"/>
<path opacity="0.5" d="M18.0259 57.8384L18.0319 57.0344L21.9379 53.5064C22.6039 52.9064 22.7719 52.3784 22.7719 51.7784C22.7719 50.7104 21.9499 49.8704 20.8879 49.8704C19.7839 49.8704 18.9679 50.7584 18.9799 51.7724L18.0799 51.7724C18.0799 50.1944 19.2979 49.0244 20.8999 49.0244C22.4719 49.0244 23.6659 50.2424 23.6659 51.7844C23.6659 52.8704 23.2819 53.4704 22.4419 54.2204L19.3699 56.9924L23.6659 56.9924L23.6659 57.8384L18.0259 57.8384ZM29.1593 57.8444L29.1593 56.1704L25.1153 56.1704L25.1153 55.3304L28.0073 49.2044L28.9973 49.2044L26.1053 55.3304L29.1593 55.3304L29.1593 52.8104L30.0473 52.8104L30.0473 55.3304L30.9893 55.3304L30.9893 56.1704L30.0473 56.1704L30.0473 57.8444L29.1593 57.8444ZM35.7334 58.0244C34.1314 58.0244 32.9134 56.8064 32.9134 55.2044L32.9134 51.8444C32.9134 50.2424 34.1314 49.0244 35.7334 49.0244C37.3354 49.0244 38.5534 50.2424 38.5534 51.8444L38.5534 55.2044C38.5534 56.8064 37.3354 58.0244 35.7334 58.0244ZM35.7334 57.1724C36.7954 57.1724 37.6594 56.3084 37.6594 55.2464L37.6594 51.8024C37.6594 50.7344 36.7954 49.8704 35.7334 49.8704C34.6714 49.8704 33.8074 50.7344 33.8074 51.8024L33.8074 55.2464C33.8074 56.3084 34.6714 57.1724 35.7334 57.1724ZM42.3976 53.3444C41.2096 53.3444 40.2376 52.3844 40.2376 51.1844C40.2376 50.0084 41.2456 49.0244 42.3976 49.0244C43.5856 49.0244 44.5576 49.9844 44.5576 51.1844C44.5576 52.3844 43.5856 53.3444 42.3976 53.3444ZM42.3976 52.5464C43.1356 52.5464 43.7596 51.9224 43.7596 51.1844C43.7596 50.4464 43.1356 49.8224 42.3976 49.8224C41.6596 49.8224 41.0356 50.4464 41.0356 51.1844C41.0356 51.9224 41.6596 52.5464 42.3976 52.5464ZM49.4199 58.0243C47.8179 58.0243 46.5999 56.8064 46.5999 55.2044L46.5999 51.8444C46.5999 50.2423 47.8179 49.0243 49.4199 49.0243C51.0219 49.0243 52.2399 50.2423 52.2399 51.8443L52.2399 55.2043C52.2399 56.8063 51.0219 58.0243 49.4199 58.0243ZM49.4199 57.1723C50.4819 57.1723 51.3459 56.3083 51.3459 55.2463L51.3459 51.8023C51.3459 50.7343 50.4819 49.8703 49.4199 49.8703C48.3579 49.8703 47.4939 50.7343 47.4939 51.8023L47.4939 55.2463C47.4939 56.3083 48.3579 57.1723 49.4199 57.1723ZM57.2242 58.0243C55.6222 58.0243 54.4042 56.8063 54.4042 55.2043L54.4042 51.8443C54.4042 50.2423 55.6222 49.0243 57.2242 49.0243C58.8262 49.0243 60.0442 50.2423 60.0442 51.8443L60.0442 55.2043C60.0442 56.8063 58.8262 58.0243 57.2242 58.0243ZM57.2242 57.1723C58.2862 57.1723 59.1502 56.3083 59.1502 55.2463L59.1502 51.8023C59.1502 50.7343 58.2862 49.8703 57.2242 49.8703C56.1622 49.8703 55.2982 50.7343 55.2982 51.8023L55.2982 55.2463C55.2982 56.3083 56.1622 57.1723 57.2242 57.1723ZM62.7244 49.1263L63.6124 49.1263L62.7724 52.0063L62.1664 52.0063L62.7244 49.1263ZM64.2484 49.1263L65.1364 49.1263L64.2964 52.0063L63.6904 52.0063L64.2484 49.1263ZM69.9156 54.4423L69.9156 53.6863L74.9556 53.6863L74.9556 54.4423L69.9156 54.4423ZM82.7224 49.0303C84.3484 49.0303 85.6444 50.3263 85.6444 52.0063L85.6444 55.0063C85.6444 56.7403 84.3724 58.0243 82.6564 58.0243C81.6724 58.0243 80.7964 57.5623 80.2564 56.7943L80.9284 56.2363C81.3004 56.8063 81.9424 57.1783 82.6564 57.1783C83.8744 57.1783 84.7564 56.1943 84.7564 55.0843L84.7564 53.7583C84.2404 54.3763 83.4844 54.7783 82.6384 54.7783C81.0364 54.7783 79.8004 53.5183 79.8004 51.9163C79.8004 50.3143 81.1204 49.0303 82.7224 49.0303ZM82.7224 49.8823C81.5944 49.8823 80.6884 50.7883 80.6884 51.9163C80.6884 53.0443 81.5884 53.9503 82.7164 53.9503C83.8444 53.9503 84.7564 53.0443 84.7564 51.9163C84.7564 50.7943 83.8504 49.8823 82.7224 49.8823ZM90.6198 58.0243C89.0178 58.0243 87.7998 56.8063 87.7998 55.2043L87.7998 51.8443C87.7998 50.2423 89.0178 49.0243 90.6198 49.0243C92.2218 49.0243 93.4398 50.2423 93.4398 51.8443L93.4398 55.2043C93.4398 56.8063 92.2218 58.0243 90.6198 58.0243ZM90.6198 57.1723C91.6818 57.1723 92.5458 56.3083 92.5458 55.2463L92.5458 51.8023C92.5458 50.7343 91.6818 49.8703 90.6198 49.8703C89.5578 49.8703 88.6938 50.7343 88.6938 51.8023L88.6938 55.2463C88.6938 56.3083 89.5578 57.1723 90.6198 57.1723ZM97.284 53.3443C96.096 53.3443 95.124 52.3843 95.124 51.1843C95.124 50.0083 96.132 49.0243 97.284 49.0243C98.472 49.0243 99.444 49.9843 99.444 51.1843C99.444 52.3843 98.472 53.3443 97.284 53.3443ZM97.284 52.5463C98.022 52.5463 98.646 51.9223 98.646 51.1843C98.646 50.4463 98.022 49.8223 97.284 49.8223C96.546 49.8223 95.922 50.4463 95.922 51.1843C95.922 51.9223 96.546 52.5463 97.284 52.5463ZM104.306 58.0243C102.704 58.0243 101.486 56.8063 101.486 55.2043L101.486 51.8443C101.486 50.2423 102.704 49.0243 104.306 49.0243C105.908 49.0243 107.126 50.2423 107.126 51.8443L107.126 55.2043C107.126 56.8063 105.908 58.0243 104.306 58.0243ZM104.306 57.1723C105.368 57.1723 106.232 56.3083 106.232 55.2463L106.232 51.8023C106.232 50.7343 105.368 49.8703 104.306 49.8703C103.244 49.8703 102.38 50.7343 102.38 51.8023L102.38 55.2463C102.38 56.3083 103.244 57.1723 104.306 57.1723ZM112.111 58.0243C110.509 58.0243 109.291 56.8063 109.291 55.2043L109.291 51.8443C109.291 50.2423 110.509 49.0243 112.111 49.0243C113.713 49.0243 114.931 50.2423 114.931 51.8443L114.931 55.2043C114.931 56.8063 113.713 58.0243 112.111 58.0243ZM112.111 57.1723C113.173 57.1723 114.037 56.3083 114.037 55.2463L114.037 51.8023C114.037 50.7343 113.173 49.8703 112.111 49.8703C111.049 49.8703 110.185 50.7343 110.185 51.8023L110.185 55.2463C110.185 56.3083 111.049 57.1723 112.111 57.1723ZM117.611 49.1263L118.499 49.1263L117.659 52.0063L117.053 52.0063L117.611 49.1263ZM119.135 49.1263L120.023 49.1263L119.183 52.0063L118.577 52.0063L119.135 49.1263Z" fill="#F6F1FF"/>
</svg>
