<svg width="431" height="371" viewBox="0 0 431 371" fill="none" xmlns="http://www.w3.org/2000/svg">
<path opacity="0.2" d="M30.4231 141.901C36.4245 138.861 42.0327 137.014 46.7309 135.938L90.9411 308.965C93.068 317.289 101.766 321.843 109.722 319.3C171.979 299.398 217.506 306.385 236.579 313.523C243.259 316.023 250.715 313.702 254.952 308.274C264.962 295.452 285.323 283.894 309.073 274.473C332.453 265.198 357.692 258.533 375.924 254.805C384.07 253.138 389.38 244.997 387.275 236.759L345.635 73.7909C346.7 71.68 347.73 69.4973 348.724 67.2636L355.886 65.5998L405.727 260.664L309.805 285.173C285.986 291.259 268.074 317.781 256.514 326.222C244.955 334.661 222.68 328.008 204.104 319.724C189.242 313.098 116.448 332.749 81.9089 343.403L30.4231 141.901ZM258.524 63.1919C243.208 83.5624 235.634 103.253 233.051 119.908C229.358 119.98 225.943 121.97 224.069 125.192C210.778 148.05 213.95 171.73 222.216 190.856C229.552 207.83 241.234 222.171 250.899 231.325L253.482 262.751C253.738 265.871 255.358 268.721 257.906 270.538C260.455 272.355 263.677 272.956 266.709 272.182L272.503 270.701C277.133 269.518 280.406 265.389 280.501 260.61L281.024 234.017C301.175 220.756 314.165 201.596 322.141 185.434C326.5 176.602 329.476 168.439 331.364 162.199C332.308 159.079 332.999 156.384 333.457 154.271C333.684 153.221 333.869 152.248 333.999 151.398C334.081 150.859 334.293 149.469 334.218 148.042C334.082 145.477 333.152 143.31 331.846 141.611C336.462 133.91 339.249 125.338 340.956 118.025C342.574 111.094 343.432 104.401 343.822 98.9043L379.55 238.733C379.983 240.428 379.723 242.126 378.959 243.548C378.671 244.084 378.312 244.583 377.89 245.026C377.786 245.134 377.677 245.238 377.566 245.34C377.264 245.617 376.938 245.871 376.586 246.092C376.471 246.164 376.352 246.23 376.233 246.296C375.65 246.614 375.011 246.855 374.326 246.995C373.166 247.232 371.977 247.481 370.763 247.742C370.156 247.872 369.542 248.005 368.923 248.141C362.108 249.638 354.547 251.484 346.604 253.669C345.473 253.98 344.333 254.299 343.187 254.624C339.946 255.543 336.65 256.516 333.325 257.543C331.075 258.239 328.81 258.96 326.54 259.704C321.999 261.194 317.432 262.781 312.899 264.465C300.056 269.235 287.48 274.775 276.513 281.045C275.868 281.414 275.228 281.786 274.594 282.159C271.806 283.804 269.131 285.499 266.592 287.24C266.245 287.478 265.9 287.716 265.559 287.955C262.716 289.95 260.052 292.006 257.603 294.123C256.534 295.046 255.507 295.981 254.523 296.928C252.348 299.019 250.386 301.166 248.667 303.368C247.192 305.257 244.957 306.389 242.639 306.534C242.505 306.542 242.37 306.548 242.236 306.55C241.274 306.562 240.303 306.403 239.374 306.056C237.507 305.357 235.428 304.666 233.147 304.001C231.997 303.665 230.793 303.336 229.54 303.017C229.136 302.913 228.726 302.811 228.311 302.71C227.003 302.391 225.642 302.081 224.23 301.785C222.64 301.451 220.983 301.133 219.263 300.835C217.391 300.51 215.441 300.209 213.419 299.936C210.855 299.59 208.172 299.288 205.375 299.041C205.105 299.017 204.832 298.994 204.559 298.971C198.65 298.477 192.236 298.227 185.352 298.308C183.673 298.328 181.965 298.369 180.231 298.429C171.537 298.733 162.15 299.563 152.134 301.083C151.979 301.106 151.824 301.13 151.669 301.154C137.994 303.254 123.15 306.635 107.293 311.704C107.237 311.723 107.178 311.737 107.121 311.753L106.946 311.806C106.374 311.957 105.796 312.029 105.228 312.031C105.188 312.031 105.148 312.029 105.108 312.028C105.033 312.027 104.957 312.027 104.883 312.023C104.851 312.021 104.819 312.018 104.787 312.016C104.703 312.011 104.618 312.005 104.533 311.996C104.511 311.994 104.487 311.991 104.465 311.989C104.383 311.98 104.3 311.97 104.218 311.958C104.16 311.949 104.102 311.939 104.044 311.929C103.998 311.921 103.95 311.913 103.903 311.903C103.844 311.892 103.785 311.879 103.727 311.866C103.672 311.854 103.617 311.841 103.563 311.827C103.51 311.814 103.457 311.799 103.405 311.785C103.359 311.772 103.311 311.76 103.265 311.746C103.197 311.726 103.128 311.704 103.061 311.681C103.022 311.668 102.982 311.655 102.943 311.642C102.887 311.622 102.831 311.601 102.776 311.58C102.725 311.56 102.673 311.54 102.622 311.519C102.572 311.498 102.52 311.476 102.47 311.454C102.42 311.432 102.37 311.41 102.32 311.387C102.272 311.364 102.223 311.34 102.176 311.317C102.123 311.291 102.07 311.264 102.018 311.236C101.973 311.212 101.928 311.187 101.883 311.163C101.832 311.134 101.78 311.103 101.729 311.073C101.688 311.048 101.645 311.024 101.604 310.998C101.55 310.964 101.495 310.928 101.441 310.893C101.403 310.867 101.364 310.841 101.327 310.815C101.277 310.781 101.227 310.745 101.179 310.71C101.137 310.679 101.094 310.647 101.053 310.616C101.002 310.576 100.95 310.535 100.9 310.494C100.87 310.469 100.84 310.444 100.81 310.42C100.759 310.376 100.707 310.33 100.657 310.285C100.619 310.251 100.581 310.216 100.544 310.181C100.507 310.146 100.469 310.109 100.433 310.073C100.39 310.031 100.347 309.988 100.306 309.945C100.267 309.904 100.228 309.861 100.189 309.819C100.156 309.783 100.122 309.746 100.09 309.709C100.047 309.66 100.006 309.609 99.9647 309.559C99.9336 309.521 99.9012 309.483 99.8708 309.444C99.8417 309.407 99.8135 309.368 99.7852 309.33C99.7458 309.278 99.7057 309.224 99.6678 309.171C99.632 309.12 99.597 309.067 99.5626 309.015C99.539 308.979 99.5146 308.943 99.4917 308.907C99.4562 308.851 99.4214 308.793 99.3875 308.736C99.3606 308.691 99.3328 308.645 99.307 308.599C99.283 308.556 99.2603 308.511 99.2371 308.467C99.208 308.412 99.178 308.357 99.1503 308.301C99.069 308.137 98.9952 307.967 98.9269 307.794C98.8686 307.645 98.813 307.494 98.7647 307.34C98.7289 307.226 98.6956 307.109 98.6655 306.991L52.2007 125.14C51.3824 121.937 53.0175 118.62 56.1016 117.429C89.4773 104.536 153.128 87.586 187.921 104.781C188.216 104.927 188.519 105.053 188.826 105.161C188.901 105.187 188.979 105.212 189.055 105.236C192.124 106.216 195.618 105.345 197.763 102.908C197.774 102.894 197.787 102.881 197.798 102.868L197.977 102.652C197.993 102.632 198.01 102.613 198.026 102.592C207.981 89.9846 227.929 73.3634 258.524 63.1919ZM194.556 115.948C192.888 116.374 191.881 118.073 192.307 119.741L237.542 296.779C237.969 298.447 239.667 299.454 241.335 299.028C243.003 298.602 244.01 296.903 243.584 295.235L198.349 118.197C197.923 116.529 196.225 115.522 194.556 115.948ZM357.643 -1.16319e-06C354.352 17.7972 346.41 49.3845 335.376 70.4935C335.36 70.5243 335.345 70.5556 335.329 70.5864C334.94 71.329 334.547 72.0589 334.15 72.7744C334.092 72.8796 334.033 72.9847 333.975 73.0894C333.757 73.4783 333.539 73.8634 333.319 74.2436C333.27 74.3276 333.221 74.4112 333.172 74.4947C332.986 74.8148 332.799 75.132 332.611 75.4455C332.51 75.6143 332.409 75.7827 332.307 75.9495C332.206 76.1157 332.104 76.2813 332.003 76.4456C331.835 76.7172 331.666 76.9862 331.496 77.2524C331.402 77.4007 331.307 77.5483 331.212 77.6949C331.06 77.9307 330.907 78.1645 330.753 78.3957C330.668 78.5246 330.581 78.6526 330.496 78.78C330.333 79.0218 330.17 79.2614 330.006 79.4979C329.93 79.6068 329.855 79.716 329.78 79.8238C329.589 80.0954 329.397 80.3636 329.205 80.6278C329.097 80.7759 328.99 80.9235 328.881 81.0693C328.861 81.0966 328.841 81.1242 328.821 81.1513C328.088 82.1342 327.345 83.0621 326.592 83.93C326.55 83.9794 326.507 84.0288 326.464 84.0778C326.367 84.1886 326.269 84.2986 326.172 84.4074C326.118 84.4678 326.064 84.5282 326.01 84.588C325.915 84.6924 325.82 84.796 325.725 84.8985C325.665 84.9635 325.605 85.0286 325.545 85.0927C325.304 85.35 325.06 85.6007 324.817 85.8452C324.67 85.9929 324.523 86.1387 324.375 86.2817C324.351 86.3046 324.328 86.3283 324.304 86.3512C324.231 86.4216 324.157 86.4915 324.084 86.5608C323.973 86.6651 323.862 86.7688 323.751 86.8704C323.705 86.9128 323.658 86.954 323.611 86.9959C323.518 87.0806 323.424 87.1646 323.33 87.2473C323.253 87.3152 323.175 87.383 323.098 87.4496C323.038 87.5017 322.977 87.5536 322.916 87.6049C322.827 87.6807 322.737 87.756 322.647 87.8299C322.572 87.8916 322.497 87.9522 322.422 88.0125C322.35 88.0703 322.279 88.1288 322.207 88.1854C322.108 88.2634 322.007 88.3392 321.908 88.415C321.858 88.4526 321.809 88.4912 321.76 88.5283C324.682 86.7167 328.42 84.8512 330.817 84.8916C330.998 84.8946 331.171 84.9064 331.335 84.9318C331.412 84.9438 331.489 84.958 331.563 84.9754C331.629 84.991 331.694 85.0095 331.757 85.0295C331.831 85.0532 331.904 85.0791 331.974 85.1092C332.531 85.3496 332.931 85.7973 333.112 86.5067C334.428 91.6568 333.216 137.914 308.782 149.644C309.999 149.277 311.521 148.859 313.123 148.482C313.139 148.478 313.154 148.474 313.17 148.471C313.943 148.289 314.735 148.118 315.519 147.965C315.743 147.922 315.966 147.879 316.187 147.839C317.37 147.625 318.52 147.463 319.547 147.388C319.607 147.383 319.667 147.38 319.726 147.376C320.384 147.334 320.989 147.329 321.515 147.372C321.687 147.386 321.851 147.407 322.005 147.432C322.259 147.472 322.488 147.526 322.688 147.597C323.245 147.796 323.577 148.119 323.603 148.601C323.715 150.716 319.078 171.993 305.503 193.41C305.164 193.945 304.819 194.481 304.468 195.016C301.488 199.566 298.1 204.102 294.263 208.439C293.811 208.949 293.353 209.457 292.89 209.961C291.266 211.727 289.565 213.456 287.785 215.135C287.531 215.374 287.275 215.613 287.018 215.851C286.502 216.326 285.98 216.797 285.451 217.264C285.188 217.497 284.922 217.73 284.655 217.961C280.376 221.659 275.671 225.057 270.509 228.004L269.871 260.4L264.077 261.881L261.153 226.281C260.575 225.779 259.984 225.251 259.382 224.7C258.781 224.149 258.168 223.573 257.547 222.975C254.442 219.981 251.122 216.409 247.84 212.367C247.512 211.963 247.184 211.554 246.857 211.14C244.618 208.311 242.41 205.265 240.313 202.043C239.652 201.028 239.001 199.997 238.366 198.948C236.3 195.541 234.378 191.959 232.687 188.24C224.713 170.71 221.861 150.14 233.26 130.537C234.35 132.893 236.017 136.201 237.76 139.128C238.746 140.784 239.757 142.318 240.701 143.489C241.203 144.112 241.685 144.633 242.136 145.014C242.263 145.121 242.388 145.216 242.51 145.3C243.07 145.688 243.568 145.826 243.976 145.63C243.916 145.377 243.857 145.12 243.8 144.86C243.789 144.809 243.778 144.757 243.767 144.705C243.718 144.478 243.671 144.248 243.625 144.015C243.613 143.954 243.602 143.892 243.59 143.831C243.435 143.029 243.297 142.197 243.178 141.336C243.17 141.277 243.162 141.218 243.154 141.159C243.12 140.904 243.087 140.647 243.056 140.387C243.051 140.341 243.045 140.294 243.039 140.248C242.822 138.382 242.69 136.388 242.659 134.279C242.658 134.219 242.657 134.16 242.657 134.101C242.644 133.055 242.656 131.981 242.695 130.88C242.695 130.861 242.696 130.842 242.696 130.824C243.844 98.7801 267.41 44.0021 357.643 -1.16319e-06ZM318.241 49.6088C317.039 48.3763 315.065 48.3519 313.833 49.554C296.286 66.6647 262.683 123.064 263.937 214.528C263.96 216.25 265.375 217.626 267.097 217.603C268.819 217.579 270.195 216.164 270.172 214.442C268.938 124.394 302.06 69.7428 318.186 54.0177C319.418 52.8155 319.443 50.8416 318.241 49.6088Z" fill="white"/>
<g filter="url(#filter0_f_31_273)">
<path d="M194.264 184.477L193.837 191.209L200.107 193.696L193.573 195.37L193.146 202.101L189.535 196.404L183 198.078L187.303 192.883L183.692 187.186L189.962 189.672L194.264 184.477Z" fill="white"/>
<path d="M81.8022 135.411L81.3749 142.143L87.645 144.63L81.1108 146.303L80.6834 153.035L77.0724 147.338L70.5381 149.012L74.8406 143.817L71.2296 138.12L77.4997 140.606L81.8022 135.411Z" fill="white"/>
<path d="M104.982 281.008L114.676 285.233L121.69 277.318L120.668 287.844L130.363 292.069L120.036 294.349L119.014 304.875L113.654 295.758L103.328 298.039L110.342 290.124L104.982 281.008Z" fill="white"/>
<path d="M319.107 73.7419L322.138 97.6205L345.785 102.117L324.011 112.378L327.042 136.257L310.555 118.72L288.781 128.982L300.365 107.882L283.877 90.3453L307.524 94.8416L319.107 73.7419Z" fill="white"/>
<circle cx="176.719" cy="128.713" r="5.16739" fill="white"/>
<circle cx="97.7338" cy="208.738" r="5.16739" fill="white"/>
<path d="M191.808 191.771C192.444 191.658 193.084 191.95 193.417 192.505C193.749 193.059 193.705 193.761 193.306 194.269L117.956 290.214L255.522 263.074C255.62 264.138 255.875 265.157 256.265 266.106L114.436 294.087C113.796 294.213 113.145 293.928 112.805 293.372C112.464 292.816 112.506 292.107 112.908 291.594L188.331 195.554L108.145 209.78C108.237 209.217 108.287 208.64 108.287 208.051C108.287 207.56 108.251 207.079 108.187 206.606L191.808 191.771ZM311.665 110.229C311.916 109.406 312.787 108.941 313.61 109.192C314.434 109.443 314.898 110.314 314.647 111.137L271.42 252.962C270.527 252.437 269.551 252.039 268.516 251.794L311.665 110.229ZM168.281 134.463C168.917 135.292 169.673 136.023 170.522 136.633L106.21 201.752C105.588 200.913 104.845 200.169 104.007 199.547L168.281 134.463ZM166.135 127.167C166.112 127.45 166.098 127.737 166.098 128.026C166.098 128.804 166.184 129.562 166.343 130.292L76.9727 144.959C76.1233 145.098 75.3214 144.523 75.1816 143.674C75.0422 142.824 75.6175 142.022 76.4668 141.883L166.135 127.167Z" fill="white"/>
<circle cx="266.097" cy="262.78" r="5.16739" fill="white"/>
</g>
<path d="M194.264 184.477L193.837 191.209L200.107 193.696L193.573 195.37L193.146 202.101L189.535 196.404L183 198.078L187.303 192.883L183.692 187.186L189.962 189.672L194.264 184.477Z" fill="white"/>
<path d="M81.8022 135.411L81.3749 142.143L87.645 144.63L81.1108 146.303L80.6834 153.035L77.0724 147.338L70.5381 149.012L74.8406 143.817L71.2296 138.12L77.4997 140.606L81.8022 135.411Z" fill="white"/>
<path d="M104.982 281.008L114.676 285.233L121.69 277.318L120.668 287.844L130.363 292.069L120.036 294.349L119.014 304.875L113.654 295.758L103.328 298.039L110.342 290.124L104.982 281.008Z" fill="white"/>
<path d="M319.107 73.7419L322.138 97.6205L345.785 102.117L324.011 112.378L327.042 136.257L310.555 118.72L288.781 128.982L300.365 107.882L283.877 90.3453L307.524 94.8416L319.107 73.7419Z" fill="white"/>
<circle cx="176.719" cy="128.713" r="5.16739" fill="white"/>
<circle cx="97.7338" cy="208.738" r="5.16739" fill="white"/>
<path d="M191.807 191.771C192.444 191.658 193.084 191.95 193.417 192.504C193.749 193.059 193.704 193.761 193.305 194.269L117.956 290.213L255.523 263.074C255.621 264.138 255.876 265.156 256.265 266.106L114.435 294.086C113.796 294.212 113.145 293.927 112.804 293.372C112.464 292.816 112.505 292.107 112.908 291.594L188.331 195.554L108.144 209.78C108.237 209.217 108.288 208.639 108.288 208.05C108.288 207.56 108.251 207.078 108.186 206.606L191.807 191.771ZM311.665 110.229C311.916 109.406 312.786 108.941 313.61 109.192C314.433 109.443 314.898 110.314 314.647 111.137L271.419 252.961C270.527 252.437 269.551 252.04 268.515 251.794L311.665 110.229ZM168.281 134.462C168.916 135.291 169.672 136.022 170.522 136.631L106.209 201.752C105.587 200.913 104.845 200.169 104.006 199.546L168.281 134.462ZM166.135 127.167C166.112 127.45 166.098 127.736 166.098 128.026C166.098 128.804 166.184 129.561 166.343 130.292L76.9722 144.958C76.1229 145.098 75.3208 144.523 75.1812 143.673C75.0418 142.824 75.6172 142.022 76.4663 141.882L166.135 127.167Z" fill="white"/>
<circle cx="266.097" cy="262.78" r="5.16739" fill="white"/>
<g filter="url(#filter1_f_31_273)">
<path d="M4 17.8775L28.5463 17.8775L28.5463 18.0439C28.3799 19.1256 28.3383 19.6248 28.3383 22.2459L28.3383 42.6318C28.3383 45.2529 28.3799 45.7521 28.5464 46.8338L28.5464 47.0002L21.8065 47.0002L21.8065 46.8338C22.0561 45.7521 22.0977 45.2529 22.0977 42.6318L22.0977 19.6248L10.4486 19.6248L10.4486 42.6318C10.4486 45.2529 10.4902 45.7521 10.7399 46.8338L10.7399 47.0002L4.00001 47.0002L4.00001 46.8338C4.16643 45.7521 4.20803 45.2529 4.20803 42.6318L4.20802 22.2459C4.20802 19.6248 4.16642 19.1256 4 18.0439L4 17.8775ZM34.9199 17.8775L41.6597 17.8775L41.6597 18.0439C41.4101 19.1256 41.3685 19.6248 41.3685 22.2459L41.3685 38.3466L59.2582 17.8774L60.5895 17.8774C60.2567 19.1256 60.2567 19.7496 60.2567 26.1982L60.2567 42.6318C60.2567 45.2529 60.2983 45.7521 60.4647 46.8338L60.4647 47.0002L53.7249 47.0002L53.7249 46.8338C53.9745 45.7521 54.0161 45.2529 54.0161 42.6318L54.0161 26.5311L36.1264 47.0002L34.7951 47.0002C35.1279 45.7521 35.1279 45.1281 35.1279 43.0479L35.1279 22.2459C35.1279 19.6248 35.0863 19.1256 34.9199 18.0439L34.9199 17.8775ZM92.7273 21.6634L92.7273 27.4047L91.7704 27.4047C91.0631 21.8714 86.9027 18.6263 82.6591 18.6263C77.625 18.6263 72.4661 22.9531 72.4662 32.8965C72.4662 41.9245 77.1258 45.9185 81.9519 45.9185C86.1123 45.9185 90.3975 42.7982 91.7704 37.4313L92.7273 37.4313L92.7273 42.8814C89.8982 45.6689 85.7794 47.6659 81.1198 47.6659C72.5494 47.6659 65.8095 40.8428 65.8095 32.2724C65.8095 23.702 72.5494 16.879 81.1198 16.8789C85.821 16.8789 89.9398 18.8759 92.7273 21.6634ZM107.187 17.8774C108.685 17.8774 110.724 17.5862 111.805 16.7125L121 42.6318C122.206 46.0849 122.498 46.5842 122.622 46.8338L122.622 47.0002L115.217 47.0002L115.217 46.8338C115.217 46.5842 115.55 46.0849 114.343 42.6318L113.386 39.8443L100.572 39.8443L99.5321 42.6318C98.2008 46.0849 98.4088 46.5842 98.4088 46.8338L98.4088 47.0002L95.7878 47.0002L95.7878 46.8338C95.9126 46.5842 96.2454 46.0849 97.5767 42.6318L107.187 17.8774ZM101.238 38.097L112.762 38.097L107.27 22.2875L101.238 38.097ZM124.728 17.8774L143.866 17.8774L143.866 19.916L143.699 19.916C142.618 19.6664 142.118 19.6248 139.913 19.6248L137.417 19.6248L137.417 42.6318C137.417 45.1696 137.459 45.6273 137.667 46.6258L137.708 46.8338L137.708 47.0002L130.885 47.0002L130.885 46.8338L130.927 46.6258C131.135 45.6273 131.176 45.1696 131.176 42.6318L131.176 19.6248L128.68 19.6248C126.475 19.6248 125.976 19.6664 124.894 19.916L124.728 19.916L124.728 17.8774ZM147.818 17.8774L166.041 17.8774L166.041 20.0408L165.874 20.0408C164.792 19.6248 164.168 19.6248 162.088 19.6248L154.267 19.6248L154.267 26.7391L162.795 26.7391L162.795 28.4864L154.267 28.4864L154.267 45.2528L163.628 45.2528C165.833 45.2528 166.332 45.2112 167.414 44.9616L167.58 44.9616L167.58 47.0002L147.818 47.0002L147.818 46.8338C147.984 45.7521 148.026 45.2528 148.026 42.6318L148.026 22.2458C148.026 19.6248 147.984 19.1255 147.818 18.0438L147.818 17.8774ZM192.339 47.0002L184.892 47.0002L184.892 46.8338C184.892 46.5841 185.308 46.1265 184.143 42.6318L177.32 22.4954L169.998 42.6318C168.75 46.0849 168.958 46.5841 168.958 46.8338L168.958 47.0002L166.337 47.0002L166.337 46.8338C166.462 46.5841 166.794 46.0849 168.084 42.6318L177.32 17.8774C178.818 17.8774 180.856 17.5862 181.938 16.7125L190.758 42.6318C191.923 46.1265 192.214 46.5841 192.339 46.8338L192.339 47.0002ZM195.879 17.8774L202.619 17.8774L202.619 18.0438C202.369 19.1255 202.327 19.6248 202.327 22.2458L202.327 45.2528L205.073 45.2528C209.858 45.2528 212.229 41.342 212.229 37.4313C212.229 33.3957 209.691 29.3185 204.574 29.3185L203.992 29.3185L203.992 28.0704C204.99 27.9456 205.947 27.8624 206.945 27.8624C212.895 27.8623 218.387 30.4002 218.387 36.724C218.387 43.1726 213.852 47.0002 206.155 47.0002L195.879 47.0002L195.879 46.8338C196.045 45.7521 196.087 45.2528 196.087 42.6318L196.087 22.2458C196.087 19.6248 196.045 19.1255 195.879 18.0438L195.879 17.8774Z" fill="#F6F1FF"/>
</g>
<path d="M4 17.8775L28.5463 17.8775L28.5463 18.0439C28.3799 19.1256 28.3383 19.6248 28.3383 22.2459L28.3383 42.6318C28.3383 45.2529 28.3799 45.7521 28.5464 46.8338L28.5464 47.0002L21.8065 47.0002L21.8065 46.8338C22.0561 45.7521 22.0977 45.2529 22.0977 42.6318L22.0977 19.6248L10.4486 19.6248L10.4486 42.6318C10.4486 45.2529 10.4902 45.7521 10.7399 46.8338L10.7399 47.0002L4.00001 47.0002L4.00001 46.8338C4.16643 45.7521 4.20803 45.2529 4.20803 42.6318L4.20802 22.2459C4.20802 19.6248 4.16642 19.1256 4 18.0439L4 17.8775ZM34.9199 17.8775L41.6597 17.8775L41.6597 18.0439C41.4101 19.1256 41.3685 19.6248 41.3685 22.2459L41.3685 38.3466L59.2582 17.8774L60.5895 17.8774C60.2567 19.1256 60.2567 19.7496 60.2567 26.1982L60.2567 42.6318C60.2567 45.2529 60.2983 45.7521 60.4647 46.8338L60.4647 47.0002L53.7249 47.0002L53.7249 46.8338C53.9745 45.7521 54.0161 45.2529 54.0161 42.6318L54.0161 26.5311L36.1264 47.0002L34.7951 47.0002C35.1279 45.7521 35.1279 45.1281 35.1279 43.0479L35.1279 22.2459C35.1279 19.6248 35.0863 19.1256 34.9199 18.0439L34.9199 17.8775ZM92.7273 21.6634L92.7273 27.4047L91.7704 27.4047C91.0631 21.8714 86.9027 18.6263 82.6591 18.6263C77.625 18.6263 72.4661 22.9531 72.4662 32.8965C72.4662 41.9245 77.1258 45.9185 81.9519 45.9185C86.1123 45.9185 90.3975 42.7982 91.7704 37.4313L92.7273 37.4313L92.7273 42.8814C89.8982 45.6689 85.7794 47.6659 81.1198 47.6659C72.5494 47.6659 65.8095 40.8428 65.8095 32.2724C65.8095 23.702 72.5494 16.879 81.1198 16.8789C85.821 16.8789 89.9398 18.8759 92.7273 21.6634ZM107.187 17.8774C108.685 17.8774 110.724 17.5862 111.805 16.7125L121 42.6318C122.206 46.0849 122.498 46.5842 122.622 46.8338L122.622 47.0002L115.217 47.0002L115.217 46.8338C115.217 46.5842 115.55 46.0849 114.343 42.6318L113.386 39.8443L100.572 39.8443L99.5321 42.6318C98.2008 46.0849 98.4088 46.5842 98.4088 46.8338L98.4088 47.0002L95.7878 47.0002L95.7878 46.8338C95.9126 46.5842 96.2454 46.0849 97.5767 42.6318L107.187 17.8774ZM101.238 38.097L112.762 38.097L107.27 22.2875L101.238 38.097ZM124.728 17.8774L143.866 17.8774L143.866 19.916L143.699 19.916C142.618 19.6664 142.118 19.6248 139.913 19.6248L137.417 19.6248L137.417 42.6318C137.417 45.1696 137.459 45.6273 137.667 46.6258L137.708 46.8338L137.708 47.0002L130.885 47.0002L130.885 46.8338L130.927 46.6258C131.135 45.6273 131.176 45.1696 131.176 42.6318L131.176 19.6248L128.68 19.6248C126.475 19.6248 125.976 19.6664 124.894 19.916L124.728 19.916L124.728 17.8774ZM147.818 17.8774L166.041 17.8774L166.041 20.0408L165.874 20.0408C164.792 19.6248 164.168 19.6248 162.088 19.6248L154.267 19.6248L154.267 26.7391L162.795 26.7391L162.795 28.4864L154.267 28.4864L154.267 45.2528L163.628 45.2528C165.833 45.2528 166.332 45.2112 167.414 44.9616L167.58 44.9616L167.58 47.0002L147.818 47.0002L147.818 46.8338C147.984 45.7521 148.026 45.2528 148.026 42.6318L148.026 22.2458C148.026 19.6248 147.984 19.1255 147.818 18.0438L147.818 17.8774ZM192.339 47.0002L184.892 47.0002L184.892 46.8338C184.892 46.5841 185.308 46.1265 184.143 42.6318L177.32 22.4954L169.998 42.6318C168.75 46.0849 168.958 46.5841 168.958 46.8338L168.958 47.0002L166.337 47.0002L166.337 46.8338C166.462 46.5841 166.794 46.0849 168.084 42.6318L177.32 17.8774C178.818 17.8774 180.856 17.5862 181.938 16.7125L190.758 42.6318C191.923 46.1265 192.214 46.5841 192.339 46.8338L192.339 47.0002ZM195.879 17.8774L202.619 17.8774L202.619 18.0438C202.369 19.1255 202.327 19.6248 202.327 22.2458L202.327 45.2528L205.073 45.2528C209.858 45.2528 212.229 41.342 212.229 37.4313C212.229 33.3957 209.691 29.3185 204.574 29.3185L203.992 29.3185L203.992 28.0704C204.99 27.9456 205.947 27.8624 206.945 27.8624C212.895 27.8623 218.387 30.4002 218.387 36.724C218.387 43.1726 213.852 47.0002 206.155 47.0002L195.879 47.0002L195.879 46.8338C196.045 45.7521 196.087 45.2528 196.087 42.6318L196.087 22.2458C196.087 19.6248 196.045 19.1255 195.879 18.0438L195.879 17.8774Z" fill="#F6F1FF"/>
<path opacity="0.5" d="M26.1931 80.5788L26.2032 79.2317L32.7475 73.3207C33.8634 72.3154 34.1449 71.4307 34.1449 70.4255C34.1449 68.636 32.7676 67.2287 30.9883 67.2287C29.1386 67.2287 27.7714 68.7165 27.7915 70.4154L26.2836 70.4154C26.2836 67.7715 28.3243 65.8112 31.0084 65.8112C33.6422 65.8112 35.6428 67.8519 35.6428 70.4355C35.6428 72.2551 34.9994 73.2603 33.592 74.517L28.4449 79.1614L35.6428 79.1614L35.6428 80.5788L26.1931 80.5788ZM44.8468 80.5889L44.8468 77.7841L38.0711 77.7841L38.0711 76.3767L42.9166 66.1128L44.5753 66.1128L39.7299 76.3767L44.8468 76.3767L44.8468 72.1545L46.3346 72.1545L46.3346 76.3767L47.9129 76.3767L47.9129 77.7841L46.3346 77.7841L46.3346 80.5889L44.8468 80.5889ZM55.8615 80.8904C53.1774 80.8904 51.1367 78.8497 51.1367 76.1656L51.1367 70.536C51.1367 67.8519 53.1774 65.8112 55.8615 65.8112C58.5456 65.8112 60.5863 67.8519 60.5863 70.536L60.5863 76.1656C60.5864 78.8497 58.5456 80.8904 55.8615 80.8904ZM55.8615 79.4629C57.6409 79.4629 59.0885 78.0153 59.0885 76.236L59.0885 70.4657C59.0885 68.6762 57.6409 67.2286 55.8615 67.2286C54.0822 67.2286 52.6346 68.6763 52.6346 70.4657L52.6346 76.236C52.6346 78.0153 54.0822 79.4629 55.8615 79.4629ZM67.0272 73.0492C65.0368 73.0492 63.4082 71.4408 63.4082 69.4302C63.4082 67.4599 65.0971 65.8112 67.0272 65.8112C69.0177 65.8112 70.6462 67.4196 70.6462 69.4302C70.6462 71.4408 69.0177 73.0492 67.0272 73.0492ZM67.0272 71.7122C68.2637 71.7122 69.3092 70.6667 69.3092 69.4302C69.3092 68.1937 68.2637 67.1482 67.0272 67.1482C65.7907 67.1482 64.7452 68.1937 64.7452 69.4302C64.7452 70.6667 65.7907 71.7122 67.0272 71.7122ZM78.793 80.8904C76.1089 80.8904 74.0681 78.8497 74.0681 76.1656L74.0681 70.536C74.0681 67.8519 76.1089 65.8112 78.793 65.8112C81.4771 65.8112 83.5178 67.8519 83.5178 70.536L83.5178 76.1656C83.5178 78.8497 81.4771 80.8904 78.793 80.8904ZM78.793 79.4629C80.5723 79.4629 82.0199 78.0153 82.0199 76.236L82.0199 70.4656C82.0199 68.6762 80.5723 67.2286 78.793 67.2286C77.0136 67.2286 75.566 68.6762 75.566 70.4656L75.566 76.236C75.566 78.0153 77.0136 79.4629 78.793 79.4629ZM91.8687 80.8904C89.1846 80.8904 87.1439 78.8497 87.1439 76.1656L87.1439 70.536C87.1439 67.8519 89.1846 65.8112 91.8687 65.8112C94.5528 65.8112 96.5935 67.8519 96.5935 70.536L96.5936 76.1656C96.5936 78.8497 94.5528 80.8904 91.8687 80.8904ZM91.8687 79.4629C93.6481 79.4629 95.0957 78.0153 95.0957 76.236L95.0957 70.4656C95.0957 68.6762 93.6481 67.2286 91.8687 67.2286C90.0894 67.2286 88.6418 68.6762 88.6418 70.4656L88.6418 76.236C88.6418 78.0153 90.0894 79.4629 91.8687 79.4629ZM101.084 65.9821L102.572 65.9821L101.165 70.8074L100.149 70.8074L101.084 65.9821ZM103.638 65.9821L105.125 65.9821L103.718 70.8074L102.703 70.8074L103.638 65.9821ZM113.133 74.8889L113.133 73.6222L121.577 73.6222L121.577 74.8889L113.133 74.8889ZM134.59 65.8212C137.315 65.8212 139.486 67.9926 139.486 70.8074L139.486 75.8338C139.486 78.7391 137.355 80.8904 134.48 80.8904C132.831 80.8904 131.363 80.1163 130.459 78.8296L131.584 77.8947C132.208 78.8497 133.283 79.473 134.48 79.473C136.52 79.473 137.998 77.8243 137.998 75.9645L137.998 73.7428C137.134 74.7783 135.867 75.4518 134.45 75.4518C131.765 75.4518 129.695 73.3407 129.695 70.6566C129.695 67.9725 131.906 65.8212 134.59 65.8212ZM134.59 67.2487C132.7 67.2487 131.182 68.7667 131.182 70.6566C131.182 72.5466 132.69 74.0645 134.58 74.0645C136.47 74.0645 137.998 72.5466 137.998 70.6566C137.998 68.7768 136.48 67.2487 134.59 67.2487ZM147.822 80.8904C145.138 80.8904 143.097 78.8497 143.097 76.1656L143.097 70.536C143.097 67.8519 145.138 65.8112 147.822 65.8112C150.506 65.8112 152.547 67.8519 152.547 70.536L152.547 76.1656C152.547 78.8497 150.506 80.8904 147.822 80.8904ZM147.822 79.4629C149.602 79.4629 151.049 78.0153 151.049 76.2359L151.049 70.4656C151.049 68.6762 149.602 67.2286 147.822 67.2286C146.043 67.2286 144.595 68.6762 144.595 70.4656L144.595 76.236C144.595 78.0153 146.043 79.4629 147.822 79.4629ZM158.988 73.0492C156.997 73.0492 155.369 71.4407 155.369 69.4302C155.369 67.4598 157.058 65.8112 158.988 65.8112C160.978 65.8112 162.607 67.4196 162.607 69.4302C162.607 71.4407 160.978 73.0492 158.988 73.0492ZM158.988 71.7122C160.224 71.7122 161.27 70.6667 161.27 69.4302C161.27 68.1937 160.224 67.1482 158.988 67.1482C157.751 67.1482 156.706 68.1937 156.706 69.4302C156.706 70.6667 157.751 71.7122 158.988 71.7122ZM170.754 80.8904C168.069 80.8904 166.029 78.8497 166.029 76.1656L166.029 70.536C166.029 67.8519 168.069 65.8112 170.754 65.8112C173.438 65.8112 175.478 67.8519 175.478 70.536L175.478 76.1656C175.478 78.8497 173.438 80.8904 170.754 80.8904ZM170.754 79.4629C172.533 79.4629 173.981 78.0153 173.981 76.2359L173.981 70.4656C173.981 68.6762 172.533 67.2286 170.754 67.2286C168.974 67.2286 167.527 68.6762 167.527 70.4656L167.527 76.2359C167.527 78.0153 168.974 79.4629 170.754 79.4629ZM183.829 80.8904C181.145 80.8904 179.105 78.8497 179.105 76.1656L179.105 70.536C179.105 67.8519 181.145 65.8112 183.829 65.8112C186.513 65.8111 188.554 67.8519 188.554 70.536L188.554 76.1656C188.554 78.8497 186.513 80.8904 183.829 80.8904ZM183.829 79.4629C185.609 79.4629 187.056 78.0153 187.056 76.2359L187.056 70.4656C187.056 68.6762 185.609 67.2286 183.829 67.2286C182.05 67.2286 180.602 68.6762 180.602 70.4656L180.602 76.2359C180.602 78.0153 182.05 79.4629 183.829 79.4629ZM193.045 65.982L194.533 65.982L193.125 70.8074L192.11 70.8074L193.045 65.982ZM195.598 65.982L197.086 65.982L195.679 70.8074L194.663 70.8074L195.598 65.982Z" fill="#F6F1FF"/>
<defs>
<filter id="filter0_f_31_273" x="60.1453" y="63.3491" width="296.032" height="251.918" filterUnits="userSpaceOnUse" color-interpolation-filters="sRGB">
<feFlood flood-opacity="0" result="BackgroundImageFix"/>
<feBlend mode="normal" in="SourceGraphic" in2="BackgroundImageFix" result="shape"/>
<feGaussianBlur stdDeviation="5.1964" result="effect1_foregroundBlur_31_273"/>
</filter>
<filter id="filter1_f_31_273" x="0" y="12.7124" width="222.386" height="38.9536" filterUnits="userSpaceOnUse" color-interpolation-filters="sRGB">
<feFlood flood-opacity="0" result="BackgroundImageFix"/>
<feBlend mode="normal" in="SourceGraphic" in2="BackgroundImageFix" result="shape"/>
<feGaussianBlur stdDeviation="2" result="effect1_foregroundBlur_31_273"/>
</filter>
</defs>
</svg>
